<?xml version="1.0" encoding="UTF-8" standalone="no"?>
<!DOCTYPE svg PUBLIC "-//W3C//DTD SVG 1.1//EN"
 "http://www.w3.org/Graphics/SVG/1.1/DTD/svg11.dtd">
<!-- Generated by graphviz version 2.40.1 (20161225.0304)
 -->
<!-- Title: %3 Pages: 1 -->
<svg width="2062pt" height="382pt"
 viewBox="0.00 0.00 2062.00 382.00" xmlns="http://www.w3.org/2000/svg" xmlns:xlink="http://www.w3.org/1999/xlink">
<g id="graph0" class="graph" transform="scale(1 1) rotate(0) translate(4 378)">
<title>%3</title>
<polygon fill="#ffffff" stroke="transparent" points="-4,4 -4,-378 2058,-378 2058,4 -4,4"/>
<g id="clust1" class="cluster">
<title>cluster__heaps_pak</title>
<polygon fill="none" stroke="#000000" stroke-dasharray="1,5" points="8,-8 8,-366 2046,-366 2046,-8 8,-8"/>
<text text-anchor="middle" x="1027" y="-350.8" font-family="Times,serif" font-size="14.00" fill="#000000">HeapsPak</text>
</g>
<g id="clust2" class="cluster">
<title>cluster__header</title>
<polygon fill="none" stroke="#000000" stroke-dasharray="1,5" points="241,-16 241,-335 2038,-335 2038,-16 241,-16"/>
<text text-anchor="middle" x="1139.5" y="-319.8" font-family="Times,serif" font-size="14.00" fill="#000000">HeapsPak::Header</text>
</g>
<g id="clust3" class="cluster">
<title>cluster__entry</title>
<polygon fill="none" stroke="#000000" stroke-dasharray="1,5" points="583,-48 583,-279 1312,-279 1312,-48 583,-48"/>
<text text-anchor="middle" x="947.5" y="-263.8" font-family="Times,serif" font-size="14.00" fill="#000000">HeapsPak::Header::Entry</text>
</g>
<g id="clust4" class="cluster">
<title>cluster__flags</title>
<polygon fill="none" stroke="#000000" stroke-dasharray="1,5" points="964,-137 964,-248 1304,-248 1304,-137 964,-137"/>
<text text-anchor="middle" x="1134" y="-232.8" font-family="Times,serif" font-size="14.00" fill="#000000">HeapsPak::Header::Entry::Flags</text>
</g>
<g id="clust5" class="cluster">
<title>cluster__file</title>
<polygon fill="none" stroke="#000000" stroke-dasharray="1,5" points="1337,-24 1337,-155 2030,-155 2030,-24 1337,-24"/>
<text text-anchor="middle" x="1683.5" y="-139.8" font-family="Times,serif" font-size="14.00" fill="#000000">HeapsPak::Header::File</text>
</g>
<g id="clust6" class="cluster">
<title>cluster__dir</title>
<polygon fill="none" stroke="#000000" stroke-dasharray="1,5" points="1324,-163 1324,-294 1564,-294 1564,-163 1324,-163"/>
<text text-anchor="middle" x="1444" y="-278.8" font-family="Times,serif" font-size="14.00" fill="#000000">HeapsPak::Header::Dir</text>
</g>
<!-- heaps_pak__seq -->
<g id="node1" class="node">
<title>heaps_pak__seq</title>
<polygon fill="#e0ffe0" stroke="transparent" points="24.5,-219 24.5,-240 55.5,-240 55.5,-219 24.5,-219"/>
<polygon fill="none" stroke="#000000" points="24.5,-219 24.5,-240 55.5,-240 55.5,-219 24.5,-219"/>
<text text-anchor="start" x="27.5" y="-225.8" font-family="Times,serif" font-size="14.00" fill="#000000">pos</text>
<polygon fill="#e0ffe0" stroke="transparent" points="55.5,-219 55.5,-240 89.5,-240 89.5,-219 55.5,-219"/>
<polygon fill="none" stroke="#000000" points="55.5,-219 55.5,-240 89.5,-240 89.5,-219 55.5,-219"/>
<text text-anchor="start" x="58.5" y="-225.8" font-family="Times,serif" font-size="14.00" fill="#000000">size</text>
<polygon fill="#e0ffe0" stroke="transparent" points="89.5,-219 89.5,-240 149.5,-240 149.5,-219 89.5,-219"/>
<polygon fill="none" stroke="#000000" points="89.5,-219 89.5,-240 149.5,-240 149.5,-219 89.5,-219"/>
<text text-anchor="start" x="103.5" y="-225.8" font-family="Times,serif" font-size="14.00" fill="#000000">type</text>
<polygon fill="#e0ffe0" stroke="transparent" points="149.5,-219 149.5,-240 205.5,-240 205.5,-219 149.5,-219"/>
<polygon fill="none" stroke="#000000" points="149.5,-219 149.5,-240 205.5,-240 205.5,-219 149.5,-219"/>
<text text-anchor="start" x="170.5" y="-225.8" font-family="Times,serif" font-size="14.00" fill="#000000">id</text>
<polygon fill="none" stroke="#000000" points="24.5,-198 24.5,-219 55.5,-219 55.5,-198 24.5,-198"/>
<text text-anchor="start" x="35" y="-204.8" font-family="Times,serif" font-size="14.00" fill="#000000">0</text>
<polygon fill="none" stroke="#000000" points="55.5,-198 55.5,-219 89.5,-219 89.5,-198 55.5,-198"/>
<text text-anchor="start" x="65.5" y="-204.8" font-family="Times,serif" font-size="14.00" fill="#000000">...</text>
<polygon fill="none" stroke="#000000" points="89.5,-198 89.5,-219 149.5,-219 149.5,-198 89.5,-198"/>
<text text-anchor="start" x="92.5" y="-204.8" font-family="Times,serif" font-size="14.00" fill="#000000">Header</text>
<polygon fill="none" stroke="#000000" points="149.5,-198 149.5,-219 205.5,-219 205.5,-198 149.5,-198"/>
<text text-anchor="start" x="152.5" y="-204.8" font-family="Times,serif" font-size="14.00" fill="#000000">header</text>
</g>
<!-- header__seq -->
<g id="node2" class="node">
<title>header__seq</title>
<polygon fill="#e0ffe0" stroke="transparent" points="257,-260 257,-281 288,-281 288,-260 257,-260"/>
<polygon fill="none" stroke="#000000" points="257,-260 257,-281 288,-281 288,-260 257,-260"/>
<text text-anchor="start" x="260" y="-266.8" font-family="Times,serif" font-size="14.00" fill="#000000">pos</text>
<polygon fill="#e0ffe0" stroke="transparent" points="288,-260 288,-281 415,-281 415,-260 288,-260"/>
<polygon fill="none" stroke="#000000" points="288,-260 288,-281 415,-281 415,-260 288,-260"/>
<text text-anchor="start" x="337.5" y="-266.8" font-family="Times,serif" font-size="14.00" fill="#000000">size</text>
<polygon fill="#e0ffe0" stroke="transparent" points="415,-260 415,-281 462,-281 462,-260 415,-260"/>
<polygon fill="none" stroke="#000000" points="415,-260 415,-281 462,-281 462,-260 415,-260"/>
<text text-anchor="start" x="422.5" y="-266.8" font-family="Times,serif" font-size="14.00" fill="#000000">type</text>
<polygon fill="#e0ffe0" stroke="transparent" points="462,-260 462,-281 547,-281 547,-260 462,-260"/>
<polygon fill="none" stroke="#000000" points="462,-260 462,-281 547,-281 547,-260 462,-260"/>
<text text-anchor="start" x="497.5" y="-266.8" font-family="Times,serif" font-size="14.00" fill="#000000">id</text>
<polygon fill="none" stroke="#000000" points="257,-239 257,-260 288,-260 288,-239 257,-239"/>
<text text-anchor="start" x="267.5" y="-245.8" font-family="Times,serif" font-size="14.00" fill="#000000">0</text>
<polygon fill="none" stroke="#000000" points="288,-239 288,-260 415,-260 415,-239 288,-239"/>
<text text-anchor="start" x="346.5" y="-245.8" font-family="Times,serif" font-size="14.00" fill="#000000">3</text>
<polygon fill="none" stroke="#000000" points="415,-239 415,-260 462,-260 462,-239 415,-239"/>
<polygon fill="none" stroke="#000000" points="462,-239 462,-260 547,-260 547,-239 462,-239"/>
<text text-anchor="start" x="478" y="-245.8" font-family="Times,serif" font-size="14.00" fill="#000000">magic1</text>
<polygon fill="none" stroke="#000000" points="257,-218 257,-239 288,-239 288,-218 257,-218"/>
<text text-anchor="start" x="267.5" y="-224.8" font-family="Times,serif" font-size="14.00" fill="#000000">3</text>
<polygon fill="none" stroke="#000000" points="288,-218 288,-239 415,-239 415,-218 288,-218"/>
<text text-anchor="start" x="346.5" y="-224.8" font-family="Times,serif" font-size="14.00" fill="#000000">1</text>
<polygon fill="none" stroke="#000000" points="415,-218 415,-239 462,-239 462,-218 415,-218"/>
<text text-anchor="start" x="429" y="-224.8" font-family="Times,serif" font-size="14.00" fill="#000000">u1</text>
<polygon fill="none" stroke="#000000" points="462,-218 462,-239 547,-239 547,-218 462,-218"/>
<text text-anchor="start" x="478" y="-224.8" font-family="Times,serif" font-size="14.00" fill="#000000">version</text>
<polygon fill="none" stroke="#000000" points="257,-197 257,-218 288,-218 288,-197 257,-197"/>
<text text-anchor="start" x="267.5" y="-203.8" font-family="Times,serif" font-size="14.00" fill="#000000">4</text>
<polygon fill="none" stroke="#000000" points="288,-197 288,-218 415,-218 415,-197 288,-197"/>
<text text-anchor="start" x="346.5" y="-203.8" font-family="Times,serif" font-size="14.00" fill="#000000">4</text>
<polygon fill="none" stroke="#000000" points="415,-197 415,-218 462,-218 462,-197 415,-197"/>
<text text-anchor="start" x="423" y="-203.8" font-family="Times,serif" font-size="14.00" fill="#000000">u4le</text>
<polygon fill="none" stroke="#000000" points="462,-197 462,-218 547,-218 547,-197 462,-197"/>
<text text-anchor="start" x="465" y="-203.8" font-family="Times,serif" font-size="14.00" fill="#000000">len_header</text>
<polygon fill="none" stroke="#000000" points="257,-176 257,-197 288,-197 288,-176 257,-176"/>
<text text-anchor="start" x="267.5" y="-182.8" font-family="Times,serif" font-size="14.00" fill="#000000">8</text>
<polygon fill="none" stroke="#000000" points="288,-176 288,-197 415,-197 415,-176 288,-176"/>
<text text-anchor="start" x="346.5" y="-182.8" font-family="Times,serif" font-size="14.00" fill="#000000">4</text>
<polygon fill="none" stroke="#000000" points="415,-176 415,-197 462,-197 462,-176 415,-176"/>
<text text-anchor="start" x="423" y="-182.8" font-family="Times,serif" font-size="14.00" fill="#000000">u4le</text>
<polygon fill="none" stroke="#000000" points="462,-176 462,-197 547,-197 547,-176 462,-176"/>
<text text-anchor="start" x="474" y="-182.8" font-family="Times,serif" font-size="14.00" fill="#000000">len_data</text>
<polygon fill="none" stroke="#000000" points="257,-155 257,-176 288,-176 288,-155 257,-155"/>
<text text-anchor="start" x="263" y="-161.8" font-family="Times,serif" font-size="14.00" fill="#000000">12</text>
<polygon fill="none" stroke="#000000" points="288,-155 288,-176 415,-176 415,-155 288,-155"/>
<text text-anchor="start" x="291" y="-161.8" font-family="Times,serif" font-size="14.00" fill="#000000">(len_header &#45; 16)</text>
<polygon fill="none" stroke="#000000" points="415,-155 415,-176 462,-176 462,-155 415,-155"/>
<text text-anchor="start" x="418" y="-161.8" font-family="Times,serif" font-size="14.00" fill="#000000">Entry</text>
<polygon fill="none" stroke="#000000" points="462,-155 462,-176 547,-176 547,-155 462,-155"/>
<text text-anchor="start" x="466.5" y="-161.8" font-family="Times,serif" font-size="14.00" fill="#000000">root_entry</text>
<polygon fill="none" stroke="#000000" points="257,-134 257,-155 288,-155 288,-134 257,-134"/>
<text text-anchor="start" x="265.5" y="-140.8" font-family="Times,serif" font-size="14.00" fill="#000000">...</text>
<polygon fill="none" stroke="#000000" points="288,-134 288,-155 415,-155 415,-134 288,-134"/>
<text text-anchor="start" x="346.5" y="-140.8" font-family="Times,serif" font-size="14.00" fill="#000000">4</text>
<polygon fill="none" stroke="#000000" points="415,-134 415,-155 462,-155 462,-134 415,-134"/>
<polygon fill="none" stroke="#000000" points="462,-134 462,-155 547,-155 547,-134 462,-134"/>
<text text-anchor="start" x="478" y="-140.8" font-family="Times,serif" font-size="14.00" fill="#000000">magic2</text>
</g>
<!-- heaps_pak__seq&#45;&gt;header__seq -->
<g id="edge1" class="edge">
<title>heaps_pak__seq:header_type&#45;&gt;header__seq</title>
<path fill="none" stroke="#000000" stroke-width="2" d="M205.5,-208C216.2741,-208 227.3804,-208 238.5731,-208"/>
<polygon fill="#000000" stroke="#000000" stroke-width="2" points="238.8694,-211.5001 248.8694,-208 238.8693,-204.5001 238.8694,-211.5001"/>
</g>
<!-- header__seq&#45;&gt;header__seq -->
<g id="edge2" class="edge">
<title>header__seq:len_header_type&#45;&gt;header__seq:root_entry_size</title>
<path fill="none" stroke="#404040" d="M525.1467,-218.0536C574.8481,-251.7546 560.8379,-303.5 428,-303.5 300.7935,-303.5 282.5533,-225.2302 324.88,-182.7746"/>
<polygon fill="#404040" stroke="#404040" points="327.3286,-185.2817 332.5038,-176.0368 322.6929,-180.0365 327.3286,-185.2817"/>
</g>
<!-- entry__seq -->
<g id="node3" class="node">
<title>entry__seq</title>
<polygon fill="#e0ffe0" stroke="transparent" points="599.5,-204 599.5,-225 630.5,-225 630.5,-204 599.5,-204"/>
<polygon fill="none" stroke="#000000" points="599.5,-204 599.5,-225 630.5,-225 630.5,-204 599.5,-204"/>
<text text-anchor="start" x="602.5" y="-210.8" font-family="Times,serif" font-size="14.00" fill="#000000">pos</text>
<polygon fill="#e0ffe0" stroke="transparent" points="630.5,-204 630.5,-225 705.5,-225 705.5,-204 630.5,-204"/>
<polygon fill="none" stroke="#000000" points="630.5,-204 630.5,-225 705.5,-225 705.5,-204 630.5,-204"/>
<text text-anchor="start" x="654" y="-210.8" font-family="Times,serif" font-size="14.00" fill="#000000">size</text>
<polygon fill="#e0ffe0" stroke="transparent" points="705.5,-204 705.5,-225 853.5,-225 853.5,-204 705.5,-204"/>
<polygon fill="none" stroke="#000000" points="705.5,-204 705.5,-225 853.5,-225 853.5,-204 705.5,-204"/>
<text text-anchor="start" x="763.5" y="-210.8" font-family="Times,serif" font-size="14.00" fill="#000000">type</text>
<polygon fill="#e0ffe0" stroke="transparent" points="853.5,-204 853.5,-225 928.5,-225 928.5,-204 853.5,-204"/>
<polygon fill="none" stroke="#000000" points="853.5,-204 853.5,-225 928.5,-225 928.5,-204 853.5,-204"/>
<text text-anchor="start" x="884" y="-210.8" font-family="Times,serif" font-size="14.00" fill="#000000">id</text>
<polygon fill="none" stroke="#000000" points="599.5,-183 599.5,-204 630.5,-204 630.5,-183 599.5,-183"/>
<text text-anchor="start" x="610" y="-189.8" font-family="Times,serif" font-size="14.00" fill="#000000">0</text>
<polygon fill="none" stroke="#000000" points="630.5,-183 630.5,-204 705.5,-204 705.5,-183 630.5,-183"/>
<text text-anchor="start" x="663" y="-189.8" font-family="Times,serif" font-size="14.00" fill="#000000">1</text>
<polygon fill="none" stroke="#000000" points="705.5,-183 705.5,-204 853.5,-204 853.5,-183 705.5,-183"/>
<text text-anchor="start" x="770" y="-189.8" font-family="Times,serif" font-size="14.00" fill="#000000">u1</text>
<polygon fill="none" stroke="#000000" points="853.5,-183 853.5,-204 928.5,-204 928.5,-183 853.5,-183"/>
<text text-anchor="start" x="856.5" y="-189.8" font-family="Times,serif" font-size="14.00" fill="#000000">len_name</text>
<polygon fill="none" stroke="#000000" points="599.5,-162 599.5,-183 630.5,-183 630.5,-162 599.5,-162"/>
<text text-anchor="start" x="610" y="-168.8" font-family="Times,serif" font-size="14.00" fill="#000000">1</text>
<polygon fill="none" stroke="#000000" points="630.5,-162 630.5,-183 705.5,-183 705.5,-162 630.5,-162"/>
<text text-anchor="start" x="633.5" y="-168.8" font-family="Times,serif" font-size="14.00" fill="#000000">len_name</text>
<polygon fill="none" stroke="#000000" points="705.5,-162 705.5,-183 853.5,-183 853.5,-162 705.5,-162"/>
<text text-anchor="start" x="741.5" y="-168.8" font-family="Times,serif" font-size="14.00" fill="#000000">str(UTF&#45;8)</text>
<polygon fill="none" stroke="#000000" points="853.5,-162 853.5,-183 928.5,-183 928.5,-162 853.5,-162"/>
<text text-anchor="start" x="871" y="-168.8" font-family="Times,serif" font-size="14.00" fill="#000000">name</text>
<polygon fill="none" stroke="#000000" points="599.5,-141 599.5,-162 630.5,-162 630.5,-141 599.5,-141"/>
<text text-anchor="start" x="608" y="-147.8" font-family="Times,serif" font-size="14.00" fill="#000000">...</text>
<polygon fill="none" stroke="#000000" points="630.5,-141 630.5,-162 705.5,-162 705.5,-141 630.5,-141"/>
<text text-anchor="start" x="663" y="-147.8" font-family="Times,serif" font-size="14.00" fill="#000000">1</text>
<polygon fill="none" stroke="#000000" points="705.5,-141 705.5,-162 853.5,-162 853.5,-141 705.5,-141"/>
<text text-anchor="start" x="759.5" y="-147.8" font-family="Times,serif" font-size="14.00" fill="#000000">Flags</text>
<polygon fill="none" stroke="#000000" points="853.5,-141 853.5,-162 928.5,-162 928.5,-141 853.5,-141"/>
<text text-anchor="start" x="873.5" y="-147.8" font-family="Times,serif" font-size="14.00" fill="#000000">flags</text>
<polygon fill="none" stroke="#000000" points="599.5,-120 599.5,-141 630.5,-141 630.5,-120 599.5,-120"/>
<text text-anchor="start" x="608" y="-126.8" font-family="Times,serif" font-size="14.00" fill="#000000">...</text>
<polygon fill="none" stroke="#000000" points="630.5,-120 630.5,-141 705.5,-141 705.5,-120 630.5,-120"/>
<text text-anchor="start" x="661" y="-126.8" font-family="Times,serif" font-size="14.00" fill="#000000">...</text>
<polygon fill="none" stroke="#000000" points="705.5,-120 705.5,-141 853.5,-141 853.5,-120 705.5,-120"/>
<text text-anchor="start" x="708.5" y="-126.8" font-family="Times,serif" font-size="14.00" fill="#000000">switch (flags.is_dir)</text>
<polygon fill="none" stroke="#000000" points="853.5,-120 853.5,-141 928.5,-141 928.5,-120 853.5,-120"/>
<text text-anchor="start" x="873.5" y="-126.8" font-family="Times,serif" font-size="14.00" fill="#000000">body</text>
</g>
<!-- header__seq&#45;&gt;entry__seq -->
<g id="edge3" class="edge">
<title>header__seq:root_entry_type&#45;&gt;entry__seq</title>
<path fill="none" stroke="#000000" stroke-width="2" d="M547,-165C558.0545,-165 569.4244,-165.1054 580.8915,-165.2921"/>
<polygon fill="#000000" stroke="#000000" stroke-width="2" points="580.9259,-168.7932 590.9882,-165.4765 581.0538,-161.7944 580.9259,-168.7932"/>
</g>
<!-- file__inst__data -->
<g id="node7" class="node">
<title>file__inst__data</title>
<polygon fill="#e0ffe0" stroke="transparent" points="1600,-99 1600,-120 1871,-120 1871,-99 1600,-99"/>
<polygon fill="none" stroke="#000000" points="1600,-99 1600,-120 1871,-120 1871,-99 1600,-99"/>
<text text-anchor="start" x="1723" y="-105.8" font-family="Times,serif" font-size="14.00" fill="#000000">pos</text>
<polygon fill="#e0ffe0" stroke="transparent" points="1871,-99 1871,-120 1938,-120 1938,-99 1871,-99"/>
<polygon fill="none" stroke="#000000" points="1871,-99 1871,-120 1938,-120 1938,-99 1871,-99"/>
<text text-anchor="start" x="1890.5" y="-105.8" font-family="Times,serif" font-size="14.00" fill="#000000">size</text>
<polygon fill="#e0ffe0" stroke="transparent" points="1938,-99 1938,-120 1976,-120 1976,-99 1938,-99"/>
<polygon fill="none" stroke="#000000" points="1938,-99 1938,-120 1976,-120 1976,-99 1938,-99"/>
<text text-anchor="start" x="1941" y="-105.8" font-family="Times,serif" font-size="14.00" fill="#000000">type</text>
<polygon fill="#e0ffe0" stroke="transparent" points="1976,-99 1976,-120 2014,-120 2014,-99 1976,-99"/>
<polygon fill="none" stroke="#000000" points="1976,-99 1976,-120 2014,-120 2014,-99 1976,-99"/>
<text text-anchor="start" x="1988" y="-105.8" font-family="Times,serif" font-size="14.00" fill="#000000">id</text>
<polygon fill="none" stroke="#000000" points="1600,-78 1600,-99 1871,-99 1871,-78 1600,-78"/>
<text text-anchor="start" x="1603" y="-84.8" font-family="Times,serif" font-size="14.00" fill="#000000">(_root.header.len_header + ofs_data)</text>
<polygon fill="none" stroke="#000000" points="1871,-78 1871,-99 1938,-99 1938,-78 1871,-78"/>
<text text-anchor="start" x="1874" y="-84.8" font-family="Times,serif" font-size="14.00" fill="#000000">len_data</text>
<polygon fill="none" stroke="#000000" points="1938,-78 1938,-99 1976,-99 1976,-78 1938,-78"/>
<polygon fill="none" stroke="#000000" points="1976,-78 1976,-99 2014,-99 2014,-78 1976,-78"/>
<text text-anchor="start" x="1979" y="-84.8" font-family="Times,serif" font-size="14.00" fill="#000000">data</text>
</g>
<!-- header__seq&#45;&gt;file__inst__data -->
<g id="edge10" class="edge">
<title>header__seq:len_header_type&#45;&gt;file__inst__data:data_pos</title>
<path fill="none" stroke="#404040" d="M547,-207C584.3756,-207 551.6211,-262.6948 583,-283 859.5504,-461.9547 994.6161,-294.6665 1324,-298 1430.6612,-299.0795 1482.4518,-366.7581 1564,-298 1633.5676,-239.3435 1515.2361,-99.5033 1589.9109,-88.6678"/>
<polygon fill="#404040" stroke="#404040" points="1590.253,-92.1529 1600,-88 1589.7907,-85.1682 1590.253,-92.1529"/>
</g>
<!-- entry__seq&#45;&gt;entry__seq -->
<g id="edge4" class="edge">
<title>entry__seq:len_name_type&#45;&gt;entry__seq:name_size</title>
<path fill="none" stroke="#404040" d="M922.3344,-204.0212C977.9369,-225.9423 954.6719,-247.5 779.5,-247.5 614.5921,-247.5 584.311,-213.7322 627.7187,-187.8195"/>
<polygon fill="#404040" stroke="#404040" points="629.4657,-190.8549 636.6656,-183.0823 626.1901,-184.6685 629.4657,-190.8549"/>
</g>
<!-- entry__seq_body_switch -->
<g id="node4" class="node">
<title>entry__seq_body_switch</title>
<polygon fill="#f0f2e4" stroke="transparent" points="1095,-102 1095,-123 1135,-123 1135,-102 1095,-102"/>
<polygon fill="none" stroke="#000000" points="1095,-102 1095,-123 1135,-123 1135,-102 1095,-102"/>
<text text-anchor="start" x="1098.5" y="-108.8" font-family="Times,serif" font-size="14.00" fill="#000000">case</text>
<polygon fill="#f0f2e4" stroke="transparent" points="1135,-102 1135,-123 1173,-123 1173,-102 1135,-102"/>
<polygon fill="none" stroke="#000000" points="1135,-102 1135,-123 1173,-123 1173,-102 1135,-102"/>
<text text-anchor="start" x="1138" y="-108.8" font-family="Times,serif" font-size="14.00" fill="#000000">type</text>
<polygon fill="none" stroke="#000000" points="1095,-81 1095,-102 1135,-102 1135,-81 1095,-81"/>
<text text-anchor="start" x="1099.5" y="-87.8" font-family="Times,serif" font-size="14.00" fill="#000000">true</text>
<polygon fill="none" stroke="#000000" points="1135,-81 1135,-102 1173,-102 1173,-81 1135,-81"/>
<text text-anchor="start" x="1142.5" y="-87.8" font-family="Times,serif" font-size="14.00" fill="#000000">Dir</text>
<polygon fill="none" stroke="#000000" points="1095,-60 1095,-81 1135,-81 1135,-60 1095,-60"/>
<text text-anchor="start" x="1098" y="-66.8" font-family="Times,serif" font-size="14.00" fill="#000000">false</text>
<polygon fill="none" stroke="#000000" points="1135,-60 1135,-81 1173,-81 1173,-60 1135,-60"/>
<text text-anchor="start" x="1140" y="-66.8" font-family="Times,serif" font-size="14.00" fill="#000000">File</text>
</g>
<!-- entry__seq&#45;&gt;entry__seq_body_switch -->
<g id="edge6" class="edge">
<title>entry__seq:body_type&#45;&gt;entry__seq_body_switch</title>
<path fill="none" stroke="#000000" stroke-width="2" d="M928.5,-130C979.2802,-130 1035.9596,-118.6418 1076.9096,-108.3448"/>
<polygon fill="#000000" stroke="#000000" stroke-width="2" points="1077.8923,-111.706 1086.7059,-105.8264 1076.1494,-104.9265 1077.8923,-111.706"/>
</g>
<!-- flags__seq -->
<g id="node5" class="node">
<title>flags__seq</title>
<polygon fill="#e0ffe0" stroke="transparent" points="980,-191 980,-212 1011,-212 1011,-191 980,-191"/>
<polygon fill="none" stroke="#000000" points="980,-191 980,-212 1011,-212 1011,-191 980,-191"/>
<text text-anchor="start" x="983" y="-197.8" font-family="Times,serif" font-size="14.00" fill="#000000">pos</text>
<polygon fill="#e0ffe0" stroke="transparent" points="1011,-191 1011,-212 1045,-212 1045,-191 1011,-191"/>
<polygon fill="none" stroke="#000000" points="1011,-191 1011,-212 1045,-212 1045,-191 1011,-191"/>
<text text-anchor="start" x="1014" y="-197.8" font-family="Times,serif" font-size="14.00" fill="#000000">size</text>
<polygon fill="#e0ffe0" stroke="transparent" points="1045,-191 1045,-212 1230,-212 1230,-191 1045,-191"/>
<polygon fill="none" stroke="#000000" points="1045,-191 1045,-212 1230,-212 1230,-191 1045,-191"/>
<text text-anchor="start" x="1121.5" y="-197.8" font-family="Times,serif" font-size="14.00" fill="#000000">type</text>
<polygon fill="#e0ffe0" stroke="transparent" points="1230,-191 1230,-212 1288,-212 1288,-191 1230,-191"/>
<polygon fill="none" stroke="#000000" points="1230,-191 1230,-212 1288,-212 1288,-191 1230,-191"/>
<text text-anchor="start" x="1252" y="-197.8" font-family="Times,serif" font-size="14.00" fill="#000000">id</text>
<polygon fill="none" stroke="#000000" points="980,-170 980,-191 1011,-191 1011,-170 980,-170"/>
<text text-anchor="start" x="990.5" y="-176.8" font-family="Times,serif" font-size="14.00" fill="#000000">0</text>
<polygon fill="none" stroke="#000000" points="1011,-170 1011,-191 1045,-191 1045,-170 1011,-170"/>
<text text-anchor="start" x="1018.5" y="-176.8" font-family="Times,serif" font-size="14.00" fill="#000000">7b</text>
<polygon fill="none" stroke="#000000" points="1045,-170 1045,-191 1230,-191 1230,-170 1045,-170"/>
<text text-anchor="start" x="1128" y="-176.8" font-family="Times,serif" font-size="14.00" fill="#000000">b7</text>
<polygon fill="none" stroke="#000000" points="1230,-170 1230,-191 1288,-191 1288,-170 1230,-170"/>
<text text-anchor="start" x="1233" y="-176.8" font-family="Times,serif" font-size="14.00" fill="#000000">unused</text>
<polygon fill="none" stroke="#000000" points="980,-149 980,-170 1011,-170 1011,-149 980,-149"/>
<text text-anchor="start" x="984" y="-155.8" font-family="Times,serif" font-size="14.00" fill="#000000">0:7</text>
<polygon fill="none" stroke="#000000" points="1011,-149 1011,-170 1045,-170 1045,-149 1011,-149"/>
<text text-anchor="start" x="1018.5" y="-155.8" font-family="Times,serif" font-size="14.00" fill="#000000">1b</text>
<polygon fill="none" stroke="#000000" points="1045,-149 1045,-170 1230,-170 1230,-149 1045,-149"/>
<text text-anchor="start" x="1048" y="-155.8" font-family="Times,serif" font-size="14.00" fill="#000000">BitsType1(BigBitEndian)</text>
<polygon fill="none" stroke="#000000" points="1230,-149 1230,-170 1288,-170 1288,-149 1230,-149"/>
<text text-anchor="start" x="1239" y="-155.8" font-family="Times,serif" font-size="14.00" fill="#000000">is_dir</text>
</g>
<!-- entry__seq&#45;&gt;flags__seq -->
<g id="edge5" class="edge">
<title>entry__seq:flags_type&#45;&gt;flags__seq</title>
<path fill="none" stroke="#000000" stroke-width="2" d="M928.5,-151C939.3349,-151 950.4577,-151.4134 961.6516,-152.1431"/>
<polygon fill="#000000" stroke="#000000" stroke-width="2" points="961.7158,-155.6572 971.9455,-152.8994 962.2288,-148.676 961.7158,-155.6572"/>
</g>
<!-- file__seq -->
<g id="node6" class="node">
<title>file__seq</title>
<polygon fill="#e0ffe0" stroke="transparent" points="1353,-99 1353,-120 1384,-120 1384,-99 1353,-99"/>
<polygon fill="none" stroke="#000000" points="1353,-99 1353,-120 1384,-120 1384,-99 1353,-99"/>
<text text-anchor="start" x="1356" y="-105.8" font-family="Times,serif" font-size="14.00" fill="#000000">pos</text>
<polygon fill="#e0ffe0" stroke="transparent" points="1384,-99 1384,-120 1418,-120 1418,-99 1384,-99"/>
<polygon fill="none" stroke="#000000" points="1384,-99 1384,-120 1418,-120 1418,-99 1384,-99"/>
<text text-anchor="start" x="1387" y="-105.8" font-family="Times,serif" font-size="14.00" fill="#000000">size</text>
<polygon fill="#e0ffe0" stroke="transparent" points="1418,-99 1418,-120 1456,-120 1456,-99 1418,-99"/>
<polygon fill="none" stroke="#000000" points="1418,-99 1418,-120 1456,-120 1456,-99 1418,-99"/>
<text text-anchor="start" x="1421" y="-105.8" font-family="Times,serif" font-size="14.00" fill="#000000">type</text>
<polygon fill="#e0ffe0" stroke="transparent" points="1456,-99 1456,-120 1535,-120 1535,-99 1456,-99"/>
<polygon fill="none" stroke="#000000" points="1456,-99 1456,-120 1535,-120 1535,-99 1456,-99"/>
<text text-anchor="start" x="1488.5" y="-105.8" font-family="Times,serif" font-size="14.00" fill="#000000">id</text>
<polygon fill="none" stroke="#000000" points="1353,-78 1353,-99 1384,-99 1384,-78 1353,-78"/>
<text text-anchor="start" x="1363.5" y="-84.8" font-family="Times,serif" font-size="14.00" fill="#000000">0</text>
<polygon fill="none" stroke="#000000" points="1384,-78 1384,-99 1418,-99 1418,-78 1384,-78"/>
<text text-anchor="start" x="1396" y="-84.8" font-family="Times,serif" font-size="14.00" fill="#000000">4</text>
<polygon fill="none" stroke="#000000" points="1418,-78 1418,-99 1456,-99 1456,-78 1418,-78"/>
<text text-anchor="start" x="1421.5" y="-84.8" font-family="Times,serif" font-size="14.00" fill="#000000">u4le</text>
<polygon fill="none" stroke="#000000" points="1456,-78 1456,-99 1535,-99 1535,-78 1456,-78"/>
<text text-anchor="start" x="1465" y="-84.8" font-family="Times,serif" font-size="14.00" fill="#000000">ofs_data</text>
<polygon fill="none" stroke="#000000" points="1353,-57 1353,-78 1384,-78 1384,-57 1353,-57"/>
<text text-anchor="start" x="1363.5" y="-63.8" font-family="Times,serif" font-size="14.00" fill="#000000">4</text>
<polygon fill="none" stroke="#000000" points="1384,-57 1384,-78 1418,-78 1418,-57 1384,-57"/>
<text text-anchor="start" x="1396" y="-63.8" font-family="Times,serif" font-size="14.00" fill="#000000">4</text>
<polygon fill="none" stroke="#000000" points="1418,-57 1418,-78 1456,-78 1456,-57 1418,-57"/>
<text text-anchor="start" x="1421.5" y="-63.8" font-family="Times,serif" font-size="14.00" fill="#000000">u4le</text>
<polygon fill="none" stroke="#000000" points="1456,-57 1456,-78 1535,-78 1535,-57 1456,-57"/>
<text text-anchor="start" x="1465" y="-63.8" font-family="Times,serif" font-size="14.00" fill="#000000">len_data</text>
<polygon fill="none" stroke="#000000" points="1353,-36 1353,-57 1384,-57 1384,-36 1353,-36"/>
<text text-anchor="start" x="1363.5" y="-42.8" font-family="Times,serif" font-size="14.00" fill="#000000">8</text>
<polygon fill="none" stroke="#000000" points="1384,-36 1384,-57 1418,-57 1418,-36 1384,-36"/>
<text text-anchor="start" x="1396" y="-42.8" font-family="Times,serif" font-size="14.00" fill="#000000">4</text>
<polygon fill="none" stroke="#000000" points="1418,-36 1418,-57 1456,-57 1456,-36 1418,-36"/>
<polygon fill="none" stroke="#000000" points="1456,-36 1456,-57 1535,-57 1535,-36 1456,-36"/>
<text text-anchor="start" x="1459" y="-42.8" font-family="Times,serif" font-size="14.00" fill="#000000">checksum</text>
</g>
<!-- entry__seq_body_switch&#45;&gt;file__seq -->
<g id="edge8" class="edge">
<title>entry__seq_body_switch:case1&#45;&gt;file__seq</title>
<path fill="none" stroke="#000000" stroke-width="2" d="M1173,-70C1226.2828,-70 1285.4328,-71.5643 1334.8425,-73.3094"/>
<polygon fill="#000000" stroke="#000000" stroke-width="2" points="1334.7912,-76.8097 1344.9108,-73.6722 1335.0433,-69.8143 1334.7912,-76.8097"/>
</g>
<!-- dir__seq -->
<g id="node8" class="node">
<title>dir__seq</title>
<polygon fill="#e0ffe0" stroke="transparent" points="1340,-238 1340,-259 1371,-259 1371,-238 1340,-238"/>
<polygon fill="none" stroke="#000000" points="1340,-238 1340,-259 1371,-259 1371,-238 1340,-238"/>
<text text-anchor="start" x="1343" y="-244.8" font-family="Times,serif" font-size="14.00" fill="#000000">pos</text>
<polygon fill="#e0ffe0" stroke="transparent" points="1371,-238 1371,-259 1405,-259 1405,-238 1371,-238"/>
<polygon fill="none" stroke="#000000" points="1371,-238 1371,-259 1405,-259 1405,-238 1371,-238"/>
<text text-anchor="start" x="1374" y="-244.8" font-family="Times,serif" font-size="14.00" fill="#000000">size</text>
<polygon fill="#e0ffe0" stroke="transparent" points="1405,-238 1405,-259 1452,-259 1452,-238 1405,-238"/>
<polygon fill="none" stroke="#000000" points="1405,-238 1405,-259 1452,-259 1452,-238 1405,-238"/>
<text text-anchor="start" x="1412.5" y="-244.8" font-family="Times,serif" font-size="14.00" fill="#000000">type</text>
<polygon fill="#e0ffe0" stroke="transparent" points="1452,-238 1452,-259 1548,-259 1548,-238 1452,-238"/>
<polygon fill="none" stroke="#000000" points="1452,-238 1452,-259 1548,-259 1548,-238 1452,-238"/>
<text text-anchor="start" x="1493" y="-244.8" font-family="Times,serif" font-size="14.00" fill="#000000">id</text>
<polygon fill="none" stroke="#000000" points="1340,-217 1340,-238 1371,-238 1371,-217 1340,-217"/>
<text text-anchor="start" x="1350.5" y="-223.8" font-family="Times,serif" font-size="14.00" fill="#000000">0</text>
<polygon fill="none" stroke="#000000" points="1371,-217 1371,-238 1405,-238 1405,-217 1371,-217"/>
<text text-anchor="start" x="1383" y="-223.8" font-family="Times,serif" font-size="14.00" fill="#000000">4</text>
<polygon fill="none" stroke="#000000" points="1405,-217 1405,-238 1452,-238 1452,-217 1405,-217"/>
<text text-anchor="start" x="1413" y="-223.8" font-family="Times,serif" font-size="14.00" fill="#000000">u4le</text>
<polygon fill="none" stroke="#000000" points="1452,-217 1452,-238 1548,-238 1548,-217 1452,-217"/>
<text text-anchor="start" x="1455" y="-223.8" font-family="Times,serif" font-size="14.00" fill="#000000">num_entries</text>
<polygon fill="none" stroke="#000000" points="1340,-196 1340,-217 1371,-217 1371,-196 1340,-196"/>
<text text-anchor="start" x="1350.5" y="-202.8" font-family="Times,serif" font-size="14.00" fill="#000000">4</text>
<polygon fill="none" stroke="#000000" points="1371,-196 1371,-217 1405,-217 1405,-196 1371,-196"/>
<text text-anchor="start" x="1381" y="-202.8" font-family="Times,serif" font-size="14.00" fill="#000000">...</text>
<polygon fill="none" stroke="#000000" points="1405,-196 1405,-217 1452,-217 1452,-196 1405,-196"/>
<text text-anchor="start" x="1408" y="-202.8" font-family="Times,serif" font-size="14.00" fill="#000000">Entry</text>
<polygon fill="none" stroke="#000000" points="1452,-196 1452,-217 1548,-217 1548,-196 1452,-196"/>
<text text-anchor="start" x="1474.5" y="-202.8" font-family="Times,serif" font-size="14.00" fill="#000000">entries</text>
<polygon fill="none" stroke="#000000" points="1340,-175 1340,-196 1548,-196 1548,-175 1340,-175"/>
<text text-anchor="start" x="1351.5" y="-181.8" font-family="Times,serif" font-size="14.00" fill="#000000">repeat num_entries times</text>
</g>
<!-- entry__seq_body_switch&#45;&gt;dir__seq -->
<g id="edge7" class="edge">
<title>entry__seq_body_switch:case0&#45;&gt;dir__seq</title>
<path fill="none" stroke="#000000" stroke-width="2" d="M1173,-91C1237.5363,-91 1263.3077,-90.6444 1312,-133 1321.6024,-141.3528 1315.0812,-149.9209 1324,-159 1325.809,-160.8416 1327.6883,-162.6328 1329.6282,-164.3745"/>
<polygon fill="#000000" stroke="#000000" stroke-width="2" points="1327.47,-167.132 1337.3914,-170.8492 1331.9535,-161.7563 1327.47,-167.132"/>
</g>
<!-- flags__seq&#45;&gt;entry__seq -->
<g id="edge9" class="edge">
<title>flags__seq:is_dir_type&#45;&gt;entry__seq:body_type</title>
<path fill="none" stroke="#404040" d="M1259,-149C1259,-140.8032 972.0718,-143.4259 964,-142 951.5712,-139.8044 947.1574,-134.0452 938.5003,-131.3843"/>
<polygon fill="#404040" stroke="#404040" points="938.8855,-127.9043 928.5,-130 937.9256,-134.8382 938.8855,-127.9043"/>
</g>
<!-- file__seq&#45;&gt;file__inst__data -->
<g id="edge11" class="edge">
<title>file__seq:ofs_data_type&#45;&gt;file__inst__data:data_pos</title>
<path fill="none" stroke="#404040" d="M1535,-89C1560.1679,-89 1568.8873,-88.2412 1589.8145,-88.0456"/>
<polygon fill="#404040" stroke="#404040" points="1590.0158,-91.5448 1600,-88 1589.9844,-84.5449 1590.0158,-91.5448"/>
</g>
<!-- file__seq&#45;&gt;file__inst__data -->
<g id="edge12" class="edge">
<title>file__seq:len_data_type&#45;&gt;file__inst__data:data_size</title>
<path fill="none" stroke="#404040" d="M1535,-67C1695.9826,-67 1896.1896,79.9915 1904.7179,-67.8321"/>
<polygon fill="#404040" stroke="#404040" points="1901.2239,-68.1009 1905,-78 1908.2212,-67.9067 1901.2239,-68.1009"/>
</g>
<!-- dir__seq&#45;&gt;entry__seq -->
<g id="edge13" class="edge">
<title>dir__seq:entries_type&#45;&gt;entry__seq</title>
<path fill="none" stroke="#000000" stroke-width="2" d="M1548,-206C1548,-206 1332,-171 1332,-171 1302.8056,-193.8627 1341.1944,-229.1373 1312,-252 1296.7787,-263.9201 982.5498,-257.4481 964,-252 949.8055,-247.831 949.2849,-240.5096 936,-234 935.9064,-233.9541 935.8128,-233.9083 935.7191,-233.8625"/>
<polygon fill="#000000" stroke="#000000" stroke-width="2" points="937.4226,-230.7973 926.8899,-229.6515 934.4091,-237.1155 937.4226,-230.7973"/>
</g>
<!-- dir__seq&#45;&gt;dir__seq -->
<g id="edge14" class="edge">
<title>dir__seq:num_entries_type&#45;&gt;dir__seq:entries__repeat</title>
<path fill="none" stroke="#404040" d="M1451.6595,-231.3597C1346.2982,-236.3191 1177,-232.4429 1177,-206.5 1177,-186.6603 1252.3166,-179.726 1329.4617,-179.7794"/>
<polygon fill="#404040" stroke="#404040" points="1329.8407,-183.2811 1339.857,-179.8283 1329.8737,-176.2812 1329.8407,-183.2811"/>
</g>
</g>
</svg>
