<?xml version="1.0" encoding="UTF-8" standalone="no"?>
<!DOCTYPE svg PUBLIC "-//W3C//DTD SVG 1.1//EN"
 "http://www.w3.org/Graphics/SVG/1.1/DTD/svg11.dtd">
<!-- Generated by graphviz version 2.38.0 (20140413.2041)
 -->
<!-- Title: %3 Pages: 1 -->
<svg width="642pt" height="157pt"
 viewBox="0.00 0.00 642.00 157.00" xmlns="http://www.w3.org/2000/svg" xmlns:xlink="http://www.w3.org/1999/xlink">
<g id="graph0" class="graph" transform="scale(1 1) rotate(0) translate(4 153)">
<title>%3</title>
<polygon fill="white" stroke="none" points="-4,4 -4,-153 638,-153 638,4 -4,4"/>
<g id="clust1" class="cluster"><title>cluster__exif</title>
<polygon fill="none" stroke="black" stroke-dasharray="1,5" points="8,-12 8,-141 499,-141 499,-12 8,-12"/>
<text text-anchor="middle" x="253.5" y="-125.8" font-family="Times,serif" font-size="14.00">Exif</text>
</g>
<!-- exif__seq -->
<g id="node1" class="node"><title>exif__seq</title>
<polygon fill="#e0ffe0" stroke="none" points="24.5,-66 24.5,-87 55.5,-87 55.5,-66 24.5,-66"/>
<polygon fill="none" stroke="black" points="24.5,-66 24.5,-87 55.5,-87 55.5,-66 24.5,-66"/>
<text text-anchor="start" x="27.5" y="-72.8" font-family="Times,serif" font-size="14.00">pos</text>
<polygon fill="#e0ffe0" stroke="none" points="55.5,-66 55.5,-87 89.5,-87 89.5,-66 55.5,-66"/>
<polygon fill="none" stroke="black" points="55.5,-66 55.5,-87 89.5,-87 89.5,-66 55.5,-66"/>
<text text-anchor="start" x="58.5" y="-72.8" font-family="Times,serif" font-size="14.00">size</text>
<polygon fill="#e0ffe0" stroke="none" points="89.5,-66 89.5,-87 238.5,-87 238.5,-66 89.5,-66"/>
<polygon fill="none" stroke="black" points="89.5,-66 89.5,-87 238.5,-87 238.5,-66 89.5,-66"/>
<text text-anchor="start" x="148" y="-72.8" font-family="Times,serif" font-size="14.00">type</text>
<polygon fill="#e0ffe0" stroke="none" points="238.5,-66 238.5,-87 325.5,-87 325.5,-66 238.5,-66"/>
<polygon fill="none" stroke="black" points="238.5,-66 238.5,-87 325.5,-87 325.5,-66 238.5,-66"/>
<text text-anchor="start" x="275" y="-72.8" font-family="Times,serif" font-size="14.00">id</text>
<polygon fill="none" stroke="black" points="24.5,-45 24.5,-66 55.5,-66 55.5,-45 24.5,-45"/>
<text text-anchor="start" x="35" y="-51.8" font-family="Times,serif" font-size="14.00">0</text>
<polygon fill="none" stroke="black" points="55.5,-45 55.5,-66 89.5,-66 89.5,-45 55.5,-45"/>
<text text-anchor="start" x="67.5" y="-51.8" font-family="Times,serif" font-size="14.00">2</text>
<polygon fill="none" stroke="black" points="89.5,-45 89.5,-66 238.5,-66 238.5,-45 89.5,-45"/>
<text text-anchor="start" x="148.5" y="-51.8" font-family="Times,serif" font-size="14.00">u2le</text>
<polygon fill="none" stroke="black" points="238.5,-45 238.5,-66 325.5,-66 325.5,-45 238.5,-45"/>
<text text-anchor="start" x="241.5" y="-51.8" font-family="Times,serif" font-size="14.00">endianness</text>
<polygon fill="none" stroke="black" points="24.5,-24 24.5,-45 55.5,-45 55.5,-24 24.5,-24"/>
<text text-anchor="start" x="35" y="-30.8" font-family="Times,serif" font-size="14.00">2</text>
<polygon fill="none" stroke="black" points="55.5,-24 55.5,-45 89.5,-45 89.5,-24 55.5,-24"/>
<text text-anchor="start" x="65.5" y="-30.8" font-family="Times,serif" font-size="14.00">...</text>
<polygon fill="none" stroke="black" points="89.5,-24 89.5,-45 238.5,-45 238.5,-24 89.5,-24"/>
<text text-anchor="start" x="92.5" y="-30.8" font-family="Times,serif" font-size="14.00">switch (endianness)</text>
<polygon fill="none" stroke="black" points="238.5,-24 238.5,-45 325.5,-45 325.5,-24 238.5,-24"/>
<text text-anchor="start" x="264.5" y="-30.8" font-family="Times,serif" font-size="14.00">body</text>
</g>
<!-- exif__seq&#45;&gt;exif__seq -->
<g id="edge4" class="edge"><title>exif__seq:endianness_type&#45;&gt;exif__seq:body_type</title>
<path fill="none" stroke="#404040" d="M254.42,-66.1155C221.05,-84.8265 230.41,-109.5 282.5,-109.5 331.569,-109.5 342.721,-75.0654 315.954,-51.1856"/>
<polygon fill="#404040" stroke="#404040" points="317.956,-48.3116 307.87,-45.0687 313.732,-53.8937 317.956,-48.3116"/>
</g>
<!-- exif__seq_body_switch -->
<g id="node2" class="node"><title>exif__seq_body_switch</title>
<polygon fill="#f0f2e4" stroke="none" points="377,-66 377,-87 429,-87 429,-66 377,-66"/>
<polygon fill="none" stroke="black" points="377,-66 377,-87 429,-87 429,-66 377,-66"/>
<text text-anchor="start" x="386.5" y="-72.8" font-family="Times,serif" font-size="14.00">case</text>
<polygon fill="#f0f2e4" stroke="none" points="429,-66 429,-87 483,-87 483,-66 429,-66"/>
<polygon fill="none" stroke="black" points="429,-66 429,-87 483,-87 483,-66 429,-66"/>
<text text-anchor="start" x="440" y="-72.8" font-family="Times,serif" font-size="14.00">type</text>
<polygon fill="none" stroke="black" points="377,-45 377,-66 429,-66 429,-45 377,-45"/>
<text text-anchor="start" x="380" y="-51.8" font-family="Times,serif" font-size="14.00">18761</text>
<polygon fill="none" stroke="black" points="429,-45 429,-66 483,-66 483,-45 429,-45"/>
<text text-anchor="start" x="432.5" y="-51.8" font-family="Times,serif" font-size="14.00">ExifLe</text>
<polygon fill="none" stroke="black" points="377,-24 377,-45 429,-45 429,-24 377,-24"/>
<text text-anchor="start" x="380" y="-30.8" font-family="Times,serif" font-size="14.00">19789</text>
<polygon fill="none" stroke="black" points="429,-24 429,-45 483,-45 483,-24 429,-24"/>
<text text-anchor="start" x="432" y="-30.8" font-family="Times,serif" font-size="14.00">ExifBe</text>
</g>
<!-- exif__seq&#45;&gt;exif__seq_body_switch -->
<g id="edge1" class="edge"><title>exif__seq:body_type&#45;&gt;exif__seq_body_switch</title>
<path fill="none" stroke="black" stroke-width="2" d="M326.5,-34C336.982,-34 347.936,-35.1135 358.618,-36.8395"/>
<polygon fill="black" stroke="black" stroke-width="2" points="358.291,-40.3368 368.753,-38.6656 359.532,-33.4477 358.291,-40.3368"/>
</g>
<!-- exif_le__seq -->
<g id="node3" class="node"><title>exif_le__seq</title>
<text text-anchor="middle" x="580.5" y="-68.3" font-family="Times,serif" font-size="14.00">exif_le__seq</text>
</g>
<!-- exif__seq_body_switch&#45;&gt;exif_le__seq -->
<g id="edge2" class="edge"><title>exif__seq_body_switch:case0&#45;&gt;exif_le__seq</title>
<path fill="none" stroke="black" stroke-width="2" d="M484,-55C495.332,-55 507.305,-56.1745 518.798,-57.9061"/>
<polygon fill="black" stroke="black" stroke-width="2" points="518.31,-61.3728 528.748,-59.5557 519.455,-54.4671 518.31,-61.3728"/>
</g>
<!-- exif_be__seq -->
<g id="node4" class="node"><title>exif_be__seq</title>
<text text-anchor="middle" x="580.5" y="-14.3" font-family="Times,serif" font-size="14.00">exif_be__seq</text>
</g>
<!-- exif__seq_body_switch&#45;&gt;exif_be__seq -->
<g id="edge3" class="edge"><title>exif__seq_body_switch:case1&#45;&gt;exif_be__seq</title>
<path fill="none" stroke="black" stroke-width="2" d="M484,-34C494.747,-34 506.082,-33.0022 517.042,-31.5049"/>
<polygon fill="black" stroke="black" stroke-width="2" points="517.608,-34.9591 526.973,-30.0038 516.562,-28.0378 517.608,-34.9591"/>
</g>
</g>
</svg>
