<?xml version="1.0" encoding="UTF-8" standalone="no"?>
<!DOCTYPE svg PUBLIC "-//W3C//DTD SVG 1.1//EN"
 "http://www.w3.org/Graphics/SVG/1.1/DTD/svg11.dtd">
<!-- Generated by graphviz version 2.38.0 (20140413.2041)
 -->
<!-- Title: %3 Pages: 1 -->
<svg width="1555pt" height="907pt"
 viewBox="0.00 0.00 1555.00 907.39" xmlns="http://www.w3.org/2000/svg" xmlns:xlink="http://www.w3.org/1999/xlink">
<g id="graph0" class="graph" transform="scale(1 1) rotate(0) translate(4 903.387)">
<title>%3</title>
<polygon fill="white" stroke="none" points="-4,4 -4,-903.387 1551,-903.387 1551,4 -4,4"/>
<g id="clust1" class="cluster"><title>cluster__ines</title>
<polygon fill="none" stroke="black" stroke-dasharray="1,5" points="8,-8 8,-884 1539,-884 1539,-8 8,-8"/>
<text text-anchor="middle" x="773.5" y="-868.8" font-family="Times,serif" font-size="14.00">Ines</text>
</g>
<g id="clust2" class="cluster"><title>cluster__header</title>
<polygon fill="none" stroke="black" stroke-dasharray="1,5" points="16,-16 16,-689 1275,-689 1275,-16 16,-16"/>
<text text-anchor="middle" x="645.5" y="-673.8" font-family="Times,serif" font-size="14.00">Ines::Header</text>
</g>
<g id="clust3" class="cluster"><title>cluster__f6</title>
<polygon fill="none" stroke="black" stroke-dasharray="1,5" points="424.5,-485 424.5,-658 755.5,-658 755.5,-485 424.5,-485"/>
<text text-anchor="middle" x="590" y="-642.8" font-family="Times,serif" font-size="14.00">Ines::Header::F6</text>
</g>
<g id="clust4" class="cluster"><title>cluster__f7</title>
<polygon fill="none" stroke="black" stroke-dasharray="1,5" points="446.5,-324 446.5,-477 733.5,-477 733.5,-324 446.5,-324"/>
<text text-anchor="middle" x="590" y="-461.8" font-family="Times,serif" font-size="14.00">Ines::Header::F7</text>
</g>
<g id="clust5" class="cluster"><title>cluster__f9</title>
<polygon fill="none" stroke="black" stroke-dasharray="1,5" points="449,-205 449,-316 731,-316 731,-205 449,-205"/>
<text text-anchor="middle" x="590" y="-300.8" font-family="Times,serif" font-size="14.00">Ines::Header::F9</text>
</g>
<g id="clust6" class="cluster"><title>cluster__f10</title>
<polygon fill="none" stroke="black" stroke-dasharray="1,5" points="442,-24 442,-197 738,-197 738,-24 442,-24"/>
<text text-anchor="middle" x="590" y="-181.8" font-family="Times,serif" font-size="14.00">Ines::Header::F10</text>
</g>
<g id="clust7" class="cluster"><title>cluster__playchoice10</title>
<polygon fill="none" stroke="black" stroke-dasharray="1,5" points="948.5,-697 948.5,-847 1531,-847 1531,-697 948.5,-697"/>
<text text-anchor="middle" x="1239.75" y="-831.8" font-family="Times,serif" font-size="14.00">Ines::Playchoice10</text>
</g>
<g id="clust8" class="cluster"><title>cluster__prom</title>
<polygon fill="none" stroke="black" stroke-dasharray="1,5" points="1295,-705 1295,-816 1523,-816 1523,-705 1295,-705"/>
<text text-anchor="middle" x="1409" y="-800.8" font-family="Times,serif" font-size="14.00">Ines::Playchoice10::Prom</text>
</g>
<!-- ines__seq -->
<g id="node1" class="node"><title>ines__seq</title>
<polygon fill="#e0ffe0" stroke="none" points="361,-827 361,-848 395,-848 395,-827 361,-827"/>
<polygon fill="none" stroke="black" points="361,-827 361,-848 395,-848 395,-827 361,-827"/>
<text text-anchor="start" x="365.5" y="-833.8" font-family="Times,serif" font-size="14.00">pos</text>
<polygon fill="#e0ffe0" stroke="none" points="395,-827 395,-848 616,-848 616,-827 395,-827"/>
<polygon fill="none" stroke="black" points="395,-827 395,-848 616,-848 616,-827 395,-827"/>
<text text-anchor="start" x="491.5" y="-833.8" font-family="Times,serif" font-size="14.00">size</text>
<polygon fill="#e0ffe0" stroke="none" points="616,-827 616,-848 718,-848 718,-827 616,-827"/>
<polygon fill="none" stroke="black" points="616,-827 616,-848 718,-848 718,-827 616,-827"/>
<text text-anchor="start" x="651" y="-833.8" font-family="Times,serif" font-size="14.00">type</text>
<polygon fill="#e0ffe0" stroke="none" points="718,-827 718,-848 819,-848 819,-827 718,-827"/>
<polygon fill="none" stroke="black" points="718,-827 718,-848 819,-848 819,-827 718,-827"/>
<text text-anchor="start" x="761.5" y="-833.8" font-family="Times,serif" font-size="14.00">id</text>
<polygon fill="none" stroke="black" points="361,-806 361,-827 395,-827 395,-806 361,-806"/>
<text text-anchor="start" x="373" y="-812.8" font-family="Times,serif" font-size="14.00">0</text>
<polygon fill="none" stroke="black" points="395,-806 395,-827 616,-827 616,-806 395,-806"/>
<text text-anchor="start" x="496" y="-812.8" font-family="Times,serif" font-size="14.00">16</text>
<polygon fill="none" stroke="black" points="616,-806 616,-827 718,-827 718,-806 616,-806"/>
<text text-anchor="start" x="640" y="-812.8" font-family="Times,serif" font-size="14.00">Header</text>
<polygon fill="none" stroke="black" points="718,-806 718,-827 819,-827 819,-806 718,-806"/>
<text text-anchor="start" x="743.5" y="-812.8" font-family="Times,serif" font-size="14.00">header</text>
<polygon fill="none" stroke="black" points="361,-785 361,-806 395,-806 395,-785 361,-785"/>
<text text-anchor="start" x="368.5" y="-791.8" font-family="Times,serif" font-size="14.00">16</text>
<polygon fill="none" stroke="black" points="395,-785 395,-806 616,-806 616,-785 395,-785"/>
<text text-anchor="start" x="491.5" y="-791.8" font-family="Times,serif" font-size="14.00">512</text>
<polygon fill="none" stroke="black" points="616,-785 616,-806 718,-806 718,-785 616,-785"/>
<polygon fill="none" stroke="black" points="718,-785 718,-806 819,-806 819,-785 718,-785"/>
<text text-anchor="start" x="743.5" y="-791.8" font-family="Times,serif" font-size="14.00">trainer</text>
<polygon fill="none" stroke="black" points="361,-764 361,-785 395,-785 395,-764 361,-764"/>
<text text-anchor="start" x="364" y="-770.8" font-family="Times,serif" font-size="14.00">528</text>
<polygon fill="none" stroke="black" points="395,-764 395,-785 616,-785 616,-764 395,-764"/>
<text text-anchor="start" x="398" y="-770.8" font-family="Times,serif" font-size="14.00">(header.len_prg_rom * 16384)</text>
<polygon fill="none" stroke="black" points="616,-764 616,-785 718,-785 718,-764 616,-764"/>
<polygon fill="none" stroke="black" points="718,-764 718,-785 819,-785 819,-764 718,-764"/>
<text text-anchor="start" x="738" y="-770.8" font-family="Times,serif" font-size="14.00">prg_rom</text>
<polygon fill="none" stroke="black" points="361,-743 361,-764 395,-764 395,-743 361,-743"/>
<text text-anchor="start" x="371" y="-749.8" font-family="Times,serif" font-size="14.00">...</text>
<polygon fill="none" stroke="black" points="395,-743 395,-764 616,-764 616,-743 395,-743"/>
<text text-anchor="start" x="403" y="-749.8" font-family="Times,serif" font-size="14.00">(header.len_chr_rom * 8192)</text>
<polygon fill="none" stroke="black" points="616,-743 616,-764 718,-764 718,-743 616,-743"/>
<polygon fill="none" stroke="black" points="718,-743 718,-764 819,-764 819,-743 718,-743"/>
<text text-anchor="start" x="738" y="-749.8" font-family="Times,serif" font-size="14.00">chr_rom</text>
<polygon fill="none" stroke="black" points="361,-722 361,-743 395,-743 395,-722 361,-722"/>
<text text-anchor="start" x="371" y="-728.8" font-family="Times,serif" font-size="14.00">...</text>
<polygon fill="none" stroke="black" points="395,-722 395,-743 616,-743 616,-722 395,-722"/>
<text text-anchor="start" x="487" y="-728.8" font-family="Times,serif" font-size="14.00">8224</text>
<polygon fill="none" stroke="black" points="616,-722 616,-743 718,-743 718,-722 616,-722"/>
<text text-anchor="start" x="619" y="-728.8" font-family="Times,serif" font-size="14.00">Playchoice10</text>
<polygon fill="none" stroke="black" points="718,-722 718,-743 819,-743 819,-722 718,-722"/>
<text text-anchor="start" x="721" y="-728.8" font-family="Times,serif" font-size="14.00">playchoice10</text>
<polygon fill="none" stroke="black" points="361,-701 361,-722 395,-722 395,-701 361,-701"/>
<text text-anchor="start" x="371" y="-707.8" font-family="Times,serif" font-size="14.00">...</text>
<polygon fill="none" stroke="black" points="395,-701 395,-722 616,-722 616,-701 395,-701"/>
<text text-anchor="start" x="499" y="-707.8" font-family="Times,serif" font-size="14.00">⇲</text>
<polygon fill="none" stroke="black" points="616,-701 616,-722 718,-722 718,-701 616,-701"/>
<text text-anchor="start" x="630" y="-707.8" font-family="Times,serif" font-size="14.00">str(ASCII)</text>
<polygon fill="none" stroke="black" points="718,-701 718,-722 819,-722 819,-701 718,-701"/>
<text text-anchor="start" x="753.5" y="-707.8" font-family="Times,serif" font-size="14.00">title</text>
</g>
<!-- header__seq -->
<g id="node2" class="node"><title>header__seq</title>
<polygon fill="#e0ffe0" stroke="none" points="32.5,-633 32.5,-654 63.5,-654 63.5,-633 32.5,-633"/>
<polygon fill="none" stroke="black" points="32.5,-633 32.5,-654 63.5,-654 63.5,-633 32.5,-633"/>
<text text-anchor="start" x="35.5" y="-639.8" font-family="Times,serif" font-size="14.00">pos</text>
<polygon fill="#e0ffe0" stroke="none" points="63.5,-633 63.5,-654 97.5,-654 97.5,-633 63.5,-633"/>
<polygon fill="none" stroke="black" points="63.5,-633 63.5,-654 97.5,-654 97.5,-633 63.5,-633"/>
<text text-anchor="start" x="66.5" y="-639.8" font-family="Times,serif" font-size="14.00">size</text>
<polygon fill="#e0ffe0" stroke="none" points="97.5,-633 97.5,-654 212.5,-654 212.5,-633 97.5,-633"/>
<polygon fill="none" stroke="black" points="97.5,-633 97.5,-654 212.5,-654 212.5,-633 97.5,-633"/>
<text text-anchor="start" x="139" y="-639.8" font-family="Times,serif" font-size="14.00">type</text>
<polygon fill="#e0ffe0" stroke="none" points="212.5,-633 212.5,-654 309.5,-654 309.5,-633 212.5,-633"/>
<polygon fill="none" stroke="black" points="212.5,-633 212.5,-654 309.5,-654 309.5,-633 212.5,-633"/>
<text text-anchor="start" x="254" y="-639.8" font-family="Times,serif" font-size="14.00">id</text>
<polygon fill="none" stroke="black" points="32.5,-612 32.5,-633 63.5,-633 63.5,-612 32.5,-612"/>
<text text-anchor="start" x="43" y="-618.8" font-family="Times,serif" font-size="14.00">0</text>
<polygon fill="none" stroke="black" points="63.5,-612 63.5,-633 97.5,-633 97.5,-612 63.5,-612"/>
<text text-anchor="start" x="75.5" y="-618.8" font-family="Times,serif" font-size="14.00">4</text>
<polygon fill="none" stroke="black" points="97.5,-612 97.5,-633 212.5,-633 212.5,-612 97.5,-612"/>
<text text-anchor="start" x="110.5" y="-618.8" font-family="Times,serif" font-size="14.00">4E 45 53 1A</text>
<polygon fill="none" stroke="black" points="212.5,-612 212.5,-633 309.5,-633 309.5,-612 212.5,-612"/>
<text text-anchor="start" x="239" y="-618.8" font-family="Times,serif" font-size="14.00">magic</text>
<polygon fill="none" stroke="black" points="32.5,-591 32.5,-612 63.5,-612 63.5,-591 32.5,-591"/>
<text text-anchor="start" x="43" y="-597.8" font-family="Times,serif" font-size="14.00">4</text>
<polygon fill="none" stroke="black" points="63.5,-591 63.5,-612 97.5,-612 97.5,-591 63.5,-591"/>
<text text-anchor="start" x="75.5" y="-597.8" font-family="Times,serif" font-size="14.00">1</text>
<polygon fill="none" stroke="black" points="97.5,-591 97.5,-612 212.5,-612 212.5,-591 97.5,-591"/>
<text text-anchor="start" x="145.5" y="-597.8" font-family="Times,serif" font-size="14.00">u1</text>
<polygon fill="none" stroke="black" points="212.5,-591 212.5,-612 309.5,-612 309.5,-591 212.5,-591"/>
<text text-anchor="start" x="215.5" y="-597.8" font-family="Times,serif" font-size="14.00">len_prg_rom</text>
<polygon fill="none" stroke="black" points="32.5,-570 32.5,-591 63.5,-591 63.5,-570 32.5,-570"/>
<text text-anchor="start" x="43" y="-576.8" font-family="Times,serif" font-size="14.00">5</text>
<polygon fill="none" stroke="black" points="63.5,-570 63.5,-591 97.5,-591 97.5,-570 63.5,-570"/>
<text text-anchor="start" x="75.5" y="-576.8" font-family="Times,serif" font-size="14.00">1</text>
<polygon fill="none" stroke="black" points="97.5,-570 97.5,-591 212.5,-591 212.5,-570 97.5,-570"/>
<text text-anchor="start" x="145.5" y="-576.8" font-family="Times,serif" font-size="14.00">u1</text>
<polygon fill="none" stroke="black" points="212.5,-570 212.5,-591 309.5,-591 309.5,-570 212.5,-570"/>
<text text-anchor="start" x="216" y="-576.8" font-family="Times,serif" font-size="14.00">len_chr_rom</text>
<polygon fill="none" stroke="black" points="32.5,-549 32.5,-570 63.5,-570 63.5,-549 32.5,-549"/>
<text text-anchor="start" x="43" y="-555.8" font-family="Times,serif" font-size="14.00">6</text>
<polygon fill="none" stroke="black" points="63.5,-549 63.5,-570 97.5,-570 97.5,-549 63.5,-549"/>
<text text-anchor="start" x="75.5" y="-555.8" font-family="Times,serif" font-size="14.00">1</text>
<polygon fill="none" stroke="black" points="97.5,-549 97.5,-570 212.5,-570 212.5,-549 97.5,-549"/>
<text text-anchor="start" x="145.5" y="-555.8" font-family="Times,serif" font-size="14.00">F6</text>
<polygon fill="none" stroke="black" points="212.5,-549 212.5,-570 309.5,-570 309.5,-549 212.5,-549"/>
<text text-anchor="start" x="253.5" y="-555.8" font-family="Times,serif" font-size="14.00">f6</text>
<polygon fill="none" stroke="black" points="32.5,-528 32.5,-549 63.5,-549 63.5,-528 32.5,-528"/>
<text text-anchor="start" x="43" y="-534.8" font-family="Times,serif" font-size="14.00">7</text>
<polygon fill="none" stroke="black" points="63.5,-528 63.5,-549 97.5,-549 97.5,-528 63.5,-528"/>
<text text-anchor="start" x="75.5" y="-534.8" font-family="Times,serif" font-size="14.00">1</text>
<polygon fill="none" stroke="black" points="97.5,-528 97.5,-549 212.5,-549 212.5,-528 97.5,-528"/>
<text text-anchor="start" x="145.5" y="-534.8" font-family="Times,serif" font-size="14.00">F7</text>
<polygon fill="none" stroke="black" points="212.5,-528 212.5,-549 309.5,-549 309.5,-528 212.5,-528"/>
<text text-anchor="start" x="253.5" y="-534.8" font-family="Times,serif" font-size="14.00">f7</text>
<polygon fill="none" stroke="black" points="32.5,-507 32.5,-528 63.5,-528 63.5,-507 32.5,-507"/>
<text text-anchor="start" x="43" y="-513.8" font-family="Times,serif" font-size="14.00">8</text>
<polygon fill="none" stroke="black" points="63.5,-507 63.5,-528 97.5,-528 97.5,-507 63.5,-507"/>
<text text-anchor="start" x="75.5" y="-513.8" font-family="Times,serif" font-size="14.00">1</text>
<polygon fill="none" stroke="black" points="97.5,-507 97.5,-528 212.5,-528 212.5,-507 97.5,-507"/>
<text text-anchor="start" x="145.5" y="-513.8" font-family="Times,serif" font-size="14.00">u1</text>
<polygon fill="none" stroke="black" points="212.5,-507 212.5,-528 309.5,-528 309.5,-507 212.5,-507"/>
<text text-anchor="start" x="215.5" y="-513.8" font-family="Times,serif" font-size="14.00">len_prg_ram</text>
<polygon fill="none" stroke="black" points="32.5,-486 32.5,-507 63.5,-507 63.5,-486 32.5,-486"/>
<text text-anchor="start" x="43" y="-492.8" font-family="Times,serif" font-size="14.00">9</text>
<polygon fill="none" stroke="black" points="63.5,-486 63.5,-507 97.5,-507 97.5,-486 63.5,-486"/>
<text text-anchor="start" x="75.5" y="-492.8" font-family="Times,serif" font-size="14.00">1</text>
<polygon fill="none" stroke="black" points="97.5,-486 97.5,-507 212.5,-507 212.5,-486 97.5,-486"/>
<text text-anchor="start" x="145.5" y="-492.8" font-family="Times,serif" font-size="14.00">F9</text>
<polygon fill="none" stroke="black" points="212.5,-486 212.5,-507 309.5,-507 309.5,-486 212.5,-486"/>
<text text-anchor="start" x="253.5" y="-492.8" font-family="Times,serif" font-size="14.00">f9</text>
<polygon fill="none" stroke="black" points="32.5,-465 32.5,-486 63.5,-486 63.5,-465 32.5,-465"/>
<text text-anchor="start" x="38.5" y="-471.8" font-family="Times,serif" font-size="14.00">10</text>
<polygon fill="none" stroke="black" points="63.5,-465 63.5,-486 97.5,-486 97.5,-465 63.5,-465"/>
<text text-anchor="start" x="75.5" y="-471.8" font-family="Times,serif" font-size="14.00">1</text>
<polygon fill="none" stroke="black" points="97.5,-465 97.5,-486 212.5,-486 212.5,-465 97.5,-465"/>
<text text-anchor="start" x="141" y="-471.8" font-family="Times,serif" font-size="14.00">F10</text>
<polygon fill="none" stroke="black" points="212.5,-465 212.5,-486 309.5,-486 309.5,-465 212.5,-465"/>
<text text-anchor="start" x="249" y="-471.8" font-family="Times,serif" font-size="14.00">f10</text>
<polygon fill="none" stroke="black" points="32.5,-444 32.5,-465 63.5,-465 63.5,-444 32.5,-444"/>
<text text-anchor="start" x="38.5" y="-450.8" font-family="Times,serif" font-size="14.00">11</text>
<polygon fill="none" stroke="black" points="63.5,-444 63.5,-465 97.5,-465 97.5,-444 63.5,-444"/>
<text text-anchor="start" x="75.5" y="-450.8" font-family="Times,serif" font-size="14.00">5</text>
<polygon fill="none" stroke="black" points="97.5,-444 97.5,-465 212.5,-465 212.5,-444 97.5,-444"/>
<text text-anchor="start" x="100.5" y="-450.8" font-family="Times,serif" font-size="14.00">00 00 00 00 00</text>
<polygon fill="none" stroke="black" points="212.5,-444 212.5,-465 309.5,-465 309.5,-444 212.5,-444"/>
<text text-anchor="start" x="229" y="-450.8" font-family="Times,serif" font-size="14.00">reserved</text>
</g>
<!-- ines__seq&#45;&gt;header__seq -->
<g id="edge1" class="edge"><title>ines__seq:header_type&#45;&gt;header__seq</title>
<path fill="none" stroke="black" stroke-width="2" d="M820,-817C835.784,-817 830.317,-841.497 819,-852.5 744.751,-924.687 443.077,-903.587 353,-852.5 283.252,-812.942 237.43,-734.751 209.276,-667.642"/>
<polygon fill="black" stroke="black" stroke-width="2" points="212.456,-666.173 205.42,-658.252 205.981,-668.832 212.456,-666.173"/>
</g>
<!-- playchoice10__seq -->
<g id="node8" class="node"><title>playchoice10__seq</title>
<polygon fill="#e0ffe0" stroke="none" points="965,-766 965,-787 1008,-787 1008,-766 965,-766"/>
<polygon fill="none" stroke="black" points="965,-766 965,-787 1008,-787 1008,-766 965,-766"/>
<text text-anchor="start" x="974" y="-772.8" font-family="Times,serif" font-size="14.00">pos</text>
<polygon fill="#e0ffe0" stroke="none" points="1008,-766 1008,-787 1051,-787 1051,-766 1008,-766"/>
<polygon fill="none" stroke="black" points="1008,-766 1008,-787 1051,-787 1051,-766 1008,-766"/>
<text text-anchor="start" x="1015.5" y="-772.8" font-family="Times,serif" font-size="14.00">size</text>
<polygon fill="#e0ffe0" stroke="none" points="1051,-766 1051,-787 1096,-787 1096,-766 1051,-766"/>
<polygon fill="none" stroke="black" points="1051,-766 1051,-787 1096,-787 1096,-766 1051,-766"/>
<text text-anchor="start" x="1057.5" y="-772.8" font-family="Times,serif" font-size="14.00">type</text>
<polygon fill="#e0ffe0" stroke="none" points="1096,-766 1096,-787 1166,-787 1166,-766 1096,-766"/>
<polygon fill="none" stroke="black" points="1096,-766 1096,-787 1166,-787 1166,-766 1096,-766"/>
<text text-anchor="start" x="1124" y="-772.8" font-family="Times,serif" font-size="14.00">id</text>
<polygon fill="none" stroke="black" points="965,-745 965,-766 1008,-766 1008,-745 965,-745"/>
<text text-anchor="start" x="981.5" y="-751.8" font-family="Times,serif" font-size="14.00">0</text>
<polygon fill="none" stroke="black" points="1008,-745 1008,-766 1051,-766 1051,-745 1008,-745"/>
<text text-anchor="start" x="1011" y="-751.8" font-family="Times,serif" font-size="14.00">8192</text>
<polygon fill="none" stroke="black" points="1051,-745 1051,-766 1096,-766 1096,-745 1051,-745"/>
<polygon fill="none" stroke="black" points="1096,-745 1096,-766 1166,-766 1166,-745 1096,-745"/>
<text text-anchor="start" x="1099" y="-751.8" font-family="Times,serif" font-size="14.00">inst_rom</text>
<polygon fill="none" stroke="black" points="965,-724 965,-745 1008,-745 1008,-724 965,-724"/>
<text text-anchor="start" x="968" y="-730.8" font-family="Times,serif" font-size="14.00">8192</text>
<polygon fill="none" stroke="black" points="1008,-724 1008,-745 1051,-745 1051,-724 1008,-724"/>
<text text-anchor="start" x="1020" y="-730.8" font-family="Times,serif" font-size="14.00">32</text>
<polygon fill="none" stroke="black" points="1051,-724 1051,-745 1096,-745 1096,-724 1051,-724"/>
<text text-anchor="start" x="1054" y="-730.8" font-family="Times,serif" font-size="14.00">Prom</text>
<polygon fill="none" stroke="black" points="1096,-724 1096,-745 1166,-745 1166,-724 1096,-724"/>
<text text-anchor="start" x="1112" y="-730.8" font-family="Times,serif" font-size="14.00">prom</text>
</g>
<!-- ines__seq&#45;&gt;playchoice10__seq -->
<g id="edge4" class="edge"><title>ines__seq:playchoice10_type&#45;&gt;playchoice10__seq</title>
<path fill="none" stroke="black" stroke-width="2" d="M820,-732C861.3,-732 906.345,-735.448 946.362,-739.729"/>
<polygon fill="black" stroke="black" stroke-width="2" points="946.1,-743.222 956.422,-740.834 946.864,-736.264 946.1,-743.222"/>
</g>
<!-- header__seq&#45;&gt;ines__seq -->
<g id="edge2" class="edge"><title>header__seq:len_prg_rom_type&#45;&gt;ines__seq:prg_rom_size</title>
<path fill="none" stroke="#404040" d="M310.5,-602C343.179,-602 330.147,-638.641 353,-662 392.057,-701.921 446.362,-738.512 478.084,-758.39"/>
<polygon fill="#404040" stroke="#404040" points="476.436,-761.487 486.781,-763.775 480.121,-755.535 476.436,-761.487"/>
</g>
<!-- header__seq&#45;&gt;ines__seq -->
<g id="edge3" class="edge"><title>header__seq:len_chr_rom_type&#45;&gt;ines__seq:chr_rom_size</title>
<path fill="none" stroke="#404040" d="M310.5,-581C351.155,-581 325.116,-632.415 353,-662 386.247,-697.274 436.146,-723.731 469.371,-738.78"/>
<polygon fill="#404040" stroke="#404040" points="468.129,-742.058 478.691,-742.901 470.96,-735.656 468.129,-742.058"/>
</g>
<!-- f6__seq -->
<g id="node4" class="node"><title>f6__seq</title>
<polygon fill="#e0ffe0" stroke="none" points="441,-602 441,-623 472,-623 472,-602 441,-602"/>
<polygon fill="none" stroke="black" points="441,-602 441,-623 472,-623 472,-602 441,-602"/>
<text text-anchor="start" x="444" y="-608.8" font-family="Times,serif" font-size="14.00">pos</text>
<polygon fill="#e0ffe0" stroke="none" points="472,-602 472,-623 506,-623 506,-602 472,-602"/>
<polygon fill="none" stroke="black" points="472,-602 472,-623 506,-623 506,-602 472,-602"/>
<text text-anchor="start" x="475" y="-608.8" font-family="Times,serif" font-size="14.00">size</text>
<polygon fill="#e0ffe0" stroke="none" points="506,-602 506,-623 613,-623 613,-602 506,-602"/>
<polygon fill="none" stroke="black" points="506,-602 506,-623 613,-623 613,-602 506,-602"/>
<text text-anchor="start" x="543.5" y="-608.8" font-family="Times,serif" font-size="14.00">type</text>
<polygon fill="#e0ffe0" stroke="none" points="613,-602 613,-623 740,-623 740,-602 613,-602"/>
<polygon fill="none" stroke="black" points="613,-602 613,-623 740,-623 740,-602 613,-602"/>
<text text-anchor="start" x="669.5" y="-608.8" font-family="Times,serif" font-size="14.00">id</text>
<polygon fill="none" stroke="black" points="441,-581 441,-602 472,-602 472,-581 441,-581"/>
<text text-anchor="start" x="451.5" y="-587.8" font-family="Times,serif" font-size="14.00">0</text>
<polygon fill="none" stroke="black" points="472,-581 472,-602 506,-602 506,-581 472,-581"/>
<text text-anchor="start" x="479.5" y="-587.8" font-family="Times,serif" font-size="14.00">4b</text>
<polygon fill="none" stroke="black" points="506,-581 506,-602 613,-602 613,-581 506,-581"/>
<text text-anchor="start" x="550" y="-587.8" font-family="Times,serif" font-size="14.00">b4</text>
<polygon fill="none" stroke="black" points="613,-581 613,-602 740,-602 740,-581 613,-581"/>
<text text-anchor="start" x="625" y="-587.8" font-family="Times,serif" font-size="14.00">lower_mapper</text>
<polygon fill="none" stroke="black" points="441,-560 441,-581 472,-581 472,-560 441,-560"/>
<text text-anchor="start" x="445" y="-566.8" font-family="Times,serif" font-size="14.00">0:4</text>
<polygon fill="none" stroke="black" points="472,-560 472,-581 506,-581 506,-560 472,-560"/>
<text text-anchor="start" x="479.5" y="-566.8" font-family="Times,serif" font-size="14.00">1b</text>
<polygon fill="none" stroke="black" points="506,-560 506,-581 613,-581 613,-560 506,-560"/>
<text text-anchor="start" x="523" y="-566.8" font-family="Times,serif" font-size="14.00">BitsType1</text>
<polygon fill="none" stroke="black" points="613,-560 613,-581 740,-581 740,-560 613,-560"/>
<text text-anchor="start" x="634" y="-566.8" font-family="Times,serif" font-size="14.00">four_screen</text>
<polygon fill="none" stroke="black" points="441,-539 441,-560 472,-560 472,-539 441,-539"/>
<text text-anchor="start" x="445" y="-545.8" font-family="Times,serif" font-size="14.00">0:5</text>
<polygon fill="none" stroke="black" points="472,-539 472,-560 506,-560 506,-539 472,-539"/>
<text text-anchor="start" x="479.5" y="-545.8" font-family="Times,serif" font-size="14.00">1b</text>
<polygon fill="none" stroke="black" points="506,-539 506,-560 613,-560 613,-539 506,-539"/>
<text text-anchor="start" x="523" y="-545.8" font-family="Times,serif" font-size="14.00">BitsType1</text>
<polygon fill="none" stroke="black" points="613,-539 613,-560 740,-560 740,-539 613,-539"/>
<text text-anchor="start" x="651.5" y="-545.8" font-family="Times,serif" font-size="14.00">trainer</text>
<polygon fill="none" stroke="black" points="441,-518 441,-539 472,-539 472,-518 441,-518"/>
<text text-anchor="start" x="445" y="-524.8" font-family="Times,serif" font-size="14.00">0:6</text>
<polygon fill="none" stroke="black" points="472,-518 472,-539 506,-539 506,-518 472,-518"/>
<text text-anchor="start" x="479.5" y="-524.8" font-family="Times,serif" font-size="14.00">1b</text>
<polygon fill="none" stroke="black" points="506,-518 506,-539 613,-539 613,-518 506,-518"/>
<text text-anchor="start" x="523" y="-524.8" font-family="Times,serif" font-size="14.00">BitsType1</text>
<polygon fill="none" stroke="black" points="613,-518 613,-539 740,-539 740,-518 613,-518"/>
<text text-anchor="start" x="616" y="-524.8" font-family="Times,serif" font-size="14.00">has_battery_ram</text>
<polygon fill="none" stroke="black" points="441,-497 441,-518 472,-518 472,-497 441,-497"/>
<text text-anchor="start" x="445" y="-503.8" font-family="Times,serif" font-size="14.00">0:7</text>
<polygon fill="none" stroke="black" points="472,-497 472,-518 506,-518 506,-497 472,-497"/>
<text text-anchor="start" x="479.5" y="-503.8" font-family="Times,serif" font-size="14.00">1b</text>
<polygon fill="none" stroke="black" points="506,-497 506,-518 613,-518 613,-497 506,-497"/>
<text text-anchor="start" x="509" y="-503.8" font-family="Times,serif" font-size="14.00">b1→Mirroring</text>
<polygon fill="none" stroke="black" points="613,-497 613,-518 740,-518 740,-497 613,-497"/>
<text text-anchor="start" x="641.5" y="-503.8" font-family="Times,serif" font-size="14.00">mirroring</text>
</g>
<!-- header__seq&#45;&gt;f6__seq -->
<g id="edge5" class="edge"><title>header__seq:f6_type&#45;&gt;f6__seq</title>
<path fill="none" stroke="black" stroke-width="2" d="M310.5,-560C346.519,-560 385.159,-560 421.844,-560"/>
<polygon fill="black" stroke="black" stroke-width="2" points="422.136,-563.5 432.136,-560 422.135,-556.5 422.136,-563.5"/>
</g>
<!-- f7__seq -->
<g id="node5" class="node"><title>f7__seq</title>
<polygon fill="#e0ffe0" stroke="none" points="463,-420 463,-441 494,-441 494,-420 463,-420"/>
<polygon fill="none" stroke="black" points="463,-420 463,-441 494,-441 494,-420 463,-420"/>
<text text-anchor="start" x="466" y="-426.8" font-family="Times,serif" font-size="14.00">pos</text>
<polygon fill="#e0ffe0" stroke="none" points="494,-420 494,-441 528,-441 528,-420 494,-420"/>
<polygon fill="none" stroke="black" points="494,-420 494,-441 528,-441 528,-420 494,-420"/>
<text text-anchor="start" x="497" y="-426.8" font-family="Times,serif" font-size="14.00">size</text>
<polygon fill="#e0ffe0" stroke="none" points="528,-420 528,-441 607,-441 607,-420 528,-420"/>
<polygon fill="none" stroke="black" points="528,-420 528,-441 607,-441 607,-420 528,-420"/>
<text text-anchor="start" x="551.5" y="-426.8" font-family="Times,serif" font-size="14.00">type</text>
<polygon fill="#e0ffe0" stroke="none" points="607,-420 607,-441 718,-441 718,-420 607,-420"/>
<polygon fill="none" stroke="black" points="607,-420 607,-441 718,-441 718,-420 607,-420"/>
<text text-anchor="start" x="655.5" y="-426.8" font-family="Times,serif" font-size="14.00">id</text>
<polygon fill="none" stroke="black" points="463,-399 463,-420 494,-420 494,-399 463,-399"/>
<text text-anchor="start" x="473.5" y="-405.8" font-family="Times,serif" font-size="14.00">0</text>
<polygon fill="none" stroke="black" points="494,-399 494,-420 528,-420 528,-399 494,-399"/>
<text text-anchor="start" x="501.5" y="-405.8" font-family="Times,serif" font-size="14.00">4b</text>
<polygon fill="none" stroke="black" points="528,-399 528,-420 607,-420 607,-399 528,-399"/>
<text text-anchor="start" x="558" y="-405.8" font-family="Times,serif" font-size="14.00">b4</text>
<polygon fill="none" stroke="black" points="607,-399 607,-420 718,-420 718,-399 607,-399"/>
<text text-anchor="start" x="610" y="-405.8" font-family="Times,serif" font-size="14.00">upper_mapper</text>
<polygon fill="none" stroke="black" points="463,-378 463,-399 494,-399 494,-378 463,-378"/>
<text text-anchor="start" x="467" y="-384.8" font-family="Times,serif" font-size="14.00">0:4</text>
<polygon fill="none" stroke="black" points="494,-378 494,-399 528,-399 528,-378 494,-378"/>
<text text-anchor="start" x="501.5" y="-384.8" font-family="Times,serif" font-size="14.00">2b</text>
<polygon fill="none" stroke="black" points="528,-378 528,-399 607,-399 607,-378 528,-378"/>
<text text-anchor="start" x="558" y="-384.8" font-family="Times,serif" font-size="14.00">b2</text>
<polygon fill="none" stroke="black" points="607,-378 607,-399 718,-399 718,-378 607,-378"/>
<text text-anchor="start" x="638" y="-384.8" font-family="Times,serif" font-size="14.00">format</text>
<polygon fill="none" stroke="black" points="463,-357 463,-378 494,-378 494,-357 463,-357"/>
<text text-anchor="start" x="467" y="-363.8" font-family="Times,serif" font-size="14.00">0:6</text>
<polygon fill="none" stroke="black" points="494,-357 494,-378 528,-378 528,-357 494,-357"/>
<text text-anchor="start" x="501.5" y="-363.8" font-family="Times,serif" font-size="14.00">1b</text>
<polygon fill="none" stroke="black" points="528,-357 528,-378 607,-378 607,-357 528,-357"/>
<text text-anchor="start" x="531" y="-363.8" font-family="Times,serif" font-size="14.00">BitsType1</text>
<polygon fill="none" stroke="black" points="607,-357 607,-378 718,-378 718,-357 607,-357"/>
<text text-anchor="start" x="615" y="-363.8" font-family="Times,serif" font-size="14.00">playchoice10</text>
<polygon fill="none" stroke="black" points="463,-336 463,-357 494,-357 494,-336 463,-336"/>
<text text-anchor="start" x="467" y="-342.8" font-family="Times,serif" font-size="14.00">0:7</text>
<polygon fill="none" stroke="black" points="494,-336 494,-357 528,-357 528,-336 494,-336"/>
<text text-anchor="start" x="501.5" y="-342.8" font-family="Times,serif" font-size="14.00">1b</text>
<polygon fill="none" stroke="black" points="528,-336 528,-357 607,-357 607,-336 528,-336"/>
<text text-anchor="start" x="531" y="-342.8" font-family="Times,serif" font-size="14.00">BitsType1</text>
<polygon fill="none" stroke="black" points="607,-336 607,-357 718,-357 718,-336 607,-336"/>
<text text-anchor="start" x="614" y="-342.8" font-family="Times,serif" font-size="14.00">vs_unisystem</text>
</g>
<!-- header__seq&#45;&gt;f7__seq -->
<g id="edge6" class="edge"><title>header__seq:f7_type&#45;&gt;f7__seq</title>
<path fill="none" stroke="black" stroke-width="2" d="M310.5,-538C342.1,-538 327.861,-500.147 353,-481 380.224,-460.265 412.704,-443.635 444.729,-430.53"/>
<polygon fill="black" stroke="black" stroke-width="2" points="446.204,-433.71 454.194,-426.752 443.609,-427.209 446.204,-433.71"/>
</g>
<!-- f9__seq -->
<g id="node6" class="node"><title>f9__seq</title>
<polygon fill="#e0ffe0" stroke="none" points="465,-259 465,-280 496,-280 496,-259 465,-259"/>
<polygon fill="none" stroke="black" points="465,-259 465,-280 496,-280 496,-259 465,-259"/>
<text text-anchor="start" x="468" y="-265.8" font-family="Times,serif" font-size="14.00">pos</text>
<polygon fill="#e0ffe0" stroke="none" points="496,-259 496,-280 530,-280 530,-259 496,-259"/>
<polygon fill="none" stroke="black" points="496,-259 496,-280 530,-280 530,-259 496,-259"/>
<text text-anchor="start" x="499" y="-265.8" font-family="Times,serif" font-size="14.00">size</text>
<polygon fill="#e0ffe0" stroke="none" points="530,-259 530,-280 636,-280 636,-259 530,-259"/>
<polygon fill="none" stroke="black" points="530,-259 530,-280 636,-280 636,-259 530,-259"/>
<text text-anchor="start" x="567" y="-265.8" font-family="Times,serif" font-size="14.00">type</text>
<polygon fill="#e0ffe0" stroke="none" points="636,-259 636,-280 715,-280 715,-259 636,-259"/>
<polygon fill="none" stroke="black" points="636,-259 636,-280 715,-280 715,-259 636,-259"/>
<text text-anchor="start" x="668.5" y="-265.8" font-family="Times,serif" font-size="14.00">id</text>
<polygon fill="none" stroke="black" points="465,-238 465,-259 496,-259 496,-238 465,-238"/>
<text text-anchor="start" x="475.5" y="-244.8" font-family="Times,serif" font-size="14.00">0</text>
<polygon fill="none" stroke="black" points="496,-238 496,-259 530,-259 530,-238 496,-238"/>
<text text-anchor="start" x="503.5" y="-244.8" font-family="Times,serif" font-size="14.00">7b</text>
<polygon fill="none" stroke="black" points="530,-238 530,-259 636,-259 636,-238 530,-238"/>
<text text-anchor="start" x="573.5" y="-244.8" font-family="Times,serif" font-size="14.00">b7</text>
<polygon fill="none" stroke="black" points="636,-238 636,-259 715,-259 715,-238 636,-238"/>
<text text-anchor="start" x="643.5" y="-244.8" font-family="Times,serif" font-size="14.00">reserved</text>
<polygon fill="none" stroke="black" points="465,-217 465,-238 496,-238 496,-217 465,-217"/>
<text text-anchor="start" x="469" y="-223.8" font-family="Times,serif" font-size="14.00">0:7</text>
<polygon fill="none" stroke="black" points="496,-217 496,-238 530,-238 530,-217 496,-217"/>
<text text-anchor="start" x="503.5" y="-223.8" font-family="Times,serif" font-size="14.00">1b</text>
<polygon fill="none" stroke="black" points="530,-217 530,-238 636,-238 636,-217 530,-217"/>
<text text-anchor="start" x="533" y="-223.8" font-family="Times,serif" font-size="14.00">b1→TvSystem</text>
<polygon fill="none" stroke="black" points="636,-217 636,-238 715,-238 715,-217 636,-217"/>
<text text-anchor="start" x="639" y="-223.8" font-family="Times,serif" font-size="14.00">tv_system</text>
</g>
<!-- header__seq&#45;&gt;f9__seq -->
<g id="edge7" class="edge"><title>header__seq:f9_type&#45;&gt;f9__seq</title>
<path fill="none" stroke="black" stroke-width="2" d="M310.5,-496C390.971,-496 297.693,-378.452 353,-320 377.931,-293.651 412.232,-276.968 446.962,-266.437"/>
<polygon fill="black" stroke="black" stroke-width="2" points="448.114,-269.748 456.762,-263.627 446.185,-263.019 448.114,-269.748"/>
</g>
<!-- f10__seq -->
<g id="node7" class="node"><title>f10__seq</title>
<polygon fill="#e0ffe0" stroke="none" points="458,-141 458,-162 489,-162 489,-141 458,-141"/>
<polygon fill="none" stroke="black" points="458,-141 458,-162 489,-162 489,-141 458,-141"/>
<text text-anchor="start" x="461" y="-147.8" font-family="Times,serif" font-size="14.00">pos</text>
<polygon fill="#e0ffe0" stroke="none" points="489,-141 489,-162 523,-162 523,-141 489,-141"/>
<polygon fill="none" stroke="black" points="489,-141 489,-162 523,-162 523,-141 489,-141"/>
<text text-anchor="start" x="492" y="-147.8" font-family="Times,serif" font-size="14.00">size</text>
<polygon fill="#e0ffe0" stroke="none" points="523,-141 523,-162 629,-162 629,-141 523,-141"/>
<polygon fill="none" stroke="black" points="523,-141 523,-162 629,-162 629,-141 523,-141"/>
<text text-anchor="start" x="560" y="-147.8" font-family="Times,serif" font-size="14.00">type</text>
<polygon fill="#e0ffe0" stroke="none" points="629,-141 629,-162 722,-162 722,-141 629,-141"/>
<polygon fill="none" stroke="black" points="629,-141 629,-162 722,-162 722,-141 629,-141"/>
<text text-anchor="start" x="668.5" y="-147.8" font-family="Times,serif" font-size="14.00">id</text>
<polygon fill="none" stroke="black" points="458,-120 458,-141 489,-141 489,-120 458,-120"/>
<text text-anchor="start" x="468.5" y="-126.8" font-family="Times,serif" font-size="14.00">0</text>
<polygon fill="none" stroke="black" points="489,-120 489,-141 523,-141 523,-120 489,-120"/>
<text text-anchor="start" x="496.5" y="-126.8" font-family="Times,serif" font-size="14.00">2b</text>
<polygon fill="none" stroke="black" points="523,-120 523,-141 629,-141 629,-120 523,-120"/>
<text text-anchor="start" x="566.5" y="-126.8" font-family="Times,serif" font-size="14.00">b2</text>
<polygon fill="none" stroke="black" points="629,-120 629,-141 722,-141 722,-120 629,-120"/>
<text text-anchor="start" x="639" y="-126.8" font-family="Times,serif" font-size="14.00">reserved1</text>
<polygon fill="none" stroke="black" points="458,-99 458,-120 489,-120 489,-99 458,-99"/>
<text text-anchor="start" x="462" y="-105.8" font-family="Times,serif" font-size="14.00">0:2</text>
<polygon fill="none" stroke="black" points="489,-99 489,-120 523,-120 523,-99 489,-99"/>
<text text-anchor="start" x="496.5" y="-105.8" font-family="Times,serif" font-size="14.00">1b</text>
<polygon fill="none" stroke="black" points="523,-99 523,-120 629,-120 629,-99 523,-99"/>
<text text-anchor="start" x="539.5" y="-105.8" font-family="Times,serif" font-size="14.00">BitsType1</text>
<polygon fill="none" stroke="black" points="629,-99 629,-120 722,-120 722,-99 629,-99"/>
<text text-anchor="start" x="632" y="-105.8" font-family="Times,serif" font-size="14.00">bus_conflict</text>
<polygon fill="none" stroke="black" points="458,-78 458,-99 489,-99 489,-78 458,-78"/>
<text text-anchor="start" x="462" y="-84.8" font-family="Times,serif" font-size="14.00">0:3</text>
<polygon fill="none" stroke="black" points="489,-78 489,-99 523,-99 523,-78 489,-78"/>
<text text-anchor="start" x="496.5" y="-84.8" font-family="Times,serif" font-size="14.00">1b</text>
<polygon fill="none" stroke="black" points="523,-78 523,-99 629,-99 629,-78 523,-78"/>
<text text-anchor="start" x="539.5" y="-84.8" font-family="Times,serif" font-size="14.00">BitsType1</text>
<polygon fill="none" stroke="black" points="629,-78 629,-99 722,-99 722,-78 629,-78"/>
<text text-anchor="start" x="645" y="-84.8" font-family="Times,serif" font-size="14.00">prg_ram</text>
<polygon fill="none" stroke="black" points="458,-57 458,-78 489,-78 489,-57 458,-57"/>
<text text-anchor="start" x="462" y="-63.8" font-family="Times,serif" font-size="14.00">0:4</text>
<polygon fill="none" stroke="black" points="489,-57 489,-78 523,-78 523,-57 489,-57"/>
<text text-anchor="start" x="496.5" y="-63.8" font-family="Times,serif" font-size="14.00">2b</text>
<polygon fill="none" stroke="black" points="523,-57 523,-78 629,-78 629,-57 523,-57"/>
<text text-anchor="start" x="566.5" y="-63.8" font-family="Times,serif" font-size="14.00">b2</text>
<polygon fill="none" stroke="black" points="629,-57 629,-78 722,-78 722,-57 629,-57"/>
<text text-anchor="start" x="639" y="-63.8" font-family="Times,serif" font-size="14.00">reserved2</text>
<polygon fill="none" stroke="black" points="458,-36 458,-57 489,-57 489,-36 458,-36"/>
<text text-anchor="start" x="462" y="-42.8" font-family="Times,serif" font-size="14.00">0:6</text>
<polygon fill="none" stroke="black" points="489,-36 489,-57 523,-57 523,-36 489,-36"/>
<text text-anchor="start" x="496.5" y="-42.8" font-family="Times,serif" font-size="14.00">2b</text>
<polygon fill="none" stroke="black" points="523,-36 523,-57 629,-57 629,-36 523,-36"/>
<text text-anchor="start" x="526" y="-42.8" font-family="Times,serif" font-size="14.00">b2→TvSystem</text>
<polygon fill="none" stroke="black" points="629,-36 629,-57 722,-57 722,-36 629,-36"/>
<text text-anchor="start" x="639" y="-42.8" font-family="Times,serif" font-size="14.00">tv_system</text>
</g>
<!-- header__seq&#45;&gt;f10__seq -->
<g id="edge8" class="edge"><title>header__seq:f10_type&#45;&gt;f10__seq</title>
<path fill="none" stroke="black" stroke-width="2" d="M310.5,-475C372.117,-475 315.301,-249.739 353,-201 375.216,-172.278 407.145,-151.51 440.37,-136.541"/>
<polygon fill="black" stroke="black" stroke-width="2" points="441.982,-139.657 449.768,-132.471 439.201,-133.233 441.982,-139.657"/>
</g>
<!-- header__inst__mapper -->
<g id="node3" class="node"><title>header__inst__mapper</title>
<polygon fill="#e0ffe0" stroke="none" points="871,-501 871,-522 932,-522 932,-501 871,-501"/>
<polygon fill="none" stroke="black" points="871,-501 871,-522 932,-522 932,-501 871,-501"/>
<text text-anchor="start" x="894.5" y="-507.8" font-family="Times,serif" font-size="14.00">id</text>
<polygon fill="#e0ffe0" stroke="none" points="932,-501 932,-522 1259,-522 1259,-501 932,-501"/>
<polygon fill="none" stroke="black" points="932,-501 932,-522 1259,-522 1259,-501 932,-501"/>
<text text-anchor="start" x="1076" y="-507.8" font-family="Times,serif" font-size="14.00">value</text>
<polygon fill="none" stroke="black" points="871,-480 871,-501 932,-501 932,-480 871,-480"/>
<text text-anchor="start" x="874" y="-486.8" font-family="Times,serif" font-size="14.00">mapper</text>
<polygon fill="none" stroke="black" points="932,-480 932,-501 1259,-501 1259,-480 932,-480"/>
<text text-anchor="start" x="935" y="-486.8" font-family="Times,serif" font-size="14.00">(f6.lower_mapper | (f7.upper_mapper &lt;&lt; 4))</text>
</g>
<!-- f6__seq&#45;&gt;header__inst__mapper -->
<g id="edge9" class="edge"><title>f6__seq:lower_mapper_type&#45;&gt;header__inst__mapper</title>
<path fill="none" stroke="#404040" d="M741,-592C833.82,-592 936.211,-556.754 1000.31,-530.133"/>
<polygon fill="#404040" stroke="#404040" points="1002.01,-533.213 1009.87,-526.107 999.296,-526.761 1002.01,-533.213"/>
</g>
<!-- f7__seq&#45;&gt;header__inst__mapper -->
<g id="edge10" class="edge"><title>f7__seq:upper_mapper_type&#45;&gt;header__inst__mapper</title>
<path fill="none" stroke="#404040" d="M719,-410C818.096,-410 928.065,-445.536 996.621,-472.195"/>
<polygon fill="#404040" stroke="#404040" points="995.427,-475.486 1006.01,-475.893 997.991,-468.973 995.427,-475.486"/>
</g>
<!-- prom__seq -->
<g id="node9" class="node"><title>prom__seq</title>
<polygon fill="#e0ffe0" stroke="none" points="1311,-759 1311,-780 1342,-780 1342,-759 1311,-759"/>
<polygon fill="none" stroke="black" points="1311,-759 1311,-780 1342,-780 1342,-759 1311,-759"/>
<text text-anchor="start" x="1314" y="-765.8" font-family="Times,serif" font-size="14.00">pos</text>
<polygon fill="#e0ffe0" stroke="none" points="1342,-759 1342,-780 1376,-780 1376,-759 1342,-759"/>
<polygon fill="none" stroke="black" points="1342,-759 1342,-780 1376,-780 1376,-759 1342,-759"/>
<text text-anchor="start" x="1345" y="-765.8" font-family="Times,serif" font-size="14.00">size</text>
<polygon fill="#e0ffe0" stroke="none" points="1376,-759 1376,-780 1414,-780 1414,-759 1376,-759"/>
<polygon fill="none" stroke="black" points="1376,-759 1376,-780 1414,-780 1414,-759 1376,-759"/>
<text text-anchor="start" x="1379" y="-765.8" font-family="Times,serif" font-size="14.00">type</text>
<polygon fill="#e0ffe0" stroke="none" points="1414,-759 1414,-780 1507,-780 1507,-759 1414,-759"/>
<polygon fill="none" stroke="black" points="1414,-759 1414,-780 1507,-780 1507,-759 1414,-759"/>
<text text-anchor="start" x="1453.5" y="-765.8" font-family="Times,serif" font-size="14.00">id</text>
<polygon fill="none" stroke="black" points="1311,-738 1311,-759 1342,-759 1342,-738 1311,-738"/>
<text text-anchor="start" x="1321.5" y="-744.8" font-family="Times,serif" font-size="14.00">0</text>
<polygon fill="none" stroke="black" points="1342,-738 1342,-759 1376,-759 1376,-738 1342,-738"/>
<text text-anchor="start" x="1349.5" y="-744.8" font-family="Times,serif" font-size="14.00">16</text>
<polygon fill="none" stroke="black" points="1376,-738 1376,-759 1414,-759 1414,-738 1376,-738"/>
<polygon fill="none" stroke="black" points="1414,-738 1414,-759 1507,-759 1507,-738 1414,-738"/>
<text text-anchor="start" x="1444.5" y="-744.8" font-family="Times,serif" font-size="14.00">data</text>
<polygon fill="none" stroke="black" points="1311,-717 1311,-738 1342,-738 1342,-717 1311,-717"/>
<text text-anchor="start" x="1317" y="-723.8" font-family="Times,serif" font-size="14.00">16</text>
<polygon fill="none" stroke="black" points="1342,-717 1342,-738 1376,-738 1376,-717 1342,-717"/>
<text text-anchor="start" x="1349.5" y="-723.8" font-family="Times,serif" font-size="14.00">16</text>
<polygon fill="none" stroke="black" points="1376,-717 1376,-738 1414,-738 1414,-717 1376,-717"/>
<polygon fill="none" stroke="black" points="1414,-717 1414,-738 1507,-738 1507,-717 1414,-717"/>
<text text-anchor="start" x="1417" y="-723.8" font-family="Times,serif" font-size="14.00">counter_out</text>
</g>
<!-- playchoice10__seq&#45;&gt;prom__seq -->
<g id="edge11" class="edge"><title>playchoice10__seq:prom_type&#45;&gt;prom__seq</title>
<path fill="none" stroke="black" stroke-width="2" d="M1167,-734C1208.06,-734 1252.98,-736.196 1292.8,-738.907"/>
<polygon fill="black" stroke="black" stroke-width="2" points="1292.59,-742.401 1302.81,-739.607 1293.07,-735.418 1292.59,-742.401"/>
</g>
</g>
</svg>
