<?xml version="1.0" encoding="UTF-8" standalone="no"?>
<!DOCTYPE svg PUBLIC "-//W3C//DTD SVG 1.1//EN"
 "http://www.w3.org/Graphics/SVG/1.1/DTD/svg11.dtd">
<!-- Generated by graphviz version 2.40.1 (20161225.0304)
 -->
<!-- Title: %3 Pages: 1 -->
<svg width="1229pt" height="291pt"
 viewBox="0.00 0.00 1229.00 291.00" xmlns="http://www.w3.org/2000/svg" xmlns:xlink="http://www.w3.org/1999/xlink">
<g id="graph0" class="graph" transform="scale(1 1) rotate(0) translate(4 287)">
<title>%3</title>
<polygon fill="#ffffff" stroke="transparent" points="-4,4 -4,-287 1225,-287 1225,4 -4,4"/>
<g id="clust1" class="cluster">
<title>cluster__java_bytecode</title>
<polygon fill="none" stroke="#000000" stroke-dasharray="1,5" points="8,-8 8,-275 1216.5,-275 1216.5,-8 8,-8"/>
<text text-anchor="middle" x="612.25" y="-259.8" font-family="Times,serif" font-size="14.00" fill="#000000">JavaBytecode</text>
</g>
<g id="clust2" class="cluster">
<title>cluster__inst</title>
<polygon fill="none" stroke="#000000" stroke-dasharray="1,5" points="256,-81 256,-210 918,-210 918,-81 256,-81"/>
<text text-anchor="middle" x="587" y="-194.8" font-family="Times,serif" font-size="14.00" fill="#000000">JavaBytecode::Inst</text>
</g>
<g id="clust3" class="cluster">
<title>cluster__arg_invokeinterface</title>
<polygon fill="none" stroke="#000000" stroke-dasharray="1,5" points="945.5,-16 945.5,-147 1208.5,-147 1208.5,-16 945.5,-16"/>
<text text-anchor="middle" x="1077" y="-131.8" font-family="Times,serif" font-size="14.00" fill="#000000">JavaBytecode::ArgInvokeinterface</text>
</g>
<g id="clust4" class="cluster">
<title>cluster__arg_newarray</title>
<polygon fill="none" stroke="#000000" stroke-dasharray="1,5" points="948,-155 948,-244 1205,-244 1205,-155 948,-155"/>
<text text-anchor="middle" x="1076.5" y="-228.8" font-family="Times,serif" font-size="14.00" fill="#000000">JavaBytecode::ArgNewarray</text>
</g>
<!-- java_bytecode__seq -->
<g id="node1" class="node">
<title>java_bytecode__seq</title>
<polygon fill="#e0ffe0" stroke="transparent" points="24,-136 24,-157 55,-157 55,-136 24,-136"/>
<polygon fill="none" stroke="#000000" points="24,-136 24,-157 55,-157 55,-136 24,-136"/>
<text text-anchor="start" x="27" y="-142.8" font-family="Times,serif" font-size="14.00" fill="#000000">pos</text>
<polygon fill="#e0ffe0" stroke="transparent" points="55,-136 55,-157 89,-157 89,-136 55,-136"/>
<polygon fill="none" stroke="#000000" points="55,-136 55,-157 89,-157 89,-136 55,-136"/>
<text text-anchor="start" x="58" y="-142.8" font-family="Times,serif" font-size="14.00" fill="#000000">size</text>
<polygon fill="#e0ffe0" stroke="transparent" points="89,-136 89,-157 127,-157 127,-136 89,-136"/>
<polygon fill="none" stroke="#000000" points="89,-136 89,-157 127,-157 127,-136 89,-136"/>
<text text-anchor="start" x="92" y="-142.8" font-family="Times,serif" font-size="14.00" fill="#000000">type</text>
<polygon fill="#e0ffe0" stroke="transparent" points="127,-136 127,-157 220,-157 220,-136 127,-136"/>
<polygon fill="none" stroke="#000000" points="127,-136 127,-157 220,-157 220,-136 127,-136"/>
<text text-anchor="start" x="166.5" y="-142.8" font-family="Times,serif" font-size="14.00" fill="#000000">id</text>
<polygon fill="none" stroke="#000000" points="24,-115 24,-136 55,-136 55,-115 24,-115"/>
<text text-anchor="start" x="34.5" y="-121.8" font-family="Times,serif" font-size="14.00" fill="#000000">0</text>
<polygon fill="none" stroke="#000000" points="55,-115 55,-136 89,-136 89,-115 55,-115"/>
<text text-anchor="start" x="65" y="-121.8" font-family="Times,serif" font-size="14.00" fill="#000000">...</text>
<polygon fill="none" stroke="#000000" points="89,-115 89,-136 127,-136 127,-115 89,-115"/>
<text text-anchor="start" x="93.5" y="-121.8" font-family="Times,serif" font-size="14.00" fill="#000000">Inst</text>
<polygon fill="none" stroke="#000000" points="127,-115 127,-136 220,-136 220,-115 127,-115"/>
<text text-anchor="start" x="130" y="-121.8" font-family="Times,serif" font-size="14.00" fill="#000000">instructions</text>
<polygon fill="none" stroke="#000000" points="24,-94 24,-115 220,-115 220,-94 24,-94"/>
<text text-anchor="start" x="37.5" y="-100.8" font-family="Times,serif" font-size="14.00" fill="#000000">repeat to end of stream</text>
</g>
<!-- inst__seq -->
<g id="node2" class="node">
<title>inst__seq</title>
<polygon fill="#e0ffe0" stroke="transparent" points="272.5,-135 272.5,-156 303.5,-156 303.5,-135 272.5,-135"/>
<polygon fill="none" stroke="#000000" points="272.5,-135 272.5,-156 303.5,-156 303.5,-135 272.5,-135"/>
<text text-anchor="start" x="275.5" y="-141.8" font-family="Times,serif" font-size="14.00" fill="#000000">pos</text>
<polygon fill="#e0ffe0" stroke="transparent" points="303.5,-135 303.5,-156 337.5,-156 337.5,-135 303.5,-135"/>
<polygon fill="none" stroke="#000000" points="303.5,-135 303.5,-156 337.5,-156 337.5,-135 303.5,-135"/>
<text text-anchor="start" x="306.5" y="-141.8" font-family="Times,serif" font-size="14.00" fill="#000000">size</text>
<polygon fill="#e0ffe0" stroke="transparent" points="337.5,-135 337.5,-156 457.5,-156 457.5,-135 337.5,-135"/>
<polygon fill="none" stroke="#000000" points="337.5,-135 337.5,-156 457.5,-156 457.5,-135 337.5,-135"/>
<text text-anchor="start" x="381.5" y="-141.8" font-family="Times,serif" font-size="14.00" fill="#000000">type</text>
<polygon fill="#e0ffe0" stroke="transparent" points="457.5,-135 457.5,-156 515.5,-156 515.5,-135 457.5,-135"/>
<polygon fill="none" stroke="#000000" points="457.5,-135 457.5,-156 515.5,-156 515.5,-135 457.5,-135"/>
<text text-anchor="start" x="479.5" y="-141.8" font-family="Times,serif" font-size="14.00" fill="#000000">id</text>
<polygon fill="none" stroke="#000000" points="272.5,-114 272.5,-135 303.5,-135 303.5,-114 272.5,-114"/>
<text text-anchor="start" x="283" y="-120.8" font-family="Times,serif" font-size="14.00" fill="#000000">0</text>
<polygon fill="none" stroke="#000000" points="303.5,-114 303.5,-135 337.5,-135 337.5,-114 303.5,-114"/>
<text text-anchor="start" x="315.5" y="-120.8" font-family="Times,serif" font-size="14.00" fill="#000000">1</text>
<polygon fill="none" stroke="#000000" points="337.5,-114 337.5,-135 457.5,-135 457.5,-114 337.5,-114"/>
<text text-anchor="start" x="351" y="-120.8" font-family="Times,serif" font-size="14.00" fill="#000000">u1→Opcodes</text>
<polygon fill="none" stroke="#000000" points="457.5,-114 457.5,-135 515.5,-135 515.5,-114 457.5,-114"/>
<text text-anchor="start" x="460.5" y="-120.8" font-family="Times,serif" font-size="14.00" fill="#000000">opcode</text>
<polygon fill="none" stroke="#000000" points="272.5,-93 272.5,-114 303.5,-114 303.5,-93 272.5,-93"/>
<text text-anchor="start" x="283" y="-99.8" font-family="Times,serif" font-size="14.00" fill="#000000">1</text>
<polygon fill="none" stroke="#000000" points="303.5,-93 303.5,-114 337.5,-114 337.5,-93 303.5,-93"/>
<text text-anchor="start" x="313.5" y="-99.8" font-family="Times,serif" font-size="14.00" fill="#000000">...</text>
<polygon fill="none" stroke="#000000" points="337.5,-93 337.5,-114 457.5,-114 457.5,-93 337.5,-93"/>
<text text-anchor="start" x="340.5" y="-99.8" font-family="Times,serif" font-size="14.00" fill="#000000">switch (opcode)</text>
<polygon fill="none" stroke="#000000" points="457.5,-93 457.5,-114 515.5,-114 515.5,-93 457.5,-93"/>
<text text-anchor="start" x="474" y="-99.8" font-family="Times,serif" font-size="14.00" fill="#000000">arg</text>
</g>
<!-- java_bytecode__seq&#45;&gt;inst__seq -->
<g id="edge1" class="edge">
<title>java_bytecode__seq:instructions_type&#45;&gt;inst__seq</title>
<path fill="none" stroke="#000000" stroke-width="2" d="M220,-125C230.9496,-125 242.288,-125 253.6839,-125"/>
<polygon fill="#000000" stroke="#000000" stroke-width="2" points="253.705,-128.5001 263.7049,-125 253.7049,-121.5001 253.705,-128.5001"/>
</g>
<!-- inst__seq&#45;&gt;inst__seq -->
<g id="edge5" class="edge">
<title>inst__seq:opcode_type&#45;&gt;inst__seq:arg_type</title>
<path fill="none" stroke="#404040" d="M457.4186,-134.7155C421.0396,-153.4728 430.7334,-178.5 486.5,-178.5 538.8821,-178.5 550.6141,-143.7717 521.6958,-119.8813"/>
<polygon fill="#404040" stroke="#404040" points="523.6549,-116.98 513.4679,-114.0687 519.616,-122.6973 523.6549,-116.98"/>
</g>
<!-- inst__seq_arg_switch -->
<g id="node3" class="node">
<title>inst__seq_arg_switch</title>
<polygon fill="#f0f2e4" stroke="transparent" points="567.5,-135 567.5,-156 756.5,-156 756.5,-135 567.5,-135"/>
<polygon fill="none" stroke="#000000" points="567.5,-135 567.5,-156 756.5,-156 756.5,-135 567.5,-135"/>
<text text-anchor="start" x="645.5" y="-141.8" font-family="Times,serif" font-size="14.00" fill="#000000">case</text>
<polygon fill="#f0f2e4" stroke="transparent" points="756.5,-135 756.5,-156 902.5,-156 902.5,-135 756.5,-135"/>
<polygon fill="none" stroke="#000000" points="756.5,-135 756.5,-156 902.5,-156 902.5,-135 756.5,-135"/>
<text text-anchor="start" x="813.5" y="-141.8" font-family="Times,serif" font-size="14.00" fill="#000000">type</text>
<polygon fill="none" stroke="#000000" points="567.5,-114 567.5,-135 756.5,-135 756.5,-114 567.5,-114"/>
<text text-anchor="start" x="592.5" y="-120.8" font-family="Times,serif" font-size="14.00" fill="#000000">:opcodes_newarray</text>
<polygon fill="none" stroke="#000000" points="756.5,-114 756.5,-135 902.5,-135 902.5,-114 756.5,-114"/>
<text text-anchor="start" x="780.5" y="-120.8" font-family="Times,serif" font-size="14.00" fill="#000000">ArgNewarray</text>
<polygon fill="none" stroke="#000000" points="567.5,-93 567.5,-114 756.5,-114 756.5,-93 567.5,-93"/>
<text text-anchor="start" x="570.5" y="-99.8" font-family="Times,serif" font-size="14.00" fill="#000000">:opcodes_invokeinterface</text>
<polygon fill="none" stroke="#000000" points="756.5,-93 756.5,-114 902.5,-114 902.5,-93 756.5,-93"/>
<text text-anchor="start" x="759.5" y="-99.8" font-family="Times,serif" font-size="14.00" fill="#000000">ArgInvokeinterface</text>
</g>
<!-- inst__seq&#45;&gt;inst__seq_arg_switch -->
<g id="edge2" class="edge">
<title>inst__seq:arg_type&#45;&gt;inst__seq_arg_switch</title>
<path fill="none" stroke="#000000" stroke-width="2" d="M515.5,-103C526.3248,-103 537.4356,-103.2694 548.6364,-103.7485"/>
<polygon fill="#000000" stroke="#000000" stroke-width="2" points="548.7856,-107.2597 558.9427,-104.2458 549.123,-100.2679 548.7856,-107.2597"/>
</g>
<!-- arg_invokeinterface__seq -->
<g id="node4" class="node">
<title>arg_invokeinterface__seq</title>
<polygon fill="#e0ffe0" stroke="transparent" points="969.5,-91 969.5,-112 1000.5,-112 1000.5,-91 969.5,-91"/>
<polygon fill="none" stroke="#000000" points="969.5,-91 969.5,-112 1000.5,-112 1000.5,-91 969.5,-91"/>
<text text-anchor="start" x="972.5" y="-97.8" font-family="Times,serif" font-size="14.00" fill="#000000">pos</text>
<polygon fill="#e0ffe0" stroke="transparent" points="1000.5,-91 1000.5,-112 1034.5,-112 1034.5,-91 1000.5,-91"/>
<polygon fill="none" stroke="#000000" points="1000.5,-91 1000.5,-112 1034.5,-112 1034.5,-91 1000.5,-91"/>
<text text-anchor="start" x="1003.5" y="-97.8" font-family="Times,serif" font-size="14.00" fill="#000000">size</text>
<polygon fill="#e0ffe0" stroke="transparent" points="1034.5,-91 1034.5,-112 1076.5,-112 1076.5,-91 1034.5,-91"/>
<polygon fill="none" stroke="#000000" points="1034.5,-91 1034.5,-112 1076.5,-112 1076.5,-91 1034.5,-91"/>
<text text-anchor="start" x="1039.5" y="-97.8" font-family="Times,serif" font-size="14.00" fill="#000000">type</text>
<polygon fill="#e0ffe0" stroke="transparent" points="1076.5,-91 1076.5,-112 1183.5,-112 1183.5,-91 1076.5,-91"/>
<polygon fill="none" stroke="#000000" points="1076.5,-91 1076.5,-112 1183.5,-112 1183.5,-91 1076.5,-91"/>
<text text-anchor="start" x="1123" y="-97.8" font-family="Times,serif" font-size="14.00" fill="#000000">id</text>
<polygon fill="none" stroke="#000000" points="969.5,-70 969.5,-91 1000.5,-91 1000.5,-70 969.5,-70"/>
<text text-anchor="start" x="980" y="-76.8" font-family="Times,serif" font-size="14.00" fill="#000000">0</text>
<polygon fill="none" stroke="#000000" points="1000.5,-70 1000.5,-91 1034.5,-91 1034.5,-70 1000.5,-70"/>
<text text-anchor="start" x="1012.5" y="-76.8" font-family="Times,serif" font-size="14.00" fill="#000000">2</text>
<polygon fill="none" stroke="#000000" points="1034.5,-70 1034.5,-91 1076.5,-91 1076.5,-70 1034.5,-70"/>
<text text-anchor="start" x="1037.5" y="-76.8" font-family="Times,serif" font-size="14.00" fill="#000000">u2be</text>
<polygon fill="none" stroke="#000000" points="1076.5,-70 1076.5,-91 1183.5,-91 1183.5,-70 1076.5,-70"/>
<text text-anchor="start" x="1079.5" y="-76.8" font-family="Times,serif" font-size="14.00" fill="#000000">method_index</text>
<polygon fill="none" stroke="#000000" points="969.5,-49 969.5,-70 1000.5,-70 1000.5,-49 969.5,-49"/>
<text text-anchor="start" x="980" y="-55.8" font-family="Times,serif" font-size="14.00" fill="#000000">2</text>
<polygon fill="none" stroke="#000000" points="1000.5,-49 1000.5,-70 1034.5,-70 1034.5,-49 1000.5,-49"/>
<text text-anchor="start" x="1012.5" y="-55.8" font-family="Times,serif" font-size="14.00" fill="#000000">1</text>
<polygon fill="none" stroke="#000000" points="1034.5,-49 1034.5,-70 1076.5,-70 1076.5,-49 1034.5,-49"/>
<text text-anchor="start" x="1046" y="-55.8" font-family="Times,serif" font-size="14.00" fill="#000000">u1</text>
<polygon fill="none" stroke="#000000" points="1076.5,-49 1076.5,-70 1183.5,-70 1183.5,-49 1076.5,-49"/>
<text text-anchor="start" x="1109.5" y="-55.8" font-family="Times,serif" font-size="14.00" fill="#000000">count</text>
<polygon fill="none" stroke="#000000" points="969.5,-28 969.5,-49 1000.5,-49 1000.5,-28 969.5,-28"/>
<text text-anchor="start" x="980" y="-34.8" font-family="Times,serif" font-size="14.00" fill="#000000">3</text>
<polygon fill="none" stroke="#000000" points="1000.5,-28 1000.5,-49 1034.5,-49 1034.5,-28 1000.5,-28"/>
<text text-anchor="start" x="1012.5" y="-34.8" font-family="Times,serif" font-size="14.00" fill="#000000">1</text>
<polygon fill="none" stroke="#000000" points="1034.5,-28 1034.5,-49 1076.5,-49 1076.5,-28 1034.5,-28"/>
<text text-anchor="start" x="1046" y="-34.8" font-family="Times,serif" font-size="14.00" fill="#000000">00</text>
<polygon fill="none" stroke="#000000" points="1076.5,-28 1076.5,-49 1183.5,-49 1183.5,-28 1076.5,-28"/>
<text text-anchor="start" x="1098" y="-34.8" font-family="Times,serif" font-size="14.00" fill="#000000">reserved</text>
</g>
<!-- inst__seq_arg_switch&#45;&gt;arg_invokeinterface__seq -->
<g id="edge4" class="edge">
<title>inst__seq_arg_switch:case1&#45;&gt;arg_invokeinterface__seq</title>
<path fill="none" stroke="#000000" stroke-width="2" d="M902.5,-103C918.4139,-103 935.0053,-101.6511 951.3499,-99.4987"/>
<polygon fill="#000000" stroke="#000000" stroke-width="2" points="952.0778,-102.9305 961.4865,-98.0596 951.0938,-96 952.0778,-102.9305"/>
</g>
<!-- arg_newarray__seq -->
<g id="node5" class="node">
<title>arg_newarray__seq</title>
<polygon fill="#e0ffe0" stroke="transparent" points="964.5,-188 964.5,-209 995.5,-209 995.5,-188 964.5,-188"/>
<polygon fill="none" stroke="#000000" points="964.5,-188 964.5,-209 995.5,-209 995.5,-188 964.5,-188"/>
<text text-anchor="start" x="967.5" y="-194.8" font-family="Times,serif" font-size="14.00" fill="#000000">pos</text>
<polygon fill="#e0ffe0" stroke="transparent" points="995.5,-188 995.5,-209 1029.5,-209 1029.5,-188 995.5,-188"/>
<polygon fill="none" stroke="#000000" points="995.5,-188 995.5,-209 1029.5,-209 1029.5,-188 995.5,-188"/>
<text text-anchor="start" x="998.5" y="-194.8" font-family="Times,serif" font-size="14.00" fill="#000000">size</text>
<polygon fill="#e0ffe0" stroke="transparent" points="1029.5,-188 1029.5,-209 1143.5,-209 1143.5,-188 1029.5,-188"/>
<polygon fill="none" stroke="#000000" points="1029.5,-188 1029.5,-209 1143.5,-209 1143.5,-188 1029.5,-188"/>
<text text-anchor="start" x="1070.5" y="-194.8" font-family="Times,serif" font-size="14.00" fill="#000000">type</text>
<polygon fill="#e0ffe0" stroke="transparent" points="1143.5,-188 1143.5,-209 1189.5,-209 1189.5,-188 1143.5,-188"/>
<polygon fill="none" stroke="#000000" points="1143.5,-188 1143.5,-209 1189.5,-209 1189.5,-188 1143.5,-188"/>
<text text-anchor="start" x="1159.5" y="-194.8" font-family="Times,serif" font-size="14.00" fill="#000000">id</text>
<polygon fill="none" stroke="#000000" points="964.5,-167 964.5,-188 995.5,-188 995.5,-167 964.5,-167"/>
<text text-anchor="start" x="975" y="-173.8" font-family="Times,serif" font-size="14.00" fill="#000000">0</text>
<polygon fill="none" stroke="#000000" points="995.5,-167 995.5,-188 1029.5,-188 1029.5,-167 995.5,-167"/>
<text text-anchor="start" x="1007.5" y="-173.8" font-family="Times,serif" font-size="14.00" fill="#000000">1</text>
<polygon fill="none" stroke="#000000" points="1029.5,-167 1029.5,-188 1143.5,-188 1143.5,-167 1029.5,-167"/>
<text text-anchor="start" x="1032.5" y="-173.8" font-family="Times,serif" font-size="14.00" fill="#000000">u1→PrimTypes</text>
<polygon fill="none" stroke="#000000" points="1143.5,-167 1143.5,-188 1189.5,-188 1189.5,-167 1143.5,-167"/>
<text text-anchor="start" x="1146.5" y="-173.8" font-family="Times,serif" font-size="14.00" fill="#000000">atype</text>
</g>
<!-- inst__seq_arg_switch&#45;&gt;arg_newarray__seq -->
<g id="edge3" class="edge">
<title>inst__seq_arg_switch:case0&#45;&gt;arg_newarray__seq</title>
<path fill="none" stroke="#000000" stroke-width="2" d="M902.5,-124C925.0662,-124 924.8765,-141.84 945.5,-151 952.2562,-154.0008 959.3173,-156.8207 966.5078,-159.4591"/>
<polygon fill="#000000" stroke="#000000" stroke-width="2" points="965.782,-162.9145 976.3768,-162.9443 968.113,-156.314 965.782,-162.9145"/>
</g>
</g>
</svg>
