<?xml version="1.0" encoding="UTF-8" standalone="no"?>
<!DOCTYPE svg PUBLIC "-//W3C//DTD SVG 1.1//EN"
 "http://www.w3.org/Graphics/SVG/1.1/DTD/svg11.dtd">
<!-- Generated by graphviz version 2.40.1 (20161225.0304)
 -->
<!-- Title: %3 Pages: 1 -->
<svg width="774pt" height="499pt"
 viewBox="0.00 0.00 774.00 499.00" xmlns="http://www.w3.org/2000/svg" xmlns:xlink="http://www.w3.org/1999/xlink">
<g id="graph0" class="graph" transform="scale(1 1) rotate(0) translate(4 495)">
<title>%3</title>
<polygon fill="#ffffff" stroke="transparent" points="-4,4 -4,-495 770,-495 770,4 -4,4"/>
<g id="clust1" class="cluster">
<title>cluster__rtpdump</title>
<polygon fill="none" stroke="#000000" stroke-dasharray="1,5" points="8,-8 8,-483 612,-483 612,-8 8,-8"/>
<text text-anchor="middle" x="310" y="-467.8" font-family="Times,serif" font-size="14.00" fill="#000000">Rtpdump</text>
</g>
<g id="clust2" class="cluster">
<title>cluster__header_t</title>
<polygon fill="none" stroke="#000000" stroke-dasharray="1,5" points="281,-195 281,-452 604,-452 604,-195 281,-195"/>
<text text-anchor="middle" x="442.5" y="-436.8" font-family="Times,serif" font-size="14.00" fill="#000000">Rtpdump::HeaderT</text>
</g>
<g id="clust3" class="cluster">
<title>cluster__packet_t</title>
<polygon fill="none" stroke="#000000" stroke-dasharray="1,5" points="287.5,-16 287.5,-187 597.5,-187 597.5,-16 287.5,-16"/>
<text text-anchor="middle" x="442.5" y="-171.8" font-family="Times,serif" font-size="14.00" fill="#000000">Rtpdump::PacketT</text>
</g>
<!-- rtpdump__seq -->
<g id="node1" class="node">
<title>rtpdump__seq</title>
<polygon fill="#e0ffe0" stroke="transparent" points="24.5,-217 24.5,-238 55.5,-238 55.5,-217 24.5,-217"/>
<polygon fill="none" stroke="#000000" points="24.5,-217 24.5,-238 55.5,-238 55.5,-217 24.5,-217"/>
<text text-anchor="start" x="27.5" y="-223.8" font-family="Times,serif" font-size="14.00" fill="#000000">pos</text>
<polygon fill="#e0ffe0" stroke="transparent" points="55.5,-217 55.5,-238 89.5,-238 89.5,-217 55.5,-217"/>
<polygon fill="none" stroke="#000000" points="55.5,-217 55.5,-238 89.5,-238 89.5,-217 55.5,-217"/>
<text text-anchor="start" x="58.5" y="-223.8" font-family="Times,serif" font-size="14.00" fill="#000000">size</text>
<polygon fill="#e0ffe0" stroke="transparent" points="89.5,-217 89.5,-238 159.5,-238 159.5,-217 89.5,-217"/>
<polygon fill="none" stroke="#000000" points="89.5,-217 89.5,-238 159.5,-238 159.5,-217 89.5,-217"/>
<text text-anchor="start" x="108.5" y="-223.8" font-family="Times,serif" font-size="14.00" fill="#000000">type</text>
<polygon fill="#e0ffe0" stroke="transparent" points="159.5,-217 159.5,-238 245.5,-238 245.5,-217 159.5,-217"/>
<polygon fill="none" stroke="#000000" points="159.5,-217 159.5,-238 245.5,-238 245.5,-217 159.5,-217"/>
<text text-anchor="start" x="195.5" y="-223.8" font-family="Times,serif" font-size="14.00" fill="#000000">id</text>
<polygon fill="none" stroke="#000000" points="24.5,-196 24.5,-217 55.5,-217 55.5,-196 24.5,-196"/>
<text text-anchor="start" x="35" y="-202.8" font-family="Times,serif" font-size="14.00" fill="#000000">0</text>
<polygon fill="none" stroke="#000000" points="55.5,-196 55.5,-217 89.5,-217 89.5,-196 55.5,-196"/>
<text text-anchor="start" x="65.5" y="-202.8" font-family="Times,serif" font-size="14.00" fill="#000000">...</text>
<polygon fill="none" stroke="#000000" points="89.5,-196 89.5,-217 159.5,-217 159.5,-196 89.5,-196"/>
<text text-anchor="start" x="92.5" y="-202.8" font-family="Times,serif" font-size="14.00" fill="#000000">HeaderT</text>
<polygon fill="none" stroke="#000000" points="159.5,-196 159.5,-217 245.5,-217 245.5,-196 159.5,-196"/>
<text text-anchor="start" x="162.5" y="-202.8" font-family="Times,serif" font-size="14.00" fill="#000000">file_header</text>
<polygon fill="none" stroke="#000000" points="24.5,-175 24.5,-196 55.5,-196 55.5,-175 24.5,-175"/>
<text text-anchor="start" x="33" y="-181.8" font-family="Times,serif" font-size="14.00" fill="#000000">...</text>
<polygon fill="none" stroke="#000000" points="55.5,-175 55.5,-196 89.5,-196 89.5,-175 55.5,-175"/>
<text text-anchor="start" x="65.5" y="-181.8" font-family="Times,serif" font-size="14.00" fill="#000000">...</text>
<polygon fill="none" stroke="#000000" points="89.5,-175 89.5,-196 159.5,-196 159.5,-175 89.5,-175"/>
<text text-anchor="start" x="95" y="-181.8" font-family="Times,serif" font-size="14.00" fill="#000000">PacketT</text>
<polygon fill="none" stroke="#000000" points="159.5,-175 159.5,-196 245.5,-196 245.5,-175 159.5,-175"/>
<text text-anchor="start" x="174" y="-181.8" font-family="Times,serif" font-size="14.00" fill="#000000">packets</text>
<polygon fill="none" stroke="#000000" points="24.5,-154 24.5,-175 245.5,-175 245.5,-154 24.5,-154"/>
<text text-anchor="start" x="50.5" y="-160.8" font-family="Times,serif" font-size="14.00" fill="#000000">repeat to end of stream</text>
</g>
<!-- header_t__seq -->
<g id="node2" class="node">
<title>header_t__seq</title>
<polygon fill="#e0ffe0" stroke="transparent" points="297.5,-396 297.5,-417 328.5,-417 328.5,-396 297.5,-396"/>
<polygon fill="none" stroke="#000000" points="297.5,-396 297.5,-417 328.5,-417 328.5,-396 297.5,-396"/>
<text text-anchor="start" x="300.5" y="-402.8" font-family="Times,serif" font-size="14.00" fill="#000000">pos</text>
<polygon fill="#e0ffe0" stroke="transparent" points="328.5,-396 328.5,-417 362.5,-417 362.5,-396 328.5,-396"/>
<polygon fill="none" stroke="#000000" points="328.5,-396 328.5,-417 362.5,-417 362.5,-396 328.5,-396"/>
<text text-anchor="start" x="331.5" y="-402.8" font-family="Times,serif" font-size="14.00" fill="#000000">size</text>
<polygon fill="#e0ffe0" stroke="transparent" points="362.5,-396 362.5,-417 506.5,-417 506.5,-396 362.5,-396"/>
<polygon fill="none" stroke="#000000" points="362.5,-396 362.5,-417 506.5,-417 506.5,-396 362.5,-396"/>
<text text-anchor="start" x="418.5" y="-402.8" font-family="Times,serif" font-size="14.00" fill="#000000">type</text>
<polygon fill="#e0ffe0" stroke="transparent" points="506.5,-396 506.5,-417 588.5,-417 588.5,-396 506.5,-396"/>
<polygon fill="none" stroke="#000000" points="506.5,-396 506.5,-417 588.5,-417 588.5,-396 506.5,-396"/>
<text text-anchor="start" x="540.5" y="-402.8" font-family="Times,serif" font-size="14.00" fill="#000000">id</text>
<polygon fill="none" stroke="#000000" points="297.5,-375 297.5,-396 328.5,-396 328.5,-375 297.5,-375"/>
<text text-anchor="start" x="308" y="-381.8" font-family="Times,serif" font-size="14.00" fill="#000000">0</text>
<polygon fill="none" stroke="#000000" points="328.5,-375 328.5,-396 362.5,-396 362.5,-375 328.5,-375"/>
<text text-anchor="start" x="336" y="-381.8" font-family="Times,serif" font-size="14.00" fill="#000000">12</text>
<polygon fill="none" stroke="#000000" points="362.5,-375 362.5,-396 506.5,-396 506.5,-375 362.5,-375"/>
<polygon fill="none" stroke="#000000" points="506.5,-375 506.5,-396 588.5,-396 588.5,-375 506.5,-375"/>
<text text-anchor="start" x="517" y="-381.8" font-family="Times,serif" font-size="14.00" fill="#000000">shebang</text>
<polygon fill="none" stroke="#000000" points="297.5,-354 297.5,-375 328.5,-375 328.5,-354 297.5,-354"/>
<text text-anchor="start" x="303.5" y="-360.8" font-family="Times,serif" font-size="14.00" fill="#000000">12</text>
<polygon fill="none" stroke="#000000" points="328.5,-354 328.5,-375 362.5,-375 362.5,-354 328.5,-354"/>
<text text-anchor="start" x="340.5" y="-360.8" font-family="Times,serif" font-size="14.00" fill="#000000">1</text>
<polygon fill="none" stroke="#000000" points="362.5,-354 362.5,-375 506.5,-375 506.5,-354 362.5,-354"/>
<polygon fill="none" stroke="#000000" points="506.5,-354 506.5,-375 588.5,-375 588.5,-354 506.5,-354"/>
<text text-anchor="start" x="526.5" y="-360.8" font-family="Times,serif" font-size="14.00" fill="#000000">space</text>
<polygon fill="none" stroke="#000000" points="297.5,-333 297.5,-354 328.5,-354 328.5,-333 297.5,-333"/>
<text text-anchor="start" x="303.5" y="-339.8" font-family="Times,serif" font-size="14.00" fill="#000000">13</text>
<polygon fill="none" stroke="#000000" points="328.5,-333 328.5,-354 362.5,-354 362.5,-333 328.5,-333"/>
<text text-anchor="start" x="338.5" y="-339.8" font-family="Times,serif" font-size="14.00" fill="#000000">...</text>
<polygon fill="none" stroke="#000000" points="362.5,-333 362.5,-354 506.5,-354 506.5,-333 362.5,-333"/>
<text text-anchor="start" x="365.5" y="-339.8" font-family="Times,serif" font-size="14.00" fill="#000000">str(term=47, ascii)</text>
<polygon fill="none" stroke="#000000" points="506.5,-333 506.5,-354 588.5,-354 588.5,-333 506.5,-333"/>
<text text-anchor="start" x="540.5" y="-339.8" font-family="Times,serif" font-size="14.00" fill="#000000">ip</text>
<polygon fill="none" stroke="#000000" points="297.5,-312 297.5,-333 328.5,-333 328.5,-312 297.5,-312"/>
<text text-anchor="start" x="306" y="-318.8" font-family="Times,serif" font-size="14.00" fill="#000000">...</text>
<polygon fill="none" stroke="#000000" points="328.5,-312 328.5,-333 362.5,-333 362.5,-312 328.5,-312"/>
<text text-anchor="start" x="338.5" y="-318.8" font-family="Times,serif" font-size="14.00" fill="#000000">...</text>
<polygon fill="none" stroke="#000000" points="362.5,-312 362.5,-333 506.5,-333 506.5,-312 362.5,-312"/>
<text text-anchor="start" x="365.5" y="-318.8" font-family="Times,serif" font-size="14.00" fill="#000000">str(term=10, ascii)</text>
<polygon fill="none" stroke="#000000" points="506.5,-312 506.5,-333 588.5,-333 588.5,-312 506.5,-312"/>
<text text-anchor="start" x="532" y="-318.8" font-family="Times,serif" font-size="14.00" fill="#000000">port</text>
<polygon fill="none" stroke="#000000" points="297.5,-291 297.5,-312 328.5,-312 328.5,-291 297.5,-291"/>
<text text-anchor="start" x="306" y="-297.8" font-family="Times,serif" font-size="14.00" fill="#000000">...</text>
<polygon fill="none" stroke="#000000" points="328.5,-291 328.5,-312 362.5,-312 362.5,-291 328.5,-291"/>
<text text-anchor="start" x="340.5" y="-297.8" font-family="Times,serif" font-size="14.00" fill="#000000">4</text>
<polygon fill="none" stroke="#000000" points="362.5,-291 362.5,-312 506.5,-312 506.5,-291 362.5,-291"/>
<text text-anchor="start" x="416.5" y="-297.8" font-family="Times,serif" font-size="14.00" fill="#000000">u4be</text>
<polygon fill="none" stroke="#000000" points="506.5,-291 506.5,-312 588.5,-312 588.5,-291 506.5,-291"/>
<text text-anchor="start" x="514" y="-297.8" font-family="Times,serif" font-size="14.00" fill="#000000">start_sec</text>
<polygon fill="none" stroke="#000000" points="297.5,-270 297.5,-291 328.5,-291 328.5,-270 297.5,-270"/>
<text text-anchor="start" x="306" y="-276.8" font-family="Times,serif" font-size="14.00" fill="#000000">...</text>
<polygon fill="none" stroke="#000000" points="328.5,-270 328.5,-291 362.5,-291 362.5,-270 328.5,-270"/>
<text text-anchor="start" x="340.5" y="-276.8" font-family="Times,serif" font-size="14.00" fill="#000000">4</text>
<polygon fill="none" stroke="#000000" points="362.5,-270 362.5,-291 506.5,-291 506.5,-270 362.5,-270"/>
<text text-anchor="start" x="416.5" y="-276.8" font-family="Times,serif" font-size="14.00" fill="#000000">u4be</text>
<polygon fill="none" stroke="#000000" points="506.5,-270 506.5,-291 588.5,-291 588.5,-270 506.5,-270"/>
<text text-anchor="start" x="509.5" y="-276.8" font-family="Times,serif" font-size="14.00" fill="#000000">start_usec</text>
<polygon fill="none" stroke="#000000" points="297.5,-249 297.5,-270 328.5,-270 328.5,-249 297.5,-249"/>
<text text-anchor="start" x="306" y="-255.8" font-family="Times,serif" font-size="14.00" fill="#000000">...</text>
<polygon fill="none" stroke="#000000" points="328.5,-249 328.5,-270 362.5,-270 362.5,-249 328.5,-249"/>
<text text-anchor="start" x="340.5" y="-255.8" font-family="Times,serif" font-size="14.00" fill="#000000">4</text>
<polygon fill="none" stroke="#000000" points="362.5,-249 362.5,-270 506.5,-270 506.5,-249 362.5,-249"/>
<text text-anchor="start" x="416.5" y="-255.8" font-family="Times,serif" font-size="14.00" fill="#000000">u4be</text>
<polygon fill="none" stroke="#000000" points="506.5,-249 506.5,-270 588.5,-270 588.5,-249 506.5,-249"/>
<text text-anchor="start" x="536" y="-255.8" font-family="Times,serif" font-size="14.00" fill="#000000">ip2</text>
<polygon fill="none" stroke="#000000" points="297.5,-228 297.5,-249 328.5,-249 328.5,-228 297.5,-228"/>
<text text-anchor="start" x="306" y="-234.8" font-family="Times,serif" font-size="14.00" fill="#000000">...</text>
<polygon fill="none" stroke="#000000" points="328.5,-228 328.5,-249 362.5,-249 362.5,-228 328.5,-228"/>
<text text-anchor="start" x="340.5" y="-234.8" font-family="Times,serif" font-size="14.00" fill="#000000">2</text>
<polygon fill="none" stroke="#000000" points="362.5,-228 362.5,-249 506.5,-249 506.5,-228 362.5,-228"/>
<text text-anchor="start" x="416.5" y="-234.8" font-family="Times,serif" font-size="14.00" fill="#000000">u2be</text>
<polygon fill="none" stroke="#000000" points="506.5,-228 506.5,-249 588.5,-249 588.5,-228 506.5,-228"/>
<text text-anchor="start" x="527.5" y="-234.8" font-family="Times,serif" font-size="14.00" fill="#000000">port2</text>
<polygon fill="none" stroke="#000000" points="297.5,-207 297.5,-228 328.5,-228 328.5,-207 297.5,-207"/>
<text text-anchor="start" x="306" y="-213.8" font-family="Times,serif" font-size="14.00" fill="#000000">...</text>
<polygon fill="none" stroke="#000000" points="328.5,-207 328.5,-228 362.5,-228 362.5,-207 328.5,-207"/>
<text text-anchor="start" x="340.5" y="-213.8" font-family="Times,serif" font-size="14.00" fill="#000000">2</text>
<polygon fill="none" stroke="#000000" points="362.5,-207 362.5,-228 506.5,-228 506.5,-207 362.5,-207"/>
<text text-anchor="start" x="416.5" y="-213.8" font-family="Times,serif" font-size="14.00" fill="#000000">u2be</text>
<polygon fill="none" stroke="#000000" points="506.5,-207 506.5,-228 588.5,-228 588.5,-207 506.5,-207"/>
<text text-anchor="start" x="518.5" y="-213.8" font-family="Times,serif" font-size="14.00" fill="#000000">padding</text>
</g>
<!-- rtpdump__seq&#45;&gt;header_t__seq -->
<g id="edge1" class="edge">
<title>rtpdump__seq:file_header_type&#45;&gt;header_t__seq</title>
<path fill="none" stroke="#000000" stroke-width="2" d="M245.5,-207C256.8157,-207 268.1128,-208.3658 279.2484,-210.7859"/>
<polygon fill="#000000" stroke="#000000" stroke-width="2" points="278.443,-214.192 288.989,-213.1762 280.1113,-207.3937 278.443,-214.192"/>
</g>
<!-- packet_t__seq -->
<g id="node3" class="node">
<title>packet_t__seq</title>
<polygon fill="#e0ffe0" stroke="transparent" points="303.5,-112 303.5,-133 334.5,-133 334.5,-112 303.5,-112"/>
<polygon fill="none" stroke="#000000" points="303.5,-112 303.5,-133 334.5,-133 334.5,-112 303.5,-112"/>
<text text-anchor="start" x="306.5" y="-118.8" font-family="Times,serif" font-size="14.00" fill="#000000">pos</text>
<polygon fill="#e0ffe0" stroke="transparent" points="334.5,-112 334.5,-133 404.5,-133 404.5,-112 334.5,-112"/>
<polygon fill="none" stroke="#000000" points="334.5,-112 334.5,-133 404.5,-133 404.5,-112 334.5,-112"/>
<text text-anchor="start" x="355.5" y="-118.8" font-family="Times,serif" font-size="14.00" fill="#000000">size</text>
<polygon fill="#e0ffe0" stroke="transparent" points="404.5,-112 404.5,-133 485.5,-133 485.5,-112 404.5,-112"/>
<polygon fill="none" stroke="#000000" points="404.5,-112 404.5,-133 485.5,-133 485.5,-112 404.5,-112"/>
<text text-anchor="start" x="429" y="-118.8" font-family="Times,serif" font-size="14.00" fill="#000000">type</text>
<polygon fill="#e0ffe0" stroke="transparent" points="485.5,-112 485.5,-133 581.5,-133 581.5,-112 485.5,-112"/>
<polygon fill="none" stroke="#000000" points="485.5,-112 485.5,-133 581.5,-133 581.5,-112 485.5,-112"/>
<text text-anchor="start" x="526.5" y="-118.8" font-family="Times,serif" font-size="14.00" fill="#000000">id</text>
<polygon fill="none" stroke="#000000" points="303.5,-91 303.5,-112 334.5,-112 334.5,-91 303.5,-91"/>
<text text-anchor="start" x="314" y="-97.8" font-family="Times,serif" font-size="14.00" fill="#000000">0</text>
<polygon fill="none" stroke="#000000" points="334.5,-91 334.5,-112 404.5,-112 404.5,-91 334.5,-91"/>
<text text-anchor="start" x="364.5" y="-97.8" font-family="Times,serif" font-size="14.00" fill="#000000">2</text>
<polygon fill="none" stroke="#000000" points="404.5,-91 404.5,-112 485.5,-112 485.5,-91 404.5,-91"/>
<text text-anchor="start" x="427" y="-97.8" font-family="Times,serif" font-size="14.00" fill="#000000">u2be</text>
<polygon fill="none" stroke="#000000" points="485.5,-91 485.5,-112 581.5,-112 581.5,-91 485.5,-91"/>
<text text-anchor="start" x="510.5" y="-97.8" font-family="Times,serif" font-size="14.00" fill="#000000">length</text>
<polygon fill="none" stroke="#000000" points="303.5,-70 303.5,-91 334.5,-91 334.5,-70 303.5,-70"/>
<text text-anchor="start" x="314" y="-76.8" font-family="Times,serif" font-size="14.00" fill="#000000">2</text>
<polygon fill="none" stroke="#000000" points="334.5,-70 334.5,-91 404.5,-91 404.5,-70 334.5,-70"/>
<text text-anchor="start" x="364.5" y="-76.8" font-family="Times,serif" font-size="14.00" fill="#000000">2</text>
<polygon fill="none" stroke="#000000" points="404.5,-70 404.5,-91 485.5,-91 485.5,-70 404.5,-70"/>
<text text-anchor="start" x="427" y="-76.8" font-family="Times,serif" font-size="14.00" fill="#000000">u2be</text>
<polygon fill="none" stroke="#000000" points="485.5,-70 485.5,-91 581.5,-91 581.5,-70 485.5,-70"/>
<text text-anchor="start" x="501.5" y="-76.8" font-family="Times,serif" font-size="14.00" fill="#000000">len_body</text>
<polygon fill="none" stroke="#000000" points="303.5,-49 303.5,-70 334.5,-70 334.5,-49 303.5,-49"/>
<text text-anchor="start" x="314" y="-55.8" font-family="Times,serif" font-size="14.00" fill="#000000">4</text>
<polygon fill="none" stroke="#000000" points="334.5,-49 334.5,-70 404.5,-70 404.5,-49 334.5,-49"/>
<text text-anchor="start" x="364.5" y="-55.8" font-family="Times,serif" font-size="14.00" fill="#000000">4</text>
<polygon fill="none" stroke="#000000" points="404.5,-49 404.5,-70 485.5,-70 485.5,-49 404.5,-49"/>
<text text-anchor="start" x="427" y="-55.8" font-family="Times,serif" font-size="14.00" fill="#000000">u4be</text>
<polygon fill="none" stroke="#000000" points="485.5,-49 485.5,-70 581.5,-70 581.5,-49 485.5,-49"/>
<text text-anchor="start" x="488.5" y="-55.8" font-family="Times,serif" font-size="14.00" fill="#000000">packet_usec</text>
<polygon fill="none" stroke="#000000" points="303.5,-28 303.5,-49 334.5,-49 334.5,-28 303.5,-28"/>
<text text-anchor="start" x="314" y="-34.8" font-family="Times,serif" font-size="14.00" fill="#000000">8</text>
<polygon fill="none" stroke="#000000" points="334.5,-28 334.5,-49 404.5,-49 404.5,-28 334.5,-28"/>
<text text-anchor="start" x="337.5" y="-34.8" font-family="Times,serif" font-size="14.00" fill="#000000">len_body</text>
<polygon fill="none" stroke="#000000" points="404.5,-28 404.5,-49 485.5,-49 485.5,-28 404.5,-28"/>
<text text-anchor="start" x="407.5" y="-34.8" font-family="Times,serif" font-size="14.00" fill="#000000">RtpPacket</text>
<polygon fill="none" stroke="#000000" points="485.5,-28 485.5,-49 581.5,-49 581.5,-28 485.5,-28"/>
<text text-anchor="start" x="516" y="-34.8" font-family="Times,serif" font-size="14.00" fill="#000000">body</text>
</g>
<!-- rtpdump__seq&#45;&gt;packet_t__seq -->
<g id="edge2" class="edge">
<title>rtpdump__seq:packets_type&#45;&gt;packet_t__seq</title>
<path fill="none" stroke="#000000" stroke-width="2" d="M245.5,-185C288.4622,-185 331.2334,-165.4173 365.8897,-143.247"/>
<polygon fill="#000000" stroke="#000000" stroke-width="2" points="368.0928,-145.9871 374.521,-137.5651 364.2438,-140.1402 368.0928,-145.9871"/>
</g>
<!-- packet_t__seq&#45;&gt;packet_t__seq -->
<g id="edge3" class="edge">
<title>packet_t__seq:len_body_type&#45;&gt;packet_t__seq:body_size</title>
<path fill="none" stroke="#404040" d="M555.4212,-91.0823C594.9247,-117.3979 578.1094,-155.5 451.5,-155.5 330.9023,-155.5 309.9197,-92.274 342.3383,-56.2771"/>
<polygon fill="#404040" stroke="#404040" points="345.1522,-58.4364 350.05,-49.0416 340.3625,-53.3315 345.1522,-58.4364"/>
</g>
<!-- rtp_packet__seq -->
<g id="node4" class="node">
<title>rtp_packet__seq</title>
<text text-anchor="middle" x="699" y="-34.3" font-family="Times,serif" font-size="14.00" fill="#000000">rtp_packet__seq</text>
</g>
<!-- packet_t__seq&#45;&gt;rtp_packet__seq -->
<g id="edge4" class="edge">
<title>packet_t__seq:body_type&#45;&gt;rtp_packet__seq</title>
<path fill="none" stroke="#000000" stroke-width="2" d="M581.5,-38C594.5046,-38 608.3187,-38 621.7328,-38"/>
<polygon fill="#000000" stroke="#000000" stroke-width="2" points="621.8927,-41.5001 631.8927,-38 621.8926,-34.5001 621.8927,-41.5001"/>
</g>
</g>
</svg>
