<?xml version="1.0" encoding="UTF-8" standalone="no"?>
<!DOCTYPE svg PUBLIC "-//W3C//DTD SVG 1.1//EN"
 "http://www.w3.org/Graphics/SVG/1.1/DTD/svg11.dtd">
<!-- Generated by graphviz version 2.38.0 (20140413.2041)
 -->
<!-- Title: %3 Pages: 1 -->
<svg width="1660pt" height="378pt"
 viewBox="0.00 0.00 1660.00 377.98" xmlns="http://www.w3.org/2000/svg" xmlns:xlink="http://www.w3.org/1999/xlink">
<g id="graph0" class="graph" transform="scale(1 1) rotate(0) translate(4 373.982)">
<title>%3</title>
<polygon fill="white" stroke="none" points="-4,4 -4,-373.982 1656,-373.982 1656,4 -4,4"/>
<g id="clust1" class="cluster"><title>cluster__fallout_dat</title>
<polygon fill="none" stroke="black" stroke-dasharray="1,5" points="120,-12.9824 120,-361.982 1644,-361.982 1644,-12.9824 120,-12.9824"/>
<text text-anchor="middle" x="882" y="-346.782" font-family="Times,serif" font-size="14.00">FalloutDat</text>
</g>
<g id="clust2" class="cluster"><title>cluster__pstr</title>
<polygon fill="none" stroke="black" stroke-dasharray="1,5" points="1215,-201.982 1215,-330.982 1427,-330.982 1427,-201.982 1215,-201.982"/>
<text text-anchor="middle" x="1321" y="-315.782" font-family="Times,serif" font-size="14.00">FalloutDat::Pstr</text>
</g>
<g id="clust3" class="cluster"><title>cluster__folder</title>
<polygon fill="none" stroke="black" stroke-dasharray="1,5" points="392,-46.9824 392,-241.982 614,-241.982 614,-46.9824 392,-46.9824"/>
<text text-anchor="middle" x="503" y="-226.782" font-family="Times,serif" font-size="14.00">FalloutDat::Folder</text>
</g>
<g id="clust4" class="cluster"><title>cluster__file</title>
<polygon fill="none" stroke="black" stroke-dasharray="1,5" points="634,-20.9824 634,-193.982 1636,-193.982 1636,-20.9824 634,-20.9824"/>
<text text-anchor="middle" x="1135" y="-178.782" font-family="Times,serif" font-size="14.00">FalloutDat::File</text>
</g>
<!-- fallout_dat__seq -->
<g id="node1" class="node"><title>fallout_dat__seq</title>
<polygon fill="#e0ffe0" stroke="none" points="136,-286.982 136,-307.982 167,-307.982 167,-286.982 136,-286.982"/>
<polygon fill="none" stroke="black" points="136,-286.982 136,-307.982 167,-307.982 167,-286.982 136,-286.982"/>
<text text-anchor="start" x="139" y="-293.782" font-family="Times,serif" font-size="14.00">pos</text>
<polygon fill="#e0ffe0" stroke="none" points="167,-286.982 167,-307.982 201,-307.982 201,-286.982 167,-286.982"/>
<polygon fill="none" stroke="black" points="167,-286.982 167,-307.982 201,-307.982 201,-286.982 167,-286.982"/>
<text text-anchor="start" x="170" y="-293.782" font-family="Times,serif" font-size="14.00">size</text>
<polygon fill="#e0ffe0" stroke="none" points="201,-286.982 201,-307.982 253,-307.982 253,-286.982 201,-286.982"/>
<polygon fill="none" stroke="black" points="201,-286.982 201,-307.982 253,-307.982 253,-286.982 201,-286.982"/>
<text text-anchor="start" x="211" y="-293.782" font-family="Times,serif" font-size="14.00">type</text>
<polygon fill="#e0ffe0" stroke="none" points="253,-286.982 253,-307.982 356,-307.982 356,-286.982 253,-286.982"/>
<polygon fill="none" stroke="black" points="253,-286.982 253,-307.982 356,-307.982 356,-286.982 253,-286.982"/>
<text text-anchor="start" x="297.5" y="-293.782" font-family="Times,serif" font-size="14.00">id</text>
<polygon fill="none" stroke="black" points="136,-265.982 136,-286.982 167,-286.982 167,-265.982 136,-265.982"/>
<text text-anchor="start" x="146.5" y="-272.782" font-family="Times,serif" font-size="14.00">0</text>
<polygon fill="none" stroke="black" points="167,-265.982 167,-286.982 201,-286.982 201,-265.982 167,-265.982"/>
<text text-anchor="start" x="179" y="-272.782" font-family="Times,serif" font-size="14.00">4</text>
<polygon fill="none" stroke="black" points="201,-265.982 201,-286.982 253,-286.982 253,-265.982 201,-265.982"/>
<text text-anchor="start" x="209" y="-272.782" font-family="Times,serif" font-size="14.00">u4be</text>
<polygon fill="none" stroke="black" points="253,-265.982 253,-286.982 356,-286.982 356,-265.982 253,-265.982"/>
<text text-anchor="start" x="259" y="-272.782" font-family="Times,serif" font-size="14.00">folder_count</text>
<polygon fill="none" stroke="black" points="136,-244.982 136,-265.982 167,-265.982 167,-244.982 136,-244.982"/>
<text text-anchor="start" x="146.5" y="-251.782" font-family="Times,serif" font-size="14.00">4</text>
<polygon fill="none" stroke="black" points="167,-244.982 167,-265.982 201,-265.982 201,-244.982 167,-244.982"/>
<text text-anchor="start" x="179" y="-251.782" font-family="Times,serif" font-size="14.00">4</text>
<polygon fill="none" stroke="black" points="201,-244.982 201,-265.982 253,-265.982 253,-244.982 201,-244.982"/>
<text text-anchor="start" x="209" y="-251.782" font-family="Times,serif" font-size="14.00">u4be</text>
<polygon fill="none" stroke="black" points="253,-244.982 253,-265.982 356,-265.982 356,-244.982 253,-244.982"/>
<text text-anchor="start" x="267" y="-251.782" font-family="Times,serif" font-size="14.00">unknown1</text>
<polygon fill="none" stroke="black" points="136,-223.982 136,-244.982 167,-244.982 167,-223.982 136,-223.982"/>
<text text-anchor="start" x="146.5" y="-230.782" font-family="Times,serif" font-size="14.00">8</text>
<polygon fill="none" stroke="black" points="167,-223.982 167,-244.982 201,-244.982 201,-223.982 167,-223.982"/>
<text text-anchor="start" x="179" y="-230.782" font-family="Times,serif" font-size="14.00">4</text>
<polygon fill="none" stroke="black" points="201,-223.982 201,-244.982 253,-244.982 253,-223.982 201,-223.982"/>
<text text-anchor="start" x="209" y="-230.782" font-family="Times,serif" font-size="14.00">u4be</text>
<polygon fill="none" stroke="black" points="253,-223.982 253,-244.982 356,-244.982 356,-223.982 253,-223.982"/>
<text text-anchor="start" x="267" y="-230.782" font-family="Times,serif" font-size="14.00">unknown2</text>
<polygon fill="none" stroke="black" points="136,-202.982 136,-223.982 167,-223.982 167,-202.982 136,-202.982"/>
<text text-anchor="start" x="142" y="-209.782" font-family="Times,serif" font-size="14.00">12</text>
<polygon fill="none" stroke="black" points="167,-202.982 167,-223.982 201,-223.982 201,-202.982 167,-202.982"/>
<text text-anchor="start" x="179" y="-209.782" font-family="Times,serif" font-size="14.00">4</text>
<polygon fill="none" stroke="black" points="201,-202.982 201,-223.982 253,-223.982 253,-202.982 201,-202.982"/>
<text text-anchor="start" x="209" y="-209.782" font-family="Times,serif" font-size="14.00">u4be</text>
<polygon fill="none" stroke="black" points="253,-202.982 253,-223.982 356,-223.982 356,-202.982 253,-202.982"/>
<text text-anchor="start" x="266" y="-209.782" font-family="Times,serif" font-size="14.00">timestamp</text>
<polygon fill="none" stroke="black" points="136,-181.982 136,-202.982 167,-202.982 167,-181.982 136,-181.982"/>
<text text-anchor="start" x="142" y="-188.782" font-family="Times,serif" font-size="14.00">16</text>
<polygon fill="none" stroke="black" points="167,-181.982 167,-202.982 201,-202.982 201,-181.982 167,-181.982"/>
<text text-anchor="start" x="177" y="-188.782" font-family="Times,serif" font-size="14.00">...</text>
<polygon fill="none" stroke="black" points="201,-181.982 201,-202.982 253,-202.982 253,-181.982 201,-181.982"/>
<text text-anchor="start" x="212" y="-188.782" font-family="Times,serif" font-size="14.00">Pstr</text>
<polygon fill="none" stroke="black" points="253,-181.982 253,-202.982 356,-202.982 356,-181.982 253,-181.982"/>
<text text-anchor="start" x="256" y="-188.782" font-family="Times,serif" font-size="14.00">folder_names</text>
<polygon fill="none" stroke="black" points="136,-160.982 136,-181.982 356,-181.982 356,-160.982 136,-160.982"/>
<text text-anchor="start" x="153" y="-167.782" font-family="Times,serif" font-size="14.00">repeat folder_count times</text>
<polygon fill="none" stroke="black" points="136,-139.982 136,-160.982 167,-160.982 167,-139.982 136,-139.982"/>
<text text-anchor="start" x="144.5" y="-146.782" font-family="Times,serif" font-size="14.00">...</text>
<polygon fill="none" stroke="black" points="167,-139.982 167,-160.982 201,-160.982 201,-139.982 167,-139.982"/>
<text text-anchor="start" x="177" y="-146.782" font-family="Times,serif" font-size="14.00">...</text>
<polygon fill="none" stroke="black" points="201,-139.982 201,-160.982 253,-160.982 253,-139.982 201,-139.982"/>
<text text-anchor="start" x="204" y="-146.782" font-family="Times,serif" font-size="14.00">Folder</text>
<polygon fill="none" stroke="black" points="253,-139.982 253,-160.982 356,-160.982 356,-139.982 253,-139.982"/>
<text text-anchor="start" x="279.5" y="-146.782" font-family="Times,serif" font-size="14.00">folders</text>
<polygon fill="none" stroke="black" points="136,-118.982 136,-139.982 356,-139.982 356,-118.982 136,-118.982"/>
<text text-anchor="start" x="153" y="-125.782" font-family="Times,serif" font-size="14.00">repeat folder_count times</text>
</g>
<!-- fallout_dat__seq&#45;&gt;fallout_dat__seq -->
<g id="edge2" class="edge"><title>fallout_dat__seq:folder_count_type&#45;&gt;fallout_dat__seq:folder_names__repeat</title>
<path fill="none" stroke="#404040" d="M252.772,-280.531C153.654,-284.192 0,-275.447 0,-223.982 0,-186.433 60.153,-171.625 125.813,-167.784"/>
<polygon fill="#404040" stroke="#404040" points="126.148,-171.272 135.961,-167.278 125.799,-164.281 126.148,-171.272"/>
</g>
<!-- fallout_dat__seq&#45;&gt;fallout_dat__seq -->
<g id="edge4" class="edge"><title>fallout_dat__seq:folder_count_type&#45;&gt;fallout_dat__seq:folders__repeat</title>
<path fill="none" stroke="#404040" d="M252.772,-280.428C153.654,-283.586 0,-271.879 0,-202.982 0,-152.715 60.153,-132.891 125.813,-127.073"/>
<polygon fill="#404040" stroke="#404040" points="126.262,-130.548 135.961,-126.285 125.721,-123.569 126.262,-130.548"/>
</g>
<!-- pstr__seq -->
<g id="node2" class="node"><title>pstr__seq</title>
<polygon fill="#e0ffe0" stroke="none" points="1231,-255.982 1231,-276.982 1262,-276.982 1262,-255.982 1231,-255.982"/>
<polygon fill="none" stroke="black" points="1231,-255.982 1231,-276.982 1262,-276.982 1262,-255.982 1231,-255.982"/>
<text text-anchor="start" x="1234" y="-262.782" font-family="Times,serif" font-size="14.00">pos</text>
<polygon fill="#e0ffe0" stroke="none" points="1262,-255.982 1262,-276.982 1296,-276.982 1296,-255.982 1262,-255.982"/>
<polygon fill="none" stroke="black" points="1262,-255.982 1262,-276.982 1296,-276.982 1296,-255.982 1262,-255.982"/>
<text text-anchor="start" x="1265" y="-262.782" font-family="Times,serif" font-size="14.00">size</text>
<polygon fill="#e0ffe0" stroke="none" points="1296,-255.982 1296,-276.982 1377,-276.982 1377,-255.982 1296,-255.982"/>
<polygon fill="none" stroke="black" points="1296,-255.982 1296,-276.982 1377,-276.982 1377,-255.982 1296,-255.982"/>
<text text-anchor="start" x="1320.5" y="-262.782" font-family="Times,serif" font-size="14.00">type</text>
<polygon fill="#e0ffe0" stroke="none" points="1377,-255.982 1377,-276.982 1411,-276.982 1411,-255.982 1377,-255.982"/>
<polygon fill="none" stroke="black" points="1377,-255.982 1377,-276.982 1411,-276.982 1411,-255.982 1377,-255.982"/>
<text text-anchor="start" x="1387" y="-262.782" font-family="Times,serif" font-size="14.00">id</text>
<polygon fill="none" stroke="black" points="1231,-234.982 1231,-255.982 1262,-255.982 1262,-234.982 1231,-234.982"/>
<text text-anchor="start" x="1241.5" y="-241.782" font-family="Times,serif" font-size="14.00">0</text>
<polygon fill="none" stroke="black" points="1262,-234.982 1262,-255.982 1296,-255.982 1296,-234.982 1262,-234.982"/>
<text text-anchor="start" x="1274" y="-241.782" font-family="Times,serif" font-size="14.00">1</text>
<polygon fill="none" stroke="black" points="1296,-234.982 1296,-255.982 1377,-255.982 1377,-234.982 1296,-234.982"/>
<text text-anchor="start" x="1327" y="-241.782" font-family="Times,serif" font-size="14.00">u1</text>
<polygon fill="none" stroke="black" points="1377,-234.982 1377,-255.982 1411,-255.982 1411,-234.982 1377,-234.982"/>
<text text-anchor="start" x="1380" y="-241.782" font-family="Times,serif" font-size="14.00">size</text>
<polygon fill="none" stroke="black" points="1231,-213.982 1231,-234.982 1262,-234.982 1262,-213.982 1231,-213.982"/>
<text text-anchor="start" x="1241.5" y="-220.782" font-family="Times,serif" font-size="14.00">1</text>
<polygon fill="none" stroke="black" points="1262,-213.982 1262,-234.982 1296,-234.982 1296,-213.982 1262,-213.982"/>
<text text-anchor="start" x="1265" y="-220.782" font-family="Times,serif" font-size="14.00">size</text>
<polygon fill="none" stroke="black" points="1296,-213.982 1296,-234.982 1377,-234.982 1377,-213.982 1296,-213.982"/>
<text text-anchor="start" x="1299" y="-220.782" font-family="Times,serif" font-size="14.00">str(ASCII)</text>
<polygon fill="none" stroke="black" points="1377,-213.982 1377,-234.982 1411,-234.982 1411,-213.982 1377,-213.982"/>
<text text-anchor="start" x="1383.5" y="-220.782" font-family="Times,serif" font-size="14.00">str</text>
</g>
<!-- fallout_dat__seq&#45;&gt;pstr__seq -->
<g id="edge1" class="edge"><title>fallout_dat__seq:folder_names_type&#45;&gt;pstr__seq</title>
<path fill="none" stroke="black" stroke-width="2" d="M357,-191.982C385.6,-191.982 366.872,-232.324 392,-245.982 657.308,-390.185 1031.56,-323.236 1213.02,-277.023"/>
<polygon fill="black" stroke="black" stroke-width="2" points="1214.03,-280.378 1222.84,-274.494 1212.29,-273.599 1214.03,-280.378"/>
</g>
<!-- folder__seq -->
<g id="node3" class="node"><title>folder__seq</title>
<polygon fill="#e0ffe0" stroke="none" points="408,-184.982 408,-205.982 439,-205.982 439,-184.982 408,-184.982"/>
<polygon fill="none" stroke="black" points="408,-184.982 408,-205.982 439,-205.982 439,-184.982 408,-184.982"/>
<text text-anchor="start" x="411" y="-191.782" font-family="Times,serif" font-size="14.00">pos</text>
<polygon fill="#e0ffe0" stroke="none" points="439,-184.982 439,-205.982 473,-205.982 473,-184.982 439,-184.982"/>
<polygon fill="none" stroke="black" points="439,-184.982 439,-205.982 473,-205.982 473,-184.982 439,-184.982"/>
<text text-anchor="start" x="442" y="-191.782" font-family="Times,serif" font-size="14.00">size</text>
<polygon fill="#e0ffe0" stroke="none" points="473,-184.982 473,-205.982 515,-205.982 515,-184.982 473,-184.982"/>
<polygon fill="none" stroke="black" points="473,-184.982 473,-205.982 515,-205.982 515,-184.982 473,-184.982"/>
<text text-anchor="start" x="478" y="-191.782" font-family="Times,serif" font-size="14.00">type</text>
<polygon fill="#e0ffe0" stroke="none" points="515,-184.982 515,-205.982 598,-205.982 598,-184.982 515,-184.982"/>
<polygon fill="none" stroke="black" points="515,-184.982 515,-205.982 598,-205.982 598,-184.982 515,-184.982"/>
<text text-anchor="start" x="549.5" y="-191.782" font-family="Times,serif" font-size="14.00">id</text>
<polygon fill="none" stroke="black" points="408,-163.982 408,-184.982 439,-184.982 439,-163.982 408,-163.982"/>
<text text-anchor="start" x="418.5" y="-170.782" font-family="Times,serif" font-size="14.00">0</text>
<polygon fill="none" stroke="black" points="439,-163.982 439,-184.982 473,-184.982 473,-163.982 439,-163.982"/>
<text text-anchor="start" x="451" y="-170.782" font-family="Times,serif" font-size="14.00">4</text>
<polygon fill="none" stroke="black" points="473,-163.982 473,-184.982 515,-184.982 515,-163.982 473,-163.982"/>
<text text-anchor="start" x="476" y="-170.782" font-family="Times,serif" font-size="14.00">u4be</text>
<polygon fill="none" stroke="black" points="515,-163.982 515,-184.982 598,-184.982 598,-163.982 515,-163.982"/>
<text text-anchor="start" x="521" y="-170.782" font-family="Times,serif" font-size="14.00">file_count</text>
<polygon fill="none" stroke="black" points="408,-142.982 408,-163.982 439,-163.982 439,-142.982 408,-142.982"/>
<text text-anchor="start" x="418.5" y="-149.782" font-family="Times,serif" font-size="14.00">4</text>
<polygon fill="none" stroke="black" points="439,-142.982 439,-163.982 473,-163.982 473,-142.982 439,-142.982"/>
<text text-anchor="start" x="451" y="-149.782" font-family="Times,serif" font-size="14.00">4</text>
<polygon fill="none" stroke="black" points="473,-142.982 473,-163.982 515,-163.982 515,-142.982 473,-142.982"/>
<text text-anchor="start" x="476" y="-149.782" font-family="Times,serif" font-size="14.00">u4be</text>
<polygon fill="none" stroke="black" points="515,-142.982 515,-163.982 598,-163.982 598,-142.982 515,-142.982"/>
<text text-anchor="start" x="523.5" y="-149.782" font-family="Times,serif" font-size="14.00">unknown</text>
<polygon fill="none" stroke="black" points="408,-121.982 408,-142.982 439,-142.982 439,-121.982 408,-121.982"/>
<text text-anchor="start" x="418.5" y="-128.782" font-family="Times,serif" font-size="14.00">8</text>
<polygon fill="none" stroke="black" points="439,-121.982 439,-142.982 473,-142.982 473,-121.982 439,-121.982"/>
<text text-anchor="start" x="451" y="-128.782" font-family="Times,serif" font-size="14.00">4</text>
<polygon fill="none" stroke="black" points="473,-121.982 473,-142.982 515,-142.982 515,-121.982 473,-121.982"/>
<text text-anchor="start" x="476" y="-128.782" font-family="Times,serif" font-size="14.00">u4be</text>
<polygon fill="none" stroke="black" points="515,-121.982 515,-142.982 598,-142.982 598,-121.982 515,-121.982"/>
<text text-anchor="start" x="539" y="-128.782" font-family="Times,serif" font-size="14.00">flags</text>
<polygon fill="none" stroke="black" points="408,-100.982 408,-121.982 439,-121.982 439,-100.982 408,-100.982"/>
<text text-anchor="start" x="414" y="-107.782" font-family="Times,serif" font-size="14.00">12</text>
<polygon fill="none" stroke="black" points="439,-100.982 439,-121.982 473,-121.982 473,-100.982 439,-100.982"/>
<text text-anchor="start" x="451" y="-107.782" font-family="Times,serif" font-size="14.00">4</text>
<polygon fill="none" stroke="black" points="473,-100.982 473,-121.982 515,-121.982 515,-100.982 473,-100.982"/>
<text text-anchor="start" x="476" y="-107.782" font-family="Times,serif" font-size="14.00">u4be</text>
<polygon fill="none" stroke="black" points="515,-100.982 515,-121.982 598,-121.982 598,-100.982 515,-100.982"/>
<text text-anchor="start" x="518" y="-107.782" font-family="Times,serif" font-size="14.00">timestamp</text>
<polygon fill="none" stroke="black" points="408,-79.9824 408,-100.982 439,-100.982 439,-79.9824 408,-79.9824"/>
<text text-anchor="start" x="414" y="-86.7824" font-family="Times,serif" font-size="14.00">16</text>
<polygon fill="none" stroke="black" points="439,-79.9824 439,-100.982 473,-100.982 473,-79.9824 439,-79.9824"/>
<text text-anchor="start" x="449" y="-86.7824" font-family="Times,serif" font-size="14.00">...</text>
<polygon fill="none" stroke="black" points="473,-79.9824 473,-100.982 515,-100.982 515,-79.9824 473,-79.9824"/>
<text text-anchor="start" x="480" y="-86.7824" font-family="Times,serif" font-size="14.00">File</text>
<polygon fill="none" stroke="black" points="515,-79.9824 515,-100.982 598,-100.982 598,-79.9824 515,-79.9824"/>
<text text-anchor="start" x="541" y="-86.7824" font-family="Times,serif" font-size="14.00">files</text>
<polygon fill="none" stroke="black" points="408,-58.9824 408,-79.9824 598,-79.9824 598,-58.9824 408,-58.9824"/>
<text text-anchor="start" x="420" y="-65.7824" font-family="Times,serif" font-size="14.00">repeat file_count times</text>
</g>
<!-- fallout_dat__seq&#45;&gt;folder__seq -->
<g id="edge3" class="edge"><title>fallout_dat__seq:folders_type&#45;&gt;folder__seq</title>
<path fill="none" stroke="black" stroke-width="2" d="M357,-149.982C367.673,-149.982 378.758,-149.522 389.831,-148.754"/>
<polygon fill="black" stroke="black" stroke-width="2" points="390.285,-152.229 399.984,-147.966 389.743,-145.25 390.285,-152.229"/>
</g>
<!-- pstr__seq&#45;&gt;pstr__seq -->
<g id="edge5" class="edge"><title>pstr__seq:size_type&#45;&gt;pstr__seq:str_size</title>
<path fill="none" stroke="#404040" d="M1411.08,-247.609C1521.09,-266.173 1512.83,-299.482 1336.5,-299.482 1165.68,-299.482 1152.59,-250.318 1251.95,-228.742"/>
<polygon fill="#404040" stroke="#404040" points="1252.8,-232.142 1261.92,-226.743 1251.42,-225.278 1252.8,-232.142"/>
</g>
<!-- folder__seq&#45;&gt;folder__seq -->
<g id="edge7" class="edge"><title>folder__seq:file_count_type&#45;&gt;folder__seq:files__repeat</title>
<path fill="none" stroke="#404040" d="M514.843,-178.237C422.487,-182.598 272,-174.719 272,-121.982 272,-82.9588 333.009,-68.4971 397.427,-65.382"/>
<polygon fill="#404040" stroke="#404040" points="397.93,-68.8651 407.786,-64.9774 397.657,-61.8704 397.93,-68.8651"/>
</g>
<!-- file__seq -->
<g id="node4" class="node"><title>file__seq</title>
<polygon fill="#e0ffe0" stroke="none" points="650,-137.982 650,-158.982 681,-158.982 681,-137.982 650,-137.982"/>
<polygon fill="none" stroke="black" points="650,-137.982 650,-158.982 681,-158.982 681,-137.982 650,-137.982"/>
<text text-anchor="start" x="653" y="-144.782" font-family="Times,serif" font-size="14.00">pos</text>
<polygon fill="#e0ffe0" stroke="none" points="681,-137.982 681,-158.982 715,-158.982 715,-137.982 681,-137.982"/>
<polygon fill="none" stroke="black" points="681,-137.982 681,-158.982 715,-158.982 715,-137.982 681,-137.982"/>
<text text-anchor="start" x="684" y="-144.782" font-family="Times,serif" font-size="14.00">size</text>
<polygon fill="#e0ffe0" stroke="none" points="715,-137.982 715,-158.982 858,-158.982 858,-137.982 715,-137.982"/>
<polygon fill="none" stroke="black" points="715,-137.982 715,-158.982 858,-158.982 858,-137.982 715,-137.982"/>
<text text-anchor="start" x="770.5" y="-144.782" font-family="Times,serif" font-size="14.00">type</text>
<polygon fill="#e0ffe0" stroke="none" points="858,-137.982 858,-158.982 970,-158.982 970,-137.982 858,-137.982"/>
<polygon fill="none" stroke="black" points="858,-137.982 858,-158.982 970,-158.982 970,-137.982 858,-137.982"/>
<text text-anchor="start" x="907" y="-144.782" font-family="Times,serif" font-size="14.00">id</text>
<polygon fill="none" stroke="black" points="650,-116.982 650,-137.982 681,-137.982 681,-116.982 650,-116.982"/>
<text text-anchor="start" x="660.5" y="-123.782" font-family="Times,serif" font-size="14.00">0</text>
<polygon fill="none" stroke="black" points="681,-116.982 681,-137.982 715,-137.982 715,-116.982 681,-116.982"/>
<text text-anchor="start" x="691" y="-123.782" font-family="Times,serif" font-size="14.00">...</text>
<polygon fill="none" stroke="black" points="715,-116.982 715,-137.982 858,-137.982 858,-116.982 715,-116.982"/>
<text text-anchor="start" x="771.5" y="-123.782" font-family="Times,serif" font-size="14.00">Pstr</text>
<polygon fill="none" stroke="black" points="858,-116.982 858,-137.982 970,-137.982 970,-116.982 858,-116.982"/>
<text text-anchor="start" x="894" y="-123.782" font-family="Times,serif" font-size="14.00">name</text>
<polygon fill="none" stroke="black" points="650,-95.9824 650,-116.982 681,-116.982 681,-95.9824 650,-95.9824"/>
<text text-anchor="start" x="658.5" y="-102.782" font-family="Times,serif" font-size="14.00">...</text>
<polygon fill="none" stroke="black" points="681,-95.9824 681,-116.982 715,-116.982 715,-95.9824 681,-95.9824"/>
<text text-anchor="start" x="693" y="-102.782" font-family="Times,serif" font-size="14.00">4</text>
<polygon fill="none" stroke="black" points="715,-95.9824 715,-116.982 858,-116.982 858,-95.9824 715,-95.9824"/>
<text text-anchor="start" x="718" y="-102.782" font-family="Times,serif" font-size="14.00">u4be?Compression</text>
<polygon fill="none" stroke="black" points="858,-95.9824 858,-116.982 970,-116.982 970,-95.9824 858,-95.9824"/>
<text text-anchor="start" x="896.5" y="-102.782" font-family="Times,serif" font-size="14.00">flags</text>
<polygon fill="none" stroke="black" points="650,-74.9824 650,-95.9824 681,-95.9824 681,-74.9824 650,-74.9824"/>
<text text-anchor="start" x="658.5" y="-81.7824" font-family="Times,serif" font-size="14.00">...</text>
<polygon fill="none" stroke="black" points="681,-74.9824 681,-95.9824 715,-95.9824 715,-74.9824 681,-74.9824"/>
<text text-anchor="start" x="693" y="-81.7824" font-family="Times,serif" font-size="14.00">4</text>
<polygon fill="none" stroke="black" points="715,-74.9824 715,-95.9824 858,-95.9824 858,-74.9824 715,-74.9824"/>
<text text-anchor="start" x="768.5" y="-81.7824" font-family="Times,serif" font-size="14.00">u4be</text>
<polygon fill="none" stroke="black" points="858,-74.9824 858,-95.9824 970,-95.9824 970,-74.9824 858,-74.9824"/>
<text text-anchor="start" x="893.5" y="-81.7824" font-family="Times,serif" font-size="14.00">offset</text>
<polygon fill="none" stroke="black" points="650,-53.9824 650,-74.9824 681,-74.9824 681,-53.9824 650,-53.9824"/>
<text text-anchor="start" x="658.5" y="-60.7824" font-family="Times,serif" font-size="14.00">...</text>
<polygon fill="none" stroke="black" points="681,-53.9824 681,-74.9824 715,-74.9824 715,-53.9824 681,-53.9824"/>
<text text-anchor="start" x="693" y="-60.7824" font-family="Times,serif" font-size="14.00">4</text>
<polygon fill="none" stroke="black" points="715,-53.9824 715,-74.9824 858,-74.9824 858,-53.9824 715,-53.9824"/>
<text text-anchor="start" x="768.5" y="-60.7824" font-family="Times,serif" font-size="14.00">u4be</text>
<polygon fill="none" stroke="black" points="858,-53.9824 858,-74.9824 970,-74.9824 970,-53.9824 858,-53.9824"/>
<text text-anchor="start" x="861" y="-60.7824" font-family="Times,serif" font-size="14.00">size_unpacked</text>
<polygon fill="none" stroke="black" points="650,-32.9824 650,-53.9824 681,-53.9824 681,-32.9824 650,-32.9824"/>
<text text-anchor="start" x="658.5" y="-39.7824" font-family="Times,serif" font-size="14.00">...</text>
<polygon fill="none" stroke="black" points="681,-32.9824 681,-53.9824 715,-53.9824 715,-32.9824 681,-32.9824"/>
<text text-anchor="start" x="693" y="-39.7824" font-family="Times,serif" font-size="14.00">4</text>
<polygon fill="none" stroke="black" points="715,-32.9824 715,-53.9824 858,-53.9824 858,-32.9824 715,-32.9824"/>
<text text-anchor="start" x="768.5" y="-39.7824" font-family="Times,serif" font-size="14.00">u4be</text>
<polygon fill="none" stroke="black" points="858,-32.9824 858,-53.9824 970,-53.9824 970,-32.9824 858,-32.9824"/>
<text text-anchor="start" x="870" y="-39.7824" font-family="Times,serif" font-size="14.00">size_packed</text>
</g>
<!-- folder__seq&#45;&gt;file__seq -->
<g id="edge6" class="edge"><title>folder__seq:files_type&#45;&gt;file__seq</title>
<path fill="none" stroke="black" stroke-width="2" d="M599,-89.9824C609.681,-89.9824 620.667,-90.0609 631.747,-90.2"/>
<polygon fill="black" stroke="black" stroke-width="2" points="631.895,-93.7024 641.944,-90.3442 631.995,-86.7031 631.895,-93.7024"/>
</g>
<!-- file__seq&#45;&gt;pstr__seq -->
<g id="edge8" class="edge"><title>file__seq:name_type&#45;&gt;pstr__seq</title>
<path fill="none" stroke="black" stroke-width="2" d="M971,-127.982C1007.51,-127.982 983.615,-177.736 1014,-197.982 1072.07,-236.679 1149.91,-248.478 1212.54,-250.705"/>
<polygon fill="black" stroke="black" stroke-width="2" points="1212.76,-254.212 1222.85,-250.991 1212.95,-247.215 1212.76,-254.212"/>
</g>
<!-- file__inst__contents -->
<g id="node5" class="node"><title>file__inst__contents</title>
<polygon fill="#e0ffe0" stroke="none" points="1022,-84.9824 1022,-105.982 1069,-105.982 1069,-84.9824 1022,-84.9824"/>
<polygon fill="none" stroke="black" points="1022,-84.9824 1022,-105.982 1069,-105.982 1069,-84.9824 1022,-84.9824"/>
<text text-anchor="start" x="1033" y="-91.7824" font-family="Times,serif" font-size="14.00">pos</text>
<polygon fill="#e0ffe0" stroke="none" points="1069,-84.9824 1069,-105.982 1513,-105.982 1513,-84.9824 1069,-84.9824"/>
<polygon fill="none" stroke="black" points="1069,-84.9824 1069,-105.982 1513,-105.982 1513,-84.9824 1069,-84.9824"/>
<text text-anchor="start" x="1277" y="-91.7824" font-family="Times,serif" font-size="14.00">size</text>
<polygon fill="#e0ffe0" stroke="none" points="1513,-84.9824 1513,-105.982 1551,-105.982 1551,-84.9824 1513,-84.9824"/>
<polygon fill="none" stroke="black" points="1513,-84.9824 1513,-105.982 1551,-105.982 1551,-84.9824 1513,-84.9824"/>
<text text-anchor="start" x="1516" y="-91.7824" font-family="Times,serif" font-size="14.00">type</text>
<polygon fill="#e0ffe0" stroke="none" points="1551,-84.9824 1551,-105.982 1620,-105.982 1620,-84.9824 1551,-84.9824"/>
<polygon fill="none" stroke="black" points="1551,-84.9824 1551,-105.982 1620,-105.982 1620,-84.9824 1551,-84.9824"/>
<text text-anchor="start" x="1578.5" y="-91.7824" font-family="Times,serif" font-size="14.00">id</text>
<polygon fill="none" stroke="black" points="1022,-63.9824 1022,-84.9824 1069,-84.9824 1069,-63.9824 1022,-63.9824"/>
<text text-anchor="start" x="1025" y="-70.7824" font-family="Times,serif" font-size="14.00">offset</text>
<polygon fill="none" stroke="black" points="1069,-63.9824 1069,-84.9824 1513,-84.9824 1513,-63.9824 1069,-63.9824"/>
<text text-anchor="start" x="1072" y="-70.7824" font-family="Times,serif" font-size="14.00">(flags == :compression_none ? size_unpacked : size_packed)</text>
<polygon fill="none" stroke="black" points="1513,-63.9824 1513,-84.9824 1551,-84.9824 1551,-63.9824 1513,-63.9824"/>
<polygon fill="none" stroke="black" points="1551,-63.9824 1551,-84.9824 1620,-84.9824 1620,-63.9824 1551,-63.9824"/>
<text text-anchor="start" x="1554" y="-70.7824" font-family="Times,serif" font-size="14.00">contents</text>
</g>
<!-- file__seq&#45;&gt;file__inst__contents -->
<g id="edge9" class="edge"><title>file__seq:offset_type&#45;&gt;file__inst__contents:contents_pos</title>
<path fill="none" stroke="#404040" d="M971,-84.9824C989.843,-84.9824 996.163,-77.4387 1010.7,-74.8456"/>
<polygon fill="#404040" stroke="#404040" points="1011.33,-78.3054 1021,-73.9824 1010.74,-71.3299 1011.33,-78.3054"/>
</g>
<!-- file__seq&#45;&gt;file__inst__contents -->
<g id="edge10" class="edge"><title>file__seq:flags_type&#45;&gt;file__inst__contents:contents_size</title>
<path fill="none" stroke="#404040" d="M971,-106.982C998.027,-106.982 989.049,-74.3703 1014,-63.9824 1067.5,-41.7096 1265.76,-5.93237 1288.81,-53.1734"/>
<polygon fill="#404040" stroke="#404040" points="1285.4,-53.9857 1291,-62.9824 1292.24,-52.46 1285.4,-53.9857"/>
</g>
<!-- file__seq&#45;&gt;file__inst__contents -->
<g id="edge11" class="edge"><title>file__seq:size_unpacked_type&#45;&gt;file__inst__contents:contents_size</title>
<path fill="none" stroke="#404040" d="M971,-63.9824C1109.61,-63.9824 1282,72.0598 1290.66,-52.6941"/>
<polygon fill="#404040" stroke="#404040" points="1287.17,-53.1036 1291,-62.9824 1294.17,-52.8721 1287.17,-53.1036"/>
</g>
<!-- file__seq&#45;&gt;file__inst__contents -->
<g id="edge12" class="edge"><title>file__seq:size_packed_type&#45;&gt;file__inst__contents:contents_size</title>
<path fill="none" stroke="#404040" d="M971,-42.9824C1038.63,-42.9824 1266.19,3.19455 1289.13,-53.0529"/>
<polygon fill="#404040" stroke="#404040" points="1285.71,-53.8022 1291,-62.9824 1292.59,-52.5076 1285.71,-53.8022"/>
</g>
</g>
</svg>
