<?xml version="1.0" encoding="UTF-8" standalone="no"?>
<!DOCTYPE svg PUBLIC "-//W3C//DTD SVG 1.1//EN"
 "http://www.w3.org/Graphics/SVG/1.1/DTD/svg11.dtd">
<!-- Generated by graphviz version 2.40.1 (20161225.0304)
 -->
<!-- Title: %3 Pages: 1 -->
<svg width="1354pt" height="399pt"
 viewBox="0.00 0.00 1354.00 399.00" xmlns="http://www.w3.org/2000/svg" xmlns:xlink="http://www.w3.org/1999/xlink">
<g id="graph0" class="graph" transform="scale(1 1) rotate(0) translate(4 395)">
<title>%3</title>
<polygon fill="#ffffff" stroke="transparent" points="-4,4 -4,-395 1350,-395 1350,4 -4,4"/>
<g id="clust1" class="cluster">
<title>cluster__ipv4_packet</title>
<polygon fill="none" stroke="#000000" stroke-dasharray="1,5" points="8,-44 8,-383 1338,-383 1338,-44 8,-44"/>
<text text-anchor="middle" x="673" y="-367.8" font-family="Times,serif" font-size="14.00" fill="#000000">Ipv4Packet</text>
</g>
<g id="clust2" class="cluster">
<title>cluster__ipv4_options</title>
<polygon fill="none" stroke="#000000" stroke-dasharray="1,5" points="511,-97 511,-208 753,-208 753,-97 511,-97"/>
<text text-anchor="middle" x="632" y="-192.8" font-family="Times,serif" font-size="14.00" fill="#000000">Ipv4Packet::Ipv4Options</text>
</g>
<g id="clust3" class="cluster">
<title>cluster__ipv4_option</title>
<polygon fill="none" stroke="#000000" stroke-dasharray="1,5" points="773,-115 773,-340 1330,-340 1330,-115 773,-115"/>
<text text-anchor="middle" x="1051.5" y="-324.8" font-family="Times,serif" font-size="14.00" fill="#000000">Ipv4Packet::Ipv4Option</text>
</g>
<!-- ipv4_packet__seq -->
<g id="node1" class="node">
<title>ipv4_packet__seq</title>
<polygon fill="#e0ffe0" stroke="transparent" points="24.5,-308 24.5,-329 55.5,-329 55.5,-308 24.5,-308"/>
<polygon fill="none" stroke="#000000" points="24.5,-308 24.5,-329 55.5,-329 55.5,-308 24.5,-308"/>
<text text-anchor="start" x="27.5" y="-314.8" font-family="Times,serif" font-size="14.00" fill="#000000">pos</text>
<polygon fill="#e0ffe0" stroke="transparent" points="55.5,-308 55.5,-329 236.5,-329 236.5,-308 55.5,-308"/>
<polygon fill="none" stroke="#000000" points="55.5,-308 55.5,-329 236.5,-329 236.5,-308 55.5,-308"/>
<text text-anchor="start" x="132" y="-314.8" font-family="Times,serif" font-size="14.00" fill="#000000">size</text>
<polygon fill="#e0ffe0" stroke="transparent" points="236.5,-308 236.5,-329 339.5,-329 339.5,-308 236.5,-308"/>
<polygon fill="none" stroke="#000000" points="236.5,-308 236.5,-329 339.5,-329 339.5,-308 236.5,-308"/>
<text text-anchor="start" x="272" y="-314.8" font-family="Times,serif" font-size="14.00" fill="#000000">type</text>
<polygon fill="#e0ffe0" stroke="transparent" points="339.5,-308 339.5,-329 475.5,-329 475.5,-308 339.5,-308"/>
<polygon fill="none" stroke="#000000" points="339.5,-308 339.5,-329 475.5,-329 475.5,-308 339.5,-308"/>
<text text-anchor="start" x="400.5" y="-314.8" font-family="Times,serif" font-size="14.00" fill="#000000">id</text>
<polygon fill="none" stroke="#000000" points="24.5,-287 24.5,-308 55.5,-308 55.5,-287 24.5,-287"/>
<text text-anchor="start" x="35" y="-293.8" font-family="Times,serif" font-size="14.00" fill="#000000">0</text>
<polygon fill="none" stroke="#000000" points="55.5,-287 55.5,-308 236.5,-308 236.5,-287 55.5,-287"/>
<text text-anchor="start" x="141" y="-293.8" font-family="Times,serif" font-size="14.00" fill="#000000">1</text>
<polygon fill="none" stroke="#000000" points="236.5,-287 236.5,-308 339.5,-308 339.5,-287 236.5,-287"/>
<text text-anchor="start" x="278.5" y="-293.8" font-family="Times,serif" font-size="14.00" fill="#000000">u1</text>
<polygon fill="none" stroke="#000000" points="339.5,-287 339.5,-308 475.5,-308 475.5,-287 339.5,-287"/>
<text text-anchor="start" x="398" y="-293.8" font-family="Times,serif" font-size="14.00" fill="#000000">b1</text>
<polygon fill="none" stroke="#000000" points="24.5,-266 24.5,-287 55.5,-287 55.5,-266 24.5,-266"/>
<text text-anchor="start" x="35" y="-272.8" font-family="Times,serif" font-size="14.00" fill="#000000">1</text>
<polygon fill="none" stroke="#000000" points="55.5,-266 55.5,-287 236.5,-287 236.5,-266 55.5,-266"/>
<text text-anchor="start" x="141" y="-272.8" font-family="Times,serif" font-size="14.00" fill="#000000">1</text>
<polygon fill="none" stroke="#000000" points="236.5,-266 236.5,-287 339.5,-287 339.5,-266 236.5,-266"/>
<text text-anchor="start" x="278.5" y="-272.8" font-family="Times,serif" font-size="14.00" fill="#000000">u1</text>
<polygon fill="none" stroke="#000000" points="339.5,-266 339.5,-287 475.5,-287 475.5,-266 339.5,-266"/>
<text text-anchor="start" x="398" y="-272.8" font-family="Times,serif" font-size="14.00" fill="#000000">b2</text>
<polygon fill="none" stroke="#000000" points="24.5,-245 24.5,-266 55.5,-266 55.5,-245 24.5,-245"/>
<text text-anchor="start" x="35" y="-251.8" font-family="Times,serif" font-size="14.00" fill="#000000">2</text>
<polygon fill="none" stroke="#000000" points="55.5,-245 55.5,-266 236.5,-266 236.5,-245 55.5,-245"/>
<text text-anchor="start" x="141" y="-251.8" font-family="Times,serif" font-size="14.00" fill="#000000">2</text>
<polygon fill="none" stroke="#000000" points="236.5,-245 236.5,-266 339.5,-266 339.5,-245 236.5,-245"/>
<text text-anchor="start" x="270" y="-251.8" font-family="Times,serif" font-size="14.00" fill="#000000">u2be</text>
<polygon fill="none" stroke="#000000" points="339.5,-245 339.5,-266 475.5,-266 475.5,-245 339.5,-245"/>
<text text-anchor="start" x="364" y="-251.8" font-family="Times,serif" font-size="14.00" fill="#000000">total_length</text>
<polygon fill="none" stroke="#000000" points="24.5,-224 24.5,-245 55.5,-245 55.5,-224 24.5,-224"/>
<text text-anchor="start" x="35" y="-230.8" font-family="Times,serif" font-size="14.00" fill="#000000">4</text>
<polygon fill="none" stroke="#000000" points="55.5,-224 55.5,-245 236.5,-245 236.5,-224 55.5,-224"/>
<text text-anchor="start" x="141" y="-230.8" font-family="Times,serif" font-size="14.00" fill="#000000">2</text>
<polygon fill="none" stroke="#000000" points="236.5,-224 236.5,-245 339.5,-245 339.5,-224 236.5,-224"/>
<text text-anchor="start" x="270" y="-230.8" font-family="Times,serif" font-size="14.00" fill="#000000">u2be</text>
<polygon fill="none" stroke="#000000" points="339.5,-224 339.5,-245 475.5,-245 475.5,-224 339.5,-224"/>
<text text-anchor="start" x="359.5" y="-230.8" font-family="Times,serif" font-size="14.00" fill="#000000">identification</text>
<polygon fill="none" stroke="#000000" points="24.5,-203 24.5,-224 55.5,-224 55.5,-203 24.5,-203"/>
<text text-anchor="start" x="35" y="-209.8" font-family="Times,serif" font-size="14.00" fill="#000000">6</text>
<polygon fill="none" stroke="#000000" points="55.5,-203 55.5,-224 236.5,-224 236.5,-203 55.5,-203"/>
<text text-anchor="start" x="141" y="-209.8" font-family="Times,serif" font-size="14.00" fill="#000000">2</text>
<polygon fill="none" stroke="#000000" points="236.5,-203 236.5,-224 339.5,-224 339.5,-203 236.5,-203"/>
<text text-anchor="start" x="270" y="-209.8" font-family="Times,serif" font-size="14.00" fill="#000000">u2be</text>
<polygon fill="none" stroke="#000000" points="339.5,-203 339.5,-224 475.5,-224 475.5,-203 339.5,-203"/>
<text text-anchor="start" x="393.5" y="-209.8" font-family="Times,serif" font-size="14.00" fill="#000000">b67</text>
<polygon fill="none" stroke="#000000" points="24.5,-182 24.5,-203 55.5,-203 55.5,-182 24.5,-182"/>
<text text-anchor="start" x="35" y="-188.8" font-family="Times,serif" font-size="14.00" fill="#000000">8</text>
<polygon fill="none" stroke="#000000" points="55.5,-182 55.5,-203 236.5,-203 236.5,-182 55.5,-182"/>
<text text-anchor="start" x="141" y="-188.8" font-family="Times,serif" font-size="14.00" fill="#000000">1</text>
<polygon fill="none" stroke="#000000" points="236.5,-182 236.5,-203 339.5,-203 339.5,-182 236.5,-182"/>
<text text-anchor="start" x="278.5" y="-188.8" font-family="Times,serif" font-size="14.00" fill="#000000">u1</text>
<polygon fill="none" stroke="#000000" points="339.5,-182 339.5,-203 475.5,-203 475.5,-182 339.5,-182"/>
<text text-anchor="start" x="399" y="-188.8" font-family="Times,serif" font-size="14.00" fill="#000000">ttl</text>
<polygon fill="none" stroke="#000000" points="24.5,-161 24.5,-182 55.5,-182 55.5,-161 24.5,-161"/>
<text text-anchor="start" x="35" y="-167.8" font-family="Times,serif" font-size="14.00" fill="#000000">9</text>
<polygon fill="none" stroke="#000000" points="55.5,-161 55.5,-182 236.5,-182 236.5,-161 55.5,-161"/>
<text text-anchor="start" x="141" y="-167.8" font-family="Times,serif" font-size="14.00" fill="#000000">1</text>
<polygon fill="none" stroke="#000000" points="236.5,-161 236.5,-182 339.5,-182 339.5,-161 236.5,-161"/>
<text text-anchor="start" x="278.5" y="-167.8" font-family="Times,serif" font-size="14.00" fill="#000000">u1</text>
<polygon fill="none" stroke="#000000" points="339.5,-161 339.5,-182 475.5,-182 475.5,-161 339.5,-161"/>
<text text-anchor="start" x="377.5" y="-167.8" font-family="Times,serif" font-size="14.00" fill="#000000">protocol</text>
<polygon fill="none" stroke="#000000" points="24.5,-140 24.5,-161 55.5,-161 55.5,-140 24.5,-140"/>
<text text-anchor="start" x="30.5" y="-146.8" font-family="Times,serif" font-size="14.00" fill="#000000">10</text>
<polygon fill="none" stroke="#000000" points="55.5,-140 55.5,-161 236.5,-161 236.5,-140 55.5,-140"/>
<text text-anchor="start" x="141" y="-146.8" font-family="Times,serif" font-size="14.00" fill="#000000">2</text>
<polygon fill="none" stroke="#000000" points="236.5,-140 236.5,-161 339.5,-161 339.5,-140 236.5,-140"/>
<text text-anchor="start" x="270" y="-146.8" font-family="Times,serif" font-size="14.00" fill="#000000">u2be</text>
<polygon fill="none" stroke="#000000" points="339.5,-140 339.5,-161 475.5,-161 475.5,-140 339.5,-140"/>
<text text-anchor="start" x="342.5" y="-146.8" font-family="Times,serif" font-size="14.00" fill="#000000">header_checksum</text>
<polygon fill="none" stroke="#000000" points="24.5,-119 24.5,-140 55.5,-140 55.5,-119 24.5,-119"/>
<text text-anchor="start" x="30.5" y="-125.8" font-family="Times,serif" font-size="14.00" fill="#000000">12</text>
<polygon fill="none" stroke="#000000" points="55.5,-119 55.5,-140 236.5,-140 236.5,-119 55.5,-119"/>
<text text-anchor="start" x="141" y="-125.8" font-family="Times,serif" font-size="14.00" fill="#000000">4</text>
<polygon fill="none" stroke="#000000" points="236.5,-119 236.5,-140 339.5,-140 339.5,-119 236.5,-119"/>
<polygon fill="none" stroke="#000000" points="339.5,-119 339.5,-140 475.5,-140 475.5,-119 339.5,-119"/>
<text text-anchor="start" x="365" y="-125.8" font-family="Times,serif" font-size="14.00" fill="#000000">src_ip_addr</text>
<polygon fill="none" stroke="#000000" points="24.5,-98 24.5,-119 55.5,-119 55.5,-98 24.5,-98"/>
<text text-anchor="start" x="30.5" y="-104.8" font-family="Times,serif" font-size="14.00" fill="#000000">16</text>
<polygon fill="none" stroke="#000000" points="55.5,-98 55.5,-119 236.5,-119 236.5,-98 55.5,-98"/>
<text text-anchor="start" x="141" y="-104.8" font-family="Times,serif" font-size="14.00" fill="#000000">4</text>
<polygon fill="none" stroke="#000000" points="236.5,-98 236.5,-119 339.5,-119 339.5,-98 236.5,-98"/>
<polygon fill="none" stroke="#000000" points="339.5,-98 339.5,-119 475.5,-119 475.5,-98 339.5,-98"/>
<text text-anchor="start" x="365" y="-104.8" font-family="Times,serif" font-size="14.00" fill="#000000">dst_ip_addr</text>
<polygon fill="none" stroke="#000000" points="24.5,-77 24.5,-98 55.5,-98 55.5,-77 24.5,-77"/>
<text text-anchor="start" x="30.5" y="-83.8" font-family="Times,serif" font-size="14.00" fill="#000000">20</text>
<polygon fill="none" stroke="#000000" points="55.5,-77 55.5,-98 236.5,-98 236.5,-77 55.5,-77"/>
<text text-anchor="start" x="92.5" y="-83.8" font-family="Times,serif" font-size="14.00" fill="#000000">(ihl_bytes &#45; 20)</text>
<polygon fill="none" stroke="#000000" points="236.5,-77 236.5,-98 339.5,-98 339.5,-77 236.5,-77"/>
<text text-anchor="start" x="243.5" y="-83.8" font-family="Times,serif" font-size="14.00" fill="#000000">Ipv4Options</text>
<polygon fill="none" stroke="#000000" points="339.5,-77 339.5,-98 475.5,-98 475.5,-77 339.5,-77"/>
<text text-anchor="start" x="381" y="-83.8" font-family="Times,serif" font-size="14.00" fill="#000000">options</text>
<polygon fill="none" stroke="#000000" points="24.5,-56 24.5,-77 55.5,-77 55.5,-56 24.5,-56"/>
<text text-anchor="start" x="33" y="-62.8" font-family="Times,serif" font-size="14.00" fill="#000000">...</text>
<polygon fill="none" stroke="#000000" points="55.5,-56 55.5,-77 236.5,-77 236.5,-56 55.5,-56"/>
<text text-anchor="start" x="58.5" y="-62.8" font-family="Times,serif" font-size="14.00" fill="#000000">(total_length &#45; ihl_bytes)</text>
<polygon fill="none" stroke="#000000" points="236.5,-56 236.5,-77 339.5,-77 339.5,-56 236.5,-56"/>
<text text-anchor="start" x="239.5" y="-62.8" font-family="Times,serif" font-size="14.00" fill="#000000">ProtocolBody</text>
<polygon fill="none" stroke="#000000" points="339.5,-56 339.5,-77 475.5,-77 475.5,-56 339.5,-56"/>
<text text-anchor="start" x="390" y="-62.8" font-family="Times,serif" font-size="14.00" fill="#000000">body</text>
</g>
<!-- ipv4_packet__seq&#45;&gt;ipv4_packet__seq -->
<g id="edge3" class="edge">
<title>ipv4_packet__seq:total_length_type&#45;&gt;ipv4_packet__seq:body_size</title>
<path fill="none" stroke="#404040" d="M424.7406,-266.0804C502.0591,-314.1561 488.4014,-351.5 276.5,-351.5 70.3513,-351.5 51.8286,-158.7658 122.1656,-84.2977"/>
<polygon fill="#404040" stroke="#404040" points="124.924,-86.5021 129.7229,-77.0564 120.081,-81.4478 124.924,-86.5021"/>
</g>
<!-- ipv4_packet__inst__version -->
<g id="node2" class="node">
<title>ipv4_packet__inst__version</title>
<polygon fill="#e0ffe0" stroke="transparent" points="535,-241 535,-262 594,-262 594,-241 535,-241"/>
<polygon fill="none" stroke="#000000" points="535,-241 535,-262 594,-262 594,-241 535,-241"/>
<text text-anchor="start" x="557.5" y="-247.8" font-family="Times,serif" font-size="14.00" fill="#000000">id</text>
<polygon fill="#e0ffe0" stroke="transparent" points="594,-241 594,-262 730,-262 730,-241 594,-241"/>
<polygon fill="none" stroke="#000000" points="594,-241 594,-262 730,-262 730,-241 594,-241"/>
<text text-anchor="start" x="642.5" y="-247.8" font-family="Times,serif" font-size="14.00" fill="#000000">value</text>
<polygon fill="none" stroke="#000000" points="535,-220 535,-241 594,-241 594,-220 535,-220"/>
<text text-anchor="start" x="538" y="-226.8" font-family="Times,serif" font-size="14.00" fill="#000000">version</text>
<polygon fill="none" stroke="#000000" points="594,-220 594,-241 730,-241 730,-220 594,-220"/>
<text text-anchor="start" x="597" y="-226.8" font-family="Times,serif" font-size="14.00" fill="#000000">((b1 &amp; 240) &gt;&gt; 4)</text>
</g>
<!-- ipv4_packet__seq&#45;&gt;ipv4_packet__inst__version -->
<g id="edge6" class="edge">
<title>ipv4_packet__seq:b1_type&#45;&gt;ipv4_packet__inst__version</title>
<path fill="none" stroke="#404040" d="M475.5,-298C494.2998,-298 493.8681,-282.7414 511,-275 515.1385,-273.1299 519.4038,-271.3392 523.748,-269.6273"/>
<polygon fill="#404040" stroke="#404040" points="525.2408,-272.8052 533.3656,-266.0053 522.7737,-266.2543 525.2408,-272.8052"/>
</g>
<!-- ipv4_packet__inst__ihl -->
<g id="node3" class="node">
<title>ipv4_packet__inst__ihl</title>
<polygon fill="#e0ffe0" stroke="transparent" points="582,-309 582,-330 607,-330 607,-309 582,-309"/>
<polygon fill="none" stroke="#000000" points="582,-309 582,-330 607,-330 607,-309 582,-309"/>
<text text-anchor="start" x="587.5" y="-315.8" font-family="Times,serif" font-size="14.00" fill="#000000">id</text>
<polygon fill="#e0ffe0" stroke="transparent" points="607,-309 607,-330 682,-330 682,-309 607,-309"/>
<polygon fill="none" stroke="#000000" points="607,-309 607,-330 682,-330 682,-309 607,-309"/>
<text text-anchor="start" x="625" y="-315.8" font-family="Times,serif" font-size="14.00" fill="#000000">value</text>
<polygon fill="none" stroke="#000000" points="582,-288 582,-309 607,-309 607,-288 582,-288"/>
<text text-anchor="start" x="585" y="-294.8" font-family="Times,serif" font-size="14.00" fill="#000000">ihl</text>
<polygon fill="none" stroke="#000000" points="607,-288 607,-309 682,-309 682,-288 607,-288"/>
<text text-anchor="start" x="610" y="-294.8" font-family="Times,serif" font-size="14.00" fill="#000000">(b1 &amp; 15)</text>
</g>
<!-- ipv4_packet__seq&#45;&gt;ipv4_packet__inst__ihl -->
<g id="edge7" class="edge">
<title>ipv4_packet__seq:b1_type&#45;&gt;ipv4_packet__inst__ihl</title>
<path fill="none" stroke="#404040" d="M475.5,-298C504.3613,-298 536.143,-299.8846 563.4827,-302.0937"/>
<polygon fill="#404040" stroke="#404040" points="563.4706,-305.6049 573.7281,-302.953 564.0557,-298.6293 563.4706,-305.6049"/>
</g>
<!-- ipv4_options__seq -->
<g id="node5" class="node">
<title>ipv4_options__seq</title>
<polygon fill="#e0ffe0" stroke="transparent" points="527,-151 527,-172 558,-172 558,-151 527,-151"/>
<polygon fill="none" stroke="#000000" points="527,-151 527,-172 558,-172 558,-151 527,-151"/>
<text text-anchor="start" x="530" y="-157.8" font-family="Times,serif" font-size="14.00" fill="#000000">pos</text>
<polygon fill="#e0ffe0" stroke="transparent" points="558,-151 558,-172 592,-172 592,-151 558,-151"/>
<polygon fill="none" stroke="#000000" points="558,-151 558,-172 592,-172 592,-151 558,-151"/>
<text text-anchor="start" x="561" y="-157.8" font-family="Times,serif" font-size="14.00" fill="#000000">size</text>
<polygon fill="#e0ffe0" stroke="transparent" points="592,-151 592,-172 680,-172 680,-151 592,-151"/>
<polygon fill="none" stroke="#000000" points="592,-151 592,-172 680,-172 680,-151 592,-151"/>
<text text-anchor="start" x="620" y="-157.8" font-family="Times,serif" font-size="14.00" fill="#000000">type</text>
<polygon fill="#e0ffe0" stroke="transparent" points="680,-151 680,-172 737,-172 737,-151 680,-151"/>
<polygon fill="none" stroke="#000000" points="680,-151 680,-172 737,-172 737,-151 680,-151"/>
<text text-anchor="start" x="701.5" y="-157.8" font-family="Times,serif" font-size="14.00" fill="#000000">id</text>
<polygon fill="none" stroke="#000000" points="527,-130 527,-151 558,-151 558,-130 527,-130"/>
<text text-anchor="start" x="537.5" y="-136.8" font-family="Times,serif" font-size="14.00" fill="#000000">0</text>
<polygon fill="none" stroke="#000000" points="558,-130 558,-151 592,-151 592,-130 558,-130"/>
<text text-anchor="start" x="568" y="-136.8" font-family="Times,serif" font-size="14.00" fill="#000000">...</text>
<polygon fill="none" stroke="#000000" points="592,-130 592,-151 680,-151 680,-130 592,-130"/>
<text text-anchor="start" x="595" y="-136.8" font-family="Times,serif" font-size="14.00" fill="#000000">Ipv4Option</text>
<polygon fill="none" stroke="#000000" points="680,-130 680,-151 737,-151 737,-130 680,-130"/>
<text text-anchor="start" x="683" y="-136.8" font-family="Times,serif" font-size="14.00" fill="#000000">entries</text>
<polygon fill="none" stroke="#000000" points="527,-109 527,-130 737,-130 737,-109 527,-109"/>
<text text-anchor="start" x="547.5" y="-115.8" font-family="Times,serif" font-size="14.00" fill="#000000">repeat to end of stream</text>
</g>
<!-- ipv4_packet__seq&#45;&gt;ipv4_options__seq -->
<g id="edge2" class="edge">
<title>ipv4_packet__seq:options_type&#45;&gt;ipv4_options__seq</title>
<path fill="none" stroke="#000000" stroke-width="2" d="M475.5,-87C492.6284,-87 494.9443,-96.0336 511,-102 511.097,-102.036 511.194,-102.0721 511.2911,-102.1081"/>
<polygon fill="#000000" stroke="#000000" stroke-width="2" points="509.8546,-105.3096 520.4485,-105.4521 512.2558,-98.7342 509.8546,-105.3096"/>
</g>
<!-- protocol_body__seq -->
<g id="node10" class="node">
<title>protocol_body__seq</title>
<text text-anchor="middle" x="632" y="-14.3" font-family="Times,serif" font-size="14.00" fill="#000000">protocol_body__seq</text>
</g>
<!-- ipv4_packet__seq&#45;&gt;protocol_body__seq -->
<g id="edge5" class="edge">
<title>ipv4_packet__seq:body_type&#45;&gt;protocol_body__seq</title>
<path fill="none" stroke="#000000" stroke-width="2" d="M475.5,-66C495.0568,-66 493.033,-47.7236 511,-40 520.9871,-35.7067 531.7878,-32.251 542.6834,-29.4694"/>
<polygon fill="#000000" stroke="#000000" stroke-width="2" points="543.7706,-32.8089 552.6956,-27.0998 542.1584,-25.9971 543.7706,-32.8089"/>
</g>
<!-- ipv4_packet__inst__ihl_bytes -->
<g id="node4" class="node">
<title>ipv4_packet__inst__ihl_bytes</title>
<polygon fill="#e0ffe0" stroke="transparent" points="859.5,-82 859.5,-103 930.5,-103 930.5,-82 859.5,-82"/>
<polygon fill="none" stroke="#000000" points="859.5,-82 859.5,-103 930.5,-103 930.5,-82 859.5,-82"/>
<text text-anchor="start" x="888" y="-88.8" font-family="Times,serif" font-size="14.00" fill="#000000">id</text>
<polygon fill="#e0ffe0" stroke="transparent" points="930.5,-82 930.5,-103 991.5,-103 991.5,-82 930.5,-82"/>
<polygon fill="none" stroke="#000000" points="930.5,-82 930.5,-103 991.5,-103 991.5,-82 930.5,-82"/>
<text text-anchor="start" x="941.5" y="-88.8" font-family="Times,serif" font-size="14.00" fill="#000000">value</text>
<polygon fill="none" stroke="#000000" points="859.5,-61 859.5,-82 930.5,-82 930.5,-61 859.5,-61"/>
<text text-anchor="start" x="862.5" y="-67.8" font-family="Times,serif" font-size="14.00" fill="#000000">ihl_bytes</text>
<polygon fill="none" stroke="#000000" points="930.5,-61 930.5,-82 991.5,-82 991.5,-61 930.5,-61"/>
<text text-anchor="start" x="933.5" y="-67.8" font-family="Times,serif" font-size="14.00" fill="#000000">(ihl * 4)</text>
</g>
<!-- ipv4_packet__inst__ihl&#45;&gt;ipv4_packet__inst__ihl_bytes -->
<g id="edge8" class="edge">
<title>ipv4_packet__inst__ihl:ihl_type&#45;&gt;ipv4_packet__inst__ihl_bytes</title>
<path fill="none" stroke="#404040" d="M690.2393,-306.1559C713.0551,-301.9752 737.4416,-293.1337 753,-275 800.8139,-219.2718 722.8345,-164.6212 773,-111 790.5546,-92.2361 816.1864,-83.4264 841.4439,-79.7589"/>
<polygon fill="#404040" stroke="#404040" points="841.9498,-83.2234 851.4626,-78.559 841.1173,-76.2731 841.9498,-83.2234"/>
</g>
<!-- ipv4_packet__inst__ihl_bytes&#45;&gt;ipv4_packet__seq -->
<g id="edge1" class="edge">
<title>ipv4_packet__inst__ihl_bytes:ihl_bytes_type&#45;&gt;ipv4_packet__seq:options_size</title>
<path fill="none" stroke="#404040" d="M851.2731,-82.4758C710.79,-83.3763 405.8944,-85.3308 246.7696,-86.3508"/>
<polygon fill="#404040" stroke="#404040" points="246.4798,-82.8525 236.5025,-86.4167 246.5247,-89.8524 246.4798,-82.8525"/>
</g>
<!-- ipv4_packet__inst__ihl_bytes&#45;&gt;ipv4_packet__seq -->
<g id="edge4" class="edge">
<title>ipv4_packet__inst__ihl_bytes:ihl_bytes_type&#45;&gt;ipv4_packet__seq:body_size</title>
<path fill="none" stroke="#404040" d="M851.4163,-75.7119C670.7854,-60.8311 217.7336,-26.3843 153.1968,-49.5112"/>
<polygon fill="#404040" stroke="#404040" points="150.8896,-46.8784 145.5,-56 155.4015,-52.2303 150.8896,-46.8784"/>
</g>
<!-- ipv4_option__seq -->
<g id="node6" class="node">
<title>ipv4_option__seq</title>
<polygon fill="#e0ffe0" stroke="transparent" points="789.5,-209 789.5,-230 820.5,-230 820.5,-209 789.5,-209"/>
<polygon fill="none" stroke="#000000" points="789.5,-209 789.5,-230 820.5,-230 820.5,-209 789.5,-209"/>
<text text-anchor="start" x="792.5" y="-215.8" font-family="Times,serif" font-size="14.00" fill="#000000">pos</text>
<polygon fill="#e0ffe0" stroke="transparent" points="820.5,-209 820.5,-230 983.5,-230 983.5,-209 820.5,-209"/>
<polygon fill="none" stroke="#000000" points="820.5,-209 820.5,-230 983.5,-230 983.5,-209 820.5,-209"/>
<text text-anchor="start" x="888" y="-215.8" font-family="Times,serif" font-size="14.00" fill="#000000">size</text>
<polygon fill="#e0ffe0" stroke="transparent" points="983.5,-209 983.5,-230 1021.5,-230 1021.5,-209 983.5,-209"/>
<polygon fill="none" stroke="#000000" points="983.5,-209 983.5,-230 1021.5,-230 1021.5,-209 983.5,-209"/>
<text text-anchor="start" x="986.5" y="-215.8" font-family="Times,serif" font-size="14.00" fill="#000000">type</text>
<polygon fill="#e0ffe0" stroke="transparent" points="1021.5,-209 1021.5,-230 1062.5,-230 1062.5,-209 1021.5,-209"/>
<polygon fill="none" stroke="#000000" points="1021.5,-209 1021.5,-230 1062.5,-230 1062.5,-209 1021.5,-209"/>
<text text-anchor="start" x="1035" y="-215.8" font-family="Times,serif" font-size="14.00" fill="#000000">id</text>
<polygon fill="none" stroke="#000000" points="789.5,-188 789.5,-209 820.5,-209 820.5,-188 789.5,-188"/>
<text text-anchor="start" x="800" y="-194.8" font-family="Times,serif" font-size="14.00" fill="#000000">0</text>
<polygon fill="none" stroke="#000000" points="820.5,-188 820.5,-209 983.5,-209 983.5,-188 820.5,-188"/>
<text text-anchor="start" x="897" y="-194.8" font-family="Times,serif" font-size="14.00" fill="#000000">1</text>
<polygon fill="none" stroke="#000000" points="983.5,-188 983.5,-209 1021.5,-209 1021.5,-188 983.5,-188"/>
<text text-anchor="start" x="993" y="-194.8" font-family="Times,serif" font-size="14.00" fill="#000000">u1</text>
<polygon fill="none" stroke="#000000" points="1021.5,-188 1021.5,-209 1062.5,-209 1062.5,-188 1021.5,-188"/>
<text text-anchor="start" x="1032.5" y="-194.8" font-family="Times,serif" font-size="14.00" fill="#000000">b1</text>
<polygon fill="none" stroke="#000000" points="789.5,-167 789.5,-188 820.5,-188 820.5,-167 789.5,-167"/>
<text text-anchor="start" x="800" y="-173.8" font-family="Times,serif" font-size="14.00" fill="#000000">1</text>
<polygon fill="none" stroke="#000000" points="820.5,-167 820.5,-188 983.5,-188 983.5,-167 820.5,-167"/>
<text text-anchor="start" x="897" y="-173.8" font-family="Times,serif" font-size="14.00" fill="#000000">1</text>
<polygon fill="none" stroke="#000000" points="983.5,-167 983.5,-188 1021.5,-188 1021.5,-167 983.5,-167"/>
<text text-anchor="start" x="993" y="-173.8" font-family="Times,serif" font-size="14.00" fill="#000000">u1</text>
<polygon fill="none" stroke="#000000" points="1021.5,-167 1021.5,-188 1062.5,-188 1062.5,-167 1021.5,-167"/>
<text text-anchor="start" x="1031" y="-173.8" font-family="Times,serif" font-size="14.00" fill="#000000">len</text>
<polygon fill="none" stroke="#000000" points="789.5,-146 789.5,-167 820.5,-167 820.5,-146 789.5,-146"/>
<text text-anchor="start" x="800" y="-152.8" font-family="Times,serif" font-size="14.00" fill="#000000">2</text>
<polygon fill="none" stroke="#000000" points="820.5,-146 820.5,-167 983.5,-167 983.5,-146 820.5,-146"/>
<text text-anchor="start" x="823.5" y="-152.8" font-family="Times,serif" font-size="14.00" fill="#000000">(len &gt; 2 ? (len &#45; 2) : 0)</text>
<polygon fill="none" stroke="#000000" points="983.5,-146 983.5,-167 1021.5,-167 1021.5,-146 983.5,-146"/>
<polygon fill="none" stroke="#000000" points="1021.5,-146 1021.5,-167 1062.5,-167 1062.5,-146 1021.5,-146"/>
<text text-anchor="start" x="1024.5" y="-152.8" font-family="Times,serif" font-size="14.00" fill="#000000">body</text>
</g>
<!-- ipv4_options__seq&#45;&gt;ipv4_option__seq -->
<g id="edge9" class="edge">
<title>ipv4_options__seq:entries_type&#45;&gt;ipv4_option__seq</title>
<path fill="none" stroke="#000000" stroke-width="2" d="M737,-140C748.1006,-140 759.4583,-140.7914 770.8242,-142.1709"/>
<polygon fill="#000000" stroke="#000000" stroke-width="2" points="770.4275,-145.6491 780.8081,-143.5296 771.3714,-138.7131 770.4275,-145.6491"/>
</g>
<!-- ipv4_option__seq&#45;&gt;ipv4_option__seq -->
<g id="edge10" class="edge">
<title>ipv4_option__seq:len_type&#45;&gt;ipv4_option__seq:body_size</title>
<path fill="none" stroke="#404040" d="M1055.6405,-188.0166C1076.2753,-212.7253 1063.1074,-252 972,-252 888.3029,-252 870.3823,-205.8843 884.0191,-175.7817"/>
<polygon fill="#404040" stroke="#404040" points="887.1248,-177.4067 889.2264,-167.0224 881.1078,-173.8296 887.1248,-177.4067"/>
</g>
<!-- ipv4_option__seq&#45;&gt;ipv4_option__seq -->
<g id="edge11" class="edge">
<title>ipv4_option__seq:len_type&#45;&gt;ipv4_option__seq:body_size</title>
<path fill="none" stroke="#404040" d="M1062.7958,-186.8056C1112.9149,-217.4544 1099.4707,-270 972,-270 852.7843,-270 833.3046,-209.3419 872.2805,-173.5142"/>
<polygon fill="#404040" stroke="#404040" points="874.6211,-176.1235 880.2275,-167.1336 870.2385,-170.6651 874.6211,-176.1235"/>
</g>
<!-- ipv4_option__inst__copy -->
<g id="node7" class="node">
<title>ipv4_option__inst__copy</title>
<polygon fill="#e0ffe0" stroke="transparent" points="1126,-148 1126,-169 1166,-169 1166,-148 1126,-148"/>
<polygon fill="none" stroke="#000000" points="1126,-148 1126,-169 1166,-169 1166,-148 1126,-148"/>
<text text-anchor="start" x="1139" y="-154.8" font-family="Times,serif" font-size="14.00" fill="#000000">id</text>
<polygon fill="#e0ffe0" stroke="transparent" points="1166,-148 1166,-169 1302,-169 1302,-148 1166,-148"/>
<polygon fill="none" stroke="#000000" points="1166,-148 1166,-169 1302,-169 1302,-148 1166,-148"/>
<text text-anchor="start" x="1214.5" y="-154.8" font-family="Times,serif" font-size="14.00" fill="#000000">value</text>
<polygon fill="none" stroke="#000000" points="1126,-127 1126,-148 1166,-148 1166,-127 1126,-127"/>
<text text-anchor="start" x="1129" y="-133.8" font-family="Times,serif" font-size="14.00" fill="#000000">copy</text>
<polygon fill="none" stroke="#000000" points="1166,-127 1166,-148 1302,-148 1302,-127 1166,-127"/>
<text text-anchor="start" x="1169" y="-133.8" font-family="Times,serif" font-size="14.00" fill="#000000">((b1 &amp; 128) &gt;&gt; 7)</text>
</g>
<!-- ipv4_option__seq&#45;&gt;ipv4_option__inst__copy -->
<g id="edge12" class="edge">
<title>ipv4_option__seq:b1_type&#45;&gt;ipv4_option__inst__copy</title>
<path fill="none" stroke="#404040" d="M1062.5,-199C1083.2573,-199 1086.4225,-188.8983 1106,-182 1111.4635,-180.0749 1117.1002,-178.1425 1122.798,-176.2299"/>
<polygon fill="#404040" stroke="#404040" points="1124.0362,-179.5068 1132.4246,-173.0348 1121.8311,-172.8631 1124.0362,-179.5068"/>
</g>
<!-- ipv4_option__inst__opt_class -->
<g id="node8" class="node">
<title>ipv4_option__inst__opt_class</title>
<polygon fill="#e0ffe0" stroke="transparent" points="1114,-216 1114,-237 1187,-237 1187,-216 1114,-216"/>
<polygon fill="none" stroke="#000000" points="1114,-216 1114,-237 1187,-237 1187,-216 1114,-216"/>
<text text-anchor="start" x="1143.5" y="-222.8" font-family="Times,serif" font-size="14.00" fill="#000000">id</text>
<polygon fill="#e0ffe0" stroke="transparent" points="1187,-216 1187,-237 1314,-237 1314,-216 1187,-216"/>
<polygon fill="none" stroke="#000000" points="1187,-216 1187,-237 1314,-237 1314,-216 1187,-216"/>
<text text-anchor="start" x="1231" y="-222.8" font-family="Times,serif" font-size="14.00" fill="#000000">value</text>
<polygon fill="none" stroke="#000000" points="1114,-195 1114,-216 1187,-216 1187,-195 1114,-195"/>
<text text-anchor="start" x="1117" y="-201.8" font-family="Times,serif" font-size="14.00" fill="#000000">opt_class</text>
<polygon fill="none" stroke="#000000" points="1187,-195 1187,-216 1314,-216 1314,-195 1187,-195"/>
<text text-anchor="start" x="1190" y="-201.8" font-family="Times,serif" font-size="14.00" fill="#000000">((b1 &amp; 96) &gt;&gt; 5)</text>
</g>
<!-- ipv4_option__seq&#45;&gt;ipv4_option__inst__opt_class -->
<g id="edge13" class="edge">
<title>ipv4_option__seq:b1_type&#45;&gt;ipv4_option__inst__opt_class</title>
<path fill="none" stroke="#404040" d="M1062.5,-199C1073.2399,-199 1084.3815,-199.4271 1095.5275,-200.146"/>
<polygon fill="#404040" stroke="#404040" points="1095.5275,-203.655 1105.7536,-200.8843 1096.0317,-196.6732 1095.5275,-203.655"/>
</g>
<!-- ipv4_option__inst__number -->
<g id="node9" class="node">
<title>ipv4_option__inst__number</title>
<polygon fill="#e0ffe0" stroke="transparent" points="1146,-284 1146,-305 1208,-305 1208,-284 1146,-284"/>
<polygon fill="none" stroke="#000000" points="1146,-284 1146,-305 1208,-305 1208,-284 1146,-284"/>
<text text-anchor="start" x="1170" y="-290.8" font-family="Times,serif" font-size="14.00" fill="#000000">id</text>
<polygon fill="#e0ffe0" stroke="transparent" points="1208,-284 1208,-305 1283,-305 1283,-284 1208,-284"/>
<polygon fill="none" stroke="#000000" points="1208,-284 1208,-305 1283,-305 1283,-284 1208,-284"/>
<text text-anchor="start" x="1226" y="-290.8" font-family="Times,serif" font-size="14.00" fill="#000000">value</text>
<polygon fill="none" stroke="#000000" points="1146,-263 1146,-284 1208,-284 1208,-263 1146,-263"/>
<text text-anchor="start" x="1149" y="-269.8" font-family="Times,serif" font-size="14.00" fill="#000000">number</text>
<polygon fill="none" stroke="#000000" points="1208,-263 1208,-284 1283,-284 1283,-263 1208,-263"/>
<text text-anchor="start" x="1211" y="-269.8" font-family="Times,serif" font-size="14.00" fill="#000000">(b1 &amp; 31)</text>
</g>
<!-- ipv4_option__seq&#45;&gt;ipv4_option__inst__number -->
<g id="edge14" class="edge">
<title>ipv4_option__seq:b1_type&#45;&gt;ipv4_option__inst__number</title>
<path fill="none" stroke="#404040" d="M1062.5,-199C1092.2919,-199 1081.1588,-233.554 1106,-250 1112.8918,-254.5626 1120.4331,-258.5437 1128.2248,-262.0111"/>
<polygon fill="#404040" stroke="#404040" points="1126.885,-265.2445 1137.4625,-265.8497 1129.5711,-258.7804 1126.885,-265.2445"/>
</g>
</g>
</svg>
