<?xml version="1.0" encoding="UTF-8" standalone="no"?>
<!DOCTYPE svg PUBLIC "-//W3C//DTD SVG 1.1//EN"
 "http://www.w3.org/Graphics/SVG/1.1/DTD/svg11.dtd">
<!-- Generated by graphviz version 2.38.0 (20140413.2041)
 -->
<!-- Title: %3 Pages: 1 -->
<svg width="1375pt" height="641pt"
 viewBox="0.00 0.00 1375.00 641.00" xmlns="http://www.w3.org/2000/svg" xmlns:xlink="http://www.w3.org/1999/xlink">
<g id="graph0" class="graph" transform="scale(1 1) rotate(0) translate(4 637)">
<title>%3</title>
<polygon fill="white" stroke="none" points="-4,4 -4,-637 1371,-637 1371,4 -4,4"/>
<g id="clust1" class="cluster"><title>cluster__ipv4_packet</title>
<polygon fill="none" stroke="black" stroke-dasharray="1,5" points="8,-206 8,-625 1359,-625 1359,-206 8,-206"/>
<text text-anchor="middle" x="683.5" y="-609.8" font-family="Times,serif" font-size="14.00">Ipv4Packet</text>
</g>
<g id="clust2" class="cluster"><title>cluster__ipv4_options</title>
<polygon fill="none" stroke="black" stroke-dasharray="1,5" points="503,-337 503,-448 745,-448 745,-337 503,-337"/>
<text text-anchor="middle" x="624" y="-432.8" font-family="Times,serif" font-size="14.00">Ipv4Packet::Ipv4Options</text>
</g>
<g id="clust3" class="cluster"><title>cluster__ipv4_option</title>
<polygon fill="none" stroke="black" stroke-dasharray="1,5" points="794,-243 794,-468 1351,-468 1351,-243 794,-243"/>
<text text-anchor="middle" x="1072.5" y="-452.8" font-family="Times,serif" font-size="14.00">Ipv4Packet::Ipv4Option</text>
</g>
<!-- ipv4_packet__seq -->
<g id="node1" class="node"><title>ipv4_packet__seq</title>
<polygon fill="#e0ffe0" stroke="none" points="24,-550 24,-571 55,-571 55,-550 24,-550"/>
<polygon fill="none" stroke="black" points="24,-550 24,-571 55,-571 55,-550 24,-550"/>
<text text-anchor="start" x="27" y="-556.8" font-family="Times,serif" font-size="14.00">pos</text>
<polygon fill="#e0ffe0" stroke="none" points="55,-550 55,-571 168,-571 168,-550 55,-550"/>
<polygon fill="none" stroke="black" points="55,-550 55,-571 168,-571 168,-550 55,-550"/>
<text text-anchor="start" x="97.5" y="-556.8" font-family="Times,serif" font-size="14.00">size</text>
<polygon fill="#e0ffe0" stroke="none" points="168,-550 168,-571 302,-571 302,-550 168,-550"/>
<polygon fill="none" stroke="black" points="168,-550 168,-571 302,-571 302,-550 168,-550"/>
<text text-anchor="start" x="219" y="-556.8" font-family="Times,serif" font-size="14.00">type</text>
<polygon fill="#e0ffe0" stroke="none" points="302,-550 302,-571 438,-571 438,-550 302,-550"/>
<polygon fill="none" stroke="black" points="302,-550 302,-571 438,-571 438,-550 302,-550"/>
<text text-anchor="start" x="363" y="-556.8" font-family="Times,serif" font-size="14.00">id</text>
<polygon fill="none" stroke="black" points="24,-529 24,-550 55,-550 55,-529 24,-529"/>
<text text-anchor="start" x="34.5" y="-535.8" font-family="Times,serif" font-size="14.00">0</text>
<polygon fill="none" stroke="black" points="55,-529 55,-550 168,-550 168,-529 55,-529"/>
<text text-anchor="start" x="106.5" y="-535.8" font-family="Times,serif" font-size="14.00">1</text>
<polygon fill="none" stroke="black" points="168,-529 168,-550 302,-550 302,-529 168,-529"/>
<text text-anchor="start" x="225.5" y="-535.8" font-family="Times,serif" font-size="14.00">u1</text>
<polygon fill="none" stroke="black" points="302,-529 302,-550 438,-550 438,-529 302,-529"/>
<text text-anchor="start" x="360.5" y="-535.8" font-family="Times,serif" font-size="14.00">b1</text>
<polygon fill="none" stroke="black" points="24,-508 24,-529 55,-529 55,-508 24,-508"/>
<text text-anchor="start" x="34.5" y="-514.8" font-family="Times,serif" font-size="14.00">1</text>
<polygon fill="none" stroke="black" points="55,-508 55,-529 168,-529 168,-508 55,-508"/>
<text text-anchor="start" x="106.5" y="-514.8" font-family="Times,serif" font-size="14.00">1</text>
<polygon fill="none" stroke="black" points="168,-508 168,-529 302,-529 302,-508 168,-508"/>
<text text-anchor="start" x="225.5" y="-514.8" font-family="Times,serif" font-size="14.00">u1</text>
<polygon fill="none" stroke="black" points="302,-508 302,-529 438,-529 438,-508 302,-508"/>
<text text-anchor="start" x="360.5" y="-514.8" font-family="Times,serif" font-size="14.00">b2</text>
<polygon fill="none" stroke="black" points="24,-487 24,-508 55,-508 55,-487 24,-487"/>
<text text-anchor="start" x="34.5" y="-493.8" font-family="Times,serif" font-size="14.00">2</text>
<polygon fill="none" stroke="black" points="55,-487 55,-508 168,-508 168,-487 55,-487"/>
<text text-anchor="start" x="106.5" y="-493.8" font-family="Times,serif" font-size="14.00">2</text>
<polygon fill="none" stroke="black" points="168,-487 168,-508 302,-508 302,-487 168,-487"/>
<text text-anchor="start" x="217" y="-493.8" font-family="Times,serif" font-size="14.00">u2be</text>
<polygon fill="none" stroke="black" points="302,-487 302,-508 438,-508 438,-487 302,-487"/>
<text text-anchor="start" x="326.5" y="-493.8" font-family="Times,serif" font-size="14.00">total_length</text>
<polygon fill="none" stroke="black" points="24,-466 24,-487 55,-487 55,-466 24,-466"/>
<text text-anchor="start" x="34.5" y="-472.8" font-family="Times,serif" font-size="14.00">4</text>
<polygon fill="none" stroke="black" points="55,-466 55,-487 168,-487 168,-466 55,-466"/>
<text text-anchor="start" x="106.5" y="-472.8" font-family="Times,serif" font-size="14.00">2</text>
<polygon fill="none" stroke="black" points="168,-466 168,-487 302,-487 302,-466 168,-466"/>
<text text-anchor="start" x="217" y="-472.8" font-family="Times,serif" font-size="14.00">u2be</text>
<polygon fill="none" stroke="black" points="302,-466 302,-487 438,-487 438,-466 302,-466"/>
<text text-anchor="start" x="322" y="-472.8" font-family="Times,serif" font-size="14.00">identification</text>
<polygon fill="none" stroke="black" points="24,-445 24,-466 55,-466 55,-445 24,-445"/>
<text text-anchor="start" x="34.5" y="-451.8" font-family="Times,serif" font-size="14.00">6</text>
<polygon fill="none" stroke="black" points="55,-445 55,-466 168,-466 168,-445 55,-445"/>
<text text-anchor="start" x="106.5" y="-451.8" font-family="Times,serif" font-size="14.00">2</text>
<polygon fill="none" stroke="black" points="168,-445 168,-466 302,-466 302,-445 168,-445"/>
<text text-anchor="start" x="217" y="-451.8" font-family="Times,serif" font-size="14.00">u2be</text>
<polygon fill="none" stroke="black" points="302,-445 302,-466 438,-466 438,-445 302,-445"/>
<text text-anchor="start" x="356" y="-451.8" font-family="Times,serif" font-size="14.00">b67</text>
<polygon fill="none" stroke="black" points="24,-424 24,-445 55,-445 55,-424 24,-424"/>
<text text-anchor="start" x="34.5" y="-430.8" font-family="Times,serif" font-size="14.00">8</text>
<polygon fill="none" stroke="black" points="55,-424 55,-445 168,-445 168,-424 55,-424"/>
<text text-anchor="start" x="106.5" y="-430.8" font-family="Times,serif" font-size="14.00">1</text>
<polygon fill="none" stroke="black" points="168,-424 168,-445 302,-445 302,-424 168,-424"/>
<text text-anchor="start" x="225.5" y="-430.8" font-family="Times,serif" font-size="14.00">u1</text>
<polygon fill="none" stroke="black" points="302,-424 302,-445 438,-445 438,-424 302,-424"/>
<text text-anchor="start" x="361.5" y="-430.8" font-family="Times,serif" font-size="14.00">ttl</text>
<polygon fill="none" stroke="black" points="24,-403 24,-424 55,-424 55,-403 24,-403"/>
<text text-anchor="start" x="34.5" y="-409.8" font-family="Times,serif" font-size="14.00">9</text>
<polygon fill="none" stroke="black" points="55,-403 55,-424 168,-424 168,-403 55,-403"/>
<text text-anchor="start" x="106.5" y="-409.8" font-family="Times,serif" font-size="14.00">1</text>
<polygon fill="none" stroke="black" points="168,-403 168,-424 302,-424 302,-403 168,-403"/>
<text text-anchor="start" x="171" y="-409.8" font-family="Times,serif" font-size="14.00">u1?ProtocolEnum</text>
<polygon fill="none" stroke="black" points="302,-403 302,-424 438,-424 438,-403 302,-403"/>
<text text-anchor="start" x="340" y="-409.8" font-family="Times,serif" font-size="14.00">protocol</text>
<polygon fill="none" stroke="black" points="24,-382 24,-403 55,-403 55,-382 24,-382"/>
<text text-anchor="start" x="30" y="-388.8" font-family="Times,serif" font-size="14.00">10</text>
<polygon fill="none" stroke="black" points="55,-382 55,-403 168,-403 168,-382 55,-382"/>
<text text-anchor="start" x="106.5" y="-388.8" font-family="Times,serif" font-size="14.00">2</text>
<polygon fill="none" stroke="black" points="168,-382 168,-403 302,-403 302,-382 168,-382"/>
<text text-anchor="start" x="217" y="-388.8" font-family="Times,serif" font-size="14.00">u2be</text>
<polygon fill="none" stroke="black" points="302,-382 302,-403 438,-403 438,-382 302,-382"/>
<text text-anchor="start" x="305" y="-388.8" font-family="Times,serif" font-size="14.00">header_checksum</text>
<polygon fill="none" stroke="black" points="24,-361 24,-382 55,-382 55,-361 24,-361"/>
<text text-anchor="start" x="30" y="-367.8" font-family="Times,serif" font-size="14.00">12</text>
<polygon fill="none" stroke="black" points="55,-361 55,-382 168,-382 168,-361 55,-361"/>
<text text-anchor="start" x="106.5" y="-367.8" font-family="Times,serif" font-size="14.00">4</text>
<polygon fill="none" stroke="black" points="168,-361 168,-382 302,-382 302,-361 168,-361"/>
<polygon fill="none" stroke="black" points="302,-361 302,-382 438,-382 438,-361 302,-361"/>
<text text-anchor="start" x="327.5" y="-367.8" font-family="Times,serif" font-size="14.00">src_ip_addr</text>
<polygon fill="none" stroke="black" points="24,-340 24,-361 55,-361 55,-340 24,-340"/>
<text text-anchor="start" x="30" y="-346.8" font-family="Times,serif" font-size="14.00">16</text>
<polygon fill="none" stroke="black" points="55,-340 55,-361 168,-361 168,-340 55,-340"/>
<text text-anchor="start" x="106.5" y="-346.8" font-family="Times,serif" font-size="14.00">4</text>
<polygon fill="none" stroke="black" points="168,-340 168,-361 302,-361 302,-340 168,-340"/>
<polygon fill="none" stroke="black" points="302,-340 302,-361 438,-361 438,-340 302,-340"/>
<text text-anchor="start" x="327.5" y="-346.8" font-family="Times,serif" font-size="14.00">dst_ip_addr</text>
<polygon fill="none" stroke="black" points="24,-319 24,-340 55,-340 55,-319 24,-319"/>
<text text-anchor="start" x="30" y="-325.8" font-family="Times,serif" font-size="14.00">20</text>
<polygon fill="none" stroke="black" points="55,-319 55,-340 168,-340 168,-319 55,-319"/>
<text text-anchor="start" x="58" y="-325.8" font-family="Times,serif" font-size="14.00">(ihl_bytes &#45; 20)</text>
<polygon fill="none" stroke="black" points="168,-319 168,-340 302,-340 302,-319 168,-319"/>
<text text-anchor="start" x="190.5" y="-325.8" font-family="Times,serif" font-size="14.00">Ipv4Options</text>
<polygon fill="none" stroke="black" points="302,-319 302,-340 438,-340 438,-319 302,-319"/>
<text text-anchor="start" x="343.5" y="-325.8" font-family="Times,serif" font-size="14.00">options</text>
<polygon fill="none" stroke="black" points="24,-298 24,-319 55,-319 55,-298 24,-298"/>
<text text-anchor="start" x="32.5" y="-304.8" font-family="Times,serif" font-size="14.00">...</text>
<polygon fill="none" stroke="black" points="55,-298 55,-319 168,-319 168,-298 55,-298"/>
<text text-anchor="start" x="104.5" y="-304.8" font-family="Times,serif" font-size="14.00">...</text>
<polygon fill="none" stroke="black" points="168,-298 168,-319 302,-319 302,-298 168,-298"/>
<text text-anchor="start" x="174" y="-304.8" font-family="Times,serif" font-size="14.00">switch (protocol)</text>
<polygon fill="none" stroke="black" points="302,-298 302,-319 438,-319 438,-298 302,-298"/>
<text text-anchor="start" x="352.5" y="-304.8" font-family="Times,serif" font-size="14.00">body</text>
</g>
<!-- ipv4_packet__seq&#45;&gt;ipv4_packet__seq -->
<g id="edge8" class="edge"><title>ipv4_packet__seq:protocol_type&#45;&gt;ipv4_packet__seq:body_type</title>
<path fill="none" stroke="#404040" d="M352.272,-424.094C272.407,-481.76 278.316,-593.5 370,-593.5 459.375,-593.5 467.241,-399.986 393.598,-325.848"/>
<polygon fill="#404040" stroke="#404040" points="395.946,-323.252 386.217,-319.056 391.206,-328.403 395.946,-323.252"/>
</g>
<!-- ipv4_packet__inst__version -->
<g id="node2" class="node"><title>ipv4_packet__inst__version</title>
<polygon fill="#e0ffe0" stroke="none" points="527,-569 527,-590 586,-590 586,-569 527,-569"/>
<polygon fill="none" stroke="black" points="527,-569 527,-590 586,-590 586,-569 527,-569"/>
<text text-anchor="start" x="549.5" y="-575.8" font-family="Times,serif" font-size="14.00">id</text>
<polygon fill="#e0ffe0" stroke="none" points="586,-569 586,-590 722,-590 722,-569 586,-569"/>
<polygon fill="none" stroke="black" points="586,-569 586,-590 722,-590 722,-569 586,-569"/>
<text text-anchor="start" x="634.5" y="-575.8" font-family="Times,serif" font-size="14.00">value</text>
<polygon fill="none" stroke="black" points="527,-548 527,-569 586,-569 586,-548 527,-548"/>
<text text-anchor="start" x="530" y="-554.8" font-family="Times,serif" font-size="14.00">version</text>
<polygon fill="none" stroke="black" points="586,-548 586,-569 722,-569 722,-548 586,-548"/>
<text text-anchor="start" x="589" y="-554.8" font-family="Times,serif" font-size="14.00">((b1 &amp; 240) &gt;&gt; 4)</text>
</g>
<!-- ipv4_packet__seq&#45;&gt;ipv4_packet__inst__version -->
<g id="edge9" class="edge"><title>ipv4_packet__seq:b1_type&#45;&gt;ipv4_packet__inst__version</title>
<path fill="none" stroke="#404040" d="M439,-540C461.536,-540 485.438,-542.149 508.291,-545.277"/>
<polygon fill="#404040" stroke="#404040" points="507.963,-548.766 518.36,-546.726 508.961,-541.837 507.963,-548.766"/>
</g>
<!-- ipv4_packet__inst__ihl -->
<g id="node3" class="node"><title>ipv4_packet__inst__ihl</title>
<polygon fill="#e0ffe0" stroke="none" points="574,-501 574,-522 599,-522 599,-501 574,-501"/>
<polygon fill="none" stroke="black" points="574,-501 574,-522 599,-522 599,-501 574,-501"/>
<text text-anchor="start" x="579.5" y="-507.8" font-family="Times,serif" font-size="14.00">id</text>
<polygon fill="#e0ffe0" stroke="none" points="599,-501 599,-522 674,-522 674,-501 599,-501"/>
<polygon fill="none" stroke="black" points="599,-501 599,-522 674,-522 674,-501 599,-501"/>
<text text-anchor="start" x="617" y="-507.8" font-family="Times,serif" font-size="14.00">value</text>
<polygon fill="none" stroke="black" points="574,-480 574,-501 599,-501 599,-480 574,-480"/>
<text text-anchor="start" x="577" y="-486.8" font-family="Times,serif" font-size="14.00">ihl</text>
<polygon fill="none" stroke="black" points="599,-480 599,-501 674,-501 674,-480 599,-480"/>
<text text-anchor="start" x="602" y="-486.8" font-family="Times,serif" font-size="14.00">(b1 &amp; 15)</text>
</g>
<!-- ipv4_packet__seq&#45;&gt;ipv4_packet__inst__ihl -->
<g id="edge10" class="edge"><title>ipv4_packet__seq:b1_type&#45;&gt;ipv4_packet__inst__ihl</title>
<path fill="none" stroke="#404040" d="M439,-540C461.494,-540 513.066,-528.705 555.905,-518.272"/>
<polygon fill="#404040" stroke="#404040" points="556.863,-521.641 565.739,-515.855 555.192,-514.843 556.863,-521.641"/>
</g>
<!-- ipv4_packet__seq_body_switch -->
<g id="node5" class="node"><title>ipv4_packet__seq_body_switch</title>
<polygon fill="#f0f2e4" stroke="none" points="490,-302 490,-323 650,-323 650,-302 490,-302"/>
<polygon fill="none" stroke="black" points="490,-302 490,-323 650,-323 650,-302 490,-302"/>
<text text-anchor="start" x="553.5" y="-308.8" font-family="Times,serif" font-size="14.00">case</text>
<polygon fill="#f0f2e4" stroke="none" points="650,-302 650,-323 758,-323 758,-302 650,-302"/>
<polygon fill="none" stroke="black" points="650,-302 650,-323 758,-323 758,-302 650,-302"/>
<text text-anchor="start" x="688" y="-308.8" font-family="Times,serif" font-size="14.00">type</text>
<polygon fill="none" stroke="black" points="490,-281 490,-302 650,-302 650,-281 490,-281"/>
<text text-anchor="start" x="499" y="-287.8" font-family="Times,serif" font-size="14.00">:protocol_enum_tcp</text>
<polygon fill="none" stroke="black" points="650,-281 650,-302 758,-302 758,-281 650,-281"/>
<text text-anchor="start" x="658.5" y="-287.8" font-family="Times,serif" font-size="14.00">TcpSegment</text>
<polygon fill="none" stroke="black" points="490,-260 490,-281 650,-281 650,-260 490,-260"/>
<text text-anchor="start" x="493" y="-266.8" font-family="Times,serif" font-size="14.00">:protocol_enum_icmp</text>
<polygon fill="none" stroke="black" points="650,-260 650,-281 758,-281 758,-260 650,-260"/>
<text text-anchor="start" x="661" y="-266.8" font-family="Times,serif" font-size="14.00">IcmpPacket</text>
<polygon fill="none" stroke="black" points="490,-239 490,-260 650,-260 650,-239 490,-239"/>
<text text-anchor="start" x="497" y="-245.8" font-family="Times,serif" font-size="14.00">:protocol_enum_udp</text>
<polygon fill="none" stroke="black" points="650,-239 650,-260 758,-260 758,-239 650,-239"/>
<text text-anchor="start" x="653" y="-245.8" font-family="Times,serif" font-size="14.00">UdpDatagram</text>
<polygon fill="none" stroke="black" points="490,-218 490,-239 650,-239 650,-218 490,-218"/>
<text text-anchor="start" x="495" y="-224.8" font-family="Times,serif" font-size="14.00">:protocol_enum_ipv6</text>
<polygon fill="none" stroke="black" points="650,-218 650,-239 758,-239 758,-218 650,-218"/>
<text text-anchor="start" x="663" y="-224.8" font-family="Times,serif" font-size="14.00">Ipv6Packet</text>
</g>
<!-- ipv4_packet__seq&#45;&gt;ipv4_packet__seq_body_switch -->
<g id="edge3" class="edge"><title>ipv4_packet__seq:body_type&#45;&gt;ipv4_packet__seq_body_switch</title>
<path fill="none" stroke="black" stroke-width="2" d="M439,-308C449.727,-308 460.738,-307.388 471.783,-306.322"/>
<polygon fill="black" stroke="black" stroke-width="2" points="472.365,-309.779 481.928,-305.219 471.609,-302.82 472.365,-309.779"/>
</g>
<!-- ipv4_options__seq -->
<g id="node6" class="node"><title>ipv4_options__seq</title>
<polygon fill="#e0ffe0" stroke="none" points="519,-391 519,-412 550,-412 550,-391 519,-391"/>
<polygon fill="none" stroke="black" points="519,-391 519,-412 550,-412 550,-391 519,-391"/>
<text text-anchor="start" x="522" y="-397.8" font-family="Times,serif" font-size="14.00">pos</text>
<polygon fill="#e0ffe0" stroke="none" points="550,-391 550,-412 584,-412 584,-391 550,-391"/>
<polygon fill="none" stroke="black" points="550,-391 550,-412 584,-412 584,-391 550,-391"/>
<text text-anchor="start" x="553" y="-397.8" font-family="Times,serif" font-size="14.00">size</text>
<polygon fill="#e0ffe0" stroke="none" points="584,-391 584,-412 672,-412 672,-391 584,-391"/>
<polygon fill="none" stroke="black" points="584,-391 584,-412 672,-412 672,-391 584,-391"/>
<text text-anchor="start" x="612" y="-397.8" font-family="Times,serif" font-size="14.00">type</text>
<polygon fill="#e0ffe0" stroke="none" points="672,-391 672,-412 729,-412 729,-391 672,-391"/>
<polygon fill="none" stroke="black" points="672,-391 672,-412 729,-412 729,-391 672,-391"/>
<text text-anchor="start" x="693.5" y="-397.8" font-family="Times,serif" font-size="14.00">id</text>
<polygon fill="none" stroke="black" points="519,-370 519,-391 550,-391 550,-370 519,-370"/>
<text text-anchor="start" x="529.5" y="-376.8" font-family="Times,serif" font-size="14.00">0</text>
<polygon fill="none" stroke="black" points="550,-370 550,-391 584,-391 584,-370 550,-370"/>
<text text-anchor="start" x="560" y="-376.8" font-family="Times,serif" font-size="14.00">...</text>
<polygon fill="none" stroke="black" points="584,-370 584,-391 672,-391 672,-370 584,-370"/>
<text text-anchor="start" x="587" y="-376.8" font-family="Times,serif" font-size="14.00">Ipv4Option</text>
<polygon fill="none" stroke="black" points="672,-370 672,-391 729,-391 729,-370 672,-370"/>
<text text-anchor="start" x="675" y="-376.8" font-family="Times,serif" font-size="14.00">entries</text>
<polygon fill="none" stroke="black" points="519,-349 519,-370 729,-370 729,-349 519,-349"/>
<text text-anchor="start" x="539.5" y="-355.8" font-family="Times,serif" font-size="14.00">repeat to end of stream</text>
</g>
<!-- ipv4_packet__seq&#45;&gt;ipv4_options__seq -->
<g id="edge2" class="edge"><title>ipv4_packet__seq:options_type&#45;&gt;ipv4_options__seq</title>
<path fill="none" stroke="black" stroke-width="2" d="M439,-329C439.258,-329 467.186,-336.876 501.207,-346.498"/>
<polygon fill="black" stroke="black" stroke-width="2" points="500.371,-349.899 510.946,-349.253 502.276,-343.163 500.371,-349.899"/>
</g>
<!-- ipv4_packet__inst__ihl_bytes -->
<g id="node4" class="node"><title>ipv4_packet__inst__ihl_bytes</title>
<polygon fill="#e0ffe0" stroke="none" points="880.5,-501 880.5,-522 951.5,-522 951.5,-501 880.5,-501"/>
<polygon fill="none" stroke="black" points="880.5,-501 880.5,-522 951.5,-522 951.5,-501 880.5,-501"/>
<text text-anchor="start" x="909" y="-507.8" font-family="Times,serif" font-size="14.00">id</text>
<polygon fill="#e0ffe0" stroke="none" points="951.5,-501 951.5,-522 1012.5,-522 1012.5,-501 951.5,-501"/>
<polygon fill="none" stroke="black" points="951.5,-501 951.5,-522 1012.5,-522 1012.5,-501 951.5,-501"/>
<text text-anchor="start" x="962.5" y="-507.8" font-family="Times,serif" font-size="14.00">value</text>
<polygon fill="none" stroke="black" points="880.5,-480 880.5,-501 951.5,-501 951.5,-480 880.5,-480"/>
<text text-anchor="start" x="883.5" y="-486.8" font-family="Times,serif" font-size="14.00">ihl_bytes</text>
<polygon fill="none" stroke="black" points="951.5,-480 951.5,-501 1012.5,-501 1012.5,-480 951.5,-480"/>
<text text-anchor="start" x="954.5" y="-486.8" font-family="Times,serif" font-size="14.00">(ihl * 4)</text>
</g>
<!-- ipv4_packet__inst__ihl&#45;&gt;ipv4_packet__inst__ihl_bytes -->
<g id="edge11" class="edge"><title>ipv4_packet__inst__ihl:ihl_type&#45;&gt;ipv4_packet__inst__ihl_bytes</title>
<path fill="none" stroke="#404040" d="M682.299,-501C732.302,-501 805.497,-501 862.014,-501"/>
<polygon fill="#404040" stroke="#404040" points="862.363,-504.5 872.363,-501 862.363,-497.5 862.363,-504.5"/>
</g>
<!-- ipv4_packet__inst__ihl_bytes&#45;&gt;ipv4_packet__seq -->
<g id="edge1" class="edge"><title>ipv4_packet__inst__ihl_bytes:ihl_bytes_type&#45;&gt;ipv4_packet__seq:options_size</title>
<path fill="none" stroke="#404040" d="M872.484,-486.938C825.248,-477.879 771.54,-467.668 766,-467 640.511,-451.871 606.198,-475.481 482,-452 354.834,-427.958 211.245,-371.224 146.688,-344.038"/>
<polygon fill="#404040" stroke="#404040" points="147.957,-340.774 137.384,-340.093 145.224,-347.219 147.957,-340.774"/>
</g>
<!-- tcp_segment__seq -->
<g id="node11" class="node"><title>tcp_segment__seq</title>
<text text-anchor="middle" x="946.5" y="-176.3" font-family="Times,serif" font-size="14.00">tcp_segment__seq</text>
</g>
<!-- ipv4_packet__seq_body_switch&#45;&gt;tcp_segment__seq -->
<g id="edge4" class="edge"><title>ipv4_packet__seq_body_switch:case0&#45;&gt;tcp_segment__seq</title>
<path fill="none" stroke="black" stroke-width="2" d="M759,-292C787.228,-292 772.037,-256.734 794,-239 814.26,-222.641 839.592,-210.411 863.71,-201.458"/>
<polygon fill="black" stroke="black" stroke-width="2" points="864.991,-204.717 873.236,-198.064 862.641,-198.123 864.991,-204.717"/>
</g>
<!-- icmp_packet__seq -->
<g id="node12" class="node"><title>icmp_packet__seq</title>
<text text-anchor="middle" x="946.5" y="-122.3" font-family="Times,serif" font-size="14.00">icmp_packet__seq</text>
</g>
<!-- ipv4_packet__seq_body_switch&#45;&gt;icmp_packet__seq -->
<g id="edge5" class="edge"><title>ipv4_packet__seq_body_switch:case1&#45;&gt;icmp_packet__seq</title>
<path fill="none" stroke="black" stroke-width="2" d="M759,-270C813.277,-270 753.491,-189.125 794,-153 812.577,-136.434 837.697,-128.35 862.138,-124.768"/>
<polygon fill="black" stroke="black" stroke-width="2" points="862.684,-128.227 872.183,-123.533 861.83,-121.279 862.684,-128.227"/>
</g>
<!-- udp_datagram__seq -->
<g id="node13" class="node"><title>udp_datagram__seq</title>
<text text-anchor="middle" x="946.5" y="-68.3" font-family="Times,serif" font-size="14.00">udp_datagram__seq</text>
</g>
<!-- ipv4_packet__seq_body_switch&#45;&gt;udp_datagram__seq -->
<g id="edge6" class="edge"><title>ipv4_packet__seq_body_switch:case2&#45;&gt;udp_datagram__seq</title>
<path fill="none" stroke="black" stroke-width="2" d="M759,-249C827.457,-249 744.331,-146.11 794,-99 810.801,-83.0646 833.592,-74.8246 856.39,-70.896"/>
<polygon fill="black" stroke="black" stroke-width="2" points="857.102,-74.3293 866.493,-69.4241 856.093,-67.4024 857.102,-74.3293"/>
</g>
<!-- ipv6_packet__seq -->
<g id="node14" class="node"><title>ipv6_packet__seq</title>
<text text-anchor="middle" x="946.5" y="-14.3" font-family="Times,serif" font-size="14.00">ipv6_packet__seq</text>
</g>
<!-- ipv4_packet__seq_body_switch&#45;&gt;ipv6_packet__seq -->
<g id="edge7" class="edge"><title>ipv4_packet__seq_body_switch:case3&#45;&gt;ipv6_packet__seq</title>
<path fill="none" stroke="black" stroke-width="2" d="M759,-228C841.808,-228 735.078,-103.183 794,-45 812.545,-26.6878 838.955,-18.4111 864.543,-15.1807"/>
<polygon fill="black" stroke="black" stroke-width="2" points="865.075,-18.6446 874.669,-14.1493 864.366,-11.6807 865.075,-18.6446"/>
</g>
<!-- ipv4_option__seq -->
<g id="node7" class="node"><title>ipv4_option__seq</title>
<polygon fill="#e0ffe0" stroke="none" points="810.5,-365 810.5,-386 841.5,-386 841.5,-365 810.5,-365"/>
<polygon fill="none" stroke="black" points="810.5,-365 810.5,-386 841.5,-386 841.5,-365 810.5,-365"/>
<text text-anchor="start" x="813.5" y="-371.8" font-family="Times,serif" font-size="14.00">pos</text>
<polygon fill="#e0ffe0" stroke="none" points="841.5,-365 841.5,-386 1004.5,-386 1004.5,-365 841.5,-365"/>
<polygon fill="none" stroke="black" points="841.5,-365 841.5,-386 1004.5,-386 1004.5,-365 841.5,-365"/>
<text text-anchor="start" x="909" y="-371.8" font-family="Times,serif" font-size="14.00">size</text>
<polygon fill="#e0ffe0" stroke="none" points="1004.5,-365 1004.5,-386 1042.5,-386 1042.5,-365 1004.5,-365"/>
<polygon fill="none" stroke="black" points="1004.5,-365 1004.5,-386 1042.5,-386 1042.5,-365 1004.5,-365"/>
<text text-anchor="start" x="1007.5" y="-371.8" font-family="Times,serif" font-size="14.00">type</text>
<polygon fill="#e0ffe0" stroke="none" points="1042.5,-365 1042.5,-386 1083.5,-386 1083.5,-365 1042.5,-365"/>
<polygon fill="none" stroke="black" points="1042.5,-365 1042.5,-386 1083.5,-386 1083.5,-365 1042.5,-365"/>
<text text-anchor="start" x="1056" y="-371.8" font-family="Times,serif" font-size="14.00">id</text>
<polygon fill="none" stroke="black" points="810.5,-344 810.5,-365 841.5,-365 841.5,-344 810.5,-344"/>
<text text-anchor="start" x="821" y="-350.8" font-family="Times,serif" font-size="14.00">0</text>
<polygon fill="none" stroke="black" points="841.5,-344 841.5,-365 1004.5,-365 1004.5,-344 841.5,-344"/>
<text text-anchor="start" x="918" y="-350.8" font-family="Times,serif" font-size="14.00">1</text>
<polygon fill="none" stroke="black" points="1004.5,-344 1004.5,-365 1042.5,-365 1042.5,-344 1004.5,-344"/>
<text text-anchor="start" x="1014" y="-350.8" font-family="Times,serif" font-size="14.00">u1</text>
<polygon fill="none" stroke="black" points="1042.5,-344 1042.5,-365 1083.5,-365 1083.5,-344 1042.5,-344"/>
<text text-anchor="start" x="1053.5" y="-350.8" font-family="Times,serif" font-size="14.00">b1</text>
<polygon fill="none" stroke="black" points="810.5,-323 810.5,-344 841.5,-344 841.5,-323 810.5,-323"/>
<text text-anchor="start" x="821" y="-329.8" font-family="Times,serif" font-size="14.00">1</text>
<polygon fill="none" stroke="black" points="841.5,-323 841.5,-344 1004.5,-344 1004.5,-323 841.5,-323"/>
<text text-anchor="start" x="918" y="-329.8" font-family="Times,serif" font-size="14.00">1</text>
<polygon fill="none" stroke="black" points="1004.5,-323 1004.5,-344 1042.5,-344 1042.5,-323 1004.5,-323"/>
<text text-anchor="start" x="1014" y="-329.8" font-family="Times,serif" font-size="14.00">u1</text>
<polygon fill="none" stroke="black" points="1042.5,-323 1042.5,-344 1083.5,-344 1083.5,-323 1042.5,-323"/>
<text text-anchor="start" x="1052" y="-329.8" font-family="Times,serif" font-size="14.00">len</text>
<polygon fill="none" stroke="black" points="810.5,-302 810.5,-323 841.5,-323 841.5,-302 810.5,-302"/>
<text text-anchor="start" x="821" y="-308.8" font-family="Times,serif" font-size="14.00">2</text>
<polygon fill="none" stroke="black" points="841.5,-302 841.5,-323 1004.5,-323 1004.5,-302 841.5,-302"/>
<text text-anchor="start" x="844.5" y="-308.8" font-family="Times,serif" font-size="14.00">(len &gt; 2 ? (len &#45; 2) : 0)</text>
<polygon fill="none" stroke="black" points="1004.5,-302 1004.5,-323 1042.5,-323 1042.5,-302 1004.5,-302"/>
<polygon fill="none" stroke="black" points="1042.5,-302 1042.5,-323 1083.5,-323 1083.5,-302 1042.5,-302"/>
<text text-anchor="start" x="1045.5" y="-308.8" font-family="Times,serif" font-size="14.00">body</text>
</g>
<!-- ipv4_options__seq&#45;&gt;ipv4_option__seq -->
<g id="edge12" class="edge"><title>ipv4_options__seq:entries_type&#45;&gt;ipv4_option__seq</title>
<path fill="none" stroke="black" stroke-width="2" d="M730,-380C750.047,-380 771.002,-378.466 791.636,-376.03"/>
<polygon fill="black" stroke="black" stroke-width="2" points="792.246,-379.481 801.733,-374.765 791.376,-372.536 792.246,-379.481"/>
</g>
<!-- ipv4_option__seq&#45;&gt;ipv4_option__seq -->
<g id="edge13" class="edge"><title>ipv4_option__seq:len_type&#45;&gt;ipv4_option__seq:body_size</title>
<path fill="none" stroke="#404040" d="M1076.64,-344.017C1097.28,-368.725 1084.11,-408 993,-408 909.303,-408 891.382,-361.884 905.019,-331.782"/>
<polygon fill="#404040" stroke="#404040" points="908.125,-333.407 910.226,-323.022 902.108,-329.83 908.125,-333.407"/>
</g>
<!-- ipv4_option__seq&#45;&gt;ipv4_option__seq -->
<g id="edge14" class="edge"><title>ipv4_option__seq:len_type&#45;&gt;ipv4_option__seq:body_size</title>
<path fill="none" stroke="#404040" d="M1083.8,-342.806C1133.91,-373.454 1120.47,-426 993,-426 873.784,-426 854.305,-365.342 893.28,-329.514"/>
<polygon fill="#404040" stroke="#404040" points="895.621,-332.124 901.227,-323.134 891.239,-326.665 895.621,-332.124"/>
</g>
<!-- ipv4_option__inst__copy -->
<g id="node8" class="node"><title>ipv4_option__inst__copy</title>
<polygon fill="#e0ffe0" stroke="none" points="1147,-276 1147,-297 1187,-297 1187,-276 1147,-276"/>
<polygon fill="none" stroke="black" points="1147,-276 1147,-297 1187,-297 1187,-276 1147,-276"/>
<text text-anchor="start" x="1160" y="-282.8" font-family="Times,serif" font-size="14.00">id</text>
<polygon fill="#e0ffe0" stroke="none" points="1187,-276 1187,-297 1323,-297 1323,-276 1187,-276"/>
<polygon fill="none" stroke="black" points="1187,-276 1187,-297 1323,-297 1323,-276 1187,-276"/>
<text text-anchor="start" x="1235.5" y="-282.8" font-family="Times,serif" font-size="14.00">value</text>
<polygon fill="none" stroke="black" points="1147,-255 1147,-276 1187,-276 1187,-255 1147,-255"/>
<text text-anchor="start" x="1150" y="-261.8" font-family="Times,serif" font-size="14.00">copy</text>
<polygon fill="none" stroke="black" points="1187,-255 1187,-276 1323,-276 1323,-255 1187,-255"/>
<text text-anchor="start" x="1190" y="-261.8" font-family="Times,serif" font-size="14.00">((b1 &amp; 128) &gt;&gt; 7)</text>
</g>
<!-- ipv4_option__seq&#45;&gt;ipv4_option__inst__copy -->
<g id="edge15" class="edge"><title>ipv4_option__seq:b1_type&#45;&gt;ipv4_option__inst__copy</title>
<path fill="none" stroke="#404040" d="M1084.5,-355C1112.01,-355 1103.7,-324.632 1127,-310 1129.44,-308.469 1131.95,-307.002 1134.52,-305.596"/>
<polygon fill="#404040" stroke="#404040" points="1136.13,-308.702 1143.46,-301.048 1132.96,-302.464 1136.13,-308.702"/>
</g>
<!-- ipv4_option__inst__opt_class -->
<g id="node9" class="node"><title>ipv4_option__inst__opt_class</title>
<polygon fill="#e0ffe0" stroke="none" points="1135,-344 1135,-365 1208,-365 1208,-344 1135,-344"/>
<polygon fill="none" stroke="black" points="1135,-344 1135,-365 1208,-365 1208,-344 1135,-344"/>
<text text-anchor="start" x="1164.5" y="-350.8" font-family="Times,serif" font-size="14.00">id</text>
<polygon fill="#e0ffe0" stroke="none" points="1208,-344 1208,-365 1335,-365 1335,-344 1208,-344"/>
<polygon fill="none" stroke="black" points="1208,-344 1208,-365 1335,-365 1335,-344 1208,-344"/>
<text text-anchor="start" x="1252" y="-350.8" font-family="Times,serif" font-size="14.00">value</text>
<polygon fill="none" stroke="black" points="1135,-323 1135,-344 1208,-344 1208,-323 1135,-323"/>
<text text-anchor="start" x="1138" y="-329.8" font-family="Times,serif" font-size="14.00">opt_class</text>
<polygon fill="none" stroke="black" points="1208,-323 1208,-344 1335,-344 1335,-323 1208,-323"/>
<text text-anchor="start" x="1211" y="-329.8" font-family="Times,serif" font-size="14.00">((b1 &amp; 96) &gt;&gt; 5)</text>
</g>
<!-- ipv4_option__seq&#45;&gt;ipv4_option__inst__opt_class -->
<g id="edge16" class="edge"><title>ipv4_option__seq:b1_type&#45;&gt;ipv4_option__inst__opt_class</title>
<path fill="none" stroke="#404040" d="M1084.5,-355C1094.85,-355 1105.6,-354.734 1116.37,-354.286"/>
<polygon fill="#404040" stroke="#404040" points="1116.86,-357.766 1126.68,-353.802 1116.53,-350.774 1116.86,-357.766"/>
</g>
<!-- ipv4_option__inst__number -->
<g id="node10" class="node"><title>ipv4_option__inst__number</title>
<polygon fill="#e0ffe0" stroke="none" points="1167,-412 1167,-433 1229,-433 1229,-412 1167,-412"/>
<polygon fill="none" stroke="black" points="1167,-412 1167,-433 1229,-433 1229,-412 1167,-412"/>
<text text-anchor="start" x="1191" y="-418.8" font-family="Times,serif" font-size="14.00">id</text>
<polygon fill="#e0ffe0" stroke="none" points="1229,-412 1229,-433 1304,-433 1304,-412 1229,-412"/>
<polygon fill="none" stroke="black" points="1229,-412 1229,-433 1304,-433 1304,-412 1229,-412"/>
<text text-anchor="start" x="1247" y="-418.8" font-family="Times,serif" font-size="14.00">value</text>
<polygon fill="none" stroke="black" points="1167,-391 1167,-412 1229,-412 1229,-391 1167,-391"/>
<text text-anchor="start" x="1170" y="-397.8" font-family="Times,serif" font-size="14.00">number</text>
<polygon fill="none" stroke="black" points="1229,-391 1229,-412 1304,-412 1304,-391 1229,-391"/>
<text text-anchor="start" x="1232" y="-397.8" font-family="Times,serif" font-size="14.00">(b1 &amp; 31)</text>
</g>
<!-- ipv4_option__seq&#45;&gt;ipv4_option__inst__number -->
<g id="edge17" class="edge"><title>ipv4_option__seq:b1_type&#45;&gt;ipv4_option__inst__number</title>
<path fill="none" stroke="#404040" d="M1084.5,-355C1105.98,-355 1107.23,-369.6 1127,-378 1134,-380.975 1141.35,-383.833 1148.79,-386.541"/>
<polygon fill="#404040" stroke="#404040" points="1147.63,-389.845 1158.23,-389.887 1149.97,-383.247 1147.63,-389.845"/>
</g>
</g>
</svg>
