<?xml version="1.0" encoding="UTF-8" standalone="no"?>
<!DOCTYPE svg PUBLIC "-//W3C//DTD SVG 1.1//EN"
 "http://www.w3.org/Graphics/SVG/1.1/DTD/svg11.dtd">
<!-- Generated by graphviz version 2.38.0 (20140413.2041)
 -->
<!-- Title: %3 Pages: 1 -->
<svg width="1141pt" height="641pt"
 viewBox="0.00 0.00 1141.00 641.00" xmlns="http://www.w3.org/2000/svg" xmlns:xlink="http://www.w3.org/1999/xlink">
<g id="graph0" class="graph" transform="scale(1 1) rotate(0) translate(4 637)">
<title>%3</title>
<polygon fill="white" stroke="none" points="-4,4 -4,-637 1137,-637 1137,4 -4,4"/>
<g id="clust1" class="cluster"><title>cluster__ipv4_packet</title>
<polygon fill="none" stroke="black" stroke-dasharray="1,5" points="8,-206 8,-625 1125,-625 1125,-206 8,-206"/>
<text text-anchor="middle" x="566.5" y="-609.8" font-family="Times,serif" font-size="14.00">Ipv4Packet</text>
</g>
<g id="clust2" class="cluster"><title>cluster__ipv4_options</title>
<polygon fill="none" stroke="black" stroke-dasharray="1,5" points="416,-337 416,-448 613,-448 613,-337 416,-337"/>
<text text-anchor="middle" x="514.5" y="-432.8" font-family="Times,serif" font-size="14.00">Ipv4Packet::Ipv4Options</text>
</g>
<g id="clust3" class="cluster"><title>cluster__ipv4_option</title>
<polygon fill="none" stroke="black" stroke-dasharray="1,5" points="656,-243 656,-468 1117,-468 1117,-243 656,-243"/>
<text text-anchor="middle" x="886.5" y="-452.8" font-family="Times,serif" font-size="14.00">Ipv4Packet::Ipv4Option</text>
</g>
<!-- ipv4_packet__seq -->
<g id="node1" class="node"><title>ipv4_packet__seq</title>
<polygon fill="#e0ffe0" stroke="none" points="24.5,-550 24.5,-571 49.5,-571 49.5,-550 24.5,-550"/>
<polygon fill="none" stroke="black" points="24.5,-550 24.5,-571 49.5,-571 49.5,-550 24.5,-550"/>
<text text-anchor="start" x="27.5" y="-556.8" font-family="Times,serif" font-size="14.00">pos</text>
<polygon fill="#e0ffe0" stroke="none" points="49.5,-550 49.5,-571 140.5,-571 140.5,-550 49.5,-550"/>
<polygon fill="none" stroke="black" points="49.5,-550 49.5,-571 140.5,-571 140.5,-550 49.5,-550"/>
<text text-anchor="start" x="84" y="-556.8" font-family="Times,serif" font-size="14.00">size</text>
<polygon fill="#e0ffe0" stroke="none" points="140.5,-550 140.5,-571 253.5,-571 253.5,-550 140.5,-550"/>
<polygon fill="none" stroke="black" points="140.5,-550 140.5,-571 253.5,-571 253.5,-550 140.5,-550"/>
<text text-anchor="start" x="185" y="-556.8" font-family="Times,serif" font-size="14.00">type</text>
<polygon fill="#e0ffe0" stroke="none" points="253.5,-550 253.5,-571 357.5,-571 357.5,-550 253.5,-550"/>
<polygon fill="none" stroke="black" points="253.5,-550 253.5,-571 357.5,-571 357.5,-550 253.5,-550"/>
<text text-anchor="start" x="300" y="-556.8" font-family="Times,serif" font-size="14.00">id</text>
<polygon fill="none" stroke="black" points="24.5,-529 24.5,-550 49.5,-550 49.5,-529 24.5,-529"/>
<text text-anchor="start" x="33.5" y="-535.8" font-family="Times,serif" font-size="14.00">0</text>
<polygon fill="none" stroke="black" points="49.5,-529 49.5,-550 140.5,-550 140.5,-529 49.5,-529"/>
<text text-anchor="start" x="91.5" y="-535.8" font-family="Times,serif" font-size="14.00">1</text>
<polygon fill="none" stroke="black" points="140.5,-529 140.5,-550 253.5,-550 253.5,-529 140.5,-529"/>
<text text-anchor="start" x="190" y="-535.8" font-family="Times,serif" font-size="14.00">u1</text>
<polygon fill="none" stroke="black" points="253.5,-529 253.5,-550 357.5,-550 357.5,-529 253.5,-529"/>
<text text-anchor="start" x="298.5" y="-535.8" font-family="Times,serif" font-size="14.00">b1</text>
<polygon fill="none" stroke="black" points="24.5,-508 24.5,-529 49.5,-529 49.5,-508 24.5,-508"/>
<text text-anchor="start" x="33.5" y="-514.8" font-family="Times,serif" font-size="14.00">1</text>
<polygon fill="none" stroke="black" points="49.5,-508 49.5,-529 140.5,-529 140.5,-508 49.5,-508"/>
<text text-anchor="start" x="91.5" y="-514.8" font-family="Times,serif" font-size="14.00">1</text>
<polygon fill="none" stroke="black" points="140.5,-508 140.5,-529 253.5,-529 253.5,-508 140.5,-508"/>
<text text-anchor="start" x="190" y="-514.8" font-family="Times,serif" font-size="14.00">u1</text>
<polygon fill="none" stroke="black" points="253.5,-508 253.5,-529 357.5,-529 357.5,-508 253.5,-508"/>
<text text-anchor="start" x="298.5" y="-514.8" font-family="Times,serif" font-size="14.00">b2</text>
<polygon fill="none" stroke="black" points="24.5,-487 24.5,-508 49.5,-508 49.5,-487 24.5,-487"/>
<text text-anchor="start" x="33.5" y="-493.8" font-family="Times,serif" font-size="14.00">2</text>
<polygon fill="none" stroke="black" points="49.5,-487 49.5,-508 140.5,-508 140.5,-487 49.5,-487"/>
<text text-anchor="start" x="91.5" y="-493.8" font-family="Times,serif" font-size="14.00">2</text>
<polygon fill="none" stroke="black" points="140.5,-487 140.5,-508 253.5,-508 253.5,-487 140.5,-487"/>
<text text-anchor="start" x="183.5" y="-493.8" font-family="Times,serif" font-size="14.00">u2be</text>
<polygon fill="none" stroke="black" points="253.5,-487 253.5,-508 357.5,-508 357.5,-487 253.5,-487"/>
<text text-anchor="start" x="273" y="-493.8" font-family="Times,serif" font-size="14.00">total_length</text>
<polygon fill="none" stroke="black" points="24.5,-466 24.5,-487 49.5,-487 49.5,-466 24.5,-466"/>
<text text-anchor="start" x="33.5" y="-472.8" font-family="Times,serif" font-size="14.00">4</text>
<polygon fill="none" stroke="black" points="49.5,-466 49.5,-487 140.5,-487 140.5,-466 49.5,-466"/>
<text text-anchor="start" x="91.5" y="-472.8" font-family="Times,serif" font-size="14.00">2</text>
<polygon fill="none" stroke="black" points="140.5,-466 140.5,-487 253.5,-487 253.5,-466 140.5,-466"/>
<text text-anchor="start" x="183.5" y="-472.8" font-family="Times,serif" font-size="14.00">u2be</text>
<polygon fill="none" stroke="black" points="253.5,-466 253.5,-487 357.5,-487 357.5,-466 253.5,-466"/>
<text text-anchor="start" x="269" y="-472.8" font-family="Times,serif" font-size="14.00">identification</text>
<polygon fill="none" stroke="black" points="24.5,-445 24.5,-466 49.5,-466 49.5,-445 24.5,-445"/>
<text text-anchor="start" x="33.5" y="-451.8" font-family="Times,serif" font-size="14.00">6</text>
<polygon fill="none" stroke="black" points="49.5,-445 49.5,-466 140.5,-466 140.5,-445 49.5,-445"/>
<text text-anchor="start" x="91.5" y="-451.8" font-family="Times,serif" font-size="14.00">2</text>
<polygon fill="none" stroke="black" points="140.5,-445 140.5,-466 253.5,-466 253.5,-445 140.5,-445"/>
<text text-anchor="start" x="183.5" y="-451.8" font-family="Times,serif" font-size="14.00">u2be</text>
<polygon fill="none" stroke="black" points="253.5,-445 253.5,-466 357.5,-466 357.5,-445 253.5,-445"/>
<text text-anchor="start" x="295" y="-451.8" font-family="Times,serif" font-size="14.00">b67</text>
<polygon fill="none" stroke="black" points="24.5,-424 24.5,-445 49.5,-445 49.5,-424 24.5,-424"/>
<text text-anchor="start" x="33.5" y="-430.8" font-family="Times,serif" font-size="14.00">8</text>
<polygon fill="none" stroke="black" points="49.5,-424 49.5,-445 140.5,-445 140.5,-424 49.5,-424"/>
<text text-anchor="start" x="91.5" y="-430.8" font-family="Times,serif" font-size="14.00">1</text>
<polygon fill="none" stroke="black" points="140.5,-424 140.5,-445 253.5,-445 253.5,-424 140.5,-424"/>
<text text-anchor="start" x="190" y="-430.8" font-family="Times,serif" font-size="14.00">u1</text>
<polygon fill="none" stroke="black" points="253.5,-424 253.5,-445 357.5,-445 357.5,-424 253.5,-424"/>
<text text-anchor="start" x="299.5" y="-430.8" font-family="Times,serif" font-size="14.00">ttl</text>
<polygon fill="none" stroke="black" points="24.5,-403 24.5,-424 49.5,-424 49.5,-403 24.5,-403"/>
<text text-anchor="start" x="33.5" y="-409.8" font-family="Times,serif" font-size="14.00">9</text>
<polygon fill="none" stroke="black" points="49.5,-403 49.5,-424 140.5,-424 140.5,-403 49.5,-403"/>
<text text-anchor="start" x="91.5" y="-409.8" font-family="Times,serif" font-size="14.00">1</text>
<polygon fill="none" stroke="black" points="140.5,-403 140.5,-424 253.5,-424 253.5,-403 140.5,-403"/>
<text text-anchor="start" x="143.5" y="-409.8" font-family="Times,serif" font-size="14.00">u1→ProtocolEnum</text>
<polygon fill="none" stroke="black" points="253.5,-403 253.5,-424 357.5,-424 357.5,-403 253.5,-403"/>
<text text-anchor="start" x="282.5" y="-409.8" font-family="Times,serif" font-size="14.00">protocol</text>
<polygon fill="none" stroke="black" points="24.5,-382 24.5,-403 49.5,-403 49.5,-382 24.5,-382"/>
<text text-anchor="start" x="30" y="-388.8" font-family="Times,serif" font-size="14.00">10</text>
<polygon fill="none" stroke="black" points="49.5,-382 49.5,-403 140.5,-403 140.5,-382 49.5,-382"/>
<text text-anchor="start" x="91.5" y="-388.8" font-family="Times,serif" font-size="14.00">2</text>
<polygon fill="none" stroke="black" points="140.5,-382 140.5,-403 253.5,-403 253.5,-382 140.5,-382"/>
<text text-anchor="start" x="183.5" y="-388.8" font-family="Times,serif" font-size="14.00">u2be</text>
<polygon fill="none" stroke="black" points="253.5,-382 253.5,-403 357.5,-403 357.5,-382 253.5,-382"/>
<text text-anchor="start" x="256.5" y="-388.8" font-family="Times,serif" font-size="14.00">header_checksum</text>
<polygon fill="none" stroke="black" points="24.5,-361 24.5,-382 49.5,-382 49.5,-361 24.5,-361"/>
<text text-anchor="start" x="30" y="-367.8" font-family="Times,serif" font-size="14.00">12</text>
<polygon fill="none" stroke="black" points="49.5,-361 49.5,-382 140.5,-382 140.5,-361 49.5,-361"/>
<text text-anchor="start" x="91.5" y="-367.8" font-family="Times,serif" font-size="14.00">4</text>
<polygon fill="none" stroke="black" points="140.5,-361 140.5,-382 253.5,-382 253.5,-361 140.5,-361"/>
<polygon fill="none" stroke="black" points="253.5,-361 253.5,-382 357.5,-382 357.5,-361 253.5,-361"/>
<text text-anchor="start" x="273.5" y="-367.8" font-family="Times,serif" font-size="14.00">src_ip_addr</text>
<polygon fill="none" stroke="black" points="24.5,-340 24.5,-361 49.5,-361 49.5,-340 24.5,-340"/>
<text text-anchor="start" x="30" y="-346.8" font-family="Times,serif" font-size="14.00">16</text>
<polygon fill="none" stroke="black" points="49.5,-340 49.5,-361 140.5,-361 140.5,-340 49.5,-340"/>
<text text-anchor="start" x="91.5" y="-346.8" font-family="Times,serif" font-size="14.00">4</text>
<polygon fill="none" stroke="black" points="140.5,-340 140.5,-361 253.5,-361 253.5,-340 140.5,-340"/>
<polygon fill="none" stroke="black" points="253.5,-340 253.5,-361 357.5,-361 357.5,-340 253.5,-340"/>
<text text-anchor="start" x="273.5" y="-346.8" font-family="Times,serif" font-size="14.00">dst_ip_addr</text>
<polygon fill="none" stroke="black" points="24.5,-319 24.5,-340 49.5,-340 49.5,-319 24.5,-319"/>
<text text-anchor="start" x="30" y="-325.8" font-family="Times,serif" font-size="14.00">20</text>
<polygon fill="none" stroke="black" points="49.5,-319 49.5,-340 140.5,-340 140.5,-319 49.5,-319"/>
<text text-anchor="start" x="52.5" y="-325.8" font-family="Times,serif" font-size="14.00">(ihl_bytes &#45; 20)</text>
<polygon fill="none" stroke="black" points="140.5,-319 140.5,-340 253.5,-340 253.5,-319 140.5,-319"/>
<text text-anchor="start" x="163" y="-325.8" font-family="Times,serif" font-size="14.00">Ipv4Options</text>
<polygon fill="none" stroke="black" points="253.5,-319 253.5,-340 357.5,-340 357.5,-319 253.5,-319"/>
<text text-anchor="start" x="285.5" y="-325.8" font-family="Times,serif" font-size="14.00">options</text>
<polygon fill="none" stroke="black" points="24.5,-298 24.5,-319 49.5,-319 49.5,-298 24.5,-298"/>
<text text-anchor="start" x="31" y="-304.8" font-family="Times,serif" font-size="14.00">...</text>
<polygon fill="none" stroke="black" points="49.5,-298 49.5,-319 140.5,-319 140.5,-298 49.5,-298"/>
<text text-anchor="start" x="89" y="-304.8" font-family="Times,serif" font-size="14.00">...</text>
<polygon fill="none" stroke="black" points="140.5,-298 140.5,-319 253.5,-319 253.5,-298 140.5,-298"/>
<text text-anchor="start" x="150" y="-304.8" font-family="Times,serif" font-size="14.00">switch (protocol)</text>
<polygon fill="none" stroke="black" points="253.5,-298 253.5,-319 357.5,-319 357.5,-298 253.5,-298"/>
<text text-anchor="start" x="291.5" y="-304.8" font-family="Times,serif" font-size="14.00">body</text>
</g>
<!-- ipv4_packet__seq&#45;&gt;ipv4_packet__seq -->
<g id="edge8" class="edge"><title>ipv4_packet__seq:protocol_type&#45;&gt;ipv4_packet__seq:body_type</title>
<path fill="none" stroke="#404040" d="M290.847,-424.094C224.836,-481.76 229.721,-593.5 305.5,-593.5 379.073,-593.5 385.819,-401.544 325.738,-326.751"/>
<polygon fill="#404040" stroke="#404040" points="328.162,-324.209 318.904,-319.056 322.928,-328.857 328.162,-324.209"/>
</g>
<!-- ipv4_packet__inst__version -->
<g id="node2" class="node"><title>ipv4_packet__inst__version</title>
<polygon fill="#e0ffe0" stroke="none" points="437.5,-569 437.5,-590 483.5,-590 483.5,-569 437.5,-569"/>
<polygon fill="none" stroke="black" points="437.5,-569 437.5,-590 483.5,-590 483.5,-569 437.5,-569"/>
<text text-anchor="start" x="455" y="-575.8" font-family="Times,serif" font-size="14.00">id</text>
<polygon fill="#e0ffe0" stroke="none" points="483.5,-569 483.5,-590 591.5,-590 591.5,-569 483.5,-569"/>
<polygon fill="none" stroke="black" points="483.5,-569 483.5,-590 591.5,-590 591.5,-569 483.5,-569"/>
<text text-anchor="start" x="522.5" y="-575.8" font-family="Times,serif" font-size="14.00">value</text>
<polygon fill="none" stroke="black" points="437.5,-548 437.5,-569 483.5,-569 483.5,-548 437.5,-548"/>
<text text-anchor="start" x="440.5" y="-554.8" font-family="Times,serif" font-size="14.00">version</text>
<polygon fill="none" stroke="black" points="483.5,-548 483.5,-569 591.5,-569 591.5,-548 483.5,-548"/>
<text text-anchor="start" x="486.5" y="-554.8" font-family="Times,serif" font-size="14.00">((b1 &amp; 240) &gt;&gt; 4)</text>
</g>
<!-- ipv4_packet__seq&#45;&gt;ipv4_packet__inst__version -->
<g id="edge9" class="edge"><title>ipv4_packet__seq:b1_type&#45;&gt;ipv4_packet__inst__version</title>
<path fill="none" stroke="#404040" d="M358.5,-540C378.29,-540 399.262,-542.312 419.171,-545.631"/>
<polygon fill="#404040" stroke="#404040" points="418.704,-549.103 429.16,-547.393 419.92,-542.209 418.704,-549.103"/>
</g>
<!-- ipv4_packet__inst__ihl -->
<g id="node3" class="node"><title>ipv4_packet__inst__ihl</title>
<polygon fill="#e0ffe0" stroke="none" points="473.5,-501 473.5,-522 494.5,-522 494.5,-501 473.5,-501"/>
<polygon fill="none" stroke="black" points="473.5,-501 473.5,-522 494.5,-522 494.5,-501 473.5,-501"/>
<text text-anchor="start" x="478.5" y="-507.8" font-family="Times,serif" font-size="14.00">id</text>
<polygon fill="#e0ffe0" stroke="none" points="494.5,-501 494.5,-522 555.5,-522 555.5,-501 494.5,-501"/>
<polygon fill="none" stroke="black" points="494.5,-501 494.5,-522 555.5,-522 555.5,-501 494.5,-501"/>
<text text-anchor="start" x="510" y="-507.8" font-family="Times,serif" font-size="14.00">value</text>
<polygon fill="none" stroke="black" points="473.5,-480 473.5,-501 494.5,-501 494.5,-480 473.5,-480"/>
<text text-anchor="start" x="476.5" y="-486.8" font-family="Times,serif" font-size="14.00">ihl</text>
<polygon fill="none" stroke="black" points="494.5,-480 494.5,-501 555.5,-501 555.5,-480 494.5,-480"/>
<text text-anchor="start" x="497.5" y="-486.8" font-family="Times,serif" font-size="14.00">(b1 &amp; 15)</text>
</g>
<!-- ipv4_packet__seq&#45;&gt;ipv4_packet__inst__ihl -->
<g id="edge10" class="edge"><title>ipv4_packet__seq:b1_type&#45;&gt;ipv4_packet__inst__ihl</title>
<path fill="none" stroke="#404040" d="M358.5,-540C377.333,-540 419.771,-529.035 455.488,-518.734"/>
<polygon fill="#404040" stroke="#404040" points="456.738,-522.015 465.358,-515.855 454.778,-515.295 456.738,-522.015"/>
</g>
<!-- ipv4_packet__seq_body_switch -->
<g id="node5" class="node"><title>ipv4_packet__seq_body_switch</title>
<polygon fill="#f0f2e4" stroke="none" points="409.5,-302 409.5,-323 536.5,-323 536.5,-302 409.5,-302"/>
<polygon fill="none" stroke="black" points="409.5,-302 409.5,-323 536.5,-323 536.5,-302 409.5,-302"/>
<text text-anchor="start" x="461" y="-308.8" font-family="Times,serif" font-size="14.00">case</text>
<polygon fill="#f0f2e4" stroke="none" points="536.5,-302 536.5,-323 620.5,-323 620.5,-302 536.5,-302"/>
<polygon fill="none" stroke="black" points="536.5,-302 536.5,-323 620.5,-323 620.5,-302 536.5,-302"/>
<text text-anchor="start" x="566.5" y="-308.8" font-family="Times,serif" font-size="14.00">type</text>
<polygon fill="none" stroke="black" points="409.5,-281 409.5,-302 536.5,-302 536.5,-281 409.5,-281"/>
<text text-anchor="start" x="418" y="-287.8" font-family="Times,serif" font-size="14.00">:protocol_enum_tcp</text>
<polygon fill="none" stroke="black" points="536.5,-281 536.5,-302 620.5,-302 620.5,-281 536.5,-281"/>
<text text-anchor="start" x="543.5" y="-287.8" font-family="Times,serif" font-size="14.00">TcpSegment</text>
<polygon fill="none" stroke="black" points="409.5,-260 409.5,-281 536.5,-281 536.5,-260 409.5,-260"/>
<text text-anchor="start" x="412.5" y="-266.8" font-family="Times,serif" font-size="14.00">:protocol_enum_icmp</text>
<polygon fill="none" stroke="black" points="536.5,-260 536.5,-281 620.5,-281 620.5,-260 536.5,-260"/>
<text text-anchor="start" x="546" y="-266.8" font-family="Times,serif" font-size="14.00">IcmpPacket</text>
<polygon fill="none" stroke="black" points="409.5,-239 409.5,-260 536.5,-260 536.5,-239 409.5,-239"/>
<text text-anchor="start" x="416" y="-245.8" font-family="Times,serif" font-size="14.00">:protocol_enum_udp</text>
<polygon fill="none" stroke="black" points="536.5,-239 536.5,-260 620.5,-260 620.5,-239 536.5,-239"/>
<text text-anchor="start" x="539.5" y="-245.8" font-family="Times,serif" font-size="14.00">UdpDatagram</text>
<polygon fill="none" stroke="black" points="409.5,-218 409.5,-239 536.5,-239 536.5,-218 409.5,-218"/>
<text text-anchor="start" x="414" y="-224.8" font-family="Times,serif" font-size="14.00">:protocol_enum_ipv6</text>
<polygon fill="none" stroke="black" points="536.5,-218 536.5,-239 620.5,-239 620.5,-218 536.5,-218"/>
<text text-anchor="start" x="548" y="-224.8" font-family="Times,serif" font-size="14.00">Ipv6Packet</text>
</g>
<!-- ipv4_packet__seq&#45;&gt;ipv4_packet__seq_body_switch -->
<g id="edge3" class="edge"><title>ipv4_packet__seq:body_type&#45;&gt;ipv4_packet__seq_body_switch</title>
<path fill="none" stroke="black" stroke-width="2" d="M358.5,-308C369.091,-308 379.98,-307.173 390.842,-305.765"/>
<polygon fill="black" stroke="black" stroke-width="2" points="391.408,-309.22 400.8,-304.317 390.4,-302.293 391.408,-309.22"/>
</g>
<!-- ipv4_options__seq -->
<g id="node6" class="node"><title>ipv4_options__seq</title>
<polygon fill="#e0ffe0" stroke="none" points="432.5,-391 432.5,-412 457.5,-412 457.5,-391 432.5,-391"/>
<polygon fill="none" stroke="black" points="432.5,-391 432.5,-412 457.5,-412 457.5,-391 432.5,-391"/>
<text text-anchor="start" x="435.5" y="-397.8" font-family="Times,serif" font-size="14.00">pos</text>
<polygon fill="#e0ffe0" stroke="none" points="457.5,-391 457.5,-412 485.5,-412 485.5,-391 457.5,-391"/>
<polygon fill="none" stroke="black" points="457.5,-391 457.5,-412 485.5,-412 485.5,-391 457.5,-391"/>
<text text-anchor="start" x="460.5" y="-397.8" font-family="Times,serif" font-size="14.00">size</text>
<polygon fill="#e0ffe0" stroke="none" points="485.5,-391 485.5,-412 554.5,-412 554.5,-391 485.5,-391"/>
<polygon fill="none" stroke="black" points="485.5,-391 485.5,-412 554.5,-412 554.5,-391 485.5,-391"/>
<text text-anchor="start" x="508" y="-397.8" font-family="Times,serif" font-size="14.00">type</text>
<polygon fill="#e0ffe0" stroke="none" points="554.5,-391 554.5,-412 597.5,-412 597.5,-391 554.5,-391"/>
<polygon fill="none" stroke="black" points="554.5,-391 554.5,-412 597.5,-412 597.5,-391 554.5,-391"/>
<text text-anchor="start" x="570.5" y="-397.8" font-family="Times,serif" font-size="14.00">id</text>
<polygon fill="none" stroke="black" points="432.5,-370 432.5,-391 457.5,-391 457.5,-370 432.5,-370"/>
<text text-anchor="start" x="441.5" y="-376.8" font-family="Times,serif" font-size="14.00">0</text>
<polygon fill="none" stroke="black" points="457.5,-370 457.5,-391 485.5,-391 485.5,-370 457.5,-370"/>
<text text-anchor="start" x="465.5" y="-376.8" font-family="Times,serif" font-size="14.00">...</text>
<polygon fill="none" stroke="black" points="485.5,-370 485.5,-391 554.5,-391 554.5,-370 485.5,-370"/>
<text text-anchor="start" x="488.5" y="-376.8" font-family="Times,serif" font-size="14.00">Ipv4Option</text>
<polygon fill="none" stroke="black" points="554.5,-370 554.5,-391 597.5,-391 597.5,-370 554.5,-370"/>
<text text-anchor="start" x="557.5" y="-376.8" font-family="Times,serif" font-size="14.00">entries</text>
<polygon fill="none" stroke="black" points="432.5,-349 432.5,-370 597.5,-370 597.5,-349 432.5,-349"/>
<text text-anchor="start" x="451.5" y="-355.8" font-family="Times,serif" font-size="14.00">repeat to end of stream</text>
</g>
<!-- ipv4_packet__seq&#45;&gt;ipv4_options__seq -->
<g id="edge2" class="edge"><title>ipv4_packet__seq:options_type&#45;&gt;ipv4_options__seq</title>
<path fill="none" stroke="black" stroke-width="2" d="M358.5,-329C362.006,-329 385.906,-336.75 413.93,-346.266"/>
<polygon fill="black" stroke="black" stroke-width="2" points="412.974,-349.637 423.568,-349.552 415.233,-343.012 412.974,-349.637"/>
</g>
<!-- ipv4_packet__inst__ihl_bytes -->
<g id="node4" class="node"><title>ipv4_packet__inst__ihl_bytes</title>
<polygon fill="#e0ffe0" stroke="none" points="728.5,-501 728.5,-522 784.5,-522 784.5,-501 728.5,-501"/>
<polygon fill="none" stroke="black" points="728.5,-501 728.5,-522 784.5,-522 784.5,-501 728.5,-501"/>
<text text-anchor="start" x="751" y="-507.8" font-family="Times,serif" font-size="14.00">id</text>
<polygon fill="#e0ffe0" stroke="none" points="784.5,-501 784.5,-522 835.5,-522 835.5,-501 784.5,-501"/>
<polygon fill="none" stroke="black" points="784.5,-501 784.5,-522 835.5,-522 835.5,-501 784.5,-501"/>
<text text-anchor="start" x="795" y="-507.8" font-family="Times,serif" font-size="14.00">value</text>
<polygon fill="none" stroke="black" points="728.5,-480 728.5,-501 784.5,-501 784.5,-480 728.5,-480"/>
<text text-anchor="start" x="731.5" y="-486.8" font-family="Times,serif" font-size="14.00">ihl_bytes</text>
<polygon fill="none" stroke="black" points="784.5,-480 784.5,-501 835.5,-501 835.5,-480 784.5,-480"/>
<text text-anchor="start" x="787.5" y="-486.8" font-family="Times,serif" font-size="14.00">(ihl * 4)</text>
</g>
<!-- ipv4_packet__inst__ihl&#45;&gt;ipv4_packet__inst__ihl_bytes -->
<g id="edge11" class="edge"><title>ipv4_packet__inst__ihl:ihl_type&#45;&gt;ipv4_packet__inst__ihl_bytes</title>
<path fill="none" stroke="#404040" d="M563.797,-501C604.601,-501 663.597,-501 709.733,-501"/>
<polygon fill="#404040" stroke="#404040" points="709.967,-504.5 719.967,-501 709.967,-497.5 709.967,-504.5"/>
</g>
<!-- ipv4_packet__inst__ihl_bytes&#45;&gt;ipv4_packet__seq -->
<g id="edge1" class="edge"><title>ipv4_packet__inst__ihl_bytes:ihl_bytes_type&#45;&gt;ipv4_packet__seq:options_size</title>
<path fill="none" stroke="#404040" d="M719.903,-486.496C685.41,-478.438 645.654,-469.536 628,-467 527.918,-452.623 499.575,-474.496 401,-452 295.304,-427.879 178.581,-372.01 125.153,-344.657"/>
<polygon fill="#404040" stroke="#404040" points="126.721,-341.528 116.23,-340.052 123.511,-347.749 126.721,-341.528"/>
</g>
<!-- tcp_segment__seq -->
<g id="node11" class="node"><title>tcp_segment__seq</title>
<text text-anchor="middle" x="781.5" y="-176.3" font-family="Times,serif" font-size="14.00">tcp_segment__seq</text>
</g>
<!-- ipv4_packet__seq_body_switch&#45;&gt;tcp_segment__seq -->
<g id="edge4" class="edge"><title>ipv4_packet__seq_body_switch:case0&#45;&gt;tcp_segment__seq</title>
<path fill="none" stroke="black" stroke-width="2" d="M621.5,-292C649.606,-292 634.835,-257.494 656,-239 673.65,-223.578 696.03,-211.317 716.932,-202.058"/>
<polygon fill="black" stroke="black" stroke-width="2" points="718.585,-205.158 726.41,-198.014 715.838,-198.719 718.585,-205.158"/>
</g>
<!-- icmp_packet__seq -->
<g id="node12" class="node"><title>icmp_packet__seq</title>
<text text-anchor="middle" x="781.5" y="-122.3" font-family="Times,serif" font-size="14.00">icmp_packet__seq</text>
</g>
<!-- ipv4_packet__seq_body_switch&#45;&gt;icmp_packet__seq -->
<g id="edge5" class="edge"><title>ipv4_packet__seq_body_switch:case1&#45;&gt;icmp_packet__seq</title>
<path fill="none" stroke="black" stroke-width="2" d="M621.5,-270C675.714,-270 616.288,-189.907 656,-153 671.245,-138.832 692.105,-131.431 712.391,-127.738"/>
<polygon fill="black" stroke="black" stroke-width="2" points="712.93,-131.196 722.277,-126.209 711.86,-124.278 712.93,-131.196"/>
</g>
<!-- udp_datagram__seq -->
<g id="node13" class="node"><title>udp_datagram__seq</title>
<text text-anchor="middle" x="781.5" y="-68.3" font-family="Times,serif" font-size="14.00">udp_datagram__seq</text>
</g>
<!-- ipv4_packet__seq_body_switch&#45;&gt;udp_datagram__seq -->
<g id="edge6" class="edge"><title>ipv4_packet__seq_body_switch:case2&#45;&gt;udp_datagram__seq</title>
<path fill="none" stroke="black" stroke-width="2" d="M621.5,-249C689.907,-249 607.327,-147.068 656,-99 669.937,-85.2365 689.131,-77.7646 708.277,-73.8783"/>
<polygon fill="black" stroke="black" stroke-width="2" points="708.996,-77.306 718.256,-72.1585 707.807,-70.4077 708.996,-77.306"/>
</g>
<!-- ipv6_packet__seq -->
<g id="node14" class="node"><title>ipv6_packet__seq</title>
<text text-anchor="middle" x="781.5" y="-14.3" font-family="Times,serif" font-size="14.00">ipv6_packet__seq</text>
</g>
<!-- ipv4_packet__seq_body_switch&#45;&gt;ipv6_packet__seq -->
<g id="edge7" class="edge"><title>ipv4_packet__seq_body_switch:case3&#45;&gt;ipv6_packet__seq</title>
<path fill="none" stroke="black" stroke-width="2" d="M621.5,-228C704.266,-228 598.278,-104.316 656,-45 671.18,-29.4009 693.088,-21.805 714.308,-18.3645"/>
<polygon fill="black" stroke="black" stroke-width="2" points="714.861,-21.8218 724.309,-17.0272 713.933,-14.8835 714.861,-21.8218"/>
</g>
<!-- ipv4_option__seq -->
<g id="node7" class="node"><title>ipv4_option__seq</title>
<polygon fill="#e0ffe0" stroke="none" points="672.5,-365 672.5,-386 697.5,-386 697.5,-365 672.5,-365"/>
<polygon fill="none" stroke="black" points="672.5,-365 672.5,-386 697.5,-386 697.5,-365 672.5,-365"/>
<text text-anchor="start" x="675.5" y="-371.8" font-family="Times,serif" font-size="14.00">pos</text>
<polygon fill="#e0ffe0" stroke="none" points="697.5,-365 697.5,-386 827.5,-386 827.5,-365 697.5,-365"/>
<polygon fill="none" stroke="black" points="697.5,-365 697.5,-386 827.5,-386 827.5,-365 697.5,-365"/>
<text text-anchor="start" x="751.5" y="-371.8" font-family="Times,serif" font-size="14.00">size</text>
<polygon fill="#e0ffe0" stroke="none" points="827.5,-365 827.5,-386 857.5,-386 857.5,-365 827.5,-365"/>
<polygon fill="none" stroke="black" points="827.5,-365 827.5,-386 857.5,-386 857.5,-365 827.5,-365"/>
<text text-anchor="start" x="830.5" y="-371.8" font-family="Times,serif" font-size="14.00">type</text>
<polygon fill="#e0ffe0" stroke="none" points="857.5,-365 857.5,-386 891.5,-386 891.5,-365 857.5,-365"/>
<polygon fill="none" stroke="black" points="857.5,-365 857.5,-386 891.5,-386 891.5,-365 857.5,-365"/>
<text text-anchor="start" x="869" y="-371.8" font-family="Times,serif" font-size="14.00">id</text>
<polygon fill="none" stroke="black" points="672.5,-344 672.5,-365 697.5,-365 697.5,-344 672.5,-344"/>
<text text-anchor="start" x="681.5" y="-350.8" font-family="Times,serif" font-size="14.00">0</text>
<polygon fill="none" stroke="black" points="697.5,-344 697.5,-365 827.5,-365 827.5,-344 697.5,-344"/>
<text text-anchor="start" x="759" y="-350.8" font-family="Times,serif" font-size="14.00">1</text>
<polygon fill="none" stroke="black" points="827.5,-344 827.5,-365 857.5,-365 857.5,-344 827.5,-344"/>
<text text-anchor="start" x="835.5" y="-350.8" font-family="Times,serif" font-size="14.00">u1</text>
<polygon fill="none" stroke="black" points="857.5,-344 857.5,-365 891.5,-365 891.5,-344 857.5,-344"/>
<text text-anchor="start" x="867.5" y="-350.8" font-family="Times,serif" font-size="14.00">b1</text>
<polygon fill="none" stroke="black" points="672.5,-323 672.5,-344 697.5,-344 697.5,-323 672.5,-323"/>
<text text-anchor="start" x="681.5" y="-329.8" font-family="Times,serif" font-size="14.00">1</text>
<polygon fill="none" stroke="black" points="697.5,-323 697.5,-344 827.5,-344 827.5,-323 697.5,-323"/>
<text text-anchor="start" x="759" y="-329.8" font-family="Times,serif" font-size="14.00">1</text>
<polygon fill="none" stroke="black" points="827.5,-323 827.5,-344 857.5,-344 857.5,-323 827.5,-323"/>
<text text-anchor="start" x="835.5" y="-329.8" font-family="Times,serif" font-size="14.00">u1</text>
<polygon fill="none" stroke="black" points="857.5,-323 857.5,-344 891.5,-344 891.5,-323 857.5,-323"/>
<text text-anchor="start" x="866" y="-329.8" font-family="Times,serif" font-size="14.00">len</text>
<polygon fill="none" stroke="black" points="672.5,-302 672.5,-323 697.5,-323 697.5,-302 672.5,-302"/>
<text text-anchor="start" x="681.5" y="-308.8" font-family="Times,serif" font-size="14.00">2</text>
<polygon fill="none" stroke="black" points="697.5,-302 697.5,-323 827.5,-323 827.5,-302 697.5,-302"/>
<text text-anchor="start" x="700.5" y="-308.8" font-family="Times,serif" font-size="14.00">(len &gt; 2 ? (len &#45; 2) : 0)</text>
<polygon fill="none" stroke="black" points="827.5,-302 827.5,-323 857.5,-323 857.5,-302 827.5,-302"/>
<polygon fill="none" stroke="black" points="857.5,-302 857.5,-323 891.5,-323 891.5,-302 857.5,-302"/>
<text text-anchor="start" x="860.5" y="-308.8" font-family="Times,serif" font-size="14.00">body</text>
</g>
<!-- ipv4_options__seq&#45;&gt;ipv4_option__seq -->
<g id="edge12" class="edge"><title>ipv4_options__seq:entries_type&#45;&gt;ipv4_option__seq</title>
<path fill="none" stroke="black" stroke-width="2" d="M598.5,-380C616.52,-380 635.355,-378.281 653.79,-375.594"/>
<polygon fill="black" stroke="black" stroke-width="2" points="654.34,-379.05 663.683,-374.055 653.264,-372.133 654.34,-379.05"/>
</g>
<!-- ipv4_option__seq&#45;&gt;ipv4_option__seq -->
<g id="edge13" class="edge"><title>ipv4_option__seq:len_type&#45;&gt;ipv4_option__seq:body_size</title>
<path fill="none" stroke="#404040" d="M885.459,-344.017C902.704,-368.725 892.07,-408 818.5,-408 751.205,-408 736.568,-362.281 747.759,-332.172"/>
<polygon fill="#404040" stroke="#404040" points="750.987,-333.54 752.266,-323.022 744.707,-330.447 750.987,-333.54"/>
</g>
<!-- ipv4_option__seq&#45;&gt;ipv4_option__seq -->
<g id="edge14" class="edge"><title>ipv4_option__seq:len_type&#45;&gt;ipv4_option__seq:body_size</title>
<path fill="none" stroke="#404040" d="M891.689,-343.007C933.161,-373.684 922.039,-426 818.5,-426 722.26,-426 705.866,-366.344 737.338,-330.411"/>
<polygon fill="#404040" stroke="#404040" points="740.074,-332.631 744.769,-323.134 735.176,-327.63 740.074,-332.631"/>
</g>
<!-- ipv4_option__inst__copy -->
<g id="node8" class="node"><title>ipv4_option__inst__copy</title>
<polygon fill="#e0ffe0" stroke="none" points="952,-276 952,-297 985,-297 985,-276 952,-276"/>
<polygon fill="none" stroke="black" points="952,-276 952,-297 985,-297 985,-276 952,-276"/>
<text text-anchor="start" x="963" y="-282.8" font-family="Times,serif" font-size="14.00">id</text>
<polygon fill="#e0ffe0" stroke="none" points="985,-276 985,-297 1093,-297 1093,-276 985,-276"/>
<polygon fill="none" stroke="black" points="985,-276 985,-297 1093,-297 1093,-276 985,-276"/>
<text text-anchor="start" x="1024" y="-282.8" font-family="Times,serif" font-size="14.00">value</text>
<polygon fill="none" stroke="black" points="952,-255 952,-276 985,-276 985,-255 952,-255"/>
<text text-anchor="start" x="955" y="-261.8" font-family="Times,serif" font-size="14.00">copy</text>
<polygon fill="none" stroke="black" points="985,-255 985,-276 1093,-276 1093,-255 985,-255"/>
<text text-anchor="start" x="988" y="-261.8" font-family="Times,serif" font-size="14.00">((b1 &amp; 128) &gt;&gt; 7)</text>
</g>
<!-- ipv4_option__seq&#45;&gt;ipv4_option__inst__copy -->
<g id="edge15" class="edge"><title>ipv4_option__seq:b1_type&#45;&gt;ipv4_option__inst__copy</title>
<path fill="none" stroke="#404040" d="M892.5,-355C920.01,-355 912.221,-325.425 935,-310 936.89,-308.72 938.836,-307.477 940.825,-306.272"/>
<polygon fill="#404040" stroke="#404040" points="942.791,-309.181 949.786,-301.223 939.355,-303.082 942.791,-309.181"/>
</g>
<!-- ipv4_option__inst__opt_class -->
<g id="node9" class="node"><title>ipv4_option__inst__opt_class</title>
<polygon fill="#e0ffe0" stroke="none" points="943,-344 943,-365 1000,-365 1000,-344 943,-344"/>
<polygon fill="none" stroke="black" points="943,-344 943,-365 1000,-365 1000,-344 943,-344"/>
<text text-anchor="start" x="966" y="-350.8" font-family="Times,serif" font-size="14.00">id</text>
<polygon fill="#e0ffe0" stroke="none" points="1000,-344 1000,-365 1101,-365 1101,-344 1000,-344"/>
<polygon fill="none" stroke="black" points="1000,-344 1000,-365 1101,-365 1101,-344 1000,-344"/>
<text text-anchor="start" x="1035.5" y="-350.8" font-family="Times,serif" font-size="14.00">value</text>
<polygon fill="none" stroke="black" points="943,-323 943,-344 1000,-344 1000,-323 943,-323"/>
<text text-anchor="start" x="946" y="-329.8" font-family="Times,serif" font-size="14.00">opt_class</text>
<polygon fill="none" stroke="black" points="1000,-323 1000,-344 1101,-344 1101,-323 1000,-323"/>
<text text-anchor="start" x="1003" y="-329.8" font-family="Times,serif" font-size="14.00">((b1 &amp; 96) &gt;&gt; 5)</text>
</g>
<!-- ipv4_option__seq&#45;&gt;ipv4_option__inst__opt_class -->
<g id="edge16" class="edge"><title>ipv4_option__seq:b1_type&#45;&gt;ipv4_option__inst__opt_class</title>
<path fill="none" stroke="#404040" d="M892.5,-355C902.85,-355 913.653,-354.641 924.406,-354.054"/>
<polygon fill="#404040" stroke="#404040" points="924.918,-357.529 934.685,-353.424 924.49,-350.542 924.918,-357.529"/>
</g>
<!-- ipv4_option__inst__number -->
<g id="node10" class="node"><title>ipv4_option__inst__number</title>
<polygon fill="#e0ffe0" stroke="none" points="967,-412 967,-433 1016,-433 1016,-412 967,-412"/>
<polygon fill="none" stroke="black" points="967,-412 967,-433 1016,-433 1016,-412 967,-412"/>
<text text-anchor="start" x="986" y="-418.8" font-family="Times,serif" font-size="14.00">id</text>
<polygon fill="#e0ffe0" stroke="none" points="1016,-412 1016,-433 1077,-433 1077,-412 1016,-412"/>
<polygon fill="none" stroke="black" points="1016,-412 1016,-433 1077,-433 1077,-412 1016,-412"/>
<text text-anchor="start" x="1031.5" y="-418.8" font-family="Times,serif" font-size="14.00">value</text>
<polygon fill="none" stroke="black" points="967,-391 967,-412 1016,-412 1016,-391 967,-391"/>
<text text-anchor="start" x="970" y="-397.8" font-family="Times,serif" font-size="14.00">number</text>
<polygon fill="none" stroke="black" points="1016,-391 1016,-412 1077,-412 1077,-391 1016,-391"/>
<text text-anchor="start" x="1019" y="-397.8" font-family="Times,serif" font-size="14.00">(b1 &amp; 31)</text>
</g>
<!-- ipv4_option__seq&#45;&gt;ipv4_option__inst__number -->
<g id="edge17" class="edge"><title>ipv4_option__seq:b1_type&#45;&gt;ipv4_option__inst__number</title>
<path fill="none" stroke="#404040" d="M892.5,-355C913.978,-355 915.534,-368.924 935,-378 939.611,-380.15 944.398,-382.288 949.247,-384.385"/>
<polygon fill="#404040" stroke="#404040" points="948.045,-387.677 958.618,-388.359 950.778,-381.233 948.045,-387.677"/>
</g>
</g>
</svg>
