<?xml version="1.0" encoding="UTF-8" standalone="no"?>
<!DOCTYPE svg PUBLIC "-//W3C//DTD SVG 1.1//EN"
 "http://www.w3.org/Graphics/SVG/1.1/DTD/svg11.dtd">
<!-- Generated by graphviz version 2.40.1 (20161225.0304)
 -->
<!-- Title: %3 Pages: 1 -->
<svg width="1115pt" height="399pt"
 viewBox="0.00 0.00 1115.00 399.00" xmlns="http://www.w3.org/2000/svg" xmlns:xlink="http://www.w3.org/1999/xlink">
<g id="graph0" class="graph" transform="scale(1 1) rotate(0) translate(4 395)">
<title>%3</title>
<polygon fill="#ffffff" stroke="transparent" points="-4,4 -4,-395 1111,-395 1111,4 -4,4"/>
<g id="clust1" class="cluster">
<title>cluster__ipv4_packet</title>
<polygon fill="none" stroke="#000000" stroke-dasharray="1,5" points="8,-44 8,-383 1099,-383 1099,-44 8,-44"/>
<text text-anchor="middle" x="553.5" y="-367.8" font-family="Times,serif" font-size="14.00" fill="#000000">Ipv4Packet</text>
</g>
<g id="clust2" class="cluster">
<title>cluster__ipv4_options</title>
<polygon fill="none" stroke="#000000" stroke-dasharray="1,5" points="413,-97 413,-208 610,-208 610,-97 413,-97"/>
<text text-anchor="middle" x="511.5" y="-192.8" font-family="Times,serif" font-size="14.00" fill="#000000">Ipv4Packet::Ipv4Options</text>
</g>
<g id="clust3" class="cluster">
<title>cluster__ipv4_option</title>
<polygon fill="none" stroke="#000000" stroke-dasharray="1,5" points="630,-115 630,-340 1091,-340 1091,-115 630,-115"/>
<text text-anchor="middle" x="860.5" y="-324.8" font-family="Times,serif" font-size="14.00" fill="#000000">Ipv4Packet::Ipv4Option</text>
</g>
<!-- ipv4_packet__seq -->
<g id="node1" class="node">
<title>ipv4_packet__seq</title>
<polygon fill="#e0ffe0" stroke="transparent" points="24.5,-308 24.5,-329 49.5,-329 49.5,-308 24.5,-308"/>
<polygon fill="none" stroke="#000000" points="24.5,-308 24.5,-329 49.5,-329 49.5,-308 24.5,-308"/>
<text text-anchor="start" x="27.5" y="-314.8" font-family="Times,serif" font-size="14.00" fill="#000000">pos</text>
<polygon fill="#e0ffe0" stroke="transparent" points="49.5,-308 49.5,-329 191.5,-329 191.5,-308 49.5,-308"/>
<polygon fill="none" stroke="#000000" points="49.5,-308 49.5,-329 191.5,-329 191.5,-308 49.5,-308"/>
<text text-anchor="start" x="109.5" y="-314.8" font-family="Times,serif" font-size="14.00" fill="#000000">size</text>
<polygon fill="#e0ffe0" stroke="transparent" points="191.5,-308 191.5,-329 273.5,-329 273.5,-308 191.5,-308"/>
<polygon fill="none" stroke="#000000" points="191.5,-308 191.5,-329 273.5,-329 273.5,-308 191.5,-308"/>
<text text-anchor="start" x="220.5" y="-314.8" font-family="Times,serif" font-size="14.00" fill="#000000">type</text>
<polygon fill="#e0ffe0" stroke="transparent" points="273.5,-308 273.5,-329 377.5,-329 377.5,-308 273.5,-308"/>
<polygon fill="none" stroke="#000000" points="273.5,-308 273.5,-329 377.5,-329 377.5,-308 273.5,-308"/>
<text text-anchor="start" x="320" y="-314.8" font-family="Times,serif" font-size="14.00" fill="#000000">id</text>
<polygon fill="none" stroke="#000000" points="24.5,-287 24.5,-308 49.5,-308 49.5,-287 24.5,-287"/>
<text text-anchor="start" x="33.5" y="-293.8" font-family="Times,serif" font-size="14.00" fill="#000000">0</text>
<polygon fill="none" stroke="#000000" points="49.5,-287 49.5,-308 191.5,-308 191.5,-287 49.5,-287"/>
<text text-anchor="start" x="117" y="-293.8" font-family="Times,serif" font-size="14.00" fill="#000000">1</text>
<polygon fill="none" stroke="#000000" points="191.5,-287 191.5,-308 273.5,-308 273.5,-287 191.5,-287"/>
<text text-anchor="start" x="225.5" y="-293.8" font-family="Times,serif" font-size="14.00" fill="#000000">u1</text>
<polygon fill="none" stroke="#000000" points="273.5,-287 273.5,-308 377.5,-308 377.5,-287 273.5,-287"/>
<text text-anchor="start" x="318.5" y="-293.8" font-family="Times,serif" font-size="14.00" fill="#000000">b1</text>
<polygon fill="none" stroke="#000000" points="24.5,-266 24.5,-287 49.5,-287 49.5,-266 24.5,-266"/>
<text text-anchor="start" x="33.5" y="-272.8" font-family="Times,serif" font-size="14.00" fill="#000000">1</text>
<polygon fill="none" stroke="#000000" points="49.5,-266 49.5,-287 191.5,-287 191.5,-266 49.5,-266"/>
<text text-anchor="start" x="117" y="-272.8" font-family="Times,serif" font-size="14.00" fill="#000000">1</text>
<polygon fill="none" stroke="#000000" points="191.5,-266 191.5,-287 273.5,-287 273.5,-266 191.5,-266"/>
<text text-anchor="start" x="225.5" y="-272.8" font-family="Times,serif" font-size="14.00" fill="#000000">u1</text>
<polygon fill="none" stroke="#000000" points="273.5,-266 273.5,-287 377.5,-287 377.5,-266 273.5,-266"/>
<text text-anchor="start" x="318.5" y="-272.8" font-family="Times,serif" font-size="14.00" fill="#000000">b2</text>
<polygon fill="none" stroke="#000000" points="24.5,-245 24.5,-266 49.5,-266 49.5,-245 24.5,-245"/>
<text text-anchor="start" x="33.5" y="-251.8" font-family="Times,serif" font-size="14.00" fill="#000000">2</text>
<polygon fill="none" stroke="#000000" points="49.5,-245 49.5,-266 191.5,-266 191.5,-245 49.5,-245"/>
<text text-anchor="start" x="117" y="-251.8" font-family="Times,serif" font-size="14.00" fill="#000000">2</text>
<polygon fill="none" stroke="#000000" points="191.5,-245 191.5,-266 273.5,-266 273.5,-245 191.5,-245"/>
<text text-anchor="start" x="219" y="-251.8" font-family="Times,serif" font-size="14.00" fill="#000000">u2be</text>
<polygon fill="none" stroke="#000000" points="273.5,-245 273.5,-266 377.5,-266 377.5,-245 273.5,-245"/>
<text text-anchor="start" x="293" y="-251.8" font-family="Times,serif" font-size="14.00" fill="#000000">total_length</text>
<polygon fill="none" stroke="#000000" points="24.5,-224 24.5,-245 49.5,-245 49.5,-224 24.5,-224"/>
<text text-anchor="start" x="33.5" y="-230.8" font-family="Times,serif" font-size="14.00" fill="#000000">4</text>
<polygon fill="none" stroke="#000000" points="49.5,-224 49.5,-245 191.5,-245 191.5,-224 49.5,-224"/>
<text text-anchor="start" x="117" y="-230.8" font-family="Times,serif" font-size="14.00" fill="#000000">2</text>
<polygon fill="none" stroke="#000000" points="191.5,-224 191.5,-245 273.5,-245 273.5,-224 191.5,-224"/>
<text text-anchor="start" x="219" y="-230.8" font-family="Times,serif" font-size="14.00" fill="#000000">u2be</text>
<polygon fill="none" stroke="#000000" points="273.5,-224 273.5,-245 377.5,-245 377.5,-224 273.5,-224"/>
<text text-anchor="start" x="289" y="-230.8" font-family="Times,serif" font-size="14.00" fill="#000000">identification</text>
<polygon fill="none" stroke="#000000" points="24.5,-203 24.5,-224 49.5,-224 49.5,-203 24.5,-203"/>
<text text-anchor="start" x="33.5" y="-209.8" font-family="Times,serif" font-size="14.00" fill="#000000">6</text>
<polygon fill="none" stroke="#000000" points="49.5,-203 49.5,-224 191.5,-224 191.5,-203 49.5,-203"/>
<text text-anchor="start" x="117" y="-209.8" font-family="Times,serif" font-size="14.00" fill="#000000">2</text>
<polygon fill="none" stroke="#000000" points="191.5,-203 191.5,-224 273.5,-224 273.5,-203 191.5,-203"/>
<text text-anchor="start" x="219" y="-209.8" font-family="Times,serif" font-size="14.00" fill="#000000">u2be</text>
<polygon fill="none" stroke="#000000" points="273.5,-203 273.5,-224 377.5,-224 377.5,-203 273.5,-203"/>
<text text-anchor="start" x="315" y="-209.8" font-family="Times,serif" font-size="14.00" fill="#000000">b67</text>
<polygon fill="none" stroke="#000000" points="24.5,-182 24.5,-203 49.5,-203 49.5,-182 24.5,-182"/>
<text text-anchor="start" x="33.5" y="-188.8" font-family="Times,serif" font-size="14.00" fill="#000000">8</text>
<polygon fill="none" stroke="#000000" points="49.5,-182 49.5,-203 191.5,-203 191.5,-182 49.5,-182"/>
<text text-anchor="start" x="117" y="-188.8" font-family="Times,serif" font-size="14.00" fill="#000000">1</text>
<polygon fill="none" stroke="#000000" points="191.5,-182 191.5,-203 273.5,-203 273.5,-182 191.5,-182"/>
<text text-anchor="start" x="225.5" y="-188.8" font-family="Times,serif" font-size="14.00" fill="#000000">u1</text>
<polygon fill="none" stroke="#000000" points="273.5,-182 273.5,-203 377.5,-203 377.5,-182 273.5,-182"/>
<text text-anchor="start" x="319.5" y="-188.8" font-family="Times,serif" font-size="14.00" fill="#000000">ttl</text>
<polygon fill="none" stroke="#000000" points="24.5,-161 24.5,-182 49.5,-182 49.5,-161 24.5,-161"/>
<text text-anchor="start" x="33.5" y="-167.8" font-family="Times,serif" font-size="14.00" fill="#000000">9</text>
<polygon fill="none" stroke="#000000" points="49.5,-161 49.5,-182 191.5,-182 191.5,-161 49.5,-161"/>
<text text-anchor="start" x="117" y="-167.8" font-family="Times,serif" font-size="14.00" fill="#000000">1</text>
<polygon fill="none" stroke="#000000" points="191.5,-161 191.5,-182 273.5,-182 273.5,-161 191.5,-161"/>
<text text-anchor="start" x="225.5" y="-167.8" font-family="Times,serif" font-size="14.00" fill="#000000">u1</text>
<polygon fill="none" stroke="#000000" points="273.5,-161 273.5,-182 377.5,-182 377.5,-161 273.5,-161"/>
<text text-anchor="start" x="302.5" y="-167.8" font-family="Times,serif" font-size="14.00" fill="#000000">protocol</text>
<polygon fill="none" stroke="#000000" points="24.5,-140 24.5,-161 49.5,-161 49.5,-140 24.5,-140"/>
<text text-anchor="start" x="30" y="-146.8" font-family="Times,serif" font-size="14.00" fill="#000000">10</text>
<polygon fill="none" stroke="#000000" points="49.5,-140 49.5,-161 191.5,-161 191.5,-140 49.5,-140"/>
<text text-anchor="start" x="117" y="-146.8" font-family="Times,serif" font-size="14.00" fill="#000000">2</text>
<polygon fill="none" stroke="#000000" points="191.5,-140 191.5,-161 273.5,-161 273.5,-140 191.5,-140"/>
<text text-anchor="start" x="219" y="-146.8" font-family="Times,serif" font-size="14.00" fill="#000000">u2be</text>
<polygon fill="none" stroke="#000000" points="273.5,-140 273.5,-161 377.5,-161 377.5,-140 273.5,-140"/>
<text text-anchor="start" x="276.5" y="-146.8" font-family="Times,serif" font-size="14.00" fill="#000000">header_checksum</text>
<polygon fill="none" stroke="#000000" points="24.5,-119 24.5,-140 49.5,-140 49.5,-119 24.5,-119"/>
<text text-anchor="start" x="30" y="-125.8" font-family="Times,serif" font-size="14.00" fill="#000000">12</text>
<polygon fill="none" stroke="#000000" points="49.5,-119 49.5,-140 191.5,-140 191.5,-119 49.5,-119"/>
<text text-anchor="start" x="117" y="-125.8" font-family="Times,serif" font-size="14.00" fill="#000000">4</text>
<polygon fill="none" stroke="#000000" points="191.5,-119 191.5,-140 273.5,-140 273.5,-119 191.5,-119"/>
<polygon fill="none" stroke="#000000" points="273.5,-119 273.5,-140 377.5,-140 377.5,-119 273.5,-119"/>
<text text-anchor="start" x="293.5" y="-125.8" font-family="Times,serif" font-size="14.00" fill="#000000">src_ip_addr</text>
<polygon fill="none" stroke="#000000" points="24.5,-98 24.5,-119 49.5,-119 49.5,-98 24.5,-98"/>
<text text-anchor="start" x="30" y="-104.8" font-family="Times,serif" font-size="14.00" fill="#000000">16</text>
<polygon fill="none" stroke="#000000" points="49.5,-98 49.5,-119 191.5,-119 191.5,-98 49.5,-98"/>
<text text-anchor="start" x="117" y="-104.8" font-family="Times,serif" font-size="14.00" fill="#000000">4</text>
<polygon fill="none" stroke="#000000" points="191.5,-98 191.5,-119 273.5,-119 273.5,-98 191.5,-98"/>
<polygon fill="none" stroke="#000000" points="273.5,-98 273.5,-119 377.5,-119 377.5,-98 273.5,-98"/>
<text text-anchor="start" x="293.5" y="-104.8" font-family="Times,serif" font-size="14.00" fill="#000000">dst_ip_addr</text>
<polygon fill="none" stroke="#000000" points="24.5,-77 24.5,-98 49.5,-98 49.5,-77 24.5,-77"/>
<text text-anchor="start" x="30" y="-83.8" font-family="Times,serif" font-size="14.00" fill="#000000">20</text>
<polygon fill="none" stroke="#000000" points="49.5,-77 49.5,-98 191.5,-98 191.5,-77 49.5,-77"/>
<text text-anchor="start" x="78" y="-83.8" font-family="Times,serif" font-size="14.00" fill="#000000">(ihl_bytes &#45; 20)</text>
<polygon fill="none" stroke="#000000" points="191.5,-77 191.5,-98 273.5,-98 273.5,-77 191.5,-77"/>
<text text-anchor="start" x="198.5" y="-83.8" font-family="Times,serif" font-size="14.00" fill="#000000">Ipv4Options</text>
<polygon fill="none" stroke="#000000" points="273.5,-77 273.5,-98 377.5,-98 377.5,-77 273.5,-77"/>
<text text-anchor="start" x="305.5" y="-83.8" font-family="Times,serif" font-size="14.00" fill="#000000">options</text>
<polygon fill="none" stroke="#000000" points="24.5,-56 24.5,-77 49.5,-77 49.5,-56 24.5,-56"/>
<text text-anchor="start" x="31" y="-62.8" font-family="Times,serif" font-size="14.00" fill="#000000">...</text>
<polygon fill="none" stroke="#000000" points="49.5,-56 49.5,-77 191.5,-77 191.5,-56 49.5,-56"/>
<text text-anchor="start" x="52.5" y="-62.8" font-family="Times,serif" font-size="14.00" fill="#000000">(total_length &#45; ihl_bytes)</text>
<polygon fill="none" stroke="#000000" points="191.5,-56 191.5,-77 273.5,-77 273.5,-56 191.5,-56"/>
<text text-anchor="start" x="194.5" y="-62.8" font-family="Times,serif" font-size="14.00" fill="#000000">ProtocolBody</text>
<polygon fill="none" stroke="#000000" points="273.5,-56 273.5,-77 377.5,-77 377.5,-56 273.5,-56"/>
<text text-anchor="start" x="311.5" y="-62.8" font-family="Times,serif" font-size="14.00" fill="#000000">body</text>
</g>
<!-- ipv4_packet__seq&#45;&gt;ipv4_packet__seq -->
<g id="edge3" class="edge">
<title>ipv4_packet__seq:total_length_type&#45;&gt;ipv4_packet__seq:body_size</title>
<path fill="none" stroke="#404040" d="M339.4921,-266.0804C402.2522,-314.1561 391.3984,-351.5 223,-351.5 59.5042,-351.5 44.5133,-159.5437 101.2157,-84.7505"/>
<polygon fill="#404040" stroke="#404040" points="103.931,-86.9598 107.6958,-77.0564 98.5769,-82.4505 103.931,-86.9598"/>
</g>
<!-- ipv4_packet__inst__version -->
<g id="node2" class="node">
<title>ipv4_packet__inst__version</title>
<polygon fill="#e0ffe0" stroke="transparent" points="434.5,-241 434.5,-262 480.5,-262 480.5,-241 434.5,-241"/>
<polygon fill="none" stroke="#000000" points="434.5,-241 434.5,-262 480.5,-262 480.5,-241 434.5,-241"/>
<text text-anchor="start" x="452" y="-247.8" font-family="Times,serif" font-size="14.00" fill="#000000">id</text>
<polygon fill="#e0ffe0" stroke="transparent" points="480.5,-241 480.5,-262 588.5,-262 588.5,-241 480.5,-241"/>
<polygon fill="none" stroke="#000000" points="480.5,-241 480.5,-262 588.5,-262 588.5,-241 480.5,-241"/>
<text text-anchor="start" x="519.5" y="-247.8" font-family="Times,serif" font-size="14.00" fill="#000000">value</text>
<polygon fill="none" stroke="#000000" points="434.5,-220 434.5,-241 480.5,-241 480.5,-220 434.5,-220"/>
<text text-anchor="start" x="437.5" y="-226.8" font-family="Times,serif" font-size="14.00" fill="#000000">version</text>
<polygon fill="none" stroke="#000000" points="480.5,-220 480.5,-241 588.5,-241 588.5,-220 480.5,-220"/>
<text text-anchor="start" x="483.5" y="-226.8" font-family="Times,serif" font-size="14.00" fill="#000000">((b1 &amp; 240) &gt;&gt; 4)</text>
</g>
<!-- ipv4_packet__seq&#45;&gt;ipv4_packet__inst__version -->
<g id="edge6" class="edge">
<title>ipv4_packet__seq:b1_type&#45;&gt;ipv4_packet__inst__version</title>
<path fill="none" stroke="#404040" d="M377.5,-298C396.2998,-298 396.1016,-283.2387 413,-275 416.5127,-273.2874 420.1338,-271.6218 423.8202,-270.0074"/>
<polygon fill="#404040" stroke="#404040" points="425.2355,-273.2091 433.0932,-266.1023 422.5187,-266.7578 425.2355,-273.2091"/>
</g>
<!-- ipv4_packet__inst__ihl -->
<g id="node3" class="node">
<title>ipv4_packet__inst__ihl</title>
<polygon fill="#e0ffe0" stroke="transparent" points="470.5,-309 470.5,-330 491.5,-330 491.5,-309 470.5,-309"/>
<polygon fill="none" stroke="#000000" points="470.5,-309 470.5,-330 491.5,-330 491.5,-309 470.5,-309"/>
<text text-anchor="start" x="475.5" y="-315.8" font-family="Times,serif" font-size="14.00" fill="#000000">id</text>
<polygon fill="#e0ffe0" stroke="transparent" points="491.5,-309 491.5,-330 552.5,-330 552.5,-309 491.5,-309"/>
<polygon fill="none" stroke="#000000" points="491.5,-309 491.5,-330 552.5,-330 552.5,-309 491.5,-309"/>
<text text-anchor="start" x="507" y="-315.8" font-family="Times,serif" font-size="14.00" fill="#000000">value</text>
<polygon fill="none" stroke="#000000" points="470.5,-288 470.5,-309 491.5,-309 491.5,-288 470.5,-288"/>
<text text-anchor="start" x="473.5" y="-294.8" font-family="Times,serif" font-size="14.00" fill="#000000">ihl</text>
<polygon fill="none" stroke="#000000" points="491.5,-288 491.5,-309 552.5,-309 552.5,-288 491.5,-288"/>
<text text-anchor="start" x="494.5" y="-294.8" font-family="Times,serif" font-size="14.00" fill="#000000">(b1 &amp; 15)</text>
</g>
<!-- ipv4_packet__seq&#45;&gt;ipv4_packet__inst__ihl -->
<g id="edge7" class="edge">
<title>ipv4_packet__seq:b1_type&#45;&gt;ipv4_packet__inst__ihl</title>
<path fill="none" stroke="#404040" d="M377.5,-298C402.0015,-298 428.9388,-299.8493 452.1951,-302.0315"/>
<polygon fill="#404040" stroke="#404040" points="451.9645,-305.5255 462.2581,-303.0172 452.6469,-298.5589 451.9645,-305.5255"/>
</g>
<!-- ipv4_options__seq -->
<g id="node5" class="node">
<title>ipv4_options__seq</title>
<polygon fill="#e0ffe0" stroke="transparent" points="429.5,-151 429.5,-172 454.5,-172 454.5,-151 429.5,-151"/>
<polygon fill="none" stroke="#000000" points="429.5,-151 429.5,-172 454.5,-172 454.5,-151 429.5,-151"/>
<text text-anchor="start" x="432.5" y="-157.8" font-family="Times,serif" font-size="14.00" fill="#000000">pos</text>
<polygon fill="#e0ffe0" stroke="transparent" points="454.5,-151 454.5,-172 482.5,-172 482.5,-151 454.5,-151"/>
<polygon fill="none" stroke="#000000" points="454.5,-151 454.5,-172 482.5,-172 482.5,-151 454.5,-151"/>
<text text-anchor="start" x="457.5" y="-157.8" font-family="Times,serif" font-size="14.00" fill="#000000">size</text>
<polygon fill="#e0ffe0" stroke="transparent" points="482.5,-151 482.5,-172 551.5,-172 551.5,-151 482.5,-151"/>
<polygon fill="none" stroke="#000000" points="482.5,-151 482.5,-172 551.5,-172 551.5,-151 482.5,-151"/>
<text text-anchor="start" x="505" y="-157.8" font-family="Times,serif" font-size="14.00" fill="#000000">type</text>
<polygon fill="#e0ffe0" stroke="transparent" points="551.5,-151 551.5,-172 594.5,-172 594.5,-151 551.5,-151"/>
<polygon fill="none" stroke="#000000" points="551.5,-151 551.5,-172 594.5,-172 594.5,-151 551.5,-151"/>
<text text-anchor="start" x="567.5" y="-157.8" font-family="Times,serif" font-size="14.00" fill="#000000">id</text>
<polygon fill="none" stroke="#000000" points="429.5,-130 429.5,-151 454.5,-151 454.5,-130 429.5,-130"/>
<text text-anchor="start" x="438.5" y="-136.8" font-family="Times,serif" font-size="14.00" fill="#000000">0</text>
<polygon fill="none" stroke="#000000" points="454.5,-130 454.5,-151 482.5,-151 482.5,-130 454.5,-130"/>
<text text-anchor="start" x="462.5" y="-136.8" font-family="Times,serif" font-size="14.00" fill="#000000">...</text>
<polygon fill="none" stroke="#000000" points="482.5,-130 482.5,-151 551.5,-151 551.5,-130 482.5,-130"/>
<text text-anchor="start" x="485.5" y="-136.8" font-family="Times,serif" font-size="14.00" fill="#000000">Ipv4Option</text>
<polygon fill="none" stroke="#000000" points="551.5,-130 551.5,-151 594.5,-151 594.5,-130 551.5,-130"/>
<text text-anchor="start" x="554.5" y="-136.8" font-family="Times,serif" font-size="14.00" fill="#000000">entries</text>
<polygon fill="none" stroke="#000000" points="429.5,-109 429.5,-130 594.5,-130 594.5,-109 429.5,-109"/>
<text text-anchor="start" x="448.5" y="-115.8" font-family="Times,serif" font-size="14.00" fill="#000000">repeat to end of stream</text>
</g>
<!-- ipv4_packet__seq&#45;&gt;ipv4_options__seq -->
<g id="edge2" class="edge">
<title>ipv4_packet__seq:options_type&#45;&gt;ipv4_options__seq</title>
<path fill="none" stroke="#000000" stroke-width="2" d="M377.5,-87C392.0859,-87 396.0776,-93.1736 412.0102,-101.1627"/>
<polygon fill="#000000" stroke="#000000" stroke-width="2" points="410.9964,-104.5457 421.5498,-105.4828 413.8842,-98.1691 410.9964,-104.5457"/>
</g>
<!-- protocol_body__seq -->
<g id="node10" class="node">
<title>protocol_body__seq</title>
<text text-anchor="middle" x="511.5" y="-14.3" font-family="Times,serif" font-size="14.00" fill="#000000">protocol_body__seq</text>
</g>
<!-- ipv4_packet__seq&#45;&gt;protocol_body__seq -->
<g id="edge5" class="edge">
<title>ipv4_packet__seq:body_type&#45;&gt;protocol_body__seq</title>
<path fill="none" stroke="#000000" stroke-width="2" d="M377.5,-66C397.0568,-66 395.1906,-48.0804 413,-40 420.9415,-36.3968 429.518,-33.3631 438.1825,-30.8137"/>
<polygon fill="#000000" stroke="#000000" stroke-width="2" points="439.2506,-34.1502 447.9733,-28.1365 437.4042,-27.3981 439.2506,-34.1502"/>
</g>
<!-- ipv4_packet__inst__ihl_bytes -->
<g id="node4" class="node">
<title>ipv4_packet__inst__ihl_bytes</title>
<polygon fill="#e0ffe0" stroke="transparent" points="702.5,-82 702.5,-103 758.5,-103 758.5,-82 702.5,-82"/>
<polygon fill="none" stroke="#000000" points="702.5,-82 702.5,-103 758.5,-103 758.5,-82 702.5,-82"/>
<text text-anchor="start" x="725" y="-88.8" font-family="Times,serif" font-size="14.00" fill="#000000">id</text>
<polygon fill="#e0ffe0" stroke="transparent" points="758.5,-82 758.5,-103 809.5,-103 809.5,-82 758.5,-82"/>
<polygon fill="none" stroke="#000000" points="758.5,-82 758.5,-103 809.5,-103 809.5,-82 758.5,-82"/>
<text text-anchor="start" x="769" y="-88.8" font-family="Times,serif" font-size="14.00" fill="#000000">value</text>
<polygon fill="none" stroke="#000000" points="702.5,-61 702.5,-82 758.5,-82 758.5,-61 702.5,-61"/>
<text text-anchor="start" x="705.5" y="-67.8" font-family="Times,serif" font-size="14.00" fill="#000000">ihl_bytes</text>
<polygon fill="none" stroke="#000000" points="758.5,-61 758.5,-82 809.5,-82 809.5,-61 758.5,-61"/>
<text text-anchor="start" x="761.5" y="-67.8" font-family="Times,serif" font-size="14.00" fill="#000000">(ihl * 4)</text>
</g>
<!-- ipv4_packet__inst__ihl&#45;&gt;ipv4_packet__inst__ihl_bytes -->
<g id="edge8" class="edge">
<title>ipv4_packet__inst__ihl:ihl_type&#45;&gt;ipv4_packet__inst__ihl_bytes</title>
<path fill="none" stroke="#404040" d="M560.6489,-303.086C578.805,-298.3836 597.8869,-289.9826 610,-275 656.1652,-217.8985 580.8943,-165.5933 630,-111 643.689,-95.7813 663.6337,-87.7382 683.6105,-83.6849"/>
<polygon fill="#404040" stroke="#404040" points="684.4421,-87.0936 693.7084,-81.9568 683.2613,-80.1939 684.4421,-87.0936"/>
</g>
<!-- ipv4_packet__inst__ihl_bytes&#45;&gt;ipv4_packet__seq -->
<g id="edge1" class="edge">
<title>ipv4_packet__inst__ihl_bytes:ihl_bytes_type&#45;&gt;ipv4_packet__seq:options_size</title>
<path fill="none" stroke="#404040" d="M693.9877,-82.4843C578.8633,-83.3908 330.8778,-85.3435 202.0041,-86.3582"/>
<polygon fill="#404040" stroke="#404040" points="201.773,-82.8598 191.8009,-86.4386 201.8282,-89.8596 201.773,-82.8598"/>
</g>
<!-- ipv4_packet__inst__ihl_bytes&#45;&gt;ipv4_packet__seq -->
<g id="edge4" class="edge">
<title>ipv4_packet__inst__ihl_bytes:ihl_bytes_type&#45;&gt;ipv4_packet__seq:body_size</title>
<path fill="none" stroke="#404040" d="M693.7472,-76.2913C547.5768,-63.15 188.1922,-33.146 128.8578,-50.1026"/>
<polygon fill="#404040" stroke="#404040" points="126.6528,-47.3748 120.5,-56 130.6886,-53.0943 126.6528,-47.3748"/>
</g>
<!-- ipv4_option__seq -->
<g id="node6" class="node">
<title>ipv4_option__seq</title>
<polygon fill="#e0ffe0" stroke="transparent" points="646.5,-209 646.5,-230 671.5,-230 671.5,-209 646.5,-209"/>
<polygon fill="none" stroke="#000000" points="646.5,-209 646.5,-230 671.5,-230 671.5,-209 646.5,-209"/>
<text text-anchor="start" x="649.5" y="-215.8" font-family="Times,serif" font-size="14.00" fill="#000000">pos</text>
<polygon fill="#e0ffe0" stroke="transparent" points="671.5,-209 671.5,-230 801.5,-230 801.5,-209 671.5,-209"/>
<polygon fill="none" stroke="#000000" points="671.5,-209 671.5,-230 801.5,-230 801.5,-209 671.5,-209"/>
<text text-anchor="start" x="725.5" y="-215.8" font-family="Times,serif" font-size="14.00" fill="#000000">size</text>
<polygon fill="#e0ffe0" stroke="transparent" points="801.5,-209 801.5,-230 831.5,-230 831.5,-209 801.5,-209"/>
<polygon fill="none" stroke="#000000" points="801.5,-209 801.5,-230 831.5,-230 831.5,-209 801.5,-209"/>
<text text-anchor="start" x="804.5" y="-215.8" font-family="Times,serif" font-size="14.00" fill="#000000">type</text>
<polygon fill="#e0ffe0" stroke="transparent" points="831.5,-209 831.5,-230 865.5,-230 865.5,-209 831.5,-209"/>
<polygon fill="none" stroke="#000000" points="831.5,-209 831.5,-230 865.5,-230 865.5,-209 831.5,-209"/>
<text text-anchor="start" x="843" y="-215.8" font-family="Times,serif" font-size="14.00" fill="#000000">id</text>
<polygon fill="none" stroke="#000000" points="646.5,-188 646.5,-209 671.5,-209 671.5,-188 646.5,-188"/>
<text text-anchor="start" x="655.5" y="-194.8" font-family="Times,serif" font-size="14.00" fill="#000000">0</text>
<polygon fill="none" stroke="#000000" points="671.5,-188 671.5,-209 801.5,-209 801.5,-188 671.5,-188"/>
<text text-anchor="start" x="733" y="-194.8" font-family="Times,serif" font-size="14.00" fill="#000000">1</text>
<polygon fill="none" stroke="#000000" points="801.5,-188 801.5,-209 831.5,-209 831.5,-188 801.5,-188"/>
<text text-anchor="start" x="809.5" y="-194.8" font-family="Times,serif" font-size="14.00" fill="#000000">u1</text>
<polygon fill="none" stroke="#000000" points="831.5,-188 831.5,-209 865.5,-209 865.5,-188 831.5,-188"/>
<text text-anchor="start" x="841.5" y="-194.8" font-family="Times,serif" font-size="14.00" fill="#000000">b1</text>
<polygon fill="none" stroke="#000000" points="646.5,-167 646.5,-188 671.5,-188 671.5,-167 646.5,-167"/>
<text text-anchor="start" x="655.5" y="-173.8" font-family="Times,serif" font-size="14.00" fill="#000000">1</text>
<polygon fill="none" stroke="#000000" points="671.5,-167 671.5,-188 801.5,-188 801.5,-167 671.5,-167"/>
<text text-anchor="start" x="733" y="-173.8" font-family="Times,serif" font-size="14.00" fill="#000000">1</text>
<polygon fill="none" stroke="#000000" points="801.5,-167 801.5,-188 831.5,-188 831.5,-167 801.5,-167"/>
<text text-anchor="start" x="809.5" y="-173.8" font-family="Times,serif" font-size="14.00" fill="#000000">u1</text>
<polygon fill="none" stroke="#000000" points="831.5,-167 831.5,-188 865.5,-188 865.5,-167 831.5,-167"/>
<text text-anchor="start" x="840" y="-173.8" font-family="Times,serif" font-size="14.00" fill="#000000">len</text>
<polygon fill="none" stroke="#000000" points="646.5,-146 646.5,-167 671.5,-167 671.5,-146 646.5,-146"/>
<text text-anchor="start" x="655.5" y="-152.8" font-family="Times,serif" font-size="14.00" fill="#000000">2</text>
<polygon fill="none" stroke="#000000" points="671.5,-146 671.5,-167 801.5,-167 801.5,-146 671.5,-146"/>
<text text-anchor="start" x="674.5" y="-152.8" font-family="Times,serif" font-size="14.00" fill="#000000">(len &gt; 2 ? (len &#45; 2) : 0)</text>
<polygon fill="none" stroke="#000000" points="801.5,-146 801.5,-167 831.5,-167 831.5,-146 801.5,-146"/>
<polygon fill="none" stroke="#000000" points="831.5,-146 831.5,-167 865.5,-167 865.5,-146 831.5,-146"/>
<text text-anchor="start" x="834.5" y="-152.8" font-family="Times,serif" font-size="14.00" fill="#000000">body</text>
</g>
<!-- ipv4_options__seq&#45;&gt;ipv4_option__seq -->
<g id="edge9" class="edge">
<title>ipv4_options__seq:entries_type&#45;&gt;ipv4_option__seq</title>
<path fill="none" stroke="#000000" stroke-width="2" d="M594.5,-140C605.5539,-140 616.8634,-141.052 628.1107,-142.8444"/>
<polygon fill="#000000" stroke="#000000" stroke-width="2" points="627.5114,-146.2927 637.9706,-144.6024 628.7402,-139.4014 627.5114,-146.2927"/>
</g>
<!-- ipv4_option__seq&#45;&gt;ipv4_option__seq -->
<g id="edge10" class="edge">
<title>ipv4_option__seq:len_type&#45;&gt;ipv4_option__seq:body_size</title>
<path fill="none" stroke="#404040" d="M859.4587,-188.0166C876.7035,-212.7253 866.0703,-252 792.5,-252 725.2049,-252 710.5683,-206.281 721.7588,-176.1719"/>
<polygon fill="#404040" stroke="#404040" points="724.9865,-177.5398 726.2656,-167.0224 718.707,-174.4466 724.9865,-177.5398"/>
</g>
<!-- ipv4_option__seq&#45;&gt;ipv4_option__seq -->
<g id="edge11" class="edge">
<title>ipv4_option__seq:len_type&#45;&gt;ipv4_option__seq:body_size</title>
<path fill="none" stroke="#404040" d="M865.6894,-187.0067C907.1614,-217.6836 896.0391,-270 792.5,-270 696.2596,-270 679.8659,-210.3445 711.3382,-174.4113"/>
<polygon fill="#404040" stroke="#404040" points="714.0737,-176.6312 718.7691,-167.1336 709.1758,-171.6301 714.0737,-176.6312"/>
</g>
<!-- ipv4_option__inst__copy -->
<g id="node7" class="node">
<title>ipv4_option__inst__copy</title>
<polygon fill="#e0ffe0" stroke="transparent" points="926,-148 926,-169 959,-169 959,-148 926,-148"/>
<polygon fill="none" stroke="#000000" points="926,-148 926,-169 959,-169 959,-148 926,-148"/>
<text text-anchor="start" x="937" y="-154.8" font-family="Times,serif" font-size="14.00" fill="#000000">id</text>
<polygon fill="#e0ffe0" stroke="transparent" points="959,-148 959,-169 1067,-169 1067,-148 959,-148"/>
<polygon fill="none" stroke="#000000" points="959,-148 959,-169 1067,-169 1067,-148 959,-148"/>
<text text-anchor="start" x="998" y="-154.8" font-family="Times,serif" font-size="14.00" fill="#000000">value</text>
<polygon fill="none" stroke="#000000" points="926,-127 926,-148 959,-148 959,-127 926,-127"/>
<text text-anchor="start" x="929" y="-133.8" font-family="Times,serif" font-size="14.00" fill="#000000">copy</text>
<polygon fill="none" stroke="#000000" points="959,-127 959,-148 1067,-148 1067,-127 959,-127"/>
<text text-anchor="start" x="962" y="-133.8" font-family="Times,serif" font-size="14.00" fill="#000000">((b1 &amp; 128) &gt;&gt; 7)</text>
</g>
<!-- ipv4_option__seq&#45;&gt;ipv4_option__inst__copy -->
<g id="edge12" class="edge">
<title>ipv4_option__seq:b1_type&#45;&gt;ipv4_option__inst__copy</title>
<path fill="none" stroke="#404040" d="M865.5,-199C865.5,-199 892.6903,-188.3739 922.2484,-176.8225"/>
<polygon fill="#404040" stroke="#404040" points="923.8569,-179.9517 931.8969,-173.0518 921.3089,-173.4319 923.8569,-179.9517"/>
</g>
<!-- ipv4_option__inst__opt_class -->
<g id="node8" class="node">
<title>ipv4_option__inst__opt_class</title>
<polygon fill="#e0ffe0" stroke="transparent" points="917,-216 917,-237 974,-237 974,-216 917,-216"/>
<polygon fill="none" stroke="#000000" points="917,-216 917,-237 974,-237 974,-216 917,-216"/>
<text text-anchor="start" x="940" y="-222.8" font-family="Times,serif" font-size="14.00" fill="#000000">id</text>
<polygon fill="#e0ffe0" stroke="transparent" points="974,-216 974,-237 1075,-237 1075,-216 974,-216"/>
<polygon fill="none" stroke="#000000" points="974,-216 974,-237 1075,-237 1075,-216 974,-216"/>
<text text-anchor="start" x="1009.5" y="-222.8" font-family="Times,serif" font-size="14.00" fill="#000000">value</text>
<polygon fill="none" stroke="#000000" points="917,-195 917,-216 974,-216 974,-195 917,-195"/>
<text text-anchor="start" x="920" y="-201.8" font-family="Times,serif" font-size="14.00" fill="#000000">opt_class</text>
<polygon fill="none" stroke="#000000" points="974,-195 974,-216 1075,-216 1075,-195 974,-195"/>
<text text-anchor="start" x="977" y="-201.8" font-family="Times,serif" font-size="14.00" fill="#000000">((b1 &amp; 96) &gt;&gt; 5)</text>
</g>
<!-- ipv4_option__seq&#45;&gt;ipv4_option__inst__opt_class -->
<g id="edge13" class="edge">
<title>ipv4_option__seq:b1_type&#45;&gt;ipv4_option__inst__opt_class</title>
<path fill="none" stroke="#404040" d="M865.5,-199C876.258,-199 887.4735,-199.5751 898.6141,-200.5138"/>
<polygon fill="#404040" stroke="#404040" points="898.5253,-204.0208 908.8089,-201.4719 899.1803,-197.0515 898.5253,-204.0208"/>
</g>
<!-- ipv4_option__inst__number -->
<g id="node9" class="node">
<title>ipv4_option__inst__number</title>
<polygon fill="#e0ffe0" stroke="transparent" points="941,-284 941,-305 990,-305 990,-284 941,-284"/>
<polygon fill="none" stroke="#000000" points="941,-284 941,-305 990,-305 990,-284 941,-284"/>
<text text-anchor="start" x="960" y="-290.8" font-family="Times,serif" font-size="14.00" fill="#000000">id</text>
<polygon fill="#e0ffe0" stroke="transparent" points="990,-284 990,-305 1051,-305 1051,-284 990,-284"/>
<polygon fill="none" stroke="#000000" points="990,-284 990,-305 1051,-305 1051,-284 990,-284"/>
<text text-anchor="start" x="1005.5" y="-290.8" font-family="Times,serif" font-size="14.00" fill="#000000">value</text>
<polygon fill="none" stroke="#000000" points="941,-263 941,-284 990,-284 990,-263 941,-263"/>
<text text-anchor="start" x="944" y="-269.8" font-family="Times,serif" font-size="14.00" fill="#000000">number</text>
<polygon fill="none" stroke="#000000" points="990,-263 990,-284 1051,-284 1051,-263 990,-263"/>
<text text-anchor="start" x="993" y="-269.8" font-family="Times,serif" font-size="14.00" fill="#000000">(b1 &amp; 31)</text>
</g>
<!-- ipv4_option__seq&#45;&gt;ipv4_option__inst__number -->
<g id="edge14" class="edge">
<title>ipv4_option__seq:b1_type&#45;&gt;ipv4_option__inst__number</title>
<path fill="none" stroke="#404040" d="M865.5,-199C895.2919,-199 884.7284,-232.7244 909,-250 913.5415,-253.2325 918.4321,-256.2099 923.496,-258.9425"/>
<polygon fill="#404040" stroke="#404040" points="922.2536,-262.2353 932.7604,-263.5989 925.3973,-255.9808 922.2536,-262.2353"/>
</g>
</g>
</svg>
