<?xml version="1.0" encoding="UTF-8" standalone="no"?>
<!DOCTYPE svg PUBLIC "-//W3C//DTD SVG 1.1//EN"
 "http://www.w3.org/Graphics/SVG/1.1/DTD/svg11.dtd">
<!-- Generated by graphviz version 2.38.0 (20140413.2041)
 -->
<!-- Title: %3 Pages: 1 -->
<svg width="1353pt" height="399pt"
 viewBox="0.00 0.00 1353.00 399.00" xmlns="http://www.w3.org/2000/svg" xmlns:xlink="http://www.w3.org/1999/xlink">
<g id="graph0" class="graph" transform="scale(1 1) rotate(0) translate(4 395)">
<title>%3</title>
<polygon fill="white" stroke="none" points="-4,4 -4,-395 1349,-395 1349,4 -4,4"/>
<g id="clust1" class="cluster"><title>cluster__ipv4_packet</title>
<polygon fill="none" stroke="black" stroke-dasharray="1,5" points="8,-44 8,-383 1337,-383 1337,-44 8,-44"/>
<text text-anchor="middle" x="672.5" y="-367.8" font-family="Times,serif" font-size="14.00">Ipv4Packet</text>
</g>
<g id="clust2" class="cluster"><title>cluster__ipv4_options</title>
<polygon fill="none" stroke="black" stroke-dasharray="1,5" points="511,-97 511,-208 752,-208 752,-97 511,-97"/>
<text text-anchor="middle" x="631.5" y="-192.8" font-family="Times,serif" font-size="14.00">Ipv4Packet::Ipv4Options</text>
</g>
<g id="clust3" class="cluster"><title>cluster__ipv4_option</title>
<polygon fill="none" stroke="black" stroke-dasharray="1,5" points="772,-115 772,-340 1329,-340 1329,-115 772,-115"/>
<text text-anchor="middle" x="1050.5" y="-324.8" font-family="Times,serif" font-size="14.00">Ipv4Packet::Ipv4Option</text>
</g>
<!-- ipv4_packet__seq -->
<g id="node1" class="node"><title>ipv4_packet__seq</title>
<polygon fill="#e0ffe0" stroke="none" points="24.5,-308 24.5,-329 55.5,-329 55.5,-308 24.5,-308"/>
<polygon fill="none" stroke="black" points="24.5,-308 24.5,-329 55.5,-329 55.5,-308 24.5,-308"/>
<text text-anchor="start" x="27.5" y="-314.8" font-family="Times,serif" font-size="14.00">pos</text>
<polygon fill="#e0ffe0" stroke="none" points="55.5,-308 55.5,-329 236.5,-329 236.5,-308 55.5,-308"/>
<polygon fill="none" stroke="black" points="55.5,-308 55.5,-329 236.5,-329 236.5,-308 55.5,-308"/>
<text text-anchor="start" x="132" y="-314.8" font-family="Times,serif" font-size="14.00">size</text>
<polygon fill="#e0ffe0" stroke="none" points="236.5,-308 236.5,-329 339.5,-329 339.5,-308 236.5,-308"/>
<polygon fill="none" stroke="black" points="236.5,-308 236.5,-329 339.5,-329 339.5,-308 236.5,-308"/>
<text text-anchor="start" x="272" y="-314.8" font-family="Times,serif" font-size="14.00">type</text>
<polygon fill="#e0ffe0" stroke="none" points="339.5,-308 339.5,-329 475.5,-329 475.5,-308 339.5,-308"/>
<polygon fill="none" stroke="black" points="339.5,-308 339.5,-329 475.5,-329 475.5,-308 339.5,-308"/>
<text text-anchor="start" x="400.5" y="-314.8" font-family="Times,serif" font-size="14.00">id</text>
<polygon fill="none" stroke="black" points="24.5,-287 24.5,-308 55.5,-308 55.5,-287 24.5,-287"/>
<text text-anchor="start" x="35" y="-293.8" font-family="Times,serif" font-size="14.00">0</text>
<polygon fill="none" stroke="black" points="55.5,-287 55.5,-308 236.5,-308 236.5,-287 55.5,-287"/>
<text text-anchor="start" x="141" y="-293.8" font-family="Times,serif" font-size="14.00">1</text>
<polygon fill="none" stroke="black" points="236.5,-287 236.5,-308 339.5,-308 339.5,-287 236.5,-287"/>
<text text-anchor="start" x="278.5" y="-293.8" font-family="Times,serif" font-size="14.00">u1</text>
<polygon fill="none" stroke="black" points="339.5,-287 339.5,-308 475.5,-308 475.5,-287 339.5,-287"/>
<text text-anchor="start" x="398" y="-293.8" font-family="Times,serif" font-size="14.00">b1</text>
<polygon fill="none" stroke="black" points="24.5,-266 24.5,-287 55.5,-287 55.5,-266 24.5,-266"/>
<text text-anchor="start" x="35" y="-272.8" font-family="Times,serif" font-size="14.00">1</text>
<polygon fill="none" stroke="black" points="55.5,-266 55.5,-287 236.5,-287 236.5,-266 55.5,-266"/>
<text text-anchor="start" x="141" y="-272.8" font-family="Times,serif" font-size="14.00">1</text>
<polygon fill="none" stroke="black" points="236.5,-266 236.5,-287 339.5,-287 339.5,-266 236.5,-266"/>
<text text-anchor="start" x="278.5" y="-272.8" font-family="Times,serif" font-size="14.00">u1</text>
<polygon fill="none" stroke="black" points="339.5,-266 339.5,-287 475.5,-287 475.5,-266 339.5,-266"/>
<text text-anchor="start" x="398" y="-272.8" font-family="Times,serif" font-size="14.00">b2</text>
<polygon fill="none" stroke="black" points="24.5,-245 24.5,-266 55.5,-266 55.5,-245 24.5,-245"/>
<text text-anchor="start" x="35" y="-251.8" font-family="Times,serif" font-size="14.00">2</text>
<polygon fill="none" stroke="black" points="55.5,-245 55.5,-266 236.5,-266 236.5,-245 55.5,-245"/>
<text text-anchor="start" x="141" y="-251.8" font-family="Times,serif" font-size="14.00">2</text>
<polygon fill="none" stroke="black" points="236.5,-245 236.5,-266 339.5,-266 339.5,-245 236.5,-245"/>
<text text-anchor="start" x="270" y="-251.8" font-family="Times,serif" font-size="14.00">u2be</text>
<polygon fill="none" stroke="black" points="339.5,-245 339.5,-266 475.5,-266 475.5,-245 339.5,-245"/>
<text text-anchor="start" x="364" y="-251.8" font-family="Times,serif" font-size="14.00">total_length</text>
<polygon fill="none" stroke="black" points="24.5,-224 24.5,-245 55.5,-245 55.5,-224 24.5,-224"/>
<text text-anchor="start" x="35" y="-230.8" font-family="Times,serif" font-size="14.00">4</text>
<polygon fill="none" stroke="black" points="55.5,-224 55.5,-245 236.5,-245 236.5,-224 55.5,-224"/>
<text text-anchor="start" x="141" y="-230.8" font-family="Times,serif" font-size="14.00">2</text>
<polygon fill="none" stroke="black" points="236.5,-224 236.5,-245 339.5,-245 339.5,-224 236.5,-224"/>
<text text-anchor="start" x="270" y="-230.8" font-family="Times,serif" font-size="14.00">u2be</text>
<polygon fill="none" stroke="black" points="339.5,-224 339.5,-245 475.5,-245 475.5,-224 339.5,-224"/>
<text text-anchor="start" x="360" y="-230.8" font-family="Times,serif" font-size="14.00">identification</text>
<polygon fill="none" stroke="black" points="24.5,-203 24.5,-224 55.5,-224 55.5,-203 24.5,-203"/>
<text text-anchor="start" x="35" y="-209.8" font-family="Times,serif" font-size="14.00">6</text>
<polygon fill="none" stroke="black" points="55.5,-203 55.5,-224 236.5,-224 236.5,-203 55.5,-203"/>
<text text-anchor="start" x="141" y="-209.8" font-family="Times,serif" font-size="14.00">2</text>
<polygon fill="none" stroke="black" points="236.5,-203 236.5,-224 339.5,-224 339.5,-203 236.5,-203"/>
<text text-anchor="start" x="270" y="-209.8" font-family="Times,serif" font-size="14.00">u2be</text>
<polygon fill="none" stroke="black" points="339.5,-203 339.5,-224 475.5,-224 475.5,-203 339.5,-203"/>
<text text-anchor="start" x="393.5" y="-209.8" font-family="Times,serif" font-size="14.00">b67</text>
<polygon fill="none" stroke="black" points="24.5,-182 24.5,-203 55.5,-203 55.5,-182 24.5,-182"/>
<text text-anchor="start" x="35" y="-188.8" font-family="Times,serif" font-size="14.00">8</text>
<polygon fill="none" stroke="black" points="55.5,-182 55.5,-203 236.5,-203 236.5,-182 55.5,-182"/>
<text text-anchor="start" x="141" y="-188.8" font-family="Times,serif" font-size="14.00">1</text>
<polygon fill="none" stroke="black" points="236.5,-182 236.5,-203 339.5,-203 339.5,-182 236.5,-182"/>
<text text-anchor="start" x="278.5" y="-188.8" font-family="Times,serif" font-size="14.00">u1</text>
<polygon fill="none" stroke="black" points="339.5,-182 339.5,-203 475.5,-203 475.5,-182 339.5,-182"/>
<text text-anchor="start" x="399" y="-188.8" font-family="Times,serif" font-size="14.00">ttl</text>
<polygon fill="none" stroke="black" points="24.5,-161 24.5,-182 55.5,-182 55.5,-161 24.5,-161"/>
<text text-anchor="start" x="35" y="-167.8" font-family="Times,serif" font-size="14.00">9</text>
<polygon fill="none" stroke="black" points="55.5,-161 55.5,-182 236.5,-182 236.5,-161 55.5,-161"/>
<text text-anchor="start" x="141" y="-167.8" font-family="Times,serif" font-size="14.00">1</text>
<polygon fill="none" stroke="black" points="236.5,-161 236.5,-182 339.5,-182 339.5,-161 236.5,-161"/>
<text text-anchor="start" x="278.5" y="-167.8" font-family="Times,serif" font-size="14.00">u1</text>
<polygon fill="none" stroke="black" points="339.5,-161 339.5,-182 475.5,-182 475.5,-161 339.5,-161"/>
<text text-anchor="start" x="377.5" y="-167.8" font-family="Times,serif" font-size="14.00">protocol</text>
<polygon fill="none" stroke="black" points="24.5,-140 24.5,-161 55.5,-161 55.5,-140 24.5,-140"/>
<text text-anchor="start" x="30.5" y="-146.8" font-family="Times,serif" font-size="14.00">10</text>
<polygon fill="none" stroke="black" points="55.5,-140 55.5,-161 236.5,-161 236.5,-140 55.5,-140"/>
<text text-anchor="start" x="141" y="-146.8" font-family="Times,serif" font-size="14.00">2</text>
<polygon fill="none" stroke="black" points="236.5,-140 236.5,-161 339.5,-161 339.5,-140 236.5,-140"/>
<text text-anchor="start" x="270" y="-146.8" font-family="Times,serif" font-size="14.00">u2be</text>
<polygon fill="none" stroke="black" points="339.5,-140 339.5,-161 475.5,-161 475.5,-140 339.5,-140"/>
<text text-anchor="start" x="342.5" y="-146.8" font-family="Times,serif" font-size="14.00">header_checksum</text>
<polygon fill="none" stroke="black" points="24.5,-119 24.5,-140 55.5,-140 55.5,-119 24.5,-119"/>
<text text-anchor="start" x="30.5" y="-125.8" font-family="Times,serif" font-size="14.00">12</text>
<polygon fill="none" stroke="black" points="55.5,-119 55.5,-140 236.5,-140 236.5,-119 55.5,-119"/>
<text text-anchor="start" x="141" y="-125.8" font-family="Times,serif" font-size="14.00">4</text>
<polygon fill="none" stroke="black" points="236.5,-119 236.5,-140 339.5,-140 339.5,-119 236.5,-119"/>
<polygon fill="none" stroke="black" points="339.5,-119 339.5,-140 475.5,-140 475.5,-119 339.5,-119"/>
<text text-anchor="start" x="365" y="-125.8" font-family="Times,serif" font-size="14.00">src_ip_addr</text>
<polygon fill="none" stroke="black" points="24.5,-98 24.5,-119 55.5,-119 55.5,-98 24.5,-98"/>
<text text-anchor="start" x="30.5" y="-104.8" font-family="Times,serif" font-size="14.00">16</text>
<polygon fill="none" stroke="black" points="55.5,-98 55.5,-119 236.5,-119 236.5,-98 55.5,-98"/>
<text text-anchor="start" x="141" y="-104.8" font-family="Times,serif" font-size="14.00">4</text>
<polygon fill="none" stroke="black" points="236.5,-98 236.5,-119 339.5,-119 339.5,-98 236.5,-98"/>
<polygon fill="none" stroke="black" points="339.5,-98 339.5,-119 475.5,-119 475.5,-98 339.5,-98"/>
<text text-anchor="start" x="365" y="-104.8" font-family="Times,serif" font-size="14.00">dst_ip_addr</text>
<polygon fill="none" stroke="black" points="24.5,-77 24.5,-98 55.5,-98 55.5,-77 24.5,-77"/>
<text text-anchor="start" x="30.5" y="-83.8" font-family="Times,serif" font-size="14.00">20</text>
<polygon fill="none" stroke="black" points="55.5,-77 55.5,-98 236.5,-98 236.5,-77 55.5,-77"/>
<text text-anchor="start" x="92.5" y="-83.8" font-family="Times,serif" font-size="14.00">(ihl_bytes &#45; 20)</text>
<polygon fill="none" stroke="black" points="236.5,-77 236.5,-98 339.5,-98 339.5,-77 236.5,-77"/>
<text text-anchor="start" x="244" y="-83.8" font-family="Times,serif" font-size="14.00">Ipv4Options</text>
<polygon fill="none" stroke="black" points="339.5,-77 339.5,-98 475.5,-98 475.5,-77 339.5,-77"/>
<text text-anchor="start" x="381" y="-83.8" font-family="Times,serif" font-size="14.00">options</text>
<polygon fill="none" stroke="black" points="24.5,-56 24.5,-77 55.5,-77 55.5,-56 24.5,-56"/>
<text text-anchor="start" x="33" y="-62.8" font-family="Times,serif" font-size="14.00">...</text>
<polygon fill="none" stroke="black" points="55.5,-56 55.5,-77 236.5,-77 236.5,-56 55.5,-56"/>
<text text-anchor="start" x="58.5" y="-62.8" font-family="Times,serif" font-size="14.00">(total_length &#45; ihl_bytes)</text>
<polygon fill="none" stroke="black" points="236.5,-56 236.5,-77 339.5,-77 339.5,-56 236.5,-56"/>
<text text-anchor="start" x="239.5" y="-62.8" font-family="Times,serif" font-size="14.00">ProtocolBody</text>
<polygon fill="none" stroke="black" points="339.5,-56 339.5,-77 475.5,-77 475.5,-56 339.5,-56"/>
<text text-anchor="start" x="390" y="-62.8" font-family="Times,serif" font-size="14.00">body</text>
</g>
<!-- ipv4_packet__seq&#45;&gt;ipv4_packet__seq -->
<g id="edge3" class="edge"><title>ipv4_packet__seq:total_length_type&#45;&gt;ipv4_packet__seq:body_size</title>
<path fill="none" stroke="#404040" d="M424.741,-266.08C502.059,-314.156 488.401,-351.5 276.5,-351.5 70.3513,-351.5 51.8286,-158.766 122.166,-84.2977"/>
<polygon fill="#404040" stroke="#404040" points="124.924,-86.5021 129.723,-77.0564 120.081,-81.4478 124.924,-86.5021"/>
</g>
<!-- ipv4_packet__inst__version -->
<g id="node2" class="node"><title>ipv4_packet__inst__version</title>
<polygon fill="#e0ffe0" stroke="none" points="534.5,-241 534.5,-262 593.5,-262 593.5,-241 534.5,-241"/>
<polygon fill="none" stroke="black" points="534.5,-241 534.5,-262 593.5,-262 593.5,-241 534.5,-241"/>
<text text-anchor="start" x="557" y="-247.8" font-family="Times,serif" font-size="14.00">id</text>
<polygon fill="#e0ffe0" stroke="none" points="593.5,-241 593.5,-262 729.5,-262 729.5,-241 593.5,-241"/>
<polygon fill="none" stroke="black" points="593.5,-241 593.5,-262 729.5,-262 729.5,-241 593.5,-241"/>
<text text-anchor="start" x="642" y="-247.8" font-family="Times,serif" font-size="14.00">value</text>
<polygon fill="none" stroke="black" points="534.5,-220 534.5,-241 593.5,-241 593.5,-220 534.5,-220"/>
<text text-anchor="start" x="537.5" y="-226.8" font-family="Times,serif" font-size="14.00">version</text>
<polygon fill="none" stroke="black" points="593.5,-220 593.5,-241 729.5,-241 729.5,-220 593.5,-220"/>
<text text-anchor="start" x="596.5" y="-226.8" font-family="Times,serif" font-size="14.00">((b1 &amp; 240) &gt;&gt; 4)</text>
</g>
<!-- ipv4_packet__seq&#45;&gt;ipv4_packet__inst__version -->
<g id="edge6" class="edge"><title>ipv4_packet__seq:b1_type&#45;&gt;ipv4_packet__inst__version</title>
<path fill="none" stroke="#404040" d="M476.5,-298C494.928,-298 494.269,-282.726 511,-275 515.019,-273.144 519.162,-271.367 523.382,-269.669"/>
<polygon fill="#404040" stroke="#404040" points="524.651,-272.931 532.729,-266.075 522.139,-266.397 524.651,-272.931"/>
</g>
<!-- ipv4_packet__inst__ihl -->
<g id="node3" class="node"><title>ipv4_packet__inst__ihl</title>
<polygon fill="#e0ffe0" stroke="none" points="581.5,-309 581.5,-330 606.5,-330 606.5,-309 581.5,-309"/>
<polygon fill="none" stroke="black" points="581.5,-309 581.5,-330 606.5,-330 606.5,-309 581.5,-309"/>
<text text-anchor="start" x="587" y="-315.8" font-family="Times,serif" font-size="14.00">id</text>
<polygon fill="#e0ffe0" stroke="none" points="606.5,-309 606.5,-330 681.5,-330 681.5,-309 606.5,-309"/>
<polygon fill="none" stroke="black" points="606.5,-309 606.5,-330 681.5,-330 681.5,-309 606.5,-309"/>
<text text-anchor="start" x="624.5" y="-315.8" font-family="Times,serif" font-size="14.00">value</text>
<polygon fill="none" stroke="black" points="581.5,-288 581.5,-309 606.5,-309 606.5,-288 581.5,-288"/>
<text text-anchor="start" x="584.5" y="-294.8" font-family="Times,serif" font-size="14.00">ihl</text>
<polygon fill="none" stroke="black" points="606.5,-288 606.5,-309 681.5,-309 681.5,-288 606.5,-288"/>
<text text-anchor="start" x="609.5" y="-294.8" font-family="Times,serif" font-size="14.00">(b1 &amp; 15)</text>
</g>
<!-- ipv4_packet__seq&#45;&gt;ipv4_packet__inst__ihl -->
<g id="edge7" class="edge"><title>ipv4_packet__seq:b1_type&#45;&gt;ipv4_packet__inst__ihl</title>
<path fill="none" stroke="#404040" d="M476.5,-298C504.903,-298 536.177,-299.885 563.08,-302.094"/>
<polygon fill="#404040" stroke="#404040" points="562.9,-305.591 573.161,-302.953 563.495,-298.616 562.9,-305.591"/>
</g>
<!-- ipv4_options__seq -->
<g id="node5" class="node"><title>ipv4_options__seq</title>
<polygon fill="#e0ffe0" stroke="none" points="527.5,-151 527.5,-172 558.5,-172 558.5,-151 527.5,-151"/>
<polygon fill="none" stroke="black" points="527.5,-151 527.5,-172 558.5,-172 558.5,-151 527.5,-151"/>
<text text-anchor="start" x="530.5" y="-157.8" font-family="Times,serif" font-size="14.00">pos</text>
<polygon fill="#e0ffe0" stroke="none" points="558.5,-151 558.5,-172 592.5,-172 592.5,-151 558.5,-151"/>
<polygon fill="none" stroke="black" points="558.5,-151 558.5,-172 592.5,-172 592.5,-151 558.5,-151"/>
<text text-anchor="start" x="561.5" y="-157.8" font-family="Times,serif" font-size="14.00">size</text>
<polygon fill="#e0ffe0" stroke="none" points="592.5,-151 592.5,-172 679.5,-172 679.5,-151 592.5,-151"/>
<polygon fill="none" stroke="black" points="592.5,-151 592.5,-172 679.5,-172 679.5,-151 592.5,-151"/>
<text text-anchor="start" x="620" y="-157.8" font-family="Times,serif" font-size="14.00">type</text>
<polygon fill="#e0ffe0" stroke="none" points="679.5,-151 679.5,-172 736.5,-172 736.5,-151 679.5,-151"/>
<polygon fill="none" stroke="black" points="679.5,-151 679.5,-172 736.5,-172 736.5,-151 679.5,-151"/>
<text text-anchor="start" x="701" y="-157.8" font-family="Times,serif" font-size="14.00">id</text>
<polygon fill="none" stroke="black" points="527.5,-130 527.5,-151 558.5,-151 558.5,-130 527.5,-130"/>
<text text-anchor="start" x="538" y="-136.8" font-family="Times,serif" font-size="14.00">0</text>
<polygon fill="none" stroke="black" points="558.5,-130 558.5,-151 592.5,-151 592.5,-130 558.5,-130"/>
<text text-anchor="start" x="568.5" y="-136.8" font-family="Times,serif" font-size="14.00">...</text>
<polygon fill="none" stroke="black" points="592.5,-130 592.5,-151 679.5,-151 679.5,-130 592.5,-130"/>
<text text-anchor="start" x="595.5" y="-136.8" font-family="Times,serif" font-size="14.00">Ipv4Option</text>
<polygon fill="none" stroke="black" points="679.5,-130 679.5,-151 736.5,-151 736.5,-130 679.5,-130"/>
<text text-anchor="start" x="682.5" y="-136.8" font-family="Times,serif" font-size="14.00">entries</text>
<polygon fill="none" stroke="black" points="527.5,-109 527.5,-130 736.5,-130 736.5,-109 527.5,-109"/>
<text text-anchor="start" x="547.5" y="-115.8" font-family="Times,serif" font-size="14.00">repeat to end of stream</text>
</g>
<!-- ipv4_packet__seq&#45;&gt;ipv4_options__seq -->
<g id="edge2" class="edge"><title>ipv4_packet__seq:options_type&#45;&gt;ipv4_options__seq</title>
<path fill="none" stroke="black" stroke-width="2" d="M476.5,-87C493.048,-87 495.48,-95.2598 511,-101 511.875,-101.324 512.755,-101.648 513.638,-101.972"/>
<polygon fill="black" stroke="black" stroke-width="2" points="512.625,-105.328 523.219,-105.45 515.014,-98.748 512.625,-105.328"/>
</g>
<!-- protocol_body__seq -->
<g id="node10" class="node"><title>protocol_body__seq</title>
<text text-anchor="middle" x="631.5" y="-14.3" font-family="Times,serif" font-size="14.00">protocol_body__seq</text>
</g>
<!-- ipv4_packet__seq&#45;&gt;protocol_body__seq -->
<g id="edge5" class="edge"><title>ipv4_packet__seq:body_type&#45;&gt;protocol_body__seq</title>
<path fill="none" stroke="black" stroke-width="2" d="M476.5,-66C495.7,-66 493.422,-47.7226 511,-40 520.907,-35.6475 531.642,-32.156 542.475,-29.3552"/>
<polygon fill="black" stroke="black" stroke-width="2" points="543.52,-32.704 552.431,-26.9722 541.891,-25.8963 543.52,-32.704"/>
</g>
<!-- ipv4_packet__inst__ihl_bytes -->
<g id="node4" class="node"><title>ipv4_packet__inst__ihl_bytes</title>
<polygon fill="#e0ffe0" stroke="none" points="858.5,-82 858.5,-103 929.5,-103 929.5,-82 858.5,-82"/>
<polygon fill="none" stroke="black" points="858.5,-82 858.5,-103 929.5,-103 929.5,-82 858.5,-82"/>
<text text-anchor="start" x="887" y="-88.8" font-family="Times,serif" font-size="14.00">id</text>
<polygon fill="#e0ffe0" stroke="none" points="929.5,-82 929.5,-103 990.5,-103 990.5,-82 929.5,-82"/>
<polygon fill="none" stroke="black" points="929.5,-82 929.5,-103 990.5,-103 990.5,-82 929.5,-82"/>
<text text-anchor="start" x="940.5" y="-88.8" font-family="Times,serif" font-size="14.00">value</text>
<polygon fill="none" stroke="black" points="858.5,-61 858.5,-82 929.5,-82 929.5,-61 858.5,-61"/>
<text text-anchor="start" x="861.5" y="-67.8" font-family="Times,serif" font-size="14.00">ihl_bytes</text>
<polygon fill="none" stroke="black" points="929.5,-61 929.5,-82 990.5,-82 990.5,-61 929.5,-61"/>
<text text-anchor="start" x="932.5" y="-67.8" font-family="Times,serif" font-size="14.00">(ihl * 4)</text>
</g>
<!-- ipv4_packet__inst__ihl&#45;&gt;ipv4_packet__inst__ihl_bytes -->
<g id="edge8" class="edge"><title>ipv4_packet__inst__ihl:ihl_type&#45;&gt;ipv4_packet__inst__ihl_bytes</title>
<path fill="none" stroke="#404040" d="M689.724,-306.033C712.347,-301.846 736.579,-293.033 752,-275 799.723,-219.194 721.867,-164.652 772,-111 789.513,-92.2579 815.13,-83.481 840.335,-79.836"/>
<polygon fill="#404040" stroke="#404040" points="840.815,-83.3036 850.331,-78.6444 839.987,-76.3529 840.815,-83.3036"/>
</g>
<!-- ipv4_packet__inst__ihl_bytes&#45;&gt;ipv4_packet__seq -->
<g id="edge1" class="edge"><title>ipv4_packet__inst__ihl_bytes:ihl_bytes_type&#45;&gt;ipv4_packet__seq:options_size</title>
<path fill="none" stroke="#404040" d="M850.302,-82.471C710.585,-83.3701 405.699,-85.332 247.009,-86.3532"/>
<polygon fill="#404040" stroke="#404040" points="246.749,-82.8547 236.771,-86.4191 246.794,-89.8546 246.749,-82.8547"/>
</g>
<!-- ipv4_packet__inst__ihl_bytes&#45;&gt;ipv4_packet__seq -->
<g id="edge4" class="edge"><title>ipv4_packet__inst__ihl_bytes:ihl_bytes_type&#45;&gt;ipv4_packet__seq:body_size</title>
<path fill="none" stroke="#404040" d="M850.308,-75.6853C670.631,-60.629 217.717,-25.5342 153.195,-48.5315"/>
<polygon fill="#404040" stroke="#404040" points="150.903,-45.8862 145.5,-55 155.407,-51.2446 150.903,-45.8862"/>
</g>
<!-- ipv4_option__seq -->
<g id="node6" class="node"><title>ipv4_option__seq</title>
<polygon fill="#e0ffe0" stroke="none" points="788.5,-209 788.5,-230 819.5,-230 819.5,-209 788.5,-209"/>
<polygon fill="none" stroke="black" points="788.5,-209 788.5,-230 819.5,-230 819.5,-209 788.5,-209"/>
<text text-anchor="start" x="791.5" y="-215.8" font-family="Times,serif" font-size="14.00">pos</text>
<polygon fill="#e0ffe0" stroke="none" points="819.5,-209 819.5,-230 982.5,-230 982.5,-209 819.5,-209"/>
<polygon fill="none" stroke="black" points="819.5,-209 819.5,-230 982.5,-230 982.5,-209 819.5,-209"/>
<text text-anchor="start" x="887" y="-215.8" font-family="Times,serif" font-size="14.00">size</text>
<polygon fill="#e0ffe0" stroke="none" points="982.5,-209 982.5,-230 1020.5,-230 1020.5,-209 982.5,-209"/>
<polygon fill="none" stroke="black" points="982.5,-209 982.5,-230 1020.5,-230 1020.5,-209 982.5,-209"/>
<text text-anchor="start" x="985.5" y="-215.8" font-family="Times,serif" font-size="14.00">type</text>
<polygon fill="#e0ffe0" stroke="none" points="1020.5,-209 1020.5,-230 1061.5,-230 1061.5,-209 1020.5,-209"/>
<polygon fill="none" stroke="black" points="1020.5,-209 1020.5,-230 1061.5,-230 1061.5,-209 1020.5,-209"/>
<text text-anchor="start" x="1034" y="-215.8" font-family="Times,serif" font-size="14.00">id</text>
<polygon fill="none" stroke="black" points="788.5,-188 788.5,-209 819.5,-209 819.5,-188 788.5,-188"/>
<text text-anchor="start" x="799" y="-194.8" font-family="Times,serif" font-size="14.00">0</text>
<polygon fill="none" stroke="black" points="819.5,-188 819.5,-209 982.5,-209 982.5,-188 819.5,-188"/>
<text text-anchor="start" x="896" y="-194.8" font-family="Times,serif" font-size="14.00">1</text>
<polygon fill="none" stroke="black" points="982.5,-188 982.5,-209 1020.5,-209 1020.5,-188 982.5,-188"/>
<text text-anchor="start" x="992" y="-194.8" font-family="Times,serif" font-size="14.00">u1</text>
<polygon fill="none" stroke="black" points="1020.5,-188 1020.5,-209 1061.5,-209 1061.5,-188 1020.5,-188"/>
<text text-anchor="start" x="1031.5" y="-194.8" font-family="Times,serif" font-size="14.00">b1</text>
<polygon fill="none" stroke="black" points="788.5,-167 788.5,-188 819.5,-188 819.5,-167 788.5,-167"/>
<text text-anchor="start" x="799" y="-173.8" font-family="Times,serif" font-size="14.00">1</text>
<polygon fill="none" stroke="black" points="819.5,-167 819.5,-188 982.5,-188 982.5,-167 819.5,-167"/>
<text text-anchor="start" x="896" y="-173.8" font-family="Times,serif" font-size="14.00">1</text>
<polygon fill="none" stroke="black" points="982.5,-167 982.5,-188 1020.5,-188 1020.5,-167 982.5,-167"/>
<text text-anchor="start" x="992" y="-173.8" font-family="Times,serif" font-size="14.00">u1</text>
<polygon fill="none" stroke="black" points="1020.5,-167 1020.5,-188 1061.5,-188 1061.5,-167 1020.5,-167"/>
<text text-anchor="start" x="1030" y="-173.8" font-family="Times,serif" font-size="14.00">len</text>
<polygon fill="none" stroke="black" points="788.5,-146 788.5,-167 819.5,-167 819.5,-146 788.5,-146"/>
<text text-anchor="start" x="799" y="-152.8" font-family="Times,serif" font-size="14.00">2</text>
<polygon fill="none" stroke="black" points="819.5,-146 819.5,-167 982.5,-167 982.5,-146 819.5,-146"/>
<text text-anchor="start" x="822.5" y="-152.8" font-family="Times,serif" font-size="14.00">(len &gt; 2 ? (len &#45; 2) : 0)</text>
<polygon fill="none" stroke="black" points="982.5,-146 982.5,-167 1020.5,-167 1020.5,-146 982.5,-146"/>
<polygon fill="none" stroke="black" points="1020.5,-146 1020.5,-167 1061.5,-167 1061.5,-146 1020.5,-146"/>
<text text-anchor="start" x="1023.5" y="-152.8" font-family="Times,serif" font-size="14.00">body</text>
</g>
<!-- ipv4_options__seq&#45;&gt;ipv4_option__seq -->
<g id="edge9" class="edge"><title>ipv4_options__seq:entries_type&#45;&gt;ipv4_option__seq</title>
<path fill="none" stroke="black" stroke-width="2" d="M737.5,-140C748.16,-140 759.058,-140.748 769.968,-142.058"/>
<polygon fill="black" stroke="black" stroke-width="2" points="769.606,-145.541 779.985,-143.414 770.544,-138.604 769.606,-145.541"/>
</g>
<!-- ipv4_option__seq&#45;&gt;ipv4_option__seq -->
<g id="edge10" class="edge"><title>ipv4_option__seq:len_type&#45;&gt;ipv4_option__seq:body_size</title>
<path fill="none" stroke="#404040" d="M1054.64,-188.017C1075.28,-212.725 1062.11,-252 971,-252 887.303,-252 869.382,-205.884 883.019,-175.782"/>
<polygon fill="#404040" stroke="#404040" points="886.125,-177.407 888.226,-167.022 880.108,-173.83 886.125,-177.407"/>
</g>
<!-- ipv4_option__seq&#45;&gt;ipv4_option__seq -->
<g id="edge11" class="edge"><title>ipv4_option__seq:len_type&#45;&gt;ipv4_option__seq:body_size</title>
<path fill="none" stroke="#404040" d="M1061.8,-186.806C1111.91,-217.454 1098.47,-270 971,-270 851.784,-270 832.305,-209.342 871.28,-173.514"/>
<polygon fill="#404040" stroke="#404040" points="873.621,-176.124 879.227,-167.134 869.239,-170.665 873.621,-176.124"/>
</g>
<!-- ipv4_option__inst__copy -->
<g id="node7" class="node"><title>ipv4_option__inst__copy</title>
<polygon fill="#e0ffe0" stroke="none" points="1125,-148 1125,-169 1165,-169 1165,-148 1125,-148"/>
<polygon fill="none" stroke="black" points="1125,-148 1125,-169 1165,-169 1165,-148 1125,-148"/>
<text text-anchor="start" x="1138" y="-154.8" font-family="Times,serif" font-size="14.00">id</text>
<polygon fill="#e0ffe0" stroke="none" points="1165,-148 1165,-169 1301,-169 1301,-148 1165,-148"/>
<polygon fill="none" stroke="black" points="1165,-148 1165,-169 1301,-169 1301,-148 1165,-148"/>
<text text-anchor="start" x="1213.5" y="-154.8" font-family="Times,serif" font-size="14.00">value</text>
<polygon fill="none" stroke="black" points="1125,-127 1125,-148 1165,-148 1165,-127 1125,-127"/>
<text text-anchor="start" x="1128" y="-133.8" font-family="Times,serif" font-size="14.00">copy</text>
<polygon fill="none" stroke="black" points="1165,-127 1165,-148 1301,-148 1301,-127 1165,-127"/>
<text text-anchor="start" x="1168" y="-133.8" font-family="Times,serif" font-size="14.00">((b1 &amp; 128) &gt;&gt; 7)</text>
</g>
<!-- ipv4_option__seq&#45;&gt;ipv4_option__inst__copy -->
<g id="edge12" class="edge"><title>ipv4_option__seq:b1_type&#45;&gt;ipv4_option__inst__copy</title>
<path fill="none" stroke="#404040" d="M1062.5,-199C1082.84,-199 1085.85,-188.863 1105,-182 1110.22,-180.13 1115.6,-178.256 1121.04,-176.402"/>
<polygon fill="#404040" stroke="#404040" points="1122.51,-179.599 1130.87,-173.091 1120.28,-172.964 1122.51,-179.599"/>
</g>
<!-- ipv4_option__inst__opt_class -->
<g id="node8" class="node"><title>ipv4_option__inst__opt_class</title>
<polygon fill="#e0ffe0" stroke="none" points="1113,-216 1113,-237 1186,-237 1186,-216 1113,-216"/>
<polygon fill="none" stroke="black" points="1113,-216 1113,-237 1186,-237 1186,-216 1113,-216"/>
<text text-anchor="start" x="1142.5" y="-222.8" font-family="Times,serif" font-size="14.00">id</text>
<polygon fill="#e0ffe0" stroke="none" points="1186,-216 1186,-237 1313,-237 1313,-216 1186,-216"/>
<polygon fill="none" stroke="black" points="1186,-216 1186,-237 1313,-237 1313,-216 1186,-216"/>
<text text-anchor="start" x="1230" y="-222.8" font-family="Times,serif" font-size="14.00">value</text>
<polygon fill="none" stroke="black" points="1113,-195 1113,-216 1186,-216 1186,-195 1113,-195"/>
<text text-anchor="start" x="1116" y="-201.8" font-family="Times,serif" font-size="14.00">opt_class</text>
<polygon fill="none" stroke="black" points="1186,-195 1186,-216 1313,-216 1313,-195 1186,-195"/>
<text text-anchor="start" x="1189" y="-201.8" font-family="Times,serif" font-size="14.00">((b1 &amp; 96) &gt;&gt; 5)</text>
</g>
<!-- ipv4_option__seq&#45;&gt;ipv4_option__inst__opt_class -->
<g id="edge13" class="edge"><title>ipv4_option__seq:b1_type&#45;&gt;ipv4_option__inst__opt_class</title>
<path fill="none" stroke="#404040" d="M1062.5,-199C1073,-199 1083.89,-199.419 1094.78,-200.126"/>
<polygon fill="#404040" stroke="#404040" points="1094.55,-203.618 1104.78,-200.852 1095.06,-196.637 1094.55,-203.618"/>
</g>
<!-- ipv4_option__inst__number -->
<g id="node9" class="node"><title>ipv4_option__inst__number</title>
<polygon fill="#e0ffe0" stroke="none" points="1145,-284 1145,-305 1207,-305 1207,-284 1145,-284"/>
<polygon fill="none" stroke="black" points="1145,-284 1145,-305 1207,-305 1207,-284 1145,-284"/>
<text text-anchor="start" x="1169" y="-290.8" font-family="Times,serif" font-size="14.00">id</text>
<polygon fill="#e0ffe0" stroke="none" points="1207,-284 1207,-305 1282,-305 1282,-284 1207,-284"/>
<polygon fill="none" stroke="black" points="1207,-284 1207,-305 1282,-305 1282,-284 1207,-284"/>
<text text-anchor="start" x="1225" y="-290.8" font-family="Times,serif" font-size="14.00">value</text>
<polygon fill="none" stroke="black" points="1145,-263 1145,-284 1207,-284 1207,-263 1145,-263"/>
<text text-anchor="start" x="1148" y="-269.8" font-family="Times,serif" font-size="14.00">number</text>
<polygon fill="none" stroke="black" points="1207,-263 1207,-284 1282,-284 1282,-263 1207,-263"/>
<text text-anchor="start" x="1210" y="-269.8" font-family="Times,serif" font-size="14.00">(b1 &amp; 31)</text>
</g>
<!-- ipv4_option__seq&#45;&gt;ipv4_option__inst__number -->
<g id="edge14" class="edge"><title>ipv4_option__seq:b1_type&#45;&gt;ipv4_option__inst__number</title>
<path fill="none" stroke="#404040" d="M1062.5,-199C1092.01,-199 1080.51,-233.539 1105,-250 1111.86,-254.611 1119.38,-258.628 1127.16,-262.121"/>
<polygon fill="#404040" stroke="#404040" points="1125.81,-265.349 1136.39,-265.984 1128.51,-258.892 1125.81,-265.349"/>
</g>
</g>
</svg>
