<?xml version="1.0" encoding="UTF-8" standalone="no"?>
<!DOCTYPE svg PUBLIC "-//W3C//DTD SVG 1.1//EN"
 "http://www.w3.org/Graphics/SVG/1.1/DTD/svg11.dtd">
<!-- Generated by graphviz version 2.40.1 (20161225.0304)
 -->
<!-- Title: %3 Pages: 1 -->
<svg width="889pt" height="413pt"
 viewBox="0.00 0.00 889.00 413.00" xmlns="http://www.w3.org/2000/svg" xmlns:xlink="http://www.w3.org/1999/xlink">
<g id="graph0" class="graph" transform="scale(1 1) rotate(0) translate(4 409)">
<title>%3</title>
<polygon fill="#ffffff" stroke="transparent" points="-4,4 -4,-409 885,-409 885,4 -4,4"/>
<g id="clust1" class="cluster">
<title>cluster__rtp_packet</title>
<polygon fill="none" stroke="#000000" stroke-dasharray="1,5" points="8,-8 8,-397 873,-397 873,-8 8,-8"/>
<text text-anchor="middle" x="440.5" y="-381.8" font-family="Times,serif" font-size="14.00" fill="#000000">RtpPacket</text>
</g>
<g id="clust2" class="cluster">
<title>cluster__header_extention</title>
<polygon fill="none" stroke="#000000" stroke-dasharray="1,5" points="618,-133 618,-244 789,-244 789,-133 618,-133"/>
<text text-anchor="middle" x="703.5" y="-228.8" font-family="Times,serif" font-size="14.00" fill="#000000">RtpPacket::HeaderExtention</text>
</g>
<!-- rtp_packet__seq -->
<g id="node1" class="node">
<title>rtp_packet__seq</title>
<polygon fill="#e0ffe0" stroke="transparent" points="24.5,-340 24.5,-361 49.5,-361 49.5,-340 24.5,-340"/>
<polygon fill="none" stroke="#000000" points="24.5,-340 24.5,-361 49.5,-361 49.5,-340 24.5,-340"/>
<text text-anchor="start" x="27.5" y="-346.8" font-family="Times,serif" font-size="14.00" fill="#000000">pos</text>
<polygon fill="#e0ffe0" stroke="transparent" points="49.5,-340 49.5,-361 246.5,-361 246.5,-340 49.5,-340"/>
<polygon fill="none" stroke="#000000" points="49.5,-340 49.5,-361 246.5,-361 246.5,-340 49.5,-340"/>
<text text-anchor="start" x="137" y="-346.8" font-family="Times,serif" font-size="14.00" fill="#000000">size</text>
<polygon fill="#e0ffe0" stroke="transparent" points="246.5,-340 246.5,-361 392.5,-361 392.5,-340 246.5,-340"/>
<polygon fill="none" stroke="#000000" points="246.5,-340 246.5,-361 392.5,-361 392.5,-340 246.5,-340"/>
<text text-anchor="start" x="307.5" y="-346.8" font-family="Times,serif" font-size="14.00" fill="#000000">type</text>
<polygon fill="#e0ffe0" stroke="transparent" points="392.5,-340 392.5,-361 497.5,-361 497.5,-340 392.5,-340"/>
<polygon fill="none" stroke="#000000" points="392.5,-340 392.5,-361 497.5,-361 497.5,-340 392.5,-340"/>
<text text-anchor="start" x="439.5" y="-346.8" font-family="Times,serif" font-size="14.00" fill="#000000">id</text>
<polygon fill="none" stroke="#000000" points="24.5,-319 24.5,-340 49.5,-340 49.5,-319 24.5,-319"/>
<text text-anchor="start" x="33.5" y="-325.8" font-family="Times,serif" font-size="14.00" fill="#000000">0</text>
<polygon fill="none" stroke="#000000" points="49.5,-319 49.5,-340 246.5,-340 246.5,-319 49.5,-319"/>
<text text-anchor="start" x="141" y="-325.8" font-family="Times,serif" font-size="14.00" fill="#000000">2b</text>
<polygon fill="none" stroke="#000000" points="246.5,-319 246.5,-340 392.5,-340 392.5,-319 246.5,-319"/>
<text text-anchor="start" x="312.5" y="-325.8" font-family="Times,serif" font-size="14.00" fill="#000000">b2</text>
<polygon fill="none" stroke="#000000" points="392.5,-319 392.5,-340 497.5,-340 497.5,-319 392.5,-319"/>
<text text-anchor="start" x="425" y="-325.8" font-family="Times,serif" font-size="14.00" fill="#000000">version</text>
<polygon fill="none" stroke="#000000" points="24.5,-298 24.5,-319 49.5,-319 49.5,-298 24.5,-298"/>
<text text-anchor="start" x="28" y="-304.8" font-family="Times,serif" font-size="14.00" fill="#000000">0:2</text>
<polygon fill="none" stroke="#000000" points="49.5,-298 49.5,-319 246.5,-319 246.5,-298 49.5,-298"/>
<text text-anchor="start" x="141" y="-304.8" font-family="Times,serif" font-size="14.00" fill="#000000">1b</text>
<polygon fill="none" stroke="#000000" points="246.5,-298 246.5,-319 392.5,-319 392.5,-298 246.5,-298"/>
<text text-anchor="start" x="249.5" y="-304.8" font-family="Times,serif" font-size="14.00" fill="#000000">BitsType1(BigBitEndian)</text>
<polygon fill="none" stroke="#000000" points="392.5,-298 392.5,-319 497.5,-319 497.5,-298 392.5,-298"/>
<text text-anchor="start" x="410.5" y="-304.8" font-family="Times,serif" font-size="14.00" fill="#000000">has_padding</text>
<polygon fill="none" stroke="#000000" points="24.5,-277 24.5,-298 49.5,-298 49.5,-277 24.5,-277"/>
<text text-anchor="start" x="28" y="-283.8" font-family="Times,serif" font-size="14.00" fill="#000000">0:3</text>
<polygon fill="none" stroke="#000000" points="49.5,-277 49.5,-298 246.5,-298 246.5,-277 49.5,-277"/>
<text text-anchor="start" x="141" y="-283.8" font-family="Times,serif" font-size="14.00" fill="#000000">1b</text>
<polygon fill="none" stroke="#000000" points="246.5,-277 246.5,-298 392.5,-298 392.5,-277 246.5,-277"/>
<text text-anchor="start" x="249.5" y="-283.8" font-family="Times,serif" font-size="14.00" fill="#000000">BitsType1(BigBitEndian)</text>
<polygon fill="none" stroke="#000000" points="392.5,-277 392.5,-298 497.5,-298 497.5,-277 392.5,-277"/>
<text text-anchor="start" x="406.5" y="-283.8" font-family="Times,serif" font-size="14.00" fill="#000000">has_extension</text>
<polygon fill="none" stroke="#000000" points="24.5,-256 24.5,-277 49.5,-277 49.5,-256 24.5,-256"/>
<text text-anchor="start" x="28" y="-262.8" font-family="Times,serif" font-size="14.00" fill="#000000">0:4</text>
<polygon fill="none" stroke="#000000" points="49.5,-256 49.5,-277 246.5,-277 246.5,-256 49.5,-256"/>
<text text-anchor="start" x="141" y="-262.8" font-family="Times,serif" font-size="14.00" fill="#000000">4b</text>
<polygon fill="none" stroke="#000000" points="246.5,-256 246.5,-277 392.5,-277 392.5,-256 246.5,-256"/>
<text text-anchor="start" x="312.5" y="-262.8" font-family="Times,serif" font-size="14.00" fill="#000000">b4</text>
<polygon fill="none" stroke="#000000" points="392.5,-256 392.5,-277 497.5,-277 497.5,-256 392.5,-256"/>
<text text-anchor="start" x="415.5" y="-262.8" font-family="Times,serif" font-size="14.00" fill="#000000">csrc_count</text>
<polygon fill="none" stroke="#000000" points="24.5,-235 24.5,-256 49.5,-256 49.5,-235 24.5,-235"/>
<text text-anchor="start" x="33.5" y="-241.8" font-family="Times,serif" font-size="14.00" fill="#000000">1</text>
<polygon fill="none" stroke="#000000" points="49.5,-235 49.5,-256 246.5,-256 246.5,-235 49.5,-235"/>
<text text-anchor="start" x="141" y="-241.8" font-family="Times,serif" font-size="14.00" fill="#000000">1b</text>
<polygon fill="none" stroke="#000000" points="246.5,-235 246.5,-256 392.5,-256 392.5,-235 246.5,-235"/>
<text text-anchor="start" x="249.5" y="-241.8" font-family="Times,serif" font-size="14.00" fill="#000000">BitsType1(BigBitEndian)</text>
<polygon fill="none" stroke="#000000" points="392.5,-235 392.5,-256 497.5,-256 497.5,-235 392.5,-235"/>
<text text-anchor="start" x="425" y="-241.8" font-family="Times,serif" font-size="14.00" fill="#000000">marker</text>
<polygon fill="none" stroke="#000000" points="24.5,-214 24.5,-235 49.5,-235 49.5,-214 24.5,-214"/>
<text text-anchor="start" x="28" y="-220.8" font-family="Times,serif" font-size="14.00" fill="#000000">1:1</text>
<polygon fill="none" stroke="#000000" points="49.5,-214 49.5,-235 246.5,-235 246.5,-214 49.5,-214"/>
<text text-anchor="start" x="141" y="-220.8" font-family="Times,serif" font-size="14.00" fill="#000000">7b</text>
<polygon fill="none" stroke="#000000" points="246.5,-214 246.5,-235 392.5,-235 392.5,-214 246.5,-214"/>
<text text-anchor="start" x="253" y="-220.8" font-family="Times,serif" font-size="14.00" fill="#000000">b7→PayloadTypeEnum</text>
<polygon fill="none" stroke="#000000" points="392.5,-214 392.5,-235 497.5,-235 497.5,-214 392.5,-214"/>
<text text-anchor="start" x="408.5" y="-220.8" font-family="Times,serif" font-size="14.00" fill="#000000">payload_type</text>
<polygon fill="none" stroke="#000000" points="24.5,-193 24.5,-214 49.5,-214 49.5,-193 24.5,-193"/>
<text text-anchor="start" x="33.5" y="-199.8" font-family="Times,serif" font-size="14.00" fill="#000000">2</text>
<polygon fill="none" stroke="#000000" points="49.5,-193 49.5,-214 246.5,-214 246.5,-193 49.5,-193"/>
<text text-anchor="start" x="144.5" y="-199.8" font-family="Times,serif" font-size="14.00" fill="#000000">2</text>
<polygon fill="none" stroke="#000000" points="246.5,-193 246.5,-214 392.5,-214 392.5,-193 246.5,-193"/>
<text text-anchor="start" x="306" y="-199.8" font-family="Times,serif" font-size="14.00" fill="#000000">u2be</text>
<polygon fill="none" stroke="#000000" points="392.5,-193 392.5,-214 497.5,-214 497.5,-193 392.5,-193"/>
<text text-anchor="start" x="395.5" y="-199.8" font-family="Times,serif" font-size="14.00" fill="#000000">sequence_number</text>
<polygon fill="none" stroke="#000000" points="24.5,-172 24.5,-193 49.5,-193 49.5,-172 24.5,-172"/>
<text text-anchor="start" x="33.5" y="-178.8" font-family="Times,serif" font-size="14.00" fill="#000000">4</text>
<polygon fill="none" stroke="#000000" points="49.5,-172 49.5,-193 246.5,-193 246.5,-172 49.5,-172"/>
<text text-anchor="start" x="144.5" y="-178.8" font-family="Times,serif" font-size="14.00" fill="#000000">4</text>
<polygon fill="none" stroke="#000000" points="246.5,-172 246.5,-193 392.5,-193 392.5,-172 246.5,-172"/>
<text text-anchor="start" x="306" y="-178.8" font-family="Times,serif" font-size="14.00" fill="#000000">u4be</text>
<polygon fill="none" stroke="#000000" points="392.5,-172 392.5,-193 497.5,-193 497.5,-172 392.5,-172"/>
<text text-anchor="start" x="416" y="-178.8" font-family="Times,serif" font-size="14.00" fill="#000000">timestamp</text>
<polygon fill="none" stroke="#000000" points="24.5,-151 24.5,-172 49.5,-172 49.5,-151 24.5,-151"/>
<text text-anchor="start" x="33.5" y="-157.8" font-family="Times,serif" font-size="14.00" fill="#000000">8</text>
<polygon fill="none" stroke="#000000" points="49.5,-151 49.5,-172 246.5,-172 246.5,-151 49.5,-151"/>
<text text-anchor="start" x="144.5" y="-157.8" font-family="Times,serif" font-size="14.00" fill="#000000">4</text>
<polygon fill="none" stroke="#000000" points="246.5,-151 246.5,-172 392.5,-172 392.5,-151 246.5,-151"/>
<text text-anchor="start" x="306" y="-157.8" font-family="Times,serif" font-size="14.00" fill="#000000">u4be</text>
<polygon fill="none" stroke="#000000" points="392.5,-151 392.5,-172 497.5,-172 497.5,-151 392.5,-151"/>
<text text-anchor="start" x="434" y="-157.8" font-family="Times,serif" font-size="14.00" fill="#000000">ssrc</text>
<polygon fill="none" stroke="#000000" points="24.5,-130 24.5,-151 49.5,-151 49.5,-130 24.5,-130"/>
<text text-anchor="start" x="30" y="-136.8" font-family="Times,serif" font-size="14.00" fill="#000000">12</text>
<polygon fill="none" stroke="#000000" points="49.5,-130 49.5,-151 246.5,-151 246.5,-130 49.5,-130"/>
<text text-anchor="start" x="144.5" y="-136.8" font-family="Times,serif" font-size="14.00" fill="#000000">4</text>
<polygon fill="none" stroke="#000000" points="246.5,-130 246.5,-151 392.5,-151 392.5,-130 246.5,-130"/>
<text text-anchor="start" x="273.5" y="-136.8" font-family="Times,serif" font-size="14.00" fill="#000000">HeaderExtention</text>
<polygon fill="none" stroke="#000000" points="392.5,-130 392.5,-151 497.5,-151 497.5,-130 392.5,-130"/>
<text text-anchor="start" x="397.5" y="-136.8" font-family="Times,serif" font-size="14.00" fill="#000000">header_extension</text>
<polygon fill="none" stroke="#000000" points="24.5,-109 24.5,-130 49.5,-130 49.5,-109 24.5,-109"/>
<text text-anchor="start" x="30" y="-115.8" font-family="Times,serif" font-size="14.00" fill="#000000">16</text>
<polygon fill="none" stroke="#000000" points="49.5,-109 49.5,-130 246.5,-130 246.5,-109 49.5,-109"/>
<text text-anchor="start" x="52.5" y="-115.8" font-family="Times,serif" font-size="14.00" fill="#000000">((_io.size &#45; _io.pos) &#45; len_padding)</text>
<polygon fill="none" stroke="#000000" points="246.5,-109 246.5,-130 392.5,-130 392.5,-109 246.5,-109"/>
<polygon fill="none" stroke="#000000" points="392.5,-109 392.5,-130 497.5,-130 497.5,-109 392.5,-109"/>
<text text-anchor="start" x="433.5" y="-115.8" font-family="Times,serif" font-size="14.00" fill="#000000">data</text>
<polygon fill="none" stroke="#000000" points="24.5,-88 24.5,-109 49.5,-109 49.5,-88 24.5,-88"/>
<text text-anchor="start" x="31" y="-94.8" font-family="Times,serif" font-size="14.00" fill="#000000">...</text>
<polygon fill="none" stroke="#000000" points="49.5,-88 49.5,-109 246.5,-109 246.5,-88 49.5,-88"/>
<text text-anchor="start" x="114.5" y="-94.8" font-family="Times,serif" font-size="14.00" fill="#000000">len_padding</text>
<polygon fill="none" stroke="#000000" points="246.5,-88 246.5,-109 392.5,-109 392.5,-88 246.5,-88"/>
<polygon fill="none" stroke="#000000" points="392.5,-88 392.5,-109 497.5,-109 497.5,-88 392.5,-88"/>
<text text-anchor="start" x="423" y="-94.8" font-family="Times,serif" font-size="14.00" fill="#000000">padding</text>
</g>
<!-- rtp_packet__inst__len_padding -->
<g id="node3" class="node">
<title>rtp_packet__inst__len_padding</title>
<polygon fill="#e0ffe0" stroke="transparent" points="549,-98 549,-119 622,-119 622,-98 549,-98"/>
<polygon fill="none" stroke="#000000" points="549,-98 549,-119 622,-119 622,-98 549,-98"/>
<text text-anchor="start" x="580" y="-104.8" font-family="Times,serif" font-size="14.00" fill="#000000">id</text>
<polygon fill="#e0ffe0" stroke="transparent" points="622,-98 622,-119 857,-119 857,-98 622,-98"/>
<polygon fill="none" stroke="#000000" points="622,-98 622,-119 857,-119 857,-98 622,-98"/>
<text text-anchor="start" x="724.5" y="-104.8" font-family="Times,serif" font-size="14.00" fill="#000000">value</text>
<polygon fill="none" stroke="#000000" points="549,-77 549,-98 622,-98 622,-77 549,-77"/>
<text text-anchor="start" x="552" y="-83.8" font-family="Times,serif" font-size="14.00" fill="#000000">len_padding</text>
<polygon fill="none" stroke="#000000" points="622,-77 622,-98 857,-98 857,-77 622,-77"/>
<text text-anchor="start" x="625" y="-83.8" font-family="Times,serif" font-size="14.00" fill="#000000">(has_padding ? len_padding_if_exists : 0)</text>
</g>
<!-- rtp_packet__seq&#45;&gt;rtp_packet__inst__len_padding -->
<g id="edge4" class="edge">
<title>rtp_packet__seq:has_padding_type&#45;&gt;rtp_packet__inst__len_padding</title>
<path fill="none" stroke="#404040" d="M497.5,-309C576.588,-309 488.8321,-195.2206 540.7551,-130.7337"/>
<polygon fill="#404040" stroke="#404040" points="543.5744,-132.8404 547.8002,-123.1247 538.4379,-128.0846 543.5744,-132.8404"/>
</g>
<!-- header_extention__seq -->
<g id="node4" class="node">
<title>header_extention__seq</title>
<polygon fill="#e0ffe0" stroke="transparent" points="640,-187 640,-208 665,-208 665,-187 640,-187"/>
<polygon fill="none" stroke="#000000" points="640,-187 640,-208 665,-208 665,-187 640,-187"/>
<text text-anchor="start" x="643" y="-193.8" font-family="Times,serif" font-size="14.00" fill="#000000">pos</text>
<polygon fill="#e0ffe0" stroke="transparent" points="665,-187 665,-208 693,-208 693,-187 665,-187"/>
<polygon fill="none" stroke="#000000" points="665,-187 665,-208 693,-208 693,-187 665,-187"/>
<text text-anchor="start" x="668" y="-193.8" font-family="Times,serif" font-size="14.00" fill="#000000">size</text>
<polygon fill="#e0ffe0" stroke="transparent" points="693,-187 693,-208 726,-208 726,-187 693,-187"/>
<polygon fill="none" stroke="#000000" points="693,-187 693,-208 726,-208 726,-187 693,-187"/>
<text text-anchor="start" x="697.5" y="-193.8" font-family="Times,serif" font-size="14.00" fill="#000000">type</text>
<polygon fill="#e0ffe0" stroke="transparent" points="726,-187 726,-208 766,-208 766,-187 726,-187"/>
<polygon fill="none" stroke="#000000" points="726,-187 726,-208 766,-208 766,-187 726,-187"/>
<text text-anchor="start" x="740.5" y="-193.8" font-family="Times,serif" font-size="14.00" fill="#000000">id</text>
<polygon fill="none" stroke="#000000" points="640,-166 640,-187 665,-187 665,-166 640,-166"/>
<text text-anchor="start" x="649" y="-172.8" font-family="Times,serif" font-size="14.00" fill="#000000">0</text>
<polygon fill="none" stroke="#000000" points="665,-166 665,-187 693,-187 693,-166 665,-166"/>
<text text-anchor="start" x="675.5" y="-172.8" font-family="Times,serif" font-size="14.00" fill="#000000">2</text>
<polygon fill="none" stroke="#000000" points="693,-166 693,-187 726,-187 726,-166 693,-166"/>
<text text-anchor="start" x="696" y="-172.8" font-family="Times,serif" font-size="14.00" fill="#000000">u2be</text>
<polygon fill="none" stroke="#000000" points="726,-166 726,-187 766,-187 766,-166 726,-166"/>
<text text-anchor="start" x="740.5" y="-172.8" font-family="Times,serif" font-size="14.00" fill="#000000">id</text>
<polygon fill="none" stroke="#000000" points="640,-145 640,-166 665,-166 665,-145 640,-145"/>
<text text-anchor="start" x="649" y="-151.8" font-family="Times,serif" font-size="14.00" fill="#000000">2</text>
<polygon fill="none" stroke="#000000" points="665,-145 665,-166 693,-166 693,-145 665,-145"/>
<text text-anchor="start" x="675.5" y="-151.8" font-family="Times,serif" font-size="14.00" fill="#000000">2</text>
<polygon fill="none" stroke="#000000" points="693,-145 693,-166 726,-166 726,-145 693,-145"/>
<text text-anchor="start" x="696" y="-151.8" font-family="Times,serif" font-size="14.00" fill="#000000">u2be</text>
<polygon fill="none" stroke="#000000" points="726,-145 726,-166 766,-166 766,-145 726,-145"/>
<text text-anchor="start" x="729" y="-151.8" font-family="Times,serif" font-size="14.00" fill="#000000">length</text>
</g>
<!-- rtp_packet__seq&#45;&gt;header_extention__seq -->
<g id="edge1" class="edge">
<title>rtp_packet__seq:header_extension_type&#45;&gt;header_extention__seq</title>
<path fill="none" stroke="#000000" stroke-width="2" d="M497.5,-140C538.9299,-140 584.3252,-147.3742 621.8882,-155.5385"/>
<polygon fill="#000000" stroke="#000000" stroke-width="2" points="621.2401,-158.9798 631.7623,-157.7414 622.7644,-152.1478 621.2401,-158.9798"/>
</g>
<!-- rtp_packet__inst__len_padding_if_exists -->
<g id="node2" class="node">
<title>rtp_packet__inst__len_padding_if_exists</title>
<polygon fill="#e0ffe0" stroke="transparent" points="130.5,-41 130.5,-62 206.5,-62 206.5,-41 130.5,-41"/>
<polygon fill="none" stroke="#000000" points="130.5,-41 130.5,-62 206.5,-62 206.5,-41 130.5,-41"/>
<text text-anchor="start" x="159" y="-47.8" font-family="Times,serif" font-size="14.00" fill="#000000">pos</text>
<polygon fill="#e0ffe0" stroke="transparent" points="206.5,-41 206.5,-62 234.5,-62 234.5,-41 206.5,-41"/>
<polygon fill="none" stroke="#000000" points="206.5,-41 206.5,-62 234.5,-62 234.5,-41 206.5,-41"/>
<text text-anchor="start" x="209.5" y="-47.8" font-family="Times,serif" font-size="14.00" fill="#000000">size</text>
<polygon fill="#e0ffe0" stroke="transparent" points="234.5,-41 234.5,-62 264.5,-62 264.5,-41 234.5,-41"/>
<polygon fill="none" stroke="#000000" points="234.5,-41 234.5,-62 264.5,-62 264.5,-41 234.5,-41"/>
<text text-anchor="start" x="237.5" y="-47.8" font-family="Times,serif" font-size="14.00" fill="#000000">type</text>
<polygon fill="#e0ffe0" stroke="transparent" points="264.5,-41 264.5,-62 390.5,-62 390.5,-41 264.5,-41"/>
<polygon fill="none" stroke="#000000" points="264.5,-41 264.5,-62 390.5,-62 390.5,-41 264.5,-41"/>
<text text-anchor="start" x="322" y="-47.8" font-family="Times,serif" font-size="14.00" fill="#000000">id</text>
<polygon fill="none" stroke="#000000" points="130.5,-20 130.5,-41 206.5,-41 206.5,-20 130.5,-20"/>
<text text-anchor="start" x="133.5" y="-26.8" font-family="Times,serif" font-size="14.00" fill="#000000">(_io.size &#45; 1)</text>
<polygon fill="none" stroke="#000000" points="206.5,-20 206.5,-41 234.5,-41 234.5,-20 206.5,-20"/>
<text text-anchor="start" x="217" y="-26.8" font-family="Times,serif" font-size="14.00" fill="#000000">1</text>
<polygon fill="none" stroke="#000000" points="234.5,-20 234.5,-41 264.5,-41 264.5,-20 234.5,-20"/>
<text text-anchor="start" x="242.5" y="-26.8" font-family="Times,serif" font-size="14.00" fill="#000000">u1</text>
<polygon fill="none" stroke="#000000" points="264.5,-20 264.5,-41 390.5,-41 390.5,-20 264.5,-20"/>
<text text-anchor="start" x="267.5" y="-26.8" font-family="Times,serif" font-size="14.00" fill="#000000">len_padding_if_exists</text>
</g>
<!-- rtp_packet__inst__len_padding_if_exists&#45;&gt;rtp_packet__inst__len_padding -->
<g id="edge5" class="edge">
<title>rtp_packet__inst__len_padding_if_exists:len_padding_if_exists_type&#45;&gt;rtp_packet__inst__len_padding</title>
<path fill="none" stroke="#404040" d="M390.5,-30C469.9506,-30 558.2188,-51.246 620.6236,-69.9864"/>
<polygon fill="#404040" stroke="#404040" points="619.8259,-73.4022 630.4119,-72.969 621.8663,-66.7061 619.8259,-73.4022"/>
</g>
<!-- rtp_packet__inst__len_padding&#45;&gt;rtp_packet__seq -->
<g id="edge2" class="edge">
<title>rtp_packet__inst__len_padding:len_padding_type&#45;&gt;rtp_packet__seq:data_size</title>
<path fill="none" stroke="#404040" d="M540.8594,-104.1295C449.5706,-107.5806 338.0002,-111.7984 257.0297,-114.8594"/>
<polygon fill="#404040" stroke="#404040" points="256.6729,-111.3703 246.8123,-115.2456 256.9374,-118.3653 256.6729,-111.3703"/>
</g>
<!-- rtp_packet__inst__len_padding&#45;&gt;rtp_packet__seq -->
<g id="edge3" class="edge">
<title>rtp_packet__inst__len_padding:len_padding_type&#45;&gt;rtp_packet__seq:padding_size</title>
<path fill="none" stroke="#404040" d="M540.8331,-87.4793C395.4436,-79.0303 198.6272,-70.3797 155.9017,-82.3564"/>
<polygon fill="#404040" stroke="#404040" points="153.8495,-79.5186 147.5,-88 157.7527,-85.3294 153.8495,-79.5186"/>
</g>
</g>
</svg>
