<?xml version="1.0" encoding="UTF-8" standalone="no"?>
<!DOCTYPE svg PUBLIC "-//W3C//DTD SVG 1.1//EN"
 "http://www.w3.org/Graphics/SVG/1.1/DTD/svg11.dtd">
<!-- Generated by graphviz version 2.43.0 (0)
 -->
<!-- Title: %3 Pages: 1 -->
<svg width="2150pt" height="471pt"
 viewBox="0.00 0.00 2150.00 471.00" xmlns="http://www.w3.org/2000/svg" xmlns:xlink="http://www.w3.org/1999/xlink">
<g id="graph0" class="graph" transform="scale(1 1) rotate(0) translate(4 467)">
<title>%3</title>
<polygon fill="white" stroke="transparent" points="-4,4 -4,-467 2146,-467 2146,4 -4,4"/>
<g id="clust1" class="cluster">
<title>cluster__chrome_pak</title>
<polygon fill="none" stroke="black" stroke-dasharray="1,5" points="156,-44 156,-455 2134,-455 2134,-44 156,-44"/>
<text text-anchor="middle" x="1145" y="-439.8" font-family="Times,serif" font-size="14.00">ChromePak</text>
</g>
<g id="clust2" class="cluster">
<title>cluster__alias</title>
<polygon fill="none" stroke="black" stroke-dasharray="1,5" points="1421,-203 1421,-334 2126,-334 2126,-203 1421,-203"/>
<text text-anchor="middle" x="1773.5" y="-318.8" font-family="Times,serif" font-size="14.00">ChromePak::Alias</text>
</g>
<g id="clust3" class="cluster">
<title>cluster__header_v5_part</title>
<polygon fill="none" stroke="black" stroke-dasharray="1,5" points="523,-243 523,-374 794,-374 794,-243 523,-243"/>
<text text-anchor="middle" x="658.5" y="-358.8" font-family="Times,serif" font-size="14.00">ChromePak::HeaderV5Part</text>
</g>
<g id="clust4" class="cluster">
<title>cluster__resource</title>
<polygon fill="none" stroke="black" stroke-dasharray="1,5" points="556.5,-52 556.5,-163 1720,-163 1720,-52 556.5,-52"/>
<text text-anchor="middle" x="1138.25" y="-147.8" font-family="Times,serif" font-size="14.00">ChromePak::Resource</text>
</g>
<!-- chrome_pak__seq -->
<g id="node1" class="node">
<title>chrome_pak__seq</title>
<polygon fill="#e0ffe0" stroke="transparent" points="172.5,-399 172.5,-420 203.5,-420 203.5,-399 172.5,-399"/>
<polygon fill="none" stroke="black" points="172.5,-399 172.5,-420 203.5,-420 203.5,-399 172.5,-399"/>
<text text-anchor="start" x="175.5" y="-405.8" font-family="Times,serif" font-size="14.00">pos</text>
<polygon fill="#e0ffe0" stroke="transparent" points="203.5,-399 203.5,-420 237.5,-420 237.5,-399 203.5,-399"/>
<polygon fill="none" stroke="black" points="203.5,-399 203.5,-420 237.5,-420 237.5,-399 203.5,-399"/>
<text text-anchor="start" x="206.5" y="-405.8" font-family="Times,serif" font-size="14.00">size</text>
<polygon fill="#e0ffe0" stroke="transparent" points="237.5,-399 237.5,-420 348.5,-420 348.5,-399 237.5,-399"/>
<polygon fill="none" stroke="black" points="237.5,-399 237.5,-420 348.5,-420 348.5,-399 237.5,-399"/>
<text text-anchor="start" x="277" y="-405.8" font-family="Times,serif" font-size="14.00">type</text>
<polygon fill="#e0ffe0" stroke="transparent" points="348.5,-399 348.5,-420 487.5,-420 487.5,-399 348.5,-399"/>
<polygon fill="none" stroke="black" points="348.5,-399 348.5,-420 487.5,-420 487.5,-399 348.5,-399"/>
<text text-anchor="start" x="411" y="-405.8" font-family="Times,serif" font-size="14.00">id</text>
<polygon fill="none" stroke="black" points="172.5,-378 172.5,-399 203.5,-399 203.5,-378 172.5,-378"/>
<text text-anchor="start" x="183" y="-384.8" font-family="Times,serif" font-size="14.00">0</text>
<polygon fill="none" stroke="black" points="203.5,-378 203.5,-399 237.5,-399 237.5,-378 203.5,-378"/>
<text text-anchor="start" x="215.5" y="-384.8" font-family="Times,serif" font-size="14.00">4</text>
<polygon fill="none" stroke="black" points="237.5,-378 237.5,-399 348.5,-399 348.5,-378 237.5,-378"/>
<text text-anchor="start" x="277.5" y="-384.8" font-family="Times,serif" font-size="14.00">u4le</text>
<polygon fill="none" stroke="black" points="348.5,-378 348.5,-399 487.5,-399 487.5,-378 348.5,-378"/>
<text text-anchor="start" x="391.5" y="-384.8" font-family="Times,serif" font-size="14.00">version</text>
<polygon fill="none" stroke="black" points="172.5,-357 172.5,-378 487.5,-378 487.5,-357 172.5,-357"/>
<text text-anchor="start" x="261" y="-363.8" font-family="Times,serif" font-size="14.00">must be any of 4, 5</text>
<polygon fill="none" stroke="black" points="172.5,-336 172.5,-357 203.5,-357 203.5,-336 172.5,-336"/>
<text text-anchor="start" x="183" y="-342.8" font-family="Times,serif" font-size="14.00">4</text>
<polygon fill="none" stroke="black" points="203.5,-336 203.5,-357 237.5,-357 237.5,-336 203.5,-336"/>
<text text-anchor="start" x="215.5" y="-342.8" font-family="Times,serif" font-size="14.00">4</text>
<polygon fill="none" stroke="black" points="237.5,-336 237.5,-357 348.5,-357 348.5,-336 237.5,-336"/>
<text text-anchor="start" x="277.5" y="-342.8" font-family="Times,serif" font-size="14.00">u4le</text>
<polygon fill="none" stroke="black" points="348.5,-336 348.5,-357 487.5,-357 487.5,-336 348.5,-336"/>
<text text-anchor="start" x="351.5" y="-342.8" font-family="Times,serif" font-size="14.00">num_resources_v4</text>
<polygon fill="none" stroke="black" points="172.5,-315 172.5,-336 487.5,-336 487.5,-315 172.5,-315"/>
<text text-anchor="start" x="275.5" y="-321.8" font-family="Times,serif" font-size="14.00">if version == 4</text>
<polygon fill="none" stroke="black" points="172.5,-294 172.5,-315 203.5,-315 203.5,-294 172.5,-294"/>
<text text-anchor="start" x="183" y="-300.8" font-family="Times,serif" font-size="14.00">8</text>
<polygon fill="none" stroke="black" points="203.5,-294 203.5,-315 237.5,-315 237.5,-294 203.5,-294"/>
<text text-anchor="start" x="215.5" y="-300.8" font-family="Times,serif" font-size="14.00">1</text>
<polygon fill="none" stroke="black" points="237.5,-294 237.5,-315 348.5,-315 348.5,-294 237.5,-294"/>
<text text-anchor="start" x="240.5" y="-300.8" font-family="Times,serif" font-size="14.00">u1→Encodings</text>
<polygon fill="none" stroke="black" points="348.5,-294 348.5,-315 487.5,-315 487.5,-294 348.5,-294"/>
<text text-anchor="start" x="385.5" y="-300.8" font-family="Times,serif" font-size="14.00">encoding</text>
<polygon fill="none" stroke="black" points="172.5,-273 172.5,-294 203.5,-294 203.5,-273 172.5,-273"/>
<text text-anchor="start" x="183" y="-279.8" font-family="Times,serif" font-size="14.00">9</text>
<polygon fill="none" stroke="black" points="203.5,-273 203.5,-294 237.5,-294 237.5,-273 203.5,-273"/>
<text text-anchor="start" x="215.5" y="-279.8" font-family="Times,serif" font-size="14.00">7</text>
<polygon fill="none" stroke="black" points="237.5,-273 237.5,-294 348.5,-294 348.5,-273 237.5,-273"/>
<text text-anchor="start" x="242" y="-279.8" font-family="Times,serif" font-size="14.00">HeaderV5Part</text>
<polygon fill="none" stroke="black" points="348.5,-273 348.5,-294 487.5,-294 487.5,-273 348.5,-273"/>
<text text-anchor="start" x="390.5" y="-279.8" font-family="Times,serif" font-size="14.00">v5_part</text>
<polygon fill="none" stroke="black" points="172.5,-252 172.5,-273 487.5,-273 487.5,-252 172.5,-252"/>
<text text-anchor="start" x="275.5" y="-258.8" font-family="Times,serif" font-size="14.00">if version == 5</text>
<polygon fill="none" stroke="black" points="172.5,-231 172.5,-252 203.5,-252 203.5,-231 172.5,-231"/>
<text text-anchor="start" x="178.5" y="-237.8" font-family="Times,serif" font-size="14.00">16</text>
<polygon fill="none" stroke="black" points="203.5,-231 203.5,-252 237.5,-252 237.5,-231 203.5,-231"/>
<text text-anchor="start" x="215.5" y="-237.8" font-family="Times,serif" font-size="14.00">6</text>
<polygon fill="none" stroke="black" points="237.5,-231 237.5,-252 348.5,-252 348.5,-231 237.5,-231"/>
<text text-anchor="start" x="259.5" y="-237.8" font-family="Times,serif" font-size="14.00">Resource</text>
<polygon fill="none" stroke="black" points="348.5,-231 348.5,-252 487.5,-252 487.5,-231 348.5,-231"/>
<text text-anchor="start" x="383" y="-237.8" font-family="Times,serif" font-size="14.00">resources</text>
<polygon fill="none" stroke="black" points="172.5,-210 172.5,-231 487.5,-231 487.5,-210 172.5,-210"/>
<text text-anchor="start" x="213" y="-216.8" font-family="Times,serif" font-size="14.00">repeat num_resources + 1 times</text>
<polygon fill="none" stroke="black" points="172.5,-189 172.5,-210 203.5,-210 203.5,-189 172.5,-189"/>
<text text-anchor="start" x="181" y="-195.8" font-family="Times,serif" font-size="14.00">...</text>
<polygon fill="none" stroke="black" points="203.5,-189 203.5,-210 237.5,-210 237.5,-189 203.5,-189"/>
<text text-anchor="start" x="215.5" y="-195.8" font-family="Times,serif" font-size="14.00">4</text>
<polygon fill="none" stroke="black" points="237.5,-189 237.5,-210 348.5,-210 348.5,-189 237.5,-189"/>
<text text-anchor="start" x="275.5" y="-195.8" font-family="Times,serif" font-size="14.00">Alias</text>
<polygon fill="none" stroke="black" points="348.5,-189 348.5,-210 487.5,-210 487.5,-189 348.5,-189"/>
<text text-anchor="start" x="393.5" y="-195.8" font-family="Times,serif" font-size="14.00">aliases</text>
<polygon fill="none" stroke="black" points="172.5,-168 172.5,-189 487.5,-189 487.5,-168 172.5,-168"/>
<text text-anchor="start" x="238.5" y="-174.8" font-family="Times,serif" font-size="14.00">repeat num_aliases times</text>
</g>
<!-- chrome_pak__seq&#45;&gt;chrome_pak__seq -->
<g id="edge1" class="edge">
<title>chrome_pak__seq:version_type&#45;&gt;chrome_pak__seq:num_resources_v4__if</title>
<path fill="none" stroke="#404040" d="M348.25,-392.64C213.18,-396.84 0,-391.16 0,-357.5 0,-333.65 76.55,-323.84 161.92,-321.65"/>
<polygon fill="#404040" stroke="#404040" points="162.17,-325.15 172.09,-321.43 162.02,-318.15 162.17,-325.15"/>
</g>
<!-- chrome_pak__seq&#45;&gt;chrome_pak__seq -->
<g id="edge3" class="edge">
<title>chrome_pak__seq:version_type&#45;&gt;chrome_pak__seq:v5_part__if</title>
<path fill="none" stroke="#404040" d="M348.25,-392.48C213.18,-395.93 0,-385.75 0,-325.5 0,-282.8 76.55,-265.25 161.92,-259.87"/>
<polygon fill="#404040" stroke="#404040" points="162.31,-263.36 172.09,-259.29 161.91,-256.37 162.31,-263.36"/>
</g>
<!-- chrome_pak__inst__num_aliases -->
<g id="node2" class="node">
<title>chrome_pak__inst__num_aliases</title>
<polygon fill="#e0ffe0" stroke="transparent" points="912.5,-256 912.5,-277 1006.5,-277 1006.5,-256 912.5,-256"/>
<polygon fill="none" stroke="black" points="912.5,-256 912.5,-277 1006.5,-277 1006.5,-256 912.5,-256"/>
<text text-anchor="start" x="952.5" y="-262.8" font-family="Times,serif" font-size="14.00">id</text>
<polygon fill="#e0ffe0" stroke="transparent" points="1006.5,-256 1006.5,-277 1302.5,-277 1302.5,-256 1006.5,-256"/>
<polygon fill="none" stroke="black" points="1006.5,-256 1006.5,-277 1302.5,-277 1302.5,-256 1006.5,-256"/>
<text text-anchor="start" x="1135" y="-262.8" font-family="Times,serif" font-size="14.00">value</text>
<polygon fill="none" stroke="black" points="912.5,-235 912.5,-256 1006.5,-256 1006.5,-235 912.5,-235"/>
<text text-anchor="start" x="915.5" y="-241.8" font-family="Times,serif" font-size="14.00">num_aliases</text>
<polygon fill="none" stroke="black" points="1006.5,-235 1006.5,-256 1302.5,-256 1302.5,-235 1006.5,-235"/>
<text text-anchor="start" x="1009.5" y="-241.8" font-family="Times,serif" font-size="14.00">(version == 5 ? v5_part.num_aliases : 0)</text>
</g>
<!-- chrome_pak__seq&#45;&gt;chrome_pak__inst__num_aliases -->
<g id="edge8" class="edge">
<title>chrome_pak__seq:version_type&#45;&gt;chrome_pak__inst__num_aliases</title>
<path fill="none" stroke="#404040" d="M488.5,-389C556.91,-389 469.48,-281.61 523,-239 552.07,-215.86 739.33,-224.81 893.99,-236.68"/>
<polygon fill="#404040" stroke="#404040" points="893.89,-240.18 904.13,-237.46 894.43,-233.2 893.89,-240.18"/>
</g>
<!-- chrome_pak__inst__num_resources -->
<g id="node3" class="node">
<title>chrome_pak__inst__num_resources</title>
<polygon fill="#e0ffe0" stroke="transparent" points="830.5,-383 830.5,-404 945.5,-404 945.5,-383 830.5,-383"/>
<polygon fill="none" stroke="black" points="830.5,-383 830.5,-404 945.5,-404 945.5,-383 830.5,-383"/>
<text text-anchor="start" x="881" y="-389.8" font-family="Times,serif" font-size="14.00">id</text>
<polygon fill="#e0ffe0" stroke="transparent" points="945.5,-383 945.5,-404 1385.5,-404 1385.5,-383 945.5,-383"/>
<polygon fill="none" stroke="black" points="945.5,-383 945.5,-404 1385.5,-404 1385.5,-383 945.5,-383"/>
<text text-anchor="start" x="1146" y="-389.8" font-family="Times,serif" font-size="14.00">value</text>
<polygon fill="none" stroke="black" points="830.5,-362 830.5,-383 945.5,-383 945.5,-362 830.5,-362"/>
<text text-anchor="start" x="833.5" y="-368.8" font-family="Times,serif" font-size="14.00">num_resources</text>
<polygon fill="none" stroke="black" points="945.5,-362 945.5,-383 1385.5,-383 1385.5,-362 945.5,-362"/>
<text text-anchor="start" x="948.5" y="-368.8" font-family="Times,serif" font-size="14.00">(version == 5 ? v5_part.num_resources : num_resources_v4)</text>
</g>
<!-- chrome_pak__seq&#45;&gt;chrome_pak__inst__num_resources -->
<g id="edge10" class="edge">
<title>chrome_pak__seq:version_type&#45;&gt;chrome_pak__inst__num_resources</title>
<path fill="none" stroke="#404040" d="M488.5,-389C506,-389 506.05,-403.64 523,-408 639.65,-438 673.65,-412.81 794,-408 799.84,-407.77 805.73,-407.51 811.67,-407.23"/>
<polygon fill="#404040" stroke="#404040" points="811.89,-410.72 821.71,-406.74 811.55,-403.73 811.89,-410.72"/>
</g>
<!-- chrome_pak__seq&#45;&gt;chrome_pak__inst__num_resources -->
<g id="edge12" class="edge">
<title>chrome_pak__seq:num_resources_v4_type&#45;&gt;chrome_pak__inst__num_resources</title>
<path fill="none" stroke="#404040" d="M488.5,-347C513.7,-347 500.4,-380.85 523,-392 577.01,-418.65 733.78,-392.87 794,-392 799.82,-391.92 805.71,-391.82 811.64,-391.72"/>
<polygon fill="#404040" stroke="#404040" points="811.72,-395.22 821.66,-391.55 811.6,-388.22 811.72,-395.22"/>
</g>
<!-- alias__seq -->
<g id="node4" class="node">
<title>alias__seq</title>
<polygon fill="#e0ffe0" stroke="transparent" points="1437,-278 1437,-299 1526,-299 1526,-278 1437,-278"/>
<polygon fill="none" stroke="black" points="1437,-278 1437,-299 1526,-299 1526,-278 1437,-278"/>
<text text-anchor="start" x="1469" y="-284.8" font-family="Times,serif" font-size="14.00">pos</text>
<polygon fill="#e0ffe0" stroke="transparent" points="1526,-278 1526,-299 1589,-299 1589,-278 1526,-278"/>
<polygon fill="none" stroke="black" points="1526,-278 1526,-299 1589,-299 1589,-278 1526,-278"/>
<text text-anchor="start" x="1543.5" y="-284.8" font-family="Times,serif" font-size="14.00">size</text>
<polygon fill="#e0ffe0" stroke="transparent" points="1589,-278 1589,-299 1641,-299 1641,-278 1589,-278"/>
<polygon fill="none" stroke="black" points="1589,-278 1589,-299 1641,-299 1641,-278 1589,-278"/>
<text text-anchor="start" x="1599" y="-284.8" font-family="Times,serif" font-size="14.00">type</text>
<polygon fill="#e0ffe0" stroke="transparent" points="1641,-278 1641,-299 1753,-299 1753,-278 1641,-278"/>
<polygon fill="none" stroke="black" points="1641,-278 1641,-299 1753,-299 1753,-278 1641,-278"/>
<text text-anchor="start" x="1690" y="-284.8" font-family="Times,serif" font-size="14.00">id</text>
<polygon fill="none" stroke="black" points="1437,-257 1437,-278 1526,-278 1526,-257 1437,-257"/>
<text text-anchor="start" x="1476.5" y="-263.8" font-family="Times,serif" font-size="14.00">0</text>
<polygon fill="none" stroke="black" points="1526,-257 1526,-278 1589,-278 1589,-257 1526,-257"/>
<text text-anchor="start" x="1552.5" y="-263.8" font-family="Times,serif" font-size="14.00">2</text>
<polygon fill="none" stroke="black" points="1589,-257 1589,-278 1641,-278 1641,-257 1589,-257"/>
<text text-anchor="start" x="1599.5" y="-263.8" font-family="Times,serif" font-size="14.00">u2le</text>
<polygon fill="none" stroke="black" points="1641,-257 1641,-278 1753,-278 1753,-257 1641,-257"/>
<text text-anchor="start" x="1690" y="-263.8" font-family="Times,serif" font-size="14.00">id</text>
<polygon fill="none" stroke="black" points="1437,-236 1437,-257 1526,-257 1526,-236 1437,-236"/>
<text text-anchor="start" x="1476.5" y="-242.8" font-family="Times,serif" font-size="14.00">2</text>
<polygon fill="none" stroke="black" points="1526,-236 1526,-257 1589,-257 1589,-236 1526,-236"/>
<text text-anchor="start" x="1552.5" y="-242.8" font-family="Times,serif" font-size="14.00">2</text>
<polygon fill="none" stroke="black" points="1589,-236 1589,-257 1641,-257 1641,-236 1589,-236"/>
<text text-anchor="start" x="1599.5" y="-242.8" font-family="Times,serif" font-size="14.00">u2le</text>
<polygon fill="none" stroke="black" points="1641,-236 1641,-257 1753,-257 1753,-236 1641,-236"/>
<text text-anchor="start" x="1651.5" y="-242.8" font-family="Times,serif" font-size="14.00">resource_idx</text>
<polygon fill="none" stroke="black" points="1437,-215 1437,-236 1753,-236 1753,-215 1437,-215"/>
<text text-anchor="start" x="1440" y="-221.8" font-family="Times,serif" font-size="14.00">must be at most _parent.num_resources &#45; 1</text>
</g>
<!-- chrome_pak__seq&#45;&gt;alias__seq -->
<g id="edge6" class="edge">
<title>chrome_pak__seq:aliases_type&#45;&gt;alias__seq</title>
<path fill="none" stroke="black" stroke-width="2" d="M488.5,-199C689.56,-199 1192.92,-202.14 1393,-222 1401.52,-222.85 1410.21,-223.84 1418.98,-224.96"/>
<polygon fill="black" stroke="black" stroke-width="2" points="1418.54,-228.43 1428.91,-226.26 1419.45,-221.49 1418.54,-228.43"/>
</g>
<!-- alias__inst__resource -->
<g id="node5" class="node">
<title>alias__inst__resource</title>
<polygon fill="#e0ffe0" stroke="transparent" points="1805.5,-241 1805.5,-262 1874.5,-262 1874.5,-241 1805.5,-241"/>
<polygon fill="none" stroke="black" points="1805.5,-241 1805.5,-262 1874.5,-262 1874.5,-241 1805.5,-241"/>
<text text-anchor="start" x="1833" y="-247.8" font-family="Times,serif" font-size="14.00">id</text>
<polygon fill="#e0ffe0" stroke="transparent" points="1874.5,-241 1874.5,-262 2110.5,-262 2110.5,-241 1874.5,-241"/>
<polygon fill="none" stroke="black" points="1874.5,-241 1874.5,-262 2110.5,-262 2110.5,-241 1874.5,-241"/>
<text text-anchor="start" x="1973" y="-247.8" font-family="Times,serif" font-size="14.00">value</text>
<polygon fill="none" stroke="black" points="1805.5,-220 1805.5,-241 1874.5,-241 1874.5,-220 1805.5,-220"/>
<text text-anchor="start" x="1808.5" y="-226.8" font-family="Times,serif" font-size="14.00">resource</text>
<polygon fill="none" stroke="black" points="1874.5,-220 1874.5,-241 2110.5,-241 2110.5,-220 1874.5,-220"/>
<text text-anchor="start" x="1877.5" y="-226.8" font-family="Times,serif" font-size="14.00">_parent.resources[resource_idx]</text>
</g>
<!-- chrome_pak__seq&#45;&gt;alias__inst__resource -->
<g id="edge14" class="edge">
<title>chrome_pak__seq:resources_type&#45;&gt;alias__inst__resource</title>
<path fill="none" stroke="#404040" d="M488.5,-241C513.35,-241 500.66,-207.87 523,-197 609.92,-154.7 1296.34,-196.34 1393,-197 1556.57,-198.11 1598.33,-184.82 1761,-202 1786.52,-204.7 1813.66,-209.1 1839.34,-214"/>
<polygon fill="#404040" stroke="#404040" points="1839,-217.5 1849.49,-215.98 1840.34,-210.63 1839,-217.5"/>
</g>
<!-- header_v5_part__seq -->
<g id="node6" class="node">
<title>header_v5_part__seq</title>
<polygon fill="#e0ffe0" stroke="transparent" points="539.5,-318 539.5,-339 570.5,-339 570.5,-318 539.5,-318"/>
<polygon fill="none" stroke="black" points="539.5,-318 539.5,-339 570.5,-339 570.5,-318 539.5,-318"/>
<text text-anchor="start" x="542.5" y="-324.8" font-family="Times,serif" font-size="14.00">pos</text>
<polygon fill="#e0ffe0" stroke="transparent" points="570.5,-318 570.5,-339 604.5,-339 604.5,-318 570.5,-318"/>
<polygon fill="none" stroke="black" points="570.5,-318 570.5,-339 604.5,-339 604.5,-318 570.5,-318"/>
<text text-anchor="start" x="573.5" y="-324.8" font-family="Times,serif" font-size="14.00">size</text>
<polygon fill="#e0ffe0" stroke="transparent" points="604.5,-318 604.5,-339 642.5,-339 642.5,-318 604.5,-318"/>
<polygon fill="none" stroke="black" points="604.5,-318 604.5,-339 642.5,-339 642.5,-318 604.5,-318"/>
<text text-anchor="start" x="607.5" y="-324.8" font-family="Times,serif" font-size="14.00">type</text>
<polygon fill="#e0ffe0" stroke="transparent" points="642.5,-318 642.5,-339 778.5,-339 778.5,-318 642.5,-318"/>
<polygon fill="none" stroke="black" points="642.5,-318 642.5,-339 778.5,-339 778.5,-318 642.5,-318"/>
<text text-anchor="start" x="703.5" y="-324.8" font-family="Times,serif" font-size="14.00">id</text>
<polygon fill="none" stroke="black" points="539.5,-297 539.5,-318 570.5,-318 570.5,-297 539.5,-297"/>
<text text-anchor="start" x="550" y="-303.8" font-family="Times,serif" font-size="14.00">0</text>
<polygon fill="none" stroke="black" points="570.5,-297 570.5,-318 604.5,-318 604.5,-297 570.5,-297"/>
<text text-anchor="start" x="582.5" y="-303.8" font-family="Times,serif" font-size="14.00">3</text>
<polygon fill="none" stroke="black" points="604.5,-297 604.5,-318 642.5,-318 642.5,-297 604.5,-297"/>
<polygon fill="none" stroke="black" points="642.5,-297 642.5,-318 778.5,-318 778.5,-297 642.5,-297"/>
<text text-anchor="start" x="645.5" y="-303.8" font-family="Times,serif" font-size="14.00">encoding_padding</text>
<polygon fill="none" stroke="black" points="539.5,-276 539.5,-297 570.5,-297 570.5,-276 539.5,-276"/>
<text text-anchor="start" x="550" y="-282.8" font-family="Times,serif" font-size="14.00">3</text>
<polygon fill="none" stroke="black" points="570.5,-276 570.5,-297 604.5,-297 604.5,-276 570.5,-276"/>
<text text-anchor="start" x="582.5" y="-282.8" font-family="Times,serif" font-size="14.00">2</text>
<polygon fill="none" stroke="black" points="604.5,-276 604.5,-297 642.5,-297 642.5,-276 604.5,-276"/>
<text text-anchor="start" x="608" y="-282.8" font-family="Times,serif" font-size="14.00">u2le</text>
<polygon fill="none" stroke="black" points="642.5,-276 642.5,-297 778.5,-297 778.5,-276 642.5,-276"/>
<text text-anchor="start" x="656" y="-282.8" font-family="Times,serif" font-size="14.00">num_resources</text>
<polygon fill="none" stroke="black" points="539.5,-255 539.5,-276 570.5,-276 570.5,-255 539.5,-255"/>
<text text-anchor="start" x="550" y="-261.8" font-family="Times,serif" font-size="14.00">5</text>
<polygon fill="none" stroke="black" points="570.5,-255 570.5,-276 604.5,-276 604.5,-255 570.5,-255"/>
<text text-anchor="start" x="582.5" y="-261.8" font-family="Times,serif" font-size="14.00">2</text>
<polygon fill="none" stroke="black" points="604.5,-255 604.5,-276 642.5,-276 642.5,-255 604.5,-255"/>
<text text-anchor="start" x="608" y="-261.8" font-family="Times,serif" font-size="14.00">u2le</text>
<polygon fill="none" stroke="black" points="642.5,-255 642.5,-276 778.5,-276 778.5,-255 642.5,-255"/>
<text text-anchor="start" x="666.5" y="-261.8" font-family="Times,serif" font-size="14.00">num_aliases</text>
</g>
<!-- chrome_pak__seq&#45;&gt;header_v5_part__seq -->
<g id="edge2" class="edge">
<title>chrome_pak__seq:v5_part_type&#45;&gt;header_v5_part__seq</title>
<path fill="none" stroke="black" stroke-width="2" d="M488.5,-283C498.98,-283 509.82,-283.27 520.7,-283.74"/>
<polygon fill="black" stroke="black" stroke-width="2" points="520.55,-287.23 530.71,-284.22 520.89,-280.24 520.55,-287.23"/>
</g>
<!-- resource__seq -->
<g id="node7" class="node">
<title>resource__seq</title>
<polygon fill="#e0ffe0" stroke="transparent" points="572.5,-106 572.5,-127 603.5,-127 603.5,-106 572.5,-106"/>
<polygon fill="none" stroke="black" points="572.5,-106 572.5,-127 603.5,-127 603.5,-106 572.5,-106"/>
<text text-anchor="start" x="575.5" y="-112.8" font-family="Times,serif" font-size="14.00">pos</text>
<polygon fill="#e0ffe0" stroke="transparent" points="603.5,-106 603.5,-127 637.5,-127 637.5,-106 603.5,-106"/>
<polygon fill="none" stroke="black" points="603.5,-106 603.5,-127 637.5,-127 637.5,-106 603.5,-106"/>
<text text-anchor="start" x="606.5" y="-112.8" font-family="Times,serif" font-size="14.00">size</text>
<polygon fill="#e0ffe0" stroke="transparent" points="637.5,-106 637.5,-127 675.5,-127 675.5,-106 637.5,-106"/>
<polygon fill="none" stroke="black" points="637.5,-106 637.5,-127 675.5,-127 675.5,-106 637.5,-106"/>
<text text-anchor="start" x="640.5" y="-112.8" font-family="Times,serif" font-size="14.00">type</text>
<polygon fill="#e0ffe0" stroke="transparent" points="675.5,-106 675.5,-127 744.5,-127 744.5,-106 675.5,-106"/>
<polygon fill="none" stroke="black" points="675.5,-106 675.5,-127 744.5,-127 744.5,-106 675.5,-106"/>
<text text-anchor="start" x="703" y="-112.8" font-family="Times,serif" font-size="14.00">id</text>
<polygon fill="none" stroke="black" points="572.5,-85 572.5,-106 603.5,-106 603.5,-85 572.5,-85"/>
<text text-anchor="start" x="583" y="-91.8" font-family="Times,serif" font-size="14.00">0</text>
<polygon fill="none" stroke="black" points="603.5,-85 603.5,-106 637.5,-106 637.5,-85 603.5,-85"/>
<text text-anchor="start" x="615.5" y="-91.8" font-family="Times,serif" font-size="14.00">2</text>
<polygon fill="none" stroke="black" points="637.5,-85 637.5,-106 675.5,-106 675.5,-85 637.5,-85"/>
<text text-anchor="start" x="641" y="-91.8" font-family="Times,serif" font-size="14.00">u2le</text>
<polygon fill="none" stroke="black" points="675.5,-85 675.5,-106 744.5,-106 744.5,-85 675.5,-85"/>
<text text-anchor="start" x="703" y="-91.8" font-family="Times,serif" font-size="14.00">id</text>
<polygon fill="none" stroke="black" points="572.5,-64 572.5,-85 603.5,-85 603.5,-64 572.5,-64"/>
<text text-anchor="start" x="583" y="-70.8" font-family="Times,serif" font-size="14.00">2</text>
<polygon fill="none" stroke="black" points="603.5,-64 603.5,-85 637.5,-85 637.5,-64 603.5,-64"/>
<text text-anchor="start" x="615.5" y="-70.8" font-family="Times,serif" font-size="14.00">4</text>
<polygon fill="none" stroke="black" points="637.5,-64 637.5,-85 675.5,-85 675.5,-64 637.5,-64"/>
<text text-anchor="start" x="641" y="-70.8" font-family="Times,serif" font-size="14.00">u4le</text>
<polygon fill="none" stroke="black" points="675.5,-64 675.5,-85 744.5,-85 744.5,-64 675.5,-64"/>
<text text-anchor="start" x="678.5" y="-70.8" font-family="Times,serif" font-size="14.00">ofs_body</text>
</g>
<!-- chrome_pak__seq&#45;&gt;resource__seq -->
<g id="edge4" class="edge">
<title>chrome_pak__seq:resources_type&#45;&gt;resource__seq</title>
<path fill="none" stroke="black" stroke-width="2" d="M488.5,-241C537.62,-241 487.78,-170.24 523,-136 532.1,-127.16 543.06,-120.26 554.75,-114.87"/>
<polygon fill="black" stroke="black" stroke-width="2" points="556.4,-117.98 564.26,-110.88 553.69,-111.52 556.4,-117.98"/>
</g>
<!-- chrome_pak__inst__num_aliases&#45;&gt;chrome_pak__seq -->
<g id="edge7" class="edge">
<title>chrome_pak__inst__num_aliases:num_aliases_type&#45;&gt;chrome_pak__seq:aliases__repeat</title>
<path fill="none" stroke="#404040" d="M982.2,-231C860.25,-208.63 668.39,-179.18 498.62,-178.03"/>
<polygon fill="#404040" stroke="#404040" points="498.51,-174.53 488.5,-178 498.49,-181.53 498.51,-174.53"/>
</g>
<!-- chrome_pak__inst__num_resources&#45;&gt;chrome_pak__seq -->
<g id="edge5" class="edge">
<title>chrome_pak__inst__num_resources:num_resources_type&#45;&gt;chrome_pak__seq:resources__repeat</title>
<path fill="none" stroke="#404040" d="M821.75,-396.14C685.87,-399.6 547.45,-397.86 523,-378 470.15,-335.07 550.96,-231.7 498.54,-220.91"/>
<polygon fill="#404040" stroke="#404040" points="498.78,-217.42 488.5,-220 498.14,-224.39 498.78,-217.42"/>
</g>
<!-- chrome_pak__inst__num_resources&#45;&gt;alias__seq -->
<g id="edge13" class="edge">
<title>chrome_pak__inst__num_resources:num_resources_type&#45;&gt;alias__seq:resource_idx__valid</title>
<path fill="none" stroke="#404040" d="M1245.91,-357.91C1295.79,-343.94 1350.32,-322.52 1393,-290 1417.32,-271.47 1405.22,-235 1425.88,-226.71"/>
<polygon fill="#404040" stroke="#404040" points="1426.72,-230.11 1436,-225 1425.56,-223.21 1426.72,-230.11"/>
</g>
<!-- alias__seq&#45;&gt;alias__inst__resource -->
<g id="edge15" class="edge">
<title>alias__seq:resource_idx_type&#45;&gt;alias__inst__resource</title>
<path fill="none" stroke="#404040" d="M1754,-246C1764.64,-246 1775.58,-245.93 1786.62,-245.81"/>
<polygon fill="#404040" stroke="#404040" points="1786.83,-249.3 1796.78,-245.68 1786.74,-242.31 1786.83,-249.3"/>
</g>
<!-- header_v5_part__seq&#45;&gt;chrome_pak__inst__num_aliases -->
<g id="edge9" class="edge">
<title>header_v5_part__seq:num_aliases_type&#45;&gt;chrome_pak__inst__num_aliases</title>
<path fill="none" stroke="#404040" d="M779.5,-265C816.51,-265 855.88,-264.42 893.99,-263.55"/>
<polygon fill="#404040" stroke="#404040" points="894.26,-267.04 904.18,-263.31 894.1,-260.04 894.26,-267.04"/>
</g>
<!-- header_v5_part__seq&#45;&gt;chrome_pak__inst__num_resources -->
<g id="edge11" class="edge">
<title>header_v5_part__seq:num_resources_type&#45;&gt;chrome_pak__inst__num_resources</title>
<path fill="none" stroke="#404040" d="M779.5,-286C828.08,-286 948.72,-325.85 1029.09,-354.46"/>
<polygon fill="#404040" stroke="#404040" points="1028.09,-357.82 1038.68,-357.89 1030.45,-351.23 1028.09,-357.82"/>
</g>
<!-- resource__inst__body -->
<g id="node8" class="node">
<title>resource__inst__body</title>
<polygon fill="#e0ffe0" stroke="transparent" points="1486,-106 1486,-127 1555,-127 1555,-106 1486,-106"/>
<polygon fill="none" stroke="black" points="1486,-106 1486,-127 1555,-127 1555,-106 1486,-106"/>
<text text-anchor="start" x="1508" y="-112.8" font-family="Times,serif" font-size="14.00">pos</text>
<polygon fill="#e0ffe0" stroke="transparent" points="1555,-106 1555,-127 1625,-127 1625,-106 1555,-106"/>
<polygon fill="none" stroke="black" points="1555,-106 1555,-127 1625,-127 1625,-106 1555,-106"/>
<text text-anchor="start" x="1576" y="-112.8" font-family="Times,serif" font-size="14.00">size</text>
<polygon fill="#e0ffe0" stroke="transparent" points="1625,-106 1625,-127 1663,-127 1663,-106 1625,-106"/>
<polygon fill="none" stroke="black" points="1625,-106 1625,-127 1663,-127 1663,-106 1625,-106"/>
<text text-anchor="start" x="1628" y="-112.8" font-family="Times,serif" font-size="14.00">type</text>
<polygon fill="#e0ffe0" stroke="transparent" points="1663,-106 1663,-127 1704,-127 1704,-106 1663,-106"/>
<polygon fill="none" stroke="black" points="1663,-106 1663,-127 1704,-127 1704,-106 1663,-106"/>
<text text-anchor="start" x="1676.5" y="-112.8" font-family="Times,serif" font-size="14.00">id</text>
<polygon fill="none" stroke="black" points="1486,-85 1486,-106 1555,-106 1555,-85 1486,-85"/>
<text text-anchor="start" x="1489" y="-91.8" font-family="Times,serif" font-size="14.00">ofs_body</text>
<polygon fill="none" stroke="black" points="1555,-85 1555,-106 1625,-106 1625,-85 1555,-85"/>
<text text-anchor="start" x="1558" y="-91.8" font-family="Times,serif" font-size="14.00">len_body</text>
<polygon fill="none" stroke="black" points="1625,-85 1625,-106 1663,-106 1663,-85 1625,-85"/>
<polygon fill="none" stroke="black" points="1663,-85 1663,-106 1704,-106 1704,-85 1663,-85"/>
<text text-anchor="start" x="1666" y="-91.8" font-family="Times,serif" font-size="14.00">body</text>
<polygon fill="none" stroke="black" points="1486,-64 1486,-85 1704,-85 1704,-64 1486,-64"/>
<text text-anchor="start" x="1554.5" y="-70.8" font-family="Times,serif" font-size="14.00">if has_body</text>
</g>
<!-- resource__seq&#45;&gt;resource__inst__body -->
<g id="edge16" class="edge">
<title>resource__seq:ofs_body_type&#45;&gt;resource__inst__body:body_pos</title>
<path fill="none" stroke="#404040" d="M745.5,-74C779.51,-74 787.99,-72.44 822,-72 1075.76,-68.68 1141.12,-40.99 1393,-72 1431.24,-76.71 1441.22,-92.03 1474.85,-94.62"/>
<polygon fill="#404040" stroke="#404040" points="1474.88,-98.13 1485,-95 1475.14,-91.13 1474.88,-98.13"/>
</g>
<!-- resource__inst__len_body -->
<g id="node9" class="node">
<title>resource__inst__len_body</title>
<polygon fill="#e0ffe0" stroke="transparent" points="902.5,-106 902.5,-127 972.5,-127 972.5,-106 902.5,-106"/>
<polygon fill="none" stroke="black" points="902.5,-106 902.5,-127 972.5,-127 972.5,-106 902.5,-106"/>
<text text-anchor="start" x="930.5" y="-112.8" font-family="Times,serif" font-size="14.00">id</text>
<polygon fill="#e0ffe0" stroke="transparent" points="972.5,-106 972.5,-127 1312.5,-127 1312.5,-106 972.5,-106"/>
<polygon fill="none" stroke="black" points="972.5,-106 972.5,-127 1312.5,-127 1312.5,-106 972.5,-106"/>
<text text-anchor="start" x="1123" y="-112.8" font-family="Times,serif" font-size="14.00">value</text>
<polygon fill="none" stroke="black" points="902.5,-85 902.5,-106 972.5,-106 972.5,-85 902.5,-85"/>
<text text-anchor="start" x="905.5" y="-91.8" font-family="Times,serif" font-size="14.00">len_body</text>
<polygon fill="none" stroke="black" points="972.5,-85 972.5,-106 1312.5,-106 1312.5,-85 972.5,-85"/>
<text text-anchor="start" x="975.5" y="-91.8" font-family="Times,serif" font-size="14.00">_parent.resources[idx + 1].ofs_body &#45; ofs_body</text>
</g>
<!-- resource__seq&#45;&gt;resource__inst__len_body -->
<g id="edge19" class="edge">
<title>resource__seq:ofs_body_type&#45;&gt;resource__inst__len_body</title>
<path fill="none" stroke="#404040" d="M745.5,-74C790.78,-74 839.14,-76.53 885.25,-80.17"/>
<polygon fill="#404040" stroke="#404040" points="885.12,-83.67 895.37,-80.98 885.68,-76.69 885.12,-83.67"/>
</g>
<!-- resource__inst__len_body&#45;&gt;resource__inst__body -->
<g id="edge17" class="edge">
<title>resource__inst__len_body:len_body_type&#45;&gt;resource__inst__body:body_size</title>
<path fill="none" stroke="#404040" d="M1320.65,-101.14C1404.62,-99.22 1493.23,-97.19 1544.69,-96.01"/>
<polygon fill="#404040" stroke="#404040" points="1544.87,-99.51 1554.79,-95.78 1544.71,-92.51 1544.87,-99.51"/>
</g>
<!-- resource__params -->
<g id="node10" class="node">
<title>resource__params</title>
<text text-anchor="middle" x="1107.5" y="-14.3" font-family="Times,serif" font-size="14.00">resource__params</text>
</g>
<!-- resource__params&#45;&gt;resource__inst__body -->
<g id="edge18" class="edge">
<title>resource__params:has_body_type&#45;&gt;resource__inst__body:body__if</title>
<path fill="none" stroke="#404040" d="M1180.61,-22.2C1238.43,-26.38 1321.43,-34.22 1393,-48 1431.14,-55.34 1440.92,-70.99 1474.77,-73.62"/>
<polygon fill="#404040" stroke="#404040" points="1474.88,-77.13 1485,-74 1475.14,-70.13 1474.88,-77.13"/>
</g>
</g>
</svg>
