<?xml version="1.0" encoding="UTF-8" standalone="no"?>
<!DOCTYPE svg PUBLIC "-//W3C//DTD SVG 1.1//EN"
 "http://www.w3.org/Graphics/SVG/1.1/DTD/svg11.dtd">
<!-- Generated by graphviz version 2.43.0 (0)
 -->
<!-- Title: %3 Pages: 1 -->
<svg width="1547pt" height="514pt"
 viewBox="0.00 0.00 1547.00 514.00" xmlns="http://www.w3.org/2000/svg" xmlns:xlink="http://www.w3.org/1999/xlink">
<g id="graph0" class="graph" transform="scale(1 1) rotate(0) translate(4 510)">
<title>%3</title>
<polygon fill="white" stroke="transparent" points="-4,4 -4,-510 1543,-510 1543,4 -4,4"/>
<g id="clust1" class="cluster">
<title>cluster__chrome_pak</title>
<polygon fill="none" stroke="black" stroke-dasharray="1,5" points="8,-8 8,-498 1531,-498 1531,-8 8,-8"/>
<text text-anchor="middle" x="769.5" y="-482.8" font-family="Times,serif" font-size="14.00">ChromePak</text>
</g>
<g id="clust2" class="cluster">
<title>cluster__header_v5_part</title>
<polygon fill="none" stroke="black" stroke-dasharray="1,5" points="375,-286 375,-417 646,-417 646,-286 375,-286"/>
<text text-anchor="middle" x="510.5" y="-401.8" font-family="Times,serif" font-size="14.00">ChromePak::HeaderV5Part</text>
</g>
<g id="clust3" class="cluster">
<title>cluster__resource</title>
<polygon fill="none" stroke="black" stroke-dasharray="1,5" points="408.5,-135 408.5,-246 1523,-246 1523,-135 408.5,-135"/>
<text text-anchor="middle" x="965.75" y="-230.8" font-family="Times,serif" font-size="14.00">ChromePak::Resource</text>
</g>
<g id="clust4" class="cluster">
<title>cluster__alias</title>
<polygon fill="none" stroke="black" stroke-dasharray="1,5" points="394.5,-16 394.5,-127 1128,-127 1128,-16 394.5,-16"/>
<text text-anchor="middle" x="761.25" y="-111.8" font-family="Times,serif" font-size="14.00">ChromePak::Alias</text>
</g>
<!-- chrome_pak__seq -->
<g id="node1" class="node">
<title>chrome_pak__seq</title>
<polygon fill="#e0ffe0" stroke="transparent" points="24.5,-413 24.5,-434 55.5,-434 55.5,-413 24.5,-413"/>
<polygon fill="none" stroke="black" points="24.5,-413 24.5,-434 55.5,-434 55.5,-413 24.5,-413"/>
<text text-anchor="start" x="27.5" y="-419.8" font-family="Times,serif" font-size="14.00">pos</text>
<polygon fill="#e0ffe0" stroke="transparent" points="55.5,-413 55.5,-434 89.5,-434 89.5,-413 55.5,-413"/>
<polygon fill="none" stroke="black" points="55.5,-413 55.5,-434 89.5,-434 89.5,-413 55.5,-413"/>
<text text-anchor="start" x="58.5" y="-419.8" font-family="Times,serif" font-size="14.00">size</text>
<polygon fill="#e0ffe0" stroke="transparent" points="89.5,-413 89.5,-434 200.5,-434 200.5,-413 89.5,-413"/>
<polygon fill="none" stroke="black" points="89.5,-413 89.5,-434 200.5,-434 200.5,-413 89.5,-413"/>
<text text-anchor="start" x="129" y="-419.8" font-family="Times,serif" font-size="14.00">type</text>
<polygon fill="#e0ffe0" stroke="transparent" points="200.5,-413 200.5,-434 339.5,-434 339.5,-413 200.5,-413"/>
<polygon fill="none" stroke="black" points="200.5,-413 200.5,-434 339.5,-434 339.5,-413 200.5,-413"/>
<text text-anchor="start" x="263" y="-419.8" font-family="Times,serif" font-size="14.00">id</text>
<polygon fill="none" stroke="black" points="24.5,-392 24.5,-413 55.5,-413 55.5,-392 24.5,-392"/>
<text text-anchor="start" x="35" y="-398.8" font-family="Times,serif" font-size="14.00">0</text>
<polygon fill="none" stroke="black" points="55.5,-392 55.5,-413 89.5,-413 89.5,-392 55.5,-392"/>
<text text-anchor="start" x="67.5" y="-398.8" font-family="Times,serif" font-size="14.00">4</text>
<polygon fill="none" stroke="black" points="89.5,-392 89.5,-413 200.5,-413 200.5,-392 89.5,-392"/>
<text text-anchor="start" x="129.5" y="-398.8" font-family="Times,serif" font-size="14.00">u4le</text>
<polygon fill="none" stroke="black" points="200.5,-392 200.5,-413 339.5,-413 339.5,-392 200.5,-392"/>
<text text-anchor="start" x="243.5" y="-398.8" font-family="Times,serif" font-size="14.00">version</text>
<polygon fill="none" stroke="black" points="24.5,-371 24.5,-392 55.5,-392 55.5,-371 24.5,-371"/>
<text text-anchor="start" x="35" y="-377.8" font-family="Times,serif" font-size="14.00">4</text>
<polygon fill="none" stroke="black" points="55.5,-371 55.5,-392 89.5,-392 89.5,-371 55.5,-371"/>
<text text-anchor="start" x="67.5" y="-377.8" font-family="Times,serif" font-size="14.00">4</text>
<polygon fill="none" stroke="black" points="89.5,-371 89.5,-392 200.5,-392 200.5,-371 89.5,-371"/>
<text text-anchor="start" x="129.5" y="-377.8" font-family="Times,serif" font-size="14.00">u4le</text>
<polygon fill="none" stroke="black" points="200.5,-371 200.5,-392 339.5,-392 339.5,-371 200.5,-371"/>
<text text-anchor="start" x="203.5" y="-377.8" font-family="Times,serif" font-size="14.00">num_resources_v4</text>
<polygon fill="none" stroke="black" points="24.5,-350 24.5,-371 55.5,-371 55.5,-350 24.5,-350"/>
<text text-anchor="start" x="35" y="-356.8" font-family="Times,serif" font-size="14.00">8</text>
<polygon fill="none" stroke="black" points="55.5,-350 55.5,-371 89.5,-371 89.5,-350 55.5,-350"/>
<text text-anchor="start" x="67.5" y="-356.8" font-family="Times,serif" font-size="14.00">1</text>
<polygon fill="none" stroke="black" points="89.5,-350 89.5,-371 200.5,-371 200.5,-350 89.5,-350"/>
<text text-anchor="start" x="92.5" y="-356.8" font-family="Times,serif" font-size="14.00">u1→Encodings</text>
<polygon fill="none" stroke="black" points="200.5,-350 200.5,-371 339.5,-371 339.5,-350 200.5,-350"/>
<text text-anchor="start" x="237.5" y="-356.8" font-family="Times,serif" font-size="14.00">encoding</text>
<polygon fill="none" stroke="black" points="24.5,-329 24.5,-350 55.5,-350 55.5,-329 24.5,-329"/>
<text text-anchor="start" x="35" y="-335.8" font-family="Times,serif" font-size="14.00">9</text>
<polygon fill="none" stroke="black" points="55.5,-329 55.5,-350 89.5,-350 89.5,-329 55.5,-329"/>
<text text-anchor="start" x="67.5" y="-335.8" font-family="Times,serif" font-size="14.00">7</text>
<polygon fill="none" stroke="black" points="89.5,-329 89.5,-350 200.5,-350 200.5,-329 89.5,-329"/>
<text text-anchor="start" x="94" y="-335.8" font-family="Times,serif" font-size="14.00">HeaderV5Part</text>
<polygon fill="none" stroke="black" points="200.5,-329 200.5,-350 339.5,-350 339.5,-329 200.5,-329"/>
<text text-anchor="start" x="242.5" y="-335.8" font-family="Times,serif" font-size="14.00">v5_part</text>
<polygon fill="none" stroke="black" points="24.5,-308 24.5,-329 55.5,-329 55.5,-308 24.5,-308"/>
<text text-anchor="start" x="30.5" y="-314.8" font-family="Times,serif" font-size="14.00">16</text>
<polygon fill="none" stroke="black" points="55.5,-308 55.5,-329 89.5,-329 89.5,-308 55.5,-308"/>
<text text-anchor="start" x="67.5" y="-314.8" font-family="Times,serif" font-size="14.00">6</text>
<polygon fill="none" stroke="black" points="89.5,-308 89.5,-329 200.5,-329 200.5,-308 89.5,-308"/>
<text text-anchor="start" x="111.5" y="-314.8" font-family="Times,serif" font-size="14.00">Resource</text>
<polygon fill="none" stroke="black" points="200.5,-308 200.5,-329 339.5,-329 339.5,-308 200.5,-308"/>
<text text-anchor="start" x="235" y="-314.8" font-family="Times,serif" font-size="14.00">resources</text>
<polygon fill="none" stroke="black" points="24.5,-287 24.5,-308 339.5,-308 339.5,-287 24.5,-287"/>
<text text-anchor="start" x="60" y="-293.8" font-family="Times,serif" font-size="14.00">repeat (num_resources + 1) times</text>
<polygon fill="none" stroke="black" points="24.5,-266 24.5,-287 55.5,-287 55.5,-266 24.5,-266"/>
<text text-anchor="start" x="33" y="-272.8" font-family="Times,serif" font-size="14.00">...</text>
<polygon fill="none" stroke="black" points="55.5,-266 55.5,-287 89.5,-287 89.5,-266 55.5,-266"/>
<text text-anchor="start" x="67.5" y="-272.8" font-family="Times,serif" font-size="14.00">4</text>
<polygon fill="none" stroke="black" points="89.5,-266 89.5,-287 200.5,-287 200.5,-266 89.5,-266"/>
<text text-anchor="start" x="127.5" y="-272.8" font-family="Times,serif" font-size="14.00">Alias</text>
<polygon fill="none" stroke="black" points="200.5,-266 200.5,-287 339.5,-287 339.5,-266 200.5,-266"/>
<text text-anchor="start" x="245.5" y="-272.8" font-family="Times,serif" font-size="14.00">aliases</text>
<polygon fill="none" stroke="black" points="24.5,-245 24.5,-266 339.5,-266 339.5,-245 24.5,-245"/>
<text text-anchor="start" x="90.5" y="-251.8" font-family="Times,serif" font-size="14.00">repeat num_aliases times</text>
</g>
<!-- chrome_pak__inst__num_resources -->
<g id="node2" class="node">
<title>chrome_pak__inst__num_resources</title>
<polygon fill="#e0ffe0" stroke="transparent" points="682.5,-434 682.5,-455 797.5,-455 797.5,-434 682.5,-434"/>
<polygon fill="none" stroke="black" points="682.5,-434 682.5,-455 797.5,-455 797.5,-434 682.5,-434"/>
<text text-anchor="start" x="733" y="-440.8" font-family="Times,serif" font-size="14.00">id</text>
<polygon fill="#e0ffe0" stroke="transparent" points="797.5,-434 797.5,-455 1237.5,-455 1237.5,-434 797.5,-434"/>
<polygon fill="none" stroke="black" points="797.5,-434 797.5,-455 1237.5,-455 1237.5,-434 797.5,-434"/>
<text text-anchor="start" x="998" y="-440.8" font-family="Times,serif" font-size="14.00">value</text>
<polygon fill="none" stroke="black" points="682.5,-413 682.5,-434 797.5,-434 797.5,-413 682.5,-413"/>
<text text-anchor="start" x="685.5" y="-419.8" font-family="Times,serif" font-size="14.00">num_resources</text>
<polygon fill="none" stroke="black" points="797.5,-413 797.5,-434 1237.5,-434 1237.5,-413 797.5,-413"/>
<text text-anchor="start" x="800.5" y="-419.8" font-family="Times,serif" font-size="14.00">(version == 5 ? v5_part.num_resources : num_resources_v4)</text>
</g>
<!-- chrome_pak__seq&#45;&gt;chrome_pak__inst__num_resources -->
<g id="edge6" class="edge">
<title>chrome_pak__seq:version_type&#45;&gt;chrome_pak__inst__num_resources</title>
<path fill="none" stroke="#404040" d="M340.5,-403C366.77,-403 351.62,-439.01 375,-451 482.18,-505.96 525.6,-454.27 646,-451 651.83,-450.84 657.72,-450.67 663.65,-450.48"/>
<polygon fill="#404040" stroke="#404040" points="663.8,-453.97 673.68,-450.14 663.57,-446.98 663.8,-453.97"/>
</g>
<!-- chrome_pak__seq&#45;&gt;chrome_pak__inst__num_resources -->
<g id="edge8" class="edge">
<title>chrome_pak__seq:num_resources_v4_type&#45;&gt;chrome_pak__inst__num_resources</title>
<path fill="none" stroke="#404040" d="M340.5,-382C367.5,-382 351.12,-419.41 375,-432 401.97,-446.21 532.56,-447.5 663.38,-444.88"/>
<polygon fill="#404040" stroke="#404040" points="663.68,-448.38 673.61,-444.67 663.54,-441.38 663.68,-448.38"/>
</g>
<!-- chrome_pak__inst__num_aliases -->
<g id="node3" class="node">
<title>chrome_pak__inst__num_aliases</title>
<polygon fill="#e0ffe0" stroke="transparent" points="764.5,-279 764.5,-300 858.5,-300 858.5,-279 764.5,-279"/>
<polygon fill="none" stroke="black" points="764.5,-279 764.5,-300 858.5,-300 858.5,-279 764.5,-279"/>
<text text-anchor="start" x="804.5" y="-285.8" font-family="Times,serif" font-size="14.00">id</text>
<polygon fill="#e0ffe0" stroke="transparent" points="858.5,-279 858.5,-300 1154.5,-300 1154.5,-279 858.5,-279"/>
<polygon fill="none" stroke="black" points="858.5,-279 858.5,-300 1154.5,-300 1154.5,-279 858.5,-279"/>
<text text-anchor="start" x="987" y="-285.8" font-family="Times,serif" font-size="14.00">value</text>
<polygon fill="none" stroke="black" points="764.5,-258 764.5,-279 858.5,-279 858.5,-258 764.5,-258"/>
<text text-anchor="start" x="767.5" y="-264.8" font-family="Times,serif" font-size="14.00">num_aliases</text>
<polygon fill="none" stroke="black" points="858.5,-258 858.5,-279 1154.5,-279 1154.5,-258 858.5,-258"/>
<text text-anchor="start" x="861.5" y="-264.8" font-family="Times,serif" font-size="14.00">(version == 5 ? v5_part.num_aliases : 0)</text>
</g>
<!-- chrome_pak__seq&#45;&gt;chrome_pak__inst__num_aliases -->
<g id="edge9" class="edge">
<title>chrome_pak__seq:version_type&#45;&gt;chrome_pak__inst__num_aliases</title>
<path fill="none" stroke="#404040" d="M340.5,-403C396.42,-403 330.45,-315.8 375,-282 404.59,-259.55 591.77,-261.84 746.27,-267.89"/>
<polygon fill="#404040" stroke="#404040" points="746.27,-271.39 756.4,-268.29 746.55,-264.39 746.27,-271.39"/>
</g>
<!-- header_v5_part__seq -->
<g id="node4" class="node">
<title>header_v5_part__seq</title>
<polygon fill="#e0ffe0" stroke="transparent" points="391.5,-361 391.5,-382 422.5,-382 422.5,-361 391.5,-361"/>
<polygon fill="none" stroke="black" points="391.5,-361 391.5,-382 422.5,-382 422.5,-361 391.5,-361"/>
<text text-anchor="start" x="394.5" y="-367.8" font-family="Times,serif" font-size="14.00">pos</text>
<polygon fill="#e0ffe0" stroke="transparent" points="422.5,-361 422.5,-382 456.5,-382 456.5,-361 422.5,-361"/>
<polygon fill="none" stroke="black" points="422.5,-361 422.5,-382 456.5,-382 456.5,-361 422.5,-361"/>
<text text-anchor="start" x="425.5" y="-367.8" font-family="Times,serif" font-size="14.00">size</text>
<polygon fill="#e0ffe0" stroke="transparent" points="456.5,-361 456.5,-382 494.5,-382 494.5,-361 456.5,-361"/>
<polygon fill="none" stroke="black" points="456.5,-361 456.5,-382 494.5,-382 494.5,-361 456.5,-361"/>
<text text-anchor="start" x="459.5" y="-367.8" font-family="Times,serif" font-size="14.00">type</text>
<polygon fill="#e0ffe0" stroke="transparent" points="494.5,-361 494.5,-382 630.5,-382 630.5,-361 494.5,-361"/>
<polygon fill="none" stroke="black" points="494.5,-361 494.5,-382 630.5,-382 630.5,-361 494.5,-361"/>
<text text-anchor="start" x="555.5" y="-367.8" font-family="Times,serif" font-size="14.00">id</text>
<polygon fill="none" stroke="black" points="391.5,-340 391.5,-361 422.5,-361 422.5,-340 391.5,-340"/>
<text text-anchor="start" x="402" y="-346.8" font-family="Times,serif" font-size="14.00">0</text>
<polygon fill="none" stroke="black" points="422.5,-340 422.5,-361 456.5,-361 456.5,-340 422.5,-340"/>
<text text-anchor="start" x="434.5" y="-346.8" font-family="Times,serif" font-size="14.00">3</text>
<polygon fill="none" stroke="black" points="456.5,-340 456.5,-361 494.5,-361 494.5,-340 456.5,-340"/>
<polygon fill="none" stroke="black" points="494.5,-340 494.5,-361 630.5,-361 630.5,-340 494.5,-340"/>
<text text-anchor="start" x="497.5" y="-346.8" font-family="Times,serif" font-size="14.00">encoding_padding</text>
<polygon fill="none" stroke="black" points="391.5,-319 391.5,-340 422.5,-340 422.5,-319 391.5,-319"/>
<text text-anchor="start" x="402" y="-325.8" font-family="Times,serif" font-size="14.00">3</text>
<polygon fill="none" stroke="black" points="422.5,-319 422.5,-340 456.5,-340 456.5,-319 422.5,-319"/>
<text text-anchor="start" x="434.5" y="-325.8" font-family="Times,serif" font-size="14.00">2</text>
<polygon fill="none" stroke="black" points="456.5,-319 456.5,-340 494.5,-340 494.5,-319 456.5,-319"/>
<text text-anchor="start" x="460" y="-325.8" font-family="Times,serif" font-size="14.00">u2le</text>
<polygon fill="none" stroke="black" points="494.5,-319 494.5,-340 630.5,-340 630.5,-319 494.5,-319"/>
<text text-anchor="start" x="508" y="-325.8" font-family="Times,serif" font-size="14.00">num_resources</text>
<polygon fill="none" stroke="black" points="391.5,-298 391.5,-319 422.5,-319 422.5,-298 391.5,-298"/>
<text text-anchor="start" x="402" y="-304.8" font-family="Times,serif" font-size="14.00">5</text>
<polygon fill="none" stroke="black" points="422.5,-298 422.5,-319 456.5,-319 456.5,-298 422.5,-298"/>
<text text-anchor="start" x="434.5" y="-304.8" font-family="Times,serif" font-size="14.00">2</text>
<polygon fill="none" stroke="black" points="456.5,-298 456.5,-319 494.5,-319 494.5,-298 456.5,-298"/>
<text text-anchor="start" x="460" y="-304.8" font-family="Times,serif" font-size="14.00">u2le</text>
<polygon fill="none" stroke="black" points="494.5,-298 494.5,-319 630.5,-319 630.5,-298 494.5,-298"/>
<text text-anchor="start" x="518.5" y="-304.8" font-family="Times,serif" font-size="14.00">num_aliases</text>
</g>
<!-- chrome_pak__seq&#45;&gt;header_v5_part__seq -->
<g id="edge1" class="edge">
<title>chrome_pak__seq:v5_part_type&#45;&gt;header_v5_part__seq</title>
<path fill="none" stroke="black" stroke-width="2" d="M340.5,-339C350.84,-339 361.53,-339.02 372.29,-339.05"/>
<polygon fill="black" stroke="black" stroke-width="2" points="372.6,-342.55 382.61,-339.09 372.63,-335.55 372.6,-342.55"/>
</g>
<!-- resource__seq -->
<g id="node5" class="node">
<title>resource__seq</title>
<polygon fill="#e0ffe0" stroke="transparent" points="424.5,-189 424.5,-210 455.5,-210 455.5,-189 424.5,-189"/>
<polygon fill="none" stroke="black" points="424.5,-189 424.5,-210 455.5,-210 455.5,-189 424.5,-189"/>
<text text-anchor="start" x="427.5" y="-195.8" font-family="Times,serif" font-size="14.00">pos</text>
<polygon fill="#e0ffe0" stroke="transparent" points="455.5,-189 455.5,-210 489.5,-210 489.5,-189 455.5,-189"/>
<polygon fill="none" stroke="black" points="455.5,-189 455.5,-210 489.5,-210 489.5,-189 455.5,-189"/>
<text text-anchor="start" x="458.5" y="-195.8" font-family="Times,serif" font-size="14.00">size</text>
<polygon fill="#e0ffe0" stroke="transparent" points="489.5,-189 489.5,-210 527.5,-210 527.5,-189 489.5,-189"/>
<polygon fill="none" stroke="black" points="489.5,-189 489.5,-210 527.5,-210 527.5,-189 489.5,-189"/>
<text text-anchor="start" x="492.5" y="-195.8" font-family="Times,serif" font-size="14.00">type</text>
<polygon fill="#e0ffe0" stroke="transparent" points="527.5,-189 527.5,-210 596.5,-210 596.5,-189 527.5,-189"/>
<polygon fill="none" stroke="black" points="527.5,-189 527.5,-210 596.5,-210 596.5,-189 527.5,-189"/>
<text text-anchor="start" x="555" y="-195.8" font-family="Times,serif" font-size="14.00">id</text>
<polygon fill="none" stroke="black" points="424.5,-168 424.5,-189 455.5,-189 455.5,-168 424.5,-168"/>
<text text-anchor="start" x="435" y="-174.8" font-family="Times,serif" font-size="14.00">0</text>
<polygon fill="none" stroke="black" points="455.5,-168 455.5,-189 489.5,-189 489.5,-168 455.5,-168"/>
<text text-anchor="start" x="467.5" y="-174.8" font-family="Times,serif" font-size="14.00">2</text>
<polygon fill="none" stroke="black" points="489.5,-168 489.5,-189 527.5,-189 527.5,-168 489.5,-168"/>
<text text-anchor="start" x="493" y="-174.8" font-family="Times,serif" font-size="14.00">u2le</text>
<polygon fill="none" stroke="black" points="527.5,-168 527.5,-189 596.5,-189 596.5,-168 527.5,-168"/>
<text text-anchor="start" x="555" y="-174.8" font-family="Times,serif" font-size="14.00">id</text>
<polygon fill="none" stroke="black" points="424.5,-147 424.5,-168 455.5,-168 455.5,-147 424.5,-147"/>
<text text-anchor="start" x="435" y="-153.8" font-family="Times,serif" font-size="14.00">2</text>
<polygon fill="none" stroke="black" points="455.5,-147 455.5,-168 489.5,-168 489.5,-147 455.5,-147"/>
<text text-anchor="start" x="467.5" y="-153.8" font-family="Times,serif" font-size="14.00">4</text>
<polygon fill="none" stroke="black" points="489.5,-147 489.5,-168 527.5,-168 527.5,-147 489.5,-147"/>
<text text-anchor="start" x="493" y="-153.8" font-family="Times,serif" font-size="14.00">u4le</text>
<polygon fill="none" stroke="black" points="527.5,-147 527.5,-168 596.5,-168 596.5,-147 527.5,-147"/>
<text text-anchor="start" x="530.5" y="-153.8" font-family="Times,serif" font-size="14.00">ofs_body</text>
</g>
<!-- chrome_pak__seq&#45;&gt;resource__seq -->
<g id="edge2" class="edge">
<title>chrome_pak__seq:resources_type&#45;&gt;resource__seq</title>
<path fill="none" stroke="black" stroke-width="2" d="M340.5,-318C387.1,-318 341.3,-251.18 375,-219 384.18,-210.24 395.18,-203.39 406.9,-198.03"/>
<polygon fill="black" stroke="black" stroke-width="2" points="408.55,-201.13 416.43,-194.05 405.85,-194.68 408.55,-201.13"/>
</g>
<!-- alias__seq -->
<g id="node8" class="node">
<title>alias__seq</title>
<polygon fill="#e0ffe0" stroke="transparent" points="410.5,-70 410.5,-91 441.5,-91 441.5,-70 410.5,-70"/>
<polygon fill="none" stroke="black" points="410.5,-70 410.5,-91 441.5,-91 441.5,-70 410.5,-70"/>
<text text-anchor="start" x="413.5" y="-76.8" font-family="Times,serif" font-size="14.00">pos</text>
<polygon fill="#e0ffe0" stroke="transparent" points="441.5,-70 441.5,-91 475.5,-91 475.5,-70 441.5,-70"/>
<polygon fill="none" stroke="black" points="441.5,-70 441.5,-91 475.5,-91 475.5,-70 441.5,-70"/>
<text text-anchor="start" x="444.5" y="-76.8" font-family="Times,serif" font-size="14.00">size</text>
<polygon fill="#e0ffe0" stroke="transparent" points="475.5,-70 475.5,-91 513.5,-91 513.5,-70 475.5,-70"/>
<polygon fill="none" stroke="black" points="475.5,-70 475.5,-91 513.5,-91 513.5,-70 475.5,-70"/>
<text text-anchor="start" x="478.5" y="-76.8" font-family="Times,serif" font-size="14.00">type</text>
<polygon fill="#e0ffe0" stroke="transparent" points="513.5,-70 513.5,-91 610.5,-91 610.5,-70 513.5,-70"/>
<polygon fill="none" stroke="black" points="513.5,-70 513.5,-91 610.5,-91 610.5,-70 513.5,-70"/>
<text text-anchor="start" x="555" y="-76.8" font-family="Times,serif" font-size="14.00">id</text>
<polygon fill="none" stroke="black" points="410.5,-49 410.5,-70 441.5,-70 441.5,-49 410.5,-49"/>
<text text-anchor="start" x="421" y="-55.8" font-family="Times,serif" font-size="14.00">0</text>
<polygon fill="none" stroke="black" points="441.5,-49 441.5,-70 475.5,-70 475.5,-49 441.5,-49"/>
<text text-anchor="start" x="453.5" y="-55.8" font-family="Times,serif" font-size="14.00">2</text>
<polygon fill="none" stroke="black" points="475.5,-49 475.5,-70 513.5,-70 513.5,-49 475.5,-49"/>
<text text-anchor="start" x="479" y="-55.8" font-family="Times,serif" font-size="14.00">u2le</text>
<polygon fill="none" stroke="black" points="513.5,-49 513.5,-70 610.5,-70 610.5,-49 513.5,-49"/>
<text text-anchor="start" x="555" y="-55.8" font-family="Times,serif" font-size="14.00">id</text>
<polygon fill="none" stroke="black" points="410.5,-28 410.5,-49 441.5,-49 441.5,-28 410.5,-28"/>
<text text-anchor="start" x="421" y="-34.8" font-family="Times,serif" font-size="14.00">2</text>
<polygon fill="none" stroke="black" points="441.5,-28 441.5,-49 475.5,-49 475.5,-28 441.5,-28"/>
<text text-anchor="start" x="453.5" y="-34.8" font-family="Times,serif" font-size="14.00">2</text>
<polygon fill="none" stroke="black" points="475.5,-28 475.5,-49 513.5,-49 513.5,-28 475.5,-28"/>
<text text-anchor="start" x="479" y="-34.8" font-family="Times,serif" font-size="14.00">u2le</text>
<polygon fill="none" stroke="black" points="513.5,-28 513.5,-49 610.5,-49 610.5,-28 513.5,-28"/>
<text text-anchor="start" x="516.5" y="-34.8" font-family="Times,serif" font-size="14.00">resource_idx</text>
</g>
<!-- chrome_pak__seq&#45;&gt;alias__seq -->
<g id="edge4" class="edge">
<title>chrome_pak__seq:aliases_type&#45;&gt;alias__seq</title>
<path fill="none" stroke="black" stroke-width="2" d="M340.5,-276C420.21,-276 321.39,-158.99 375,-100 380.41,-94.04 386.67,-88.96 393.47,-84.62"/>
<polygon fill="black" stroke="black" stroke-width="2" points="395.42,-87.53 402.33,-79.51 391.92,-81.47 395.42,-87.53"/>
</g>
<!-- alias__inst__resource -->
<g id="node9" class="node">
<title>alias__inst__resource</title>
<polygon fill="#e0ffe0" stroke="transparent" points="807.5,-60 807.5,-81 876.5,-81 876.5,-60 807.5,-60"/>
<polygon fill="none" stroke="black" points="807.5,-60 807.5,-81 876.5,-81 876.5,-60 807.5,-60"/>
<text text-anchor="start" x="835" y="-66.8" font-family="Times,serif" font-size="14.00">id</text>
<polygon fill="#e0ffe0" stroke="transparent" points="876.5,-60 876.5,-81 1112.5,-81 1112.5,-60 876.5,-60"/>
<polygon fill="none" stroke="black" points="876.5,-60 876.5,-81 1112.5,-81 1112.5,-60 876.5,-60"/>
<text text-anchor="start" x="975" y="-66.8" font-family="Times,serif" font-size="14.00">value</text>
<polygon fill="none" stroke="black" points="807.5,-39 807.5,-60 876.5,-60 876.5,-39 807.5,-39"/>
<text text-anchor="start" x="810.5" y="-45.8" font-family="Times,serif" font-size="14.00">resource</text>
<polygon fill="none" stroke="black" points="876.5,-39 876.5,-60 1112.5,-60 1112.5,-39 876.5,-39"/>
<text text-anchor="start" x="879.5" y="-45.8" font-family="Times,serif" font-size="14.00">_parent.resources[resource_idx]</text>
</g>
<!-- chrome_pak__seq&#45;&gt;alias__inst__resource -->
<g id="edge15" class="edge">
<title>chrome_pak__seq:resources_type&#45;&gt;alias__inst__resource</title>
<path fill="none" stroke="#404040" d="M340.5,-318C425.01,-318 312.7,-188.11 375,-131 419.59,-90.12 585.93,-112.2 646,-105 692.39,-99.44 742.54,-92.59 788.8,-85.93"/>
<polygon fill="#404040" stroke="#404040" points="789.52,-89.36 798.91,-84.47 788.51,-82.43 789.52,-89.36"/>
</g>
<!-- chrome_pak__inst__num_resources&#45;&gt;chrome_pak__seq -->
<g id="edge3" class="edge">
<title>chrome_pak__inst__num_resources:num_resources_type&#45;&gt;chrome_pak__seq:resources__repeat</title>
<path fill="none" stroke="#404040" d="M673.84,-434.95C531.97,-434.16 387.72,-430.89 375,-421 333.01,-388.36 388.72,-309.23 350.79,-298.27"/>
<polygon fill="#404040" stroke="#404040" points="350.85,-294.75 340.5,-297 350,-301.7 350.85,-294.75"/>
</g>
<!-- chrome_pak__inst__num_aliases&#45;&gt;chrome_pak__seq -->
<g id="edge5" class="edge">
<title>chrome_pak__inst__num_aliases:num_aliases_type&#45;&gt;chrome_pak__seq:aliases__repeat</title>
<path fill="none" stroke="#404040" d="M756.44,-267.19C638.7,-261.28 487.03,-255.3 350.7,-255.01"/>
<polygon fill="#404040" stroke="#404040" points="350.5,-251.51 340.5,-255 350.5,-258.51 350.5,-251.51"/>
</g>
<!-- header_v5_part__seq&#45;&gt;chrome_pak__inst__num_resources -->
<g id="edge7" class="edge">
<title>header_v5_part__seq:num_resources_type&#45;&gt;chrome_pak__inst__num_resources</title>
<path fill="none" stroke="#404040" d="M631.5,-329C730.81,-329 839.32,-373.45 903.01,-404.51"/>
<polygon fill="#404040" stroke="#404040" points="901.56,-407.69 912.08,-408.98 904.66,-401.42 901.56,-407.69"/>
</g>
<!-- header_v5_part__seq&#45;&gt;chrome_pak__inst__num_aliases -->
<g id="edge10" class="edge">
<title>header_v5_part__seq:num_aliases_type&#45;&gt;chrome_pak__inst__num_aliases</title>
<path fill="none" stroke="#404040" d="M631.5,-308C668.65,-308 708.07,-306.12 746.21,-303.32"/>
<polygon fill="#404040" stroke="#404040" points="746.7,-306.79 756.4,-302.55 746.17,-299.81 746.7,-306.79"/>
</g>
<!-- resource__inst__len_body -->
<g id="node6" class="node">
<title>resource__inst__len_body</title>
<polygon fill="#e0ffe0" stroke="transparent" points="744.5,-188 744.5,-209 814.5,-209 814.5,-188 744.5,-188"/>
<polygon fill="none" stroke="black" points="744.5,-188 744.5,-209 814.5,-209 814.5,-188 744.5,-188"/>
<text text-anchor="start" x="772.5" y="-194.8" font-family="Times,serif" font-size="14.00">id</text>
<polygon fill="#e0ffe0" stroke="transparent" points="814.5,-188 814.5,-209 1175.5,-209 1175.5,-188 814.5,-188"/>
<polygon fill="none" stroke="black" points="814.5,-188 814.5,-209 1175.5,-209 1175.5,-188 814.5,-188"/>
<text text-anchor="start" x="975.5" y="-194.8" font-family="Times,serif" font-size="14.00">value</text>
<polygon fill="none" stroke="black" points="744.5,-167 744.5,-188 814.5,-188 814.5,-167 744.5,-167"/>
<text text-anchor="start" x="747.5" y="-173.8" font-family="Times,serif" font-size="14.00">len_body</text>
<polygon fill="none" stroke="black" points="814.5,-167 814.5,-188 1175.5,-188 1175.5,-167 814.5,-167"/>
<text text-anchor="start" x="817.5" y="-173.8" font-family="Times,serif" font-size="14.00">(_parent.resources[(idx + 1)].ofs_body &#45; ofs_body)</text>
</g>
<!-- resource__seq&#45;&gt;resource__inst__len_body -->
<g id="edge11" class="edge">
<title>resource__seq:ofs_body_type&#45;&gt;resource__inst__len_body</title>
<path fill="none" stroke="#404040" d="M597.5,-157C664.38,-153.26 737.96,-156.42 801.16,-162.04"/>
<polygon fill="#404040" stroke="#404040" points="800.93,-165.54 811.21,-162.96 801.57,-158.57 800.93,-165.54"/>
</g>
<!-- resource__seq&#45;&gt;resource__inst__len_body -->
<g id="edge12" class="edge">
<title>resource__seq:ofs_body_type&#45;&gt;resource__inst__len_body</title>
<path fill="none" stroke="#404040" d="M597.97,-157.03C639.3,-159.35 683.17,-163.11 725.56,-167.27"/>
<polygon fill="#404040" stroke="#404040" points="725.42,-170.77 735.72,-168.28 726.12,-163.81 725.42,-170.77"/>
</g>
<!-- resource__inst__body -->
<g id="node7" class="node">
<title>resource__inst__body</title>
<polygon fill="#e0ffe0" stroke="transparent" points="1289,-179 1289,-200 1358,-200 1358,-179 1289,-179"/>
<polygon fill="none" stroke="black" points="1289,-179 1289,-200 1358,-200 1358,-179 1289,-179"/>
<text text-anchor="start" x="1311" y="-185.8" font-family="Times,serif" font-size="14.00">pos</text>
<polygon fill="#e0ffe0" stroke="transparent" points="1358,-179 1358,-200 1428,-200 1428,-179 1358,-179"/>
<polygon fill="none" stroke="black" points="1358,-179 1358,-200 1428,-200 1428,-179 1358,-179"/>
<text text-anchor="start" x="1379" y="-185.8" font-family="Times,serif" font-size="14.00">size</text>
<polygon fill="#e0ffe0" stroke="transparent" points="1428,-179 1428,-200 1466,-200 1466,-179 1428,-179"/>
<polygon fill="none" stroke="black" points="1428,-179 1428,-200 1466,-200 1466,-179 1428,-179"/>
<text text-anchor="start" x="1431" y="-185.8" font-family="Times,serif" font-size="14.00">type</text>
<polygon fill="#e0ffe0" stroke="transparent" points="1466,-179 1466,-200 1507,-200 1507,-179 1466,-179"/>
<polygon fill="none" stroke="black" points="1466,-179 1466,-200 1507,-200 1507,-179 1466,-179"/>
<text text-anchor="start" x="1479.5" y="-185.8" font-family="Times,serif" font-size="14.00">id</text>
<polygon fill="none" stroke="black" points="1289,-158 1289,-179 1358,-179 1358,-158 1289,-158"/>
<text text-anchor="start" x="1292" y="-164.8" font-family="Times,serif" font-size="14.00">ofs_body</text>
<polygon fill="none" stroke="black" points="1358,-158 1358,-179 1428,-179 1428,-158 1358,-158"/>
<text text-anchor="start" x="1361" y="-164.8" font-family="Times,serif" font-size="14.00">len_body</text>
<polygon fill="none" stroke="black" points="1428,-158 1428,-179 1466,-179 1466,-158 1428,-158"/>
<polygon fill="none" stroke="black" points="1466,-158 1466,-179 1507,-179 1507,-158 1466,-158"/>
<text text-anchor="start" x="1469" y="-164.8" font-family="Times,serif" font-size="14.00">body</text>
</g>
<!-- resource__seq&#45;&gt;resource__inst__body -->
<g id="edge13" class="edge">
<title>resource__seq:ofs_body_type&#45;&gt;resource__inst__body:body_pos</title>
<path fill="none" stroke="#404040" d="M597.5,-157C631.53,-157 639.98,-154.67 674,-154 927.73,-149.03 994.36,-114.23 1245,-154 1260.97,-156.53 1266.07,-164.06 1277.92,-166.9"/>
<polygon fill="#404040" stroke="#404040" points="1277.68,-170.39 1288,-168 1278.44,-163.43 1277.68,-170.39"/>
</g>
<!-- resource__inst__len_body&#45;&gt;resource__inst__body -->
<g id="edge14" class="edge">
<title>resource__inst__len_body:len_body_type&#45;&gt;resource__inst__body:body_size</title>
<path fill="none" stroke="#404040" d="M1181.5,-163C1269.3,-154.33 1356.05,-147.81 1383.83,-152.44"/>
<polygon fill="#404040" stroke="#404040" points="1382.49,-155.68 1393,-157 1385.61,-149.41 1382.49,-155.68"/>
</g>
<!-- alias__seq&#45;&gt;alias__inst__resource -->
<g id="edge16" class="edge">
<title>alias__seq:resource_idx_type&#45;&gt;alias__inst__resource</title>
<path fill="none" stroke="#404040" d="M611.5,-38C669.3,-38 732.41,-41.08 788.76,-44.93"/>
<polygon fill="#404040" stroke="#404040" points="788.62,-48.43 798.84,-45.63 789.11,-41.45 788.62,-48.43"/>
</g>
</g>
</svg>
