<?xml version="1.0" encoding="UTF-8" standalone="no"?>
<!DOCTYPE svg PUBLIC "-//W3C//DTD SVG 1.1//EN"
 "http://www.w3.org/Graphics/SVG/1.1/DTD/svg11.dtd">
<!-- Generated by graphviz version 2.43.0 (0)
 -->
<!-- Title: %3 Pages: 1 -->
<svg width="2564pt" height="614pt"
 viewBox="0.00 0.00 2564.00 614.00" xmlns="http://www.w3.org/2000/svg" xmlns:xlink="http://www.w3.org/1999/xlink">
<g id="graph0" class="graph" transform="scale(1 1) rotate(0) translate(4 610)">
<title>%3</title>
<polygon fill="white" stroke="transparent" points="-4,4 -4,-610 2560,-610 2560,4 -4,4"/>
<g id="clust1" class="cluster">
<title>cluster__gimp_brush</title>
<polygon fill="none" stroke="black" stroke-dasharray="1,5" points="8,-8 8,-598 2548,-598 2548,-8 8,-8"/>
<text text-anchor="middle" x="1278" y="-582.8" font-family="Times,serif" font-size="14.00">GimpBrush</text>
</g>
<g id="clust2" class="cluster">
<title>cluster__header</title>
<polygon fill="none" stroke="black" stroke-dasharray="1,5" points="353,-323 353,-538 704,-538 704,-323 353,-323"/>
<text text-anchor="middle" x="528.5" y="-522.8" font-family="Times,serif" font-size="14.00">GimpBrush::Header</text>
</g>
<g id="clust3" class="cluster">
<title>cluster__bitmap</title>
<polygon fill="none" stroke="black" stroke-dasharray="1,5" points="916,-287 916,-398 1189,-398 1189,-287 916,-287"/>
<text text-anchor="middle" x="1052.5" y="-382.8" font-family="Times,serif" font-size="14.00">GimpBrush::Bitmap</text>
</g>
<g id="clust4" class="cluster">
<title>cluster__row</title>
<polygon fill="none" stroke="black" stroke-dasharray="1,5" points="1401,-16 1401,-509 2540,-509 2540,-16 1401,-16"/>
<text text-anchor="middle" x="1970.5" y="-493.8" font-family="Times,serif" font-size="14.00">GimpBrush::Row</text>
</g>
<g id="clust5" class="cluster">
<title>cluster__pixel_gray</title>
<polygon fill="none" stroke="black" stroke-dasharray="1,5" points="2176.5,-185 2176.5,-478 2532,-478 2532,-185 2176.5,-185"/>
<text text-anchor="middle" x="2354.25" y="-462.8" font-family="Times,serif" font-size="14.00">GimpBrush::Row::PixelGray</text>
</g>
<g id="clust6" class="cluster">
<title>cluster__pixel_rgba</title>
<polygon fill="none" stroke="black" stroke-dasharray="1,5" points="2155,-24 2155,-177 2373,-177 2373,-24 2155,-24"/>
<text text-anchor="middle" x="2264" y="-161.8" font-family="Times,serif" font-size="14.00">GimpBrush::Row::PixelRgba</text>
</g>
<!-- gimp_brush__seq -->
<g id="node1" class="node">
<title>gimp_brush__seq</title>
<polygon fill="#e0ffe0" stroke="transparent" points="24.5,-486 24.5,-507 55.5,-507 55.5,-486 24.5,-486"/>
<polygon fill="none" stroke="black" points="24.5,-486 24.5,-507 55.5,-507 55.5,-486 24.5,-486"/>
<text text-anchor="start" x="27.5" y="-492.8" font-family="Times,serif" font-size="14.00">pos</text>
<polygon fill="#e0ffe0" stroke="transparent" points="55.5,-486 55.5,-507 173.5,-507 173.5,-486 55.5,-486"/>
<polygon fill="none" stroke="black" points="55.5,-486 55.5,-507 173.5,-507 173.5,-486 55.5,-486"/>
<text text-anchor="start" x="100.5" y="-492.8" font-family="Times,serif" font-size="14.00">size</text>
<polygon fill="#e0ffe0" stroke="transparent" points="173.5,-486 173.5,-507 232.5,-507 232.5,-486 173.5,-486"/>
<polygon fill="none" stroke="black" points="173.5,-486 173.5,-507 232.5,-507 232.5,-486 173.5,-486"/>
<text text-anchor="start" x="187" y="-492.8" font-family="Times,serif" font-size="14.00">type</text>
<polygon fill="#e0ffe0" stroke="transparent" points="232.5,-486 232.5,-507 317.5,-507 317.5,-486 232.5,-486"/>
<polygon fill="none" stroke="black" points="232.5,-486 232.5,-507 317.5,-507 317.5,-486 232.5,-486"/>
<text text-anchor="start" x="268" y="-492.8" font-family="Times,serif" font-size="14.00">id</text>
<polygon fill="none" stroke="black" points="24.5,-465 24.5,-486 55.5,-486 55.5,-465 24.5,-465"/>
<text text-anchor="start" x="35" y="-471.8" font-family="Times,serif" font-size="14.00">0</text>
<polygon fill="none" stroke="black" points="55.5,-465 55.5,-486 173.5,-486 173.5,-465 55.5,-465"/>
<text text-anchor="start" x="109.5" y="-471.8" font-family="Times,serif" font-size="14.00">4</text>
<polygon fill="none" stroke="black" points="173.5,-465 173.5,-486 232.5,-486 232.5,-465 173.5,-465"/>
<text text-anchor="start" x="185" y="-471.8" font-family="Times,serif" font-size="14.00">u4be</text>
<polygon fill="none" stroke="black" points="232.5,-465 232.5,-486 317.5,-486 317.5,-465 232.5,-465"/>
<text text-anchor="start" x="235.5" y="-471.8" font-family="Times,serif" font-size="14.00">len_header</text>
<polygon fill="none" stroke="black" points="24.5,-444 24.5,-465 55.5,-465 55.5,-444 24.5,-444"/>
<text text-anchor="start" x="35" y="-450.8" font-family="Times,serif" font-size="14.00">4</text>
<polygon fill="none" stroke="black" points="55.5,-444 55.5,-465 173.5,-465 173.5,-444 55.5,-444"/>
<text text-anchor="start" x="58.5" y="-450.8" font-family="Times,serif" font-size="14.00">(len_header &#45; 4)</text>
<polygon fill="none" stroke="black" points="173.5,-444 173.5,-465 232.5,-465 232.5,-444 173.5,-444"/>
<text text-anchor="start" x="176.5" y="-450.8" font-family="Times,serif" font-size="14.00">Header</text>
<polygon fill="none" stroke="black" points="232.5,-444 232.5,-465 317.5,-465 317.5,-444 232.5,-444"/>
<text text-anchor="start" x="250" y="-450.8" font-family="Times,serif" font-size="14.00">header</text>
</g>
<!-- gimp_brush__seq&#45;&gt;gimp_brush__seq -->
<g id="edge1" class="edge">
<title>gimp_brush__seq:len_header_type&#45;&gt;gimp_brush__seq:header_size</title>
<path fill="none" stroke="#404040" d="M294.82,-486.12C316.21,-504.83 297.74,-529.5 195,-529.5 100.9,-529.5 77.5,-496.95 90.65,-473.2"/>
<polygon fill="#404040" stroke="#404040" points="93.46,-475.3 96.77,-465.23 87.91,-471.03 93.46,-475.3"/>
</g>
<!-- gimp_brush__seq&#45;&gt;gimp_brush__seq -->
<g id="edge2" class="edge">
<title>gimp_brush__seq:len_header_type&#45;&gt;gimp_brush__seq:header_size</title>
<path fill="none" stroke="#404040" d="M307.36,-486.15C361.73,-511.39 341.43,-547.5 195,-547.5 54.7,-547.5 30.19,-500.05 76.22,-470.07"/>
<polygon fill="#404040" stroke="#404040" points="77.99,-473.09 84.91,-465.06 74.49,-467.02 77.99,-473.09"/>
</g>
<!-- gimp_brush__inst__body -->
<g id="node3" class="node">
<title>gimp_brush__inst__body</title>
<polygon fill="#e0ffe0" stroke="transparent" points="1493,-542 1493,-563 1578,-563 1578,-542 1493,-542"/>
<polygon fill="none" stroke="black" points="1493,-542 1493,-563 1578,-563 1578,-542 1493,-542"/>
<text text-anchor="start" x="1523" y="-548.8" font-family="Times,serif" font-size="14.00">pos</text>
<polygon fill="#e0ffe0" stroke="transparent" points="1578,-542 1578,-563 1648,-563 1648,-542 1578,-542"/>
<polygon fill="none" stroke="black" points="1578,-542 1578,-563 1648,-563 1648,-542 1578,-542"/>
<text text-anchor="start" x="1599" y="-548.8" font-family="Times,serif" font-size="14.00">size</text>
<polygon fill="#e0ffe0" stroke="transparent" points="1648,-542 1648,-563 1686,-563 1686,-542 1648,-542"/>
<polygon fill="none" stroke="black" points="1648,-542 1648,-563 1686,-563 1686,-542 1648,-542"/>
<text text-anchor="start" x="1651" y="-548.8" font-family="Times,serif" font-size="14.00">type</text>
<polygon fill="#e0ffe0" stroke="transparent" points="1686,-542 1686,-563 1727,-563 1727,-542 1686,-542"/>
<polygon fill="none" stroke="black" points="1686,-542 1686,-563 1727,-563 1727,-542 1686,-542"/>
<text text-anchor="start" x="1699.5" y="-548.8" font-family="Times,serif" font-size="14.00">id</text>
<polygon fill="none" stroke="black" points="1493,-521 1493,-542 1578,-542 1578,-521 1493,-521"/>
<text text-anchor="start" x="1496" y="-527.8" font-family="Times,serif" font-size="14.00">len_header</text>
<polygon fill="none" stroke="black" points="1578,-521 1578,-542 1648,-542 1648,-521 1578,-521"/>
<text text-anchor="start" x="1581" y="-527.8" font-family="Times,serif" font-size="14.00">len_body</text>
<polygon fill="none" stroke="black" points="1648,-521 1648,-542 1686,-542 1686,-521 1648,-521"/>
<polygon fill="none" stroke="black" points="1686,-521 1686,-542 1727,-542 1727,-521 1686,-521"/>
<text text-anchor="start" x="1689" y="-527.8" font-family="Times,serif" font-size="14.00">body</text>
</g>
<!-- gimp_brush__seq&#45;&gt;gimp_brush__inst__body -->
<g id="edge7" class="edge">
<title>gimp_brush__seq:len_header_type&#45;&gt;gimp_brush__inst__body:body_pos</title>
<path fill="none" stroke="#404040" d="M318.5,-475C351.99,-475 324.4,-524.56 353,-542 486.19,-623.23 548,-543.09 704,-542 1050.83,-539.58 1140.01,-531.17 1481.81,-531"/>
<polygon fill="#404040" stroke="#404040" points="1482,-534.5 1492,-531 1482,-527.5 1482,-534.5"/>
</g>
<!-- header__seq -->
<g id="node4" class="node">
<title>header__seq</title>
<polygon fill="#e0ffe0" stroke="transparent" points="369.5,-482 369.5,-503 400.5,-503 400.5,-482 369.5,-482"/>
<polygon fill="none" stroke="black" points="369.5,-482 369.5,-503 400.5,-503 400.5,-482 369.5,-482"/>
<text text-anchor="start" x="372.5" y="-488.8" font-family="Times,serif" font-size="14.00">pos</text>
<polygon fill="#e0ffe0" stroke="transparent" points="400.5,-482 400.5,-503 434.5,-503 434.5,-482 400.5,-482"/>
<polygon fill="none" stroke="black" points="400.5,-482 400.5,-503 434.5,-503 434.5,-482 400.5,-482"/>
<text text-anchor="start" x="403.5" y="-488.8" font-family="Times,serif" font-size="14.00">size</text>
<polygon fill="#e0ffe0" stroke="transparent" points="434.5,-482 434.5,-503 570.5,-503 570.5,-482 434.5,-482"/>
<polygon fill="none" stroke="black" points="434.5,-482 434.5,-503 570.5,-503 570.5,-482 434.5,-482"/>
<text text-anchor="start" x="486.5" y="-488.8" font-family="Times,serif" font-size="14.00">type</text>
<polygon fill="#e0ffe0" stroke="transparent" points="570.5,-482 570.5,-503 688.5,-503 688.5,-482 570.5,-482"/>
<polygon fill="none" stroke="black" points="570.5,-482 570.5,-503 688.5,-503 688.5,-482 570.5,-482"/>
<text text-anchor="start" x="622.5" y="-488.8" font-family="Times,serif" font-size="14.00">id</text>
<polygon fill="none" stroke="black" points="369.5,-461 369.5,-482 400.5,-482 400.5,-461 369.5,-461"/>
<text text-anchor="start" x="380" y="-467.8" font-family="Times,serif" font-size="14.00">0</text>
<polygon fill="none" stroke="black" points="400.5,-461 400.5,-482 434.5,-482 434.5,-461 400.5,-461"/>
<text text-anchor="start" x="412.5" y="-467.8" font-family="Times,serif" font-size="14.00">4</text>
<polygon fill="none" stroke="black" points="434.5,-461 434.5,-482 570.5,-482 570.5,-461 434.5,-461"/>
<text text-anchor="start" x="484.5" y="-467.8" font-family="Times,serif" font-size="14.00">u4be</text>
<polygon fill="none" stroke="black" points="570.5,-461 570.5,-482 688.5,-482 688.5,-461 570.5,-461"/>
<text text-anchor="start" x="603" y="-467.8" font-family="Times,serif" font-size="14.00">version</text>
<polygon fill="none" stroke="black" points="369.5,-440 369.5,-461 400.5,-461 400.5,-440 369.5,-440"/>
<text text-anchor="start" x="380" y="-446.8" font-family="Times,serif" font-size="14.00">4</text>
<polygon fill="none" stroke="black" points="400.5,-440 400.5,-461 434.5,-461 434.5,-440 400.5,-440"/>
<text text-anchor="start" x="412.5" y="-446.8" font-family="Times,serif" font-size="14.00">4</text>
<polygon fill="none" stroke="black" points="434.5,-440 434.5,-461 570.5,-461 570.5,-440 434.5,-440"/>
<text text-anchor="start" x="484.5" y="-446.8" font-family="Times,serif" font-size="14.00">u4be</text>
<polygon fill="none" stroke="black" points="570.5,-440 570.5,-461 688.5,-461 688.5,-440 570.5,-440"/>
<text text-anchor="start" x="609" y="-446.8" font-family="Times,serif" font-size="14.00">width</text>
<polygon fill="none" stroke="black" points="369.5,-419 369.5,-440 400.5,-440 400.5,-419 369.5,-419"/>
<text text-anchor="start" x="380" y="-425.8" font-family="Times,serif" font-size="14.00">8</text>
<polygon fill="none" stroke="black" points="400.5,-419 400.5,-440 434.5,-440 434.5,-419 400.5,-419"/>
<text text-anchor="start" x="412.5" y="-425.8" font-family="Times,serif" font-size="14.00">4</text>
<polygon fill="none" stroke="black" points="434.5,-419 434.5,-440 570.5,-440 570.5,-419 434.5,-419"/>
<text text-anchor="start" x="484.5" y="-425.8" font-family="Times,serif" font-size="14.00">u4be</text>
<polygon fill="none" stroke="black" points="570.5,-419 570.5,-440 688.5,-440 688.5,-419 570.5,-419"/>
<text text-anchor="start" x="606.5" y="-425.8" font-family="Times,serif" font-size="14.00">height</text>
<polygon fill="none" stroke="black" points="369.5,-398 369.5,-419 400.5,-419 400.5,-398 369.5,-398"/>
<text text-anchor="start" x="375.5" y="-404.8" font-family="Times,serif" font-size="14.00">12</text>
<polygon fill="none" stroke="black" points="400.5,-398 400.5,-419 434.5,-419 434.5,-398 400.5,-398"/>
<text text-anchor="start" x="412.5" y="-404.8" font-family="Times,serif" font-size="14.00">4</text>
<polygon fill="none" stroke="black" points="434.5,-398 434.5,-419 570.5,-419 570.5,-398 434.5,-398"/>
<text text-anchor="start" x="437.5" y="-404.8" font-family="Times,serif" font-size="14.00">u4be→ColorDepth</text>
<polygon fill="none" stroke="black" points="570.5,-398 570.5,-419 688.5,-419 688.5,-398 570.5,-398"/>
<text text-anchor="start" x="573.5" y="-404.8" font-family="Times,serif" font-size="14.00">bytes_per_pixel</text>
<polygon fill="none" stroke="black" points="369.5,-377 369.5,-398 400.5,-398 400.5,-377 369.5,-377"/>
<text text-anchor="start" x="375.5" y="-383.8" font-family="Times,serif" font-size="14.00">16</text>
<polygon fill="none" stroke="black" points="400.5,-377 400.5,-398 434.5,-398 434.5,-377 400.5,-377"/>
<text text-anchor="start" x="412.5" y="-383.8" font-family="Times,serif" font-size="14.00">4</text>
<polygon fill="none" stroke="black" points="434.5,-377 434.5,-398 570.5,-398 570.5,-377 434.5,-377"/>
<polygon fill="none" stroke="black" points="570.5,-377 570.5,-398 688.5,-398 688.5,-377 570.5,-377"/>
<text text-anchor="start" x="608" y="-383.8" font-family="Times,serif" font-size="14.00">magic</text>
<polygon fill="none" stroke="black" points="369.5,-356 369.5,-377 400.5,-377 400.5,-356 369.5,-356"/>
<text text-anchor="start" x="375.5" y="-362.8" font-family="Times,serif" font-size="14.00">20</text>
<polygon fill="none" stroke="black" points="400.5,-356 400.5,-377 434.5,-377 434.5,-356 400.5,-356"/>
<text text-anchor="start" x="412.5" y="-362.8" font-family="Times,serif" font-size="14.00">4</text>
<polygon fill="none" stroke="black" points="434.5,-356 434.5,-377 570.5,-377 570.5,-356 434.5,-356"/>
<text text-anchor="start" x="484.5" y="-362.8" font-family="Times,serif" font-size="14.00">u4be</text>
<polygon fill="none" stroke="black" points="570.5,-356 570.5,-377 688.5,-377 688.5,-356 570.5,-356"/>
<text text-anchor="start" x="602" y="-362.8" font-family="Times,serif" font-size="14.00">spacing</text>
<polygon fill="none" stroke="black" points="369.5,-335 369.5,-356 400.5,-356 400.5,-335 369.5,-335"/>
<text text-anchor="start" x="375.5" y="-341.8" font-family="Times,serif" font-size="14.00">24</text>
<polygon fill="none" stroke="black" points="400.5,-335 400.5,-356 434.5,-356 434.5,-335 400.5,-335"/>
<text text-anchor="start" x="411" y="-341.8" font-family="Times,serif" font-size="14.00">⇲</text>
<polygon fill="none" stroke="black" points="434.5,-335 434.5,-356 570.5,-356 570.5,-335 434.5,-335"/>
<text text-anchor="start" x="465" y="-341.8" font-family="Times,serif" font-size="14.00">str(UTF&#45;8)</text>
<polygon fill="none" stroke="black" points="570.5,-335 570.5,-356 688.5,-356 688.5,-335 570.5,-335"/>
<text text-anchor="start" x="585.5" y="-341.8" font-family="Times,serif" font-size="14.00">brush_name</text>
</g>
<!-- gimp_brush__seq&#45;&gt;header__seq -->
<g id="edge3" class="edge">
<title>gimp_brush__seq:header_type&#45;&gt;header__seq</title>
<path fill="none" stroke="black" stroke-width="2" d="M318.5,-454C329.06,-454 339.89,-453.56 350.78,-452.78"/>
<polygon fill="black" stroke="black" stroke-width="2" points="351.11,-456.26 360.79,-451.97 350.54,-449.29 351.11,-456.26"/>
</g>
<!-- gimp_brush__inst__len_body -->
<g id="node2" class="node">
<title>gimp_brush__inst__len_body</title>
<polygon fill="#e0ffe0" stroke="transparent" points="740.5,-451 740.5,-472 810.5,-472 810.5,-451 740.5,-451"/>
<polygon fill="none" stroke="black" points="740.5,-451 740.5,-472 810.5,-472 810.5,-451 740.5,-451"/>
<text text-anchor="start" x="768.5" y="-457.8" font-family="Times,serif" font-size="14.00">id</text>
<polygon fill="#e0ffe0" stroke="transparent" points="810.5,-451 810.5,-472 1365.5,-472 1365.5,-451 810.5,-451"/>
<polygon fill="none" stroke="black" points="810.5,-451 810.5,-472 1365.5,-472 1365.5,-451 810.5,-451"/>
<text text-anchor="start" x="1068.5" y="-457.8" font-family="Times,serif" font-size="14.00">value</text>
<polygon fill="none" stroke="black" points="740.5,-430 740.5,-451 810.5,-451 810.5,-430 740.5,-430"/>
<text text-anchor="start" x="743.5" y="-436.8" font-family="Times,serif" font-size="14.00">len_body</text>
<polygon fill="none" stroke="black" points="810.5,-430 810.5,-451 1365.5,-451 1365.5,-430 810.5,-430"/>
<text text-anchor="start" x="813.5" y="-436.8" font-family="Times,serif" font-size="14.00">((header.width * header.height) * I__COLOR_DEPTH[header.bytes_per_pixel])</text>
</g>
<!-- gimp_brush__inst__len_body&#45;&gt;gimp_brush__inst__body -->
<g id="edge8" class="edge">
<title>gimp_brush__inst__len_body:len_body_type&#45;&gt;gimp_brush__inst__body:body_size</title>
<path fill="none" stroke="#404040" d="M1169.53,-476C1236.79,-489.42 1323.29,-504.83 1401,-513 1406.08,-513.53 1561.78,-513.98 1603.04,-517.93"/>
<polygon fill="#404040" stroke="#404040" points="1602.5,-521.39 1613,-520 1603.92,-514.53 1602.5,-521.39"/>
</g>
<!-- header__seq&#45;&gt;gimp_brush__inst__len_body -->
<g id="edge4" class="edge">
<title>header__seq:width_type&#45;&gt;gimp_brush__inst__len_body</title>
<path fill="none" stroke="#404040" d="M689.5,-451C700.09,-451 710.85,-451 721.71,-451"/>
<polygon fill="#404040" stroke="#404040" points="721.72,-454.5 731.72,-451 721.72,-447.5 721.72,-454.5"/>
</g>
<!-- header__seq&#45;&gt;gimp_brush__inst__len_body -->
<g id="edge5" class="edge">
<title>header__seq:height_type&#45;&gt;gimp_brush__inst__len_body</title>
<path fill="none" stroke="#404040" d="M689.5,-430C700.1,-430 710.88,-430.09 721.76,-430.26"/>
<polygon fill="#404040" stroke="#404040" points="721.71,-433.76 731.78,-430.44 721.84,-426.76 721.71,-433.76"/>
</g>
<!-- header__seq&#45;&gt;gimp_brush__inst__len_body -->
<g id="edge6" class="edge">
<title>header__seq:bytes_per_pixel_type&#45;&gt;gimp_brush__inst__len_body</title>
<path fill="none" stroke="#404040" d="M689.5,-408C698.13,-408 765.15,-415.81 839.23,-424.77"/>
<polygon fill="#404040" stroke="#404040" points="838.9,-428.26 849.25,-425.99 839.74,-421.31 838.9,-428.26"/>
</g>
<!-- bitmap__seq -->
<g id="node5" class="node">
<title>bitmap__seq</title>
<polygon fill="#e0ffe0" stroke="transparent" points="932.5,-341 932.5,-362 1011.5,-362 1011.5,-341 932.5,-341"/>
<polygon fill="none" stroke="black" points="932.5,-341 932.5,-362 1011.5,-362 1011.5,-341 932.5,-341"/>
<text text-anchor="start" x="959.5" y="-347.8" font-family="Times,serif" font-size="14.00">pos</text>
<polygon fill="#e0ffe0" stroke="transparent" points="1011.5,-341 1011.5,-362 1069.5,-362 1069.5,-341 1011.5,-341"/>
<polygon fill="none" stroke="black" points="1011.5,-341 1011.5,-362 1069.5,-362 1069.5,-341 1011.5,-341"/>
<text text-anchor="start" x="1026.5" y="-347.8" font-family="Times,serif" font-size="14.00">size</text>
<polygon fill="#e0ffe0" stroke="transparent" points="1069.5,-341 1069.5,-362 1119.5,-362 1119.5,-341 1069.5,-341"/>
<polygon fill="none" stroke="black" points="1069.5,-341 1069.5,-362 1119.5,-362 1119.5,-341 1069.5,-341"/>
<text text-anchor="start" x="1078.5" y="-347.8" font-family="Times,serif" font-size="14.00">type</text>
<polygon fill="#e0ffe0" stroke="transparent" points="1119.5,-341 1119.5,-362 1173.5,-362 1173.5,-341 1119.5,-341"/>
<polygon fill="none" stroke="black" points="1119.5,-341 1119.5,-362 1173.5,-362 1173.5,-341 1119.5,-341"/>
<text text-anchor="start" x="1139.5" y="-347.8" font-family="Times,serif" font-size="14.00">id</text>
<polygon fill="none" stroke="black" points="932.5,-320 932.5,-341 1011.5,-341 1011.5,-320 932.5,-320"/>
<text text-anchor="start" x="967" y="-326.8" font-family="Times,serif" font-size="14.00">0</text>
<polygon fill="none" stroke="black" points="1011.5,-320 1011.5,-341 1069.5,-341 1069.5,-320 1011.5,-320"/>
<text text-anchor="start" x="1033.5" y="-326.8" font-family="Times,serif" font-size="14.00">...</text>
<polygon fill="none" stroke="black" points="1069.5,-320 1069.5,-341 1119.5,-341 1119.5,-320 1069.5,-320"/>
<text text-anchor="start" x="1079" y="-326.8" font-family="Times,serif" font-size="14.00">Row</text>
<polygon fill="none" stroke="black" points="1119.5,-320 1119.5,-341 1173.5,-341 1173.5,-320 1119.5,-320"/>
<text text-anchor="start" x="1129" y="-326.8" font-family="Times,serif" font-size="14.00">rows</text>
<polygon fill="none" stroke="black" points="932.5,-299 932.5,-320 1173.5,-320 1173.5,-299 932.5,-299"/>
<text text-anchor="start" x="935.5" y="-305.8" font-family="Times,serif" font-size="14.00">repeat _root.header.height times</text>
</g>
<!-- header__seq&#45;&gt;bitmap__seq -->
<g id="edge10" class="edge">
<title>header__seq:height_type&#45;&gt;bitmap__seq:rows__repeat</title>
<path fill="none" stroke="#404040" d="M689.5,-430C712.12,-430 712.25,-413.03 732,-402 814.41,-355.97 832.44,-312.19 921.48,-309.17"/>
<polygon fill="#404040" stroke="#404040" points="921.56,-312.67 931.5,-309 921.44,-305.67 921.56,-312.67"/>
</g>
<!-- row__seq -->
<g id="node6" class="node">
<title>row__seq</title>
<polygon fill="#e0ffe0" stroke="transparent" points="1417,-418 1417,-439 1448,-439 1448,-418 1417,-418"/>
<polygon fill="none" stroke="black" points="1417,-418 1417,-439 1448,-439 1448,-418 1417,-418"/>
<text text-anchor="start" x="1420" y="-424.8" font-family="Times,serif" font-size="14.00">pos</text>
<polygon fill="#e0ffe0" stroke="transparent" points="1448,-418 1448,-439 1482,-439 1482,-418 1448,-418"/>
<polygon fill="none" stroke="black" points="1448,-418 1448,-439 1482,-439 1482,-418 1448,-418"/>
<text text-anchor="start" x="1451" y="-424.8" font-family="Times,serif" font-size="14.00">size</text>
<polygon fill="#e0ffe0" stroke="transparent" points="1482,-418 1482,-439 1754,-439 1754,-418 1482,-418"/>
<polygon fill="none" stroke="black" points="1482,-418 1482,-439 1754,-439 1754,-418 1482,-418"/>
<text text-anchor="start" x="1602" y="-424.8" font-family="Times,serif" font-size="14.00">type</text>
<polygon fill="#e0ffe0" stroke="transparent" points="1754,-418 1754,-439 1803,-439 1803,-418 1754,-418"/>
<polygon fill="none" stroke="black" points="1754,-418 1754,-439 1803,-439 1803,-418 1754,-418"/>
<text text-anchor="start" x="1771.5" y="-424.8" font-family="Times,serif" font-size="14.00">id</text>
<polygon fill="none" stroke="black" points="1417,-397 1417,-418 1448,-418 1448,-397 1417,-397"/>
<text text-anchor="start" x="1427.5" y="-403.8" font-family="Times,serif" font-size="14.00">0</text>
<polygon fill="none" stroke="black" points="1448,-397 1448,-418 1482,-418 1482,-397 1448,-397"/>
<text text-anchor="start" x="1458" y="-403.8" font-family="Times,serif" font-size="14.00">...</text>
<polygon fill="none" stroke="black" points="1482,-397 1482,-418 1754,-418 1754,-397 1482,-397"/>
<text text-anchor="start" x="1485" y="-403.8" font-family="Times,serif" font-size="14.00">switch (_root.header.bytes_per_pixel)</text>
<polygon fill="none" stroke="black" points="1754,-397 1754,-418 1803,-418 1803,-397 1754,-397"/>
<text text-anchor="start" x="1757" y="-403.8" font-family="Times,serif" font-size="14.00">pixels</text>
<polygon fill="none" stroke="black" points="1417,-376 1417,-397 1803,-397 1803,-376 1417,-376"/>
<text text-anchor="start" x="1495.5" y="-382.8" font-family="Times,serif" font-size="14.00">repeat _root.header.width times</text>
</g>
<!-- header__seq&#45;&gt;row__seq -->
<g id="edge14" class="edge">
<title>header__seq:bytes_per_pixel_type&#45;&gt;row__seq:pixels_type</title>
<path fill="none" stroke="#404040" d="M689.5,-408C727.47,-408 1337.3,-414.94 1373,-402 1392.45,-394.95 1389.52,-379.46 1409,-372.5 1808.9,-229.58 1838.03,-374.04 1813.12,-402.38"/>
<polygon fill="#404040" stroke="#404040" points="1811.34,-399.36 1804,-407 1814.5,-405.6 1811.34,-399.36"/>
</g>
<!-- header__seq&#45;&gt;row__seq -->
<g id="edge15" class="edge">
<title>header__seq:width_type&#45;&gt;row__seq:pixels__repeat</title>
<path fill="none" stroke="#404040" d="M689.5,-451C715.14,-451 708.11,-480.7 732,-490 748.59,-496.46 1358.2,-499.9 1373,-490 1411.33,-464.37 1373.03,-397.61 1405.99,-387.34"/>
<polygon fill="#404040" stroke="#404040" points="1406.55,-390.79 1416,-386 1405.62,-383.85 1406.55,-390.79"/>
</g>
<!-- bitmap__seq&#45;&gt;row__seq -->
<g id="edge9" class="edge">
<title>bitmap__seq:rows_type&#45;&gt;row__seq</title>
<path fill="none" stroke="black" stroke-width="2" d="M1174.5,-330C1274.39,-330 1385.2,-350.22 1469.91,-370.07"/>
<polygon fill="black" stroke="black" stroke-width="2" points="1469.31,-373.52 1479.85,-372.42 1470.92,-366.71 1469.31,-373.52"/>
</g>
<!-- row__seq_pixels_switch -->
<g id="node7" class="node">
<title>row__seq_pixels_switch</title>
<polygon fill="#f0f2e4" stroke="transparent" points="1855,-417 1855,-438 2024,-438 2024,-417 1855,-417"/>
<polygon fill="none" stroke="black" points="1855,-417 1855,-438 2024,-438 2024,-417 1855,-417"/>
<text text-anchor="start" x="1923.5" y="-423.8" font-family="Times,serif" font-size="14.00">case</text>
<polygon fill="#f0f2e4" stroke="transparent" points="2024,-417 2024,-438 2103,-438 2103,-417 2024,-417"/>
<polygon fill="none" stroke="black" points="2024,-417 2024,-438 2103,-438 2103,-417 2024,-417"/>
<text text-anchor="start" x="2047.5" y="-423.8" font-family="Times,serif" font-size="14.00">type</text>
<polygon fill="none" stroke="black" points="1855,-396 1855,-417 2024,-417 2024,-396 1855,-396"/>
<text text-anchor="start" x="1858" y="-402.8" font-family="Times,serif" font-size="14.00">:color_depth_grayscale</text>
<polygon fill="none" stroke="black" points="2024,-396 2024,-417 2103,-417 2103,-396 2024,-396"/>
<text text-anchor="start" x="2028.5" y="-402.8" font-family="Times,serif" font-size="14.00">PixelGray</text>
<polygon fill="none" stroke="black" points="1855,-375 1855,-396 2024,-396 2024,-375 1855,-375"/>
<text text-anchor="start" x="1875.5" y="-381.8" font-family="Times,serif" font-size="14.00">:color_depth_rgba</text>
<polygon fill="none" stroke="black" points="2024,-375 2024,-396 2103,-396 2103,-375 2024,-375"/>
<text text-anchor="start" x="2027" y="-381.8" font-family="Times,serif" font-size="14.00">PixelRgba</text>
</g>
<!-- row__seq&#45;&gt;row__seq_pixels_switch -->
<g id="edge11" class="edge">
<title>row__seq:pixels_type&#45;&gt;row__seq_pixels_switch</title>
<path fill="none" stroke="black" stroke-width="2" d="M1804,-407C1814.64,-407 1825.64,-407 1836.71,-407"/>
<polygon fill="black" stroke="black" stroke-width="2" points="1836.89,-410.5 1846.89,-407 1836.89,-403.5 1836.89,-410.5"/>
</g>
<!-- pixel_gray__seq -->
<g id="node8" class="node">
<title>pixel_gray__seq</title>
<polygon fill="#e0ffe0" stroke="transparent" points="2192.5,-422 2192.5,-443 2223.5,-443 2223.5,-422 2192.5,-422"/>
<polygon fill="none" stroke="black" points="2192.5,-422 2192.5,-443 2223.5,-443 2223.5,-422 2192.5,-422"/>
<text text-anchor="start" x="2195.5" y="-428.8" font-family="Times,serif" font-size="14.00">pos</text>
<polygon fill="#e0ffe0" stroke="transparent" points="2223.5,-422 2223.5,-443 2257.5,-443 2257.5,-422 2223.5,-422"/>
<polygon fill="none" stroke="black" points="2223.5,-422 2223.5,-443 2257.5,-443 2257.5,-422 2223.5,-422"/>
<text text-anchor="start" x="2226.5" y="-428.8" font-family="Times,serif" font-size="14.00">size</text>
<polygon fill="#e0ffe0" stroke="transparent" points="2257.5,-422 2257.5,-443 2295.5,-443 2295.5,-422 2257.5,-422"/>
<polygon fill="none" stroke="black" points="2257.5,-422 2257.5,-443 2295.5,-443 2295.5,-422 2257.5,-422"/>
<text text-anchor="start" x="2260.5" y="-428.8" font-family="Times,serif" font-size="14.00">type</text>
<polygon fill="#e0ffe0" stroke="transparent" points="2295.5,-422 2295.5,-443 2334.5,-443 2334.5,-422 2295.5,-422"/>
<polygon fill="none" stroke="black" points="2295.5,-422 2295.5,-443 2334.5,-443 2334.5,-422 2295.5,-422"/>
<text text-anchor="start" x="2308" y="-428.8" font-family="Times,serif" font-size="14.00">id</text>
<polygon fill="none" stroke="black" points="2192.5,-401 2192.5,-422 2223.5,-422 2223.5,-401 2192.5,-401"/>
<text text-anchor="start" x="2203" y="-407.8" font-family="Times,serif" font-size="14.00">0</text>
<polygon fill="none" stroke="black" points="2223.5,-401 2223.5,-422 2257.5,-422 2257.5,-401 2223.5,-401"/>
<text text-anchor="start" x="2235.5" y="-407.8" font-family="Times,serif" font-size="14.00">1</text>
<polygon fill="none" stroke="black" points="2257.5,-401 2257.5,-422 2295.5,-422 2295.5,-401 2257.5,-401"/>
<text text-anchor="start" x="2267" y="-407.8" font-family="Times,serif" font-size="14.00">u1</text>
<polygon fill="none" stroke="black" points="2295.5,-401 2295.5,-422 2334.5,-422 2334.5,-401 2295.5,-401"/>
<text text-anchor="start" x="2298.5" y="-407.8" font-family="Times,serif" font-size="14.00">gray</text>
</g>
<!-- row__seq_pixels_switch&#45;&gt;pixel_gray__seq -->
<g id="edge12" class="edge">
<title>row__seq_pixels_switch:case0&#45;&gt;pixel_gray__seq</title>
<path fill="none" stroke="black" stroke-width="2" d="M2104,-406C2126.89,-406 2151.54,-407.67 2174.43,-409.93"/>
<polygon fill="black" stroke="black" stroke-width="2" points="2174.15,-413.42 2184.46,-410.97 2174.87,-406.46 2174.15,-413.42"/>
</g>
<!-- pixel_rgba__seq -->
<g id="node13" class="node">
<title>pixel_rgba__seq</title>
<polygon fill="#e0ffe0" stroke="transparent" points="2188.5,-120 2188.5,-141 2219.5,-141 2219.5,-120 2188.5,-120"/>
<polygon fill="none" stroke="black" points="2188.5,-120 2188.5,-141 2219.5,-141 2219.5,-120 2188.5,-120"/>
<text text-anchor="start" x="2191.5" y="-126.8" font-family="Times,serif" font-size="14.00">pos</text>
<polygon fill="#e0ffe0" stroke="transparent" points="2219.5,-120 2219.5,-141 2253.5,-141 2253.5,-120 2219.5,-120"/>
<polygon fill="none" stroke="black" points="2219.5,-120 2219.5,-141 2253.5,-141 2253.5,-120 2219.5,-120"/>
<text text-anchor="start" x="2222.5" y="-126.8" font-family="Times,serif" font-size="14.00">size</text>
<polygon fill="#e0ffe0" stroke="transparent" points="2253.5,-120 2253.5,-141 2291.5,-141 2291.5,-120 2253.5,-120"/>
<polygon fill="none" stroke="black" points="2253.5,-120 2253.5,-141 2291.5,-141 2291.5,-120 2253.5,-120"/>
<text text-anchor="start" x="2256.5" y="-126.8" font-family="Times,serif" font-size="14.00">type</text>
<polygon fill="#e0ffe0" stroke="transparent" points="2291.5,-120 2291.5,-141 2339.5,-141 2339.5,-120 2291.5,-120"/>
<polygon fill="none" stroke="black" points="2291.5,-120 2291.5,-141 2339.5,-141 2339.5,-120 2291.5,-120"/>
<text text-anchor="start" x="2308.5" y="-126.8" font-family="Times,serif" font-size="14.00">id</text>
<polygon fill="none" stroke="black" points="2188.5,-99 2188.5,-120 2219.5,-120 2219.5,-99 2188.5,-99"/>
<text text-anchor="start" x="2199" y="-105.8" font-family="Times,serif" font-size="14.00">0</text>
<polygon fill="none" stroke="black" points="2219.5,-99 2219.5,-120 2253.5,-120 2253.5,-99 2219.5,-99"/>
<text text-anchor="start" x="2231.5" y="-105.8" font-family="Times,serif" font-size="14.00">1</text>
<polygon fill="none" stroke="black" points="2253.5,-99 2253.5,-120 2291.5,-120 2291.5,-99 2253.5,-99"/>
<text text-anchor="start" x="2263" y="-105.8" font-family="Times,serif" font-size="14.00">u1</text>
<polygon fill="none" stroke="black" points="2291.5,-99 2291.5,-120 2339.5,-120 2339.5,-99 2291.5,-99"/>
<text text-anchor="start" x="2303" y="-105.8" font-family="Times,serif" font-size="14.00">red</text>
<polygon fill="none" stroke="black" points="2188.5,-78 2188.5,-99 2219.5,-99 2219.5,-78 2188.5,-78"/>
<text text-anchor="start" x="2199" y="-84.8" font-family="Times,serif" font-size="14.00">1</text>
<polygon fill="none" stroke="black" points="2219.5,-78 2219.5,-99 2253.5,-99 2253.5,-78 2219.5,-78"/>
<text text-anchor="start" x="2231.5" y="-84.8" font-family="Times,serif" font-size="14.00">1</text>
<polygon fill="none" stroke="black" points="2253.5,-78 2253.5,-99 2291.5,-99 2291.5,-78 2253.5,-78"/>
<text text-anchor="start" x="2263" y="-84.8" font-family="Times,serif" font-size="14.00">u1</text>
<polygon fill="none" stroke="black" points="2291.5,-78 2291.5,-99 2339.5,-99 2339.5,-78 2291.5,-78"/>
<text text-anchor="start" x="2294.5" y="-84.8" font-family="Times,serif" font-size="14.00">green</text>
<polygon fill="none" stroke="black" points="2188.5,-57 2188.5,-78 2219.5,-78 2219.5,-57 2188.5,-57"/>
<text text-anchor="start" x="2199" y="-63.8" font-family="Times,serif" font-size="14.00">2</text>
<polygon fill="none" stroke="black" points="2219.5,-57 2219.5,-78 2253.5,-78 2253.5,-57 2219.5,-57"/>
<text text-anchor="start" x="2231.5" y="-63.8" font-family="Times,serif" font-size="14.00">1</text>
<polygon fill="none" stroke="black" points="2253.5,-57 2253.5,-78 2291.5,-78 2291.5,-57 2253.5,-57"/>
<text text-anchor="start" x="2263" y="-63.8" font-family="Times,serif" font-size="14.00">u1</text>
<polygon fill="none" stroke="black" points="2291.5,-57 2291.5,-78 2339.5,-78 2339.5,-57 2291.5,-57"/>
<text text-anchor="start" x="2300" y="-63.8" font-family="Times,serif" font-size="14.00">blue</text>
<polygon fill="none" stroke="black" points="2188.5,-36 2188.5,-57 2219.5,-57 2219.5,-36 2188.5,-36"/>
<text text-anchor="start" x="2199" y="-42.8" font-family="Times,serif" font-size="14.00">3</text>
<polygon fill="none" stroke="black" points="2219.5,-36 2219.5,-57 2253.5,-57 2253.5,-36 2219.5,-36"/>
<text text-anchor="start" x="2231.5" y="-42.8" font-family="Times,serif" font-size="14.00">1</text>
<polygon fill="none" stroke="black" points="2253.5,-36 2253.5,-57 2291.5,-57 2291.5,-36 2253.5,-36"/>
<text text-anchor="start" x="2263" y="-42.8" font-family="Times,serif" font-size="14.00">u1</text>
<polygon fill="none" stroke="black" points="2291.5,-36 2291.5,-57 2339.5,-57 2339.5,-36 2291.5,-36"/>
<text text-anchor="start" x="2295.5" y="-42.8" font-family="Times,serif" font-size="14.00">alpha</text>
</g>
<!-- row__seq_pixels_switch&#45;&gt;pixel_rgba__seq -->
<g id="edge13" class="edge">
<title>row__seq_pixels_switch:case1&#45;&gt;pixel_rgba__seq</title>
<path fill="none" stroke="black" stroke-width="2" d="M2104,-385C2197.46,-385 2105.84,-260.48 2155,-181 2161.16,-171.04 2168.75,-161.61 2177.03,-152.84"/>
<polygon fill="black" stroke="black" stroke-width="2" points="2179.6,-155.22 2184.12,-145.64 2174.61,-150.3 2179.6,-155.22"/>
</g>
<!-- pixel_gray__inst__alpha -->
<g id="node12" class="node">
<title>pixel_gray__inst__alpha</title>
<polygon fill="#e0ffe0" stroke="transparent" points="2425.5,-411 2425.5,-432 2471.5,-432 2471.5,-411 2425.5,-411"/>
<polygon fill="none" stroke="black" points="2425.5,-411 2425.5,-432 2471.5,-432 2471.5,-411 2425.5,-411"/>
<text text-anchor="start" x="2441.5" y="-417.8" font-family="Times,serif" font-size="14.00">id</text>
<polygon fill="#e0ffe0" stroke="transparent" points="2471.5,-411 2471.5,-432 2516.5,-432 2516.5,-411 2471.5,-411"/>
<polygon fill="none" stroke="black" points="2471.5,-411 2471.5,-432 2516.5,-432 2516.5,-411 2471.5,-411"/>
<text text-anchor="start" x="2474.5" y="-417.8" font-family="Times,serif" font-size="14.00">value</text>
<polygon fill="none" stroke="black" points="2425.5,-390 2425.5,-411 2471.5,-411 2471.5,-390 2425.5,-390"/>
<text text-anchor="start" x="2428.5" y="-396.8" font-family="Times,serif" font-size="14.00">alpha</text>
<polygon fill="none" stroke="black" points="2471.5,-390 2471.5,-411 2516.5,-411 2516.5,-390 2471.5,-390"/>
<text text-anchor="start" x="2477.5" y="-396.8" font-family="Times,serif" font-size="14.00">gray</text>
</g>
<!-- pixel_gray__seq&#45;&gt;pixel_gray__inst__alpha -->
<g id="edge16" class="edge">
<title>pixel_gray__seq:gray_type&#45;&gt;pixel_gray__inst__alpha</title>
<path fill="none" stroke="#404040" d="M2335.5,-411C2358.8,-411 2384.38,-411 2406.89,-411"/>
<polygon fill="#404040" stroke="#404040" points="2407,-414.5 2417,-411 2407,-407.5 2407,-414.5"/>
</g>
<!-- pixel_gray__inst__red -->
<g id="node9" class="node">
<title>pixel_gray__inst__red</title>
<polygon fill="#e0ffe0" stroke="transparent" points="2225.5,-354 2225.5,-375 2256.5,-375 2256.5,-354 2225.5,-354"/>
<polygon fill="none" stroke="black" points="2225.5,-354 2225.5,-375 2256.5,-375 2256.5,-354 2225.5,-354"/>
<text text-anchor="start" x="2234" y="-360.8" font-family="Times,serif" font-size="14.00">id</text>
<polygon fill="#e0ffe0" stroke="transparent" points="2256.5,-354 2256.5,-375 2301.5,-375 2301.5,-354 2256.5,-354"/>
<polygon fill="none" stroke="black" points="2256.5,-354 2256.5,-375 2301.5,-375 2301.5,-354 2256.5,-354"/>
<text text-anchor="start" x="2259.5" y="-360.8" font-family="Times,serif" font-size="14.00">value</text>
<polygon fill="none" stroke="black" points="2225.5,-333 2225.5,-354 2256.5,-354 2256.5,-333 2225.5,-333"/>
<text text-anchor="start" x="2228.5" y="-339.8" font-family="Times,serif" font-size="14.00">red</text>
<polygon fill="none" stroke="black" points="2256.5,-333 2256.5,-354 2301.5,-354 2301.5,-333 2256.5,-333"/>
<text text-anchor="start" x="2274" y="-339.8" font-family="Times,serif" font-size="14.00">0</text>
</g>
<!-- pixel_gray__inst__green -->
<g id="node10" class="node">
<title>pixel_gray__inst__green</title>
<polygon fill="#e0ffe0" stroke="transparent" points="2217.5,-286 2217.5,-307 2265.5,-307 2265.5,-286 2217.5,-286"/>
<polygon fill="none" stroke="black" points="2217.5,-286 2217.5,-307 2265.5,-307 2265.5,-286 2217.5,-286"/>
<text text-anchor="start" x="2234.5" y="-292.8" font-family="Times,serif" font-size="14.00">id</text>
<polygon fill="#e0ffe0" stroke="transparent" points="2265.5,-286 2265.5,-307 2310.5,-307 2310.5,-286 2265.5,-286"/>
<polygon fill="none" stroke="black" points="2265.5,-286 2265.5,-307 2310.5,-307 2310.5,-286 2265.5,-286"/>
<text text-anchor="start" x="2268.5" y="-292.8" font-family="Times,serif" font-size="14.00">value</text>
<polygon fill="none" stroke="black" points="2217.5,-265 2217.5,-286 2265.5,-286 2265.5,-265 2217.5,-265"/>
<text text-anchor="start" x="2220.5" y="-271.8" font-family="Times,serif" font-size="14.00">green</text>
<polygon fill="none" stroke="black" points="2265.5,-265 2265.5,-286 2310.5,-286 2310.5,-265 2265.5,-265"/>
<text text-anchor="start" x="2283" y="-271.8" font-family="Times,serif" font-size="14.00">0</text>
</g>
<!-- pixel_gray__inst__blue -->
<g id="node11" class="node">
<title>pixel_gray__inst__blue</title>
<polygon fill="#e0ffe0" stroke="transparent" points="2222.5,-218 2222.5,-239 2259.5,-239 2259.5,-218 2222.5,-218"/>
<polygon fill="none" stroke="black" points="2222.5,-218 2222.5,-239 2259.5,-239 2259.5,-218 2222.5,-218"/>
<text text-anchor="start" x="2234" y="-224.8" font-family="Times,serif" font-size="14.00">id</text>
<polygon fill="#e0ffe0" stroke="transparent" points="2259.5,-218 2259.5,-239 2304.5,-239 2304.5,-218 2259.5,-218"/>
<polygon fill="none" stroke="black" points="2259.5,-218 2259.5,-239 2304.5,-239 2304.5,-218 2259.5,-218"/>
<text text-anchor="start" x="2262.5" y="-224.8" font-family="Times,serif" font-size="14.00">value</text>
<polygon fill="none" stroke="black" points="2222.5,-197 2222.5,-218 2259.5,-218 2259.5,-197 2222.5,-197"/>
<text text-anchor="start" x="2225.5" y="-203.8" font-family="Times,serif" font-size="14.00">blue</text>
<polygon fill="none" stroke="black" points="2259.5,-197 2259.5,-218 2304.5,-218 2304.5,-197 2259.5,-197"/>
<text text-anchor="start" x="2277" y="-203.8" font-family="Times,serif" font-size="14.00">0</text>
</g>
</g>
</svg>
