<?xml version="1.0" encoding="UTF-8" standalone="no"?>
<!DOCTYPE svg PUBLIC "-//W3C//DTD SVG 1.1//EN"
 "http://www.w3.org/Graphics/SVG/1.1/DTD/svg11.dtd">
<!-- Generated by graphviz version 2.43.0 (0)
 -->
<!-- Title: %3 Pages: 1 -->
<svg width="1495pt" height="300pt"
 viewBox="0.00 0.00 1495.00 300.00" xmlns="http://www.w3.org/2000/svg" xmlns:xlink="http://www.w3.org/1999/xlink">
<g id="graph0" class="graph" transform="scale(1 1) rotate(0) translate(4 296)">
<title>%3</title>
<polygon fill="white" stroke="transparent" points="-4,4 -4,-296 1491,-296 1491,4 -4,4"/>
<g id="clust1" class="cluster">
<title>cluster__ico</title>
<polygon fill="none" stroke="black" stroke-dasharray="1,5" points="131,-8 131,-284 1479,-284 1479,-8 131,-8"/>
<text text-anchor="middle" x="805" y="-268.8" font-family="Times,serif" font-size="14.00">Ico</text>
</g>
<g id="clust2" class="cluster">
<title>cluster__icon_dir_entry</title>
<polygon fill="none" stroke="black" stroke-dasharray="1,5" points="444,-16 444,-253 1471,-253 1471,-16 444,-16"/>
<text text-anchor="middle" x="957.5" y="-237.8" font-family="Times,serif" font-size="14.00">Ico::IconDirEntry</text>
</g>
<!-- ico__seq -->
<g id="node1" class="node">
<title>ico__seq</title>
<polygon fill="#e0ffe0" stroke="transparent" points="147.5,-176 147.5,-197 178.5,-197 178.5,-176 147.5,-176"/>
<polygon fill="none" stroke="black" points="147.5,-176 147.5,-197 178.5,-197 178.5,-176 147.5,-176"/>
<text text-anchor="start" x="150.5" y="-182.8" font-family="Times,serif" font-size="14.00">pos</text>
<polygon fill="#e0ffe0" stroke="transparent" points="178.5,-176 178.5,-197 212.5,-197 212.5,-176 178.5,-176"/>
<polygon fill="none" stroke="black" points="178.5,-176 178.5,-197 212.5,-197 212.5,-176 178.5,-176"/>
<text text-anchor="start" x="181.5" y="-182.8" font-family="Times,serif" font-size="14.00">size</text>
<polygon fill="#e0ffe0" stroke="transparent" points="212.5,-176 212.5,-197 312.5,-197 312.5,-176 212.5,-176"/>
<polygon fill="none" stroke="black" points="212.5,-176 212.5,-197 312.5,-197 312.5,-176 212.5,-176"/>
<text text-anchor="start" x="246.5" y="-182.8" font-family="Times,serif" font-size="14.00">type</text>
<polygon fill="#e0ffe0" stroke="transparent" points="312.5,-176 312.5,-197 408.5,-197 408.5,-176 312.5,-176"/>
<polygon fill="none" stroke="black" points="312.5,-176 312.5,-197 408.5,-197 408.5,-176 312.5,-176"/>
<text text-anchor="start" x="353.5" y="-182.8" font-family="Times,serif" font-size="14.00">id</text>
<polygon fill="none" stroke="black" points="147.5,-155 147.5,-176 178.5,-176 178.5,-155 147.5,-155"/>
<text text-anchor="start" x="158" y="-161.8" font-family="Times,serif" font-size="14.00">0</text>
<polygon fill="none" stroke="black" points="178.5,-155 178.5,-176 212.5,-176 212.5,-155 178.5,-155"/>
<text text-anchor="start" x="190.5" y="-161.8" font-family="Times,serif" font-size="14.00">4</text>
<polygon fill="none" stroke="black" points="212.5,-155 212.5,-176 312.5,-176 312.5,-155 212.5,-155"/>
<text text-anchor="start" x="219.5" y="-161.8" font-family="Times,serif" font-size="14.00">00 00 01 00</text>
<polygon fill="none" stroke="black" points="312.5,-155 312.5,-176 408.5,-176 408.5,-155 312.5,-155"/>
<text text-anchor="start" x="339" y="-161.8" font-family="Times,serif" font-size="14.00">magic</text>
<polygon fill="none" stroke="black" points="147.5,-134 147.5,-155 178.5,-155 178.5,-134 147.5,-134"/>
<text text-anchor="start" x="158" y="-140.8" font-family="Times,serif" font-size="14.00">4</text>
<polygon fill="none" stroke="black" points="178.5,-134 178.5,-155 212.5,-155 212.5,-134 178.5,-134"/>
<text text-anchor="start" x="190.5" y="-140.8" font-family="Times,serif" font-size="14.00">2</text>
<polygon fill="none" stroke="black" points="212.5,-134 212.5,-155 312.5,-155 312.5,-134 212.5,-134"/>
<text text-anchor="start" x="247" y="-140.8" font-family="Times,serif" font-size="14.00">u2le</text>
<polygon fill="none" stroke="black" points="312.5,-134 312.5,-155 408.5,-155 408.5,-134 312.5,-134"/>
<text text-anchor="start" x="315.5" y="-140.8" font-family="Times,serif" font-size="14.00">num_images</text>
<polygon fill="none" stroke="black" points="147.5,-113 147.5,-134 178.5,-134 178.5,-113 147.5,-113"/>
<text text-anchor="start" x="158" y="-119.8" font-family="Times,serif" font-size="14.00">6</text>
<polygon fill="none" stroke="black" points="178.5,-113 178.5,-134 212.5,-134 212.5,-113 178.5,-113"/>
<text text-anchor="start" x="186" y="-119.8" font-family="Times,serif" font-size="14.00">16</text>
<polygon fill="none" stroke="black" points="212.5,-113 212.5,-134 312.5,-134 312.5,-113 212.5,-113"/>
<text text-anchor="start" x="215.5" y="-119.8" font-family="Times,serif" font-size="14.00">IconDirEntry</text>
<polygon fill="none" stroke="black" points="312.5,-113 312.5,-134 408.5,-134 408.5,-113 312.5,-113"/>
<text text-anchor="start" x="334.5" y="-119.8" font-family="Times,serif" font-size="14.00">images</text>
<polygon fill="none" stroke="black" points="147.5,-92 147.5,-113 408.5,-113 408.5,-92 147.5,-92"/>
<text text-anchor="start" x="185.5" y="-98.8" font-family="Times,serif" font-size="14.00">repeat num_images times</text>
</g>
<!-- ico__seq&#45;&gt;ico__seq -->
<g id="edge2" class="edge">
<title>ico__seq:num_images_type&#45;&gt;ico__seq:images__repeat</title>
<path fill="none" stroke="#404040" d="M312.3,-147.2C197.92,-152.41 0,-148.78 0,-123 0,-105.29 64.83,-98.03 136.98,-96.91"/>
<polygon fill="#404040" stroke="#404040" points="137.25,-100.41 147.2,-96.8 137.16,-93.41 137.25,-100.41"/>
</g>
<!-- icon_dir_entry__seq -->
<g id="node2" class="node">
<title>icon_dir_entry__seq</title>
<polygon fill="#e0ffe0" stroke="transparent" points="460,-196 460,-217 491,-217 491,-196 460,-196"/>
<polygon fill="none" stroke="black" points="460,-196 460,-217 491,-217 491,-196 460,-196"/>
<text text-anchor="start" x="463" y="-202.8" font-family="Times,serif" font-size="14.00">pos</text>
<polygon fill="#e0ffe0" stroke="transparent" points="491,-196 491,-217 525,-217 525,-196 491,-196"/>
<polygon fill="none" stroke="black" points="491,-196 491,-217 525,-217 525,-196 491,-196"/>
<text text-anchor="start" x="494" y="-202.8" font-family="Times,serif" font-size="14.00">size</text>
<polygon fill="#e0ffe0" stroke="transparent" points="525,-196 525,-217 563,-217 563,-196 525,-196"/>
<polygon fill="none" stroke="black" points="525,-196 525,-217 563,-217 563,-196 525,-196"/>
<text text-anchor="start" x="528" y="-202.8" font-family="Times,serif" font-size="14.00">type</text>
<polygon fill="#e0ffe0" stroke="transparent" points="563,-196 563,-217 654,-217 654,-196 563,-196"/>
<polygon fill="none" stroke="black" points="563,-196 563,-217 654,-217 654,-196 563,-196"/>
<text text-anchor="start" x="601.5" y="-202.8" font-family="Times,serif" font-size="14.00">id</text>
<polygon fill="none" stroke="black" points="460,-175 460,-196 491,-196 491,-175 460,-175"/>
<text text-anchor="start" x="470.5" y="-181.8" font-family="Times,serif" font-size="14.00">0</text>
<polygon fill="none" stroke="black" points="491,-175 491,-196 525,-196 525,-175 491,-175"/>
<text text-anchor="start" x="503" y="-181.8" font-family="Times,serif" font-size="14.00">1</text>
<polygon fill="none" stroke="black" points="525,-175 525,-196 563,-196 563,-175 525,-175"/>
<text text-anchor="start" x="534.5" y="-181.8" font-family="Times,serif" font-size="14.00">u1</text>
<polygon fill="none" stroke="black" points="563,-175 563,-196 654,-196 654,-175 563,-175"/>
<text text-anchor="start" x="588" y="-181.8" font-family="Times,serif" font-size="14.00">width</text>
<polygon fill="none" stroke="black" points="460,-154 460,-175 491,-175 491,-154 460,-154"/>
<text text-anchor="start" x="470.5" y="-160.8" font-family="Times,serif" font-size="14.00">1</text>
<polygon fill="none" stroke="black" points="491,-154 491,-175 525,-175 525,-154 491,-154"/>
<text text-anchor="start" x="503" y="-160.8" font-family="Times,serif" font-size="14.00">1</text>
<polygon fill="none" stroke="black" points="525,-154 525,-175 563,-175 563,-154 525,-154"/>
<text text-anchor="start" x="534.5" y="-160.8" font-family="Times,serif" font-size="14.00">u1</text>
<polygon fill="none" stroke="black" points="563,-154 563,-175 654,-175 654,-154 563,-154"/>
<text text-anchor="start" x="585.5" y="-160.8" font-family="Times,serif" font-size="14.00">height</text>
<polygon fill="none" stroke="black" points="460,-133 460,-154 491,-154 491,-133 460,-133"/>
<text text-anchor="start" x="470.5" y="-139.8" font-family="Times,serif" font-size="14.00">2</text>
<polygon fill="none" stroke="black" points="491,-133 491,-154 525,-154 525,-133 491,-133"/>
<text text-anchor="start" x="503" y="-139.8" font-family="Times,serif" font-size="14.00">1</text>
<polygon fill="none" stroke="black" points="525,-133 525,-154 563,-154 563,-133 525,-133"/>
<text text-anchor="start" x="534.5" y="-139.8" font-family="Times,serif" font-size="14.00">u1</text>
<polygon fill="none" stroke="black" points="563,-133 563,-154 654,-154 654,-133 563,-133"/>
<text text-anchor="start" x="567.5" y="-139.8" font-family="Times,serif" font-size="14.00">num_colors</text>
<polygon fill="none" stroke="black" points="460,-112 460,-133 491,-133 491,-112 460,-112"/>
<text text-anchor="start" x="470.5" y="-118.8" font-family="Times,serif" font-size="14.00">3</text>
<polygon fill="none" stroke="black" points="491,-112 491,-133 525,-133 525,-112 491,-112"/>
<text text-anchor="start" x="503" y="-118.8" font-family="Times,serif" font-size="14.00">1</text>
<polygon fill="none" stroke="black" points="525,-112 525,-133 563,-133 563,-112 525,-112"/>
<text text-anchor="start" x="534.5" y="-118.8" font-family="Times,serif" font-size="14.00">00</text>
<polygon fill="none" stroke="black" points="563,-112 563,-133 654,-133 654,-112 563,-112"/>
<text text-anchor="start" x="576.5" y="-118.8" font-family="Times,serif" font-size="14.00">reserved</text>
<polygon fill="none" stroke="black" points="460,-91 460,-112 491,-112 491,-91 460,-91"/>
<text text-anchor="start" x="470.5" y="-97.8" font-family="Times,serif" font-size="14.00">4</text>
<polygon fill="none" stroke="black" points="491,-91 491,-112 525,-112 525,-91 491,-91"/>
<text text-anchor="start" x="503" y="-97.8" font-family="Times,serif" font-size="14.00">2</text>
<polygon fill="none" stroke="black" points="525,-91 525,-112 563,-112 563,-91 525,-91"/>
<text text-anchor="start" x="528.5" y="-97.8" font-family="Times,serif" font-size="14.00">u2le</text>
<polygon fill="none" stroke="black" points="563,-91 563,-112 654,-112 654,-91 563,-91"/>
<text text-anchor="start" x="566" y="-97.8" font-family="Times,serif" font-size="14.00">num_planes</text>
<polygon fill="none" stroke="black" points="460,-70 460,-91 491,-91 491,-70 460,-70"/>
<text text-anchor="start" x="470.5" y="-76.8" font-family="Times,serif" font-size="14.00">6</text>
<polygon fill="none" stroke="black" points="491,-70 491,-91 525,-91 525,-70 491,-70"/>
<text text-anchor="start" x="503" y="-76.8" font-family="Times,serif" font-size="14.00">2</text>
<polygon fill="none" stroke="black" points="525,-70 525,-91 563,-91 563,-70 525,-70"/>
<text text-anchor="start" x="528.5" y="-76.8" font-family="Times,serif" font-size="14.00">u2le</text>
<polygon fill="none" stroke="black" points="563,-70 563,-91 654,-91 654,-70 563,-70"/>
<text text-anchor="start" x="594.5" y="-76.8" font-family="Times,serif" font-size="14.00">bpp</text>
<polygon fill="none" stroke="black" points="460,-49 460,-70 491,-70 491,-49 460,-49"/>
<text text-anchor="start" x="470.5" y="-55.8" font-family="Times,serif" font-size="14.00">8</text>
<polygon fill="none" stroke="black" points="491,-49 491,-70 525,-70 525,-49 491,-49"/>
<text text-anchor="start" x="503" y="-55.8" font-family="Times,serif" font-size="14.00">4</text>
<polygon fill="none" stroke="black" points="525,-49 525,-70 563,-70 563,-49 525,-49"/>
<text text-anchor="start" x="528.5" y="-55.8" font-family="Times,serif" font-size="14.00">u4le</text>
<polygon fill="none" stroke="black" points="563,-49 563,-70 654,-70 654,-49 563,-49"/>
<text text-anchor="start" x="580.5" y="-55.8" font-family="Times,serif" font-size="14.00">len_img</text>
<polygon fill="none" stroke="black" points="460,-28 460,-49 491,-49 491,-28 460,-28"/>
<text text-anchor="start" x="466" y="-34.8" font-family="Times,serif" font-size="14.00">12</text>
<polygon fill="none" stroke="black" points="491,-28 491,-49 525,-49 525,-28 491,-28"/>
<text text-anchor="start" x="503" y="-34.8" font-family="Times,serif" font-size="14.00">4</text>
<polygon fill="none" stroke="black" points="525,-28 525,-49 563,-49 563,-28 525,-28"/>
<text text-anchor="start" x="528.5" y="-34.8" font-family="Times,serif" font-size="14.00">u4le</text>
<polygon fill="none" stroke="black" points="563,-28 563,-49 654,-49 654,-28 563,-28"/>
<text text-anchor="start" x="581" y="-34.8" font-family="Times,serif" font-size="14.00">ofs_img</text>
</g>
<!-- ico__seq&#45;&gt;icon_dir_entry__seq -->
<g id="edge1" class="edge">
<title>ico__seq:images_type&#45;&gt;icon_dir_entry__seq</title>
<path fill="none" stroke="black" stroke-width="2" d="M409.5,-123C420.02,-123 430.96,-123 441.91,-123"/>
<polygon fill="black" stroke="black" stroke-width="2" points="441.96,-126.5 451.96,-123 441.96,-119.5 441.96,-126.5"/>
</g>
<!-- icon_dir_entry__inst__img -->
<g id="node3" class="node">
<title>icon_dir_entry__inst__img</title>
<polygon fill="#e0ffe0" stroke="transparent" points="720.5,-117 720.5,-138 781.5,-138 781.5,-117 720.5,-117"/>
<polygon fill="none" stroke="black" points="720.5,-117 720.5,-138 781.5,-138 781.5,-117 720.5,-117"/>
<text text-anchor="start" x="738.5" y="-123.8" font-family="Times,serif" font-size="14.00">pos</text>
<polygon fill="#e0ffe0" stroke="transparent" points="781.5,-117 781.5,-138 843.5,-138 843.5,-117 781.5,-117"/>
<polygon fill="none" stroke="black" points="781.5,-117 781.5,-138 843.5,-138 843.5,-117 781.5,-117"/>
<text text-anchor="start" x="798.5" y="-123.8" font-family="Times,serif" font-size="14.00">size</text>
<polygon fill="#e0ffe0" stroke="transparent" points="843.5,-117 843.5,-138 881.5,-138 881.5,-117 843.5,-117"/>
<polygon fill="none" stroke="black" points="843.5,-117 843.5,-138 881.5,-138 881.5,-117 843.5,-117"/>
<text text-anchor="start" x="846.5" y="-123.8" font-family="Times,serif" font-size="14.00">type</text>
<polygon fill="#e0ffe0" stroke="transparent" points="881.5,-117 881.5,-138 915.5,-138 915.5,-117 881.5,-117"/>
<polygon fill="none" stroke="black" points="881.5,-117 881.5,-138 915.5,-138 915.5,-117 881.5,-117"/>
<text text-anchor="start" x="891.5" y="-123.8" font-family="Times,serif" font-size="14.00">id</text>
<polygon fill="none" stroke="black" points="720.5,-96 720.5,-117 781.5,-117 781.5,-96 720.5,-96"/>
<text text-anchor="start" x="723.5" y="-102.8" font-family="Times,serif" font-size="14.00">ofs_img</text>
<polygon fill="none" stroke="black" points="781.5,-96 781.5,-117 843.5,-117 843.5,-96 781.5,-96"/>
<text text-anchor="start" x="784.5" y="-102.8" font-family="Times,serif" font-size="14.00">len_img</text>
<polygon fill="none" stroke="black" points="843.5,-96 843.5,-117 881.5,-117 881.5,-96 843.5,-96"/>
<polygon fill="none" stroke="black" points="881.5,-96 881.5,-117 915.5,-117 915.5,-96 881.5,-96"/>
<text text-anchor="start" x="884.5" y="-102.8" font-family="Times,serif" font-size="14.00">img</text>
</g>
<!-- icon_dir_entry__seq&#45;&gt;icon_dir_entry__inst__img -->
<g id="edge3" class="edge">
<title>icon_dir_entry__seq:ofs_img_type&#45;&gt;icon_dir_entry__inst__img:img_pos</title>
<path fill="none" stroke="#404040" d="M655,-38C692.75,-38 680.84,-93.85 709.28,-104.32"/>
<polygon fill="#404040" stroke="#404040" points="709.06,-107.83 719.5,-106 710.2,-100.92 709.06,-107.83"/>
</g>
<!-- icon_dir_entry__seq&#45;&gt;icon_dir_entry__inst__img -->
<g id="edge4" class="edge">
<title>icon_dir_entry__seq:len_img_type&#45;&gt;icon_dir_entry__inst__img:img_size</title>
<path fill="none" stroke="#404040" d="M655,-59C676.89,-59 677.14,-76.39 698,-83 708,-86.17 778.64,-83.61 803.71,-89.64"/>
<polygon fill="#404040" stroke="#404040" points="802.14,-92.79 812.5,-95 805.78,-86.81 802.14,-92.79"/>
</g>
<!-- icon_dir_entry__inst__png_header -->
<g id="node5" class="node">
<title>icon_dir_entry__inst__png_header</title>
<polygon fill="#e0ffe0" stroke="transparent" points="706.5,-49 706.5,-70 767.5,-70 767.5,-49 706.5,-49"/>
<polygon fill="none" stroke="black" points="706.5,-49 706.5,-70 767.5,-70 767.5,-49 706.5,-49"/>
<text text-anchor="start" x="724.5" y="-55.8" font-family="Times,serif" font-size="14.00">pos</text>
<polygon fill="#e0ffe0" stroke="transparent" points="767.5,-49 767.5,-70 801.5,-70 801.5,-49 767.5,-49"/>
<polygon fill="none" stroke="black" points="767.5,-49 767.5,-70 801.5,-70 801.5,-49 767.5,-49"/>
<text text-anchor="start" x="770.5" y="-55.8" font-family="Times,serif" font-size="14.00">size</text>
<polygon fill="#e0ffe0" stroke="transparent" points="801.5,-49 801.5,-70 839.5,-70 839.5,-49 801.5,-49"/>
<polygon fill="none" stroke="black" points="801.5,-49 801.5,-70 839.5,-70 839.5,-49 801.5,-49"/>
<text text-anchor="start" x="804.5" y="-55.8" font-family="Times,serif" font-size="14.00">type</text>
<polygon fill="#e0ffe0" stroke="transparent" points="839.5,-49 839.5,-70 929.5,-70 929.5,-49 839.5,-49"/>
<polygon fill="none" stroke="black" points="839.5,-49 839.5,-70 929.5,-70 929.5,-49 839.5,-49"/>
<text text-anchor="start" x="877.5" y="-55.8" font-family="Times,serif" font-size="14.00">id</text>
<polygon fill="none" stroke="black" points="706.5,-28 706.5,-49 767.5,-49 767.5,-28 706.5,-28"/>
<text text-anchor="start" x="709.5" y="-34.8" font-family="Times,serif" font-size="14.00">ofs_img</text>
<polygon fill="none" stroke="black" points="767.5,-28 767.5,-49 801.5,-49 801.5,-28 767.5,-28"/>
<text text-anchor="start" x="779.5" y="-34.8" font-family="Times,serif" font-size="14.00">8</text>
<polygon fill="none" stroke="black" points="801.5,-28 801.5,-49 839.5,-49 839.5,-28 801.5,-28"/>
<polygon fill="none" stroke="black" points="839.5,-28 839.5,-49 929.5,-49 929.5,-28 839.5,-28"/>
<text text-anchor="start" x="842.5" y="-34.8" font-family="Times,serif" font-size="14.00">png_header</text>
</g>
<!-- icon_dir_entry__seq&#45;&gt;icon_dir_entry__inst__png_header -->
<g id="edge6" class="edge">
<title>icon_dir_entry__seq:ofs_img_type&#45;&gt;icon_dir_entry__inst__png_header:png_header_pos</title>
<path fill="none" stroke="#404040" d="M655,-38C673.59,-38 680.63,-38 695.25,-38"/>
<polygon fill="#404040" stroke="#404040" points="695.5,-41.5 705.5,-38 695.5,-34.5 695.5,-41.5"/>
</g>
<!-- icon_dir_entry__inst__is_png -->
<g id="node4" class="node">
<title>icon_dir_entry__inst__is_png</title>
<polygon fill="#e0ffe0" stroke="transparent" points="981,-49 981,-70 1033,-70 1033,-49 981,-49"/>
<polygon fill="none" stroke="black" points="981,-49 981,-70 1033,-70 1033,-49 981,-49"/>
<text text-anchor="start" x="1000" y="-55.8" font-family="Times,serif" font-size="14.00">id</text>
<polygon fill="#e0ffe0" stroke="transparent" points="1033,-49 1033,-70 1455,-70 1455,-49 1033,-49"/>
<polygon fill="none" stroke="black" points="1033,-49 1033,-70 1455,-70 1455,-49 1033,-49"/>
<text text-anchor="start" x="1224.5" y="-55.8" font-family="Times,serif" font-size="14.00">value</text>
<polygon fill="none" stroke="black" points="981,-28 981,-49 1033,-49 1033,-28 981,-28"/>
<text text-anchor="start" x="984" y="-34.8" font-family="Times,serif" font-size="14.00">is_png</text>
<polygon fill="none" stroke="black" points="1033,-28 1033,-49 1455,-49 1455,-28 1033,-28"/>
<text text-anchor="start" x="1036" y="-34.8" font-family="Times,serif" font-size="14.00">png_header == [137, 80, 78, 71, 13, 10, 26, 10].pack(&#39;C*&#39;)</text>
</g>
<!-- icon_dir_entry__inst__png_header&#45;&gt;icon_dir_entry__inst__is_png -->
<g id="edge5" class="edge">
<title>icon_dir_entry__inst__png_header:png_header_type&#45;&gt;icon_dir_entry__inst__is_png</title>
<path fill="none" stroke="#404040" d="M930.5,-38C941.08,-38 951.87,-38.08 962.77,-38.21"/>
<polygon fill="#404040" stroke="#404040" points="962.76,-41.71 972.81,-38.36 962.86,-34.72 962.76,-41.71"/>
</g>
</g>
</svg>
