<?xml version="1.0" encoding="UTF-8" standalone="no"?>
<!DOCTYPE svg PUBLIC "-//W3C//DTD SVG 1.1//EN"
 "http://www.w3.org/Graphics/SVG/1.1/DTD/svg11.dtd">
<!-- Generated by graphviz version 2.38.0 (20140413.2041)
 -->
<!-- Title: %3 Pages: 1 -->
<svg width="1257pt" height="527pt"
 viewBox="0.00 0.00 1257.00 526.92" xmlns="http://www.w3.org/2000/svg" xmlns:xlink="http://www.w3.org/1999/xlink">
<g id="graph0" class="graph" transform="scale(1 1) rotate(0) translate(4 522.916)">
<title>%3</title>
<polygon fill="white" stroke="none" points="-4,4 -4,-522.916 1253,-522.916 1253,4 -4,4"/>
<g id="clust1" class="cluster"><title>cluster__vmware_vmdk</title>
<polygon fill="none" stroke="black" stroke-dasharray="1,5" points="8,-18.9155 8,-510.916 1241,-510.916 1241,-18.9155 8,-18.9155"/>
<text text-anchor="middle" x="624.5" y="-495.716" font-family="Times,serif" font-size="14.00">VmwareVmdk</text>
</g>
<g id="clust2" class="cluster"><title>cluster__header_flags</title>
<polygon fill="none" stroke="black" stroke-dasharray="1,5" points="678.5,-222.916 678.5,-479.916 1076.5,-479.916 1076.5,-222.916 678.5,-222.916"/>
<text text-anchor="middle" x="877.5" y="-464.716" font-family="Times,serif" font-size="14.00">VmwareVmdk::HeaderFlags</text>
</g>
<!-- vmware_vmdk__seq -->
<g id="node1" class="node"><title>vmware_vmdk__seq</title>
<polygon fill="#e0ffe0" stroke="none" points="24,-392.916 24,-413.916 55,-413.916 55,-392.916 24,-392.916"/>
<polygon fill="none" stroke="black" points="24,-392.916 24,-413.916 55,-413.916 55,-392.916 24,-392.916"/>
<text text-anchor="start" x="27" y="-399.716" font-family="Times,serif" font-size="14.00">pos</text>
<polygon fill="#e0ffe0" stroke="none" points="55,-392.916 55,-413.916 89,-413.916 89,-392.916 55,-392.916"/>
<polygon fill="none" stroke="black" points="55,-392.916 55,-413.916 89,-413.916 89,-392.916 55,-392.916"/>
<text text-anchor="start" x="58" y="-399.716" font-family="Times,serif" font-size="14.00">size</text>
<polygon fill="#e0ffe0" stroke="none" points="89,-392.916 89,-413.916 294,-413.916 294,-392.916 89,-392.916"/>
<polygon fill="none" stroke="black" points="89,-392.916 89,-413.916 294,-413.916 294,-392.916 89,-392.916"/>
<text text-anchor="start" x="175.5" y="-399.716" font-family="Times,serif" font-size="14.00">type</text>
<polygon fill="#e0ffe0" stroke="none" points="294,-392.916 294,-413.916 478,-413.916 478,-392.916 294,-392.916"/>
<polygon fill="none" stroke="black" points="294,-392.916 294,-413.916 478,-413.916 478,-392.916 294,-392.916"/>
<text text-anchor="start" x="379" y="-399.716" font-family="Times,serif" font-size="14.00">id</text>
<polygon fill="none" stroke="black" points="24,-371.916 24,-392.916 55,-392.916 55,-371.916 24,-371.916"/>
<text text-anchor="start" x="34.5" y="-378.716" font-family="Times,serif" font-size="14.00">0</text>
<polygon fill="none" stroke="black" points="55,-371.916 55,-392.916 89,-392.916 89,-371.916 55,-371.916"/>
<text text-anchor="start" x="67" y="-378.716" font-family="Times,serif" font-size="14.00">4</text>
<polygon fill="none" stroke="black" points="89,-371.916 89,-392.916 294,-392.916 294,-371.916 89,-371.916"/>
<text text-anchor="start" x="146.5" y="-378.716" font-family="Times,serif" font-size="14.00">4B 44 4D 56</text>
<polygon fill="none" stroke="black" points="294,-371.916 294,-392.916 478,-392.916 478,-371.916 294,-371.916"/>
<text text-anchor="start" x="364" y="-378.716" font-family="Times,serif" font-size="14.00">magic</text>
<polygon fill="none" stroke="black" points="24,-350.916 24,-371.916 55,-371.916 55,-350.916 24,-350.916"/>
<text text-anchor="start" x="34.5" y="-357.716" font-family="Times,serif" font-size="14.00">4</text>
<polygon fill="none" stroke="black" points="55,-350.916 55,-371.916 89,-371.916 89,-350.916 55,-350.916"/>
<text text-anchor="start" x="67" y="-357.716" font-family="Times,serif" font-size="14.00">4</text>
<polygon fill="none" stroke="black" points="89,-350.916 89,-371.916 294,-371.916 294,-350.916 89,-350.916"/>
<text text-anchor="start" x="176.5" y="-357.716" font-family="Times,serif" font-size="14.00">s4le</text>
<polygon fill="none" stroke="black" points="294,-350.916 294,-371.916 478,-371.916 478,-350.916 294,-350.916"/>
<text text-anchor="start" x="359.5" y="-357.716" font-family="Times,serif" font-size="14.00">version</text>
<polygon fill="none" stroke="black" points="24,-329.916 24,-350.916 55,-350.916 55,-329.916 24,-329.916"/>
<text text-anchor="start" x="34.5" y="-336.716" font-family="Times,serif" font-size="14.00">8</text>
<polygon fill="none" stroke="black" points="55,-329.916 55,-350.916 89,-350.916 89,-329.916 55,-329.916"/>
<text text-anchor="start" x="67" y="-336.716" font-family="Times,serif" font-size="14.00">4</text>
<polygon fill="none" stroke="black" points="89,-329.916 89,-350.916 294,-350.916 294,-329.916 89,-329.916"/>
<text text-anchor="start" x="145" y="-336.716" font-family="Times,serif" font-size="14.00">HeaderFlags</text>
<polygon fill="none" stroke="black" points="294,-329.916 294,-350.916 478,-350.916 478,-329.916 294,-329.916"/>
<text text-anchor="start" x="368.5" y="-336.716" font-family="Times,serif" font-size="14.00">flags</text>
<polygon fill="none" stroke="black" points="24,-308.916 24,-329.916 55,-329.916 55,-308.916 24,-308.916"/>
<text text-anchor="start" x="30" y="-315.716" font-family="Times,serif" font-size="14.00">12</text>
<polygon fill="none" stroke="black" points="55,-308.916 55,-329.916 89,-329.916 89,-308.916 55,-308.916"/>
<text text-anchor="start" x="67" y="-315.716" font-family="Times,serif" font-size="14.00">8</text>
<polygon fill="none" stroke="black" points="89,-308.916 89,-329.916 294,-329.916 294,-308.916 89,-308.916"/>
<text text-anchor="start" x="176.5" y="-315.716" font-family="Times,serif" font-size="14.00">s8le</text>
<polygon fill="none" stroke="black" points="294,-308.916 294,-329.916 478,-329.916 478,-308.916 294,-308.916"/>
<text text-anchor="start" x="353" y="-315.716" font-family="Times,serif" font-size="14.00">size_max</text>
<polygon fill="none" stroke="black" points="24,-287.916 24,-308.916 55,-308.916 55,-287.916 24,-287.916"/>
<text text-anchor="start" x="30" y="-294.716" font-family="Times,serif" font-size="14.00">20</text>
<polygon fill="none" stroke="black" points="55,-287.916 55,-308.916 89,-308.916 89,-287.916 55,-287.916"/>
<text text-anchor="start" x="67" y="-294.716" font-family="Times,serif" font-size="14.00">8</text>
<polygon fill="none" stroke="black" points="89,-287.916 89,-308.916 294,-308.916 294,-287.916 89,-287.916"/>
<text text-anchor="start" x="176.5" y="-294.716" font-family="Times,serif" font-size="14.00">s8le</text>
<polygon fill="none" stroke="black" points="294,-287.916 294,-308.916 478,-308.916 478,-287.916 294,-287.916"/>
<text text-anchor="start" x="349.5" y="-294.716" font-family="Times,serif" font-size="14.00">size_grain</text>
<polygon fill="none" stroke="black" points="24,-266.916 24,-287.916 55,-287.916 55,-266.916 24,-266.916"/>
<text text-anchor="start" x="30" y="-273.716" font-family="Times,serif" font-size="14.00">28</text>
<polygon fill="none" stroke="black" points="55,-266.916 55,-287.916 89,-287.916 89,-266.916 55,-266.916"/>
<text text-anchor="start" x="67" y="-273.716" font-family="Times,serif" font-size="14.00">8</text>
<polygon fill="none" stroke="black" points="89,-266.916 89,-287.916 294,-287.916 294,-266.916 89,-266.916"/>
<text text-anchor="start" x="176.5" y="-273.716" font-family="Times,serif" font-size="14.00">s8le</text>
<polygon fill="none" stroke="black" points="294,-266.916 294,-287.916 478,-287.916 478,-266.916 294,-266.916"/>
<text text-anchor="start" x="327.5" y="-273.716" font-family="Times,serif" font-size="14.00">start_descriptor</text>
<polygon fill="none" stroke="black" points="24,-245.916 24,-266.916 55,-266.916 55,-245.916 24,-245.916"/>
<text text-anchor="start" x="30" y="-252.716" font-family="Times,serif" font-size="14.00">36</text>
<polygon fill="none" stroke="black" points="55,-245.916 55,-266.916 89,-266.916 89,-245.916 55,-245.916"/>
<text text-anchor="start" x="67" y="-252.716" font-family="Times,serif" font-size="14.00">8</text>
<polygon fill="none" stroke="black" points="89,-245.916 89,-266.916 294,-266.916 294,-245.916 89,-245.916"/>
<text text-anchor="start" x="176.5" y="-252.716" font-family="Times,serif" font-size="14.00">s8le</text>
<polygon fill="none" stroke="black" points="294,-245.916 294,-266.916 478,-266.916 478,-245.916 294,-245.916"/>
<text text-anchor="start" x="331" y="-252.716" font-family="Times,serif" font-size="14.00">size_descriptor</text>
<polygon fill="none" stroke="black" points="24,-224.916 24,-245.916 55,-245.916 55,-224.916 24,-224.916"/>
<text text-anchor="start" x="30" y="-231.716" font-family="Times,serif" font-size="14.00">44</text>
<polygon fill="none" stroke="black" points="55,-224.916 55,-245.916 89,-245.916 89,-224.916 55,-224.916"/>
<text text-anchor="start" x="67" y="-231.716" font-family="Times,serif" font-size="14.00">4</text>
<polygon fill="none" stroke="black" points="89,-224.916 89,-245.916 294,-245.916 294,-224.916 89,-224.916"/>
<text text-anchor="start" x="176.5" y="-231.716" font-family="Times,serif" font-size="14.00">s4le</text>
<polygon fill="none" stroke="black" points="294,-224.916 294,-245.916 478,-245.916 478,-224.916 294,-224.916"/>
<text text-anchor="start" x="297" y="-231.716" font-family="Times,serif" font-size="14.00">num_grain_table_entries</text>
<polygon fill="none" stroke="black" points="24,-203.916 24,-224.916 55,-224.916 55,-203.916 24,-203.916"/>
<text text-anchor="start" x="30" y="-210.716" font-family="Times,serif" font-size="14.00">48</text>
<polygon fill="none" stroke="black" points="55,-203.916 55,-224.916 89,-224.916 89,-203.916 55,-203.916"/>
<text text-anchor="start" x="67" y="-210.716" font-family="Times,serif" font-size="14.00">8</text>
<polygon fill="none" stroke="black" points="89,-203.916 89,-224.916 294,-224.916 294,-203.916 89,-203.916"/>
<text text-anchor="start" x="176.5" y="-210.716" font-family="Times,serif" font-size="14.00">s8le</text>
<polygon fill="none" stroke="black" points="294,-203.916 294,-224.916 478,-224.916 478,-203.916 294,-203.916"/>
<text text-anchor="start" x="305.5" y="-210.716" font-family="Times,serif" font-size="14.00">start_secondary_grain</text>
<polygon fill="none" stroke="black" points="24,-182.916 24,-203.916 55,-203.916 55,-182.916 24,-182.916"/>
<text text-anchor="start" x="30" y="-189.716" font-family="Times,serif" font-size="14.00">56</text>
<polygon fill="none" stroke="black" points="55,-182.916 55,-203.916 89,-203.916 89,-182.916 55,-182.916"/>
<text text-anchor="start" x="67" y="-189.716" font-family="Times,serif" font-size="14.00">8</text>
<polygon fill="none" stroke="black" points="89,-182.916 89,-203.916 294,-203.916 294,-182.916 89,-182.916"/>
<text text-anchor="start" x="176.5" y="-189.716" font-family="Times,serif" font-size="14.00">s8le</text>
<polygon fill="none" stroke="black" points="294,-182.916 294,-203.916 478,-203.916 478,-182.916 294,-182.916"/>
<text text-anchor="start" x="313.5" y="-189.716" font-family="Times,serif" font-size="14.00">start_primary_grain</text>
<polygon fill="none" stroke="black" points="24,-161.916 24,-182.916 55,-182.916 55,-161.916 24,-161.916"/>
<text text-anchor="start" x="30" y="-168.716" font-family="Times,serif" font-size="14.00">64</text>
<polygon fill="none" stroke="black" points="55,-161.916 55,-182.916 89,-182.916 89,-161.916 55,-161.916"/>
<text text-anchor="start" x="67" y="-168.716" font-family="Times,serif" font-size="14.00">8</text>
<polygon fill="none" stroke="black" points="89,-161.916 89,-182.916 294,-182.916 294,-161.916 89,-161.916"/>
<text text-anchor="start" x="176.5" y="-168.716" font-family="Times,serif" font-size="14.00">s8le</text>
<polygon fill="none" stroke="black" points="294,-161.916 294,-182.916 478,-182.916 478,-161.916 294,-161.916"/>
<text text-anchor="start" x="334.5" y="-168.716" font-family="Times,serif" font-size="14.00">size_metadata</text>
<polygon fill="none" stroke="black" points="24,-140.916 24,-161.916 55,-161.916 55,-140.916 24,-140.916"/>
<text text-anchor="start" x="30" y="-147.716" font-family="Times,serif" font-size="14.00">72</text>
<polygon fill="none" stroke="black" points="55,-140.916 55,-161.916 89,-161.916 89,-140.916 55,-140.916"/>
<text text-anchor="start" x="67" y="-147.716" font-family="Times,serif" font-size="14.00">1</text>
<polygon fill="none" stroke="black" points="89,-140.916 89,-161.916 294,-161.916 294,-140.916 89,-140.916"/>
<text text-anchor="start" x="182" y="-147.716" font-family="Times,serif" font-size="14.00">u1</text>
<polygon fill="none" stroke="black" points="294,-140.916 294,-161.916 478,-161.916 478,-140.916 294,-140.916"/>
<text text-anchor="start" x="358.5" y="-147.716" font-family="Times,serif" font-size="14.00">is_dirty</text>
<polygon fill="none" stroke="black" points="24,-119.916 24,-140.916 55,-140.916 55,-119.916 24,-119.916"/>
<text text-anchor="start" x="30" y="-126.716" font-family="Times,serif" font-size="14.00">73</text>
<polygon fill="none" stroke="black" points="55,-119.916 55,-140.916 89,-140.916 89,-119.916 55,-119.916"/>
<text text-anchor="start" x="67" y="-126.716" font-family="Times,serif" font-size="14.00">4</text>
<polygon fill="none" stroke="black" points="89,-119.916 89,-140.916 294,-140.916 294,-119.916 89,-119.916"/>
<polygon fill="none" stroke="black" points="294,-119.916 294,-140.916 478,-140.916 478,-119.916 294,-119.916"/>
<text text-anchor="start" x="369" y="-126.716" font-family="Times,serif" font-size="14.00">stuff</text>
<polygon fill="none" stroke="black" points="24,-98.9155 24,-119.916 55,-119.916 55,-98.9155 24,-98.9155"/>
<text text-anchor="start" x="30" y="-105.716" font-family="Times,serif" font-size="14.00">77</text>
<polygon fill="none" stroke="black" points="55,-98.9155 55,-119.916 89,-119.916 89,-98.9155 55,-98.9155"/>
<text text-anchor="start" x="67" y="-105.716" font-family="Times,serif" font-size="14.00">2</text>
<polygon fill="none" stroke="black" points="89,-98.9155 89,-119.916 294,-119.916 294,-98.9155 89,-98.9155"/>
<text text-anchor="start" x="92" y="-105.716" font-family="Times,serif" font-size="14.00">u2le→CompressionMethods</text>
<polygon fill="none" stroke="black" points="294,-98.9155 294,-119.916 478,-119.916 478,-98.9155 294,-98.9155"/>
<text text-anchor="start" x="309.5" y="-105.716" font-family="Times,serif" font-size="14.00">compression_method</text>
</g>
<!-- vmware_vmdk__inst__descriptor -->
<g id="node3" class="node"><title>vmware_vmdk__inst__descriptor</title>
<polygon fill="#e0ffe0" stroke="none" points="556.5,-51.9155 556.5,-72.9155 821.5,-72.9155 821.5,-51.9155 556.5,-51.9155"/>
<polygon fill="none" stroke="black" points="556.5,-51.9155 556.5,-72.9155 821.5,-72.9155 821.5,-51.9155 556.5,-51.9155"/>
<text text-anchor="start" x="676.5" y="-58.7155" font-family="Times,serif" font-size="14.00">pos</text>
<polygon fill="#e0ffe0" stroke="none" points="821.5,-51.9155 821.5,-72.9155 1080.5,-72.9155 1080.5,-51.9155 821.5,-51.9155"/>
<polygon fill="none" stroke="black" points="821.5,-51.9155 821.5,-72.9155 1080.5,-72.9155 1080.5,-51.9155 821.5,-51.9155"/>
<text text-anchor="start" x="937" y="-58.7155" font-family="Times,serif" font-size="14.00">size</text>
<polygon fill="#e0ffe0" stroke="none" points="1080.5,-51.9155 1080.5,-72.9155 1118.5,-72.9155 1118.5,-51.9155 1080.5,-51.9155"/>
<polygon fill="none" stroke="black" points="1080.5,-51.9155 1080.5,-72.9155 1118.5,-72.9155 1118.5,-51.9155 1080.5,-51.9155"/>
<text text-anchor="start" x="1083.5" y="-58.7155" font-family="Times,serif" font-size="14.00">type</text>
<polygon fill="#e0ffe0" stroke="none" points="1118.5,-51.9155 1118.5,-72.9155 1199.5,-72.9155 1199.5,-51.9155 1118.5,-51.9155"/>
<polygon fill="none" stroke="black" points="1118.5,-51.9155 1118.5,-72.9155 1199.5,-72.9155 1199.5,-51.9155 1118.5,-51.9155"/>
<text text-anchor="start" x="1152" y="-58.7155" font-family="Times,serif" font-size="14.00">id</text>
<polygon fill="none" stroke="black" points="556.5,-30.9155 556.5,-51.9155 821.5,-51.9155 821.5,-30.9155 556.5,-30.9155"/>
<text text-anchor="start" x="559.5" y="-37.7155" font-family="Times,serif" font-size="14.00">(start_descriptor * _root.len_sector)</text>
<polygon fill="none" stroke="black" points="821.5,-30.9155 821.5,-51.9155 1080.5,-51.9155 1080.5,-30.9155 821.5,-30.9155"/>
<text text-anchor="start" x="824.5" y="-37.7155" font-family="Times,serif" font-size="14.00">(size_descriptor * _root.len_sector)</text>
<polygon fill="none" stroke="black" points="1080.5,-30.9155 1080.5,-51.9155 1118.5,-51.9155 1118.5,-30.9155 1080.5,-30.9155"/>
<polygon fill="none" stroke="black" points="1118.5,-30.9155 1118.5,-51.9155 1199.5,-51.9155 1199.5,-30.9155 1118.5,-30.9155"/>
<text text-anchor="start" x="1121.5" y="-37.7155" font-family="Times,serif" font-size="14.00">descriptor</text>
</g>
<!-- vmware_vmdk__seq&#45;&gt;vmware_vmdk__inst__descriptor -->
<g id="edge2" class="edge"><title>vmware_vmdk__seq:start_descriptor_type&#45;&gt;vmware_vmdk__inst__descriptor:descriptor_pos</title>
<path fill="none" stroke="#404040" d="M479,-277.916C566.447,-277.916 485.536,-165.397 522,-85.9155 530.691,-66.9712 530.838,-48.2538 545.217,-42.6221"/>
<polygon fill="#404040" stroke="#404040" points="546.208,-46.0056 555.5,-40.9155 545.062,-39.1 546.208,-46.0056"/>
</g>
<!-- vmware_vmdk__seq&#45;&gt;vmware_vmdk__inst__descriptor -->
<g id="edge4" class="edge"><title>vmware_vmdk__seq:size_descriptor_type&#45;&gt;vmware_vmdk__inst__descriptor:descriptor_size</title>
<path fill="none" stroke="#404040" d="M479,-255.916C556.935,-255.916 495.667,-159.267 522,-85.9155 531.136,-60.4676 525.176,-45.4114 548,-30.9155 583.111,-8.61616 900.363,11.7559 946.033,-21.2154"/>
<polygon fill="#404040" stroke="#404040" points="943.216,-23.3106 951.5,-29.9155 949.143,-19.5862 943.216,-23.3106"/>
</g>
<!-- vmware_vmdk__inst__grain_primary -->
<g id="node4" class="node"><title>vmware_vmdk__inst__grain_primary</title>
<polygon fill="#e0ffe0" stroke="none" points="546.5,-119.916 546.5,-140.916 839.5,-140.916 839.5,-119.916 546.5,-119.916"/>
<polygon fill="none" stroke="black" points="546.5,-119.916 546.5,-140.916 839.5,-140.916 839.5,-119.916 546.5,-119.916"/>
<text text-anchor="start" x="680.5" y="-126.716" font-family="Times,serif" font-size="14.00">pos</text>
<polygon fill="#e0ffe0" stroke="none" points="839.5,-119.916 839.5,-140.916 1061.5,-140.916 1061.5,-119.916 839.5,-119.916"/>
<polygon fill="none" stroke="black" points="839.5,-119.916 839.5,-140.916 1061.5,-140.916 1061.5,-119.916 839.5,-119.916"/>
<text text-anchor="start" x="936.5" y="-126.716" font-family="Times,serif" font-size="14.00">size</text>
<polygon fill="#e0ffe0" stroke="none" points="1061.5,-119.916 1061.5,-140.916 1099.5,-140.916 1099.5,-119.916 1061.5,-119.916"/>
<polygon fill="none" stroke="black" points="1061.5,-119.916 1061.5,-140.916 1099.5,-140.916 1099.5,-119.916 1061.5,-119.916"/>
<text text-anchor="start" x="1064.5" y="-126.716" font-family="Times,serif" font-size="14.00">type</text>
<polygon fill="#e0ffe0" stroke="none" points="1099.5,-119.916 1099.5,-140.916 1208.5,-140.916 1208.5,-119.916 1099.5,-119.916"/>
<polygon fill="none" stroke="black" points="1099.5,-119.916 1099.5,-140.916 1208.5,-140.916 1208.5,-119.916 1099.5,-119.916"/>
<text text-anchor="start" x="1147" y="-126.716" font-family="Times,serif" font-size="14.00">id</text>
<polygon fill="none" stroke="black" points="546.5,-98.9155 546.5,-119.916 839.5,-119.916 839.5,-98.9155 546.5,-98.9155"/>
<text text-anchor="start" x="549.5" y="-105.716" font-family="Times,serif" font-size="14.00">(start_primary_grain * _root.len_sector)</text>
<polygon fill="none" stroke="black" points="839.5,-98.9155 839.5,-119.916 1061.5,-119.916 1061.5,-98.9155 839.5,-98.9155"/>
<text text-anchor="start" x="842.5" y="-105.716" font-family="Times,serif" font-size="14.00">(size_grain * _root.len_sector)</text>
<polygon fill="none" stroke="black" points="1061.5,-98.9155 1061.5,-119.916 1099.5,-119.916 1099.5,-98.9155 1061.5,-98.9155"/>
<polygon fill="none" stroke="black" points="1099.5,-98.9155 1099.5,-119.916 1208.5,-119.916 1208.5,-98.9155 1099.5,-98.9155"/>
<text text-anchor="start" x="1102.5" y="-105.716" font-family="Times,serif" font-size="14.00">grain_primary</text>
</g>
<!-- vmware_vmdk__seq&#45;&gt;vmware_vmdk__inst__grain_primary -->
<g id="edge6" class="edge"><title>vmware_vmdk__seq:start_primary_grain_type&#45;&gt;vmware_vmdk__inst__grain_primary:grain_primary_pos</title>
<path fill="none" stroke="#404040" d="M479,-192.916C522.71,-192.916 502.084,-122.132 535.239,-110.519"/>
<polygon fill="#404040" stroke="#404040" points="536.16,-113.917 545.5,-108.916 535.08,-107.001 536.16,-113.917"/>
</g>
<!-- vmware_vmdk__seq&#45;&gt;vmware_vmdk__inst__grain_primary -->
<g id="edge8" class="edge"><title>vmware_vmdk__seq:size_grain_type&#45;&gt;vmware_vmdk__inst__grain_primary:grain_primary_size</title>
<path fill="none" stroke="#404040" d="M479,-298.916C571.739,-298.916 464.163,-154.365 538.5,-98.9155 546.814,-92.7144 878.43,-87.5323 940.535,-95.1332"/>
<polygon fill="#404040" stroke="#404040" points="939.927,-98.5973 950.5,-97.9155 941.81,-91.8552 939.927,-98.5973"/>
</g>
<!-- vmware_vmdk__inst__grain_secondary -->
<g id="node5" class="node"><title>vmware_vmdk__inst__grain_secondary</title>
<polygon fill="#e0ffe0" stroke="none" points="530.5,-187.916 530.5,-208.916 840.5,-208.916 840.5,-187.916 530.5,-187.916"/>
<polygon fill="none" stroke="black" points="530.5,-187.916 530.5,-208.916 840.5,-208.916 840.5,-187.916 530.5,-187.916"/>
<text text-anchor="start" x="673" y="-194.716" font-family="Times,serif" font-size="14.00">pos</text>
<polygon fill="#e0ffe0" stroke="none" points="840.5,-187.916 840.5,-208.916 1062.5,-208.916 1062.5,-187.916 840.5,-187.916"/>
<polygon fill="none" stroke="black" points="840.5,-187.916 840.5,-208.916 1062.5,-208.916 1062.5,-187.916 840.5,-187.916"/>
<text text-anchor="start" x="937.5" y="-194.716" font-family="Times,serif" font-size="14.00">size</text>
<polygon fill="#e0ffe0" stroke="none" points="1062.5,-187.916 1062.5,-208.916 1100.5,-208.916 1100.5,-187.916 1062.5,-187.916"/>
<polygon fill="none" stroke="black" points="1062.5,-187.916 1062.5,-208.916 1100.5,-208.916 1100.5,-187.916 1062.5,-187.916"/>
<text text-anchor="start" x="1065.5" y="-194.716" font-family="Times,serif" font-size="14.00">type</text>
<polygon fill="#e0ffe0" stroke="none" points="1100.5,-187.916 1100.5,-208.916 1225.5,-208.916 1225.5,-187.916 1100.5,-187.916"/>
<polygon fill="none" stroke="black" points="1100.5,-187.916 1100.5,-208.916 1225.5,-208.916 1225.5,-187.916 1100.5,-187.916"/>
<text text-anchor="start" x="1156" y="-194.716" font-family="Times,serif" font-size="14.00">id</text>
<polygon fill="none" stroke="black" points="530.5,-166.916 530.5,-187.916 840.5,-187.916 840.5,-166.916 530.5,-166.916"/>
<text text-anchor="start" x="533.5" y="-173.716" font-family="Times,serif" font-size="14.00">(start_secondary_grain * _root.len_sector)</text>
<polygon fill="none" stroke="black" points="840.5,-166.916 840.5,-187.916 1062.5,-187.916 1062.5,-166.916 840.5,-166.916"/>
<text text-anchor="start" x="843.5" y="-173.716" font-family="Times,serif" font-size="14.00">(size_grain * _root.len_sector)</text>
<polygon fill="none" stroke="black" points="1062.5,-166.916 1062.5,-187.916 1100.5,-187.916 1100.5,-166.916 1062.5,-166.916"/>
<polygon fill="none" stroke="black" points="1100.5,-166.916 1100.5,-187.916 1225.5,-187.916 1225.5,-166.916 1100.5,-166.916"/>
<text text-anchor="start" x="1103.5" y="-173.716" font-family="Times,serif" font-size="14.00">grain_secondary</text>
</g>
<!-- vmware_vmdk__seq&#45;&gt;vmware_vmdk__inst__grain_secondary -->
<g id="edge10" class="edge"><title>vmware_vmdk__seq:start_secondary_grain_type&#45;&gt;vmware_vmdk__inst__grain_secondary:grain_secondary_pos</title>
<path fill="none" stroke="#404040" d="M479,-213.916C502.911,-213.916 502.472,-186.59 519.534,-178.905"/>
<polygon fill="#404040" stroke="#404040" points="520.379,-182.305 529.5,-176.916 519.008,-175.441 520.379,-182.305"/>
</g>
<!-- vmware_vmdk__seq&#45;&gt;vmware_vmdk__inst__grain_secondary -->
<g id="edge12" class="edge"><title>vmware_vmdk__seq:size_grain_type&#45;&gt;vmware_vmdk__inst__grain_secondary:grain_secondary_size</title>
<path fill="none" stroke="#404040" d="M479,-298.916C540.701,-298.916 472.111,-203.222 522,-166.916 530.761,-160.54 877.874,-155.079 941.528,-163.068"/>
<polygon fill="#404040" stroke="#404040" points="940.923,-166.535 951.5,-165.916 942.845,-159.804 940.923,-166.535"/>
</g>
<!-- header_flags__seq -->
<g id="node6" class="node"><title>header_flags__seq</title>
<polygon fill="#e0ffe0" stroke="none" points="694.5,-423.916 694.5,-444.916 725.5,-444.916 725.5,-423.916 694.5,-423.916"/>
<polygon fill="none" stroke="black" points="694.5,-423.916 694.5,-444.916 725.5,-444.916 725.5,-423.916 694.5,-423.916"/>
<text text-anchor="start" x="697.5" y="-430.716" font-family="Times,serif" font-size="14.00">pos</text>
<polygon fill="#e0ffe0" stroke="none" points="725.5,-423.916 725.5,-444.916 759.5,-444.916 759.5,-423.916 725.5,-423.916"/>
<polygon fill="none" stroke="black" points="725.5,-423.916 725.5,-444.916 759.5,-444.916 759.5,-423.916 725.5,-423.916"/>
<text text-anchor="start" x="728.5" y="-430.716" font-family="Times,serif" font-size="14.00">size</text>
<polygon fill="#e0ffe0" stroke="none" points="759.5,-423.916 759.5,-444.916 838.5,-444.916 838.5,-423.916 759.5,-423.916"/>
<polygon fill="none" stroke="black" points="759.5,-423.916 759.5,-444.916 838.5,-444.916 838.5,-423.916 759.5,-423.916"/>
<text text-anchor="start" x="783" y="-430.716" font-family="Times,serif" font-size="14.00">type</text>
<polygon fill="#e0ffe0" stroke="none" points="838.5,-423.916 838.5,-444.916 1060.5,-444.916 1060.5,-423.916 838.5,-423.916"/>
<polygon fill="none" stroke="black" points="838.5,-423.916 838.5,-444.916 1060.5,-444.916 1060.5,-423.916 838.5,-423.916"/>
<text text-anchor="start" x="942.5" y="-430.716" font-family="Times,serif" font-size="14.00">id</text>
<polygon fill="none" stroke="black" points="694.5,-402.916 694.5,-423.916 725.5,-423.916 725.5,-402.916 694.5,-402.916"/>
<text text-anchor="start" x="705" y="-409.716" font-family="Times,serif" font-size="14.00">0</text>
<polygon fill="none" stroke="black" points="725.5,-402.916 725.5,-423.916 759.5,-423.916 759.5,-402.916 725.5,-402.916"/>
<text text-anchor="start" x="733" y="-409.716" font-family="Times,serif" font-size="14.00">5b</text>
<polygon fill="none" stroke="black" points="759.5,-402.916 759.5,-423.916 838.5,-423.916 838.5,-402.916 759.5,-402.916"/>
<text text-anchor="start" x="789.5" y="-409.716" font-family="Times,serif" font-size="14.00">b5</text>
<polygon fill="none" stroke="black" points="838.5,-402.916 838.5,-423.916 1060.5,-423.916 1060.5,-402.916 838.5,-402.916"/>
<text text-anchor="start" x="913" y="-409.716" font-family="Times,serif" font-size="14.00">reserved1</text>
<polygon fill="none" stroke="black" points="694.5,-381.916 694.5,-402.916 725.5,-402.916 725.5,-381.916 694.5,-381.916"/>
<text text-anchor="start" x="698.5" y="-388.716" font-family="Times,serif" font-size="14.00">0:5</text>
<polygon fill="none" stroke="black" points="725.5,-381.916 725.5,-402.916 759.5,-402.916 759.5,-381.916 725.5,-381.916"/>
<text text-anchor="start" x="733" y="-388.716" font-family="Times,serif" font-size="14.00">1b</text>
<polygon fill="none" stroke="black" points="759.5,-381.916 759.5,-402.916 838.5,-402.916 838.5,-381.916 759.5,-381.916"/>
<text text-anchor="start" x="762.5" y="-388.716" font-family="Times,serif" font-size="14.00">BitsType1</text>
<polygon fill="none" stroke="black" points="838.5,-381.916 838.5,-402.916 1060.5,-402.916 1060.5,-381.916 838.5,-381.916"/>
<text text-anchor="start" x="858" y="-388.716" font-family="Times,serif" font-size="14.00">zeroed_grain_table_entry</text>
<polygon fill="none" stroke="black" points="694.5,-360.916 694.5,-381.916 725.5,-381.916 725.5,-360.916 694.5,-360.916"/>
<text text-anchor="start" x="698.5" y="-367.716" font-family="Times,serif" font-size="14.00">0:6</text>
<polygon fill="none" stroke="black" points="725.5,-360.916 725.5,-381.916 759.5,-381.916 759.5,-360.916 725.5,-360.916"/>
<text text-anchor="start" x="733" y="-367.716" font-family="Times,serif" font-size="14.00">1b</text>
<polygon fill="none" stroke="black" points="759.5,-360.916 759.5,-381.916 838.5,-381.916 838.5,-360.916 759.5,-360.916"/>
<text text-anchor="start" x="762.5" y="-367.716" font-family="Times,serif" font-size="14.00">BitsType1</text>
<polygon fill="none" stroke="black" points="838.5,-360.916 838.5,-381.916 1060.5,-381.916 1060.5,-360.916 838.5,-360.916"/>
<text text-anchor="start" x="860" y="-367.716" font-family="Times,serif" font-size="14.00">use_secondary_grain_dir</text>
<polygon fill="none" stroke="black" points="694.5,-339.916 694.5,-360.916 725.5,-360.916 725.5,-339.916 694.5,-339.916"/>
<text text-anchor="start" x="698.5" y="-346.716" font-family="Times,serif" font-size="14.00">0:7</text>
<polygon fill="none" stroke="black" points="725.5,-339.916 725.5,-360.916 759.5,-360.916 759.5,-339.916 725.5,-339.916"/>
<text text-anchor="start" x="733" y="-346.716" font-family="Times,serif" font-size="14.00">1b</text>
<polygon fill="none" stroke="black" points="759.5,-339.916 759.5,-360.916 838.5,-360.916 838.5,-339.916 759.5,-339.916"/>
<text text-anchor="start" x="762.5" y="-346.716" font-family="Times,serif" font-size="14.00">BitsType1</text>
<polygon fill="none" stroke="black" points="838.5,-339.916 838.5,-360.916 1060.5,-360.916 1060.5,-339.916 838.5,-339.916"/>
<text text-anchor="start" x="841.5" y="-346.716" font-family="Times,serif" font-size="14.00">valid_new_line_detection_test</text>
<polygon fill="none" stroke="black" points="694.5,-318.916 694.5,-339.916 725.5,-339.916 725.5,-318.916 694.5,-318.916"/>
<text text-anchor="start" x="705" y="-325.716" font-family="Times,serif" font-size="14.00">1</text>
<polygon fill="none" stroke="black" points="725.5,-318.916 725.5,-339.916 759.5,-339.916 759.5,-318.916 725.5,-318.916"/>
<text text-anchor="start" x="737.5" y="-325.716" font-family="Times,serif" font-size="14.00">1</text>
<polygon fill="none" stroke="black" points="759.5,-318.916 759.5,-339.916 838.5,-339.916 838.5,-318.916 759.5,-318.916"/>
<text text-anchor="start" x="789.5" y="-325.716" font-family="Times,serif" font-size="14.00">u1</text>
<polygon fill="none" stroke="black" points="838.5,-318.916 838.5,-339.916 1060.5,-339.916 1060.5,-318.916 838.5,-318.916"/>
<text text-anchor="start" x="913" y="-325.716" font-family="Times,serif" font-size="14.00">reserved2</text>
<polygon fill="none" stroke="black" points="694.5,-297.916 694.5,-318.916 725.5,-318.916 725.5,-297.916 694.5,-297.916"/>
<text text-anchor="start" x="705" y="-304.716" font-family="Times,serif" font-size="14.00">2</text>
<polygon fill="none" stroke="black" points="725.5,-297.916 725.5,-318.916 759.5,-318.916 759.5,-297.916 725.5,-297.916"/>
<text text-anchor="start" x="733" y="-304.716" font-family="Times,serif" font-size="14.00">6b</text>
<polygon fill="none" stroke="black" points="759.5,-297.916 759.5,-318.916 838.5,-318.916 838.5,-297.916 759.5,-297.916"/>
<text text-anchor="start" x="789.5" y="-304.716" font-family="Times,serif" font-size="14.00">b6</text>
<polygon fill="none" stroke="black" points="838.5,-297.916 838.5,-318.916 1060.5,-318.916 1060.5,-297.916 838.5,-297.916"/>
<text text-anchor="start" x="913" y="-304.716" font-family="Times,serif" font-size="14.00">reserved3</text>
<polygon fill="none" stroke="black" points="694.5,-276.916 694.5,-297.916 725.5,-297.916 725.5,-276.916 694.5,-276.916"/>
<text text-anchor="start" x="698.5" y="-283.716" font-family="Times,serif" font-size="14.00">2:6</text>
<polygon fill="none" stroke="black" points="725.5,-276.916 725.5,-297.916 759.5,-297.916 759.5,-276.916 725.5,-276.916"/>
<text text-anchor="start" x="733" y="-283.716" font-family="Times,serif" font-size="14.00">1b</text>
<polygon fill="none" stroke="black" points="759.5,-276.916 759.5,-297.916 838.5,-297.916 838.5,-276.916 759.5,-276.916"/>
<text text-anchor="start" x="762.5" y="-283.716" font-family="Times,serif" font-size="14.00">BitsType1</text>
<polygon fill="none" stroke="black" points="838.5,-276.916 838.5,-297.916 1060.5,-297.916 1060.5,-276.916 838.5,-276.916"/>
<text text-anchor="start" x="899.5" y="-283.716" font-family="Times,serif" font-size="14.00">has_metadata</text>
<polygon fill="none" stroke="black" points="694.5,-255.916 694.5,-276.916 725.5,-276.916 725.5,-255.916 694.5,-255.916"/>
<text text-anchor="start" x="698.5" y="-262.716" font-family="Times,serif" font-size="14.00">2:7</text>
<polygon fill="none" stroke="black" points="725.5,-255.916 725.5,-276.916 759.5,-276.916 759.5,-255.916 725.5,-255.916"/>
<text text-anchor="start" x="733" y="-262.716" font-family="Times,serif" font-size="14.00">1b</text>
<polygon fill="none" stroke="black" points="759.5,-255.916 759.5,-276.916 838.5,-276.916 838.5,-255.916 759.5,-255.916"/>
<text text-anchor="start" x="762.5" y="-262.716" font-family="Times,serif" font-size="14.00">BitsType1</text>
<polygon fill="none" stroke="black" points="838.5,-255.916 838.5,-276.916 1060.5,-276.916 1060.5,-255.916 838.5,-255.916"/>
<text text-anchor="start" x="867.5" y="-262.716" font-family="Times,serif" font-size="14.00">has_compressed_grain</text>
<polygon fill="none" stroke="black" points="694.5,-234.916 694.5,-255.916 725.5,-255.916 725.5,-234.916 694.5,-234.916"/>
<text text-anchor="start" x="705" y="-241.716" font-family="Times,serif" font-size="14.00">3</text>
<polygon fill="none" stroke="black" points="725.5,-234.916 725.5,-255.916 759.5,-255.916 759.5,-234.916 725.5,-234.916"/>
<text text-anchor="start" x="737.5" y="-241.716" font-family="Times,serif" font-size="14.00">1</text>
<polygon fill="none" stroke="black" points="759.5,-234.916 759.5,-255.916 838.5,-255.916 838.5,-234.916 759.5,-234.916"/>
<text text-anchor="start" x="789.5" y="-241.716" font-family="Times,serif" font-size="14.00">u1</text>
<polygon fill="none" stroke="black" points="838.5,-234.916 838.5,-255.916 1060.5,-255.916 1060.5,-234.916 838.5,-234.916"/>
<text text-anchor="start" x="913" y="-241.716" font-family="Times,serif" font-size="14.00">reserved4</text>
</g>
<!-- vmware_vmdk__seq&#45;&gt;header_flags__seq -->
<g id="edge1" class="edge"><title>vmware_vmdk__seq:flags_type&#45;&gt;header_flags__seq</title>
<path fill="none" stroke="black" stroke-width="2" d="M479,-340.916C543.196,-340.916 613.224,-340.784 676.368,-340.615"/>
<polygon fill="black" stroke="black" stroke-width="2" points="676.451,-344.115 686.442,-340.588 676.432,-337.115 676.451,-344.115"/>
</g>
<!-- vmware_vmdk__inst__len_sector -->
<g id="node2" class="node"><title>vmware_vmdk__inst__len_sector</title>
<polygon fill="#e0ffe0" stroke="none" points="188,-51.9155 188,-72.9155 269,-72.9155 269,-51.9155 188,-51.9155"/>
<polygon fill="none" stroke="black" points="188,-51.9155 188,-72.9155 269,-72.9155 269,-51.9155 188,-51.9155"/>
<text text-anchor="start" x="221.5" y="-58.7155" font-family="Times,serif" font-size="14.00">id</text>
<polygon fill="#e0ffe0" stroke="none" points="269,-51.9155 269,-72.9155 314,-72.9155 314,-51.9155 269,-51.9155"/>
<polygon fill="none" stroke="black" points="269,-51.9155 269,-72.9155 314,-72.9155 314,-51.9155 269,-51.9155"/>
<text text-anchor="start" x="272" y="-58.7155" font-family="Times,serif" font-size="14.00">value</text>
<polygon fill="none" stroke="black" points="188,-30.9155 188,-51.9155 269,-51.9155 269,-30.9155 188,-30.9155"/>
<text text-anchor="start" x="191" y="-37.7155" font-family="Times,serif" font-size="14.00">len_sector</text>
<polygon fill="none" stroke="black" points="269,-30.9155 269,-51.9155 314,-51.9155 314,-30.9155 269,-30.9155"/>
<text text-anchor="start" x="277.5" y="-37.7155" font-family="Times,serif" font-size="14.00">512</text>
</g>
<!-- vmware_vmdk__inst__len_sector&#45;&gt;vmware_vmdk__inst__descriptor -->
<g id="edge3" class="edge"><title>vmware_vmdk__inst__len_sector:len_sector_type&#45;&gt;vmware_vmdk__inst__descriptor:descriptor_pos</title>
<path fill="none" stroke="#404040" d="M322.194,-47.9287C381.048,-44.916 467.656,-41.2464 545.124,-40.9366"/>
<polygon fill="#404040" stroke="#404040" points="545.507,-44.4359 555.5,-40.9155 545.493,-37.4359 545.507,-44.4359"/>
</g>
<!-- vmware_vmdk__inst__len_sector&#45;&gt;vmware_vmdk__inst__descriptor -->
<g id="edge5" class="edge"><title>vmware_vmdk__inst__len_sector:len_sector_type&#45;&gt;vmware_vmdk__inst__descriptor:descriptor_size</title>
<path fill="none" stroke="#404040" d="M322.273,-42.4814C489.956,-20.8433 902.901,26.9627 947.565,-20.6674"/>
<polygon fill="#404040" stroke="#404040" points="944.364,-22.0844 951.5,-29.9155 950.805,-19.3435 944.364,-22.0844"/>
</g>
<!-- vmware_vmdk__inst__len_sector&#45;&gt;vmware_vmdk__inst__grain_primary -->
<g id="edge7" class="edge"><title>vmware_vmdk__inst__len_sector:len_sector_type&#45;&gt;vmware_vmdk__inst__grain_primary:grain_primary_pos</title>
<path fill="none" stroke="#404040" d="M322.19,-57.9568C369.101,-63.0053 431.898,-71.7215 486,-85.9155 509.781,-92.1547 515.741,-104.869 535.394,-108.136"/>
<polygon fill="#404040" stroke="#404040" points="535.261,-111.636 545.5,-108.916 535.799,-104.657 535.261,-111.636"/>
</g>
<!-- vmware_vmdk__inst__len_sector&#45;&gt;vmware_vmdk__inst__grain_primary -->
<g id="edge9" class="edge"><title>vmware_vmdk__inst__len_sector:len_sector_type&#45;&gt;vmware_vmdk__inst__grain_primary:grain_primary_size</title>
<path fill="none" stroke="#404040" d="M322.021,-62.6315C376.414,-70.495 453.813,-80.68 522,-85.9155 532.783,-86.7435 877.421,-86.1439 940.603,-94.9469"/>
<polygon fill="#404040" stroke="#404040" points="939.916,-98.3948 950.5,-97.9155 941.927,-91.69 939.916,-98.3948"/>
</g>
<!-- vmware_vmdk__inst__len_sector&#45;&gt;vmware_vmdk__inst__grain_secondary -->
<g id="edge11" class="edge"><title>vmware_vmdk__inst__len_sector:len_sector_type&#45;&gt;vmware_vmdk__inst__grain_secondary:grain_secondary_pos</title>
<path fill="none" stroke="#404040" d="M322.219,-45.5735C372.429,-44.6991 439.138,-51.4175 486,-85.9155 518.857,-110.104 490.804,-165.645 519.296,-175.43"/>
<polygon fill="#404040" stroke="#404040" points="519.1,-178.938 529.5,-176.916 520.109,-172.011 519.1,-178.938"/>
</g>
<!-- vmware_vmdk__inst__len_sector&#45;&gt;vmware_vmdk__inst__grain_secondary -->
<g id="edge13" class="edge"><title>vmware_vmdk__inst__len_sector:len_sector_type&#45;&gt;vmware_vmdk__inst__grain_secondary:grain_secondary_size</title>
<path fill="none" stroke="#404040" d="M322.067,-46.1486C372.041,-45.5869 438.525,-52.4442 486,-85.9155 513.948,-105.62 492.953,-135.869 522,-153.916 540.494,-165.405 882.571,-146.06 942.558,-160.684"/>
<polygon fill="#404040" stroke="#404040" points="941.101,-163.886 951.5,-165.916 944.636,-157.844 941.101,-163.886"/>
</g>
</g>
</svg>
