<?xml version="1.0" encoding="UTF-8" standalone="no"?>
<!DOCTYPE svg PUBLIC "-//W3C//DTD SVG 1.1//EN"
 "http://www.w3.org/Graphics/SVG/1.1/DTD/svg11.dtd">
<!-- Generated by graphviz version 2.43.0 (0)
 -->
<!-- Title: %3 Pages: 1 -->
<svg width="1244pt" height="527pt"
 viewBox="0.00 0.00 1244.00 526.51" xmlns="http://www.w3.org/2000/svg" xmlns:xlink="http://www.w3.org/1999/xlink">
<g id="graph0" class="graph" transform="scale(1 1) rotate(0) translate(4 522.51)">
<title>%3</title>
<polygon fill="white" stroke="transparent" points="-4,4 -4,-522.51 1240,-522.51 1240,4 -4,4"/>
<g id="clust1" class="cluster">
<title>cluster__vmware_vmdk</title>
<polygon fill="none" stroke="black" stroke-dasharray="1,5" points="8,-18.51 8,-510.51 1228,-510.51 1228,-18.51 8,-18.51"/>
<text text-anchor="middle" x="618" y="-495.31" font-family="Times,serif" font-size="14.00">VmwareVmdk</text>
</g>
<g id="clust2" class="cluster">
<title>cluster__header_flags</title>
<polygon fill="none" stroke="black" stroke-dasharray="1,5" points="620.5,-222.51 620.5,-479.51 1119.5,-479.51 1119.5,-222.51 620.5,-222.51"/>
<text text-anchor="middle" x="870" y="-464.31" font-family="Times,serif" font-size="14.00">VmwareVmdk::HeaderFlags</text>
</g>
<!-- vmware_vmdk__seq -->
<g id="node1" class="node">
<title>vmware_vmdk__seq</title>
<polygon fill="#e0ffe0" stroke="transparent" points="24,-392.51 24,-413.51 55,-413.51 55,-392.51 24,-392.51"/>
<polygon fill="none" stroke="black" points="24,-392.51 24,-413.51 55,-413.51 55,-392.51 24,-392.51"/>
<text text-anchor="start" x="27" y="-399.31" font-family="Times,serif" font-size="14.00">pos</text>
<polygon fill="#e0ffe0" stroke="transparent" points="55,-392.51 55,-413.51 89,-413.51 89,-392.51 55,-392.51"/>
<polygon fill="none" stroke="black" points="55,-392.51 55,-413.51 89,-413.51 89,-392.51 55,-392.51"/>
<text text-anchor="start" x="58" y="-399.31" font-family="Times,serif" font-size="14.00">size</text>
<polygon fill="#e0ffe0" stroke="transparent" points="89,-392.51 89,-413.51 294,-413.51 294,-392.51 89,-392.51"/>
<polygon fill="none" stroke="black" points="89,-392.51 89,-413.51 294,-413.51 294,-392.51 89,-392.51"/>
<text text-anchor="start" x="175.5" y="-399.31" font-family="Times,serif" font-size="14.00">type</text>
<polygon fill="#e0ffe0" stroke="transparent" points="294,-392.51 294,-413.51 476,-413.51 476,-392.51 294,-392.51"/>
<polygon fill="none" stroke="black" points="294,-392.51 294,-413.51 476,-413.51 476,-392.51 294,-392.51"/>
<text text-anchor="start" x="378" y="-399.31" font-family="Times,serif" font-size="14.00">id</text>
<polygon fill="none" stroke="black" points="24,-371.51 24,-392.51 55,-392.51 55,-371.51 24,-371.51"/>
<text text-anchor="start" x="34.5" y="-378.31" font-family="Times,serif" font-size="14.00">0</text>
<polygon fill="none" stroke="black" points="55,-371.51 55,-392.51 89,-392.51 89,-371.51 55,-371.51"/>
<text text-anchor="start" x="67" y="-378.31" font-family="Times,serif" font-size="14.00">4</text>
<polygon fill="none" stroke="black" points="89,-371.51 89,-392.51 294,-392.51 294,-371.51 89,-371.51"/>
<polygon fill="none" stroke="black" points="294,-371.51 294,-392.51 476,-392.51 476,-371.51 294,-371.51"/>
<text text-anchor="start" x="363.5" y="-378.31" font-family="Times,serif" font-size="14.00">magic</text>
<polygon fill="none" stroke="black" points="24,-350.51 24,-371.51 55,-371.51 55,-350.51 24,-350.51"/>
<text text-anchor="start" x="34.5" y="-357.31" font-family="Times,serif" font-size="14.00">4</text>
<polygon fill="none" stroke="black" points="55,-350.51 55,-371.51 89,-371.51 89,-350.51 55,-350.51"/>
<text text-anchor="start" x="67" y="-357.31" font-family="Times,serif" font-size="14.00">4</text>
<polygon fill="none" stroke="black" points="89,-350.51 89,-371.51 294,-371.51 294,-350.51 89,-350.51"/>
<text text-anchor="start" x="176.5" y="-357.31" font-family="Times,serif" font-size="14.00">s4le</text>
<polygon fill="none" stroke="black" points="294,-350.51 294,-371.51 476,-371.51 476,-350.51 294,-350.51"/>
<text text-anchor="start" x="358.5" y="-357.31" font-family="Times,serif" font-size="14.00">version</text>
<polygon fill="none" stroke="black" points="24,-329.51 24,-350.51 55,-350.51 55,-329.51 24,-329.51"/>
<text text-anchor="start" x="34.5" y="-336.31" font-family="Times,serif" font-size="14.00">8</text>
<polygon fill="none" stroke="black" points="55,-329.51 55,-350.51 89,-350.51 89,-329.51 55,-329.51"/>
<text text-anchor="start" x="67" y="-336.31" font-family="Times,serif" font-size="14.00">4</text>
<polygon fill="none" stroke="black" points="89,-329.51 89,-350.51 294,-350.51 294,-329.51 89,-329.51"/>
<text text-anchor="start" x="145.5" y="-336.31" font-family="Times,serif" font-size="14.00">HeaderFlags</text>
<polygon fill="none" stroke="black" points="294,-329.51 294,-350.51 476,-350.51 476,-329.51 294,-329.51"/>
<text text-anchor="start" x="368" y="-336.31" font-family="Times,serif" font-size="14.00">flags</text>
<polygon fill="none" stroke="black" points="24,-308.51 24,-329.51 55,-329.51 55,-308.51 24,-308.51"/>
<text text-anchor="start" x="30" y="-315.31" font-family="Times,serif" font-size="14.00">12</text>
<polygon fill="none" stroke="black" points="55,-308.51 55,-329.51 89,-329.51 89,-308.51 55,-308.51"/>
<text text-anchor="start" x="67" y="-315.31" font-family="Times,serif" font-size="14.00">8</text>
<polygon fill="none" stroke="black" points="89,-308.51 89,-329.51 294,-329.51 294,-308.51 89,-308.51"/>
<text text-anchor="start" x="176.5" y="-315.31" font-family="Times,serif" font-size="14.00">s8le</text>
<polygon fill="none" stroke="black" points="294,-308.51 294,-329.51 476,-329.51 476,-308.51 294,-308.51"/>
<text text-anchor="start" x="352.5" y="-315.31" font-family="Times,serif" font-size="14.00">size_max</text>
<polygon fill="none" stroke="black" points="24,-287.51 24,-308.51 55,-308.51 55,-287.51 24,-287.51"/>
<text text-anchor="start" x="30" y="-294.31" font-family="Times,serif" font-size="14.00">20</text>
<polygon fill="none" stroke="black" points="55,-287.51 55,-308.51 89,-308.51 89,-287.51 55,-287.51"/>
<text text-anchor="start" x="67" y="-294.31" font-family="Times,serif" font-size="14.00">8</text>
<polygon fill="none" stroke="black" points="89,-287.51 89,-308.51 294,-308.51 294,-287.51 89,-287.51"/>
<text text-anchor="start" x="176.5" y="-294.31" font-family="Times,serif" font-size="14.00">s8le</text>
<polygon fill="none" stroke="black" points="294,-287.51 294,-308.51 476,-308.51 476,-287.51 294,-287.51"/>
<text text-anchor="start" x="348.5" y="-294.31" font-family="Times,serif" font-size="14.00">size_grain</text>
<polygon fill="none" stroke="black" points="24,-266.51 24,-287.51 55,-287.51 55,-266.51 24,-266.51"/>
<text text-anchor="start" x="30" y="-273.31" font-family="Times,serif" font-size="14.00">28</text>
<polygon fill="none" stroke="black" points="55,-266.51 55,-287.51 89,-287.51 89,-266.51 55,-266.51"/>
<text text-anchor="start" x="67" y="-273.31" font-family="Times,serif" font-size="14.00">8</text>
<polygon fill="none" stroke="black" points="89,-266.51 89,-287.51 294,-287.51 294,-266.51 89,-266.51"/>
<text text-anchor="start" x="176.5" y="-273.31" font-family="Times,serif" font-size="14.00">s8le</text>
<polygon fill="none" stroke="black" points="294,-266.51 294,-287.51 476,-287.51 476,-266.51 294,-266.51"/>
<text text-anchor="start" x="327.5" y="-273.31" font-family="Times,serif" font-size="14.00">start_descriptor</text>
<polygon fill="none" stroke="black" points="24,-245.51 24,-266.51 55,-266.51 55,-245.51 24,-245.51"/>
<text text-anchor="start" x="30" y="-252.31" font-family="Times,serif" font-size="14.00">36</text>
<polygon fill="none" stroke="black" points="55,-245.51 55,-266.51 89,-266.51 89,-245.51 55,-245.51"/>
<text text-anchor="start" x="67" y="-252.31" font-family="Times,serif" font-size="14.00">8</text>
<polygon fill="none" stroke="black" points="89,-245.51 89,-266.51 294,-266.51 294,-245.51 89,-245.51"/>
<text text-anchor="start" x="176.5" y="-252.31" font-family="Times,serif" font-size="14.00">s8le</text>
<polygon fill="none" stroke="black" points="294,-245.51 294,-266.51 476,-266.51 476,-245.51 294,-245.51"/>
<text text-anchor="start" x="330.5" y="-252.31" font-family="Times,serif" font-size="14.00">size_descriptor</text>
<polygon fill="none" stroke="black" points="24,-224.51 24,-245.51 55,-245.51 55,-224.51 24,-224.51"/>
<text text-anchor="start" x="30" y="-231.31" font-family="Times,serif" font-size="14.00">44</text>
<polygon fill="none" stroke="black" points="55,-224.51 55,-245.51 89,-245.51 89,-224.51 55,-224.51"/>
<text text-anchor="start" x="67" y="-231.31" font-family="Times,serif" font-size="14.00">4</text>
<polygon fill="none" stroke="black" points="89,-224.51 89,-245.51 294,-245.51 294,-224.51 89,-224.51"/>
<text text-anchor="start" x="176.5" y="-231.31" font-family="Times,serif" font-size="14.00">s4le</text>
<polygon fill="none" stroke="black" points="294,-224.51 294,-245.51 476,-245.51 476,-224.51 294,-224.51"/>
<text text-anchor="start" x="297" y="-231.31" font-family="Times,serif" font-size="14.00">num_grain_table_entries</text>
<polygon fill="none" stroke="black" points="24,-203.51 24,-224.51 55,-224.51 55,-203.51 24,-203.51"/>
<text text-anchor="start" x="30" y="-210.31" font-family="Times,serif" font-size="14.00">48</text>
<polygon fill="none" stroke="black" points="55,-203.51 55,-224.51 89,-224.51 89,-203.51 55,-203.51"/>
<text text-anchor="start" x="67" y="-210.31" font-family="Times,serif" font-size="14.00">8</text>
<polygon fill="none" stroke="black" points="89,-203.51 89,-224.51 294,-224.51 294,-203.51 89,-203.51"/>
<text text-anchor="start" x="176.5" y="-210.31" font-family="Times,serif" font-size="14.00">s8le</text>
<polygon fill="none" stroke="black" points="294,-203.51 294,-224.51 476,-224.51 476,-203.51 294,-203.51"/>
<text text-anchor="start" x="305.5" y="-210.31" font-family="Times,serif" font-size="14.00">start_secondary_grain</text>
<polygon fill="none" stroke="black" points="24,-182.51 24,-203.51 55,-203.51 55,-182.51 24,-182.51"/>
<text text-anchor="start" x="30" y="-189.31" font-family="Times,serif" font-size="14.00">56</text>
<polygon fill="none" stroke="black" points="55,-182.51 55,-203.51 89,-203.51 89,-182.51 55,-182.51"/>
<text text-anchor="start" x="67" y="-189.31" font-family="Times,serif" font-size="14.00">8</text>
<polygon fill="none" stroke="black" points="89,-182.51 89,-203.51 294,-203.51 294,-182.51 89,-182.51"/>
<text text-anchor="start" x="176.5" y="-189.31" font-family="Times,serif" font-size="14.00">s8le</text>
<polygon fill="none" stroke="black" points="294,-182.51 294,-203.51 476,-203.51 476,-182.51 294,-182.51"/>
<text text-anchor="start" x="313.5" y="-189.31" font-family="Times,serif" font-size="14.00">start_primary_grain</text>
<polygon fill="none" stroke="black" points="24,-161.51 24,-182.51 55,-182.51 55,-161.51 24,-161.51"/>
<text text-anchor="start" x="30" y="-168.31" font-family="Times,serif" font-size="14.00">64</text>
<polygon fill="none" stroke="black" points="55,-161.51 55,-182.51 89,-182.51 89,-161.51 55,-161.51"/>
<text text-anchor="start" x="67" y="-168.31" font-family="Times,serif" font-size="14.00">8</text>
<polygon fill="none" stroke="black" points="89,-161.51 89,-182.51 294,-182.51 294,-161.51 89,-161.51"/>
<text text-anchor="start" x="176.5" y="-168.31" font-family="Times,serif" font-size="14.00">s8le</text>
<polygon fill="none" stroke="black" points="294,-161.51 294,-182.51 476,-182.51 476,-161.51 294,-161.51"/>
<text text-anchor="start" x="333.5" y="-168.31" font-family="Times,serif" font-size="14.00">size_metadata</text>
<polygon fill="none" stroke="black" points="24,-140.51 24,-161.51 55,-161.51 55,-140.51 24,-140.51"/>
<text text-anchor="start" x="30" y="-147.31" font-family="Times,serif" font-size="14.00">72</text>
<polygon fill="none" stroke="black" points="55,-140.51 55,-161.51 89,-161.51 89,-140.51 55,-140.51"/>
<text text-anchor="start" x="67" y="-147.31" font-family="Times,serif" font-size="14.00">1</text>
<polygon fill="none" stroke="black" points="89,-140.51 89,-161.51 294,-161.51 294,-140.51 89,-140.51"/>
<text text-anchor="start" x="182" y="-147.31" font-family="Times,serif" font-size="14.00">u1</text>
<polygon fill="none" stroke="black" points="294,-140.51 294,-161.51 476,-161.51 476,-140.51 294,-140.51"/>
<text text-anchor="start" x="358" y="-147.31" font-family="Times,serif" font-size="14.00">is_dirty</text>
<polygon fill="none" stroke="black" points="24,-119.51 24,-140.51 55,-140.51 55,-119.51 24,-119.51"/>
<text text-anchor="start" x="30" y="-126.31" font-family="Times,serif" font-size="14.00">73</text>
<polygon fill="none" stroke="black" points="55,-119.51 55,-140.51 89,-140.51 89,-119.51 55,-119.51"/>
<text text-anchor="start" x="67" y="-126.31" font-family="Times,serif" font-size="14.00">4</text>
<polygon fill="none" stroke="black" points="89,-119.51 89,-140.51 294,-140.51 294,-119.51 89,-119.51"/>
<polygon fill="none" stroke="black" points="294,-119.51 294,-140.51 476,-140.51 476,-119.51 294,-119.51"/>
<text text-anchor="start" x="368.5" y="-126.31" font-family="Times,serif" font-size="14.00">stuff</text>
<polygon fill="none" stroke="black" points="24,-98.51 24,-119.51 55,-119.51 55,-98.51 24,-98.51"/>
<text text-anchor="start" x="30" y="-105.31" font-family="Times,serif" font-size="14.00">77</text>
<polygon fill="none" stroke="black" points="55,-98.51 55,-119.51 89,-119.51 89,-98.51 55,-98.51"/>
<text text-anchor="start" x="67" y="-105.31" font-family="Times,serif" font-size="14.00">2</text>
<polygon fill="none" stroke="black" points="89,-98.51 89,-119.51 294,-119.51 294,-98.51 89,-98.51"/>
<text text-anchor="start" x="92" y="-105.31" font-family="Times,serif" font-size="14.00">u2le→CompressionMethods</text>
<polygon fill="none" stroke="black" points="294,-98.51 294,-119.51 476,-119.51 476,-98.51 294,-98.51"/>
<text text-anchor="start" x="309.5" y="-105.31" font-family="Times,serif" font-size="14.00">compression_method</text>
</g>
<!-- vmware_vmdk__inst__descriptor -->
<g id="node3" class="node">
<title>vmware_vmdk__inst__descriptor</title>
<polygon fill="#e0ffe0" stroke="transparent" points="554,-51.51 554,-72.51 815,-72.51 815,-51.51 554,-51.51"/>
<polygon fill="none" stroke="black" points="554,-51.51 554,-72.51 815,-72.51 815,-51.51 554,-51.51"/>
<text text-anchor="start" x="672" y="-58.31" font-family="Times,serif" font-size="14.00">pos</text>
<polygon fill="#e0ffe0" stroke="transparent" points="815,-51.51 815,-72.51 1069,-72.51 1069,-51.51 815,-51.51"/>
<polygon fill="none" stroke="black" points="815,-51.51 815,-72.51 1069,-72.51 1069,-51.51 815,-51.51"/>
<text text-anchor="start" x="928" y="-58.31" font-family="Times,serif" font-size="14.00">size</text>
<polygon fill="#e0ffe0" stroke="transparent" points="1069,-51.51 1069,-72.51 1107,-72.51 1107,-51.51 1069,-51.51"/>
<polygon fill="none" stroke="black" points="1069,-51.51 1069,-72.51 1107,-72.51 1107,-51.51 1069,-51.51"/>
<text text-anchor="start" x="1072" y="-58.31" font-family="Times,serif" font-size="14.00">type</text>
<polygon fill="#e0ffe0" stroke="transparent" points="1107,-51.51 1107,-72.51 1187,-72.51 1187,-51.51 1107,-51.51"/>
<polygon fill="none" stroke="black" points="1107,-51.51 1107,-72.51 1187,-72.51 1187,-51.51 1107,-51.51"/>
<text text-anchor="start" x="1140" y="-58.31" font-family="Times,serif" font-size="14.00">id</text>
<polygon fill="none" stroke="black" points="554,-30.51 554,-51.51 815,-51.51 815,-30.51 554,-30.51"/>
<text text-anchor="start" x="557" y="-37.31" font-family="Times,serif" font-size="14.00">(start_descriptor * _root.len_sector)</text>
<polygon fill="none" stroke="black" points="815,-30.51 815,-51.51 1069,-51.51 1069,-30.51 815,-30.51"/>
<text text-anchor="start" x="818" y="-37.31" font-family="Times,serif" font-size="14.00">(size_descriptor * _root.len_sector)</text>
<polygon fill="none" stroke="black" points="1069,-30.51 1069,-51.51 1107,-51.51 1107,-30.51 1069,-30.51"/>
<polygon fill="none" stroke="black" points="1107,-30.51 1107,-51.51 1187,-51.51 1187,-30.51 1107,-30.51"/>
<text text-anchor="start" x="1110" y="-37.31" font-family="Times,serif" font-size="14.00">descriptor</text>
</g>
<!-- vmware_vmdk__seq&#45;&gt;vmware_vmdk__inst__descriptor -->
<g id="edge2" class="edge">
<title>vmware_vmdk__seq:start_descriptor_type&#45;&gt;vmware_vmdk__inst__descriptor:descriptor_pos</title>
<path fill="none" stroke="#404040" d="M477,-277.51C564.45,-277.51 483.82,-165.13 520,-85.51 528.58,-66.64 528.54,-47.88 542.79,-42.23"/>
<polygon fill="#404040" stroke="#404040" points="543.72,-45.62 553,-40.51 542.56,-38.72 543.72,-45.62"/>
</g>
<!-- vmware_vmdk__seq&#45;&gt;vmware_vmdk__inst__descriptor -->
<g id="edge4" class="edge">
<title>vmware_vmdk__seq:size_descriptor_type&#45;&gt;vmware_vmdk__inst__descriptor:descriptor_size</title>
<path fill="none" stroke="#404040" d="M477,-255.51C554.94,-255.51 493.94,-158.96 520,-85.51 529.01,-60.12 522.81,-45.05 545.5,-30.51 579.92,-8.47 891.74,11.45 936.63,-20.96"/>
<polygon fill="#404040" stroke="#404040" points="933.72,-22.91 942,-29.51 939.64,-19.19 933.72,-22.91"/>
</g>
<!-- vmware_vmdk__inst__grain_primary -->
<g id="node4" class="node">
<title>vmware_vmdk__inst__grain_primary</title>
<polygon fill="#e0ffe0" stroke="transparent" points="544,-119.51 544,-140.51 833,-140.51 833,-119.51 544,-119.51"/>
<polygon fill="none" stroke="black" points="544,-119.51 544,-140.51 833,-140.51 833,-119.51 544,-119.51"/>
<text text-anchor="start" x="676" y="-126.31" font-family="Times,serif" font-size="14.00">pos</text>
<polygon fill="#e0ffe0" stroke="transparent" points="833,-119.51 833,-140.51 1051,-140.51 1051,-119.51 833,-119.51"/>
<polygon fill="none" stroke="black" points="833,-119.51 833,-140.51 1051,-140.51 1051,-119.51 833,-119.51"/>
<text text-anchor="start" x="928" y="-126.31" font-family="Times,serif" font-size="14.00">size</text>
<polygon fill="#e0ffe0" stroke="transparent" points="1051,-119.51 1051,-140.51 1089,-140.51 1089,-119.51 1051,-119.51"/>
<polygon fill="none" stroke="black" points="1051,-119.51 1051,-140.51 1089,-140.51 1089,-119.51 1051,-119.51"/>
<text text-anchor="start" x="1054" y="-126.31" font-family="Times,serif" font-size="14.00">type</text>
<polygon fill="#e0ffe0" stroke="transparent" points="1089,-119.51 1089,-140.51 1197,-140.51 1197,-119.51 1089,-119.51"/>
<polygon fill="none" stroke="black" points="1089,-119.51 1089,-140.51 1197,-140.51 1197,-119.51 1089,-119.51"/>
<text text-anchor="start" x="1136" y="-126.31" font-family="Times,serif" font-size="14.00">id</text>
<polygon fill="none" stroke="black" points="544,-98.51 544,-119.51 833,-119.51 833,-98.51 544,-98.51"/>
<text text-anchor="start" x="547" y="-105.31" font-family="Times,serif" font-size="14.00">(start_primary_grain * _root.len_sector)</text>
<polygon fill="none" stroke="black" points="833,-98.51 833,-119.51 1051,-119.51 1051,-98.51 833,-98.51"/>
<text text-anchor="start" x="836" y="-105.31" font-family="Times,serif" font-size="14.00">(size_grain * _root.len_sector)</text>
<polygon fill="none" stroke="black" points="1051,-98.51 1051,-119.51 1089,-119.51 1089,-98.51 1051,-98.51"/>
<polygon fill="none" stroke="black" points="1089,-98.51 1089,-119.51 1197,-119.51 1197,-98.51 1089,-98.51"/>
<text text-anchor="start" x="1092" y="-105.31" font-family="Times,serif" font-size="14.00">grain_primary</text>
</g>
<!-- vmware_vmdk__seq&#45;&gt;vmware_vmdk__inst__grain_primary -->
<g id="edge6" class="edge">
<title>vmware_vmdk__seq:start_primary_grain_type&#45;&gt;vmware_vmdk__inst__grain_primary:grain_primary_pos</title>
<path fill="none" stroke="#404040" d="M477,-192.51C520.58,-192.51 499.76,-121.73 532.77,-110.12"/>
<polygon fill="#404040" stroke="#404040" points="533.66,-113.52 543,-108.51 532.58,-106.61 533.66,-113.52"/>
</g>
<!-- vmware_vmdk__seq&#45;&gt;vmware_vmdk__inst__grain_primary -->
<g id="edge8" class="edge">
<title>vmware_vmdk__seq:size_grain_type&#45;&gt;vmware_vmdk__inst__grain_primary:grain_primary_size</title>
<path fill="none" stroke="#404040" d="M477,-298.51C569.61,-298.51 461.46,-154.15 535.5,-98.51 543.68,-92.37 870.89,-87.27 932.17,-94.77"/>
<polygon fill="#404040" stroke="#404040" points="931.43,-98.2 942,-97.51 933.31,-91.45 931.43,-98.2"/>
</g>
<!-- vmware_vmdk__inst__grain_secondary -->
<g id="node5" class="node">
<title>vmware_vmdk__inst__grain_secondary</title>
<polygon fill="#e0ffe0" stroke="transparent" points="528,-187.51 528,-208.51 832,-208.51 832,-187.51 528,-187.51"/>
<polygon fill="none" stroke="black" points="528,-187.51 528,-208.51 832,-208.51 832,-187.51 528,-187.51"/>
<text text-anchor="start" x="667.5" y="-194.31" font-family="Times,serif" font-size="14.00">pos</text>
<polygon fill="#e0ffe0" stroke="transparent" points="832,-187.51 832,-208.51 1050,-208.51 1050,-187.51 832,-187.51"/>
<polygon fill="none" stroke="black" points="832,-187.51 832,-208.51 1050,-208.51 1050,-187.51 832,-187.51"/>
<text text-anchor="start" x="927" y="-194.31" font-family="Times,serif" font-size="14.00">size</text>
<polygon fill="#e0ffe0" stroke="transparent" points="1050,-187.51 1050,-208.51 1088,-208.51 1088,-187.51 1050,-187.51"/>
<polygon fill="none" stroke="black" points="1050,-187.51 1050,-208.51 1088,-208.51 1088,-187.51 1050,-187.51"/>
<text text-anchor="start" x="1053" y="-194.31" font-family="Times,serif" font-size="14.00">type</text>
<polygon fill="#e0ffe0" stroke="transparent" points="1088,-187.51 1088,-208.51 1212,-208.51 1212,-187.51 1088,-187.51"/>
<polygon fill="none" stroke="black" points="1088,-187.51 1088,-208.51 1212,-208.51 1212,-187.51 1088,-187.51"/>
<text text-anchor="start" x="1143" y="-194.31" font-family="Times,serif" font-size="14.00">id</text>
<polygon fill="none" stroke="black" points="528,-166.51 528,-187.51 832,-187.51 832,-166.51 528,-166.51"/>
<text text-anchor="start" x="531" y="-173.31" font-family="Times,serif" font-size="14.00">(start_secondary_grain * _root.len_sector)</text>
<polygon fill="none" stroke="black" points="832,-166.51 832,-187.51 1050,-187.51 1050,-166.51 832,-166.51"/>
<text text-anchor="start" x="835" y="-173.31" font-family="Times,serif" font-size="14.00">(size_grain * _root.len_sector)</text>
<polygon fill="none" stroke="black" points="1050,-166.51 1050,-187.51 1088,-187.51 1088,-166.51 1050,-166.51"/>
<polygon fill="none" stroke="black" points="1088,-166.51 1088,-187.51 1212,-187.51 1212,-166.51 1088,-166.51"/>
<text text-anchor="start" x="1091" y="-173.31" font-family="Times,serif" font-size="14.00">grain_secondary</text>
</g>
<!-- vmware_vmdk__seq&#45;&gt;vmware_vmdk__inst__grain_secondary -->
<g id="edge10" class="edge">
<title>vmware_vmdk__seq:start_secondary_grain_type&#45;&gt;vmware_vmdk__inst__grain_secondary:grain_secondary_pos</title>
<path fill="none" stroke="#404040" d="M477,-213.51C500.76,-213.51 500.19,-186.19 517.11,-178.5"/>
<polygon fill="#404040" stroke="#404040" points="517.89,-181.92 527,-176.51 516.51,-175.06 517.89,-181.92"/>
</g>
<!-- vmware_vmdk__seq&#45;&gt;vmware_vmdk__inst__grain_secondary -->
<g id="edge12" class="edge">
<title>vmware_vmdk__seq:size_grain_type&#45;&gt;vmware_vmdk__inst__grain_secondary:grain_secondary_size</title>
<path fill="none" stroke="#404040" d="M477,-298.51C538.7,-298.51 470.11,-202.82 520,-166.51 528.59,-160.27 868.83,-154.9 931.23,-162.72"/>
<polygon fill="#404040" stroke="#404040" points="930.42,-166.13 941,-165.51 932.35,-159.4 930.42,-166.13"/>
</g>
<!-- header_flags__seq -->
<g id="node6" class="node">
<title>header_flags__seq</title>
<polygon fill="#e0ffe0" stroke="transparent" points="637,-423.51 637,-444.51 668,-444.51 668,-423.51 637,-423.51"/>
<polygon fill="none" stroke="black" points="637,-423.51 637,-444.51 668,-444.51 668,-423.51 637,-423.51"/>
<text text-anchor="start" x="640" y="-430.31" font-family="Times,serif" font-size="14.00">pos</text>
<polygon fill="#e0ffe0" stroke="transparent" points="668,-423.51 668,-444.51 702,-444.51 702,-423.51 668,-423.51"/>
<polygon fill="none" stroke="black" points="668,-423.51 668,-444.51 702,-444.51 702,-423.51 668,-423.51"/>
<text text-anchor="start" x="671" y="-430.31" font-family="Times,serif" font-size="14.00">size</text>
<polygon fill="#e0ffe0" stroke="transparent" points="702,-423.51 702,-444.51 886,-444.51 886,-423.51 702,-423.51"/>
<polygon fill="none" stroke="black" points="702,-423.51 702,-444.51 886,-444.51 886,-423.51 702,-423.51"/>
<text text-anchor="start" x="778" y="-430.31" font-family="Times,serif" font-size="14.00">type</text>
<polygon fill="#e0ffe0" stroke="transparent" points="886,-423.51 886,-444.51 1104,-444.51 1104,-423.51 886,-423.51"/>
<polygon fill="none" stroke="black" points="886,-423.51 886,-444.51 1104,-444.51 1104,-423.51 886,-423.51"/>
<text text-anchor="start" x="988" y="-430.31" font-family="Times,serif" font-size="14.00">id</text>
<polygon fill="none" stroke="black" points="637,-402.51 637,-423.51 668,-423.51 668,-402.51 637,-402.51"/>
<text text-anchor="start" x="647.5" y="-409.31" font-family="Times,serif" font-size="14.00">0</text>
<polygon fill="none" stroke="black" points="668,-402.51 668,-423.51 702,-423.51 702,-402.51 668,-402.51"/>
<text text-anchor="start" x="675.5" y="-409.31" font-family="Times,serif" font-size="14.00">5b</text>
<polygon fill="none" stroke="black" points="702,-402.51 702,-423.51 886,-423.51 886,-402.51 702,-402.51"/>
<text text-anchor="start" x="784.5" y="-409.31" font-family="Times,serif" font-size="14.00">b5</text>
<polygon fill="none" stroke="black" points="886,-402.51 886,-423.51 1104,-423.51 1104,-402.51 886,-402.51"/>
<text text-anchor="start" x="958.5" y="-409.31" font-family="Times,serif" font-size="14.00">reserved1</text>
<polygon fill="none" stroke="black" points="637,-381.51 637,-402.51 668,-402.51 668,-381.51 637,-381.51"/>
<text text-anchor="start" x="641" y="-388.31" font-family="Times,serif" font-size="14.00">0:5</text>
<polygon fill="none" stroke="black" points="668,-381.51 668,-402.51 702,-402.51 702,-381.51 668,-381.51"/>
<text text-anchor="start" x="675.5" y="-388.31" font-family="Times,serif" font-size="14.00">1b</text>
<polygon fill="none" stroke="black" points="702,-381.51 702,-402.51 886,-402.51 886,-381.51 702,-381.51"/>
<text text-anchor="start" x="705" y="-388.31" font-family="Times,serif" font-size="14.00">BitsType1(BigBitEndian)</text>
<polygon fill="none" stroke="black" points="886,-381.51 886,-402.51 1104,-402.51 1104,-381.51 886,-381.51"/>
<text text-anchor="start" x="904.5" y="-388.31" font-family="Times,serif" font-size="14.00">zeroed_grain_table_entry</text>
<polygon fill="none" stroke="black" points="637,-360.51 637,-381.51 668,-381.51 668,-360.51 637,-360.51"/>
<text text-anchor="start" x="641" y="-367.31" font-family="Times,serif" font-size="14.00">0:6</text>
<polygon fill="none" stroke="black" points="668,-360.51 668,-381.51 702,-381.51 702,-360.51 668,-360.51"/>
<text text-anchor="start" x="675.5" y="-367.31" font-family="Times,serif" font-size="14.00">1b</text>
<polygon fill="none" stroke="black" points="702,-360.51 702,-381.51 886,-381.51 886,-360.51 702,-360.51"/>
<text text-anchor="start" x="705" y="-367.31" font-family="Times,serif" font-size="14.00">BitsType1(BigBitEndian)</text>
<polygon fill="none" stroke="black" points="886,-360.51 886,-381.51 1104,-381.51 1104,-360.51 886,-360.51"/>
<text text-anchor="start" x="907" y="-367.31" font-family="Times,serif" font-size="14.00">use_secondary_grain_dir</text>
<polygon fill="none" stroke="black" points="637,-339.51 637,-360.51 668,-360.51 668,-339.51 637,-339.51"/>
<text text-anchor="start" x="641" y="-346.31" font-family="Times,serif" font-size="14.00">0:7</text>
<polygon fill="none" stroke="black" points="668,-339.51 668,-360.51 702,-360.51 702,-339.51 668,-339.51"/>
<text text-anchor="start" x="675.5" y="-346.31" font-family="Times,serif" font-size="14.00">1b</text>
<polygon fill="none" stroke="black" points="702,-339.51 702,-360.51 886,-360.51 886,-339.51 702,-339.51"/>
<text text-anchor="start" x="705" y="-346.31" font-family="Times,serif" font-size="14.00">BitsType1(BigBitEndian)</text>
<polygon fill="none" stroke="black" points="886,-339.51 886,-360.51 1104,-360.51 1104,-339.51 886,-339.51"/>
<text text-anchor="start" x="889" y="-346.31" font-family="Times,serif" font-size="14.00">valid_new_line_detection_test</text>
<polygon fill="none" stroke="black" points="637,-318.51 637,-339.51 668,-339.51 668,-318.51 637,-318.51"/>
<text text-anchor="start" x="647.5" y="-325.31" font-family="Times,serif" font-size="14.00">1</text>
<polygon fill="none" stroke="black" points="668,-318.51 668,-339.51 702,-339.51 702,-318.51 668,-318.51"/>
<text text-anchor="start" x="680" y="-325.31" font-family="Times,serif" font-size="14.00">1</text>
<polygon fill="none" stroke="black" points="702,-318.51 702,-339.51 886,-339.51 886,-318.51 702,-318.51"/>
<text text-anchor="start" x="784.5" y="-325.31" font-family="Times,serif" font-size="14.00">u1</text>
<polygon fill="none" stroke="black" points="886,-318.51 886,-339.51 1104,-339.51 1104,-318.51 886,-318.51"/>
<text text-anchor="start" x="958.5" y="-325.31" font-family="Times,serif" font-size="14.00">reserved2</text>
<polygon fill="none" stroke="black" points="637,-297.51 637,-318.51 668,-318.51 668,-297.51 637,-297.51"/>
<text text-anchor="start" x="647.5" y="-304.31" font-family="Times,serif" font-size="14.00">2</text>
<polygon fill="none" stroke="black" points="668,-297.51 668,-318.51 702,-318.51 702,-297.51 668,-297.51"/>
<text text-anchor="start" x="675.5" y="-304.31" font-family="Times,serif" font-size="14.00">6b</text>
<polygon fill="none" stroke="black" points="702,-297.51 702,-318.51 886,-318.51 886,-297.51 702,-297.51"/>
<text text-anchor="start" x="784.5" y="-304.31" font-family="Times,serif" font-size="14.00">b6</text>
<polygon fill="none" stroke="black" points="886,-297.51 886,-318.51 1104,-318.51 1104,-297.51 886,-297.51"/>
<text text-anchor="start" x="958.5" y="-304.31" font-family="Times,serif" font-size="14.00">reserved3</text>
<polygon fill="none" stroke="black" points="637,-276.51 637,-297.51 668,-297.51 668,-276.51 637,-276.51"/>
<text text-anchor="start" x="641" y="-283.31" font-family="Times,serif" font-size="14.00">2:6</text>
<polygon fill="none" stroke="black" points="668,-276.51 668,-297.51 702,-297.51 702,-276.51 668,-276.51"/>
<text text-anchor="start" x="675.5" y="-283.31" font-family="Times,serif" font-size="14.00">1b</text>
<polygon fill="none" stroke="black" points="702,-276.51 702,-297.51 886,-297.51 886,-276.51 702,-276.51"/>
<text text-anchor="start" x="705" y="-283.31" font-family="Times,serif" font-size="14.00">BitsType1(BigBitEndian)</text>
<polygon fill="none" stroke="black" points="886,-276.51 886,-297.51 1104,-297.51 1104,-276.51 886,-276.51"/>
<text text-anchor="start" x="945" y="-283.31" font-family="Times,serif" font-size="14.00">has_metadata</text>
<polygon fill="none" stroke="black" points="637,-255.51 637,-276.51 668,-276.51 668,-255.51 637,-255.51"/>
<text text-anchor="start" x="641" y="-262.31" font-family="Times,serif" font-size="14.00">2:7</text>
<polygon fill="none" stroke="black" points="668,-255.51 668,-276.51 702,-276.51 702,-255.51 668,-255.51"/>
<text text-anchor="start" x="675.5" y="-262.31" font-family="Times,serif" font-size="14.00">1b</text>
<polygon fill="none" stroke="black" points="702,-255.51 702,-276.51 886,-276.51 886,-255.51 702,-255.51"/>
<text text-anchor="start" x="705" y="-262.31" font-family="Times,serif" font-size="14.00">BitsType1(BigBitEndian)</text>
<polygon fill="none" stroke="black" points="886,-255.51 886,-276.51 1104,-276.51 1104,-255.51 886,-255.51"/>
<text text-anchor="start" x="914" y="-262.31" font-family="Times,serif" font-size="14.00">has_compressed_grain</text>
<polygon fill="none" stroke="black" points="637,-234.51 637,-255.51 668,-255.51 668,-234.51 637,-234.51"/>
<text text-anchor="start" x="647.5" y="-241.31" font-family="Times,serif" font-size="14.00">3</text>
<polygon fill="none" stroke="black" points="668,-234.51 668,-255.51 702,-255.51 702,-234.51 668,-234.51"/>
<text text-anchor="start" x="680" y="-241.31" font-family="Times,serif" font-size="14.00">1</text>
<polygon fill="none" stroke="black" points="702,-234.51 702,-255.51 886,-255.51 886,-234.51 702,-234.51"/>
<text text-anchor="start" x="784.5" y="-241.31" font-family="Times,serif" font-size="14.00">u1</text>
<polygon fill="none" stroke="black" points="886,-234.51 886,-255.51 1104,-255.51 1104,-234.51 886,-234.51"/>
<text text-anchor="start" x="958.5" y="-241.31" font-family="Times,serif" font-size="14.00">reserved4</text>
</g>
<!-- vmware_vmdk__seq&#45;&gt;header_flags__seq -->
<g id="edge1" class="edge">
<title>vmware_vmdk__seq:flags_type&#45;&gt;header_flags__seq</title>
<path fill="none" stroke="black" stroke-width="2" d="M477,-340.51C522.57,-340.51 571.12,-340.45 617.98,-340.35"/>
<polygon fill="black" stroke="black" stroke-width="2" points="618.27,-343.84 628.26,-340.32 618.25,-336.84 618.27,-343.84"/>
</g>
<!-- vmware_vmdk__inst__len_sector -->
<g id="node2" class="node">
<title>vmware_vmdk__inst__len_sector</title>
<polygon fill="#e0ffe0" stroke="transparent" points="188,-51.51 188,-72.51 267,-72.51 267,-51.51 188,-51.51"/>
<polygon fill="none" stroke="black" points="188,-51.51 188,-72.51 267,-72.51 267,-51.51 188,-51.51"/>
<text text-anchor="start" x="220.5" y="-58.31" font-family="Times,serif" font-size="14.00">id</text>
<polygon fill="#e0ffe0" stroke="transparent" points="267,-51.51 267,-72.51 312,-72.51 312,-51.51 267,-51.51"/>
<polygon fill="none" stroke="black" points="267,-51.51 267,-72.51 312,-72.51 312,-51.51 267,-51.51"/>
<text text-anchor="start" x="270" y="-58.31" font-family="Times,serif" font-size="14.00">value</text>
<polygon fill="none" stroke="black" points="188,-30.51 188,-51.51 267,-51.51 267,-30.51 188,-30.51"/>
<text text-anchor="start" x="191" y="-37.31" font-family="Times,serif" font-size="14.00">len_sector</text>
<polygon fill="none" stroke="black" points="267,-30.51 267,-51.51 312,-51.51 312,-30.51 267,-30.51"/>
<text text-anchor="start" x="275.5" y="-37.31" font-family="Times,serif" font-size="14.00">512</text>
</g>
<!-- vmware_vmdk__inst__len_sector&#45;&gt;vmware_vmdk__inst__descriptor -->
<g id="edge3" class="edge">
<title>vmware_vmdk__inst__len_sector:len_sector_type&#45;&gt;vmware_vmdk__inst__descriptor:descriptor_pos</title>
<path fill="none" stroke="#404040" d="M320.24,-47.56C378.81,-44.54 465.3,-40.85 542.64,-40.54"/>
<polygon fill="#404040" stroke="#404040" points="543.01,-44.04 553,-40.51 542.99,-37.04 543.01,-44.04"/>
</g>
<!-- vmware_vmdk__inst__len_sector&#45;&gt;vmware_vmdk__inst__descriptor -->
<g id="edge5" class="edge">
<title>vmware_vmdk__inst__len_sector:len_sector_type&#45;&gt;vmware_vmdk__inst__descriptor:descriptor_size</title>
<path fill="none" stroke="#404040" d="M320.1,-42.21C485.19,-20.83 892.25,26.49 937.83,-20.09"/>
<polygon fill="#404040" stroke="#404040" points="934.75,-21.79 942,-29.51 941.16,-18.95 934.75,-21.79"/>
</g>
<!-- vmware_vmdk__inst__len_sector&#45;&gt;vmware_vmdk__inst__grain_primary -->
<g id="edge7" class="edge">
<title>vmware_vmdk__inst__len_sector:len_sector_type&#45;&gt;vmware_vmdk__inst__grain_primary:grain_primary_pos</title>
<path fill="none" stroke="#404040" d="M320.06,-58.08C366.83,-63.45 429.74,-72.49 484,-86.51 507.5,-92.59 513.56,-104.67 533.01,-107.78"/>
<polygon fill="#404040" stroke="#404040" points="532.77,-111.27 543,-108.51 533.29,-104.29 532.77,-111.27"/>
</g>
<!-- vmware_vmdk__inst__len_sector&#45;&gt;vmware_vmdk__inst__grain_primary -->
<g id="edge9" class="edge">
<title>vmware_vmdk__inst__len_sector:len_sector_type&#45;&gt;vmware_vmdk__inst__grain_primary:grain_primary_size</title>
<path fill="none" stroke="#404040" d="M320.2,-62.14C374.42,-70.01 451.83,-80.25 520,-85.51 530.62,-86.33 870.03,-85.89 932.25,-94.59"/>
<polygon fill="#404040" stroke="#404040" points="931.42,-97.99 942,-97.51 933.43,-91.29 931.42,-97.99"/>
</g>
<!-- vmware_vmdk__inst__len_sector&#45;&gt;vmware_vmdk__inst__grain_secondary -->
<g id="edge11" class="edge">
<title>vmware_vmdk__inst__len_sector:len_sector_type&#45;&gt;vmware_vmdk__inst__grain_secondary:grain_secondary_pos</title>
<path fill="none" stroke="#404040" d="M320.16,-45.61C370.26,-44.92 437.14,-51.84 484,-86.51 516.43,-110.52 488.73,-165.38 516.91,-175.05"/>
<polygon fill="#404040" stroke="#404040" points="516.6,-178.54 527,-176.51 517.61,-171.61 516.6,-178.54"/>
</g>
<!-- vmware_vmdk__inst__len_sector&#45;&gt;vmware_vmdk__inst__grain_secondary -->
<g id="edge13" class="edge">
<title>vmware_vmdk__inst__len_sector:len_sector_type&#45;&gt;vmware_vmdk__inst__grain_secondary:grain_secondary_size</title>
<path fill="none" stroke="#404040" d="M320.21,-46.26C370.01,-45.97 436.5,-53.08 484,-86.51 511.64,-105.97 491.24,-135.76 520,-153.51 538.16,-164.73 873.44,-146 932.24,-160.38"/>
<polygon fill="#404040" stroke="#404040" points="930.6,-163.48 941,-165.51 934.14,-157.44 930.6,-163.48"/>
</g>
</g>
</svg>
