<?xml version="1.0" encoding="UTF-8" standalone="no"?>
<!DOCTYPE svg PUBLIC "-//W3C//DTD SVG 1.1//EN"
 "http://www.w3.org/Graphics/SVG/1.1/DTD/svg11.dtd">
<!-- Generated by graphviz version 2.40.1 (20161225.0304)
 -->
<!-- Title: %3 Pages: 1 -->
<svg width="570pt" height="192pt"
 viewBox="0.00 0.00 570.00 192.00" xmlns="http://www.w3.org/2000/svg" xmlns:xlink="http://www.w3.org/1999/xlink">
<g id="graph0" class="graph" transform="scale(1 1) rotate(0) translate(4 188)">
<title>%3</title>
<polygon fill="#ffffff" stroke="transparent" points="-4,4 -4,-188 566,-188 566,4 -4,4"/>
<g id="clust1" class="cluster">
<title>cluster__code_6502</title>
<polygon fill="none" stroke="#000000" stroke-dasharray="1,5" points="8,-8 8,-176 554,-176 554,-8 8,-8"/>
<text text-anchor="middle" x="281" y="-160.8" font-family="Times,serif" font-size="14.00" fill="#000000">Code6502</text>
</g>
<g id="clust2" class="cluster">
<title>cluster__operation</title>
<polygon fill="none" stroke="#000000" stroke-dasharray="1,5" points="237,-16 237,-145 546,-145 546,-16 237,-16"/>
<text text-anchor="middle" x="391.5" y="-129.8" font-family="Times,serif" font-size="14.00" fill="#000000">Code6502::Operation</text>
</g>
<!-- code_6502__seq -->
<g id="node1" class="node">
<title>code_6502__seq</title>
<polygon fill="#e0ffe0" stroke="transparent" points="24.5,-71 24.5,-92 49.5,-92 49.5,-71 24.5,-71"/>
<polygon fill="none" stroke="#000000" points="24.5,-71 24.5,-92 49.5,-92 49.5,-71 24.5,-71"/>
<text text-anchor="start" x="27.5" y="-77.8" font-family="Times,serif" font-size="14.00" fill="#000000">pos</text>
<polygon fill="#e0ffe0" stroke="transparent" points="49.5,-71 49.5,-92 77.5,-92 77.5,-71 49.5,-71"/>
<polygon fill="none" stroke="#000000" points="49.5,-71 49.5,-92 77.5,-92 77.5,-71 49.5,-71"/>
<text text-anchor="start" x="52.5" y="-77.8" font-family="Times,serif" font-size="14.00" fill="#000000">size</text>
<polygon fill="#e0ffe0" stroke="transparent" points="77.5,-71 77.5,-92 138.5,-92 138.5,-71 77.5,-71"/>
<polygon fill="none" stroke="#000000" points="77.5,-71 77.5,-92 138.5,-92 138.5,-71 77.5,-71"/>
<text text-anchor="start" x="96" y="-77.8" font-family="Times,serif" font-size="14.00" fill="#000000">type</text>
<polygon fill="#e0ffe0" stroke="transparent" points="138.5,-71 138.5,-92 201.5,-92 201.5,-71 138.5,-71"/>
<polygon fill="none" stroke="#000000" points="138.5,-71 138.5,-92 201.5,-92 201.5,-71 138.5,-71"/>
<text text-anchor="start" x="164.5" y="-77.8" font-family="Times,serif" font-size="14.00" fill="#000000">id</text>
<polygon fill="none" stroke="#000000" points="24.5,-50 24.5,-71 49.5,-71 49.5,-50 24.5,-50"/>
<text text-anchor="start" x="33.5" y="-56.8" font-family="Times,serif" font-size="14.00" fill="#000000">0</text>
<polygon fill="none" stroke="#000000" points="49.5,-50 49.5,-71 77.5,-71 77.5,-50 49.5,-50"/>
<text text-anchor="start" x="57.5" y="-56.8" font-family="Times,serif" font-size="14.00" fill="#000000">...</text>
<polygon fill="none" stroke="#000000" points="77.5,-50 77.5,-71 138.5,-71 138.5,-50 77.5,-50"/>
<text text-anchor="start" x="80.5" y="-56.8" font-family="Times,serif" font-size="14.00" fill="#000000">Operation</text>
<polygon fill="none" stroke="#000000" points="138.5,-50 138.5,-71 201.5,-71 201.5,-50 138.5,-50"/>
<text text-anchor="start" x="141.5" y="-56.8" font-family="Times,serif" font-size="14.00" fill="#000000">operations</text>
<polygon fill="none" stroke="#000000" points="24.5,-29 24.5,-50 201.5,-50 201.5,-29 24.5,-29"/>
<text text-anchor="start" x="49.5" y="-35.8" font-family="Times,serif" font-size="14.00" fill="#000000">repeat to end of stream</text>
</g>
<!-- operation__seq -->
<g id="node2" class="node">
<title>operation__seq</title>
<polygon fill="#e0ffe0" stroke="transparent" points="253.5,-70 253.5,-91 278.5,-91 278.5,-70 253.5,-70"/>
<polygon fill="none" stroke="#000000" points="253.5,-70 253.5,-91 278.5,-91 278.5,-70 253.5,-70"/>
<text text-anchor="start" x="256.5" y="-76.8" font-family="Times,serif" font-size="14.00" fill="#000000">pos</text>
<polygon fill="#e0ffe0" stroke="transparent" points="278.5,-70 278.5,-91 306.5,-91 306.5,-70 278.5,-70"/>
<polygon fill="none" stroke="#000000" points="278.5,-70 278.5,-91 306.5,-91 306.5,-70 278.5,-70"/>
<text text-anchor="start" x="281.5" y="-76.8" font-family="Times,serif" font-size="14.00" fill="#000000">size</text>
<polygon fill="#e0ffe0" stroke="transparent" points="306.5,-70 306.5,-91 386.5,-91 386.5,-70 306.5,-70"/>
<polygon fill="none" stroke="#000000" points="306.5,-70 306.5,-91 386.5,-91 386.5,-70 306.5,-70"/>
<text text-anchor="start" x="334.5" y="-76.8" font-family="Times,serif" font-size="14.00" fill="#000000">type</text>
<polygon fill="#e0ffe0" stroke="transparent" points="386.5,-70 386.5,-91 418.5,-91 418.5,-70 386.5,-70"/>
<polygon fill="none" stroke="#000000" points="386.5,-70 386.5,-91 418.5,-91 418.5,-70 386.5,-70"/>
<text text-anchor="start" x="397" y="-76.8" font-family="Times,serif" font-size="14.00" fill="#000000">id</text>
<polygon fill="none" stroke="#000000" points="253.5,-49 253.5,-70 278.5,-70 278.5,-49 253.5,-49"/>
<text text-anchor="start" x="262.5" y="-55.8" font-family="Times,serif" font-size="14.00" fill="#000000">0</text>
<polygon fill="none" stroke="#000000" points="278.5,-49 278.5,-70 306.5,-70 306.5,-49 278.5,-49"/>
<text text-anchor="start" x="289" y="-55.8" font-family="Times,serif" font-size="14.00" fill="#000000">1</text>
<polygon fill="none" stroke="#000000" points="306.5,-49 306.5,-70 386.5,-70 386.5,-49 306.5,-49"/>
<text text-anchor="start" x="311.5" y="-55.8" font-family="Times,serif" font-size="14.00" fill="#000000">u1→Opcode</text>
<polygon fill="none" stroke="#000000" points="386.5,-49 386.5,-70 418.5,-70 418.5,-49 386.5,-49"/>
<text text-anchor="start" x="389.5" y="-55.8" font-family="Times,serif" font-size="14.00" fill="#000000">code</text>
<polygon fill="none" stroke="#000000" points="253.5,-28 253.5,-49 278.5,-49 278.5,-28 253.5,-28"/>
<text text-anchor="start" x="262.5" y="-34.8" font-family="Times,serif" font-size="14.00" fill="#000000">1</text>
<polygon fill="none" stroke="#000000" points="278.5,-28 278.5,-49 306.5,-49 306.5,-28 278.5,-28"/>
<text text-anchor="start" x="286.5" y="-34.8" font-family="Times,serif" font-size="14.00" fill="#000000">...</text>
<polygon fill="none" stroke="#000000" points="306.5,-28 306.5,-49 386.5,-49 386.5,-28 306.5,-28"/>
<text text-anchor="start" x="309.5" y="-34.8" font-family="Times,serif" font-size="14.00" fill="#000000">switch (code)</text>
<polygon fill="none" stroke="#000000" points="386.5,-28 386.5,-49 418.5,-49 418.5,-28 386.5,-28"/>
<text text-anchor="start" x="391" y="-34.8" font-family="Times,serif" font-size="14.00" fill="#000000">args</text>
</g>
<!-- code_6502__seq&#45;&gt;operation__seq -->
<g id="edge1" class="edge">
<title>code_6502__seq:operations_type&#45;&gt;operation__seq</title>
<path fill="none" stroke="#000000" stroke-width="2" d="M201.5,-60C212.1868,-60 223.3531,-60 234.4826,-60"/>
<polygon fill="#000000" stroke="#000000" stroke-width="2" points="234.6785,-63.5001 244.6785,-60 234.6784,-56.5001 234.6785,-63.5001"/>
</g>
<!-- operation__seq&#45;&gt;operation__seq -->
<g id="edge3" class="edge">
<title>operation__seq:code_type&#45;&gt;operation__seq:args_type</title>
<path fill="none" stroke="#404040" d="M386.2842,-68.5271C362.501,-87.3965 367.9063,-113.5 402.5,-113.5 433.4452,-113.5 441.0342,-80.6494 425.2669,-56.8693"/>
<polygon fill="#404040" stroke="#404040" points="427.7715,-54.4045 418.7158,-48.9049 422.3654,-58.8514 427.7715,-54.4045"/>
</g>
<!-- operation__seq_args_switch -->
<g id="node3" class="node">
<title>operation__seq_args_switch</title>
<polygon fill="#f0f2e4" stroke="transparent" points="470,-31 470,-52 500,-52 500,-31 470,-31"/>
<polygon fill="none" stroke="#000000" points="470,-31 470,-52 500,-52 500,-31 470,-31"/>
<text text-anchor="start" x="473" y="-37.8" font-family="Times,serif" font-size="14.00" fill="#000000">case</text>
<polygon fill="#f0f2e4" stroke="transparent" points="500,-31 500,-52 530,-52 530,-31 500,-31"/>
<polygon fill="none" stroke="#000000" points="500,-31 500,-52 530,-52 530,-31 500,-31"/>
<text text-anchor="start" x="503" y="-37.8" font-family="Times,serif" font-size="14.00" fill="#000000">type</text>
</g>
<!-- operation__seq&#45;&gt;operation__seq_args_switch -->
<g id="edge2" class="edge">
<title>operation__seq:args_type&#45;&gt;operation__seq_args_switch</title>
<path fill="none" stroke="#000000" stroke-width="2" d="M418.5,-38C429.2354,-38 440.7567,-38.3505 451.6579,-38.844"/>
<polygon fill="#000000" stroke="#000000" stroke-width="2" points="451.7115,-42.351 461.8737,-39.3542 452.0607,-35.3597 451.7115,-42.351"/>
</g>
</g>
</svg>
