<?xml version="1.0" encoding="UTF-8" standalone="no"?>
<!DOCTYPE svg PUBLIC "-//W3C//DTD SVG 1.1//EN"
 "http://www.w3.org/Graphics/SVG/1.1/DTD/svg11.dtd">
<!-- Generated by graphviz version 2.43.0 (0)
 -->
<!-- Title: %3 Pages: 1 -->
<svg width="675pt" height="192pt"
 viewBox="0.00 0.00 675.00 192.00" xmlns="http://www.w3.org/2000/svg" xmlns:xlink="http://www.w3.org/1999/xlink">
<g id="graph0" class="graph" transform="scale(1 1) rotate(0) translate(4 188)">
<title>%3</title>
<polygon fill="white" stroke="transparent" points="-4,4 -4,-188 671,-188 671,4 -4,4"/>
<g id="clust1" class="cluster">
<title>cluster__code_6502</title>
<polygon fill="none" stroke="black" stroke-dasharray="1,5" points="8,-8 8,-176 659,-176 659,-8 8,-8"/>
<text text-anchor="middle" x="333.5" y="-160.8" font-family="Times,serif" font-size="14.00">Code6502</text>
</g>
<g id="clust2" class="cluster">
<title>cluster__operation</title>
<polygon fill="none" stroke="black" stroke-dasharray="1,5" points="285,-16 285,-145 651,-145 651,-16 285,-16"/>
<text text-anchor="middle" x="468" y="-129.8" font-family="Times,serif" font-size="14.00">Code6502::Operation</text>
</g>
<!-- code_6502__seq -->
<g id="node1" class="node">
<title>code_6502__seq</title>
<polygon fill="#e0ffe0" stroke="transparent" points="24.5,-71 24.5,-92 55.5,-92 55.5,-71 24.5,-71"/>
<polygon fill="none" stroke="black" points="24.5,-71 24.5,-92 55.5,-92 55.5,-71 24.5,-71"/>
<text text-anchor="start" x="27.5" y="-77.8" font-family="Times,serif" font-size="14.00">pos</text>
<polygon fill="#e0ffe0" stroke="transparent" points="55.5,-71 55.5,-92 89.5,-92 89.5,-71 55.5,-71"/>
<polygon fill="none" stroke="black" points="55.5,-71 55.5,-92 89.5,-92 89.5,-71 55.5,-71"/>
<text text-anchor="start" x="58.5" y="-77.8" font-family="Times,serif" font-size="14.00">size</text>
<polygon fill="#e0ffe0" stroke="transparent" points="89.5,-71 89.5,-92 167.5,-92 167.5,-71 89.5,-71"/>
<polygon fill="none" stroke="black" points="89.5,-71 89.5,-92 167.5,-92 167.5,-71 89.5,-71"/>
<text text-anchor="start" x="112.5" y="-77.8" font-family="Times,serif" font-size="14.00">type</text>
<polygon fill="#e0ffe0" stroke="transparent" points="167.5,-71 167.5,-92 249.5,-92 249.5,-71 167.5,-71"/>
<polygon fill="none" stroke="black" points="167.5,-71 167.5,-92 249.5,-92 249.5,-71 167.5,-71"/>
<text text-anchor="start" x="201.5" y="-77.8" font-family="Times,serif" font-size="14.00">id</text>
<polygon fill="none" stroke="black" points="24.5,-50 24.5,-71 55.5,-71 55.5,-50 24.5,-50"/>
<text text-anchor="start" x="35" y="-56.8" font-family="Times,serif" font-size="14.00">0</text>
<polygon fill="none" stroke="black" points="55.5,-50 55.5,-71 89.5,-71 89.5,-50 55.5,-50"/>
<text text-anchor="start" x="65.5" y="-56.8" font-family="Times,serif" font-size="14.00">...</text>
<polygon fill="none" stroke="black" points="89.5,-50 89.5,-71 167.5,-71 167.5,-50 89.5,-50"/>
<text text-anchor="start" x="92.5" y="-56.8" font-family="Times,serif" font-size="14.00">Operation</text>
<polygon fill="none" stroke="black" points="167.5,-50 167.5,-71 249.5,-71 249.5,-50 167.5,-50"/>
<text text-anchor="start" x="170.5" y="-56.8" font-family="Times,serif" font-size="14.00">operations</text>
<polygon fill="none" stroke="black" points="24.5,-29 24.5,-50 249.5,-50 249.5,-29 24.5,-29"/>
<text text-anchor="start" x="52.5" y="-35.8" font-family="Times,serif" font-size="14.00">repeat to end of stream</text>
</g>
<!-- operation__seq -->
<g id="node2" class="node">
<title>operation__seq</title>
<polygon fill="#e0ffe0" stroke="transparent" points="301,-70 301,-91 332,-91 332,-70 301,-70"/>
<polygon fill="none" stroke="black" points="301,-70 301,-91 332,-91 332,-70 301,-70"/>
<text text-anchor="start" x="304" y="-76.8" font-family="Times,serif" font-size="14.00">pos</text>
<polygon fill="#e0ffe0" stroke="transparent" points="332,-70 332,-91 366,-91 366,-70 332,-70"/>
<polygon fill="none" stroke="black" points="332,-70 332,-91 366,-91 366,-70 332,-70"/>
<text text-anchor="start" x="335" y="-76.8" font-family="Times,serif" font-size="14.00">size</text>
<polygon fill="#e0ffe0" stroke="transparent" points="366,-70 366,-91 467,-91 467,-70 366,-70"/>
<polygon fill="none" stroke="black" points="366,-70 366,-91 467,-91 467,-70 366,-70"/>
<text text-anchor="start" x="400.5" y="-76.8" font-family="Times,serif" font-size="14.00">type</text>
<polygon fill="#e0ffe0" stroke="transparent" points="467,-70 467,-91 507,-91 507,-70 467,-70"/>
<polygon fill="none" stroke="black" points="467,-70 467,-91 507,-91 507,-70 467,-70"/>
<text text-anchor="start" x="480" y="-76.8" font-family="Times,serif" font-size="14.00">id</text>
<polygon fill="none" stroke="black" points="301,-49 301,-70 332,-70 332,-49 301,-49"/>
<text text-anchor="start" x="311.5" y="-55.8" font-family="Times,serif" font-size="14.00">0</text>
<polygon fill="none" stroke="black" points="332,-49 332,-70 366,-70 366,-49 332,-49"/>
<text text-anchor="start" x="344" y="-55.8" font-family="Times,serif" font-size="14.00">1</text>
<polygon fill="none" stroke="black" points="366,-49 366,-70 467,-70 467,-49 366,-49"/>
<text text-anchor="start" x="374.5" y="-55.8" font-family="Times,serif" font-size="14.00">u1→Opcode</text>
<polygon fill="none" stroke="black" points="467,-49 467,-70 507,-70 507,-49 467,-49"/>
<text text-anchor="start" x="470" y="-55.8" font-family="Times,serif" font-size="14.00">code</text>
<polygon fill="none" stroke="black" points="301,-28 301,-49 332,-49 332,-28 301,-28"/>
<text text-anchor="start" x="311.5" y="-34.8" font-family="Times,serif" font-size="14.00">1</text>
<polygon fill="none" stroke="black" points="332,-28 332,-49 366,-49 366,-28 332,-28"/>
<text text-anchor="start" x="342" y="-34.8" font-family="Times,serif" font-size="14.00">...</text>
<polygon fill="none" stroke="black" points="366,-28 366,-49 467,-49 467,-28 366,-28"/>
<text text-anchor="start" x="369" y="-34.8" font-family="Times,serif" font-size="14.00">switch (code)</text>
<polygon fill="none" stroke="black" points="467,-28 467,-49 507,-49 507,-28 467,-28"/>
<text text-anchor="start" x="471" y="-34.8" font-family="Times,serif" font-size="14.00">args</text>
</g>
<!-- code_6502__seq&#45;&gt;operation__seq -->
<g id="edge1" class="edge">
<title>code_6502__seq:operations_type&#45;&gt;operation__seq</title>
<path fill="none" stroke="black" stroke-width="2" d="M250.5,-60C260.83,-60 271.56,-60 282.32,-60"/>
<polygon fill="black" stroke="black" stroke-width="2" points="282.63,-63.5 292.63,-60 282.63,-56.5 282.63,-63.5"/>
</g>
<!-- operation__seq&#45;&gt;operation__seq -->
<g id="edge3" class="edge">
<title>operation__seq:code_type&#45;&gt;operation__seq:args_type</title>
<path fill="none" stroke="#404040" d="M466.88,-69.32C440.35,-88.12 447.06,-113.5 487,-113.5 523.38,-113.5 532.18,-80.38 513.43,-56.58"/>
<polygon fill="#404040" stroke="#404040" points="515.82,-54.02 506.37,-49.23 510.77,-58.87 515.82,-54.02"/>
</g>
<!-- operation__seq_args_switch -->
<g id="node3" class="node">
<title>operation__seq_args_switch</title>
<polygon fill="#f0f2e4" stroke="transparent" points="559,-31 559,-52 597,-52 597,-31 559,-31"/>
<polygon fill="none" stroke="black" points="559,-31 559,-52 597,-52 597,-31 559,-31"/>
<text text-anchor="start" x="562" y="-37.8" font-family="Times,serif" font-size="14.00">case</text>
<polygon fill="#f0f2e4" stroke="transparent" points="597,-31 597,-52 635,-52 635,-31 597,-31"/>
<polygon fill="none" stroke="black" points="597,-31 597,-52 635,-52 635,-31 597,-31"/>
<text text-anchor="start" x="600" y="-37.8" font-family="Times,serif" font-size="14.00">type</text>
</g>
<!-- operation__seq&#45;&gt;operation__seq_args_switch -->
<g id="edge2" class="edge">
<title>operation__seq:args_type&#45;&gt;operation__seq_args_switch</title>
<path fill="none" stroke="black" stroke-width="2" d="M508,-38C518.55,-38 529.8,-38.29 540.61,-38.71"/>
<polygon fill="black" stroke="black" stroke-width="2" points="540.66,-42.22 550.8,-39.16 540.96,-35.23 540.66,-42.22"/>
</g>
</g>
</svg>
