<?xml version="1.0" encoding="UTF-8" standalone="no"?>
<!DOCTYPE svg PUBLIC "-//W3C//DTD SVG 1.1//EN"
 "http://www.w3.org/Graphics/SVG/1.1/DTD/svg11.dtd">
<!-- Generated by graphviz version 2.38.0 (20140413.2041)
 -->
<!-- Title: %3 Pages: 1 -->
<svg width="573pt" height="427pt"
 viewBox="0.00 0.00 573.00 427.00" xmlns="http://www.w3.org/2000/svg" xmlns:xlink="http://www.w3.org/1999/xlink">
<g id="graph0" class="graph" transform="scale(1 1) rotate(0) translate(4 423)">
<title>%3</title>
<polygon fill="white" stroke="none" points="-4,4 -4,-423 569,-423 569,4 -4,4"/>
<g id="clust1" class="cluster"><title>cluster__avantes_roh60</title>
<polygon fill="none" stroke="black" stroke-dasharray="1,5" points="175,-8 175,-411 557,-411 557,-8 175,-8"/>
<text text-anchor="middle" x="366" y="-395.8" font-family="Times,serif" font-size="14.00">AvantesRoh60</text>
</g>
<!-- avantes_roh60__seq -->
<g id="node1" class="node"><title>avantes_roh60__seq</title>
<polygon fill="#e0ffe0" stroke="none" points="191,-355 191,-376 301,-376 301,-355 191,-355"/>
<polygon fill="none" stroke="black" points="191,-355 191,-376 301,-376 301,-355 191,-355"/>
<text text-anchor="start" x="233.5" y="-361.8" font-family="Times,serif" font-size="14.00">pos</text>
<polygon fill="#e0ffe0" stroke="none" points="301,-355 301,-376 374,-376 374,-355 301,-355"/>
<polygon fill="none" stroke="black" points="301,-355 301,-376 374,-376 374,-355 301,-355"/>
<text text-anchor="start" x="323.5" y="-361.8" font-family="Times,serif" font-size="14.00">size</text>
<polygon fill="#e0ffe0" stroke="none" points="374,-355 374,-376 432,-376 432,-355 374,-355"/>
<polygon fill="none" stroke="black" points="374,-355 374,-376 432,-376 432,-355 374,-355"/>
<text text-anchor="start" x="387" y="-361.8" font-family="Times,serif" font-size="14.00">type</text>
<polygon fill="#e0ffe0" stroke="none" points="432,-355 432,-376 541,-376 541,-355 432,-355"/>
<polygon fill="none" stroke="black" points="432,-355 432,-376 541,-376 541,-355 432,-355"/>
<text text-anchor="start" x="479.5" y="-361.8" font-family="Times,serif" font-size="14.00">id</text>
<polygon fill="none" stroke="black" points="191,-334 191,-355 301,-355 301,-334 191,-334"/>
<text text-anchor="start" x="241" y="-340.8" font-family="Times,serif" font-size="14.00">0</text>
<polygon fill="none" stroke="black" points="301,-334 301,-355 374,-355 374,-334 301,-334"/>
<text text-anchor="start" x="332.5" y="-340.8" font-family="Times,serif" font-size="14.00">4</text>
<polygon fill="none" stroke="black" points="374,-334 374,-355 432,-355 432,-334 374,-334"/>
<text text-anchor="start" x="389" y="-340.8" font-family="Times,serif" font-size="14.00">f4le</text>
<polygon fill="none" stroke="black" points="432,-334 432,-355 541,-355 541,-334 432,-334"/>
<text text-anchor="start" x="449" y="-340.8" font-family="Times,serif" font-size="14.00">unknown1</text>
<polygon fill="none" stroke="black" points="191,-313 191,-334 301,-334 301,-313 191,-313"/>
<text text-anchor="start" x="241" y="-319.8" font-family="Times,serif" font-size="14.00">4</text>
<polygon fill="none" stroke="black" points="301,-313 301,-334 374,-334 374,-313 301,-313"/>
<text text-anchor="start" x="332.5" y="-319.8" font-family="Times,serif" font-size="14.00">4</text>
<polygon fill="none" stroke="black" points="374,-313 374,-334 432,-334 432,-313 374,-313"/>
<text text-anchor="start" x="389" y="-319.8" font-family="Times,serif" font-size="14.00">f4le</text>
<polygon fill="none" stroke="black" points="432,-313 432,-334 541,-334 541,-313 432,-313"/>
<text text-anchor="start" x="445" y="-319.8" font-family="Times,serif" font-size="14.00">wlintercept</text>
<polygon fill="none" stroke="black" points="191,-292 191,-313 301,-313 301,-292 191,-292"/>
<text text-anchor="start" x="241" y="-298.8" font-family="Times,serif" font-size="14.00">8</text>
<polygon fill="none" stroke="black" points="301,-292 301,-313 374,-313 374,-292 301,-292"/>
<text text-anchor="start" x="332.5" y="-298.8" font-family="Times,serif" font-size="14.00">4</text>
<polygon fill="none" stroke="black" points="374,-292 374,-313 432,-313 432,-292 374,-292"/>
<text text-anchor="start" x="389" y="-298.8" font-family="Times,serif" font-size="14.00">f4le</text>
<polygon fill="none" stroke="black" points="432,-292 432,-313 541,-313 541,-292 432,-292"/>
<text text-anchor="start" x="469.5" y="-298.8" font-family="Times,serif" font-size="14.00">wlx1</text>
<polygon fill="none" stroke="black" points="191,-271 191,-292 301,-292 301,-271 191,-271"/>
<text text-anchor="start" x="236.5" y="-277.8" font-family="Times,serif" font-size="14.00">12</text>
<polygon fill="none" stroke="black" points="301,-271 301,-292 374,-292 374,-271 301,-271"/>
<text text-anchor="start" x="332.5" y="-277.8" font-family="Times,serif" font-size="14.00">4</text>
<polygon fill="none" stroke="black" points="374,-271 374,-292 432,-292 432,-271 374,-271"/>
<text text-anchor="start" x="389" y="-277.8" font-family="Times,serif" font-size="14.00">f4le</text>
<polygon fill="none" stroke="black" points="432,-271 432,-292 541,-292 541,-271 432,-271"/>
<text text-anchor="start" x="469.5" y="-277.8" font-family="Times,serif" font-size="14.00">wlx2</text>
<polygon fill="none" stroke="black" points="191,-250 191,-271 301,-271 301,-250 191,-250"/>
<text text-anchor="start" x="236.5" y="-256.8" font-family="Times,serif" font-size="14.00">16</text>
<polygon fill="none" stroke="black" points="301,-250 301,-271 374,-271 374,-250 301,-250"/>
<text text-anchor="start" x="332.5" y="-256.8" font-family="Times,serif" font-size="14.00">4</text>
<polygon fill="none" stroke="black" points="374,-250 374,-271 432,-271 432,-250 374,-250"/>
<text text-anchor="start" x="389" y="-256.8" font-family="Times,serif" font-size="14.00">f4le</text>
<polygon fill="none" stroke="black" points="432,-250 432,-271 541,-271 541,-250 432,-250"/>
<text text-anchor="start" x="469.5" y="-256.8" font-family="Times,serif" font-size="14.00">wlx3</text>
<polygon fill="none" stroke="black" points="191,-229 191,-250 301,-250 301,-229 191,-229"/>
<text text-anchor="start" x="236.5" y="-235.8" font-family="Times,serif" font-size="14.00">20</text>
<polygon fill="none" stroke="black" points="301,-229 301,-250 374,-250 374,-229 301,-229"/>
<text text-anchor="start" x="332.5" y="-235.8" font-family="Times,serif" font-size="14.00">4</text>
<polygon fill="none" stroke="black" points="374,-229 374,-250 432,-250 432,-229 374,-229"/>
<text text-anchor="start" x="389" y="-235.8" font-family="Times,serif" font-size="14.00">f4le</text>
<polygon fill="none" stroke="black" points="432,-229 432,-250 541,-250 541,-229 432,-229"/>
<text text-anchor="start" x="469.5" y="-235.8" font-family="Times,serif" font-size="14.00">wlx4</text>
<polygon fill="none" stroke="black" points="191,-208 191,-229 301,-229 301,-208 191,-208"/>
<text text-anchor="start" x="236.5" y="-214.8" font-family="Times,serif" font-size="14.00">24</text>
<polygon fill="none" stroke="black" points="301,-208 301,-229 374,-229 374,-208 301,-208"/>
<text text-anchor="start" x="332.5" y="-214.8" font-family="Times,serif" font-size="14.00">4</text>
<polygon fill="none" stroke="black" points="374,-208 374,-229 432,-229 432,-208 374,-208"/>
<text text-anchor="start" x="389" y="-214.8" font-family="Times,serif" font-size="14.00">f4le</text>
<polygon fill="none" stroke="black" points="432,-208 432,-229 541,-229 541,-208 432,-208"/>
<text text-anchor="start" x="449" y="-214.8" font-family="Times,serif" font-size="14.00">unknown2</text>
<polygon fill="none" stroke="black" points="191,-187 191,-208 541,-208 541,-187 191,-187"/>
<text text-anchor="start" x="313.5" y="-193.8" font-family="Times,serif" font-size="14.00">repeat 9 times</text>
<polygon fill="none" stroke="black" points="191,-166 191,-187 301,-187 301,-166 191,-166"/>
<text text-anchor="start" x="236.5" y="-172.8" font-family="Times,serif" font-size="14.00">60</text>
<polygon fill="none" stroke="black" points="301,-166 301,-187 374,-187 374,-166 301,-166"/>
<text text-anchor="start" x="332.5" y="-172.8" font-family="Times,serif" font-size="14.00">4</text>
<polygon fill="none" stroke="black" points="374,-166 374,-187 432,-187 432,-166 374,-166"/>
<text text-anchor="start" x="389" y="-172.8" font-family="Times,serif" font-size="14.00">f4le</text>
<polygon fill="none" stroke="black" points="432,-166 432,-187 541,-187 541,-166 432,-166"/>
<text text-anchor="start" x="458" y="-172.8" font-family="Times,serif" font-size="14.00">ipixfirst</text>
<polygon fill="none" stroke="black" points="191,-145 191,-166 301,-166 301,-145 191,-145"/>
<text text-anchor="start" x="236.5" y="-151.8" font-family="Times,serif" font-size="14.00">64</text>
<polygon fill="none" stroke="black" points="301,-145 301,-166 374,-166 374,-145 301,-145"/>
<text text-anchor="start" x="332.5" y="-151.8" font-family="Times,serif" font-size="14.00">4</text>
<polygon fill="none" stroke="black" points="374,-145 374,-166 432,-166 432,-145 374,-145"/>
<text text-anchor="start" x="389" y="-151.8" font-family="Times,serif" font-size="14.00">f4le</text>
<polygon fill="none" stroke="black" points="432,-145 432,-166 541,-166 541,-145 432,-145"/>
<text text-anchor="start" x="460" y="-151.8" font-family="Times,serif" font-size="14.00">ipixlast</text>
<polygon fill="none" stroke="black" points="191,-124 191,-145 301,-145 301,-124 191,-124"/>
<text text-anchor="start" x="236.5" y="-130.8" font-family="Times,serif" font-size="14.00">68</text>
<polygon fill="none" stroke="black" points="301,-124 301,-145 374,-145 374,-124 301,-124"/>
<text text-anchor="start" x="332.5" y="-130.8" font-family="Times,serif" font-size="14.00">4</text>
<polygon fill="none" stroke="black" points="374,-124 374,-145 432,-145 432,-124 374,-124"/>
<text text-anchor="start" x="389" y="-130.8" font-family="Times,serif" font-size="14.00">f4le</text>
<polygon fill="none" stroke="black" points="432,-124 432,-145 541,-145 541,-124 432,-124"/>
<text text-anchor="start" x="449" y="-130.8" font-family="Times,serif" font-size="14.00">unknown3</text>
<polygon fill="none" stroke="black" points="191,-103 191,-124 541,-124 541,-103 191,-103"/>
<text text-anchor="start" x="313.5" y="-109.8" font-family="Times,serif" font-size="14.00">repeat 4 times</text>
<polygon fill="none" stroke="black" points="191,-82 191,-103 301,-103 301,-82 191,-82"/>
<text text-anchor="start" x="236.5" y="-88.8" font-family="Times,serif" font-size="14.00">84</text>
<polygon fill="none" stroke="black" points="301,-82 301,-103 374,-103 374,-82 301,-82"/>
<text text-anchor="start" x="332.5" y="-88.8" font-family="Times,serif" font-size="14.00">4</text>
<polygon fill="none" stroke="black" points="374,-82 374,-103 432,-103 432,-82 374,-82"/>
<text text-anchor="start" x="389" y="-88.8" font-family="Times,serif" font-size="14.00">f4le</text>
<polygon fill="none" stroke="black" points="432,-82 432,-103 541,-103 541,-82 432,-82"/>
<text text-anchor="start" x="452" y="-88.8" font-family="Times,serif" font-size="14.00">spectrum</text>
<polygon fill="none" stroke="black" points="191,-61 191,-82 541,-82 541,-61 191,-61"/>
<text text-anchor="start" x="194" y="-67.8" font-family="Times,serif" font-size="14.00">repeat (((ipixlast).to_i &#45; (ipixfirst).to_i) &#45; 1) times</text>
<polygon fill="none" stroke="black" points="191,-40 191,-61 301,-61 301,-40 191,-40"/>
<text text-anchor="start" x="239" y="-46.8" font-family="Times,serif" font-size="14.00">...</text>
<polygon fill="none" stroke="black" points="301,-40 301,-61 374,-61 374,-40 301,-40"/>
<text text-anchor="start" x="332.5" y="-46.8" font-family="Times,serif" font-size="14.00">4</text>
<polygon fill="none" stroke="black" points="374,-40 374,-61 432,-61 432,-40 374,-40"/>
<text text-anchor="start" x="389" y="-46.8" font-family="Times,serif" font-size="14.00">f4le</text>
<polygon fill="none" stroke="black" points="432,-40 432,-61 541,-61 541,-40 432,-40"/>
<text text-anchor="start" x="449" y="-46.8" font-family="Times,serif" font-size="14.00">unknown4</text>
<polygon fill="none" stroke="black" points="191,-19 191,-40 541,-40 541,-19 191,-19"/>
<text text-anchor="start" x="313.5" y="-25.8" font-family="Times,serif" font-size="14.00">repeat 3 times</text>
</g>
<!-- avantes_roh60__seq&#45;&gt;avantes_roh60__seq -->
<g id="edge1" class="edge"><title>avantes_roh60__seq:ipixlast_type&#45;&gt;avantes_roh60__seq:spectrum__repeat</title>
<path fill="none" stroke="#404040" d="M431.807,-157.844C280.39,-163.222 0,-157.7 0,-113 0,-82.7917 85.6055,-70.4764 180.758,-67.3259"/>
<polygon fill="#404040" stroke="#404040" points="181.001,-70.8204 190.892,-67.0255 180.793,-63.8235 181.001,-70.8204"/>
</g>
<!-- avantes_roh60__seq&#45;&gt;avantes_roh60__seq -->
<g id="edge2" class="edge"><title>avantes_roh60__seq:ipixfirst_type&#45;&gt;avantes_roh60__seq:spectrum__repeat</title>
<path fill="none" stroke="#404040" d="M431.807,-178.824C280.39,-184.061 0,-177.403 0,-123.5 0,-87.0724 85.6055,-72.2215 180.758,-68.0374"/>
<polygon fill="#404040" stroke="#404040" points="181.04,-71.529 190.892,-67.6328 180.761,-64.5346 181.04,-71.529"/>
</g>
</g>
</svg>
