<?xml version="1.0" encoding="UTF-8" standalone="no"?>
<!DOCTYPE svg PUBLIC "-//W3C//DTD SVG 1.1//EN"
 "http://www.w3.org/Graphics/SVG/1.1/DTD/svg11.dtd">
<!-- Generated by graphviz version 2.40.1 (20161225.0304)
 -->
<!-- Title: %3 Pages: 1 -->
<svg width="441pt" height="302pt"
 viewBox="0.00 0.00 441.00 302.00" xmlns="http://www.w3.org/2000/svg" xmlns:xlink="http://www.w3.org/1999/xlink">
<g id="graph0" class="graph" transform="scale(1 1) rotate(0) translate(4 298)">
<title>%3</title>
<polygon fill="#ffffff" stroke="transparent" points="-4,4 -4,-298 437,-298 437,4 -4,4"/>
<g id="clust1" class="cluster">
<title>cluster__ipv6_packet</title>
<polygon fill="none" stroke="#000000" stroke-dasharray="1,5" points="8,-8 8,-286 278,-286 278,-8 8,-8"/>
<text text-anchor="middle" x="143" y="-270.8" font-family="Times,serif" font-size="14.00" fill="#000000">Ipv6Packet</text>
</g>
<!-- ipv6_packet__seq -->
<g id="node1" class="node">
<title>ipv6_packet__seq</title>
<polygon fill="#e0ffe0" stroke="transparent" points="24,-229 24,-250 49,-250 49,-229 24,-229"/>
<polygon fill="none" stroke="#000000" points="24,-229 24,-250 49,-250 49,-229 24,-229"/>
<text text-anchor="start" x="27" y="-235.8" font-family="Times,serif" font-size="14.00" fill="#000000">pos</text>
<polygon fill="#e0ffe0" stroke="transparent" points="49,-229 49,-250 77,-250 77,-229 49,-229"/>
<polygon fill="none" stroke="#000000" points="49,-229 49,-250 77,-250 77,-229 49,-229"/>
<text text-anchor="start" x="52" y="-235.8" font-family="Times,serif" font-size="14.00" fill="#000000">size</text>
<polygon fill="#e0ffe0" stroke="transparent" points="77,-229 77,-250 159,-250 159,-229 77,-229"/>
<polygon fill="none" stroke="#000000" points="77,-229 77,-250 159,-250 159,-229 77,-229"/>
<text text-anchor="start" x="106" y="-235.8" font-family="Times,serif" font-size="14.00" fill="#000000">type</text>
<polygon fill="#e0ffe0" stroke="transparent" points="159,-229 159,-250 262,-250 262,-229 159,-229"/>
<polygon fill="none" stroke="#000000" points="159,-229 159,-250 262,-250 262,-229 159,-229"/>
<text text-anchor="start" x="205" y="-235.8" font-family="Times,serif" font-size="14.00" fill="#000000">id</text>
<polygon fill="none" stroke="#000000" points="24,-208 24,-229 49,-229 49,-208 24,-208"/>
<text text-anchor="start" x="33" y="-214.8" font-family="Times,serif" font-size="14.00" fill="#000000">0</text>
<polygon fill="none" stroke="#000000" points="49,-208 49,-229 77,-229 77,-208 49,-208"/>
<text text-anchor="start" x="56" y="-214.8" font-family="Times,serif" font-size="14.00" fill="#000000">4b</text>
<polygon fill="none" stroke="#000000" points="77,-208 77,-229 159,-229 159,-208 77,-208"/>
<text text-anchor="start" x="111" y="-214.8" font-family="Times,serif" font-size="14.00" fill="#000000">b4</text>
<polygon fill="none" stroke="#000000" points="159,-208 159,-229 262,-229 262,-208 159,-208"/>
<text text-anchor="start" x="190.5" y="-214.8" font-family="Times,serif" font-size="14.00" fill="#000000">version</text>
<polygon fill="none" stroke="#000000" points="24,-187 24,-208 49,-208 49,-187 24,-187"/>
<text text-anchor="start" x="27.5" y="-193.8" font-family="Times,serif" font-size="14.00" fill="#000000">0:4</text>
<polygon fill="none" stroke="#000000" points="49,-187 49,-208 77,-208 77,-187 49,-187"/>
<text text-anchor="start" x="59.5" y="-193.8" font-family="Times,serif" font-size="14.00" fill="#000000">1</text>
<polygon fill="none" stroke="#000000" points="77,-187 77,-208 159,-208 159,-187 77,-187"/>
<text text-anchor="start" x="111" y="-193.8" font-family="Times,serif" font-size="14.00" fill="#000000">b8</text>
<polygon fill="none" stroke="#000000" points="159,-187 159,-208 262,-208 262,-187 159,-187"/>
<text text-anchor="start" x="177" y="-193.8" font-family="Times,serif" font-size="14.00" fill="#000000">traffic_class</text>
<polygon fill="none" stroke="#000000" points="24,-166 24,-187 49,-187 49,-166 24,-166"/>
<text text-anchor="start" x="27.5" y="-172.8" font-family="Times,serif" font-size="14.00" fill="#000000">1:4</text>
<polygon fill="none" stroke="#000000" points="49,-166 49,-187 77,-187 77,-166 49,-166"/>
<text text-anchor="start" x="52.5" y="-172.8" font-family="Times,serif" font-size="14.00" fill="#000000">20b</text>
<polygon fill="none" stroke="#000000" points="77,-166 77,-187 159,-187 159,-166 77,-166"/>
<text text-anchor="start" x="107.5" y="-172.8" font-family="Times,serif" font-size="14.00" fill="#000000">b20</text>
<polygon fill="none" stroke="#000000" points="159,-166 159,-187 262,-187 262,-166 159,-166"/>
<text text-anchor="start" x="181.5" y="-172.8" font-family="Times,serif" font-size="14.00" fill="#000000">flow_label</text>
<polygon fill="none" stroke="#000000" points="24,-145 24,-166 49,-166 49,-145 24,-145"/>
<text text-anchor="start" x="33" y="-151.8" font-family="Times,serif" font-size="14.00" fill="#000000">4</text>
<polygon fill="none" stroke="#000000" points="49,-145 49,-166 77,-166 77,-145 49,-145"/>
<text text-anchor="start" x="59.5" y="-151.8" font-family="Times,serif" font-size="14.00" fill="#000000">2</text>
<polygon fill="none" stroke="#000000" points="77,-145 77,-166 159,-166 159,-145 77,-145"/>
<text text-anchor="start" x="104.5" y="-151.8" font-family="Times,serif" font-size="14.00" fill="#000000">u2be</text>
<polygon fill="none" stroke="#000000" points="159,-145 159,-166 262,-166 262,-145 159,-145"/>
<text text-anchor="start" x="168.5" y="-151.8" font-family="Times,serif" font-size="14.00" fill="#000000">payload_length</text>
<polygon fill="none" stroke="#000000" points="24,-124 24,-145 49,-145 49,-124 24,-124"/>
<text text-anchor="start" x="33" y="-130.8" font-family="Times,serif" font-size="14.00" fill="#000000">6</text>
<polygon fill="none" stroke="#000000" points="49,-124 49,-145 77,-145 77,-124 49,-124"/>
<text text-anchor="start" x="59.5" y="-130.8" font-family="Times,serif" font-size="14.00" fill="#000000">1</text>
<polygon fill="none" stroke="#000000" points="77,-124 77,-145 159,-145 159,-124 77,-124"/>
<text text-anchor="start" x="111" y="-130.8" font-family="Times,serif" font-size="14.00" fill="#000000">u1</text>
<polygon fill="none" stroke="#000000" points="159,-124 159,-145 262,-145 262,-124 159,-124"/>
<text text-anchor="start" x="162" y="-130.8" font-family="Times,serif" font-size="14.00" fill="#000000">next_header_type</text>
<polygon fill="none" stroke="#000000" points="24,-103 24,-124 49,-124 49,-103 24,-103"/>
<text text-anchor="start" x="33" y="-109.8" font-family="Times,serif" font-size="14.00" fill="#000000">7</text>
<polygon fill="none" stroke="#000000" points="49,-103 49,-124 77,-124 77,-103 49,-103"/>
<text text-anchor="start" x="59.5" y="-109.8" font-family="Times,serif" font-size="14.00" fill="#000000">1</text>
<polygon fill="none" stroke="#000000" points="77,-103 77,-124 159,-124 159,-103 77,-103"/>
<text text-anchor="start" x="111" y="-109.8" font-family="Times,serif" font-size="14.00" fill="#000000">u1</text>
<polygon fill="none" stroke="#000000" points="159,-103 159,-124 262,-124 262,-103 159,-103"/>
<text text-anchor="start" x="183.5" y="-109.8" font-family="Times,serif" font-size="14.00" fill="#000000">hop_limit</text>
<polygon fill="none" stroke="#000000" points="24,-82 24,-103 49,-103 49,-82 24,-82"/>
<text text-anchor="start" x="33" y="-88.8" font-family="Times,serif" font-size="14.00" fill="#000000">8</text>
<polygon fill="none" stroke="#000000" points="49,-82 49,-103 77,-103 77,-82 49,-82"/>
<text text-anchor="start" x="56" y="-88.8" font-family="Times,serif" font-size="14.00" fill="#000000">16</text>
<polygon fill="none" stroke="#000000" points="77,-82 77,-103 159,-103 159,-82 77,-82"/>
<polygon fill="none" stroke="#000000" points="159,-82 159,-103 262,-103 262,-82 159,-82"/>
<text text-anchor="start" x="171.5" y="-88.8" font-family="Times,serif" font-size="14.00" fill="#000000">src_ipv6_addr</text>
<polygon fill="none" stroke="#000000" points="24,-61 24,-82 49,-82 49,-61 24,-61"/>
<text text-anchor="start" x="29.5" y="-67.8" font-family="Times,serif" font-size="14.00" fill="#000000">24</text>
<polygon fill="none" stroke="#000000" points="49,-61 49,-82 77,-82 77,-61 49,-61"/>
<text text-anchor="start" x="56" y="-67.8" font-family="Times,serif" font-size="14.00" fill="#000000">16</text>
<polygon fill="none" stroke="#000000" points="77,-61 77,-82 159,-82 159,-61 77,-61"/>
<polygon fill="none" stroke="#000000" points="159,-61 159,-82 262,-82 262,-61 159,-61"/>
<text text-anchor="start" x="171.5" y="-67.8" font-family="Times,serif" font-size="14.00" fill="#000000">dst_ipv6_addr</text>
<polygon fill="none" stroke="#000000" points="24,-40 24,-61 49,-61 49,-40 24,-40"/>
<text text-anchor="start" x="29.5" y="-46.8" font-family="Times,serif" font-size="14.00" fill="#000000">40</text>
<polygon fill="none" stroke="#000000" points="49,-40 49,-61 77,-61 77,-40 49,-40"/>
<text text-anchor="start" x="57" y="-46.8" font-family="Times,serif" font-size="14.00" fill="#000000">...</text>
<polygon fill="none" stroke="#000000" points="77,-40 77,-61 159,-61 159,-40 77,-40"/>
<text text-anchor="start" x="80" y="-46.8" font-family="Times,serif" font-size="14.00" fill="#000000">ProtocolBody</text>
<polygon fill="none" stroke="#000000" points="159,-40 159,-61 262,-61 262,-40 159,-40"/>
<text text-anchor="start" x="177" y="-46.8" font-family="Times,serif" font-size="14.00" fill="#000000">next_header</text>
<polygon fill="none" stroke="#000000" points="24,-19 24,-40 49,-40 49,-19 24,-19"/>
<text text-anchor="start" x="30.5" y="-25.8" font-family="Times,serif" font-size="14.00" fill="#000000">...</text>
<polygon fill="none" stroke="#000000" points="49,-19 49,-40 77,-40 77,-19 49,-19"/>
<text text-anchor="start" x="56.5" y="-25.8" font-family="Times,serif" font-size="14.00" fill="#000000">⇲</text>
<polygon fill="none" stroke="#000000" points="77,-19 77,-40 159,-40 159,-19 77,-19"/>
<polygon fill="none" stroke="#000000" points="159,-19 159,-40 262,-40 262,-19 159,-19"/>
<text text-anchor="start" x="200.5" y="-25.8" font-family="Times,serif" font-size="14.00" fill="#000000">rest</text>
</g>
<!-- protocol_body__seq -->
<g id="node2" class="node">
<title>protocol_body__seq</title>
<text text-anchor="middle" x="369.5" y="-46.3" font-family="Times,serif" font-size="14.00" fill="#000000">protocol_body__seq</text>
</g>
<!-- ipv6_packet__seq&#45;&gt;protocol_body__seq -->
<g id="edge1" class="edge">
<title>ipv6_packet__seq:next_header_type&#45;&gt;protocol_body__seq</title>
<path fill="none" stroke="#000000" stroke-width="2" d="M262,-50C272.8596,-50 284.3364,-50 295.5886,-50"/>
<polygon fill="#000000" stroke="#000000" stroke-width="2" points="295.8351,-53.5001 305.8351,-50 295.8351,-46.5001 295.8351,-53.5001"/>
</g>
</g>
</svg>
