<?xml version="1.0" encoding="UTF-8" standalone="no"?>
<!DOCTYPE svg PUBLIC "-//W3C//DTD SVG 1.1//EN"
 "http://www.w3.org/Graphics/SVG/1.1/DTD/svg11.dtd">
<!-- Generated by graphviz version 2.38.0 (20140413.2041)
 -->
<!-- Title: %3 Pages: 1 -->
<svg width="536pt" height="302pt"
 viewBox="0.00 0.00 536.00 302.00" xmlns="http://www.w3.org/2000/svg" xmlns:xlink="http://www.w3.org/1999/xlink">
<g id="graph0" class="graph" transform="scale(1 1) rotate(0) translate(4 298)">
<title>%3</title>
<polygon fill="white" stroke="none" points="-4,4 -4,-298 532,-298 532,4 -4,4"/>
<g id="clust1" class="cluster"><title>cluster__ipv6_packet</title>
<polygon fill="none" stroke="black" stroke-dasharray="1,5" points="8,-8 8,-286 342,-286 342,-8 8,-8"/>
<text text-anchor="middle" x="175" y="-270.8" font-family="Times,serif" font-size="14.00">Ipv6Packet</text>
</g>
<!-- ipv6_packet__seq -->
<g id="node1" class="node"><title>ipv6_packet__seq</title>
<polygon fill="#e0ffe0" stroke="none" points="24,-229 24,-250 55,-250 55,-229 24,-229"/>
<polygon fill="none" stroke="black" points="24,-229 24,-250 55,-250 55,-229 24,-229"/>
<text text-anchor="start" x="27" y="-235.8" font-family="Times,serif" font-size="14.00">pos</text>
<polygon fill="#e0ffe0" stroke="none" points="55,-229 55,-250 89,-250 89,-229 55,-229"/>
<polygon fill="none" stroke="black" points="55,-229 55,-250 89,-250 89,-229 55,-229"/>
<text text-anchor="start" x="58" y="-235.8" font-family="Times,serif" font-size="14.00">size</text>
<polygon fill="#e0ffe0" stroke="none" points="89,-229 89,-250 192,-250 192,-229 89,-229"/>
<polygon fill="none" stroke="black" points="89,-229 89,-250 192,-250 192,-229 89,-229"/>
<text text-anchor="start" x="124.5" y="-235.8" font-family="Times,serif" font-size="14.00">type</text>
<polygon fill="#e0ffe0" stroke="none" points="192,-229 192,-250 326,-250 326,-229 192,-229"/>
<polygon fill="none" stroke="black" points="192,-229 192,-250 326,-250 326,-229 192,-229"/>
<text text-anchor="start" x="252" y="-235.8" font-family="Times,serif" font-size="14.00">id</text>
<polygon fill="none" stroke="black" points="24,-208 24,-229 55,-229 55,-208 24,-208"/>
<text text-anchor="start" x="34.5" y="-214.8" font-family="Times,serif" font-size="14.00">0</text>
<polygon fill="none" stroke="black" points="55,-208 55,-229 89,-229 89,-208 55,-208"/>
<text text-anchor="start" x="62.5" y="-214.8" font-family="Times,serif" font-size="14.00">4b</text>
<polygon fill="none" stroke="black" points="89,-208 89,-229 192,-229 192,-208 89,-208"/>
<text text-anchor="start" x="131" y="-214.8" font-family="Times,serif" font-size="14.00">b4</text>
<polygon fill="none" stroke="black" points="192,-208 192,-229 326,-229 326,-208 192,-208"/>
<text text-anchor="start" x="232.5" y="-214.8" font-family="Times,serif" font-size="14.00">version</text>
<polygon fill="none" stroke="black" points="24,-187 24,-208 55,-208 55,-187 24,-187"/>
<text text-anchor="start" x="28" y="-193.8" font-family="Times,serif" font-size="14.00">0:4</text>
<polygon fill="none" stroke="black" points="55,-187 55,-208 89,-208 89,-187 55,-187"/>
<text text-anchor="start" x="67" y="-193.8" font-family="Times,serif" font-size="14.00">1</text>
<polygon fill="none" stroke="black" points="89,-187 89,-208 192,-208 192,-187 89,-187"/>
<text text-anchor="start" x="131" y="-193.8" font-family="Times,serif" font-size="14.00">b8</text>
<polygon fill="none" stroke="black" points="192,-187 192,-208 326,-208 326,-187 192,-187"/>
<text text-anchor="start" x="215" y="-193.8" font-family="Times,serif" font-size="14.00">traffic_class</text>
<polygon fill="none" stroke="black" points="24,-166 24,-187 55,-187 55,-166 24,-166"/>
<text text-anchor="start" x="28" y="-172.8" font-family="Times,serif" font-size="14.00">1:4</text>
<polygon fill="none" stroke="black" points="55,-166 55,-187 89,-187 89,-166 55,-166"/>
<text text-anchor="start" x="58" y="-172.8" font-family="Times,serif" font-size="14.00">20b</text>
<polygon fill="none" stroke="black" points="89,-166 89,-187 192,-187 192,-166 89,-166"/>
<text text-anchor="start" x="126.5" y="-172.8" font-family="Times,serif" font-size="14.00">b20</text>
<polygon fill="none" stroke="black" points="192,-166 192,-187 326,-187 326,-166 192,-166"/>
<text text-anchor="start" x="223" y="-172.8" font-family="Times,serif" font-size="14.00">flow_label</text>
<polygon fill="none" stroke="black" points="24,-145 24,-166 55,-166 55,-145 24,-145"/>
<text text-anchor="start" x="34.5" y="-151.8" font-family="Times,serif" font-size="14.00">4</text>
<polygon fill="none" stroke="black" points="55,-145 55,-166 89,-166 89,-145 55,-145"/>
<text text-anchor="start" x="67" y="-151.8" font-family="Times,serif" font-size="14.00">2</text>
<polygon fill="none" stroke="black" points="89,-145 89,-166 192,-166 192,-145 89,-145"/>
<text text-anchor="start" x="122.5" y="-151.8" font-family="Times,serif" font-size="14.00">u2be</text>
<polygon fill="none" stroke="black" points="192,-145 192,-166 326,-166 326,-145 192,-145"/>
<text text-anchor="start" x="204.5" y="-151.8" font-family="Times,serif" font-size="14.00">payload_length</text>
<polygon fill="none" stroke="black" points="24,-124 24,-145 55,-145 55,-124 24,-124"/>
<text text-anchor="start" x="34.5" y="-130.8" font-family="Times,serif" font-size="14.00">6</text>
<polygon fill="none" stroke="black" points="55,-124 55,-145 89,-145 89,-124 55,-124"/>
<text text-anchor="start" x="67" y="-130.8" font-family="Times,serif" font-size="14.00">1</text>
<polygon fill="none" stroke="black" points="89,-124 89,-145 192,-145 192,-124 89,-124"/>
<text text-anchor="start" x="131" y="-130.8" font-family="Times,serif" font-size="14.00">u1</text>
<polygon fill="none" stroke="black" points="192,-124 192,-145 326,-145 326,-124 192,-124"/>
<text text-anchor="start" x="195" y="-130.8" font-family="Times,serif" font-size="14.00">next_header_type</text>
<polygon fill="none" stroke="black" points="24,-103 24,-124 55,-124 55,-103 24,-103"/>
<text text-anchor="start" x="34.5" y="-109.8" font-family="Times,serif" font-size="14.00">7</text>
<polygon fill="none" stroke="black" points="55,-103 55,-124 89,-124 89,-103 55,-103"/>
<text text-anchor="start" x="67" y="-109.8" font-family="Times,serif" font-size="14.00">1</text>
<polygon fill="none" stroke="black" points="89,-103 89,-124 192,-124 192,-103 89,-103"/>
<text text-anchor="start" x="131" y="-109.8" font-family="Times,serif" font-size="14.00">u1</text>
<polygon fill="none" stroke="black" points="192,-103 192,-124 326,-124 326,-103 192,-103"/>
<text text-anchor="start" x="225.5" y="-109.8" font-family="Times,serif" font-size="14.00">hop_limit</text>
<polygon fill="none" stroke="black" points="24,-82 24,-103 55,-103 55,-82 24,-82"/>
<text text-anchor="start" x="34.5" y="-88.8" font-family="Times,serif" font-size="14.00">8</text>
<polygon fill="none" stroke="black" points="55,-82 55,-103 89,-103 89,-82 55,-82"/>
<text text-anchor="start" x="62.5" y="-88.8" font-family="Times,serif" font-size="14.00">16</text>
<polygon fill="none" stroke="black" points="89,-82 89,-103 192,-103 192,-82 89,-82"/>
<polygon fill="none" stroke="black" points="192,-82 192,-103 326,-103 326,-82 192,-82"/>
<text text-anchor="start" x="208" y="-88.8" font-family="Times,serif" font-size="14.00">src_ipv6_addr</text>
<polygon fill="none" stroke="black" points="24,-61 24,-82 55,-82 55,-61 24,-61"/>
<text text-anchor="start" x="30" y="-67.8" font-family="Times,serif" font-size="14.00">24</text>
<polygon fill="none" stroke="black" points="55,-61 55,-82 89,-82 89,-61 55,-61"/>
<text text-anchor="start" x="62.5" y="-67.8" font-family="Times,serif" font-size="14.00">16</text>
<polygon fill="none" stroke="black" points="89,-61 89,-82 192,-82 192,-61 89,-61"/>
<polygon fill="none" stroke="black" points="192,-61 192,-82 326,-82 326,-61 192,-61"/>
<text text-anchor="start" x="208" y="-67.8" font-family="Times,serif" font-size="14.00">dst_ipv6_addr</text>
<polygon fill="none" stroke="black" points="24,-40 24,-61 55,-61 55,-40 24,-40"/>
<text text-anchor="start" x="30" y="-46.8" font-family="Times,serif" font-size="14.00">40</text>
<polygon fill="none" stroke="black" points="55,-40 55,-61 89,-61 89,-40 55,-40"/>
<text text-anchor="start" x="65" y="-46.8" font-family="Times,serif" font-size="14.00">...</text>
<polygon fill="none" stroke="black" points="89,-40 89,-61 192,-61 192,-40 89,-40"/>
<text text-anchor="start" x="92" y="-46.8" font-family="Times,serif" font-size="14.00">ProtocolBody</text>
<polygon fill="none" stroke="black" points="192,-40 192,-61 326,-61 326,-40 192,-40"/>
<text text-anchor="start" x="214.5" y="-46.8" font-family="Times,serif" font-size="14.00">next_header</text>
<polygon fill="none" stroke="black" points="24,-19 24,-40 55,-40 55,-19 24,-19"/>
<text text-anchor="start" x="32.5" y="-25.8" font-family="Times,serif" font-size="14.00">...</text>
<polygon fill="none" stroke="black" points="55,-19 55,-40 89,-40 89,-19 55,-19"/>
<text text-anchor="start" x="65.5" y="-25.8" font-family="Times,serif" font-size="14.00">⇲</text>
<polygon fill="none" stroke="black" points="89,-19 89,-40 192,-40 192,-19 89,-19"/>
<polygon fill="none" stroke="black" points="192,-19 192,-40 326,-40 326,-19 192,-19"/>
<text text-anchor="start" x="244.5" y="-25.8" font-family="Times,serif" font-size="14.00">rest</text>
</g>
<!-- protocol_body__seq -->
<g id="node2" class="node"><title>protocol_body__seq</title>
<text text-anchor="middle" x="449" y="-46.3" font-family="Times,serif" font-size="14.00">protocol_body__seq</text>
</g>
<!-- ipv6_packet__seq&#45;&gt;protocol_body__seq -->
<g id="edge1" class="edge"><title>ipv6_packet__seq:next_header_type&#45;&gt;protocol_body__seq</title>
<path fill="none" stroke="black" stroke-width="2" d="M327,-50C337.615,-50 348.754,-50 359.796,-50"/>
<polygon fill="black" stroke="black" stroke-width="2" points="359.892,-53.5001 369.892,-50 359.892,-46.5001 359.892,-53.5001"/>
</g>
</g>
</svg>
