<?xml version="1.0" encoding="UTF-8" standalone="no"?>
<!DOCTYPE svg PUBLIC "-//W3C//DTD SVG 1.1//EN"
 "http://www.w3.org/Graphics/SVG/1.1/DTD/svg11.dtd">
<!-- Generated by graphviz version 2.43.0 (0)
 -->
<!-- Title: %3 Pages: 1 -->
<svg width="531pt" height="302pt"
 viewBox="0.00 0.00 531.00 302.00" xmlns="http://www.w3.org/2000/svg" xmlns:xlink="http://www.w3.org/1999/xlink">
<g id="graph0" class="graph" transform="scale(1 1) rotate(0) translate(4 298)">
<title>%3</title>
<polygon fill="white" stroke="transparent" points="-4,4 -4,-298 527,-298 527,4 -4,4"/>
<g id="clust1" class="cluster">
<title>cluster__ipv6_packet</title>
<polygon fill="none" stroke="black" stroke-dasharray="1,5" points="8,-8 8,-286 340,-286 340,-8 8,-8"/>
<text text-anchor="middle" x="174" y="-270.8" font-family="Times,serif" font-size="14.00">Ipv6Packet</text>
</g>
<!-- ipv6_packet__seq -->
<g id="node1" class="node">
<title>ipv6_packet__seq</title>
<polygon fill="#e0ffe0" stroke="transparent" points="24,-229 24,-250 55,-250 55,-229 24,-229"/>
<polygon fill="none" stroke="black" points="24,-229 24,-250 55,-250 55,-229 24,-229"/>
<text text-anchor="start" x="27" y="-235.8" font-family="Times,serif" font-size="14.00">pos</text>
<polygon fill="#e0ffe0" stroke="transparent" points="55,-229 55,-250 89,-250 89,-229 55,-229"/>
<polygon fill="none" stroke="black" points="55,-229 55,-250 89,-250 89,-229 55,-229"/>
<text text-anchor="start" x="58" y="-235.8" font-family="Times,serif" font-size="14.00">size</text>
<polygon fill="#e0ffe0" stroke="transparent" points="89,-229 89,-250 191,-250 191,-229 89,-229"/>
<polygon fill="none" stroke="black" points="89,-229 89,-250 191,-250 191,-229 89,-229"/>
<text text-anchor="start" x="124" y="-235.8" font-family="Times,serif" font-size="14.00">type</text>
<polygon fill="#e0ffe0" stroke="transparent" points="191,-229 191,-250 324,-250 324,-229 191,-229"/>
<polygon fill="none" stroke="black" points="191,-229 191,-250 324,-250 324,-229 191,-229"/>
<text text-anchor="start" x="250.5" y="-235.8" font-family="Times,serif" font-size="14.00">id</text>
<polygon fill="none" stroke="black" points="24,-208 24,-229 55,-229 55,-208 24,-208"/>
<text text-anchor="start" x="34.5" y="-214.8" font-family="Times,serif" font-size="14.00">0</text>
<polygon fill="none" stroke="black" points="55,-208 55,-229 89,-229 89,-208 55,-208"/>
<text text-anchor="start" x="62.5" y="-214.8" font-family="Times,serif" font-size="14.00">4b</text>
<polygon fill="none" stroke="black" points="89,-208 89,-229 191,-229 191,-208 89,-208"/>
<text text-anchor="start" x="122" y="-214.8" font-family="Times,serif" font-size="14.00">b4be</text>
<polygon fill="none" stroke="black" points="191,-208 191,-229 324,-229 324,-208 191,-208"/>
<text text-anchor="start" x="231" y="-214.8" font-family="Times,serif" font-size="14.00">version</text>
<polygon fill="none" stroke="black" points="24,-187 24,-208 55,-208 55,-187 24,-187"/>
<text text-anchor="start" x="28" y="-193.8" font-family="Times,serif" font-size="14.00">0:4</text>
<polygon fill="none" stroke="black" points="55,-187 55,-208 89,-208 89,-187 55,-187"/>
<text text-anchor="start" x="67" y="-193.8" font-family="Times,serif" font-size="14.00">1</text>
<polygon fill="none" stroke="black" points="89,-187 89,-208 191,-208 191,-187 89,-187"/>
<text text-anchor="start" x="122" y="-193.8" font-family="Times,serif" font-size="14.00">b8be</text>
<polygon fill="none" stroke="black" points="191,-187 191,-208 324,-208 324,-187 191,-187"/>
<text text-anchor="start" x="215" y="-193.8" font-family="Times,serif" font-size="14.00">traffic_class</text>
<polygon fill="none" stroke="black" points="24,-166 24,-187 55,-187 55,-166 24,-166"/>
<text text-anchor="start" x="28" y="-172.8" font-family="Times,serif" font-size="14.00">1:4</text>
<polygon fill="none" stroke="black" points="55,-166 55,-187 89,-187 89,-166 55,-166"/>
<text text-anchor="start" x="58" y="-172.8" font-family="Times,serif" font-size="14.00">20b</text>
<polygon fill="none" stroke="black" points="89,-166 89,-187 191,-187 191,-166 89,-166"/>
<text text-anchor="start" x="117.5" y="-172.8" font-family="Times,serif" font-size="14.00">b20be</text>
<polygon fill="none" stroke="black" points="191,-166 191,-187 324,-187 324,-166 191,-166"/>
<text text-anchor="start" x="222" y="-172.8" font-family="Times,serif" font-size="14.00">flow_label</text>
<polygon fill="none" stroke="black" points="24,-145 24,-166 55,-166 55,-145 24,-145"/>
<text text-anchor="start" x="34.5" y="-151.8" font-family="Times,serif" font-size="14.00">4</text>
<polygon fill="none" stroke="black" points="55,-145 55,-166 89,-166 89,-145 55,-145"/>
<text text-anchor="start" x="67" y="-151.8" font-family="Times,serif" font-size="14.00">2</text>
<polygon fill="none" stroke="black" points="89,-145 89,-166 191,-166 191,-145 89,-145"/>
<text text-anchor="start" x="122" y="-151.8" font-family="Times,serif" font-size="14.00">u2be</text>
<polygon fill="none" stroke="black" points="191,-145 191,-166 324,-166 324,-145 191,-145"/>
<text text-anchor="start" x="203" y="-151.8" font-family="Times,serif" font-size="14.00">payload_length</text>
<polygon fill="none" stroke="black" points="24,-124 24,-145 55,-145 55,-124 24,-124"/>
<text text-anchor="start" x="34.5" y="-130.8" font-family="Times,serif" font-size="14.00">6</text>
<polygon fill="none" stroke="black" points="55,-124 55,-145 89,-145 89,-124 55,-124"/>
<text text-anchor="start" x="67" y="-130.8" font-family="Times,serif" font-size="14.00">1</text>
<polygon fill="none" stroke="black" points="89,-124 89,-145 191,-145 191,-124 89,-124"/>
<text text-anchor="start" x="130.5" y="-130.8" font-family="Times,serif" font-size="14.00">u1</text>
<polygon fill="none" stroke="black" points="191,-124 191,-145 324,-145 324,-124 191,-124"/>
<text text-anchor="start" x="194" y="-130.8" font-family="Times,serif" font-size="14.00">next_header_type</text>
<polygon fill="none" stroke="black" points="24,-103 24,-124 55,-124 55,-103 24,-103"/>
<text text-anchor="start" x="34.5" y="-109.8" font-family="Times,serif" font-size="14.00">7</text>
<polygon fill="none" stroke="black" points="55,-103 55,-124 89,-124 89,-103 55,-103"/>
<text text-anchor="start" x="67" y="-109.8" font-family="Times,serif" font-size="14.00">1</text>
<polygon fill="none" stroke="black" points="89,-103 89,-124 191,-124 191,-103 89,-103"/>
<text text-anchor="start" x="130.5" y="-109.8" font-family="Times,serif" font-size="14.00">u1</text>
<polygon fill="none" stroke="black" points="191,-103 191,-124 324,-124 324,-103 191,-103"/>
<text text-anchor="start" x="224" y="-109.8" font-family="Times,serif" font-size="14.00">hop_limit</text>
<polygon fill="none" stroke="black" points="24,-82 24,-103 55,-103 55,-82 24,-82"/>
<text text-anchor="start" x="34.5" y="-88.8" font-family="Times,serif" font-size="14.00">8</text>
<polygon fill="none" stroke="black" points="55,-82 55,-103 89,-103 89,-82 55,-82"/>
<text text-anchor="start" x="62.5" y="-88.8" font-family="Times,serif" font-size="14.00">16</text>
<polygon fill="none" stroke="black" points="89,-82 89,-103 191,-103 191,-82 89,-82"/>
<polygon fill="none" stroke="black" points="191,-82 191,-103 324,-103 324,-82 191,-82"/>
<text text-anchor="start" x="207.5" y="-88.8" font-family="Times,serif" font-size="14.00">src_ipv6_addr</text>
<polygon fill="none" stroke="black" points="24,-61 24,-82 55,-82 55,-61 24,-61"/>
<text text-anchor="start" x="30" y="-67.8" font-family="Times,serif" font-size="14.00">24</text>
<polygon fill="none" stroke="black" points="55,-61 55,-82 89,-82 89,-61 55,-61"/>
<text text-anchor="start" x="62.5" y="-67.8" font-family="Times,serif" font-size="14.00">16</text>
<polygon fill="none" stroke="black" points="89,-61 89,-82 191,-82 191,-61 89,-61"/>
<polygon fill="none" stroke="black" points="191,-61 191,-82 324,-82 324,-61 191,-61"/>
<text text-anchor="start" x="207.5" y="-67.8" font-family="Times,serif" font-size="14.00">dst_ipv6_addr</text>
<polygon fill="none" stroke="black" points="24,-40 24,-61 55,-61 55,-40 24,-40"/>
<text text-anchor="start" x="30" y="-46.8" font-family="Times,serif" font-size="14.00">40</text>
<polygon fill="none" stroke="black" points="55,-40 55,-61 89,-61 89,-40 55,-40"/>
<text text-anchor="start" x="65" y="-46.8" font-family="Times,serif" font-size="14.00">...</text>
<polygon fill="none" stroke="black" points="89,-40 89,-61 191,-61 191,-40 89,-40"/>
<text text-anchor="start" x="92" y="-46.8" font-family="Times,serif" font-size="14.00">ProtocolBody</text>
<polygon fill="none" stroke="black" points="191,-40 191,-61 324,-61 324,-40 191,-40"/>
<text text-anchor="start" x="213.5" y="-46.8" font-family="Times,serif" font-size="14.00">next_header</text>
<polygon fill="none" stroke="black" points="24,-19 24,-40 55,-40 55,-19 24,-19"/>
<text text-anchor="start" x="32.5" y="-25.8" font-family="Times,serif" font-size="14.00">...</text>
<polygon fill="none" stroke="black" points="55,-19 55,-40 89,-40 89,-19 55,-19"/>
<text text-anchor="start" x="65.5" y="-25.8" font-family="Times,serif" font-size="14.00">⇲</text>
<polygon fill="none" stroke="black" points="89,-19 89,-40 191,-40 191,-19 89,-19"/>
<polygon fill="none" stroke="black" points="191,-19 191,-40 324,-40 324,-19 191,-19"/>
<text text-anchor="start" x="243" y="-25.8" font-family="Times,serif" font-size="14.00">rest</text>
</g>
<!-- protocol_body__seq -->
<g id="node2" class="node">
<title>protocol_body__seq</title>
<text text-anchor="middle" x="445.5" y="-46.3" font-family="Times,serif" font-size="14.00">protocol_body__seq</text>
</g>
<!-- ipv6_packet__seq&#45;&gt;protocol_body__seq -->
<g id="edge1" class="edge">
<title>ipv6_packet__seq:next_header_type&#45;&gt;protocol_body__seq</title>
<path fill="none" stroke="black" stroke-width="2" d="M325,-50C335.56,-50 346.65,-50 357.64,-50"/>
<polygon fill="black" stroke="black" stroke-width="2" points="357.68,-53.5 367.68,-50 357.68,-46.5 357.68,-53.5"/>
</g>
</g>
</svg>
