<?xml version="1.0" encoding="UTF-8" standalone="no"?>
<!DOCTYPE svg PUBLIC "-//W3C//DTD SVG 1.1//EN"
 "http://www.w3.org/Graphics/SVG/1.1/DTD/svg11.dtd">
<!-- Generated by graphviz version 2.43.0 (0)
 -->
<!-- Title: %3 Pages: 1 -->
<svg width="757pt" height="363pt"
 viewBox="0.00 0.00 757.00 363.00" xmlns="http://www.w3.org/2000/svg" xmlns:xlink="http://www.w3.org/1999/xlink">
<g id="graph0" class="graph" transform="scale(1 1) rotate(0) translate(4 359)">
<title>%3</title>
<polygon fill="white" stroke="transparent" points="-4,4 -4,-359 753,-359 753,4 -4,4"/>
<g id="clust1" class="cluster">
<title>cluster__tcp_segment</title>
<polygon fill="none" stroke="black" stroke-dasharray="1,5" points="8,-8 8,-347 741,-347 741,-8 8,-8"/>
<text text-anchor="middle" x="374.5" y="-331.8" font-family="Times,serif" font-size="14.00">TcpSegment</text>
</g>
<g id="clust2" class="cluster">
<title>cluster__flags</title>
<polygon fill="none" stroke="black" stroke-dasharray="1,5" points="419,-28 419,-265 733,-265 733,-28 419,-28"/>
<text text-anchor="middle" x="576" y="-249.8" font-family="Times,serif" font-size="14.00">TcpSegment::Flags</text>
</g>
<!-- tcp_segment__seq -->
<g id="node1" class="node">
<title>tcp_segment__seq</title>
<polygon fill="#e0ffe0" stroke="transparent" points="24.5,-272 24.5,-293 62.5,-293 62.5,-272 24.5,-272"/>
<polygon fill="none" stroke="black" points="24.5,-272 24.5,-293 62.5,-293 62.5,-272 24.5,-272"/>
<text text-anchor="start" x="31" y="-278.8" font-family="Times,serif" font-size="14.00">pos</text>
<polygon fill="#e0ffe0" stroke="transparent" points="62.5,-272 62.5,-293 224.5,-293 224.5,-272 62.5,-272"/>
<polygon fill="none" stroke="black" points="62.5,-272 62.5,-293 224.5,-293 224.5,-272 62.5,-272"/>
<text text-anchor="start" x="129.5" y="-278.8" font-family="Times,serif" font-size="14.00">size</text>
<polygon fill="#e0ffe0" stroke="transparent" points="224.5,-272 224.5,-293 270.5,-293 270.5,-272 224.5,-272"/>
<polygon fill="none" stroke="black" points="224.5,-272 224.5,-293 270.5,-293 270.5,-272 224.5,-272"/>
<text text-anchor="start" x="231.5" y="-278.8" font-family="Times,serif" font-size="14.00">type</text>
<polygon fill="#e0ffe0" stroke="transparent" points="270.5,-272 270.5,-293 383.5,-293 383.5,-272 270.5,-272"/>
<polygon fill="none" stroke="black" points="270.5,-272 270.5,-293 383.5,-293 383.5,-272 270.5,-272"/>
<text text-anchor="start" x="320" y="-278.8" font-family="Times,serif" font-size="14.00">id</text>
<polygon fill="none" stroke="black" points="24.5,-251 24.5,-272 62.5,-272 62.5,-251 24.5,-251"/>
<text text-anchor="start" x="38.5" y="-257.8" font-family="Times,serif" font-size="14.00">0</text>
<polygon fill="none" stroke="black" points="62.5,-251 62.5,-272 224.5,-272 224.5,-251 62.5,-251"/>
<text text-anchor="start" x="138.5" y="-257.8" font-family="Times,serif" font-size="14.00">2</text>
<polygon fill="none" stroke="black" points="224.5,-251 224.5,-272 270.5,-272 270.5,-251 224.5,-251"/>
<text text-anchor="start" x="229.5" y="-257.8" font-family="Times,serif" font-size="14.00">u2be</text>
<polygon fill="none" stroke="black" points="270.5,-251 270.5,-272 383.5,-272 383.5,-251 270.5,-251"/>
<text text-anchor="start" x="297.5" y="-257.8" font-family="Times,serif" font-size="14.00">src_port</text>
<polygon fill="none" stroke="black" points="24.5,-230 24.5,-251 62.5,-251 62.5,-230 24.5,-230"/>
<text text-anchor="start" x="38.5" y="-236.8" font-family="Times,serif" font-size="14.00">2</text>
<polygon fill="none" stroke="black" points="62.5,-230 62.5,-251 224.5,-251 224.5,-230 62.5,-230"/>
<text text-anchor="start" x="138.5" y="-236.8" font-family="Times,serif" font-size="14.00">2</text>
<polygon fill="none" stroke="black" points="224.5,-230 224.5,-251 270.5,-251 270.5,-230 224.5,-230"/>
<text text-anchor="start" x="229.5" y="-236.8" font-family="Times,serif" font-size="14.00">u2be</text>
<polygon fill="none" stroke="black" points="270.5,-230 270.5,-251 383.5,-251 383.5,-230 270.5,-230"/>
<text text-anchor="start" x="297" y="-236.8" font-family="Times,serif" font-size="14.00">dst_port</text>
<polygon fill="none" stroke="black" points="24.5,-209 24.5,-230 62.5,-230 62.5,-209 24.5,-209"/>
<text text-anchor="start" x="38.5" y="-215.8" font-family="Times,serif" font-size="14.00">4</text>
<polygon fill="none" stroke="black" points="62.5,-209 62.5,-230 224.5,-230 224.5,-209 62.5,-209"/>
<text text-anchor="start" x="138.5" y="-215.8" font-family="Times,serif" font-size="14.00">4</text>
<polygon fill="none" stroke="black" points="224.5,-209 224.5,-230 270.5,-230 270.5,-209 224.5,-209"/>
<text text-anchor="start" x="229.5" y="-215.8" font-family="Times,serif" font-size="14.00">u4be</text>
<polygon fill="none" stroke="black" points="270.5,-209 270.5,-230 383.5,-230 383.5,-209 270.5,-209"/>
<text text-anchor="start" x="295" y="-215.8" font-family="Times,serif" font-size="14.00">seq_num</text>
<polygon fill="none" stroke="black" points="24.5,-188 24.5,-209 62.5,-209 62.5,-188 24.5,-188"/>
<text text-anchor="start" x="38.5" y="-194.8" font-family="Times,serif" font-size="14.00">8</text>
<polygon fill="none" stroke="black" points="62.5,-188 62.5,-209 224.5,-209 224.5,-188 62.5,-188"/>
<text text-anchor="start" x="138.5" y="-194.8" font-family="Times,serif" font-size="14.00">4</text>
<polygon fill="none" stroke="black" points="224.5,-188 224.5,-209 270.5,-209 270.5,-188 224.5,-188"/>
<text text-anchor="start" x="229.5" y="-194.8" font-family="Times,serif" font-size="14.00">u4be</text>
<polygon fill="none" stroke="black" points="270.5,-188 270.5,-209 383.5,-209 383.5,-188 270.5,-188"/>
<text text-anchor="start" x="295.5" y="-194.8" font-family="Times,serif" font-size="14.00">ack_num</text>
<polygon fill="none" stroke="black" points="24.5,-167 24.5,-188 62.5,-188 62.5,-167 24.5,-167"/>
<text text-anchor="start" x="34" y="-173.8" font-family="Times,serif" font-size="14.00">12</text>
<polygon fill="none" stroke="black" points="62.5,-167 62.5,-188 224.5,-188 224.5,-167 62.5,-167"/>
<text text-anchor="start" x="134" y="-173.8" font-family="Times,serif" font-size="14.00">4b</text>
<polygon fill="none" stroke="black" points="224.5,-167 224.5,-188 270.5,-188 270.5,-167 224.5,-167"/>
<text text-anchor="start" x="238" y="-173.8" font-family="Times,serif" font-size="14.00">b4</text>
<polygon fill="none" stroke="black" points="270.5,-167 270.5,-188 383.5,-188 383.5,-167 270.5,-167"/>
<text text-anchor="start" x="287.5" y="-173.8" font-family="Times,serif" font-size="14.00">data_offset</text>
<polygon fill="none" stroke="black" points="24.5,-146 24.5,-167 62.5,-167 62.5,-146 24.5,-146"/>
<text text-anchor="start" x="27.5" y="-152.8" font-family="Times,serif" font-size="14.00">12:4</text>
<polygon fill="none" stroke="black" points="62.5,-146 62.5,-167 224.5,-167 224.5,-146 62.5,-146"/>
<text text-anchor="start" x="134" y="-152.8" font-family="Times,serif" font-size="14.00">4b</text>
<polygon fill="none" stroke="black" points="224.5,-146 224.5,-167 270.5,-167 270.5,-146 224.5,-146"/>
<text text-anchor="start" x="238" y="-152.8" font-family="Times,serif" font-size="14.00">b4</text>
<polygon fill="none" stroke="black" points="270.5,-146 270.5,-167 383.5,-167 383.5,-146 270.5,-146"/>
<text text-anchor="start" x="295" y="-152.8" font-family="Times,serif" font-size="14.00">reserved</text>
<polygon fill="none" stroke="black" points="24.5,-125 24.5,-146 62.5,-146 62.5,-125 24.5,-125"/>
<text text-anchor="start" x="34" y="-131.8" font-family="Times,serif" font-size="14.00">13</text>
<polygon fill="none" stroke="black" points="62.5,-125 62.5,-146 224.5,-146 224.5,-125 62.5,-125"/>
<text text-anchor="start" x="138.5" y="-131.8" font-family="Times,serif" font-size="14.00">1</text>
<polygon fill="none" stroke="black" points="224.5,-125 224.5,-146 270.5,-146 270.5,-125 224.5,-125"/>
<text text-anchor="start" x="227.5" y="-131.8" font-family="Times,serif" font-size="14.00">Flags</text>
<polygon fill="none" stroke="black" points="270.5,-125 270.5,-146 383.5,-146 383.5,-125 270.5,-125"/>
<text text-anchor="start" x="310" y="-131.8" font-family="Times,serif" font-size="14.00">flags</text>
<polygon fill="none" stroke="black" points="24.5,-104 24.5,-125 62.5,-125 62.5,-104 24.5,-104"/>
<text text-anchor="start" x="34" y="-110.8" font-family="Times,serif" font-size="14.00">14</text>
<polygon fill="none" stroke="black" points="62.5,-104 62.5,-125 224.5,-125 224.5,-104 62.5,-104"/>
<text text-anchor="start" x="138.5" y="-110.8" font-family="Times,serif" font-size="14.00">2</text>
<polygon fill="none" stroke="black" points="224.5,-104 224.5,-125 270.5,-125 270.5,-104 224.5,-104"/>
<text text-anchor="start" x="229.5" y="-110.8" font-family="Times,serif" font-size="14.00">u2be</text>
<polygon fill="none" stroke="black" points="270.5,-104 270.5,-125 383.5,-125 383.5,-104 270.5,-104"/>
<text text-anchor="start" x="282" y="-110.8" font-family="Times,serif" font-size="14.00">window_size</text>
<polygon fill="none" stroke="black" points="24.5,-83 24.5,-104 62.5,-104 62.5,-83 24.5,-83"/>
<text text-anchor="start" x="34" y="-89.8" font-family="Times,serif" font-size="14.00">16</text>
<polygon fill="none" stroke="black" points="62.5,-83 62.5,-104 224.5,-104 224.5,-83 62.5,-83"/>
<text text-anchor="start" x="138.5" y="-89.8" font-family="Times,serif" font-size="14.00">2</text>
<polygon fill="none" stroke="black" points="224.5,-83 224.5,-104 270.5,-104 270.5,-83 224.5,-83"/>
<text text-anchor="start" x="229.5" y="-89.8" font-family="Times,serif" font-size="14.00">u2be</text>
<polygon fill="none" stroke="black" points="270.5,-83 270.5,-104 383.5,-104 383.5,-83 270.5,-83"/>
<text text-anchor="start" x="291.5" y="-89.8" font-family="Times,serif" font-size="14.00">checksum</text>
<polygon fill="none" stroke="black" points="24.5,-62 24.5,-83 62.5,-83 62.5,-62 24.5,-62"/>
<text text-anchor="start" x="34" y="-68.8" font-family="Times,serif" font-size="14.00">18</text>
<polygon fill="none" stroke="black" points="62.5,-62 62.5,-83 224.5,-83 224.5,-62 62.5,-62"/>
<text text-anchor="start" x="138.5" y="-68.8" font-family="Times,serif" font-size="14.00">2</text>
<polygon fill="none" stroke="black" points="224.5,-62 224.5,-83 270.5,-83 270.5,-62 224.5,-62"/>
<text text-anchor="start" x="229.5" y="-68.8" font-family="Times,serif" font-size="14.00">u2be</text>
<polygon fill="none" stroke="black" points="270.5,-62 270.5,-83 383.5,-83 383.5,-62 270.5,-62"/>
<text text-anchor="start" x="273.5" y="-68.8" font-family="Times,serif" font-size="14.00">urgent_pointer</text>
<polygon fill="none" stroke="black" points="24.5,-41 24.5,-62 62.5,-62 62.5,-41 24.5,-41"/>
<text text-anchor="start" x="34" y="-47.8" font-family="Times,serif" font-size="14.00">20</text>
<polygon fill="none" stroke="black" points="62.5,-41 62.5,-62 224.5,-62 224.5,-41 62.5,-41"/>
<text text-anchor="start" x="65.5" y="-47.8" font-family="Times,serif" font-size="14.00">((data_offset * 4) &#45; 20)</text>
<polygon fill="none" stroke="black" points="224.5,-41 224.5,-62 270.5,-62 270.5,-41 224.5,-41"/>
<polygon fill="none" stroke="black" points="270.5,-41 270.5,-62 383.5,-62 383.5,-41 270.5,-41"/>
<text text-anchor="start" x="300.5" y="-47.8" font-family="Times,serif" font-size="14.00">options</text>
<polygon fill="none" stroke="black" points="24.5,-20 24.5,-41 62.5,-41 62.5,-20 24.5,-20"/>
<text text-anchor="start" x="36.5" y="-26.8" font-family="Times,serif" font-size="14.00">...</text>
<polygon fill="none" stroke="black" points="62.5,-20 62.5,-41 224.5,-41 224.5,-20 62.5,-20"/>
<text text-anchor="start" x="137" y="-26.8" font-family="Times,serif" font-size="14.00">⇲</text>
<polygon fill="none" stroke="black" points="224.5,-20 224.5,-41 270.5,-41 270.5,-20 224.5,-20"/>
<polygon fill="none" stroke="black" points="270.5,-20 270.5,-41 383.5,-41 383.5,-20 270.5,-20"/>
<text text-anchor="start" x="309.5" y="-26.8" font-family="Times,serif" font-size="14.00">body</text>
</g>
<!-- tcp_segment__seq&#45;&gt;tcp_segment__seq -->
<g id="edge2" class="edge">
<title>tcp_segment__seq:data_offset_type&#45;&gt;tcp_segment__seq:options_size</title>
<path fill="none" stroke="#404040" d="M343.83,-188.25C419.78,-241.09 408.94,-315.5 235.5,-315.5 67.47,-315.5 52.06,-140.89 120.32,-69.26"/>
<polygon fill="#404040" stroke="#404040" points="122.84,-71.7 127.65,-62.26 118,-66.64 122.84,-71.7"/>
</g>
<!-- flags__seq -->
<g id="node2" class="node">
<title>flags__seq</title>
<polygon fill="#e0ffe0" stroke="transparent" points="435,-208 435,-229 466,-229 466,-208 435,-208"/>
<polygon fill="none" stroke="black" points="435,-208 435,-229 466,-229 466,-208 435,-208"/>
<text text-anchor="start" x="438" y="-214.8" font-family="Times,serif" font-size="14.00">pos</text>
<polygon fill="#e0ffe0" stroke="transparent" points="466,-208 466,-229 500,-229 500,-208 466,-208"/>
<polygon fill="none" stroke="black" points="466,-208 466,-229 500,-229 500,-208 466,-208"/>
<text text-anchor="start" x="469" y="-214.8" font-family="Times,serif" font-size="14.00">size</text>
<polygon fill="#e0ffe0" stroke="transparent" points="500,-208 500,-229 684,-229 684,-208 500,-208"/>
<polygon fill="none" stroke="black" points="500,-208 500,-229 684,-229 684,-208 500,-208"/>
<text text-anchor="start" x="576" y="-214.8" font-family="Times,serif" font-size="14.00">type</text>
<polygon fill="#e0ffe0" stroke="transparent" points="684,-208 684,-229 717,-229 717,-208 684,-208"/>
<polygon fill="none" stroke="black" points="684,-208 684,-229 717,-229 717,-208 684,-208"/>
<text text-anchor="start" x="693.5" y="-214.8" font-family="Times,serif" font-size="14.00">id</text>
<polygon fill="none" stroke="black" points="435,-187 435,-208 466,-208 466,-187 435,-187"/>
<text text-anchor="start" x="445.5" y="-193.8" font-family="Times,serif" font-size="14.00">0</text>
<polygon fill="none" stroke="black" points="466,-187 466,-208 500,-208 500,-187 466,-187"/>
<text text-anchor="start" x="473.5" y="-193.8" font-family="Times,serif" font-size="14.00">1b</text>
<polygon fill="none" stroke="black" points="500,-187 500,-208 684,-208 684,-187 500,-187"/>
<text text-anchor="start" x="503" y="-193.8" font-family="Times,serif" font-size="14.00">BitsType1(BigBitEndian)</text>
<polygon fill="none" stroke="black" points="684,-187 684,-208 717,-208 717,-187 684,-187"/>
<text text-anchor="start" x="687" y="-193.8" font-family="Times,serif" font-size="14.00">cwr</text>
<polygon fill="none" stroke="black" points="435,-166 435,-187 466,-187 466,-166 435,-166"/>
<text text-anchor="start" x="439" y="-172.8" font-family="Times,serif" font-size="14.00">0:1</text>
<polygon fill="none" stroke="black" points="466,-166 466,-187 500,-187 500,-166 466,-166"/>
<text text-anchor="start" x="473.5" y="-172.8" font-family="Times,serif" font-size="14.00">1b</text>
<polygon fill="none" stroke="black" points="500,-166 500,-187 684,-187 684,-166 500,-166"/>
<text text-anchor="start" x="503" y="-172.8" font-family="Times,serif" font-size="14.00">BitsType1(BigBitEndian)</text>
<polygon fill="none" stroke="black" points="684,-166 684,-187 717,-187 717,-166 684,-166"/>
<text text-anchor="start" x="688" y="-172.8" font-family="Times,serif" font-size="14.00">ece</text>
<polygon fill="none" stroke="black" points="435,-145 435,-166 466,-166 466,-145 435,-145"/>
<text text-anchor="start" x="439" y="-151.8" font-family="Times,serif" font-size="14.00">0:2</text>
<polygon fill="none" stroke="black" points="466,-145 466,-166 500,-166 500,-145 466,-145"/>
<text text-anchor="start" x="473.5" y="-151.8" font-family="Times,serif" font-size="14.00">1b</text>
<polygon fill="none" stroke="black" points="500,-145 500,-166 684,-166 684,-145 500,-145"/>
<text text-anchor="start" x="503" y="-151.8" font-family="Times,serif" font-size="14.00">BitsType1(BigBitEndian)</text>
<polygon fill="none" stroke="black" points="684,-145 684,-166 717,-166 717,-145 684,-145"/>
<text text-anchor="start" x="688" y="-151.8" font-family="Times,serif" font-size="14.00">urg</text>
<polygon fill="none" stroke="black" points="435,-124 435,-145 466,-145 466,-124 435,-124"/>
<text text-anchor="start" x="439" y="-130.8" font-family="Times,serif" font-size="14.00">0:3</text>
<polygon fill="none" stroke="black" points="466,-124 466,-145 500,-145 500,-124 466,-124"/>
<text text-anchor="start" x="473.5" y="-130.8" font-family="Times,serif" font-size="14.00">1b</text>
<polygon fill="none" stroke="black" points="500,-124 500,-145 684,-145 684,-124 500,-124"/>
<text text-anchor="start" x="503" y="-130.8" font-family="Times,serif" font-size="14.00">BitsType1(BigBitEndian)</text>
<polygon fill="none" stroke="black" points="684,-124 684,-145 717,-145 717,-124 684,-124"/>
<text text-anchor="start" x="688" y="-130.8" font-family="Times,serif" font-size="14.00">ack</text>
<polygon fill="none" stroke="black" points="435,-103 435,-124 466,-124 466,-103 435,-103"/>
<text text-anchor="start" x="439" y="-109.8" font-family="Times,serif" font-size="14.00">0:4</text>
<polygon fill="none" stroke="black" points="466,-103 466,-124 500,-124 500,-103 466,-103"/>
<text text-anchor="start" x="473.5" y="-109.8" font-family="Times,serif" font-size="14.00">1b</text>
<polygon fill="none" stroke="black" points="500,-103 500,-124 684,-124 684,-103 500,-103"/>
<text text-anchor="start" x="503" y="-109.8" font-family="Times,serif" font-size="14.00">BitsType1(BigBitEndian)</text>
<polygon fill="none" stroke="black" points="684,-103 684,-124 717,-124 717,-103 684,-103"/>
<text text-anchor="start" x="687.5" y="-109.8" font-family="Times,serif" font-size="14.00">psh</text>
<polygon fill="none" stroke="black" points="435,-82 435,-103 466,-103 466,-82 435,-82"/>
<text text-anchor="start" x="439" y="-88.8" font-family="Times,serif" font-size="14.00">0:5</text>
<polygon fill="none" stroke="black" points="466,-82 466,-103 500,-103 500,-82 466,-82"/>
<text text-anchor="start" x="473.5" y="-88.8" font-family="Times,serif" font-size="14.00">1b</text>
<polygon fill="none" stroke="black" points="500,-82 500,-103 684,-103 684,-82 500,-82"/>
<text text-anchor="start" x="503" y="-88.8" font-family="Times,serif" font-size="14.00">BitsType1(BigBitEndian)</text>
<polygon fill="none" stroke="black" points="684,-82 684,-103 717,-103 717,-82 684,-82"/>
<text text-anchor="start" x="690" y="-88.8" font-family="Times,serif" font-size="14.00">rst</text>
<polygon fill="none" stroke="black" points="435,-61 435,-82 466,-82 466,-61 435,-61"/>
<text text-anchor="start" x="439" y="-67.8" font-family="Times,serif" font-size="14.00">0:6</text>
<polygon fill="none" stroke="black" points="466,-61 466,-82 500,-82 500,-61 466,-61"/>
<text text-anchor="start" x="473.5" y="-67.8" font-family="Times,serif" font-size="14.00">1b</text>
<polygon fill="none" stroke="black" points="500,-61 500,-82 684,-82 684,-61 500,-61"/>
<text text-anchor="start" x="503" y="-67.8" font-family="Times,serif" font-size="14.00">BitsType1(BigBitEndian)</text>
<polygon fill="none" stroke="black" points="684,-61 684,-82 717,-82 717,-61 684,-61"/>
<text text-anchor="start" x="688" y="-67.8" font-family="Times,serif" font-size="14.00">syn</text>
<polygon fill="none" stroke="black" points="435,-40 435,-61 466,-61 466,-40 435,-40"/>
<text text-anchor="start" x="439" y="-46.8" font-family="Times,serif" font-size="14.00">0:7</text>
<polygon fill="none" stroke="black" points="466,-40 466,-61 500,-61 500,-40 466,-40"/>
<text text-anchor="start" x="473.5" y="-46.8" font-family="Times,serif" font-size="14.00">1b</text>
<polygon fill="none" stroke="black" points="500,-40 500,-61 684,-61 684,-40 500,-40"/>
<text text-anchor="start" x="503" y="-46.8" font-family="Times,serif" font-size="14.00">BitsType1(BigBitEndian)</text>
<polygon fill="none" stroke="black" points="684,-40 684,-61 717,-61 717,-40 684,-40"/>
<text text-anchor="start" x="691" y="-46.8" font-family="Times,serif" font-size="14.00">fin</text>
</g>
<!-- tcp_segment__seq&#45;&gt;flags__seq -->
<g id="edge1" class="edge">
<title>tcp_segment__seq:flags_type&#45;&gt;flags__seq</title>
<path fill="none" stroke="black" stroke-width="2" d="M384.5,-135C395.01,-135 405.84,-135 416.76,-135"/>
<polygon fill="black" stroke="black" stroke-width="2" points="416.8,-138.5 426.8,-135 416.8,-131.5 416.8,-138.5"/>
</g>
</g>
</svg>
