<?xml version="1.0" encoding="UTF-8" standalone="no"?>
<!DOCTYPE svg PUBLIC "-//W3C//DTD SVG 1.1//EN"
 "http://www.w3.org/Graphics/SVG/1.1/DTD/svg11.dtd">
<!-- Generated by graphviz version 2.40.1 (20161225.0304)
 -->
<!-- Title: %3 Pages: 1 -->
<svg width="3051pt" height="477pt"
 viewBox="0.00 0.00 3051.00 477.41" xmlns="http://www.w3.org/2000/svg" xmlns:xlink="http://www.w3.org/1999/xlink">
<g id="graph0" class="graph" transform="scale(1 1) rotate(0) translate(4 473.4108)">
<title>%3</title>
<polygon fill="#ffffff" stroke="transparent" points="-4,4 -4,-473.4108 3047,-473.4108 3047,4 -4,4"/>
<g id="clust1" class="cluster">
<title>cluster__bcd</title>
<polygon fill="none" stroke="#000000" stroke-dasharray="1,5" points="117,-183.3247 117,-394.3247 3035,-394.3247 3035,-183.3247 117,-183.3247"/>
<text text-anchor="middle" x="1576" y="-379.1247" font-family="Times,serif" font-size="14.00" fill="#000000">Bcd</text>
</g>
<!-- bcd__seq -->
<g id="node1" class="node">
<title>bcd__seq</title>
<polygon fill="#e0ffe0" stroke="transparent" points="133,-269.3247 133,-290.3247 158,-290.3247 158,-269.3247 133,-269.3247"/>
<polygon fill="none" stroke="#000000" points="133,-269.3247 133,-290.3247 158,-290.3247 158,-269.3247 133,-269.3247"/>
<text text-anchor="start" x="136" y="-276.1247" font-family="Times,serif" font-size="14.00" fill="#000000">pos</text>
<polygon fill="#e0ffe0" stroke="transparent" points="158,-269.3247 158,-290.3247 186,-290.3247 186,-269.3247 158,-269.3247"/>
<polygon fill="none" stroke="#000000" points="158,-269.3247 158,-290.3247 186,-290.3247 186,-269.3247 158,-269.3247"/>
<text text-anchor="start" x="161" y="-276.1247" font-family="Times,serif" font-size="14.00" fill="#000000">size</text>
<polygon fill="#e0ffe0" stroke="transparent" points="186,-269.3247 186,-290.3247 316,-290.3247 316,-269.3247 186,-269.3247"/>
<polygon fill="none" stroke="#000000" points="186,-269.3247 186,-290.3247 316,-290.3247 316,-269.3247 186,-269.3247"/>
<text text-anchor="start" x="239" y="-276.1247" font-family="Times,serif" font-size="14.00" fill="#000000">type</text>
<polygon fill="#e0ffe0" stroke="transparent" points="316,-269.3247 316,-290.3247 353,-290.3247 353,-269.3247 316,-269.3247"/>
<polygon fill="none" stroke="#000000" points="316,-269.3247 316,-290.3247 353,-290.3247 353,-269.3247 316,-269.3247"/>
<text text-anchor="start" x="329" y="-276.1247" font-family="Times,serif" font-size="14.00" fill="#000000">id</text>
<polygon fill="none" stroke="#000000" points="133,-248.3247 133,-269.3247 158,-269.3247 158,-248.3247 133,-248.3247"/>
<text text-anchor="start" x="142" y="-255.1247" font-family="Times,serif" font-size="14.00" fill="#000000">0</text>
<polygon fill="none" stroke="#000000" points="158,-248.3247 158,-269.3247 186,-269.3247 186,-248.3247 158,-248.3247"/>
<text text-anchor="start" x="166" y="-255.1247" font-family="Times,serif" font-size="14.00" fill="#000000">...</text>
<polygon fill="none" stroke="#000000" points="186,-248.3247 186,-269.3247 316,-269.3247 316,-248.3247 186,-248.3247"/>
<text text-anchor="start" x="189" y="-255.1247" font-family="Times,serif" font-size="14.00" fill="#000000">switch (bits_per_digit)</text>
<polygon fill="none" stroke="#000000" points="316,-248.3247 316,-269.3247 353,-269.3247 353,-248.3247 316,-248.3247"/>
<text text-anchor="start" x="319" y="-255.1247" font-family="Times,serif" font-size="14.00" fill="#000000">digits</text>
<polygon fill="none" stroke="#000000" points="133,-227.3247 133,-248.3247 353,-248.3247 353,-227.3247 133,-227.3247"/>
<text text-anchor="start" x="176.5" y="-234.1247" font-family="Times,serif" font-size="14.00" fill="#000000">repeat num_digits times</text>
</g>
<!-- bcd__inst__as_int_le -->
<g id="node3" class="node">
<title>bcd__inst__as_int_le</title>
<polygon fill="#e0ffe0" stroke="transparent" points="648.5,-216.3247 648.5,-237.3247 703.5,-237.3247 703.5,-216.3247 648.5,-216.3247"/>
<polygon fill="none" stroke="#000000" points="648.5,-216.3247 648.5,-237.3247 703.5,-237.3247 703.5,-216.3247 648.5,-216.3247"/>
<text text-anchor="start" x="670.5" y="-223.1247" font-family="Times,serif" font-size="14.00" fill="#000000">id</text>
<polygon fill="#e0ffe0" stroke="transparent" points="703.5,-216.3247 703.5,-237.3247 2519.5,-237.3247 2519.5,-216.3247 703.5,-216.3247"/>
<polygon fill="none" stroke="#000000" points="703.5,-216.3247 703.5,-237.3247 2519.5,-237.3247 2519.5,-216.3247 703.5,-216.3247"/>
<text text-anchor="start" x="1596.5" y="-223.1247" font-family="Times,serif" font-size="14.00" fill="#000000">value</text>
<polygon fill="none" stroke="#000000" points="648.5,-195.3247 648.5,-216.3247 703.5,-216.3247 703.5,-195.3247 648.5,-195.3247"/>
<text text-anchor="start" x="651.5" y="-202.1247" font-family="Times,serif" font-size="14.00" fill="#000000">as_int_le</text>
<polygon fill="none" stroke="#000000" points="703.5,-195.3247 703.5,-216.3247 2519.5,-216.3247 2519.5,-195.3247 703.5,-195.3247"/>
<text text-anchor="start" x="706.5" y="-202.1247" font-family="Times,serif" font-size="14.00" fill="#000000">(digits[0] + (num_digits &lt; 2 ? 0 : ((digits[1] * 10) + (num_digits &lt; 3 ? 0 : ((digits[2] * 100) + (num_digits &lt; 4 ? 0 : ((digits[3] * 1000) + (num_digits &lt; 5 ? 0 : ((digits[4] * 10000) + (num_digits &lt; 6 ? 0 : ((digits[5] * 100000) + (num_digits &lt; 7 ? 0 : ((digits[6] * 1000000) + (num_digits &lt; 8 ? 0 : (digits[7] * 10000000)))))))))))))))</text>
</g>
<!-- bcd__seq&#45;&gt;bcd__inst__as_int_le -->
<g id="edge7" class="edge">
<title>bcd__seq:digits_type&#45;&gt;bcd__inst__as_int_le</title>
<path fill="none" stroke="#404040" d="M353,-258.3247C372.8762,-195.3247 377.2318,-189.393 397,-187.3247 835.1415,-141.4819 1368.9053,-148.4929 1533.0679,-188.7377"/>
<polygon fill="#404040" stroke="#404040" points="1532.3284,-192.162 1542.8889,-191.3091 1534.1015,-185.3903 1532.3284,-192.162"/>
</g>
<!-- bcd__seq&#45;&gt;bcd__inst__as_int_le -->
<g id="edge9" class="edge">
<title>bcd__seq:digits_type&#45;&gt;bcd__inst__as_int_le</title>
<path fill="none" stroke="#404040" d="M353.1163,-258.0615C372.8932,-213.3015 377.2704,-207.389 397,-205.3247 802.6753,-162.8789 1290.3267,-165.7441 1490.6757,-190.027"/>
<polygon fill="#404040" stroke="#404040" points="1490.504,-193.533 1500.8636,-191.3129 1491.3807,-186.5881 1490.504,-193.533"/>
</g>
<!-- bcd__seq&#45;&gt;bcd__inst__as_int_le -->
<g id="edge11" class="edge">
<title>bcd__seq:digits_type&#45;&gt;bcd__inst__as_int_le</title>
<path fill="none" stroke="#404040" d="M353.2322,-258.0092C372.9104,-231.2784 377.309,-225.385 397,-223.3247 707.4041,-190.8471 1065.802,-184.8973 1306.7689,-191.045"/>
<polygon fill="#404040" stroke="#404040" points="1306.9901,-194.5519 1317.0791,-191.3173 1307.1751,-187.5544 1306.9901,-194.5519"/>
</g>
<!-- bcd__seq&#45;&gt;bcd__inst__as_int_le -->
<g id="edge13" class="edge">
<title>bcd__seq:digits_type&#45;&gt;bcd__inst__as_int_le</title>
<path fill="none" stroke="#404040" d="M353.463,-258.1143C372.9452,-249.2322 377.3862,-243.3769 397,-241.3247 472.5485,-233.4201 550.94,-227.0869 629.7896,-222.0633"/>
<polygon fill="#404040" stroke="#404040" points="630.1489,-225.5477 639.909,-221.4259 629.7088,-218.5616 630.1489,-225.5477"/>
</g>
<!-- bcd__seq&#45;&gt;bcd__inst__as_int_le -->
<g id="edge15" class="edge">
<title>bcd__seq:digits_type&#45;&gt;bcd__inst__as_int_le</title>
<path fill="none" stroke="#404040" d="M353.463,-258.5329C372.9452,-267.2322 377.3862,-261.3769 397,-259.3247 472.5485,-251.4201 550.94,-245.0869 629.7896,-240.0096"/>
<polygon fill="#404040" stroke="#404040" points="630.1518,-243.4937 639.909,-239.365 629.7067,-236.5078 630.1518,-243.4937"/>
</g>
<!-- bcd__seq&#45;&gt;bcd__inst__as_int_le -->
<g id="edge17" class="edge">
<title>bcd__seq:digits_type&#45;&gt;bcd__inst__as_int_le</title>
<path fill="none" stroke="#404040" d="M353.2322,-258.6396C372.9104,-285.2784 377.309,-279.385 397,-277.3247 586.9007,-257.4554 794.7645,-247.5149 982.7126,-241.6389"/>
<polygon fill="#404040" stroke="#404040" points="982.895,-245.135 992.7819,-241.3273 982.6784,-238.1383 982.895,-245.135"/>
</g>
<!-- bcd__seq&#45;&gt;bcd__inst__as_int_le -->
<g id="edge19" class="edge">
<title>bcd__seq:digits_type&#45;&gt;bcd__inst__as_int_le</title>
<path fill="none" stroke="#404040" d="M353.1163,-258.5878C372.8932,-303.3015 377.2704,-297.389 397,-295.3247 772.6988,-256.0153 1218.7065,-255.568 1441.7056,-241.9626"/>
<polygon fill="#404040" stroke="#404040" points="1442.068,-245.4468 1451.8285,-241.3258 1441.6285,-238.4606 1442.068,-245.4468"/>
</g>
<!-- bcd__seq&#45;&gt;bcd__inst__as_int_le -->
<g id="edge21" class="edge">
<title>bcd__seq:digits_type&#45;&gt;bcd__inst__as_int_le</title>
<path fill="none" stroke="#404040" d="M353.1163,-258.693C372.8932,-321.3015 377.2704,-315.389 397,-313.3247 826.5355,-268.3824 1347.9738,-274.2378 1522.9702,-243.2743"/>
<polygon fill="#404040" stroke="#404040" points="1523.8347,-246.673 1533.0122,-241.3793 1522.5366,-239.7944 1523.8347,-246.673"/>
</g>
<!-- bcd__inst__as_int_be -->
<g id="node5" class="node">
<title>bcd__inst__as_int_be</title>
<polygon fill="#e0ffe0" stroke="transparent" points="405.5,-338.3247 405.5,-359.3247 463.5,-359.3247 463.5,-338.3247 405.5,-338.3247"/>
<polygon fill="none" stroke="#000000" points="405.5,-338.3247 405.5,-359.3247 463.5,-359.3247 463.5,-338.3247 405.5,-338.3247"/>
<text text-anchor="start" x="429" y="-345.1247" font-family="Times,serif" font-size="14.00" fill="#000000">id</text>
<polygon fill="#e0ffe0" stroke="transparent" points="463.5,-338.3247 463.5,-359.3247 2762.5,-359.3247 2762.5,-338.3247 463.5,-338.3247"/>
<polygon fill="none" stroke="#000000" points="463.5,-338.3247 463.5,-359.3247 2762.5,-359.3247 2762.5,-338.3247 463.5,-338.3247"/>
<text text-anchor="start" x="1598" y="-345.1247" font-family="Times,serif" font-size="14.00" fill="#000000">value</text>
<polygon fill="none" stroke="#000000" points="405.5,-317.3247 405.5,-338.3247 463.5,-338.3247 463.5,-317.3247 405.5,-317.3247"/>
<text text-anchor="start" x="408.5" y="-324.1247" font-family="Times,serif" font-size="14.00" fill="#000000">as_int_be</text>
<polygon fill="none" stroke="#000000" points="463.5,-317.3247 463.5,-338.3247 2762.5,-338.3247 2762.5,-317.3247 463.5,-317.3247"/>
<text text-anchor="start" x="466.5" y="-324.1247" font-family="Times,serif" font-size="14.00" fill="#000000">(digits[last_idx] + (num_digits &lt; 2 ? 0 : ((digits[(last_idx &#45; 1)] * 10) + (num_digits &lt; 3 ? 0 : ((digits[(last_idx &#45; 2)] * 100) + (num_digits &lt; 4 ? 0 : ((digits[(last_idx &#45; 3)] * 1000) + (num_digits &lt; 5 ? 0 : ((digits[(last_idx &#45; 4)] * 10000) + (num_digits &lt; 6 ? 0 : ((digits[(last_idx &#45; 5)] * 100000) + (num_digits &lt; 7 ? 0 : ((digits[(last_idx &#45; 6)] * 1000000) + (num_digits &lt; 8 ? 0 : (digits[(last_idx &#45; 7)] * 10000000)))))))))))))))</text>
</g>
<!-- bcd__seq&#45;&gt;bcd__inst__as_int_be -->
<g id="edge23" class="edge">
<title>bcd__seq:digits_type&#45;&gt;bcd__inst__as_int_be</title>
<path fill="none" stroke="#404040" d="M353,-258.3247C381.2913,-195.3247 371.1461,-229.8369 397,-241.3247 466.2754,-272.1061 540.1409,-294.7433 615.8469,-311.1282"/>
<polygon fill="#404040" stroke="#404040" points="615.5458,-314.6423 626.0549,-313.2975 617.0009,-307.7952 615.5458,-314.6423"/>
</g>
<!-- bcd__seq&#45;&gt;bcd__inst__as_int_be -->
<g id="edge26" class="edge">
<title>bcd__seq:digits_type&#45;&gt;bcd__inst__as_int_be</title>
<path fill="none" stroke="#404040" d="M353.1653,-258.0619C381.2518,-213.4594 371.1966,-247.8593 397,-259.3247 443.1238,-279.8191 491.2824,-296.7032 540.6643,-310.5196"/>
<polygon fill="#404040" stroke="#404040" points="539.9864,-313.9632 550.5567,-313.2422 541.8439,-307.2141 539.9864,-313.9632"/>
</g>
<!-- bcd__seq&#45;&gt;bcd__inst__as_int_be -->
<g id="edge29" class="edge">
<title>bcd__seq:digits_type&#45;&gt;bcd__inst__as_int_be</title>
<path fill="none" stroke="#404040" d="M353.3298,-258.0111C381.2125,-231.594 371.2471,-265.8818 397,-277.3247 695.2383,-409.8422 1078.5488,-391.4147 1327.5425,-364.4766"/>
<polygon fill="#404040" stroke="#404040" points="1328.2588,-367.9192 1337.8187,-363.3518 1327.4972,-360.9607 1328.2588,-367.9192"/>
</g>
<!-- bcd__seq&#45;&gt;bcd__inst__as_int_be -->
<g id="edge32" class="edge">
<title>bcd__seq:digits_type&#45;&gt;bcd__inst__as_int_be</title>
<path fill="none" stroke="#404040" d="M353.3298,-258.2212C381.2125,-249.594 371.2471,-283.8818 397,-295.3247 736.5147,-446.1827 1186.2792,-401.4226 1422.6252,-364.8935"/>
<polygon fill="#404040" stroke="#404040" points="1423.3356,-368.3251 1432.6764,-363.3251 1422.2563,-361.4087 1423.3356,-368.3251"/>
</g>
<!-- bcd__seq&#45;&gt;bcd__inst__as_int_be -->
<g id="edge35" class="edge">
<title>bcd__seq:digits_type&#45;&gt;bcd__inst__as_int_be</title>
<path fill="none" stroke="#404040" d="M353.3298,-258.4313C377.4149,-266.346 373.2596,-293.0079 388.2793,-307.499"/>
<polygon fill="#404040" stroke="#404040" points="386.4546,-310.4902 396.6998,-313.1896 390.3741,-304.6904 386.4546,-310.4902"/>
</g>
<!-- bcd__seq&#45;&gt;bcd__inst__as_int_be -->
<g id="edge38" class="edge">
<title>bcd__seq:digits_type&#45;&gt;bcd__inst__as_int_be</title>
<path fill="none" stroke="#404040" d="M353.3298,-258.6414C377.4149,-281.923 373.2596,-310.6779 388.2793,-325.454"/>
<polygon fill="#404040" stroke="#404040" points="386.4646,-328.4527 396.6998,-331.1896 390.4052,-322.6673 386.4646,-328.4527"/>
</g>
<!-- bcd__seq&#45;&gt;bcd__inst__as_int_be -->
<g id="edge41" class="edge">
<title>bcd__seq:digits_type&#45;&gt;bcd__inst__as_int_be</title>
<path fill="none" stroke="#404040" d="M353.1653,-258.5882C377.4264,-297.348 373.2281,-328.2946 388.2653,-343.3951"/>
<polygon fill="#404040" stroke="#404040" points="386.475,-346.4115 396.6993,-349.1893 390.4388,-340.6419 386.475,-346.4115"/>
</g>
<!-- bcd__seq&#45;&gt;bcd__inst__as_int_be -->
<g id="edge44" class="edge">
<title>bcd__seq:digits_type&#45;&gt;bcd__inst__as_int_be</title>
<path fill="none" stroke="#404040" d="M353.1653,-258.6935C381.2518,-321.4594 371.1966,-355.8593 397,-367.3247 815.3035,-553.1913 1400.9639,-442.1137 1548.6418,-368.3076"/>
<polygon fill="#404040" stroke="#404040" points="1550.5243,-371.2714 1557.7292,-363.5036 1547.2528,-365.083 1550.5243,-371.2714"/>
</g>
<!-- bcd__seq_digits_switch -->
<g id="node6" class="node">
<title>bcd__seq_digits_switch</title>
<polygon fill="#f0f2e4" stroke="transparent" points="1553.5,-266.3247 1553.5,-287.3247 1583.5,-287.3247 1583.5,-266.3247 1553.5,-266.3247"/>
<polygon fill="none" stroke="#000000" points="1553.5,-266.3247 1553.5,-287.3247 1583.5,-287.3247 1583.5,-266.3247 1553.5,-266.3247"/>
<text text-anchor="start" x="1556.5" y="-273.1247" font-family="Times,serif" font-size="14.00" fill="#000000">case</text>
<polygon fill="#f0f2e4" stroke="transparent" points="1583.5,-266.3247 1583.5,-287.3247 1613.5,-287.3247 1613.5,-266.3247 1583.5,-266.3247"/>
<polygon fill="none" stroke="#000000" points="1583.5,-266.3247 1583.5,-287.3247 1613.5,-287.3247 1613.5,-266.3247 1583.5,-266.3247"/>
<text text-anchor="start" x="1586.5" y="-273.1247" font-family="Times,serif" font-size="14.00" fill="#000000">type</text>
</g>
<!-- bcd__seq&#45;&gt;bcd__seq_digits_switch -->
<g id="edge1" class="edge">
<title>bcd__seq:digits_type&#45;&gt;bcd__seq_digits_switch</title>
<path fill="none" stroke="#000000" stroke-width="2" d="M353,-258.3247C813.2015,-258.3247 1370.1014,-271.7755 1535.1841,-276.0424"/>
<polygon fill="#000000" stroke="#000000" stroke-width="2" points="1535.3985,-279.549 1545.486,-276.3099 1535.5803,-272.5514 1535.3985,-279.549"/>
</g>
<!-- bcd__inst__as_int -->
<g id="node2" class="node">
<title>bcd__inst__as_int</title>
<polygon fill="#e0ffe0" stroke="transparent" points="2814.5,-216.3247 2814.5,-237.3247 2853.5,-237.3247 2853.5,-216.3247 2814.5,-216.3247"/>
<polygon fill="none" stroke="#000000" points="2814.5,-216.3247 2814.5,-237.3247 2853.5,-237.3247 2853.5,-216.3247 2814.5,-216.3247"/>
<text text-anchor="start" x="2828.5" y="-223.1247" font-family="Times,serif" font-size="14.00" fill="#000000">id</text>
<polygon fill="#e0ffe0" stroke="transparent" points="2853.5,-216.3247 2853.5,-237.3247 3019.5,-237.3247 3019.5,-216.3247 2853.5,-216.3247"/>
<polygon fill="none" stroke="#000000" points="2853.5,-216.3247 2853.5,-237.3247 3019.5,-237.3247 3019.5,-216.3247 2853.5,-216.3247"/>
<text text-anchor="start" x="2921.5" y="-223.1247" font-family="Times,serif" font-size="14.00" fill="#000000">value</text>
<polygon fill="none" stroke="#000000" points="2814.5,-195.3247 2814.5,-216.3247 2853.5,-216.3247 2853.5,-195.3247 2814.5,-195.3247"/>
<text text-anchor="start" x="2817.5" y="-202.1247" font-family="Times,serif" font-size="14.00" fill="#000000">as_int</text>
<polygon fill="none" stroke="#000000" points="2853.5,-195.3247 2853.5,-216.3247 3019.5,-216.3247 3019.5,-195.3247 2853.5,-195.3247"/>
<text text-anchor="start" x="2856.5" y="-202.1247" font-family="Times,serif" font-size="14.00" fill="#000000">(is_le ? as_int_le : as_int_be)</text>
</g>
<!-- bcd__inst__as_int_le&#45;&gt;bcd__inst__as_int -->
<g id="edge5" class="edge">
<title>bcd__inst__as_int_le:as_int_le_type&#45;&gt;bcd__inst__as_int</title>
<path fill="none" stroke="#404040" d="M2527.3578,-216.3247C2632.4688,-216.3247 2726.3783,-216.3247 2795.5997,-216.3247"/>
<polygon fill="#404040" stroke="#404040" points="2795.632,-219.8248 2805.6319,-216.3247 2795.6319,-212.8248 2795.632,-219.8248"/>
</g>
<!-- bcd__inst__last_idx -->
<g id="node4" class="node">
<title>bcd__inst__last_idx</title>
<polygon fill="#e0ffe0" stroke="transparent" points="171,-338.3247 171,-359.3247 220,-359.3247 220,-338.3247 171,-338.3247"/>
<polygon fill="none" stroke="#000000" points="171,-338.3247 171,-359.3247 220,-359.3247 220,-338.3247 171,-338.3247"/>
<text text-anchor="start" x="190" y="-345.1247" font-family="Times,serif" font-size="14.00" fill="#000000">id</text>
<polygon fill="#e0ffe0" stroke="transparent" points="220,-338.3247 220,-359.3247 316,-359.3247 316,-338.3247 220,-338.3247"/>
<polygon fill="none" stroke="#000000" points="220,-338.3247 220,-359.3247 316,-359.3247 316,-338.3247 220,-338.3247"/>
<text text-anchor="start" x="253" y="-345.1247" font-family="Times,serif" font-size="14.00" fill="#000000">value</text>
<polygon fill="none" stroke="#000000" points="171,-317.3247 171,-338.3247 220,-338.3247 220,-317.3247 171,-317.3247"/>
<text text-anchor="start" x="174" y="-324.1247" font-family="Times,serif" font-size="14.00" fill="#000000">last_idx</text>
<polygon fill="none" stroke="#000000" points="220,-317.3247 220,-338.3247 316,-338.3247 316,-317.3247 220,-317.3247"/>
<text text-anchor="start" x="223" y="-324.1247" font-family="Times,serif" font-size="14.00" fill="#000000">(num_digits &#45; 1)</text>
</g>
<!-- bcd__inst__last_idx&#45;&gt;bcd__inst__as_int_be -->
<g id="edge24" class="edge">
<title>bcd__inst__last_idx:last_idx_type&#45;&gt;bcd__inst__as_int_be</title>
<path fill="none" stroke="#404040" d="M323.8355,-314.3048C557.0457,-284.07 1230.581,-283.3489 1484.7947,-312.1415"/>
<polygon fill="#404040" stroke="#404040" points="1484.4168,-315.6211 1494.7568,-313.3113 1485.2332,-308.6688 1484.4168,-315.6211"/>
</g>
<!-- bcd__inst__last_idx&#45;&gt;bcd__inst__as_int_be -->
<g id="edge27" class="edge">
<title>bcd__inst__last_idx:last_idx_type&#45;&gt;bcd__inst__as_int_be</title>
<path fill="none" stroke="#404040" d="M323.8355,-321.1676C527.7036,-302.2886 1068.0655,-299.5196 1370.639,-312.8608"/>
<polygon fill="#404040" stroke="#404040" points="1370.7084,-316.3674 1380.856,-313.3216 1371.0239,-309.3745 1370.7084,-316.3674"/>
</g>
<!-- bcd__inst__last_idx&#45;&gt;bcd__inst__as_int_be -->
<g id="edge30" class="edge">
<title>bcd__inst__last_idx:last_idx_type&#45;&gt;bcd__inst__as_int_be</title>
<path fill="none" stroke="#404040" d="M323.8355,-328.0304C342.2233,-327.0088 363.3484,-326.0657 386.7896,-325.2013"/>
<polygon fill="#404040" stroke="#404040" points="387.1084,-328.6922 396.9764,-324.8357 386.8573,-321.6967 387.1084,-328.6922"/>
</g>
<!-- bcd__inst__last_idx&#45;&gt;bcd__inst__as_int_be -->
<g id="edge33" class="edge">
<title>bcd__inst__last_idx:last_idx_type&#45;&gt;bcd__inst__as_int_be</title>
<path fill="none" stroke="#404040" d="M323.8355,-334.8933C342.2233,-334.5527 363.3484,-334.2384 386.7896,-333.9502"/>
<polygon fill="#404040" stroke="#404040" points="387.019,-337.4478 396.9764,-333.8284 386.9352,-330.4483 387.019,-337.4478"/>
</g>
<!-- bcd__inst__last_idx&#45;&gt;bcd__inst__as_int_be -->
<g id="edge36" class="edge">
<title>bcd__inst__last_idx:last_idx_type&#45;&gt;bcd__inst__as_int_be</title>
<path fill="none" stroke="#404040" d="M323.8355,-341.7561C342.2233,-342.0967 363.3484,-342.411 386.7896,-342.6991"/>
<polygon fill="#404040" stroke="#404040" points="386.9352,-346.201 396.9764,-342.821 387.019,-339.2015 386.9352,-346.201"/>
</g>
<!-- bcd__inst__last_idx&#45;&gt;bcd__inst__as_int_be -->
<g id="edge39" class="edge">
<title>bcd__inst__last_idx:last_idx_type&#45;&gt;bcd__inst__as_int_be</title>
<path fill="none" stroke="#404040" d="M323.8355,-348.6189C342.2233,-349.6406 363.3484,-350.5836 386.7896,-351.4481"/>
<polygon fill="#404040" stroke="#404040" points="386.8573,-354.9526 396.9764,-351.8137 387.1084,-347.9571 386.8573,-354.9526"/>
</g>
<!-- bcd__inst__last_idx&#45;&gt;bcd__inst__as_int_be -->
<g id="edge42" class="edge">
<title>bcd__inst__last_idx:last_idx_type&#45;&gt;bcd__inst__as_int_be</title>
<path fill="none" stroke="#404040" d="M323.8355,-355.4818C527.7036,-374.3608 1068.0655,-377.1298 1370.639,-363.7886"/>
<polygon fill="#404040" stroke="#404040" points="1371.0239,-367.2749 1380.856,-363.3278 1370.7084,-360.282 1371.0239,-367.2749"/>
</g>
<!-- bcd__inst__last_idx&#45;&gt;bcd__inst__as_int_be -->
<g id="edge45" class="edge">
<title>bcd__inst__last_idx:last_idx_type&#45;&gt;bcd__inst__as_int_be</title>
<path fill="none" stroke="#404040" d="M323.8355,-362.3446C557.0457,-392.5793 1230.581,-393.3004 1484.7947,-364.5079"/>
<polygon fill="#404040" stroke="#404040" points="1485.2332,-367.9805 1494.7568,-363.3381 1484.4168,-361.0283 1485.2332,-367.9805"/>
</g>
<!-- bcd__inst__as_int_be&#45;&gt;bcd__inst__as_int -->
<g id="edge6" class="edge">
<title>bcd__inst__as_int_be:as_int_be_type&#45;&gt;bcd__inst__as_int</title>
<path fill="none" stroke="#404040" d="M1788.056,-363.3397C2028.4671,-385.7551 2436.8745,-401.8444 2770,-304.3247 2809.4821,-292.7666 2849.1722,-267.9133 2877.2626,-247.5575"/>
<polygon fill="#404040" stroke="#404040" points="2879.6297,-250.1603 2885.5948,-241.4042 2875.4713,-244.5294 2879.6297,-250.1603"/>
</g>
<!-- bcd__params -->
<g id="node7" class="node">
<title>bcd__params</title>
<text text-anchor="middle" x="44.5" y="-137.6247" font-family="Times,serif" font-size="14.00" fill="#000000">bcd__params</text>
</g>
<!-- bcd__params&#45;&gt;bcd__seq -->
<g id="edge2" class="edge">
<title>bcd__params:bits_per_digit_type&#45;&gt;bcd__seq:digits_type</title>
<path fill="none" stroke="#404040" d="M57.7304,-159.4639C70.7674,-175.741 92.2824,-198.6588 117,-209.3247 141.1217,-219.7335 335.0017,-204.6867 353,-223.8247 360.386,-231.6785 364.966,-245.5441 361.7043,-253.0847"/>
<polygon fill="#404040" stroke="#404040" points="359.7622,-250.1685 353,-258.3247 363.3725,-256.1657 359.7622,-250.1685"/>
</g>
<!-- bcd__params&#45;&gt;bcd__seq -->
<g id="edge3" class="edge">
<title>bcd__params:num_digits_type&#45;&gt;bcd__seq:digits__repeat</title>
<path fill="none" stroke="#404040" d="M51.469,-159.3816C62.5323,-184.9092 86.6493,-229.2498 122.9709,-236.3526"/>
<polygon fill="#404040" stroke="#404040" points="122.709,-239.8435 133,-237.3247 123.3843,-232.8762 122.709,-239.8435"/>
</g>
<!-- bcd__params&#45;&gt;bcd__inst__as_int -->
<g id="edge4" class="edge">
<title>bcd__params:is_le_type&#45;&gt;bcd__inst__as_int</title>
<path fill="none" stroke="#404040" d="M52.6302,-123.0405C63.6205,-100.8741 85.5306,-64.592 117,-49.3247 214.5684,-1.9897 252.5968,-46.3345 361,-49.3247 1432.8895,-78.8915 1708.4348,-30.9951 2770,-182.3247 2782.7709,-184.1452 2796.0689,-186.5294 2809.2151,-189.1919"/>
<polygon fill="#404040" stroke="#404040" points="2808.7235,-192.6646 2819.2271,-191.2775 2810.151,-185.8117 2808.7235,-192.6646"/>
</g>
<!-- bcd__params&#45;&gt;bcd__inst__as_int_le -->
<g id="edge8" class="edge">
<title>bcd__params:num_digits_type&#45;&gt;bcd__inst__as_int_le</title>
<path fill="none" stroke="#404040" d="M45.678,-123.1081C51.7425,-76.0557 80.5735,-33.7343 117,-19.3247 217.8411,20.566 252.7393,-13.0144 361,-19.3247 822.779,-46.2409 1377.7069,-129.8828 1538.0822,-187.7211"/>
<polygon fill="#404040" stroke="#404040" points="1537.0404,-191.0687 1547.6323,-191.3193 1539.5085,-184.5182 1537.0404,-191.0687"/>
</g>
<!-- bcd__params&#45;&gt;bcd__inst__as_int_le -->
<g id="edge10" class="edge">
<title>bcd__params:num_digits_type&#45;&gt;bcd__inst__as_int_le</title>
<path fill="none" stroke="#404040" d="M46.8284,-123.0264C54.812,-89.6592 82.4991,-50.9726 117,-37.3247 217.8411,2.566 252.7393,-31.0144 361,-37.3247 803.2448,-63.1023 1330.9244,-140.9078 1515.6483,-188.6897"/>
<polygon fill="#404040" stroke="#404040" points="1514.9308,-192.1202 1525.4935,-191.296 1516.7223,-185.3533 1514.9308,-192.1202"/>
</g>
<!-- bcd__params&#45;&gt;bcd__inst__as_int_le -->
<g id="edge12" class="edge">
<title>bcd__params:num_digits_type&#45;&gt;bcd__inst__as_int_le</title>
<path fill="none" stroke="#404040" d="M49.7197,-123.2916C60.2856,-100.3407 85.869,-67.6395 117,-55.3247 217.8411,-15.434 252.7393,-49.0144 361,-55.3247 775.208,-79.468 1264.3617,-149.2517 1476.4898,-189.4071"/>
<polygon fill="#404040" stroke="#404040" points="1475.9012,-192.8578 1486.3804,-191.2965 1477.2148,-185.9822 1475.9012,-192.8578"/>
</g>
<!-- bcd__params&#45;&gt;bcd__inst__as_int_le -->
<g id="edge14" class="edge">
<title>bcd__params:num_digits_type&#45;&gt;bcd__inst__as_int_le</title>
<path fill="none" stroke="#404040" d="M57.3382,-123.153C70.246,-106.6086 91.8063,-83.2908 117,-73.3247 217.8411,-33.434 252.7393,-67.0144 361,-73.3247 737.1811,-95.2515 1175.1785,-154.8232 1411.3334,-189.7733"/>
<polygon fill="#404040" stroke="#404040" points="1410.9784,-193.2589 1421.3837,-191.2639 1412.0054,-186.3346 1410.9784,-193.2589"/>
</g>
<!-- bcd__params&#45;&gt;bcd__inst__as_int_le -->
<g id="edge16" class="edge">
<title>bcd__params:num_digits_type&#45;&gt;bcd__inst__as_int_le</title>
<path fill="none" stroke="#404040" d="M71.4601,-123.2649C83.769,-111.5986 99.5089,-98.2438 117,-91.3247 217.8411,-51.434 252.7393,-85.0144 361,-91.3247 691.3406,-110.5796 1069.35,-158.8637 1316.4872,-190.0284"/>
<polygon fill="#404040" stroke="#404040" points="1316.329,-193.5361 1326.6883,-191.3144 1317.2046,-186.591 1316.329,-193.5361"/>
</g>
<!-- bcd__params&#45;&gt;bcd__inst__as_int_le -->
<g id="edge18" class="edge">
<title>bcd__params:num_digits_type&#45;&gt;bcd__inst__as_int_le</title>
<path fill="none" stroke="#404040" d="M89.1617,-125.6274C97.6684,-119.2782 107.0509,-113.2604 117,-109.3247 217.8411,-69.434 252.7393,-103.0144 361,-109.3247 640.3098,-125.6051 953.6983,-162.6387 1193.2433,-190.1218"/>
<polygon fill="#404040" stroke="#404040" points="1193.1858,-193.6381 1203.5194,-191.3001 1193.9832,-186.6837 1193.1858,-193.6381"/>
</g>
<!-- bcd__params&#45;&gt;bcd__inst__as_int_le -->
<g id="edge20" class="edge">
<title>bcd__params:num_digits_type&#45;&gt;bcd__inst__as_int_le</title>
<path fill="none" stroke="#404040" d="M46.7183,-159.4307C54.5546,-180.0196 82.3386,-141.036 117,-127.3247 217.8411,-87.434 252.7393,-121.0144 361,-127.3247 586.7407,-140.4827 834.7417,-167.1966 1048.0283,-190.1973"/>
<polygon fill="#404040" stroke="#404040" points="1047.8407,-193.6973 1058.1583,-191.2897 1048.5912,-186.7376 1047.8407,-193.6973"/>
</g>
<!-- bcd__params&#45;&gt;bcd__inst__last_idx -->
<g id="edge22" class="edge">
<title>bcd__params:num_digits_type&#45;&gt;bcd__inst__last_idx</title>
<path fill="none" stroke="#404040" d="M47.3575,-159.5432C53.6304,-193.3032 71.8234,-265.6567 117,-304.3247 127.3884,-313.2164 139.8814,-319.8053 152.9094,-324.6831"/>
<polygon fill="#404040" stroke="#404040" points="151.8734,-328.0276 162.4679,-327.9408 154.1317,-321.4019 151.8734,-328.0276"/>
</g>
<!-- bcd__params&#45;&gt;bcd__inst__as_int_be -->
<g id="edge25" class="edge">
<title>bcd__params:num_digits_type&#45;&gt;bcd__inst__as_int_be</title>
<path fill="none" stroke="#404040" d="M53.3256,-123.0864C93.9142,-84.1395 264.7662,-78.9345 361,-161.3247 393.4127,-189.0747 361.9663,-225.9673 397,-250.3247 440.1156,-280.3011 513.0887,-299.6896 602.3224,-311.9439"/>
<polygon fill="#404040" stroke="#404040" points="602.0505,-315.4386 612.4257,-313.2921 602.9765,-308.5001 602.0505,-315.4386"/>
</g>
<!-- bcd__params&#45;&gt;bcd__inst__as_int_be -->
<g id="edge28" class="edge">
<title>bcd__params:num_digits_type&#45;&gt;bcd__inst__as_int_be</title>
<path fill="none" stroke="#404040" d="M64.698,-123.2573C119.3614,-101.8535 272.0534,-103.1734 361,-179.3247 393.4127,-207.0747 361.9663,-243.9673 397,-268.3247 422.3158,-285.9256 457.9251,-299.8763 501.0757,-310.8472"/>
<polygon fill="#404040" stroke="#404040" points="500.4479,-314.297 510.9944,-313.2855 502.1191,-307.4994 500.4479,-314.297"/>
</g>
<!-- bcd__params&#45;&gt;bcd__inst__as_int_be -->
<g id="edge31" class="edge">
<title>bcd__params:num_digits_type&#45;&gt;bcd__inst__as_int_be</title>
<path fill="none" stroke="#404040" d="M89.2683,-127.997C156.2768,-121.3335 283.0914,-130.6235 361,-197.3247 393.4127,-225.0747 361.9663,-261.9673 397,-286.3247 409.3132,-294.8855 424.0615,-302.5828 440.9282,-309.4903"/>
<polygon fill="#404040" stroke="#404040" points="439.9269,-312.857 450.5146,-313.2471 442.4811,-306.3396 439.9269,-312.857"/>
</g>
<!-- bcd__params&#45;&gt;bcd__inst__as_int_be -->
<g id="edge34" class="edge">
<title>bcd__params:num_digits_type&#45;&gt;bcd__inst__as_int_be</title>
<path fill="none" stroke="#404040" d="M89.2683,-139.5557C156.2768,-139.3335 283.0914,-148.6235 361,-215.3247 393.4127,-243.0747 361.9663,-279.9673 397,-304.3247 538.9947,-403.0473 1004.8269,-386.9324 1308.8173,-364.1268"/>
<polygon fill="#404040" stroke="#404040" points="1309.405,-367.5924 1319.1122,-363.3473 1308.8764,-360.6124 1309.405,-367.5924"/>
</g>
<!-- bcd__params&#45;&gt;bcd__inst__as_int_be -->
<g id="edge37" class="edge">
<title>bcd__params:num_digits_type&#45;&gt;bcd__inst__as_int_be</title>
<path fill="none" stroke="#404040" d="M89.2683,-151.1143C156.2768,-157.3335 283.0914,-166.6235 361,-233.3247 390.3854,-258.4828 367.2834,-291.1556 388.8173,-315.1894"/>
<polygon fill="#404040" stroke="#404040" points="386.7751,-318.0549 396.5925,-322.0387 391.4022,-312.8022 386.7751,-318.0549"/>
</g>
<!-- bcd__params&#45;&gt;bcd__inst__as_int_be -->
<g id="edge40" class="edge">
<title>bcd__params:num_digits_type&#45;&gt;bcd__inst__as_int_be</title>
<path fill="none" stroke="#404040" d="M73.7284,-159.379C134.6514,-174.1787 276.5543,-179.0269 361,-251.3247 390.3854,-276.4828 367.2834,-309.1556 388.8173,-333.1894"/>
<polygon fill="#404040" stroke="#404040" points="386.7751,-336.0549 396.5925,-340.0387 391.4022,-330.8022 386.7751,-336.0549"/>
</g>
<!-- bcd__params&#45;&gt;bcd__inst__as_int_be -->
<g id="edge43" class="edge">
<title>bcd__params:num_digits_type&#45;&gt;bcd__inst__as_int_be</title>
<path fill="none" stroke="#404040" d="M54.7297,-159.3671C97.7101,-192.0345 265.8379,-187.852 361,-269.3247 390.3854,-294.4828 367.2834,-327.1556 388.8173,-351.1894"/>
<polygon fill="#404040" stroke="#404040" points="386.7751,-354.0549 396.5925,-358.0387 391.4022,-348.8022 386.7751,-354.0549"/>
</g>
</g>
</svg>
