<?xml version="1.0" encoding="UTF-8" standalone="no"?>
<!DOCTYPE svg PUBLIC "-//W3C//DTD SVG 1.1//EN"
 "http://www.w3.org/Graphics/SVG/1.1/DTD/svg11.dtd">
<!-- Generated by graphviz version 2.40.1 (20161225.0304)
 -->
<!-- Title: %3 Pages: 1 -->
<svg width="3831pt" height="445pt"
 viewBox="0.00 0.00 3831.00 445.21" xmlns="http://www.w3.org/2000/svg" xmlns:xlink="http://www.w3.org/1999/xlink">
<g id="graph0" class="graph" transform="scale(1 1) rotate(0) translate(4 441.207)">
<title>%3</title>
<polygon fill="#ffffff" stroke="transparent" points="-4,4 -4,-441.207 3827,-441.207 3827,4 -4,4"/>
<g id="clust1" class="cluster">
<title>cluster__bcd</title>
<polygon fill="none" stroke="#000000" stroke-dasharray="1,5" points="139,-185.7275 139,-396.7275 3815,-396.7275 3815,-185.7275 139,-185.7275"/>
<text text-anchor="middle" x="1977" y="-381.5275" font-family="Times,serif" font-size="14.00" fill="#000000">Bcd</text>
</g>
<!-- bcd__seq -->
<g id="node1" class="node">
<title>bcd__seq</title>
<polygon fill="#e0ffe0" stroke="transparent" points="155,-271.7275 155,-292.7275 186,-292.7275 186,-271.7275 155,-271.7275"/>
<polygon fill="none" stroke="#000000" points="155,-271.7275 155,-292.7275 186,-292.7275 186,-271.7275 155,-271.7275"/>
<text text-anchor="start" x="158" y="-278.5275" font-family="Times,serif" font-size="14.00" fill="#000000">pos</text>
<polygon fill="#e0ffe0" stroke="transparent" points="186,-271.7275 186,-292.7275 220,-292.7275 220,-271.7275 186,-271.7275"/>
<polygon fill="none" stroke="#000000" points="186,-271.7275 186,-292.7275 220,-292.7275 220,-271.7275 186,-271.7275"/>
<text text-anchor="start" x="189" y="-278.5275" font-family="Times,serif" font-size="14.00" fill="#000000">size</text>
<polygon fill="#e0ffe0" stroke="transparent" points="220,-271.7275 220,-292.7275 388,-292.7275 388,-271.7275 220,-271.7275"/>
<polygon fill="none" stroke="#000000" points="220,-271.7275 220,-292.7275 388,-292.7275 388,-271.7275 220,-271.7275"/>
<text text-anchor="start" x="288" y="-278.5275" font-family="Times,serif" font-size="14.00" fill="#000000">type</text>
<polygon fill="#e0ffe0" stroke="transparent" points="388,-271.7275 388,-292.7275 435,-292.7275 435,-271.7275 388,-271.7275"/>
<polygon fill="none" stroke="#000000" points="388,-271.7275 388,-292.7275 435,-292.7275 435,-271.7275 388,-271.7275"/>
<text text-anchor="start" x="404.5" y="-278.5275" font-family="Times,serif" font-size="14.00" fill="#000000">id</text>
<polygon fill="none" stroke="#000000" points="155,-250.7275 155,-271.7275 186,-271.7275 186,-250.7275 155,-250.7275"/>
<text text-anchor="start" x="165.5" y="-257.5275" font-family="Times,serif" font-size="14.00" fill="#000000">0</text>
<polygon fill="none" stroke="#000000" points="186,-250.7275 186,-271.7275 220,-271.7275 220,-250.7275 186,-250.7275"/>
<text text-anchor="start" x="196" y="-257.5275" font-family="Times,serif" font-size="14.00" fill="#000000">...</text>
<polygon fill="none" stroke="#000000" points="220,-250.7275 220,-271.7275 388,-271.7275 388,-250.7275 220,-250.7275"/>
<text text-anchor="start" x="223" y="-257.5275" font-family="Times,serif" font-size="14.00" fill="#000000">switch (bits_per_digit)</text>
<polygon fill="none" stroke="#000000" points="388,-250.7275 388,-271.7275 435,-271.7275 435,-250.7275 388,-250.7275"/>
<text text-anchor="start" x="391" y="-257.5275" font-family="Times,serif" font-size="14.00" fill="#000000">digits</text>
<polygon fill="none" stroke="#000000" points="155,-229.7275 155,-250.7275 435,-250.7275 435,-229.7275 155,-229.7275"/>
<text text-anchor="start" x="207.5" y="-236.5275" font-family="Times,serif" font-size="14.00" fill="#000000">repeat num_digits times</text>
</g>
<!-- bcd__inst__as_int_le -->
<g id="node3" class="node">
<title>bcd__inst__as_int_le</title>
<polygon fill="#e0ffe0" stroke="transparent" points="790.5,-218.7275 790.5,-239.7275 860.5,-239.7275 860.5,-218.7275 790.5,-218.7275"/>
<polygon fill="none" stroke="#000000" points="790.5,-218.7275 790.5,-239.7275 860.5,-239.7275 860.5,-218.7275 790.5,-218.7275"/>
<text text-anchor="start" x="818.5" y="-225.5275" font-family="Times,serif" font-size="14.00" fill="#000000">id</text>
<polygon fill="#e0ffe0" stroke="transparent" points="860.5,-218.7275 860.5,-239.7275 3184.5,-239.7275 3184.5,-218.7275 860.5,-218.7275"/>
<polygon fill="none" stroke="#000000" points="860.5,-218.7275 860.5,-239.7275 3184.5,-239.7275 3184.5,-218.7275 860.5,-218.7275"/>
<text text-anchor="start" x="2003" y="-225.5275" font-family="Times,serif" font-size="14.00" fill="#000000">value</text>
<polygon fill="none" stroke="#000000" points="790.5,-197.7275 790.5,-218.7275 860.5,-218.7275 860.5,-197.7275 790.5,-197.7275"/>
<text text-anchor="start" x="793.5" y="-204.5275" font-family="Times,serif" font-size="14.00" fill="#000000">as_int_le</text>
<polygon fill="none" stroke="#000000" points="860.5,-197.7275 860.5,-218.7275 3184.5,-218.7275 3184.5,-197.7275 860.5,-197.7275"/>
<text text-anchor="start" x="863.5" y="-204.5275" font-family="Times,serif" font-size="14.00" fill="#000000">(digits[0] + (num_digits &lt; 2 ? 0 : ((digits[1] * 10) + (num_digits &lt; 3 ? 0 : ((digits[2] * 100) + (num_digits &lt; 4 ? 0 : ((digits[3] * 1000) + (num_digits &lt; 5 ? 0 : ((digits[4] * 10000) + (num_digits &lt; 6 ? 0 : ((digits[5] * 100000) + (num_digits &lt; 7 ? 0 : ((digits[6] * 1000000) + (num_digits &lt; 8 ? 0 : (digits[7] * 10000000)))))))))))))))</text>
</g>
<!-- bcd__seq&#45;&gt;bcd__inst__as_int_le -->
<g id="edge7" class="edge">
<title>bcd__seq:digits_type&#45;&gt;bcd__inst__as_int_le</title>
<path fill="none" stroke="#404040" d="M435,-260.7275C454.8762,-197.7275 459.2255,-191.7354 479,-189.7275 1041.2407,-132.6369 1727.1422,-147.6223 1929.0066,-191.4515"/>
<polygon fill="#404040" stroke="#404040" points="1928.2846,-194.8767 1938.8134,-193.6957 1929.8461,-188.0531 1928.2846,-194.8767"/>
</g>
<!-- bcd__seq&#45;&gt;bcd__inst__as_int_le -->
<g id="edge9" class="edge">
<title>bcd__seq:digits_type&#45;&gt;bcd__inst__as_int_le</title>
<path fill="none" stroke="#404040" d="M435.1163,-260.4643C454.8932,-215.7041 459.2641,-209.7315 479,-207.7275 1005,-154.3168 1639.2329,-163.9899 1884.101,-192.5268"/>
<polygon fill="#404040" stroke="#404040" points="1883.7115,-196.0051 1894.0579,-193.7242 1884.5474,-189.0551 1883.7115,-196.0051"/>
</g>
<!-- bcd__seq&#45;&gt;bcd__inst__as_int_le -->
<g id="edge11" class="edge">
<title>bcd__seq:digits_type&#45;&gt;bcd__inst__as_int_le</title>
<path fill="none" stroke="#404040" d="M435.2322,-260.412C454.9104,-233.6807 459.3028,-227.7276 479,-225.7275 921.4247,-180.8032 1440.4208,-180.5086 1739.8878,-193.2816"/>
<polygon fill="#404040" stroke="#404040" points="1739.8637,-196.7837 1750.0064,-193.7218 1740.1681,-189.7904 1739.8637,-196.7837"/>
</g>
<!-- bcd__seq&#45;&gt;bcd__inst__as_int_le -->
<g id="edge13" class="edge">
<title>bcd__seq:digits_type&#45;&gt;bcd__inst__as_int_le</title>
<path fill="none" stroke="#404040" d="M435.463,-260.5171C454.9451,-251.6341 459.38,-245.7197 479,-243.7275 574.1169,-234.0692 672.7731,-226.4737 772.026,-220.5753"/>
<polygon fill="#404040" stroke="#404040" points="772.4769,-224.0549 782.2541,-219.9736 772.0657,-217.067 772.4769,-224.0549"/>
</g>
<!-- bcd__seq&#45;&gt;bcd__inst__as_int_le -->
<g id="edge15" class="edge">
<title>bcd__seq:digits_type&#45;&gt;bcd__inst__as_int_le</title>
<path fill="none" stroke="#404040" d="M435.463,-260.9357C454.9451,-269.6341 459.38,-263.7197 479,-261.7275 574.1169,-252.0692 672.7731,-244.4737 772.026,-238.5231"/>
<polygon fill="#404040" stroke="#404040" points="772.4791,-242.0025 782.2541,-237.9159 772.0642,-235.0148 772.4791,-242.0025"/>
</g>
<!-- bcd__seq&#45;&gt;bcd__inst__as_int_le -->
<g id="edge17" class="edge">
<title>bcd__seq:digits_type&#45;&gt;bcd__inst__as_int_le</title>
<path fill="none" stroke="#404040" d="M435.2322,-261.0424C454.9104,-287.6807 459.3028,-281.7276 479,-279.7275 657.0176,-261.6514 847.4321,-250.8008 1030.9545,-244.094"/>
<polygon fill="#404040" stroke="#404040" points="1031.2102,-247.5871 1041.0772,-243.728 1030.9572,-240.5917 1031.2102,-247.5871"/>
</g>
<!-- bcd__seq&#45;&gt;bcd__inst__as_int_le -->
<g id="edge19" class="edge">
<title>bcd__seq:digits_type&#45;&gt;bcd__inst__as_int_le</title>
<path fill="none" stroke="#404040" d="M435.1163,-260.9906C454.8932,-305.7041 459.2641,-299.7315 479,-297.7275 926.0954,-252.3289 1451.3874,-252.5074 1749.2984,-244.0236"/>
<polygon fill="#404040" stroke="#404040" points="1749.467,-247.5202 1759.361,-243.7311 1749.2635,-240.5232 1749.467,-247.5202"/>
</g>
<!-- bcd__seq&#45;&gt;bcd__inst__as_int_le -->
<g id="edge21" class="edge">
<title>bcd__seq:digits_type&#45;&gt;bcd__inst__as_int_le</title>
<path fill="none" stroke="#404040" d="M435.1163,-261.0958C454.8932,-323.7041 459.2641,-317.7315 479,-315.7275 1022.5069,-260.5392 1681.571,-272.7037 1907.2385,-245.0521"/>
<polygon fill="#404040" stroke="#404040" points="1907.8651,-248.5003 1917.3345,-243.7485 1906.9686,-241.558 1907.8651,-248.5003"/>
</g>
<!-- bcd__inst__as_int_be -->
<g id="node5" class="node">
<title>bcd__inst__as_int_be</title>
<polygon fill="#e0ffe0" stroke="transparent" points="487.5,-340.7275 487.5,-361.7275 561.5,-361.7275 561.5,-340.7275 487.5,-340.7275"/>
<polygon fill="none" stroke="#000000" points="487.5,-340.7275 487.5,-361.7275 561.5,-361.7275 561.5,-340.7275 487.5,-340.7275"/>
<text text-anchor="start" x="517.5" y="-347.5275" font-family="Times,serif" font-size="14.00" fill="#000000">id</text>
<polygon fill="#e0ffe0" stroke="transparent" points="561.5,-340.7275 561.5,-361.7275 3488.5,-361.7275 3488.5,-340.7275 561.5,-340.7275"/>
<polygon fill="none" stroke="#000000" points="561.5,-340.7275 561.5,-361.7275 3488.5,-361.7275 3488.5,-340.7275 561.5,-340.7275"/>
<text text-anchor="start" x="2005.5" y="-347.5275" font-family="Times,serif" font-size="14.00" fill="#000000">value</text>
<polygon fill="none" stroke="#000000" points="487.5,-319.7275 487.5,-340.7275 561.5,-340.7275 561.5,-319.7275 487.5,-319.7275"/>
<text text-anchor="start" x="490.5" y="-326.5275" font-family="Times,serif" font-size="14.00" fill="#000000">as_int_be</text>
<polygon fill="none" stroke="#000000" points="561.5,-319.7275 561.5,-340.7275 3488.5,-340.7275 3488.5,-319.7275 561.5,-319.7275"/>
<text text-anchor="start" x="564.5" y="-326.5275" font-family="Times,serif" font-size="14.00" fill="#000000">(digits[last_idx] + (num_digits &lt; 2 ? 0 : ((digits[(last_idx &#45; 1)] * 10) + (num_digits &lt; 3 ? 0 : ((digits[(last_idx &#45; 2)] * 100) + (num_digits &lt; 4 ? 0 : ((digits[(last_idx &#45; 3)] * 1000) + (num_digits &lt; 5 ? 0 : ((digits[(last_idx &#45; 4)] * 10000) + (num_digits &lt; 6 ? 0 : ((digits[(last_idx &#45; 5)] * 100000) + (num_digits &lt; 7 ? 0 : ((digits[(last_idx &#45; 6)] * 1000000) + (num_digits &lt; 8 ? 0 : (digits[(last_idx &#45; 7)] * 10000000)))))))))))))))</text>
</g>
<!-- bcd__seq&#45;&gt;bcd__inst__as_int_be -->
<g id="edge23" class="edge">
<title>bcd__seq:digits_type&#45;&gt;bcd__inst__as_int_be</title>
<path fill="none" stroke="#404040" d="M435,-260.7275C463.2913,-197.7275 453.1111,-232.3188 479,-243.7275 583.3724,-289.7222 791.2832,-308.3601 1020.2171,-315.41"/>
<polygon fill="#404040" stroke="#404040" points="1020.3403,-318.9152 1030.4409,-315.7168 1020.5504,-311.9183 1020.3403,-318.9152"/>
</g>
<!-- bcd__seq&#45;&gt;bcd__inst__as_int_be -->
<g id="edge26" class="edge">
<title>bcd__seq:digits_type&#45;&gt;bcd__inst__as_int_be</title>
<path fill="none" stroke="#404040" d="M435.1653,-260.4647C463.2516,-215.8625 453.1616,-250.3411 479,-261.7275 535.3143,-286.544 621.7702,-303.3965 725.4069,-314.6506"/>
<polygon fill="#404040" stroke="#404040" points="725.1756,-318.1456 735.4895,-315.7223 725.9155,-311.1848 725.1756,-318.1456"/>
</g>
<!-- bcd__seq&#45;&gt;bcd__inst__as_int_be -->
<g id="edge29" class="edge">
<title>bcd__seq:digits_type&#45;&gt;bcd__inst__as_int_be</title>
<path fill="none" stroke="#404040" d="M435.3298,-260.4139C463.2123,-233.9974 453.2122,-268.3633 479,-279.7275 509.9765,-293.3782 550.0731,-304.6192 597.1325,-313.8258"/>
<polygon fill="#404040" stroke="#404040" points="596.4785,-317.264 606.9573,-315.6997 597.7901,-310.388 596.4785,-317.264"/>
</g>
<!-- bcd__seq&#45;&gt;bcd__inst__as_int_be -->
<g id="edge32" class="edge">
<title>bcd__seq:digits_type&#45;&gt;bcd__inst__as_int_be</title>
<path fill="none" stroke="#404040" d="M435.3298,-260.624C463.2123,-251.9974 453.2122,-286.3633 479,-297.7275 636.2602,-367.0288 1028.5748,-374.2241 1373.6927,-365.9826"/>
<polygon fill="#404040" stroke="#404040" points="1373.9774,-369.4768 1383.8892,-365.7343 1373.807,-362.4789 1373.9774,-369.4768"/>
</g>
<!-- bcd__seq&#45;&gt;bcd__inst__as_int_be -->
<g id="edge35" class="edge">
<title>bcd__seq:digits_type&#45;&gt;bcd__inst__as_int_be</title>
<path fill="none" stroke="#404040" d="M435.3298,-260.8341C459.4147,-268.7493 455.2335,-295.4696 470.2686,-309.9258"/>
<polygon fill="#404040" stroke="#404040" points="468.4476,-312.919 478.6994,-315.5933 472.3529,-307.1096 468.4476,-312.919"/>
</g>
<!-- bcd__seq&#45;&gt;bcd__inst__as_int_be -->
<g id="edge38" class="edge">
<title>bcd__seq:digits_type&#45;&gt;bcd__inst__as_int_be</title>
<path fill="none" stroke="#404040" d="M435.3298,-261.0442C459.4147,-284.3264 455.2335,-313.1396 470.2686,-327.8809"/>
<polygon fill="#404040" stroke="#404040" points="468.4575,-330.8815 478.6994,-333.5933 472.384,-325.0864 468.4575,-330.8815"/>
</g>
<!-- bcd__seq&#45;&gt;bcd__inst__as_int_be -->
<g id="edge41" class="edge">
<title>bcd__seq:digits_type&#45;&gt;bcd__inst__as_int_be</title>
<path fill="none" stroke="#404040" d="M435.1653,-260.991C459.4263,-299.751 455.202,-330.7563 470.2547,-345.822"/>
<polygon fill="#404040" stroke="#404040" points="468.4679,-348.8401 478.6988,-351.593 472.4176,-343.0609 468.4679,-348.8401"/>
</g>
<!-- bcd__seq&#45;&gt;bcd__inst__as_int_be -->
<g id="edge44" class="edge">
<title>bcd__seq:digits_type&#45;&gt;bcd__inst__as_int_be</title>
<path fill="none" stroke="#404040" d="M435.1653,-261.0963C463.2516,-323.8625 453.1616,-358.3411 479,-369.7275 743.5144,-486.2935 1673.041,-427.1503 1924.4209,-368.2559"/>
<polygon fill="#404040" stroke="#404040" points="1925.5913,-371.5733 1934.4798,-365.8074 1923.9357,-364.7719 1925.5913,-371.5733"/>
</g>
<!-- bcd__seq_digits_switch -->
<g id="node6" class="node">
<title>bcd__seq_digits_switch</title>
<polygon fill="#f0f2e4" stroke="transparent" points="1949.5,-268.7275 1949.5,-289.7275 1988.5,-289.7275 1988.5,-268.7275 1949.5,-268.7275"/>
<polygon fill="none" stroke="#000000" points="1949.5,-268.7275 1949.5,-289.7275 1988.5,-289.7275 1988.5,-268.7275 1949.5,-268.7275"/>
<text text-anchor="start" x="1952.5" y="-275.5275" font-family="Times,serif" font-size="14.00" fill="#000000">case</text>
<polygon fill="#f0f2e4" stroke="transparent" points="1988.5,-268.7275 1988.5,-289.7275 2026.5,-289.7275 2026.5,-268.7275 1988.5,-268.7275"/>
<polygon fill="none" stroke="#000000" points="1988.5,-268.7275 1988.5,-289.7275 2026.5,-289.7275 2026.5,-268.7275 1988.5,-268.7275"/>
<text text-anchor="start" x="1991.5" y="-275.5275" font-family="Times,serif" font-size="14.00" fill="#000000">type</text>
</g>
<!-- bcd__seq&#45;&gt;bcd__seq_digits_switch -->
<g id="edge1" class="edge">
<title>bcd__seq:digits_type&#45;&gt;bcd__seq_digits_switch</title>
<path fill="none" stroke="#000000" stroke-width="2" d="M435,-260.7275C1019.5346,-260.7275 1727.7738,-274.3611 1930.7025,-278.5306"/>
<polygon fill="#000000" stroke="#000000" stroke-width="2" points="1930.7559,-282.0323 1940.8259,-278.7394 1930.9003,-275.0338 1930.7559,-282.0323"/>
</g>
<!-- bcd__inst__as_int -->
<g id="node2" class="node">
<title>bcd__inst__as_int</title>
<polygon fill="#e0ffe0" stroke="transparent" points="3540.5,-218.7275 3540.5,-239.7275 3589.5,-239.7275 3589.5,-218.7275 3540.5,-218.7275"/>
<polygon fill="none" stroke="#000000" points="3540.5,-218.7275 3540.5,-239.7275 3589.5,-239.7275 3589.5,-218.7275 3540.5,-218.7275"/>
<text text-anchor="start" x="3558" y="-225.5275" font-family="Times,serif" font-size="14.00" fill="#000000">id</text>
<polygon fill="#e0ffe0" stroke="transparent" points="3589.5,-218.7275 3589.5,-239.7275 3799.5,-239.7275 3799.5,-218.7275 3589.5,-218.7275"/>
<polygon fill="none" stroke="#000000" points="3589.5,-218.7275 3589.5,-239.7275 3799.5,-239.7275 3799.5,-218.7275 3589.5,-218.7275"/>
<text text-anchor="start" x="3675" y="-225.5275" font-family="Times,serif" font-size="14.00" fill="#000000">value</text>
<polygon fill="none" stroke="#000000" points="3540.5,-197.7275 3540.5,-218.7275 3589.5,-218.7275 3589.5,-197.7275 3540.5,-197.7275"/>
<text text-anchor="start" x="3543.5" y="-204.5275" font-family="Times,serif" font-size="14.00" fill="#000000">as_int</text>
<polygon fill="none" stroke="#000000" points="3589.5,-197.7275 3589.5,-218.7275 3799.5,-218.7275 3799.5,-197.7275 3589.5,-197.7275"/>
<text text-anchor="start" x="3592.5" y="-204.5275" font-family="Times,serif" font-size="14.00" fill="#000000">(is_le ? as_int_le : as_int_be)</text>
</g>
<!-- bcd__inst__as_int_le&#45;&gt;bcd__inst__as_int -->
<g id="edge5" class="edge">
<title>bcd__inst__as_int_le:as_int_le_type&#45;&gt;bcd__inst__as_int</title>
<path fill="none" stroke="#404040" d="M3192.567,-218.7275C3321.8466,-218.7275 3436.9031,-218.7275 3521.6046,-218.7275"/>
<polygon fill="#404040" stroke="#404040" points="3521.7826,-222.2276 3531.7825,-218.7275 3521.7825,-215.2276 3521.7826,-222.2276"/>
</g>
<!-- bcd__inst__last_idx -->
<g id="node4" class="node">
<title>bcd__inst__last_idx</title>
<polygon fill="#e0ffe0" stroke="transparent" points="205,-340.7275 205,-361.7275 267,-361.7275 267,-340.7275 205,-340.7275"/>
<polygon fill="none" stroke="#000000" points="205,-340.7275 205,-361.7275 267,-361.7275 267,-340.7275 205,-340.7275"/>
<text text-anchor="start" x="229" y="-347.5275" font-family="Times,serif" font-size="14.00" fill="#000000">id</text>
<polygon fill="#e0ffe0" stroke="transparent" points="267,-340.7275 267,-361.7275 386,-361.7275 386,-340.7275 267,-340.7275"/>
<polygon fill="none" stroke="#000000" points="267,-340.7275 267,-361.7275 386,-361.7275 386,-340.7275 267,-340.7275"/>
<text text-anchor="start" x="307" y="-347.5275" font-family="Times,serif" font-size="14.00" fill="#000000">value</text>
<polygon fill="none" stroke="#000000" points="205,-319.7275 205,-340.7275 267,-340.7275 267,-319.7275 205,-319.7275"/>
<text text-anchor="start" x="208" y="-326.5275" font-family="Times,serif" font-size="14.00" fill="#000000">last_idx</text>
<polygon fill="none" stroke="#000000" points="267,-319.7275 267,-340.7275 386,-340.7275 386,-319.7275 267,-319.7275"/>
<text text-anchor="start" x="270" y="-326.5275" font-family="Times,serif" font-size="14.00" fill="#000000">(num_digits &#45; 1)</text>
</g>
<!-- bcd__inst__last_idx&#45;&gt;bcd__inst__as_int_be -->
<g id="edge24" class="edge">
<title>bcd__inst__last_idx:last_idx_type&#45;&gt;bcd__inst__as_int_be</title>
<path fill="none" stroke="#404040" d="M393.6217,-317.0648C685.5013,-286.4083 1544.6036,-285.635 1865.0989,-314.7449"/>
<polygon fill="#404040" stroke="#404040" points="1865.065,-318.257 1875.3476,-315.7038 1865.7171,-311.2874 1865.065,-318.257"/>
</g>
<!-- bcd__inst__last_idx&#45;&gt;bcd__inst__as_int_be -->
<g id="edge27" class="edge">
<title>bcd__inst__last_idx:last_idx_type&#45;&gt;bcd__inst__as_int_be</title>
<path fill="none" stroke="#404040" d="M393.6217,-323.8256C648.8861,-304.675 1337.9878,-301.8502 1721.2396,-315.3511"/>
<polygon fill="#404040" stroke="#404040" points="1721.2427,-318.8534 1731.3618,-315.7141 1721.4937,-311.8579 1721.2427,-318.8534"/>
</g>
<!-- bcd__inst__last_idx&#45;&gt;bcd__inst__as_int_be -->
<g id="edge30" class="edge">
<title>bcd__inst__last_idx:last_idx_type&#45;&gt;bcd__inst__as_int_be</title>
<path fill="none" stroke="#404040" d="M393.6217,-330.5863C415.6554,-329.5945 440.9215,-328.6757 468.9442,-327.8299"/>
<polygon fill="#404040" stroke="#404040" points="469.0781,-331.3275 478.9704,-327.5337 468.8714,-324.3306 469.0781,-331.3275"/>
</g>
<!-- bcd__inst__last_idx&#45;&gt;bcd__inst__as_int_be -->
<g id="edge33" class="edge">
<title>bcd__inst__last_idx:last_idx_type&#45;&gt;bcd__inst__as_int_be</title>
<path fill="none" stroke="#404040" d="M393.6217,-337.3471C415.6554,-337.0165 440.9215,-336.7102 468.9442,-336.4283"/>
<polygon fill="#404040" stroke="#404040" points="469.0054,-339.9279 478.9704,-336.3296 468.9364,-332.9283 469.0054,-339.9279"/>
</g>
<!-- bcd__inst__last_idx&#45;&gt;bcd__inst__as_int_be -->
<g id="edge36" class="edge">
<title>bcd__inst__last_idx:last_idx_type&#45;&gt;bcd__inst__as_int_be</title>
<path fill="none" stroke="#404040" d="M393.6217,-344.1079C415.6554,-344.4385 440.9215,-344.7447 468.9442,-345.0267"/>
<polygon fill="#404040" stroke="#404040" points="468.9364,-348.5267 478.9704,-345.1254 469.0054,-341.527 468.9364,-348.5267"/>
</g>
<!-- bcd__inst__last_idx&#45;&gt;bcd__inst__as_int_be -->
<g id="edge39" class="edge">
<title>bcd__inst__last_idx:last_idx_type&#45;&gt;bcd__inst__as_int_be</title>
<path fill="none" stroke="#404040" d="M393.6217,-350.8686C415.6554,-351.8604 440.9215,-352.7793 468.9442,-353.6251"/>
<polygon fill="#404040" stroke="#404040" points="468.8714,-357.1244 478.9704,-353.9213 469.0781,-350.1274 468.8714,-357.1244"/>
</g>
<!-- bcd__inst__last_idx&#45;&gt;bcd__inst__as_int_be -->
<g id="edge42" class="edge">
<title>bcd__inst__last_idx:last_idx_type&#45;&gt;bcd__inst__as_int_be</title>
<path fill="none" stroke="#404040" d="M393.6217,-357.6294C648.8861,-376.7799 1337.9878,-379.6047 1721.2396,-366.1039"/>
<polygon fill="#404040" stroke="#404040" points="1721.4937,-369.5971 1731.3618,-365.7409 1721.2427,-362.6016 1721.4937,-369.5971"/>
</g>
<!-- bcd__inst__last_idx&#45;&gt;bcd__inst__as_int_be -->
<g id="edge45" class="edge">
<title>bcd__inst__last_idx:last_idx_type&#45;&gt;bcd__inst__as_int_be</title>
<path fill="none" stroke="#404040" d="M393.6217,-364.3901C685.5013,-395.0466 1544.6036,-395.8199 1865.0989,-366.71"/>
<polygon fill="#404040" stroke="#404040" points="1865.7171,-370.1676 1875.3476,-365.7511 1865.065,-363.198 1865.7171,-370.1676"/>
</g>
<!-- bcd__inst__as_int_be&#45;&gt;bcd__inst__as_int -->
<g id="edge6" class="edge">
<title>bcd__inst__as_int_be:as_int_be_type&#45;&gt;bcd__inst__as_int</title>
<path fill="none" stroke="#404040" d="M2206.3646,-365.7309C2503.5159,-392.9613 3048.8286,-418.989 3496,-306.7275 3542.0083,-295.1772 3589.7562,-269.813 3623.4865,-249.269"/>
<polygon fill="#404040" stroke="#404040" points="3625.5188,-252.1274 3632.1821,-243.8902 3621.8364,-246.1743 3625.5188,-252.1274"/>
</g>
<!-- bcd__params -->
<g id="node7" class="node">
<title>bcd__params</title>
<text text-anchor="middle" x="55.5" y="-140.0275" font-family="Times,serif" font-size="14.00" fill="#000000">bcd__params</text>
</g>
<!-- bcd__params&#45;&gt;bcd__seq -->
<g id="edge2" class="edge">
<title>bcd__params:bits_per_digit_type&#45;&gt;bcd__seq:digits_type</title>
<path fill="none" stroke="#404040" d="M71.3038,-161.9688C86.7189,-178.318 111.7688,-201.2845 139,-211.7275 169.7451,-223.518 412.2929,-202.3808 435,-226.2275 442.4347,-234.0353 446.9949,-247.9196 443.7172,-255.4753"/>
<polygon fill="#404040" stroke="#404040" points="441.7592,-252.5688 435,-260.7275 445.3717,-258.5646 441.7592,-252.5688"/>
</g>
<!-- bcd__params&#45;&gt;bcd__seq -->
<g id="edge3" class="edge">
<title>bcd__params:num_digits_type&#45;&gt;bcd__seq:digits__repeat</title>
<path fill="none" stroke="#404040" d="M63.9679,-161.7843C77.278,-187.4206 105.6722,-232.0303 144.8185,-238.844"/>
<polygon fill="#404040" stroke="#404040" points="144.7348,-242.3499 155,-239.7275 145.34,-235.3761 144.7348,-242.3499"/>
</g>
<!-- bcd__params&#45;&gt;bcd__inst__as_int -->
<g id="edge4" class="edge">
<title>bcd__params:is_le_type&#45;&gt;bcd__inst__as_int</title>
<path fill="none" stroke="#404040" d="M65.2777,-125.3718C78.5309,-102.6903 104.5537,-65.203 139,-49.7275 262.2446,5.642 307.9219,-46.7424 443,-49.7275 1800.8833,-79.7348 2147.3668,-23.6813 3496,-184.7275 3511.7747,-186.6112 3528.2628,-189.123 3544.5311,-191.932"/>
<polygon fill="#404040" stroke="#404040" points="3544.1669,-195.4218 3554.6236,-193.7164 3545.3857,-188.5287 3544.1669,-195.4218"/>
</g>
<!-- bcd__params&#45;&gt;bcd__inst__as_int_le -->
<g id="edge8" class="edge">
<title>bcd__params:num_digits_type&#45;&gt;bcd__inst__as_int_le</title>
<path fill="none" stroke="#404040" d="M56.9325,-125.5037C64.2874,-78.4159 99.0151,-35.9491 139,-21.7275 266.2989,23.5495 308.0328,-15.4927 443,-21.7275 1027.6256,-48.734 1732.7606,-132.9484 1932.4437,-190.8135"/>
<polygon fill="#404040" stroke="#404040" points="1931.5374,-194.1957 1942.1216,-193.7211 1933.5516,-187.4917 1931.5374,-194.1957"/>
</g>
<!-- bcd__params&#45;&gt;bcd__inst__as_int_le -->
<g id="edge10" class="edge">
<title>bcd__params:num_digits_type&#45;&gt;bcd__inst__as_int_le</title>
<path fill="none" stroke="#404040" d="M58.3251,-125.4155C67.9737,-92.005 101.1289,-53.1973 139,-39.7275 266.2989,5.5495 308.0328,-33.4927 443,-39.7275 1002.6119,-65.5785 1672.6415,-143.8468 1904.086,-191.5886"/>
<polygon fill="#404040" stroke="#404040" points="1903.6093,-195.0648 1914.1155,-193.6973 1905.0496,-188.2146 1903.6093,-195.0648"/>
</g>
<!-- bcd__params&#45;&gt;bcd__inst__as_int_le -->
<g id="edge12" class="edge">
<title>bcd__params:num_digits_type&#45;&gt;bcd__inst__as_int_le</title>
<path fill="none" stroke="#404040" d="M61.8076,-125.6661C74.4955,-102.6657 104.8279,-69.8816 139,-57.7275 266.2989,-12.4505 308.0328,-51.4927 443,-57.7275 966.8709,-81.9274 1587.5057,-152.063 1854.5166,-192.165"/>
<polygon fill="#404040" stroke="#404040" points="1854.2293,-195.6613 1864.6404,-193.6969 1855.2766,-188.74 1854.2293,-195.6613"/>
</g>
<!-- bcd__params&#45;&gt;bcd__inst__as_int_le -->
<g id="edge14" class="edge">
<title>bcd__params:num_digits_type&#45;&gt;bcd__inst__as_int_le</title>
<path fill="none" stroke="#404040" d="M70.8969,-125.4975C86.2053,-108.9108 111.3453,-85.5636 139,-75.7275 266.2989,-30.4505 308.0328,-69.4927 443,-75.7275 918.9403,-97.7133 1474.7481,-157.6137 1772.6921,-192.5196"/>
<polygon fill="#404040" stroke="#404040" points="1772.4041,-196.0098 1782.7439,-193.6993 1773.2201,-189.0575 1772.4041,-196.0098"/>
</g>
<!-- bcd__params&#45;&gt;bcd__inst__as_int_le -->
<g id="edge16" class="edge">
<title>bcd__params:num_digits_type&#45;&gt;bcd__inst__as_int_le</title>
<path fill="none" stroke="#404040" d="M87.4856,-125.5784C101.8126,-113.8977 119.8002,-100.5564 139,-93.7275 266.2989,-48.4505 308.0328,-87.4927 443,-93.7275 860.7969,-113.0274 1340.1392,-161.544 1652.5672,-192.7028"/>
<polygon fill="#404040" stroke="#404040" points="1652.3877,-196.2022 1662.6856,-193.7116 1653.0822,-189.2367 1652.3877,-196.2022"/>
</g>
<!-- bcd__params&#45;&gt;bcd__inst__as_int_le -->
<g id="edge18" class="edge">
<title>bcd__params:num_digits_type&#45;&gt;bcd__inst__as_int_le</title>
<path fill="none" stroke="#404040" d="M111.1765,-125.8106C119.9327,-120.2771 129.312,-115.1732 139,-111.7275 266.2989,-66.4505 308.0328,-105.4927 443,-111.7275 796.2564,-128.046 1193.5121,-165.2517 1496.6701,-192.7621"/>
<polygon fill="#404040" stroke="#404040" points="1496.688,-196.278 1506.9633,-193.6957 1497.3203,-189.3066 1496.688,-196.278"/>
</g>
<!-- bcd__params&#45;&gt;bcd__inst__as_int_le -->
<g id="edge20" class="edge">
<title>bcd__params:num_digits_type&#45;&gt;bcd__inst__as_int_le</title>
<path fill="none" stroke="#404040" d="M58.192,-161.8204C67.6654,-182.3665 100.9527,-143.2599 139,-129.7275 266.2989,-84.4505 308.0328,-123.4927 443,-129.7275 728.8136,-142.9305 1043.4297,-169.8066 1313.7071,-192.8712"/>
<polygon fill="#404040" stroke="#404040" points="1313.4454,-196.3615 1323.7068,-193.7245 1314.0407,-189.3869 1313.4454,-196.3615"/>
</g>
<!-- bcd__params&#45;&gt;bcd__inst__last_idx -->
<g id="edge22" class="edge">
<title>bcd__params:num_digits_type&#45;&gt;bcd__inst__last_idx</title>
<path fill="none" stroke="#404040" d="M59.4111,-161.9481C67.7243,-196.0414 90.4971,-269.3951 139,-306.7275 152.8634,-317.3981 169.3729,-324.8738 186.381,-330.0814"/>
<polygon fill="#404040" stroke="#404040" points="185.8635,-333.5709 196.4366,-332.8925 187.7482,-326.8294 185.8635,-333.5709"/>
</g>
<!-- bcd__params&#45;&gt;bcd__inst__as_int_be -->
<g id="edge25" class="edge">
<title>bcd__params:num_digits_type&#45;&gt;bcd__inst__as_int_be</title>
<path fill="none" stroke="#404040" d="M65.2891,-125.6443C112.963,-83.0309 323.3806,-65.4913 443,-163.7275 475.9745,-190.8075 443.892,-228.4773 479,-252.7275 517.4052,-279.2552 574.3496,-299.0561 643.9275,-313.6348"/>
<polygon fill="#404040" stroke="#404040" points="643.3303,-317.085 653.8285,-315.6574 644.7314,-310.2267 643.3303,-317.085"/>
</g>
<!-- bcd__params&#45;&gt;bcd__inst__as_int_be -->
<g id="edge28" class="edge">
<title>bcd__params:num_digits_type&#45;&gt;bcd__inst__as_int_be</title>
<path fill="none" stroke="#404040" d="M76.4081,-125.6253C139.5897,-99.2568 331.0553,-89.794 443,-181.7275 475.9745,-208.8075 443.892,-246.4773 479,-270.7275 502.8048,-287.1702 533.7323,-301.0286 570.3761,-312.6494"/>
<polygon fill="#404040" stroke="#404040" points="569.7487,-316.1181 580.3357,-315.7113 571.8058,-309.4272 569.7487,-316.1181"/>
</g>
<!-- bcd__params&#45;&gt;bcd__inst__as_int_be -->
<g id="edge31" class="edge">
<title>bcd__params:num_digits_type&#45;&gt;bcd__inst__as_int_be</title>
<path fill="none" stroke="#404040" d="M111.1222,-127.1638C193.1578,-116.6362 347.1986,-121.0516 443,-199.7275 475.9745,-226.8075 443.892,-264.4773 479,-288.7275 651.9189,-408.168 1200.672,-391.2423 1586.2098,-366.4013"/>
<polygon fill="#404040" stroke="#404040" points="1586.6741,-369.8786 1596.4266,-365.7387 1586.221,-362.8933 1586.6741,-369.8786"/>
</g>
<!-- bcd__params&#45;&gt;bcd__inst__as_int_be -->
<g id="edge34" class="edge">
<title>bcd__params:num_digits_type&#45;&gt;bcd__inst__as_int_be</title>
<path fill="none" stroke="#404040" d="M111.1222,-138.8019C193.1578,-134.6362 347.1986,-139.0516 443,-217.7275 475.9745,-244.8075 443.892,-282.4773 479,-306.7275 677.2405,-443.6584 1369.4453,-401.3611 1743.3869,-366.7047"/>
<polygon fill="#404040" stroke="#404040" points="1743.901,-370.1721 1753.533,-365.759 1743.2513,-363.2023 1743.901,-370.1721"/>
</g>
<!-- bcd__params&#45;&gt;bcd__inst__as_int_be -->
<g id="edge37" class="edge">
<title>bcd__params:num_digits_type&#45;&gt;bcd__inst__as_int_be</title>
<path fill="none" stroke="#404040" d="M111.1222,-150.44C193.1578,-152.6362 347.1986,-157.0516 443,-235.7275 472.8947,-260.2782 449.3174,-293.533 470.8135,-317.601"/>
<polygon fill="#404040" stroke="#404040" points="468.7714,-320.4661 478.5916,-324.4427 473.3946,-315.21 468.7714,-320.4661"/>
</g>
<!-- bcd__params&#45;&gt;bcd__inst__as_int_be -->
<g id="edge40" class="edge">
<title>bcd__params:num_digits_type&#45;&gt;bcd__inst__as_int_be</title>
<path fill="none" stroke="#404040" d="M108.0964,-161.7568C189.319,-170.5379 346.0077,-174.0735 443,-253.7275 472.8947,-278.2782 449.3174,-311.533 470.8135,-335.601"/>
<polygon fill="#404040" stroke="#404040" points="468.7714,-338.4661 478.5916,-342.4427 473.3946,-333.21 468.7714,-338.4661"/>
</g>
<!-- bcd__params&#45;&gt;bcd__inst__as_int_be -->
<g id="edge43" class="edge">
<title>bcd__params:num_digits_type&#45;&gt;bcd__inst__as_int_be</title>
<path fill="none" stroke="#404040" d="M69.4255,-161.7606C124.0716,-190.1812 326.5563,-176.0993 443,-271.7275 472.8947,-296.2782 449.3174,-329.533 470.8135,-353.601"/>
<polygon fill="#404040" stroke="#404040" points="468.7714,-356.4661 478.5916,-360.4427 473.3946,-351.21 468.7714,-356.4661"/>
</g>
</g>
</svg>
