<?xml version="1.0" encoding="UTF-8" standalone="no"?>
<!DOCTYPE svg PUBLIC "-//W3C//DTD SVG 1.1//EN"
 "http://www.w3.org/Graphics/SVG/1.1/DTD/svg11.dtd">
<!-- Generated by graphviz version 2.38.0 (20140413.2041)
 -->
<!-- Title: %3 Pages: 1 -->
<svg width="3051pt" height="479pt"
 viewBox="0.00 0.00 3051.00 478.72" xmlns="http://www.w3.org/2000/svg" xmlns:xlink="http://www.w3.org/1999/xlink">
<g id="graph0" class="graph" transform="scale(1 1) rotate(0) translate(4 474.724)">
<title>%3</title>
<polygon fill="white" stroke="none" points="-4,4 -4,-474.724 3047,-474.724 3047,4 -4,4"/>
<g id="clust1" class="cluster"><title>cluster__bcd</title>
<polygon fill="none" stroke="black" stroke-dasharray="1,5" points="117,-183.483 117,-394.483 3035,-394.483 3035,-183.483 117,-183.483"/>
<text text-anchor="middle" x="1576" y="-379.283" font-family="Times,serif" font-size="14.00">Bcd</text>
</g>
<!-- bcd__seq -->
<g id="node1" class="node"><title>bcd__seq</title>
<polygon fill="#e0ffe0" stroke="none" points="133,-269.483 133,-290.483 158,-290.483 158,-269.483 133,-269.483"/>
<polygon fill="none" stroke="black" points="133,-269.483 133,-290.483 158,-290.483 158,-269.483 133,-269.483"/>
<text text-anchor="start" x="136" y="-276.283" font-family="Times,serif" font-size="14.00">pos</text>
<polygon fill="#e0ffe0" stroke="none" points="158,-269.483 158,-290.483 186,-290.483 186,-269.483 158,-269.483"/>
<polygon fill="none" stroke="black" points="158,-269.483 158,-290.483 186,-290.483 186,-269.483 158,-269.483"/>
<text text-anchor="start" x="161" y="-276.283" font-family="Times,serif" font-size="14.00">size</text>
<polygon fill="#e0ffe0" stroke="none" points="186,-269.483 186,-290.483 316,-290.483 316,-269.483 186,-269.483"/>
<polygon fill="none" stroke="black" points="186,-269.483 186,-290.483 316,-290.483 316,-269.483 186,-269.483"/>
<text text-anchor="start" x="239" y="-276.283" font-family="Times,serif" font-size="14.00">type</text>
<polygon fill="#e0ffe0" stroke="none" points="316,-269.483 316,-290.483 353,-290.483 353,-269.483 316,-269.483"/>
<polygon fill="none" stroke="black" points="316,-269.483 316,-290.483 353,-290.483 353,-269.483 316,-269.483"/>
<text text-anchor="start" x="329" y="-276.283" font-family="Times,serif" font-size="14.00">id</text>
<polygon fill="none" stroke="black" points="133,-248.483 133,-269.483 158,-269.483 158,-248.483 133,-248.483"/>
<text text-anchor="start" x="142" y="-255.283" font-family="Times,serif" font-size="14.00">0</text>
<polygon fill="none" stroke="black" points="158,-248.483 158,-269.483 186,-269.483 186,-248.483 158,-248.483"/>
<text text-anchor="start" x="166" y="-255.283" font-family="Times,serif" font-size="14.00">...</text>
<polygon fill="none" stroke="black" points="186,-248.483 186,-269.483 316,-269.483 316,-248.483 186,-248.483"/>
<text text-anchor="start" x="189" y="-255.283" font-family="Times,serif" font-size="14.00">switch (bits_per_digit)</text>
<polygon fill="none" stroke="black" points="316,-248.483 316,-269.483 353,-269.483 353,-248.483 316,-248.483"/>
<text text-anchor="start" x="319" y="-255.283" font-family="Times,serif" font-size="14.00">digits</text>
<polygon fill="none" stroke="black" points="133,-227.483 133,-248.483 353,-248.483 353,-227.483 133,-227.483"/>
<text text-anchor="start" x="176.5" y="-234.283" font-family="Times,serif" font-size="14.00">repeat num_digits times</text>
</g>
<!-- bcd__inst__as_int_le -->
<g id="node3" class="node"><title>bcd__inst__as_int_le</title>
<polygon fill="#e0ffe0" stroke="none" points="648.5,-216.483 648.5,-237.483 703.5,-237.483 703.5,-216.483 648.5,-216.483"/>
<polygon fill="none" stroke="black" points="648.5,-216.483 648.5,-237.483 703.5,-237.483 703.5,-216.483 648.5,-216.483"/>
<text text-anchor="start" x="670.5" y="-223.283" font-family="Times,serif" font-size="14.00">id</text>
<polygon fill="#e0ffe0" stroke="none" points="703.5,-216.483 703.5,-237.483 2519.5,-237.483 2519.5,-216.483 703.5,-216.483"/>
<polygon fill="none" stroke="black" points="703.5,-216.483 703.5,-237.483 2519.5,-237.483 2519.5,-216.483 703.5,-216.483"/>
<text text-anchor="start" x="1596.5" y="-223.283" font-family="Times,serif" font-size="14.00">value</text>
<polygon fill="none" stroke="black" points="648.5,-195.483 648.5,-216.483 703.5,-216.483 703.5,-195.483 648.5,-195.483"/>
<text text-anchor="start" x="651.5" y="-202.283" font-family="Times,serif" font-size="14.00">as_int_le</text>
<polygon fill="none" stroke="black" points="703.5,-195.483 703.5,-216.483 2519.5,-216.483 2519.5,-195.483 703.5,-195.483"/>
<text text-anchor="start" x="706.5" y="-202.283" font-family="Times,serif" font-size="14.00">(digits[0] + (num_digits &lt; 2 ? 0 : ((digits[1] * 10) + (num_digits &lt; 3 ? 0 : ((digits[2] * 100) + (num_digits &lt; 4 ? 0 : ((digits[3] * 1000) + (num_digits &lt; 5 ? 0 : ((digits[4] * 10000) + (num_digits &lt; 6 ? 0 : ((digits[5] * 100000) + (num_digits &lt; 7 ? 0 : ((digits[6] * 1000000) + (num_digits &lt; 8 ? 0 : (digits[7] * 10000000)))))))))))))))</text>
</g>
<!-- bcd__seq&#45;&gt;bcd__inst__as_int_le -->
<g id="edge7" class="edge"><title>bcd__seq:digits_type&#45;&gt;bcd__inst__as_int_le</title>
<path fill="none" stroke="#404040" d="M354,-258.483C373.439,-195.483 377.671,-189.545 397,-187.483 834.677,-140.778 1368.05,-148.367 1532.1,-188.825"/>
<polygon fill="#404040" stroke="#404040" points="1531.36,-192.248 1541.92,-191.41 1533.14,-185.479 1531.36,-192.248"/>
</g>
<!-- bcd__seq&#45;&gt;bcd__inst__as_int_le -->
<g id="edge9" class="edge"><title>bcd__seq:digits_type&#45;&gt;bcd__inst__as_int_le</title>
<path fill="none" stroke="#404040" d="M354.114,-258.22C373.456,-213.46 377.708,-207.541 397,-205.483 802.749,-162.185 1290.74,-165.548 1490.48,-190.153"/>
<polygon fill="#404040" stroke="#404040" points="1490.28,-193.655 1500.64,-191.456 1491.17,-186.712 1490.28,-193.655"/>
</g>
<!-- bcd__seq&#45;&gt;bcd__inst__as_int_le -->
<g id="edge11" class="edge"><title>bcd__seq:digits_type&#45;&gt;bcd__inst__as_int_le</title>
<path fill="none" stroke="#404040" d="M354.227,-258.167C373.472,-231.436 377.746,-225.537 397,-223.483 711.491,-189.923 1075.39,-184.396 1316.18,-191.176"/>
<polygon fill="#404040" stroke="#404040" points="1316.38,-194.683 1326.48,-191.475 1316.59,-187.686 1316.38,-194.683"/>
</g>
<!-- bcd__seq&#45;&gt;bcd__inst__as_int_le -->
<g id="edge13" class="edge"><title>bcd__seq:digits_type&#45;&gt;bcd__inst__as_int_le</title>
<path fill="none" stroke="#404040" d="M354.453,-258.272C373.506,-249.39 377.822,-243.529 397,-241.483 472.468,-233.43 550.782,-226.991 629.557,-221.895"/>
<polygon fill="#404040" stroke="#404040" points="629.911,-225.379 639.667,-221.248 629.464,-218.394 629.911,-225.379"/>
</g>
<!-- bcd__seq&#45;&gt;bcd__inst__as_int_le -->
<g id="edge15" class="edge"><title>bcd__seq:digits_type&#45;&gt;bcd__inst__as_int_le</title>
<path fill="none" stroke="#404040" d="M354.453,-258.691C373.506,-267.39 377.822,-261.529 397,-259.483 472.468,-251.43 550.782,-244.991 629.557,-239.841"/>
<polygon fill="#404040" stroke="#404040" points="629.914,-243.325 639.667,-239.187 629.462,-236.34 629.914,-243.325"/>
</g>
<!-- bcd__seq&#45;&gt;bcd__inst__as_int_le -->
<g id="edge17" class="edge"><title>bcd__seq:digits_type&#45;&gt;bcd__inst__as_int_le</title>
<path fill="none" stroke="#404040" d="M354.227,-258.798C373.472,-285.436 377.746,-279.537 397,-277.483 581.705,-257.773 783.453,-247.732 967.295,-241.812"/>
<polygon fill="#404040" stroke="#404040" points="967.54,-245.306 977.424,-241.489 967.317,-238.31 967.54,-245.306"/>
</g>
<!-- bcd__seq&#45;&gt;bcd__inst__as_int_le -->
<g id="edge19" class="edge"><title>bcd__seq:digits_type&#45;&gt;bcd__inst__as_int_le</title>
<path fill="none" stroke="#404040" d="M354.114,-258.746C373.456,-303.46 377.708,-297.541 397,-295.483 770.789,-255.596 1214.38,-255.308 1438.1,-242.103"/>
<polygon fill="#404040" stroke="#404040" points="1438.49,-245.586 1448.26,-241.485 1438.07,-238.599 1438.49,-245.586"/>
</g>
<!-- bcd__seq&#45;&gt;bcd__inst__as_int_le -->
<g id="edge21" class="edge"><title>bcd__seq:digits_type&#45;&gt;bcd__inst__as_int_le</title>
<path fill="none" stroke="#404040" d="M354.114,-258.851C373.456,-321.46 377.708,-315.541 397,-313.483 825.83,-267.722 1346.53,-274.082 1521.7,-243.403"/>
<polygon fill="#404040" stroke="#404040" points="1522.57,-246.802 1531.76,-241.525 1521.29,-239.921 1522.57,-246.802"/>
</g>
<!-- bcd__inst__as_int_be -->
<g id="node5" class="node"><title>bcd__inst__as_int_be</title>
<polygon fill="#e0ffe0" stroke="none" points="405.5,-338.483 405.5,-359.483 463.5,-359.483 463.5,-338.483 405.5,-338.483"/>
<polygon fill="none" stroke="black" points="405.5,-338.483 405.5,-359.483 463.5,-359.483 463.5,-338.483 405.5,-338.483"/>
<text text-anchor="start" x="429" y="-345.283" font-family="Times,serif" font-size="14.00">id</text>
<polygon fill="#e0ffe0" stroke="none" points="463.5,-338.483 463.5,-359.483 2762.5,-359.483 2762.5,-338.483 463.5,-338.483"/>
<polygon fill="none" stroke="black" points="463.5,-338.483 463.5,-359.483 2762.5,-359.483 2762.5,-338.483 463.5,-338.483"/>
<text text-anchor="start" x="1598" y="-345.283" font-family="Times,serif" font-size="14.00">value</text>
<polygon fill="none" stroke="black" points="405.5,-317.483 405.5,-338.483 463.5,-338.483 463.5,-317.483 405.5,-317.483"/>
<text text-anchor="start" x="408.5" y="-324.283" font-family="Times,serif" font-size="14.00">as_int_be</text>
<polygon fill="none" stroke="black" points="463.5,-317.483 463.5,-338.483 2762.5,-338.483 2762.5,-317.483 463.5,-317.483"/>
<text text-anchor="start" x="466.5" y="-324.283" font-family="Times,serif" font-size="14.00">(digits[last_idx] + (num_digits &lt; 2 ? 0 : ((digits[(last_idx &#45; 1)] * 10) + (num_digits &lt; 3 ? 0 : ((digits[(last_idx &#45; 2)] * 100) + (num_digits &lt; 4 ? 0 : ((digits[(last_idx &#45; 3)] * 1000) + (num_digits &lt; 5 ? 0 : ((digits[(last_idx &#45; 4)] * 10000) + (num_digits &lt; 6 ? 0 : ((digits[(last_idx &#45; 5)] * 100000) + (num_digits &lt; 7 ? 0 : ((digits[(last_idx &#45; 6)] * 1000000) + (num_digits &lt; 8 ? 0 : (digits[(last_idx &#45; 7)] * 10000000)))))))))))))))</text>
</g>
<!-- bcd__seq&#45;&gt;bcd__inst__as_int_be -->
<g id="edge23" class="edge"><title>bcd__seq:digits_type&#45;&gt;bcd__inst__as_int_be</title>
<path fill="none" stroke="#404040" d="M354,-258.483C381.986,-195.483 371.491,-229.972 397,-241.483 464.916,-272.129 537.321,-294.791 611.587,-311.291"/>
<polygon fill="#404040" stroke="#404040" points="611.085,-314.763 621.601,-313.476 612.577,-307.924 611.085,-314.763"/>
</g>
<!-- bcd__seq&#45;&gt;bcd__inst__as_int_be -->
<g id="edge26" class="edge"><title>bcd__seq:digits_type&#45;&gt;bcd__inst__as_int_be</title>
<path fill="none" stroke="#404040" d="M354.164,-258.22C381.945,-213.617 371.541,-247.995 397,-259.483 442.307,-279.927 489.61,-296.818 538.132,-310.681"/>
<polygon fill="#404040" stroke="#404040" points="537.278,-314.077 547.852,-313.413 539.172,-307.338 537.278,-314.077"/>
</g>
<!-- bcd__seq&#45;&gt;bcd__inst__as_int_be -->
<g id="edge29" class="edge"><title>bcd__seq:digits_type&#45;&gt;bcd__inst__as_int_be</title>
<path fill="none" stroke="#404040" d="M354.326,-258.169C381.904,-231.752 371.591,-266.017 397,-277.483 696.65,-412.696 1083.66,-392.475 1332.5,-364.658"/>
<polygon fill="#404040" stroke="#404040" points="1333.23,-368.098 1342.77,-363.497 1332.44,-361.142 1333.23,-368.098"/>
</g>
<!-- bcd__seq&#45;&gt;bcd__inst__as_int_be -->
<g id="edge32" class="edge"><title>bcd__seq:digits_type&#45;&gt;bcd__inst__as_int_be</title>
<path fill="none" stroke="#404040" d="M354.326,-258.379C381.904,-249.752 371.591,-284.017 397,-295.483 736.513,-448.684 1188.17,-402.345 1423.95,-365.149"/>
<polygon fill="#404040" stroke="#404040" points="1424.65,-368.582 1433.97,-363.553 1423.55,-361.669 1424.65,-368.582"/>
</g>
<!-- bcd__seq&#45;&gt;bcd__inst__as_int_be -->
<g id="edge35" class="edge"><title>bcd__seq:digits_type&#45;&gt;bcd__inst__as_int_be</title>
<path fill="none" stroke="#404040" d="M354.326,-258.589C378.148,-266.504 373.697,-293.149 388.42,-307.65"/>
<polygon fill="#404040" stroke="#404040" points="386.481,-310.565 396.704,-313.347 390.448,-304.797 386.481,-310.565"/>
</g>
<!-- bcd__seq&#45;&gt;bcd__inst__as_int_be -->
<g id="edge38" class="edge"><title>bcd__seq:digits_type&#45;&gt;bcd__inst__as_int_be</title>
<path fill="none" stroke="#404040" d="M354.326,-258.8C378.148,-282.081 373.697,-310.819 388.42,-325.605"/>
<polygon fill="#404040" stroke="#404040" points="386.491,-328.527 396.704,-331.347 390.479,-322.774 386.491,-328.527"/>
</g>
<!-- bcd__seq&#45;&gt;bcd__inst__as_int_be -->
<g id="edge41" class="edge"><title>bcd__seq:digits_type&#45;&gt;bcd__inst__as_int_be</title>
<path fill="none" stroke="#404040" d="M354.164,-258.746C378.161,-297.506 373.666,-328.436 388.406,-343.546"/>
<polygon fill="#404040" stroke="#404040" points="386.502,-346.486 396.703,-349.347 390.513,-340.749 386.502,-346.486"/>
</g>
<!-- bcd__seq&#45;&gt;bcd__inst__as_int_be -->
<g id="edge44" class="edge"><title>bcd__seq:digits_type&#45;&gt;bcd__inst__as_int_be</title>
<path fill="none" stroke="#404040" d="M354.164,-258.852C381.945,-321.617 371.541,-355.995 397,-367.483 814.336,-555.8 1401.12,-442.617 1548.1,-368.338"/>
<polygon fill="#404040" stroke="#404040" points="1549.97,-371.307 1557.14,-363.506 1546.67,-365.134 1549.97,-371.307"/>
</g>
<!-- bcd__seq_digits_switch -->
<g id="node6" class="node"><title>bcd__seq_digits_switch</title>
<polygon fill="#f0f2e4" stroke="none" points="1553.5,-266.483 1553.5,-287.483 1583.5,-287.483 1583.5,-266.483 1553.5,-266.483"/>
<polygon fill="none" stroke="black" points="1553.5,-266.483 1553.5,-287.483 1583.5,-287.483 1583.5,-266.483 1553.5,-266.483"/>
<text text-anchor="start" x="1556.5" y="-273.283" font-family="Times,serif" font-size="14.00">case</text>
<polygon fill="#f0f2e4" stroke="none" points="1583.5,-266.483 1583.5,-287.483 1613.5,-287.483 1613.5,-266.483 1583.5,-266.483"/>
<polygon fill="none" stroke="black" points="1583.5,-266.483 1583.5,-287.483 1613.5,-287.483 1613.5,-266.483 1583.5,-266.483"/>
<text text-anchor="start" x="1586.5" y="-273.283" font-family="Times,serif" font-size="14.00">type</text>
</g>
<!-- bcd__seq&#45;&gt;bcd__seq_digits_switch -->
<g id="edge1" class="edge"><title>bcd__seq:digits_type&#45;&gt;bcd__seq_digits_switch</title>
<path fill="none" stroke="black" stroke-width="2" d="M354,-258.483C814.236,-258.483 1371.34,-271.979 1535.1,-276.222"/>
<polygon fill="black" stroke="black" stroke-width="2" points="1535.23,-279.726 1545.31,-276.488 1535.41,-272.729 1535.23,-279.726"/>
</g>
<!-- bcd__inst__as_int -->
<g id="node2" class="node"><title>bcd__inst__as_int</title>
<polygon fill="#e0ffe0" stroke="none" points="2814.5,-216.483 2814.5,-237.483 2853.5,-237.483 2853.5,-216.483 2814.5,-216.483"/>
<polygon fill="none" stroke="black" points="2814.5,-216.483 2814.5,-237.483 2853.5,-237.483 2853.5,-216.483 2814.5,-216.483"/>
<text text-anchor="start" x="2828.5" y="-223.283" font-family="Times,serif" font-size="14.00">id</text>
<polygon fill="#e0ffe0" stroke="none" points="2853.5,-216.483 2853.5,-237.483 3019.5,-237.483 3019.5,-216.483 2853.5,-216.483"/>
<polygon fill="none" stroke="black" points="2853.5,-216.483 2853.5,-237.483 3019.5,-237.483 3019.5,-216.483 2853.5,-216.483"/>
<text text-anchor="start" x="2921.5" y="-223.283" font-family="Times,serif" font-size="14.00">value</text>
<polygon fill="none" stroke="black" points="2814.5,-195.483 2814.5,-216.483 2853.5,-216.483 2853.5,-195.483 2814.5,-195.483"/>
<text text-anchor="start" x="2817.5" y="-202.283" font-family="Times,serif" font-size="14.00">as_int</text>
<polygon fill="none" stroke="black" points="2853.5,-195.483 2853.5,-216.483 3019.5,-216.483 3019.5,-195.483 2853.5,-195.483"/>
<text text-anchor="start" x="2856.5" y="-202.283" font-family="Times,serif" font-size="14.00">(is_le ? as_int_le : as_int_be)</text>
</g>
<!-- bcd__inst__as_int_le&#45;&gt;bcd__inst__as_int -->
<g id="edge5" class="edge"><title>bcd__inst__as_int_le:as_int_le_type&#45;&gt;bcd__inst__as_int</title>
<path fill="none" stroke="#404040" d="M2527.39,-216.483C2632.65,-216.483 2726.63,-216.483 2795.74,-216.483"/>
<polygon fill="#404040" stroke="#404040" points="2795.75,-219.983 2805.75,-216.483 2795.75,-212.983 2795.75,-219.983"/>
</g>
<!-- bcd__inst__last_idx -->
<g id="node4" class="node"><title>bcd__inst__last_idx</title>
<polygon fill="#e0ffe0" stroke="none" points="171,-338.483 171,-359.483 220,-359.483 220,-338.483 171,-338.483"/>
<polygon fill="none" stroke="black" points="171,-338.483 171,-359.483 220,-359.483 220,-338.483 171,-338.483"/>
<text text-anchor="start" x="190" y="-345.283" font-family="Times,serif" font-size="14.00">id</text>
<polygon fill="#e0ffe0" stroke="none" points="220,-338.483 220,-359.483 316,-359.483 316,-338.483 220,-338.483"/>
<polygon fill="none" stroke="black" points="220,-338.483 220,-359.483 316,-359.483 316,-338.483 220,-338.483"/>
<text text-anchor="start" x="253" y="-345.283" font-family="Times,serif" font-size="14.00">value</text>
<polygon fill="none" stroke="black" points="171,-317.483 171,-338.483 220,-338.483 220,-317.483 171,-317.483"/>
<text text-anchor="start" x="174" y="-324.283" font-family="Times,serif" font-size="14.00">last_idx</text>
<polygon fill="none" stroke="black" points="220,-317.483 220,-338.483 316,-338.483 316,-317.483 220,-317.483"/>
<text text-anchor="start" x="223" y="-324.283" font-family="Times,serif" font-size="14.00">(num_digits &#45; 1)</text>
</g>
<!-- bcd__inst__last_idx&#45;&gt;bcd__inst__as_int_be -->
<g id="edge24" class="edge"><title>bcd__inst__last_idx:last_idx_type&#45;&gt;bcd__inst__as_int_be</title>
<path fill="none" stroke="#404040" d="M323.721,-314.592C555.593,-284.239 1229.37,-283.466 1483.73,-312.275"/>
<polygon fill="#404040" stroke="#404040" points="1483.36,-315.756 1493.7,-313.446 1484.17,-308.804 1483.36,-315.756"/>
</g>
<!-- bcd__inst__last_idx&#45;&gt;bcd__inst__as_int_be -->
<g id="edge27" class="edge"><title>bcd__inst__last_idx:last_idx_type&#45;&gt;bcd__inst__as_int_be</title>
<path fill="none" stroke="#404040" d="M323.721,-321.418C526.489,-302.458 1067.19,-299.657 1369.83,-313.013"/>
<polygon fill="#404040" stroke="#404040" points="1369.9,-316.52 1380.05,-313.475 1370.22,-309.527 1369.9,-316.52"/>
</g>
<!-- bcd__inst__last_idx&#45;&gt;bcd__inst__as_int_be -->
<g id="edge30" class="edge"><title>bcd__inst__last_idx:last_idx_type&#45;&gt;bcd__inst__as_int_be</title>
<path fill="none" stroke="#404040" d="M323.721,-328.244C342.065,-327.215 363.174,-326.265 386.623,-325.395"/>
<polygon fill="#404040" stroke="#404040" points="386.947,-328.885 396.814,-325.026 386.695,-321.89 386.947,-328.885"/>
</g>
<!-- bcd__inst__last_idx&#45;&gt;bcd__inst__as_int_be -->
<g id="edge33" class="edge"><title>bcd__inst__last_idx:last_idx_type&#45;&gt;bcd__inst__as_int_be</title>
<path fill="none" stroke="#404040" d="M323.721,-335.07C342.065,-334.727 363.174,-334.41 386.623,-334.12"/>
<polygon fill="#404040" stroke="#404040" points="386.857,-337.618 396.814,-333.997 386.773,-330.618 386.857,-337.618"/>
</g>
<!-- bcd__inst__last_idx&#45;&gt;bcd__inst__as_int_be -->
<g id="edge36" class="edge"><title>bcd__inst__last_idx:last_idx_type&#45;&gt;bcd__inst__as_int_be</title>
<path fill="none" stroke="#404040" d="M323.721,-341.896C342.065,-342.239 363.174,-342.555 386.623,-342.845"/>
<polygon fill="#404040" stroke="#404040" points="386.773,-346.347 396.814,-342.968 386.857,-339.348 386.773,-346.347"/>
</g>
<!-- bcd__inst__last_idx&#45;&gt;bcd__inst__as_int_be -->
<g id="edge39" class="edge"><title>bcd__inst__last_idx:last_idx_type&#45;&gt;bcd__inst__as_int_be</title>
<path fill="none" stroke="#404040" d="M323.721,-348.721C342.065,-349.751 363.174,-350.7 386.623,-351.571"/>
<polygon fill="#404040" stroke="#404040" points="386.695,-355.076 396.814,-351.939 386.947,-348.08 386.695,-355.076"/>
</g>
<!-- bcd__inst__last_idx&#45;&gt;bcd__inst__as_int_be -->
<g id="edge42" class="edge"><title>bcd__inst__last_idx:last_idx_type&#45;&gt;bcd__inst__as_int_be</title>
<path fill="none" stroke="#404040" d="M323.721,-355.547C526.489,-374.507 1067.19,-377.309 1369.83,-363.952"/>
<polygon fill="#404040" stroke="#404040" points="1370.22,-367.438 1380.05,-363.491 1369.9,-360.446 1370.22,-367.438"/>
</g>
<!-- bcd__inst__last_idx&#45;&gt;bcd__inst__as_int_be -->
<g id="edge45" class="edge"><title>bcd__inst__last_idx:last_idx_type&#45;&gt;bcd__inst__as_int_be</title>
<path fill="none" stroke="#404040" d="M323.721,-362.373C555.593,-392.727 1229.37,-393.499 1483.73,-364.69"/>
<polygon fill="#404040" stroke="#404040" points="1484.17,-368.162 1493.7,-363.52 1483.36,-361.21 1484.17,-368.162"/>
</g>
<!-- bcd__inst__as_int_be&#45;&gt;bcd__inst__as_int -->
<g id="edge6" class="edge"><title>bcd__inst__as_int_be:as_int_be_type&#45;&gt;bcd__inst__as_int</title>
<path fill="none" stroke="#404040" d="M1787.33,-363.496C2027.38,-386.132 2436.56,-402.646 2770,-304.483 2809.27,-292.923 2848.68,-268.07 2876.56,-247.714"/>
<polygon fill="#404040" stroke="#404040" points="2878.9,-250.338 2884.83,-241.561 2874.72,-244.722 2878.9,-250.338"/>
</g>
<!-- bcd__params -->
<g id="node7" class="node"><title>bcd__params</title>
<text text-anchor="middle" x="44.5" y="-137.783" font-family="Times,serif" font-size="14.00">bcd__params</text>
</g>
<!-- bcd__params&#45;&gt;bcd__seq -->
<g id="edge2" class="edge"><title>bcd__params:bits_per_digit_type&#45;&gt;bcd__seq:digits_type</title>
<path fill="none" stroke="#404040" d="M58.4914,-159.619C71.3087,-175.894 92.5,-198.81 117,-209.483 141.086,-219.975 334.726,-205.108 353,-223.983 360.502,-231.732 365.533,-245.64 362.526,-253.215"/>
<polygon fill="#404040" stroke="#404040" points="360.668,-250.249 354,-258.483 364.347,-256.204 360.668,-250.249"/>
</g>
<!-- bcd__params&#45;&gt;bcd__seq -->
<g id="edge3" class="edge"><title>bcd__params:num_digits_type&#45;&gt;bcd__seq:digits__repeat</title>
<path fill="none" stroke="#404040" d="M52.1927,-159.54C62.8075,-184.959 86.0203,-229.031 121.628,-236.418"/>
<polygon fill="#404040" stroke="#404040" points="121.695,-239.943 132,-237.483 122.41,-232.98 121.695,-239.943"/>
</g>
<!-- bcd__params&#45;&gt;bcd__inst__as_int -->
<g id="edge4" class="edge"><title>bcd__params:is_le_type&#45;&gt;bcd__inst__as_int</title>
<path fill="none" stroke="#404040" d="M53.5033,-123.399C64.3266,-101.475 85.9187,-65.5894 117,-50.4828 214.534,-3.07762 252.596,-47.515 361,-50.4828 1432.87,-79.8271 1708.54,-30.5733 2770,-182.483 2782.69,-184.298 2795.9,-186.68 2808.95,-189.341"/>
<polygon fill="#404040" stroke="#404040" points="2808.39,-192.799 2818.9,-191.425 2809.83,-185.948 2808.39,-192.799"/>
</g>
<!-- bcd__params&#45;&gt;bcd__inst__as_int_le -->
<g id="edge8" class="edge"><title>bcd__params:num_digits_type&#45;&gt;bcd__inst__as_int_le</title>
<path fill="none" stroke="#404040" d="M46.6546,-123.267C52.6004,-76.2183 80.8897,-33.9122 117,-19.4828 217.702,20.7573 252.74,-13.1673 361,-19.4828 822.405,-46.399 1376.88,-130.041 1537.12,-187.879"/>
<polygon fill="#404040" stroke="#404040" points="1536.07,-191.224 1546.66,-191.477 1538.54,-184.674 1536.07,-191.224"/>
</g>
<!-- bcd__params&#45;&gt;bcd__inst__as_int_le -->
<g id="edge10" class="edge"><title>bcd__params:num_digits_type&#45;&gt;bcd__inst__as_int_le</title>
<path fill="none" stroke="#404040" d="M47.7827,-123.186C55.6132,-89.8233 82.7986,-51.1494 117,-37.4828 217.702,2.75731 252.74,-31.1673 361,-37.4828 802.887,-63.2604 1330.13,-141.066 1514.7,-188.848"/>
<polygon fill="#404040" stroke="#404040" points="1513.98,-192.276 1524.54,-191.454 1515.77,-185.51 1513.98,-192.276"/>
</g>
<!-- bcd__params&#45;&gt;bcd__inst__as_int_le -->
<g id="edge12" class="edge"><title>bcd__params:num_digits_type&#45;&gt;bcd__inst__as_int_le</title>
<path fill="none" stroke="#404040" d="M50.6197,-123.453C60.9908,-100.507 86.1392,-67.8146 117,-55.4828 217.702,-15.2427 252.74,-49.1673 361,-55.4828 774.873,-79.6262 1263.62,-149.41 1475.58,-189.565"/>
<polygon fill="#404040" stroke="#404040" points="1474.98,-193.014 1485.46,-191.455 1476.3,-186.139 1474.98,-193.014"/>
</g>
<!-- bcd__params&#45;&gt;bcd__inst__as_int_le -->
<g id="edge14" class="edge"><title>bcd__params:num_digits_type&#45;&gt;bcd__inst__as_int_le</title>
<path fill="none" stroke="#404040" d="M58.1033,-123.317C70.7913,-106.777 92.025,-83.4626 117,-73.4828 217.702,-33.2427 252.74,-67.1673 361,-73.4828 736.876,-95.4097 1174.51,-154.981 1410.48,-189.931"/>
<polygon fill="#404040" stroke="#404040" points="1410.11,-193.416 1420.52,-191.422 1411.14,-186.492 1410.11,-193.416"/>
</g>
<!-- bcd__params&#45;&gt;bcd__inst__as_int_le -->
<g id="edge16" class="edge"><title>bcd__params:num_digits_type&#45;&gt;bcd__inst__as_int_le</title>
<path fill="none" stroke="#404040" d="M71.9998,-123.432C84.1247,-111.768 99.6607,-98.4115 117,-91.4828 217.702,-51.2427 252.74,-85.1673 361,-91.4828 691.073,-110.738 1068.77,-159.022 1315.71,-190.186"/>
<polygon fill="#404040" stroke="#404040" points="1315.54,-193.693 1325.9,-191.472 1316.42,-186.748 1315.54,-193.693"/>
</g>
<!-- bcd__params&#45;&gt;bcd__inst__as_int_le -->
<g id="edge18" class="edge"><title>bcd__params:num_digits_type&#45;&gt;bcd__inst__as_int_le</title>
<path fill="none" stroke="#404040" d="M89.0523,-126.102C97.5588,-119.639 106.978,-113.487 117,-109.483 217.702,-69.2427 252.74,-103.167 361,-109.483 640.084,-125.763 953.216,-162.797 1192.56,-190.28"/>
<polygon fill="#404040" stroke="#404040" points="1192.5,-193.795 1202.83,-191.458 1193.3,-186.841 1192.5,-193.795"/>
</g>
<!-- bcd__params&#45;&gt;bcd__inst__as_int_le -->
<g id="edge20" class="edge"><title>bcd__params:num_digits_type&#45;&gt;bcd__inst__as_int_le</title>
<path fill="none" stroke="#404040" d="M47.6747,-159.59C55.3605,-180.184 82.6396,-141.213 117,-127.483 217.702,-87.2427 252.74,-121.167 361,-127.483 586.558,-140.641 834.356,-167.355 1047.47,-190.355"/>
<polygon fill="#404040" stroke="#404040" points="1047.27,-193.855 1057.59,-191.448 1048.02,-186.895 1047.27,-193.855"/>
</g>
<!-- bcd__params&#45;&gt;bcd__inst__last_idx -->
<g id="edge22" class="edge"><title>bcd__params:num_digits_type&#45;&gt;bcd__inst__last_idx</title>
<path fill="none" stroke="#404040" d="M48.2463,-159.688C54.3131,-193.425 72.0638,-265.742 117,-304.483 127.348,-313.405 139.825,-320.007 152.837,-324.888"/>
<polygon fill="#404040" stroke="#404040" points="151.789,-328.228 162.384,-328.146 154.051,-321.603 151.789,-328.228"/>
</g>
<!-- bcd__params&#45;&gt;bcd__inst__as_int_be -->
<g id="edge25" class="edge"><title>bcd__params:num_digits_type&#45;&gt;bcd__inst__as_int_be</title>
<path fill="none" stroke="#404040" d="M54.2983,-123.254C94.7613,-84.35 265.083,-79.3057 361,-161.483 393.403,-189.244 361.967,-226.125 397,-250.483 440.13,-280.47 513.163,-299.854 602.465,-312.098"/>
<polygon fill="#404040" stroke="#404040" points="602.201,-315.593 612.576,-313.445 603.126,-308.655 602.201,-315.593"/>
</g>
<!-- bcd__params&#45;&gt;bcd__inst__as_int_be -->
<g id="edge28" class="edge"><title>bcd__params:num_digits_type&#45;&gt;bcd__inst__as_int_be</title>
<path fill="none" stroke="#404040" d="M65.6355,-123.437C120.129,-102.086 272.347,-103.528 361,-179.483 393.403,-207.244 361.967,-244.125 397,-268.483 422.343,-286.103 458.012,-300.063 501.239,-311.035"/>
<polygon fill="#404040" stroke="#404040" points="500.629,-314.489 511.175,-313.474 502.298,-307.691 500.629,-314.489"/>
</g>
<!-- bcd__params&#45;&gt;bcd__inst__as_int_be -->
<g id="edge31" class="edge"><title>bcd__params:num_digits_type&#45;&gt;bcd__inst__as_int_be</title>
<path fill="none" stroke="#404040" d="M89.0324,-128.309C155.537,-121.49 282.921,-130.588 361,-197.483 393.403,-225.244 361.967,-262.125 397,-286.483 409.303,-295.037 424.039,-302.728 440.891,-309.63"/>
<polygon fill="#404040" stroke="#404040" points="439.882,-312.993 450.469,-313.383 442.436,-306.476 439.882,-312.993"/>
</g>
<!-- bcd__params&#45;&gt;bcd__inst__as_int_be -->
<g id="edge34" class="edge"><title>bcd__params:num_digits_type&#45;&gt;bcd__inst__as_int_be</title>
<path fill="none" stroke="#404040" d="M89.0324,-139.761C155.537,-139.49 282.921,-148.588 361,-215.483 393.403,-243.244 361.967,-280.125 397,-304.483 538.822,-403.088 1003.97,-387.046 1307.71,-364.281"/>
<polygon fill="#404040" stroke="#404040" points="1308.29,-367.747 1318,-363.503 1307.76,-360.767 1308.29,-367.747"/>
</g>
<!-- bcd__params&#45;&gt;bcd__inst__as_int_be -->
<g id="edge37" class="edge"><title>bcd__params:num_digits_type&#45;&gt;bcd__inst__as_int_be</title>
<path fill="none" stroke="#404040" d="M89.0324,-151.213C155.537,-157.49 282.921,-166.588 361,-233.483 390.377,-258.651 367.282,-291.315 388.817,-315.348"/>
<polygon fill="#404040" stroke="#404040" points="386.775,-318.213 396.592,-322.197 391.402,-312.96 386.775,-318.213"/>
</g>
<!-- bcd__params&#45;&gt;bcd__inst__as_int_be -->
<g id="edge40" class="edge"><title>bcd__params:num_digits_type&#45;&gt;bcd__inst__as_int_be</title>
<path fill="none" stroke="#404040" d="M74.6379,-159.567C135.372,-174.423 276.833,-179.372 361,-251.483 390.377,-276.651 367.282,-309.315 388.817,-333.348"/>
<polygon fill="#404040" stroke="#404040" points="386.775,-336.213 396.592,-340.197 391.402,-330.96 386.775,-336.213"/>
</g>
<!-- bcd__params&#45;&gt;bcd__inst__as_int_be -->
<g id="edge43" class="edge"><title>bcd__params:num_digits_type&#45;&gt;bcd__inst__as_int_be</title>
<path fill="none" stroke="#404040" d="M55.6981,-159.536C98.5454,-192.249 266.151,-188.221 361,-269.483 390.377,-294.651 367.282,-327.315 388.817,-351.348"/>
<polygon fill="#404040" stroke="#404040" points="386.775,-354.213 396.592,-358.197 391.402,-348.96 386.775,-354.213"/>
</g>
</g>
</svg>
