<?xml version="1.0" encoding="UTF-8" standalone="no"?>
<!DOCTYPE svg PUBLIC "-//W3C//DTD SVG 1.1//EN"
 "http://www.w3.org/Graphics/SVG/1.1/DTD/svg11.dtd">
<!-- Generated by graphviz version 2.43.0 (0)
 -->
<!-- Title: %3 Pages: 1 -->
<svg width="3585pt" height="289pt"
 viewBox="0.00 0.00 3585.00 288.59" xmlns="http://www.w3.org/2000/svg" xmlns:xlink="http://www.w3.org/1999/xlink">
<g id="graph0" class="graph" transform="scale(1 1) rotate(0) translate(4 284.59)">
<title>%3</title>
<polygon fill="white" stroke="transparent" points="-4,4 -4,-284.59 3581,-284.59 3581,4 -4,4"/>
<g id="clust1" class="cluster">
<title>cluster__bcd</title>
<polygon fill="none" stroke="black" stroke-dasharray="1,5" points="137,-61.59 137,-272.59 3569,-272.59 3569,-61.59 137,-61.59"/>
<text text-anchor="middle" x="1853" y="-257.39" font-family="Times,serif" font-size="14.00">Bcd</text>
</g>
<!-- bcd__seq -->
<g id="node1" class="node">
<title>bcd__seq</title>
<polygon fill="#e0ffe0" stroke="transparent" points="153,-147.59 153,-168.59 184,-168.59 184,-147.59 153,-147.59"/>
<polygon fill="none" stroke="black" points="153,-147.59 153,-168.59 184,-168.59 184,-147.59 153,-147.59"/>
<text text-anchor="start" x="156" y="-154.39" font-family="Times,serif" font-size="14.00">pos</text>
<polygon fill="#e0ffe0" stroke="transparent" points="184,-147.59 184,-168.59 218,-168.59 218,-147.59 184,-147.59"/>
<polygon fill="none" stroke="black" points="184,-147.59 184,-168.59 218,-168.59 218,-147.59 184,-147.59"/>
<text text-anchor="start" x="187" y="-154.39" font-family="Times,serif" font-size="14.00">size</text>
<polygon fill="#e0ffe0" stroke="transparent" points="218,-147.59 218,-168.59 384,-168.59 384,-147.59 218,-147.59"/>
<polygon fill="none" stroke="black" points="218,-147.59 218,-168.59 384,-168.59 384,-147.59 218,-147.59"/>
<text text-anchor="start" x="285" y="-154.39" font-family="Times,serif" font-size="14.00">type</text>
<polygon fill="#e0ffe0" stroke="transparent" points="384,-147.59 384,-168.59 431,-168.59 431,-147.59 384,-147.59"/>
<polygon fill="none" stroke="black" points="384,-147.59 384,-168.59 431,-168.59 431,-147.59 384,-147.59"/>
<text text-anchor="start" x="400.5" y="-154.39" font-family="Times,serif" font-size="14.00">id</text>
<polygon fill="none" stroke="black" points="153,-126.59 153,-147.59 184,-147.59 184,-126.59 153,-126.59"/>
<text text-anchor="start" x="163.5" y="-133.39" font-family="Times,serif" font-size="14.00">0</text>
<polygon fill="none" stroke="black" points="184,-126.59 184,-147.59 218,-147.59 218,-126.59 184,-126.59"/>
<text text-anchor="start" x="194" y="-133.39" font-family="Times,serif" font-size="14.00">...</text>
<polygon fill="none" stroke="black" points="218,-126.59 218,-147.59 384,-147.59 384,-126.59 218,-126.59"/>
<text text-anchor="start" x="221" y="-133.39" font-family="Times,serif" font-size="14.00">switch (bits_per_digit)</text>
<polygon fill="none" stroke="black" points="384,-126.59 384,-147.59 431,-147.59 431,-126.59 384,-126.59"/>
<text text-anchor="start" x="387" y="-133.39" font-family="Times,serif" font-size="14.00">digits</text>
<polygon fill="none" stroke="black" points="153,-105.59 153,-126.59 431,-126.59 431,-105.59 153,-105.59"/>
<text text-anchor="start" x="204.5" y="-112.39" font-family="Times,serif" font-size="14.00">repeat num_digits times</text>
</g>
<!-- bcd__inst__as_int_be -->
<g id="node3" class="node">
<title>bcd__inst__as_int_be</title>
<polygon fill="#e0ffe0" stroke="transparent" points="483.5,-216.59 483.5,-237.59 556.5,-237.59 556.5,-216.59 483.5,-216.59"/>
<polygon fill="none" stroke="black" points="483.5,-216.59 483.5,-237.59 556.5,-237.59 556.5,-216.59 483.5,-216.59"/>
<text text-anchor="start" x="513" y="-223.39" font-family="Times,serif" font-size="14.00">id</text>
<polygon fill="#e0ffe0" stroke="transparent" points="556.5,-216.59 556.5,-237.59 3246.5,-237.59 3246.5,-216.59 556.5,-216.59"/>
<polygon fill="none" stroke="black" points="556.5,-216.59 556.5,-237.59 3246.5,-237.59 3246.5,-216.59 556.5,-216.59"/>
<text text-anchor="start" x="1882" y="-223.39" font-family="Times,serif" font-size="14.00">value</text>
<polygon fill="none" stroke="black" points="483.5,-195.59 483.5,-216.59 556.5,-216.59 556.5,-195.59 483.5,-195.59"/>
<text text-anchor="start" x="486.5" y="-202.39" font-family="Times,serif" font-size="14.00">as_int_be</text>
<polygon fill="none" stroke="black" points="556.5,-195.59 556.5,-216.59 3246.5,-216.59 3246.5,-195.59 556.5,-195.59"/>
<text text-anchor="start" x="559.5" y="-202.39" font-family="Times,serif" font-size="14.00">digits[last_idx] + (num_digits &lt; 2 ? 0 : digits[last_idx &#45; 1] * 10 + (num_digits &lt; 3 ? 0 : digits[last_idx &#45; 2] * 100 + (num_digits &lt; 4 ? 0 : digits[last_idx &#45; 3] * 1000 + (num_digits &lt; 5 ? 0 : digits[last_idx &#45; 4] * 10000 + (num_digits &lt; 6 ? 0 : digits[last_idx &#45; 5] * 100000 + (num_digits &lt; 7 ? 0 : digits[last_idx &#45; 6] * 1000000 + (num_digits &lt; 8 ? 0 : digits[last_idx &#45; 7] * 10000000)))))))</text>
</g>
<!-- bcd__seq&#45;&gt;bcd__inst__as_int_be -->
<g id="edge7" class="edge">
<title>bcd__seq:digits_type&#45;&gt;bcd__inst__as_int_be</title>
<path fill="none" stroke="#404040" d="M432,-136.59C459.99,-136.59 449.47,-171.13 475,-182.59 640.02,-256.64 1088.47,-255.57 1431.48,-242"/>
<polygon fill="#404040" stroke="#404040" points="1431.75,-245.49 1441.6,-241.6 1431.47,-238.5 1431.75,-245.49"/>
</g>
<!-- bcd__inst__as_int_le -->
<g id="node4" class="node">
<title>bcd__inst__as_int_le</title>
<polygon fill="#e0ffe0" stroke="transparent" points="747.5,-94.59 747.5,-115.59 815.5,-115.59 815.5,-94.59 747.5,-94.59"/>
<polygon fill="none" stroke="black" points="747.5,-94.59 747.5,-115.59 815.5,-115.59 815.5,-94.59 747.5,-94.59"/>
<text text-anchor="start" x="774.5" y="-101.39" font-family="Times,serif" font-size="14.00">id</text>
<polygon fill="#e0ffe0" stroke="transparent" points="815.5,-94.59 815.5,-115.59 2982.5,-115.59 2982.5,-94.59 815.5,-94.59"/>
<polygon fill="none" stroke="black" points="815.5,-94.59 815.5,-115.59 2982.5,-115.59 2982.5,-94.59 815.5,-94.59"/>
<text text-anchor="start" x="1879.5" y="-101.39" font-family="Times,serif" font-size="14.00">value</text>
<polygon fill="none" stroke="black" points="747.5,-73.59 747.5,-94.59 815.5,-94.59 815.5,-73.59 747.5,-73.59"/>
<text text-anchor="start" x="750.5" y="-80.39" font-family="Times,serif" font-size="14.00">as_int_le</text>
<polygon fill="none" stroke="black" points="815.5,-73.59 815.5,-94.59 2982.5,-94.59 2982.5,-73.59 815.5,-73.59"/>
<text text-anchor="start" x="818.5" y="-80.39" font-family="Times,serif" font-size="14.00">digits[0] + (num_digits &lt; 2 ? 0 : digits[1] * 10 + (num_digits &lt; 3 ? 0 : digits[2] * 100 + (num_digits &lt; 4 ? 0 : digits[3] * 1000 + (num_digits &lt; 5 ? 0 : digits[4] * 10000 + (num_digits &lt; 6 ? 0 : digits[5] * 100000 + (num_digits &lt; 7 ? 0 : digits[6] * 1000000 + (num_digits &lt; 8 ? 0 : digits[7] * 10000000)))))))</text>
</g>
<!-- bcd__seq&#45;&gt;bcd__inst__as_int_le -->
<g id="edge10" class="edge">
<title>bcd__seq:digits_type&#45;&gt;bcd__inst__as_int_le</title>
<path fill="none" stroke="#404040" d="M432,-136.59C451.44,-136.59 455.67,-130.61 475,-128.59 557.33,-119.98 642.54,-113.06 728.39,-107.55"/>
<polygon fill="#404040" stroke="#404040" points="728.83,-111.03 738.59,-106.9 728.39,-104.04 728.83,-111.03"/>
</g>
<!-- bcd__seq_digits_switch -->
<g id="node6" class="node">
<title>bcd__seq_digits_switch</title>
<polygon fill="#f0f2e4" stroke="transparent" points="1826.5,-144.59 1826.5,-165.59 1864.5,-165.59 1864.5,-144.59 1826.5,-144.59"/>
<polygon fill="none" stroke="black" points="1826.5,-144.59 1826.5,-165.59 1864.5,-165.59 1864.5,-144.59 1826.5,-144.59"/>
<text text-anchor="start" x="1829.5" y="-151.39" font-family="Times,serif" font-size="14.00">case</text>
<polygon fill="#f0f2e4" stroke="transparent" points="1864.5,-144.59 1864.5,-165.59 1902.5,-165.59 1902.5,-144.59 1864.5,-144.59"/>
<polygon fill="none" stroke="black" points="1864.5,-144.59 1864.5,-165.59 1902.5,-165.59 1902.5,-144.59 1864.5,-144.59"/>
<text text-anchor="start" x="1867.5" y="-151.39" font-family="Times,serif" font-size="14.00">type</text>
</g>
<!-- bcd__seq&#45;&gt;bcd__seq_digits_switch -->
<g id="edge1" class="edge">
<title>bcd__seq:digits_type&#45;&gt;bcd__seq_digits_switch</title>
<path fill="none" stroke="black" stroke-width="2" d="M432,-136.59C968.31,-136.59 1617.55,-150.09 1808.31,-154.33"/>
<polygon fill="black" stroke="black" stroke-width="2" points="1808.3,-157.83 1818.37,-154.55 1808.45,-150.83 1808.3,-157.83"/>
</g>
<!-- bcd__inst__as_int -->
<g id="node2" class="node">
<title>bcd__inst__as_int</title>
<polygon fill="#e0ffe0" stroke="transparent" points="3298.5,-94.59 3298.5,-115.59 3347.5,-115.59 3347.5,-94.59 3298.5,-94.59"/>
<polygon fill="none" stroke="black" points="3298.5,-94.59 3298.5,-115.59 3347.5,-115.59 3347.5,-94.59 3298.5,-94.59"/>
<text text-anchor="start" x="3316" y="-101.39" font-family="Times,serif" font-size="14.00">id</text>
<polygon fill="#e0ffe0" stroke="transparent" points="3347.5,-94.59 3347.5,-115.59 3553.5,-115.59 3553.5,-94.59 3347.5,-94.59"/>
<polygon fill="none" stroke="black" points="3347.5,-94.59 3347.5,-115.59 3553.5,-115.59 3553.5,-94.59 3347.5,-94.59"/>
<text text-anchor="start" x="3431" y="-101.39" font-family="Times,serif" font-size="14.00">value</text>
<polygon fill="none" stroke="black" points="3298.5,-73.59 3298.5,-94.59 3347.5,-94.59 3347.5,-73.59 3298.5,-73.59"/>
<text text-anchor="start" x="3301.5" y="-80.39" font-family="Times,serif" font-size="14.00">as_int</text>
<polygon fill="none" stroke="black" points="3347.5,-73.59 3347.5,-94.59 3553.5,-94.59 3553.5,-73.59 3347.5,-73.59"/>
<text text-anchor="start" x="3350.5" y="-80.39" font-family="Times,serif" font-size="14.00">(is_le ? as_int_le : as_int_be)</text>
</g>
<!-- bcd__inst__as_int_be&#45;&gt;bcd__inst__as_int -->
<g id="edge6" class="edge">
<title>bcd__inst__as_int_be:as_int_be_type&#45;&gt;bcd__inst__as_int</title>
<path fill="none" stroke="#404040" d="M2090.65,-241.61C2368.85,-265.61 2854.39,-284.83 3254,-182.59 3299.32,-170.99 3346.24,-145.63 3379.35,-125.1"/>
<polygon fill="#404040" stroke="#404040" points="3381.29,-128.02 3387.89,-119.73 3377.56,-122.09 3381.29,-128.02"/>
</g>
<!-- bcd__inst__as_int_le&#45;&gt;bcd__inst__as_int -->
<g id="edge5" class="edge">
<title>bcd__inst__as_int_le:as_int_le_type&#45;&gt;bcd__inst__as_int</title>
<path fill="none" stroke="#404040" d="M2990.23,-94.59C3103.04,-94.59 3203.77,-94.59 3279.74,-94.59"/>
<polygon fill="#404040" stroke="#404040" points="3279.82,-98.09 3289.82,-94.59 3279.82,-91.09 3279.82,-98.09"/>
</g>
<!-- bcd__inst__last_idx -->
<g id="node5" class="node">
<title>bcd__inst__last_idx</title>
<polygon fill="#e0ffe0" stroke="transparent" points="208,-216.59 208,-237.59 269,-237.59 269,-216.59 208,-216.59"/>
<polygon fill="none" stroke="black" points="208,-216.59 208,-237.59 269,-237.59 269,-216.59 208,-216.59"/>
<text text-anchor="start" x="231.5" y="-223.39" font-family="Times,serif" font-size="14.00">id</text>
<polygon fill="#e0ffe0" stroke="transparent" points="269,-216.59 269,-237.59 377,-237.59 377,-216.59 269,-216.59"/>
<polygon fill="none" stroke="black" points="269,-216.59 269,-237.59 377,-237.59 377,-216.59 269,-216.59"/>
<text text-anchor="start" x="303.5" y="-223.39" font-family="Times,serif" font-size="14.00">value</text>
<polygon fill="none" stroke="black" points="208,-195.59 208,-216.59 269,-216.59 269,-195.59 208,-195.59"/>
<text text-anchor="start" x="211" y="-202.39" font-family="Times,serif" font-size="14.00">last_idx</text>
<polygon fill="none" stroke="black" points="269,-195.59 269,-216.59 377,-216.59 377,-195.59 269,-195.59"/>
<text text-anchor="start" x="272" y="-202.39" font-family="Times,serif" font-size="14.00">num_digits &#45; 1</text>
</g>
<!-- bcd__inst__last_idx&#45;&gt;bcd__inst__as_int_be -->
<g id="edge8" class="edge">
<title>bcd__inst__last_idx:last_idx_type&#45;&gt;bcd__inst__as_int_be</title>
<path fill="none" stroke="#404040" d="M384.51,-216.59C407.55,-216.59 434.4,-216.59 464.42,-216.59"/>
<polygon fill="#404040" stroke="#404040" points="464.72,-220.09 474.72,-216.59 464.72,-213.09 464.72,-220.09"/>
</g>
<!-- bcd__params -->
<g id="node7" class="node">
<title>bcd__params</title>
<text text-anchor="middle" x="54.5" y="-90.89" font-family="Times,serif" font-size="14.00">bcd__params</text>
</g>
<!-- bcd__params&#45;&gt;bcd__seq -->
<g id="edge2" class="edge">
<title>bcd__params:bits_per_digit_type&#45;&gt;bcd__seq:digits_type</title>
<path fill="none" stroke="#404040" d="M109.23,-91.67C207.62,-86.89 408.71,-80 431,-102.09 438.66,-109.68 443.63,-123.65 440.57,-131.28"/>
<polygon fill="#404040" stroke="#404040" points="438.66,-128.34 432,-136.59 442.34,-134.3 438.66,-128.34"/>
</g>
<!-- bcd__params&#45;&gt;bcd__seq -->
<g id="edge3" class="edge">
<title>bcd__params:num_digits_type&#45;&gt;bcd__seq:digits__repeat</title>
<path fill="none" stroke="#404040" d="M109.15,-110.5C119.75,-112.75 130.99,-114.53 141.99,-115.25"/>
<polygon fill="#404040" stroke="#404040" points="141.89,-118.75 152,-115.59 142.12,-111.75 141.89,-118.75"/>
</g>
<!-- bcd__params&#45;&gt;bcd__inst__as_int -->
<g id="edge4" class="edge">
<title>bcd__params:is_le_type&#45;&gt;bcd__inst__as_int</title>
<path fill="none" stroke="#404040" d="M76.31,-76.55C91.87,-64.32 114.28,-49.22 137,-42.59 265.85,-4.98 304.78,-42.16 439,-42.59 1690.13,-46.59 2009.32,66.33 3254,-60.59 3270.57,-62.28 3287.91,-64.82 3304.93,-67.76"/>
<polygon fill="#404040" stroke="#404040" points="3304.45,-71.23 3314.9,-69.54 3305.67,-64.34 3304.45,-71.23"/>
</g>
<!-- bcd__params&#45;&gt;bcd__inst__as_int_be -->
<g id="edge9" class="edge">
<title>bcd__params:num_digits_type&#45;&gt;bcd__inst__as_int_be</title>
<path fill="none" stroke="#404040" d="M109.1,-87.28C201.69,-75.81 386.69,-58.32 439,-93.59 474.38,-117.44 439.92,-158.3 475,-182.59 652.54,-305.48 1261.21,-273.06 1610.91,-242.5"/>
<polygon fill="#404040" stroke="#404040" points="1611.27,-245.98 1620.92,-241.62 1610.65,-239.01 1611.27,-245.98"/>
</g>
<!-- bcd__params&#45;&gt;bcd__inst__as_int_le -->
<g id="edge11" class="edge">
<title>bcd__params:num_digits_type&#45;&gt;bcd__inst__as_int_le</title>
<path fill="none" stroke="#404040" d="M88.99,-76.56C103.34,-69.82 120.56,-62.97 137,-59.59 268.47,-32.55 304.79,-57.94 439,-59.59 611.83,-61.71 796.42,-65.28 973.48,-69.35"/>
<polygon fill="#404040" stroke="#404040" points="973.44,-72.85 983.52,-69.58 973.6,-65.85 973.44,-72.85"/>
</g>
<!-- bcd__params&#45;&gt;bcd__inst__last_idx -->
<g id="edge12" class="edge">
<title>bcd__params:num_digits_type&#45;&gt;bcd__inst__last_idx</title>
<path fill="none" stroke="#404040" d="M67.26,-112.83C81.34,-133.11 106.83,-165.29 137,-182.59 153.01,-191.76 171.26,-198.46 189.46,-203.36"/>
<polygon fill="#404040" stroke="#404040" points="188.71,-206.78 199.26,-205.82 190.42,-199.99 188.71,-206.78"/>
</g>
</g>
</svg>
