<?xml version="1.0" encoding="UTF-8" standalone="no"?>
<!DOCTYPE svg PUBLIC "-//W3C//DTD SVG 1.1//EN"
 "http://www.w3.org/Graphics/SVG/1.1/DTD/svg11.dtd">
<!-- Generated by graphviz version 2.38.0 (20140413.2041)
 -->
<!-- Title: %3 Pages: 1 -->
<svg width="1741pt" height="479pt"
 viewBox="0.00 0.00 1741.00 478.56" xmlns="http://www.w3.org/2000/svg" xmlns:xlink="http://www.w3.org/1999/xlink">
<g id="graph0" class="graph" transform="scale(1 1) rotate(0) translate(4 474.562)">
<title>%3</title>
<polygon fill="white" stroke="none" points="-4,4 -4,-474.562 1737,-474.562 1737,4 -4,4"/>
<g id="clust1" class="cluster"><title>cluster__windows_resource_file</title>
<polygon fill="none" stroke="black" stroke-dasharray="1,5" points="8,-16.5615 8,-462.562 1725,-462.562 1725,-16.5615 8,-16.5615"/>
<text text-anchor="middle" x="866.5" y="-447.362" font-family="Times,serif" font-size="14.00">WindowsResourceFile</text>
</g>
<g id="clust2" class="cluster"><title>cluster__resource</title>
<polygon fill="none" stroke="black" stroke-dasharray="1,5" points="275,-24.5615 275,-431.562 948,-431.562 948,-24.5615 275,-24.5615"/>
<text text-anchor="middle" x="611.5" y="-416.362" font-family="Times,serif" font-size="14.00">WindowsResourceFile::Resource</text>
</g>
<g id="clust3" class="cluster"><title>cluster__unicode_or_id</title>
<polygon fill="none" stroke="black" stroke-dasharray="1,5" points="968,-25.5615 968,-334.562 1717,-334.562 1717,-25.5615 968,-25.5615"/>
<text text-anchor="middle" x="1342.5" y="-319.362" font-family="Times,serif" font-size="14.00">WindowsResourceFile::UnicodeOrId</text>
</g>
<!-- windows_resource_file__seq -->
<g id="node1" class="node"><title>windows_resource_file__seq</title>
<polygon fill="#e0ffe0" stroke="none" points="24.5,-184.562 24.5,-205.562 55.5,-205.562 55.5,-184.562 24.5,-184.562"/>
<polygon fill="none" stroke="black" points="24.5,-184.562 24.5,-205.562 55.5,-205.562 55.5,-184.562 24.5,-184.562"/>
<text text-anchor="start" x="27.5" y="-191.362" font-family="Times,serif" font-size="14.00">pos</text>
<polygon fill="#e0ffe0" stroke="none" points="55.5,-184.562 55.5,-205.562 89.5,-205.562 89.5,-184.562 55.5,-184.562"/>
<polygon fill="none" stroke="black" points="55.5,-184.562 55.5,-205.562 89.5,-205.562 89.5,-184.562 55.5,-184.562"/>
<text text-anchor="start" x="58.5" y="-191.362" font-family="Times,serif" font-size="14.00">size</text>
<polygon fill="#e0ffe0" stroke="none" points="89.5,-184.562 89.5,-205.562 162.5,-205.562 162.5,-184.562 89.5,-184.562"/>
<polygon fill="none" stroke="black" points="89.5,-184.562 89.5,-205.562 162.5,-205.562 162.5,-184.562 89.5,-184.562"/>
<text text-anchor="start" x="110" y="-191.362" font-family="Times,serif" font-size="14.00">type</text>
<polygon fill="#e0ffe0" stroke="none" points="162.5,-184.562 162.5,-205.562 239.5,-205.562 239.5,-184.562 162.5,-184.562"/>
<polygon fill="none" stroke="black" points="162.5,-184.562 162.5,-205.562 239.5,-205.562 239.5,-184.562 162.5,-184.562"/>
<text text-anchor="start" x="194" y="-191.362" font-family="Times,serif" font-size="14.00">id</text>
<polygon fill="none" stroke="black" points="24.5,-163.562 24.5,-184.562 55.5,-184.562 55.5,-163.562 24.5,-163.562"/>
<text text-anchor="start" x="35" y="-170.362" font-family="Times,serif" font-size="14.00">0</text>
<polygon fill="none" stroke="black" points="55.5,-163.562 55.5,-184.562 89.5,-184.562 89.5,-163.562 55.5,-163.562"/>
<text text-anchor="start" x="65.5" y="-170.362" font-family="Times,serif" font-size="14.00">...</text>
<polygon fill="none" stroke="black" points="89.5,-163.562 89.5,-184.562 162.5,-184.562 162.5,-163.562 89.5,-163.562"/>
<text text-anchor="start" x="92.5" y="-170.362" font-family="Times,serif" font-size="14.00">Resource</text>
<polygon fill="none" stroke="black" points="162.5,-163.562 162.5,-184.562 239.5,-184.562 239.5,-163.562 162.5,-163.562"/>
<text text-anchor="start" x="165.5" y="-170.362" font-family="Times,serif" font-size="14.00">resources</text>
<polygon fill="none" stroke="black" points="24.5,-142.562 24.5,-163.562 239.5,-163.562 239.5,-142.562 24.5,-142.562"/>
<text text-anchor="start" x="47.5" y="-149.362" font-family="Times,serif" font-size="14.00">repeat to end of stream</text>
</g>
<!-- resource__seq -->
<g id="node2" class="node"><title>resource__seq</title>
<polygon fill="#e0ffe0" stroke="none" points="424.5,-288.562 424.5,-309.562 455.5,-309.562 455.5,-288.562 424.5,-288.562"/>
<polygon fill="none" stroke="black" points="424.5,-288.562 424.5,-309.562 455.5,-309.562 455.5,-288.562 424.5,-288.562"/>
<text text-anchor="start" x="427.5" y="-295.362" font-family="Times,serif" font-size="14.00">pos</text>
<polygon fill="#e0ffe0" stroke="none" points="455.5,-288.562 455.5,-309.562 586.5,-309.562 586.5,-288.562 455.5,-288.562"/>
<polygon fill="none" stroke="black" points="455.5,-288.562 455.5,-309.562 586.5,-309.562 586.5,-288.562 455.5,-288.562"/>
<text text-anchor="start" x="507" y="-295.362" font-family="Times,serif" font-size="14.00">size</text>
<polygon fill="#e0ffe0" stroke="none" points="586.5,-288.562 586.5,-309.562 684.5,-309.562 684.5,-288.562 586.5,-288.562"/>
<polygon fill="none" stroke="black" points="586.5,-288.562 586.5,-309.562 684.5,-309.562 684.5,-288.562 586.5,-288.562"/>
<text text-anchor="start" x="619.5" y="-295.362" font-family="Times,serif" font-size="14.00">type</text>
<polygon fill="#e0ffe0" stroke="none" points="684.5,-288.562 684.5,-309.562 799.5,-309.562 799.5,-288.562 684.5,-288.562"/>
<polygon fill="none" stroke="black" points="684.5,-288.562 684.5,-309.562 799.5,-309.562 799.5,-288.562 684.5,-288.562"/>
<text text-anchor="start" x="735" y="-295.362" font-family="Times,serif" font-size="14.00">id</text>
<polygon fill="none" stroke="black" points="424.5,-267.562 424.5,-288.562 455.5,-288.562 455.5,-267.562 424.5,-267.562"/>
<text text-anchor="start" x="435" y="-274.362" font-family="Times,serif" font-size="14.00">0</text>
<polygon fill="none" stroke="black" points="455.5,-267.562 455.5,-288.562 586.5,-288.562 586.5,-267.562 455.5,-267.562"/>
<text text-anchor="start" x="516" y="-274.362" font-family="Times,serif" font-size="14.00">4</text>
<polygon fill="none" stroke="black" points="586.5,-267.562 586.5,-288.562 684.5,-288.562 684.5,-267.562 586.5,-267.562"/>
<text text-anchor="start" x="620" y="-274.362" font-family="Times,serif" font-size="14.00">u4le</text>
<polygon fill="none" stroke="black" points="684.5,-267.562 684.5,-288.562 799.5,-288.562 799.5,-267.562 684.5,-267.562"/>
<text text-anchor="start" x="705" y="-274.362" font-family="Times,serif" font-size="14.00">value_size</text>
<polygon fill="none" stroke="black" points="424.5,-246.562 424.5,-267.562 455.5,-267.562 455.5,-246.562 424.5,-246.562"/>
<text text-anchor="start" x="435" y="-253.362" font-family="Times,serif" font-size="14.00">4</text>
<polygon fill="none" stroke="black" points="455.5,-246.562 455.5,-267.562 586.5,-267.562 586.5,-246.562 455.5,-246.562"/>
<text text-anchor="start" x="516" y="-253.362" font-family="Times,serif" font-size="14.00">4</text>
<polygon fill="none" stroke="black" points="586.5,-246.562 586.5,-267.562 684.5,-267.562 684.5,-246.562 586.5,-246.562"/>
<text text-anchor="start" x="620" y="-253.362" font-family="Times,serif" font-size="14.00">u4le</text>
<polygon fill="none" stroke="black" points="684.5,-246.562 684.5,-267.562 799.5,-267.562 799.5,-246.562 684.5,-246.562"/>
<text text-anchor="start" x="699.5" y="-253.362" font-family="Times,serif" font-size="14.00">header_size</text>
<polygon fill="none" stroke="black" points="424.5,-225.562 424.5,-246.562 455.5,-246.562 455.5,-225.562 424.5,-225.562"/>
<text text-anchor="start" x="435" y="-232.362" font-family="Times,serif" font-size="14.00">8</text>
<polygon fill="none" stroke="black" points="455.5,-225.562 455.5,-246.562 586.5,-246.562 586.5,-225.562 455.5,-225.562"/>
<text text-anchor="start" x="514" y="-232.362" font-family="Times,serif" font-size="14.00">...</text>
<polygon fill="none" stroke="black" points="586.5,-225.562 586.5,-246.562 684.5,-246.562 684.5,-225.562 586.5,-225.562"/>
<text text-anchor="start" x="589.5" y="-232.362" font-family="Times,serif" font-size="14.00">UnicodeOrId</text>
<polygon fill="none" stroke="black" points="684.5,-225.562 684.5,-246.562 799.5,-246.562 799.5,-225.562 684.5,-225.562"/>
<text text-anchor="start" x="726" y="-232.362" font-family="Times,serif" font-size="14.00">type</text>
<polygon fill="none" stroke="black" points="424.5,-204.562 424.5,-225.562 455.5,-225.562 455.5,-204.562 424.5,-204.562"/>
<text text-anchor="start" x="433" y="-211.362" font-family="Times,serif" font-size="14.00">...</text>
<polygon fill="none" stroke="black" points="455.5,-204.562 455.5,-225.562 586.5,-225.562 586.5,-204.562 455.5,-204.562"/>
<text text-anchor="start" x="514" y="-211.362" font-family="Times,serif" font-size="14.00">...</text>
<polygon fill="none" stroke="black" points="586.5,-204.562 586.5,-225.562 684.5,-225.562 684.5,-204.562 586.5,-204.562"/>
<text text-anchor="start" x="589.5" y="-211.362" font-family="Times,serif" font-size="14.00">UnicodeOrId</text>
<polygon fill="none" stroke="black" points="684.5,-204.562 684.5,-225.562 799.5,-225.562 799.5,-204.562 684.5,-204.562"/>
<text text-anchor="start" x="722" y="-211.362" font-family="Times,serif" font-size="14.00">name</text>
<polygon fill="none" stroke="black" points="424.5,-183.562 424.5,-204.562 455.5,-204.562 455.5,-183.562 424.5,-183.562"/>
<text text-anchor="start" x="433" y="-190.362" font-family="Times,serif" font-size="14.00">...</text>
<polygon fill="none" stroke="black" points="455.5,-183.562 455.5,-204.562 586.5,-204.562 586.5,-183.562 455.5,-183.562"/>
<text text-anchor="start" x="458.5" y="-190.362" font-family="Times,serif" font-size="14.00">((4 &#45; _io.pos) % 4)</text>
<polygon fill="none" stroke="black" points="586.5,-183.562 586.5,-204.562 684.5,-204.562 684.5,-183.562 586.5,-183.562"/>
<polygon fill="none" stroke="black" points="684.5,-183.562 684.5,-204.562 799.5,-204.562 799.5,-183.562 684.5,-183.562"/>
<text text-anchor="start" x="708.5" y="-190.362" font-family="Times,serif" font-size="14.00">padding1</text>
<polygon fill="none" stroke="black" points="424.5,-162.562 424.5,-183.562 455.5,-183.562 455.5,-162.562 424.5,-162.562"/>
<text text-anchor="start" x="433" y="-169.362" font-family="Times,serif" font-size="14.00">...</text>
<polygon fill="none" stroke="black" points="455.5,-162.562 455.5,-183.562 586.5,-183.562 586.5,-162.562 455.5,-162.562"/>
<text text-anchor="start" x="516" y="-169.362" font-family="Times,serif" font-size="14.00">4</text>
<polygon fill="none" stroke="black" points="586.5,-162.562 586.5,-183.562 684.5,-183.562 684.5,-162.562 586.5,-162.562"/>
<text text-anchor="start" x="620" y="-169.362" font-family="Times,serif" font-size="14.00">u4le</text>
<polygon fill="none" stroke="black" points="684.5,-162.562 684.5,-183.562 799.5,-183.562 799.5,-162.562 684.5,-162.562"/>
<text text-anchor="start" x="687.5" y="-169.362" font-family="Times,serif" font-size="14.00">format_version</text>
<polygon fill="none" stroke="black" points="424.5,-141.562 424.5,-162.562 455.5,-162.562 455.5,-141.562 424.5,-141.562"/>
<text text-anchor="start" x="433" y="-148.362" font-family="Times,serif" font-size="14.00">...</text>
<polygon fill="none" stroke="black" points="455.5,-141.562 455.5,-162.562 586.5,-162.562 586.5,-141.562 455.5,-141.562"/>
<text text-anchor="start" x="516" y="-148.362" font-family="Times,serif" font-size="14.00">2</text>
<polygon fill="none" stroke="black" points="586.5,-141.562 586.5,-162.562 684.5,-162.562 684.5,-141.562 586.5,-141.562"/>
<text text-anchor="start" x="620" y="-148.362" font-family="Times,serif" font-size="14.00">u2le</text>
<polygon fill="none" stroke="black" points="684.5,-141.562 684.5,-162.562 799.5,-162.562 799.5,-141.562 684.5,-141.562"/>
<text text-anchor="start" x="725" y="-148.362" font-family="Times,serif" font-size="14.00">flags</text>
<polygon fill="none" stroke="black" points="424.5,-120.562 424.5,-141.562 455.5,-141.562 455.5,-120.562 424.5,-120.562"/>
<text text-anchor="start" x="433" y="-127.362" font-family="Times,serif" font-size="14.00">...</text>
<polygon fill="none" stroke="black" points="455.5,-120.562 455.5,-141.562 586.5,-141.562 586.5,-120.562 455.5,-120.562"/>
<text text-anchor="start" x="516" y="-127.362" font-family="Times,serif" font-size="14.00">2</text>
<polygon fill="none" stroke="black" points="586.5,-120.562 586.5,-141.562 684.5,-141.562 684.5,-120.562 586.5,-120.562"/>
<text text-anchor="start" x="620" y="-127.362" font-family="Times,serif" font-size="14.00">u2le</text>
<polygon fill="none" stroke="black" points="684.5,-120.562 684.5,-141.562 799.5,-141.562 799.5,-120.562 684.5,-120.562"/>
<text text-anchor="start" x="709" y="-127.362" font-family="Times,serif" font-size="14.00">language</text>
<polygon fill="none" stroke="black" points="424.5,-99.5615 424.5,-120.562 455.5,-120.562 455.5,-99.5615 424.5,-99.5615"/>
<text text-anchor="start" x="433" y="-106.362" font-family="Times,serif" font-size="14.00">...</text>
<polygon fill="none" stroke="black" points="455.5,-99.5615 455.5,-120.562 586.5,-120.562 586.5,-99.5615 455.5,-99.5615"/>
<text text-anchor="start" x="516" y="-106.362" font-family="Times,serif" font-size="14.00">4</text>
<polygon fill="none" stroke="black" points="586.5,-99.5615 586.5,-120.562 684.5,-120.562 684.5,-99.5615 586.5,-99.5615"/>
<text text-anchor="start" x="620" y="-106.362" font-family="Times,serif" font-size="14.00">u4le</text>
<polygon fill="none" stroke="black" points="684.5,-99.5615 684.5,-120.562 799.5,-120.562 799.5,-99.5615 684.5,-99.5615"/>
<text text-anchor="start" x="692.5" y="-106.362" font-family="Times,serif" font-size="14.00">value_version</text>
<polygon fill="none" stroke="black" points="424.5,-78.5615 424.5,-99.5615 455.5,-99.5615 455.5,-78.5615 424.5,-78.5615"/>
<text text-anchor="start" x="433" y="-85.3615" font-family="Times,serif" font-size="14.00">...</text>
<polygon fill="none" stroke="black" points="455.5,-78.5615 455.5,-99.5615 586.5,-99.5615 586.5,-78.5615 455.5,-78.5615"/>
<text text-anchor="start" x="516" y="-85.3615" font-family="Times,serif" font-size="14.00">4</text>
<polygon fill="none" stroke="black" points="586.5,-78.5615 586.5,-99.5615 684.5,-99.5615 684.5,-78.5615 586.5,-78.5615"/>
<text text-anchor="start" x="620" y="-85.3615" font-family="Times,serif" font-size="14.00">u4le</text>
<polygon fill="none" stroke="black" points="684.5,-78.5615 684.5,-99.5615 799.5,-99.5615 799.5,-78.5615 684.5,-78.5615"/>
<text text-anchor="start" x="687.5" y="-85.3615" font-family="Times,serif" font-size="14.00">characteristics</text>
<polygon fill="none" stroke="black" points="424.5,-57.5615 424.5,-78.5615 455.5,-78.5615 455.5,-57.5615 424.5,-57.5615"/>
<text text-anchor="start" x="433" y="-64.3615" font-family="Times,serif" font-size="14.00">...</text>
<polygon fill="none" stroke="black" points="455.5,-57.5615 455.5,-78.5615 586.5,-78.5615 586.5,-57.5615 455.5,-57.5615"/>
<text text-anchor="start" x="484" y="-64.3615" font-family="Times,serif" font-size="14.00">value_size</text>
<polygon fill="none" stroke="black" points="586.5,-57.5615 586.5,-78.5615 684.5,-78.5615 684.5,-57.5615 586.5,-57.5615"/>
<polygon fill="none" stroke="black" points="684.5,-57.5615 684.5,-78.5615 799.5,-78.5615 799.5,-57.5615 684.5,-57.5615"/>
<text text-anchor="start" x="722.5" y="-64.3615" font-family="Times,serif" font-size="14.00">value</text>
<polygon fill="none" stroke="black" points="424.5,-36.5615 424.5,-57.5615 455.5,-57.5615 455.5,-36.5615 424.5,-36.5615"/>
<text text-anchor="start" x="433" y="-43.3615" font-family="Times,serif" font-size="14.00">...</text>
<polygon fill="none" stroke="black" points="455.5,-36.5615 455.5,-57.5615 586.5,-57.5615 586.5,-36.5615 455.5,-36.5615"/>
<text text-anchor="start" x="458.5" y="-43.3615" font-family="Times,serif" font-size="14.00">((4 &#45; _io.pos) % 4)</text>
<polygon fill="none" stroke="black" points="586.5,-36.5615 586.5,-57.5615 684.5,-57.5615 684.5,-36.5615 586.5,-36.5615"/>
<polygon fill="none" stroke="black" points="684.5,-36.5615 684.5,-57.5615 799.5,-57.5615 799.5,-36.5615 684.5,-36.5615"/>
<text text-anchor="start" x="708.5" y="-43.3615" font-family="Times,serif" font-size="14.00">padding2</text>
</g>
<!-- windows_resource_file__seq&#45;&gt;resource__seq -->
<g id="edge1" class="edge"><title>windows_resource_file__seq:resources_type&#45;&gt;resource__seq</title>
<path fill="none" stroke="black" stroke-width="2" d="M240.5,-173.562C293.907,-173.562 351.65,-173.562 405.28,-173.562"/>
<polygon fill="black" stroke="black" stroke-width="2" points="405.595,-177.062 415.595,-173.562 405.595,-170.062 405.595,-177.062"/>
</g>
<!-- resource__seq&#45;&gt;resource__seq -->
<g id="edge4" class="edge"><title>resource__seq:value_size_type&#45;&gt;resource__seq:value_size</title>
<path fill="none" stroke="#404040" d="M770.001,-288.618C857.816,-322.035 839.906,-332.062 631.5,-332.062 423.364,-332.062 405.231,-155.67 492.658,-84.7421"/>
<polygon fill="#404040" stroke="#404040" points="494.942,-87.4043 500.86,-78.616 490.753,-81.796 494.942,-87.4043"/>
</g>
<!-- unicode_or_id__seq -->
<g id="node4" class="node"><title>unicode_or_id__seq</title>
<polygon fill="#e0ffe0" stroke="none" points="984,-278.562 984,-299.562 1015,-299.562 1015,-278.562 984,-278.562"/>
<polygon fill="none" stroke="black" points="984,-278.562 984,-299.562 1015,-299.562 1015,-278.562 984,-278.562"/>
<text text-anchor="start" x="987" y="-285.362" font-family="Times,serif" font-size="14.00">pos</text>
<polygon fill="#e0ffe0" stroke="none" points="1015,-278.562 1015,-299.562 1049,-299.562 1049,-278.562 1015,-278.562"/>
<polygon fill="none" stroke="black" points="1015,-278.562 1015,-299.562 1049,-299.562 1049,-278.562 1015,-278.562"/>
<text text-anchor="start" x="1018" y="-285.362" font-family="Times,serif" font-size="14.00">size</text>
<polygon fill="#e0ffe0" stroke="none" points="1049,-278.562 1049,-299.562 1087,-299.562 1087,-278.562 1049,-278.562"/>
<polygon fill="none" stroke="black" points="1049,-278.562 1049,-299.562 1087,-299.562 1087,-278.562 1049,-278.562"/>
<text text-anchor="start" x="1052" y="-285.362" font-family="Times,serif" font-size="14.00">type</text>
<polygon fill="#e0ffe0" stroke="none" points="1087,-278.562 1087,-299.562 1176,-299.562 1176,-278.562 1087,-278.562"/>
<polygon fill="none" stroke="black" points="1087,-278.562 1087,-299.562 1176,-299.562 1176,-278.562 1087,-278.562"/>
<text text-anchor="start" x="1124.5" y="-285.362" font-family="Times,serif" font-size="14.00">id</text>
<polygon fill="none" stroke="black" points="984,-257.562 984,-278.562 1015,-278.562 1015,-257.562 984,-257.562"/>
<text text-anchor="start" x="994.5" y="-264.362" font-family="Times,serif" font-size="14.00">0</text>
<polygon fill="none" stroke="black" points="1015,-257.562 1015,-278.562 1049,-278.562 1049,-257.562 1015,-257.562"/>
<text text-anchor="start" x="1027" y="-264.362" font-family="Times,serif" font-size="14.00">2</text>
<polygon fill="none" stroke="black" points="1049,-257.562 1049,-278.562 1087,-278.562 1087,-257.562 1049,-257.562"/>
<text text-anchor="start" x="1052.5" y="-264.362" font-family="Times,serif" font-size="14.00">u2le</text>
<polygon fill="none" stroke="black" points="1087,-257.562 1087,-278.562 1176,-278.562 1176,-257.562 1087,-257.562"/>
<text text-anchor="start" x="1116.5" y="-264.362" font-family="Times,serif" font-size="14.00">first</text>
<polygon fill="none" stroke="black" points="984,-236.562 984,-257.562 1015,-257.562 1015,-236.562 984,-236.562"/>
<text text-anchor="start" x="994.5" y="-243.362" font-family="Times,serif" font-size="14.00">2</text>
<polygon fill="none" stroke="black" points="1015,-236.562 1015,-257.562 1049,-257.562 1049,-236.562 1015,-236.562"/>
<text text-anchor="start" x="1027" y="-243.362" font-family="Times,serif" font-size="14.00">2</text>
<polygon fill="none" stroke="black" points="1049,-236.562 1049,-257.562 1087,-257.562 1087,-236.562 1049,-236.562"/>
<text text-anchor="start" x="1052.5" y="-243.362" font-family="Times,serif" font-size="14.00">u2le</text>
<polygon fill="none" stroke="black" points="1087,-236.562 1087,-257.562 1176,-257.562 1176,-236.562 1087,-236.562"/>
<text text-anchor="start" x="1090" y="-243.362" font-family="Times,serif" font-size="14.00">as_numeric</text>
<polygon fill="none" stroke="black" points="984,-215.562 984,-236.562 1015,-236.562 1015,-215.562 984,-215.562"/>
<text text-anchor="start" x="994.5" y="-222.362" font-family="Times,serif" font-size="14.00">4</text>
<polygon fill="none" stroke="black" points="1015,-215.562 1015,-236.562 1049,-236.562 1049,-215.562 1015,-215.562"/>
<text text-anchor="start" x="1027" y="-222.362" font-family="Times,serif" font-size="14.00">2</text>
<polygon fill="none" stroke="black" points="1049,-215.562 1049,-236.562 1087,-236.562 1087,-215.562 1049,-215.562"/>
<text text-anchor="start" x="1052.5" y="-222.362" font-family="Times,serif" font-size="14.00">u2le</text>
<polygon fill="none" stroke="black" points="1087,-215.562 1087,-236.562 1176,-236.562 1176,-215.562 1087,-215.562"/>
<text text-anchor="start" x="1117" y="-222.362" font-family="Times,serif" font-size="14.00">rest</text>
<polygon fill="none" stroke="black" points="984,-194.562 984,-215.562 1176,-215.562 1176,-194.562 984,-194.562"/>
<text text-anchor="start" x="1010.5" y="-201.362" font-family="Times,serif" font-size="14.00">repeat until _ == 0</text>
<polygon fill="none" stroke="black" points="984,-173.562 984,-194.562 1015,-194.562 1015,-173.562 984,-173.562"/>
<text text-anchor="start" x="992.5" y="-180.362" font-family="Times,serif" font-size="14.00">...</text>
<polygon fill="none" stroke="black" points="1015,-173.562 1015,-194.562 1049,-194.562 1049,-173.562 1015,-173.562"/>
<text text-anchor="start" x="1027" y="-180.362" font-family="Times,serif" font-size="14.00">0</text>
<polygon fill="none" stroke="black" points="1049,-173.562 1049,-194.562 1087,-194.562 1087,-173.562 1049,-173.562"/>
<polygon fill="none" stroke="black" points="1087,-173.562 1087,-194.562 1176,-194.562 1176,-173.562 1087,-173.562"/>
<text text-anchor="start" x="1114" y="-180.362" font-family="Times,serif" font-size="14.00">noop</text>
</g>
<!-- resource__seq&#45;&gt;unicode_or_id__seq -->
<g id="edge2" class="edge"><title>resource__seq:type_type&#45;&gt;unicode_or_id__seq</title>
<path fill="none" stroke="black" stroke-width="2" d="M800.5,-236.562C854.781,-236.562 915.014,-236.562 965.538,-236.562"/>
<polygon fill="black" stroke="black" stroke-width="2" points="965.837,-240.062 975.837,-236.562 965.837,-233.062 965.837,-240.062"/>
</g>
<!-- resource__seq&#45;&gt;unicode_or_id__seq -->
<g id="edge3" class="edge"><title>resource__seq:name_type&#45;&gt;unicode_or_id__seq</title>
<path fill="none" stroke="black" stroke-width="2" d="M800.5,-215.562C855.049,-215.562 915.438,-219.617 966,-224.164"/>
<polygon fill="black" stroke="black" stroke-width="2" points="965.699,-227.651 975.977,-225.078 966.338,-220.68 965.699,-227.651"/>
</g>
<!-- resource__inst__type_as_predef -->
<g id="node3" class="node"><title>resource__inst__type_as_predef</title>
<polygon fill="#e0ffe0" stroke="none" points="291.5,-375.562 291.5,-396.562 406.5,-396.562 406.5,-375.562 291.5,-375.562"/>
<polygon fill="none" stroke="black" points="291.5,-375.562 291.5,-396.562 406.5,-396.562 406.5,-375.562 291.5,-375.562"/>
<text text-anchor="start" x="342" y="-382.362" font-family="Times,serif" font-size="14.00">id</text>
<polygon fill="#e0ffe0" stroke="none" points="406.5,-375.562 406.5,-396.562 932.5,-396.562 932.5,-375.562 406.5,-375.562"/>
<polygon fill="none" stroke="black" points="406.5,-375.562 406.5,-396.562 932.5,-396.562 932.5,-375.562 406.5,-375.562"/>
<text text-anchor="start" x="650" y="-382.362" font-family="Times,serif" font-size="14.00">value</text>
<polygon fill="none" stroke="black" points="291.5,-354.562 291.5,-375.562 406.5,-375.562 406.5,-354.562 291.5,-354.562"/>
<text text-anchor="start" x="294.5" y="-361.362" font-family="Times,serif" font-size="14.00">type_as_predef</text>
<polygon fill="none" stroke="black" points="406.5,-354.562 406.5,-375.562 932.5,-375.562 932.5,-354.562 406.5,-354.562"/>
<text text-anchor="start" x="409.5" y="-361.362" font-family="Times,serif" font-size="14.00">Kaitai::Struct::Stream::resolve_enum(PREDEF_TYPES, type.as_numeric)</text>
</g>
<!-- unicode_or_id__seq&#45;&gt;resource__inst__type_as_predef -->
<g id="edge5" class="edge"><title>unicode_or_id__seq:as_numeric_type&#45;&gt;resource__inst__type_as_predef</title>
<path fill="none" stroke="#404040" d="M1177,-247.562C1201.89,-247.562 1192.26,-284.712 1176,-303.562 1070.92,-425.385 870.954,-421.189 739.694,-402.111"/>
<polygon fill="#404040" stroke="#404040" points="739.987,-398.615 729.578,-400.591 738.947,-405.538 739.987,-398.615"/>
</g>
<!-- unicode_or_id__inst__is_string -->
<g id="node7" class="node"><title>unicode_or_id__inst__is_string</title>
<polygon fill="#e0ffe0" stroke="none" points="1376.5,-268.562 1376.5,-289.562 1445.5,-289.562 1445.5,-268.562 1376.5,-268.562"/>
<polygon fill="none" stroke="black" points="1376.5,-268.562 1376.5,-289.562 1445.5,-289.562 1445.5,-268.562 1376.5,-268.562"/>
<text text-anchor="start" x="1404" y="-275.362" font-family="Times,serif" font-size="14.00">id</text>
<polygon fill="#e0ffe0" stroke="none" points="1445.5,-268.562 1445.5,-289.562 1553.5,-289.562 1553.5,-268.562 1445.5,-268.562"/>
<polygon fill="none" stroke="black" points="1445.5,-268.562 1445.5,-289.562 1553.5,-289.562 1553.5,-268.562 1445.5,-268.562"/>
<text text-anchor="start" x="1480" y="-275.362" font-family="Times,serif" font-size="14.00">value</text>
<polygon fill="none" stroke="black" points="1376.5,-247.562 1376.5,-268.562 1445.5,-268.562 1445.5,-247.562 1376.5,-247.562"/>
<text text-anchor="start" x="1379.5" y="-254.362" font-family="Times,serif" font-size="14.00">is_string</text>
<polygon fill="none" stroke="black" points="1445.5,-247.562 1445.5,-268.562 1553.5,-268.562 1553.5,-247.562 1445.5,-247.562"/>
<text text-anchor="start" x="1448.5" y="-254.362" font-family="Times,serif" font-size="14.00">first != 65535</text>
</g>
<!-- unicode_or_id__seq&#45;&gt;unicode_or_id__inst__is_string -->
<g id="edge6" class="edge"><title>unicode_or_id__seq:first_type&#45;&gt;unicode_or_id__inst__is_string</title>
<path fill="none" stroke="#404040" d="M1177,-268.562C1236.7,-268.562 1303.39,-268.562 1357.39,-268.562"/>
<polygon fill="#404040" stroke="#404040" points="1357.67,-272.062 1367.67,-268.562 1357.67,-265.062 1357.67,-272.062"/>
</g>
<!-- unicode_or_id__inst__save_pos1 -->
<g id="node5" class="node"><title>unicode_or_id__inst__save_pos1</title>
<polygon fill="#e0ffe0" stroke="none" points="1012,-58.5615 1012,-79.5615 1092,-79.5615 1092,-58.5615 1012,-58.5615"/>
<polygon fill="none" stroke="black" points="1012,-58.5615 1012,-79.5615 1092,-79.5615 1092,-58.5615 1012,-58.5615"/>
<text text-anchor="start" x="1045" y="-65.3615" font-family="Times,serif" font-size="14.00">id</text>
<polygon fill="#e0ffe0" stroke="none" points="1092,-58.5615 1092,-79.5615 1148,-79.5615 1148,-58.5615 1092,-58.5615"/>
<polygon fill="none" stroke="black" points="1092,-58.5615 1092,-79.5615 1148,-79.5615 1148,-58.5615 1092,-58.5615"/>
<text text-anchor="start" x="1100.5" y="-65.3615" font-family="Times,serif" font-size="14.00">value</text>
<polygon fill="none" stroke="black" points="1012,-37.5615 1012,-58.5615 1092,-58.5615 1092,-37.5615 1012,-37.5615"/>
<text text-anchor="start" x="1015" y="-44.3615" font-family="Times,serif" font-size="14.00">save_pos1</text>
<polygon fill="none" stroke="black" points="1092,-37.5615 1092,-58.5615 1148,-58.5615 1148,-37.5615 1092,-37.5615"/>
<text text-anchor="start" x="1095" y="-44.3615" font-family="Times,serif" font-size="14.00">_io.pos</text>
</g>
<!-- unicode_or_id__inst__as_string -->
<g id="node8" class="node"><title>unicode_or_id__inst__as_string</title>
<polygon fill="#e0ffe0" stroke="none" points="1228.5,-69.5615 1228.5,-90.5615 1308.5,-90.5615 1308.5,-69.5615 1228.5,-69.5615"/>
<polygon fill="none" stroke="black" points="1228.5,-69.5615 1228.5,-90.5615 1308.5,-90.5615 1308.5,-69.5615 1228.5,-69.5615"/>
<text text-anchor="start" x="1256" y="-76.3615" font-family="Times,serif" font-size="14.00">pos</text>
<polygon fill="#e0ffe0" stroke="none" points="1308.5,-69.5615 1308.5,-90.5615 1519.5,-90.5615 1519.5,-69.5615 1308.5,-69.5615"/>
<polygon fill="none" stroke="black" points="1308.5,-69.5615 1308.5,-90.5615 1519.5,-90.5615 1519.5,-69.5615 1308.5,-69.5615"/>
<text text-anchor="start" x="1400" y="-76.3615" font-family="Times,serif" font-size="14.00">size</text>
<polygon fill="#e0ffe0" stroke="none" points="1519.5,-69.5615 1519.5,-90.5615 1628.5,-90.5615 1628.5,-69.5615 1519.5,-69.5615"/>
<polygon fill="none" stroke="black" points="1519.5,-69.5615 1519.5,-90.5615 1628.5,-90.5615 1628.5,-69.5615 1519.5,-69.5615"/>
<text text-anchor="start" x="1558" y="-76.3615" font-family="Times,serif" font-size="14.00">type</text>
<polygon fill="#e0ffe0" stroke="none" points="1628.5,-69.5615 1628.5,-90.5615 1701.5,-90.5615 1701.5,-69.5615 1628.5,-69.5615"/>
<polygon fill="none" stroke="black" points="1628.5,-69.5615 1628.5,-90.5615 1701.5,-90.5615 1701.5,-69.5615 1628.5,-69.5615"/>
<text text-anchor="start" x="1658" y="-76.3615" font-family="Times,serif" font-size="14.00">id</text>
<polygon fill="none" stroke="black" points="1228.5,-48.5615 1228.5,-69.5615 1308.5,-69.5615 1308.5,-48.5615 1228.5,-48.5615"/>
<text text-anchor="start" x="1231.5" y="-55.3615" font-family="Times,serif" font-size="14.00">save_pos1</text>
<polygon fill="none" stroke="black" points="1308.5,-48.5615 1308.5,-69.5615 1519.5,-69.5615 1519.5,-48.5615 1308.5,-48.5615"/>
<text text-anchor="start" x="1311.5" y="-55.3615" font-family="Times,serif" font-size="14.00">((save_pos2 &#45; save_pos1) &#45; 2)</text>
<polygon fill="none" stroke="black" points="1519.5,-48.5615 1519.5,-69.5615 1628.5,-69.5615 1628.5,-48.5615 1519.5,-48.5615"/>
<text text-anchor="start" x="1522.5" y="-55.3615" font-family="Times,serif" font-size="14.00">str(UTF&#45;16LE)</text>
<polygon fill="none" stroke="black" points="1628.5,-48.5615 1628.5,-69.5615 1701.5,-69.5615 1701.5,-48.5615 1628.5,-48.5615"/>
<text text-anchor="start" x="1631.5" y="-55.3615" font-family="Times,serif" font-size="14.00">as_string</text>
</g>
<!-- unicode_or_id__inst__save_pos1&#45;&gt;unicode_or_id__inst__as_string -->
<g id="edge7" class="edge"><title>unicode_or_id__inst__save_pos1:save_pos1_type&#45;&gt;unicode_or_id__inst__as_string:as_string_pos</title>
<path fill="none" stroke="#404040" d="M1156.28,-58.5615C1175.85,-58.5615 1197.12,-58.5615 1217.35,-58.5615"/>
<polygon fill="#404040" stroke="#404040" points="1217.5,-62.0616 1227.5,-58.5615 1217.5,-55.0616 1217.5,-62.0616"/>
</g>
<!-- unicode_or_id__inst__save_pos1&#45;&gt;unicode_or_id__inst__as_string -->
<g id="edge9" class="edge"><title>unicode_or_id__inst__save_pos1:save_pos1_type&#45;&gt;unicode_or_id__inst__as_string:as_string_size</title>
<path fill="none" stroke="#404040" d="M1156.03,-41.5479C1246.82,-22.8422 1390.18,-0.0541791 1410.96,-37.3898"/>
<polygon fill="#404040" stroke="#404040" points="1407.68,-38.7095 1413.5,-47.5615 1414.47,-37.0111 1407.68,-38.7095"/>
</g>
<!-- unicode_or_id__inst__save_pos2 -->
<g id="node6" class="node"><title>unicode_or_id__inst__save_pos2</title>
<polygon fill="#e0ffe0" stroke="none" points="1012,-126.562 1012,-147.562 1092,-147.562 1092,-126.562 1012,-126.562"/>
<polygon fill="none" stroke="black" points="1012,-126.562 1012,-147.562 1092,-147.562 1092,-126.562 1012,-126.562"/>
<text text-anchor="start" x="1045" y="-133.362" font-family="Times,serif" font-size="14.00">id</text>
<polygon fill="#e0ffe0" stroke="none" points="1092,-126.562 1092,-147.562 1148,-147.562 1148,-126.562 1092,-126.562"/>
<polygon fill="none" stroke="black" points="1092,-126.562 1092,-147.562 1148,-147.562 1148,-126.562 1092,-126.562"/>
<text text-anchor="start" x="1100.5" y="-133.362" font-family="Times,serif" font-size="14.00">value</text>
<polygon fill="none" stroke="black" points="1012,-105.562 1012,-126.562 1092,-126.562 1092,-105.562 1012,-105.562"/>
<text text-anchor="start" x="1015" y="-112.362" font-family="Times,serif" font-size="14.00">save_pos2</text>
<polygon fill="none" stroke="black" points="1092,-105.562 1092,-126.562 1148,-126.562 1148,-105.562 1092,-105.562"/>
<text text-anchor="start" x="1095" y="-112.362" font-family="Times,serif" font-size="14.00">_io.pos</text>
</g>
<!-- unicode_or_id__inst__save_pos2&#45;&gt;unicode_or_id__inst__as_string -->
<g id="edge8" class="edge"><title>unicode_or_id__inst__save_pos2:save_pos2_type&#45;&gt;unicode_or_id__inst__as_string:as_string_size</title>
<path fill="none" stroke="#404040" d="M1156.26,-107.329C1166.02,-103.251 1175.54,-98.3729 1184,-92.5615 1204.83,-78.2541 1197.2,-59.4406 1220,-48.5615 1294.29,-13.1237 1403.61,34.169 1412.87,-37.2168"/>
<polygon fill="#404040" stroke="#404040" points="1409.4,-37.7927 1413.5,-47.5615 1416.39,-37.3674 1409.4,-37.7927"/>
</g>
</g>
</svg>
