<?xml version="1.0" encoding="UTF-8" standalone="no"?>
<!DOCTYPE svg PUBLIC "-//W3C//DTD SVG 1.1//EN"
 "http://www.w3.org/Graphics/SVG/1.1/DTD/svg11.dtd">
<!-- Generated by graphviz version 2.40.1 (20161225.0304)
 -->
<!-- Title: %3 Pages: 1 -->
<svg width="1746pt" height="478pt"
 viewBox="0.00 0.00 1746.00 477.91" xmlns="http://www.w3.org/2000/svg" xmlns:xlink="http://www.w3.org/1999/xlink">
<g id="graph0" class="graph" transform="scale(1 1) rotate(0) translate(4 473.9073)">
<title>%3</title>
<polygon fill="#ffffff" stroke="transparent" points="-4,4 -4,-473.9073 1742,-473.9073 1742,4 -4,4"/>
<g id="clust1" class="cluster">
<title>cluster__windows_resource_file</title>
<polygon fill="none" stroke="#000000" stroke-dasharray="1,5" points="8,-15.9073 8,-461.9073 1730,-461.9073 1730,-15.9073 8,-15.9073"/>
<text text-anchor="middle" x="869" y="-446.7073" font-family="Times,serif" font-size="14.00" fill="#000000">WindowsResourceFile</text>
</g>
<g id="clust2" class="cluster">
<title>cluster__resource</title>
<polygon fill="none" stroke="#000000" stroke-dasharray="1,5" points="275,-23.9073 275,-430.9073 951,-430.9073 951,-23.9073 275,-23.9073"/>
<text text-anchor="middle" x="613" y="-415.7073" font-family="Times,serif" font-size="14.00" fill="#000000">WindowsResourceFile::Resource</text>
</g>
<g id="clust3" class="cluster">
<title>cluster__unicode_or_id</title>
<polygon fill="none" stroke="#000000" stroke-dasharray="1,5" points="971,-24.9073 971,-333.9073 1722,-333.9073 1722,-24.9073 971,-24.9073"/>
<text text-anchor="middle" x="1346.5" y="-318.7073" font-family="Times,serif" font-size="14.00" fill="#000000">WindowsResourceFile::UnicodeOrId</text>
</g>
<!-- windows_resource_file__seq -->
<g id="node1" class="node">
<title>windows_resource_file__seq</title>
<polygon fill="#e0ffe0" stroke="transparent" points="24.5,-183.9073 24.5,-204.9073 55.5,-204.9073 55.5,-183.9073 24.5,-183.9073"/>
<polygon fill="none" stroke="#000000" points="24.5,-183.9073 24.5,-204.9073 55.5,-204.9073 55.5,-183.9073 24.5,-183.9073"/>
<text text-anchor="start" x="27.5" y="-190.7073" font-family="Times,serif" font-size="14.00" fill="#000000">pos</text>
<polygon fill="#e0ffe0" stroke="transparent" points="55.5,-183.9073 55.5,-204.9073 89.5,-204.9073 89.5,-183.9073 55.5,-183.9073"/>
<polygon fill="none" stroke="#000000" points="55.5,-183.9073 55.5,-204.9073 89.5,-204.9073 89.5,-183.9073 55.5,-183.9073"/>
<text text-anchor="start" x="58.5" y="-190.7073" font-family="Times,serif" font-size="14.00" fill="#000000">size</text>
<polygon fill="#e0ffe0" stroke="transparent" points="89.5,-183.9073 89.5,-204.9073 162.5,-204.9073 162.5,-183.9073 89.5,-183.9073"/>
<polygon fill="none" stroke="#000000" points="89.5,-183.9073 89.5,-204.9073 162.5,-204.9073 162.5,-183.9073 89.5,-183.9073"/>
<text text-anchor="start" x="110" y="-190.7073" font-family="Times,serif" font-size="14.00" fill="#000000">type</text>
<polygon fill="#e0ffe0" stroke="transparent" points="162.5,-183.9073 162.5,-204.9073 239.5,-204.9073 239.5,-183.9073 162.5,-183.9073"/>
<polygon fill="none" stroke="#000000" points="162.5,-183.9073 162.5,-204.9073 239.5,-204.9073 239.5,-183.9073 162.5,-183.9073"/>
<text text-anchor="start" x="194" y="-190.7073" font-family="Times,serif" font-size="14.00" fill="#000000">id</text>
<polygon fill="none" stroke="#000000" points="24.5,-162.9073 24.5,-183.9073 55.5,-183.9073 55.5,-162.9073 24.5,-162.9073"/>
<text text-anchor="start" x="35" y="-169.7073" font-family="Times,serif" font-size="14.00" fill="#000000">0</text>
<polygon fill="none" stroke="#000000" points="55.5,-162.9073 55.5,-183.9073 89.5,-183.9073 89.5,-162.9073 55.5,-162.9073"/>
<text text-anchor="start" x="65.5" y="-169.7073" font-family="Times,serif" font-size="14.00" fill="#000000">...</text>
<polygon fill="none" stroke="#000000" points="89.5,-162.9073 89.5,-183.9073 162.5,-183.9073 162.5,-162.9073 89.5,-162.9073"/>
<text text-anchor="start" x="92.5" y="-169.7073" font-family="Times,serif" font-size="14.00" fill="#000000">Resource</text>
<polygon fill="none" stroke="#000000" points="162.5,-162.9073 162.5,-183.9073 239.5,-183.9073 239.5,-162.9073 162.5,-162.9073"/>
<text text-anchor="start" x="165.5" y="-169.7073" font-family="Times,serif" font-size="14.00" fill="#000000">resources</text>
<polygon fill="none" stroke="#000000" points="24.5,-141.9073 24.5,-162.9073 239.5,-162.9073 239.5,-141.9073 24.5,-141.9073"/>
<text text-anchor="start" x="47.5" y="-148.7073" font-family="Times,serif" font-size="14.00" fill="#000000">repeat to end of stream</text>
</g>
<!-- resource__seq -->
<g id="node2" class="node">
<title>resource__seq</title>
<polygon fill="#e0ffe0" stroke="transparent" points="425,-287.9073 425,-308.9073 456,-308.9073 456,-287.9073 425,-287.9073"/>
<polygon fill="none" stroke="#000000" points="425,-287.9073 425,-308.9073 456,-308.9073 456,-287.9073 425,-287.9073"/>
<text text-anchor="start" x="428" y="-294.7073" font-family="Times,serif" font-size="14.00" fill="#000000">pos</text>
<polygon fill="#e0ffe0" stroke="transparent" points="456,-287.9073 456,-308.9073 587,-308.9073 587,-287.9073 456,-287.9073"/>
<polygon fill="none" stroke="#000000" points="456,-287.9073 456,-308.9073 587,-308.9073 587,-287.9073 456,-287.9073"/>
<text text-anchor="start" x="507.5" y="-294.7073" font-family="Times,serif" font-size="14.00" fill="#000000">size</text>
<polygon fill="#e0ffe0" stroke="transparent" points="587,-287.9073 587,-308.9073 687,-308.9073 687,-287.9073 587,-287.9073"/>
<polygon fill="none" stroke="#000000" points="587,-287.9073 587,-308.9073 687,-308.9073 687,-287.9073 587,-287.9073"/>
<text text-anchor="start" x="621" y="-294.7073" font-family="Times,serif" font-size="14.00" fill="#000000">type</text>
<polygon fill="#e0ffe0" stroke="transparent" points="687,-287.9073 687,-308.9073 802,-308.9073 802,-287.9073 687,-287.9073"/>
<polygon fill="none" stroke="#000000" points="687,-287.9073 687,-308.9073 802,-308.9073 802,-287.9073 687,-287.9073"/>
<text text-anchor="start" x="737.5" y="-294.7073" font-family="Times,serif" font-size="14.00" fill="#000000">id</text>
<polygon fill="none" stroke="#000000" points="425,-266.9073 425,-287.9073 456,-287.9073 456,-266.9073 425,-266.9073"/>
<text text-anchor="start" x="435.5" y="-273.7073" font-family="Times,serif" font-size="14.00" fill="#000000">0</text>
<polygon fill="none" stroke="#000000" points="456,-266.9073 456,-287.9073 587,-287.9073 587,-266.9073 456,-266.9073"/>
<text text-anchor="start" x="516.5" y="-273.7073" font-family="Times,serif" font-size="14.00" fill="#000000">4</text>
<polygon fill="none" stroke="#000000" points="587,-266.9073 587,-287.9073 687,-287.9073 687,-266.9073 587,-266.9073"/>
<text text-anchor="start" x="621.5" y="-273.7073" font-family="Times,serif" font-size="14.00" fill="#000000">u4le</text>
<polygon fill="none" stroke="#000000" points="687,-266.9073 687,-287.9073 802,-287.9073 802,-266.9073 687,-266.9073"/>
<text text-anchor="start" x="707.5" y="-273.7073" font-family="Times,serif" font-size="14.00" fill="#000000">value_size</text>
<polygon fill="none" stroke="#000000" points="425,-245.9073 425,-266.9073 456,-266.9073 456,-245.9073 425,-245.9073"/>
<text text-anchor="start" x="435.5" y="-252.7073" font-family="Times,serif" font-size="14.00" fill="#000000">4</text>
<polygon fill="none" stroke="#000000" points="456,-245.9073 456,-266.9073 587,-266.9073 587,-245.9073 456,-245.9073"/>
<text text-anchor="start" x="516.5" y="-252.7073" font-family="Times,serif" font-size="14.00" fill="#000000">4</text>
<polygon fill="none" stroke="#000000" points="587,-245.9073 587,-266.9073 687,-266.9073 687,-245.9073 587,-245.9073"/>
<text text-anchor="start" x="621.5" y="-252.7073" font-family="Times,serif" font-size="14.00" fill="#000000">u4le</text>
<polygon fill="none" stroke="#000000" points="687,-245.9073 687,-266.9073 802,-266.9073 802,-245.9073 687,-245.9073"/>
<text text-anchor="start" x="702" y="-252.7073" font-family="Times,serif" font-size="14.00" fill="#000000">header_size</text>
<polygon fill="none" stroke="#000000" points="425,-224.9073 425,-245.9073 456,-245.9073 456,-224.9073 425,-224.9073"/>
<text text-anchor="start" x="435.5" y="-231.7073" font-family="Times,serif" font-size="14.00" fill="#000000">8</text>
<polygon fill="none" stroke="#000000" points="456,-224.9073 456,-245.9073 587,-245.9073 587,-224.9073 456,-224.9073"/>
<text text-anchor="start" x="514.5" y="-231.7073" font-family="Times,serif" font-size="14.00" fill="#000000">...</text>
<polygon fill="none" stroke="#000000" points="587,-224.9073 587,-245.9073 687,-245.9073 687,-224.9073 587,-224.9073"/>
<text text-anchor="start" x="590" y="-231.7073" font-family="Times,serif" font-size="14.00" fill="#000000">UnicodeOrId</text>
<polygon fill="none" stroke="#000000" points="687,-224.9073 687,-245.9073 802,-245.9073 802,-224.9073 687,-224.9073"/>
<text text-anchor="start" x="728.5" y="-231.7073" font-family="Times,serif" font-size="14.00" fill="#000000">type</text>
<polygon fill="none" stroke="#000000" points="425,-203.9073 425,-224.9073 456,-224.9073 456,-203.9073 425,-203.9073"/>
<text text-anchor="start" x="433.5" y="-210.7073" font-family="Times,serif" font-size="14.00" fill="#000000">...</text>
<polygon fill="none" stroke="#000000" points="456,-203.9073 456,-224.9073 587,-224.9073 587,-203.9073 456,-203.9073"/>
<text text-anchor="start" x="514.5" y="-210.7073" font-family="Times,serif" font-size="14.00" fill="#000000">...</text>
<polygon fill="none" stroke="#000000" points="587,-203.9073 587,-224.9073 687,-224.9073 687,-203.9073 587,-203.9073"/>
<text text-anchor="start" x="590" y="-210.7073" font-family="Times,serif" font-size="14.00" fill="#000000">UnicodeOrId</text>
<polygon fill="none" stroke="#000000" points="687,-203.9073 687,-224.9073 802,-224.9073 802,-203.9073 687,-203.9073"/>
<text text-anchor="start" x="724.5" y="-210.7073" font-family="Times,serif" font-size="14.00" fill="#000000">name</text>
<polygon fill="none" stroke="#000000" points="425,-182.9073 425,-203.9073 456,-203.9073 456,-182.9073 425,-182.9073"/>
<text text-anchor="start" x="433.5" y="-189.7073" font-family="Times,serif" font-size="14.00" fill="#000000">...</text>
<polygon fill="none" stroke="#000000" points="456,-182.9073 456,-203.9073 587,-203.9073 587,-182.9073 456,-182.9073"/>
<text text-anchor="start" x="459" y="-189.7073" font-family="Times,serif" font-size="14.00" fill="#000000">((4 &#45; _io.pos) % 4)</text>
<polygon fill="none" stroke="#000000" points="587,-182.9073 587,-203.9073 687,-203.9073 687,-182.9073 587,-182.9073"/>
<polygon fill="none" stroke="#000000" points="687,-182.9073 687,-203.9073 802,-203.9073 802,-182.9073 687,-182.9073"/>
<text text-anchor="start" x="711" y="-189.7073" font-family="Times,serif" font-size="14.00" fill="#000000">padding1</text>
<polygon fill="none" stroke="#000000" points="425,-161.9073 425,-182.9073 456,-182.9073 456,-161.9073 425,-161.9073"/>
<text text-anchor="start" x="433.5" y="-168.7073" font-family="Times,serif" font-size="14.00" fill="#000000">...</text>
<polygon fill="none" stroke="#000000" points="456,-161.9073 456,-182.9073 587,-182.9073 587,-161.9073 456,-161.9073"/>
<text text-anchor="start" x="516.5" y="-168.7073" font-family="Times,serif" font-size="14.00" fill="#000000">4</text>
<polygon fill="none" stroke="#000000" points="587,-161.9073 587,-182.9073 687,-182.9073 687,-161.9073 587,-161.9073"/>
<text text-anchor="start" x="621.5" y="-168.7073" font-family="Times,serif" font-size="14.00" fill="#000000">u4le</text>
<polygon fill="none" stroke="#000000" points="687,-161.9073 687,-182.9073 802,-182.9073 802,-161.9073 687,-161.9073"/>
<text text-anchor="start" x="690" y="-168.7073" font-family="Times,serif" font-size="14.00" fill="#000000">format_version</text>
<polygon fill="none" stroke="#000000" points="425,-140.9073 425,-161.9073 456,-161.9073 456,-140.9073 425,-140.9073"/>
<text text-anchor="start" x="433.5" y="-147.7073" font-family="Times,serif" font-size="14.00" fill="#000000">...</text>
<polygon fill="none" stroke="#000000" points="456,-140.9073 456,-161.9073 587,-161.9073 587,-140.9073 456,-140.9073"/>
<text text-anchor="start" x="516.5" y="-147.7073" font-family="Times,serif" font-size="14.00" fill="#000000">2</text>
<polygon fill="none" stroke="#000000" points="587,-140.9073 587,-161.9073 687,-161.9073 687,-140.9073 587,-140.9073"/>
<text text-anchor="start" x="621.5" y="-147.7073" font-family="Times,serif" font-size="14.00" fill="#000000">u2le</text>
<polygon fill="none" stroke="#000000" points="687,-140.9073 687,-161.9073 802,-161.9073 802,-140.9073 687,-140.9073"/>
<text text-anchor="start" x="727" y="-147.7073" font-family="Times,serif" font-size="14.00" fill="#000000">flags</text>
<polygon fill="none" stroke="#000000" points="425,-119.9073 425,-140.9073 456,-140.9073 456,-119.9073 425,-119.9073"/>
<text text-anchor="start" x="433.5" y="-126.7073" font-family="Times,serif" font-size="14.00" fill="#000000">...</text>
<polygon fill="none" stroke="#000000" points="456,-119.9073 456,-140.9073 587,-140.9073 587,-119.9073 456,-119.9073"/>
<text text-anchor="start" x="516.5" y="-126.7073" font-family="Times,serif" font-size="14.00" fill="#000000">2</text>
<polygon fill="none" stroke="#000000" points="587,-119.9073 587,-140.9073 687,-140.9073 687,-119.9073 587,-119.9073"/>
<text text-anchor="start" x="621.5" y="-126.7073" font-family="Times,serif" font-size="14.00" fill="#000000">u2le</text>
<polygon fill="none" stroke="#000000" points="687,-119.9073 687,-140.9073 802,-140.9073 802,-119.9073 687,-119.9073"/>
<text text-anchor="start" x="711.5" y="-126.7073" font-family="Times,serif" font-size="14.00" fill="#000000">language</text>
<polygon fill="none" stroke="#000000" points="425,-98.9073 425,-119.9073 456,-119.9073 456,-98.9073 425,-98.9073"/>
<text text-anchor="start" x="433.5" y="-105.7073" font-family="Times,serif" font-size="14.00" fill="#000000">...</text>
<polygon fill="none" stroke="#000000" points="456,-98.9073 456,-119.9073 587,-119.9073 587,-98.9073 456,-98.9073"/>
<text text-anchor="start" x="516.5" y="-105.7073" font-family="Times,serif" font-size="14.00" fill="#000000">4</text>
<polygon fill="none" stroke="#000000" points="587,-98.9073 587,-119.9073 687,-119.9073 687,-98.9073 587,-98.9073"/>
<text text-anchor="start" x="621.5" y="-105.7073" font-family="Times,serif" font-size="14.00" fill="#000000">u4le</text>
<polygon fill="none" stroke="#000000" points="687,-98.9073 687,-119.9073 802,-119.9073 802,-98.9073 687,-98.9073"/>
<text text-anchor="start" x="695" y="-105.7073" font-family="Times,serif" font-size="14.00" fill="#000000">value_version</text>
<polygon fill="none" stroke="#000000" points="425,-77.9073 425,-98.9073 456,-98.9073 456,-77.9073 425,-77.9073"/>
<text text-anchor="start" x="433.5" y="-84.7073" font-family="Times,serif" font-size="14.00" fill="#000000">...</text>
<polygon fill="none" stroke="#000000" points="456,-77.9073 456,-98.9073 587,-98.9073 587,-77.9073 456,-77.9073"/>
<text text-anchor="start" x="516.5" y="-84.7073" font-family="Times,serif" font-size="14.00" fill="#000000">4</text>
<polygon fill="none" stroke="#000000" points="587,-77.9073 587,-98.9073 687,-98.9073 687,-77.9073 587,-77.9073"/>
<text text-anchor="start" x="621.5" y="-84.7073" font-family="Times,serif" font-size="14.00" fill="#000000">u4le</text>
<polygon fill="none" stroke="#000000" points="687,-77.9073 687,-98.9073 802,-98.9073 802,-77.9073 687,-77.9073"/>
<text text-anchor="start" x="690" y="-84.7073" font-family="Times,serif" font-size="14.00" fill="#000000">characteristics</text>
<polygon fill="none" stroke="#000000" points="425,-56.9073 425,-77.9073 456,-77.9073 456,-56.9073 425,-56.9073"/>
<text text-anchor="start" x="433.5" y="-63.7073" font-family="Times,serif" font-size="14.00" fill="#000000">...</text>
<polygon fill="none" stroke="#000000" points="456,-56.9073 456,-77.9073 587,-77.9073 587,-56.9073 456,-56.9073"/>
<text text-anchor="start" x="484.5" y="-63.7073" font-family="Times,serif" font-size="14.00" fill="#000000">value_size</text>
<polygon fill="none" stroke="#000000" points="587,-56.9073 587,-77.9073 687,-77.9073 687,-56.9073 587,-56.9073"/>
<polygon fill="none" stroke="#000000" points="687,-56.9073 687,-77.9073 802,-77.9073 802,-56.9073 687,-56.9073"/>
<text text-anchor="start" x="725" y="-63.7073" font-family="Times,serif" font-size="14.00" fill="#000000">value</text>
<polygon fill="none" stroke="#000000" points="425,-35.9073 425,-56.9073 456,-56.9073 456,-35.9073 425,-35.9073"/>
<text text-anchor="start" x="433.5" y="-42.7073" font-family="Times,serif" font-size="14.00" fill="#000000">...</text>
<polygon fill="none" stroke="#000000" points="456,-35.9073 456,-56.9073 587,-56.9073 587,-35.9073 456,-35.9073"/>
<text text-anchor="start" x="459" y="-42.7073" font-family="Times,serif" font-size="14.00" fill="#000000">((4 &#45; _io.pos) % 4)</text>
<polygon fill="none" stroke="#000000" points="587,-35.9073 587,-56.9073 687,-56.9073 687,-35.9073 587,-35.9073"/>
<polygon fill="none" stroke="#000000" points="687,-35.9073 687,-56.9073 802,-56.9073 802,-35.9073 687,-35.9073"/>
<text text-anchor="start" x="711" y="-42.7073" font-family="Times,serif" font-size="14.00" fill="#000000">padding2</text>
</g>
<!-- windows_resource_file__seq&#45;&gt;resource__seq -->
<g id="edge1" class="edge">
<title>windows_resource_file__seq:resources_type&#45;&gt;resource__seq</title>
<path fill="none" stroke="#000000" stroke-width="2" d="M239.5,-172.9073C293.5242,-172.9073 351.9439,-172.9073 406.1761,-172.9073"/>
<polygon fill="#000000" stroke="#000000" stroke-width="2" points="406.2518,-176.4074 416.2517,-172.9073 406.2517,-169.4074 406.2518,-176.4074"/>
</g>
<!-- resource__seq&#45;&gt;resource__seq -->
<g id="edge4" class="edge">
<title>resource__seq:value_size_type&#45;&gt;resource__seq:value_size</title>
<path fill="none" stroke="#404040" d="M772.6186,-287.964C860.8051,-321.3811 842.7773,-331.4073 633,-331.4073 423.4945,-331.4073 405.242,-155.0156 493.0391,-84.0878"/>
<polygon fill="#404040" stroke="#404040" points="495.3407,-86.738 501.276,-77.9618 491.1632,-81.1212 495.3407,-86.738"/>
</g>
<!-- unicode_or_id__seq -->
<g id="node4" class="node">
<title>unicode_or_id__seq</title>
<polygon fill="#e0ffe0" stroke="transparent" points="987,-277.9073 987,-298.9073 1018,-298.9073 1018,-277.9073 987,-277.9073"/>
<polygon fill="none" stroke="#000000" points="987,-277.9073 987,-298.9073 1018,-298.9073 1018,-277.9073 987,-277.9073"/>
<text text-anchor="start" x="990" y="-284.7073" font-family="Times,serif" font-size="14.00" fill="#000000">pos</text>
<polygon fill="#e0ffe0" stroke="transparent" points="1018,-277.9073 1018,-298.9073 1052,-298.9073 1052,-277.9073 1018,-277.9073"/>
<polygon fill="none" stroke="#000000" points="1018,-277.9073 1018,-298.9073 1052,-298.9073 1052,-277.9073 1018,-277.9073"/>
<text text-anchor="start" x="1021" y="-284.7073" font-family="Times,serif" font-size="14.00" fill="#000000">size</text>
<polygon fill="#e0ffe0" stroke="transparent" points="1052,-277.9073 1052,-298.9073 1090,-298.9073 1090,-277.9073 1052,-277.9073"/>
<polygon fill="none" stroke="#000000" points="1052,-277.9073 1052,-298.9073 1090,-298.9073 1090,-277.9073 1052,-277.9073"/>
<text text-anchor="start" x="1055" y="-284.7073" font-family="Times,serif" font-size="14.00" fill="#000000">type</text>
<polygon fill="#e0ffe0" stroke="transparent" points="1090,-277.9073 1090,-298.9073 1179,-298.9073 1179,-277.9073 1090,-277.9073"/>
<polygon fill="none" stroke="#000000" points="1090,-277.9073 1090,-298.9073 1179,-298.9073 1179,-277.9073 1090,-277.9073"/>
<text text-anchor="start" x="1127.5" y="-284.7073" font-family="Times,serif" font-size="14.00" fill="#000000">id</text>
<polygon fill="none" stroke="#000000" points="987,-256.9073 987,-277.9073 1018,-277.9073 1018,-256.9073 987,-256.9073"/>
<text text-anchor="start" x="997.5" y="-263.7073" font-family="Times,serif" font-size="14.00" fill="#000000">0</text>
<polygon fill="none" stroke="#000000" points="1018,-256.9073 1018,-277.9073 1052,-277.9073 1052,-256.9073 1018,-256.9073"/>
<text text-anchor="start" x="1030" y="-263.7073" font-family="Times,serif" font-size="14.00" fill="#000000">2</text>
<polygon fill="none" stroke="#000000" points="1052,-256.9073 1052,-277.9073 1090,-277.9073 1090,-256.9073 1052,-256.9073"/>
<text text-anchor="start" x="1055.5" y="-263.7073" font-family="Times,serif" font-size="14.00" fill="#000000">u2le</text>
<polygon fill="none" stroke="#000000" points="1090,-256.9073 1090,-277.9073 1179,-277.9073 1179,-256.9073 1090,-256.9073"/>
<text text-anchor="start" x="1119" y="-263.7073" font-family="Times,serif" font-size="14.00" fill="#000000">first</text>
<polygon fill="none" stroke="#000000" points="987,-235.9073 987,-256.9073 1018,-256.9073 1018,-235.9073 987,-235.9073"/>
<text text-anchor="start" x="997.5" y="-242.7073" font-family="Times,serif" font-size="14.00" fill="#000000">2</text>
<polygon fill="none" stroke="#000000" points="1018,-235.9073 1018,-256.9073 1052,-256.9073 1052,-235.9073 1018,-235.9073"/>
<text text-anchor="start" x="1030" y="-242.7073" font-family="Times,serif" font-size="14.00" fill="#000000">2</text>
<polygon fill="none" stroke="#000000" points="1052,-235.9073 1052,-256.9073 1090,-256.9073 1090,-235.9073 1052,-235.9073"/>
<text text-anchor="start" x="1055.5" y="-242.7073" font-family="Times,serif" font-size="14.00" fill="#000000">u2le</text>
<polygon fill="none" stroke="#000000" points="1090,-235.9073 1090,-256.9073 1179,-256.9073 1179,-235.9073 1090,-235.9073"/>
<text text-anchor="start" x="1093" y="-242.7073" font-family="Times,serif" font-size="14.00" fill="#000000">as_numeric</text>
<polygon fill="none" stroke="#000000" points="987,-214.9073 987,-235.9073 1018,-235.9073 1018,-214.9073 987,-214.9073"/>
<text text-anchor="start" x="997.5" y="-221.7073" font-family="Times,serif" font-size="14.00" fill="#000000">4</text>
<polygon fill="none" stroke="#000000" points="1018,-214.9073 1018,-235.9073 1052,-235.9073 1052,-214.9073 1018,-214.9073"/>
<text text-anchor="start" x="1030" y="-221.7073" font-family="Times,serif" font-size="14.00" fill="#000000">2</text>
<polygon fill="none" stroke="#000000" points="1052,-214.9073 1052,-235.9073 1090,-235.9073 1090,-214.9073 1052,-214.9073"/>
<text text-anchor="start" x="1055.5" y="-221.7073" font-family="Times,serif" font-size="14.00" fill="#000000">u2le</text>
<polygon fill="none" stroke="#000000" points="1090,-214.9073 1090,-235.9073 1179,-235.9073 1179,-214.9073 1090,-214.9073"/>
<text text-anchor="start" x="1120" y="-221.7073" font-family="Times,serif" font-size="14.00" fill="#000000">rest</text>
<polygon fill="none" stroke="#000000" points="987,-193.9073 987,-214.9073 1179,-214.9073 1179,-193.9073 987,-193.9073"/>
<text text-anchor="start" x="1013.5" y="-200.7073" font-family="Times,serif" font-size="14.00" fill="#000000">repeat until _ == 0</text>
<polygon fill="none" stroke="#000000" points="987,-172.9073 987,-193.9073 1018,-193.9073 1018,-172.9073 987,-172.9073"/>
<text text-anchor="start" x="995.5" y="-179.7073" font-family="Times,serif" font-size="14.00" fill="#000000">...</text>
<polygon fill="none" stroke="#000000" points="1018,-172.9073 1018,-193.9073 1052,-193.9073 1052,-172.9073 1018,-172.9073"/>
<text text-anchor="start" x="1030" y="-179.7073" font-family="Times,serif" font-size="14.00" fill="#000000">0</text>
<polygon fill="none" stroke="#000000" points="1052,-172.9073 1052,-193.9073 1090,-193.9073 1090,-172.9073 1052,-172.9073"/>
<polygon fill="none" stroke="#000000" points="1090,-172.9073 1090,-193.9073 1179,-193.9073 1179,-172.9073 1090,-172.9073"/>
<text text-anchor="start" x="1117" y="-179.7073" font-family="Times,serif" font-size="14.00" fill="#000000">noop</text>
</g>
<!-- resource__seq&#45;&gt;unicode_or_id__seq -->
<g id="edge2" class="edge">
<title>resource__seq:type_type&#45;&gt;unicode_or_id__seq</title>
<path fill="none" stroke="#000000" stroke-width="2" d="M802,-235.9073C856.8828,-235.9073 917.7952,-235.9073 968.8389,-235.9073"/>
<polygon fill="#000000" stroke="#000000" stroke-width="2" points="968.9114,-239.4074 978.9113,-235.9073 968.9113,-232.4074 968.9114,-239.4074"/>
</g>
<!-- resource__seq&#45;&gt;unicode_or_id__seq -->
<g id="edge3" class="edge">
<title>resource__seq:name_type&#45;&gt;unicode_or_id__seq</title>
<path fill="none" stroke="#000000" stroke-width="2" d="M802,-214.9073C856.9212,-214.9073 917.713,-218.9459 968.6642,-223.481"/>
<polygon fill="#000000" stroke="#000000" stroke-width="2" points="968.4431,-226.9752 978.7185,-224.3935 969.0759,-220.0038 968.4431,-226.9752"/>
</g>
<!-- resource__inst__type_as_predef -->
<g id="node3" class="node">
<title>resource__inst__type_as_predef</title>
<polygon fill="#e0ffe0" stroke="transparent" points="291,-374.9073 291,-395.9073 406,-395.9073 406,-374.9073 291,-374.9073"/>
<polygon fill="none" stroke="#000000" points="291,-374.9073 291,-395.9073 406,-395.9073 406,-374.9073 291,-374.9073"/>
<text text-anchor="start" x="341.5" y="-381.7073" font-family="Times,serif" font-size="14.00" fill="#000000">id</text>
<polygon fill="#e0ffe0" stroke="transparent" points="406,-374.9073 406,-395.9073 935,-395.9073 935,-374.9073 406,-374.9073"/>
<polygon fill="none" stroke="#000000" points="406,-374.9073 406,-395.9073 935,-395.9073 935,-374.9073 406,-374.9073"/>
<text text-anchor="start" x="651" y="-381.7073" font-family="Times,serif" font-size="14.00" fill="#000000">value</text>
<polygon fill="none" stroke="#000000" points="291,-353.9073 291,-374.9073 406,-374.9073 406,-353.9073 291,-353.9073"/>
<text text-anchor="start" x="294" y="-360.7073" font-family="Times,serif" font-size="14.00" fill="#000000">type_as_predef</text>
<polygon fill="none" stroke="#000000" points="406,-353.9073 406,-374.9073 935,-374.9073 935,-353.9073 406,-353.9073"/>
<text text-anchor="start" x="409" y="-360.7073" font-family="Times,serif" font-size="14.00" fill="#000000">Kaitai::Struct::Stream::resolve_enum(PREDEF_TYPES, type.as_numeric)</text>
</g>
<!-- unicode_or_id__seq&#45;&gt;resource__inst__type_as_predef -->
<g id="edge5" class="edge">
<title>unicode_or_id__seq:as_numeric_type&#45;&gt;resource__inst__type_as_predef</title>
<path fill="none" stroke="#404040" d="M1179,-246.9073C1203.8889,-246.9073 1195.0876,-283.9165 1179,-302.9073 1073.6195,-427.3047 869.7883,-421.5081 737.6564,-401.5068"/>
<polygon fill="#404040" stroke="#404040" points="737.8989,-398.0023 727.4784,-399.9167 736.8183,-404.9184 737.8989,-398.0023"/>
</g>
<!-- unicode_or_id__inst__is_string -->
<g id="node7" class="node">
<title>unicode_or_id__inst__is_string</title>
<polygon fill="#e0ffe0" stroke="transparent" points="1379.5,-267.9073 1379.5,-288.9073 1448.5,-288.9073 1448.5,-267.9073 1379.5,-267.9073"/>
<polygon fill="none" stroke="#000000" points="1379.5,-267.9073 1379.5,-288.9073 1448.5,-288.9073 1448.5,-267.9073 1379.5,-267.9073"/>
<text text-anchor="start" x="1407" y="-274.7073" font-family="Times,serif" font-size="14.00" fill="#000000">id</text>
<polygon fill="#e0ffe0" stroke="transparent" points="1448.5,-267.9073 1448.5,-288.9073 1557.5,-288.9073 1557.5,-267.9073 1448.5,-267.9073"/>
<polygon fill="none" stroke="#000000" points="1448.5,-267.9073 1448.5,-288.9073 1557.5,-288.9073 1557.5,-267.9073 1448.5,-267.9073"/>
<text text-anchor="start" x="1483.5" y="-274.7073" font-family="Times,serif" font-size="14.00" fill="#000000">value</text>
<polygon fill="none" stroke="#000000" points="1379.5,-246.9073 1379.5,-267.9073 1448.5,-267.9073 1448.5,-246.9073 1379.5,-246.9073"/>
<text text-anchor="start" x="1382.5" y="-253.7073" font-family="Times,serif" font-size="14.00" fill="#000000">is_string</text>
<polygon fill="none" stroke="#000000" points="1448.5,-246.9073 1448.5,-267.9073 1557.5,-267.9073 1557.5,-246.9073 1448.5,-246.9073"/>
<text text-anchor="start" x="1451.5" y="-253.7073" font-family="Times,serif" font-size="14.00" fill="#000000">first != 65535</text>
</g>
<!-- unicode_or_id__seq&#45;&gt;unicode_or_id__inst__is_string -->
<g id="edge6" class="edge">
<title>unicode_or_id__seq:first_type&#45;&gt;unicode_or_id__inst__is_string</title>
<path fill="none" stroke="#404040" d="M1179,-267.9073C1239.3272,-267.9073 1306.7258,-267.9073 1361.3027,-267.9073"/>
<polygon fill="#404040" stroke="#404040" points="1361.3396,-271.4074 1371.3396,-267.9073 1361.3396,-264.4074 1361.3396,-271.4074"/>
</g>
<!-- unicode_or_id__inst__save_pos1 -->
<g id="node5" class="node">
<title>unicode_or_id__inst__save_pos1</title>
<polygon fill="#e0ffe0" stroke="transparent" points="1015,-57.9073 1015,-78.9073 1095,-78.9073 1095,-57.9073 1015,-57.9073"/>
<polygon fill="none" stroke="#000000" points="1015,-57.9073 1015,-78.9073 1095,-78.9073 1095,-57.9073 1015,-57.9073"/>
<text text-anchor="start" x="1048" y="-64.7073" font-family="Times,serif" font-size="14.00" fill="#000000">id</text>
<polygon fill="#e0ffe0" stroke="transparent" points="1095,-57.9073 1095,-78.9073 1151,-78.9073 1151,-57.9073 1095,-57.9073"/>
<polygon fill="none" stroke="#000000" points="1095,-57.9073 1095,-78.9073 1151,-78.9073 1151,-57.9073 1095,-57.9073"/>
<text text-anchor="start" x="1103.5" y="-64.7073" font-family="Times,serif" font-size="14.00" fill="#000000">value</text>
<polygon fill="none" stroke="#000000" points="1015,-36.9073 1015,-57.9073 1095,-57.9073 1095,-36.9073 1015,-36.9073"/>
<text text-anchor="start" x="1018" y="-43.7073" font-family="Times,serif" font-size="14.00" fill="#000000">save_pos1</text>
<polygon fill="none" stroke="#000000" points="1095,-36.9073 1095,-57.9073 1151,-57.9073 1151,-36.9073 1095,-36.9073"/>
<text text-anchor="start" x="1098" y="-43.7073" font-family="Times,serif" font-size="14.00" fill="#000000">_io.pos</text>
</g>
<!-- unicode_or_id__inst__as_string -->
<g id="node8" class="node">
<title>unicode_or_id__inst__as_string</title>
<polygon fill="#e0ffe0" stroke="transparent" points="1231.5,-68.9073 1231.5,-89.9073 1311.5,-89.9073 1311.5,-68.9073 1231.5,-68.9073"/>
<polygon fill="none" stroke="#000000" points="1231.5,-68.9073 1231.5,-89.9073 1311.5,-89.9073 1311.5,-68.9073 1231.5,-68.9073"/>
<text text-anchor="start" x="1259" y="-75.7073" font-family="Times,serif" font-size="14.00" fill="#000000">pos</text>
<polygon fill="#e0ffe0" stroke="transparent" points="1311.5,-68.9073 1311.5,-89.9073 1522.5,-89.9073 1522.5,-68.9073 1311.5,-68.9073"/>
<polygon fill="none" stroke="#000000" points="1311.5,-68.9073 1311.5,-89.9073 1522.5,-89.9073 1522.5,-68.9073 1311.5,-68.9073"/>
<text text-anchor="start" x="1403" y="-75.7073" font-family="Times,serif" font-size="14.00" fill="#000000">size</text>
<polygon fill="#e0ffe0" stroke="transparent" points="1522.5,-68.9073 1522.5,-89.9073 1633.5,-89.9073 1633.5,-68.9073 1522.5,-68.9073"/>
<polygon fill="none" stroke="#000000" points="1522.5,-68.9073 1522.5,-89.9073 1633.5,-89.9073 1633.5,-68.9073 1522.5,-68.9073"/>
<text text-anchor="start" x="1562" y="-75.7073" font-family="Times,serif" font-size="14.00" fill="#000000">type</text>
<polygon fill="#e0ffe0" stroke="transparent" points="1633.5,-68.9073 1633.5,-89.9073 1706.5,-89.9073 1706.5,-68.9073 1633.5,-68.9073"/>
<polygon fill="none" stroke="#000000" points="1633.5,-68.9073 1633.5,-89.9073 1706.5,-89.9073 1706.5,-68.9073 1633.5,-68.9073"/>
<text text-anchor="start" x="1663" y="-75.7073" font-family="Times,serif" font-size="14.00" fill="#000000">id</text>
<polygon fill="none" stroke="#000000" points="1231.5,-47.9073 1231.5,-68.9073 1311.5,-68.9073 1311.5,-47.9073 1231.5,-47.9073"/>
<text text-anchor="start" x="1234.5" y="-54.7073" font-family="Times,serif" font-size="14.00" fill="#000000">save_pos1</text>
<polygon fill="none" stroke="#000000" points="1311.5,-47.9073 1311.5,-68.9073 1522.5,-68.9073 1522.5,-47.9073 1311.5,-47.9073"/>
<text text-anchor="start" x="1314.5" y="-54.7073" font-family="Times,serif" font-size="14.00" fill="#000000">((save_pos2 &#45; save_pos1) &#45; 2)</text>
<polygon fill="none" stroke="#000000" points="1522.5,-47.9073 1522.5,-68.9073 1633.5,-68.9073 1633.5,-47.9073 1522.5,-47.9073"/>
<text text-anchor="start" x="1525.5" y="-54.7073" font-family="Times,serif" font-size="14.00" fill="#000000">str(UTF&#45;16LE)</text>
<polygon fill="none" stroke="#000000" points="1633.5,-47.9073 1633.5,-68.9073 1706.5,-68.9073 1706.5,-47.9073 1633.5,-47.9073"/>
<text text-anchor="start" x="1636.5" y="-54.7073" font-family="Times,serif" font-size="14.00" fill="#000000">as_string</text>
</g>
<!-- unicode_or_id__inst__save_pos1&#45;&gt;unicode_or_id__inst__as_string -->
<g id="edge7" class="edge">
<title>unicode_or_id__inst__save_pos1:save_pos1_type&#45;&gt;unicode_or_id__inst__as_string:as_string_pos</title>
<path fill="none" stroke="#404040" d="M1159.3092,-57.9073C1179.233,-57.9073 1200.901,-57.9073 1221.4911,-57.9073"/>
<polygon fill="#404040" stroke="#404040" points="1221.5,-61.4074 1231.5,-57.9073 1221.5,-54.4074 1221.5,-61.4074"/>
</g>
<!-- unicode_or_id__inst__save_pos1&#45;&gt;unicode_or_id__inst__as_string -->
<g id="edge9" class="edge">
<title>unicode_or_id__inst__save_pos1:save_pos1_type&#45;&gt;unicode_or_id__inst__as_string:as_string_size</title>
<path fill="none" stroke="#404040" d="M1159.0936,-40.908C1250.2175,-22.4585 1393.2354,-.2935 1413.9626,-37.7235"/>
<polygon fill="#404040" stroke="#404040" points="1410.6861,-39.0501 1416.5,-47.9073 1417.4784,-37.3577 1410.6861,-39.0501"/>
</g>
<!-- unicode_or_id__inst__save_pos2 -->
<g id="node6" class="node">
<title>unicode_or_id__inst__save_pos2</title>
<polygon fill="#e0ffe0" stroke="transparent" points="1015,-125.9073 1015,-146.9073 1095,-146.9073 1095,-125.9073 1015,-125.9073"/>
<polygon fill="none" stroke="#000000" points="1015,-125.9073 1015,-146.9073 1095,-146.9073 1095,-125.9073 1015,-125.9073"/>
<text text-anchor="start" x="1048" y="-132.7073" font-family="Times,serif" font-size="14.00" fill="#000000">id</text>
<polygon fill="#e0ffe0" stroke="transparent" points="1095,-125.9073 1095,-146.9073 1151,-146.9073 1151,-125.9073 1095,-125.9073"/>
<polygon fill="none" stroke="#000000" points="1095,-125.9073 1095,-146.9073 1151,-146.9073 1151,-125.9073 1095,-125.9073"/>
<text text-anchor="start" x="1103.5" y="-132.7073" font-family="Times,serif" font-size="14.00" fill="#000000">value</text>
<polygon fill="none" stroke="#000000" points="1015,-104.9073 1015,-125.9073 1095,-125.9073 1095,-104.9073 1015,-104.9073"/>
<text text-anchor="start" x="1018" y="-111.7073" font-family="Times,serif" font-size="14.00" fill="#000000">save_pos2</text>
<polygon fill="none" stroke="#000000" points="1095,-104.9073 1095,-125.9073 1151,-125.9073 1151,-104.9073 1095,-104.9073"/>
<text text-anchor="start" x="1098" y="-111.7073" font-family="Times,serif" font-size="14.00" fill="#000000">_io.pos</text>
</g>
<!-- unicode_or_id__inst__save_pos2&#45;&gt;unicode_or_id__inst__as_string -->
<g id="edge8" class="edge">
<title>unicode_or_id__inst__save_pos2:save_pos2_type&#45;&gt;unicode_or_id__inst__as_string:as_string_size</title>
<path fill="none" stroke="#404040" d="M1159.2619,-106.6343C1169.0167,-102.5675 1178.5369,-97.7037 1187,-91.9073 1207.8463,-77.6297 1200.167,-58.7273 1223,-47.9073 1297.3763,-12.6619 1406.6201,33.8898 1415.8709,-37.5583"/>
<polygon fill="#404040" stroke="#404040" points="1412.3996,-38.1381 1416.5,-47.9073 1419.3867,-37.7133 1412.3996,-38.1381"/>
</g>
</g>
</svg>
