<?xml version="1.0" encoding="UTF-8" standalone="no"?>
<!DOCTYPE svg PUBLIC "-//W3C//DTD SVG 1.1//EN"
 "http://www.w3.org/Graphics/SVG/1.1/DTD/svg11.dtd">
<!-- Generated by graphviz version 2.43.0 (0)
 -->
<!-- Title: %3 Pages: 1 -->
<svg width="2381pt" height="381pt"
 viewBox="0.00 0.00 2381.00 380.77" xmlns="http://www.w3.org/2000/svg" xmlns:xlink="http://www.w3.org/1999/xlink">
<g id="graph0" class="graph" transform="scale(1 1) rotate(0) translate(4 376.77)">
<title>%3</title>
<polygon fill="white" stroke="transparent" points="-4,4 -4,-376.77 2377,-376.77 2377,4 -4,4"/>
<g id="clust1" class="cluster">
<title>cluster__gran_turismo_vol</title>
<polygon fill="none" stroke="black" stroke-dasharray="1,5" points="135,-68.77 135,-364.77 2365,-364.77 2365,-68.77 135,-68.77"/>
<text text-anchor="middle" x="1250" y="-349.57" font-family="Times,serif" font-size="14.00">GranTurismoVol</text>
</g>
<g id="clust2" class="cluster">
<title>cluster__file_info</title>
<polygon fill="none" stroke="black" stroke-dasharray="1,5" points="1058,-88.77 1058,-333.77 2357,-333.77 2357,-88.77 1058,-88.77"/>
<text text-anchor="middle" x="1707.5" y="-318.57" font-family="Times,serif" font-size="14.00">GranTurismoVol::FileInfo</text>
</g>
<!-- gran_turismo_vol__seq -->
<g id="node1" class="node">
<title>gran_turismo_vol__seq</title>
<polygon fill="#e0ffe0" stroke="transparent" points="151,-253.77 151,-274.77 182,-274.77 182,-253.77 151,-253.77"/>
<polygon fill="none" stroke="black" points="151,-253.77 151,-274.77 182,-274.77 182,-253.77 151,-253.77"/>
<text text-anchor="start" x="154" y="-260.57" font-family="Times,serif" font-size="14.00">pos</text>
<polygon fill="#e0ffe0" stroke="transparent" points="182,-253.77 182,-274.77 216,-274.77 216,-253.77 182,-253.77"/>
<polygon fill="none" stroke="black" points="182,-253.77 182,-274.77 216,-274.77 216,-253.77 182,-253.77"/>
<text text-anchor="start" x="185" y="-260.57" font-family="Times,serif" font-size="14.00">size</text>
<polygon fill="#e0ffe0" stroke="transparent" points="216,-253.77 216,-274.77 398,-274.77 398,-253.77 216,-253.77"/>
<polygon fill="none" stroke="black" points="216,-253.77 216,-274.77 398,-274.77 398,-253.77 216,-253.77"/>
<text text-anchor="start" x="291" y="-260.57" font-family="Times,serif" font-size="14.00">type</text>
<polygon fill="#e0ffe0" stroke="transparent" points="398,-253.77 398,-274.77 493,-274.77 493,-253.77 398,-253.77"/>
<polygon fill="none" stroke="black" points="398,-253.77 398,-274.77 493,-274.77 493,-253.77 398,-253.77"/>
<text text-anchor="start" x="438.5" y="-260.57" font-family="Times,serif" font-size="14.00">id</text>
<polygon fill="none" stroke="black" points="151,-232.77 151,-253.77 182,-253.77 182,-232.77 151,-232.77"/>
<text text-anchor="start" x="161.5" y="-239.57" font-family="Times,serif" font-size="14.00">0</text>
<polygon fill="none" stroke="black" points="182,-232.77 182,-253.77 216,-253.77 216,-232.77 182,-232.77"/>
<text text-anchor="start" x="194" y="-239.57" font-family="Times,serif" font-size="14.00">8</text>
<polygon fill="none" stroke="black" points="216,-232.77 216,-253.77 398,-253.77 398,-232.77 216,-232.77"/>
<text text-anchor="start" x="219" y="-239.57" font-family="Times,serif" font-size="14.00">47 54 46 53 00 00 00 00</text>
<polygon fill="none" stroke="black" points="398,-232.77 398,-253.77 493,-253.77 493,-232.77 398,-232.77"/>
<text text-anchor="start" x="424" y="-239.57" font-family="Times,serif" font-size="14.00">magic</text>
<polygon fill="none" stroke="black" points="151,-211.77 151,-232.77 182,-232.77 182,-211.77 151,-211.77"/>
<text text-anchor="start" x="161.5" y="-218.57" font-family="Times,serif" font-size="14.00">8</text>
<polygon fill="none" stroke="black" points="182,-211.77 182,-232.77 216,-232.77 216,-211.77 182,-211.77"/>
<text text-anchor="start" x="194" y="-218.57" font-family="Times,serif" font-size="14.00">2</text>
<polygon fill="none" stroke="black" points="216,-211.77 216,-232.77 398,-232.77 398,-211.77 216,-211.77"/>
<text text-anchor="start" x="291.5" y="-218.57" font-family="Times,serif" font-size="14.00">u2le</text>
<polygon fill="none" stroke="black" points="398,-211.77 398,-232.77 493,-232.77 493,-211.77 398,-211.77"/>
<text text-anchor="start" x="411.5" y="-218.57" font-family="Times,serif" font-size="14.00">num_files</text>
<polygon fill="none" stroke="black" points="151,-190.77 151,-211.77 182,-211.77 182,-190.77 151,-190.77"/>
<text text-anchor="start" x="157" y="-197.57" font-family="Times,serif" font-size="14.00">10</text>
<polygon fill="none" stroke="black" points="182,-190.77 182,-211.77 216,-211.77 216,-190.77 182,-190.77"/>
<text text-anchor="start" x="194" y="-197.57" font-family="Times,serif" font-size="14.00">2</text>
<polygon fill="none" stroke="black" points="216,-190.77 216,-211.77 398,-211.77 398,-190.77 216,-190.77"/>
<text text-anchor="start" x="291.5" y="-197.57" font-family="Times,serif" font-size="14.00">u2le</text>
<polygon fill="none" stroke="black" points="398,-190.77 398,-211.77 493,-211.77 493,-190.77 398,-190.77"/>
<text text-anchor="start" x="401" y="-197.57" font-family="Times,serif" font-size="14.00">num_entries</text>
<polygon fill="none" stroke="black" points="151,-169.77 151,-190.77 182,-190.77 182,-169.77 151,-169.77"/>
<text text-anchor="start" x="157" y="-176.57" font-family="Times,serif" font-size="14.00">12</text>
<polygon fill="none" stroke="black" points="182,-169.77 182,-190.77 216,-190.77 216,-169.77 182,-169.77"/>
<text text-anchor="start" x="194" y="-176.57" font-family="Times,serif" font-size="14.00">4</text>
<polygon fill="none" stroke="black" points="216,-169.77 216,-190.77 398,-190.77 398,-169.77 216,-169.77"/>
<text text-anchor="start" x="264" y="-176.57" font-family="Times,serif" font-size="14.00">00 00 00 00</text>
<polygon fill="none" stroke="black" points="398,-169.77 398,-190.77 493,-190.77 493,-169.77 398,-169.77"/>
<text text-anchor="start" x="413.5" y="-176.57" font-family="Times,serif" font-size="14.00">reserved</text>
<polygon fill="none" stroke="black" points="151,-148.77 151,-169.77 182,-169.77 182,-148.77 151,-148.77"/>
<text text-anchor="start" x="157" y="-155.57" font-family="Times,serif" font-size="14.00">16</text>
<polygon fill="none" stroke="black" points="182,-148.77 182,-169.77 216,-169.77 216,-148.77 182,-148.77"/>
<text text-anchor="start" x="194" y="-155.57" font-family="Times,serif" font-size="14.00">4</text>
<polygon fill="none" stroke="black" points="216,-148.77 216,-169.77 398,-169.77 398,-148.77 216,-148.77"/>
<text text-anchor="start" x="291.5" y="-155.57" font-family="Times,serif" font-size="14.00">u4le</text>
<polygon fill="none" stroke="black" points="398,-148.77 398,-169.77 493,-169.77 493,-148.77 398,-148.77"/>
<text text-anchor="start" x="421.5" y="-155.57" font-family="Times,serif" font-size="14.00">offsets</text>
<polygon fill="none" stroke="black" points="151,-127.77 151,-148.77 493,-148.77 493,-127.77 151,-127.77"/>
<text text-anchor="start" x="240.5" y="-134.57" font-family="Times,serif" font-size="14.00">repeat num_files times</text>
</g>
<!-- gran_turismo_vol__seq&#45;&gt;gran_turismo_vol__seq -->
<g id="edge1" class="edge">
<title>gran_turismo_vol__seq:num_files_type&#45;&gt;gran_turismo_vol__seq:offsets__repeat</title>
<path fill="none" stroke="#404040" d="M397.84,-225.56C261.61,-231.01 0,-225.53 0,-180.27 0,-152.01 64.61,-139.26 140.66,-134.99"/>
<polygon fill="#404040" stroke="#404040" points="141.16,-138.47 150.97,-134.46 140.8,-131.48 141.16,-138.47"/>
</g>
<!-- gran_turismo_vol__inst__files -->
<g id="node2" class="node">
<title>gran_turismo_vol__inst__files</title>
<polygon fill="#e0ffe0" stroke="transparent" points="725.5,-239.77 725.5,-260.77 891.5,-260.77 891.5,-239.77 725.5,-239.77"/>
<polygon fill="none" stroke="black" points="725.5,-239.77 725.5,-260.77 891.5,-260.77 891.5,-239.77 725.5,-239.77"/>
<text text-anchor="start" x="796" y="-246.57" font-family="Times,serif" font-size="14.00">pos</text>
<polygon fill="#e0ffe0" stroke="transparent" points="891.5,-239.77 891.5,-260.77 925.5,-260.77 925.5,-239.77 891.5,-239.77"/>
<polygon fill="none" stroke="black" points="891.5,-239.77 891.5,-260.77 925.5,-260.77 925.5,-239.77 891.5,-239.77"/>
<text text-anchor="start" x="894.5" y="-246.57" font-family="Times,serif" font-size="14.00">size</text>
<polygon fill="#e0ffe0" stroke="transparent" points="925.5,-239.77 925.5,-260.77 986.5,-260.77 986.5,-239.77 925.5,-239.77"/>
<polygon fill="none" stroke="black" points="925.5,-239.77 925.5,-260.77 986.5,-260.77 986.5,-239.77 925.5,-239.77"/>
<text text-anchor="start" x="940" y="-246.57" font-family="Times,serif" font-size="14.00">type</text>
<polygon fill="#e0ffe0" stroke="transparent" points="986.5,-239.77 986.5,-260.77 1022.5,-260.77 1022.5,-239.77 986.5,-239.77"/>
<polygon fill="none" stroke="black" points="986.5,-239.77 986.5,-260.77 1022.5,-260.77 1022.5,-239.77 986.5,-239.77"/>
<text text-anchor="start" x="997.5" y="-246.57" font-family="Times,serif" font-size="14.00">id</text>
<polygon fill="none" stroke="black" points="725.5,-218.77 725.5,-239.77 891.5,-239.77 891.5,-218.77 725.5,-218.77"/>
<text text-anchor="start" x="728.5" y="-225.57" font-family="Times,serif" font-size="14.00">ofs_dir &amp; 4294965248</text>
<polygon fill="none" stroke="black" points="891.5,-218.77 891.5,-239.77 925.5,-239.77 925.5,-218.77 891.5,-218.77"/>
<text text-anchor="start" x="899" y="-225.57" font-family="Times,serif" font-size="14.00">32</text>
<polygon fill="none" stroke="black" points="925.5,-218.77 925.5,-239.77 986.5,-239.77 986.5,-218.77 925.5,-218.77"/>
<text text-anchor="start" x="928.5" y="-225.57" font-family="Times,serif" font-size="14.00">FileInfo</text>
<polygon fill="none" stroke="black" points="986.5,-218.77 986.5,-239.77 1022.5,-239.77 1022.5,-218.77 986.5,-218.77"/>
<text text-anchor="start" x="989.5" y="-225.57" font-family="Times,serif" font-size="14.00">files</text>
<polygon fill="none" stroke="black" points="725.5,-197.77 725.5,-218.77 1022.5,-218.77 1022.5,-197.77 725.5,-197.77"/>
<text text-anchor="start" x="761.5" y="-204.57" font-family="Times,serif" font-size="14.00">repeat _root.num_entries times</text>
</g>
<!-- gran_turismo_vol__seq&#45;&gt;gran_turismo_vol__inst__files -->
<g id="edge4" class="edge">
<title>gran_turismo_vol__seq:num_entries_type&#45;&gt;gran_turismo_vol__inst__files:files__repeat</title>
<path fill="none" stroke="#404040" d="M494,-200.77C514.1,-200.77 517.15,-211.62 537,-214.77 600.21,-224.8 617.2,-219.87 681,-214.77 696.55,-213.52 702.51,-209.82 714.19,-208.36"/>
<polygon fill="#404040" stroke="#404040" points="714.72,-211.84 724.5,-207.77 714.31,-204.85 714.72,-211.84"/>
</g>
<!-- gran_turismo_vol__inst__ofs_dir -->
<g id="node3" class="node">
<title>gran_turismo_vol__inst__ofs_dir</title>
<polygon fill="#e0ffe0" stroke="transparent" points="545,-180.77 545,-201.77 600,-201.77 600,-180.77 545,-180.77"/>
<polygon fill="none" stroke="black" points="545,-180.77 545,-201.77 600,-201.77 600,-180.77 545,-180.77"/>
<text text-anchor="start" x="565.5" y="-187.57" font-family="Times,serif" font-size="14.00">id</text>
<polygon fill="#e0ffe0" stroke="transparent" points="600,-180.77 600,-201.77 673,-201.77 673,-180.77 600,-180.77"/>
<polygon fill="none" stroke="black" points="600,-180.77 600,-201.77 673,-201.77 673,-180.77 600,-180.77"/>
<text text-anchor="start" x="617" y="-187.57" font-family="Times,serif" font-size="14.00">value</text>
<polygon fill="none" stroke="black" points="545,-159.77 545,-180.77 600,-180.77 600,-159.77 545,-159.77"/>
<text text-anchor="start" x="548" y="-166.57" font-family="Times,serif" font-size="14.00">ofs_dir</text>
<polygon fill="none" stroke="black" points="600,-159.77 600,-180.77 673,-180.77 673,-159.77 600,-159.77"/>
<text text-anchor="start" x="603" y="-166.57" font-family="Times,serif" font-size="14.00">offsets[1]</text>
</g>
<!-- gran_turismo_vol__seq&#45;&gt;gran_turismo_vol__inst__ofs_dir -->
<g id="edge5" class="edge">
<title>gran_turismo_vol__seq:offsets_type&#45;&gt;gran_turismo_vol__inst__ofs_dir</title>
<path fill="none" stroke="#404040" d="M494,-158.77C504.73,-158.77 515.92,-159.72 526.92,-161.22"/>
<polygon fill="#404040" stroke="#404040" points="526.54,-164.7 536.95,-162.75 527.59,-157.78 526.54,-164.7"/>
</g>
<!-- file_info__inst__body -->
<g id="node5" class="node">
<title>file_info__inst__body</title>
<polygon fill="#e0ffe0" stroke="transparent" points="1943,-244.77 1943,-265.77 2228,-265.77 2228,-244.77 1943,-244.77"/>
<polygon fill="none" stroke="black" points="1943,-244.77 1943,-265.77 2228,-265.77 2228,-244.77 1943,-244.77"/>
<text text-anchor="start" x="2073" y="-251.57" font-family="Times,serif" font-size="14.00">pos</text>
<polygon fill="#e0ffe0" stroke="transparent" points="2228,-244.77 2228,-265.77 2262,-265.77 2262,-244.77 2228,-244.77"/>
<polygon fill="none" stroke="black" points="2228,-244.77 2228,-265.77 2262,-265.77 2262,-244.77 2228,-244.77"/>
<text text-anchor="start" x="2231" y="-251.57" font-family="Times,serif" font-size="14.00">size</text>
<polygon fill="#e0ffe0" stroke="transparent" points="2262,-244.77 2262,-265.77 2300,-265.77 2300,-244.77 2262,-244.77"/>
<polygon fill="none" stroke="black" points="2262,-244.77 2262,-265.77 2300,-265.77 2300,-244.77 2262,-244.77"/>
<text text-anchor="start" x="2265" y="-251.57" font-family="Times,serif" font-size="14.00">type</text>
<polygon fill="#e0ffe0" stroke="transparent" points="2300,-244.77 2300,-265.77 2341,-265.77 2341,-244.77 2300,-244.77"/>
<polygon fill="none" stroke="black" points="2300,-244.77 2300,-265.77 2341,-265.77 2341,-244.77 2300,-244.77"/>
<text text-anchor="start" x="2313.5" y="-251.57" font-family="Times,serif" font-size="14.00">id</text>
<polygon fill="none" stroke="black" points="1943,-223.77 1943,-244.77 2228,-244.77 2228,-223.77 1943,-223.77"/>
<text text-anchor="start" x="1946" y="-230.57" font-family="Times,serif" font-size="14.00">_root.offsets[offset_idx] &amp; 4294965248</text>
<polygon fill="none" stroke="black" points="2228,-223.77 2228,-244.77 2262,-244.77 2262,-223.77 2228,-223.77"/>
<text text-anchor="start" x="2231" y="-230.57" font-family="Times,serif" font-size="14.00">size</text>
<polygon fill="none" stroke="black" points="2262,-223.77 2262,-244.77 2300,-244.77 2300,-223.77 2262,-223.77"/>
<polygon fill="none" stroke="black" points="2300,-223.77 2300,-244.77 2341,-244.77 2341,-223.77 2300,-223.77"/>
<text text-anchor="start" x="2303" y="-230.57" font-family="Times,serif" font-size="14.00">body</text>
<polygon fill="none" stroke="black" points="1943,-202.77 1943,-223.77 2341,-223.77 2341,-202.77 1943,-202.77"/>
<text text-anchor="start" x="2107" y="-209.57" font-family="Times,serif" font-size="14.00">if !(is_dir)</text>
</g>
<!-- gran_turismo_vol__seq&#45;&gt;file_info__inst__body -->
<g id="edge6" class="edge">
<title>gran_turismo_vol__seq:offsets_type&#45;&gt;file_info__inst__body:body_pos</title>
<path fill="none" stroke="#404040" d="M494,-158.77C515.27,-158.77 516.94,-144.84 537,-137.77 679.85,-87.38 721.02,-77.77 872.5,-77.77 872.5,-77.77 872.5,-77.77 1188,-77.77 1504.03,-77.77 1647.26,103.29 1899,-87.77 1949.83,-126.35 1882.83,-222.07 1931.86,-232.79"/>
<polygon fill="#404040" stroke="#404040" points="1931.71,-236.29 1942,-233.77 1932.38,-229.32 1931.71,-236.29"/>
</g>
<!-- file_info__inst__size -->
<g id="node8" class="node">
<title>file_info__inst__size</title>
<polygon fill="#e0ffe0" stroke="transparent" points="1352.5,-257.77 1352.5,-278.77 1386.5,-278.77 1386.5,-257.77 1352.5,-257.77"/>
<polygon fill="none" stroke="black" points="1352.5,-257.77 1352.5,-278.77 1386.5,-278.77 1386.5,-257.77 1352.5,-257.77"/>
<text text-anchor="start" x="1362.5" y="-264.57" font-family="Times,serif" font-size="14.00">id</text>
<polygon fill="#e0ffe0" stroke="transparent" points="1386.5,-257.77 1386.5,-278.77 1891.5,-278.77 1891.5,-257.77 1386.5,-257.77"/>
<polygon fill="none" stroke="black" points="1386.5,-257.77 1386.5,-278.77 1891.5,-278.77 1891.5,-257.77 1386.5,-257.77"/>
<text text-anchor="start" x="1619.5" y="-264.57" font-family="Times,serif" font-size="14.00">value</text>
<polygon fill="none" stroke="black" points="1352.5,-236.77 1352.5,-257.77 1386.5,-257.77 1386.5,-236.77 1352.5,-236.77"/>
<text text-anchor="start" x="1355.5" y="-243.57" font-family="Times,serif" font-size="14.00">size</text>
<polygon fill="none" stroke="black" points="1386.5,-236.77 1386.5,-257.77 1891.5,-257.77 1891.5,-236.77 1386.5,-236.77"/>
<text text-anchor="start" x="1389.5" y="-243.57" font-family="Times,serif" font-size="14.00">(_root.offsets[offset_idx + 1] &amp; 4294965248) &#45; _root.offsets[offset_idx]</text>
</g>
<!-- gran_turismo_vol__seq&#45;&gt;file_info__inst__size -->
<g id="edge12" class="edge">
<title>gran_turismo_vol__seq:offsets_type&#45;&gt;file_info__inst__size</title>
<path fill="none" stroke="#404040" d="M494,-158.77C513.84,-158.77 517.34,-149.46 537,-146.77 600.41,-138.08 617.01,-145.9 681,-146.77 959.74,-150.54 1067.3,-23.14 1308,-163.77 1334.85,-179.45 1317.93,-206.82 1344,-223.77 1345.98,-225.05 1347.98,-226.3 1350,-227.51"/>
<polygon fill="#404040" stroke="#404040" points="1348.6,-230.74 1359.03,-232.6 1352.04,-224.64 1348.6,-230.74"/>
</g>
<!-- file_info__seq -->
<g id="node4" class="node">
<title>file_info__seq</title>
<polygon fill="#e0ffe0" stroke="transparent" points="1074,-259.77 1074,-280.77 1105,-280.77 1105,-259.77 1074,-259.77"/>
<polygon fill="none" stroke="black" points="1074,-259.77 1074,-280.77 1105,-280.77 1105,-259.77 1074,-259.77"/>
<text text-anchor="start" x="1077" y="-266.57" font-family="Times,serif" font-size="14.00">pos</text>
<polygon fill="#e0ffe0" stroke="transparent" points="1105,-259.77 1105,-280.77 1139,-280.77 1139,-259.77 1105,-259.77"/>
<polygon fill="none" stroke="black" points="1105,-259.77 1105,-280.77 1139,-280.77 1139,-259.77 1105,-259.77"/>
<text text-anchor="start" x="1108" y="-266.57" font-family="Times,serif" font-size="14.00">size</text>
<polygon fill="#e0ffe0" stroke="transparent" points="1139,-259.77 1139,-280.77 1217,-280.77 1217,-259.77 1139,-259.77"/>
<polygon fill="none" stroke="black" points="1139,-259.77 1139,-280.77 1217,-280.77 1217,-259.77 1139,-259.77"/>
<text text-anchor="start" x="1162" y="-266.57" font-family="Times,serif" font-size="14.00">type</text>
<polygon fill="#e0ffe0" stroke="transparent" points="1217,-259.77 1217,-280.77 1300,-280.77 1300,-259.77 1217,-259.77"/>
<polygon fill="none" stroke="black" points="1217,-259.77 1217,-280.77 1300,-280.77 1300,-259.77 1217,-259.77"/>
<text text-anchor="start" x="1251.5" y="-266.57" font-family="Times,serif" font-size="14.00">id</text>
<polygon fill="none" stroke="black" points="1074,-238.77 1074,-259.77 1105,-259.77 1105,-238.77 1074,-238.77"/>
<text text-anchor="start" x="1084.5" y="-245.57" font-family="Times,serif" font-size="14.00">0</text>
<polygon fill="none" stroke="black" points="1105,-238.77 1105,-259.77 1139,-259.77 1139,-238.77 1105,-238.77"/>
<text text-anchor="start" x="1117" y="-245.57" font-family="Times,serif" font-size="14.00">4</text>
<polygon fill="none" stroke="black" points="1139,-238.77 1139,-259.77 1217,-259.77 1217,-238.77 1139,-238.77"/>
<text text-anchor="start" x="1162.5" y="-245.57" font-family="Times,serif" font-size="14.00">u4le</text>
<polygon fill="none" stroke="black" points="1217,-238.77 1217,-259.77 1300,-259.77 1300,-238.77 1217,-238.77"/>
<text text-anchor="start" x="1220" y="-245.57" font-family="Times,serif" font-size="14.00">timestamp</text>
<polygon fill="none" stroke="black" points="1074,-217.77 1074,-238.77 1105,-238.77 1105,-217.77 1074,-217.77"/>
<text text-anchor="start" x="1084.5" y="-224.57" font-family="Times,serif" font-size="14.00">4</text>
<polygon fill="none" stroke="black" points="1105,-217.77 1105,-238.77 1139,-238.77 1139,-217.77 1105,-217.77"/>
<text text-anchor="start" x="1117" y="-224.57" font-family="Times,serif" font-size="14.00">2</text>
<polygon fill="none" stroke="black" points="1139,-217.77 1139,-238.77 1217,-238.77 1217,-217.77 1139,-217.77"/>
<text text-anchor="start" x="1162.5" y="-224.57" font-family="Times,serif" font-size="14.00">u2le</text>
<polygon fill="none" stroke="black" points="1217,-217.77 1217,-238.77 1300,-238.77 1300,-217.77 1217,-217.77"/>
<text text-anchor="start" x="1224" y="-224.57" font-family="Times,serif" font-size="14.00">offset_idx</text>
<polygon fill="none" stroke="black" points="1074,-196.77 1074,-217.77 1105,-217.77 1105,-196.77 1074,-196.77"/>
<text text-anchor="start" x="1084.5" y="-203.57" font-family="Times,serif" font-size="14.00">6</text>
<polygon fill="none" stroke="black" points="1105,-196.77 1105,-217.77 1139,-217.77 1139,-196.77 1105,-196.77"/>
<text text-anchor="start" x="1117" y="-203.57" font-family="Times,serif" font-size="14.00">1</text>
<polygon fill="none" stroke="black" points="1139,-196.77 1139,-217.77 1217,-217.77 1217,-196.77 1139,-196.77"/>
<text text-anchor="start" x="1168.5" y="-203.57" font-family="Times,serif" font-size="14.00">u1</text>
<polygon fill="none" stroke="black" points="1217,-196.77 1217,-217.77 1300,-217.77 1300,-196.77 1217,-196.77"/>
<text text-anchor="start" x="1241.5" y="-203.57" font-family="Times,serif" font-size="14.00">flags</text>
<polygon fill="none" stroke="black" points="1074,-175.77 1074,-196.77 1105,-196.77 1105,-175.77 1074,-175.77"/>
<text text-anchor="start" x="1084.5" y="-182.57" font-family="Times,serif" font-size="14.00">7</text>
<polygon fill="none" stroke="black" points="1105,-175.77 1105,-196.77 1139,-196.77 1139,-175.77 1105,-175.77"/>
<text text-anchor="start" x="1112.5" y="-182.57" font-family="Times,serif" font-size="14.00">25</text>
<polygon fill="none" stroke="black" points="1139,-175.77 1139,-196.77 1217,-196.77 1217,-175.77 1139,-175.77"/>
<text text-anchor="start" x="1142" y="-182.57" font-family="Times,serif" font-size="14.00">str(ASCII)</text>
<polygon fill="none" stroke="black" points="1217,-175.77 1217,-196.77 1300,-196.77 1300,-175.77 1217,-175.77"/>
<text text-anchor="start" x="1238.5" y="-182.57" font-family="Times,serif" font-size="14.00">name</text>
</g>
<!-- gran_turismo_vol__inst__files&#45;&gt;file_info__seq -->
<g id="edge3" class="edge">
<title>gran_turismo_vol__inst__files:files_type&#45;&gt;file_info__seq</title>
<path fill="none" stroke="black" stroke-width="2" d="M1023.5,-228.77C1033.98,-228.77 1044.83,-228.77 1055.74,-228.77"/>
<polygon fill="black" stroke="black" stroke-width="2" points="1055.76,-232.27 1065.76,-228.77 1055.76,-225.27 1055.76,-232.27"/>
</g>
<!-- gran_turismo_vol__inst__ofs_dir&#45;&gt;gran_turismo_vol__inst__files -->
<g id="edge2" class="edge">
<title>gran_turismo_vol__inst__ofs_dir:ofs_dir_type&#45;&gt;gran_turismo_vol__inst__files:files_pos</title>
<path fill="none" stroke="#404040" d="M659.27,-205.89C678.67,-215.06 699.75,-224 714.34,-227.37"/>
<polygon fill="#404040" stroke="#404040" points="714.12,-230.87 724.5,-228.77 715.07,-223.93 714.12,-230.87"/>
</g>
<!-- file_info__seq&#45;&gt;file_info__inst__body -->
<g id="edge7" class="edge">
<title>file_info__seq:offset_idx_type&#45;&gt;file_info__inst__body:body_pos</title>
<path fill="none" stroke="#404040" d="M1301,-227.77C1335.27,-227.77 1313.76,-275.65 1344,-291.77 1452.84,-349.77 1788.84,-347.23 1899,-291.77 1924.08,-279.14 1913.62,-244.2 1932.11,-235.67"/>
<polygon fill="#404040" stroke="#404040" points="1932.84,-239.09 1942,-233.77 1931.52,-232.22 1932.84,-239.09"/>
</g>
<!-- file_info__inst__is_dir -->
<g id="node6" class="node">
<title>file_info__inst__is_dir</title>
<polygon fill="#e0ffe0" stroke="transparent" points="1545.5,-189.77 1545.5,-210.77 1591.5,-210.77 1591.5,-189.77 1545.5,-189.77"/>
<polygon fill="none" stroke="black" points="1545.5,-189.77 1545.5,-210.77 1591.5,-210.77 1591.5,-189.77 1545.5,-189.77"/>
<text text-anchor="start" x="1561.5" y="-196.57" font-family="Times,serif" font-size="14.00">id</text>
<polygon fill="#e0ffe0" stroke="transparent" points="1591.5,-189.77 1591.5,-210.77 1698.5,-210.77 1698.5,-189.77 1591.5,-189.77"/>
<polygon fill="none" stroke="black" points="1591.5,-189.77 1591.5,-210.77 1698.5,-210.77 1698.5,-189.77 1591.5,-189.77"/>
<text text-anchor="start" x="1625.5" y="-196.57" font-family="Times,serif" font-size="14.00">value</text>
<polygon fill="none" stroke="black" points="1545.5,-168.77 1545.5,-189.77 1591.5,-189.77 1591.5,-168.77 1545.5,-168.77"/>
<text text-anchor="start" x="1548.5" y="-175.57" font-family="Times,serif" font-size="14.00">is_dir</text>
<polygon fill="none" stroke="black" points="1591.5,-168.77 1591.5,-189.77 1698.5,-189.77 1698.5,-168.77 1591.5,-168.77"/>
<text text-anchor="start" x="1594.5" y="-175.57" font-family="Times,serif" font-size="14.00">flags &amp; 1 != 0</text>
</g>
<!-- file_info__seq&#45;&gt;file_info__inst__is_dir -->
<g id="edge10" class="edge">
<title>file_info__seq:flags_type&#45;&gt;file_info__inst__is_dir</title>
<path fill="none" stroke="#404040" d="M1301,-206.77C1377.06,-206.77 1463.16,-201.9 1526.8,-197.38"/>
<polygon fill="#404040" stroke="#404040" points="1527.09,-200.87 1536.81,-196.66 1526.59,-193.89 1527.09,-200.87"/>
</g>
<!-- file_info__inst__is_last_entry -->
<g id="node7" class="node">
<title>file_info__inst__is_last_entry</title>
<polygon fill="#e0ffe0" stroke="transparent" points="1510.5,-121.77 1510.5,-142.77 1607.5,-142.77 1607.5,-121.77 1510.5,-121.77"/>
<polygon fill="none" stroke="black" points="1510.5,-121.77 1510.5,-142.77 1607.5,-142.77 1607.5,-121.77 1510.5,-121.77"/>
<text text-anchor="start" x="1552" y="-128.57" font-family="Times,serif" font-size="14.00">id</text>
<polygon fill="#e0ffe0" stroke="transparent" points="1607.5,-121.77 1607.5,-142.77 1732.5,-142.77 1732.5,-121.77 1607.5,-121.77"/>
<polygon fill="none" stroke="black" points="1607.5,-121.77 1607.5,-142.77 1732.5,-142.77 1732.5,-121.77 1607.5,-121.77"/>
<text text-anchor="start" x="1650.5" y="-128.57" font-family="Times,serif" font-size="14.00">value</text>
<polygon fill="none" stroke="black" points="1510.5,-100.77 1510.5,-121.77 1607.5,-121.77 1607.5,-100.77 1510.5,-100.77"/>
<text text-anchor="start" x="1513.5" y="-107.57" font-family="Times,serif" font-size="14.00">is_last_entry</text>
<polygon fill="none" stroke="black" points="1607.5,-100.77 1607.5,-121.77 1732.5,-121.77 1732.5,-100.77 1607.5,-100.77"/>
<text text-anchor="start" x="1610.5" y="-107.57" font-family="Times,serif" font-size="14.00">flags &amp; 128 != 0</text>
</g>
<!-- file_info__seq&#45;&gt;file_info__inst__is_last_entry -->
<g id="edge11" class="edge">
<title>file_info__seq:flags_type&#45;&gt;file_info__inst__is_last_entry</title>
<path fill="none" stroke="#404040" d="M1301,-206.77C1330.65,-206.77 1317.93,-169.88 1344,-155.77 1388.76,-131.53 1443.45,-121.47 1492.34,-118.03"/>
<polygon fill="#404040" stroke="#404040" points="1492.6,-121.53 1502.36,-117.42 1492.17,-114.54 1492.6,-121.53"/>
</g>
<!-- file_info__seq&#45;&gt;file_info__inst__size -->
<g id="edge13" class="edge">
<title>file_info__seq:offset_idx_type&#45;&gt;file_info__inst__size</title>
<path fill="none" stroke="#404040" d="M1301,-227.77C1334.59,-227.77 1370.09,-229.43 1404.72,-231.98"/>
<polygon fill="#404040" stroke="#404040" points="1404.71,-235.48 1414.95,-232.75 1405.25,-228.51 1404.71,-235.48"/>
</g>
<!-- file_info__inst__is_dir&#45;&gt;file_info__inst__body -->
<g id="edge9" class="edge">
<title>file_info__inst__is_dir:is_dir_type&#45;&gt;file_info__inst__body:body__if</title>
<path fill="none" stroke="#404040" d="M1706.13,-199.09C1767.75,-205.19 1853.99,-212.14 1931.6,-212.73"/>
<polygon fill="#404040" stroke="#404040" points="1931.99,-216.23 1942,-212.77 1932.01,-209.23 1931.99,-216.23"/>
</g>
<!-- file_info__inst__size&#45;&gt;file_info__inst__body -->
<g id="edge8" class="edge">
<title>file_info__inst__size:size_type&#45;&gt;file_info__inst__body:body_size</title>
<path fill="none" stroke="#404040" d="M1899.17,-247.08C2026.72,-242.16 2162.03,-236.93 2217.73,-234.78"/>
<polygon fill="#404040" stroke="#404040" points="2217.92,-238.28 2227.78,-234.39 2217.65,-231.28 2217.92,-238.28"/>
</g>
</g>
</svg>
