<?xml version="1.0" encoding="UTF-8" standalone="no"?>
<!DOCTYPE svg PUBLIC "-//W3C//DTD SVG 1.1//EN"
 "http://www.w3.org/Graphics/SVG/1.1/DTD/svg11.dtd">
<!-- Generated by graphviz version 2.40.1 (20161225.0304)
 -->
<!-- Title: %3 Pages: 1 -->
<svg width="1998pt" height="308pt"
 viewBox="0.00 0.00 1998.00 308.00" xmlns="http://www.w3.org/2000/svg" xmlns:xlink="http://www.w3.org/1999/xlink">
<g id="graph0" class="graph" transform="scale(1 1) rotate(0) translate(4 304)">
<title>%3</title>
<polygon fill="#ffffff" stroke="transparent" points="-4,4 -4,-304 1994,-304 1994,4 -4,4"/>
<g id="clust1" class="cluster">
<title>cluster__gran_turismo_vol</title>
<polygon fill="none" stroke="#000000" stroke-dasharray="1,5" points="110,-8 110,-292 1982,-292 1982,-8 110,-8"/>
<text text-anchor="middle" x="1046" y="-276.8" font-family="Times,serif" font-size="14.00" fill="#000000">GranTurismoVol</text>
</g>
<g id="clust2" class="cluster">
<title>cluster__file_info</title>
<polygon fill="none" stroke="#000000" stroke-dasharray="1,5" points="885,-16 885,-261 1974,-261 1974,-16 885,-16"/>
<text text-anchor="middle" x="1429.5" y="-245.8" font-family="Times,serif" font-size="14.00" fill="#000000">GranTurismoVol::FileInfo</text>
</g>
<!-- gran_turismo_vol__seq -->
<g id="node1" class="node">
<title>gran_turismo_vol__seq</title>
<polygon fill="#e0ffe0" stroke="transparent" points="126,-147 126,-168 151,-168 151,-147 126,-147"/>
<polygon fill="none" stroke="#000000" points="126,-147 126,-168 151,-168 151,-147 126,-147"/>
<text text-anchor="start" x="129" y="-153.8" font-family="Times,serif" font-size="14.00" fill="#000000">pos</text>
<polygon fill="#e0ffe0" stroke="transparent" points="151,-147 151,-168 179,-168 179,-147 151,-147"/>
<polygon fill="none" stroke="#000000" points="151,-147 151,-168 179,-168 179,-147 151,-147"/>
<text text-anchor="start" x="154" y="-153.8" font-family="Times,serif" font-size="14.00" fill="#000000">size</text>
<polygon fill="#e0ffe0" stroke="transparent" points="179,-147 179,-168 320,-168 320,-147 179,-147"/>
<polygon fill="none" stroke="#000000" points="179,-147 179,-168 320,-168 320,-147 179,-147"/>
<text text-anchor="start" x="237.5" y="-153.8" font-family="Times,serif" font-size="14.00" fill="#000000">type</text>
<polygon fill="#e0ffe0" stroke="transparent" points="320,-147 320,-168 394,-168 394,-147 320,-147"/>
<polygon fill="none" stroke="#000000" points="320,-147 320,-168 394,-168 394,-147 320,-147"/>
<text text-anchor="start" x="351.5" y="-153.8" font-family="Times,serif" font-size="14.00" fill="#000000">id</text>
<polygon fill="none" stroke="#000000" points="126,-126 126,-147 151,-147 151,-126 126,-126"/>
<text text-anchor="start" x="135" y="-132.8" font-family="Times,serif" font-size="14.00" fill="#000000">0</text>
<polygon fill="none" stroke="#000000" points="151,-126 151,-147 179,-147 179,-126 151,-126"/>
<text text-anchor="start" x="161.5" y="-132.8" font-family="Times,serif" font-size="14.00" fill="#000000">8</text>
<polygon fill="none" stroke="#000000" points="179,-126 179,-147 320,-147 320,-126 179,-126"/>
<text text-anchor="start" x="182" y="-132.8" font-family="Times,serif" font-size="14.00" fill="#000000">47 54 46 53 00 00 00 00</text>
<polygon fill="none" stroke="#000000" points="320,-126 320,-147 394,-147 394,-126 320,-126"/>
<text text-anchor="start" x="340" y="-132.8" font-family="Times,serif" font-size="14.00" fill="#000000">magic</text>
<polygon fill="none" stroke="#000000" points="126,-105 126,-126 151,-126 151,-105 126,-105"/>
<text text-anchor="start" x="135" y="-111.8" font-family="Times,serif" font-size="14.00" fill="#000000">8</text>
<polygon fill="none" stroke="#000000" points="151,-105 151,-126 179,-126 179,-105 151,-105"/>
<text text-anchor="start" x="161.5" y="-111.8" font-family="Times,serif" font-size="14.00" fill="#000000">2</text>
<polygon fill="none" stroke="#000000" points="179,-105 179,-126 320,-126 320,-105 179,-105"/>
<text text-anchor="start" x="237.5" y="-111.8" font-family="Times,serif" font-size="14.00" fill="#000000">u2le</text>
<polygon fill="none" stroke="#000000" points="320,-105 320,-126 394,-126 394,-105 320,-105"/>
<text text-anchor="start" x="329.5" y="-111.8" font-family="Times,serif" font-size="14.00" fill="#000000">num_files</text>
<polygon fill="none" stroke="#000000" points="126,-84 126,-105 151,-105 151,-84 126,-84"/>
<text text-anchor="start" x="131.5" y="-90.8" font-family="Times,serif" font-size="14.00" fill="#000000">10</text>
<polygon fill="none" stroke="#000000" points="151,-84 151,-105 179,-105 179,-84 151,-84"/>
<text text-anchor="start" x="161.5" y="-90.8" font-family="Times,serif" font-size="14.00" fill="#000000">2</text>
<polygon fill="none" stroke="#000000" points="179,-84 179,-105 320,-105 320,-84 179,-84"/>
<text text-anchor="start" x="237.5" y="-90.8" font-family="Times,serif" font-size="14.00" fill="#000000">u2le</text>
<polygon fill="none" stroke="#000000" points="320,-84 320,-105 394,-105 394,-84 320,-84"/>
<text text-anchor="start" x="323" y="-90.8" font-family="Times,serif" font-size="14.00" fill="#000000">num_entries</text>
<polygon fill="none" stroke="#000000" points="126,-63 126,-84 151,-84 151,-63 126,-63"/>
<text text-anchor="start" x="131.5" y="-69.8" font-family="Times,serif" font-size="14.00" fill="#000000">12</text>
<polygon fill="none" stroke="#000000" points="151,-63 151,-84 179,-84 179,-63 151,-63"/>
<text text-anchor="start" x="161.5" y="-69.8" font-family="Times,serif" font-size="14.00" fill="#000000">4</text>
<polygon fill="none" stroke="#000000" points="179,-63 179,-84 320,-84 320,-63 179,-63"/>
<text text-anchor="start" x="216.5" y="-69.8" font-family="Times,serif" font-size="14.00" fill="#000000">00 00 00 00</text>
<polygon fill="none" stroke="#000000" points="320,-63 320,-84 394,-84 394,-63 320,-63"/>
<text text-anchor="start" x="334" y="-69.8" font-family="Times,serif" font-size="14.00" fill="#000000">reserved</text>
<polygon fill="none" stroke="#000000" points="126,-42 126,-63 151,-63 151,-42 126,-42"/>
<text text-anchor="start" x="131.5" y="-48.8" font-family="Times,serif" font-size="14.00" fill="#000000">16</text>
<polygon fill="none" stroke="#000000" points="151,-42 151,-63 179,-63 179,-42 151,-42"/>
<text text-anchor="start" x="161.5" y="-48.8" font-family="Times,serif" font-size="14.00" fill="#000000">4</text>
<polygon fill="none" stroke="#000000" points="179,-42 179,-63 320,-63 320,-42 179,-42"/>
<text text-anchor="start" x="237.5" y="-48.8" font-family="Times,serif" font-size="14.00" fill="#000000">u4le</text>
<polygon fill="none" stroke="#000000" points="320,-42 320,-63 394,-63 394,-42 320,-42"/>
<text text-anchor="start" x="338.5" y="-48.8" font-family="Times,serif" font-size="14.00" fill="#000000">offsets</text>
<polygon fill="none" stroke="#000000" points="126,-21 126,-42 394,-42 394,-21 126,-21"/>
<text text-anchor="start" x="197" y="-27.8" font-family="Times,serif" font-size="14.00" fill="#000000">repeat num_files times</text>
</g>
<!-- gran_turismo_vol__seq&#45;&gt;gran_turismo_vol__seq -->
<g id="edge1" class="edge">
<title>gran_turismo_vol__seq:num_files_type&#45;&gt;gran_turismo_vol__seq:offsets__repeat</title>
<path fill="none" stroke="#404040" d="M319.6951,-118.7249C210.6864,-124.2928 0,-118.9648 0,-73.5 0,-44.9043 53.4402,-32.1866 115.8112,-28.0711"/>
<polygon fill="#404040" stroke="#404040" points="116.112,-31.5596 125.8912,-27.4834 115.7044,-24.5715 116.112,-31.5596"/>
</g>
<!-- gran_turismo_vol__inst__ofs_dir -->
<g id="node2" class="node">
<title>gran_turismo_vol__inst__ofs_dir</title>
<polygon fill="#e0ffe0" stroke="transparent" points="446.5,-138 446.5,-159 491.5,-159 491.5,-138 446.5,-138"/>
<polygon fill="none" stroke="#000000" points="446.5,-138 446.5,-159 491.5,-159 491.5,-138 446.5,-138"/>
<text text-anchor="start" x="463.5" y="-144.8" font-family="Times,serif" font-size="14.00" fill="#000000">id</text>
<polygon fill="#e0ffe0" stroke="transparent" points="491.5,-138 491.5,-159 549.5,-159 549.5,-138 491.5,-138"/>
<polygon fill="none" stroke="#000000" points="491.5,-138 491.5,-159 549.5,-159 549.5,-138 491.5,-138"/>
<text text-anchor="start" x="505.5" y="-144.8" font-family="Times,serif" font-size="14.00" fill="#000000">value</text>
<polygon fill="none" stroke="#000000" points="446.5,-117 446.5,-138 491.5,-138 491.5,-117 446.5,-117"/>
<text text-anchor="start" x="449.5" y="-123.8" font-family="Times,serif" font-size="14.00" fill="#000000">ofs_dir</text>
<polygon fill="none" stroke="#000000" points="491.5,-117 491.5,-138 549.5,-138 549.5,-117 491.5,-117"/>
<text text-anchor="start" x="494.5" y="-123.8" font-family="Times,serif" font-size="14.00" fill="#000000">offsets[1]</text>
</g>
<!-- gran_turismo_vol__seq&#45;&gt;gran_turismo_vol__inst__ofs_dir -->
<g id="edge2" class="edge">
<title>gran_turismo_vol__seq:offsets_type&#45;&gt;gran_turismo_vol__inst__ofs_dir</title>
<path fill="none" stroke="#404040" d="M394,-52C422.6141,-52 416.1015,-80.5821 438,-99 441.1902,-101.6831 444.5734,-104.3366 448.0432,-106.9217"/>
<polygon fill="#404040" stroke="#404040" points="446.0821,-109.8224 456.2467,-112.811 450.1644,-104.136 446.0821,-109.8224"/>
</g>
<!-- gran_turismo_vol__inst__files -->
<g id="node3" class="node">
<title>gran_turismo_vol__inst__files</title>
<polygon fill="#e0ffe0" stroke="transparent" points="601,-149 601,-170 741,-170 741,-149 601,-149"/>
<polygon fill="none" stroke="#000000" points="601,-149 601,-170 741,-170 741,-149 601,-149"/>
<text text-anchor="start" x="661.5" y="-155.8" font-family="Times,serif" font-size="14.00" fill="#000000">pos</text>
<polygon fill="#e0ffe0" stroke="transparent" points="741,-149 741,-170 769,-170 769,-149 741,-149"/>
<polygon fill="none" stroke="#000000" points="741,-149 741,-170 769,-170 769,-149 741,-149"/>
<text text-anchor="start" x="744" y="-155.8" font-family="Times,serif" font-size="14.00" fill="#000000">size</text>
<polygon fill="#e0ffe0" stroke="transparent" points="769,-149 769,-170 819,-170 819,-149 769,-149"/>
<polygon fill="none" stroke="#000000" points="769,-149 769,-170 819,-170 819,-149 769,-149"/>
<text text-anchor="start" x="782" y="-155.8" font-family="Times,serif" font-size="14.00" fill="#000000">type</text>
<polygon fill="#e0ffe0" stroke="transparent" points="819,-149 819,-170 849,-170 849,-149 819,-149"/>
<polygon fill="none" stroke="#000000" points="819,-149 819,-170 849,-170 849,-149 819,-149"/>
<text text-anchor="start" x="828.5" y="-155.8" font-family="Times,serif" font-size="14.00" fill="#000000">id</text>
<polygon fill="none" stroke="#000000" points="601,-128 601,-149 741,-149 741,-128 601,-128"/>
<text text-anchor="start" x="604" y="-134.8" font-family="Times,serif" font-size="14.00" fill="#000000">(ofs_dir &amp; 4294965248)</text>
<polygon fill="none" stroke="#000000" points="741,-128 741,-149 769,-149 769,-128 741,-128"/>
<text text-anchor="start" x="748" y="-134.8" font-family="Times,serif" font-size="14.00" fill="#000000">32</text>
<polygon fill="none" stroke="#000000" points="769,-128 769,-149 819,-149 819,-128 769,-128"/>
<text text-anchor="start" x="772" y="-134.8" font-family="Times,serif" font-size="14.00" fill="#000000">FileInfo</text>
<polygon fill="none" stroke="#000000" points="819,-128 819,-149 849,-149 849,-128 819,-128"/>
<text text-anchor="start" x="822" y="-134.8" font-family="Times,serif" font-size="14.00" fill="#000000">files</text>
<polygon fill="none" stroke="#000000" points="601,-107 601,-128 849,-128 849,-107 601,-107"/>
<text text-anchor="start" x="639.5" y="-113.8" font-family="Times,serif" font-size="14.00" fill="#000000">repeat _root.num_entries times</text>
</g>
<!-- gran_turismo_vol__seq&#45;&gt;gran_turismo_vol__inst__files -->
<g id="edge5" class="edge">
<title>gran_turismo_vol__seq:num_entries_type&#45;&gt;gran_turismo_vol__inst__files:files__repeat</title>
<path fill="none" stroke="#404040" d="M394,-94C466.5806,-94 485.5188,-91.4148 557,-104 573.16,-106.8452 578.5997,-113.5292 590.733,-116.0316"/>
<polygon fill="#404040" stroke="#404040" points="590.7155,-119.5454 601,-117 591.3729,-112.5763 590.7155,-119.5454"/>
</g>
<!-- file_info__inst__size -->
<g id="node5" class="node">
<title>file_info__inst__size</title>
<polygon fill="#e0ffe0" stroke="transparent" points="1134,-49 1134,-70 1162,-70 1162,-49 1134,-49"/>
<polygon fill="none" stroke="#000000" points="1134,-49 1134,-70 1162,-70 1162,-49 1134,-49"/>
<text text-anchor="start" x="1142.5" y="-55.8" font-family="Times,serif" font-size="14.00" fill="#000000">id</text>
<polygon fill="#e0ffe0" stroke="transparent" points="1162,-49 1162,-70 1580,-70 1580,-49 1162,-49"/>
<polygon fill="none" stroke="#000000" points="1162,-49 1162,-70 1580,-70 1580,-49 1162,-49"/>
<text text-anchor="start" x="1356" y="-55.8" font-family="Times,serif" font-size="14.00" fill="#000000">value</text>
<polygon fill="none" stroke="#000000" points="1134,-28 1134,-49 1162,-49 1162,-28 1134,-28"/>
<text text-anchor="start" x="1137" y="-34.8" font-family="Times,serif" font-size="14.00" fill="#000000">size</text>
<polygon fill="none" stroke="#000000" points="1162,-28 1162,-49 1580,-49 1580,-28 1162,-28"/>
<text text-anchor="start" x="1165" y="-34.8" font-family="Times,serif" font-size="14.00" fill="#000000">((_root.offsets[(offset_idx + 1)] &amp; 4294965248) &#45; _root.offsets[offset_idx])</text>
</g>
<!-- gran_turismo_vol__seq&#45;&gt;file_info__inst__size -->
<g id="edge6" class="edge">
<title>gran_turismo_vol__seq:offsets_type&#45;&gt;file_info__inst__size</title>
<path fill="none" stroke="#404040" d="M394,-52C639.8804,-46.8296 921.0728,-43.6395 1115.8565,-43.5671"/>
<polygon fill="#404040" stroke="#404040" points="1115.938,-47.0672 1125.9376,-43.5662 1115.9372,-40.0672 1115.938,-47.0672"/>
</g>
<!-- gran_turismo_vol__seq&#45;&gt;file_info__inst__size -->
<g id="edge8" class="edge">
<title>gran_turismo_vol__seq:offsets_type&#45;&gt;file_info__inst__size</title>
<path fill="none" stroke="#404040" d="M394.3135,-52.0066C639.9585,-57.168 920.7877,-58.3781 1115.474,-56.7707"/>
<polygon fill="#404040" stroke="#404040" points="1115.5807,-60.27 1125.5503,-56.6843 1115.5206,-53.2702 1115.5807,-60.27"/>
</g>
<!-- file_info__inst__body -->
<g id="node6" class="node">
<title>file_info__inst__body</title>
<polygon fill="#e0ffe0" stroke="transparent" points="1632,-205 1632,-226 1866,-226 1866,-205 1632,-205"/>
<polygon fill="none" stroke="#000000" points="1632,-205 1632,-226 1866,-226 1866,-205 1632,-205"/>
<text text-anchor="start" x="1739.5" y="-211.8" font-family="Times,serif" font-size="14.00" fill="#000000">pos</text>
<polygon fill="#e0ffe0" stroke="transparent" points="1866,-205 1866,-226 1894,-226 1894,-205 1866,-205"/>
<polygon fill="none" stroke="#000000" points="1866,-205 1866,-226 1894,-226 1894,-205 1866,-205"/>
<text text-anchor="start" x="1869" y="-211.8" font-family="Times,serif" font-size="14.00" fill="#000000">size</text>
<polygon fill="#e0ffe0" stroke="transparent" points="1894,-205 1894,-226 1924,-226 1924,-205 1894,-205"/>
<polygon fill="none" stroke="#000000" points="1894,-205 1894,-226 1924,-226 1924,-205 1894,-205"/>
<text text-anchor="start" x="1897" y="-211.8" font-family="Times,serif" font-size="14.00" fill="#000000">type</text>
<polygon fill="#e0ffe0" stroke="transparent" points="1924,-205 1924,-226 1958,-226 1958,-205 1924,-205"/>
<polygon fill="none" stroke="#000000" points="1924,-205 1924,-226 1958,-226 1958,-205 1924,-205"/>
<text text-anchor="start" x="1935.5" y="-211.8" font-family="Times,serif" font-size="14.00" fill="#000000">id</text>
<polygon fill="none" stroke="#000000" points="1632,-184 1632,-205 1866,-205 1866,-184 1632,-184"/>
<text text-anchor="start" x="1635" y="-190.8" font-family="Times,serif" font-size="14.00" fill="#000000">(_root.offsets[offset_idx] &amp; 4294965248)</text>
<polygon fill="none" stroke="#000000" points="1866,-184 1866,-205 1894,-205 1894,-184 1866,-184"/>
<text text-anchor="start" x="1869" y="-190.8" font-family="Times,serif" font-size="14.00" fill="#000000">size</text>
<polygon fill="none" stroke="#000000" points="1894,-184 1894,-205 1924,-205 1924,-184 1894,-184"/>
<polygon fill="none" stroke="#000000" points="1924,-184 1924,-205 1958,-205 1958,-184 1924,-184"/>
<text text-anchor="start" x="1927" y="-190.8" font-family="Times,serif" font-size="14.00" fill="#000000">body</text>
</g>
<!-- gran_turismo_vol__seq&#45;&gt;file_info__inst__body -->
<g id="edge10" class="edge">
<title>gran_turismo_vol__seq:offsets_type&#45;&gt;file_info__inst__body:body_pos</title>
<path fill="none" stroke="#404040" d="M394,-52C450.8055,-52 396.0791,-133.6659 438,-172 535.4615,-261.1226 592.9334,-249 725,-249 725,-249 725,-249 991.5,-249 1256.7914,-249 1337.9115,-315.517 1588,-227 1607.263,-220.182 1607.9859,-201.7027 1621.9838,-195.8227"/>
<polygon fill="#404040" stroke="#404040" points="1622.7882,-199.2339 1632,-194 1621.5349,-192.347 1622.7882,-199.2339"/>
</g>
<!-- gran_turismo_vol__inst__ofs_dir&#45;&gt;gran_turismo_vol__inst__files -->
<g id="edge3" class="edge">
<title>gran_turismo_vol__inst__ofs_dir:ofs_dir_type&#45;&gt;gran_turismo_vol__inst__files:files_pos</title>
<path fill="none" stroke="#404040" d="M557.1564,-138C568.1491,-138 579.6885,-138 590.8646,-138"/>
<polygon fill="#404040" stroke="#404040" points="591,-141.5001 601,-138 591,-134.5001 591,-141.5001"/>
</g>
<!-- file_info__seq -->
<g id="node4" class="node">
<title>file_info__seq</title>
<polygon fill="#e0ffe0" stroke="transparent" points="901.5,-169 901.5,-190 926.5,-190 926.5,-169 901.5,-169"/>
<polygon fill="none" stroke="#000000" points="901.5,-169 901.5,-190 926.5,-190 926.5,-169 901.5,-169"/>
<text text-anchor="start" x="904.5" y="-175.8" font-family="Times,serif" font-size="14.00" fill="#000000">pos</text>
<polygon fill="#e0ffe0" stroke="transparent" points="926.5,-169 926.5,-190 954.5,-190 954.5,-169 926.5,-169"/>
<polygon fill="none" stroke="#000000" points="926.5,-169 926.5,-190 954.5,-190 954.5,-169 926.5,-169"/>
<text text-anchor="start" x="929.5" y="-175.8" font-family="Times,serif" font-size="14.00" fill="#000000">size</text>
<polygon fill="#e0ffe0" stroke="transparent" points="954.5,-169 954.5,-190 1018.5,-190 1018.5,-169 954.5,-169"/>
<polygon fill="none" stroke="#000000" points="954.5,-169 954.5,-190 1018.5,-190 1018.5,-169 954.5,-169"/>
<text text-anchor="start" x="974.5" y="-175.8" font-family="Times,serif" font-size="14.00" fill="#000000">type</text>
<polygon fill="#e0ffe0" stroke="transparent" points="1018.5,-169 1018.5,-190 1082.5,-190 1082.5,-169 1018.5,-169"/>
<polygon fill="none" stroke="#000000" points="1018.5,-169 1018.5,-190 1082.5,-190 1082.5,-169 1018.5,-169"/>
<text text-anchor="start" x="1045" y="-175.8" font-family="Times,serif" font-size="14.00" fill="#000000">id</text>
<polygon fill="none" stroke="#000000" points="901.5,-148 901.5,-169 926.5,-169 926.5,-148 901.5,-148"/>
<text text-anchor="start" x="910.5" y="-154.8" font-family="Times,serif" font-size="14.00" fill="#000000">0</text>
<polygon fill="none" stroke="#000000" points="926.5,-148 926.5,-169 954.5,-169 954.5,-148 926.5,-148"/>
<text text-anchor="start" x="937" y="-154.8" font-family="Times,serif" font-size="14.00" fill="#000000">4</text>
<polygon fill="none" stroke="#000000" points="954.5,-148 954.5,-169 1018.5,-169 1018.5,-148 954.5,-148"/>
<text text-anchor="start" x="974.5" y="-154.8" font-family="Times,serif" font-size="14.00" fill="#000000">u4le</text>
<polygon fill="none" stroke="#000000" points="1018.5,-148 1018.5,-169 1082.5,-169 1082.5,-148 1018.5,-148"/>
<text text-anchor="start" x="1021.5" y="-154.8" font-family="Times,serif" font-size="14.00" fill="#000000">timestamp</text>
<polygon fill="none" stroke="#000000" points="901.5,-127 901.5,-148 926.5,-148 926.5,-127 901.5,-127"/>
<text text-anchor="start" x="910.5" y="-133.8" font-family="Times,serif" font-size="14.00" fill="#000000">4</text>
<polygon fill="none" stroke="#000000" points="926.5,-127 926.5,-148 954.5,-148 954.5,-127 926.5,-127"/>
<text text-anchor="start" x="937" y="-133.8" font-family="Times,serif" font-size="14.00" fill="#000000">2</text>
<polygon fill="none" stroke="#000000" points="954.5,-127 954.5,-148 1018.5,-148 1018.5,-127 954.5,-127"/>
<text text-anchor="start" x="974.5" y="-133.8" font-family="Times,serif" font-size="14.00" fill="#000000">u2le</text>
<polygon fill="none" stroke="#000000" points="1018.5,-127 1018.5,-148 1082.5,-148 1082.5,-127 1018.5,-127"/>
<text text-anchor="start" x="1023" y="-133.8" font-family="Times,serif" font-size="14.00" fill="#000000">offset_idx</text>
<polygon fill="none" stroke="#000000" points="901.5,-106 901.5,-127 926.5,-127 926.5,-106 901.5,-106"/>
<text text-anchor="start" x="910.5" y="-112.8" font-family="Times,serif" font-size="14.00" fill="#000000">6</text>
<polygon fill="none" stroke="#000000" points="926.5,-106 926.5,-127 954.5,-127 954.5,-106 926.5,-106"/>
<text text-anchor="start" x="937" y="-112.8" font-family="Times,serif" font-size="14.00" fill="#000000">1</text>
<polygon fill="none" stroke="#000000" points="954.5,-106 954.5,-127 1018.5,-127 1018.5,-106 954.5,-106"/>
<text text-anchor="start" x="979.5" y="-112.8" font-family="Times,serif" font-size="14.00" fill="#000000">u1</text>
<polygon fill="none" stroke="#000000" points="1018.5,-106 1018.5,-127 1082.5,-127 1082.5,-106 1018.5,-106"/>
<text text-anchor="start" x="1037" y="-112.8" font-family="Times,serif" font-size="14.00" fill="#000000">flags</text>
<polygon fill="none" stroke="#000000" points="901.5,-85 901.5,-106 926.5,-106 926.5,-85 901.5,-85"/>
<text text-anchor="start" x="910.5" y="-91.8" font-family="Times,serif" font-size="14.00" fill="#000000">7</text>
<polygon fill="none" stroke="#000000" points="926.5,-85 926.5,-106 954.5,-106 954.5,-85 926.5,-85"/>
<text text-anchor="start" x="933.5" y="-91.8" font-family="Times,serif" font-size="14.00" fill="#000000">25</text>
<polygon fill="none" stroke="#000000" points="954.5,-85 954.5,-106 1018.5,-106 1018.5,-85 954.5,-85"/>
<text text-anchor="start" x="957.5" y="-91.8" font-family="Times,serif" font-size="14.00" fill="#000000">str(ASCII)</text>
<polygon fill="none" stroke="#000000" points="1018.5,-85 1018.5,-106 1082.5,-106 1082.5,-85 1018.5,-85"/>
<text text-anchor="start" x="1035" y="-91.8" font-family="Times,serif" font-size="14.00" fill="#000000">name</text>
</g>
<!-- gran_turismo_vol__inst__files&#45;&gt;file_info__seq -->
<g id="edge4" class="edge">
<title>gran_turismo_vol__inst__files:files_type&#45;&gt;file_info__seq</title>
<path fill="none" stroke="#000000" stroke-width="2" d="M849,-138C860.0023,-138 871.4825,-138 882.9425,-138"/>
<polygon fill="#000000" stroke="#000000" stroke-width="2" points="882.9957,-141.5001 892.9956,-138 882.9956,-134.5001 882.9957,-141.5001"/>
</g>
<!-- file_info__seq&#45;&gt;file_info__inst__size -->
<g id="edge7" class="edge">
<title>file_info__seq:offset_idx_type&#45;&gt;file_info__inst__size</title>
<path fill="none" stroke="#404040" d="M1082.5,-137C1109.7069,-129.0547 1101.9278,-97.9603 1118.3201,-80.153"/>
<polygon fill="#404040" stroke="#404040" points="1120.6063,-82.807 1126.2641,-73.8493 1116.2551,-77.3236 1120.6063,-82.807"/>
</g>
<!-- file_info__seq&#45;&gt;file_info__inst__size -->
<g id="edge9" class="edge">
<title>file_info__seq:offset_idx_type&#45;&gt;file_info__inst__size</title>
<path fill="none" stroke="#404040" d="M1082.8591,-137.1033C1113.2091,-145.698 1099.3506,-107.2375 1126,-92 1135.7982,-86.3976 1146.1977,-81.6117 1156.9518,-77.5194"/>
<polygon fill="#404040" stroke="#404040" points="1158.2567,-80.7697 1166.4874,-74.0985 1155.8929,-74.1809 1158.2567,-80.7697"/>
</g>
<!-- file_info__seq&#45;&gt;file_info__inst__body -->
<g id="edge11" class="edge">
<title>file_info__seq:offset_idx_type&#45;&gt;file_info__inst__body:body_pos</title>
<path fill="none" stroke="#404040" d="M1082.5,-137C1123.755,-137 1090.6477,-197.7353 1126,-219 1147.9943,-232.2298 1563.1851,-225.5574 1588,-219 1605.8379,-214.2863 1608.8837,-200.4832 1621.8177,-195.6749"/>
<polygon fill="#404040" stroke="#404040" points="1622.7007,-199.0768 1632,-194 1621.5645,-192.1696 1622.7007,-199.0768"/>
</g>
<!-- file_info__inst__is_dir -->
<g id="node7" class="node">
<title>file_info__inst__is_dir</title>
<polygon fill="#e0ffe0" stroke="transparent" points="1292,-185 1292,-206 1329,-206 1329,-185 1292,-185"/>
<polygon fill="none" stroke="#000000" points="1292,-185 1292,-206 1329,-206 1329,-185 1292,-185"/>
<text text-anchor="start" x="1305" y="-191.8" font-family="Times,serif" font-size="14.00" fill="#000000">id</text>
<polygon fill="#e0ffe0" stroke="transparent" points="1329,-185 1329,-206 1423,-206 1423,-185 1329,-185"/>
<polygon fill="none" stroke="#000000" points="1329,-185 1329,-206 1423,-206 1423,-185 1329,-185"/>
<text text-anchor="start" x="1361" y="-191.8" font-family="Times,serif" font-size="14.00" fill="#000000">value</text>
<polygon fill="none" stroke="#000000" points="1292,-164 1292,-185 1329,-185 1329,-164 1292,-164"/>
<text text-anchor="start" x="1295" y="-170.8" font-family="Times,serif" font-size="14.00" fill="#000000">is_dir</text>
<polygon fill="none" stroke="#000000" points="1329,-164 1329,-185 1423,-185 1423,-164 1329,-164"/>
<text text-anchor="start" x="1332" y="-170.8" font-family="Times,serif" font-size="14.00" fill="#000000">(flags &amp; 1) != 0</text>
</g>
<!-- file_info__seq&#45;&gt;file_info__inst__is_dir -->
<g id="edge13" class="edge">
<title>file_info__seq:flags_type&#45;&gt;file_info__inst__is_dir</title>
<path fill="none" stroke="#404040" d="M1082.5,-116C1107.3144,-116 1103.2604,-141.067 1126,-151 1172.1905,-171.1768 1228.0089,-179.7745 1273.2044,-183.2812"/>
<polygon fill="#404040" stroke="#404040" points="1273.0459,-186.7786 1283.2678,-183.9923 1273.5394,-179.7961 1273.0459,-186.7786"/>
</g>
<!-- file_info__inst__is_last_entry -->
<g id="node8" class="node">
<title>file_info__inst__is_last_entry</title>
<polygon fill="#e0ffe0" stroke="transparent" points="1265,-117 1265,-138 1341,-138 1341,-117 1265,-117"/>
<polygon fill="none" stroke="#000000" points="1265,-117 1265,-138 1341,-138 1341,-117 1265,-117"/>
<text text-anchor="start" x="1297.5" y="-123.8" font-family="Times,serif" font-size="14.00" fill="#000000">id</text>
<polygon fill="#e0ffe0" stroke="transparent" points="1341,-117 1341,-138 1449,-138 1449,-117 1341,-117"/>
<polygon fill="none" stroke="#000000" points="1341,-117 1341,-138 1449,-138 1449,-117 1341,-117"/>
<text text-anchor="start" x="1380" y="-123.8" font-family="Times,serif" font-size="14.00" fill="#000000">value</text>
<polygon fill="none" stroke="#000000" points="1265,-96 1265,-117 1341,-117 1341,-96 1265,-96"/>
<text text-anchor="start" x="1268" y="-102.8" font-family="Times,serif" font-size="14.00" fill="#000000">is_last_entry</text>
<polygon fill="none" stroke="#000000" points="1341,-96 1341,-117 1449,-117 1449,-96 1341,-96"/>
<text text-anchor="start" x="1344" y="-102.8" font-family="Times,serif" font-size="14.00" fill="#000000">(flags &amp; 128) != 0</text>
</g>
<!-- file_info__seq&#45;&gt;file_info__inst__is_last_entry -->
<g id="edge14" class="edge">
<title>file_info__seq:flags_type&#45;&gt;file_info__inst__is_last_entry</title>
<path fill="none" stroke="#404040" d="M1082.5,-116C1136.5593,-116 1196.6066,-116.1963 1246.7213,-116.415"/>
<polygon fill="#404040" stroke="#404040" points="1246.9168,-119.9158 1256.9324,-116.4605 1246.9481,-112.9159 1246.9168,-119.9158"/>
</g>
<!-- file_info__inst__size&#45;&gt;file_info__inst__body -->
<g id="edge12" class="edge">
<title>file_info__inst__size:size_type&#45;&gt;file_info__inst__body:body_size</title>
<path fill="none" stroke="#404040" d="M1588.2986,-26.1201C1724.6061,-25.54 1872.0082,-53.1898 1879.6866,-173.9803"/>
<polygon fill="#404040" stroke="#404040" points="1876.189,-174.1143 1880,-184 1883.1856,-173.8954 1876.189,-174.1143"/>
</g>
</g>
</svg>
