<?xml version="1.0" encoding="UTF-8" standalone="no"?>
<!DOCTYPE svg PUBLIC "-//W3C//DTD SVG 1.1//EN"
 "http://www.w3.org/Graphics/SVG/1.1/DTD/svg11.dtd">
<!-- Generated by graphviz version 2.43.0 (0)
 -->
<!-- Title: %3 Pages: 1 -->
<svg width="1985pt" height="675pt"
 viewBox="0.00 0.00 1985.00 675.00" xmlns="http://www.w3.org/2000/svg" xmlns:xlink="http://www.w3.org/1999/xlink">
<g id="graph0" class="graph" transform="scale(1 1) rotate(0) translate(4 671)">
<title>%3</title>
<polygon fill="white" stroke="transparent" points="-4,4 -4,-671 1981,-671 1981,4 -4,4"/>
<g id="clust1" class="cluster">
<title>cluster__rar</title>
<polygon fill="none" stroke="black" stroke-dasharray="1,5" points="8,-44 8,-659 1969,-659 1969,-44 8,-44"/>
<text text-anchor="middle" x="988.5" y="-643.8" font-family="Times,serif" font-size="14.00">Rar</text>
</g>
<g id="clust2" class="cluster">
<title>cluster__magic_signature</title>
<polygon fill="none" stroke="black" stroke-dasharray="1,5" points="345,-442 345,-573 539,-573 539,-442 345,-442"/>
<text text-anchor="middle" x="442" y="-557.8" font-family="Times,serif" font-size="14.00">Rar::MagicSignature</text>
</g>
<g id="clust3" class="cluster">
<title>cluster__block</title>
<polygon fill="none" stroke="black" stroke-dasharray="1,5" points="559,-377 559,-628 1961,-628 1961,-377 559,-377"/>
<text text-anchor="middle" x="1260" y="-612.8" font-family="Times,serif" font-size="14.00">Rar::Block</text>
</g>
<g id="clust4" class="cluster">
<title>cluster__block_file_header</title>
<polygon fill="none" stroke="black" stroke-dasharray="1,5" points="1291,-52 1291,-369 1646,-369 1646,-52 1291,-52"/>
<text text-anchor="middle" x="1468.5" y="-353.8" font-family="Times,serif" font-size="14.00">Rar::BlockFileHeader</text>
</g>
<g id="clust5" class="cluster">
<title>cluster__block_v5</title>
<polygon fill="none" stroke="black" stroke-dasharray="1,5" points="659.5,-294 659.5,-369 814.5,-369 814.5,-294 659.5,-294"/>
<text text-anchor="middle" x="737" y="-353.8" font-family="Times,serif" font-size="14.00">Rar::BlockV5</text>
</g>
<!-- rar__seq -->
<g id="node1" class="node">
<title>rar__seq</title>
<polygon fill="#e0ffe0" stroke="transparent" points="24.5,-506 24.5,-527 55.5,-527 55.5,-506 24.5,-506"/>
<polygon fill="none" stroke="black" points="24.5,-506 24.5,-527 55.5,-527 55.5,-506 24.5,-506"/>
<text text-anchor="start" x="27.5" y="-512.8" font-family="Times,serif" font-size="14.00">pos</text>
<polygon fill="#e0ffe0" stroke="transparent" points="55.5,-506 55.5,-527 89.5,-527 89.5,-506 55.5,-506"/>
<polygon fill="none" stroke="black" points="55.5,-506 55.5,-527 89.5,-527 89.5,-506 55.5,-506"/>
<text text-anchor="start" x="58.5" y="-512.8" font-family="Times,serif" font-size="14.00">size</text>
<polygon fill="#e0ffe0" stroke="transparent" points="89.5,-506 89.5,-527 257.5,-527 257.5,-506 89.5,-506"/>
<polygon fill="none" stroke="black" points="89.5,-506 89.5,-527 257.5,-527 257.5,-506 89.5,-506"/>
<text text-anchor="start" x="157.5" y="-512.8" font-family="Times,serif" font-size="14.00">type</text>
<polygon fill="#e0ffe0" stroke="transparent" points="257.5,-506 257.5,-527 309.5,-527 309.5,-506 257.5,-506"/>
<polygon fill="none" stroke="black" points="257.5,-506 257.5,-527 309.5,-527 309.5,-506 257.5,-506"/>
<text text-anchor="start" x="276.5" y="-512.8" font-family="Times,serif" font-size="14.00">id</text>
<polygon fill="none" stroke="black" points="24.5,-485 24.5,-506 55.5,-506 55.5,-485 24.5,-485"/>
<text text-anchor="start" x="35" y="-491.8" font-family="Times,serif" font-size="14.00">0</text>
<polygon fill="none" stroke="black" points="55.5,-485 55.5,-506 89.5,-506 89.5,-485 55.5,-485"/>
<text text-anchor="start" x="67.5" y="-491.8" font-family="Times,serif" font-size="14.00">8</text>
<polygon fill="none" stroke="black" points="89.5,-485 89.5,-506 257.5,-506 257.5,-485 89.5,-485"/>
<text text-anchor="start" x="116" y="-491.8" font-family="Times,serif" font-size="14.00">MagicSignature</text>
<polygon fill="none" stroke="black" points="257.5,-485 257.5,-506 309.5,-506 309.5,-485 257.5,-485"/>
<text text-anchor="start" x="262" y="-491.8" font-family="Times,serif" font-size="14.00">magic</text>
<polygon fill="none" stroke="black" points="24.5,-464 24.5,-485 55.5,-485 55.5,-464 24.5,-464"/>
<text text-anchor="start" x="35" y="-470.8" font-family="Times,serif" font-size="14.00">8</text>
<polygon fill="none" stroke="black" points="55.5,-464 55.5,-485 89.5,-485 89.5,-464 55.5,-464"/>
<text text-anchor="start" x="65.5" y="-470.8" font-family="Times,serif" font-size="14.00">...</text>
<polygon fill="none" stroke="black" points="89.5,-464 89.5,-485 257.5,-485 257.5,-464 89.5,-464"/>
<text text-anchor="start" x="92.5" y="-470.8" font-family="Times,serif" font-size="14.00">switch (magic.version)</text>
<polygon fill="none" stroke="black" points="257.5,-464 257.5,-485 309.5,-485 309.5,-464 257.5,-464"/>
<text text-anchor="start" x="260.5" y="-470.8" font-family="Times,serif" font-size="14.00">blocks</text>
<polygon fill="none" stroke="black" points="24.5,-443 24.5,-464 309.5,-464 309.5,-443 24.5,-443"/>
<text text-anchor="start" x="82.5" y="-449.8" font-family="Times,serif" font-size="14.00">repeat to end of stream</text>
</g>
<!-- rar__seq_blocks_switch -->
<g id="node2" class="node">
<title>rar__seq_blocks_switch</title>
<polygon fill="#f0f2e4" stroke="transparent" points="391,-406 391,-427 429,-427 429,-406 391,-406"/>
<polygon fill="none" stroke="black" points="391,-406 391,-427 429,-427 429,-406 391,-406"/>
<text text-anchor="start" x="394" y="-412.8" font-family="Times,serif" font-size="14.00">case</text>
<polygon fill="#f0f2e4" stroke="transparent" points="429,-406 429,-427 493,-427 493,-406 429,-406"/>
<polygon fill="none" stroke="black" points="429,-406 429,-427 493,-427 493,-406 429,-406"/>
<text text-anchor="start" x="445" y="-412.8" font-family="Times,serif" font-size="14.00">type</text>
<polygon fill="none" stroke="black" points="391,-385 391,-406 429,-406 429,-385 391,-385"/>
<text text-anchor="start" x="405" y="-391.8" font-family="Times,serif" font-size="14.00">0</text>
<polygon fill="none" stroke="black" points="429,-385 429,-406 493,-406 493,-385 429,-385"/>
<text text-anchor="start" x="441" y="-391.8" font-family="Times,serif" font-size="14.00">Block</text>
<polygon fill="none" stroke="black" points="391,-364 391,-385 429,-385 429,-364 391,-364"/>
<text text-anchor="start" x="405" y="-370.8" font-family="Times,serif" font-size="14.00">1</text>
<polygon fill="none" stroke="black" points="429,-364 429,-385 493,-385 493,-364 429,-364"/>
<text text-anchor="start" x="432" y="-370.8" font-family="Times,serif" font-size="14.00">BlockV5</text>
</g>
<!-- rar__seq&#45;&gt;rar__seq_blocks_switch -->
<g id="edge2" class="edge">
<title>rar__seq:blocks_type&#45;&gt;rar__seq_blocks_switch</title>
<path fill="none" stroke="black" stroke-width="2" d="M310.5,-474C332.66,-474 326.83,-450.69 345,-438 353.85,-431.82 363.76,-426.25 373.75,-421.34"/>
<polygon fill="black" stroke="black" stroke-width="2" points="375.37,-424.44 382.93,-417.01 372.39,-418.11 375.37,-424.44"/>
</g>
<!-- magic_signature__seq -->
<g id="node3" class="node">
<title>magic_signature__seq</title>
<polygon fill="#e0ffe0" stroke="transparent" points="361,-517 361,-538 392,-538 392,-517 361,-517"/>
<polygon fill="none" stroke="black" points="361,-517 361,-538 392,-538 392,-517 361,-517"/>
<text text-anchor="start" x="364" y="-523.8" font-family="Times,serif" font-size="14.00">pos</text>
<polygon fill="#e0ffe0" stroke="transparent" points="392,-517 392,-538 426,-538 426,-517 392,-517"/>
<polygon fill="none" stroke="black" points="392,-517 392,-538 426,-538 426,-517 392,-517"/>
<text text-anchor="start" x="395" y="-523.8" font-family="Times,serif" font-size="14.00">size</text>
<polygon fill="#e0ffe0" stroke="transparent" points="426,-517 426,-538 464,-538 464,-517 426,-517"/>
<polygon fill="none" stroke="black" points="426,-517 426,-538 464,-538 464,-517 426,-517"/>
<text text-anchor="start" x="429" y="-523.8" font-family="Times,serif" font-size="14.00">type</text>
<polygon fill="#e0ffe0" stroke="transparent" points="464,-517 464,-538 523,-538 523,-517 464,-517"/>
<polygon fill="none" stroke="black" points="464,-517 464,-538 523,-538 523,-517 464,-517"/>
<text text-anchor="start" x="486.5" y="-523.8" font-family="Times,serif" font-size="14.00">id</text>
<polygon fill="none" stroke="black" points="361,-496 361,-517 392,-517 392,-496 361,-496"/>
<text text-anchor="start" x="371.5" y="-502.8" font-family="Times,serif" font-size="14.00">0</text>
<polygon fill="none" stroke="black" points="392,-496 392,-517 426,-517 426,-496 392,-496"/>
<text text-anchor="start" x="404" y="-502.8" font-family="Times,serif" font-size="14.00">6</text>
<polygon fill="none" stroke="black" points="426,-496 426,-517 464,-517 464,-496 426,-496"/>
<polygon fill="none" stroke="black" points="464,-496 464,-517 523,-517 523,-496 464,-496"/>
<text text-anchor="start" x="467.5" y="-502.8" font-family="Times,serif" font-size="14.00">magic1</text>
<polygon fill="none" stroke="black" points="361,-475 361,-496 392,-496 392,-475 361,-475"/>
<text text-anchor="start" x="371.5" y="-481.8" font-family="Times,serif" font-size="14.00">6</text>
<polygon fill="none" stroke="black" points="392,-475 392,-496 426,-496 426,-475 392,-475"/>
<text text-anchor="start" x="404" y="-481.8" font-family="Times,serif" font-size="14.00">1</text>
<polygon fill="none" stroke="black" points="426,-475 426,-496 464,-496 464,-475 426,-475"/>
<text text-anchor="start" x="435.5" y="-481.8" font-family="Times,serif" font-size="14.00">u1</text>
<polygon fill="none" stroke="black" points="464,-475 464,-496 523,-496 523,-475 464,-475"/>
<text text-anchor="start" x="467" y="-481.8" font-family="Times,serif" font-size="14.00">version</text>
<polygon fill="none" stroke="black" points="361,-454 361,-475 392,-475 392,-454 361,-454"/>
<text text-anchor="start" x="371.5" y="-460.8" font-family="Times,serif" font-size="14.00">7</text>
<polygon fill="none" stroke="black" points="392,-454 392,-475 426,-475 426,-454 392,-454"/>
<text text-anchor="start" x="404" y="-460.8" font-family="Times,serif" font-size="14.00">1</text>
<polygon fill="none" stroke="black" points="426,-454 426,-475 464,-475 464,-454 426,-454"/>
<polygon fill="none" stroke="black" points="464,-454 464,-475 523,-475 523,-454 464,-454"/>
<text text-anchor="start" x="467.5" y="-460.8" font-family="Times,serif" font-size="14.00">magic3</text>
</g>
<!-- rar__seq&#45;&gt;magic_signature__seq -->
<g id="edge1" class="edge">
<title>rar__seq:magic_type&#45;&gt;magic_signature__seq</title>
<path fill="none" stroke="black" stroke-width="2" d="M310.5,-496C320.99,-496 331.96,-496 342.89,-496"/>
<polygon fill="black" stroke="black" stroke-width="2" points="342.9,-499.5 352.9,-496 342.9,-492.5 342.9,-499.5"/>
</g>
<!-- block__seq -->
<g id="node4" class="node">
<title>block__seq</title>
<polygon fill="#e0ffe0" stroke="transparent" points="575,-536 575,-557 606,-557 606,-536 575,-536"/>
<polygon fill="none" stroke="black" points="575,-536 575,-557 606,-557 606,-536 575,-536"/>
<text text-anchor="start" x="578" y="-542.8" font-family="Times,serif" font-size="14.00">pos</text>
<polygon fill="#e0ffe0" stroke="transparent" points="606,-536 606,-557 673,-557 673,-536 606,-536"/>
<polygon fill="none" stroke="black" points="606,-536 606,-557 673,-557 673,-536 606,-536"/>
<text text-anchor="start" x="625.5" y="-542.8" font-family="Times,serif" font-size="14.00">size</text>
<polygon fill="#e0ffe0" stroke="transparent" points="673,-536 673,-557 817,-557 817,-536 673,-536"/>
<polygon fill="none" stroke="black" points="673,-536 673,-557 817,-557 817,-536 673,-536"/>
<text text-anchor="start" x="729" y="-542.8" font-family="Times,serif" font-size="14.00">type</text>
<polygon fill="#e0ffe0" stroke="transparent" points="817,-536 817,-557 899,-557 899,-536 817,-536"/>
<polygon fill="none" stroke="black" points="817,-536 817,-557 899,-557 899,-536 817,-536"/>
<text text-anchor="start" x="851" y="-542.8" font-family="Times,serif" font-size="14.00">id</text>
<polygon fill="none" stroke="black" points="575,-515 575,-536 606,-536 606,-515 575,-515"/>
<text text-anchor="start" x="585.5" y="-521.8" font-family="Times,serif" font-size="14.00">0</text>
<polygon fill="none" stroke="black" points="606,-515 606,-536 673,-536 673,-515 606,-515"/>
<text text-anchor="start" x="634.5" y="-521.8" font-family="Times,serif" font-size="14.00">2</text>
<polygon fill="none" stroke="black" points="673,-515 673,-536 817,-536 817,-515 673,-515"/>
<text text-anchor="start" x="729.5" y="-521.8" font-family="Times,serif" font-size="14.00">u2le</text>
<polygon fill="none" stroke="black" points="817,-515 817,-536 899,-536 899,-515 817,-515"/>
<text text-anchor="start" x="838" y="-521.8" font-family="Times,serif" font-size="14.00">crc16</text>
<polygon fill="none" stroke="black" points="575,-494 575,-515 606,-515 606,-494 575,-494"/>
<text text-anchor="start" x="585.5" y="-500.8" font-family="Times,serif" font-size="14.00">2</text>
<polygon fill="none" stroke="black" points="606,-494 606,-515 673,-515 673,-494 606,-494"/>
<text text-anchor="start" x="634.5" y="-500.8" font-family="Times,serif" font-size="14.00">1</text>
<polygon fill="none" stroke="black" points="673,-494 673,-515 817,-515 817,-494 673,-494"/>
<text text-anchor="start" x="689" y="-500.8" font-family="Times,serif" font-size="14.00">u1→BlockTypes</text>
<polygon fill="none" stroke="black" points="817,-494 817,-515 899,-515 899,-494 817,-494"/>
<text text-anchor="start" x="820" y="-500.8" font-family="Times,serif" font-size="14.00">block_type</text>
<polygon fill="none" stroke="black" points="575,-473 575,-494 606,-494 606,-473 575,-473"/>
<text text-anchor="start" x="585.5" y="-479.8" font-family="Times,serif" font-size="14.00">3</text>
<polygon fill="none" stroke="black" points="606,-473 606,-494 673,-494 673,-473 606,-473"/>
<text text-anchor="start" x="634.5" y="-479.8" font-family="Times,serif" font-size="14.00">2</text>
<polygon fill="none" stroke="black" points="673,-473 673,-494 817,-494 817,-473 673,-473"/>
<text text-anchor="start" x="729.5" y="-479.8" font-family="Times,serif" font-size="14.00">u2le</text>
<polygon fill="none" stroke="black" points="817,-473 817,-494 899,-494 899,-473 817,-473"/>
<text text-anchor="start" x="841" y="-479.8" font-family="Times,serif" font-size="14.00">flags</text>
<polygon fill="none" stroke="black" points="575,-452 575,-473 606,-473 606,-452 575,-452"/>
<text text-anchor="start" x="585.5" y="-458.8" font-family="Times,serif" font-size="14.00">5</text>
<polygon fill="none" stroke="black" points="606,-452 606,-473 673,-473 673,-452 606,-452"/>
<text text-anchor="start" x="634.5" y="-458.8" font-family="Times,serif" font-size="14.00">2</text>
<polygon fill="none" stroke="black" points="673,-452 673,-473 817,-473 817,-452 673,-452"/>
<text text-anchor="start" x="729.5" y="-458.8" font-family="Times,serif" font-size="14.00">u2le</text>
<polygon fill="none" stroke="black" points="817,-452 817,-473 899,-473 899,-452 817,-452"/>
<text text-anchor="start" x="821.5" y="-458.8" font-family="Times,serif" font-size="14.00">block_size</text>
<polygon fill="none" stroke="black" points="575,-431 575,-452 606,-452 606,-431 575,-431"/>
<text text-anchor="start" x="585.5" y="-437.8" font-family="Times,serif" font-size="14.00">7</text>
<polygon fill="none" stroke="black" points="606,-431 606,-452 673,-452 673,-431 606,-431"/>
<text text-anchor="start" x="634.5" y="-437.8" font-family="Times,serif" font-size="14.00">4</text>
<polygon fill="none" stroke="black" points="673,-431 673,-452 817,-452 817,-431 673,-431"/>
<text text-anchor="start" x="729.5" y="-437.8" font-family="Times,serif" font-size="14.00">u4le</text>
<polygon fill="none" stroke="black" points="817,-431 817,-452 899,-452 899,-431 817,-431"/>
<text text-anchor="start" x="827.5" y="-437.8" font-family="Times,serif" font-size="14.00">add_size</text>
<polygon fill="none" stroke="black" points="575,-410 575,-431 606,-431 606,-410 575,-410"/>
<text text-anchor="start" x="581" y="-416.8" font-family="Times,serif" font-size="14.00">11</text>
<polygon fill="none" stroke="black" points="606,-410 606,-431 673,-431 673,-410 606,-410"/>
<text text-anchor="start" x="632.5" y="-416.8" font-family="Times,serif" font-size="14.00">...</text>
<polygon fill="none" stroke="black" points="673,-410 673,-431 817,-431 817,-410 673,-410"/>
<text text-anchor="start" x="676" y="-416.8" font-family="Times,serif" font-size="14.00">switch (block_type)</text>
<polygon fill="none" stroke="black" points="817,-410 817,-431 899,-431 899,-410 817,-410"/>
<text text-anchor="start" x="840.5" y="-416.8" font-family="Times,serif" font-size="14.00">body</text>
<polygon fill="none" stroke="black" points="575,-389 575,-410 606,-410 606,-389 575,-389"/>
<text text-anchor="start" x="583.5" y="-395.8" font-family="Times,serif" font-size="14.00">...</text>
<polygon fill="none" stroke="black" points="606,-389 606,-410 673,-410 673,-389 606,-389"/>
<text text-anchor="start" x="609" y="-395.8" font-family="Times,serif" font-size="14.00">add_size</text>
<polygon fill="none" stroke="black" points="673,-389 673,-410 817,-410 817,-389 673,-389"/>
<polygon fill="none" stroke="black" points="817,-389 817,-410 899,-410 899,-389 817,-389"/>
<text text-anchor="start" x="824" y="-395.8" font-family="Times,serif" font-size="14.00">add_body</text>
</g>
<!-- rar__seq_blocks_switch&#45;&gt;block__seq -->
<g id="edge3" class="edge">
<title>rar__seq_blocks_switch:case0&#45;&gt;block__seq</title>
<path fill="none" stroke="black" stroke-width="2" d="M494,-395C514.77,-395 536.08,-397.63 557.03,-401.94"/>
<polygon fill="black" stroke="black" stroke-width="2" points="556.43,-405.39 566.95,-404.1 557.92,-398.55 556.43,-405.39"/>
</g>
<!-- block_v5__seq -->
<g id="node10" class="node">
<title>block_v5__seq</title>
<polygon fill="#e0ffe0" stroke="transparent" points="676,-309 676,-330 707,-330 707,-309 676,-309"/>
<polygon fill="none" stroke="black" points="676,-309 676,-330 707,-330 707,-309 676,-309"/>
<text text-anchor="start" x="679" y="-315.8" font-family="Times,serif" font-size="14.00">pos</text>
<polygon fill="#e0ffe0" stroke="transparent" points="707,-309 707,-330 741,-330 741,-309 707,-309"/>
<polygon fill="none" stroke="black" points="707,-309 707,-330 741,-330 741,-309 707,-309"/>
<text text-anchor="start" x="710" y="-315.8" font-family="Times,serif" font-size="14.00">size</text>
<polygon fill="#e0ffe0" stroke="transparent" points="741,-309 741,-330 779,-330 779,-309 741,-309"/>
<polygon fill="none" stroke="black" points="741,-309 741,-330 779,-330 779,-309 741,-309"/>
<text text-anchor="start" x="744" y="-315.8" font-family="Times,serif" font-size="14.00">type</text>
<polygon fill="#e0ffe0" stroke="transparent" points="779,-309 779,-330 799,-330 799,-309 779,-309"/>
<polygon fill="none" stroke="black" points="779,-309 779,-330 799,-330 799,-309 779,-309"/>
<text text-anchor="start" x="782" y="-315.8" font-family="Times,serif" font-size="14.00">id</text>
</g>
<!-- rar__seq_blocks_switch&#45;&gt;block_v5__seq -->
<g id="edge4" class="edge">
<title>rar__seq_blocks_switch:case1&#45;&gt;block_v5__seq</title>
<path fill="none" stroke="black" stroke-width="2" d="M494,-374C557.03,-374 627.12,-356.34 675.58,-341.21"/>
<polygon fill="black" stroke="black" stroke-width="2" points="676.81,-344.5 685.28,-338.13 674.69,-337.83 676.81,-344.5"/>
</g>
<!-- magic_signature__seq&#45;&gt;rar__seq -->
<g id="edge5" class="edge">
<title>magic_signature__seq:version_type&#45;&gt;rar__seq:blocks_type</title>
<path fill="none" stroke="#404040" d="M524,-485C539.56,-485 534.16,-460.85 523,-450 516.23,-443.42 362.13,-447.6 353,-450 335.95,-454.48 332.87,-467.52 320.68,-472.26"/>
<polygon fill="#404040" stroke="#404040" points="319.77,-468.86 310.5,-474 320.95,-475.76 319.77,-468.86"/>
</g>
<!-- block__seq&#45;&gt;block__seq -->
<g id="edge8" class="edge">
<title>block__seq:block_type_type&#45;&gt;block__seq:body_type</title>
<path fill="none" stroke="#404040" d="M838.92,-515.2C785.17,-547.38 791.53,-579 858,-579 921.77,-579 930.21,-485.92 883.33,-438.19"/>
<polygon fill="#404040" stroke="#404040" points="885.43,-435.36 875.68,-431.22 880.71,-440.54 885.43,-435.36"/>
</g>
<!-- block__seq&#45;&gt;block__seq -->
<g id="edge9" class="edge">
<title>block__seq:add_size_type&#45;&gt;block__seq:add_body_size</title>
<path fill="none" stroke="#404040" d="M875.95,-452.03C930.02,-493.95 915.06,-579 748.5,-579 588.73,-579 568.45,-468.73 614.79,-417.22"/>
<polygon fill="#404040" stroke="#404040" points="617.4,-419.56 622.1,-410.07 612.51,-414.56 617.4,-419.56"/>
</g>
<!-- block__inst__has_add -->
<g id="node5" class="node">
<title>block__inst__has_add</title>
<polygon fill="#e0ffe0" stroke="transparent" points="994,-504 994,-525 1058,-525 1058,-504 994,-504"/>
<polygon fill="none" stroke="black" points="994,-504 994,-525 1058,-525 1058,-504 994,-504"/>
<text text-anchor="start" x="1019" y="-510.8" font-family="Times,serif" font-size="14.00">id</text>
<polygon fill="#e0ffe0" stroke="transparent" points="1058,-504 1058,-525 1212,-525 1212,-504 1058,-504"/>
<polygon fill="none" stroke="black" points="1058,-504 1058,-525 1212,-525 1212,-504 1058,-504"/>
<text text-anchor="start" x="1115.5" y="-510.8" font-family="Times,serif" font-size="14.00">value</text>
<polygon fill="none" stroke="black" points="994,-483 994,-504 1058,-504 1058,-483 994,-483"/>
<text text-anchor="start" x="997" y="-489.8" font-family="Times,serif" font-size="14.00">has_add</text>
<polygon fill="none" stroke="black" points="1058,-483 1058,-504 1212,-504 1212,-483 1058,-483"/>
<text text-anchor="start" x="1061" y="-489.8" font-family="Times,serif" font-size="14.00">(flags &amp; 32768) != 0</text>
</g>
<!-- block__seq&#45;&gt;block__inst__has_add -->
<g id="edge10" class="edge">
<title>block__seq:flags_type&#45;&gt;block__inst__has_add</title>
<path fill="none" stroke="#404040" d="M900,-484C924.47,-484 950.52,-485.47 975.51,-487.62"/>
<polygon fill="#404040" stroke="#404040" points="975.49,-491.13 985.76,-488.54 976.12,-484.16 975.49,-491.13"/>
</g>
<!-- block__inst__body_size -->
<g id="node7" class="node">
<title>block__inst__body_size</title>
<polygon fill="#e0ffe0" stroke="transparent" points="1682.5,-482 1682.5,-503 1758.5,-503 1758.5,-482 1682.5,-482"/>
<polygon fill="none" stroke="black" points="1682.5,-482 1682.5,-503 1758.5,-503 1758.5,-482 1682.5,-482"/>
<text text-anchor="start" x="1713.5" y="-488.8" font-family="Times,serif" font-size="14.00">id</text>
<polygon fill="#e0ffe0" stroke="transparent" points="1758.5,-482 1758.5,-503 1945.5,-503 1945.5,-482 1758.5,-482"/>
<polygon fill="none" stroke="black" points="1758.5,-482 1758.5,-503 1945.5,-503 1945.5,-482 1758.5,-482"/>
<text text-anchor="start" x="1832.5" y="-488.8" font-family="Times,serif" font-size="14.00">value</text>
<polygon fill="none" stroke="black" points="1682.5,-461 1682.5,-482 1758.5,-482 1758.5,-461 1682.5,-461"/>
<text text-anchor="start" x="1685.5" y="-467.8" font-family="Times,serif" font-size="14.00">body_size</text>
<polygon fill="none" stroke="black" points="1758.5,-461 1758.5,-482 1945.5,-482 1945.5,-461 1758.5,-461"/>
<text text-anchor="start" x="1761.5" y="-467.8" font-family="Times,serif" font-size="14.00">(block_size &#45; header_size)</text>
</g>
<!-- block__seq&#45;&gt;block__inst__body_size -->
<g id="edge12" class="edge">
<title>block__seq:block_size_type&#45;&gt;block__inst__body_size</title>
<path fill="none" stroke="#404040" d="M900,-462C1231.57,-462 1314.71,-456.3 1646,-470 1651.84,-470.24 1657.8,-470.52 1663.82,-470.83"/>
<polygon fill="#404040" stroke="#404040" points="1663.81,-474.33 1673.99,-471.37 1664.19,-467.34 1663.81,-474.33"/>
</g>
<!-- block__seq_body_switch -->
<g id="node8" class="node">
<title>block__seq_body_switch</title>
<polygon fill="#f0f2e4" stroke="transparent" points="951,-414 951,-435 1130,-435 1130,-414 951,-414"/>
<polygon fill="none" stroke="black" points="951,-414 951,-435 1130,-435 1130,-414 951,-414"/>
<text text-anchor="start" x="1024.5" y="-420.8" font-family="Times,serif" font-size="14.00">case</text>
<polygon fill="#f0f2e4" stroke="transparent" points="1130,-414 1130,-435 1255,-435 1255,-414 1130,-414"/>
<polygon fill="none" stroke="black" points="1130,-414 1130,-435 1255,-435 1255,-414 1130,-414"/>
<text text-anchor="start" x="1176.5" y="-420.8" font-family="Times,serif" font-size="14.00">type</text>
<polygon fill="none" stroke="black" points="951,-393 951,-414 1130,-414 1130,-393 951,-393"/>
<text text-anchor="start" x="954" y="-399.8" font-family="Times,serif" font-size="14.00">:block_types_file_header</text>
<polygon fill="none" stroke="black" points="1130,-393 1130,-414 1255,-414 1255,-393 1130,-393"/>
<text text-anchor="start" x="1133" y="-399.8" font-family="Times,serif" font-size="14.00">BlockFileHeader</text>
</g>
<!-- block__seq&#45;&gt;block__seq_body_switch -->
<g id="edge6" class="edge">
<title>block__seq:body_type&#45;&gt;block__seq_body_switch</title>
<path fill="none" stroke="black" stroke-width="2" d="M900,-420C910.68,-420 921.67,-419.92 932.75,-419.77"/>
<polygon fill="black" stroke="black" stroke-width="2" points="933.01,-423.26 942.95,-419.61 932.9,-416.26 933.01,-423.26"/>
</g>
<!-- block__inst__header_size -->
<g id="node6" class="node">
<title>block__inst__header_size</title>
<polygon fill="#e0ffe0" stroke="transparent" points="1357.5,-504 1357.5,-525 1448.5,-525 1448.5,-504 1357.5,-504"/>
<polygon fill="none" stroke="black" points="1357.5,-504 1357.5,-525 1448.5,-525 1448.5,-504 1357.5,-504"/>
<text text-anchor="start" x="1396" y="-510.8" font-family="Times,serif" font-size="14.00">id</text>
<polygon fill="#e0ffe0" stroke="transparent" points="1448.5,-504 1448.5,-525 1580.5,-525 1580.5,-504 1448.5,-504"/>
<polygon fill="none" stroke="black" points="1448.5,-504 1448.5,-525 1580.5,-525 1580.5,-504 1448.5,-504"/>
<text text-anchor="start" x="1495" y="-510.8" font-family="Times,serif" font-size="14.00">value</text>
<polygon fill="none" stroke="black" points="1357.5,-483 1357.5,-504 1448.5,-504 1448.5,-483 1357.5,-483"/>
<text text-anchor="start" x="1360.5" y="-489.8" font-family="Times,serif" font-size="14.00">header_size</text>
<polygon fill="none" stroke="black" points="1448.5,-483 1448.5,-504 1580.5,-504 1580.5,-483 1448.5,-483"/>
<text text-anchor="start" x="1451.5" y="-489.8" font-family="Times,serif" font-size="14.00">(has_add ? 11 : 7)</text>
</g>
<!-- block__inst__has_add&#45;&gt;block__inst__header_size -->
<g id="edge11" class="edge">
<title>block__inst__has_add:has_add_type&#45;&gt;block__inst__header_size</title>
<path fill="none" stroke="#404040" d="M1220.01,-504C1257.78,-504 1299.92,-504 1338.57,-504"/>
<polygon fill="#404040" stroke="#404040" points="1338.84,-507.5 1348.84,-504 1338.84,-500.5 1338.84,-507.5"/>
</g>
<!-- block__inst__header_size&#45;&gt;block__inst__body_size -->
<g id="edge13" class="edge">
<title>block__inst__header_size:header_size_type&#45;&gt;block__inst__body_size</title>
<path fill="none" stroke="#404040" d="M1588.02,-496.4C1612.47,-494.83 1638.5,-493.16 1663.86,-491.53"/>
<polygon fill="#404040" stroke="#404040" points="1664.17,-495.02 1673.92,-490.89 1663.72,-488.04 1664.17,-495.02"/>
</g>
<!-- block_file_header__seq -->
<g id="node9" class="node">
<title>block_file_header__seq</title>
<polygon fill="#e0ffe0" stroke="transparent" points="1307.5,-295 1307.5,-316 1338.5,-316 1338.5,-295 1307.5,-295"/>
<polygon fill="none" stroke="black" points="1307.5,-295 1307.5,-316 1338.5,-316 1338.5,-295 1307.5,-295"/>
<text text-anchor="start" x="1310.5" y="-301.8" font-family="Times,serif" font-size="14.00">pos</text>
<polygon fill="#e0ffe0" stroke="transparent" points="1338.5,-295 1338.5,-316 1418.5,-316 1418.5,-295 1338.5,-295"/>
<polygon fill="none" stroke="black" points="1338.5,-295 1338.5,-316 1418.5,-316 1418.5,-295 1338.5,-295"/>
<text text-anchor="start" x="1364.5" y="-301.8" font-family="Times,serif" font-size="14.00">size</text>
<polygon fill="#e0ffe0" stroke="transparent" points="1418.5,-295 1418.5,-316 1518.5,-316 1518.5,-295 1418.5,-295"/>
<polygon fill="none" stroke="black" points="1418.5,-295 1418.5,-316 1518.5,-316 1518.5,-295 1418.5,-295"/>
<text text-anchor="start" x="1452.5" y="-301.8" font-family="Times,serif" font-size="14.00">type</text>
<polygon fill="#e0ffe0" stroke="transparent" points="1518.5,-295 1518.5,-316 1630.5,-316 1630.5,-295 1518.5,-295"/>
<polygon fill="none" stroke="black" points="1518.5,-295 1518.5,-316 1630.5,-316 1630.5,-295 1518.5,-295"/>
<text text-anchor="start" x="1567.5" y="-301.8" font-family="Times,serif" font-size="14.00">id</text>
<polygon fill="none" stroke="black" points="1307.5,-274 1307.5,-295 1338.5,-295 1338.5,-274 1307.5,-274"/>
<text text-anchor="start" x="1318" y="-280.8" font-family="Times,serif" font-size="14.00">0</text>
<polygon fill="none" stroke="black" points="1338.5,-274 1338.5,-295 1418.5,-295 1418.5,-274 1338.5,-274"/>
<text text-anchor="start" x="1373.5" y="-280.8" font-family="Times,serif" font-size="14.00">4</text>
<polygon fill="none" stroke="black" points="1418.5,-274 1418.5,-295 1518.5,-295 1518.5,-274 1418.5,-274"/>
<text text-anchor="start" x="1453" y="-280.8" font-family="Times,serif" font-size="14.00">u4le</text>
<polygon fill="none" stroke="black" points="1518.5,-274 1518.5,-295 1630.5,-295 1630.5,-274 1518.5,-274"/>
<text text-anchor="start" x="1527.5" y="-280.8" font-family="Times,serif" font-size="14.00">low_unp_size</text>
<polygon fill="none" stroke="black" points="1307.5,-253 1307.5,-274 1338.5,-274 1338.5,-253 1307.5,-253"/>
<text text-anchor="start" x="1318" y="-259.8" font-family="Times,serif" font-size="14.00">4</text>
<polygon fill="none" stroke="black" points="1338.5,-253 1338.5,-274 1418.5,-274 1418.5,-253 1338.5,-253"/>
<text text-anchor="start" x="1373.5" y="-259.8" font-family="Times,serif" font-size="14.00">1</text>
<polygon fill="none" stroke="black" points="1418.5,-253 1418.5,-274 1518.5,-274 1518.5,-253 1418.5,-253"/>
<text text-anchor="start" x="1436" y="-259.8" font-family="Times,serif" font-size="14.00">u1→Oses</text>
<polygon fill="none" stroke="black" points="1518.5,-253 1518.5,-274 1630.5,-274 1630.5,-253 1518.5,-253"/>
<text text-anchor="start" x="1547.5" y="-259.8" font-family="Times,serif" font-size="14.00">host_os</text>
<polygon fill="none" stroke="black" points="1307.5,-232 1307.5,-253 1338.5,-253 1338.5,-232 1307.5,-232"/>
<text text-anchor="start" x="1318" y="-238.8" font-family="Times,serif" font-size="14.00">5</text>
<polygon fill="none" stroke="black" points="1338.5,-232 1338.5,-253 1418.5,-253 1418.5,-232 1338.5,-232"/>
<text text-anchor="start" x="1373.5" y="-238.8" font-family="Times,serif" font-size="14.00">4</text>
<polygon fill="none" stroke="black" points="1418.5,-232 1418.5,-253 1518.5,-253 1518.5,-232 1418.5,-232"/>
<text text-anchor="start" x="1453" y="-238.8" font-family="Times,serif" font-size="14.00">u4le</text>
<polygon fill="none" stroke="black" points="1518.5,-232 1518.5,-253 1630.5,-253 1630.5,-232 1518.5,-232"/>
<text text-anchor="start" x="1540" y="-238.8" font-family="Times,serif" font-size="14.00">file_crc32</text>
<polygon fill="none" stroke="black" points="1307.5,-211 1307.5,-232 1338.5,-232 1338.5,-211 1307.5,-211"/>
<text text-anchor="start" x="1318" y="-217.8" font-family="Times,serif" font-size="14.00">9</text>
<polygon fill="none" stroke="black" points="1338.5,-211 1338.5,-232 1418.5,-232 1418.5,-211 1338.5,-211"/>
<text text-anchor="start" x="1373.5" y="-217.8" font-family="Times,serif" font-size="14.00">4</text>
<polygon fill="none" stroke="black" points="1418.5,-211 1418.5,-232 1518.5,-232 1518.5,-211 1418.5,-211"/>
<text text-anchor="start" x="1421.5" y="-217.8" font-family="Times,serif" font-size="14.00">DosDatetime</text>
<polygon fill="none" stroke="black" points="1518.5,-211 1518.5,-232 1630.5,-232 1630.5,-211 1518.5,-211"/>
<text text-anchor="start" x="1544" y="-217.8" font-family="Times,serif" font-size="14.00">file_time</text>
<polygon fill="none" stroke="black" points="1307.5,-190 1307.5,-211 1338.5,-211 1338.5,-190 1307.5,-190"/>
<text text-anchor="start" x="1313.5" y="-196.8" font-family="Times,serif" font-size="14.00">13</text>
<polygon fill="none" stroke="black" points="1338.5,-190 1338.5,-211 1418.5,-211 1418.5,-190 1338.5,-190"/>
<text text-anchor="start" x="1373.5" y="-196.8" font-family="Times,serif" font-size="14.00">1</text>
<polygon fill="none" stroke="black" points="1418.5,-190 1418.5,-211 1518.5,-211 1518.5,-190 1418.5,-190"/>
<text text-anchor="start" x="1459" y="-196.8" font-family="Times,serif" font-size="14.00">u1</text>
<polygon fill="none" stroke="black" points="1518.5,-190 1518.5,-211 1630.5,-211 1630.5,-190 1518.5,-190"/>
<text text-anchor="start" x="1533.5" y="-196.8" font-family="Times,serif" font-size="14.00">rar_version</text>
<polygon fill="none" stroke="black" points="1307.5,-169 1307.5,-190 1338.5,-190 1338.5,-169 1307.5,-169"/>
<text text-anchor="start" x="1313.5" y="-175.8" font-family="Times,serif" font-size="14.00">14</text>
<polygon fill="none" stroke="black" points="1338.5,-169 1338.5,-190 1418.5,-190 1418.5,-169 1338.5,-169"/>
<text text-anchor="start" x="1373.5" y="-175.8" font-family="Times,serif" font-size="14.00">1</text>
<polygon fill="none" stroke="black" points="1418.5,-169 1418.5,-190 1518.5,-190 1518.5,-169 1418.5,-169"/>
<text text-anchor="start" x="1422" y="-175.8" font-family="Times,serif" font-size="14.00">u1→Methods</text>
<polygon fill="none" stroke="black" points="1518.5,-169 1518.5,-190 1630.5,-190 1630.5,-169 1518.5,-169"/>
<text text-anchor="start" x="1547" y="-175.8" font-family="Times,serif" font-size="14.00">method</text>
<polygon fill="none" stroke="black" points="1307.5,-148 1307.5,-169 1338.5,-169 1338.5,-148 1307.5,-148"/>
<text text-anchor="start" x="1313.5" y="-154.8" font-family="Times,serif" font-size="14.00">15</text>
<polygon fill="none" stroke="black" points="1338.5,-148 1338.5,-169 1418.5,-169 1418.5,-148 1338.5,-148"/>
<text text-anchor="start" x="1373.5" y="-154.8" font-family="Times,serif" font-size="14.00">2</text>
<polygon fill="none" stroke="black" points="1418.5,-148 1418.5,-169 1518.5,-169 1518.5,-148 1418.5,-148"/>
<text text-anchor="start" x="1453" y="-154.8" font-family="Times,serif" font-size="14.00">u2le</text>
<polygon fill="none" stroke="black" points="1518.5,-148 1518.5,-169 1630.5,-169 1630.5,-148 1518.5,-148"/>
<text text-anchor="start" x="1537.5" y="-154.8" font-family="Times,serif" font-size="14.00">name_size</text>
<polygon fill="none" stroke="black" points="1307.5,-127 1307.5,-148 1338.5,-148 1338.5,-127 1307.5,-127"/>
<text text-anchor="start" x="1313.5" y="-133.8" font-family="Times,serif" font-size="14.00">17</text>
<polygon fill="none" stroke="black" points="1338.5,-127 1338.5,-148 1418.5,-148 1418.5,-127 1338.5,-127"/>
<text text-anchor="start" x="1373.5" y="-133.8" font-family="Times,serif" font-size="14.00">4</text>
<polygon fill="none" stroke="black" points="1418.5,-127 1418.5,-148 1518.5,-148 1518.5,-127 1418.5,-127"/>
<text text-anchor="start" x="1453" y="-133.8" font-family="Times,serif" font-size="14.00">u4le</text>
<polygon fill="none" stroke="black" points="1518.5,-127 1518.5,-148 1630.5,-148 1630.5,-127 1518.5,-127"/>
<text text-anchor="start" x="1560.5" y="-133.8" font-family="Times,serif" font-size="14.00">attr</text>
<polygon fill="none" stroke="black" points="1307.5,-106 1307.5,-127 1338.5,-127 1338.5,-106 1307.5,-106"/>
<text text-anchor="start" x="1313.5" y="-112.8" font-family="Times,serif" font-size="14.00">21</text>
<polygon fill="none" stroke="black" points="1338.5,-106 1338.5,-127 1418.5,-127 1418.5,-106 1338.5,-106"/>
<text text-anchor="start" x="1373.5" y="-112.8" font-family="Times,serif" font-size="14.00">4</text>
<polygon fill="none" stroke="black" points="1418.5,-106 1418.5,-127 1518.5,-127 1518.5,-106 1418.5,-106"/>
<text text-anchor="start" x="1453" y="-112.8" font-family="Times,serif" font-size="14.00">u4le</text>
<polygon fill="none" stroke="black" points="1518.5,-106 1518.5,-127 1630.5,-127 1630.5,-106 1518.5,-106"/>
<text text-anchor="start" x="1521.5" y="-112.8" font-family="Times,serif" font-size="14.00">high_pack_size</text>
<polygon fill="none" stroke="black" points="1307.5,-85 1307.5,-106 1338.5,-106 1338.5,-85 1307.5,-85"/>
<text text-anchor="start" x="1313.5" y="-91.8" font-family="Times,serif" font-size="14.00">25</text>
<polygon fill="none" stroke="black" points="1338.5,-85 1338.5,-106 1418.5,-106 1418.5,-85 1338.5,-85"/>
<text text-anchor="start" x="1341.5" y="-91.8" font-family="Times,serif" font-size="14.00">name_size</text>
<polygon fill="none" stroke="black" points="1418.5,-85 1418.5,-106 1518.5,-106 1518.5,-85 1418.5,-85"/>
<polygon fill="none" stroke="black" points="1518.5,-85 1518.5,-106 1630.5,-106 1630.5,-85 1518.5,-85"/>
<text text-anchor="start" x="1540.5" y="-91.8" font-family="Times,serif" font-size="14.00">file_name</text>
<polygon fill="none" stroke="black" points="1307.5,-64 1307.5,-85 1338.5,-85 1338.5,-64 1307.5,-64"/>
<text text-anchor="start" x="1316" y="-70.8" font-family="Times,serif" font-size="14.00">...</text>
<polygon fill="none" stroke="black" points="1338.5,-64 1338.5,-85 1418.5,-85 1418.5,-64 1338.5,-64"/>
<text text-anchor="start" x="1373.5" y="-70.8" font-family="Times,serif" font-size="14.00">8</text>
<polygon fill="none" stroke="black" points="1418.5,-64 1418.5,-85 1518.5,-85 1518.5,-64 1418.5,-64"/>
<text text-anchor="start" x="1453" y="-70.8" font-family="Times,serif" font-size="14.00">u8le</text>
<polygon fill="none" stroke="black" points="1518.5,-64 1518.5,-85 1630.5,-85 1630.5,-64 1518.5,-64"/>
<text text-anchor="start" x="1561" y="-70.8" font-family="Times,serif" font-size="14.00">salt</text>
</g>
<!-- block__seq_body_switch&#45;&gt;block_file_header__seq -->
<g id="edge7" class="edge">
<title>block__seq_body_switch:case0&#45;&gt;block_file_header__seq</title>
<path fill="none" stroke="black" stroke-width="2" d="M1256,-403C1259.36,-403 1294.27,-368.49 1334.8,-327.26"/>
<polygon fill="black" stroke="black" stroke-width="2" points="1337.38,-329.63 1341.89,-320.04 1332.39,-324.72 1337.38,-329.63"/>
</g>
<!-- block_file_header__seq&#45;&gt;block_file_header__seq -->
<g id="edge15" class="edge">
<title>block_file_header__seq:name_size_type&#45;&gt;block_file_header__seq:file_name_size</title>
<path fill="none" stroke="#404040" d="M1590.9,-169.19C1659.64,-224.59 1647.92,-338 1476.5,-338 1310.75,-338 1294.31,-180.84 1355.55,-113.61"/>
<polygon fill="#404040" stroke="#404040" points="1358.33,-115.77 1362.97,-106.25 1353.4,-110.8 1358.33,-115.77"/>
</g>
<!-- dos_datetime__seq -->
<g id="node11" class="node">
<title>dos_datetime__seq</title>
<text text-anchor="middle" x="1813.5" y="-14.3" font-family="Times,serif" font-size="14.00">dos_datetime__seq</text>
</g>
<!-- block_file_header__seq&#45;&gt;dos_datetime__seq -->
<g id="edge14" class="edge">
<title>block_file_header__seq:file_time_type&#45;&gt;dos_datetime__seq</title>
<path fill="none" stroke="black" stroke-width="2" d="M1631.5,-222C1724.66,-222 1781.54,-101.5 1802.87,-45.72"/>
<polygon fill="black" stroke="black" stroke-width="2" points="1806.24,-46.7 1806.44,-36.1 1799.68,-44.26 1806.24,-46.7"/>
</g>
</g>
</svg>
