<?xml version="1.0" encoding="UTF-8" standalone="no"?>
<!DOCTYPE svg PUBLIC "-//W3C//DTD SVG 1.1//EN"
 "http://www.w3.org/Graphics/SVG/1.1/DTD/svg11.dtd">
<!-- Generated by graphviz version 2.38.0 (20140413.2041)
 -->
<!-- Title: %3 Pages: 1 -->
<svg width="1378pt" height="581pt"
 viewBox="0.00 0.00 1378.00 580.94" xmlns="http://www.w3.org/2000/svg" xmlns:xlink="http://www.w3.org/1999/xlink">
<g id="graph0" class="graph" transform="scale(1 1) rotate(0) translate(4 576.944)">
<title>%3</title>
<polygon fill="white" stroke="none" points="-4,4 -4,-576.944 1374,-576.944 1374,4 -4,4"/>
<g id="clust1" class="cluster"><title>cluster__apm_partition_table</title>
<polygon fill="none" stroke="black" stroke-dasharray="1,5" points="8,-8 8,-563 1362,-563 1362,-8 8,-8"/>
<text text-anchor="middle" x="685" y="-547.8" font-family="Times,serif" font-size="14.00">ApmPartitionTable</text>
</g>
<g id="clust2" class="cluster"><title>cluster__partition_entry</title>
<polygon fill="none" stroke="black" stroke-dasharray="1,5" points="561,-16 561,-463 1354,-463 1354,-16 561,-16"/>
<text text-anchor="middle" x="957.5" y="-447.8" font-family="Times,serif" font-size="14.00">ApmPartitionTable::PartitionEntry</text>
</g>
<!-- apm_partition_table__seq -->
<g id="node1" class="node"><title>apm_partition_table__seq</title>
<polygon fill="#e0ffe0" stroke="none" points="25.5,-503 25.5,-524 50.5,-524 50.5,-503 25.5,-503"/>
<polygon fill="none" stroke="black" points="25.5,-503 25.5,-524 50.5,-524 50.5,-503 25.5,-503"/>
<text text-anchor="start" x="28.5" y="-509.8" font-family="Times,serif" font-size="14.00">pos</text>
<polygon fill="#e0ffe0" stroke="none" points="50.5,-503 50.5,-524 78.5,-524 78.5,-503 50.5,-503"/>
<polygon fill="none" stroke="black" points="50.5,-503 50.5,-524 78.5,-524 78.5,-503 50.5,-503"/>
<text text-anchor="start" x="53.5" y="-509.8" font-family="Times,serif" font-size="14.00">size</text>
<polygon fill="#e0ffe0" stroke="none" points="78.5,-503 78.5,-524 108.5,-524 108.5,-503 78.5,-503"/>
<polygon fill="none" stroke="black" points="78.5,-503 78.5,-524 108.5,-524 108.5,-503 78.5,-503"/>
<text text-anchor="start" x="81.5" y="-509.8" font-family="Times,serif" font-size="14.00">type</text>
<polygon fill="#e0ffe0" stroke="none" points="108.5,-503 108.5,-524 125.5,-524 125.5,-503 108.5,-503"/>
<polygon fill="none" stroke="black" points="108.5,-503 108.5,-524 125.5,-524 125.5,-503 108.5,-503"/>
<text text-anchor="start" x="111.5" y="-509.8" font-family="Times,serif" font-size="14.00">id</text>
</g>
<!-- apm_partition_table__inst__sector_size -->
<g id="node2" class="node"><title>apm_partition_table__inst__sector_size</title>
<polygon fill="#e0ffe0" stroke="none" points="24.5,-453 24.5,-474 91.5,-474 91.5,-453 24.5,-453"/>
<polygon fill="none" stroke="black" points="24.5,-453 24.5,-474 91.5,-474 91.5,-453 24.5,-453"/>
<text text-anchor="start" x="52.5" y="-459.8" font-family="Times,serif" font-size="14.00">id</text>
<polygon fill="#e0ffe0" stroke="none" points="91.5,-453 91.5,-474 127.5,-474 127.5,-453 91.5,-453"/>
<polygon fill="none" stroke="black" points="91.5,-453 91.5,-474 127.5,-474 127.5,-453 91.5,-453"/>
<text text-anchor="start" x="94.5" y="-459.8" font-family="Times,serif" font-size="14.00">value</text>
<polygon fill="none" stroke="black" points="24.5,-432 24.5,-453 91.5,-453 91.5,-432 24.5,-432"/>
<text text-anchor="start" x="27.5" y="-438.8" font-family="Times,serif" font-size="14.00">sector_size</text>
<polygon fill="none" stroke="black" points="91.5,-432 91.5,-453 127.5,-453 127.5,-432 91.5,-432"/>
<text text-anchor="start" x="99" y="-438.8" font-family="Times,serif" font-size="14.00">512</text>
</g>
<!-- apm_partition_table__inst__partition_lookup -->
<g id="node3" class="node"><title>apm_partition_table__inst__partition_lookup</title>
<polygon fill="#e0ffe0" stroke="none" points="179,-317 179,-338 278,-338 278,-317 179,-317"/>
<polygon fill="none" stroke="black" points="179,-317 179,-338 278,-338 278,-317 179,-317"/>
<text text-anchor="start" x="219" y="-323.8" font-family="Times,serif" font-size="14.00">pos</text>
<polygon fill="#e0ffe0" stroke="none" points="278,-317 278,-338 345,-338 345,-317 278,-317"/>
<polygon fill="none" stroke="black" points="278,-317 278,-338 345,-338 345,-317 278,-317"/>
<text text-anchor="start" x="300.5" y="-323.8" font-family="Times,serif" font-size="14.00">size</text>
<polygon fill="#e0ffe0" stroke="none" points="345,-317 345,-338 428,-338 428,-317 345,-317"/>
<polygon fill="none" stroke="black" points="345,-317 345,-338 428,-338 428,-317 345,-317"/>
<text text-anchor="start" x="374.5" y="-323.8" font-family="Times,serif" font-size="14.00">type</text>
<polygon fill="#e0ffe0" stroke="none" points="428,-317 428,-338 525,-338 525,-317 428,-317"/>
<polygon fill="none" stroke="black" points="428,-317 428,-338 525,-338 525,-317 428,-317"/>
<text text-anchor="start" x="471" y="-323.8" font-family="Times,serif" font-size="14.00">id</text>
<polygon fill="none" stroke="black" points="179,-296 179,-317 278,-317 278,-296 179,-296"/>
<text text-anchor="start" x="182" y="-302.8" font-family="Times,serif" font-size="14.00">_root.sector_size</text>
<polygon fill="none" stroke="black" points="278,-296 278,-317 345,-317 345,-296 278,-296"/>
<text text-anchor="start" x="281" y="-302.8" font-family="Times,serif" font-size="14.00">sector_size</text>
<polygon fill="none" stroke="black" points="345,-296 345,-317 428,-317 428,-296 345,-296"/>
<text text-anchor="start" x="348" y="-302.8" font-family="Times,serif" font-size="14.00">PartitionEntry</text>
<polygon fill="none" stroke="black" points="428,-296 428,-317 525,-317 525,-296 428,-296"/>
<text text-anchor="start" x="431" y="-302.8" font-family="Times,serif" font-size="14.00">partition_lookup</text>
</g>
<!-- apm_partition_table__inst__sector_size&#45;&gt;apm_partition_table__inst__partition_lookup -->
<g id="edge1" class="edge"><title>apm_partition_table__inst__sector_size:sector_size_type&#45;&gt;apm_partition_table__inst__partition_lookup:partition_lookup_pos</title>
<path fill="none" stroke="#404040" d="M101.5,-428C144.192,-385.308 117.46,-314.593 168.024,-306.719"/>
<polygon fill="#404040" stroke="#404040" points="168.278,-310.21 178,-306 167.774,-303.228 168.278,-310.21"/>
</g>
<!-- apm_partition_table__inst__sector_size&#45;&gt;apm_partition_table__inst__partition_lookup -->
<g id="edge2" class="edge"><title>apm_partition_table__inst__sector_size:sector_size_type&#45;&gt;apm_partition_table__inst__partition_lookup:partition_lookup_size</title>
<path fill="none" stroke="#404040" d="M101.5,-428C148.382,-381.118 114.361,-330.466 171,-296 221.041,-265.549 300.939,-236.4 310.13,-285.003"/>
<polygon fill="#404040" stroke="#404040" points="306.646,-285.341 311,-295 313.62,-284.734 306.646,-285.341"/>
</g>
<!-- apm_partition_table__inst__partition_entries -->
<g id="node4" class="node"><title>apm_partition_table__inst__partition_entries</title>
<polygon fill="#e0ffe0" stroke="none" points="180,-406 180,-427 279,-427 279,-406 180,-406"/>
<polygon fill="none" stroke="black" points="180,-406 180,-427 279,-427 279,-406 180,-406"/>
<text text-anchor="start" x="220" y="-412.8" font-family="Times,serif" font-size="14.00">pos</text>
<polygon fill="#e0ffe0" stroke="none" points="279,-406 279,-427 346,-427 346,-406 279,-406"/>
<polygon fill="none" stroke="black" points="279,-406 279,-427 346,-427 346,-406 279,-406"/>
<text text-anchor="start" x="301.5" y="-412.8" font-family="Times,serif" font-size="14.00">size</text>
<polygon fill="#e0ffe0" stroke="none" points="346,-406 346,-427 429,-427 429,-406 346,-406"/>
<polygon fill="none" stroke="black" points="346,-406 346,-427 429,-427 429,-406 346,-406"/>
<text text-anchor="start" x="375.5" y="-412.8" font-family="Times,serif" font-size="14.00">type</text>
<polygon fill="#e0ffe0" stroke="none" points="429,-406 429,-427 524,-427 524,-406 429,-406"/>
<polygon fill="none" stroke="black" points="429,-406 429,-427 524,-427 524,-406 429,-406"/>
<text text-anchor="start" x="471" y="-412.8" font-family="Times,serif" font-size="14.00">id</text>
<polygon fill="none" stroke="black" points="180,-385 180,-406 279,-406 279,-385 180,-385"/>
<text text-anchor="start" x="183" y="-391.8" font-family="Times,serif" font-size="14.00">_root.sector_size</text>
<polygon fill="none" stroke="black" points="279,-385 279,-406 346,-406 346,-385 279,-385"/>
<text text-anchor="start" x="282" y="-391.8" font-family="Times,serif" font-size="14.00">sector_size</text>
<polygon fill="none" stroke="black" points="346,-385 346,-406 429,-406 429,-385 346,-385"/>
<text text-anchor="start" x="349" y="-391.8" font-family="Times,serif" font-size="14.00">PartitionEntry</text>
<polygon fill="none" stroke="black" points="429,-385 429,-406 524,-406 524,-385 429,-385"/>
<text text-anchor="start" x="432" y="-391.8" font-family="Times,serif" font-size="14.00">partition_entries</text>
<polygon fill="none" stroke="black" points="180,-364 180,-385 524,-385 524,-364 180,-364"/>
<text text-anchor="start" x="194.5" y="-370.8" font-family="Times,serif" font-size="14.00">repeat _root.partition_lookup.number_of_partitions times</text>
</g>
<!-- apm_partition_table__inst__sector_size&#45;&gt;apm_partition_table__inst__partition_entries -->
<g id="edge4" class="edge"><title>apm_partition_table__inst__sector_size:sector_size_type&#45;&gt;apm_partition_table__inst__partition_entries:partition_entries_pos</title>
<path fill="none" stroke="#404040" d="M101.5,-428C125.387,-404.113 138.786,-396.465 168.68,-395.199"/>
<polygon fill="#404040" stroke="#404040" points="169.069,-398.692 179,-395 168.934,-391.694 169.069,-398.692"/>
</g>
<!-- apm_partition_table__inst__sector_size&#45;&gt;apm_partition_table__inst__partition_entries -->
<g id="edge5" class="edge"><title>apm_partition_table__inst__sector_size:sector_size_type&#45;&gt;apm_partition_table__inst__partition_entries:partition_entries_size</title>
<path fill="none" stroke="#404040" d="M101.5,-428C145.161,-384.339 221.518,-383.719 269,-388.486"/>
<polygon fill="#404040" stroke="#404040" points="268.633,-391.967 278.962,-389.607 269.416,-385.011 268.633,-391.967"/>
</g>
<!-- partition_entry__inst__partition -->
<g id="node6" class="node"><title>partition_entry__inst__partition</title>
<polygon fill="#e0ffe0" stroke="none" points="862,-375 862,-396 1060,-396 1060,-375 862,-375"/>
<polygon fill="none" stroke="black" points="862,-375 862,-396 1060,-396 1060,-375 862,-375"/>
<text text-anchor="start" x="951.5" y="-381.8" font-family="Times,serif" font-size="14.00">pos</text>
<polygon fill="#e0ffe0" stroke="none" points="1060,-375 1060,-396 1256,-396 1256,-375 1060,-375"/>
<polygon fill="none" stroke="black" points="1060,-375 1060,-396 1256,-396 1256,-375 1060,-375"/>
<text text-anchor="start" x="1147" y="-381.8" font-family="Times,serif" font-size="14.00">size</text>
<polygon fill="#e0ffe0" stroke="none" points="1256,-375 1256,-396 1286,-396 1286,-375 1256,-375"/>
<polygon fill="none" stroke="black" points="1256,-375 1256,-396 1286,-396 1286,-375 1256,-375"/>
<text text-anchor="start" x="1259" y="-381.8" font-family="Times,serif" font-size="14.00">type</text>
<polygon fill="#e0ffe0" stroke="none" points="1286,-375 1286,-396 1338,-396 1338,-375 1286,-375"/>
<polygon fill="none" stroke="black" points="1286,-375 1286,-396 1338,-396 1338,-375 1286,-375"/>
<text text-anchor="start" x="1306.5" y="-381.8" font-family="Times,serif" font-size="14.00">id</text>
<polygon fill="none" stroke="black" points="862,-354 862,-375 1060,-375 1060,-354 862,-354"/>
<text text-anchor="start" x="865" y="-360.8" font-family="Times,serif" font-size="14.00">(partition_start * _root.sector_size)</text>
<polygon fill="none" stroke="black" points="1060,-354 1060,-375 1256,-375 1256,-354 1060,-354"/>
<text text-anchor="start" x="1063" y="-360.8" font-family="Times,serif" font-size="14.00">(partition_size * _root.sector_size)</text>
<polygon fill="none" stroke="black" points="1256,-354 1256,-375 1286,-375 1286,-354 1256,-354"/>
<polygon fill="none" stroke="black" points="1286,-354 1286,-375 1338,-375 1338,-354 1286,-354"/>
<text text-anchor="start" x="1289" y="-360.8" font-family="Times,serif" font-size="14.00">partition</text>
</g>
<!-- apm_partition_table__inst__sector_size&#45;&gt;partition_entry__inst__partition -->
<g id="edge9" class="edge"><title>apm_partition_table__inst__sector_size:sector_size_type&#45;&gt;partition_entry__inst__partition:partition_pos</title>
<path fill="none" stroke="#404040" d="M101.5,-428C132.057,-397.443 130.985,-479.68 171,-496 237.566,-523.148 759.825,-538.233 818,-496 864.81,-462.017 807.415,-375.737 850.898,-365.084"/>
<polygon fill="#404040" stroke="#404040" points="851.431,-368.547 861,-364 850.684,-361.587 851.431,-368.547"/>
</g>
<!-- apm_partition_table__inst__sector_size&#45;&gt;partition_entry__inst__partition -->
<g id="edge11" class="edge"><title>apm_partition_table__inst__sector_size:sector_size_type&#45;&gt;partition_entry__inst__partition:partition_size</title>
<path fill="none" stroke="#404040" d="M101.5,-428C136.495,-393.005 126.402,-493.546 171,-515 300.566,-577.328 705.788,-604.892 818,-515 875.225,-469.158 796.851,-399.936 854,-354 865.775,-344.535 1099.74,-337.689 1148.96,-348.439"/>
<polygon fill="#404040" stroke="#404040" points="1147.5,-351.62 1158,-353 1150.65,-345.37 1147.5,-351.62"/>
</g>
<!-- partition_entry__inst__data -->
<g id="node7" class="node"><title>partition_entry__inst__data</title>
<polygon fill="#e0ffe0" stroke="none" points="897,-301 897,-322 1072,-322 1072,-301 897,-301"/>
<polygon fill="none" stroke="black" points="897,-301 897,-322 1072,-322 1072,-301 897,-301"/>
<text text-anchor="start" x="975" y="-307.8" font-family="Times,serif" font-size="14.00">pos</text>
<polygon fill="#e0ffe0" stroke="none" points="1072,-301 1072,-322 1244,-322 1244,-301 1072,-301"/>
<polygon fill="none" stroke="black" points="1072,-301 1072,-322 1244,-322 1244,-301 1072,-301"/>
<text text-anchor="start" x="1147" y="-307.8" font-family="Times,serif" font-size="14.00">size</text>
<polygon fill="#e0ffe0" stroke="none" points="1244,-301 1244,-322 1274,-322 1274,-301 1244,-301"/>
<polygon fill="none" stroke="black" points="1244,-301 1244,-322 1274,-322 1274,-301 1244,-301"/>
<text text-anchor="start" x="1247" y="-307.8" font-family="Times,serif" font-size="14.00">type</text>
<polygon fill="#e0ffe0" stroke="none" points="1274,-301 1274,-322 1303,-322 1303,-301 1274,-301"/>
<polygon fill="none" stroke="black" points="1274,-301 1274,-322 1303,-322 1303,-301 1274,-301"/>
<text text-anchor="start" x="1283" y="-307.8" font-family="Times,serif" font-size="14.00">id</text>
<polygon fill="none" stroke="black" points="897,-280 897,-301 1072,-301 1072,-280 897,-280"/>
<text text-anchor="start" x="900" y="-286.8" font-family="Times,serif" font-size="14.00">(data_start * _root.sector_size)</text>
<polygon fill="none" stroke="black" points="1072,-280 1072,-301 1244,-301 1244,-280 1072,-280"/>
<text text-anchor="start" x="1075" y="-286.8" font-family="Times,serif" font-size="14.00">(data_size * _root.sector_size)</text>
<polygon fill="none" stroke="black" points="1244,-280 1244,-301 1274,-301 1274,-280 1244,-280"/>
<polygon fill="none" stroke="black" points="1274,-280 1274,-301 1303,-301 1303,-280 1274,-280"/>
<text text-anchor="start" x="1277" y="-286.8" font-family="Times,serif" font-size="14.00">data</text>
</g>
<!-- apm_partition_table__inst__sector_size&#45;&gt;partition_entry__inst__data -->
<g id="edge13" class="edge"><title>apm_partition_table__inst__sector_size:sector_size_type&#45;&gt;partition_entry__inst__data:data_pos</title>
<path fill="none" stroke="#404040" d="M101.5,-428C125.048,-404.452 138.307,-449.662 171,-456 241.575,-469.682 760.069,-498.568 818,-456 880.738,-409.899 820.429,-300.437 885.901,-290.696"/>
<polygon fill="#404040" stroke="#404040" points="886.264,-294.179 896,-290 885.783,-287.196 886.264,-294.179"/>
</g>
<!-- apm_partition_table__inst__sector_size&#45;&gt;partition_entry__inst__data -->
<g id="edge15" class="edge"><title>apm_partition_table__inst__sector_size:sector_size_type&#45;&gt;partition_entry__inst__data:data_size</title>
<path fill="none" stroke="#404040" d="M101.5,-428C127.351,-402.149 135.9,-461.775 171,-472 205.51,-482.054 789.435,-494.818 818,-473 890.635,-417.522 809.994,-325.952 889,-280 937.545,-251.765 1132.29,-222.94 1155.69,-269.117"/>
<polygon fill="#404040" stroke="#404040" points="1152.32,-270.056 1158,-279 1159.14,-268.466 1152.32,-270.056"/>
</g>
<!-- partition_entry__inst__boot_code -->
<g id="node8" class="node"><title>partition_entry__inst__boot_code</title>
<polygon fill="#e0ffe0" stroke="none" points="904,-196 904,-217 1112,-217 1112,-196 904,-196"/>
<polygon fill="none" stroke="black" points="904,-196 904,-217 1112,-217 1112,-196 904,-196"/>
<text text-anchor="start" x="998.5" y="-202.8" font-family="Times,serif" font-size="14.00">pos</text>
<polygon fill="#e0ffe0" stroke="none" points="1112,-196 1112,-217 1203,-217 1203,-196 1112,-196"/>
<polygon fill="none" stroke="black" points="1112,-196 1112,-217 1203,-217 1203,-196 1112,-196"/>
<text text-anchor="start" x="1146.5" y="-202.8" font-family="Times,serif" font-size="14.00">size</text>
<polygon fill="#e0ffe0" stroke="none" points="1203,-196 1203,-217 1233,-217 1233,-196 1203,-196"/>
<polygon fill="none" stroke="black" points="1203,-196 1203,-217 1233,-217 1233,-196 1203,-196"/>
<text text-anchor="start" x="1206" y="-202.8" font-family="Times,serif" font-size="14.00">type</text>
<polygon fill="#e0ffe0" stroke="none" points="1233,-196 1233,-217 1296,-217 1296,-196 1233,-196"/>
<polygon fill="none" stroke="black" points="1233,-196 1233,-217 1296,-217 1296,-196 1233,-196"/>
<text text-anchor="start" x="1259" y="-202.8" font-family="Times,serif" font-size="14.00">id</text>
<polygon fill="none" stroke="black" points="904,-175 904,-196 1112,-196 1112,-175 904,-175"/>
<text text-anchor="start" x="907" y="-181.8" font-family="Times,serif" font-size="14.00">(boot_code_start * _root.sector_size)</text>
<polygon fill="none" stroke="black" points="1112,-175 1112,-196 1203,-196 1203,-175 1112,-175"/>
<text text-anchor="start" x="1115" y="-181.8" font-family="Times,serif" font-size="14.00">boot_code_size</text>
<polygon fill="none" stroke="black" points="1203,-175 1203,-196 1233,-196 1233,-175 1203,-175"/>
<polygon fill="none" stroke="black" points="1233,-175 1233,-196 1296,-196 1296,-175 1233,-175"/>
<text text-anchor="start" x="1236" y="-181.8" font-family="Times,serif" font-size="14.00">boot_code</text>
</g>
<!-- apm_partition_table__inst__sector_size&#45;&gt;partition_entry__inst__boot_code -->
<g id="edge17" class="edge"><title>apm_partition_table__inst__sector_size:sector_size_type&#45;&gt;partition_entry__inst__boot_code:boot_code_pos</title>
<path fill="none" stroke="#404040" d="M101.5,-428C123.665,-405.835 139.769,-437.324 171,-440 206.813,-443.069 790.114,-462.68 818,-440 878.928,-390.445 825.462,-340.167 854,-267 868.041,-231 861.944,-192.604 892.745,-185.995"/>
<polygon fill="#404040" stroke="#404040" points="893.385,-189.449 903,-185 892.709,-182.482 893.385,-189.449"/>
</g>
<!-- partition_entry__seq -->
<g id="node5" class="node"><title>partition_entry__seq</title>
<polygon fill="#e0ffe0" stroke="none" points="577.5,-406 577.5,-427 604.5,-427 604.5,-406 577.5,-406"/>
<polygon fill="none" stroke="black" points="577.5,-406 577.5,-427 604.5,-427 604.5,-406 577.5,-406"/>
<text text-anchor="start" x="581.5" y="-412.8" font-family="Times,serif" font-size="14.00">pos</text>
<polygon fill="#e0ffe0" stroke="none" points="604.5,-406 604.5,-427 632.5,-427 632.5,-406 604.5,-406"/>
<polygon fill="none" stroke="black" points="604.5,-406 604.5,-427 632.5,-427 632.5,-406 604.5,-406"/>
<text text-anchor="start" x="607.5" y="-412.8" font-family="Times,serif" font-size="14.00">size</text>
<polygon fill="#e0ffe0" stroke="none" points="632.5,-406 632.5,-427 686.5,-427 686.5,-406 632.5,-406"/>
<polygon fill="none" stroke="black" points="632.5,-406 632.5,-427 686.5,-427 686.5,-406 632.5,-406"/>
<text text-anchor="start" x="647.5" y="-412.8" font-family="Times,serif" font-size="14.00">type</text>
<polygon fill="#e0ffe0" stroke="none" points="686.5,-406 686.5,-427 810.5,-427 810.5,-406 686.5,-406"/>
<polygon fill="none" stroke="black" points="686.5,-406 686.5,-427 810.5,-427 810.5,-406 686.5,-406"/>
<text text-anchor="start" x="743" y="-412.8" font-family="Times,serif" font-size="14.00">id</text>
<polygon fill="none" stroke="black" points="577.5,-385 577.5,-406 604.5,-406 604.5,-385 577.5,-385"/>
<text text-anchor="start" x="587.5" y="-391.8" font-family="Times,serif" font-size="14.00">0</text>
<polygon fill="none" stroke="black" points="604.5,-385 604.5,-406 632.5,-406 632.5,-385 604.5,-385"/>
<text text-anchor="start" x="615" y="-391.8" font-family="Times,serif" font-size="14.00">2</text>
<polygon fill="none" stroke="black" points="632.5,-385 632.5,-406 686.5,-406 686.5,-385 632.5,-385"/>
<text text-anchor="start" x="642.5" y="-391.8" font-family="Times,serif" font-size="14.00">50 4D</text>
<polygon fill="none" stroke="black" points="686.5,-385 686.5,-406 810.5,-406 810.5,-385 686.5,-385"/>
<text text-anchor="start" x="731.5" y="-391.8" font-family="Times,serif" font-size="14.00">magic</text>
<polygon fill="none" stroke="black" points="577.5,-364 577.5,-385 604.5,-385 604.5,-364 577.5,-364"/>
<text text-anchor="start" x="587.5" y="-370.8" font-family="Times,serif" font-size="14.00">2</text>
<polygon fill="none" stroke="black" points="604.5,-364 604.5,-385 632.5,-385 632.5,-364 604.5,-364"/>
<text text-anchor="start" x="615" y="-370.8" font-family="Times,serif" font-size="14.00">2</text>
<polygon fill="none" stroke="black" points="632.5,-364 632.5,-385 686.5,-385 686.5,-364 632.5,-364"/>
<polygon fill="none" stroke="black" points="686.5,-364 686.5,-385 810.5,-385 810.5,-364 686.5,-364"/>
<text text-anchor="start" x="718.5" y="-370.8" font-family="Times,serif" font-size="14.00">reserved_1</text>
<polygon fill="none" stroke="black" points="577.5,-343 577.5,-364 604.5,-364 604.5,-343 577.5,-343"/>
<text text-anchor="start" x="587.5" y="-349.8" font-family="Times,serif" font-size="14.00">4</text>
<polygon fill="none" stroke="black" points="604.5,-343 604.5,-364 632.5,-364 632.5,-343 604.5,-343"/>
<text text-anchor="start" x="615" y="-349.8" font-family="Times,serif" font-size="14.00">4</text>
<polygon fill="none" stroke="black" points="632.5,-343 632.5,-364 686.5,-364 686.5,-343 632.5,-343"/>
<text text-anchor="start" x="646" y="-349.8" font-family="Times,serif" font-size="14.00">u4be</text>
<polygon fill="none" stroke="black" points="686.5,-343 686.5,-364 810.5,-364 810.5,-343 686.5,-343"/>
<text text-anchor="start" x="689.5" y="-349.8" font-family="Times,serif" font-size="14.00">number_of_partitions</text>
<polygon fill="none" stroke="black" points="577.5,-322 577.5,-343 604.5,-343 604.5,-322 577.5,-322"/>
<text text-anchor="start" x="587.5" y="-328.8" font-family="Times,serif" font-size="14.00">8</text>
<polygon fill="none" stroke="black" points="604.5,-322 604.5,-343 632.5,-343 632.5,-322 604.5,-322"/>
<text text-anchor="start" x="615" y="-328.8" font-family="Times,serif" font-size="14.00">4</text>
<polygon fill="none" stroke="black" points="632.5,-322 632.5,-343 686.5,-343 686.5,-322 632.5,-322"/>
<text text-anchor="start" x="646" y="-328.8" font-family="Times,serif" font-size="14.00">u4be</text>
<polygon fill="none" stroke="black" points="686.5,-322 686.5,-343 810.5,-343 810.5,-322 686.5,-322"/>
<text text-anchor="start" x="710.5" y="-328.8" font-family="Times,serif" font-size="14.00">partition_start</text>
<polygon fill="none" stroke="black" points="577.5,-301 577.5,-322 604.5,-322 604.5,-301 577.5,-301"/>
<text text-anchor="start" x="584" y="-307.8" font-family="Times,serif" font-size="14.00">12</text>
<polygon fill="none" stroke="black" points="604.5,-301 604.5,-322 632.5,-322 632.5,-301 604.5,-301"/>
<text text-anchor="start" x="615" y="-307.8" font-family="Times,serif" font-size="14.00">4</text>
<polygon fill="none" stroke="black" points="632.5,-301 632.5,-322 686.5,-322 686.5,-301 632.5,-301"/>
<text text-anchor="start" x="646" y="-307.8" font-family="Times,serif" font-size="14.00">u4be</text>
<polygon fill="none" stroke="black" points="686.5,-301 686.5,-322 810.5,-322 810.5,-301 686.5,-301"/>
<text text-anchor="start" x="711.5" y="-307.8" font-family="Times,serif" font-size="14.00">partition_size</text>
<polygon fill="none" stroke="black" points="577.5,-280 577.5,-301 604.5,-301 604.5,-280 577.5,-280"/>
<text text-anchor="start" x="584" y="-286.8" font-family="Times,serif" font-size="14.00">16</text>
<polygon fill="none" stroke="black" points="604.5,-280 604.5,-301 632.5,-301 632.5,-280 604.5,-280"/>
<text text-anchor="start" x="611.5" y="-286.8" font-family="Times,serif" font-size="14.00">32</text>
<polygon fill="none" stroke="black" points="632.5,-280 632.5,-301 686.5,-301 686.5,-280 632.5,-280"/>
<text text-anchor="start" x="635.5" y="-286.8" font-family="Times,serif" font-size="14.00">str(ascii)</text>
<polygon fill="none" stroke="black" points="686.5,-280 686.5,-301 810.5,-301 810.5,-280 686.5,-280"/>
<text text-anchor="start" x="707" y="-286.8" font-family="Times,serif" font-size="14.00">partition_name</text>
<polygon fill="none" stroke="black" points="577.5,-259 577.5,-280 604.5,-280 604.5,-259 577.5,-259"/>
<text text-anchor="start" x="584" y="-265.8" font-family="Times,serif" font-size="14.00">48</text>
<polygon fill="none" stroke="black" points="604.5,-259 604.5,-280 632.5,-280 632.5,-259 604.5,-259"/>
<text text-anchor="start" x="611.5" y="-265.8" font-family="Times,serif" font-size="14.00">32</text>
<polygon fill="none" stroke="black" points="632.5,-259 632.5,-280 686.5,-280 686.5,-259 632.5,-259"/>
<text text-anchor="start" x="635.5" y="-265.8" font-family="Times,serif" font-size="14.00">str(ascii)</text>
<polygon fill="none" stroke="black" points="686.5,-259 686.5,-280 810.5,-280 810.5,-259 686.5,-259"/>
<text text-anchor="start" x="710.5" y="-265.8" font-family="Times,serif" font-size="14.00">partition_type</text>
<polygon fill="none" stroke="black" points="577.5,-238 577.5,-259 604.5,-259 604.5,-238 577.5,-238"/>
<text text-anchor="start" x="584" y="-244.8" font-family="Times,serif" font-size="14.00">80</text>
<polygon fill="none" stroke="black" points="604.5,-238 604.5,-259 632.5,-259 632.5,-238 604.5,-238"/>
<text text-anchor="start" x="615" y="-244.8" font-family="Times,serif" font-size="14.00">4</text>
<polygon fill="none" stroke="black" points="632.5,-238 632.5,-259 686.5,-259 686.5,-238 632.5,-238"/>
<text text-anchor="start" x="646" y="-244.8" font-family="Times,serif" font-size="14.00">u4be</text>
<polygon fill="none" stroke="black" points="686.5,-238 686.5,-259 810.5,-259 810.5,-238 686.5,-238"/>
<text text-anchor="start" x="722" y="-244.8" font-family="Times,serif" font-size="14.00">data_start</text>
<polygon fill="none" stroke="black" points="577.5,-217 577.5,-238 604.5,-238 604.5,-217 577.5,-217"/>
<text text-anchor="start" x="584" y="-223.8" font-family="Times,serif" font-size="14.00">84</text>
<polygon fill="none" stroke="black" points="604.5,-217 604.5,-238 632.5,-238 632.5,-217 604.5,-217"/>
<text text-anchor="start" x="615" y="-223.8" font-family="Times,serif" font-size="14.00">4</text>
<polygon fill="none" stroke="black" points="632.5,-217 632.5,-238 686.5,-238 686.5,-217 632.5,-217"/>
<text text-anchor="start" x="646" y="-223.8" font-family="Times,serif" font-size="14.00">u4be</text>
<polygon fill="none" stroke="black" points="686.5,-217 686.5,-238 810.5,-238 810.5,-217 686.5,-217"/>
<text text-anchor="start" x="723" y="-223.8" font-family="Times,serif" font-size="14.00">data_size</text>
<polygon fill="none" stroke="black" points="577.5,-196 577.5,-217 604.5,-217 604.5,-196 577.5,-196"/>
<text text-anchor="start" x="584" y="-202.8" font-family="Times,serif" font-size="14.00">88</text>
<polygon fill="none" stroke="black" points="604.5,-196 604.5,-217 632.5,-217 632.5,-196 604.5,-196"/>
<text text-anchor="start" x="615" y="-202.8" font-family="Times,serif" font-size="14.00">4</text>
<polygon fill="none" stroke="black" points="632.5,-196 632.5,-217 686.5,-217 686.5,-196 632.5,-196"/>
<text text-anchor="start" x="646" y="-202.8" font-family="Times,serif" font-size="14.00">u4be</text>
<polygon fill="none" stroke="black" points="686.5,-196 686.5,-217 810.5,-217 810.5,-196 686.5,-196"/>
<text text-anchor="start" x="706.5" y="-202.8" font-family="Times,serif" font-size="14.00">partition_status</text>
<polygon fill="none" stroke="black" points="577.5,-175 577.5,-196 604.5,-196 604.5,-175 577.5,-175"/>
<text text-anchor="start" x="584" y="-181.8" font-family="Times,serif" font-size="14.00">92</text>
<polygon fill="none" stroke="black" points="604.5,-175 604.5,-196 632.5,-196 632.5,-175 604.5,-175"/>
<text text-anchor="start" x="615" y="-181.8" font-family="Times,serif" font-size="14.00">4</text>
<polygon fill="none" stroke="black" points="632.5,-175 632.5,-196 686.5,-196 686.5,-175 632.5,-175"/>
<text text-anchor="start" x="646" y="-181.8" font-family="Times,serif" font-size="14.00">u4be</text>
<polygon fill="none" stroke="black" points="686.5,-175 686.5,-196 810.5,-196 810.5,-175 686.5,-175"/>
<text text-anchor="start" x="705" y="-181.8" font-family="Times,serif" font-size="14.00">boot_code_start</text>
<polygon fill="none" stroke="black" points="577.5,-154 577.5,-175 604.5,-175 604.5,-154 577.5,-154"/>
<text text-anchor="start" x="584" y="-160.8" font-family="Times,serif" font-size="14.00">96</text>
<polygon fill="none" stroke="black" points="604.5,-154 604.5,-175 632.5,-175 632.5,-154 604.5,-154"/>
<text text-anchor="start" x="615" y="-160.8" font-family="Times,serif" font-size="14.00">4</text>
<polygon fill="none" stroke="black" points="632.5,-154 632.5,-175 686.5,-175 686.5,-154 632.5,-154"/>
<text text-anchor="start" x="646" y="-160.8" font-family="Times,serif" font-size="14.00">u4be</text>
<polygon fill="none" stroke="black" points="686.5,-154 686.5,-175 810.5,-175 810.5,-154 686.5,-154"/>
<text text-anchor="start" x="706" y="-160.8" font-family="Times,serif" font-size="14.00">boot_code_size</text>
<polygon fill="none" stroke="black" points="577.5,-133 577.5,-154 604.5,-154 604.5,-133 577.5,-133"/>
<text text-anchor="start" x="580.5" y="-139.8" font-family="Times,serif" font-size="14.00">100</text>
<polygon fill="none" stroke="black" points="604.5,-133 604.5,-154 632.5,-154 632.5,-133 604.5,-133"/>
<text text-anchor="start" x="615" y="-139.8" font-family="Times,serif" font-size="14.00">4</text>
<polygon fill="none" stroke="black" points="632.5,-133 632.5,-154 686.5,-154 686.5,-133 632.5,-133"/>
<text text-anchor="start" x="646" y="-139.8" font-family="Times,serif" font-size="14.00">u4be</text>
<polygon fill="none" stroke="black" points="686.5,-133 686.5,-154 810.5,-154 810.5,-133 686.5,-133"/>
<text text-anchor="start" x="692.5" y="-139.8" font-family="Times,serif" font-size="14.00">boot_loader_address</text>
<polygon fill="none" stroke="black" points="577.5,-112 577.5,-133 604.5,-133 604.5,-112 577.5,-112"/>
<text text-anchor="start" x="580.5" y="-118.8" font-family="Times,serif" font-size="14.00">104</text>
<polygon fill="none" stroke="black" points="604.5,-112 604.5,-133 632.5,-133 632.5,-112 604.5,-112"/>
<text text-anchor="start" x="615" y="-118.8" font-family="Times,serif" font-size="14.00">4</text>
<polygon fill="none" stroke="black" points="632.5,-112 632.5,-133 686.5,-133 686.5,-112 632.5,-112"/>
<polygon fill="none" stroke="black" points="686.5,-112 686.5,-133 810.5,-133 810.5,-112 686.5,-112"/>
<text text-anchor="start" x="718.5" y="-118.8" font-family="Times,serif" font-size="14.00">reserved_2</text>
<polygon fill="none" stroke="black" points="577.5,-91 577.5,-112 604.5,-112 604.5,-91 577.5,-91"/>
<text text-anchor="start" x="580.5" y="-97.8" font-family="Times,serif" font-size="14.00">108</text>
<polygon fill="none" stroke="black" points="604.5,-91 604.5,-112 632.5,-112 632.5,-91 604.5,-91"/>
<text text-anchor="start" x="615" y="-97.8" font-family="Times,serif" font-size="14.00">4</text>
<polygon fill="none" stroke="black" points="632.5,-91 632.5,-112 686.5,-112 686.5,-91 632.5,-91"/>
<text text-anchor="start" x="646" y="-97.8" font-family="Times,serif" font-size="14.00">u4be</text>
<polygon fill="none" stroke="black" points="686.5,-91 686.5,-112 810.5,-112 810.5,-91 686.5,-91"/>
<text text-anchor="start" x="703" y="-97.8" font-family="Times,serif" font-size="14.00">boot_code_entry</text>
<polygon fill="none" stroke="black" points="577.5,-70 577.5,-91 604.5,-91 604.5,-70 577.5,-70"/>
<text text-anchor="start" x="580.5" y="-76.8" font-family="Times,serif" font-size="14.00">112</text>
<polygon fill="none" stroke="black" points="604.5,-70 604.5,-91 632.5,-91 632.5,-70 604.5,-70"/>
<text text-anchor="start" x="615" y="-76.8" font-family="Times,serif" font-size="14.00">4</text>
<polygon fill="none" stroke="black" points="632.5,-70 632.5,-91 686.5,-91 686.5,-70 632.5,-70"/>
<polygon fill="none" stroke="black" points="686.5,-70 686.5,-91 810.5,-91 810.5,-70 686.5,-70"/>
<text text-anchor="start" x="718.5" y="-76.8" font-family="Times,serif" font-size="14.00">reserved_3</text>
<polygon fill="none" stroke="black" points="577.5,-49 577.5,-70 604.5,-70 604.5,-49 577.5,-49"/>
<text text-anchor="start" x="580.5" y="-55.8" font-family="Times,serif" font-size="14.00">116</text>
<polygon fill="none" stroke="black" points="604.5,-49 604.5,-70 632.5,-70 632.5,-49 604.5,-49"/>
<text text-anchor="start" x="615" y="-55.8" font-family="Times,serif" font-size="14.00">4</text>
<polygon fill="none" stroke="black" points="632.5,-49 632.5,-70 686.5,-70 686.5,-49 632.5,-49"/>
<text text-anchor="start" x="646" y="-55.8" font-family="Times,serif" font-size="14.00">u4be</text>
<polygon fill="none" stroke="black" points="686.5,-49 686.5,-70 810.5,-70 810.5,-49 686.5,-49"/>
<text text-anchor="start" x="698.5" y="-55.8" font-family="Times,serif" font-size="14.00">boot_code_cksum</text>
<polygon fill="none" stroke="black" points="577.5,-28 577.5,-49 604.5,-49 604.5,-28 577.5,-28"/>
<text text-anchor="start" x="580.5" y="-34.8" font-family="Times,serif" font-size="14.00">120</text>
<polygon fill="none" stroke="black" points="604.5,-28 604.5,-49 632.5,-49 632.5,-28 604.5,-28"/>
<text text-anchor="start" x="611.5" y="-34.8" font-family="Times,serif" font-size="14.00">16</text>
<polygon fill="none" stroke="black" points="632.5,-28 632.5,-49 686.5,-49 686.5,-28 632.5,-28"/>
<text text-anchor="start" x="635.5" y="-34.8" font-family="Times,serif" font-size="14.00">str(ascii)</text>
<polygon fill="none" stroke="black" points="686.5,-28 686.5,-49 810.5,-49 810.5,-28 686.5,-28"/>
<text text-anchor="start" x="707.5" y="-34.8" font-family="Times,serif" font-size="14.00">processor_type</text>
</g>
<!-- apm_partition_table__inst__partition_lookup&#45;&gt;partition_entry__seq -->
<g id="edge3" class="edge"><title>apm_partition_table__inst__partition_lookup:partition_lookup_type&#45;&gt;partition_entry__seq</title>
<path fill="none" stroke="black" stroke-width="2" d="M526,-306C536.998,-306 548.051,-304.587 558.946,-302.142"/>
<polygon fill="black" stroke="black" stroke-width="2" points="560.068,-305.468 568.9,-299.617 558.347,-298.683 560.068,-305.468"/>
</g>
<!-- apm_partition_table__inst__partition_entries&#45;&gt;partition_entry__seq -->
<g id="edge6" class="edge"><title>apm_partition_table__inst__partition_entries:partition_entries_type&#45;&gt;partition_entry__seq</title>
<path fill="none" stroke="black" stroke-width="2" d="M525,-395C537.069,-395 548.574,-392.799 559.487,-388.902"/>
<polygon fill="black" stroke="black" stroke-width="2" points="560.985,-392.071 568.923,-385.054 558.342,-385.589 560.985,-392.071"/>
</g>
<!-- partition_entry__seq&#45;&gt;apm_partition_table__inst__partition_entries -->
<g id="edge7" class="edge"><title>partition_entry__seq:number_of_partitions_type&#45;&gt;apm_partition_table__inst__partition_entries:partition_entries__repeat</title>
<path fill="none" stroke="#404040" d="M811.5,-354C845.947,-354 835.015,-407.3 810.5,-431.5 805.726,-436.213 575.015,-434.471 569,-431.5 543.755,-419.03 553.639,-384.359 534.946,-375.886"/>
<polygon fill="#404040" stroke="#404040" points="535.477,-372.425 525,-374 534.173,-379.302 535.477,-372.425"/>
</g>
<!-- partition_entry__seq&#45;&gt;partition_entry__inst__partition -->
<g id="edge8" class="edge"><title>partition_entry__seq:partition_start_type&#45;&gt;partition_entry__inst__partition:partition_pos</title>
<path fill="none" stroke="#404040" d="M811.5,-333C833.605,-333 835.134,-355.48 851.13,-362.154"/>
<polygon fill="#404040" stroke="#404040" points="850.527,-365.601 861,-364 851.814,-358.721 850.527,-365.601"/>
</g>
<!-- partition_entry__seq&#45;&gt;partition_entry__inst__partition -->
<g id="edge10" class="edge"><title>partition_entry__seq:partition_size_type&#45;&gt;partition_entry__inst__partition:partition_size</title>
<path fill="none" stroke="#404040" d="M811.5,-312C832.978,-312 833.345,-329.114 854,-335 868.555,-339.147 1100.33,-336.74 1149.05,-348.296"/>
<polygon fill="#404040" stroke="#404040" points="1147.52,-351.444 1158,-353 1150.78,-345.248 1147.52,-351.444"/>
</g>
<!-- partition_entry__seq&#45;&gt;partition_entry__inst__data -->
<g id="edge12" class="edge"><title>partition_entry__seq:data_start_type&#45;&gt;partition_entry__inst__data:data_pos</title>
<path fill="none" stroke="#404040" d="M811.5,-249C849.493,-249 853.746,-282.964 885.676,-289.067"/>
<polygon fill="#404040" stroke="#404040" points="885.725,-292.585 896,-290 886.356,-285.614 885.725,-292.585"/>
</g>
<!-- partition_entry__seq&#45;&gt;partition_entry__inst__data -->
<g id="edge14" class="edge"><title>partition_entry__seq:data_size_type&#45;&gt;partition_entry__inst__data:data_size</title>
<path fill="none" stroke="#404040" d="M811.5,-227C829.103,-227 1098.22,-253.605 1149.57,-273.092"/>
<polygon fill="#404040" stroke="#404040" points="1147.8,-276.127 1158,-279 1151.82,-270.395 1147.8,-276.127"/>
</g>
<!-- partition_entry__seq&#45;&gt;partition_entry__inst__boot_code -->
<g id="edge16" class="edge"><title>partition_entry__seq:boot_code_start_type&#45;&gt;partition_entry__inst__boot_code:boot_code_pos</title>
<path fill="none" stroke="#404040" d="M811.5,-185C848.513,-185 860.26,-185 892.733,-185"/>
<polygon fill="#404040" stroke="#404040" points="893,-188.5 903,-185 893,-181.5 893,-188.5"/>
</g>
<!-- partition_entry__seq&#45;&gt;partition_entry__inst__boot_code -->
<g id="edge18" class="edge"><title>partition_entry__seq:boot_code_size_type&#45;&gt;partition_entry__inst__boot_code:boot_code_size</title>
<path fill="none" stroke="#404040" d="M811.5,-164C961.953,-164 1149,-26.6097 1157.69,-163.653"/>
<polygon fill="#404040" stroke="#404040" points="1154.2,-164.111 1158,-174 1161.19,-163.898 1154.2,-164.111"/>
</g>
</g>
</svg>
