<?xml version="1.0" encoding="UTF-8" standalone="no"?>
<!DOCTYPE svg PUBLIC "-//W3C//DTD SVG 1.1//EN"
 "http://www.w3.org/Graphics/SVG/1.1/DTD/svg11.dtd">
<!-- Generated by graphviz version 2.43.0 (0)
 -->
<!-- Title: %3 Pages: 1 -->
<svg width="1218pt" height="258pt"
 viewBox="0.00 0.00 1218.00 258.00" xmlns="http://www.w3.org/2000/svg" xmlns:xlink="http://www.w3.org/1999/xlink">
<g id="graph0" class="graph" transform="scale(1 1) rotate(0) translate(4 254)">
<title>%3</title>
<polygon fill="white" stroke="transparent" points="-4,4 -4,-254 1214,-254 1214,4 -4,4"/>
<g id="clust1" class="cluster">
<title>cluster__genmidi_op2</title>
<polygon fill="none" stroke="black" stroke-dasharray="1,5" points="8,-8 8,-242 1202,-242 1202,-8 8,-8"/>
<text text-anchor="middle" x="605" y="-226.8" font-family="Times,serif" font-size="14.00">GenmidiOp2</text>
</g>
<g id="clust2" class="cluster">
<title>cluster__instrument_entry</title>
<polygon fill="none" stroke="black" stroke-dasharray="1,5" points="403,-38 403,-211 681,-211 681,-38 403,-38"/>
<text text-anchor="middle" x="542" y="-195.8" font-family="Times,serif" font-size="14.00">GenmidiOp2::InstrumentEntry</text>
</g>
<g id="clust3" class="cluster">
<title>cluster__instrument</title>
<polygon fill="none" stroke="black" stroke-dasharray="1,5" points="701,-16 701,-189 963,-189 963,-16 701,-16"/>
<text text-anchor="middle" x="832" y="-173.8" font-family="Times,serif" font-size="14.00">GenmidiOp2::Instrument</text>
</g>
<g id="clust4" class="cluster">
<title>cluster__op_settings</title>
<polygon fill="none" stroke="black" stroke-dasharray="1,5" points="983,-16 983,-211 1194,-211 1194,-16 983,-16"/>
<text text-anchor="middle" x="1088.5" y="-195.8" font-family="Times,serif" font-size="14.00">GenmidiOp2::OpSettings</text>
</g>
<!-- genmidi_op2__seq -->
<g id="node1" class="node">
<title>genmidi_op2__seq</title>
<polygon fill="#e0ffe0" stroke="transparent" points="24.5,-144 24.5,-165 67.5,-165 67.5,-144 24.5,-144"/>
<polygon fill="none" stroke="black" points="24.5,-144 24.5,-165 67.5,-165 67.5,-144 24.5,-144"/>
<text text-anchor="start" x="33.5" y="-150.8" font-family="Times,serif" font-size="14.00">pos</text>
<polygon fill="#e0ffe0" stroke="transparent" points="67.5,-144 67.5,-165 101.5,-165 101.5,-144 67.5,-144"/>
<polygon fill="none" stroke="black" points="67.5,-144 67.5,-165 101.5,-165 101.5,-144 67.5,-144"/>
<text text-anchor="start" x="70.5" y="-150.8" font-family="Times,serif" font-size="14.00">size</text>
<polygon fill="#e0ffe0" stroke="transparent" points="101.5,-144 101.5,-165 228.5,-165 228.5,-144 101.5,-144"/>
<polygon fill="none" stroke="black" points="101.5,-144 101.5,-165 228.5,-165 228.5,-144 101.5,-144"/>
<text text-anchor="start" x="149" y="-150.8" font-family="Times,serif" font-size="14.00">type</text>
<polygon fill="#e0ffe0" stroke="transparent" points="228.5,-144 228.5,-165 367.5,-165 367.5,-144 228.5,-144"/>
<polygon fill="none" stroke="black" points="228.5,-144 228.5,-165 367.5,-165 367.5,-144 228.5,-144"/>
<text text-anchor="start" x="291" y="-150.8" font-family="Times,serif" font-size="14.00">id</text>
<polygon fill="none" stroke="black" points="24.5,-123 24.5,-144 67.5,-144 67.5,-123 24.5,-123"/>
<text text-anchor="start" x="41" y="-129.8" font-family="Times,serif" font-size="14.00">0</text>
<polygon fill="none" stroke="black" points="67.5,-123 67.5,-144 101.5,-144 101.5,-123 67.5,-123"/>
<text text-anchor="start" x="79.5" y="-129.8" font-family="Times,serif" font-size="14.00">8</text>
<polygon fill="none" stroke="black" points="101.5,-123 101.5,-144 228.5,-144 228.5,-123 101.5,-123"/>
<polygon fill="none" stroke="black" points="228.5,-123 228.5,-144 367.5,-144 367.5,-123 228.5,-123"/>
<text text-anchor="start" x="276.5" y="-129.8" font-family="Times,serif" font-size="14.00">magic</text>
<polygon fill="none" stroke="black" points="24.5,-102 24.5,-123 67.5,-123 67.5,-102 24.5,-102"/>
<text text-anchor="start" x="41" y="-108.8" font-family="Times,serif" font-size="14.00">8</text>
<polygon fill="none" stroke="black" points="67.5,-102 67.5,-123 101.5,-123 101.5,-102 67.5,-102"/>
<text text-anchor="start" x="75" y="-108.8" font-family="Times,serif" font-size="14.00">36</text>
<polygon fill="none" stroke="black" points="101.5,-102 101.5,-123 228.5,-123 228.5,-102 101.5,-102"/>
<text text-anchor="start" x="104.5" y="-108.8" font-family="Times,serif" font-size="14.00">InstrumentEntry</text>
<polygon fill="none" stroke="black" points="228.5,-102 228.5,-123 367.5,-123 367.5,-102 228.5,-102"/>
<text text-anchor="start" x="254" y="-108.8" font-family="Times,serif" font-size="14.00">instruments</text>
<polygon fill="none" stroke="black" points="24.5,-81 24.5,-102 367.5,-102 367.5,-81 24.5,-81"/>
<text text-anchor="start" x="134.5" y="-87.8" font-family="Times,serif" font-size="14.00">repeat 175 times</text>
<polygon fill="none" stroke="black" points="24.5,-60 24.5,-81 67.5,-81 67.5,-60 24.5,-60"/>
<text text-anchor="start" x="27.5" y="-66.8" font-family="Times,serif" font-size="14.00">6308</text>
<polygon fill="none" stroke="black" points="67.5,-60 67.5,-81 101.5,-81 101.5,-60 67.5,-60"/>
<text text-anchor="start" x="75" y="-66.8" font-family="Times,serif" font-size="14.00">32</text>
<polygon fill="none" stroke="black" points="101.5,-60 101.5,-81 228.5,-81 228.5,-60 101.5,-60"/>
<text text-anchor="start" x="129" y="-66.8" font-family="Times,serif" font-size="14.00">str(ASCII)</text>
<polygon fill="none" stroke="black" points="228.5,-60 228.5,-81 367.5,-81 367.5,-60 228.5,-60"/>
<text text-anchor="start" x="231.5" y="-66.8" font-family="Times,serif" font-size="14.00">instrument_names</text>
<polygon fill="none" stroke="black" points="24.5,-39 24.5,-60 367.5,-60 367.5,-39 24.5,-39"/>
<text text-anchor="start" x="134.5" y="-45.8" font-family="Times,serif" font-size="14.00">repeat 175 times</text>
</g>
<!-- instrument_entry__seq -->
<g id="node2" class="node">
<title>instrument_entry__seq</title>
<polygon fill="#e0ffe0" stroke="transparent" points="419,-155 419,-176 450,-176 450,-155 419,-155"/>
<polygon fill="none" stroke="black" points="419,-155 419,-176 450,-176 450,-155 419,-155"/>
<text text-anchor="start" x="422" y="-161.8" font-family="Times,serif" font-size="14.00">pos</text>
<polygon fill="#e0ffe0" stroke="transparent" points="450,-155 450,-176 484,-176 484,-155 450,-155"/>
<polygon fill="none" stroke="black" points="450,-155 450,-176 484,-176 484,-155 450,-155"/>
<text text-anchor="start" x="453" y="-161.8" font-family="Times,serif" font-size="14.00">size</text>
<polygon fill="#e0ffe0" stroke="transparent" points="484,-155 484,-176 571,-176 571,-155 484,-155"/>
<polygon fill="none" stroke="black" points="484,-155 484,-176 571,-176 571,-155 484,-155"/>
<text text-anchor="start" x="511.5" y="-161.8" font-family="Times,serif" font-size="14.00">type</text>
<polygon fill="#e0ffe0" stroke="transparent" points="571,-155 571,-176 665,-176 665,-155 571,-155"/>
<polygon fill="none" stroke="black" points="571,-155 571,-176 665,-176 665,-155 571,-155"/>
<text text-anchor="start" x="611" y="-161.8" font-family="Times,serif" font-size="14.00">id</text>
<polygon fill="none" stroke="black" points="419,-134 419,-155 450,-155 450,-134 419,-134"/>
<text text-anchor="start" x="429.5" y="-140.8" font-family="Times,serif" font-size="14.00">0</text>
<polygon fill="none" stroke="black" points="450,-134 450,-155 484,-155 484,-134 450,-134"/>
<text text-anchor="start" x="462" y="-140.8" font-family="Times,serif" font-size="14.00">2</text>
<polygon fill="none" stroke="black" points="484,-134 484,-155 571,-155 571,-134 484,-134"/>
<text text-anchor="start" x="512" y="-140.8" font-family="Times,serif" font-size="14.00">u2le</text>
<polygon fill="none" stroke="black" points="571,-134 571,-155 665,-155 665,-134 571,-134"/>
<text text-anchor="start" x="601" y="-140.8" font-family="Times,serif" font-size="14.00">flags</text>
<polygon fill="none" stroke="black" points="419,-113 419,-134 450,-134 450,-113 419,-113"/>
<text text-anchor="start" x="429.5" y="-119.8" font-family="Times,serif" font-size="14.00">2</text>
<polygon fill="none" stroke="black" points="450,-113 450,-134 484,-134 484,-113 450,-113"/>
<text text-anchor="start" x="462" y="-119.8" font-family="Times,serif" font-size="14.00">1</text>
<polygon fill="none" stroke="black" points="484,-113 484,-134 571,-134 571,-113 484,-113"/>
<text text-anchor="start" x="518" y="-119.8" font-family="Times,serif" font-size="14.00">u1</text>
<polygon fill="none" stroke="black" points="571,-113 571,-134 665,-134 665,-113 571,-113"/>
<text text-anchor="start" x="588.5" y="-119.8" font-family="Times,serif" font-size="14.00">finetune</text>
<polygon fill="none" stroke="black" points="419,-92 419,-113 450,-113 450,-92 419,-92"/>
<text text-anchor="start" x="429.5" y="-98.8" font-family="Times,serif" font-size="14.00">3</text>
<polygon fill="none" stroke="black" points="450,-92 450,-113 484,-113 484,-92 450,-92"/>
<text text-anchor="start" x="462" y="-98.8" font-family="Times,serif" font-size="14.00">1</text>
<polygon fill="none" stroke="black" points="484,-92 484,-113 571,-113 571,-92 484,-92"/>
<text text-anchor="start" x="518" y="-98.8" font-family="Times,serif" font-size="14.00">u1</text>
<polygon fill="none" stroke="black" points="571,-92 571,-113 665,-113 665,-92 571,-92"/>
<text text-anchor="start" x="602" y="-98.8" font-family="Times,serif" font-size="14.00">note</text>
<polygon fill="none" stroke="black" points="419,-71 419,-92 450,-92 450,-71 419,-71"/>
<text text-anchor="start" x="429.5" y="-77.8" font-family="Times,serif" font-size="14.00">4</text>
<polygon fill="none" stroke="black" points="450,-71 450,-92 484,-92 484,-71 450,-71"/>
<text text-anchor="start" x="457.5" y="-77.8" font-family="Times,serif" font-size="14.00">16</text>
<polygon fill="none" stroke="black" points="484,-71 484,-92 571,-92 571,-71 484,-71"/>
<text text-anchor="start" x="487" y="-77.8" font-family="Times,serif" font-size="14.00">Instrument</text>
<polygon fill="none" stroke="black" points="571,-71 571,-92 665,-92 665,-71 571,-71"/>
<text text-anchor="start" x="574" y="-77.8" font-family="Times,serif" font-size="14.00">instruments</text>
<polygon fill="none" stroke="black" points="419,-50 419,-71 665,-71 665,-50 419,-50"/>
<text text-anchor="start" x="489.5" y="-56.8" font-family="Times,serif" font-size="14.00">repeat 2 times</text>
</g>
<!-- genmidi_op2__seq&#45;&gt;instrument_entry__seq -->
<g id="edge1" class="edge">
<title>genmidi_op2__seq:instruments_type&#45;&gt;instrument_entry__seq</title>
<path fill="none" stroke="black" stroke-width="2" d="M368.5,-113C378.83,-113 389.5,-113 400.24,-113"/>
<polygon fill="black" stroke="black" stroke-width="2" points="400.55,-116.5 410.55,-113 400.55,-109.5 400.55,-116.5"/>
</g>
<!-- instrument__seq -->
<g id="node3" class="node">
<title>instrument__seq</title>
<polygon fill="#e0ffe0" stroke="transparent" points="717,-133 717,-154 748,-154 748,-133 717,-133"/>
<polygon fill="none" stroke="black" points="717,-133 717,-154 748,-154 748,-133 717,-133"/>
<text text-anchor="start" x="720" y="-139.8" font-family="Times,serif" font-size="14.00">pos</text>
<polygon fill="#e0ffe0" stroke="transparent" points="748,-133 748,-154 782,-154 782,-133 748,-133"/>
<polygon fill="none" stroke="black" points="748,-133 748,-154 782,-154 782,-133 748,-133"/>
<text text-anchor="start" x="751" y="-139.8" font-family="Times,serif" font-size="14.00">size</text>
<polygon fill="#e0ffe0" stroke="transparent" points="782,-133 782,-154 869,-154 869,-133 782,-133"/>
<polygon fill="none" stroke="black" points="782,-133 782,-154 869,-154 869,-133 782,-133"/>
<text text-anchor="start" x="809.5" y="-139.8" font-family="Times,serif" font-size="14.00">type</text>
<polygon fill="#e0ffe0" stroke="transparent" points="869,-133 869,-154 947,-154 947,-133 869,-133"/>
<polygon fill="none" stroke="black" points="869,-133 869,-154 947,-154 947,-133 869,-133"/>
<text text-anchor="start" x="901" y="-139.8" font-family="Times,serif" font-size="14.00">id</text>
<polygon fill="none" stroke="black" points="717,-112 717,-133 748,-133 748,-112 717,-112"/>
<text text-anchor="start" x="727.5" y="-118.8" font-family="Times,serif" font-size="14.00">0</text>
<polygon fill="none" stroke="black" points="748,-112 748,-133 782,-133 782,-112 748,-112"/>
<text text-anchor="start" x="760" y="-118.8" font-family="Times,serif" font-size="14.00">6</text>
<polygon fill="none" stroke="black" points="782,-112 782,-133 869,-133 869,-112 782,-112"/>
<text text-anchor="start" x="785" y="-118.8" font-family="Times,serif" font-size="14.00">OpSettings</text>
<polygon fill="none" stroke="black" points="869,-112 869,-133 947,-133 947,-112 869,-112"/>
<text text-anchor="start" x="894.5" y="-118.8" font-family="Times,serif" font-size="14.00">op1</text>
<polygon fill="none" stroke="black" points="717,-91 717,-112 748,-112 748,-91 717,-91"/>
<text text-anchor="start" x="727.5" y="-97.8" font-family="Times,serif" font-size="14.00">6</text>
<polygon fill="none" stroke="black" points="748,-91 748,-112 782,-112 782,-91 748,-91"/>
<text text-anchor="start" x="760" y="-97.8" font-family="Times,serif" font-size="14.00">1</text>
<polygon fill="none" stroke="black" points="782,-91 782,-112 869,-112 869,-91 782,-91"/>
<text text-anchor="start" x="816" y="-97.8" font-family="Times,serif" font-size="14.00">u1</text>
<polygon fill="none" stroke="black" points="869,-91 869,-112 947,-112 947,-91 869,-91"/>
<text text-anchor="start" x="876" y="-97.8" font-family="Times,serif" font-size="14.00">feedback</text>
<polygon fill="none" stroke="black" points="717,-70 717,-91 748,-91 748,-70 717,-70"/>
<text text-anchor="start" x="727.5" y="-76.8" font-family="Times,serif" font-size="14.00">7</text>
<polygon fill="none" stroke="black" points="748,-70 748,-91 782,-91 782,-70 748,-70"/>
<text text-anchor="start" x="760" y="-76.8" font-family="Times,serif" font-size="14.00">6</text>
<polygon fill="none" stroke="black" points="782,-70 782,-91 869,-91 869,-70 782,-70"/>
<text text-anchor="start" x="785" y="-76.8" font-family="Times,serif" font-size="14.00">OpSettings</text>
<polygon fill="none" stroke="black" points="869,-70 869,-91 947,-91 947,-70 869,-70"/>
<text text-anchor="start" x="894.5" y="-76.8" font-family="Times,serif" font-size="14.00">op2</text>
<polygon fill="none" stroke="black" points="717,-49 717,-70 748,-70 748,-49 717,-49"/>
<text text-anchor="start" x="723" y="-55.8" font-family="Times,serif" font-size="14.00">13</text>
<polygon fill="none" stroke="black" points="748,-49 748,-70 782,-70 782,-49 748,-49"/>
<text text-anchor="start" x="760" y="-55.8" font-family="Times,serif" font-size="14.00">1</text>
<polygon fill="none" stroke="black" points="782,-49 782,-70 869,-70 869,-49 782,-49"/>
<text text-anchor="start" x="816" y="-55.8" font-family="Times,serif" font-size="14.00">u1</text>
<polygon fill="none" stroke="black" points="869,-49 869,-70 947,-70 947,-49 869,-49"/>
<text text-anchor="start" x="882" y="-55.8" font-family="Times,serif" font-size="14.00">unused</text>
<polygon fill="none" stroke="black" points="717,-28 717,-49 748,-49 748,-28 717,-28"/>
<text text-anchor="start" x="723" y="-34.8" font-family="Times,serif" font-size="14.00">14</text>
<polygon fill="none" stroke="black" points="748,-28 748,-49 782,-49 782,-28 748,-28"/>
<text text-anchor="start" x="760" y="-34.8" font-family="Times,serif" font-size="14.00">2</text>
<polygon fill="none" stroke="black" points="782,-28 782,-49 869,-49 869,-28 782,-28"/>
<text text-anchor="start" x="810.5" y="-34.8" font-family="Times,serif" font-size="14.00">s2le</text>
<polygon fill="none" stroke="black" points="869,-28 869,-49 947,-49 947,-28 869,-28"/>
<text text-anchor="start" x="872" y="-34.8" font-family="Times,serif" font-size="14.00">base_note</text>
</g>
<!-- instrument_entry__seq&#45;&gt;instrument__seq -->
<g id="edge2" class="edge">
<title>instrument_entry__seq:instruments_type&#45;&gt;instrument__seq</title>
<path fill="none" stroke="black" stroke-width="2" d="M666,-81C676.66,-81 687.69,-81.21 698.78,-81.57"/>
<polygon fill="black" stroke="black" stroke-width="2" points="698.84,-85.07 708.96,-81.94 699.09,-78.08 698.84,-85.07"/>
</g>
<!-- op_settings__seq -->
<g id="node4" class="node">
<title>op_settings__seq</title>
<polygon fill="#e0ffe0" stroke="transparent" points="999.5,-154 999.5,-175 1030.5,-175 1030.5,-154 999.5,-154"/>
<polygon fill="none" stroke="black" points="999.5,-154 999.5,-175 1030.5,-175 1030.5,-154 999.5,-154"/>
<text text-anchor="start" x="1002.5" y="-160.8" font-family="Times,serif" font-size="14.00">pos</text>
<polygon fill="#e0ffe0" stroke="transparent" points="1030.5,-154 1030.5,-175 1064.5,-175 1064.5,-154 1030.5,-154"/>
<polygon fill="none" stroke="black" points="1030.5,-154 1030.5,-175 1064.5,-175 1064.5,-154 1030.5,-154"/>
<text text-anchor="start" x="1033.5" y="-160.8" font-family="Times,serif" font-size="14.00">size</text>
<polygon fill="#e0ffe0" stroke="transparent" points="1064.5,-154 1064.5,-175 1102.5,-175 1102.5,-154 1064.5,-154"/>
<polygon fill="none" stroke="black" points="1064.5,-154 1064.5,-175 1102.5,-175 1102.5,-154 1064.5,-154"/>
<text text-anchor="start" x="1067.5" y="-160.8" font-family="Times,serif" font-size="14.00">type</text>
<polygon fill="#e0ffe0" stroke="transparent" points="1102.5,-154 1102.5,-175 1178.5,-175 1178.5,-154 1102.5,-154"/>
<polygon fill="none" stroke="black" points="1102.5,-154 1102.5,-175 1178.5,-175 1178.5,-154 1102.5,-154"/>
<text text-anchor="start" x="1133.5" y="-160.8" font-family="Times,serif" font-size="14.00">id</text>
<polygon fill="none" stroke="black" points="999.5,-133 999.5,-154 1030.5,-154 1030.5,-133 999.5,-133"/>
<text text-anchor="start" x="1010" y="-139.8" font-family="Times,serif" font-size="14.00">0</text>
<polygon fill="none" stroke="black" points="1030.5,-133 1030.5,-154 1064.5,-154 1064.5,-133 1030.5,-133"/>
<text text-anchor="start" x="1042.5" y="-139.8" font-family="Times,serif" font-size="14.00">1</text>
<polygon fill="none" stroke="black" points="1064.5,-133 1064.5,-154 1102.5,-154 1102.5,-133 1064.5,-133"/>
<text text-anchor="start" x="1074" y="-139.8" font-family="Times,serif" font-size="14.00">u1</text>
<polygon fill="none" stroke="black" points="1102.5,-133 1102.5,-154 1178.5,-154 1178.5,-133 1102.5,-133"/>
<text text-anchor="start" x="1105.5" y="-139.8" font-family="Times,serif" font-size="14.00">trem_vibr</text>
<polygon fill="none" stroke="black" points="999.5,-112 999.5,-133 1030.5,-133 1030.5,-112 999.5,-112"/>
<text text-anchor="start" x="1010" y="-118.8" font-family="Times,serif" font-size="14.00">1</text>
<polygon fill="none" stroke="black" points="1030.5,-112 1030.5,-133 1064.5,-133 1064.5,-112 1030.5,-112"/>
<text text-anchor="start" x="1042.5" y="-118.8" font-family="Times,serif" font-size="14.00">1</text>
<polygon fill="none" stroke="black" points="1064.5,-112 1064.5,-133 1102.5,-133 1102.5,-112 1064.5,-112"/>
<text text-anchor="start" x="1074" y="-118.8" font-family="Times,serif" font-size="14.00">u1</text>
<polygon fill="none" stroke="black" points="1102.5,-112 1102.5,-133 1178.5,-133 1178.5,-112 1102.5,-112"/>
<text text-anchor="start" x="1114.5" y="-118.8" font-family="Times,serif" font-size="14.00">att_dec</text>
<polygon fill="none" stroke="black" points="999.5,-91 999.5,-112 1030.5,-112 1030.5,-91 999.5,-91"/>
<text text-anchor="start" x="1010" y="-97.8" font-family="Times,serif" font-size="14.00">2</text>
<polygon fill="none" stroke="black" points="1030.5,-91 1030.5,-112 1064.5,-112 1064.5,-91 1030.5,-91"/>
<text text-anchor="start" x="1042.5" y="-97.8" font-family="Times,serif" font-size="14.00">1</text>
<polygon fill="none" stroke="black" points="1064.5,-91 1064.5,-112 1102.5,-112 1102.5,-91 1064.5,-91"/>
<text text-anchor="start" x="1074" y="-97.8" font-family="Times,serif" font-size="14.00">u1</text>
<polygon fill="none" stroke="black" points="1102.5,-91 1102.5,-112 1178.5,-112 1178.5,-91 1102.5,-91"/>
<text text-anchor="start" x="1112" y="-97.8" font-family="Times,serif" font-size="14.00">sust_rel</text>
<polygon fill="none" stroke="black" points="999.5,-70 999.5,-91 1030.5,-91 1030.5,-70 999.5,-70"/>
<text text-anchor="start" x="1010" y="-76.8" font-family="Times,serif" font-size="14.00">3</text>
<polygon fill="none" stroke="black" points="1030.5,-70 1030.5,-91 1064.5,-91 1064.5,-70 1030.5,-70"/>
<text text-anchor="start" x="1042.5" y="-76.8" font-family="Times,serif" font-size="14.00">1</text>
<polygon fill="none" stroke="black" points="1064.5,-70 1064.5,-91 1102.5,-91 1102.5,-70 1064.5,-70"/>
<text text-anchor="start" x="1074" y="-76.8" font-family="Times,serif" font-size="14.00">u1</text>
<polygon fill="none" stroke="black" points="1102.5,-70 1102.5,-91 1178.5,-91 1178.5,-70 1102.5,-70"/>
<text text-anchor="start" x="1122" y="-76.8" font-family="Times,serif" font-size="14.00">wave</text>
<polygon fill="none" stroke="black" points="999.5,-49 999.5,-70 1030.5,-70 1030.5,-49 999.5,-49"/>
<text text-anchor="start" x="1010" y="-55.8" font-family="Times,serif" font-size="14.00">4</text>
<polygon fill="none" stroke="black" points="1030.5,-49 1030.5,-70 1064.5,-70 1064.5,-49 1030.5,-49"/>
<text text-anchor="start" x="1042.5" y="-55.8" font-family="Times,serif" font-size="14.00">1</text>
<polygon fill="none" stroke="black" points="1064.5,-49 1064.5,-70 1102.5,-70 1102.5,-49 1064.5,-49"/>
<text text-anchor="start" x="1074" y="-55.8" font-family="Times,serif" font-size="14.00">u1</text>
<polygon fill="none" stroke="black" points="1102.5,-49 1102.5,-70 1178.5,-70 1178.5,-49 1102.5,-49"/>
<text text-anchor="start" x="1122" y="-55.8" font-family="Times,serif" font-size="14.00">scale</text>
<polygon fill="none" stroke="black" points="999.5,-28 999.5,-49 1030.5,-49 1030.5,-28 999.5,-28"/>
<text text-anchor="start" x="1010" y="-34.8" font-family="Times,serif" font-size="14.00">5</text>
<polygon fill="none" stroke="black" points="1030.5,-28 1030.5,-49 1064.5,-49 1064.5,-28 1030.5,-28"/>
<text text-anchor="start" x="1042.5" y="-34.8" font-family="Times,serif" font-size="14.00">1</text>
<polygon fill="none" stroke="black" points="1064.5,-28 1064.5,-49 1102.5,-49 1102.5,-28 1064.5,-28"/>
<text text-anchor="start" x="1074" y="-34.8" font-family="Times,serif" font-size="14.00">u1</text>
<polygon fill="none" stroke="black" points="1102.5,-28 1102.5,-49 1178.5,-49 1178.5,-28 1102.5,-28"/>
<text text-anchor="start" x="1123.5" y="-34.8" font-family="Times,serif" font-size="14.00">level</text>
</g>
<!-- instrument__seq&#45;&gt;op_settings__seq -->
<g id="edge3" class="edge">
<title>instrument__seq:op1_type&#45;&gt;op_settings__seq</title>
<path fill="none" stroke="black" stroke-width="2" d="M948,-123C958.69,-123 969.79,-122.39 980.84,-121.38"/>
<polygon fill="black" stroke="black" stroke-width="2" points="981.38,-124.84 990.97,-120.34 980.67,-117.88 981.38,-124.84"/>
</g>
<!-- instrument__seq&#45;&gt;op_settings__seq -->
<g id="edge4" class="edge">
<title>instrument__seq:op2_type&#45;&gt;op_settings__seq</title>
<path fill="none" stroke="black" stroke-width="2" d="M948,-80C958.61,-80 969.61,-80.63 980.58,-81.67"/>
<polygon fill="black" stroke="black" stroke-width="2" points="980.31,-85.16 990.62,-82.74 981.05,-78.2 980.31,-85.16"/>
</g>
</g>
</svg>
