<?xml version="1.0" encoding="UTF-8" standalone="no"?>
<!DOCTYPE svg PUBLIC "-//W3C//DTD SVG 1.1//EN"
 "http://www.w3.org/Graphics/SVG/1.1/DTD/svg11.dtd">
<!-- Generated by graphviz version 2.43.0 (0)
 -->
<!-- Title: %3 Pages: 1 -->
<svg width="1431pt" height="672pt"
 viewBox="0.00 0.00 1431.00 672.00" xmlns="http://www.w3.org/2000/svg" xmlns:xlink="http://www.w3.org/1999/xlink">
<g id="graph0" class="graph" transform="scale(1 1) rotate(0) translate(4 668)">
<title>%3</title>
<polygon fill="white" stroke="transparent" points="-4,4 -4,-668 1427,-668 1427,4 -4,4"/>
<g id="clust1" class="cluster">
<title>cluster__asn1_der</title>
<polygon fill="none" stroke="black" stroke-dasharray="1,5" points="8,-8 8,-656 1415,-656 1415,-8 8,-8"/>
<text text-anchor="middle" x="711.5" y="-640.8" font-family="Times,serif" font-size="14.00">Asn1Der</text>
</g>
<g id="clust2" class="cluster">
<title>cluster__body_sequence</title>
<polygon fill="none" stroke="black" stroke-dasharray="1,5" points="812,-278 812,-389 1034,-389 1034,-278 812,-278"/>
<text text-anchor="middle" x="923" y="-373.8" font-family="Times,serif" font-size="14.00">Asn1Der::BodySequence</text>
</g>
<g id="clust3" class="cluster">
<title>cluster__body_utf8string</title>
<polygon fill="none" stroke="black" stroke-dasharray="1,5" points="820.5,-181 820.5,-270 1025.5,-270 1025.5,-181 820.5,-181"/>
<text text-anchor="middle" x="923" y="-254.8" font-family="Times,serif" font-size="14.00">Asn1Der::BodyUtf8string</text>
</g>
<g id="clust4" class="cluster">
<title>cluster__body_object_id</title>
<polygon fill="none" stroke="black" stroke-dasharray="1,5" points="793,-16 793,-173 1407,-173 1407,-16 793,-16"/>
<text text-anchor="middle" x="1100" y="-157.8" font-family="Times,serif" font-size="14.00">Asn1Der::BodyObjectId</text>
</g>
<g id="clust5" class="cluster">
<title>cluster__len_encoded</title>
<polygon fill="none" stroke="black" stroke-dasharray="1,5" points="426,-494 426,-625 1123,-625 1123,-494 426,-494"/>
<text text-anchor="middle" x="774.5" y="-609.8" font-family="Times,serif" font-size="14.00">Asn1Der::LenEncoded</text>
</g>
<g id="clust6" class="cluster">
<title>cluster__body_printable_string</title>
<polygon fill="none" stroke="black" stroke-dasharray="1,5" points="806,-397 806,-486 1040,-486 1040,-397 806,-397"/>
<text text-anchor="middle" x="923" y="-470.8" font-family="Times,serif" font-size="14.00">Asn1Der::BodyPrintableString</text>
</g>
<!-- asn1_der__seq -->
<g id="node1" class="node">
<title>asn1_der__seq</title>
<polygon fill="#e0ffe0" stroke="transparent" points="24.5,-386 24.5,-407 55.5,-407 55.5,-386 24.5,-386"/>
<polygon fill="none" stroke="black" points="24.5,-386 24.5,-407 55.5,-407 55.5,-386 24.5,-386"/>
<text text-anchor="start" x="27.5" y="-392.8" font-family="Times,serif" font-size="14.00">pos</text>
<polygon fill="#e0ffe0" stroke="transparent" points="55.5,-386 55.5,-407 89.5,-407 89.5,-386 55.5,-386"/>
<polygon fill="none" stroke="black" points="55.5,-386 55.5,-407 89.5,-407 89.5,-386 55.5,-386"/>
<text text-anchor="start" x="58.5" y="-392.8" font-family="Times,serif" font-size="14.00">size</text>
<polygon fill="#e0ffe0" stroke="transparent" points="89.5,-386 89.5,-407 219.5,-407 219.5,-386 89.5,-386"/>
<polygon fill="none" stroke="black" points="89.5,-386 89.5,-407 219.5,-407 219.5,-386 89.5,-386"/>
<text text-anchor="start" x="138.5" y="-392.8" font-family="Times,serif" font-size="14.00">type</text>
<polygon fill="#e0ffe0" stroke="transparent" points="219.5,-386 219.5,-407 287.5,-407 287.5,-386 219.5,-386"/>
<polygon fill="none" stroke="black" points="219.5,-386 219.5,-407 287.5,-407 287.5,-386 219.5,-386"/>
<text text-anchor="start" x="246.5" y="-392.8" font-family="Times,serif" font-size="14.00">id</text>
<polygon fill="none" stroke="black" points="24.5,-365 24.5,-386 55.5,-386 55.5,-365 24.5,-365"/>
<text text-anchor="start" x="35" y="-371.8" font-family="Times,serif" font-size="14.00">0</text>
<polygon fill="none" stroke="black" points="55.5,-365 55.5,-386 89.5,-386 89.5,-365 55.5,-365"/>
<text text-anchor="start" x="67.5" y="-371.8" font-family="Times,serif" font-size="14.00">1</text>
<polygon fill="none" stroke="black" points="89.5,-365 89.5,-386 219.5,-386 219.5,-365 89.5,-365"/>
<text text-anchor="start" x="109" y="-371.8" font-family="Times,serif" font-size="14.00">u1→TypeTag</text>
<polygon fill="none" stroke="black" points="219.5,-365 219.5,-386 287.5,-386 287.5,-365 219.5,-365"/>
<text text-anchor="start" x="222.5" y="-371.8" font-family="Times,serif" font-size="14.00">type_tag</text>
<polygon fill="none" stroke="black" points="24.5,-344 24.5,-365 55.5,-365 55.5,-344 24.5,-344"/>
<text text-anchor="start" x="35" y="-350.8" font-family="Times,serif" font-size="14.00">1</text>
<polygon fill="none" stroke="black" points="55.5,-344 55.5,-365 89.5,-365 89.5,-344 55.5,-344"/>
<text text-anchor="start" x="67.5" y="-350.8" font-family="Times,serif" font-size="14.00">4</text>
<polygon fill="none" stroke="black" points="89.5,-344 89.5,-365 219.5,-365 219.5,-344 89.5,-344"/>
<text text-anchor="start" x="110.5" y="-350.8" font-family="Times,serif" font-size="14.00">LenEncoded</text>
<polygon fill="none" stroke="black" points="219.5,-344 219.5,-365 287.5,-365 287.5,-344 219.5,-344"/>
<text text-anchor="start" x="242.5" y="-350.8" font-family="Times,serif" font-size="14.00">len</text>
<polygon fill="none" stroke="black" points="24.5,-323 24.5,-344 55.5,-344 55.5,-323 24.5,-323"/>
<text text-anchor="start" x="35" y="-329.8" font-family="Times,serif" font-size="14.00">5</text>
<polygon fill="none" stroke="black" points="55.5,-323 55.5,-344 89.5,-344 89.5,-323 55.5,-323"/>
<text text-anchor="start" x="65.5" y="-329.8" font-family="Times,serif" font-size="14.00">...</text>
<polygon fill="none" stroke="black" points="89.5,-323 89.5,-344 219.5,-344 219.5,-323 89.5,-323"/>
<text text-anchor="start" x="92.5" y="-329.8" font-family="Times,serif" font-size="14.00">switch (type_tag)</text>
<polygon fill="none" stroke="black" points="219.5,-323 219.5,-344 287.5,-344 287.5,-323 219.5,-323"/>
<text text-anchor="start" x="236" y="-329.8" font-family="Times,serif" font-size="14.00">body</text>
</g>
<!-- asn1_der__seq&#45;&gt;asn1_der__seq -->
<g id="edge9" class="edge">
<title>asn1_der__seq:type_tag_type&#45;&gt;asn1_der__seq:body_type</title>
<path fill="none" stroke="#404040" d="M219.75,-386.05C166.46,-406.04 177.71,-429 253.5,-429 326.46,-429 339.61,-378.82 292.95,-348.98"/>
<polygon fill="#404040" stroke="#404040" points="294.67,-345.94 284.25,-344.02 291.2,-352.02 294.67,-345.94"/>
</g>
<!-- asn1_der__seq_body_switch -->
<g id="node2" class="node">
<title>asn1_der__seq_body_switch</title>
<polygon fill="#f0f2e4" stroke="transparent" points="339,-385 339,-406 533,-406 533,-385 339,-385"/>
<polygon fill="none" stroke="black" points="339,-385 339,-406 533,-406 533,-385 339,-385"/>
<text text-anchor="start" x="420" y="-391.8" font-family="Times,serif" font-size="14.00">case</text>
<polygon fill="#f0f2e4" stroke="transparent" points="533,-385 533,-406 687,-406 687,-385 533,-385"/>
<polygon fill="none" stroke="black" points="533,-385 533,-406 687,-406 687,-385 533,-385"/>
<text text-anchor="start" x="594" y="-391.8" font-family="Times,serif" font-size="14.00">type</text>
<polygon fill="none" stroke="black" points="339,-364 339,-385 533,-385 533,-364 339,-364"/>
<text text-anchor="start" x="342" y="-370.8" font-family="Times,serif" font-size="14.00">:type_tag_printable_string</text>
<polygon fill="none" stroke="black" points="533,-364 533,-385 687,-385 687,-364 533,-364"/>
<text text-anchor="start" x="536" y="-370.8" font-family="Times,serif" font-size="14.00">BodyPrintableString</text>
<polygon fill="none" stroke="black" points="339,-343 339,-364 533,-364 533,-343 339,-343"/>
<text text-anchor="start" x="353.5" y="-349.8" font-family="Times,serif" font-size="14.00">:type_tag_sequence_10</text>
<polygon fill="none" stroke="black" points="533,-343 533,-364 687,-364 687,-343 533,-343"/>
<text text-anchor="start" x="557" y="-349.8" font-family="Times,serif" font-size="14.00">BodySequence</text>
<polygon fill="none" stroke="black" points="339,-322 339,-343 533,-343 533,-322 339,-322"/>
<text text-anchor="start" x="388.5" y="-328.8" font-family="Times,serif" font-size="14.00">:type_tag_set</text>
<polygon fill="none" stroke="black" points="533,-322 533,-343 687,-343 687,-322 533,-322"/>
<text text-anchor="start" x="557" y="-328.8" font-family="Times,serif" font-size="14.00">BodySequence</text>
<polygon fill="none" stroke="black" points="339,-301 339,-322 533,-322 533,-301 339,-301"/>
<text text-anchor="start" x="353.5" y="-307.8" font-family="Times,serif" font-size="14.00">:type_tag_sequence_30</text>
<polygon fill="none" stroke="black" points="533,-301 533,-322 687,-322 687,-301 533,-301"/>
<text text-anchor="start" x="557" y="-307.8" font-family="Times,serif" font-size="14.00">BodySequence</text>
<polygon fill="none" stroke="black" points="339,-280 339,-301 533,-301 533,-280 339,-280"/>
<text text-anchor="start" x="363.5" y="-286.8" font-family="Times,serif" font-size="14.00">:type_tag_utf8string</text>
<polygon fill="none" stroke="black" points="533,-280 533,-301 687,-301 687,-280 533,-280"/>
<text text-anchor="start" x="554" y="-286.8" font-family="Times,serif" font-size="14.00">BodyUtf8string</text>
<polygon fill="none" stroke="black" points="339,-259 339,-280 533,-280 533,-259 339,-259"/>
<text text-anchor="start" x="367.5" y="-265.8" font-family="Times,serif" font-size="14.00">:type_tag_object_id</text>
<polygon fill="none" stroke="black" points="533,-259 533,-280 687,-280 687,-259 533,-259"/>
<text text-anchor="start" x="561.5" y="-265.8" font-family="Times,serif" font-size="14.00">BodyObjectId</text>
</g>
<!-- asn1_der__seq&#45;&gt;asn1_der__seq_body_switch -->
<g id="edge2" class="edge">
<title>asn1_der__seq:body_type&#45;&gt;asn1_der__seq_body_switch</title>
<path fill="none" stroke="black" stroke-width="2" d="M288.5,-333C299.05,-333 309.87,-333 320.8,-333"/>
<polygon fill="black" stroke="black" stroke-width="2" points="320.86,-336.5 330.86,-333 320.86,-329.5 320.86,-336.5"/>
</g>
<!-- len_encoded__seq -->
<g id="node8" class="node">
<title>len_encoded__seq</title>
<polygon fill="#e0ffe0" stroke="transparent" points="442,-569 442,-590 473,-590 473,-569 442,-569"/>
<polygon fill="none" stroke="black" points="442,-569 442,-590 473,-590 473,-569 442,-569"/>
<text text-anchor="start" x="445" y="-575.8" font-family="Times,serif" font-size="14.00">pos</text>
<polygon fill="#e0ffe0" stroke="transparent" points="473,-569 473,-590 507,-590 507,-569 473,-569"/>
<polygon fill="none" stroke="black" points="473,-569 473,-590 507,-590 507,-569 473,-569"/>
<text text-anchor="start" x="476" y="-575.8" font-family="Times,serif" font-size="14.00">size</text>
<polygon fill="#e0ffe0" stroke="transparent" points="507,-569 507,-590 549,-590 549,-569 507,-569"/>
<polygon fill="none" stroke="black" points="507,-569 507,-590 549,-590 549,-569 507,-569"/>
<text text-anchor="start" x="512" y="-575.8" font-family="Times,serif" font-size="14.00">type</text>
<polygon fill="#e0ffe0" stroke="transparent" points="549,-569 549,-590 584,-590 584,-569 549,-569"/>
<polygon fill="none" stroke="black" points="549,-569 549,-590 584,-590 584,-569 549,-569"/>
<text text-anchor="start" x="559.5" y="-575.8" font-family="Times,serif" font-size="14.00">id</text>
<polygon fill="none" stroke="black" points="442,-548 442,-569 473,-569 473,-548 442,-548"/>
<text text-anchor="start" x="452.5" y="-554.8" font-family="Times,serif" font-size="14.00">0</text>
<polygon fill="none" stroke="black" points="473,-548 473,-569 507,-569 507,-548 473,-548"/>
<text text-anchor="start" x="485" y="-554.8" font-family="Times,serif" font-size="14.00">1</text>
<polygon fill="none" stroke="black" points="507,-548 507,-569 549,-569 549,-548 507,-548"/>
<text text-anchor="start" x="518.5" y="-554.8" font-family="Times,serif" font-size="14.00">u1</text>
<polygon fill="none" stroke="black" points="549,-548 549,-569 584,-569 584,-548 549,-548"/>
<text text-anchor="start" x="557" y="-554.8" font-family="Times,serif" font-size="14.00">b1</text>
<polygon fill="none" stroke="black" points="442,-527 442,-548 473,-548 473,-527 442,-527"/>
<text text-anchor="start" x="452.5" y="-533.8" font-family="Times,serif" font-size="14.00">1</text>
<polygon fill="none" stroke="black" points="473,-527 473,-548 507,-548 507,-527 473,-527"/>
<text text-anchor="start" x="485" y="-533.8" font-family="Times,serif" font-size="14.00">2</text>
<polygon fill="none" stroke="black" points="507,-527 507,-548 549,-548 549,-527 507,-527"/>
<text text-anchor="start" x="510" y="-533.8" font-family="Times,serif" font-size="14.00">u2be</text>
<polygon fill="none" stroke="black" points="549,-527 549,-548 584,-548 584,-527 549,-527"/>
<text text-anchor="start" x="552" y="-533.8" font-family="Times,serif" font-size="14.00">int2</text>
<polygon fill="none" stroke="black" points="442,-506 442,-527 473,-527 473,-506 442,-506"/>
<text text-anchor="start" x="452.5" y="-512.8" font-family="Times,serif" font-size="14.00">3</text>
<polygon fill="none" stroke="black" points="473,-506 473,-527 507,-527 507,-506 473,-506"/>
<text text-anchor="start" x="485" y="-512.8" font-family="Times,serif" font-size="14.00">1</text>
<polygon fill="none" stroke="black" points="507,-506 507,-527 549,-527 549,-506 507,-506"/>
<text text-anchor="start" x="518.5" y="-512.8" font-family="Times,serif" font-size="14.00">u1</text>
<polygon fill="none" stroke="black" points="549,-506 549,-527 584,-527 584,-506 549,-506"/>
<text text-anchor="start" x="552" y="-512.8" font-family="Times,serif" font-size="14.00">int1</text>
</g>
<!-- asn1_der__seq&#45;&gt;len_encoded__seq -->
<g id="edge1" class="edge">
<title>asn1_der__seq:len_type&#45;&gt;len_encoded__seq</title>
<path fill="none" stroke="black" stroke-width="2" d="M288.5,-354C355.23,-354 283.4,-451.23 331,-498 355.65,-522.23 390.94,-534.96 423.81,-541.57"/>
<polygon fill="black" stroke="black" stroke-width="2" points="423.46,-545.06 433.92,-543.43 424.72,-538.18 423.46,-545.06"/>
</g>
<!-- body_sequence__seq -->
<g id="node3" class="node">
<title>body_sequence__seq</title>
<polygon fill="#e0ffe0" stroke="transparent" points="828,-332 828,-353 859,-353 859,-332 828,-332"/>
<polygon fill="none" stroke="black" points="828,-332 828,-353 859,-353 859,-332 828,-332"/>
<text text-anchor="start" x="831" y="-338.8" font-family="Times,serif" font-size="14.00">pos</text>
<polygon fill="#e0ffe0" stroke="transparent" points="859,-332 859,-353 893,-353 893,-332 859,-332"/>
<polygon fill="none" stroke="black" points="859,-332 859,-353 893,-353 893,-332 859,-332"/>
<text text-anchor="start" x="862" y="-338.8" font-family="Times,serif" font-size="14.00">size</text>
<polygon fill="#e0ffe0" stroke="transparent" points="893,-332 893,-353 961,-353 961,-332 893,-332"/>
<polygon fill="none" stroke="black" points="893,-332 893,-353 961,-353 961,-332 893,-332"/>
<text text-anchor="start" x="911" y="-338.8" font-family="Times,serif" font-size="14.00">type</text>
<polygon fill="#e0ffe0" stroke="transparent" points="961,-332 961,-353 1018,-353 1018,-332 961,-332"/>
<polygon fill="none" stroke="black" points="961,-332 961,-353 1018,-353 1018,-332 961,-332"/>
<text text-anchor="start" x="982.5" y="-338.8" font-family="Times,serif" font-size="14.00">id</text>
<polygon fill="none" stroke="black" points="828,-311 828,-332 859,-332 859,-311 828,-311"/>
<text text-anchor="start" x="838.5" y="-317.8" font-family="Times,serif" font-size="14.00">0</text>
<polygon fill="none" stroke="black" points="859,-311 859,-332 893,-332 893,-311 859,-311"/>
<text text-anchor="start" x="869" y="-317.8" font-family="Times,serif" font-size="14.00">...</text>
<polygon fill="none" stroke="black" points="893,-311 893,-332 961,-332 961,-311 893,-311"/>
<text text-anchor="start" x="896" y="-317.8" font-family="Times,serif" font-size="14.00">Asn1Der</text>
<polygon fill="none" stroke="black" points="961,-311 961,-332 1018,-332 1018,-311 961,-311"/>
<text text-anchor="start" x="964" y="-317.8" font-family="Times,serif" font-size="14.00">entries</text>
<polygon fill="none" stroke="black" points="828,-290 828,-311 1018,-311 1018,-290 828,-290"/>
<text text-anchor="start" x="838.5" y="-296.8" font-family="Times,serif" font-size="14.00">repeat to end of stream</text>
</g>
<!-- asn1_der__seq_body_switch&#45;&gt;body_sequence__seq -->
<g id="edge4" class="edge">
<title>asn1_der__seq_body_switch:case1&#45;&gt;body_sequence__seq</title>
<path fill="none" stroke="black" stroke-width="2" d="M688,-354C727.9,-354 771.27,-349.38 809.72,-343.65"/>
<polygon fill="black" stroke="black" stroke-width="2" points="810.54,-347.06 819.9,-342.08 809.48,-340.14 810.54,-347.06"/>
</g>
<!-- asn1_der__seq_body_switch&#45;&gt;body_sequence__seq -->
<g id="edge5" class="edge">
<title>asn1_der__seq_body_switch:case2&#45;&gt;body_sequence__seq</title>
<path fill="none" stroke="black" stroke-width="2" d="M688,-332C727.66,-332 771.07,-330.55 809.61,-328.75"/>
<polygon fill="black" stroke="black" stroke-width="2" points="809.99,-332.24 819.82,-328.26 809.66,-325.24 809.99,-332.24"/>
</g>
<!-- asn1_der__seq_body_switch&#45;&gt;body_sequence__seq -->
<g id="edge6" class="edge">
<title>asn1_der__seq_body_switch:case3&#45;&gt;body_sequence__seq</title>
<path fill="none" stroke="black" stroke-width="2" d="M688,-311C727.67,-311 771.07,-312.6 809.61,-314.57"/>
<polygon fill="black" stroke="black" stroke-width="2" points="809.65,-318.08 819.82,-315.11 810.02,-311.09 809.65,-318.08"/>
</g>
<!-- body_utf8string__seq -->
<g id="node4" class="node">
<title>body_utf8string__seq</title>
<polygon fill="#e0ffe0" stroke="transparent" points="837,-214 837,-235 868,-235 868,-214 837,-214"/>
<polygon fill="none" stroke="black" points="837,-214 837,-235 868,-235 868,-214 837,-214"/>
<text text-anchor="start" x="840" y="-220.8" font-family="Times,serif" font-size="14.00">pos</text>
<polygon fill="#e0ffe0" stroke="transparent" points="868,-214 868,-235 902,-235 902,-214 868,-214"/>
<polygon fill="none" stroke="black" points="868,-214 868,-235 902,-235 902,-214 868,-214"/>
<text text-anchor="start" x="871" y="-220.8" font-family="Times,serif" font-size="14.00">size</text>
<polygon fill="#e0ffe0" stroke="transparent" points="902,-214 902,-235 983,-235 983,-214 902,-214"/>
<polygon fill="none" stroke="black" points="902,-214 902,-235 983,-235 983,-214 902,-214"/>
<text text-anchor="start" x="926.5" y="-220.8" font-family="Times,serif" font-size="14.00">type</text>
<polygon fill="#e0ffe0" stroke="transparent" points="983,-214 983,-235 1010,-235 1010,-214 983,-214"/>
<polygon fill="none" stroke="black" points="983,-214 983,-235 1010,-235 1010,-214 983,-214"/>
<text text-anchor="start" x="989.5" y="-220.8" font-family="Times,serif" font-size="14.00">id</text>
<polygon fill="none" stroke="black" points="837,-193 837,-214 868,-214 868,-193 837,-193"/>
<text text-anchor="start" x="847.5" y="-199.8" font-family="Times,serif" font-size="14.00">0</text>
<polygon fill="none" stroke="black" points="868,-193 868,-214 902,-214 902,-193 868,-193"/>
<text text-anchor="start" x="878.5" y="-199.8" font-family="Times,serif" font-size="14.00">⇲</text>
<polygon fill="none" stroke="black" points="902,-193 902,-214 983,-214 983,-193 902,-193"/>
<text text-anchor="start" x="905" y="-199.8" font-family="Times,serif" font-size="14.00">str(UTF&#45;8)</text>
<polygon fill="none" stroke="black" points="983,-193 983,-214 1010,-214 1010,-193 983,-193"/>
<text text-anchor="start" x="986" y="-199.8" font-family="Times,serif" font-size="14.00">str</text>
</g>
<!-- asn1_der__seq_body_switch&#45;&gt;body_utf8string__seq -->
<g id="edge7" class="edge">
<title>asn1_der__seq_body_switch:case4&#45;&gt;body_utf8string__seq</title>
<path fill="none" stroke="black" stroke-width="2" d="M688,-290C708.39,-290 711.71,-280.61 731,-274 762.88,-263.07 798.02,-251.81 829.36,-242.04"/>
<polygon fill="black" stroke="black" stroke-width="2" points="830.45,-245.37 838.96,-239.06 828.37,-238.68 830.45,-245.37"/>
</g>
<!-- body_object_id__seq -->
<g id="node5" class="node">
<title>body_object_id__seq</title>
<polygon fill="#e0ffe0" stroke="transparent" points="809,-116 809,-137 840,-137 840,-116 809,-116"/>
<polygon fill="none" stroke="black" points="809,-116 809,-137 840,-137 840,-116 809,-116"/>
<text text-anchor="start" x="812" y="-122.8" font-family="Times,serif" font-size="14.00">pos</text>
<polygon fill="#e0ffe0" stroke="transparent" points="840,-116 840,-137 874,-137 874,-116 840,-116"/>
<polygon fill="none" stroke="black" points="840,-116 840,-137 874,-137 874,-116 840,-116"/>
<text text-anchor="start" x="843" y="-122.8" font-family="Times,serif" font-size="14.00">size</text>
<polygon fill="#e0ffe0" stroke="transparent" points="874,-116 874,-137 912,-137 912,-116 874,-116"/>
<polygon fill="none" stroke="black" points="874,-116 874,-137 912,-137 912,-116 874,-116"/>
<text text-anchor="start" x="877" y="-122.8" font-family="Times,serif" font-size="14.00">type</text>
<polygon fill="#e0ffe0" stroke="transparent" points="912,-116 912,-137 1037,-137 1037,-116 912,-116"/>
<polygon fill="none" stroke="black" points="912,-116 912,-137 1037,-137 1037,-116 912,-116"/>
<text text-anchor="start" x="967.5" y="-122.8" font-family="Times,serif" font-size="14.00">id</text>
<polygon fill="none" stroke="black" points="809,-95 809,-116 840,-116 840,-95 809,-95"/>
<text text-anchor="start" x="819.5" y="-101.8" font-family="Times,serif" font-size="14.00">0</text>
<polygon fill="none" stroke="black" points="840,-95 840,-116 874,-116 874,-95 840,-95"/>
<text text-anchor="start" x="852" y="-101.8" font-family="Times,serif" font-size="14.00">1</text>
<polygon fill="none" stroke="black" points="874,-95 874,-116 912,-116 912,-95 874,-95"/>
<text text-anchor="start" x="883.5" y="-101.8" font-family="Times,serif" font-size="14.00">u1</text>
<polygon fill="none" stroke="black" points="912,-95 912,-116 1037,-116 1037,-95 912,-95"/>
<text text-anchor="start" x="915" y="-101.8" font-family="Times,serif" font-size="14.00">first_and_second</text>
<polygon fill="none" stroke="black" points="809,-74 809,-95 840,-95 840,-74 809,-74"/>
<text text-anchor="start" x="819.5" y="-80.8" font-family="Times,serif" font-size="14.00">1</text>
<polygon fill="none" stroke="black" points="840,-74 840,-95 874,-95 874,-74 840,-74"/>
<text text-anchor="start" x="850.5" y="-80.8" font-family="Times,serif" font-size="14.00">⇲</text>
<polygon fill="none" stroke="black" points="874,-74 874,-95 912,-95 912,-74 874,-74"/>
<polygon fill="none" stroke="black" points="912,-74 912,-95 1037,-95 1037,-74 912,-74"/>
<text text-anchor="start" x="960" y="-80.8" font-family="Times,serif" font-size="14.00">rest</text>
</g>
<!-- asn1_der__seq_body_switch&#45;&gt;body_object_id__seq -->
<g id="edge8" class="edge">
<title>asn1_der__seq_body_switch:case5&#45;&gt;body_object_id__seq</title>
<path fill="none" stroke="black" stroke-width="2" d="M688,-269C733.13,-269 697.81,-207.59 731,-177 748.3,-161.05 769.5,-148.6 791.4,-138.91"/>
<polygon fill="black" stroke="black" stroke-width="2" points="792.98,-142.04 800.83,-134.92 790.25,-135.59 792.98,-142.04"/>
</g>
<!-- body_printable_string__seq -->
<g id="node10" class="node">
<title>body_printable_string__seq</title>
<polygon fill="#e0ffe0" stroke="transparent" points="838,-430 838,-451 869,-451 869,-430 838,-430"/>
<polygon fill="none" stroke="black" points="838,-430 838,-451 869,-451 869,-430 838,-430"/>
<text text-anchor="start" x="841" y="-436.8" font-family="Times,serif" font-size="14.00">pos</text>
<polygon fill="#e0ffe0" stroke="transparent" points="869,-430 869,-451 903,-451 903,-430 869,-430"/>
<polygon fill="none" stroke="black" points="869,-430 869,-451 903,-451 903,-430 869,-430"/>
<text text-anchor="start" x="872" y="-436.8" font-family="Times,serif" font-size="14.00">size</text>
<polygon fill="#e0ffe0" stroke="transparent" points="903,-430 903,-451 981,-451 981,-430 903,-430"/>
<polygon fill="none" stroke="black" points="903,-430 903,-451 981,-451 981,-430 903,-430"/>
<text text-anchor="start" x="926" y="-436.8" font-family="Times,serif" font-size="14.00">type</text>
<polygon fill="#e0ffe0" stroke="transparent" points="981,-430 981,-451 1008,-451 1008,-430 981,-430"/>
<polygon fill="none" stroke="black" points="981,-430 981,-451 1008,-451 1008,-430 981,-430"/>
<text text-anchor="start" x="987.5" y="-436.8" font-family="Times,serif" font-size="14.00">id</text>
<polygon fill="none" stroke="black" points="838,-409 838,-430 869,-430 869,-409 838,-409"/>
<text text-anchor="start" x="848.5" y="-415.8" font-family="Times,serif" font-size="14.00">0</text>
<polygon fill="none" stroke="black" points="869,-409 869,-430 903,-430 903,-409 869,-409"/>
<text text-anchor="start" x="879.5" y="-415.8" font-family="Times,serif" font-size="14.00">⇲</text>
<polygon fill="none" stroke="black" points="903,-409 903,-430 981,-430 981,-409 903,-409"/>
<text text-anchor="start" x="906" y="-415.8" font-family="Times,serif" font-size="14.00">str(ASCII)</text>
<polygon fill="none" stroke="black" points="981,-409 981,-430 1008,-430 1008,-409 981,-409"/>
<text text-anchor="start" x="984" y="-415.8" font-family="Times,serif" font-size="14.00">str</text>
</g>
<!-- asn1_der__seq_body_switch&#45;&gt;body_printable_string__seq -->
<g id="edge3" class="edge">
<title>asn1_der__seq_body_switch:case0&#45;&gt;body_printable_string__seq</title>
<path fill="none" stroke="black" stroke-width="2" d="M688,-375C708.72,-375 711.17,-387 731,-393 759.34,-401.58 790.67,-408.62 819.61,-414.17"/>
<polygon fill="black" stroke="black" stroke-width="2" points="819.27,-417.67 829.74,-416.07 820.56,-410.79 819.27,-417.67"/>
</g>
<!-- body_sequence__seq&#45;&gt;asn1_der__seq -->
<g id="edge10" class="edge">
<title>body_sequence__seq:entries_type&#45;&gt;asn1_der__seq</title>
<path fill="none" stroke="black" stroke-width="2" d="M1019,-321C1034.34,-321 1028.77,-297.43 1018,-286.5 995.59,-263.77 761.05,-284.75 731,-274 712.17,-267.26 713.97,-253.32 695,-247 541.52,-195.84 485.68,-199.61 331,-247 288.45,-260.04 246.92,-287.34 215.06,-312.4"/>
<polygon fill="black" stroke="black" stroke-width="2" points="212.79,-309.74 207.17,-318.72 217.17,-315.2 212.79,-309.74"/>
</g>
<!-- body_object_id__inst__first -->
<g id="node6" class="node">
<title>body_object_id__inst__first</title>
<polygon fill="#e0ffe0" stroke="transparent" points="1174,-49 1174,-70 1210,-70 1210,-49 1174,-49"/>
<polygon fill="none" stroke="black" points="1174,-49 1174,-70 1210,-70 1210,-49 1174,-49"/>
<text text-anchor="start" x="1185" y="-55.8" font-family="Times,serif" font-size="14.00">id</text>
<polygon fill="#e0ffe0" stroke="transparent" points="1210,-49 1210,-70 1377,-70 1377,-49 1210,-49"/>
<polygon fill="none" stroke="black" points="1210,-49 1210,-70 1377,-70 1377,-49 1210,-49"/>
<text text-anchor="start" x="1274" y="-55.8" font-family="Times,serif" font-size="14.00">value</text>
<polygon fill="none" stroke="black" points="1174,-28 1174,-49 1210,-49 1210,-28 1174,-28"/>
<text text-anchor="start" x="1177" y="-34.8" font-family="Times,serif" font-size="14.00">first</text>
<polygon fill="none" stroke="black" points="1210,-28 1210,-49 1377,-49 1377,-28 1210,-28"/>
<text text-anchor="start" x="1213" y="-34.8" font-family="Times,serif" font-size="14.00">(first_and_second / 40)</text>
</g>
<!-- body_object_id__seq&#45;&gt;body_object_id__inst__first -->
<g id="edge11" class="edge">
<title>body_object_id__seq:first_and_second_type&#45;&gt;body_object_id__inst__first</title>
<path fill="none" stroke="#404040" d="M1038,-105C1051.63,-105 1111.87,-90.67 1168.07,-76.51"/>
<polygon fill="#404040" stroke="#404040" points="1168.94,-79.9 1177.77,-74.05 1167.22,-73.11 1168.94,-79.9"/>
</g>
<!-- body_object_id__inst__second -->
<g id="node7" class="node">
<title>body_object_id__inst__second</title>
<polygon fill="#e0ffe0" stroke="transparent" points="1159,-117 1159,-138 1215,-138 1215,-117 1159,-117"/>
<polygon fill="none" stroke="black" points="1159,-117 1159,-138 1215,-138 1215,-117 1159,-117"/>
<text text-anchor="start" x="1180" y="-123.8" font-family="Times,serif" font-size="14.00">id</text>
<polygon fill="#e0ffe0" stroke="transparent" points="1215,-117 1215,-138 1391,-138 1391,-117 1215,-117"/>
<polygon fill="none" stroke="black" points="1215,-117 1215,-138 1391,-138 1391,-117 1215,-117"/>
<text text-anchor="start" x="1283.5" y="-123.8" font-family="Times,serif" font-size="14.00">value</text>
<polygon fill="none" stroke="black" points="1159,-96 1159,-117 1215,-117 1215,-96 1159,-96"/>
<text text-anchor="start" x="1162" y="-102.8" font-family="Times,serif" font-size="14.00">second</text>
<polygon fill="none" stroke="black" points="1215,-96 1215,-117 1391,-117 1391,-96 1215,-96"/>
<text text-anchor="start" x="1218" y="-102.8" font-family="Times,serif" font-size="14.00">(first_and_second % 40)</text>
</g>
<!-- body_object_id__seq&#45;&gt;body_object_id__inst__second -->
<g id="edge12" class="edge">
<title>body_object_id__seq:first_and_second_type&#45;&gt;body_object_id__inst__second</title>
<path fill="none" stroke="#404040" d="M1038,-105C1071.28,-105 1107.16,-106.2 1140.65,-107.85"/>
<polygon fill="#404040" stroke="#404040" points="1140.8,-111.36 1150.96,-108.37 1141.15,-104.37 1140.8,-111.36"/>
</g>
<!-- len_encoded__inst__result -->
<g id="node9" class="node">
<title>len_encoded__inst__result</title>
<polygon fill="#e0ffe0" stroke="transparent" points="739,-559 739,-580 788,-580 788,-559 739,-559"/>
<polygon fill="none" stroke="black" points="739,-559 739,-580 788,-580 788,-559 739,-559"/>
<text text-anchor="start" x="756.5" y="-565.8" font-family="Times,serif" font-size="14.00">id</text>
<polygon fill="#e0ffe0" stroke="transparent" points="788,-559 788,-580 1107,-580 1107,-559 788,-559"/>
<polygon fill="none" stroke="black" points="788,-559 788,-580 1107,-580 1107,-559 788,-559"/>
<text text-anchor="start" x="928" y="-565.8" font-family="Times,serif" font-size="14.00">value</text>
<polygon fill="none" stroke="black" points="739,-538 739,-559 788,-559 788,-538 739,-538"/>
<text text-anchor="start" x="742" y="-544.8" font-family="Times,serif" font-size="14.00">result</text>
<polygon fill="none" stroke="black" points="788,-538 788,-559 1107,-559 1107,-538 788,-538"/>
<text text-anchor="start" x="791" y="-544.8" font-family="Times,serif" font-size="14.00">(b1 == 129 ? int1 : (b1 == 130 ? int2 : b1))</text>
</g>
<!-- len_encoded__seq&#45;&gt;len_encoded__inst__result -->
<g id="edge13" class="edge">
<title>len_encoded__seq:b1_type&#45;&gt;len_encoded__inst__result</title>
<path fill="none" stroke="#404040" d="M585,-559C628.92,-559 676.07,-559 720.76,-559"/>
<polygon fill="#404040" stroke="#404040" points="720.86,-562.5 730.86,-559 720.86,-555.5 720.86,-562.5"/>
</g>
<!-- len_encoded__seq&#45;&gt;len_encoded__inst__result -->
<g id="edge14" class="edge">
<title>len_encoded__seq:int1_type&#45;&gt;len_encoded__inst__result</title>
<path fill="none" stroke="#404040" d="M585,-516C648.56,-516 718.33,-523.62 777.81,-532.44"/>
<polygon fill="#404040" stroke="#404040" points="777.62,-535.95 788.03,-533.99 778.66,-529.03 777.62,-535.95"/>
</g>
<!-- len_encoded__seq&#45;&gt;len_encoded__inst__result -->
<g id="edge15" class="edge">
<title>len_encoded__seq:b1_type&#45;&gt;len_encoded__inst__result</title>
<path fill="none" stroke="#404040" d="M585,-559C628.92,-559 676.07,-559 720.76,-559"/>
<polygon fill="#404040" stroke="#404040" points="720.86,-562.5 730.86,-559 720.86,-555.5 720.86,-562.5"/>
</g>
<!-- len_encoded__seq&#45;&gt;len_encoded__inst__result -->
<g id="edge16" class="edge">
<title>len_encoded__seq:int2_type&#45;&gt;len_encoded__inst__result</title>
<path fill="none" stroke="#404040" d="M585,-537C628.88,-537 675.91,-538.88 720.49,-541.54"/>
<polygon fill="#404040" stroke="#404040" points="720.36,-545.04 730.56,-542.16 720.79,-538.05 720.36,-545.04"/>
</g>
<!-- len_encoded__seq&#45;&gt;len_encoded__inst__result -->
<g id="edge17" class="edge">
<title>len_encoded__seq:b1_type&#45;&gt;len_encoded__inst__result</title>
<path fill="none" stroke="#404040" d="M585,-559C628.92,-559 676.07,-559 720.76,-559"/>
<polygon fill="#404040" stroke="#404040" points="720.86,-562.5 730.86,-559 720.86,-555.5 720.86,-562.5"/>
</g>
</g>
</svg>
