<?xml version="1.0" encoding="UTF-8" standalone="no"?>
<!DOCTYPE svg PUBLIC "-//W3C//DTD SVG 1.1//EN"
 "http://www.w3.org/Graphics/SVG/1.1/DTD/svg11.dtd">
<!-- Generated by graphviz version 2.40.1 (20161225.0304)
 -->
<!-- Title: %3 Pages: 1 -->
<svg width="1439pt" height="672pt"
 viewBox="0.00 0.00 1439.00 672.00" xmlns="http://www.w3.org/2000/svg" xmlns:xlink="http://www.w3.org/1999/xlink">
<g id="graph0" class="graph" transform="scale(1 1) rotate(0) translate(4 668)">
<title>%3</title>
<polygon fill="#ffffff" stroke="transparent" points="-4,4 -4,-668 1435,-668 1435,4 -4,4"/>
<g id="clust1" class="cluster">
<title>cluster__asn1_der</title>
<polygon fill="none" stroke="#000000" stroke-dasharray="1,5" points="8,-8 8,-656 1423,-656 1423,-8 8,-8"/>
<text text-anchor="middle" x="715.5" y="-640.8" font-family="Times,serif" font-size="14.00" fill="#000000">Asn1Der</text>
</g>
<g id="clust2" class="cluster">
<title>cluster__body_sequence</title>
<polygon fill="none" stroke="#000000" stroke-dasharray="1,5" points="815.5,-278 815.5,-389 1038.5,-389 1038.5,-278 815.5,-278"/>
<text text-anchor="middle" x="927" y="-373.8" font-family="Times,serif" font-size="14.00" fill="#000000">Asn1Der::BodySequence</text>
</g>
<g id="clust3" class="cluster">
<title>cluster__body_utf8string</title>
<polygon fill="none" stroke="#000000" stroke-dasharray="1,5" points="824,-181 824,-270 1030,-270 1030,-181 824,-181"/>
<text text-anchor="middle" x="927" y="-254.8" font-family="Times,serif" font-size="14.00" fill="#000000">Asn1Der::BodyUtf8string</text>
</g>
<g id="clust4" class="cluster">
<title>cluster__body_object_id</title>
<polygon fill="none" stroke="#000000" stroke-dasharray="1,5" points="795.5,-16 795.5,-173 1415,-173 1415,-16 795.5,-16"/>
<text text-anchor="middle" x="1105.25" y="-157.8" font-family="Times,serif" font-size="14.00" fill="#000000">Asn1Der::BodyObjectId</text>
</g>
<g id="clust5" class="cluster">
<title>cluster__len_encoded</title>
<polygon fill="none" stroke="#000000" stroke-dasharray="1,5" points="429,-494 429,-625 1127,-625 1127,-494 429,-494"/>
<text text-anchor="middle" x="778" y="-609.8" font-family="Times,serif" font-size="14.00" fill="#000000">Asn1Der::LenEncoded</text>
</g>
<g id="clust6" class="cluster">
<title>cluster__body_printable_string</title>
<polygon fill="none" stroke="#000000" stroke-dasharray="1,5" points="809.5,-397 809.5,-486 1044.5,-486 1044.5,-397 809.5,-397"/>
<text text-anchor="middle" x="927" y="-470.8" font-family="Times,serif" font-size="14.00" fill="#000000">Asn1Der::BodyPrintableString</text>
</g>
<!-- asn1_der__seq -->
<g id="node1" class="node">
<title>asn1_der__seq</title>
<polygon fill="#e0ffe0" stroke="transparent" points="24.5,-386 24.5,-407 55.5,-407 55.5,-386 24.5,-386"/>
<polygon fill="none" stroke="#000000" points="24.5,-386 24.5,-407 55.5,-407 55.5,-386 24.5,-386"/>
<text text-anchor="start" x="27.5" y="-392.8" font-family="Times,serif" font-size="14.00" fill="#000000">pos</text>
<polygon fill="#e0ffe0" stroke="transparent" points="55.5,-386 55.5,-407 89.5,-407 89.5,-386 55.5,-386"/>
<polygon fill="none" stroke="#000000" points="55.5,-386 55.5,-407 89.5,-407 89.5,-386 55.5,-386"/>
<text text-anchor="start" x="58.5" y="-392.8" font-family="Times,serif" font-size="14.00" fill="#000000">size</text>
<polygon fill="#e0ffe0" stroke="transparent" points="89.5,-386 89.5,-407 220.5,-407 220.5,-386 89.5,-386"/>
<polygon fill="none" stroke="#000000" points="89.5,-386 89.5,-407 220.5,-407 220.5,-386 89.5,-386"/>
<text text-anchor="start" x="139" y="-392.8" font-family="Times,serif" font-size="14.00" fill="#000000">type</text>
<polygon fill="#e0ffe0" stroke="transparent" points="220.5,-386 220.5,-407 289.5,-407 289.5,-386 220.5,-386"/>
<polygon fill="none" stroke="#000000" points="220.5,-386 220.5,-407 289.5,-407 289.5,-386 220.5,-386"/>
<text text-anchor="start" x="248" y="-392.8" font-family="Times,serif" font-size="14.00" fill="#000000">id</text>
<polygon fill="none" stroke="#000000" points="24.5,-365 24.5,-386 55.5,-386 55.5,-365 24.5,-365"/>
<text text-anchor="start" x="35" y="-371.8" font-family="Times,serif" font-size="14.00" fill="#000000">0</text>
<polygon fill="none" stroke="#000000" points="55.5,-365 55.5,-386 89.5,-386 89.5,-365 55.5,-365"/>
<text text-anchor="start" x="67.5" y="-371.8" font-family="Times,serif" font-size="14.00" fill="#000000">1</text>
<polygon fill="none" stroke="#000000" points="89.5,-365 89.5,-386 220.5,-386 220.5,-365 89.5,-365"/>
<text text-anchor="start" x="109" y="-371.8" font-family="Times,serif" font-size="14.00" fill="#000000">u1→TypeTag</text>
<polygon fill="none" stroke="#000000" points="220.5,-365 220.5,-386 289.5,-386 289.5,-365 220.5,-365"/>
<text text-anchor="start" x="223.5" y="-371.8" font-family="Times,serif" font-size="14.00" fill="#000000">type_tag</text>
<polygon fill="none" stroke="#000000" points="24.5,-344 24.5,-365 55.5,-365 55.5,-344 24.5,-344"/>
<text text-anchor="start" x="35" y="-350.8" font-family="Times,serif" font-size="14.00" fill="#000000">1</text>
<polygon fill="none" stroke="#000000" points="55.5,-344 55.5,-365 89.5,-365 89.5,-344 55.5,-344"/>
<text text-anchor="start" x="67.5" y="-350.8" font-family="Times,serif" font-size="14.00" fill="#000000">4</text>
<polygon fill="none" stroke="#000000" points="89.5,-344 89.5,-365 220.5,-365 220.5,-344 89.5,-344"/>
<text text-anchor="start" x="110" y="-350.8" font-family="Times,serif" font-size="14.00" fill="#000000">LenEncoded</text>
<polygon fill="none" stroke="#000000" points="220.5,-344 220.5,-365 289.5,-365 289.5,-344 220.5,-344"/>
<text text-anchor="start" x="244" y="-350.8" font-family="Times,serif" font-size="14.00" fill="#000000">len</text>
<polygon fill="none" stroke="#000000" points="24.5,-323 24.5,-344 55.5,-344 55.5,-323 24.5,-323"/>
<text text-anchor="start" x="35" y="-329.8" font-family="Times,serif" font-size="14.00" fill="#000000">5</text>
<polygon fill="none" stroke="#000000" points="55.5,-323 55.5,-344 89.5,-344 89.5,-323 55.5,-323"/>
<text text-anchor="start" x="65.5" y="-329.8" font-family="Times,serif" font-size="14.00" fill="#000000">...</text>
<polygon fill="none" stroke="#000000" points="89.5,-323 89.5,-344 220.5,-344 220.5,-323 89.5,-323"/>
<text text-anchor="start" x="92.5" y="-329.8" font-family="Times,serif" font-size="14.00" fill="#000000">switch (type_tag)</text>
<polygon fill="none" stroke="#000000" points="220.5,-323 220.5,-344 289.5,-344 289.5,-323 220.5,-323"/>
<text text-anchor="start" x="237.5" y="-329.8" font-family="Times,serif" font-size="14.00" fill="#000000">body</text>
</g>
<!-- asn1_der__seq&#45;&gt;asn1_der__seq -->
<g id="edge9" class="edge">
<title>asn1_der__seq:type_tag_type&#45;&gt;asn1_der__seq:body_type</title>
<path fill="none" stroke="#404040" d="M221.5606,-386.0457C167.972,-406.0366 179.2852,-429 255.5,-429 328.8688,-429 342.0926,-378.8231 295.1713,-348.9834"/>
<polygon fill="#404040" stroke="#404040" points="296.8492,-345.9113 286.424,-344.0224 293.3958,-352.0002 296.8492,-345.9113"/>
</g>
<!-- asn1_der__seq_body_switch -->
<g id="node2" class="node">
<title>asn1_der__seq_body_switch</title>
<polygon fill="#f0f2e4" stroke="transparent" points="341,-385 341,-406 537,-406 537,-385 341,-385"/>
<polygon fill="none" stroke="#000000" points="341,-385 341,-406 537,-406 537,-385 341,-385"/>
<text text-anchor="start" x="422.5" y="-391.8" font-family="Times,serif" font-size="14.00" fill="#000000">case</text>
<polygon fill="#f0f2e4" stroke="transparent" points="537,-385 537,-406 691,-406 691,-385 537,-385"/>
<polygon fill="none" stroke="#000000" points="537,-385 537,-406 691,-406 691,-385 537,-385"/>
<text text-anchor="start" x="598" y="-391.8" font-family="Times,serif" font-size="14.00" fill="#000000">type</text>
<polygon fill="none" stroke="#000000" points="341,-364 341,-385 537,-385 537,-364 341,-364"/>
<text text-anchor="start" x="344" y="-370.8" font-family="Times,serif" font-size="14.00" fill="#000000">:type_tag_printable_string</text>
<polygon fill="none" stroke="#000000" points="537,-364 537,-385 691,-385 691,-364 537,-364"/>
<text text-anchor="start" x="540" y="-370.8" font-family="Times,serif" font-size="14.00" fill="#000000">BodyPrintableString</text>
<polygon fill="none" stroke="#000000" points="341,-343 341,-364 537,-364 537,-343 341,-343"/>
<text text-anchor="start" x="355" y="-349.8" font-family="Times,serif" font-size="14.00" fill="#000000">:type_tag_sequence_10</text>
<polygon fill="none" stroke="#000000" points="537,-343 537,-364 691,-364 691,-343 537,-343"/>
<text text-anchor="start" x="561" y="-349.8" font-family="Times,serif" font-size="14.00" fill="#000000">BodySequence</text>
<polygon fill="none" stroke="#000000" points="341,-322 341,-343 537,-343 537,-322 341,-322"/>
<text text-anchor="start" x="390.5" y="-328.8" font-family="Times,serif" font-size="14.00" fill="#000000">:type_tag_set</text>
<polygon fill="none" stroke="#000000" points="537,-322 537,-343 691,-343 691,-322 537,-322"/>
<text text-anchor="start" x="561" y="-328.8" font-family="Times,serif" font-size="14.00" fill="#000000">BodySequence</text>
<polygon fill="none" stroke="#000000" points="341,-301 341,-322 537,-322 537,-301 341,-301"/>
<text text-anchor="start" x="355" y="-307.8" font-family="Times,serif" font-size="14.00" fill="#000000">:type_tag_sequence_30</text>
<polygon fill="none" stroke="#000000" points="537,-301 537,-322 691,-322 691,-301 537,-301"/>
<text text-anchor="start" x="561" y="-307.8" font-family="Times,serif" font-size="14.00" fill="#000000">BodySequence</text>
<polygon fill="none" stroke="#000000" points="341,-280 341,-301 537,-301 537,-280 341,-280"/>
<text text-anchor="start" x="365.5" y="-286.8" font-family="Times,serif" font-size="14.00" fill="#000000">:type_tag_utf8string</text>
<polygon fill="none" stroke="#000000" points="537,-280 537,-301 691,-301 691,-280 537,-280"/>
<text text-anchor="start" x="558" y="-286.8" font-family="Times,serif" font-size="14.00" fill="#000000">BodyUtf8string</text>
<polygon fill="none" stroke="#000000" points="341,-259 341,-280 537,-280 537,-259 341,-259"/>
<text text-anchor="start" x="369" y="-265.8" font-family="Times,serif" font-size="14.00" fill="#000000">:type_tag_object_id</text>
<polygon fill="none" stroke="#000000" points="537,-259 537,-280 691,-280 691,-259 537,-259"/>
<text text-anchor="start" x="564" y="-265.8" font-family="Times,serif" font-size="14.00" fill="#000000">BodyObjectId</text>
</g>
<!-- asn1_der__seq&#45;&gt;asn1_der__seq_body_switch -->
<g id="edge2" class="edge">
<title>asn1_der__seq:body_type&#45;&gt;asn1_der__seq_body_switch</title>
<path fill="none" stroke="#000000" stroke-width="2" d="M289.5,-333C300.2631,-333 311.3139,-333 322.4679,-333"/>
<polygon fill="#000000" stroke="#000000" stroke-width="2" points="322.735,-336.5001 332.735,-333 322.7349,-329.5001 322.735,-336.5001"/>
</g>
<!-- len_encoded__seq -->
<g id="node8" class="node">
<title>len_encoded__seq</title>
<polygon fill="#e0ffe0" stroke="transparent" points="445,-569 445,-590 476,-590 476,-569 445,-569"/>
<polygon fill="none" stroke="#000000" points="445,-569 445,-590 476,-590 476,-569 445,-569"/>
<text text-anchor="start" x="448" y="-575.8" font-family="Times,serif" font-size="14.00" fill="#000000">pos</text>
<polygon fill="#e0ffe0" stroke="transparent" points="476,-569 476,-590 510,-590 510,-569 476,-569"/>
<polygon fill="none" stroke="#000000" points="476,-569 476,-590 510,-590 510,-569 476,-569"/>
<text text-anchor="start" x="479" y="-575.8" font-family="Times,serif" font-size="14.00" fill="#000000">size</text>
<polygon fill="#e0ffe0" stroke="transparent" points="510,-569 510,-590 552,-590 552,-569 510,-569"/>
<polygon fill="none" stroke="#000000" points="510,-569 510,-590 552,-590 552,-569 510,-569"/>
<text text-anchor="start" x="515" y="-575.8" font-family="Times,serif" font-size="14.00" fill="#000000">type</text>
<polygon fill="#e0ffe0" stroke="transparent" points="552,-569 552,-590 587,-590 587,-569 552,-569"/>
<polygon fill="none" stroke="#000000" points="552,-569 552,-590 587,-590 587,-569 552,-569"/>
<text text-anchor="start" x="562.5" y="-575.8" font-family="Times,serif" font-size="14.00" fill="#000000">id</text>
<polygon fill="none" stroke="#000000" points="445,-548 445,-569 476,-569 476,-548 445,-548"/>
<text text-anchor="start" x="455.5" y="-554.8" font-family="Times,serif" font-size="14.00" fill="#000000">0</text>
<polygon fill="none" stroke="#000000" points="476,-548 476,-569 510,-569 510,-548 476,-548"/>
<text text-anchor="start" x="488" y="-554.8" font-family="Times,serif" font-size="14.00" fill="#000000">1</text>
<polygon fill="none" stroke="#000000" points="510,-548 510,-569 552,-569 552,-548 510,-548"/>
<text text-anchor="start" x="521.5" y="-554.8" font-family="Times,serif" font-size="14.00" fill="#000000">u1</text>
<polygon fill="none" stroke="#000000" points="552,-548 552,-569 587,-569 587,-548 552,-548"/>
<text text-anchor="start" x="560" y="-554.8" font-family="Times,serif" font-size="14.00" fill="#000000">b1</text>
<polygon fill="none" stroke="#000000" points="445,-527 445,-548 476,-548 476,-527 445,-527"/>
<text text-anchor="start" x="455.5" y="-533.8" font-family="Times,serif" font-size="14.00" fill="#000000">1</text>
<polygon fill="none" stroke="#000000" points="476,-527 476,-548 510,-548 510,-527 476,-527"/>
<text text-anchor="start" x="488" y="-533.8" font-family="Times,serif" font-size="14.00" fill="#000000">2</text>
<polygon fill="none" stroke="#000000" points="510,-527 510,-548 552,-548 552,-527 510,-527"/>
<text text-anchor="start" x="513" y="-533.8" font-family="Times,serif" font-size="14.00" fill="#000000">u2be</text>
<polygon fill="none" stroke="#000000" points="552,-527 552,-548 587,-548 587,-527 552,-527"/>
<text text-anchor="start" x="555" y="-533.8" font-family="Times,serif" font-size="14.00" fill="#000000">int2</text>
<polygon fill="none" stroke="#000000" points="445,-506 445,-527 476,-527 476,-506 445,-506"/>
<text text-anchor="start" x="455.5" y="-512.8" font-family="Times,serif" font-size="14.00" fill="#000000">3</text>
<polygon fill="none" stroke="#000000" points="476,-506 476,-527 510,-527 510,-506 476,-506"/>
<text text-anchor="start" x="488" y="-512.8" font-family="Times,serif" font-size="14.00" fill="#000000">1</text>
<polygon fill="none" stroke="#000000" points="510,-506 510,-527 552,-527 552,-506 510,-506"/>
<text text-anchor="start" x="521.5" y="-512.8" font-family="Times,serif" font-size="14.00" fill="#000000">u1</text>
<polygon fill="none" stroke="#000000" points="552,-506 552,-527 587,-527 587,-506 552,-506"/>
<text text-anchor="start" x="555" y="-512.8" font-family="Times,serif" font-size="14.00" fill="#000000">int1</text>
</g>
<!-- asn1_der__seq&#45;&gt;len_encoded__seq -->
<g id="edge1" class="edge">
<title>asn1_der__seq:len_type&#45;&gt;len_encoded__seq</title>
<path fill="none" stroke="#000000" stroke-width="2" d="M289.5,-354C356.3564,-354 285.0996,-451.3596 333,-498 357.9134,-522.2581 393.4032,-535.0116 426.5082,-541.624"/>
<polygon fill="#000000" stroke="#000000" stroke-width="2" points="426.225,-545.1302 436.6913,-543.4849 427.4834,-538.2442 426.225,-545.1302"/>
</g>
<!-- body_sequence__seq -->
<g id="node3" class="node">
<title>body_sequence__seq</title>
<polygon fill="#e0ffe0" stroke="transparent" points="832,-332 832,-353 863,-353 863,-332 832,-332"/>
<polygon fill="none" stroke="#000000" points="832,-332 832,-353 863,-353 863,-332 832,-332"/>
<text text-anchor="start" x="835" y="-338.8" font-family="Times,serif" font-size="14.00" fill="#000000">pos</text>
<polygon fill="#e0ffe0" stroke="transparent" points="863,-332 863,-353 897,-353 897,-332 863,-332"/>
<polygon fill="none" stroke="#000000" points="863,-332 863,-353 897,-353 897,-332 863,-332"/>
<text text-anchor="start" x="866" y="-338.8" font-family="Times,serif" font-size="14.00" fill="#000000">size</text>
<polygon fill="#e0ffe0" stroke="transparent" points="897,-332 897,-353 966,-353 966,-332 897,-332"/>
<polygon fill="none" stroke="#000000" points="897,-332 897,-353 966,-353 966,-332 897,-332"/>
<text text-anchor="start" x="915.5" y="-338.8" font-family="Times,serif" font-size="14.00" fill="#000000">type</text>
<polygon fill="#e0ffe0" stroke="transparent" points="966,-332 966,-353 1023,-353 1023,-332 966,-332"/>
<polygon fill="none" stroke="#000000" points="966,-332 966,-353 1023,-353 1023,-332 966,-332"/>
<text text-anchor="start" x="987.5" y="-338.8" font-family="Times,serif" font-size="14.00" fill="#000000">id</text>
<polygon fill="none" stroke="#000000" points="832,-311 832,-332 863,-332 863,-311 832,-311"/>
<text text-anchor="start" x="842.5" y="-317.8" font-family="Times,serif" font-size="14.00" fill="#000000">0</text>
<polygon fill="none" stroke="#000000" points="863,-311 863,-332 897,-332 897,-311 863,-311"/>
<text text-anchor="start" x="873" y="-317.8" font-family="Times,serif" font-size="14.00" fill="#000000">...</text>
<polygon fill="none" stroke="#000000" points="897,-311 897,-332 966,-332 966,-311 897,-311"/>
<text text-anchor="start" x="900" y="-317.8" font-family="Times,serif" font-size="14.00" fill="#000000">Asn1Der</text>
<polygon fill="none" stroke="#000000" points="966,-311 966,-332 1023,-332 1023,-311 966,-311"/>
<text text-anchor="start" x="969" y="-317.8" font-family="Times,serif" font-size="14.00" fill="#000000">entries</text>
<polygon fill="none" stroke="#000000" points="832,-290 832,-311 1023,-311 1023,-290 832,-290"/>
<text text-anchor="start" x="843" y="-296.8" font-family="Times,serif" font-size="14.00" fill="#000000">repeat to end of stream</text>
</g>
<!-- asn1_der__seq_body_switch&#45;&gt;body_sequence__seq -->
<g id="edge4" class="edge">
<title>asn1_der__seq_body_switch:case1&#45;&gt;body_sequence__seq</title>
<path fill="none" stroke="#000000" stroke-width="2" d="M691,-354C731.0429,-354 774.5639,-349.4204 813.2007,-343.7261"/>
<polygon fill="#000000" stroke="#000000" stroke-width="2" points="814.0729,-347.134 823.4357,-342.1753 813.0242,-340.213 814.0729,-347.134"/>
</g>
<!-- asn1_der__seq_body_switch&#45;&gt;body_sequence__seq -->
<g id="edge5" class="edge">
<title>asn1_der__seq_body_switch:case2&#45;&gt;body_sequence__seq</title>
<path fill="none" stroke="#000000" stroke-width="2" d="M691,-332C730.8096,-332 774.3626,-330.5621 813.0958,-328.7767"/>
<polygon fill="#000000" stroke="#000000" stroke-width="2" points="813.5348,-332.26 823.358,-328.2906 813.2035,-325.2678 813.5348,-332.26"/>
</g>
<!-- asn1_der__seq_body_switch&#45;&gt;body_sequence__seq -->
<g id="edge6" class="edge">
<title>asn1_der__seq_body_switch:case3&#45;&gt;body_sequence__seq</title>
<path fill="none" stroke="#000000" stroke-width="2" d="M691,-311C730.817,-311 774.3719,-312.5817 813.1044,-314.5456"/>
<polygon fill="#000000" stroke="#000000" stroke-width="2" points="813.1978,-318.0551 823.3664,-315.0804 813.5621,-311.0646 813.1978,-318.0551"/>
</g>
<!-- body_utf8string__seq -->
<g id="node4" class="node">
<title>body_utf8string__seq</title>
<polygon fill="#e0ffe0" stroke="transparent" points="840,-214 840,-235 871,-235 871,-214 840,-214"/>
<polygon fill="none" stroke="#000000" points="840,-214 840,-235 871,-235 871,-214 840,-214"/>
<text text-anchor="start" x="843" y="-220.8" font-family="Times,serif" font-size="14.00" fill="#000000">pos</text>
<polygon fill="#e0ffe0" stroke="transparent" points="871,-214 871,-235 905,-235 905,-214 871,-214"/>
<polygon fill="none" stroke="#000000" points="871,-214 871,-235 905,-235 905,-214 871,-214"/>
<text text-anchor="start" x="874" y="-220.8" font-family="Times,serif" font-size="14.00" fill="#000000">size</text>
<polygon fill="#e0ffe0" stroke="transparent" points="905,-214 905,-235 987,-235 987,-214 905,-214"/>
<polygon fill="none" stroke="#000000" points="905,-214 905,-235 987,-235 987,-214 905,-214"/>
<text text-anchor="start" x="930" y="-220.8" font-family="Times,serif" font-size="14.00" fill="#000000">type</text>
<polygon fill="#e0ffe0" stroke="transparent" points="987,-214 987,-235 1014,-235 1014,-214 987,-214"/>
<polygon fill="none" stroke="#000000" points="987,-214 987,-235 1014,-235 1014,-214 987,-214"/>
<text text-anchor="start" x="993.5" y="-220.8" font-family="Times,serif" font-size="14.00" fill="#000000">id</text>
<polygon fill="none" stroke="#000000" points="840,-193 840,-214 871,-214 871,-193 840,-193"/>
<text text-anchor="start" x="850.5" y="-199.8" font-family="Times,serif" font-size="14.00" fill="#000000">0</text>
<polygon fill="none" stroke="#000000" points="871,-193 871,-214 905,-214 905,-193 871,-193"/>
<text text-anchor="start" x="881.5" y="-199.8" font-family="Times,serif" font-size="14.00" fill="#000000">⇲</text>
<polygon fill="none" stroke="#000000" points="905,-193 905,-214 987,-214 987,-193 905,-193"/>
<text text-anchor="start" x="908" y="-199.8" font-family="Times,serif" font-size="14.00" fill="#000000">str(UTF&#45;8)</text>
<polygon fill="none" stroke="#000000" points="987,-193 987,-214 1014,-214 1014,-193 987,-193"/>
<text text-anchor="start" x="990" y="-199.8" font-family="Times,serif" font-size="14.00" fill="#000000">str</text>
</g>
<!-- asn1_der__seq_body_switch&#45;&gt;body_utf8string__seq -->
<g id="edge7" class="edge">
<title>asn1_der__seq_body_switch:case4&#45;&gt;body_utf8string__seq</title>
<path fill="none" stroke="#000000" stroke-width="2" d="M691,-290C711.8084,-290 715.2865,-280.6606 735,-274 767.2326,-263.1096 802.7384,-251.8187 834.3582,-242.0092"/>
<polygon fill="#000000" stroke="#000000" stroke-width="2" points="835.5197,-245.3137 844.0386,-239.0146 833.4509,-238.6263 835.5197,-245.3137"/>
</g>
<!-- body_object_id__seq -->
<g id="node5" class="node">
<title>body_object_id__seq</title>
<polygon fill="#e0ffe0" stroke="transparent" points="812,-116 812,-137 843,-137 843,-116 812,-116"/>
<polygon fill="none" stroke="#000000" points="812,-116 812,-137 843,-137 843,-116 812,-116"/>
<text text-anchor="start" x="815" y="-122.8" font-family="Times,serif" font-size="14.00" fill="#000000">pos</text>
<polygon fill="#e0ffe0" stroke="transparent" points="843,-116 843,-137 877,-137 877,-116 843,-116"/>
<polygon fill="none" stroke="#000000" points="843,-116 843,-137 877,-137 877,-116 843,-116"/>
<text text-anchor="start" x="846" y="-122.8" font-family="Times,serif" font-size="14.00" fill="#000000">size</text>
<polygon fill="#e0ffe0" stroke="transparent" points="877,-116 877,-137 915,-137 915,-116 877,-116"/>
<polygon fill="none" stroke="#000000" points="877,-116 877,-137 915,-137 915,-116 877,-116"/>
<text text-anchor="start" x="880" y="-122.8" font-family="Times,serif" font-size="14.00" fill="#000000">type</text>
<polygon fill="#e0ffe0" stroke="transparent" points="915,-116 915,-137 1043,-137 1043,-116 915,-116"/>
<polygon fill="none" stroke="#000000" points="915,-116 915,-137 1043,-137 1043,-116 915,-116"/>
<text text-anchor="start" x="972" y="-122.8" font-family="Times,serif" font-size="14.00" fill="#000000">id</text>
<polygon fill="none" stroke="#000000" points="812,-95 812,-116 843,-116 843,-95 812,-95"/>
<text text-anchor="start" x="822.5" y="-101.8" font-family="Times,serif" font-size="14.00" fill="#000000">0</text>
<polygon fill="none" stroke="#000000" points="843,-95 843,-116 877,-116 877,-95 843,-95"/>
<text text-anchor="start" x="855" y="-101.8" font-family="Times,serif" font-size="14.00" fill="#000000">1</text>
<polygon fill="none" stroke="#000000" points="877,-95 877,-116 915,-116 915,-95 877,-95"/>
<text text-anchor="start" x="886.5" y="-101.8" font-family="Times,serif" font-size="14.00" fill="#000000">u1</text>
<polygon fill="none" stroke="#000000" points="915,-95 915,-116 1043,-116 1043,-95 915,-95"/>
<text text-anchor="start" x="918" y="-101.8" font-family="Times,serif" font-size="14.00" fill="#000000">first_and_second</text>
<polygon fill="none" stroke="#000000" points="812,-74 812,-95 843,-95 843,-74 812,-74"/>
<text text-anchor="start" x="822.5" y="-80.8" font-family="Times,serif" font-size="14.00" fill="#000000">1</text>
<polygon fill="none" stroke="#000000" points="843,-74 843,-95 877,-95 877,-74 843,-74"/>
<text text-anchor="start" x="853.5" y="-80.8" font-family="Times,serif" font-size="14.00" fill="#000000">⇲</text>
<polygon fill="none" stroke="#000000" points="877,-74 877,-95 915,-95 915,-74 877,-74"/>
<polygon fill="none" stroke="#000000" points="915,-74 915,-95 1043,-95 1043,-74 915,-74"/>
<text text-anchor="start" x="964.5" y="-80.8" font-family="Times,serif" font-size="14.00" fill="#000000">rest</text>
</g>
<!-- asn1_der__seq_body_switch&#45;&gt;body_object_id__seq -->
<g id="edge8" class="edge">
<title>asn1_der__seq_body_switch:case5&#45;&gt;body_object_id__seq</title>
<path fill="none" stroke="#000000" stroke-width="2" d="M691,-269C736.3246,-269 701.5122,-207.5432 735,-177 752.0021,-161.4929 772.6864,-149.2881 794.1026,-139.7071"/>
<polygon fill="#000000" stroke="#000000" stroke-width="2" points="795.5034,-142.9148 803.3172,-135.7597 792.7469,-136.4803 795.5034,-142.9148"/>
</g>
<!-- body_printable_string__seq -->
<g id="node10" class="node">
<title>body_printable_string__seq</title>
<polygon fill="#e0ffe0" stroke="transparent" points="841,-430 841,-451 872,-451 872,-430 841,-430"/>
<polygon fill="none" stroke="#000000" points="841,-430 841,-451 872,-451 872,-430 841,-430"/>
<text text-anchor="start" x="844" y="-436.8" font-family="Times,serif" font-size="14.00" fill="#000000">pos</text>
<polygon fill="#e0ffe0" stroke="transparent" points="872,-430 872,-451 906,-451 906,-430 872,-430"/>
<polygon fill="none" stroke="#000000" points="872,-430 872,-451 906,-451 906,-430 872,-430"/>
<text text-anchor="start" x="875" y="-436.8" font-family="Times,serif" font-size="14.00" fill="#000000">size</text>
<polygon fill="#e0ffe0" stroke="transparent" points="906,-430 906,-451 987,-451 987,-430 906,-430"/>
<polygon fill="none" stroke="#000000" points="906,-430 906,-451 987,-451 987,-430 906,-430"/>
<text text-anchor="start" x="930.5" y="-436.8" font-family="Times,serif" font-size="14.00" fill="#000000">type</text>
<polygon fill="#e0ffe0" stroke="transparent" points="987,-430 987,-451 1014,-451 1014,-430 987,-430"/>
<polygon fill="none" stroke="#000000" points="987,-430 987,-451 1014,-451 1014,-430 987,-430"/>
<text text-anchor="start" x="993.5" y="-436.8" font-family="Times,serif" font-size="14.00" fill="#000000">id</text>
<polygon fill="none" stroke="#000000" points="841,-409 841,-430 872,-430 872,-409 841,-409"/>
<text text-anchor="start" x="851.5" y="-415.8" font-family="Times,serif" font-size="14.00" fill="#000000">0</text>
<polygon fill="none" stroke="#000000" points="872,-409 872,-430 906,-430 906,-409 872,-409"/>
<text text-anchor="start" x="882.5" y="-415.8" font-family="Times,serif" font-size="14.00" fill="#000000">⇲</text>
<polygon fill="none" stroke="#000000" points="906,-409 906,-430 987,-430 987,-409 906,-409"/>
<text text-anchor="start" x="909" y="-415.8" font-family="Times,serif" font-size="14.00" fill="#000000">str(ASCII)</text>
<polygon fill="none" stroke="#000000" points="987,-409 987,-430 1014,-430 1014,-409 987,-409"/>
<text text-anchor="start" x="990" y="-415.8" font-family="Times,serif" font-size="14.00" fill="#000000">str</text>
</g>
<!-- asn1_der__seq_body_switch&#45;&gt;body_printable_string__seq -->
<g id="edge3" class="edge">
<title>asn1_der__seq_body_switch:case0&#45;&gt;body_printable_string__seq</title>
<path fill="none" stroke="#000000" stroke-width="2" d="M691,-375C712.1286,-375 714.7497,-386.9714 735,-393 762.9399,-401.3177 793.7399,-408.2186 822.3373,-413.7172"/>
<polygon fill="#000000" stroke="#000000" stroke-width="2" points="821.8773,-417.192 832.3524,-415.6036 823.1731,-410.313 821.8773,-417.192"/>
</g>
<!-- body_sequence__seq&#45;&gt;asn1_der__seq -->
<g id="edge10" class="edge">
<title>body_sequence__seq:entries_type&#45;&gt;asn1_der__seq</title>
<path fill="none" stroke="#000000" stroke-width="2" d="M1023,-321C1038.3333,-321 1033.6046,-297.5749 1023,-286.5 1000.8478,-263.3654 765.1596,-284.7854 735,-274 716.168,-267.2655 717.9737,-253.3246 699,-247 544.6809,-195.5603 488.6561,-199.7601 333,-247 290.0795,-260.0259 248.0826,-287.3304 215.8292,-312.3958"/>
<polygon fill="#000000" stroke="#000000" stroke-width="2" points="213.5173,-309.7619 207.8445,-318.7101 217.8593,-315.2526 213.5173,-309.7619"/>
</g>
<!-- body_object_id__inst__first -->
<g id="node6" class="node">
<title>body_object_id__inst__first</title>
<polygon fill="#e0ffe0" stroke="transparent" points="1178,-49 1178,-70 1215,-70 1215,-49 1178,-49"/>
<polygon fill="none" stroke="#000000" points="1178,-49 1178,-70 1215,-70 1215,-49 1178,-49"/>
<text text-anchor="start" x="1189.5" y="-55.8" font-family="Times,serif" font-size="14.00" fill="#000000">id</text>
<polygon fill="#e0ffe0" stroke="transparent" points="1215,-49 1215,-70 1385,-70 1385,-49 1215,-49"/>
<polygon fill="none" stroke="#000000" points="1215,-49 1215,-70 1385,-70 1385,-49 1215,-49"/>
<text text-anchor="start" x="1280.5" y="-55.8" font-family="Times,serif" font-size="14.00" fill="#000000">value</text>
<polygon fill="none" stroke="#000000" points="1178,-28 1178,-49 1215,-49 1215,-28 1178,-28"/>
<text text-anchor="start" x="1181" y="-34.8" font-family="Times,serif" font-size="14.00" fill="#000000">first</text>
<polygon fill="none" stroke="#000000" points="1215,-28 1215,-49 1385,-49 1385,-28 1215,-28"/>
<text text-anchor="start" x="1218" y="-34.8" font-family="Times,serif" font-size="14.00" fill="#000000">(first_and_second / 40)</text>
</g>
<!-- body_object_id__seq&#45;&gt;body_object_id__inst__first -->
<g id="edge11" class="edge">
<title>body_object_id__seq:first_and_second_type&#45;&gt;body_object_id__inst__first</title>
<path fill="none" stroke="#404040" d="M1043,-105C1056.7433,-105 1117.4915,-90.6682 1174.1687,-76.5053"/>
<polygon fill="#404040" stroke="#404040" points="1175.1059,-79.8787 1183.9544,-74.0517 1173.4035,-73.0889 1175.1059,-79.8787"/>
</g>
<!-- body_object_id__inst__second -->
<g id="node7" class="node">
<title>body_object_id__inst__second</title>
<polygon fill="#e0ffe0" stroke="transparent" points="1163,-117 1163,-138 1220,-138 1220,-117 1163,-117"/>
<polygon fill="none" stroke="#000000" points="1163,-117 1163,-138 1220,-138 1220,-117 1163,-117"/>
<text text-anchor="start" x="1184.5" y="-123.8" font-family="Times,serif" font-size="14.00" fill="#000000">id</text>
<polygon fill="#e0ffe0" stroke="transparent" points="1220,-117 1220,-138 1399,-138 1399,-117 1220,-117"/>
<polygon fill="none" stroke="#000000" points="1220,-117 1220,-138 1399,-138 1399,-117 1220,-117"/>
<text text-anchor="start" x="1290" y="-123.8" font-family="Times,serif" font-size="14.00" fill="#000000">value</text>
<polygon fill="none" stroke="#000000" points="1163,-96 1163,-117 1220,-117 1220,-96 1163,-96"/>
<text text-anchor="start" x="1166" y="-102.8" font-family="Times,serif" font-size="14.00" fill="#000000">second</text>
<polygon fill="none" stroke="#000000" points="1220,-96 1220,-117 1399,-117 1399,-96 1220,-96"/>
<text text-anchor="start" x="1223" y="-102.8" font-family="Times,serif" font-size="14.00" fill="#000000">(first_and_second % 40)</text>
</g>
<!-- body_object_id__seq&#45;&gt;body_object_id__inst__second -->
<g id="edge12" class="edge">
<title>body_object_id__seq:first_and_second_type&#45;&gt;body_object_id__inst__second</title>
<path fill="none" stroke="#404040" d="M1043,-105C1075.9004,-105 1111.3266,-106.158 1144.5347,-107.7545"/>
<polygon fill="#404040" stroke="#404040" points="1144.6026,-111.2621 1154.7642,-108.2632 1144.9504,-104.2707 1144.6026,-111.2621"/>
</g>
<!-- len_encoded__inst__result -->
<g id="node9" class="node">
<title>len_encoded__inst__result</title>
<polygon fill="#e0ffe0" stroke="transparent" points="743,-559 743,-580 792,-580 792,-559 743,-559"/>
<polygon fill="none" stroke="#000000" points="743,-559 743,-580 792,-580 792,-559 743,-559"/>
<text text-anchor="start" x="760.5" y="-565.8" font-family="Times,serif" font-size="14.00" fill="#000000">id</text>
<polygon fill="#e0ffe0" stroke="transparent" points="792,-559 792,-580 1111,-580 1111,-559 792,-559"/>
<polygon fill="none" stroke="#000000" points="792,-559 792,-580 1111,-580 1111,-559 792,-559"/>
<text text-anchor="start" x="932" y="-565.8" font-family="Times,serif" font-size="14.00" fill="#000000">value</text>
<polygon fill="none" stroke="#000000" points="743,-538 743,-559 792,-559 792,-538 743,-538"/>
<text text-anchor="start" x="746" y="-544.8" font-family="Times,serif" font-size="14.00" fill="#000000">result</text>
<polygon fill="none" stroke="#000000" points="792,-538 792,-559 1111,-559 1111,-538 792,-538"/>
<text text-anchor="start" x="795" y="-544.8" font-family="Times,serif" font-size="14.00" fill="#000000">(b1 == 129 ? int1 : (b1 == 130 ? int2 : b1))</text>
</g>
<!-- len_encoded__seq&#45;&gt;len_encoded__inst__result -->
<g id="edge13" class="edge">
<title>len_encoded__seq:b1_type&#45;&gt;len_encoded__inst__result</title>
<path fill="none" stroke="#404040" d="M587,-559C631.4507,-559 679.1703,-559 724.3893,-559"/>
<polygon fill="#404040" stroke="#404040" points="724.6037,-562.5001 734.6037,-559 724.6036,-555.5001 724.6037,-562.5001"/>
</g>
<!-- len_encoded__seq&#45;&gt;len_encoded__inst__result -->
<g id="edge14" class="edge">
<title>len_encoded__seq:int1_type&#45;&gt;len_encoded__inst__result</title>
<path fill="none" stroke="#404040" d="M587,-516C651.2508,-516 721.7955,-523.6514 781.8913,-532.4991"/>
<polygon fill="#404040" stroke="#404040" points="781.4199,-535.9674 791.8279,-533.9867 782.4564,-529.0446 781.4199,-535.9674"/>
</g>
<!-- len_encoded__seq&#45;&gt;len_encoded__inst__result -->
<g id="edge15" class="edge">
<title>len_encoded__seq:b1_type&#45;&gt;len_encoded__inst__result</title>
<path fill="none" stroke="#404040" d="M587,-559C631.4507,-559 679.1703,-559 724.3893,-559"/>
<polygon fill="#404040" stroke="#404040" points="724.6037,-562.5001 734.6037,-559 724.6036,-555.5001 724.6037,-562.5001"/>
</g>
<!-- len_encoded__seq&#45;&gt;len_encoded__inst__result -->
<g id="edge16" class="edge">
<title>len_encoded__seq:int2_type&#45;&gt;len_encoded__inst__result</title>
<path fill="none" stroke="#404040" d="M587,-537C631.5436,-537 679.3015,-538.9036 724.5282,-541.591"/>
<polygon fill="#404040" stroke="#404040" points="724.5494,-545.0987 734.7438,-542.2137 724.9753,-538.1117 724.5494,-545.0987"/>
</g>
<!-- len_encoded__seq&#45;&gt;len_encoded__inst__result -->
<g id="edge17" class="edge">
<title>len_encoded__seq:b1_type&#45;&gt;len_encoded__inst__result</title>
<path fill="none" stroke="#404040" d="M587,-559C631.4507,-559 679.1703,-559 724.3893,-559"/>
<polygon fill="#404040" stroke="#404040" points="724.6037,-562.5001 734.6037,-559 724.6036,-555.5001 724.6037,-562.5001"/>
</g>
</g>
</svg>
