<?xml version="1.0" encoding="UTF-8" standalone="no"?>
<!DOCTYPE svg PUBLIC "-//W3C//DTD SVG 1.1//EN"
 "http://www.w3.org/Graphics/SVG/1.1/DTD/svg11.dtd">
<!-- Generated by graphviz version 2.38.0 (20140413.2041)
 -->
<!-- Title: %3 Pages: 1 -->
<svg width="846pt" height="487pt"
 viewBox="0.00 0.00 846.00 487.00" xmlns="http://www.w3.org/2000/svg" xmlns:xlink="http://www.w3.org/1999/xlink">
<g id="graph0" class="graph" transform="scale(1 1) rotate(0) translate(4 483)">
<title>%3</title>
<polygon fill="white" stroke="none" points="-4,4 -4,-483 842,-483 842,4 -4,4"/>
<g id="clust1" class="cluster"><title>cluster__asn1_der</title>
<polygon fill="none" stroke="black" stroke-dasharray="1,5" points="8,-8 8,-471 830,-471 830,-8 8,-8"/>
<text text-anchor="middle" x="419" y="-455.8" font-family="Times,serif" font-size="14.00">Asn1Der</text>
</g>
<g id="clust2" class="cluster"><title>cluster__len_encoded</title>
<polygon fill="none" stroke="black" stroke-dasharray="1,5" points="343.5,-329 343.5,-440 822,-440 822,-329 343.5,-329"/>
<text text-anchor="middle" x="582.75" y="-424.8" font-family="Times,serif" font-size="14.00">Asn1Der::LenEncoded</text>
</g>
<g id="clust3" class="cluster"><title>cluster__body_sequence</title>
<polygon fill="none" stroke="black" stroke-dasharray="1,5" points="612.5,-210 612.5,-321 795.5,-321 795.5,-210 612.5,-210"/>
<text text-anchor="middle" x="704" y="-305.8" font-family="Times,serif" font-size="14.00">Asn1Der::BodySequence</text>
</g>
<g id="clust4" class="cluster"><title>cluster__body_utf8string</title>
<polygon fill="none" stroke="black" stroke-dasharray="1,5" points="618.5,-113 618.5,-202 789.5,-202 789.5,-113 618.5,-113"/>
<text text-anchor="middle" x="704" y="-186.8" font-family="Times,serif" font-size="14.00">Asn1Der::BodyUtf8string</text>
</g>
<g id="clust5" class="cluster"><title>cluster__body_printable_string</title>
<polygon fill="none" stroke="black" stroke-dasharray="1,5" points="612.5,-16 612.5,-105 796.5,-105 796.5,-16 612.5,-16"/>
<text text-anchor="middle" x="704.5" y="-89.8" font-family="Times,serif" font-size="14.00">Asn1Der::BodyPrintableString</text>
</g>
<!-- asn1_der__seq -->
<g id="node1" class="node"><title>asn1_der__seq</title>
<polygon fill="#e0ffe0" stroke="none" points="24.5,-296 24.5,-317 49.5,-317 49.5,-296 24.5,-296"/>
<polygon fill="none" stroke="black" points="24.5,-296 24.5,-317 49.5,-317 49.5,-296 24.5,-296"/>
<text text-anchor="start" x="27.5" y="-302.8" font-family="Times,serif" font-size="14.00">pos</text>
<polygon fill="#e0ffe0" stroke="none" points="49.5,-296 49.5,-317 77.5,-317 77.5,-296 49.5,-296"/>
<polygon fill="none" stroke="black" points="49.5,-296 49.5,-317 77.5,-317 77.5,-296 49.5,-296"/>
<text text-anchor="start" x="52.5" y="-302.8" font-family="Times,serif" font-size="14.00">size</text>
<polygon fill="#e0ffe0" stroke="none" points="77.5,-296 77.5,-317 178.5,-317 178.5,-296 77.5,-296"/>
<polygon fill="none" stroke="black" points="77.5,-296 77.5,-317 178.5,-317 178.5,-296 77.5,-296"/>
<text text-anchor="start" x="116" y="-302.8" font-family="Times,serif" font-size="14.00">type</text>
<polygon fill="#e0ffe0" stroke="none" points="178.5,-296 178.5,-317 231.5,-317 231.5,-296 178.5,-296"/>
<polygon fill="none" stroke="black" points="178.5,-296 178.5,-317 231.5,-317 231.5,-296 178.5,-296"/>
<text text-anchor="start" x="199.5" y="-302.8" font-family="Times,serif" font-size="14.00">id</text>
<polygon fill="none" stroke="black" points="24.5,-275 24.5,-296 49.5,-296 49.5,-275 24.5,-275"/>
<text text-anchor="start" x="33.5" y="-281.8" font-family="Times,serif" font-size="14.00">0</text>
<polygon fill="none" stroke="black" points="49.5,-275 49.5,-296 77.5,-296 77.5,-275 49.5,-275"/>
<text text-anchor="start" x="60" y="-281.8" font-family="Times,serif" font-size="14.00">1</text>
<polygon fill="none" stroke="black" points="77.5,-275 77.5,-296 178.5,-296 178.5,-275 77.5,-275"/>
<text text-anchor="start" x="89.5" y="-281.8" font-family="Times,serif" font-size="14.00">u1→TypeTag</text>
<polygon fill="none" stroke="black" points="178.5,-275 178.5,-296 231.5,-296 231.5,-275 178.5,-275"/>
<text text-anchor="start" x="181.5" y="-281.8" font-family="Times,serif" font-size="14.00">type_tag</text>
<polygon fill="none" stroke="black" points="24.5,-254 24.5,-275 49.5,-275 49.5,-254 24.5,-254"/>
<text text-anchor="start" x="33.5" y="-260.8" font-family="Times,serif" font-size="14.00">1</text>
<polygon fill="none" stroke="black" points="49.5,-254 49.5,-275 77.5,-275 77.5,-254 49.5,-254"/>
<text text-anchor="start" x="60" y="-260.8" font-family="Times,serif" font-size="14.00">3</text>
<polygon fill="none" stroke="black" points="77.5,-254 77.5,-275 178.5,-275 178.5,-254 77.5,-254"/>
<text text-anchor="start" x="93.5" y="-260.8" font-family="Times,serif" font-size="14.00">LenEncoded</text>
<polygon fill="none" stroke="black" points="178.5,-254 178.5,-275 231.5,-275 231.5,-254 178.5,-254"/>
<text text-anchor="start" x="196.5" y="-260.8" font-family="Times,serif" font-size="14.00">len</text>
<polygon fill="none" stroke="black" points="24.5,-233 24.5,-254 49.5,-254 49.5,-233 24.5,-233"/>
<text text-anchor="start" x="33.5" y="-239.8" font-family="Times,serif" font-size="14.00">4</text>
<polygon fill="none" stroke="black" points="49.5,-233 49.5,-254 77.5,-254 77.5,-233 49.5,-233"/>
<text text-anchor="start" x="57.5" y="-239.8" font-family="Times,serif" font-size="14.00">...</text>
<polygon fill="none" stroke="black" points="77.5,-233 77.5,-254 178.5,-254 178.5,-233 77.5,-233"/>
<text text-anchor="start" x="80.5" y="-239.8" font-family="Times,serif" font-size="14.00">switch (type_tag)</text>
<polygon fill="none" stroke="black" points="178.5,-233 178.5,-254 231.5,-254 231.5,-233 178.5,-233"/>
<text text-anchor="start" x="191" y="-239.8" font-family="Times,serif" font-size="14.00">body</text>
</g>
<!-- asn1_der__seq&#45;&gt;asn1_der__seq -->
<g id="edge8" class="edge"><title>asn1_der__seq:type_tag_type&#45;&gt;asn1_der__seq:body_type</title>
<path fill="none" stroke="#404040" d="M178.494,-295.908C135.045,-315.931 144.047,-339 205.5,-339 263.791,-339 274.89,-290.059 238.796,-260.102"/>
<polygon fill="#404040" stroke="#404040" points="240.533,-257.04 230.377,-254.022 236.435,-262.715 240.533,-257.04"/>
</g>
<!-- asn1_der__seq_body_switch -->
<g id="node2" class="node"><title>asn1_der__seq_body_switch</title>
<polygon fill="#f0f2e4" stroke="none" points="283.5,-285 283.5,-306 432.5,-306 432.5,-285 283.5,-285"/>
<polygon fill="none" stroke="black" points="283.5,-285 283.5,-306 432.5,-306 432.5,-285 283.5,-285"/>
<text text-anchor="start" x="346" y="-291.8" font-family="Times,serif" font-size="14.00">case</text>
<polygon fill="#f0f2e4" stroke="none" points="432.5,-285 432.5,-306 550.5,-306 550.5,-285 432.5,-285"/>
<polygon fill="none" stroke="black" points="432.5,-285 432.5,-306 550.5,-306 550.5,-285 432.5,-285"/>
<text text-anchor="start" x="479.5" y="-291.8" font-family="Times,serif" font-size="14.00">type</text>
<polygon fill="none" stroke="black" points="283.5,-264 283.5,-285 432.5,-285 432.5,-264 283.5,-264"/>
<text text-anchor="start" x="294.5" y="-270.8" font-family="Times,serif" font-size="14.00">:type_tag_sequence_30</text>
<polygon fill="none" stroke="black" points="432.5,-264 432.5,-285 550.5,-285 550.5,-264 432.5,-264"/>
<text text-anchor="start" x="450.5" y="-270.8" font-family="Times,serif" font-size="14.00">BodySequence</text>
<polygon fill="none" stroke="black" points="283.5,-243 283.5,-264 432.5,-264 432.5,-243 283.5,-243"/>
<text text-anchor="start" x="294.5" y="-249.8" font-family="Times,serif" font-size="14.00">:type_tag_sequence_10</text>
<polygon fill="none" stroke="black" points="432.5,-243 432.5,-264 550.5,-264 550.5,-243 432.5,-243"/>
<text text-anchor="start" x="450.5" y="-249.8" font-family="Times,serif" font-size="14.00">BodySequence</text>
<polygon fill="none" stroke="black" points="283.5,-222 283.5,-243 432.5,-243 432.5,-222 283.5,-222"/>
<text text-anchor="start" x="303" y="-228.8" font-family="Times,serif" font-size="14.00">:type_tag_utf8string</text>
<polygon fill="none" stroke="black" points="432.5,-222 432.5,-243 550.5,-243 550.5,-222 432.5,-222"/>
<text text-anchor="start" x="449" y="-228.8" font-family="Times,serif" font-size="14.00">BodyUtf8string</text>
<polygon fill="none" stroke="black" points="283.5,-201 283.5,-222 432.5,-222 432.5,-201 283.5,-201"/>
<text text-anchor="start" x="286.5" y="-207.8" font-family="Times,serif" font-size="14.00">:type_tag_printable_string</text>
<polygon fill="none" stroke="black" points="432.5,-201 432.5,-222 550.5,-222 550.5,-201 432.5,-201"/>
<text text-anchor="start" x="435.5" y="-207.8" font-family="Times,serif" font-size="14.00">BodyPrintableString</text>
<polygon fill="none" stroke="black" points="283.5,-180 283.5,-201 432.5,-201 432.5,-180 283.5,-180"/>
<text text-anchor="start" x="321.5" y="-186.8" font-family="Times,serif" font-size="14.00">:type_tag_set</text>
<polygon fill="none" stroke="black" points="432.5,-180 432.5,-201 550.5,-201 550.5,-180 432.5,-180"/>
<text text-anchor="start" x="450.5" y="-186.8" font-family="Times,serif" font-size="14.00">BodySequence</text>
</g>
<!-- asn1_der__seq&#45;&gt;asn1_der__seq_body_switch -->
<g id="edge2" class="edge"><title>asn1_der__seq:body_type&#45;&gt;asn1_der__seq_body_switch</title>
<path fill="none" stroke="black" stroke-width="2" d="M232.5,-243C242.853,-243 253.535,-243 264.295,-243"/>
<polygon fill="black" stroke="black" stroke-width="2" points="264.627,-246.5 274.627,-243 264.627,-239.5 264.627,-246.5"/>
</g>
<!-- len_encoded__seq -->
<g id="node3" class="node"><title>len_encoded__seq</title>
<polygon fill="#e0ffe0" stroke="none" points="359.5,-383 359.5,-404 384.5,-404 384.5,-383 359.5,-383"/>
<polygon fill="none" stroke="black" points="359.5,-383 359.5,-404 384.5,-404 384.5,-383 359.5,-383"/>
<text text-anchor="start" x="362.5" y="-389.8" font-family="Times,serif" font-size="14.00">pos</text>
<polygon fill="#e0ffe0" stroke="none" points="384.5,-383 384.5,-404 412.5,-404 412.5,-383 384.5,-383"/>
<polygon fill="none" stroke="black" points="384.5,-383 384.5,-404 412.5,-404 412.5,-383 384.5,-383"/>
<text text-anchor="start" x="387.5" y="-389.8" font-family="Times,serif" font-size="14.00">size</text>
<polygon fill="#e0ffe0" stroke="none" points="412.5,-383 412.5,-404 445.5,-404 445.5,-383 412.5,-383"/>
<polygon fill="none" stroke="black" points="412.5,-383 412.5,-404 445.5,-404 445.5,-383 412.5,-383"/>
<text text-anchor="start" x="417" y="-389.8" font-family="Times,serif" font-size="14.00">type</text>
<polygon fill="#e0ffe0" stroke="none" points="445.5,-383 445.5,-404 473.5,-404 473.5,-383 445.5,-383"/>
<polygon fill="none" stroke="black" points="445.5,-383 445.5,-404 473.5,-404 473.5,-383 445.5,-383"/>
<text text-anchor="start" x="454" y="-389.8" font-family="Times,serif" font-size="14.00">id</text>
<polygon fill="none" stroke="black" points="359.5,-362 359.5,-383 384.5,-383 384.5,-362 359.5,-362"/>
<text text-anchor="start" x="368.5" y="-368.8" font-family="Times,serif" font-size="14.00">0</text>
<polygon fill="none" stroke="black" points="384.5,-362 384.5,-383 412.5,-383 412.5,-362 384.5,-362"/>
<text text-anchor="start" x="395" y="-368.8" font-family="Times,serif" font-size="14.00">1</text>
<polygon fill="none" stroke="black" points="412.5,-362 412.5,-383 445.5,-383 445.5,-362 412.5,-362"/>
<text text-anchor="start" x="422" y="-368.8" font-family="Times,serif" font-size="14.00">u1</text>
<polygon fill="none" stroke="black" points="445.5,-362 445.5,-383 473.5,-383 473.5,-362 445.5,-362"/>
<text text-anchor="start" x="452.5" y="-368.8" font-family="Times,serif" font-size="14.00">b1</text>
<polygon fill="none" stroke="black" points="359.5,-341 359.5,-362 384.5,-362 384.5,-341 359.5,-341"/>
<text text-anchor="start" x="368.5" y="-347.8" font-family="Times,serif" font-size="14.00">1</text>
<polygon fill="none" stroke="black" points="384.5,-341 384.5,-362 412.5,-362 412.5,-341 384.5,-341"/>
<text text-anchor="start" x="395" y="-347.8" font-family="Times,serif" font-size="14.00">2</text>
<polygon fill="none" stroke="black" points="412.5,-341 412.5,-362 445.5,-362 445.5,-341 412.5,-341"/>
<text text-anchor="start" x="415.5" y="-347.8" font-family="Times,serif" font-size="14.00">u2be</text>
<polygon fill="none" stroke="black" points="445.5,-341 445.5,-362 473.5,-362 473.5,-341 445.5,-341"/>
<text text-anchor="start" x="448.5" y="-347.8" font-family="Times,serif" font-size="14.00">int2</text>
</g>
<!-- asn1_der__seq&#45;&gt;len_encoded__seq -->
<g id="edge1" class="edge"><title>asn1_der__seq:len_type&#45;&gt;len_encoded__seq</title>
<path fill="none" stroke="black" stroke-width="2" d="M232.5,-264C268.517,-264 246.285,-311.259 275,-333 294.196,-347.534 318.478,-356.789 341.432,-362.682"/>
<polygon fill="black" stroke="black" stroke-width="2" points="340.631,-366.089 351.17,-365.008 342.256,-359.281 340.631,-366.089"/>
</g>
<!-- body_sequence__seq -->
<g id="node5" class="node"><title>body_sequence__seq</title>
<polygon fill="#e0ffe0" stroke="none" points="629,-264 629,-285 654,-285 654,-264 629,-264"/>
<polygon fill="none" stroke="black" points="629,-264 629,-285 654,-285 654,-264 629,-264"/>
<text text-anchor="start" x="632" y="-270.8" font-family="Times,serif" font-size="14.00">pos</text>
<polygon fill="#e0ffe0" stroke="none" points="654,-264 654,-285 682,-285 682,-264 654,-264"/>
<polygon fill="none" stroke="black" points="654,-264 654,-285 682,-285 682,-264 654,-264"/>
<text text-anchor="start" x="657" y="-270.8" font-family="Times,serif" font-size="14.00">size</text>
<polygon fill="#e0ffe0" stroke="none" points="682,-264 682,-285 737,-285 737,-264 682,-264"/>
<polygon fill="none" stroke="black" points="682,-264 682,-285 737,-285 737,-264 682,-264"/>
<text text-anchor="start" x="697.5" y="-270.8" font-family="Times,serif" font-size="14.00">type</text>
<polygon fill="#e0ffe0" stroke="none" points="737,-264 737,-285 780,-285 780,-264 737,-264"/>
<polygon fill="none" stroke="black" points="737,-264 737,-285 780,-285 780,-264 737,-264"/>
<text text-anchor="start" x="753" y="-270.8" font-family="Times,serif" font-size="14.00">id</text>
<polygon fill="none" stroke="black" points="629,-243 629,-264 654,-264 654,-243 629,-243"/>
<text text-anchor="start" x="638" y="-249.8" font-family="Times,serif" font-size="14.00">0</text>
<polygon fill="none" stroke="black" points="654,-243 654,-264 682,-264 682,-243 654,-243"/>
<text text-anchor="start" x="662" y="-249.8" font-family="Times,serif" font-size="14.00">...</text>
<polygon fill="none" stroke="black" points="682,-243 682,-264 737,-264 737,-243 682,-243"/>
<text text-anchor="start" x="685" y="-249.8" font-family="Times,serif" font-size="14.00">Asn1Der</text>
<polygon fill="none" stroke="black" points="737,-243 737,-264 780,-264 780,-243 737,-243"/>
<text text-anchor="start" x="740" y="-249.8" font-family="Times,serif" font-size="14.00">entries</text>
<polygon fill="none" stroke="black" points="629,-222 629,-243 780,-243 780,-222 629,-222"/>
<text text-anchor="start" x="641" y="-228.8" font-family="Times,serif" font-size="14.00">repeat to end of stream</text>
</g>
<!-- asn1_der__seq_body_switch&#45;&gt;body_sequence__seq -->
<g id="edge3" class="edge"><title>asn1_der__seq_body_switch:case0&#45;&gt;body_sequence__seq</title>
<path fill="none" stroke="black" stroke-width="2" d="M551.5,-275C570.607,-275 590.943,-273.341 610.306,-270.955"/>
<polygon fill="black" stroke="black" stroke-width="2" points="610.869,-274.412 620.332,-269.646 609.963,-267.47 610.869,-274.412"/>
</g>
<!-- asn1_der__seq_body_switch&#45;&gt;body_sequence__seq -->
<g id="edge4" class="edge"><title>asn1_der__seq_body_switch:case1&#45;&gt;body_sequence__seq</title>
<path fill="none" stroke="black" stroke-width="2" d="M551.5,-254C570.538,-254 590.922,-254 610.369,-254"/>
<polygon fill="black" stroke="black" stroke-width="2" points="610.441,-257.5 620.441,-254 610.441,-250.5 610.441,-257.5"/>
</g>
<!-- asn1_der__seq_body_switch&#45;&gt;body_sequence__seq -->
<g id="edge7" class="edge"><title>asn1_der__seq_body_switch:case4&#45;&gt;body_sequence__seq</title>
<path fill="none" stroke="black" stroke-width="2" d="M551.5,-190C555.333,-190 582.61,-201.262 612.988,-214.338"/>
<polygon fill="black" stroke="black" stroke-width="2" points="611.925,-217.691 622.493,-218.444 614.701,-211.265 611.925,-217.691"/>
</g>
<!-- body_utf8string__seq -->
<g id="node6" class="node"><title>body_utf8string__seq</title>
<polygon fill="#e0ffe0" stroke="none" points="635,-146 635,-167 660,-167 660,-146 635,-146"/>
<polygon fill="none" stroke="black" points="635,-146 635,-167 660,-167 660,-146 635,-146"/>
<text text-anchor="start" x="638" y="-152.8" font-family="Times,serif" font-size="14.00">pos</text>
<polygon fill="#e0ffe0" stroke="none" points="660,-146 660,-167 688,-167 688,-146 660,-146"/>
<polygon fill="none" stroke="black" points="660,-146 660,-167 688,-167 688,-146 660,-146"/>
<text text-anchor="start" x="663" y="-152.8" font-family="Times,serif" font-size="14.00">size</text>
<polygon fill="#e0ffe0" stroke="none" points="688,-146 688,-167 754,-167 754,-146 688,-146"/>
<polygon fill="none" stroke="black" points="688,-146 688,-167 754,-167 754,-146 688,-146"/>
<text text-anchor="start" x="709" y="-152.8" font-family="Times,serif" font-size="14.00">type</text>
<polygon fill="#e0ffe0" stroke="none" points="754,-146 754,-167 774,-167 774,-146 754,-146"/>
<polygon fill="none" stroke="black" points="754,-146 754,-167 774,-167 774,-146 754,-146"/>
<text text-anchor="start" x="758.5" y="-152.8" font-family="Times,serif" font-size="14.00">id</text>
<polygon fill="none" stroke="black" points="635,-125 635,-146 660,-146 660,-125 635,-125"/>
<text text-anchor="start" x="644" y="-131.8" font-family="Times,serif" font-size="14.00">0</text>
<polygon fill="none" stroke="black" points="660,-125 660,-146 688,-146 688,-125 660,-125"/>
<text text-anchor="start" x="667.5" y="-131.8" font-family="Times,serif" font-size="14.00">⇲</text>
<polygon fill="none" stroke="black" points="688,-125 688,-146 754,-146 754,-125 688,-125"/>
<text text-anchor="start" x="691" y="-131.8" font-family="Times,serif" font-size="14.00">str(UTF&#45;8)</text>
<polygon fill="none" stroke="black" points="754,-125 754,-146 774,-146 774,-125 754,-125"/>
<text text-anchor="start" x="757" y="-131.8" font-family="Times,serif" font-size="14.00">str</text>
</g>
<!-- asn1_der__seq_body_switch&#45;&gt;body_utf8string__seq -->
<g id="edge5" class="edge"><title>asn1_der__seq_body_switch:case2&#45;&gt;body_utf8string__seq</title>
<path fill="none" stroke="black" stroke-width="2" d="M551.5,-232C573.643,-232 574.851,-217.12 594,-206 611.259,-195.977 630.259,-185.374 647.494,-175.914"/>
<polygon fill="black" stroke="black" stroke-width="2" points="649.235,-178.951 656.327,-171.081 645.875,-172.811 649.235,-178.951"/>
</g>
<!-- body_printable_string__seq -->
<g id="node7" class="node"><title>body_printable_string__seq</title>
<polygon fill="#e0ffe0" stroke="none" points="636,-49 636,-70 661,-70 661,-49 636,-49"/>
<polygon fill="none" stroke="black" points="636,-49 636,-70 661,-70 661,-49 636,-49"/>
<text text-anchor="start" x="639" y="-55.8" font-family="Times,serif" font-size="14.00">pos</text>
<polygon fill="#e0ffe0" stroke="none" points="661,-49 661,-70 689,-70 689,-49 661,-49"/>
<polygon fill="none" stroke="black" points="661,-49 661,-70 689,-70 689,-49 661,-49"/>
<text text-anchor="start" x="664" y="-55.8" font-family="Times,serif" font-size="14.00">size</text>
<polygon fill="#e0ffe0" stroke="none" points="689,-49 689,-70 753,-70 753,-49 689,-49"/>
<polygon fill="none" stroke="black" points="689,-49 689,-70 753,-70 753,-49 689,-49"/>
<text text-anchor="start" x="709" y="-55.8" font-family="Times,serif" font-size="14.00">type</text>
<polygon fill="#e0ffe0" stroke="none" points="753,-49 753,-70 773,-70 773,-49 753,-49"/>
<polygon fill="none" stroke="black" points="753,-49 753,-70 773,-70 773,-49 753,-49"/>
<text text-anchor="start" x="757.5" y="-55.8" font-family="Times,serif" font-size="14.00">id</text>
<polygon fill="none" stroke="black" points="636,-28 636,-49 661,-49 661,-28 636,-28"/>
<text text-anchor="start" x="645" y="-34.8" font-family="Times,serif" font-size="14.00">0</text>
<polygon fill="none" stroke="black" points="661,-28 661,-49 689,-49 689,-28 661,-28"/>
<text text-anchor="start" x="668.5" y="-34.8" font-family="Times,serif" font-size="14.00">⇲</text>
<polygon fill="none" stroke="black" points="689,-28 689,-49 753,-49 753,-28 689,-28"/>
<text text-anchor="start" x="692" y="-34.8" font-family="Times,serif" font-size="14.00">str(ASCII)</text>
<polygon fill="none" stroke="black" points="753,-28 753,-49 773,-49 773,-28 753,-28"/>
<text text-anchor="start" x="756" y="-34.8" font-family="Times,serif" font-size="14.00">str</text>
</g>
<!-- asn1_der__seq_body_switch&#45;&gt;body_printable_string__seq -->
<g id="edge6" class="edge"><title>asn1_der__seq_body_switch:case3&#45;&gt;body_printable_string__seq</title>
<path fill="none" stroke="black" stroke-width="2" d="M551.5,-211C600.611,-211 561.206,-145.557 594,-109 604.531,-97.2608 617.92,-87.3374 631.682,-79.149"/>
<polygon fill="black" stroke="black" stroke-width="2" points="633.772,-81.9876 640.752,-74.0169 630.325,-75.8952 633.772,-81.9876"/>
</g>
<!-- len_encoded__inst__result -->
<g id="node4" class="node"><title>len_encoded__inst__result</title>
<polygon fill="#e0ffe0" stroke="none" points="602,-372 602,-393 639,-393 639,-372 602,-372"/>
<polygon fill="none" stroke="black" points="602,-372 602,-393 639,-393 639,-372 602,-372"/>
<text text-anchor="start" x="615" y="-378.8" font-family="Times,serif" font-size="14.00">id</text>
<polygon fill="#e0ffe0" stroke="none" points="639,-372 639,-393 806,-393 806,-372 639,-372"/>
<polygon fill="none" stroke="black" points="639,-372 639,-393 806,-393 806,-372 639,-372"/>
<text text-anchor="start" x="707.5" y="-378.8" font-family="Times,serif" font-size="14.00">value</text>
<polygon fill="none" stroke="black" points="602,-351 602,-372 639,-372 639,-351 602,-351"/>
<text text-anchor="start" x="605" y="-357.8" font-family="Times,serif" font-size="14.00">result</text>
<polygon fill="none" stroke="black" points="639,-351 639,-372 806,-372 806,-351 639,-351"/>
<text text-anchor="start" x="642" y="-357.8" font-family="Times,serif" font-size="14.00">((b1 &amp; 128) == 0 ? b1 : int2)</text>
</g>
<!-- len_encoded__seq&#45;&gt;len_encoded__inst__result -->
<g id="edge9" class="edge"><title>len_encoded__seq:b1_type&#45;&gt;len_encoded__inst__result</title>
<path fill="none" stroke="#404040" d="M474.5,-372C509.884,-368.864 548.35,-366.821 583.455,-365.87"/>
<polygon fill="#404040" stroke="#404040" points="583.834,-369.362 593.746,-365.621 583.664,-362.364 583.834,-369.362"/>
</g>
<!-- len_encoded__seq&#45;&gt;len_encoded__inst__result -->
<g id="edge10" class="edge"><title>len_encoded__seq:b1_type&#45;&gt;len_encoded__inst__result</title>
<path fill="none" stroke="#404040" d="M474.798,-372.026C510.164,-375.153 548.589,-377.189 583.647,-378.135"/>
<polygon fill="#404040" stroke="#404040" points="583.843,-381.64 593.925,-378.383 584.012,-374.643 583.843,-381.64"/>
</g>
<!-- len_encoded__seq&#45;&gt;len_encoded__inst__result -->
<g id="edge11" class="edge"><title>len_encoded__seq:int2_type&#45;&gt;len_encoded__inst__result</title>
<path fill="none" stroke="#404040" d="M474.5,-351C510.033,-351 548.544,-353.549 583.645,-356.871"/>
<polygon fill="#404040" stroke="#404040" points="583.641,-360.388 593.933,-357.876 584.321,-353.421 583.641,-360.388"/>
</g>
<!-- body_sequence__seq&#45;&gt;asn1_der__seq -->
<g id="edge12" class="edge"><title>body_sequence__seq:entries_type&#45;&gt;asn1_der__seq</title>
<path fill="none" stroke="black" stroke-width="2" d="M781,-253C796.34,-253 790.638,-229.552 780,-218.5 751.271,-188.654 631.37,-223.879 594,-206 572.721,-195.82 579.609,-176.461 558,-167 442.782,-116.554 394.486,-127.718 275,-167 240.996,-178.179 208.399,-200.612 182.623,-222.15"/>
<polygon fill="black" stroke="black" stroke-width="2" points="180.178,-219.636 174.849,-228.793 184.725,-224.958 180.178,-219.636"/>
</g>
</g>
</svg>
