<?xml version="1.0" encoding="UTF-8" standalone="no"?>
<!DOCTYPE svg PUBLIC "-//W3C//DTD SVG 1.1//EN"
 "http://www.w3.org/Graphics/SVG/1.1/DTD/svg11.dtd">
<!-- Generated by graphviz version 2.38.0 (20140413.2041)
 -->
<!-- Title: %3 Pages: 1 -->
<svg width="1437pt" height="672pt"
 viewBox="0.00 0.00 1437.00 672.00" xmlns="http://www.w3.org/2000/svg" xmlns:xlink="http://www.w3.org/1999/xlink">
<g id="graph0" class="graph" transform="scale(1 1) rotate(0) translate(4 668)">
<title>%3</title>
<polygon fill="white" stroke="none" points="-4,4 -4,-668 1433,-668 1433,4 -4,4"/>
<g id="clust1" class="cluster"><title>cluster__asn1_der</title>
<polygon fill="none" stroke="black" stroke-dasharray="1,5" points="8,-8 8,-656 1421,-656 1421,-8 8,-8"/>
<text text-anchor="middle" x="714.5" y="-640.8" font-family="Times,serif" font-size="14.00">Asn1Der</text>
</g>
<g id="clust2" class="cluster"><title>cluster__body_sequence</title>
<polygon fill="none" stroke="black" stroke-dasharray="1,5" points="814.5,-375 814.5,-486 1037.5,-486 1037.5,-375 814.5,-375"/>
<text text-anchor="middle" x="926" y="-470.8" font-family="Times,serif" font-size="14.00">Asn1Der::BodySequence</text>
</g>
<g id="clust3" class="cluster"><title>cluster__body_utf8string</title>
<polygon fill="none" stroke="black" stroke-dasharray="1,5" points="824,-278 824,-367 1028,-367 1028,-278 824,-278"/>
<text text-anchor="middle" x="926" y="-351.8" font-family="Times,serif" font-size="14.00">Asn1Der::BodyUtf8string</text>
</g>
<g id="clust4" class="cluster"><title>cluster__body_object_id</title>
<polygon fill="none" stroke="black" stroke-dasharray="1,5" points="795,-16 795,-173 1413,-173 1413,-16 795,-16"/>
<text text-anchor="middle" x="1104" y="-157.8" font-family="Times,serif" font-size="14.00">Asn1Der::BodyObjectId</text>
</g>
<g id="clust5" class="cluster"><title>cluster__len_encoded</title>
<polygon fill="none" stroke="black" stroke-dasharray="1,5" points="428.5,-494 428.5,-625 1126,-625 1126,-494 428.5,-494"/>
<text text-anchor="middle" x="777.25" y="-609.8" font-family="Times,serif" font-size="14.00">Asn1Der::LenEncoded</text>
</g>
<g id="clust6" class="cluster"><title>cluster__body_printable_string</title>
<polygon fill="none" stroke="black" stroke-dasharray="1,5" points="809,-181 809,-270 1043,-270 1043,-181 809,-181"/>
<text text-anchor="middle" x="926" y="-254.8" font-family="Times,serif" font-size="14.00">Asn1Der::BodyPrintableString</text>
</g>
<!-- asn1_der__seq -->
<g id="node1" class="node"><title>asn1_der__seq</title>
<polygon fill="#e0ffe0" stroke="none" points="24.5,-467 24.5,-488 55.5,-488 55.5,-467 24.5,-467"/>
<polygon fill="none" stroke="black" points="24.5,-467 24.5,-488 55.5,-488 55.5,-467 24.5,-467"/>
<text text-anchor="start" x="27.5" y="-473.8" font-family="Times,serif" font-size="14.00">pos</text>
<polygon fill="#e0ffe0" stroke="none" points="55.5,-467 55.5,-488 89.5,-488 89.5,-467 55.5,-467"/>
<polygon fill="none" stroke="black" points="55.5,-467 55.5,-488 89.5,-488 89.5,-467 55.5,-467"/>
<text text-anchor="start" x="58.5" y="-473.8" font-family="Times,serif" font-size="14.00">size</text>
<polygon fill="#e0ffe0" stroke="none" points="89.5,-467 89.5,-488 220.5,-488 220.5,-467 89.5,-467"/>
<polygon fill="none" stroke="black" points="89.5,-467 89.5,-488 220.5,-488 220.5,-467 89.5,-467"/>
<text text-anchor="start" x="139" y="-473.8" font-family="Times,serif" font-size="14.00">type</text>
<polygon fill="#e0ffe0" stroke="none" points="220.5,-467 220.5,-488 289.5,-488 289.5,-467 220.5,-467"/>
<polygon fill="none" stroke="black" points="220.5,-467 220.5,-488 289.5,-488 289.5,-467 220.5,-467"/>
<text text-anchor="start" x="248" y="-473.8" font-family="Times,serif" font-size="14.00">id</text>
<polygon fill="none" stroke="black" points="24.5,-446 24.5,-467 55.5,-467 55.5,-446 24.5,-446"/>
<text text-anchor="start" x="35" y="-452.8" font-family="Times,serif" font-size="14.00">0</text>
<polygon fill="none" stroke="black" points="55.5,-446 55.5,-467 89.5,-467 89.5,-446 55.5,-446"/>
<text text-anchor="start" x="67.5" y="-452.8" font-family="Times,serif" font-size="14.00">1</text>
<polygon fill="none" stroke="black" points="89.5,-446 89.5,-467 220.5,-467 220.5,-446 89.5,-446"/>
<text text-anchor="start" x="109.5" y="-452.8" font-family="Times,serif" font-size="14.00">u1→TypeTag</text>
<polygon fill="none" stroke="black" points="220.5,-446 220.5,-467 289.5,-467 289.5,-446 220.5,-446"/>
<text text-anchor="start" x="223.5" y="-452.8" font-family="Times,serif" font-size="14.00">type_tag</text>
<polygon fill="none" stroke="black" points="24.5,-425 24.5,-446 55.5,-446 55.5,-425 24.5,-425"/>
<text text-anchor="start" x="35" y="-431.8" font-family="Times,serif" font-size="14.00">1</text>
<polygon fill="none" stroke="black" points="55.5,-425 55.5,-446 89.5,-446 89.5,-425 55.5,-425"/>
<text text-anchor="start" x="67.5" y="-431.8" font-family="Times,serif" font-size="14.00">4</text>
<polygon fill="none" stroke="black" points="89.5,-425 89.5,-446 220.5,-446 220.5,-425 89.5,-425"/>
<text text-anchor="start" x="110" y="-431.8" font-family="Times,serif" font-size="14.00">LenEncoded</text>
<polygon fill="none" stroke="black" points="220.5,-425 220.5,-446 289.5,-446 289.5,-425 220.5,-425"/>
<text text-anchor="start" x="244" y="-431.8" font-family="Times,serif" font-size="14.00">len</text>
<polygon fill="none" stroke="black" points="24.5,-404 24.5,-425 55.5,-425 55.5,-404 24.5,-404"/>
<text text-anchor="start" x="35" y="-410.8" font-family="Times,serif" font-size="14.00">5</text>
<polygon fill="none" stroke="black" points="55.5,-404 55.5,-425 89.5,-425 89.5,-404 55.5,-404"/>
<text text-anchor="start" x="65.5" y="-410.8" font-family="Times,serif" font-size="14.00">...</text>
<polygon fill="none" stroke="black" points="89.5,-404 89.5,-425 220.5,-425 220.5,-404 89.5,-404"/>
<text text-anchor="start" x="92.5" y="-410.8" font-family="Times,serif" font-size="14.00">switch (type_tag)</text>
<polygon fill="none" stroke="black" points="220.5,-404 220.5,-425 289.5,-425 289.5,-404 220.5,-404"/>
<text text-anchor="start" x="237.5" y="-410.8" font-family="Times,serif" font-size="14.00">body</text>
</g>
<!-- asn1_der__seq&#45;&gt;asn1_der__seq -->
<g id="edge9" class="edge"><title>asn1_der__seq:type_tag_type&#45;&gt;asn1_der__seq:body_type</title>
<path fill="none" stroke="#404040" d="M221.561,-467.046C167.972,-487.037 179.285,-510 255.5,-510 328.869,-510 342.093,-459.823 295.171,-429.983"/>
<polygon fill="#404040" stroke="#404040" points="296.849,-426.911 286.424,-425.022 293.396,-433 296.849,-426.911"/>
</g>
<!-- asn1_der__seq_body_switch -->
<g id="node2" class="node"><title>asn1_der__seq_body_switch</title>
<polygon fill="#f0f2e4" stroke="none" points="341.5,-401 341.5,-422 537.5,-422 537.5,-401 341.5,-401"/>
<polygon fill="none" stroke="black" points="341.5,-401 341.5,-422 537.5,-422 537.5,-401 341.5,-401"/>
<text text-anchor="start" x="423" y="-407.8" font-family="Times,serif" font-size="14.00">case</text>
<polygon fill="#f0f2e4" stroke="none" points="537.5,-401 537.5,-422 690.5,-422 690.5,-401 537.5,-401"/>
<polygon fill="none" stroke="black" points="537.5,-401 537.5,-422 690.5,-422 690.5,-401 537.5,-401"/>
<text text-anchor="start" x="598" y="-407.8" font-family="Times,serif" font-size="14.00">type</text>
<polygon fill="none" stroke="black" points="341.5,-380 341.5,-401 537.5,-401 537.5,-380 341.5,-380"/>
<text text-anchor="start" x="355.5" y="-386.8" font-family="Times,serif" font-size="14.00">:type_tag_sequence_30</text>
<polygon fill="none" stroke="black" points="537.5,-380 537.5,-401 690.5,-401 690.5,-380 537.5,-380"/>
<text text-anchor="start" x="561" y="-386.8" font-family="Times,serif" font-size="14.00">BodySequence</text>
<polygon fill="none" stroke="black" points="341.5,-359 341.5,-380 537.5,-380 537.5,-359 341.5,-359"/>
<text text-anchor="start" x="355.5" y="-365.8" font-family="Times,serif" font-size="14.00">:type_tag_sequence_10</text>
<polygon fill="none" stroke="black" points="537.5,-359 537.5,-380 690.5,-380 690.5,-359 537.5,-359"/>
<text text-anchor="start" x="561" y="-365.8" font-family="Times,serif" font-size="14.00">BodySequence</text>
<polygon fill="none" stroke="black" points="341.5,-338 341.5,-359 537.5,-359 537.5,-338 341.5,-338"/>
<text text-anchor="start" x="366" y="-344.8" font-family="Times,serif" font-size="14.00">:type_tag_utf8string</text>
<polygon fill="none" stroke="black" points="537.5,-338 537.5,-359 690.5,-359 690.5,-338 537.5,-338"/>
<text text-anchor="start" x="558.5" y="-344.8" font-family="Times,serif" font-size="14.00">BodyUtf8string</text>
<polygon fill="none" stroke="black" points="341.5,-317 341.5,-338 537.5,-338 537.5,-317 341.5,-317"/>
<text text-anchor="start" x="344.5" y="-323.8" font-family="Times,serif" font-size="14.00">:type_tag_printable_string</text>
<polygon fill="none" stroke="black" points="537.5,-317 537.5,-338 690.5,-338 690.5,-317 537.5,-317"/>
<text text-anchor="start" x="540.5" y="-323.8" font-family="Times,serif" font-size="14.00">BodyPrintableString</text>
<polygon fill="none" stroke="black" points="341.5,-296 341.5,-317 537.5,-317 537.5,-296 341.5,-296"/>
<text text-anchor="start" x="369.5" y="-302.8" font-family="Times,serif" font-size="14.00">:type_tag_object_id</text>
<polygon fill="none" stroke="black" points="537.5,-296 537.5,-317 690.5,-317 690.5,-296 537.5,-296"/>
<text text-anchor="start" x="564.5" y="-302.8" font-family="Times,serif" font-size="14.00">BodyObjectId</text>
<polygon fill="none" stroke="black" points="341.5,-275 341.5,-296 537.5,-296 537.5,-275 341.5,-275"/>
<text text-anchor="start" x="391" y="-281.8" font-family="Times,serif" font-size="14.00">:type_tag_set</text>
<polygon fill="none" stroke="black" points="537.5,-275 537.5,-296 690.5,-296 690.5,-275 537.5,-275"/>
<text text-anchor="start" x="561" y="-281.8" font-family="Times,serif" font-size="14.00">BodySequence</text>
</g>
<!-- asn1_der__seq&#45;&gt;asn1_der__seq_body_switch -->
<g id="edge2" class="edge"><title>asn1_der__seq:body_type&#45;&gt;asn1_der__seq_body_switch</title>
<path fill="none" stroke="black" stroke-width="2" d="M290.5,-414C301.196,-414 312.069,-413.308 322.97,-412.067"/>
<polygon fill="black" stroke="black" stroke-width="2" points="323.513,-415.526 332.984,-410.777 322.618,-408.583 323.513,-415.526"/>
</g>
<!-- len_encoded__seq -->
<g id="node8" class="node"><title>len_encoded__seq</title>
<polygon fill="#e0ffe0" stroke="none" points="444.5,-569 444.5,-590 475.5,-590 475.5,-569 444.5,-569"/>
<polygon fill="none" stroke="black" points="444.5,-569 444.5,-590 475.5,-590 475.5,-569 444.5,-569"/>
<text text-anchor="start" x="447.5" y="-575.8" font-family="Times,serif" font-size="14.00">pos</text>
<polygon fill="#e0ffe0" stroke="none" points="475.5,-569 475.5,-590 509.5,-590 509.5,-569 475.5,-569"/>
<polygon fill="none" stroke="black" points="475.5,-569 475.5,-590 509.5,-590 509.5,-569 475.5,-569"/>
<text text-anchor="start" x="478.5" y="-575.8" font-family="Times,serif" font-size="14.00">size</text>
<polygon fill="#e0ffe0" stroke="none" points="509.5,-569 509.5,-590 551.5,-590 551.5,-569 509.5,-569"/>
<polygon fill="none" stroke="black" points="509.5,-569 509.5,-590 551.5,-590 551.5,-569 509.5,-569"/>
<text text-anchor="start" x="514.5" y="-575.8" font-family="Times,serif" font-size="14.00">type</text>
<polygon fill="#e0ffe0" stroke="none" points="551.5,-569 551.5,-590 586.5,-590 586.5,-569 551.5,-569"/>
<polygon fill="none" stroke="black" points="551.5,-569 551.5,-590 586.5,-590 586.5,-569 551.5,-569"/>
<text text-anchor="start" x="562" y="-575.8" font-family="Times,serif" font-size="14.00">id</text>
<polygon fill="none" stroke="black" points="444.5,-548 444.5,-569 475.5,-569 475.5,-548 444.5,-548"/>
<text text-anchor="start" x="455" y="-554.8" font-family="Times,serif" font-size="14.00">0</text>
<polygon fill="none" stroke="black" points="475.5,-548 475.5,-569 509.5,-569 509.5,-548 475.5,-548"/>
<text text-anchor="start" x="487.5" y="-554.8" font-family="Times,serif" font-size="14.00">1</text>
<polygon fill="none" stroke="black" points="509.5,-548 509.5,-569 551.5,-569 551.5,-548 509.5,-548"/>
<text text-anchor="start" x="521" y="-554.8" font-family="Times,serif" font-size="14.00">u1</text>
<polygon fill="none" stroke="black" points="551.5,-548 551.5,-569 586.5,-569 586.5,-548 551.5,-548"/>
<text text-anchor="start" x="559.5" y="-554.8" font-family="Times,serif" font-size="14.00">b1</text>
<polygon fill="none" stroke="black" points="444.5,-527 444.5,-548 475.5,-548 475.5,-527 444.5,-527"/>
<text text-anchor="start" x="455" y="-533.8" font-family="Times,serif" font-size="14.00">1</text>
<polygon fill="none" stroke="black" points="475.5,-527 475.5,-548 509.5,-548 509.5,-527 475.5,-527"/>
<text text-anchor="start" x="487.5" y="-533.8" font-family="Times,serif" font-size="14.00">2</text>
<polygon fill="none" stroke="black" points="509.5,-527 509.5,-548 551.5,-548 551.5,-527 509.5,-527"/>
<text text-anchor="start" x="512.5" y="-533.8" font-family="Times,serif" font-size="14.00">u2be</text>
<polygon fill="none" stroke="black" points="551.5,-527 551.5,-548 586.5,-548 586.5,-527 551.5,-527"/>
<text text-anchor="start" x="554.5" y="-533.8" font-family="Times,serif" font-size="14.00">int2</text>
<polygon fill="none" stroke="black" points="444.5,-506 444.5,-527 475.5,-527 475.5,-506 444.5,-506"/>
<text text-anchor="start" x="455" y="-512.8" font-family="Times,serif" font-size="14.00">3</text>
<polygon fill="none" stroke="black" points="475.5,-506 475.5,-527 509.5,-527 509.5,-506 475.5,-506"/>
<text text-anchor="start" x="487.5" y="-512.8" font-family="Times,serif" font-size="14.00">1</text>
<polygon fill="none" stroke="black" points="509.5,-506 509.5,-527 551.5,-527 551.5,-506 509.5,-506"/>
<text text-anchor="start" x="521" y="-512.8" font-family="Times,serif" font-size="14.00">u1</text>
<polygon fill="none" stroke="black" points="551.5,-506 551.5,-527 586.5,-527 586.5,-506 551.5,-506"/>
<text text-anchor="start" x="554.5" y="-512.8" font-family="Times,serif" font-size="14.00">int1</text>
</g>
<!-- asn1_der__seq&#45;&gt;len_encoded__seq -->
<g id="edge1" class="edge"><title>asn1_der__seq:len_type&#45;&gt;len_encoded__seq</title>
<path fill="none" stroke="black" stroke-width="2" d="M290.5,-435C324.276,-435 305.571,-478.291 333,-498 360.184,-517.533 394.666,-529.44 426.257,-536.696"/>
<polygon fill="black" stroke="black" stroke-width="2" points="425.885,-540.196 436.399,-538.892 427.366,-533.355 425.885,-540.196"/>
</g>
<!-- body_sequence__seq -->
<g id="node3" class="node"><title>body_sequence__seq</title>
<polygon fill="#e0ffe0" stroke="none" points="831,-429 831,-450 862,-450 862,-429 831,-429"/>
<polygon fill="none" stroke="black" points="831,-429 831,-450 862,-450 862,-429 831,-429"/>
<text text-anchor="start" x="834" y="-435.8" font-family="Times,serif" font-size="14.00">pos</text>
<polygon fill="#e0ffe0" stroke="none" points="862,-429 862,-450 896,-450 896,-429 862,-429"/>
<polygon fill="none" stroke="black" points="862,-429 862,-450 896,-450 896,-429 862,-429"/>
<text text-anchor="start" x="865" y="-435.8" font-family="Times,serif" font-size="14.00">size</text>
<polygon fill="#e0ffe0" stroke="none" points="896,-429 896,-450 965,-450 965,-429 896,-429"/>
<polygon fill="none" stroke="black" points="896,-429 896,-450 965,-450 965,-429 896,-429"/>
<text text-anchor="start" x="914.5" y="-435.8" font-family="Times,serif" font-size="14.00">type</text>
<polygon fill="#e0ffe0" stroke="none" points="965,-429 965,-450 1022,-450 1022,-429 965,-429"/>
<polygon fill="none" stroke="black" points="965,-429 965,-450 1022,-450 1022,-429 965,-429"/>
<text text-anchor="start" x="986.5" y="-435.8" font-family="Times,serif" font-size="14.00">id</text>
<polygon fill="none" stroke="black" points="831,-408 831,-429 862,-429 862,-408 831,-408"/>
<text text-anchor="start" x="841.5" y="-414.8" font-family="Times,serif" font-size="14.00">0</text>
<polygon fill="none" stroke="black" points="862,-408 862,-429 896,-429 896,-408 862,-408"/>
<text text-anchor="start" x="872" y="-414.8" font-family="Times,serif" font-size="14.00">...</text>
<polygon fill="none" stroke="black" points="896,-408 896,-429 965,-429 965,-408 896,-408"/>
<text text-anchor="start" x="899" y="-414.8" font-family="Times,serif" font-size="14.00">Asn1Der</text>
<polygon fill="none" stroke="black" points="965,-408 965,-429 1022,-429 1022,-408 965,-408"/>
<text text-anchor="start" x="968" y="-414.8" font-family="Times,serif" font-size="14.00">entries</text>
<polygon fill="none" stroke="black" points="831,-387 831,-408 1022,-408 1022,-387 831,-387"/>
<text text-anchor="start" x="842" y="-393.8" font-family="Times,serif" font-size="14.00">repeat to end of stream</text>
</g>
<!-- asn1_der__seq_body_switch&#45;&gt;body_sequence__seq -->
<g id="edge3" class="edge"><title>asn1_der__seq_body_switch:case0&#45;&gt;body_sequence__seq</title>
<path fill="none" stroke="black" stroke-width="2" d="M691.5,-391C731.041,-391 774.082,-395.007 812.316,-399.99"/>
<polygon fill="black" stroke="black" stroke-width="2" points="812.068,-403.488 822.445,-401.347 812.998,-396.55 812.068,-403.488"/>
</g>
<!-- asn1_der__seq_body_switch&#45;&gt;body_sequence__seq -->
<g id="edge4" class="edge"><title>asn1_der__seq_body_switch:case1&#45;&gt;body_sequence__seq</title>
<path fill="none" stroke="black" stroke-width="2" d="M691.5,-370C731.329,-370 774.181,-376.913 812.166,-385.546"/>
<polygon fill="black" stroke="black" stroke-width="2" points="811.693,-389.03 822.227,-387.898 813.286,-382.214 811.693,-389.03"/>
</g>
<!-- asn1_der__seq_body_switch&#45;&gt;body_sequence__seq -->
<g id="edge8" class="edge"><title>asn1_der__seq_body_switch:case5&#45;&gt;body_sequence__seq</title>
<path fill="none" stroke="black" stroke-width="2" d="M691.5,-285C734.135,-285 700.822,-344.224 734,-371 756.373,-389.055 784.655,-400.428 812.55,-407.561"/>
<polygon fill="black" stroke="black" stroke-width="2" points="811.851,-410.992 822.391,-409.911 813.477,-404.184 811.851,-410.992"/>
</g>
<!-- body_utf8string__seq -->
<g id="node4" class="node"><title>body_utf8string__seq</title>
<polygon fill="#e0ffe0" stroke="none" points="840,-311 840,-332 871,-332 871,-311 840,-311"/>
<polygon fill="none" stroke="black" points="840,-311 840,-332 871,-332 871,-311 840,-311"/>
<text text-anchor="start" x="843" y="-317.8" font-family="Times,serif" font-size="14.00">pos</text>
<polygon fill="#e0ffe0" stroke="none" points="871,-311 871,-332 905,-332 905,-311 871,-311"/>
<polygon fill="none" stroke="black" points="871,-311 871,-332 905,-332 905,-311 871,-311"/>
<text text-anchor="start" x="874" y="-317.8" font-family="Times,serif" font-size="14.00">size</text>
<polygon fill="#e0ffe0" stroke="none" points="905,-311 905,-332 985,-332 985,-311 905,-311"/>
<polygon fill="none" stroke="black" points="905,-311 905,-332 985,-332 985,-311 905,-311"/>
<text text-anchor="start" x="929" y="-317.8" font-family="Times,serif" font-size="14.00">type</text>
<polygon fill="#e0ffe0" stroke="none" points="985,-311 985,-332 1012,-332 1012,-311 985,-311"/>
<polygon fill="none" stroke="black" points="985,-311 985,-332 1012,-332 1012,-311 985,-311"/>
<text text-anchor="start" x="991.5" y="-317.8" font-family="Times,serif" font-size="14.00">id</text>
<polygon fill="none" stroke="black" points="840,-290 840,-311 871,-311 871,-290 840,-290"/>
<text text-anchor="start" x="850.5" y="-296.8" font-family="Times,serif" font-size="14.00">0</text>
<polygon fill="none" stroke="black" points="871,-290 871,-311 905,-311 905,-290 871,-290"/>
<text text-anchor="start" x="881.5" y="-296.8" font-family="Times,serif" font-size="14.00">⇲</text>
<polygon fill="none" stroke="black" points="905,-290 905,-311 985,-311 985,-290 905,-290"/>
<text text-anchor="start" x="908" y="-296.8" font-family="Times,serif" font-size="14.00">str(UTF&#45;8)</text>
<polygon fill="none" stroke="black" points="985,-290 985,-311 1012,-311 1012,-290 985,-290"/>
<text text-anchor="start" x="988" y="-296.8" font-family="Times,serif" font-size="14.00">str</text>
</g>
<!-- asn1_der__seq_body_switch&#45;&gt;body_utf8string__seq -->
<g id="edge5" class="edge"><title>asn1_der__seq_body_switch:case2&#45;&gt;body_utf8string__seq</title>
<path fill="none" stroke="black" stroke-width="2" d="M691.5,-348C734.536,-348 781.491,-341.793 821.934,-334.463"/>
<polygon fill="black" stroke="black" stroke-width="2" points="822.607,-337.898 831.799,-332.63 821.328,-331.016 822.607,-337.898"/>
</g>
<!-- body_object_id__seq -->
<g id="node5" class="node"><title>body_object_id__seq</title>
<polygon fill="#e0ffe0" stroke="none" points="811,-116 811,-137 842,-137 842,-116 811,-116"/>
<polygon fill="none" stroke="black" points="811,-116 811,-137 842,-137 842,-116 811,-116"/>
<text text-anchor="start" x="814" y="-122.8" font-family="Times,serif" font-size="14.00">pos</text>
<polygon fill="#e0ffe0" stroke="none" points="842,-116 842,-137 876,-137 876,-116 842,-116"/>
<polygon fill="none" stroke="black" points="842,-116 842,-137 876,-137 876,-116 842,-116"/>
<text text-anchor="start" x="845" y="-122.8" font-family="Times,serif" font-size="14.00">size</text>
<polygon fill="#e0ffe0" stroke="none" points="876,-116 876,-137 914,-137 914,-116 876,-116"/>
<polygon fill="none" stroke="black" points="876,-116 876,-137 914,-137 914,-116 876,-116"/>
<text text-anchor="start" x="879" y="-122.8" font-family="Times,serif" font-size="14.00">type</text>
<polygon fill="#e0ffe0" stroke="none" points="914,-116 914,-137 1041,-137 1041,-116 914,-116"/>
<polygon fill="none" stroke="black" points="914,-116 914,-137 1041,-137 1041,-116 914,-116"/>
<text text-anchor="start" x="970.5" y="-122.8" font-family="Times,serif" font-size="14.00">id</text>
<polygon fill="none" stroke="black" points="811,-95 811,-116 842,-116 842,-95 811,-95"/>
<text text-anchor="start" x="821.5" y="-101.8" font-family="Times,serif" font-size="14.00">0</text>
<polygon fill="none" stroke="black" points="842,-95 842,-116 876,-116 876,-95 842,-95"/>
<text text-anchor="start" x="854" y="-101.8" font-family="Times,serif" font-size="14.00">1</text>
<polygon fill="none" stroke="black" points="876,-95 876,-116 914,-116 914,-95 876,-95"/>
<text text-anchor="start" x="885.5" y="-101.8" font-family="Times,serif" font-size="14.00">u1</text>
<polygon fill="none" stroke="black" points="914,-95 914,-116 1041,-116 1041,-95 914,-95"/>
<text text-anchor="start" x="917" y="-101.8" font-family="Times,serif" font-size="14.00">first_and_second</text>
<polygon fill="none" stroke="black" points="811,-74 811,-95 842,-95 842,-74 811,-74"/>
<text text-anchor="start" x="821.5" y="-80.8" font-family="Times,serif" font-size="14.00">1</text>
<polygon fill="none" stroke="black" points="842,-74 842,-95 876,-95 876,-74 842,-74"/>
<text text-anchor="start" x="852.5" y="-80.8" font-family="Times,serif" font-size="14.00">⇲</text>
<polygon fill="none" stroke="black" points="876,-74 876,-95 914,-95 914,-74 876,-74"/>
<polygon fill="none" stroke="black" points="914,-74 914,-95 1041,-95 1041,-74 914,-74"/>
<text text-anchor="start" x="963" y="-80.8" font-family="Times,serif" font-size="14.00">rest</text>
</g>
<!-- asn1_der__seq_body_switch&#45;&gt;body_object_id__seq -->
<g id="edge7" class="edge"><title>asn1_der__seq_body_switch:case4&#45;&gt;body_object_id__seq</title>
<path fill="none" stroke="black" stroke-width="2" d="M691.5,-306C751.865,-306 692.127,-220.48 734,-177 750.426,-159.943 771.321,-146.952 793.224,-137.067"/>
<polygon fill="black" stroke="black" stroke-width="2" points="794.853,-140.177 802.663,-133.018 792.093,-133.744 794.853,-140.177"/>
</g>
<!-- body_printable_string__seq -->
<g id="node10" class="node"><title>body_printable_string__seq</title>
<polygon fill="#e0ffe0" stroke="none" points="840,-214 840,-235 871,-235 871,-214 840,-214"/>
<polygon fill="none" stroke="black" points="840,-214 840,-235 871,-235 871,-214 840,-214"/>
<text text-anchor="start" x="843" y="-220.8" font-family="Times,serif" font-size="14.00">pos</text>
<polygon fill="#e0ffe0" stroke="none" points="871,-214 871,-235 905,-235 905,-214 871,-214"/>
<polygon fill="none" stroke="black" points="871,-214 871,-235 905,-235 905,-214 871,-214"/>
<text text-anchor="start" x="874" y="-220.8" font-family="Times,serif" font-size="14.00">size</text>
<polygon fill="#e0ffe0" stroke="none" points="905,-214 905,-235 985,-235 985,-214 905,-214"/>
<polygon fill="none" stroke="black" points="905,-214 905,-235 985,-235 985,-214 905,-214"/>
<text text-anchor="start" x="929" y="-220.8" font-family="Times,serif" font-size="14.00">type</text>
<polygon fill="#e0ffe0" stroke="none" points="985,-214 985,-235 1012,-235 1012,-214 985,-214"/>
<polygon fill="none" stroke="black" points="985,-214 985,-235 1012,-235 1012,-214 985,-214"/>
<text text-anchor="start" x="991.5" y="-220.8" font-family="Times,serif" font-size="14.00">id</text>
<polygon fill="none" stroke="black" points="840,-193 840,-214 871,-214 871,-193 840,-193"/>
<text text-anchor="start" x="850.5" y="-199.8" font-family="Times,serif" font-size="14.00">0</text>
<polygon fill="none" stroke="black" points="871,-193 871,-214 905,-214 905,-193 871,-193"/>
<text text-anchor="start" x="881.5" y="-199.8" font-family="Times,serif" font-size="14.00">⇲</text>
<polygon fill="none" stroke="black" points="905,-193 905,-214 985,-214 985,-193 905,-193"/>
<text text-anchor="start" x="908" y="-199.8" font-family="Times,serif" font-size="14.00">str(ASCII)</text>
<polygon fill="none" stroke="black" points="985,-193 985,-214 1012,-214 1012,-193 985,-193"/>
<text text-anchor="start" x="988" y="-199.8" font-family="Times,serif" font-size="14.00">str</text>
</g>
<!-- asn1_der__seq_body_switch&#45;&gt;body_printable_string__seq -->
<g id="edge6" class="edge"><title>asn1_der__seq_body_switch:case3&#45;&gt;body_printable_string__seq</title>
<path fill="none" stroke="black" stroke-width="2" d="M691.5,-327C721.694,-327 709.074,-291.04 734,-274 760.15,-256.123 791.888,-243.371 821.922,-234.359"/>
<polygon fill="black" stroke="black" stroke-width="2" points="822.967,-237.701 831.603,-231.563 821.025,-230.975 822.967,-237.701"/>
</g>
<!-- body_sequence__seq&#45;&gt;asn1_der__seq -->
<g id="edge10" class="edge"><title>body_sequence__seq:entries_type&#45;&gt;asn1_der__seq</title>
<path fill="none" stroke="black" stroke-width="2" d="M1023,-418C1038.34,-418 1033,-394.189 1022,-383.5 1006.1,-368.055 844.242,-379.181 822.5,-383.5 763.767,-395.168 756.611,-422.735 698,-435 568.047,-462.194 416.676,-462.694 307.237,-457.696"/>
<polygon fill="black" stroke="black" stroke-width="2" points="307.267,-454.194 297.112,-457.213 306.934,-461.186 307.267,-454.194"/>
</g>
<!-- body_object_id__inst__first -->
<g id="node6" class="node"><title>body_object_id__inst__first</title>
<polygon fill="#e0ffe0" stroke="none" points="1177.5,-49 1177.5,-70 1213.5,-70 1213.5,-49 1177.5,-49"/>
<polygon fill="none" stroke="black" points="1177.5,-49 1177.5,-70 1213.5,-70 1213.5,-49 1177.5,-49"/>
<text text-anchor="start" x="1188.5" y="-55.8" font-family="Times,serif" font-size="14.00">id</text>
<polygon fill="#e0ffe0" stroke="none" points="1213.5,-49 1213.5,-70 1382.5,-70 1382.5,-49 1213.5,-49"/>
<polygon fill="none" stroke="black" points="1213.5,-49 1213.5,-70 1382.5,-70 1382.5,-49 1213.5,-49"/>
<text text-anchor="start" x="1278.5" y="-55.8" font-family="Times,serif" font-size="14.00">value</text>
<polygon fill="none" stroke="black" points="1177.5,-28 1177.5,-49 1213.5,-49 1213.5,-28 1177.5,-28"/>
<text text-anchor="start" x="1180.5" y="-34.8" font-family="Times,serif" font-size="14.00">first</text>
<polygon fill="none" stroke="black" points="1213.5,-28 1213.5,-49 1382.5,-49 1382.5,-28 1213.5,-28"/>
<text text-anchor="start" x="1216.5" y="-34.8" font-family="Times,serif" font-size="14.00">(first_and_second / 40)</text>
</g>
<!-- body_object_id__seq&#45;&gt;body_object_id__inst__first -->
<g id="edge11" class="edge"><title>body_object_id__seq:first_and_second_type&#45;&gt;body_object_id__inst__first</title>
<path fill="none" stroke="#404040" d="M1042,-105C1055.66,-105 1116.03,-90.6682 1172.35,-76.5053"/>
<polygon fill="#404040" stroke="#404040" points="1173.23,-79.892 1182.07,-74.0517 1171.52,-73.1047 1173.23,-79.892"/>
</g>
<!-- body_object_id__inst__second -->
<g id="node7" class="node"><title>body_object_id__inst__second</title>
<polygon fill="#e0ffe0" stroke="none" points="1162.5,-117 1162.5,-138 1219.5,-138 1219.5,-117 1162.5,-117"/>
<polygon fill="none" stroke="black" points="1162.5,-117 1162.5,-138 1219.5,-138 1219.5,-117 1162.5,-117"/>
<text text-anchor="start" x="1184" y="-123.8" font-family="Times,serif" font-size="14.00">id</text>
<polygon fill="#e0ffe0" stroke="none" points="1219.5,-117 1219.5,-138 1397.5,-138 1397.5,-117 1219.5,-117"/>
<polygon fill="none" stroke="black" points="1219.5,-117 1219.5,-138 1397.5,-138 1397.5,-117 1219.5,-117"/>
<text text-anchor="start" x="1289" y="-123.8" font-family="Times,serif" font-size="14.00">value</text>
<polygon fill="none" stroke="black" points="1162.5,-96 1162.5,-117 1219.5,-117 1219.5,-96 1162.5,-96"/>
<text text-anchor="start" x="1165.5" y="-102.8" font-family="Times,serif" font-size="14.00">second</text>
<polygon fill="none" stroke="black" points="1219.5,-96 1219.5,-117 1397.5,-117 1397.5,-96 1219.5,-96"/>
<text text-anchor="start" x="1222.5" y="-102.8" font-family="Times,serif" font-size="14.00">(first_and_second % 40)</text>
</g>
<!-- body_object_id__seq&#45;&gt;body_object_id__inst__second -->
<g id="edge12" class="edge"><title>body_object_id__seq:first_and_second_type&#45;&gt;body_object_id__inst__second</title>
<path fill="none" stroke="#404040" d="M1042,-105C1074.97,-105 1110.5,-106.178 1143.74,-107.795"/>
<polygon fill="#404040" stroke="#404040" points="1143.82,-111.304 1153.98,-108.311 1144.17,-104.312 1143.82,-111.304"/>
</g>
<!-- len_encoded__inst__result -->
<g id="node9" class="node"><title>len_encoded__inst__result</title>
<polygon fill="#e0ffe0" stroke="none" points="742,-559 742,-580 791,-580 791,-559 742,-559"/>
<polygon fill="none" stroke="black" points="742,-559 742,-580 791,-580 791,-559 742,-559"/>
<text text-anchor="start" x="759.5" y="-565.8" font-family="Times,serif" font-size="14.00">id</text>
<polygon fill="#e0ffe0" stroke="none" points="791,-559 791,-580 1110,-580 1110,-559 791,-559"/>
<polygon fill="none" stroke="black" points="791,-559 791,-580 1110,-580 1110,-559 791,-559"/>
<text text-anchor="start" x="931" y="-565.8" font-family="Times,serif" font-size="14.00">value</text>
<polygon fill="none" stroke="black" points="742,-538 742,-559 791,-559 791,-538 742,-538"/>
<text text-anchor="start" x="745" y="-544.8" font-family="Times,serif" font-size="14.00">result</text>
<polygon fill="none" stroke="black" points="791,-538 791,-559 1110,-559 1110,-538 791,-538"/>
<text text-anchor="start" x="794" y="-544.8" font-family="Times,serif" font-size="14.00">(b1 == 129 ? int1 : (b1 == 130 ? int2 : b1))</text>
</g>
<!-- len_encoded__seq&#45;&gt;len_encoded__inst__result -->
<g id="edge13" class="edge"><title>len_encoded__seq:b1_type&#45;&gt;len_encoded__inst__result</title>
<path fill="none" stroke="#404040" d="M587.5,-559C631.488,-559 678.7,-559 723.463,-559"/>
<polygon fill="#404040" stroke="#404040" points="723.575,-562.5 733.575,-559 723.575,-555.5 723.575,-562.5"/>
</g>
<!-- len_encoded__seq&#45;&gt;len_encoded__inst__result -->
<g id="edge14" class="edge"><title>len_encoded__seq:int1_type&#45;&gt;len_encoded__inst__result</title>
<path fill="none" stroke="#404040" d="M587.5,-516C651.154,-516 721.024,-523.62 780.597,-532.444"/>
<polygon fill="#404040" stroke="#404040" points="780.419,-535.957 790.829,-533.987 781.462,-529.035 780.419,-535.957"/>
</g>
<!-- len_encoded__seq&#45;&gt;len_encoded__inst__result -->
<g id="edge15" class="edge"><title>len_encoded__seq:b1_type&#45;&gt;len_encoded__inst__result</title>
<path fill="none" stroke="#404040" d="M587.5,-559C631.488,-559 678.7,-559 723.463,-559"/>
<polygon fill="#404040" stroke="#404040" points="723.575,-562.5 733.575,-559 723.575,-555.5 723.575,-562.5"/>
</g>
<!-- len_encoded__seq&#45;&gt;len_encoded__inst__result -->
<g id="edge16" class="edge"><title>len_encoded__seq:int2_type&#45;&gt;len_encoded__inst__result</title>
<path fill="none" stroke="#404040" d="M587.5,-537C631.581,-537 678.832,-538.892 723.603,-541.566"/>
<polygon fill="#404040" stroke="#404040" points="723.521,-545.068 733.716,-542.186 723.949,-538.081 723.521,-545.068"/>
</g>
<!-- len_encoded__seq&#45;&gt;len_encoded__inst__result -->
<g id="edge17" class="edge"><title>len_encoded__seq:b1_type&#45;&gt;len_encoded__inst__result</title>
<path fill="none" stroke="#404040" d="M587.5,-559C631.488,-559 678.7,-559 723.463,-559"/>
<polygon fill="#404040" stroke="#404040" points="723.575,-562.5 733.575,-559 723.575,-555.5 723.575,-562.5"/>
</g>
</g>
</svg>
