<?xml version="1.0" encoding="UTF-8" standalone="no"?>
<!DOCTYPE svg PUBLIC "-//W3C//DTD SVG 1.1//EN"
 "http://www.w3.org/Graphics/SVG/1.1/DTD/svg11.dtd">
<!-- Generated by graphviz version 2.38.0 (20140413.2041)
 -->
<!-- Title: %3 Pages: 1 -->
<svg width="1439pt" height="672pt"
 viewBox="0.00 0.00 1439.00 672.00" xmlns="http://www.w3.org/2000/svg" xmlns:xlink="http://www.w3.org/1999/xlink">
<g id="graph0" class="graph" transform="scale(1 1) rotate(0) translate(4 668)">
<title>%3</title>
<polygon fill="white" stroke="none" points="-4,4 -4,-668 1435,-668 1435,4 -4,4"/>
<g id="clust1" class="cluster"><title>cluster__asn1_der</title>
<polygon fill="none" stroke="black" stroke-dasharray="1,5" points="8,-8 8,-656 1423,-656 1423,-8 8,-8"/>
<text text-anchor="middle" x="715.5" y="-640.8" font-family="Times,serif" font-size="14.00">Asn1Der</text>
</g>
<g id="clust2" class="cluster"><title>cluster__body_sequence</title>
<polygon fill="none" stroke="black" stroke-dasharray="1,5" points="815.5,-375 815.5,-486 1038.5,-486 1038.5,-375 815.5,-375"/>
<text text-anchor="middle" x="927" y="-470.8" font-family="Times,serif" font-size="14.00">Asn1Der::BodySequence</text>
</g>
<g id="clust3" class="cluster"><title>cluster__body_utf8string</title>
<polygon fill="none" stroke="black" stroke-dasharray="1,5" points="824,-278 824,-367 1030,-367 1030,-278 824,-278"/>
<text text-anchor="middle" x="927" y="-351.8" font-family="Times,serif" font-size="14.00">Asn1Der::BodyUtf8string</text>
</g>
<g id="clust4" class="cluster"><title>cluster__body_object_id</title>
<polygon fill="none" stroke="black" stroke-dasharray="1,5" points="795.5,-16 795.5,-173 1415,-173 1415,-16 795.5,-16"/>
<text text-anchor="middle" x="1105.25" y="-157.8" font-family="Times,serif" font-size="14.00">Asn1Der::BodyObjectId</text>
</g>
<g id="clust5" class="cluster"><title>cluster__len_encoded</title>
<polygon fill="none" stroke="black" stroke-dasharray="1,5" points="429,-494 429,-625 1127,-625 1127,-494 429,-494"/>
<text text-anchor="middle" x="778" y="-609.8" font-family="Times,serif" font-size="14.00">Asn1Der::LenEncoded</text>
</g>
<g id="clust6" class="cluster"><title>cluster__body_printable_string</title>
<polygon fill="none" stroke="black" stroke-dasharray="1,5" points="809.5,-181 809.5,-270 1044.5,-270 1044.5,-181 809.5,-181"/>
<text text-anchor="middle" x="927" y="-254.8" font-family="Times,serif" font-size="14.00">Asn1Der::BodyPrintableString</text>
</g>
<!-- asn1_der__seq -->
<g id="node1" class="node"><title>asn1_der__seq</title>
<polygon fill="#e0ffe0" stroke="none" points="24.5,-467 24.5,-488 55.5,-488 55.5,-467 24.5,-467"/>
<polygon fill="none" stroke="black" points="24.5,-467 24.5,-488 55.5,-488 55.5,-467 24.5,-467"/>
<text text-anchor="start" x="27.5" y="-473.8" font-family="Times,serif" font-size="14.00">pos</text>
<polygon fill="#e0ffe0" stroke="none" points="55.5,-467 55.5,-488 89.5,-488 89.5,-467 55.5,-467"/>
<polygon fill="none" stroke="black" points="55.5,-467 55.5,-488 89.5,-488 89.5,-467 55.5,-467"/>
<text text-anchor="start" x="58.5" y="-473.8" font-family="Times,serif" font-size="14.00">size</text>
<polygon fill="#e0ffe0" stroke="none" points="89.5,-467 89.5,-488 220.5,-488 220.5,-467 89.5,-467"/>
<polygon fill="none" stroke="black" points="89.5,-467 89.5,-488 220.5,-488 220.5,-467 89.5,-467"/>
<text text-anchor="start" x="139" y="-473.8" font-family="Times,serif" font-size="14.00">type</text>
<polygon fill="#e0ffe0" stroke="none" points="220.5,-467 220.5,-488 289.5,-488 289.5,-467 220.5,-467"/>
<polygon fill="none" stroke="black" points="220.5,-467 220.5,-488 289.5,-488 289.5,-467 220.5,-467"/>
<text text-anchor="start" x="248" y="-473.8" font-family="Times,serif" font-size="14.00">id</text>
<polygon fill="none" stroke="black" points="24.5,-446 24.5,-467 55.5,-467 55.5,-446 24.5,-446"/>
<text text-anchor="start" x="35" y="-452.8" font-family="Times,serif" font-size="14.00">0</text>
<polygon fill="none" stroke="black" points="55.5,-446 55.5,-467 89.5,-467 89.5,-446 55.5,-446"/>
<text text-anchor="start" x="67.5" y="-452.8" font-family="Times,serif" font-size="14.00">1</text>
<polygon fill="none" stroke="black" points="89.5,-446 89.5,-467 220.5,-467 220.5,-446 89.5,-446"/>
<text text-anchor="start" x="109" y="-452.8" font-family="Times,serif" font-size="14.00">u1→TypeTag</text>
<polygon fill="none" stroke="black" points="220.5,-446 220.5,-467 289.5,-467 289.5,-446 220.5,-446"/>
<text text-anchor="start" x="223.5" y="-452.8" font-family="Times,serif" font-size="14.00">type_tag</text>
<polygon fill="none" stroke="black" points="24.5,-425 24.5,-446 55.5,-446 55.5,-425 24.5,-425"/>
<text text-anchor="start" x="35" y="-431.8" font-family="Times,serif" font-size="14.00">1</text>
<polygon fill="none" stroke="black" points="55.5,-425 55.5,-446 89.5,-446 89.5,-425 55.5,-425"/>
<text text-anchor="start" x="67.5" y="-431.8" font-family="Times,serif" font-size="14.00">4</text>
<polygon fill="none" stroke="black" points="89.5,-425 89.5,-446 220.5,-446 220.5,-425 89.5,-425"/>
<text text-anchor="start" x="110" y="-431.8" font-family="Times,serif" font-size="14.00">LenEncoded</text>
<polygon fill="none" stroke="black" points="220.5,-425 220.5,-446 289.5,-446 289.5,-425 220.5,-425"/>
<text text-anchor="start" x="244" y="-431.8" font-family="Times,serif" font-size="14.00">len</text>
<polygon fill="none" stroke="black" points="24.5,-404 24.5,-425 55.5,-425 55.5,-404 24.5,-404"/>
<text text-anchor="start" x="35" y="-410.8" font-family="Times,serif" font-size="14.00">5</text>
<polygon fill="none" stroke="black" points="55.5,-404 55.5,-425 89.5,-425 89.5,-404 55.5,-404"/>
<text text-anchor="start" x="65.5" y="-410.8" font-family="Times,serif" font-size="14.00">...</text>
<polygon fill="none" stroke="black" points="89.5,-404 89.5,-425 220.5,-425 220.5,-404 89.5,-404"/>
<text text-anchor="start" x="92.5" y="-410.8" font-family="Times,serif" font-size="14.00">switch (type_tag)</text>
<polygon fill="none" stroke="black" points="220.5,-404 220.5,-425 289.5,-425 289.5,-404 220.5,-404"/>
<text text-anchor="start" x="237.5" y="-410.8" font-family="Times,serif" font-size="14.00">body</text>
</g>
<!-- asn1_der__seq&#45;&gt;asn1_der__seq -->
<g id="edge9" class="edge"><title>asn1_der__seq:type_tag_type&#45;&gt;asn1_der__seq:body_type</title>
<path fill="none" stroke="#404040" d="M221.561,-467.046C167.972,-487.037 179.285,-510 255.5,-510 328.869,-510 342.093,-459.823 295.171,-429.983"/>
<polygon fill="#404040" stroke="#404040" points="296.849,-426.911 286.424,-425.022 293.396,-433 296.849,-426.911"/>
</g>
<!-- asn1_der__seq_body_switch -->
<g id="node2" class="node"><title>asn1_der__seq_body_switch</title>
<polygon fill="#f0f2e4" stroke="none" points="341,-401 341,-422 537,-422 537,-401 341,-401"/>
<polygon fill="none" stroke="black" points="341,-401 341,-422 537,-422 537,-401 341,-401"/>
<text text-anchor="start" x="422.5" y="-407.8" font-family="Times,serif" font-size="14.00">case</text>
<polygon fill="#f0f2e4" stroke="none" points="537,-401 537,-422 691,-422 691,-401 537,-401"/>
<polygon fill="none" stroke="black" points="537,-401 537,-422 691,-422 691,-401 537,-401"/>
<text text-anchor="start" x="598" y="-407.8" font-family="Times,serif" font-size="14.00">type</text>
<polygon fill="none" stroke="black" points="341,-380 341,-401 537,-401 537,-380 341,-380"/>
<text text-anchor="start" x="355" y="-386.8" font-family="Times,serif" font-size="14.00">:type_tag_sequence_30</text>
<polygon fill="none" stroke="black" points="537,-380 537,-401 691,-401 691,-380 537,-380"/>
<text text-anchor="start" x="561" y="-386.8" font-family="Times,serif" font-size="14.00">BodySequence</text>
<polygon fill="none" stroke="black" points="341,-359 341,-380 537,-380 537,-359 341,-359"/>
<text text-anchor="start" x="355" y="-365.8" font-family="Times,serif" font-size="14.00">:type_tag_sequence_10</text>
<polygon fill="none" stroke="black" points="537,-359 537,-380 691,-380 691,-359 537,-359"/>
<text text-anchor="start" x="561" y="-365.8" font-family="Times,serif" font-size="14.00">BodySequence</text>
<polygon fill="none" stroke="black" points="341,-338 341,-359 537,-359 537,-338 341,-338"/>
<text text-anchor="start" x="365.5" y="-344.8" font-family="Times,serif" font-size="14.00">:type_tag_utf8string</text>
<polygon fill="none" stroke="black" points="537,-338 537,-359 691,-359 691,-338 537,-338"/>
<text text-anchor="start" x="558" y="-344.8" font-family="Times,serif" font-size="14.00">BodyUtf8string</text>
<polygon fill="none" stroke="black" points="341,-317 341,-338 537,-338 537,-317 341,-317"/>
<text text-anchor="start" x="344" y="-323.8" font-family="Times,serif" font-size="14.00">:type_tag_printable_string</text>
<polygon fill="none" stroke="black" points="537,-317 537,-338 691,-338 691,-317 537,-317"/>
<text text-anchor="start" x="540" y="-323.8" font-family="Times,serif" font-size="14.00">BodyPrintableString</text>
<polygon fill="none" stroke="black" points="341,-296 341,-317 537,-317 537,-296 341,-296"/>
<text text-anchor="start" x="369" y="-302.8" font-family="Times,serif" font-size="14.00">:type_tag_object_id</text>
<polygon fill="none" stroke="black" points="537,-296 537,-317 691,-317 691,-296 537,-296"/>
<text text-anchor="start" x="564" y="-302.8" font-family="Times,serif" font-size="14.00">BodyObjectId</text>
<polygon fill="none" stroke="black" points="341,-275 341,-296 537,-296 537,-275 341,-275"/>
<text text-anchor="start" x="390.5" y="-281.8" font-family="Times,serif" font-size="14.00">:type_tag_set</text>
<polygon fill="none" stroke="black" points="537,-275 537,-296 691,-296 691,-275 537,-275"/>
<text text-anchor="start" x="561" y="-281.8" font-family="Times,serif" font-size="14.00">BodySequence</text>
</g>
<!-- asn1_der__seq&#45;&gt;asn1_der__seq_body_switch -->
<g id="edge2" class="edge"><title>asn1_der__seq:body_type&#45;&gt;asn1_der__seq_body_switch</title>
<path fill="none" stroke="black" stroke-width="2" d="M290.5,-414C301.14,-414 311.956,-413.318 322.8,-412.094"/>
<polygon fill="black" stroke="black" stroke-width="2" points="323.287,-415.56 332.763,-410.821 322.4,-408.617 323.287,-415.56"/>
</g>
<!-- len_encoded__seq -->
<g id="node8" class="node"><title>len_encoded__seq</title>
<polygon fill="#e0ffe0" stroke="none" points="445,-569 445,-590 476,-590 476,-569 445,-569"/>
<polygon fill="none" stroke="black" points="445,-569 445,-590 476,-590 476,-569 445,-569"/>
<text text-anchor="start" x="448" y="-575.8" font-family="Times,serif" font-size="14.00">pos</text>
<polygon fill="#e0ffe0" stroke="none" points="476,-569 476,-590 510,-590 510,-569 476,-569"/>
<polygon fill="none" stroke="black" points="476,-569 476,-590 510,-590 510,-569 476,-569"/>
<text text-anchor="start" x="479" y="-575.8" font-family="Times,serif" font-size="14.00">size</text>
<polygon fill="#e0ffe0" stroke="none" points="510,-569 510,-590 552,-590 552,-569 510,-569"/>
<polygon fill="none" stroke="black" points="510,-569 510,-590 552,-590 552,-569 510,-569"/>
<text text-anchor="start" x="515" y="-575.8" font-family="Times,serif" font-size="14.00">type</text>
<polygon fill="#e0ffe0" stroke="none" points="552,-569 552,-590 587,-590 587,-569 552,-569"/>
<polygon fill="none" stroke="black" points="552,-569 552,-590 587,-590 587,-569 552,-569"/>
<text text-anchor="start" x="562.5" y="-575.8" font-family="Times,serif" font-size="14.00">id</text>
<polygon fill="none" stroke="black" points="445,-548 445,-569 476,-569 476,-548 445,-548"/>
<text text-anchor="start" x="455.5" y="-554.8" font-family="Times,serif" font-size="14.00">0</text>
<polygon fill="none" stroke="black" points="476,-548 476,-569 510,-569 510,-548 476,-548"/>
<text text-anchor="start" x="488" y="-554.8" font-family="Times,serif" font-size="14.00">1</text>
<polygon fill="none" stroke="black" points="510,-548 510,-569 552,-569 552,-548 510,-548"/>
<text text-anchor="start" x="521.5" y="-554.8" font-family="Times,serif" font-size="14.00">u1</text>
<polygon fill="none" stroke="black" points="552,-548 552,-569 587,-569 587,-548 552,-548"/>
<text text-anchor="start" x="560" y="-554.8" font-family="Times,serif" font-size="14.00">b1</text>
<polygon fill="none" stroke="black" points="445,-527 445,-548 476,-548 476,-527 445,-527"/>
<text text-anchor="start" x="455.5" y="-533.8" font-family="Times,serif" font-size="14.00">1</text>
<polygon fill="none" stroke="black" points="476,-527 476,-548 510,-548 510,-527 476,-527"/>
<text text-anchor="start" x="488" y="-533.8" font-family="Times,serif" font-size="14.00">2</text>
<polygon fill="none" stroke="black" points="510,-527 510,-548 552,-548 552,-527 510,-527"/>
<text text-anchor="start" x="513" y="-533.8" font-family="Times,serif" font-size="14.00">u2be</text>
<polygon fill="none" stroke="black" points="552,-527 552,-548 587,-548 587,-527 552,-527"/>
<text text-anchor="start" x="555" y="-533.8" font-family="Times,serif" font-size="14.00">int2</text>
<polygon fill="none" stroke="black" points="445,-506 445,-527 476,-527 476,-506 445,-506"/>
<text text-anchor="start" x="455.5" y="-512.8" font-family="Times,serif" font-size="14.00">3</text>
<polygon fill="none" stroke="black" points="476,-506 476,-527 510,-527 510,-506 476,-506"/>
<text text-anchor="start" x="488" y="-512.8" font-family="Times,serif" font-size="14.00">1</text>
<polygon fill="none" stroke="black" points="510,-506 510,-527 552,-527 552,-506 510,-506"/>
<text text-anchor="start" x="521.5" y="-512.8" font-family="Times,serif" font-size="14.00">u1</text>
<polygon fill="none" stroke="black" points="552,-506 552,-527 587,-527 587,-506 552,-506"/>
<text text-anchor="start" x="555" y="-512.8" font-family="Times,serif" font-size="14.00">int1</text>
</g>
<!-- asn1_der__seq&#45;&gt;len_encoded__seq -->
<g id="edge1" class="edge"><title>asn1_der__seq:len_type&#45;&gt;len_encoded__seq</title>
<path fill="none" stroke="black" stroke-width="2" d="M290.5,-435C324.276,-435 305.564,-478.301 333,-498 360.26,-517.573 394.838,-529.488 426.515,-536.739"/>
<polygon fill="black" stroke="black" stroke-width="2" points="426.172,-540.246 436.685,-538.934 427.649,-533.403 426.172,-540.246"/>
</g>
<!-- body_sequence__seq -->
<g id="node3" class="node"><title>body_sequence__seq</title>
<polygon fill="#e0ffe0" stroke="none" points="832,-429 832,-450 863,-450 863,-429 832,-429"/>
<polygon fill="none" stroke="black" points="832,-429 832,-450 863,-450 863,-429 832,-429"/>
<text text-anchor="start" x="835" y="-435.8" font-family="Times,serif" font-size="14.00">pos</text>
<polygon fill="#e0ffe0" stroke="none" points="863,-429 863,-450 897,-450 897,-429 863,-429"/>
<polygon fill="none" stroke="black" points="863,-429 863,-450 897,-450 897,-429 863,-429"/>
<text text-anchor="start" x="866" y="-435.8" font-family="Times,serif" font-size="14.00">size</text>
<polygon fill="#e0ffe0" stroke="none" points="897,-429 897,-450 966,-450 966,-429 897,-429"/>
<polygon fill="none" stroke="black" points="897,-429 897,-450 966,-450 966,-429 897,-429"/>
<text text-anchor="start" x="915.5" y="-435.8" font-family="Times,serif" font-size="14.00">type</text>
<polygon fill="#e0ffe0" stroke="none" points="966,-429 966,-450 1023,-450 1023,-429 966,-429"/>
<polygon fill="none" stroke="black" points="966,-429 966,-450 1023,-450 1023,-429 966,-429"/>
<text text-anchor="start" x="987.5" y="-435.8" font-family="Times,serif" font-size="14.00">id</text>
<polygon fill="none" stroke="black" points="832,-408 832,-429 863,-429 863,-408 832,-408"/>
<text text-anchor="start" x="842.5" y="-414.8" font-family="Times,serif" font-size="14.00">0</text>
<polygon fill="none" stroke="black" points="863,-408 863,-429 897,-429 897,-408 863,-408"/>
<text text-anchor="start" x="873" y="-414.8" font-family="Times,serif" font-size="14.00">...</text>
<polygon fill="none" stroke="black" points="897,-408 897,-429 966,-429 966,-408 897,-408"/>
<text text-anchor="start" x="900" y="-414.8" font-family="Times,serif" font-size="14.00">Asn1Der</text>
<polygon fill="none" stroke="black" points="966,-408 966,-429 1023,-429 1023,-408 966,-408"/>
<text text-anchor="start" x="969" y="-414.8" font-family="Times,serif" font-size="14.00">entries</text>
<polygon fill="none" stroke="black" points="832,-387 832,-408 1023,-408 1023,-387 832,-387"/>
<text text-anchor="start" x="843" y="-393.8" font-family="Times,serif" font-size="14.00">repeat to end of stream</text>
</g>
<!-- asn1_der__seq_body_switch&#45;&gt;body_sequence__seq -->
<g id="edge3" class="edge"><title>asn1_der__seq_body_switch:case0&#45;&gt;body_sequence__seq</title>
<path fill="none" stroke="black" stroke-width="2" d="M692,-391C731.624,-391 774.757,-395.007 813.073,-399.99"/>
<polygon fill="black" stroke="black" stroke-width="2" points="812.848,-403.491 823.224,-401.347 813.776,-396.552 812.848,-403.491"/>
</g>
<!-- asn1_der__seq_body_switch&#45;&gt;body_sequence__seq -->
<g id="edge4" class="edge"><title>asn1_der__seq_body_switch:case1&#45;&gt;body_sequence__seq</title>
<path fill="none" stroke="black" stroke-width="2" d="M692,-370C732.006,-370 775.059,-376.946 813.193,-385.608"/>
<polygon fill="black" stroke="black" stroke-width="2" points="812.758,-389.101 823.292,-387.968 814.351,-382.284 812.758,-389.101"/>
</g>
<!-- asn1_der__seq_body_switch&#45;&gt;body_sequence__seq -->
<g id="edge8" class="edge"><title>asn1_der__seq_body_switch:case5&#45;&gt;body_sequence__seq</title>
<path fill="none" stroke="black" stroke-width="2" d="M692,-285C734.734,-285 701.682,-344.24 735,-371 757.415,-389.003 785.711,-400.358 813.607,-407.49"/>
<polygon fill="black" stroke="black" stroke-width="2" points="812.908,-410.922 823.447,-409.841 814.534,-404.113 812.908,-410.922"/>
</g>
<!-- body_utf8string__seq -->
<g id="node4" class="node"><title>body_utf8string__seq</title>
<polygon fill="#e0ffe0" stroke="none" points="840,-311 840,-332 871,-332 871,-311 840,-311"/>
<polygon fill="none" stroke="black" points="840,-311 840,-332 871,-332 871,-311 840,-311"/>
<text text-anchor="start" x="843" y="-317.8" font-family="Times,serif" font-size="14.00">pos</text>
<polygon fill="#e0ffe0" stroke="none" points="871,-311 871,-332 905,-332 905,-311 871,-311"/>
<polygon fill="none" stroke="black" points="871,-311 871,-332 905,-332 905,-311 871,-311"/>
<text text-anchor="start" x="874" y="-317.8" font-family="Times,serif" font-size="14.00">size</text>
<polygon fill="#e0ffe0" stroke="none" points="905,-311 905,-332 987,-332 987,-311 905,-311"/>
<polygon fill="none" stroke="black" points="905,-311 905,-332 987,-332 987,-311 905,-311"/>
<text text-anchor="start" x="930" y="-317.8" font-family="Times,serif" font-size="14.00">type</text>
<polygon fill="#e0ffe0" stroke="none" points="987,-311 987,-332 1014,-332 1014,-311 987,-311"/>
<polygon fill="none" stroke="black" points="987,-311 987,-332 1014,-332 1014,-311 987,-311"/>
<text text-anchor="start" x="993.5" y="-317.8" font-family="Times,serif" font-size="14.00">id</text>
<polygon fill="none" stroke="black" points="840,-290 840,-311 871,-311 871,-290 840,-290"/>
<text text-anchor="start" x="850.5" y="-296.8" font-family="Times,serif" font-size="14.00">0</text>
<polygon fill="none" stroke="black" points="871,-290 871,-311 905,-311 905,-290 871,-290"/>
<text text-anchor="start" x="881.5" y="-296.8" font-family="Times,serif" font-size="14.00">⇲</text>
<polygon fill="none" stroke="black" points="905,-290 905,-311 987,-311 987,-290 905,-290"/>
<text text-anchor="start" x="908" y="-296.8" font-family="Times,serif" font-size="14.00">str(UTF&#45;8)</text>
<polygon fill="none" stroke="black" points="987,-290 987,-311 1014,-311 1014,-290 987,-290"/>
<text text-anchor="start" x="990" y="-296.8" font-family="Times,serif" font-size="14.00">str</text>
</g>
<!-- asn1_der__seq_body_switch&#45;&gt;body_utf8string__seq -->
<g id="edge5" class="edge"><title>asn1_der__seq_body_switch:case2&#45;&gt;body_utf8string__seq</title>
<path fill="none" stroke="black" stroke-width="2" d="M692,-348C734.841,-348 781.559,-341.875 821.907,-334.608"/>
<polygon fill="black" stroke="black" stroke-width="2" points="822.553,-338.048 831.751,-332.791 821.282,-331.165 822.553,-338.048"/>
</g>
<!-- body_object_id__seq -->
<g id="node5" class="node"><title>body_object_id__seq</title>
<polygon fill="#e0ffe0" stroke="none" points="812,-116 812,-137 843,-137 843,-116 812,-116"/>
<polygon fill="none" stroke="black" points="812,-116 812,-137 843,-137 843,-116 812,-116"/>
<text text-anchor="start" x="815" y="-122.8" font-family="Times,serif" font-size="14.00">pos</text>
<polygon fill="#e0ffe0" stroke="none" points="843,-116 843,-137 877,-137 877,-116 843,-116"/>
<polygon fill="none" stroke="black" points="843,-116 843,-137 877,-137 877,-116 843,-116"/>
<text text-anchor="start" x="846" y="-122.8" font-family="Times,serif" font-size="14.00">size</text>
<polygon fill="#e0ffe0" stroke="none" points="877,-116 877,-137 915,-137 915,-116 877,-116"/>
<polygon fill="none" stroke="black" points="877,-116 877,-137 915,-137 915,-116 877,-116"/>
<text text-anchor="start" x="880" y="-122.8" font-family="Times,serif" font-size="14.00">type</text>
<polygon fill="#e0ffe0" stroke="none" points="915,-116 915,-137 1043,-137 1043,-116 915,-116"/>
<polygon fill="none" stroke="black" points="915,-116 915,-137 1043,-137 1043,-116 915,-116"/>
<text text-anchor="start" x="972" y="-122.8" font-family="Times,serif" font-size="14.00">id</text>
<polygon fill="none" stroke="black" points="812,-95 812,-116 843,-116 843,-95 812,-95"/>
<text text-anchor="start" x="822.5" y="-101.8" font-family="Times,serif" font-size="14.00">0</text>
<polygon fill="none" stroke="black" points="843,-95 843,-116 877,-116 877,-95 843,-95"/>
<text text-anchor="start" x="855" y="-101.8" font-family="Times,serif" font-size="14.00">1</text>
<polygon fill="none" stroke="black" points="877,-95 877,-116 915,-116 915,-95 877,-95"/>
<text text-anchor="start" x="886.5" y="-101.8" font-family="Times,serif" font-size="14.00">u1</text>
<polygon fill="none" stroke="black" points="915,-95 915,-116 1043,-116 1043,-95 915,-95"/>
<text text-anchor="start" x="918" y="-101.8" font-family="Times,serif" font-size="14.00">first_and_second</text>
<polygon fill="none" stroke="black" points="812,-74 812,-95 843,-95 843,-74 812,-74"/>
<text text-anchor="start" x="822.5" y="-80.8" font-family="Times,serif" font-size="14.00">1</text>
<polygon fill="none" stroke="black" points="843,-74 843,-95 877,-95 877,-74 843,-74"/>
<text text-anchor="start" x="853.5" y="-80.8" font-family="Times,serif" font-size="14.00">⇲</text>
<polygon fill="none" stroke="black" points="877,-74 877,-95 915,-95 915,-74 877,-74"/>
<polygon fill="none" stroke="black" points="915,-74 915,-95 1043,-95 1043,-74 915,-74"/>
<text text-anchor="start" x="964.5" y="-80.8" font-family="Times,serif" font-size="14.00">rest</text>
</g>
<!-- asn1_der__seq_body_switch&#45;&gt;body_object_id__seq -->
<g id="edge7" class="edge"><title>asn1_der__seq_body_switch:case4&#45;&gt;body_object_id__seq</title>
<path fill="none" stroke="black" stroke-width="2" d="M692,-306C752.435,-306 693.002,-220.457 735,-177 751.349,-160.083 772.092,-147.165 793.844,-137.308"/>
<polygon fill="black" stroke="black" stroke-width="2" points="795.419,-140.44 803.218,-133.269 792.649,-134.012 795.419,-140.44"/>
</g>
<!-- body_printable_string__seq -->
<g id="node10" class="node"><title>body_printable_string__seq</title>
<polygon fill="#e0ffe0" stroke="none" points="841,-214 841,-235 872,-235 872,-214 841,-214"/>
<polygon fill="none" stroke="black" points="841,-214 841,-235 872,-235 872,-214 841,-214"/>
<text text-anchor="start" x="844" y="-220.8" font-family="Times,serif" font-size="14.00">pos</text>
<polygon fill="#e0ffe0" stroke="none" points="872,-214 872,-235 906,-235 906,-214 872,-214"/>
<polygon fill="none" stroke="black" points="872,-214 872,-235 906,-235 906,-214 872,-214"/>
<text text-anchor="start" x="875" y="-220.8" font-family="Times,serif" font-size="14.00">size</text>
<polygon fill="#e0ffe0" stroke="none" points="906,-214 906,-235 987,-235 987,-214 906,-214"/>
<polygon fill="none" stroke="black" points="906,-214 906,-235 987,-235 987,-214 906,-214"/>
<text text-anchor="start" x="930.5" y="-220.8" font-family="Times,serif" font-size="14.00">type</text>
<polygon fill="#e0ffe0" stroke="none" points="987,-214 987,-235 1014,-235 1014,-214 987,-214"/>
<polygon fill="none" stroke="black" points="987,-214 987,-235 1014,-235 1014,-214 987,-214"/>
<text text-anchor="start" x="993.5" y="-220.8" font-family="Times,serif" font-size="14.00">id</text>
<polygon fill="none" stroke="black" points="841,-193 841,-214 872,-214 872,-193 841,-193"/>
<text text-anchor="start" x="851.5" y="-199.8" font-family="Times,serif" font-size="14.00">0</text>
<polygon fill="none" stroke="black" points="872,-193 872,-214 906,-214 906,-193 872,-193"/>
<text text-anchor="start" x="882.5" y="-199.8" font-family="Times,serif" font-size="14.00">⇲</text>
<polygon fill="none" stroke="black" points="906,-193 906,-214 987,-214 987,-193 906,-193"/>
<text text-anchor="start" x="909" y="-199.8" font-family="Times,serif" font-size="14.00">str(ASCII)</text>
<polygon fill="none" stroke="black" points="987,-193 987,-214 1014,-214 1014,-193 987,-193"/>
<text text-anchor="start" x="990" y="-199.8" font-family="Times,serif" font-size="14.00">str</text>
</g>
<!-- asn1_der__seq_body_switch&#45;&gt;body_printable_string__seq -->
<g id="edge6" class="edge"><title>asn1_der__seq_body_switch:case3&#45;&gt;body_printable_string__seq</title>
<path fill="none" stroke="black" stroke-width="2" d="M692,-327C722.333,-327 709.91,-291.047 735,-274 761.072,-256.286 792.64,-243.593 822.539,-234.587"/>
<polygon fill="black" stroke="black" stroke-width="2" points="823.55,-237.938 832.179,-231.79 821.599,-231.215 823.55,-237.938"/>
</g>
<!-- body_sequence__seq&#45;&gt;asn1_der__seq -->
<g id="edge10" class="edge"><title>body_sequence__seq:entries_type&#45;&gt;asn1_der__seq</title>
<path fill="none" stroke="black" stroke-width="2" d="M1024,-418C1039.34,-418 1034,-394.189 1023,-383.5 1007.1,-368.055 845.242,-379.181 823.5,-383.5 764.767,-395.168 757.611,-422.736 699,-435 568.695,-462.265 416.895,-462.737 307.232,-457.712"/>
<polygon fill="black" stroke="black" stroke-width="2" points="307.243,-454.209 297.086,-457.226 306.908,-461.201 307.243,-454.209"/>
</g>
<!-- body_object_id__inst__first -->
<g id="node6" class="node"><title>body_object_id__inst__first</title>
<polygon fill="#e0ffe0" stroke="none" points="1178,-49 1178,-70 1215,-70 1215,-49 1178,-49"/>
<polygon fill="none" stroke="black" points="1178,-49 1178,-70 1215,-70 1215,-49 1178,-49"/>
<text text-anchor="start" x="1189.5" y="-55.8" font-family="Times,serif" font-size="14.00">id</text>
<polygon fill="#e0ffe0" stroke="none" points="1215,-49 1215,-70 1385,-70 1385,-49 1215,-49"/>
<polygon fill="none" stroke="black" points="1215,-49 1215,-70 1385,-70 1385,-49 1215,-49"/>
<text text-anchor="start" x="1280.5" y="-55.8" font-family="Times,serif" font-size="14.00">value</text>
<polygon fill="none" stroke="black" points="1178,-28 1178,-49 1215,-49 1215,-28 1178,-28"/>
<text text-anchor="start" x="1181" y="-34.8" font-family="Times,serif" font-size="14.00">first</text>
<polygon fill="none" stroke="black" points="1215,-28 1215,-49 1385,-49 1385,-28 1215,-28"/>
<text text-anchor="start" x="1218" y="-34.8" font-family="Times,serif" font-size="14.00">(first_and_second / 40)</text>
</g>
<!-- body_object_id__seq&#45;&gt;body_object_id__inst__first -->
<g id="edge11" class="edge"><title>body_object_id__seq:first_and_second_type&#45;&gt;body_object_id__inst__first</title>
<path fill="none" stroke="#404040" d="M1044,-105C1057.63,-105 1117.87,-90.6682 1174.07,-76.5053"/>
<polygon fill="#404040" stroke="#404040" points="1174.94,-79.8964 1183.77,-74.0517 1173.22,-73.11 1174.94,-79.8964"/>
</g>
<!-- body_object_id__inst__second -->
<g id="node7" class="node"><title>body_object_id__inst__second</title>
<polygon fill="#e0ffe0" stroke="none" points="1163,-117 1163,-138 1220,-138 1220,-117 1163,-117"/>
<polygon fill="none" stroke="black" points="1163,-117 1163,-138 1220,-138 1220,-117 1163,-117"/>
<text text-anchor="start" x="1184.5" y="-123.8" font-family="Times,serif" font-size="14.00">id</text>
<polygon fill="#e0ffe0" stroke="none" points="1220,-117 1220,-138 1399,-138 1399,-117 1220,-117"/>
<polygon fill="none" stroke="black" points="1220,-117 1220,-138 1399,-138 1399,-117 1220,-117"/>
<text text-anchor="start" x="1290" y="-123.8" font-family="Times,serif" font-size="14.00">value</text>
<polygon fill="none" stroke="black" points="1163,-96 1163,-117 1220,-117 1220,-96 1163,-96"/>
<text text-anchor="start" x="1166" y="-102.8" font-family="Times,serif" font-size="14.00">second</text>
<polygon fill="none" stroke="black" points="1220,-96 1220,-117 1399,-117 1399,-96 1220,-96"/>
<text text-anchor="start" x="1223" y="-102.8" font-family="Times,serif" font-size="14.00">(first_and_second % 40)</text>
</g>
<!-- body_object_id__seq&#45;&gt;body_object_id__inst__second -->
<g id="edge12" class="edge"><title>body_object_id__seq:first_and_second_type&#45;&gt;body_object_id__inst__second</title>
<path fill="none" stroke="#404040" d="M1044,-105C1076.62,-105 1111.75,-106.158 1144.68,-107.754"/>
<polygon fill="#404040" stroke="#404040" points="1144.66,-111.258 1154.83,-108.263 1145.01,-104.267 1144.66,-111.258"/>
</g>
<!-- len_encoded__inst__result -->
<g id="node9" class="node"><title>len_encoded__inst__result</title>
<polygon fill="#e0ffe0" stroke="none" points="743,-559 743,-580 792,-580 792,-559 743,-559"/>
<polygon fill="none" stroke="black" points="743,-559 743,-580 792,-580 792,-559 743,-559"/>
<text text-anchor="start" x="760.5" y="-565.8" font-family="Times,serif" font-size="14.00">id</text>
<polygon fill="#e0ffe0" stroke="none" points="792,-559 792,-580 1111,-580 1111,-559 792,-559"/>
<polygon fill="none" stroke="black" points="792,-559 792,-580 1111,-580 1111,-559 792,-559"/>
<text text-anchor="start" x="932" y="-565.8" font-family="Times,serif" font-size="14.00">value</text>
<polygon fill="none" stroke="black" points="743,-538 743,-559 792,-559 792,-538 743,-538"/>
<text text-anchor="start" x="746" y="-544.8" font-family="Times,serif" font-size="14.00">result</text>
<polygon fill="none" stroke="black" points="792,-538 792,-559 1111,-559 1111,-538 792,-538"/>
<text text-anchor="start" x="795" y="-544.8" font-family="Times,serif" font-size="14.00">(b1 == 129 ? int1 : (b1 == 130 ? int2 : b1))</text>
</g>
<!-- len_encoded__seq&#45;&gt;len_encoded__inst__result -->
<g id="edge13" class="edge"><title>len_encoded__seq:b1_type&#45;&gt;len_encoded__inst__result</title>
<path fill="none" stroke="#404040" d="M588,-559C632.189,-559 679.628,-559 724.581,-559"/>
<polygon fill="#404040" stroke="#404040" points="724.735,-562.5 734.735,-559 724.735,-555.5 724.735,-562.5"/>
</g>
<!-- len_encoded__seq&#45;&gt;len_encoded__inst__result -->
<g id="edge14" class="edge"><title>len_encoded__seq:int1_type&#45;&gt;len_encoded__inst__result</title>
<path fill="none" stroke="#404040" d="M588,-516C651.747,-516 721.72,-523.62 781.381,-532.444"/>
<polygon fill="#404040" stroke="#404040" points="781.219,-535.959 791.629,-533.987 782.261,-529.037 781.219,-535.959"/>
</g>
<!-- len_encoded__seq&#45;&gt;len_encoded__inst__result -->
<g id="edge15" class="edge"><title>len_encoded__seq:b1_type&#45;&gt;len_encoded__inst__result</title>
<path fill="none" stroke="#404040" d="M588,-559C632.189,-559 679.628,-559 724.581,-559"/>
<polygon fill="#404040" stroke="#404040" points="724.735,-562.5 734.735,-559 724.735,-555.5 724.735,-562.5"/>
</g>
<!-- len_encoded__seq&#45;&gt;len_encoded__inst__result -->
<g id="edge16" class="edge"><title>len_encoded__seq:int2_type&#45;&gt;len_encoded__inst__result</title>
<path fill="none" stroke="#404040" d="M588,-537C632.283,-537 679.76,-538.904 724.721,-541.591"/>
<polygon fill="#404040" stroke="#404040" points="724.681,-545.095 734.876,-542.214 725.109,-538.108 724.681,-545.095"/>
</g>
<!-- len_encoded__seq&#45;&gt;len_encoded__inst__result -->
<g id="edge17" class="edge"><title>len_encoded__seq:b1_type&#45;&gt;len_encoded__inst__result</title>
<path fill="none" stroke="#404040" d="M588,-559C632.189,-559 679.628,-559 724.581,-559"/>
<polygon fill="#404040" stroke="#404040" points="724.735,-562.5 734.735,-559 724.735,-555.5 724.735,-562.5"/>
</g>
</g>
</svg>
