<?xml version="1.0" encoding="UTF-8" standalone="no"?>
<!DOCTYPE svg PUBLIC "-//W3C//DTD SVG 1.1//EN"
 "http://www.w3.org/Graphics/SVG/1.1/DTD/svg11.dtd">
<!-- Generated by graphviz version 2.38.0 (20140413.2041)
 -->
<!-- Title: %3 Pages: 1 -->
<svg width="863pt" height="403pt"
 viewBox="0.00 0.00 863.00 403.00" xmlns="http://www.w3.org/2000/svg" xmlns:xlink="http://www.w3.org/1999/xlink">
<g id="graph0" class="graph" transform="scale(1 1) rotate(0) translate(4 399)">
<title>%3</title>
<polygon fill="white" stroke="none" points="-4,4 -4,-399 859,-399 859,4 -4,4"/>
<g id="clust1" class="cluster"><title>cluster__hccap</title>
<polygon fill="none" stroke="black" stroke-dasharray="1,5" points="8,-8 8,-387 847,-387 847,-8 8,-8"/>
<text text-anchor="middle" x="427.5" y="-371.8" font-family="Times,serif" font-size="14.00">Hccap</text>
</g>
<g id="clust2" class="cluster"><title>cluster__hccap_record</title>
<polygon fill="none" stroke="black" stroke-dasharray="1,5" points="290,-16 290,-273 839,-273 839,-16 290,-16"/>
<text text-anchor="middle" x="564.5" y="-257.8" font-family="Times,serif" font-size="14.00">Hccap::HccapRecord</text>
</g>
<g id="clust3" class="cluster"><title>cluster__eapol_dummy</title>
<polygon fill="none" stroke="black" stroke-dasharray="1,5" points="645.5,-281 645.5,-356 813.5,-356 813.5,-281 645.5,-281"/>
<text text-anchor="middle" x="729.5" y="-340.8" font-family="Times,serif" font-size="14.00">Hccap::EapolDummy</text>
</g>
<!-- hccap__seq -->
<g id="node1" class="node"><title>hccap__seq</title>
<polygon fill="#e0ffe0" stroke="none" points="24,-144 24,-165 55,-165 55,-144 24,-144"/>
<polygon fill="none" stroke="black" points="24,-144 24,-165 55,-165 55,-144 24,-144"/>
<text text-anchor="start" x="27" y="-150.8" font-family="Times,serif" font-size="14.00">pos</text>
<polygon fill="#e0ffe0" stroke="none" points="55,-144 55,-165 89,-165 89,-144 55,-144"/>
<polygon fill="none" stroke="black" points="55,-144 55,-165 89,-165 89,-144 55,-144"/>
<text text-anchor="start" x="58" y="-150.8" font-family="Times,serif" font-size="14.00">size</text>
<polygon fill="#e0ffe0" stroke="none" points="89,-144 89,-165 193,-165 193,-144 89,-144"/>
<polygon fill="none" stroke="black" points="89,-144 89,-165 193,-165 193,-144 89,-144"/>
<text text-anchor="start" x="125" y="-150.8" font-family="Times,serif" font-size="14.00">type</text>
<polygon fill="#e0ffe0" stroke="none" points="193,-144 193,-165 254,-165 254,-144 193,-144"/>
<polygon fill="none" stroke="black" points="193,-144 193,-165 254,-165 254,-144 193,-144"/>
<text text-anchor="start" x="216.5" y="-150.8" font-family="Times,serif" font-size="14.00">id</text>
<polygon fill="none" stroke="black" points="24,-123 24,-144 55,-144 55,-123 24,-123"/>
<text text-anchor="start" x="34.5" y="-129.8" font-family="Times,serif" font-size="14.00">0</text>
<polygon fill="none" stroke="black" points="55,-123 55,-144 89,-144 89,-123 55,-123"/>
<text text-anchor="start" x="58" y="-129.8" font-family="Times,serif" font-size="14.00">392</text>
<polygon fill="none" stroke="black" points="89,-123 89,-144 193,-144 193,-123 89,-123"/>
<text text-anchor="start" x="92" y="-129.8" font-family="Times,serif" font-size="14.00">HccapRecord</text>
<polygon fill="none" stroke="black" points="193,-123 193,-144 254,-144 254,-123 193,-123"/>
<text text-anchor="start" x="196" y="-129.8" font-family="Times,serif" font-size="14.00">records</text>
<polygon fill="none" stroke="black" points="24,-102 24,-123 254,-123 254,-102 24,-102"/>
<text text-anchor="start" x="54.5" y="-108.8" font-family="Times,serif" font-size="14.00">repeat to end of stream</text>
</g>
<!-- hccap_record__seq -->
<g id="node2" class="node"><title>hccap_record__seq</title>
<polygon fill="#e0ffe0" stroke="none" points="306.5,-217 306.5,-238 340.5,-238 340.5,-217 306.5,-217"/>
<polygon fill="none" stroke="black" points="306.5,-217 306.5,-238 340.5,-238 340.5,-217 306.5,-217"/>
<text text-anchor="start" x="311" y="-223.8" font-family="Times,serif" font-size="14.00">pos</text>
<polygon fill="#e0ffe0" stroke="none" points="340.5,-217 340.5,-238 374.5,-238 374.5,-217 340.5,-217"/>
<polygon fill="none" stroke="black" points="340.5,-217 340.5,-238 374.5,-238 374.5,-217 340.5,-217"/>
<text text-anchor="start" x="343.5" y="-223.8" font-family="Times,serif" font-size="14.00">size</text>
<polygon fill="#e0ffe0" stroke="none" points="374.5,-217 374.5,-238 477.5,-238 477.5,-217 374.5,-217"/>
<polygon fill="none" stroke="black" points="374.5,-217 374.5,-238 477.5,-238 477.5,-217 374.5,-217"/>
<text text-anchor="start" x="410" y="-223.8" font-family="Times,serif" font-size="14.00">type</text>
<polygon fill="#e0ffe0" stroke="none" points="477.5,-217 477.5,-238 583.5,-238 583.5,-217 477.5,-217"/>
<polygon fill="none" stroke="black" points="477.5,-217 477.5,-238 583.5,-238 583.5,-217 477.5,-217"/>
<text text-anchor="start" x="523.5" y="-223.8" font-family="Times,serif" font-size="14.00">id</text>
<polygon fill="none" stroke="black" points="306.5,-196 306.5,-217 340.5,-217 340.5,-196 306.5,-196"/>
<text text-anchor="start" x="318.5" y="-202.8" font-family="Times,serif" font-size="14.00">0</text>
<polygon fill="none" stroke="black" points="340.5,-196 340.5,-217 374.5,-217 374.5,-196 340.5,-196"/>
<text text-anchor="start" x="348" y="-202.8" font-family="Times,serif" font-size="14.00">36</text>
<polygon fill="none" stroke="black" points="374.5,-196 374.5,-217 477.5,-217 477.5,-196 374.5,-196"/>
<polygon fill="none" stroke="black" points="477.5,-196 477.5,-217 583.5,-217 583.5,-196 477.5,-196"/>
<text text-anchor="start" x="512" y="-202.8" font-family="Times,serif" font-size="14.00">essid</text>
<polygon fill="none" stroke="black" points="306.5,-175 306.5,-196 340.5,-196 340.5,-175 306.5,-175"/>
<text text-anchor="start" x="314" y="-181.8" font-family="Times,serif" font-size="14.00">36</text>
<polygon fill="none" stroke="black" points="340.5,-175 340.5,-196 374.5,-196 374.5,-175 340.5,-175"/>
<text text-anchor="start" x="352.5" y="-181.8" font-family="Times,serif" font-size="14.00">6</text>
<polygon fill="none" stroke="black" points="374.5,-175 374.5,-196 477.5,-196 477.5,-175 374.5,-175"/>
<polygon fill="none" stroke="black" points="477.5,-175 477.5,-196 583.5,-196 583.5,-175 477.5,-175"/>
<text text-anchor="start" x="503" y="-181.8" font-family="Times,serif" font-size="14.00">mac_ap</text>
<polygon fill="none" stroke="black" points="306.5,-154 306.5,-175 340.5,-175 340.5,-154 306.5,-154"/>
<text text-anchor="start" x="314" y="-160.8" font-family="Times,serif" font-size="14.00">42</text>
<polygon fill="none" stroke="black" points="340.5,-154 340.5,-175 374.5,-175 374.5,-154 340.5,-154"/>
<text text-anchor="start" x="352.5" y="-160.8" font-family="Times,serif" font-size="14.00">6</text>
<polygon fill="none" stroke="black" points="374.5,-154 374.5,-175 477.5,-175 477.5,-154 374.5,-154"/>
<polygon fill="none" stroke="black" points="477.5,-154 477.5,-175 583.5,-175 583.5,-154 477.5,-154"/>
<text text-anchor="start" x="486.5" y="-160.8" font-family="Times,serif" font-size="14.00">mac_station</text>
<polygon fill="none" stroke="black" points="306.5,-133 306.5,-154 340.5,-154 340.5,-133 306.5,-133"/>
<text text-anchor="start" x="314" y="-139.8" font-family="Times,serif" font-size="14.00">48</text>
<polygon fill="none" stroke="black" points="340.5,-133 340.5,-154 374.5,-154 374.5,-133 340.5,-133"/>
<text text-anchor="start" x="348" y="-139.8" font-family="Times,serif" font-size="14.00">32</text>
<polygon fill="none" stroke="black" points="374.5,-133 374.5,-154 477.5,-154 477.5,-133 374.5,-133"/>
<polygon fill="none" stroke="black" points="477.5,-133 477.5,-154 583.5,-154 583.5,-133 477.5,-133"/>
<text text-anchor="start" x="480.5" y="-139.8" font-family="Times,serif" font-size="14.00">nonce_station</text>
<polygon fill="none" stroke="black" points="306.5,-112 306.5,-133 340.5,-133 340.5,-112 306.5,-112"/>
<text text-anchor="start" x="314" y="-118.8" font-family="Times,serif" font-size="14.00">80</text>
<polygon fill="none" stroke="black" points="340.5,-112 340.5,-133 374.5,-133 374.5,-112 340.5,-112"/>
<text text-anchor="start" x="348" y="-118.8" font-family="Times,serif" font-size="14.00">32</text>
<polygon fill="none" stroke="black" points="374.5,-112 374.5,-133 477.5,-133 477.5,-112 374.5,-112"/>
<polygon fill="none" stroke="black" points="477.5,-112 477.5,-133 583.5,-133 583.5,-112 477.5,-112"/>
<text text-anchor="start" x="496.5" y="-118.8" font-family="Times,serif" font-size="14.00">nonce_ap</text>
<polygon fill="none" stroke="black" points="306.5,-91 306.5,-112 340.5,-112 340.5,-91 306.5,-91"/>
<text text-anchor="start" x="309.5" y="-97.8" font-family="Times,serif" font-size="14.00">112</text>
<polygon fill="none" stroke="black" points="340.5,-91 340.5,-112 374.5,-112 374.5,-91 340.5,-91"/>
<text text-anchor="start" x="343.5" y="-97.8" font-family="Times,serif" font-size="14.00">256</text>
<polygon fill="none" stroke="black" points="374.5,-91 374.5,-112 477.5,-112 477.5,-91 374.5,-91"/>
<text text-anchor="start" x="377.5" y="-97.8" font-family="Times,serif" font-size="14.00">EapolDummy</text>
<polygon fill="none" stroke="black" points="477.5,-91 477.5,-112 583.5,-112 583.5,-91 477.5,-91"/>
<text text-anchor="start" x="485.5" y="-97.8" font-family="Times,serif" font-size="14.00">eapol_buffer</text>
<polygon fill="none" stroke="black" points="306.5,-70 306.5,-91 340.5,-91 340.5,-70 306.5,-70"/>
<text text-anchor="start" x="309.5" y="-76.8" font-family="Times,serif" font-size="14.00">368</text>
<polygon fill="none" stroke="black" points="340.5,-70 340.5,-91 374.5,-91 374.5,-70 340.5,-70"/>
<text text-anchor="start" x="352.5" y="-76.8" font-family="Times,serif" font-size="14.00">4</text>
<polygon fill="none" stroke="black" points="374.5,-70 374.5,-91 477.5,-91 477.5,-70 374.5,-70"/>
<text text-anchor="start" x="410.5" y="-76.8" font-family="Times,serif" font-size="14.00">u4le</text>
<polygon fill="none" stroke="black" points="477.5,-70 477.5,-91 583.5,-91 583.5,-70 477.5,-70"/>
<text text-anchor="start" x="496.5" y="-76.8" font-family="Times,serif" font-size="14.00">len_eapol</text>
<polygon fill="none" stroke="black" points="306.5,-49 306.5,-70 340.5,-70 340.5,-49 306.5,-49"/>
<text text-anchor="start" x="309.5" y="-55.8" font-family="Times,serif" font-size="14.00">372</text>
<polygon fill="none" stroke="black" points="340.5,-49 340.5,-70 374.5,-70 374.5,-49 340.5,-49"/>
<text text-anchor="start" x="352.5" y="-55.8" font-family="Times,serif" font-size="14.00">4</text>
<polygon fill="none" stroke="black" points="374.5,-49 374.5,-70 477.5,-70 477.5,-49 374.5,-49"/>
<text text-anchor="start" x="410.5" y="-55.8" font-family="Times,serif" font-size="14.00">u4le</text>
<polygon fill="none" stroke="black" points="477.5,-49 477.5,-70 583.5,-70 583.5,-49 477.5,-49"/>
<text text-anchor="start" x="506" y="-55.8" font-family="Times,serif" font-size="14.00">keyver</text>
<polygon fill="none" stroke="black" points="306.5,-28 306.5,-49 340.5,-49 340.5,-28 306.5,-28"/>
<text text-anchor="start" x="309.5" y="-34.8" font-family="Times,serif" font-size="14.00">376</text>
<polygon fill="none" stroke="black" points="340.5,-28 340.5,-49 374.5,-49 374.5,-28 340.5,-28"/>
<text text-anchor="start" x="348" y="-34.8" font-family="Times,serif" font-size="14.00">16</text>
<polygon fill="none" stroke="black" points="374.5,-28 374.5,-49 477.5,-49 477.5,-28 374.5,-28"/>
<polygon fill="none" stroke="black" points="477.5,-28 477.5,-49 583.5,-49 583.5,-28 477.5,-28"/>
<text text-anchor="start" x="504.5" y="-34.8" font-family="Times,serif" font-size="14.00">keymic</text>
</g>
<!-- hccap__seq&#45;&gt;hccap_record__seq -->
<g id="edge1" class="edge"><title>hccap__seq:records_type&#45;&gt;hccap_record__seq</title>
<path fill="none" stroke="black" stroke-width="2" d="M255,-133C265.649,-133 276.636,-133 287.703,-133"/>
<polygon fill="black" stroke="black" stroke-width="2" points="287.882,-136.5 297.882,-133 287.882,-129.5 287.882,-136.5"/>
</g>
<!-- hccap_record__inst__eapol -->
<g id="node3" class="node"><title>hccap_record__inst__eapol</title>
<polygon fill="#e0ffe0" stroke="none" points="635,-91 635,-112 666,-112 666,-91 635,-91"/>
<polygon fill="none" stroke="black" points="635,-91 635,-112 666,-112 666,-91 635,-91"/>
<text text-anchor="start" x="638" y="-97.8" font-family="Times,serif" font-size="14.00">pos</text>
<polygon fill="#e0ffe0" stroke="none" points="666,-91 666,-112 740,-112 740,-91 666,-91"/>
<polygon fill="none" stroke="black" points="666,-91 666,-112 740,-112 740,-91 666,-91"/>
<text text-anchor="start" x="689" y="-97.8" font-family="Times,serif" font-size="14.00">size</text>
<polygon fill="#e0ffe0" stroke="none" points="740,-91 740,-112 778,-112 778,-91 740,-91"/>
<polygon fill="none" stroke="black" points="740,-91 740,-112 778,-112 778,-91 740,-91"/>
<text text-anchor="start" x="743" y="-97.8" font-family="Times,serif" font-size="14.00">type</text>
<polygon fill="#e0ffe0" stroke="none" points="778,-91 778,-112 823,-112 823,-91 778,-91"/>
<polygon fill="none" stroke="black" points="778,-91 778,-112 823,-112 823,-91 778,-91"/>
<text text-anchor="start" x="793.5" y="-97.8" font-family="Times,serif" font-size="14.00">id</text>
<polygon fill="none" stroke="black" points="635,-70 635,-91 666,-91 666,-70 635,-70"/>
<text text-anchor="start" x="645.5" y="-76.8" font-family="Times,serif" font-size="14.00">0</text>
<polygon fill="none" stroke="black" points="666,-70 666,-91 740,-91 740,-70 666,-70"/>
<text text-anchor="start" x="669" y="-76.8" font-family="Times,serif" font-size="14.00">len_eapol</text>
<polygon fill="none" stroke="black" points="740,-70 740,-91 778,-91 778,-70 740,-70"/>
<polygon fill="none" stroke="black" points="778,-70 778,-91 823,-91 823,-70 778,-70"/>
<text text-anchor="start" x="781" y="-76.8" font-family="Times,serif" font-size="14.00">eapol</text>
</g>
<!-- hccap_record__seq&#45;&gt;hccap_record__inst__eapol -->
<g id="edge3" class="edge"><title>hccap_record__seq:len_eapol_type&#45;&gt;hccap_record__inst__eapol:eapol_size</title>
<path fill="none" stroke="#404040" d="M584.5,-80C603.905,-80 607.74,-72.3639 627,-70 656.338,-66.3992 692.522,-42.4708 701.11,-59.1754"/>
<polygon fill="#404040" stroke="#404040" points="697.673,-59.8415 703,-69 704.547,-58.5188 697.673,-59.8415"/>
</g>
<!-- eapol_dummy__seq -->
<g id="node4" class="node"><title>eapol_dummy__seq</title>
<polygon fill="#e0ffe0" stroke="none" points="668,-296 668,-317 699,-317 699,-296 668,-296"/>
<polygon fill="none" stroke="black" points="668,-296 668,-317 699,-317 699,-296 668,-296"/>
<text text-anchor="start" x="671" y="-302.8" font-family="Times,serif" font-size="14.00">pos</text>
<polygon fill="#e0ffe0" stroke="none" points="699,-296 699,-317 733,-317 733,-296 699,-296"/>
<polygon fill="none" stroke="black" points="699,-296 699,-317 733,-317 733,-296 699,-296"/>
<text text-anchor="start" x="702" y="-302.8" font-family="Times,serif" font-size="14.00">size</text>
<polygon fill="#e0ffe0" stroke="none" points="733,-296 733,-317 771,-317 771,-296 733,-296"/>
<polygon fill="none" stroke="black" points="733,-296 733,-317 771,-317 771,-296 733,-296"/>
<text text-anchor="start" x="736" y="-302.8" font-family="Times,serif" font-size="14.00">type</text>
<polygon fill="#e0ffe0" stroke="none" points="771,-296 771,-317 791,-317 791,-296 771,-296"/>
<polygon fill="none" stroke="black" points="771,-296 771,-317 791,-317 791,-296 771,-296"/>
<text text-anchor="start" x="774" y="-302.8" font-family="Times,serif" font-size="14.00">id</text>
</g>
<!-- hccap_record__seq&#45;&gt;eapol_dummy__seq -->
<g id="edge2" class="edge"><title>hccap_record__seq:eapol_buffer_type&#45;&gt;eapol_dummy__seq</title>
<path fill="none" stroke="black" stroke-width="2" d="M584.5,-101C664.971,-101 571.591,-218.645 627,-277 633.544,-283.892 641.591,-289.221 650.262,-293.34"/>
<polygon fill="black" stroke="black" stroke-width="2" points="648.912,-296.569 659.488,-297.208 651.619,-290.113 648.912,-296.569"/>
</g>
</g>
</svg>
