<?xml version="1.0" encoding="UTF-8" standalone="no"?>
<!DOCTYPE svg PUBLIC "-//W3C//DTD SVG 1.1//EN"
 "http://www.w3.org/Graphics/SVG/1.1/DTD/svg11.dtd">
<!-- Generated by graphviz version 2.40.1 (20161225.0304)
 -->
<!-- Title: %3 Pages: 1 -->
<svg width="1613pt" height="710pt"
 viewBox="0.00 0.00 1613.00 710.00" xmlns="http://www.w3.org/2000/svg" xmlns:xlink="http://www.w3.org/1999/xlink">
<g id="graph0" class="graph" transform="scale(1 1) rotate(0) translate(4 706)">
<title>%3</title>
<polygon fill="#ffffff" stroke="transparent" points="-4,4 -4,-706 1609,-706 1609,4 -4,4"/>
<g id="clust1" class="cluster">
<title>cluster__bitcoin_transaction</title>
<polygon fill="none" stroke="#000000" stroke-dasharray="1,5" points="143,-8 143,-694 1605,-694 1605,-8 143,-8"/>
<text text-anchor="middle" x="874" y="-678.8" font-family="Times,serif" font-size="14.00" fill="#000000">BitcoinTransaction</text>
</g>
<g id="clust2" class="cluster">
<title>cluster__vin</title>
<polygon fill="none" stroke="#000000" stroke-dasharray="1,5" points="384,-173 384,-663 1597,-663 1597,-173 384,-173"/>
<text text-anchor="middle" x="990.5" y="-647.8" font-family="Times,serif" font-size="14.00" fill="#000000">BitcoinTransaction::Vin</text>
</g>
<g id="clust3" class="cluster">
<title>cluster__script_signature</title>
<polygon fill="none" stroke="#000000" stroke-dasharray="1,5" points="749,-181 749,-632 1589,-632 1589,-181 749,-181"/>
<text text-anchor="middle" x="1169" y="-616.8" font-family="Times,serif" font-size="14.00" fill="#000000">BitcoinTransaction::Vin::ScriptSignature</text>
</g>
<g id="clust4" class="cluster">
<title>cluster__der_signature</title>
<polygon fill="none" stroke="#000000" stroke-dasharray="1,5" points="1165,-328 1165,-601 1581,-601 1581,-328 1165,-328"/>
<text text-anchor="middle" x="1373" y="-585.8" font-family="Times,serif" font-size="14.00" fill="#000000">BitcoinTransaction::Vin::ScriptSignature::DerSignature</text>
</g>
<g id="clust5" class="cluster">
<title>cluster__public_key</title>
<polygon fill="none" stroke="#000000" stroke-dasharray="1,5" points="1178,-189 1178,-320 1568,-320 1568,-189 1178,-189"/>
<text text-anchor="middle" x="1373" y="-304.8" font-family="Times,serif" font-size="14.00" fill="#000000">BitcoinTransaction::Vin::ScriptSignature::PublicKey</text>
</g>
<g id="clust6" class="cluster">
<title>cluster__vout</title>
<polygon fill="none" stroke="#000000" stroke-dasharray="1,5" points="409,-16 409,-165 704,-165 704,-16 409,-16"/>
<text text-anchor="middle" x="556.5" y="-149.8" font-family="Times,serif" font-size="14.00" fill="#000000">BitcoinTransaction::Vout</text>
</g>
<!-- bitcoin_transaction__seq -->
<g id="node1" class="node">
<title>bitcoin_transaction__seq</title>
<polygon fill="#e0ffe0" stroke="transparent" points="159.5,-244 159.5,-265 190.5,-265 190.5,-244 159.5,-244"/>
<polygon fill="none" stroke="#000000" points="159.5,-244 159.5,-265 190.5,-265 190.5,-244 159.5,-244"/>
<text text-anchor="start" x="162.5" y="-250.8" font-family="Times,serif" font-size="14.00" fill="#000000">pos</text>
<polygon fill="#e0ffe0" stroke="transparent" points="190.5,-244 190.5,-265 224.5,-265 224.5,-244 190.5,-244"/>
<polygon fill="none" stroke="#000000" points="190.5,-244 190.5,-265 224.5,-265 224.5,-244 190.5,-244"/>
<text text-anchor="start" x="193.5" y="-250.8" font-family="Times,serif" font-size="14.00" fill="#000000">size</text>
<polygon fill="#e0ffe0" stroke="transparent" points="224.5,-244 224.5,-265 263.5,-265 263.5,-244 224.5,-244"/>
<polygon fill="none" stroke="#000000" points="224.5,-244 224.5,-265 263.5,-265 263.5,-244 224.5,-244"/>
<text text-anchor="start" x="228" y="-250.8" font-family="Times,serif" font-size="14.00" fill="#000000">type</text>
<polygon fill="#e0ffe0" stroke="transparent" points="263.5,-244 263.5,-265 348.5,-265 348.5,-244 263.5,-244"/>
<polygon fill="none" stroke="#000000" points="263.5,-244 263.5,-265 348.5,-265 348.5,-244 263.5,-244"/>
<text text-anchor="start" x="299" y="-250.8" font-family="Times,serif" font-size="14.00" fill="#000000">id</text>
<polygon fill="none" stroke="#000000" points="159.5,-223 159.5,-244 190.5,-244 190.5,-223 159.5,-223"/>
<text text-anchor="start" x="170" y="-229.8" font-family="Times,serif" font-size="14.00" fill="#000000">0</text>
<polygon fill="none" stroke="#000000" points="190.5,-223 190.5,-244 224.5,-244 224.5,-223 190.5,-223"/>
<text text-anchor="start" x="202.5" y="-229.8" font-family="Times,serif" font-size="14.00" fill="#000000">4</text>
<polygon fill="none" stroke="#000000" points="224.5,-223 224.5,-244 263.5,-244 263.5,-223 224.5,-223"/>
<text text-anchor="start" x="228.5" y="-229.8" font-family="Times,serif" font-size="14.00" fill="#000000">u4le</text>
<polygon fill="none" stroke="#000000" points="263.5,-223 263.5,-244 348.5,-244 348.5,-223 263.5,-223"/>
<text text-anchor="start" x="279.5" y="-229.8" font-family="Times,serif" font-size="14.00" fill="#000000">version</text>
<polygon fill="none" stroke="#000000" points="159.5,-202 159.5,-223 190.5,-223 190.5,-202 159.5,-202"/>
<text text-anchor="start" x="170" y="-208.8" font-family="Times,serif" font-size="14.00" fill="#000000">4</text>
<polygon fill="none" stroke="#000000" points="190.5,-202 190.5,-223 224.5,-223 224.5,-202 190.5,-202"/>
<text text-anchor="start" x="202.5" y="-208.8" font-family="Times,serif" font-size="14.00" fill="#000000">1</text>
<polygon fill="none" stroke="#000000" points="224.5,-202 224.5,-223 263.5,-223 263.5,-202 224.5,-202"/>
<text text-anchor="start" x="234.5" y="-208.8" font-family="Times,serif" font-size="14.00" fill="#000000">u1</text>
<polygon fill="none" stroke="#000000" points="263.5,-202 263.5,-223 348.5,-223 348.5,-202 263.5,-202"/>
<text text-anchor="start" x="271.5" y="-208.8" font-family="Times,serif" font-size="14.00" fill="#000000">num_vins</text>
<polygon fill="none" stroke="#000000" points="159.5,-181 159.5,-202 190.5,-202 190.5,-181 159.5,-181"/>
<text text-anchor="start" x="170" y="-187.8" font-family="Times,serif" font-size="14.00" fill="#000000">5</text>
<polygon fill="none" stroke="#000000" points="190.5,-181 190.5,-202 224.5,-202 224.5,-181 190.5,-181"/>
<text text-anchor="start" x="200.5" y="-187.8" font-family="Times,serif" font-size="14.00" fill="#000000">...</text>
<polygon fill="none" stroke="#000000" points="224.5,-181 224.5,-202 263.5,-202 263.5,-181 224.5,-181"/>
<text text-anchor="start" x="231.5" y="-187.8" font-family="Times,serif" font-size="14.00" fill="#000000">Vin</text>
<polygon fill="none" stroke="#000000" points="263.5,-181 263.5,-202 348.5,-202 348.5,-181 263.5,-181"/>
<text text-anchor="start" x="291" y="-187.8" font-family="Times,serif" font-size="14.00" fill="#000000">vins</text>
<polygon fill="none" stroke="#000000" points="159.5,-160 159.5,-181 348.5,-181 348.5,-160 159.5,-160"/>
<text text-anchor="start" x="172" y="-166.8" font-family="Times,serif" font-size="14.00" fill="#000000">repeat num_vins times</text>
<polygon fill="none" stroke="#000000" points="159.5,-139 159.5,-160 190.5,-160 190.5,-139 159.5,-139"/>
<text text-anchor="start" x="168" y="-145.8" font-family="Times,serif" font-size="14.00" fill="#000000">...</text>
<polygon fill="none" stroke="#000000" points="190.5,-139 190.5,-160 224.5,-160 224.5,-139 190.5,-139"/>
<text text-anchor="start" x="202.5" y="-145.8" font-family="Times,serif" font-size="14.00" fill="#000000">1</text>
<polygon fill="none" stroke="#000000" points="224.5,-139 224.5,-160 263.5,-160 263.5,-139 224.5,-139"/>
<text text-anchor="start" x="234.5" y="-145.8" font-family="Times,serif" font-size="14.00" fill="#000000">u1</text>
<polygon fill="none" stroke="#000000" points="263.5,-139 263.5,-160 348.5,-160 348.5,-139 263.5,-139"/>
<text text-anchor="start" x="266.5" y="-145.8" font-family="Times,serif" font-size="14.00" fill="#000000">num_vouts</text>
<polygon fill="none" stroke="#000000" points="159.5,-118 159.5,-139 190.5,-139 190.5,-118 159.5,-118"/>
<text text-anchor="start" x="168" y="-124.8" font-family="Times,serif" font-size="14.00" fill="#000000">...</text>
<polygon fill="none" stroke="#000000" points="190.5,-118 190.5,-139 224.5,-139 224.5,-118 190.5,-118"/>
<text text-anchor="start" x="200.5" y="-124.8" font-family="Times,serif" font-size="14.00" fill="#000000">...</text>
<polygon fill="none" stroke="#000000" points="224.5,-118 224.5,-139 263.5,-139 263.5,-118 224.5,-118"/>
<text text-anchor="start" x="227.5" y="-124.8" font-family="Times,serif" font-size="14.00" fill="#000000">Vout</text>
<polygon fill="none" stroke="#000000" points="263.5,-118 263.5,-139 348.5,-139 348.5,-118 263.5,-118"/>
<text text-anchor="start" x="286" y="-124.8" font-family="Times,serif" font-size="14.00" fill="#000000">vouts</text>
<polygon fill="none" stroke="#000000" points="159.5,-97 159.5,-118 348.5,-118 348.5,-97 159.5,-97"/>
<text text-anchor="start" x="167" y="-103.8" font-family="Times,serif" font-size="14.00" fill="#000000">repeat num_vouts times</text>
<polygon fill="none" stroke="#000000" points="159.5,-76 159.5,-97 190.5,-97 190.5,-76 159.5,-76"/>
<text text-anchor="start" x="168" y="-82.8" font-family="Times,serif" font-size="14.00" fill="#000000">...</text>
<polygon fill="none" stroke="#000000" points="190.5,-76 190.5,-97 224.5,-97 224.5,-76 190.5,-76"/>
<text text-anchor="start" x="202.5" y="-82.8" font-family="Times,serif" font-size="14.00" fill="#000000">4</text>
<polygon fill="none" stroke="#000000" points="224.5,-76 224.5,-97 263.5,-97 263.5,-76 224.5,-76"/>
<text text-anchor="start" x="228.5" y="-82.8" font-family="Times,serif" font-size="14.00" fill="#000000">u4le</text>
<polygon fill="none" stroke="#000000" points="263.5,-76 263.5,-97 348.5,-97 348.5,-76 263.5,-76"/>
<text text-anchor="start" x="274.5" y="-82.8" font-family="Times,serif" font-size="14.00" fill="#000000">locktime</text>
</g>
<!-- bitcoin_transaction__seq&#45;&gt;bitcoin_transaction__seq -->
<g id="edge2" class="edge">
<title>bitcoin_transaction__seq:num_vins_type&#45;&gt;bitcoin_transaction__seq:vins__repeat</title>
<path fill="none" stroke="#404040" d="M263.3537,-216.2208C163.5802,-221.3884 0,-217.6812 0,-191.5 0,-171.3182 74.4334,-164.4907 149.2767,-164.7884"/>
<polygon fill="#404040" stroke="#404040" points="149.3251,-168.2888 159.3534,-164.871 149.3825,-161.289 149.3251,-168.2888"/>
</g>
<!-- bitcoin_transaction__seq&#45;&gt;bitcoin_transaction__seq -->
<g id="edge4" class="edge">
<title>bitcoin_transaction__seq:num_vouts_type&#45;&gt;bitcoin_transaction__seq:vouts__repeat</title>
<path fill="none" stroke="#404040" d="M263.3537,-152.2222C163.5802,-157.3985 0,-153.752 0,-128 0,-108.1491 74.4334,-101.4335 149.2767,-101.769"/>
<polygon fill="#404040" stroke="#404040" points="149.3235,-105.2695 159.3534,-101.8563 149.3842,-98.2697 149.3235,-105.2695"/>
</g>
<!-- vin__seq -->
<g id="node2" class="node">
<title>vin__seq</title>
<polygon fill="#e0ffe0" stroke="transparent" points="400.5,-330 400.5,-351 431.5,-351 431.5,-330 400.5,-330"/>
<polygon fill="none" stroke="#000000" points="400.5,-330 400.5,-351 431.5,-351 431.5,-330 400.5,-330"/>
<text text-anchor="start" x="403.5" y="-336.8" font-family="Times,serif" font-size="14.00" fill="#000000">pos</text>
<polygon fill="#e0ffe0" stroke="transparent" points="431.5,-330 431.5,-351 509.5,-351 509.5,-330 431.5,-330"/>
<polygon fill="none" stroke="#000000" points="431.5,-330 431.5,-351 509.5,-351 509.5,-330 431.5,-330"/>
<text text-anchor="start" x="456.5" y="-336.8" font-family="Times,serif" font-size="14.00" fill="#000000">size</text>
<polygon fill="#e0ffe0" stroke="transparent" points="509.5,-330 509.5,-351 630.5,-351 630.5,-330 509.5,-330"/>
<polygon fill="none" stroke="#000000" points="509.5,-330 509.5,-351 630.5,-351 630.5,-330 509.5,-330"/>
<text text-anchor="start" x="554" y="-336.8" font-family="Times,serif" font-size="14.00" fill="#000000">type</text>
<polygon fill="#e0ffe0" stroke="transparent" points="630.5,-330 630.5,-351 713.5,-351 713.5,-330 630.5,-330"/>
<polygon fill="none" stroke="#000000" points="630.5,-330 630.5,-351 713.5,-351 713.5,-330 630.5,-330"/>
<text text-anchor="start" x="665" y="-336.8" font-family="Times,serif" font-size="14.00" fill="#000000">id</text>
<polygon fill="none" stroke="#000000" points="400.5,-309 400.5,-330 431.5,-330 431.5,-309 400.5,-309"/>
<text text-anchor="start" x="411" y="-315.8" font-family="Times,serif" font-size="14.00" fill="#000000">0</text>
<polygon fill="none" stroke="#000000" points="431.5,-309 431.5,-330 509.5,-330 509.5,-309 431.5,-309"/>
<text text-anchor="start" x="461" y="-315.8" font-family="Times,serif" font-size="14.00" fill="#000000">32</text>
<polygon fill="none" stroke="#000000" points="509.5,-309 509.5,-330 630.5,-330 630.5,-309 509.5,-309"/>
<polygon fill="none" stroke="#000000" points="630.5,-309 630.5,-330 713.5,-330 713.5,-309 630.5,-309"/>
<text text-anchor="start" x="658" y="-315.8" font-family="Times,serif" font-size="14.00" fill="#000000">txid</text>
<polygon fill="none" stroke="#000000" points="400.5,-288 400.5,-309 431.5,-309 431.5,-288 400.5,-288"/>
<text text-anchor="start" x="406.5" y="-294.8" font-family="Times,serif" font-size="14.00" fill="#000000">32</text>
<polygon fill="none" stroke="#000000" points="431.5,-288 431.5,-309 509.5,-309 509.5,-288 431.5,-288"/>
<text text-anchor="start" x="465.5" y="-294.8" font-family="Times,serif" font-size="14.00" fill="#000000">4</text>
<polygon fill="none" stroke="#000000" points="509.5,-288 509.5,-309 630.5,-309 630.5,-288 509.5,-288"/>
<text text-anchor="start" x="554.5" y="-294.8" font-family="Times,serif" font-size="14.00" fill="#000000">u4le</text>
<polygon fill="none" stroke="#000000" points="630.5,-288 630.5,-309 713.5,-309 713.5,-288 630.5,-288"/>
<text text-anchor="start" x="637.5" y="-294.8" font-family="Times,serif" font-size="14.00" fill="#000000">output_id</text>
<polygon fill="none" stroke="#000000" points="400.5,-267 400.5,-288 431.5,-288 431.5,-267 400.5,-267"/>
<text text-anchor="start" x="406.5" y="-273.8" font-family="Times,serif" font-size="14.00" fill="#000000">36</text>
<polygon fill="none" stroke="#000000" points="431.5,-267 431.5,-288 509.5,-288 509.5,-267 431.5,-267"/>
<text text-anchor="start" x="465.5" y="-273.8" font-family="Times,serif" font-size="14.00" fill="#000000">1</text>
<polygon fill="none" stroke="#000000" points="509.5,-267 509.5,-288 630.5,-288 630.5,-267 509.5,-267"/>
<text text-anchor="start" x="560.5" y="-273.8" font-family="Times,serif" font-size="14.00" fill="#000000">u1</text>
<polygon fill="none" stroke="#000000" points="630.5,-267 630.5,-288 713.5,-288 713.5,-267 630.5,-267"/>
<text text-anchor="start" x="636" y="-273.8" font-family="Times,serif" font-size="14.00" fill="#000000">len_script</text>
<polygon fill="none" stroke="#000000" points="400.5,-246 400.5,-267 431.5,-267 431.5,-246 400.5,-246"/>
<text text-anchor="start" x="406.5" y="-252.8" font-family="Times,serif" font-size="14.00" fill="#000000">37</text>
<polygon fill="none" stroke="#000000" points="431.5,-246 431.5,-267 509.5,-267 509.5,-246 431.5,-246"/>
<text text-anchor="start" x="434.5" y="-252.8" font-family="Times,serif" font-size="14.00" fill="#000000">len_script</text>
<polygon fill="none" stroke="#000000" points="509.5,-246 509.5,-267 630.5,-267 630.5,-246 509.5,-246"/>
<text text-anchor="start" x="512.5" y="-252.8" font-family="Times,serif" font-size="14.00" fill="#000000">ScriptSignature</text>
<polygon fill="none" stroke="#000000" points="630.5,-246 630.5,-267 713.5,-267 713.5,-246 630.5,-246"/>
<text text-anchor="start" x="636.5" y="-252.8" font-family="Times,serif" font-size="14.00" fill="#000000">script_sig</text>
<polygon fill="none" stroke="#000000" points="400.5,-225 400.5,-246 431.5,-246 431.5,-225 400.5,-225"/>
<text text-anchor="start" x="409" y="-231.8" font-family="Times,serif" font-size="14.00" fill="#000000">...</text>
<polygon fill="none" stroke="#000000" points="431.5,-225 431.5,-246 509.5,-246 509.5,-225 431.5,-225"/>
<text text-anchor="start" x="465.5" y="-231.8" font-family="Times,serif" font-size="14.00" fill="#000000">4</text>
<polygon fill="none" stroke="#000000" points="509.5,-225 509.5,-246 630.5,-246 630.5,-225 509.5,-225"/>
<text text-anchor="start" x="524" y="-231.8" font-family="Times,serif" font-size="14.00" fill="#000000">FF FF FF FF</text>
<polygon fill="none" stroke="#000000" points="630.5,-225 630.5,-246 713.5,-246 713.5,-225 630.5,-225"/>
<text text-anchor="start" x="633.5" y="-231.8" font-family="Times,serif" font-size="14.00" fill="#000000">end_of_vin</text>
</g>
<!-- bitcoin_transaction__seq&#45;&gt;vin__seq -->
<g id="edge1" class="edge">
<title>bitcoin_transaction__seq:vins_type&#45;&gt;vin__seq</title>
<path fill="none" stroke="#000000" stroke-width="2" d="M348.5,-192C382.1102,-192 416.1965,-202.4613 446.782,-216.4771"/>
<polygon fill="#000000" stroke="#000000" stroke-width="2" points="445.623,-219.8015 456.1572,-220.9334 448.6281,-213.4793 445.623,-219.8015"/>
</g>
<!-- vout__seq -->
<g id="node6" class="node">
<title>vout__seq</title>
<polygon fill="#e0ffe0" stroke="transparent" points="425.5,-91 425.5,-112 456.5,-112 456.5,-91 425.5,-91"/>
<polygon fill="none" stroke="#000000" points="425.5,-91 425.5,-112 456.5,-112 456.5,-91 425.5,-91"/>
<text text-anchor="start" x="428.5" y="-97.8" font-family="Times,serif" font-size="14.00" fill="#000000">pos</text>
<polygon fill="#e0ffe0" stroke="transparent" points="456.5,-91 456.5,-112 534.5,-112 534.5,-91 456.5,-91"/>
<polygon fill="none" stroke="#000000" points="456.5,-91 456.5,-112 534.5,-112 534.5,-91 456.5,-91"/>
<text text-anchor="start" x="481.5" y="-97.8" font-family="Times,serif" font-size="14.00" fill="#000000">size</text>
<polygon fill="#e0ffe0" stroke="transparent" points="534.5,-91 534.5,-112 572.5,-112 572.5,-91 534.5,-91"/>
<polygon fill="none" stroke="#000000" points="534.5,-91 534.5,-112 572.5,-112 572.5,-91 534.5,-91"/>
<text text-anchor="start" x="537.5" y="-97.8" font-family="Times,serif" font-size="14.00" fill="#000000">type</text>
<polygon fill="#e0ffe0" stroke="transparent" points="572.5,-91 572.5,-112 688.5,-112 688.5,-91 572.5,-91"/>
<polygon fill="none" stroke="#000000" points="572.5,-91 572.5,-112 688.5,-112 688.5,-91 572.5,-91"/>
<text text-anchor="start" x="623.5" y="-97.8" font-family="Times,serif" font-size="14.00" fill="#000000">id</text>
<polygon fill="none" stroke="#000000" points="425.5,-70 425.5,-91 456.5,-91 456.5,-70 425.5,-70"/>
<text text-anchor="start" x="436" y="-76.8" font-family="Times,serif" font-size="14.00" fill="#000000">0</text>
<polygon fill="none" stroke="#000000" points="456.5,-70 456.5,-91 534.5,-91 534.5,-70 456.5,-70"/>
<text text-anchor="start" x="490.5" y="-76.8" font-family="Times,serif" font-size="14.00" fill="#000000">8</text>
<polygon fill="none" stroke="#000000" points="534.5,-70 534.5,-91 572.5,-91 572.5,-70 534.5,-70"/>
<text text-anchor="start" x="538" y="-76.8" font-family="Times,serif" font-size="14.00" fill="#000000">u8le</text>
<polygon fill="none" stroke="#000000" points="572.5,-70 572.5,-91 688.5,-91 688.5,-70 572.5,-70"/>
<text text-anchor="start" x="603" y="-76.8" font-family="Times,serif" font-size="14.00" fill="#000000">amount</text>
<polygon fill="none" stroke="#000000" points="425.5,-49 425.5,-70 456.5,-70 456.5,-49 425.5,-49"/>
<text text-anchor="start" x="436" y="-55.8" font-family="Times,serif" font-size="14.00" fill="#000000">8</text>
<polygon fill="none" stroke="#000000" points="456.5,-49 456.5,-70 534.5,-70 534.5,-49 456.5,-49"/>
<text text-anchor="start" x="490.5" y="-55.8" font-family="Times,serif" font-size="14.00" fill="#000000">1</text>
<polygon fill="none" stroke="#000000" points="534.5,-49 534.5,-70 572.5,-70 572.5,-49 534.5,-49"/>
<text text-anchor="start" x="544" y="-55.8" font-family="Times,serif" font-size="14.00" fill="#000000">u1</text>
<polygon fill="none" stroke="#000000" points="572.5,-49 572.5,-70 688.5,-70 688.5,-49 572.5,-49"/>
<text text-anchor="start" x="594.5" y="-55.8" font-family="Times,serif" font-size="14.00" fill="#000000">len_script</text>
<polygon fill="none" stroke="#000000" points="425.5,-28 425.5,-49 456.5,-49 456.5,-28 425.5,-28"/>
<text text-anchor="start" x="436" y="-34.8" font-family="Times,serif" font-size="14.00" fill="#000000">9</text>
<polygon fill="none" stroke="#000000" points="456.5,-28 456.5,-49 534.5,-49 534.5,-28 456.5,-28"/>
<text text-anchor="start" x="459.5" y="-34.8" font-family="Times,serif" font-size="14.00" fill="#000000">len_script</text>
<polygon fill="none" stroke="#000000" points="534.5,-28 534.5,-49 572.5,-49 572.5,-28 534.5,-28"/>
<polygon fill="none" stroke="#000000" points="572.5,-28 572.5,-49 688.5,-49 688.5,-28 572.5,-28"/>
<text text-anchor="start" x="575.5" y="-34.8" font-family="Times,serif" font-size="14.00" fill="#000000">script_pub_key</text>
</g>
<!-- bitcoin_transaction__seq&#45;&gt;vout__seq -->
<g id="edge3" class="edge">
<title>bitcoin_transaction__seq:vouts_type&#45;&gt;vout__seq</title>
<path fill="none" stroke="#000000" stroke-width="2" d="M348.5,-128C373.2389,-128 399.0448,-124.146 423.7238,-118.425"/>
<polygon fill="#000000" stroke="#000000" stroke-width="2" points="424.5962,-121.815 433.487,-116.0527 422.9433,-115.0129 424.5962,-121.815"/>
</g>
<!-- vin__seq&#45;&gt;vin__seq -->
<g id="edge5" class="edge">
<title>vin__seq:len_script_type&#45;&gt;vin__seq:script_sig_size</title>
<path fill="none" stroke="#404040" d="M695.4384,-288.1981C745.6563,-320.0298 727.6611,-373 571.5,-373 422.8831,-373 399.4049,-310.1352 440.769,-273.3579"/>
<polygon fill="#404040" stroke="#404040" points="443.1582,-275.9338 448.9078,-267.0348 438.8636,-270.406 443.1582,-275.9338"/>
</g>
<!-- script_signature__seq -->
<g id="node3" class="node">
<title>script_signature__seq</title>
<polygon fill="#e0ffe0" stroke="transparent" points="765.5,-338 765.5,-359 796.5,-359 796.5,-338 765.5,-338"/>
<polygon fill="none" stroke="#000000" points="765.5,-338 765.5,-359 796.5,-359 796.5,-338 765.5,-338"/>
<text text-anchor="start" x="768.5" y="-344.8" font-family="Times,serif" font-size="14.00" fill="#000000">pos</text>
<polygon fill="#e0ffe0" stroke="transparent" points="796.5,-338 796.5,-359 830.5,-359 830.5,-338 796.5,-338"/>
<polygon fill="none" stroke="#000000" points="796.5,-338 796.5,-359 830.5,-359 830.5,-338 796.5,-338"/>
<text text-anchor="start" x="799.5" y="-344.8" font-family="Times,serif" font-size="14.00" fill="#000000">size</text>
<polygon fill="#e0ffe0" stroke="transparent" points="830.5,-338 830.5,-359 959.5,-359 959.5,-338 830.5,-338"/>
<polygon fill="none" stroke="#000000" points="830.5,-338 830.5,-359 959.5,-359 959.5,-338 830.5,-338"/>
<text text-anchor="start" x="879" y="-344.8" font-family="Times,serif" font-size="14.00" fill="#000000">type</text>
<polygon fill="#e0ffe0" stroke="transparent" points="959.5,-338 959.5,-359 1094.5,-359 1094.5,-338 959.5,-338"/>
<polygon fill="none" stroke="#000000" points="959.5,-338 959.5,-359 1094.5,-359 1094.5,-338 959.5,-338"/>
<text text-anchor="start" x="1020" y="-344.8" font-family="Times,serif" font-size="14.00" fill="#000000">id</text>
<polygon fill="none" stroke="#000000" points="765.5,-317 765.5,-338 796.5,-338 796.5,-317 765.5,-317"/>
<text text-anchor="start" x="776" y="-323.8" font-family="Times,serif" font-size="14.00" fill="#000000">0</text>
<polygon fill="none" stroke="#000000" points="796.5,-317 796.5,-338 830.5,-338 830.5,-317 796.5,-317"/>
<text text-anchor="start" x="808.5" y="-323.8" font-family="Times,serif" font-size="14.00" fill="#000000">1</text>
<polygon fill="none" stroke="#000000" points="830.5,-317 830.5,-338 959.5,-338 959.5,-317 830.5,-317"/>
<text text-anchor="start" x="885.5" y="-323.8" font-family="Times,serif" font-size="14.00" fill="#000000">u1</text>
<polygon fill="none" stroke="#000000" points="959.5,-317 959.5,-338 1094.5,-338 1094.5,-317 959.5,-317"/>
<text text-anchor="start" x="978.5" y="-323.8" font-family="Times,serif" font-size="14.00" fill="#000000">len_sig_stack</text>
<polygon fill="none" stroke="#000000" points="765.5,-296 765.5,-317 796.5,-317 796.5,-296 765.5,-296"/>
<text text-anchor="start" x="776" y="-302.8" font-family="Times,serif" font-size="14.00" fill="#000000">1</text>
<polygon fill="none" stroke="#000000" points="796.5,-296 796.5,-317 830.5,-317 830.5,-296 796.5,-296"/>
<text text-anchor="start" x="806.5" y="-302.8" font-family="Times,serif" font-size="14.00" fill="#000000">...</text>
<polygon fill="none" stroke="#000000" points="830.5,-296 830.5,-317 959.5,-317 959.5,-296 830.5,-296"/>
<text text-anchor="start" x="846.5" y="-302.8" font-family="Times,serif" font-size="14.00" fill="#000000">DerSignature</text>
<polygon fill="none" stroke="#000000" points="959.5,-296 959.5,-317 1094.5,-317 1094.5,-296 959.5,-296"/>
<text text-anchor="start" x="1000.5" y="-302.8" font-family="Times,serif" font-size="14.00" fill="#000000">der_sig</text>
<polygon fill="none" stroke="#000000" points="765.5,-275 765.5,-296 796.5,-296 796.5,-275 765.5,-275"/>
<text text-anchor="start" x="774" y="-281.8" font-family="Times,serif" font-size="14.00" fill="#000000">...</text>
<polygon fill="none" stroke="#000000" points="796.5,-275 796.5,-296 830.5,-296 830.5,-275 796.5,-275"/>
<text text-anchor="start" x="808.5" y="-281.8" font-family="Times,serif" font-size="14.00" fill="#000000">1</text>
<polygon fill="none" stroke="#000000" points="830.5,-275 830.5,-296 959.5,-296 959.5,-275 830.5,-275"/>
<text text-anchor="start" x="833.5" y="-281.8" font-family="Times,serif" font-size="14.00" fill="#000000">u1→SighashType</text>
<polygon fill="none" stroke="#000000" points="959.5,-275 959.5,-296 1094.5,-296 1094.5,-275 959.5,-275"/>
<text text-anchor="start" x="996.5" y="-281.8" font-family="Times,serif" font-size="14.00" fill="#000000">sig_type</text>
<polygon fill="none" stroke="#000000" points="765.5,-254 765.5,-275 796.5,-275 796.5,-254 765.5,-254"/>
<text text-anchor="start" x="774" y="-260.8" font-family="Times,serif" font-size="14.00" fill="#000000">...</text>
<polygon fill="none" stroke="#000000" points="796.5,-254 796.5,-275 830.5,-275 830.5,-254 796.5,-254"/>
<text text-anchor="start" x="808.5" y="-260.8" font-family="Times,serif" font-size="14.00" fill="#000000">1</text>
<polygon fill="none" stroke="#000000" points="830.5,-254 830.5,-275 959.5,-275 959.5,-254 830.5,-254"/>
<text text-anchor="start" x="885.5" y="-260.8" font-family="Times,serif" font-size="14.00" fill="#000000">u1</text>
<polygon fill="none" stroke="#000000" points="959.5,-254 959.5,-275 1094.5,-275 1094.5,-254 959.5,-254"/>
<text text-anchor="start" x="962.5" y="-260.8" font-family="Times,serif" font-size="14.00" fill="#000000">len_pubkey_stack</text>
<polygon fill="none" stroke="#000000" points="765.5,-233 765.5,-254 796.5,-254 796.5,-233 765.5,-233"/>
<text text-anchor="start" x="774" y="-239.8" font-family="Times,serif" font-size="14.00" fill="#000000">...</text>
<polygon fill="none" stroke="#000000" points="796.5,-233 796.5,-254 830.5,-254 830.5,-233 796.5,-233"/>
<text text-anchor="start" x="804" y="-239.8" font-family="Times,serif" font-size="14.00" fill="#000000">65</text>
<polygon fill="none" stroke="#000000" points="830.5,-233 830.5,-254 959.5,-254 959.5,-233 830.5,-233"/>
<text text-anchor="start" x="859" y="-239.8" font-family="Times,serif" font-size="14.00" fill="#000000">PublicKey</text>
<polygon fill="none" stroke="#000000" points="959.5,-233 959.5,-254 1094.5,-254 1094.5,-233 959.5,-233"/>
<text text-anchor="start" x="1000.5" y="-239.8" font-family="Times,serif" font-size="14.00" fill="#000000">pubkey</text>
</g>
<!-- vin__seq&#45;&gt;script_signature__seq -->
<g id="edge6" class="edge">
<title>vin__seq:script_sig_type&#45;&gt;script_signature__seq</title>
<path fill="none" stroke="#000000" stroke-width="2" d="M713.5,-256C724.3037,-256 735.3612,-256.4898 746.4842,-257.361"/>
<polygon fill="#000000" stroke="#000000" stroke-width="2" points="746.4428,-260.8709 756.7122,-258.2652 747.0593,-253.8981 746.4428,-260.8709"/>
</g>
<!-- der_signature__seq -->
<g id="node4" class="node">
<title>der_signature__seq</title>
<polygon fill="#e0ffe0" stroke="transparent" points="1265.5,-508 1265.5,-529 1296.5,-529 1296.5,-508 1265.5,-508"/>
<polygon fill="none" stroke="#000000" points="1265.5,-508 1265.5,-529 1296.5,-529 1296.5,-508 1265.5,-508"/>
<text text-anchor="start" x="1268.5" y="-514.8" font-family="Times,serif" font-size="14.00" fill="#000000">pos</text>
<polygon fill="#e0ffe0" stroke="transparent" points="1296.5,-508 1296.5,-529 1368.5,-529 1368.5,-508 1296.5,-508"/>
<polygon fill="none" stroke="#000000" points="1296.5,-508 1296.5,-529 1368.5,-529 1368.5,-508 1296.5,-508"/>
<text text-anchor="start" x="1318.5" y="-514.8" font-family="Times,serif" font-size="14.00" fill="#000000">size</text>
<polygon fill="#e0ffe0" stroke="transparent" points="1368.5,-508 1368.5,-529 1406.5,-529 1406.5,-508 1368.5,-508"/>
<polygon fill="none" stroke="#000000" points="1368.5,-508 1368.5,-529 1406.5,-529 1406.5,-508 1368.5,-508"/>
<text text-anchor="start" x="1371.5" y="-514.8" font-family="Times,serif" font-size="14.00" fill="#000000">type</text>
<polygon fill="#e0ffe0" stroke="transparent" points="1406.5,-508 1406.5,-529 1480.5,-529 1480.5,-508 1406.5,-508"/>
<polygon fill="none" stroke="#000000" points="1406.5,-508 1406.5,-529 1480.5,-529 1480.5,-508 1406.5,-508"/>
<text text-anchor="start" x="1436.5" y="-514.8" font-family="Times,serif" font-size="14.00" fill="#000000">id</text>
<polygon fill="none" stroke="#000000" points="1265.5,-487 1265.5,-508 1296.5,-508 1296.5,-487 1265.5,-487"/>
<text text-anchor="start" x="1276" y="-493.8" font-family="Times,serif" font-size="14.00" fill="#000000">0</text>
<polygon fill="none" stroke="#000000" points="1296.5,-487 1296.5,-508 1368.5,-508 1368.5,-487 1296.5,-487"/>
<text text-anchor="start" x="1327.5" y="-493.8" font-family="Times,serif" font-size="14.00" fill="#000000">1</text>
<polygon fill="none" stroke="#000000" points="1368.5,-487 1368.5,-508 1406.5,-508 1406.5,-487 1368.5,-487"/>
<text text-anchor="start" x="1378" y="-493.8" font-family="Times,serif" font-size="14.00" fill="#000000">30</text>
<polygon fill="none" stroke="#000000" points="1406.5,-487 1406.5,-508 1480.5,-508 1480.5,-487 1406.5,-487"/>
<text text-anchor="start" x="1409.5" y="-493.8" font-family="Times,serif" font-size="14.00" fill="#000000">sequence</text>
<polygon fill="none" stroke="#000000" points="1265.5,-466 1265.5,-487 1296.5,-487 1296.5,-466 1265.5,-466"/>
<text text-anchor="start" x="1276" y="-472.8" font-family="Times,serif" font-size="14.00" fill="#000000">1</text>
<polygon fill="none" stroke="#000000" points="1296.5,-466 1296.5,-487 1368.5,-487 1368.5,-466 1296.5,-466"/>
<text text-anchor="start" x="1327.5" y="-472.8" font-family="Times,serif" font-size="14.00" fill="#000000">1</text>
<polygon fill="none" stroke="#000000" points="1368.5,-466 1368.5,-487 1406.5,-487 1406.5,-466 1368.5,-466"/>
<text text-anchor="start" x="1378" y="-472.8" font-family="Times,serif" font-size="14.00" fill="#000000">u1</text>
<polygon fill="none" stroke="#000000" points="1406.5,-466 1406.5,-487 1480.5,-487 1480.5,-466 1406.5,-466"/>
<text text-anchor="start" x="1418" y="-472.8" font-family="Times,serif" font-size="14.00" fill="#000000">len_sig</text>
<polygon fill="none" stroke="#000000" points="1265.5,-445 1265.5,-466 1296.5,-466 1296.5,-445 1265.5,-445"/>
<text text-anchor="start" x="1276" y="-451.8" font-family="Times,serif" font-size="14.00" fill="#000000">2</text>
<polygon fill="none" stroke="#000000" points="1296.5,-445 1296.5,-466 1368.5,-466 1368.5,-445 1296.5,-445"/>
<text text-anchor="start" x="1327.5" y="-451.8" font-family="Times,serif" font-size="14.00" fill="#000000">1</text>
<polygon fill="none" stroke="#000000" points="1368.5,-445 1368.5,-466 1406.5,-466 1406.5,-445 1368.5,-445"/>
<text text-anchor="start" x="1378" y="-451.8" font-family="Times,serif" font-size="14.00" fill="#000000">02</text>
<polygon fill="none" stroke="#000000" points="1406.5,-445 1406.5,-466 1480.5,-466 1480.5,-445 1406.5,-445"/>
<text text-anchor="start" x="1422.5" y="-451.8" font-family="Times,serif" font-size="14.00" fill="#000000">sep_1</text>
<polygon fill="none" stroke="#000000" points="1265.5,-424 1265.5,-445 1296.5,-445 1296.5,-424 1265.5,-424"/>
<text text-anchor="start" x="1276" y="-430.8" font-family="Times,serif" font-size="14.00" fill="#000000">3</text>
<polygon fill="none" stroke="#000000" points="1296.5,-424 1296.5,-445 1368.5,-445 1368.5,-424 1296.5,-424"/>
<text text-anchor="start" x="1327.5" y="-430.8" font-family="Times,serif" font-size="14.00" fill="#000000">1</text>
<polygon fill="none" stroke="#000000" points="1368.5,-424 1368.5,-445 1406.5,-445 1406.5,-424 1368.5,-424"/>
<text text-anchor="start" x="1378" y="-430.8" font-family="Times,serif" font-size="14.00" fill="#000000">u1</text>
<polygon fill="none" stroke="#000000" points="1406.5,-424 1406.5,-445 1480.5,-445 1480.5,-424 1406.5,-424"/>
<text text-anchor="start" x="1411" y="-430.8" font-family="Times,serif" font-size="14.00" fill="#000000">len_sig_r</text>
<polygon fill="none" stroke="#000000" points="1265.5,-403 1265.5,-424 1296.5,-424 1296.5,-403 1265.5,-403"/>
<text text-anchor="start" x="1276" y="-409.8" font-family="Times,serif" font-size="14.00" fill="#000000">4</text>
<polygon fill="none" stroke="#000000" points="1296.5,-403 1296.5,-424 1368.5,-424 1368.5,-403 1296.5,-403"/>
<text text-anchor="start" x="1300" y="-409.8" font-family="Times,serif" font-size="14.00" fill="#000000">len_sig_r</text>
<polygon fill="none" stroke="#000000" points="1368.5,-403 1368.5,-424 1406.5,-424 1406.5,-403 1368.5,-403"/>
<polygon fill="none" stroke="#000000" points="1406.5,-403 1406.5,-424 1480.5,-424 1480.5,-403 1406.5,-403"/>
<text text-anchor="start" x="1425.5" y="-409.8" font-family="Times,serif" font-size="14.00" fill="#000000">sig_r</text>
<polygon fill="none" stroke="#000000" points="1265.5,-382 1265.5,-403 1296.5,-403 1296.5,-382 1265.5,-382"/>
<text text-anchor="start" x="1274" y="-388.8" font-family="Times,serif" font-size="14.00" fill="#000000">...</text>
<polygon fill="none" stroke="#000000" points="1296.5,-382 1296.5,-403 1368.5,-403 1368.5,-382 1296.5,-382"/>
<text text-anchor="start" x="1327.5" y="-388.8" font-family="Times,serif" font-size="14.00" fill="#000000">1</text>
<polygon fill="none" stroke="#000000" points="1368.5,-382 1368.5,-403 1406.5,-403 1406.5,-382 1368.5,-382"/>
<text text-anchor="start" x="1378" y="-388.8" font-family="Times,serif" font-size="14.00" fill="#000000">02</text>
<polygon fill="none" stroke="#000000" points="1406.5,-382 1406.5,-403 1480.5,-403 1480.5,-382 1406.5,-382"/>
<text text-anchor="start" x="1422.5" y="-388.8" font-family="Times,serif" font-size="14.00" fill="#000000">sep_2</text>
<polygon fill="none" stroke="#000000" points="1265.5,-361 1265.5,-382 1296.5,-382 1296.5,-361 1265.5,-361"/>
<text text-anchor="start" x="1274" y="-367.8" font-family="Times,serif" font-size="14.00" fill="#000000">...</text>
<polygon fill="none" stroke="#000000" points="1296.5,-361 1296.5,-382 1368.5,-382 1368.5,-361 1296.5,-361"/>
<text text-anchor="start" x="1327.5" y="-367.8" font-family="Times,serif" font-size="14.00" fill="#000000">1</text>
<polygon fill="none" stroke="#000000" points="1368.5,-361 1368.5,-382 1406.5,-382 1406.5,-361 1368.5,-361"/>
<text text-anchor="start" x="1378" y="-367.8" font-family="Times,serif" font-size="14.00" fill="#000000">u1</text>
<polygon fill="none" stroke="#000000" points="1406.5,-361 1406.5,-382 1480.5,-382 1480.5,-361 1406.5,-361"/>
<text text-anchor="start" x="1410.5" y="-367.8" font-family="Times,serif" font-size="14.00" fill="#000000">len_sig_s</text>
<polygon fill="none" stroke="#000000" points="1265.5,-340 1265.5,-361 1296.5,-361 1296.5,-340 1265.5,-340"/>
<text text-anchor="start" x="1274" y="-346.8" font-family="Times,serif" font-size="14.00" fill="#000000">...</text>
<polygon fill="none" stroke="#000000" points="1296.5,-340 1296.5,-361 1368.5,-361 1368.5,-340 1296.5,-340"/>
<text text-anchor="start" x="1299.5" y="-346.8" font-family="Times,serif" font-size="14.00" fill="#000000">len_sig_s</text>
<polygon fill="none" stroke="#000000" points="1368.5,-340 1368.5,-361 1406.5,-361 1406.5,-340 1368.5,-340"/>
<polygon fill="none" stroke="#000000" points="1406.5,-340 1406.5,-361 1480.5,-361 1480.5,-340 1406.5,-340"/>
<text text-anchor="start" x="1425" y="-346.8" font-family="Times,serif" font-size="14.00" fill="#000000">sig_s</text>
</g>
<!-- script_signature__seq&#45;&gt;der_signature__seq -->
<g id="edge7" class="edge">
<title>script_signature__seq:der_sig_type&#45;&gt;der_signature__seq</title>
<path fill="none" stroke="#000000" stroke-width="2" d="M1094.5,-307C1126.4663,-307 1189.797,-335.2767 1247.947,-365.2493"/>
<polygon fill="#000000" stroke="#000000" stroke-width="2" points="1246.3686,-368.3734 1256.8564,-369.8751 1249.5941,-362.1608 1246.3686,-368.3734"/>
</g>
<!-- public_key__seq -->
<g id="node5" class="node">
<title>public_key__seq</title>
<polygon fill="#e0ffe0" stroke="transparent" points="1302.5,-264 1302.5,-285 1333.5,-285 1333.5,-264 1302.5,-264"/>
<polygon fill="none" stroke="#000000" points="1302.5,-264 1302.5,-285 1333.5,-285 1333.5,-264 1302.5,-264"/>
<text text-anchor="start" x="1305.5" y="-270.8" font-family="Times,serif" font-size="14.00" fill="#000000">pos</text>
<polygon fill="#e0ffe0" stroke="transparent" points="1333.5,-264 1333.5,-285 1367.5,-285 1367.5,-264 1333.5,-264"/>
<polygon fill="none" stroke="#000000" points="1333.5,-264 1333.5,-285 1367.5,-285 1367.5,-264 1333.5,-264"/>
<text text-anchor="start" x="1336.5" y="-270.8" font-family="Times,serif" font-size="14.00" fill="#000000">size</text>
<polygon fill="#e0ffe0" stroke="transparent" points="1367.5,-264 1367.5,-285 1405.5,-285 1405.5,-264 1367.5,-264"/>
<polygon fill="none" stroke="#000000" points="1367.5,-264 1367.5,-285 1405.5,-285 1405.5,-264 1367.5,-264"/>
<text text-anchor="start" x="1370.5" y="-270.8" font-family="Times,serif" font-size="14.00" fill="#000000">type</text>
<polygon fill="#e0ffe0" stroke="transparent" points="1405.5,-264 1405.5,-285 1443.5,-285 1443.5,-264 1405.5,-264"/>
<polygon fill="none" stroke="#000000" points="1405.5,-264 1405.5,-285 1443.5,-285 1443.5,-264 1405.5,-264"/>
<text text-anchor="start" x="1417.5" y="-270.8" font-family="Times,serif" font-size="14.00" fill="#000000">id</text>
<polygon fill="none" stroke="#000000" points="1302.5,-243 1302.5,-264 1333.5,-264 1333.5,-243 1302.5,-243"/>
<text text-anchor="start" x="1313" y="-249.8" font-family="Times,serif" font-size="14.00" fill="#000000">0</text>
<polygon fill="none" stroke="#000000" points="1333.5,-243 1333.5,-264 1367.5,-264 1367.5,-243 1333.5,-243"/>
<text text-anchor="start" x="1345.5" y="-249.8" font-family="Times,serif" font-size="14.00" fill="#000000">1</text>
<polygon fill="none" stroke="#000000" points="1367.5,-243 1367.5,-264 1405.5,-264 1405.5,-243 1367.5,-243"/>
<text text-anchor="start" x="1377" y="-249.8" font-family="Times,serif" font-size="14.00" fill="#000000">u1</text>
<polygon fill="none" stroke="#000000" points="1405.5,-243 1405.5,-264 1443.5,-264 1443.5,-243 1405.5,-243"/>
<text text-anchor="start" x="1408.5" y="-249.8" font-family="Times,serif" font-size="14.00" fill="#000000">type</text>
<polygon fill="none" stroke="#000000" points="1302.5,-222 1302.5,-243 1333.5,-243 1333.5,-222 1302.5,-222"/>
<text text-anchor="start" x="1313" y="-228.8" font-family="Times,serif" font-size="14.00" fill="#000000">1</text>
<polygon fill="none" stroke="#000000" points="1333.5,-222 1333.5,-243 1367.5,-243 1367.5,-222 1333.5,-222"/>
<text text-anchor="start" x="1341" y="-228.8" font-family="Times,serif" font-size="14.00" fill="#000000">32</text>
<polygon fill="none" stroke="#000000" points="1367.5,-222 1367.5,-243 1405.5,-243 1405.5,-222 1367.5,-222"/>
<polygon fill="none" stroke="#000000" points="1405.5,-222 1405.5,-243 1443.5,-243 1443.5,-222 1405.5,-222"/>
<text text-anchor="start" x="1420" y="-228.8" font-family="Times,serif" font-size="14.00" fill="#000000">x</text>
<polygon fill="none" stroke="#000000" points="1302.5,-201 1302.5,-222 1333.5,-222 1333.5,-201 1302.5,-201"/>
<text text-anchor="start" x="1308.5" y="-207.8" font-family="Times,serif" font-size="14.00" fill="#000000">33</text>
<polygon fill="none" stroke="#000000" points="1333.5,-201 1333.5,-222 1367.5,-222 1367.5,-201 1333.5,-201"/>
<text text-anchor="start" x="1341" y="-207.8" font-family="Times,serif" font-size="14.00" fill="#000000">32</text>
<polygon fill="none" stroke="#000000" points="1367.5,-201 1367.5,-222 1405.5,-222 1405.5,-201 1367.5,-201"/>
<polygon fill="none" stroke="#000000" points="1405.5,-201 1405.5,-222 1443.5,-222 1443.5,-201 1405.5,-201"/>
<text text-anchor="start" x="1420" y="-207.8" font-family="Times,serif" font-size="14.00" fill="#000000">y</text>
</g>
<!-- script_signature__seq&#45;&gt;public_key__seq -->
<g id="edge8" class="edge">
<title>script_signature__seq:pubkey_type&#45;&gt;public_key__seq</title>
<path fill="none" stroke="#000000" stroke-width="2" d="M1094.5,-243C1157.6383,-243 1228.8426,-243 1283.3819,-243"/>
<polygon fill="#000000" stroke="#000000" stroke-width="2" points="1283.7127,-246.5001 1293.7126,-243 1283.7126,-239.5001 1283.7127,-246.5001"/>
</g>
<!-- der_signature__seq&#45;&gt;der_signature__seq -->
<g id="edge9" class="edge">
<title>der_signature__seq:len_sig_r_type&#45;&gt;der_signature__seq:sig_r_size</title>
<path fill="none" stroke="#404040" d="M1470.0373,-445.0819C1552.7177,-486.0538 1539.4102,-551.5 1388,-551.5 1241.7403,-551.5 1224.3475,-474.1281 1297.8601,-429.1648"/>
<polygon fill="#404040" stroke="#404040" points="1299.7899,-432.0941 1306.7624,-424.1169 1296.3371,-426.0049 1299.7899,-432.0941"/>
</g>
<!-- der_signature__seq&#45;&gt;der_signature__seq -->
<g id="edge10" class="edge">
<title>der_signature__seq:len_sig_s_type&#45;&gt;der_signature__seq:sig_s_size</title>
<path fill="none" stroke="#404040" d="M1467.6205,-382.0246C1552.9613,-431.359 1540.8691,-551.5 1388,-551.5 1240.1923,-551.5 1223.9937,-422.5337 1300.2246,-366.8523"/>
<polygon fill="#404040" stroke="#404040" points="1302.535,-369.5192 1308.9238,-361.0674 1298.6588,-363.6904 1302.535,-369.5192"/>
</g>
<!-- vout__seq&#45;&gt;vout__seq -->
<g id="edge11" class="edge">
<title>vout__seq:len_script_type&#45;&gt;vout__seq:script_pub_key_size</title>
<path fill="none" stroke="#404040" d="M658.3011,-70.0166C703.0128,-94.7253 685.332,-134 563,-134 447.2271,-134 425.184,-85.0595 461.0515,-55.1023"/>
<polygon fill="#404040" stroke="#404040" points="463.4646,-57.6802 469.5714,-49.0224 459.3984,-51.9823 463.4646,-57.6802"/>
</g>
</g>
</svg>
