<?xml version="1.0" encoding="UTF-8" standalone="no"?>
<!DOCTYPE svg PUBLIC "-//W3C//DTD SVG 1.1//EN"
 "http://www.w3.org/Graphics/SVG/1.1/DTD/svg11.dtd">
<!-- Generated by graphviz version 2.38.0 (20140413.2041)
 -->
<!-- Title: %3 Pages: 1 -->
<svg width="1607pt" height="710pt"
 viewBox="0.00 0.00 1607.00 710.00" xmlns="http://www.w3.org/2000/svg" xmlns:xlink="http://www.w3.org/1999/xlink">
<g id="graph0" class="graph" transform="scale(1 1) rotate(0) translate(4 706)">
<title>%3</title>
<polygon fill="white" stroke="none" points="-4,4 -4,-706 1603,-706 1603,4 -4,4"/>
<g id="clust1" class="cluster"><title>cluster__bitcoin_transaction</title>
<polygon fill="none" stroke="black" stroke-dasharray="1,5" points="143,-8 143,-694 1599,-694 1599,-8 143,-8"/>
<text text-anchor="middle" x="871" y="-678.8" font-family="Times,serif" font-size="14.00">BitcoinTransaction</text>
</g>
<g id="clust2" class="cluster"><title>cluster__vin</title>
<polygon fill="none" stroke="black" stroke-dasharray="1,5" points="384,-173 384,-663 1591,-663 1591,-173 384,-173"/>
<text text-anchor="middle" x="987.5" y="-647.8" font-family="Times,serif" font-size="14.00">BitcoinTransaction::Vin</text>
</g>
<g id="clust3" class="cluster"><title>cluster__script_signature</title>
<polygon fill="none" stroke="black" stroke-dasharray="1,5" points="748,-181 748,-632 1583,-632 1583,-181 748,-181"/>
<text text-anchor="middle" x="1165.5" y="-616.8" font-family="Times,serif" font-size="14.00">BitcoinTransaction::Vin::ScriptSignature</text>
</g>
<g id="clust4" class="cluster"><title>cluster__der_signature</title>
<polygon fill="none" stroke="black" stroke-dasharray="1,5" points="1162,-328 1162,-601 1575,-601 1575,-328 1162,-328"/>
<text text-anchor="middle" x="1368.5" y="-585.8" font-family="Times,serif" font-size="14.00">BitcoinTransaction::Vin::ScriptSignature::DerSignature</text>
</g>
<g id="clust5" class="cluster"><title>cluster__public_key</title>
<polygon fill="none" stroke="black" stroke-dasharray="1,5" points="1175,-189 1175,-320 1563,-320 1563,-189 1175,-189"/>
<text text-anchor="middle" x="1369" y="-304.8" font-family="Times,serif" font-size="14.00">BitcoinTransaction::Vin::ScriptSignature::PublicKey</text>
</g>
<g id="clust6" class="cluster"><title>cluster__vout</title>
<polygon fill="none" stroke="black" stroke-dasharray="1,5" points="408.5,-16 408.5,-165 703.5,-165 703.5,-16 408.5,-16"/>
<text text-anchor="middle" x="556" y="-149.8" font-family="Times,serif" font-size="14.00">BitcoinTransaction::Vout</text>
</g>
<!-- bitcoin_transaction__seq -->
<g id="node1" class="node"><title>bitcoin_transaction__seq</title>
<polygon fill="#e0ffe0" stroke="none" points="159.5,-264 159.5,-285 190.5,-285 190.5,-264 159.5,-264"/>
<polygon fill="none" stroke="black" points="159.5,-264 159.5,-285 190.5,-285 190.5,-264 159.5,-264"/>
<text text-anchor="start" x="162.5" y="-270.8" font-family="Times,serif" font-size="14.00">pos</text>
<polygon fill="#e0ffe0" stroke="none" points="190.5,-264 190.5,-285 224.5,-285 224.5,-264 190.5,-264"/>
<polygon fill="none" stroke="black" points="190.5,-264 190.5,-285 224.5,-285 224.5,-264 190.5,-264"/>
<text text-anchor="start" x="193.5" y="-270.8" font-family="Times,serif" font-size="14.00">size</text>
<polygon fill="#e0ffe0" stroke="none" points="224.5,-264 224.5,-285 263.5,-285 263.5,-264 224.5,-264"/>
<polygon fill="none" stroke="black" points="224.5,-264 224.5,-285 263.5,-285 263.5,-264 224.5,-264"/>
<text text-anchor="start" x="228" y="-270.8" font-family="Times,serif" font-size="14.00">type</text>
<polygon fill="#e0ffe0" stroke="none" points="263.5,-264 263.5,-285 348.5,-285 348.5,-264 263.5,-264"/>
<polygon fill="none" stroke="black" points="263.5,-264 263.5,-285 348.5,-285 348.5,-264 263.5,-264"/>
<text text-anchor="start" x="299" y="-270.8" font-family="Times,serif" font-size="14.00">id</text>
<polygon fill="none" stroke="black" points="159.5,-243 159.5,-264 190.5,-264 190.5,-243 159.5,-243"/>
<text text-anchor="start" x="170" y="-249.8" font-family="Times,serif" font-size="14.00">0</text>
<polygon fill="none" stroke="black" points="190.5,-243 190.5,-264 224.5,-264 224.5,-243 190.5,-243"/>
<text text-anchor="start" x="202.5" y="-249.8" font-family="Times,serif" font-size="14.00">4</text>
<polygon fill="none" stroke="black" points="224.5,-243 224.5,-264 263.5,-264 263.5,-243 224.5,-243"/>
<text text-anchor="start" x="228.5" y="-249.8" font-family="Times,serif" font-size="14.00">u4le</text>
<polygon fill="none" stroke="black" points="263.5,-243 263.5,-264 348.5,-264 348.5,-243 263.5,-243"/>
<text text-anchor="start" x="279.5" y="-249.8" font-family="Times,serif" font-size="14.00">version</text>
<polygon fill="none" stroke="black" points="159.5,-222 159.5,-243 190.5,-243 190.5,-222 159.5,-222"/>
<text text-anchor="start" x="170" y="-228.8" font-family="Times,serif" font-size="14.00">4</text>
<polygon fill="none" stroke="black" points="190.5,-222 190.5,-243 224.5,-243 224.5,-222 190.5,-222"/>
<text text-anchor="start" x="202.5" y="-228.8" font-family="Times,serif" font-size="14.00">1</text>
<polygon fill="none" stroke="black" points="224.5,-222 224.5,-243 263.5,-243 263.5,-222 224.5,-222"/>
<text text-anchor="start" x="234.5" y="-228.8" font-family="Times,serif" font-size="14.00">u1</text>
<polygon fill="none" stroke="black" points="263.5,-222 263.5,-243 348.5,-243 348.5,-222 263.5,-222"/>
<text text-anchor="start" x="271.5" y="-228.8" font-family="Times,serif" font-size="14.00">num_vins</text>
<polygon fill="none" stroke="black" points="159.5,-201 159.5,-222 190.5,-222 190.5,-201 159.5,-201"/>
<text text-anchor="start" x="170" y="-207.8" font-family="Times,serif" font-size="14.00">5</text>
<polygon fill="none" stroke="black" points="190.5,-201 190.5,-222 224.5,-222 224.5,-201 190.5,-201"/>
<text text-anchor="start" x="200.5" y="-207.8" font-family="Times,serif" font-size="14.00">...</text>
<polygon fill="none" stroke="black" points="224.5,-201 224.5,-222 263.5,-222 263.5,-201 224.5,-201"/>
<text text-anchor="start" x="231.5" y="-207.8" font-family="Times,serif" font-size="14.00">Vin</text>
<polygon fill="none" stroke="black" points="263.5,-201 263.5,-222 348.5,-222 348.5,-201 263.5,-201"/>
<text text-anchor="start" x="291" y="-207.8" font-family="Times,serif" font-size="14.00">vins</text>
<polygon fill="none" stroke="black" points="159.5,-180 159.5,-201 348.5,-201 348.5,-180 159.5,-180"/>
<text text-anchor="start" x="172" y="-186.8" font-family="Times,serif" font-size="14.00">repeat num_vins times</text>
<polygon fill="none" stroke="black" points="159.5,-159 159.5,-180 190.5,-180 190.5,-159 159.5,-159"/>
<text text-anchor="start" x="168" y="-165.8" font-family="Times,serif" font-size="14.00">...</text>
<polygon fill="none" stroke="black" points="190.5,-159 190.5,-180 224.5,-180 224.5,-159 190.5,-159"/>
<text text-anchor="start" x="202.5" y="-165.8" font-family="Times,serif" font-size="14.00">1</text>
<polygon fill="none" stroke="black" points="224.5,-159 224.5,-180 263.5,-180 263.5,-159 224.5,-159"/>
<text text-anchor="start" x="234.5" y="-165.8" font-family="Times,serif" font-size="14.00">u1</text>
<polygon fill="none" stroke="black" points="263.5,-159 263.5,-180 348.5,-180 348.5,-159 263.5,-159"/>
<text text-anchor="start" x="266.5" y="-165.8" font-family="Times,serif" font-size="14.00">num_vouts</text>
<polygon fill="none" stroke="black" points="159.5,-138 159.5,-159 190.5,-159 190.5,-138 159.5,-138"/>
<text text-anchor="start" x="168" y="-144.8" font-family="Times,serif" font-size="14.00">...</text>
<polygon fill="none" stroke="black" points="190.5,-138 190.5,-159 224.5,-159 224.5,-138 190.5,-138"/>
<text text-anchor="start" x="200.5" y="-144.8" font-family="Times,serif" font-size="14.00">...</text>
<polygon fill="none" stroke="black" points="224.5,-138 224.5,-159 263.5,-159 263.5,-138 224.5,-138"/>
<text text-anchor="start" x="227.5" y="-144.8" font-family="Times,serif" font-size="14.00">Vout</text>
<polygon fill="none" stroke="black" points="263.5,-138 263.5,-159 348.5,-159 348.5,-138 263.5,-138"/>
<text text-anchor="start" x="286" y="-144.8" font-family="Times,serif" font-size="14.00">vouts</text>
<polygon fill="none" stroke="black" points="159.5,-117 159.5,-138 348.5,-138 348.5,-117 159.5,-117"/>
<text text-anchor="start" x="167" y="-123.8" font-family="Times,serif" font-size="14.00">repeat num_vouts times</text>
<polygon fill="none" stroke="black" points="159.5,-96 159.5,-117 190.5,-117 190.5,-96 159.5,-96"/>
<text text-anchor="start" x="168" y="-102.8" font-family="Times,serif" font-size="14.00">...</text>
<polygon fill="none" stroke="black" points="190.5,-96 190.5,-117 224.5,-117 224.5,-96 190.5,-96"/>
<text text-anchor="start" x="202.5" y="-102.8" font-family="Times,serif" font-size="14.00">4</text>
<polygon fill="none" stroke="black" points="224.5,-96 224.5,-117 263.5,-117 263.5,-96 224.5,-96"/>
<text text-anchor="start" x="228.5" y="-102.8" font-family="Times,serif" font-size="14.00">u4le</text>
<polygon fill="none" stroke="black" points="263.5,-96 263.5,-117 348.5,-117 348.5,-96 263.5,-96"/>
<text text-anchor="start" x="274.5" y="-102.8" font-family="Times,serif" font-size="14.00">locktime</text>
</g>
<!-- bitcoin_transaction__seq&#45;&gt;bitcoin_transaction__seq -->
<g id="edge2" class="edge"><title>bitcoin_transaction__seq:num_vins_type&#45;&gt;bitcoin_transaction__seq:vins__repeat</title>
<path fill="none" stroke="#404040" d="M263.354,-236.221C163.58,-241.388 0,-237.681 0,-211.5 0,-191.318 74.4334,-184.491 149.277,-184.788"/>
<polygon fill="#404040" stroke="#404040" points="149.325,-188.289 159.353,-184.871 149.383,-181.289 149.325,-188.289"/>
</g>
<!-- bitcoin_transaction__seq&#45;&gt;bitcoin_transaction__seq -->
<g id="edge4" class="edge"><title>bitcoin_transaction__seq:num_vouts_type&#45;&gt;bitcoin_transaction__seq:vouts__repeat</title>
<path fill="none" stroke="#404040" d="M263.354,-172.222C163.58,-177.398 0,-173.752 0,-148 0,-128.149 74.4334,-121.433 149.277,-121.769"/>
<polygon fill="#404040" stroke="#404040" points="149.323,-125.269 159.353,-121.856 149.384,-118.27 149.323,-125.269"/>
</g>
<!-- vin__seq -->
<g id="node2" class="node"><title>vin__seq</title>
<polygon fill="#e0ffe0" stroke="none" points="400,-330 400,-351 431,-351 431,-330 400,-330"/>
<polygon fill="none" stroke="black" points="400,-330 400,-351 431,-351 431,-330 400,-330"/>
<text text-anchor="start" x="403" y="-336.8" font-family="Times,serif" font-size="14.00">pos</text>
<polygon fill="#e0ffe0" stroke="none" points="431,-330 431,-351 509,-351 509,-330 431,-330"/>
<polygon fill="none" stroke="black" points="431,-330 431,-351 509,-351 509,-330 431,-330"/>
<text text-anchor="start" x="456" y="-336.8" font-family="Times,serif" font-size="14.00">size</text>
<polygon fill="#e0ffe0" stroke="none" points="509,-330 509,-351 629,-351 629,-330 509,-330"/>
<polygon fill="none" stroke="black" points="509,-330 509,-351 629,-351 629,-330 509,-330"/>
<text text-anchor="start" x="553" y="-336.8" font-family="Times,serif" font-size="14.00">type</text>
<polygon fill="#e0ffe0" stroke="none" points="629,-330 629,-351 712,-351 712,-330 629,-330"/>
<polygon fill="none" stroke="black" points="629,-330 629,-351 712,-351 712,-330 629,-330"/>
<text text-anchor="start" x="663.5" y="-336.8" font-family="Times,serif" font-size="14.00">id</text>
<polygon fill="none" stroke="black" points="400,-309 400,-330 431,-330 431,-309 400,-309"/>
<text text-anchor="start" x="410.5" y="-315.8" font-family="Times,serif" font-size="14.00">0</text>
<polygon fill="none" stroke="black" points="431,-309 431,-330 509,-330 509,-309 431,-309"/>
<text text-anchor="start" x="460.5" y="-315.8" font-family="Times,serif" font-size="14.00">32</text>
<polygon fill="none" stroke="black" points="509,-309 509,-330 629,-330 629,-309 509,-309"/>
<polygon fill="none" stroke="black" points="629,-309 629,-330 712,-330 712,-309 629,-309"/>
<text text-anchor="start" x="656.5" y="-315.8" font-family="Times,serif" font-size="14.00">txid</text>
<polygon fill="none" stroke="black" points="400,-288 400,-309 431,-309 431,-288 400,-288"/>
<text text-anchor="start" x="406" y="-294.8" font-family="Times,serif" font-size="14.00">32</text>
<polygon fill="none" stroke="black" points="431,-288 431,-309 509,-309 509,-288 431,-288"/>
<text text-anchor="start" x="465" y="-294.8" font-family="Times,serif" font-size="14.00">4</text>
<polygon fill="none" stroke="black" points="509,-288 509,-309 629,-309 629,-288 509,-288"/>
<text text-anchor="start" x="553.5" y="-294.8" font-family="Times,serif" font-size="14.00">u4le</text>
<polygon fill="none" stroke="black" points="629,-288 629,-309 712,-309 712,-288 629,-288"/>
<text text-anchor="start" x="636" y="-294.8" font-family="Times,serif" font-size="14.00">output_id</text>
<polygon fill="none" stroke="black" points="400,-267 400,-288 431,-288 431,-267 400,-267"/>
<text text-anchor="start" x="406" y="-273.8" font-family="Times,serif" font-size="14.00">36</text>
<polygon fill="none" stroke="black" points="431,-267 431,-288 509,-288 509,-267 431,-267"/>
<text text-anchor="start" x="465" y="-273.8" font-family="Times,serif" font-size="14.00">1</text>
<polygon fill="none" stroke="black" points="509,-267 509,-288 629,-288 629,-267 509,-267"/>
<text text-anchor="start" x="559.5" y="-273.8" font-family="Times,serif" font-size="14.00">u1</text>
<polygon fill="none" stroke="black" points="629,-267 629,-288 712,-288 712,-267 629,-267"/>
<text text-anchor="start" x="634.5" y="-273.8" font-family="Times,serif" font-size="14.00">len_script</text>
<polygon fill="none" stroke="black" points="400,-246 400,-267 431,-267 431,-246 400,-246"/>
<text text-anchor="start" x="406" y="-252.8" font-family="Times,serif" font-size="14.00">37</text>
<polygon fill="none" stroke="black" points="431,-246 431,-267 509,-267 509,-246 431,-246"/>
<text text-anchor="start" x="434" y="-252.8" font-family="Times,serif" font-size="14.00">len_script</text>
<polygon fill="none" stroke="black" points="509,-246 509,-267 629,-267 629,-246 509,-246"/>
<text text-anchor="start" x="512" y="-252.8" font-family="Times,serif" font-size="14.00">ScriptSignature</text>
<polygon fill="none" stroke="black" points="629,-246 629,-267 712,-267 712,-246 629,-246"/>
<text text-anchor="start" x="635" y="-252.8" font-family="Times,serif" font-size="14.00">script_sig</text>
<polygon fill="none" stroke="black" points="400,-225 400,-246 431,-246 431,-225 400,-225"/>
<text text-anchor="start" x="408.5" y="-231.8" font-family="Times,serif" font-size="14.00">...</text>
<polygon fill="none" stroke="black" points="431,-225 431,-246 509,-246 509,-225 431,-225"/>
<text text-anchor="start" x="465" y="-231.8" font-family="Times,serif" font-size="14.00">4</text>
<polygon fill="none" stroke="black" points="509,-225 509,-246 629,-246 629,-225 509,-225"/>
<text text-anchor="start" x="523" y="-231.8" font-family="Times,serif" font-size="14.00">FF FF FF FF</text>
<polygon fill="none" stroke="black" points="629,-225 629,-246 712,-246 712,-225 629,-225"/>
<text text-anchor="start" x="632" y="-231.8" font-family="Times,serif" font-size="14.00">end_of_vin</text>
</g>
<!-- bitcoin_transaction__seq&#45;&gt;vin__seq -->
<g id="edge1" class="edge"><title>bitcoin_transaction__seq:vins_type&#45;&gt;vin__seq</title>
<path fill="none" stroke="black" stroke-width="2" d="M349.5,-212C367.072,-212 384.994,-214.475 402.567,-218.531"/>
<polygon fill="black" stroke="black" stroke-width="2" points="401.741,-221.932 412.29,-220.942 403.426,-215.138 401.741,-221.932"/>
</g>
<!-- vout__seq -->
<g id="node6" class="node"><title>vout__seq</title>
<polygon fill="#e0ffe0" stroke="none" points="425,-91 425,-112 456,-112 456,-91 425,-91"/>
<polygon fill="none" stroke="black" points="425,-91 425,-112 456,-112 456,-91 425,-91"/>
<text text-anchor="start" x="428" y="-97.8" font-family="Times,serif" font-size="14.00">pos</text>
<polygon fill="#e0ffe0" stroke="none" points="456,-91 456,-112 534,-112 534,-91 456,-91"/>
<polygon fill="none" stroke="black" points="456,-91 456,-112 534,-112 534,-91 456,-91"/>
<text text-anchor="start" x="481" y="-97.8" font-family="Times,serif" font-size="14.00">size</text>
<polygon fill="#e0ffe0" stroke="none" points="534,-91 534,-112 572,-112 572,-91 534,-91"/>
<polygon fill="none" stroke="black" points="534,-91 534,-112 572,-112 572,-91 534,-91"/>
<text text-anchor="start" x="537" y="-97.8" font-family="Times,serif" font-size="14.00">type</text>
<polygon fill="#e0ffe0" stroke="none" points="572,-91 572,-112 688,-112 688,-91 572,-91"/>
<polygon fill="none" stroke="black" points="572,-91 572,-112 688,-112 688,-91 572,-91"/>
<text text-anchor="start" x="623" y="-97.8" font-family="Times,serif" font-size="14.00">id</text>
<polygon fill="none" stroke="black" points="425,-70 425,-91 456,-91 456,-70 425,-70"/>
<text text-anchor="start" x="435.5" y="-76.8" font-family="Times,serif" font-size="14.00">0</text>
<polygon fill="none" stroke="black" points="456,-70 456,-91 534,-91 534,-70 456,-70"/>
<text text-anchor="start" x="490" y="-76.8" font-family="Times,serif" font-size="14.00">8</text>
<polygon fill="none" stroke="black" points="534,-70 534,-91 572,-91 572,-70 534,-70"/>
<text text-anchor="start" x="537.5" y="-76.8" font-family="Times,serif" font-size="14.00">u8le</text>
<polygon fill="none" stroke="black" points="572,-70 572,-91 688,-91 688,-70 572,-70"/>
<text text-anchor="start" x="602.5" y="-76.8" font-family="Times,serif" font-size="14.00">amount</text>
<polygon fill="none" stroke="black" points="425,-49 425,-70 456,-70 456,-49 425,-49"/>
<text text-anchor="start" x="435.5" y="-55.8" font-family="Times,serif" font-size="14.00">8</text>
<polygon fill="none" stroke="black" points="456,-49 456,-70 534,-70 534,-49 456,-49"/>
<text text-anchor="start" x="490" y="-55.8" font-family="Times,serif" font-size="14.00">1</text>
<polygon fill="none" stroke="black" points="534,-49 534,-70 572,-70 572,-49 534,-49"/>
<text text-anchor="start" x="543.5" y="-55.8" font-family="Times,serif" font-size="14.00">u1</text>
<polygon fill="none" stroke="black" points="572,-49 572,-70 688,-70 688,-49 572,-49"/>
<text text-anchor="start" x="594" y="-55.8" font-family="Times,serif" font-size="14.00">len_script</text>
<polygon fill="none" stroke="black" points="425,-28 425,-49 456,-49 456,-28 425,-28"/>
<text text-anchor="start" x="435.5" y="-34.8" font-family="Times,serif" font-size="14.00">9</text>
<polygon fill="none" stroke="black" points="456,-28 456,-49 534,-49 534,-28 456,-28"/>
<text text-anchor="start" x="459" y="-34.8" font-family="Times,serif" font-size="14.00">len_script</text>
<polygon fill="none" stroke="black" points="534,-28 534,-49 572,-49 572,-28 534,-28"/>
<polygon fill="none" stroke="black" points="572,-28 572,-49 688,-49 688,-28 572,-28"/>
<text text-anchor="start" x="575" y="-34.8" font-family="Times,serif" font-size="14.00">script_pub_key</text>
</g>
<!-- bitcoin_transaction__seq&#45;&gt;vout__seq -->
<g id="edge3" class="edge"><title>bitcoin_transaction__seq:vouts_type&#45;&gt;vout__seq</title>
<path fill="none" stroke="black" stroke-width="2" d="M349.5,-148C388.909,-148 429.965,-135.307 464.925,-120.161"/>
<polygon fill="black" stroke="black" stroke-width="2" points="466.438,-123.319 474.146,-116.049 463.587,-116.925 466.438,-123.319"/>
</g>
<!-- vin__seq&#45;&gt;vin__seq -->
<g id="edge5" class="edge"><title>vin__seq:len_script_type&#45;&gt;vin__seq:script_sig_size</title>
<path fill="none" stroke="#404040" d="M693.939,-288.198C744.163,-320.03 726.219,-373 570.5,-373 422.304,-373 398.892,-310.135 440.267,-273.358"/>
<polygon fill="#404040" stroke="#404040" points="442.657,-275.933 448.407,-267.035 438.363,-270.405 442.657,-275.933"/>
</g>
<!-- script_signature__seq -->
<g id="node3" class="node"><title>script_signature__seq</title>
<polygon fill="#e0ffe0" stroke="none" points="764.5,-338 764.5,-359 795.5,-359 795.5,-338 764.5,-338"/>
<polygon fill="none" stroke="black" points="764.5,-338 764.5,-359 795.5,-359 795.5,-338 764.5,-338"/>
<text text-anchor="start" x="767.5" y="-344.8" font-family="Times,serif" font-size="14.00">pos</text>
<polygon fill="#e0ffe0" stroke="none" points="795.5,-338 795.5,-359 829.5,-359 829.5,-338 795.5,-338"/>
<polygon fill="none" stroke="black" points="795.5,-338 795.5,-359 829.5,-359 829.5,-338 795.5,-338"/>
<text text-anchor="start" x="798.5" y="-344.8" font-family="Times,serif" font-size="14.00">size</text>
<polygon fill="#e0ffe0" stroke="none" points="829.5,-338 829.5,-359 956.5,-359 956.5,-338 829.5,-338"/>
<polygon fill="none" stroke="black" points="829.5,-338 829.5,-359 956.5,-359 956.5,-338 829.5,-338"/>
<text text-anchor="start" x="877" y="-344.8" font-family="Times,serif" font-size="14.00">type</text>
<polygon fill="#e0ffe0" stroke="none" points="956.5,-338 956.5,-359 1091.5,-359 1091.5,-338 956.5,-338"/>
<polygon fill="none" stroke="black" points="956.5,-338 956.5,-359 1091.5,-359 1091.5,-338 956.5,-338"/>
<text text-anchor="start" x="1017" y="-344.8" font-family="Times,serif" font-size="14.00">id</text>
<polygon fill="none" stroke="black" points="764.5,-317 764.5,-338 795.5,-338 795.5,-317 764.5,-317"/>
<text text-anchor="start" x="775" y="-323.8" font-family="Times,serif" font-size="14.00">0</text>
<polygon fill="none" stroke="black" points="795.5,-317 795.5,-338 829.5,-338 829.5,-317 795.5,-317"/>
<text text-anchor="start" x="807.5" y="-323.8" font-family="Times,serif" font-size="14.00">1</text>
<polygon fill="none" stroke="black" points="829.5,-317 829.5,-338 956.5,-338 956.5,-317 829.5,-317"/>
<text text-anchor="start" x="883.5" y="-323.8" font-family="Times,serif" font-size="14.00">u1</text>
<polygon fill="none" stroke="black" points="956.5,-317 956.5,-338 1091.5,-338 1091.5,-317 956.5,-317"/>
<text text-anchor="start" x="975.5" y="-323.8" font-family="Times,serif" font-size="14.00">len_sig_stack</text>
<polygon fill="none" stroke="black" points="764.5,-296 764.5,-317 795.5,-317 795.5,-296 764.5,-296"/>
<text text-anchor="start" x="775" y="-302.8" font-family="Times,serif" font-size="14.00">1</text>
<polygon fill="none" stroke="black" points="795.5,-296 795.5,-317 829.5,-317 829.5,-296 795.5,-296"/>
<text text-anchor="start" x="805.5" y="-302.8" font-family="Times,serif" font-size="14.00">...</text>
<polygon fill="none" stroke="black" points="829.5,-296 829.5,-317 956.5,-317 956.5,-296 829.5,-296"/>
<text text-anchor="start" x="844.5" y="-302.8" font-family="Times,serif" font-size="14.00">DerSignature</text>
<polygon fill="none" stroke="black" points="956.5,-296 956.5,-317 1091.5,-317 1091.5,-296 956.5,-296"/>
<text text-anchor="start" x="997.5" y="-302.8" font-family="Times,serif" font-size="14.00">der_sig</text>
<polygon fill="none" stroke="black" points="764.5,-275 764.5,-296 795.5,-296 795.5,-275 764.5,-275"/>
<text text-anchor="start" x="773" y="-281.8" font-family="Times,serif" font-size="14.00">...</text>
<polygon fill="none" stroke="black" points="795.5,-275 795.5,-296 829.5,-296 829.5,-275 795.5,-275"/>
<text text-anchor="start" x="807.5" y="-281.8" font-family="Times,serif" font-size="14.00">1</text>
<polygon fill="none" stroke="black" points="829.5,-275 829.5,-296 956.5,-296 956.5,-275 829.5,-275"/>
<text text-anchor="start" x="832.5" y="-281.8" font-family="Times,serif" font-size="14.00">u1→SighashType</text>
<polygon fill="none" stroke="black" points="956.5,-275 956.5,-296 1091.5,-296 1091.5,-275 956.5,-275"/>
<text text-anchor="start" x="993.5" y="-281.8" font-family="Times,serif" font-size="14.00">sig_type</text>
<polygon fill="none" stroke="black" points="764.5,-254 764.5,-275 795.5,-275 795.5,-254 764.5,-254"/>
<text text-anchor="start" x="773" y="-260.8" font-family="Times,serif" font-size="14.00">...</text>
<polygon fill="none" stroke="black" points="795.5,-254 795.5,-275 829.5,-275 829.5,-254 795.5,-254"/>
<text text-anchor="start" x="807.5" y="-260.8" font-family="Times,serif" font-size="14.00">1</text>
<polygon fill="none" stroke="black" points="829.5,-254 829.5,-275 956.5,-275 956.5,-254 829.5,-254"/>
<text text-anchor="start" x="883.5" y="-260.8" font-family="Times,serif" font-size="14.00">u1</text>
<polygon fill="none" stroke="black" points="956.5,-254 956.5,-275 1091.5,-275 1091.5,-254 956.5,-254"/>
<text text-anchor="start" x="959.5" y="-260.8" font-family="Times,serif" font-size="14.00">len_pubkey_stack</text>
<polygon fill="none" stroke="black" points="764.5,-233 764.5,-254 795.5,-254 795.5,-233 764.5,-233"/>
<text text-anchor="start" x="773" y="-239.8" font-family="Times,serif" font-size="14.00">...</text>
<polygon fill="none" stroke="black" points="795.5,-233 795.5,-254 829.5,-254 829.5,-233 795.5,-233"/>
<text text-anchor="start" x="803" y="-239.8" font-family="Times,serif" font-size="14.00">65</text>
<polygon fill="none" stroke="black" points="829.5,-233 829.5,-254 956.5,-254 956.5,-233 829.5,-233"/>
<text text-anchor="start" x="857" y="-239.8" font-family="Times,serif" font-size="14.00">PublicKey</text>
<polygon fill="none" stroke="black" points="956.5,-233 956.5,-254 1091.5,-254 1091.5,-233 956.5,-233"/>
<text text-anchor="start" x="997.5" y="-239.8" font-family="Times,serif" font-size="14.00">pubkey</text>
</g>
<!-- vin__seq&#45;&gt;script_signature__seq -->
<g id="edge6" class="edge"><title>vin__seq:script_sig_type&#45;&gt;script_signature__seq</title>
<path fill="none" stroke="black" stroke-width="2" d="M713,-256C723.683,-256 734.616,-256.49 745.612,-257.361"/>
<polygon fill="black" stroke="black" stroke-width="2" points="745.452,-260.861 755.724,-258.265 746.076,-253.888 745.452,-260.861"/>
</g>
<!-- der_signature__seq -->
<g id="node4" class="node"><title>der_signature__seq</title>
<polygon fill="#e0ffe0" stroke="none" points="1261.5,-508 1261.5,-529 1292.5,-529 1292.5,-508 1261.5,-508"/>
<polygon fill="none" stroke="black" points="1261.5,-508 1261.5,-529 1292.5,-529 1292.5,-508 1261.5,-508"/>
<text text-anchor="start" x="1264.5" y="-514.8" font-family="Times,serif" font-size="14.00">pos</text>
<polygon fill="#e0ffe0" stroke="none" points="1292.5,-508 1292.5,-529 1364.5,-529 1364.5,-508 1292.5,-508"/>
<polygon fill="none" stroke="black" points="1292.5,-508 1292.5,-529 1364.5,-529 1364.5,-508 1292.5,-508"/>
<text text-anchor="start" x="1314.5" y="-514.8" font-family="Times,serif" font-size="14.00">size</text>
<polygon fill="#e0ffe0" stroke="none" points="1364.5,-508 1364.5,-529 1402.5,-529 1402.5,-508 1364.5,-508"/>
<polygon fill="none" stroke="black" points="1364.5,-508 1364.5,-529 1402.5,-529 1402.5,-508 1364.5,-508"/>
<text text-anchor="start" x="1367.5" y="-514.8" font-family="Times,serif" font-size="14.00">type</text>
<polygon fill="#e0ffe0" stroke="none" points="1402.5,-508 1402.5,-529 1476.5,-529 1476.5,-508 1402.5,-508"/>
<polygon fill="none" stroke="black" points="1402.5,-508 1402.5,-529 1476.5,-529 1476.5,-508 1402.5,-508"/>
<text text-anchor="start" x="1432.5" y="-514.8" font-family="Times,serif" font-size="14.00">id</text>
<polygon fill="none" stroke="black" points="1261.5,-487 1261.5,-508 1292.5,-508 1292.5,-487 1261.5,-487"/>
<text text-anchor="start" x="1272" y="-493.8" font-family="Times,serif" font-size="14.00">0</text>
<polygon fill="none" stroke="black" points="1292.5,-487 1292.5,-508 1364.5,-508 1364.5,-487 1292.5,-487"/>
<text text-anchor="start" x="1323.5" y="-493.8" font-family="Times,serif" font-size="14.00">1</text>
<polygon fill="none" stroke="black" points="1364.5,-487 1364.5,-508 1402.5,-508 1402.5,-487 1364.5,-487"/>
<text text-anchor="start" x="1374" y="-493.8" font-family="Times,serif" font-size="14.00">30</text>
<polygon fill="none" stroke="black" points="1402.5,-487 1402.5,-508 1476.5,-508 1476.5,-487 1402.5,-487"/>
<text text-anchor="start" x="1405.5" y="-493.8" font-family="Times,serif" font-size="14.00">sequence</text>
<polygon fill="none" stroke="black" points="1261.5,-466 1261.5,-487 1292.5,-487 1292.5,-466 1261.5,-466"/>
<text text-anchor="start" x="1272" y="-472.8" font-family="Times,serif" font-size="14.00">1</text>
<polygon fill="none" stroke="black" points="1292.5,-466 1292.5,-487 1364.5,-487 1364.5,-466 1292.5,-466"/>
<text text-anchor="start" x="1323.5" y="-472.8" font-family="Times,serif" font-size="14.00">1</text>
<polygon fill="none" stroke="black" points="1364.5,-466 1364.5,-487 1402.5,-487 1402.5,-466 1364.5,-466"/>
<text text-anchor="start" x="1374" y="-472.8" font-family="Times,serif" font-size="14.00">u1</text>
<polygon fill="none" stroke="black" points="1402.5,-466 1402.5,-487 1476.5,-487 1476.5,-466 1402.5,-466"/>
<text text-anchor="start" x="1414" y="-472.8" font-family="Times,serif" font-size="14.00">len_sig</text>
<polygon fill="none" stroke="black" points="1261.5,-445 1261.5,-466 1292.5,-466 1292.5,-445 1261.5,-445"/>
<text text-anchor="start" x="1272" y="-451.8" font-family="Times,serif" font-size="14.00">2</text>
<polygon fill="none" stroke="black" points="1292.5,-445 1292.5,-466 1364.5,-466 1364.5,-445 1292.5,-445"/>
<text text-anchor="start" x="1323.5" y="-451.8" font-family="Times,serif" font-size="14.00">1</text>
<polygon fill="none" stroke="black" points="1364.5,-445 1364.5,-466 1402.5,-466 1402.5,-445 1364.5,-445"/>
<text text-anchor="start" x="1374" y="-451.8" font-family="Times,serif" font-size="14.00">02</text>
<polygon fill="none" stroke="black" points="1402.5,-445 1402.5,-466 1476.5,-466 1476.5,-445 1402.5,-445"/>
<text text-anchor="start" x="1418.5" y="-451.8" font-family="Times,serif" font-size="14.00">sep_1</text>
<polygon fill="none" stroke="black" points="1261.5,-424 1261.5,-445 1292.5,-445 1292.5,-424 1261.5,-424"/>
<text text-anchor="start" x="1272" y="-430.8" font-family="Times,serif" font-size="14.00">3</text>
<polygon fill="none" stroke="black" points="1292.5,-424 1292.5,-445 1364.5,-445 1364.5,-424 1292.5,-424"/>
<text text-anchor="start" x="1323.5" y="-430.8" font-family="Times,serif" font-size="14.00">1</text>
<polygon fill="none" stroke="black" points="1364.5,-424 1364.5,-445 1402.5,-445 1402.5,-424 1364.5,-424"/>
<text text-anchor="start" x="1374" y="-430.8" font-family="Times,serif" font-size="14.00">u1</text>
<polygon fill="none" stroke="black" points="1402.5,-424 1402.5,-445 1476.5,-445 1476.5,-424 1402.5,-424"/>
<text text-anchor="start" x="1407" y="-430.8" font-family="Times,serif" font-size="14.00">len_sig_r</text>
<polygon fill="none" stroke="black" points="1261.5,-403 1261.5,-424 1292.5,-424 1292.5,-403 1261.5,-403"/>
<text text-anchor="start" x="1272" y="-409.8" font-family="Times,serif" font-size="14.00">4</text>
<polygon fill="none" stroke="black" points="1292.5,-403 1292.5,-424 1364.5,-424 1364.5,-403 1292.5,-403"/>
<text text-anchor="start" x="1296" y="-409.8" font-family="Times,serif" font-size="14.00">len_sig_r</text>
<polygon fill="none" stroke="black" points="1364.5,-403 1364.5,-424 1402.5,-424 1402.5,-403 1364.5,-403"/>
<polygon fill="none" stroke="black" points="1402.5,-403 1402.5,-424 1476.5,-424 1476.5,-403 1402.5,-403"/>
<text text-anchor="start" x="1421.5" y="-409.8" font-family="Times,serif" font-size="14.00">sig_r</text>
<polygon fill="none" stroke="black" points="1261.5,-382 1261.5,-403 1292.5,-403 1292.5,-382 1261.5,-382"/>
<text text-anchor="start" x="1270" y="-388.8" font-family="Times,serif" font-size="14.00">...</text>
<polygon fill="none" stroke="black" points="1292.5,-382 1292.5,-403 1364.5,-403 1364.5,-382 1292.5,-382"/>
<text text-anchor="start" x="1323.5" y="-388.8" font-family="Times,serif" font-size="14.00">1</text>
<polygon fill="none" stroke="black" points="1364.5,-382 1364.5,-403 1402.5,-403 1402.5,-382 1364.5,-382"/>
<text text-anchor="start" x="1374" y="-388.8" font-family="Times,serif" font-size="14.00">02</text>
<polygon fill="none" stroke="black" points="1402.5,-382 1402.5,-403 1476.5,-403 1476.5,-382 1402.5,-382"/>
<text text-anchor="start" x="1418.5" y="-388.8" font-family="Times,serif" font-size="14.00">sep_2</text>
<polygon fill="none" stroke="black" points="1261.5,-361 1261.5,-382 1292.5,-382 1292.5,-361 1261.5,-361"/>
<text text-anchor="start" x="1270" y="-367.8" font-family="Times,serif" font-size="14.00">...</text>
<polygon fill="none" stroke="black" points="1292.5,-361 1292.5,-382 1364.5,-382 1364.5,-361 1292.5,-361"/>
<text text-anchor="start" x="1323.5" y="-367.8" font-family="Times,serif" font-size="14.00">1</text>
<polygon fill="none" stroke="black" points="1364.5,-361 1364.5,-382 1402.5,-382 1402.5,-361 1364.5,-361"/>
<text text-anchor="start" x="1374" y="-367.8" font-family="Times,serif" font-size="14.00">u1</text>
<polygon fill="none" stroke="black" points="1402.5,-361 1402.5,-382 1476.5,-382 1476.5,-361 1402.5,-361"/>
<text text-anchor="start" x="1406.5" y="-367.8" font-family="Times,serif" font-size="14.00">len_sig_s</text>
<polygon fill="none" stroke="black" points="1261.5,-340 1261.5,-361 1292.5,-361 1292.5,-340 1261.5,-340"/>
<text text-anchor="start" x="1270" y="-346.8" font-family="Times,serif" font-size="14.00">...</text>
<polygon fill="none" stroke="black" points="1292.5,-340 1292.5,-361 1364.5,-361 1364.5,-340 1292.5,-340"/>
<text text-anchor="start" x="1295.5" y="-346.8" font-family="Times,serif" font-size="14.00">len_sig_s</text>
<polygon fill="none" stroke="black" points="1364.5,-340 1364.5,-361 1402.5,-361 1402.5,-340 1364.5,-340"/>
<polygon fill="none" stroke="black" points="1402.5,-340 1402.5,-361 1476.5,-361 1476.5,-340 1402.5,-340"/>
<text text-anchor="start" x="1421" y="-346.8" font-family="Times,serif" font-size="14.00">sig_s</text>
</g>
<!-- script_signature__seq&#45;&gt;der_signature__seq -->
<g id="edge7" class="edge"><title>script_signature__seq:der_sig_type&#45;&gt;der_signature__seq</title>
<path fill="none" stroke="black" stroke-width="2" d="M1092.5,-307C1124.05,-307 1186.33,-335.05 1243.65,-364.887"/>
<polygon fill="black" stroke="black" stroke-width="2" points="1242.32,-368.142 1252.8,-369.688 1245.57,-361.943 1242.32,-368.142"/>
</g>
<!-- public_key__seq -->
<g id="node5" class="node"><title>public_key__seq</title>
<polygon fill="#e0ffe0" stroke="none" points="1298.5,-264 1298.5,-285 1329.5,-285 1329.5,-264 1298.5,-264"/>
<polygon fill="none" stroke="black" points="1298.5,-264 1298.5,-285 1329.5,-285 1329.5,-264 1298.5,-264"/>
<text text-anchor="start" x="1301.5" y="-270.8" font-family="Times,serif" font-size="14.00">pos</text>
<polygon fill="#e0ffe0" stroke="none" points="1329.5,-264 1329.5,-285 1363.5,-285 1363.5,-264 1329.5,-264"/>
<polygon fill="none" stroke="black" points="1329.5,-264 1329.5,-285 1363.5,-285 1363.5,-264 1329.5,-264"/>
<text text-anchor="start" x="1332.5" y="-270.8" font-family="Times,serif" font-size="14.00">size</text>
<polygon fill="#e0ffe0" stroke="none" points="1363.5,-264 1363.5,-285 1401.5,-285 1401.5,-264 1363.5,-264"/>
<polygon fill="none" stroke="black" points="1363.5,-264 1363.5,-285 1401.5,-285 1401.5,-264 1363.5,-264"/>
<text text-anchor="start" x="1366.5" y="-270.8" font-family="Times,serif" font-size="14.00">type</text>
<polygon fill="#e0ffe0" stroke="none" points="1401.5,-264 1401.5,-285 1439.5,-285 1439.5,-264 1401.5,-264"/>
<polygon fill="none" stroke="black" points="1401.5,-264 1401.5,-285 1439.5,-285 1439.5,-264 1401.5,-264"/>
<text text-anchor="start" x="1413.5" y="-270.8" font-family="Times,serif" font-size="14.00">id</text>
<polygon fill="none" stroke="black" points="1298.5,-243 1298.5,-264 1329.5,-264 1329.5,-243 1298.5,-243"/>
<text text-anchor="start" x="1309" y="-249.8" font-family="Times,serif" font-size="14.00">0</text>
<polygon fill="none" stroke="black" points="1329.5,-243 1329.5,-264 1363.5,-264 1363.5,-243 1329.5,-243"/>
<text text-anchor="start" x="1341.5" y="-249.8" font-family="Times,serif" font-size="14.00">1</text>
<polygon fill="none" stroke="black" points="1363.5,-243 1363.5,-264 1401.5,-264 1401.5,-243 1363.5,-243"/>
<text text-anchor="start" x="1373" y="-249.8" font-family="Times,serif" font-size="14.00">u1</text>
<polygon fill="none" stroke="black" points="1401.5,-243 1401.5,-264 1439.5,-264 1439.5,-243 1401.5,-243"/>
<text text-anchor="start" x="1404.5" y="-249.8" font-family="Times,serif" font-size="14.00">type</text>
<polygon fill="none" stroke="black" points="1298.5,-222 1298.5,-243 1329.5,-243 1329.5,-222 1298.5,-222"/>
<text text-anchor="start" x="1309" y="-228.8" font-family="Times,serif" font-size="14.00">1</text>
<polygon fill="none" stroke="black" points="1329.5,-222 1329.5,-243 1363.5,-243 1363.5,-222 1329.5,-222"/>
<text text-anchor="start" x="1337" y="-228.8" font-family="Times,serif" font-size="14.00">32</text>
<polygon fill="none" stroke="black" points="1363.5,-222 1363.5,-243 1401.5,-243 1401.5,-222 1363.5,-222"/>
<polygon fill="none" stroke="black" points="1401.5,-222 1401.5,-243 1439.5,-243 1439.5,-222 1401.5,-222"/>
<text text-anchor="start" x="1416" y="-228.8" font-family="Times,serif" font-size="14.00">x</text>
<polygon fill="none" stroke="black" points="1298.5,-201 1298.5,-222 1329.5,-222 1329.5,-201 1298.5,-201"/>
<text text-anchor="start" x="1304.5" y="-207.8" font-family="Times,serif" font-size="14.00">33</text>
<polygon fill="none" stroke="black" points="1329.5,-201 1329.5,-222 1363.5,-222 1363.5,-201 1329.5,-201"/>
<text text-anchor="start" x="1337" y="-207.8" font-family="Times,serif" font-size="14.00">32</text>
<polygon fill="none" stroke="black" points="1363.5,-201 1363.5,-222 1401.5,-222 1401.5,-201 1363.5,-201"/>
<polygon fill="none" stroke="black" points="1401.5,-201 1401.5,-222 1439.5,-222 1439.5,-201 1401.5,-201"/>
<text text-anchor="start" x="1416" y="-207.8" font-family="Times,serif" font-size="14.00">y</text>
</g>
<!-- script_signature__seq&#45;&gt;public_key__seq -->
<g id="edge8" class="edge"><title>script_signature__seq:pubkey_type&#45;&gt;public_key__seq</title>
<path fill="none" stroke="black" stroke-width="2" d="M1092.5,-243C1155.07,-243 1225.65,-243 1279.63,-243"/>
<polygon fill="black" stroke="black" stroke-width="2" points="1279.86,-246.5 1289.86,-243 1279.86,-239.5 1279.86,-246.5"/>
</g>
<!-- der_signature__seq&#45;&gt;der_signature__seq -->
<g id="edge9" class="edge"><title>der_signature__seq:len_sig_r_type&#45;&gt;der_signature__seq:sig_r_size</title>
<path fill="none" stroke="#404040" d="M1465.92,-445.082C1548.22,-486.054 1534.95,-551.5 1384,-551.5 1238.18,-551.5 1220.84,-474.128 1294.02,-429.165"/>
<polygon fill="#404040" stroke="#404040" points="1295.92,-432.108 1302.88,-424.117 1292.46,-426.025 1295.92,-432.108"/>
</g>
<!-- der_signature__seq&#45;&gt;der_signature__seq -->
<g id="edge10" class="edge"><title>der_signature__seq:len_sig_s_type&#45;&gt;der_signature__seq:sig_s_size</title>
<path fill="none" stroke="#404040" d="M1463.51,-382.025C1548.46,-431.359 1536.41,-551.5 1384,-551.5 1236.64,-551.5 1220.49,-422.534 1296.37,-366.852"/>
<polygon fill="#404040" stroke="#404040" points="1298.66,-369.533 1305.03,-361.067 1294.77,-363.712 1298.66,-369.533"/>
</g>
<!-- vout__seq&#45;&gt;vout__seq -->
<g id="edge11" class="edge"><title>vout__seq:len_script_type&#45;&gt;vout__seq:script_pub_key_size</title>
<path fill="none" stroke="#404040" d="M657.801,-70.0166C702.513,-94.7253 684.832,-134 562.5,-134 446.727,-134 424.684,-85.0595 460.552,-55.1023"/>
<polygon fill="#404040" stroke="#404040" points="462.965,-57.6802 469.071,-49.0224 458.898,-51.9823 462.965,-57.6802"/>
</g>
</g>
</svg>
