<?xml version="1.0" encoding="UTF-8" standalone="no"?>
<!DOCTYPE svg PUBLIC "-//W3C//DTD SVG 1.1//EN"
 "http://www.w3.org/Graphics/SVG/1.1/DTD/svg11.dtd">
<!-- Generated by graphviz version 2.40.1 (20161225.0304)
 -->
<!-- Title: %3 Pages: 1 -->
<svg width="2330pt" height="662pt"
 viewBox="0.00 0.00 2330.00 662.15" xmlns="http://www.w3.org/2000/svg" xmlns:xlink="http://www.w3.org/1999/xlink">
<g id="graph0" class="graph" transform="scale(1 1) rotate(0) translate(4 658.1516)">
<title>%3</title>
<polygon fill="#ffffff" stroke="transparent" points="-4,4 -4,-658.1516 2326,-658.1516 2326,4 -4,4"/>
<g id="clust1" class="cluster">
<title>cluster__some_ip</title>
<polygon fill="none" stroke="#000000" stroke-dasharray="1,5" points="8,-8.1516 8,-646.1516 2181,-646.1516 2181,-8.1516 8,-8.1516"/>
<text text-anchor="middle" x="1094.5" y="-630.9516" font-family="Times,serif" font-size="14.00" fill="#000000">SomeIp</text>
</g>
<g id="clust2" class="cluster">
<title>cluster__header</title>
<polygon fill="none" stroke="#000000" stroke-dasharray="1,5" points="16,-16.1516 16,-535.1516 1991,-535.1516 1991,-16.1516 16,-16.1516"/>
<text text-anchor="middle" x="1003.5" y="-519.9516" font-family="Times,serif" font-size="14.00" fill="#000000">SomeIp::Header</text>
</g>
<g id="clust3" class="cluster">
<title>cluster__message_id</title>
<polygon fill="none" stroke="#000000" stroke-dasharray="1,5" points="364,-283.1516 364,-504.1516 660,-504.1516 660,-283.1516 364,-283.1516"/>
<text text-anchor="middle" x="512" y="-488.9516" font-family="Times,serif" font-size="14.00" fill="#000000">SomeIp::Header::MessageId</text>
</g>
<g id="clust4" class="cluster">
<title>cluster__request_id</title>
<polygon fill="none" stroke="#000000" stroke-dasharray="1,5" points="421.5,-96.1516 421.5,-275.1516 602.5,-275.1516 602.5,-96.1516 421.5,-96.1516"/>
<text text-anchor="middle" x="512" y="-259.9516" font-family="Times,serif" font-size="14.00" fill="#000000">SomeIp::Header::RequestId</text>
</g>
<!-- some_ip__seq -->
<g id="node1" class="node">
<title>some_ip__seq</title>
<polygon fill="#e0ffe0" stroke="transparent" points="1189.5,-589.1516 1189.5,-610.1516 1214.5,-610.1516 1214.5,-589.1516 1189.5,-589.1516"/>
<polygon fill="none" stroke="#000000" points="1189.5,-589.1516 1189.5,-610.1516 1214.5,-610.1516 1214.5,-589.1516 1189.5,-589.1516"/>
<text text-anchor="start" x="1192.5" y="-595.9516" font-family="Times,serif" font-size="14.00" fill="#000000">pos</text>
<polygon fill="#e0ffe0" stroke="transparent" points="1214.5,-589.1516 1214.5,-610.1516 1242.5,-610.1516 1242.5,-589.1516 1214.5,-589.1516"/>
<polygon fill="none" stroke="#000000" points="1214.5,-589.1516 1214.5,-610.1516 1242.5,-610.1516 1242.5,-589.1516 1214.5,-589.1516"/>
<text text-anchor="start" x="1217.5" y="-595.9516" font-family="Times,serif" font-size="14.00" fill="#000000">size</text>
<polygon fill="#e0ffe0" stroke="transparent" points="1242.5,-589.1516 1242.5,-610.1516 1433.5,-610.1516 1433.5,-589.1516 1242.5,-589.1516"/>
<polygon fill="none" stroke="#000000" points="1242.5,-589.1516 1242.5,-610.1516 1433.5,-610.1516 1433.5,-589.1516 1242.5,-589.1516"/>
<text text-anchor="start" x="1326" y="-595.9516" font-family="Times,serif" font-size="14.00" fill="#000000">type</text>
<polygon fill="#e0ffe0" stroke="transparent" points="1433.5,-589.1516 1433.5,-610.1516 1482.5,-610.1516 1482.5,-589.1516 1433.5,-589.1516"/>
<polygon fill="none" stroke="#000000" points="1433.5,-589.1516 1433.5,-610.1516 1482.5,-610.1516 1482.5,-589.1516 1433.5,-589.1516"/>
<text text-anchor="start" x="1452.5" y="-595.9516" font-family="Times,serif" font-size="14.00" fill="#000000">id</text>
<polygon fill="none" stroke="#000000" points="1189.5,-568.1516 1189.5,-589.1516 1214.5,-589.1516 1214.5,-568.1516 1189.5,-568.1516"/>
<text text-anchor="start" x="1198.5" y="-574.9516" font-family="Times,serif" font-size="14.00" fill="#000000">0</text>
<polygon fill="none" stroke="#000000" points="1214.5,-568.1516 1214.5,-589.1516 1242.5,-589.1516 1242.5,-568.1516 1214.5,-568.1516"/>
<text text-anchor="start" x="1221.5" y="-574.9516" font-family="Times,serif" font-size="14.00" fill="#000000">16</text>
<polygon fill="none" stroke="#000000" points="1242.5,-568.1516 1242.5,-589.1516 1433.5,-589.1516 1433.5,-568.1516 1242.5,-568.1516"/>
<text text-anchor="start" x="1318" y="-574.9516" font-family="Times,serif" font-size="14.00" fill="#000000">Header</text>
<polygon fill="none" stroke="#000000" points="1433.5,-568.1516 1433.5,-589.1516 1482.5,-589.1516 1482.5,-568.1516 1433.5,-568.1516"/>
<text text-anchor="start" x="1439.5" y="-574.9516" font-family="Times,serif" font-size="14.00" fill="#000000">header</text>
<polygon fill="none" stroke="#000000" points="1189.5,-547.1516 1189.5,-568.1516 1214.5,-568.1516 1214.5,-547.1516 1189.5,-547.1516"/>
<text text-anchor="start" x="1195" y="-553.9516" font-family="Times,serif" font-size="14.00" fill="#000000">16</text>
<polygon fill="none" stroke="#000000" points="1214.5,-547.1516 1214.5,-568.1516 1242.5,-568.1516 1242.5,-547.1516 1214.5,-547.1516"/>
<text text-anchor="start" x="1222.5" y="-553.9516" font-family="Times,serif" font-size="14.00" fill="#000000">...</text>
<polygon fill="none" stroke="#000000" points="1242.5,-547.1516 1242.5,-568.1516 1433.5,-568.1516 1433.5,-547.1516 1242.5,-547.1516"/>
<text text-anchor="start" x="1245.5" y="-553.9516" font-family="Times,serif" font-size="14.00" fill="#000000">switch (header.message_id.value)</text>
<polygon fill="none" stroke="#000000" points="1433.5,-547.1516 1433.5,-568.1516 1482.5,-568.1516 1482.5,-547.1516 1433.5,-547.1516"/>
<text text-anchor="start" x="1436.5" y="-553.9516" font-family="Times,serif" font-size="14.00" fill="#000000">payload</text>
</g>
<!-- some_ip__seq_payload_switch -->
<g id="node2" class="node">
<title>some_ip__seq_payload_switch</title>
<polygon fill="#f0f2e4" stroke="transparent" points="2027,-557.1516 2027,-578.1516 2101,-578.1516 2101,-557.1516 2027,-557.1516"/>
<polygon fill="none" stroke="#000000" points="2027,-557.1516 2027,-578.1516 2101,-578.1516 2101,-557.1516 2027,-557.1516"/>
<text text-anchor="start" x="2052" y="-563.9516" font-family="Times,serif" font-size="14.00" fill="#000000">case</text>
<polygon fill="#f0f2e4" stroke="transparent" points="2101,-557.1516 2101,-578.1516 2165,-578.1516 2165,-557.1516 2101,-557.1516"/>
<polygon fill="none" stroke="#000000" points="2101,-557.1516 2101,-578.1516 2165,-578.1516 2165,-557.1516 2101,-557.1516"/>
<text text-anchor="start" x="2121" y="-563.9516" font-family="Times,serif" font-size="14.00" fill="#000000">type</text>
<polygon fill="none" stroke="#000000" points="2027,-536.1516 2027,-557.1516 2101,-557.1516 2101,-536.1516 2027,-536.1516"/>
<text text-anchor="start" x="2030" y="-542.9516" font-family="Times,serif" font-size="14.00" fill="#000000">4294934784</text>
<polygon fill="none" stroke="#000000" points="2101,-536.1516 2101,-557.1516 2165,-557.1516 2165,-536.1516 2101,-536.1516"/>
<text text-anchor="start" x="2104" y="-542.9516" font-family="Times,serif" font-size="14.00" fill="#000000">SomeIpSd</text>
</g>
<!-- some_ip__seq&#45;&gt;some_ip__seq_payload_switch -->
<g id="edge2" class="edge">
<title>some_ip__seq:payload_type&#45;&gt;some_ip__seq_payload_switch</title>
<path fill="none" stroke="#000000" stroke-width="2" d="M1482.5,-557.1516C1669.8242,-557.1516 1889.3216,-557.1516 2008.3725,-557.1516"/>
<polygon fill="#000000" stroke="#000000" stroke-width="2" points="2008.5228,-560.6517 2018.5227,-557.1516 2008.5227,-553.6517 2008.5228,-560.6517"/>
</g>
<!-- header__seq -->
<g id="node3" class="node">
<title>header__seq</title>
<polygon fill="#e0ffe0" stroke="transparent" points="32,-175.1516 32,-196.1516 57,-196.1516 57,-175.1516 32,-175.1516"/>
<polygon fill="none" stroke="#000000" points="32,-175.1516 32,-196.1516 57,-196.1516 57,-175.1516 32,-175.1516"/>
<text text-anchor="start" x="35" y="-181.9516" font-family="Times,serif" font-size="14.00" fill="#000000">pos</text>
<polygon fill="#e0ffe0" stroke="transparent" points="57,-175.1516 57,-196.1516 85,-196.1516 85,-175.1516 57,-175.1516"/>
<polygon fill="none" stroke="#000000" points="57,-175.1516 57,-196.1516 85,-196.1516 85,-175.1516 57,-175.1516"/>
<text text-anchor="start" x="60" y="-181.9516" font-family="Times,serif" font-size="14.00" fill="#000000">size</text>
<polygon fill="#e0ffe0" stroke="transparent" points="85,-175.1516 85,-196.1516 228,-196.1516 228,-175.1516 85,-175.1516"/>
<polygon fill="none" stroke="#000000" points="85,-175.1516 85,-196.1516 228,-196.1516 228,-175.1516 85,-175.1516"/>
<text text-anchor="start" x="144.5" y="-181.9516" font-family="Times,serif" font-size="14.00" fill="#000000">type</text>
<polygon fill="#e0ffe0" stroke="transparent" points="228,-175.1516 228,-196.1516 328,-196.1516 328,-175.1516 228,-175.1516"/>
<polygon fill="none" stroke="#000000" points="228,-175.1516 228,-196.1516 328,-196.1516 328,-175.1516 228,-175.1516"/>
<text text-anchor="start" x="272.5" y="-181.9516" font-family="Times,serif" font-size="14.00" fill="#000000">id</text>
<polygon fill="none" stroke="#000000" points="32,-154.1516 32,-175.1516 57,-175.1516 57,-154.1516 32,-154.1516"/>
<text text-anchor="start" x="41" y="-160.9516" font-family="Times,serif" font-size="14.00" fill="#000000">0</text>
<polygon fill="none" stroke="#000000" points="57,-154.1516 57,-175.1516 85,-175.1516 85,-154.1516 57,-154.1516"/>
<text text-anchor="start" x="67.5" y="-160.9516" font-family="Times,serif" font-size="14.00" fill="#000000">4</text>
<polygon fill="none" stroke="#000000" points="85,-154.1516 85,-175.1516 228,-175.1516 228,-154.1516 85,-154.1516"/>
<text text-anchor="start" x="126.5" y="-160.9516" font-family="Times,serif" font-size="14.00" fill="#000000">MessageId</text>
<polygon fill="none" stroke="#000000" points="228,-154.1516 228,-175.1516 328,-175.1516 328,-154.1516 228,-154.1516"/>
<text text-anchor="start" x="246" y="-160.9516" font-family="Times,serif" font-size="14.00" fill="#000000">message_id</text>
<polygon fill="none" stroke="#000000" points="32,-133.1516 32,-154.1516 57,-154.1516 57,-133.1516 32,-133.1516"/>
<text text-anchor="start" x="41" y="-139.9516" font-family="Times,serif" font-size="14.00" fill="#000000">4</text>
<polygon fill="none" stroke="#000000" points="57,-133.1516 57,-154.1516 85,-154.1516 85,-133.1516 57,-133.1516"/>
<text text-anchor="start" x="67.5" y="-139.9516" font-family="Times,serif" font-size="14.00" fill="#000000">4</text>
<polygon fill="none" stroke="#000000" points="85,-133.1516 85,-154.1516 228,-154.1516 228,-133.1516 85,-133.1516"/>
<text text-anchor="start" x="143" y="-139.9516" font-family="Times,serif" font-size="14.00" fill="#000000">u4be</text>
<polygon fill="none" stroke="#000000" points="228,-133.1516 228,-154.1516 328,-154.1516 328,-133.1516 228,-133.1516"/>
<text text-anchor="start" x="261" y="-139.9516" font-family="Times,serif" font-size="14.00" fill="#000000">length</text>
<polygon fill="none" stroke="#000000" points="32,-112.1516 32,-133.1516 57,-133.1516 57,-112.1516 32,-112.1516"/>
<text text-anchor="start" x="41" y="-118.9516" font-family="Times,serif" font-size="14.00" fill="#000000">8</text>
<polygon fill="none" stroke="#000000" points="57,-112.1516 57,-133.1516 85,-133.1516 85,-112.1516 57,-112.1516"/>
<text text-anchor="start" x="67.5" y="-118.9516" font-family="Times,serif" font-size="14.00" fill="#000000">4</text>
<polygon fill="none" stroke="#000000" points="85,-112.1516 85,-133.1516 228,-133.1516 228,-112.1516 85,-112.1516"/>
<text text-anchor="start" x="129" y="-118.9516" font-family="Times,serif" font-size="14.00" fill="#000000">RequestId</text>
<polygon fill="none" stroke="#000000" points="228,-112.1516 228,-133.1516 328,-133.1516 328,-112.1516 228,-112.1516"/>
<text text-anchor="start" x="249.5" y="-118.9516" font-family="Times,serif" font-size="14.00" fill="#000000">request_id</text>
<polygon fill="none" stroke="#000000" points="32,-91.1516 32,-112.1516 57,-112.1516 57,-91.1516 32,-91.1516"/>
<text text-anchor="start" x="37.5" y="-97.9516" font-family="Times,serif" font-size="14.00" fill="#000000">12</text>
<polygon fill="none" stroke="#000000" points="57,-91.1516 57,-112.1516 85,-112.1516 85,-91.1516 57,-91.1516"/>
<text text-anchor="start" x="67.5" y="-97.9516" font-family="Times,serif" font-size="14.00" fill="#000000">1</text>
<polygon fill="none" stroke="#000000" points="85,-91.1516 85,-112.1516 228,-112.1516 228,-91.1516 85,-91.1516"/>
<text text-anchor="start" x="149.5" y="-97.9516" font-family="Times,serif" font-size="14.00" fill="#000000">u1</text>
<polygon fill="none" stroke="#000000" points="228,-91.1516 228,-112.1516 328,-112.1516 328,-91.1516 228,-91.1516"/>
<text text-anchor="start" x="232" y="-97.9516" font-family="Times,serif" font-size="14.00" fill="#000000">protocol_version</text>
<polygon fill="none" stroke="#000000" points="32,-70.1516 32,-91.1516 57,-91.1516 57,-70.1516 32,-70.1516"/>
<text text-anchor="start" x="37.5" y="-76.9516" font-family="Times,serif" font-size="14.00" fill="#000000">13</text>
<polygon fill="none" stroke="#000000" points="57,-70.1516 57,-91.1516 85,-91.1516 85,-70.1516 57,-70.1516"/>
<text text-anchor="start" x="67.5" y="-76.9516" font-family="Times,serif" font-size="14.00" fill="#000000">1</text>
<polygon fill="none" stroke="#000000" points="85,-70.1516 85,-91.1516 228,-91.1516 228,-70.1516 85,-70.1516"/>
<text text-anchor="start" x="149.5" y="-76.9516" font-family="Times,serif" font-size="14.00" fill="#000000">u1</text>
<polygon fill="none" stroke="#000000" points="228,-70.1516 228,-91.1516 328,-91.1516 328,-70.1516 228,-70.1516"/>
<text text-anchor="start" x="231" y="-76.9516" font-family="Times,serif" font-size="14.00" fill="#000000">interface_version</text>
<polygon fill="none" stroke="#000000" points="32,-49.1516 32,-70.1516 57,-70.1516 57,-49.1516 32,-49.1516"/>
<text text-anchor="start" x="37.5" y="-55.9516" font-family="Times,serif" font-size="14.00" fill="#000000">14</text>
<polygon fill="none" stroke="#000000" points="57,-49.1516 57,-70.1516 85,-70.1516 85,-49.1516 57,-49.1516"/>
<text text-anchor="start" x="67.5" y="-55.9516" font-family="Times,serif" font-size="14.00" fill="#000000">1</text>
<polygon fill="none" stroke="#000000" points="85,-49.1516 85,-70.1516 228,-70.1516 228,-49.1516 85,-49.1516"/>
<text text-anchor="start" x="88" y="-55.9516" font-family="Times,serif" font-size="14.00" fill="#000000">u1→MessageTypeEnum</text>
<polygon fill="none" stroke="#000000" points="228,-49.1516 228,-70.1516 328,-70.1516 328,-49.1516 228,-49.1516"/>
<text text-anchor="start" x="239.5" y="-55.9516" font-family="Times,serif" font-size="14.00" fill="#000000">message_type</text>
<polygon fill="none" stroke="#000000" points="32,-28.1516 32,-49.1516 57,-49.1516 57,-28.1516 32,-28.1516"/>
<text text-anchor="start" x="37.5" y="-34.9516" font-family="Times,serif" font-size="14.00" fill="#000000">15</text>
<polygon fill="none" stroke="#000000" points="57,-28.1516 57,-49.1516 85,-49.1516 85,-28.1516 57,-28.1516"/>
<text text-anchor="start" x="67.5" y="-34.9516" font-family="Times,serif" font-size="14.00" fill="#000000">1</text>
<polygon fill="none" stroke="#000000" points="85,-28.1516 85,-49.1516 228,-49.1516 228,-28.1516 85,-28.1516"/>
<text text-anchor="start" x="93" y="-34.9516" font-family="Times,serif" font-size="14.00" fill="#000000">u1→ReturnCodeEnum</text>
<polygon fill="none" stroke="#000000" points="228,-28.1516 228,-49.1516 328,-49.1516 328,-28.1516 228,-28.1516"/>
<text text-anchor="start" x="245.5" y="-34.9516" font-family="Times,serif" font-size="14.00" fill="#000000">return_code</text>
</g>
<!-- some_ip__seq&#45;&gt;header__seq -->
<g id="edge1" class="edge">
<title>some_ip__seq:header_type&#45;&gt;header__seq</title>
<path fill="none" stroke="#000000" stroke-width="2" d="M1482.5,-578.1516C1497.8333,-578.1516 1493.3116,-554.5246 1482.5,-543.6516 1478.6096,-539.7392 693.5104,-539.4303 688,-539.1516 543.527,-531.8457 482.1017,-591.685 364,-508.1516 265.7667,-438.6712 218.6135,-303.1285 196.9617,-210.1463"/>
<polygon fill="#000000" stroke="#000000" stroke-width="2" points="200.3212,-209.1347 194.6952,-200.157 193.4947,-210.6836 200.3212,-209.1347"/>
</g>
<!-- some_ip_sd__seq -->
<g id="node9" class="node">
<title>some_ip_sd__seq</title>
<text text-anchor="middle" x="2265.5" y="-542.4516" font-family="Times,serif" font-size="14.00" fill="#000000">some_ip_sd__seq</text>
</g>
<!-- some_ip__seq_payload_switch&#45;&gt;some_ip_sd__seq -->
<g id="edge3" class="edge">
<title>some_ip__seq_payload_switch:case0&#45;&gt;some_ip_sd__seq</title>
<path fill="none" stroke="#000000" stroke-width="2" d="M2165,-546.1516C2175.8872,-546.1516 2187.4379,-546.1516 2198.6817,-546.1516"/>
<polygon fill="#000000" stroke="#000000" stroke-width="2" points="2198.8936,-549.6517 2208.8936,-546.1516 2198.8936,-542.6517 2198.8936,-549.6517"/>
</g>
<!-- header__inst__is_valid_service_discovery -->
<g id="node4" class="node">
<title>header__inst__is_valid_service_discovery</title>
<polygon fill="#e0ffe0" stroke="transparent" points="696.5,-65.1516 696.5,-86.1516 850.5,-86.1516 850.5,-65.1516 696.5,-65.1516"/>
<polygon fill="none" stroke="#000000" points="696.5,-65.1516 696.5,-86.1516 850.5,-86.1516 850.5,-65.1516 696.5,-65.1516"/>
<text text-anchor="start" x="768" y="-71.9516" font-family="Times,serif" font-size="14.00" fill="#000000">id</text>
<polygon fill="#e0ffe0" stroke="transparent" points="850.5,-65.1516 850.5,-86.1516 1975.5,-86.1516 1975.5,-65.1516 850.5,-65.1516"/>
<polygon fill="none" stroke="#000000" points="850.5,-65.1516 850.5,-86.1516 1975.5,-86.1516 1975.5,-65.1516 850.5,-65.1516"/>
<text text-anchor="start" x="1398" y="-71.9516" font-family="Times,serif" font-size="14.00" fill="#000000">value</text>
<polygon fill="none" stroke="#000000" points="696.5,-44.1516 696.5,-65.1516 850.5,-65.1516 850.5,-44.1516 696.5,-44.1516"/>
<text text-anchor="start" x="699.5" y="-50.9516" font-family="Times,serif" font-size="14.00" fill="#000000">is_valid_service_discovery</text>
<polygon fill="none" stroke="#000000" points="850.5,-44.1516 850.5,-65.1516 1975.5,-65.1516 1975.5,-44.1516 850.5,-44.1516"/>
<text text-anchor="start" x="853.5" y="-50.9516" font-family="Times,serif" font-size="14.00" fill="#000000"> ((message_id.value == 4294934784) &amp;&amp; (protocol_version == 1) &amp;&amp; (interface_version == 1) &amp;&amp; (message_type == :message_type_enum_notification) &amp;&amp; (return_code == :return_code_enum_ok)) </text>
</g>
<!-- header__seq&#45;&gt;header__inst__is_valid_service_discovery -->
<g id="edge8" class="edge">
<title>header__seq:protocol_version_type&#45;&gt;header__inst__is_valid_service_discovery</title>
<path fill="none" stroke="#404040" d="M328,-101.1516C344.4924,-101.1516 347.6607,-94.3939 364,-92.1516 429.7778,-83.1247 546.9268,-77.0962 677.6452,-73.0757"/>
<polygon fill="#404040" stroke="#404040" points="677.9992,-76.5666 687.8887,-72.7655 677.7873,-69.5698 677.9992,-76.5666"/>
</g>
<!-- header__seq&#45;&gt;header__inst__is_valid_service_discovery -->
<g id="edge9" class="edge">
<title>header__seq:interface_version_type&#45;&gt;header__inst__is_valid_service_discovery</title>
<path fill="none" stroke="#404040" d="M328,-80.1516C344.4924,-80.1516 347.6374,-73.2172 364,-71.1516 429.8474,-62.8389 547.0231,-59.0702 677.7453,-57.8372"/>
<polygon fill="#404040" stroke="#404040" points="678.0206,-61.335 687.9889,-57.746 677.9581,-54.3353 678.0206,-61.335"/>
</g>
<!-- header__seq&#45;&gt;header__inst__is_valid_service_discovery -->
<g id="edge10" class="edge">
<title>header__seq:message_type_type&#45;&gt;header__inst__is_valid_service_discovery</title>
<path fill="none" stroke="#404040" d="M328,-59.1516C344.0985,-59.1516 347.9262,-56.0419 364,-55.1516 495.3542,-47.8765 528.448,-54.1779 660,-55.1516 665.9169,-55.1954 671.8629,-55.2414 677.8346,-55.2894"/>
<polygon fill="#404040" stroke="#404040" points="677.8797,-58.7898 687.9082,-55.3721 677.9373,-51.79 677.8797,-58.7898"/>
</g>
<!-- header__seq&#45;&gt;header__inst__is_valid_service_discovery -->
<g id="edge11" class="edge">
<title>header__seq:return_code_type&#45;&gt;header__inst__is_valid_service_discovery</title>
<path fill="none" stroke="#404040" d="M328,-38.1516C441.0637,-38.1516 561.239,-39.8718 677.7324,-42.4438"/>
<polygon fill="#404040" stroke="#404040" points="677.833,-45.9468 687.9086,-42.6708 677.9892,-38.9485 677.833,-45.9468"/>
</g>
<!-- message_id__seq -->
<g id="node5" class="node">
<title>message_id__seq</title>
<polygon fill="#e0ffe0" stroke="transparent" points="380,-447.1516 380,-468.1516 405,-468.1516 405,-447.1516 380,-447.1516"/>
<polygon fill="none" stroke="#000000" points="380,-447.1516 380,-468.1516 405,-468.1516 405,-447.1516 380,-447.1516"/>
<text text-anchor="start" x="383" y="-453.9516" font-family="Times,serif" font-size="14.00" fill="#000000">pos</text>
<polygon fill="#e0ffe0" stroke="transparent" points="405,-447.1516 405,-468.1516 433,-468.1516 433,-447.1516 405,-447.1516"/>
<polygon fill="none" stroke="#000000" points="405,-447.1516 405,-468.1516 433,-468.1516 433,-447.1516 405,-447.1516"/>
<text text-anchor="start" x="408" y="-453.9516" font-family="Times,serif" font-size="14.00" fill="#000000">size</text>
<polygon fill="#e0ffe0" stroke="transparent" points="433,-447.1516 433,-468.1516 579,-468.1516 579,-447.1516 433,-447.1516"/>
<polygon fill="none" stroke="#000000" points="433,-447.1516 433,-468.1516 579,-468.1516 579,-447.1516 433,-447.1516"/>
<text text-anchor="start" x="494" y="-453.9516" font-family="Times,serif" font-size="14.00" fill="#000000">type</text>
<polygon fill="#e0ffe0" stroke="transparent" points="579,-447.1516 579,-468.1516 644,-468.1516 644,-447.1516 579,-447.1516"/>
<polygon fill="none" stroke="#000000" points="579,-447.1516 579,-468.1516 644,-468.1516 644,-447.1516 579,-447.1516"/>
<text text-anchor="start" x="606" y="-453.9516" font-family="Times,serif" font-size="14.00" fill="#000000">id</text>
<polygon fill="none" stroke="#000000" points="380,-426.1516 380,-447.1516 405,-447.1516 405,-426.1516 380,-426.1516"/>
<text text-anchor="start" x="389" y="-432.9516" font-family="Times,serif" font-size="14.00" fill="#000000">0</text>
<polygon fill="none" stroke="#000000" points="405,-426.1516 405,-447.1516 433,-447.1516 433,-426.1516 405,-426.1516"/>
<text text-anchor="start" x="415.5" y="-432.9516" font-family="Times,serif" font-size="14.00" fill="#000000">2</text>
<polygon fill="none" stroke="#000000" points="433,-426.1516 433,-447.1516 579,-447.1516 579,-426.1516 433,-426.1516"/>
<text text-anchor="start" x="492.5" y="-432.9516" font-family="Times,serif" font-size="14.00" fill="#000000">u2be</text>
<polygon fill="none" stroke="#000000" points="579,-426.1516 579,-447.1516 644,-447.1516 644,-426.1516 579,-426.1516"/>
<text text-anchor="start" x="583.5" y="-432.9516" font-family="Times,serif" font-size="14.00" fill="#000000">service_id</text>
<polygon fill="none" stroke="#000000" points="380,-405.1516 380,-426.1516 405,-426.1516 405,-405.1516 380,-405.1516"/>
<text text-anchor="start" x="389" y="-411.9516" font-family="Times,serif" font-size="14.00" fill="#000000">2</text>
<polygon fill="none" stroke="#000000" points="405,-405.1516 405,-426.1516 433,-426.1516 433,-405.1516 405,-405.1516"/>
<text text-anchor="start" x="412" y="-411.9516" font-family="Times,serif" font-size="14.00" fill="#000000">1b</text>
<polygon fill="none" stroke="#000000" points="433,-405.1516 433,-426.1516 579,-426.1516 579,-405.1516 433,-405.1516"/>
<text text-anchor="start" x="436" y="-411.9516" font-family="Times,serif" font-size="14.00" fill="#000000">BitsType1(BigBitEndian)</text>
<polygon fill="none" stroke="#000000" points="579,-405.1516 579,-426.1516 644,-426.1516 644,-405.1516 579,-405.1516"/>
<text text-anchor="start" x="593" y="-411.9516" font-family="Times,serif" font-size="14.00" fill="#000000">sub_id</text>
<polygon fill="none" stroke="#000000" points="380,-384.1516 380,-405.1516 405,-405.1516 405,-384.1516 380,-384.1516"/>
<text text-anchor="start" x="383.5" y="-390.9516" font-family="Times,serif" font-size="14.00" fill="#000000">2:1</text>
<polygon fill="none" stroke="#000000" points="405,-384.1516 405,-405.1516 433,-405.1516 433,-384.1516 405,-384.1516"/>
<text text-anchor="start" x="408.5" y="-390.9516" font-family="Times,serif" font-size="14.00" fill="#000000">15b</text>
<polygon fill="none" stroke="#000000" points="433,-384.1516 433,-405.1516 579,-405.1516 579,-384.1516 433,-384.1516"/>
<text text-anchor="start" x="495.5" y="-390.9516" font-family="Times,serif" font-size="14.00" fill="#000000">b15</text>
<polygon fill="none" stroke="#000000" points="579,-384.1516 579,-405.1516 644,-405.1516 644,-384.1516 579,-384.1516"/>
<text text-anchor="start" x="582" y="-390.9516" font-family="Times,serif" font-size="14.00" fill="#000000">method_id</text>
<polygon fill="none" stroke="#000000" points="380,-363.1516 380,-384.1516 405,-384.1516 405,-363.1516 380,-363.1516"/>
<text text-anchor="start" x="389" y="-369.9516" font-family="Times,serif" font-size="14.00" fill="#000000">4</text>
<polygon fill="none" stroke="#000000" points="405,-363.1516 405,-384.1516 433,-384.1516 433,-363.1516 405,-363.1516"/>
<text text-anchor="start" x="408.5" y="-369.9516" font-family="Times,serif" font-size="14.00" fill="#000000">15b</text>
<polygon fill="none" stroke="#000000" points="433,-363.1516 433,-384.1516 579,-384.1516 579,-363.1516 433,-363.1516"/>
<text text-anchor="start" x="495.5" y="-369.9516" font-family="Times,serif" font-size="14.00" fill="#000000">b15</text>
<polygon fill="none" stroke="#000000" points="579,-363.1516 579,-384.1516 644,-384.1516 644,-363.1516 579,-363.1516"/>
<text text-anchor="start" x="588" y="-369.9516" font-family="Times,serif" font-size="14.00" fill="#000000">event_id</text>
</g>
<!-- header__seq&#45;&gt;message_id__seq -->
<g id="edge5" class="edge">
<title>header__seq:message_id_type&#45;&gt;message_id__seq</title>
<path fill="none" stroke="#000000" stroke-width="2" d="M328,-165.1516C411.7645,-165.1516 311.8682,-284.5866 364,-350.1516 364.4924,-350.771 364.9919,-351.3847 365.4983,-351.9928"/>
<polygon fill="#000000" stroke="#000000" stroke-width="2" points="363.1147,-354.5725 372.4477,-359.587 368.2788,-349.8468 363.1147,-354.5725"/>
</g>
<!-- request_id__seq -->
<g id="node7" class="node">
<title>request_id__seq</title>
<polygon fill="#e0ffe0" stroke="transparent" points="438,-218.1516 438,-239.1516 463,-239.1516 463,-218.1516 438,-218.1516"/>
<polygon fill="none" stroke="#000000" points="438,-218.1516 438,-239.1516 463,-239.1516 463,-218.1516 438,-218.1516"/>
<text text-anchor="start" x="441" y="-224.9516" font-family="Times,serif" font-size="14.00" fill="#000000">pos</text>
<polygon fill="#e0ffe0" stroke="transparent" points="463,-218.1516 463,-239.1516 491,-239.1516 491,-218.1516 463,-218.1516"/>
<polygon fill="none" stroke="#000000" points="463,-218.1516 463,-239.1516 491,-239.1516 491,-218.1516 463,-218.1516"/>
<text text-anchor="start" x="466" y="-224.9516" font-family="Times,serif" font-size="14.00" fill="#000000">size</text>
<polygon fill="#e0ffe0" stroke="transparent" points="491,-218.1516 491,-239.1516 524,-239.1516 524,-218.1516 491,-218.1516"/>
<polygon fill="none" stroke="#000000" points="491,-218.1516 491,-239.1516 524,-239.1516 524,-218.1516 491,-218.1516"/>
<text text-anchor="start" x="495.5" y="-224.9516" font-family="Times,serif" font-size="14.00" fill="#000000">type</text>
<polygon fill="#e0ffe0" stroke="transparent" points="524,-218.1516 524,-239.1516 587,-239.1516 587,-218.1516 524,-218.1516"/>
<polygon fill="none" stroke="#000000" points="524,-218.1516 524,-239.1516 587,-239.1516 587,-218.1516 524,-218.1516"/>
<text text-anchor="start" x="550" y="-224.9516" font-family="Times,serif" font-size="14.00" fill="#000000">id</text>
<polygon fill="none" stroke="#000000" points="438,-197.1516 438,-218.1516 463,-218.1516 463,-197.1516 438,-197.1516"/>
<text text-anchor="start" x="447" y="-203.9516" font-family="Times,serif" font-size="14.00" fill="#000000">0</text>
<polygon fill="none" stroke="#000000" points="463,-197.1516 463,-218.1516 491,-218.1516 491,-197.1516 463,-197.1516"/>
<text text-anchor="start" x="473.5" y="-203.9516" font-family="Times,serif" font-size="14.00" fill="#000000">2</text>
<polygon fill="none" stroke="#000000" points="491,-197.1516 491,-218.1516 524,-218.1516 524,-197.1516 491,-197.1516"/>
<text text-anchor="start" x="494" y="-203.9516" font-family="Times,serif" font-size="14.00" fill="#000000">u2be</text>
<polygon fill="none" stroke="#000000" points="524,-197.1516 524,-218.1516 587,-218.1516 587,-197.1516 524,-197.1516"/>
<text text-anchor="start" x="531.5" y="-203.9516" font-family="Times,serif" font-size="14.00" fill="#000000">client_id</text>
<polygon fill="none" stroke="#000000" points="438,-176.1516 438,-197.1516 463,-197.1516 463,-176.1516 438,-176.1516"/>
<text text-anchor="start" x="447" y="-182.9516" font-family="Times,serif" font-size="14.00" fill="#000000">2</text>
<polygon fill="none" stroke="#000000" points="463,-176.1516 463,-197.1516 491,-197.1516 491,-176.1516 463,-176.1516"/>
<text text-anchor="start" x="473.5" y="-182.9516" font-family="Times,serif" font-size="14.00" fill="#000000">2</text>
<polygon fill="none" stroke="#000000" points="491,-176.1516 491,-197.1516 524,-197.1516 524,-176.1516 491,-176.1516"/>
<text text-anchor="start" x="494" y="-182.9516" font-family="Times,serif" font-size="14.00" fill="#000000">u2be</text>
<polygon fill="none" stroke="#000000" points="524,-176.1516 524,-197.1516 587,-197.1516 587,-176.1516 524,-176.1516"/>
<text text-anchor="start" x="527" y="-182.9516" font-family="Times,serif" font-size="14.00" fill="#000000">session_id</text>
</g>
<!-- header__seq&#45;&gt;request_id__seq -->
<g id="edge6" class="edge">
<title>header__seq:request_id_type&#45;&gt;request_id__seq</title>
<path fill="none" stroke="#000000" stroke-width="2" d="M328,-123.1516C351.9176,-123.1516 343.8197,-150.3139 364,-163.1516 380.8645,-173.88 400.4323,-182.1738 419.7061,-188.5418"/>
<polygon fill="#000000" stroke="#000000" stroke-width="2" points="418.8458,-191.9403 429.4354,-191.607 420.9493,-185.2638 418.8458,-191.9403"/>
</g>
<!-- message_id__inst__value -->
<g id="node6" class="node">
<title>message_id__inst__value</title>
<polygon fill="#e0ffe0" stroke="transparent" points="451,-316.1516 451,-337.1516 476,-337.1516 476,-316.1516 451,-316.1516"/>
<polygon fill="none" stroke="#000000" points="451,-316.1516 451,-337.1516 476,-337.1516 476,-316.1516 451,-316.1516"/>
<text text-anchor="start" x="454" y="-322.9516" font-family="Times,serif" font-size="14.00" fill="#000000">pos</text>
<polygon fill="#e0ffe0" stroke="transparent" points="476,-316.1516 476,-337.1516 504,-337.1516 504,-316.1516 476,-316.1516"/>
<polygon fill="none" stroke="#000000" points="476,-316.1516 476,-337.1516 504,-337.1516 504,-316.1516 476,-316.1516"/>
<text text-anchor="start" x="479" y="-322.9516" font-family="Times,serif" font-size="14.00" fill="#000000">size</text>
<polygon fill="#e0ffe0" stroke="transparent" points="504,-316.1516 504,-337.1516 537,-337.1516 537,-316.1516 504,-316.1516"/>
<polygon fill="none" stroke="#000000" points="504,-316.1516 504,-337.1516 537,-337.1516 537,-316.1516 504,-316.1516"/>
<text text-anchor="start" x="508.5" y="-322.9516" font-family="Times,serif" font-size="14.00" fill="#000000">type</text>
<polygon fill="#e0ffe0" stroke="transparent" points="537,-316.1516 537,-337.1516 573,-337.1516 573,-316.1516 537,-316.1516"/>
<polygon fill="none" stroke="#000000" points="537,-316.1516 537,-337.1516 573,-337.1516 573,-316.1516 537,-316.1516"/>
<text text-anchor="start" x="549.5" y="-322.9516" font-family="Times,serif" font-size="14.00" fill="#000000">id</text>
<polygon fill="none" stroke="#000000" points="451,-295.1516 451,-316.1516 476,-316.1516 476,-295.1516 451,-295.1516"/>
<text text-anchor="start" x="460" y="-301.9516" font-family="Times,serif" font-size="14.00" fill="#000000">0</text>
<polygon fill="none" stroke="#000000" points="476,-295.1516 476,-316.1516 504,-316.1516 504,-295.1516 476,-295.1516"/>
<text text-anchor="start" x="486.5" y="-301.9516" font-family="Times,serif" font-size="14.00" fill="#000000">4</text>
<polygon fill="none" stroke="#000000" points="504,-295.1516 504,-316.1516 537,-316.1516 537,-295.1516 504,-295.1516"/>
<text text-anchor="start" x="507" y="-301.9516" font-family="Times,serif" font-size="14.00" fill="#000000">u4be</text>
<polygon fill="none" stroke="#000000" points="537,-295.1516 537,-316.1516 573,-316.1516 573,-295.1516 537,-295.1516"/>
<text text-anchor="start" x="540" y="-301.9516" font-family="Times,serif" font-size="14.00" fill="#000000">value</text>
</g>
<!-- message_id__inst__value&#45;&gt;some_ip__seq -->
<g id="edge4" class="edge">
<title>message_id__inst__value:value_type&#45;&gt;some_ip__seq:payload_type</title>
<path fill="none" stroke="#404040" d="M573,-305.1516C616.5329,-305.1516 634.6965,-314.7278 660,-350.1516 709.3579,-419.2505 623.9942,-483.3473 688,-539.1516 695.523,-545.7107 1359.1753,-537.6854 1448.5787,-545.2552"/>
<polygon fill="#404040" stroke="#404040" points="1448.0207,-548.7119 1458.5,-547.1516 1449.335,-541.8363 1448.0207,-548.7119"/>
</g>
<!-- message_id__inst__value&#45;&gt;header__inst__is_valid_service_discovery -->
<g id="edge7" class="edge">
<title>message_id__inst__value:value_type&#45;&gt;header__inst__is_valid_service_discovery</title>
<path fill="none" stroke="#404040" d="M573,-305.1516C613.3564,-305.1516 633.5324,-309.6165 660,-279.1516 714.5393,-216.3756 626.1807,-149.7729 688,-94.1516 841.3731,43.8443 1107.1907,-.952 1245.7115,-37.4913"/>
<polygon fill="#404040" stroke="#404040" points="1244.8964,-40.8964 1255.4617,-40.1053 1246.7091,-34.1351 1244.8964,-40.8964"/>
</g>
<!-- request_id__inst__value -->
<g id="node8" class="node">
<title>request_id__inst__value</title>
<polygon fill="#e0ffe0" stroke="transparent" points="451,-129.1516 451,-150.1516 476,-150.1516 476,-129.1516 451,-129.1516"/>
<polygon fill="none" stroke="#000000" points="451,-129.1516 451,-150.1516 476,-150.1516 476,-129.1516 451,-129.1516"/>
<text text-anchor="start" x="454" y="-135.9516" font-family="Times,serif" font-size="14.00" fill="#000000">pos</text>
<polygon fill="#e0ffe0" stroke="transparent" points="476,-129.1516 476,-150.1516 504,-150.1516 504,-129.1516 476,-129.1516"/>
<polygon fill="none" stroke="#000000" points="476,-129.1516 476,-150.1516 504,-150.1516 504,-129.1516 476,-129.1516"/>
<text text-anchor="start" x="479" y="-135.9516" font-family="Times,serif" font-size="14.00" fill="#000000">size</text>
<polygon fill="#e0ffe0" stroke="transparent" points="504,-129.1516 504,-150.1516 537,-150.1516 537,-129.1516 504,-129.1516"/>
<polygon fill="none" stroke="#000000" points="504,-129.1516 504,-150.1516 537,-150.1516 537,-129.1516 504,-129.1516"/>
<text text-anchor="start" x="508.5" y="-135.9516" font-family="Times,serif" font-size="14.00" fill="#000000">type</text>
<polygon fill="#e0ffe0" stroke="transparent" points="537,-129.1516 537,-150.1516 573,-150.1516 573,-129.1516 537,-129.1516"/>
<polygon fill="none" stroke="#000000" points="537,-129.1516 537,-150.1516 573,-150.1516 573,-129.1516 537,-129.1516"/>
<text text-anchor="start" x="549.5" y="-135.9516" font-family="Times,serif" font-size="14.00" fill="#000000">id</text>
<polygon fill="none" stroke="#000000" points="451,-108.1516 451,-129.1516 476,-129.1516 476,-108.1516 451,-108.1516"/>
<text text-anchor="start" x="460" y="-114.9516" font-family="Times,serif" font-size="14.00" fill="#000000">0</text>
<polygon fill="none" stroke="#000000" points="476,-108.1516 476,-129.1516 504,-129.1516 504,-108.1516 476,-108.1516"/>
<text text-anchor="start" x="486.5" y="-114.9516" font-family="Times,serif" font-size="14.00" fill="#000000">4</text>
<polygon fill="none" stroke="#000000" points="504,-108.1516 504,-129.1516 537,-129.1516 537,-108.1516 504,-108.1516"/>
<text text-anchor="start" x="507" y="-114.9516" font-family="Times,serif" font-size="14.00" fill="#000000">u4be</text>
<polygon fill="none" stroke="#000000" points="537,-108.1516 537,-129.1516 573,-129.1516 573,-108.1516 537,-108.1516"/>
<text text-anchor="start" x="540" y="-114.9516" font-family="Times,serif" font-size="14.00" fill="#000000">value</text>
</g>
</g>
</svg>
