<?xml version="1.0" encoding="UTF-8" standalone="no"?>
<!DOCTYPE svg PUBLIC "-//W3C//DTD SVG 1.1//EN"
 "http://www.w3.org/Graphics/SVG/1.1/DTD/svg11.dtd">
<!-- Generated by graphviz version 2.40.1 (20161225.0304)
 -->
<!-- Title: %3 Pages: 1 -->
<svg width="2910pt" height="686pt"
 viewBox="0.00 0.00 2910.00 685.66" xmlns="http://www.w3.org/2000/svg" xmlns:xlink="http://www.w3.org/1999/xlink">
<g id="graph0" class="graph" transform="scale(1 1) rotate(0) translate(4 681.6592)">
<title>%3</title>
<polygon fill="#ffffff" stroke="transparent" points="-4,4 -4,-681.6592 2906,-681.6592 2906,4 -4,4"/>
<g id="clust1" class="cluster">
<title>cluster__some_ip</title>
<polygon fill="none" stroke="#000000" stroke-dasharray="1,5" points="8,-31.6592 8,-669.6592 2735,-669.6592 2735,-31.6592 8,-31.6592"/>
<text text-anchor="middle" x="1371.5" y="-654.4592" font-family="Times,serif" font-size="14.00" fill="#000000">SomeIp</text>
</g>
<g id="clust2" class="cluster">
<title>cluster__header</title>
<polygon fill="none" stroke="#000000" stroke-dasharray="1,5" points="16,-39.6592 16,-558.6592 2506,-558.6592 2506,-39.6592 16,-39.6592"/>
<text text-anchor="middle" x="1261" y="-543.4592" font-family="Times,serif" font-size="14.00" fill="#000000">SomeIp::Header</text>
</g>
<g id="clust3" class="cluster">
<title>cluster__message_id</title>
<polygon fill="none" stroke="#000000" stroke-dasharray="1,5" points="441,-306.6592 441,-527.6592 805,-527.6592 805,-306.6592 441,-306.6592"/>
<text text-anchor="middle" x="623" y="-512.4592" font-family="Times,serif" font-size="14.00" fill="#000000">SomeIp::Header::MessageId</text>
</g>
<g id="clust4" class="cluster">
<title>cluster__request_id</title>
<polygon fill="none" stroke="#000000" stroke-dasharray="1,5" points="513.5,-119.6592 513.5,-298.6592 732.5,-298.6592 732.5,-119.6592 513.5,-119.6592"/>
<text text-anchor="middle" x="623" y="-283.4592" font-family="Times,serif" font-size="14.00" fill="#000000">SomeIp::Header::RequestId</text>
</g>
<!-- some_ip__seq -->
<g id="node1" class="node">
<title>some_ip__seq</title>
<polygon fill="#e0ffe0" stroke="transparent" points="1478.5,-612.6592 1478.5,-633.6592 1509.5,-633.6592 1509.5,-612.6592 1478.5,-612.6592"/>
<polygon fill="none" stroke="#000000" points="1478.5,-612.6592 1478.5,-633.6592 1509.5,-633.6592 1509.5,-612.6592 1478.5,-612.6592"/>
<text text-anchor="start" x="1481.5" y="-619.4592" font-family="Times,serif" font-size="14.00" fill="#000000">pos</text>
<polygon fill="#e0ffe0" stroke="transparent" points="1509.5,-612.6592 1509.5,-633.6592 1543.5,-633.6592 1543.5,-612.6592 1509.5,-612.6592"/>
<polygon fill="none" stroke="#000000" points="1509.5,-612.6592 1509.5,-633.6592 1543.5,-633.6592 1543.5,-612.6592 1509.5,-612.6592"/>
<text text-anchor="start" x="1512.5" y="-619.4592" font-family="Times,serif" font-size="14.00" fill="#000000">size</text>
<polygon fill="#e0ffe0" stroke="transparent" points="1543.5,-612.6592 1543.5,-633.6592 1790.5,-633.6592 1790.5,-612.6592 1543.5,-612.6592"/>
<polygon fill="none" stroke="#000000" points="1543.5,-612.6592 1543.5,-633.6592 1790.5,-633.6592 1790.5,-612.6592 1543.5,-612.6592"/>
<text text-anchor="start" x="1651" y="-619.4592" font-family="Times,serif" font-size="14.00" fill="#000000">type</text>
<polygon fill="#e0ffe0" stroke="transparent" points="1790.5,-612.6592 1790.5,-633.6592 1852.5,-633.6592 1852.5,-612.6592 1790.5,-612.6592"/>
<polygon fill="none" stroke="#000000" points="1790.5,-612.6592 1790.5,-633.6592 1852.5,-633.6592 1852.5,-612.6592 1790.5,-612.6592"/>
<text text-anchor="start" x="1814.5" y="-619.4592" font-family="Times,serif" font-size="14.00" fill="#000000">id</text>
<polygon fill="none" stroke="#000000" points="1478.5,-591.6592 1478.5,-612.6592 1509.5,-612.6592 1509.5,-591.6592 1478.5,-591.6592"/>
<text text-anchor="start" x="1489" y="-598.4592" font-family="Times,serif" font-size="14.00" fill="#000000">0</text>
<polygon fill="none" stroke="#000000" points="1509.5,-591.6592 1509.5,-612.6592 1543.5,-612.6592 1543.5,-591.6592 1509.5,-591.6592"/>
<text text-anchor="start" x="1517" y="-598.4592" font-family="Times,serif" font-size="14.00" fill="#000000">16</text>
<polygon fill="none" stroke="#000000" points="1543.5,-591.6592 1543.5,-612.6592 1790.5,-612.6592 1790.5,-591.6592 1543.5,-591.6592"/>
<text text-anchor="start" x="1640" y="-598.4592" font-family="Times,serif" font-size="14.00" fill="#000000">Header</text>
<polygon fill="none" stroke="#000000" points="1790.5,-591.6592 1790.5,-612.6592 1852.5,-612.6592 1852.5,-591.6592 1790.5,-591.6592"/>
<text text-anchor="start" x="1796.5" y="-598.4592" font-family="Times,serif" font-size="14.00" fill="#000000">header</text>
<polygon fill="none" stroke="#000000" points="1478.5,-570.6592 1478.5,-591.6592 1509.5,-591.6592 1509.5,-570.6592 1478.5,-570.6592"/>
<text text-anchor="start" x="1484.5" y="-577.4592" font-family="Times,serif" font-size="14.00" fill="#000000">16</text>
<polygon fill="none" stroke="#000000" points="1509.5,-570.6592 1509.5,-591.6592 1543.5,-591.6592 1543.5,-570.6592 1509.5,-570.6592"/>
<text text-anchor="start" x="1519.5" y="-577.4592" font-family="Times,serif" font-size="14.00" fill="#000000">...</text>
<polygon fill="none" stroke="#000000" points="1543.5,-570.6592 1543.5,-591.6592 1790.5,-591.6592 1790.5,-570.6592 1543.5,-570.6592"/>
<text text-anchor="start" x="1546.5" y="-577.4592" font-family="Times,serif" font-size="14.00" fill="#000000">switch (header.message_id.value)</text>
<polygon fill="none" stroke="#000000" points="1790.5,-570.6592 1790.5,-591.6592 1852.5,-591.6592 1852.5,-570.6592 1790.5,-570.6592"/>
<text text-anchor="start" x="1793.5" y="-577.4592" font-family="Times,serif" font-size="14.00" fill="#000000">payload</text>
</g>
<!-- some_ip__seq_payload_switch -->
<g id="node2" class="node">
<title>some_ip__seq_payload_switch</title>
<polygon fill="#f0f2e4" stroke="transparent" points="2542.5,-580.6592 2542.5,-601.6592 2639.5,-601.6592 2639.5,-580.6592 2542.5,-580.6592"/>
<polygon fill="none" stroke="#000000" points="2542.5,-580.6592 2542.5,-601.6592 2639.5,-601.6592 2639.5,-580.6592 2542.5,-580.6592"/>
<text text-anchor="start" x="2574.5" y="-587.4592" font-family="Times,serif" font-size="14.00" fill="#000000">case</text>
<polygon fill="#f0f2e4" stroke="transparent" points="2639.5,-580.6592 2639.5,-601.6592 2719.5,-601.6592 2719.5,-580.6592 2639.5,-580.6592"/>
<polygon fill="none" stroke="#000000" points="2639.5,-580.6592 2639.5,-601.6592 2719.5,-601.6592 2719.5,-580.6592 2639.5,-580.6592"/>
<text text-anchor="start" x="2663.5" y="-587.4592" font-family="Times,serif" font-size="14.00" fill="#000000">type</text>
<polygon fill="none" stroke="#000000" points="2542.5,-559.6592 2542.5,-580.6592 2639.5,-580.6592 2639.5,-559.6592 2542.5,-559.6592"/>
<text text-anchor="start" x="2545.5" y="-566.4592" font-family="Times,serif" font-size="14.00" fill="#000000">4294934784</text>
<polygon fill="none" stroke="#000000" points="2639.5,-559.6592 2639.5,-580.6592 2719.5,-580.6592 2719.5,-559.6592 2639.5,-559.6592"/>
<text text-anchor="start" x="2642.5" y="-566.4592" font-family="Times,serif" font-size="14.00" fill="#000000">SomeIpSd</text>
</g>
<!-- some_ip__seq&#45;&gt;some_ip__seq_payload_switch -->
<g id="edge2" class="edge">
<title>some_ip__seq:payload_type&#45;&gt;some_ip__seq_payload_switch</title>
<path fill="none" stroke="#000000" stroke-width="2" d="M1852.5,-580.6592C2092.3098,-580.6592 2373.6988,-580.6592 2523.6465,-580.6592"/>
<polygon fill="#000000" stroke="#000000" stroke-width="2" points="2523.7723,-584.1593 2533.7723,-580.6592 2523.7722,-577.1593 2523.7723,-584.1593"/>
</g>
<!-- header__seq -->
<g id="node3" class="node">
<title>header__seq</title>
<polygon fill="#e0ffe0" stroke="transparent" points="32.5,-198.6592 32.5,-219.6592 63.5,-219.6592 63.5,-198.6592 32.5,-198.6592"/>
<polygon fill="none" stroke="#000000" points="32.5,-198.6592 32.5,-219.6592 63.5,-219.6592 63.5,-198.6592 32.5,-198.6592"/>
<text text-anchor="start" x="35.5" y="-205.4592" font-family="Times,serif" font-size="14.00" fill="#000000">pos</text>
<polygon fill="#e0ffe0" stroke="transparent" points="63.5,-198.6592 63.5,-219.6592 97.5,-219.6592 97.5,-198.6592 63.5,-198.6592"/>
<polygon fill="none" stroke="#000000" points="63.5,-198.6592 63.5,-219.6592 97.5,-219.6592 97.5,-198.6592 63.5,-198.6592"/>
<text text-anchor="start" x="66.5" y="-205.4592" font-family="Times,serif" font-size="14.00" fill="#000000">size</text>
<polygon fill="#e0ffe0" stroke="transparent" points="97.5,-198.6592 97.5,-219.6592 274.5,-219.6592 274.5,-198.6592 97.5,-198.6592"/>
<polygon fill="none" stroke="#000000" points="97.5,-198.6592 97.5,-219.6592 274.5,-219.6592 274.5,-198.6592 97.5,-198.6592"/>
<text text-anchor="start" x="170" y="-205.4592" font-family="Times,serif" font-size="14.00" fill="#000000">type</text>
<polygon fill="#e0ffe0" stroke="transparent" points="274.5,-198.6592 274.5,-219.6592 405.5,-219.6592 405.5,-198.6592 274.5,-198.6592"/>
<polygon fill="none" stroke="#000000" points="274.5,-198.6592 274.5,-219.6592 405.5,-219.6592 405.5,-198.6592 274.5,-198.6592"/>
<text text-anchor="start" x="333" y="-205.4592" font-family="Times,serif" font-size="14.00" fill="#000000">id</text>
<polygon fill="none" stroke="#000000" points="32.5,-177.6592 32.5,-198.6592 63.5,-198.6592 63.5,-177.6592 32.5,-177.6592"/>
<text text-anchor="start" x="43" y="-184.4592" font-family="Times,serif" font-size="14.00" fill="#000000">0</text>
<polygon fill="none" stroke="#000000" points="63.5,-177.6592 63.5,-198.6592 97.5,-198.6592 97.5,-177.6592 63.5,-177.6592"/>
<text text-anchor="start" x="75.5" y="-184.4592" font-family="Times,serif" font-size="14.00" fill="#000000">4</text>
<polygon fill="none" stroke="#000000" points="97.5,-177.6592 97.5,-198.6592 274.5,-198.6592 274.5,-177.6592 97.5,-177.6592"/>
<text text-anchor="start" x="146.5" y="-184.4592" font-family="Times,serif" font-size="14.00" fill="#000000">MessageId</text>
<polygon fill="none" stroke="#000000" points="274.5,-177.6592 274.5,-198.6592 405.5,-198.6592 405.5,-177.6592 274.5,-177.6592"/>
<text text-anchor="start" x="298" y="-184.4592" font-family="Times,serif" font-size="14.00" fill="#000000">message_id</text>
<polygon fill="none" stroke="#000000" points="32.5,-156.6592 32.5,-177.6592 63.5,-177.6592 63.5,-156.6592 32.5,-156.6592"/>
<text text-anchor="start" x="43" y="-163.4592" font-family="Times,serif" font-size="14.00" fill="#000000">4</text>
<polygon fill="none" stroke="#000000" points="63.5,-156.6592 63.5,-177.6592 97.5,-177.6592 97.5,-156.6592 63.5,-156.6592"/>
<text text-anchor="start" x="75.5" y="-163.4592" font-family="Times,serif" font-size="14.00" fill="#000000">4</text>
<polygon fill="none" stroke="#000000" points="97.5,-156.6592 97.5,-177.6592 274.5,-177.6592 274.5,-156.6592 97.5,-156.6592"/>
<text text-anchor="start" x="168" y="-163.4592" font-family="Times,serif" font-size="14.00" fill="#000000">u4be</text>
<polygon fill="none" stroke="#000000" points="274.5,-156.6592 274.5,-177.6592 405.5,-177.6592 405.5,-156.6592 274.5,-156.6592"/>
<text text-anchor="start" x="317" y="-163.4592" font-family="Times,serif" font-size="14.00" fill="#000000">length</text>
<polygon fill="none" stroke="#000000" points="32.5,-135.6592 32.5,-156.6592 63.5,-156.6592 63.5,-135.6592 32.5,-135.6592"/>
<text text-anchor="start" x="43" y="-142.4592" font-family="Times,serif" font-size="14.00" fill="#000000">8</text>
<polygon fill="none" stroke="#000000" points="63.5,-135.6592 63.5,-156.6592 97.5,-156.6592 97.5,-135.6592 63.5,-135.6592"/>
<text text-anchor="start" x="75.5" y="-142.4592" font-family="Times,serif" font-size="14.00" fill="#000000">4</text>
<polygon fill="none" stroke="#000000" points="97.5,-135.6592 97.5,-156.6592 274.5,-156.6592 274.5,-135.6592 97.5,-135.6592"/>
<text text-anchor="start" x="149" y="-142.4592" font-family="Times,serif" font-size="14.00" fill="#000000">RequestId</text>
<polygon fill="none" stroke="#000000" points="274.5,-135.6592 274.5,-156.6592 405.5,-156.6592 405.5,-135.6592 274.5,-135.6592"/>
<text text-anchor="start" x="302" y="-142.4592" font-family="Times,serif" font-size="14.00" fill="#000000">request_id</text>
<polygon fill="none" stroke="#000000" points="32.5,-114.6592 32.5,-135.6592 63.5,-135.6592 63.5,-114.6592 32.5,-114.6592"/>
<text text-anchor="start" x="38.5" y="-121.4592" font-family="Times,serif" font-size="14.00" fill="#000000">12</text>
<polygon fill="none" stroke="#000000" points="63.5,-114.6592 63.5,-135.6592 97.5,-135.6592 97.5,-114.6592 63.5,-114.6592"/>
<text text-anchor="start" x="75.5" y="-121.4592" font-family="Times,serif" font-size="14.00" fill="#000000">1</text>
<polygon fill="none" stroke="#000000" points="97.5,-114.6592 97.5,-135.6592 274.5,-135.6592 274.5,-114.6592 97.5,-114.6592"/>
<text text-anchor="start" x="176.5" y="-121.4592" font-family="Times,serif" font-size="14.00" fill="#000000">u1</text>
<polygon fill="none" stroke="#000000" points="274.5,-114.6592 274.5,-135.6592 405.5,-135.6592 405.5,-114.6592 274.5,-114.6592"/>
<text text-anchor="start" x="280" y="-121.4592" font-family="Times,serif" font-size="14.00" fill="#000000">protocol_version</text>
<polygon fill="none" stroke="#000000" points="32.5,-93.6592 32.5,-114.6592 63.5,-114.6592 63.5,-93.6592 32.5,-93.6592"/>
<text text-anchor="start" x="38.5" y="-100.4592" font-family="Times,serif" font-size="14.00" fill="#000000">13</text>
<polygon fill="none" stroke="#000000" points="63.5,-93.6592 63.5,-114.6592 97.5,-114.6592 97.5,-93.6592 63.5,-93.6592"/>
<text text-anchor="start" x="75.5" y="-100.4592" font-family="Times,serif" font-size="14.00" fill="#000000">1</text>
<polygon fill="none" stroke="#000000" points="97.5,-93.6592 97.5,-114.6592 274.5,-114.6592 274.5,-93.6592 97.5,-93.6592"/>
<text text-anchor="start" x="176.5" y="-100.4592" font-family="Times,serif" font-size="14.00" fill="#000000">u1</text>
<polygon fill="none" stroke="#000000" points="274.5,-93.6592 274.5,-114.6592 405.5,-114.6592 405.5,-93.6592 274.5,-93.6592"/>
<text text-anchor="start" x="277.5" y="-100.4592" font-family="Times,serif" font-size="14.00" fill="#000000">interface_version</text>
<polygon fill="none" stroke="#000000" points="32.5,-72.6592 32.5,-93.6592 63.5,-93.6592 63.5,-72.6592 32.5,-72.6592"/>
<text text-anchor="start" x="38.5" y="-79.4592" font-family="Times,serif" font-size="14.00" fill="#000000">14</text>
<polygon fill="none" stroke="#000000" points="63.5,-72.6592 63.5,-93.6592 97.5,-93.6592 97.5,-72.6592 63.5,-72.6592"/>
<text text-anchor="start" x="75.5" y="-79.4592" font-family="Times,serif" font-size="14.00" fill="#000000">1</text>
<polygon fill="none" stroke="#000000" points="97.5,-72.6592 97.5,-93.6592 274.5,-93.6592 274.5,-72.6592 97.5,-72.6592"/>
<text text-anchor="start" x="100.5" y="-79.4592" font-family="Times,serif" font-size="14.00" fill="#000000">u1→MessageTypeEnum</text>
<polygon fill="none" stroke="#000000" points="274.5,-72.6592 274.5,-93.6592 405.5,-93.6592 405.5,-72.6592 274.5,-72.6592"/>
<text text-anchor="start" x="289" y="-79.4592" font-family="Times,serif" font-size="14.00" fill="#000000">message_type</text>
<polygon fill="none" stroke="#000000" points="32.5,-51.6592 32.5,-72.6592 63.5,-72.6592 63.5,-51.6592 32.5,-51.6592"/>
<text text-anchor="start" x="38.5" y="-58.4592" font-family="Times,serif" font-size="14.00" fill="#000000">15</text>
<polygon fill="none" stroke="#000000" points="63.5,-51.6592 63.5,-72.6592 97.5,-72.6592 97.5,-51.6592 63.5,-51.6592"/>
<text text-anchor="start" x="75.5" y="-58.4592" font-family="Times,serif" font-size="14.00" fill="#000000">1</text>
<polygon fill="none" stroke="#000000" points="97.5,-51.6592 97.5,-72.6592 274.5,-72.6592 274.5,-51.6592 97.5,-51.6592"/>
<text text-anchor="start" x="106.5" y="-58.4592" font-family="Times,serif" font-size="14.00" fill="#000000">u1→ReturnCodeEnum</text>
<polygon fill="none" stroke="#000000" points="274.5,-51.6592 274.5,-72.6592 405.5,-72.6592 405.5,-51.6592 274.5,-51.6592"/>
<text text-anchor="start" x="296" y="-58.4592" font-family="Times,serif" font-size="14.00" fill="#000000">return_code</text>
</g>
<!-- some_ip__seq&#45;&gt;header__seq -->
<g id="edge1" class="edge">
<title>some_ip__seq:header_type&#45;&gt;header__seq</title>
<path fill="none" stroke="#000000" stroke-width="2" d="M1852.5,-601.6592C1867.8333,-601.6592 1863.3183,-578.0254 1852.5,-567.1592 1847.5048,-562.1419 840.0738,-562.9541 833,-562.6592 658.3855,-555.3795 588.2393,-625.807 441,-531.6592 335.2845,-464.0625 275.0262,-327.5079 244.5581,-233.833"/>
<polygon fill="#000000" stroke="#000000" stroke-width="2" points="247.8113,-232.5148 241.4346,-224.0538 241.1432,-234.6446 247.8113,-232.5148"/>
</g>
<!-- some_ip_sd__seq -->
<g id="node9" class="node">
<title>some_ip_sd__seq</title>
<text text-anchor="middle" x="2832.5" y="-565.9592" font-family="Times,serif" font-size="14.00" fill="#000000">some_ip_sd__seq</text>
</g>
<!-- some_ip__seq_payload_switch&#45;&gt;some_ip_sd__seq -->
<g id="edge3" class="edge">
<title>some_ip__seq_payload_switch:case0&#45;&gt;some_ip_sd__seq</title>
<path fill="none" stroke="#000000" stroke-width="2" d="M2719.5,-569.6592C2730.2394,-569.6592 2741.5528,-569.6592 2752.7038,-569.6592"/>
<polygon fill="#000000" stroke="#000000" stroke-width="2" points="2752.8777,-573.1593 2762.8777,-569.6592 2752.8777,-566.1593 2752.8777,-573.1593"/>
</g>
<!-- header__inst__is_valid_service_discovery -->
<g id="node4" class="node">
<title>header__inst__is_valid_service_discovery</title>
<polygon fill="#e0ffe0" stroke="transparent" points="841.5,-88.6592 841.5,-109.6592 1037.5,-109.6592 1037.5,-88.6592 841.5,-88.6592"/>
<polygon fill="none" stroke="#000000" points="841.5,-88.6592 841.5,-109.6592 1037.5,-109.6592 1037.5,-88.6592 841.5,-88.6592"/>
<text text-anchor="start" x="932.5" y="-95.4592" font-family="Times,serif" font-size="14.00" fill="#000000">id</text>
<polygon fill="#e0ffe0" stroke="transparent" points="1037.5,-88.6592 1037.5,-109.6592 2490.5,-109.6592 2490.5,-88.6592 1037.5,-88.6592"/>
<polygon fill="none" stroke="#000000" points="1037.5,-88.6592 1037.5,-109.6592 2490.5,-109.6592 2490.5,-88.6592 1037.5,-88.6592"/>
<text text-anchor="start" x="1744.5" y="-95.4592" font-family="Times,serif" font-size="14.00" fill="#000000">value</text>
<polygon fill="none" stroke="#000000" points="841.5,-67.6592 841.5,-88.6592 1037.5,-88.6592 1037.5,-67.6592 841.5,-67.6592"/>
<text text-anchor="start" x="844.5" y="-74.4592" font-family="Times,serif" font-size="14.00" fill="#000000">is_valid_service_discovery</text>
<polygon fill="none" stroke="#000000" points="1037.5,-67.6592 1037.5,-88.6592 2490.5,-88.6592 2490.5,-67.6592 1037.5,-67.6592"/>
<text text-anchor="start" x="1040.5" y="-74.4592" font-family="Times,serif" font-size="14.00" fill="#000000"> ((message_id.value == 4294934784) &amp;&amp; (protocol_version == 1) &amp;&amp; (interface_version == 1) &amp;&amp; (message_type == :message_type_enum_notification) &amp;&amp; (return_code == :return_code_enum_ok)) </text>
</g>
<!-- header__seq&#45;&gt;header__inst__is_valid_service_discovery -->
<g id="edge8" class="edge">
<title>header__seq:protocol_version_type&#45;&gt;header__inst__is_valid_service_discovery</title>
<path fill="none" stroke="#404040" d="M405.5,-124.6592C421.7769,-124.6592 424.8715,-117.8526 441,-115.6592 521.6164,-104.6956 663.4485,-97.8739 822.6962,-93.6976"/>
<polygon fill="#404040" stroke="#404040" points="822.815,-97.1958 832.7213,-93.4387 822.6343,-90.1981 822.815,-97.1958"/>
</g>
<!-- header__seq&#45;&gt;header__inst__is_valid_service_discovery -->
<g id="edge9" class="edge">
<title>header__seq:interface_version_type&#45;&gt;header__inst__is_valid_service_discovery</title>
<path fill="none" stroke="#404040" d="M405.5,-103.6592C421.8918,-103.6592 424.767,-95.9357 441,-93.6592 521.5512,-82.3629 663.357,-77.3731 822.6,-75.929"/>
<polygon fill="#404040" stroke="#404040" points="822.6553,-79.4287 832.6249,-75.8429 822.5952,-72.429 822.6553,-79.4287"/>
</g>
<!-- header__seq&#45;&gt;header__inst__is_valid_service_discovery -->
<g id="edge10" class="edge">
<title>header__seq:message_type_type&#45;&gt;header__inst__is_valid_service_discovery</title>
<path fill="none" stroke="#404040" d="M405.5,-82.6592C421.7769,-82.6592 424.8483,-75.6747 441,-73.6592 601.5327,-53.6268 643.2284,-72.2493 805,-73.6592 810.9224,-73.7108 816.8677,-73.7644 822.8337,-73.8199"/>
<polygon fill="#404040" stroke="#404040" points="822.8607,-77.3203 832.8934,-73.9152 822.9271,-70.3206 822.8607,-77.3203"/>
</g>
<!-- header__seq&#45;&gt;header__inst__is_valid_service_discovery -->
<g id="edge11" class="edge">
<title>header__seq:return_code_type&#45;&gt;header__inst__is_valid_service_discovery</title>
<path fill="none" stroke="#404040" d="M405.5,-61.6592C421.284,-61.6592 425.2175,-60.8814 441,-60.6592 602.7617,-58.3813 643.2436,-58.0282 805,-60.6592 849.6423,-61.3853 895.5822,-62.3232 941.9091,-63.4135"/>
<polygon fill="#404040" stroke="#404040" points="942.0323,-66.9174 952.1127,-63.656 942.1987,-59.9193 942.0323,-66.9174"/>
</g>
<!-- message_id__seq -->
<g id="node5" class="node">
<title>message_id__seq</title>
<polygon fill="#e0ffe0" stroke="transparent" points="457,-470.6592 457,-491.6592 488,-491.6592 488,-470.6592 457,-470.6592"/>
<polygon fill="none" stroke="#000000" points="457,-470.6592 457,-491.6592 488,-491.6592 488,-470.6592 457,-470.6592"/>
<text text-anchor="start" x="460" y="-477.4592" font-family="Times,serif" font-size="14.00" fill="#000000">pos</text>
<polygon fill="#e0ffe0" stroke="transparent" points="488,-470.6592 488,-491.6592 522,-491.6592 522,-470.6592 488,-470.6592"/>
<polygon fill="none" stroke="#000000" points="488,-470.6592 488,-491.6592 522,-491.6592 522,-470.6592 488,-470.6592"/>
<text text-anchor="start" x="491" y="-477.4592" font-family="Times,serif" font-size="14.00" fill="#000000">size</text>
<polygon fill="#e0ffe0" stroke="transparent" points="522,-470.6592 522,-491.6592 707,-491.6592 707,-470.6592 522,-470.6592"/>
<polygon fill="none" stroke="#000000" points="522,-470.6592 522,-491.6592 707,-491.6592 707,-470.6592 522,-470.6592"/>
<text text-anchor="start" x="598.5" y="-477.4592" font-family="Times,serif" font-size="14.00" fill="#000000">type</text>
<polygon fill="#e0ffe0" stroke="transparent" points="707,-470.6592 707,-491.6592 789,-491.6592 789,-470.6592 707,-470.6592"/>
<polygon fill="none" stroke="#000000" points="707,-470.6592 707,-491.6592 789,-491.6592 789,-470.6592 707,-470.6592"/>
<text text-anchor="start" x="741" y="-477.4592" font-family="Times,serif" font-size="14.00" fill="#000000">id</text>
<polygon fill="none" stroke="#000000" points="457,-449.6592 457,-470.6592 488,-470.6592 488,-449.6592 457,-449.6592"/>
<text text-anchor="start" x="467.5" y="-456.4592" font-family="Times,serif" font-size="14.00" fill="#000000">0</text>
<polygon fill="none" stroke="#000000" points="488,-449.6592 488,-470.6592 522,-470.6592 522,-449.6592 488,-449.6592"/>
<text text-anchor="start" x="500" y="-456.4592" font-family="Times,serif" font-size="14.00" fill="#000000">2</text>
<polygon fill="none" stroke="#000000" points="522,-449.6592 522,-470.6592 707,-470.6592 707,-449.6592 522,-449.6592"/>
<text text-anchor="start" x="596.5" y="-456.4592" font-family="Times,serif" font-size="14.00" fill="#000000">u2be</text>
<polygon fill="none" stroke="#000000" points="707,-449.6592 707,-470.6592 789,-470.6592 789,-449.6592 707,-449.6592"/>
<text text-anchor="start" x="711.5" y="-456.4592" font-family="Times,serif" font-size="14.00" fill="#000000">service_id</text>
<polygon fill="none" stroke="#000000" points="457,-428.6592 457,-449.6592 488,-449.6592 488,-428.6592 457,-428.6592"/>
<text text-anchor="start" x="467.5" y="-435.4592" font-family="Times,serif" font-size="14.00" fill="#000000">2</text>
<polygon fill="none" stroke="#000000" points="488,-428.6592 488,-449.6592 522,-449.6592 522,-428.6592 488,-428.6592"/>
<text text-anchor="start" x="495.5" y="-435.4592" font-family="Times,serif" font-size="14.00" fill="#000000">1b</text>
<polygon fill="none" stroke="#000000" points="522,-428.6592 522,-449.6592 707,-449.6592 707,-428.6592 522,-428.6592"/>
<text text-anchor="start" x="525" y="-435.4592" font-family="Times,serif" font-size="14.00" fill="#000000">BitsType1(BigBitEndian)</text>
<polygon fill="none" stroke="#000000" points="707,-428.6592 707,-449.6592 789,-449.6592 789,-428.6592 707,-428.6592"/>
<text text-anchor="start" x="724.5" y="-435.4592" font-family="Times,serif" font-size="14.00" fill="#000000">sub_id</text>
<polygon fill="none" stroke="#000000" points="457,-407.6592 457,-428.6592 488,-428.6592 488,-407.6592 457,-407.6592"/>
<text text-anchor="start" x="461" y="-414.4592" font-family="Times,serif" font-size="14.00" fill="#000000">2:1</text>
<polygon fill="none" stroke="#000000" points="488,-407.6592 488,-428.6592 522,-428.6592 522,-407.6592 488,-407.6592"/>
<text text-anchor="start" x="491" y="-414.4592" font-family="Times,serif" font-size="14.00" fill="#000000">15b</text>
<polygon fill="none" stroke="#000000" points="522,-407.6592 522,-428.6592 707,-428.6592 707,-407.6592 522,-407.6592"/>
<text text-anchor="start" x="600.5" y="-414.4592" font-family="Times,serif" font-size="14.00" fill="#000000">b15</text>
<polygon fill="none" stroke="#000000" points="707,-407.6592 707,-428.6592 789,-428.6592 789,-407.6592 707,-407.6592"/>
<text text-anchor="start" x="710" y="-414.4592" font-family="Times,serif" font-size="14.00" fill="#000000">method_id</text>
<polygon fill="none" stroke="#000000" points="457,-386.6592 457,-407.6592 488,-407.6592 488,-386.6592 457,-386.6592"/>
<text text-anchor="start" x="467.5" y="-393.4592" font-family="Times,serif" font-size="14.00" fill="#000000">4</text>
<polygon fill="none" stroke="#000000" points="488,-386.6592 488,-407.6592 522,-407.6592 522,-386.6592 488,-386.6592"/>
<text text-anchor="start" x="491" y="-393.4592" font-family="Times,serif" font-size="14.00" fill="#000000">15b</text>
<polygon fill="none" stroke="#000000" points="522,-386.6592 522,-407.6592 707,-407.6592 707,-386.6592 522,-386.6592"/>
<text text-anchor="start" x="600.5" y="-393.4592" font-family="Times,serif" font-size="14.00" fill="#000000">b15</text>
<polygon fill="none" stroke="#000000" points="707,-386.6592 707,-407.6592 789,-407.6592 789,-386.6592 707,-386.6592"/>
<text text-anchor="start" x="717.5" y="-393.4592" font-family="Times,serif" font-size="14.00" fill="#000000">event_id</text>
</g>
<!-- header__seq&#45;&gt;message_id__seq -->
<g id="edge5" class="edge">
<title>header__seq:message_id_type&#45;&gt;message_id__seq</title>
<path fill="none" stroke="#000000" stroke-width="2" d="M405.5,-188.6592C489.2224,-188.6592 386.6656,-309.963 441,-373.6592 441.6203,-374.3864 442.2493,-375.1055 442.8867,-375.8168"/>
<polygon fill="#000000" stroke="#000000" stroke-width="2" points="440.5381,-378.4216 450.0253,-383.1381 445.55,-373.5348 440.5381,-378.4216"/>
</g>
<!-- request_id__seq -->
<g id="node7" class="node">
<title>request_id__seq</title>
<polygon fill="#e0ffe0" stroke="transparent" points="530,-241.6592 530,-262.6592 561,-262.6592 561,-241.6592 530,-241.6592"/>
<polygon fill="none" stroke="#000000" points="530,-241.6592 530,-262.6592 561,-262.6592 561,-241.6592 530,-241.6592"/>
<text text-anchor="start" x="533" y="-248.4592" font-family="Times,serif" font-size="14.00" fill="#000000">pos</text>
<polygon fill="#e0ffe0" stroke="transparent" points="561,-241.6592 561,-262.6592 595,-262.6592 595,-241.6592 561,-241.6592"/>
<polygon fill="none" stroke="#000000" points="561,-241.6592 561,-262.6592 595,-262.6592 595,-241.6592 561,-241.6592"/>
<text text-anchor="start" x="564" y="-248.4592" font-family="Times,serif" font-size="14.00" fill="#000000">size</text>
<polygon fill="#e0ffe0" stroke="transparent" points="595,-241.6592 595,-262.6592 637,-262.6592 637,-241.6592 595,-241.6592"/>
<polygon fill="none" stroke="#000000" points="595,-241.6592 595,-262.6592 637,-262.6592 637,-241.6592 595,-241.6592"/>
<text text-anchor="start" x="600" y="-248.4592" font-family="Times,serif" font-size="14.00" fill="#000000">type</text>
<polygon fill="#e0ffe0" stroke="transparent" points="637,-241.6592 637,-262.6592 717,-262.6592 717,-241.6592 637,-241.6592"/>
<polygon fill="none" stroke="#000000" points="637,-241.6592 637,-262.6592 717,-262.6592 717,-241.6592 637,-241.6592"/>
<text text-anchor="start" x="670" y="-248.4592" font-family="Times,serif" font-size="14.00" fill="#000000">id</text>
<polygon fill="none" stroke="#000000" points="530,-220.6592 530,-241.6592 561,-241.6592 561,-220.6592 530,-220.6592"/>
<text text-anchor="start" x="540.5" y="-227.4592" font-family="Times,serif" font-size="14.00" fill="#000000">0</text>
<polygon fill="none" stroke="#000000" points="561,-220.6592 561,-241.6592 595,-241.6592 595,-220.6592 561,-220.6592"/>
<text text-anchor="start" x="573" y="-227.4592" font-family="Times,serif" font-size="14.00" fill="#000000">2</text>
<polygon fill="none" stroke="#000000" points="595,-220.6592 595,-241.6592 637,-241.6592 637,-220.6592 595,-220.6592"/>
<text text-anchor="start" x="598" y="-227.4592" font-family="Times,serif" font-size="14.00" fill="#000000">u2be</text>
<polygon fill="none" stroke="#000000" points="637,-220.6592 637,-241.6592 717,-241.6592 717,-220.6592 637,-220.6592"/>
<text text-anchor="start" x="646" y="-227.4592" font-family="Times,serif" font-size="14.00" fill="#000000">client_id</text>
<polygon fill="none" stroke="#000000" points="530,-199.6592 530,-220.6592 561,-220.6592 561,-199.6592 530,-199.6592"/>
<text text-anchor="start" x="540.5" y="-206.4592" font-family="Times,serif" font-size="14.00" fill="#000000">2</text>
<polygon fill="none" stroke="#000000" points="561,-199.6592 561,-220.6592 595,-220.6592 595,-199.6592 561,-199.6592"/>
<text text-anchor="start" x="573" y="-206.4592" font-family="Times,serif" font-size="14.00" fill="#000000">2</text>
<polygon fill="none" stroke="#000000" points="595,-199.6592 595,-220.6592 637,-220.6592 637,-199.6592 595,-199.6592"/>
<text text-anchor="start" x="598" y="-206.4592" font-family="Times,serif" font-size="14.00" fill="#000000">u2be</text>
<polygon fill="none" stroke="#000000" points="637,-199.6592 637,-220.6592 717,-220.6592 717,-199.6592 637,-199.6592"/>
<text text-anchor="start" x="640" y="-206.4592" font-family="Times,serif" font-size="14.00" fill="#000000">session_id</text>
</g>
<!-- header__seq&#45;&gt;request_id__seq -->
<g id="edge6" class="edge">
<title>header__seq:request_id_type&#45;&gt;request_id__seq</title>
<path fill="none" stroke="#000000" stroke-width="2" d="M405.5,-146.6592C429.2695,-146.6592 420.6576,-174.3639 441,-186.6592 462.3946,-199.5904 487.3337,-208.813 511.7646,-215.3882"/>
<polygon fill="#000000" stroke="#000000" stroke-width="2" points="510.9018,-218.7801 521.4574,-217.8692 512.6377,-211.9987 510.9018,-218.7801"/>
</g>
<!-- message_id__inst__value -->
<g id="node6" class="node">
<title>message_id__inst__value</title>
<polygon fill="#e0ffe0" stroke="transparent" points="547,-339.6592 547,-360.6592 578,-360.6592 578,-339.6592 547,-339.6592"/>
<polygon fill="none" stroke="#000000" points="547,-339.6592 547,-360.6592 578,-360.6592 578,-339.6592 547,-339.6592"/>
<text text-anchor="start" x="550" y="-346.4592" font-family="Times,serif" font-size="14.00" fill="#000000">pos</text>
<polygon fill="#e0ffe0" stroke="transparent" points="578,-339.6592 578,-360.6592 612,-360.6592 612,-339.6592 578,-339.6592"/>
<polygon fill="none" stroke="#000000" points="578,-339.6592 578,-360.6592 612,-360.6592 612,-339.6592 578,-339.6592"/>
<text text-anchor="start" x="581" y="-346.4592" font-family="Times,serif" font-size="14.00" fill="#000000">size</text>
<polygon fill="#e0ffe0" stroke="transparent" points="612,-339.6592 612,-360.6592 654,-360.6592 654,-339.6592 612,-339.6592"/>
<polygon fill="none" stroke="#000000" points="612,-339.6592 612,-360.6592 654,-360.6592 654,-339.6592 612,-339.6592"/>
<text text-anchor="start" x="617" y="-346.4592" font-family="Times,serif" font-size="14.00" fill="#000000">type</text>
<polygon fill="#e0ffe0" stroke="transparent" points="654,-339.6592 654,-360.6592 699,-360.6592 699,-339.6592 654,-339.6592"/>
<polygon fill="none" stroke="#000000" points="654,-339.6592 654,-360.6592 699,-360.6592 699,-339.6592 654,-339.6592"/>
<text text-anchor="start" x="669.5" y="-346.4592" font-family="Times,serif" font-size="14.00" fill="#000000">id</text>
<polygon fill="none" stroke="#000000" points="547,-318.6592 547,-339.6592 578,-339.6592 578,-318.6592 547,-318.6592"/>
<text text-anchor="start" x="557.5" y="-325.4592" font-family="Times,serif" font-size="14.00" fill="#000000">0</text>
<polygon fill="none" stroke="#000000" points="578,-318.6592 578,-339.6592 612,-339.6592 612,-318.6592 578,-318.6592"/>
<text text-anchor="start" x="590" y="-325.4592" font-family="Times,serif" font-size="14.00" fill="#000000">4</text>
<polygon fill="none" stroke="#000000" points="612,-318.6592 612,-339.6592 654,-339.6592 654,-318.6592 612,-318.6592"/>
<text text-anchor="start" x="615" y="-325.4592" font-family="Times,serif" font-size="14.00" fill="#000000">u4be</text>
<polygon fill="none" stroke="#000000" points="654,-318.6592 654,-339.6592 699,-339.6592 699,-318.6592 654,-318.6592"/>
<text text-anchor="start" x="657" y="-325.4592" font-family="Times,serif" font-size="14.00" fill="#000000">value</text>
</g>
<!-- message_id__inst__value&#45;&gt;some_ip__seq -->
<g id="edge4" class="edge">
<title>message_id__inst__value:value_type&#45;&gt;some_ip__seq:payload_type</title>
<path fill="none" stroke="#404040" d="M699,-328.6592C750.1806,-328.6592 773.693,-333.1705 805,-373.6592 856.9432,-440.8363 768.9303,-506.9282 833,-562.6592 842.7419,-571.1332 1708.398,-558.6015 1811.4982,-568.4976"/>
<polygon fill="#404040" stroke="#404040" points="1810.9863,-571.9677 1821.5,-570.6592 1812.465,-565.1257 1810.9863,-571.9677"/>
</g>
<!-- message_id__inst__value&#45;&gt;header__inst__is_valid_service_discovery -->
<g id="edge7" class="edge">
<title>message_id__inst__value:value_type&#45;&gt;header__inst__is_valid_service_discovery</title>
<path fill="none" stroke="#404040" d="M699,-328.6592C747.5076,-328.6592 772.2834,-338.4728 805,-302.6592 861.0874,-241.2624 770.9051,-172.9727 833,-117.6592 1043.301,69.6747 1415.4094,-11.2282 1581.4416,-60.6696"/>
<polygon fill="#404040" stroke="#404040" points="1580.5311,-64.0506 1591.1156,-63.5844 1582.5506,-57.3482 1580.5311,-64.0506"/>
</g>
<!-- request_id__inst__value -->
<g id="node8" class="node">
<title>request_id__inst__value</title>
<polygon fill="#e0ffe0" stroke="transparent" points="547,-152.6592 547,-173.6592 578,-173.6592 578,-152.6592 547,-152.6592"/>
<polygon fill="none" stroke="#000000" points="547,-152.6592 547,-173.6592 578,-173.6592 578,-152.6592 547,-152.6592"/>
<text text-anchor="start" x="550" y="-159.4592" font-family="Times,serif" font-size="14.00" fill="#000000">pos</text>
<polygon fill="#e0ffe0" stroke="transparent" points="578,-152.6592 578,-173.6592 612,-173.6592 612,-152.6592 578,-152.6592"/>
<polygon fill="none" stroke="#000000" points="578,-152.6592 578,-173.6592 612,-173.6592 612,-152.6592 578,-152.6592"/>
<text text-anchor="start" x="581" y="-159.4592" font-family="Times,serif" font-size="14.00" fill="#000000">size</text>
<polygon fill="#e0ffe0" stroke="transparent" points="612,-152.6592 612,-173.6592 654,-173.6592 654,-152.6592 612,-152.6592"/>
<polygon fill="none" stroke="#000000" points="612,-152.6592 612,-173.6592 654,-173.6592 654,-152.6592 612,-152.6592"/>
<text text-anchor="start" x="617" y="-159.4592" font-family="Times,serif" font-size="14.00" fill="#000000">type</text>
<polygon fill="#e0ffe0" stroke="transparent" points="654,-152.6592 654,-173.6592 699,-173.6592 699,-152.6592 654,-152.6592"/>
<polygon fill="none" stroke="#000000" points="654,-152.6592 654,-173.6592 699,-173.6592 699,-152.6592 654,-152.6592"/>
<text text-anchor="start" x="669.5" y="-159.4592" font-family="Times,serif" font-size="14.00" fill="#000000">id</text>
<polygon fill="none" stroke="#000000" points="547,-131.6592 547,-152.6592 578,-152.6592 578,-131.6592 547,-131.6592"/>
<text text-anchor="start" x="557.5" y="-138.4592" font-family="Times,serif" font-size="14.00" fill="#000000">0</text>
<polygon fill="none" stroke="#000000" points="578,-131.6592 578,-152.6592 612,-152.6592 612,-131.6592 578,-131.6592"/>
<text text-anchor="start" x="590" y="-138.4592" font-family="Times,serif" font-size="14.00" fill="#000000">4</text>
<polygon fill="none" stroke="#000000" points="612,-131.6592 612,-152.6592 654,-152.6592 654,-131.6592 612,-131.6592"/>
<text text-anchor="start" x="615" y="-138.4592" font-family="Times,serif" font-size="14.00" fill="#000000">u4be</text>
<polygon fill="none" stroke="#000000" points="654,-131.6592 654,-152.6592 699,-152.6592 699,-131.6592 654,-131.6592"/>
<text text-anchor="start" x="657" y="-138.4592" font-family="Times,serif" font-size="14.00" fill="#000000">value</text>
</g>
</g>
</svg>
