<?xml version="1.0" encoding="UTF-8" standalone="no"?>
<!DOCTYPE svg PUBLIC "-//W3C//DTD SVG 1.1//EN"
 "http://www.w3.org/Graphics/SVG/1.1/DTD/svg11.dtd">
<!-- Generated by graphviz version 2.43.0 (0)
 -->
<!-- Title: %3 Pages: 1 -->
<svg width="3991pt" height="693pt"
 viewBox="0.00 0.00 3991.00 692.70" xmlns="http://www.w3.org/2000/svg" xmlns:xlink="http://www.w3.org/1999/xlink">
<g id="graph0" class="graph" transform="scale(1 1) rotate(0) translate(4 688.7)">
<title>%3</title>
<polygon fill="white" stroke="transparent" points="-4,4 -4,-688.7 3987,-688.7 3987,4 -4,4"/>
<g id="clust1" class="cluster">
<title>cluster__android_sparse</title>
<polygon fill="none" stroke="black" stroke-dasharray="1,5" points="8,-25.7 8,-676.7 3975,-676.7 3975,-25.7 8,-25.7"/>
<text text-anchor="middle" x="1991.5" y="-661.5" font-family="Times,serif" font-size="14.00">AndroidSparse</text>
</g>
<g id="clust2" class="cluster">
<title>cluster__chunk</title>
<polygon fill="none" stroke="black" stroke-dasharray="1,5" points="849,-203.7 849,-461.7 3967,-461.7 3967,-203.7 849,-203.7"/>
<text text-anchor="middle" x="2408" y="-446.5" font-family="Times,serif" font-size="14.00">AndroidSparse::Chunk</text>
</g>
<g id="clust3" class="cluster">
<title>cluster__chunk_header</title>
<polygon fill="none" stroke="black" stroke-dasharray="1,5" points="1417,-257.7 1417,-430.7 3959,-430.7 3959,-257.7 1417,-257.7"/>
<text text-anchor="middle" x="2688" y="-415.5" font-family="Times,serif" font-size="14.00">AndroidSparse::Chunk::ChunkHeader</text>
</g>
<g id="clust4" class="cluster">
<title>cluster__file_header</title>
<polygon fill="none" stroke="black" stroke-dasharray="1,5" points="400.5,-175.7 400.5,-506.7 744.5,-506.7 744.5,-175.7 400.5,-175.7"/>
<text text-anchor="middle" x="572.5" y="-491.5" font-family="Times,serif" font-size="14.00">AndroidSparse::FileHeader</text>
</g>
<g id="clust5" class="cluster">
<title>cluster__file_header_prefix</title>
<polygon fill="none" stroke="black" stroke-dasharray="1,5" points="16,-186.7 16,-317.7 296,-317.7 296,-186.7 16,-186.7"/>
<text text-anchor="middle" x="156" y="-302.5" font-family="Times,serif" font-size="14.00">AndroidSparse::FileHeaderPrefix</text>
</g>
<g id="clust6" class="cluster">
<title>cluster__version</title>
<polygon fill="none" stroke="black" stroke-dasharray="1,5" points="480.5,-514.7 480.5,-645.7 665.5,-645.7 665.5,-514.7 480.5,-514.7"/>
<text text-anchor="middle" x="573" y="-630.5" font-family="Times,serif" font-size="14.00">AndroidSparse::Version</text>
</g>
<!-- android_sparse__seq -->
<g id="node1" class="node">
<title>android_sparse__seq</title>
<polygon fill="#e0ffe0" stroke="transparent" points="332.5,-121.7 332.5,-142.7 363.5,-142.7 363.5,-121.7 332.5,-121.7"/>
<polygon fill="none" stroke="black" points="332.5,-121.7 332.5,-142.7 363.5,-142.7 363.5,-121.7 332.5,-121.7"/>
<text text-anchor="start" x="335.5" y="-128.5" font-family="Times,serif" font-size="14.00">pos</text>
<polygon fill="#e0ffe0" stroke="transparent" points="363.5,-121.7 363.5,-142.7 581.5,-142.7 581.5,-121.7 363.5,-121.7"/>
<polygon fill="none" stroke="black" points="363.5,-121.7 363.5,-142.7 581.5,-142.7 581.5,-121.7 363.5,-121.7"/>
<text text-anchor="start" x="458.5" y="-128.5" font-family="Times,serif" font-size="14.00">size</text>
<polygon fill="#e0ffe0" stroke="transparent" points="581.5,-121.7 581.5,-142.7 709.5,-142.7 709.5,-121.7 581.5,-121.7"/>
<polygon fill="none" stroke="black" points="581.5,-121.7 581.5,-142.7 709.5,-142.7 709.5,-121.7 581.5,-121.7"/>
<text text-anchor="start" x="629.5" y="-128.5" font-family="Times,serif" font-size="14.00">type</text>
<polygon fill="#e0ffe0" stroke="transparent" points="709.5,-121.7 709.5,-142.7 813.5,-142.7 813.5,-121.7 709.5,-121.7"/>
<polygon fill="none" stroke="black" points="709.5,-121.7 709.5,-142.7 813.5,-142.7 813.5,-121.7 709.5,-121.7"/>
<text text-anchor="start" x="754.5" y="-128.5" font-family="Times,serif" font-size="14.00">id</text>
<polygon fill="none" stroke="black" points="332.5,-100.7 332.5,-121.7 363.5,-121.7 363.5,-100.7 332.5,-100.7"/>
<text text-anchor="start" x="343" y="-107.5" font-family="Times,serif" font-size="14.00">0</text>
<polygon fill="none" stroke="black" points="363.5,-100.7 363.5,-121.7 581.5,-121.7 581.5,-100.7 363.5,-100.7"/>
<text text-anchor="start" x="463" y="-107.5" font-family="Times,serif" font-size="14.00">10</text>
<polygon fill="none" stroke="black" points="581.5,-100.7 581.5,-121.7 709.5,-121.7 709.5,-100.7 581.5,-100.7"/>
<text text-anchor="start" x="584.5" y="-107.5" font-family="Times,serif" font-size="14.00">FileHeaderPrefix</text>
<polygon fill="none" stroke="black" points="709.5,-100.7 709.5,-121.7 813.5,-121.7 813.5,-100.7 709.5,-100.7"/>
<text text-anchor="start" x="712.5" y="-107.5" font-family="Times,serif" font-size="14.00">header_prefix</text>
<polygon fill="none" stroke="black" points="332.5,-79.7 332.5,-100.7 363.5,-100.7 363.5,-79.7 332.5,-79.7"/>
<text text-anchor="start" x="338.5" y="-86.5" font-family="Times,serif" font-size="14.00">10</text>
<polygon fill="none" stroke="black" points="363.5,-79.7 363.5,-100.7 581.5,-100.7 581.5,-79.7 363.5,-79.7"/>
<text text-anchor="start" x="366.5" y="-86.5" font-family="Times,serif" font-size="14.00">header_prefix.len_header &#45; 10</text>
<polygon fill="none" stroke="black" points="581.5,-79.7 581.5,-100.7 709.5,-100.7 709.5,-79.7 581.5,-79.7"/>
<text text-anchor="start" x="605.5" y="-86.5" font-family="Times,serif" font-size="14.00">FileHeader</text>
<polygon fill="none" stroke="black" points="709.5,-79.7 709.5,-100.7 813.5,-100.7 813.5,-79.7 709.5,-79.7"/>
<text text-anchor="start" x="736.5" y="-86.5" font-family="Times,serif" font-size="14.00">header</text>
<polygon fill="none" stroke="black" points="332.5,-58.7 332.5,-79.7 363.5,-79.7 363.5,-58.7 332.5,-58.7"/>
<text text-anchor="start" x="341" y="-65.5" font-family="Times,serif" font-size="14.00">...</text>
<polygon fill="none" stroke="black" points="363.5,-58.7 363.5,-79.7 581.5,-79.7 581.5,-58.7 363.5,-58.7"/>
<text text-anchor="start" x="465.5" y="-65.5" font-family="Times,serif" font-size="14.00">...</text>
<polygon fill="none" stroke="black" points="581.5,-58.7 581.5,-79.7 709.5,-79.7 709.5,-58.7 581.5,-58.7"/>
<text text-anchor="start" x="622.5" y="-65.5" font-family="Times,serif" font-size="14.00">Chunk</text>
<polygon fill="none" stroke="black" points="709.5,-58.7 709.5,-79.7 813.5,-79.7 813.5,-58.7 709.5,-58.7"/>
<text text-anchor="start" x="736" y="-65.5" font-family="Times,serif" font-size="14.00">chunks</text>
<polygon fill="none" stroke="black" points="332.5,-37.7 332.5,-58.7 813.5,-58.7 813.5,-37.7 332.5,-37.7"/>
<text text-anchor="start" x="454.5" y="-44.5" font-family="Times,serif" font-size="14.00">repeat header.num_chunks times</text>
</g>
<!-- android_sparse__seq&#45;&gt;android_sparse__seq -->
<g id="edge3" class="edge">
<title>android_sparse__seq:header_prefix_size&#45;&gt;android_sparse__seq:header_size</title>
<path fill="none" stroke="#404040" d="M436.57,-121.72C370.33,-143.64 382.31,-165.2 472.5,-165.2 558.11,-165.2 573.25,-130.87 517.92,-104.88"/>
<polygon fill="#404040" stroke="#404040" points="519,-101.53 508.43,-100.78 516.23,-107.96 519,-101.53"/>
</g>
<!-- chunk__seq -->
<g id="node2" class="node">
<title>chunk__seq</title>
<polygon fill="#e0ffe0" stroke="transparent" points="865,-343.7 865,-364.7 896,-364.7 896,-343.7 865,-343.7"/>
<polygon fill="none" stroke="black" points="865,-343.7 865,-364.7 896,-364.7 896,-343.7 865,-343.7"/>
<text text-anchor="start" x="868" y="-350.5" font-family="Times,serif" font-size="14.00">pos</text>
<polygon fill="#e0ffe0" stroke="transparent" points="896,-343.7 896,-364.7 1123,-364.7 1123,-343.7 896,-343.7"/>
<polygon fill="none" stroke="black" points="896,-343.7 896,-364.7 1123,-364.7 1123,-343.7 896,-343.7"/>
<text text-anchor="start" x="995.5" y="-350.5" font-family="Times,serif" font-size="14.00">size</text>
<polygon fill="#e0ffe0" stroke="transparent" points="1123,-343.7 1123,-364.7 1325,-364.7 1325,-343.7 1123,-343.7"/>
<polygon fill="none" stroke="black" points="1123,-343.7 1123,-364.7 1325,-364.7 1325,-343.7 1123,-343.7"/>
<text text-anchor="start" x="1208" y="-350.5" font-family="Times,serif" font-size="14.00">type</text>
<polygon fill="#e0ffe0" stroke="transparent" points="1325,-343.7 1325,-364.7 1381,-364.7 1381,-343.7 1325,-343.7"/>
<polygon fill="none" stroke="black" points="1325,-343.7 1325,-364.7 1381,-364.7 1381,-343.7 1325,-343.7"/>
<text text-anchor="start" x="1346" y="-350.5" font-family="Times,serif" font-size="14.00">id</text>
<polygon fill="none" stroke="black" points="865,-322.7 865,-343.7 896,-343.7 896,-322.7 865,-322.7"/>
<text text-anchor="start" x="875.5" y="-329.5" font-family="Times,serif" font-size="14.00">0</text>
<polygon fill="none" stroke="black" points="896,-322.7 896,-343.7 1123,-343.7 1123,-322.7 896,-322.7"/>
<text text-anchor="start" x="899" y="-329.5" font-family="Times,serif" font-size="14.00">_root.header.len_chunk_header</text>
<polygon fill="none" stroke="black" points="1123,-322.7 1123,-343.7 1325,-343.7 1325,-322.7 1123,-322.7"/>
<text text-anchor="start" x="1174.5" y="-329.5" font-family="Times,serif" font-size="14.00">ChunkHeader</text>
<polygon fill="none" stroke="black" points="1325,-322.7 1325,-343.7 1381,-343.7 1381,-322.7 1325,-322.7"/>
<text text-anchor="start" x="1328" y="-329.5" font-family="Times,serif" font-size="14.00">header</text>
<polygon fill="none" stroke="black" points="865,-301.7 865,-322.7 896,-322.7 896,-301.7 865,-301.7"/>
<text text-anchor="start" x="873.5" y="-308.5" font-family="Times,serif" font-size="14.00">...</text>
<polygon fill="none" stroke="black" points="896,-301.7 896,-322.7 1123,-322.7 1123,-301.7 896,-301.7"/>
<text text-anchor="start" x="1002.5" y="-308.5" font-family="Times,serif" font-size="14.00">...</text>
<polygon fill="none" stroke="black" points="1123,-301.7 1123,-322.7 1325,-322.7 1325,-301.7 1123,-301.7"/>
<text text-anchor="start" x="1126" y="-308.5" font-family="Times,serif" font-size="14.00">switch (header.chunk_type)</text>
<polygon fill="none" stroke="black" points="1325,-301.7 1325,-322.7 1381,-322.7 1381,-301.7 1325,-301.7"/>
<text text-anchor="start" x="1335.5" y="-308.5" font-family="Times,serif" font-size="14.00">body</text>
</g>
<!-- android_sparse__seq&#45;&gt;chunk__seq -->
<g id="edge5" class="edge">
<title>android_sparse__seq:chunks_type&#45;&gt;chunk__seq</title>
<path fill="none" stroke="black" stroke-width="2" d="M814.5,-68.7C947.91,-68.7 1052.16,-213.61 1097.43,-289.11"/>
<polygon fill="black" stroke="black" stroke-width="2" points="1094.55,-291.13 1102.65,-297.96 1100.58,-287.57 1094.55,-291.13"/>
</g>
<!-- file_header__seq -->
<g id="node7" class="node">
<title>file_header__seq</title>
<polygon fill="#e0ffe0" stroke="transparent" points="454.5,-449.7 454.5,-470.7 485.5,-470.7 485.5,-449.7 454.5,-449.7"/>
<polygon fill="none" stroke="black" points="454.5,-449.7 454.5,-470.7 485.5,-470.7 485.5,-449.7 454.5,-449.7"/>
<text text-anchor="start" x="457.5" y="-456.5" font-family="Times,serif" font-size="14.00">pos</text>
<polygon fill="#e0ffe0" stroke="transparent" points="485.5,-449.7 485.5,-470.7 519.5,-470.7 519.5,-449.7 485.5,-449.7"/>
<polygon fill="none" stroke="black" points="485.5,-449.7 485.5,-470.7 519.5,-470.7 519.5,-449.7 485.5,-449.7"/>
<text text-anchor="start" x="488.5" y="-456.5" font-family="Times,serif" font-size="14.00">size</text>
<polygon fill="#e0ffe0" stroke="transparent" points="519.5,-449.7 519.5,-470.7 557.5,-470.7 557.5,-449.7 519.5,-449.7"/>
<polygon fill="none" stroke="black" points="519.5,-449.7 519.5,-470.7 557.5,-470.7 557.5,-449.7 519.5,-449.7"/>
<text text-anchor="start" x="522.5" y="-456.5" font-family="Times,serif" font-size="14.00">type</text>
<polygon fill="#e0ffe0" stroke="transparent" points="557.5,-449.7 557.5,-470.7 691.5,-470.7 691.5,-449.7 557.5,-449.7"/>
<polygon fill="none" stroke="black" points="557.5,-449.7 557.5,-470.7 691.5,-470.7 691.5,-449.7 557.5,-449.7"/>
<text text-anchor="start" x="617.5" y="-456.5" font-family="Times,serif" font-size="14.00">id</text>
<polygon fill="none" stroke="black" points="454.5,-428.7 454.5,-449.7 485.5,-449.7 485.5,-428.7 454.5,-428.7"/>
<text text-anchor="start" x="465" y="-435.5" font-family="Times,serif" font-size="14.00">0</text>
<polygon fill="none" stroke="black" points="485.5,-428.7 485.5,-449.7 519.5,-449.7 519.5,-428.7 485.5,-428.7"/>
<text text-anchor="start" x="497.5" y="-435.5" font-family="Times,serif" font-size="14.00">2</text>
<polygon fill="none" stroke="black" points="519.5,-428.7 519.5,-449.7 557.5,-449.7 557.5,-428.7 519.5,-428.7"/>
<text text-anchor="start" x="523" y="-435.5" font-family="Times,serif" font-size="14.00">u2le</text>
<polygon fill="none" stroke="black" points="557.5,-428.7 557.5,-449.7 691.5,-449.7 691.5,-428.7 557.5,-428.7"/>
<text text-anchor="start" x="560.5" y="-435.5" font-family="Times,serif" font-size="14.00">len_chunk_header</text>
<polygon fill="none" stroke="black" points="454.5,-407.7 454.5,-428.7 485.5,-428.7 485.5,-407.7 454.5,-407.7"/>
<text text-anchor="start" x="465" y="-414.5" font-family="Times,serif" font-size="14.00">2</text>
<polygon fill="none" stroke="black" points="485.5,-407.7 485.5,-428.7 519.5,-428.7 519.5,-407.7 485.5,-407.7"/>
<text text-anchor="start" x="497.5" y="-414.5" font-family="Times,serif" font-size="14.00">4</text>
<polygon fill="none" stroke="black" points="519.5,-407.7 519.5,-428.7 557.5,-428.7 557.5,-407.7 519.5,-407.7"/>
<text text-anchor="start" x="523" y="-414.5" font-family="Times,serif" font-size="14.00">u4le</text>
<polygon fill="none" stroke="black" points="557.5,-407.7 557.5,-428.7 691.5,-428.7 691.5,-407.7 557.5,-407.7"/>
<text text-anchor="start" x="588" y="-414.5" font-family="Times,serif" font-size="14.00">block_size</text>
<polygon fill="none" stroke="black" points="454.5,-386.7 454.5,-407.7 691.5,-407.7 691.5,-386.7 454.5,-386.7"/>
<text text-anchor="start" x="486.5" y="-393.5" font-family="Times,serif" font-size="14.00">must satisfy _ % 4 == 0</text>
<polygon fill="none" stroke="black" points="454.5,-365.7 454.5,-386.7 485.5,-386.7 485.5,-365.7 454.5,-365.7"/>
<text text-anchor="start" x="465" y="-372.5" font-family="Times,serif" font-size="14.00">6</text>
<polygon fill="none" stroke="black" points="485.5,-365.7 485.5,-386.7 519.5,-386.7 519.5,-365.7 485.5,-365.7"/>
<text text-anchor="start" x="497.5" y="-372.5" font-family="Times,serif" font-size="14.00">4</text>
<polygon fill="none" stroke="black" points="519.5,-365.7 519.5,-386.7 557.5,-386.7 557.5,-365.7 519.5,-365.7"/>
<text text-anchor="start" x="523" y="-372.5" font-family="Times,serif" font-size="14.00">u4le</text>
<polygon fill="none" stroke="black" points="557.5,-365.7 557.5,-386.7 691.5,-386.7 691.5,-365.7 557.5,-365.7"/>
<text text-anchor="start" x="582.5" y="-372.5" font-family="Times,serif" font-size="14.00">num_blocks</text>
<polygon fill="none" stroke="black" points="454.5,-344.7 454.5,-365.7 485.5,-365.7 485.5,-344.7 454.5,-344.7"/>
<text text-anchor="start" x="460.5" y="-351.5" font-family="Times,serif" font-size="14.00">10</text>
<polygon fill="none" stroke="black" points="485.5,-344.7 485.5,-365.7 519.5,-365.7 519.5,-344.7 485.5,-344.7"/>
<text text-anchor="start" x="497.5" y="-351.5" font-family="Times,serif" font-size="14.00">4</text>
<polygon fill="none" stroke="black" points="519.5,-344.7 519.5,-365.7 557.5,-365.7 557.5,-344.7 519.5,-344.7"/>
<text text-anchor="start" x="523" y="-351.5" font-family="Times,serif" font-size="14.00">u4le</text>
<polygon fill="none" stroke="black" points="557.5,-344.7 557.5,-365.7 691.5,-365.7 691.5,-344.7 557.5,-344.7"/>
<text text-anchor="start" x="580" y="-351.5" font-family="Times,serif" font-size="14.00">num_chunks</text>
<polygon fill="none" stroke="black" points="454.5,-323.7 454.5,-344.7 485.5,-344.7 485.5,-323.7 454.5,-323.7"/>
<text text-anchor="start" x="460.5" y="-330.5" font-family="Times,serif" font-size="14.00">14</text>
<polygon fill="none" stroke="black" points="485.5,-323.7 485.5,-344.7 519.5,-344.7 519.5,-323.7 485.5,-323.7"/>
<text text-anchor="start" x="497.5" y="-330.5" font-family="Times,serif" font-size="14.00">4</text>
<polygon fill="none" stroke="black" points="519.5,-323.7 519.5,-344.7 557.5,-344.7 557.5,-323.7 519.5,-323.7"/>
<text text-anchor="start" x="523" y="-330.5" font-family="Times,serif" font-size="14.00">u4le</text>
<polygon fill="none" stroke="black" points="557.5,-323.7 557.5,-344.7 691.5,-344.7 691.5,-323.7 557.5,-323.7"/>
<text text-anchor="start" x="589" y="-330.5" font-family="Times,serif" font-size="14.00">checksum</text>
</g>
<!-- android_sparse__seq&#45;&gt;file_header__seq -->
<g id="edge4" class="edge">
<title>android_sparse__seq:header_type&#45;&gt;file_header__seq</title>
<path fill="none" stroke="black" stroke-width="2" d="M821,-89.7C846.56,-89.7 838.6,-128.67 821,-147.2 781.81,-188.46 337.27,-131.75 310,-181.7 297.22,-205.11 297.22,-278.29 310,-301.7 335.07,-347.62 385.58,-371.89 435.66,-384.6"/>
<polygon fill="black" stroke="black" stroke-width="2" points="435.12,-388.07 445.66,-386.99 436.75,-381.26 435.12,-388.07"/>
</g>
<!-- file_header_prefix__seq -->
<g id="node10" class="node">
<title>file_header_prefix__seq</title>
<polygon fill="#e0ffe0" stroke="transparent" points="32,-261.7 32,-282.7 63,-282.7 63,-261.7 32,-261.7"/>
<polygon fill="none" stroke="black" points="32,-261.7 32,-282.7 63,-282.7 63,-261.7 32,-261.7"/>
<text text-anchor="start" x="35" y="-268.5" font-family="Times,serif" font-size="14.00">pos</text>
<polygon fill="#e0ffe0" stroke="transparent" points="63,-261.7 63,-282.7 97,-282.7 97,-261.7 63,-261.7"/>
<polygon fill="none" stroke="black" points="63,-261.7 63,-282.7 97,-282.7 97,-261.7 63,-261.7"/>
<text text-anchor="start" x="66" y="-268.5" font-family="Times,serif" font-size="14.00">size</text>
<polygon fill="#e0ffe0" stroke="transparent" points="97,-261.7 97,-282.7 195,-282.7 195,-261.7 97,-261.7"/>
<polygon fill="none" stroke="black" points="97,-261.7 97,-282.7 195,-282.7 195,-261.7 97,-261.7"/>
<text text-anchor="start" x="130" y="-268.5" font-family="Times,serif" font-size="14.00">type</text>
<polygon fill="#e0ffe0" stroke="transparent" points="195,-261.7 195,-282.7 280,-282.7 280,-261.7 195,-261.7"/>
<polygon fill="none" stroke="black" points="195,-261.7 195,-282.7 280,-282.7 280,-261.7 195,-261.7"/>
<text text-anchor="start" x="230.5" y="-268.5" font-family="Times,serif" font-size="14.00">id</text>
<polygon fill="none" stroke="black" points="32,-240.7 32,-261.7 63,-261.7 63,-240.7 32,-240.7"/>
<text text-anchor="start" x="42.5" y="-247.5" font-family="Times,serif" font-size="14.00">0</text>
<polygon fill="none" stroke="black" points="63,-240.7 63,-261.7 97,-261.7 97,-240.7 63,-240.7"/>
<text text-anchor="start" x="75" y="-247.5" font-family="Times,serif" font-size="14.00">4</text>
<polygon fill="none" stroke="black" points="97,-240.7 97,-261.7 195,-261.7 195,-240.7 97,-240.7"/>
<text text-anchor="start" x="100" y="-247.5" font-family="Times,serif" font-size="14.00">3A FF 26 ED</text>
<polygon fill="none" stroke="black" points="195,-240.7 195,-261.7 280,-261.7 280,-240.7 195,-240.7"/>
<text text-anchor="start" x="216" y="-247.5" font-family="Times,serif" font-size="14.00">magic</text>
<polygon fill="none" stroke="black" points="32,-219.7 32,-240.7 63,-240.7 63,-219.7 32,-219.7"/>
<text text-anchor="start" x="42.5" y="-226.5" font-family="Times,serif" font-size="14.00">4</text>
<polygon fill="none" stroke="black" points="63,-219.7 63,-240.7 97,-240.7 97,-219.7 63,-219.7"/>
<text text-anchor="start" x="75" y="-226.5" font-family="Times,serif" font-size="14.00">4</text>
<polygon fill="none" stroke="black" points="97,-219.7 97,-240.7 195,-240.7 195,-219.7 97,-219.7"/>
<text text-anchor="start" x="119" y="-226.5" font-family="Times,serif" font-size="14.00">Version</text>
<polygon fill="none" stroke="black" points="195,-219.7 195,-240.7 280,-240.7 280,-219.7 195,-219.7"/>
<text text-anchor="start" x="211" y="-226.5" font-family="Times,serif" font-size="14.00">version</text>
<polygon fill="none" stroke="black" points="32,-198.7 32,-219.7 63,-219.7 63,-198.7 32,-198.7"/>
<text text-anchor="start" x="42.5" y="-205.5" font-family="Times,serif" font-size="14.00">8</text>
<polygon fill="none" stroke="black" points="63,-198.7 63,-219.7 97,-219.7 97,-198.7 63,-198.7"/>
<text text-anchor="start" x="75" y="-205.5" font-family="Times,serif" font-size="14.00">2</text>
<polygon fill="none" stroke="black" points="97,-198.7 97,-219.7 195,-219.7 195,-198.7 97,-198.7"/>
<text text-anchor="start" x="130.5" y="-205.5" font-family="Times,serif" font-size="14.00">u2le</text>
<polygon fill="none" stroke="black" points="195,-198.7 195,-219.7 280,-219.7 280,-198.7 195,-198.7"/>
<text text-anchor="start" x="198" y="-205.5" font-family="Times,serif" font-size="14.00">len_header</text>
</g>
<!-- android_sparse__seq&#45;&gt;file_header_prefix__seq -->
<g id="edge1" class="edge">
<title>android_sparse__seq:header_prefix_type&#45;&gt;file_header_prefix__seq</title>
<path fill="none" stroke="black" stroke-width="2" d="M814.5,-111.7C830.28,-111.7 824.53,-135.91 813.5,-147.2 775.45,-186.17 377.16,-160.85 324,-172.7 304.18,-177.12 283.67,-183.67 264.11,-190.98"/>
<polygon fill="black" stroke="black" stroke-width="2" points="262.67,-187.78 254.59,-194.63 265.18,-194.32 262.67,-187.78"/>
</g>
<!-- chunk__seq_body_switch -->
<g id="node3" class="node">
<title>chunk__seq_body_switch</title>
<polygon fill="#f0f2e4" stroke="transparent" points="1791.5,-218.7 1791.5,-239.7 1829.5,-239.7 1829.5,-218.7 1791.5,-218.7"/>
<polygon fill="none" stroke="black" points="1791.5,-218.7 1791.5,-239.7 1829.5,-239.7 1829.5,-218.7 1791.5,-218.7"/>
<text text-anchor="start" x="1794.5" y="-225.5" font-family="Times,serif" font-size="14.00">case</text>
<polygon fill="#f0f2e4" stroke="transparent" points="1829.5,-218.7 1829.5,-239.7 1867.5,-239.7 1867.5,-218.7 1829.5,-218.7"/>
<polygon fill="none" stroke="black" points="1829.5,-218.7 1829.5,-239.7 1867.5,-239.7 1867.5,-218.7 1829.5,-218.7"/>
<text text-anchor="start" x="1832.5" y="-225.5" font-family="Times,serif" font-size="14.00">type</text>
</g>
<!-- chunk__seq&#45;&gt;chunk__seq_body_switch -->
<g id="edge9" class="edge">
<title>chunk__seq:body_type&#45;&gt;chunk__seq_body_switch</title>
<path fill="none" stroke="black" stroke-width="2" d="M1382,-311.7C1412.11,-311.7 1391.22,-269.26 1417,-253.7 1528.6,-186.34 1689.72,-202.69 1773.39,-217.72"/>
<polygon fill="black" stroke="black" stroke-width="2" points="1772.97,-221.21 1783.44,-219.59 1774.25,-214.32 1772.97,-221.21"/>
</g>
<!-- chunk_header__seq -->
<g id="node4" class="node">
<title>chunk_header__seq</title>
<polygon fill="#e0ffe0" stroke="transparent" points="1433.5,-374.7 1433.5,-395.7 1694.5,-395.7 1694.5,-374.7 1433.5,-374.7"/>
<polygon fill="none" stroke="black" points="1433.5,-374.7 1433.5,-395.7 1694.5,-395.7 1694.5,-374.7 1433.5,-374.7"/>
<text text-anchor="start" x="1551.5" y="-381.5" font-family="Times,serif" font-size="14.00">pos</text>
<polygon fill="#e0ffe0" stroke="transparent" points="1694.5,-374.7 1694.5,-395.7 1843.5,-395.7 1843.5,-374.7 1694.5,-374.7"/>
<polygon fill="none" stroke="black" points="1694.5,-374.7 1694.5,-395.7 1843.5,-395.7 1843.5,-374.7 1694.5,-374.7"/>
<text text-anchor="start" x="1755" y="-381.5" font-family="Times,serif" font-size="14.00">size</text>
<polygon fill="#e0ffe0" stroke="transparent" points="1843.5,-374.7 1843.5,-395.7 2037.5,-395.7 2037.5,-374.7 1843.5,-374.7"/>
<polygon fill="none" stroke="black" points="1843.5,-374.7 1843.5,-395.7 2037.5,-395.7 2037.5,-374.7 1843.5,-374.7"/>
<text text-anchor="start" x="1924.5" y="-381.5" font-family="Times,serif" font-size="14.00">type</text>
<polygon fill="#e0ffe0" stroke="transparent" points="2037.5,-374.7 2037.5,-395.7 2226.5,-395.7 2226.5,-374.7 2037.5,-374.7"/>
<polygon fill="none" stroke="black" points="2037.5,-374.7 2037.5,-395.7 2226.5,-395.7 2226.5,-374.7 2037.5,-374.7"/>
<text text-anchor="start" x="2125" y="-381.5" font-family="Times,serif" font-size="14.00">id</text>
<polygon fill="none" stroke="black" points="1433.5,-353.7 1433.5,-374.7 1694.5,-374.7 1694.5,-353.7 1433.5,-353.7"/>
<text text-anchor="start" x="1559" y="-360.5" font-family="Times,serif" font-size="14.00">0</text>
<polygon fill="none" stroke="black" points="1694.5,-353.7 1694.5,-374.7 1843.5,-374.7 1843.5,-353.7 1694.5,-353.7"/>
<text text-anchor="start" x="1764" y="-360.5" font-family="Times,serif" font-size="14.00">2</text>
<polygon fill="none" stroke="black" points="1843.5,-353.7 1843.5,-374.7 2037.5,-374.7 2037.5,-353.7 1843.5,-353.7"/>
<text text-anchor="start" x="1875" y="-360.5" font-family="Times,serif" font-size="14.00">u2le→ChunkTypes</text>
<polygon fill="none" stroke="black" points="2037.5,-353.7 2037.5,-374.7 2226.5,-374.7 2226.5,-353.7 2037.5,-353.7"/>
<text text-anchor="start" x="2091" y="-360.5" font-family="Times,serif" font-size="14.00">chunk_type</text>
<polygon fill="none" stroke="black" points="1433.5,-332.7 1433.5,-353.7 1694.5,-353.7 1694.5,-332.7 1433.5,-332.7"/>
<text text-anchor="start" x="1559" y="-339.5" font-family="Times,serif" font-size="14.00">2</text>
<polygon fill="none" stroke="black" points="1694.5,-332.7 1694.5,-353.7 1843.5,-353.7 1843.5,-332.7 1694.5,-332.7"/>
<text text-anchor="start" x="1764" y="-339.5" font-family="Times,serif" font-size="14.00">2</text>
<polygon fill="none" stroke="black" points="1843.5,-332.7 1843.5,-353.7 2037.5,-353.7 2037.5,-332.7 1843.5,-332.7"/>
<text text-anchor="start" x="1925" y="-339.5" font-family="Times,serif" font-size="14.00">u2le</text>
<polygon fill="none" stroke="black" points="2037.5,-332.7 2037.5,-353.7 2226.5,-353.7 2226.5,-332.7 2037.5,-332.7"/>
<text text-anchor="start" x="2095.5" y="-339.5" font-family="Times,serif" font-size="14.00">reserved1</text>
<polygon fill="none" stroke="black" points="1433.5,-311.7 1433.5,-332.7 1694.5,-332.7 1694.5,-311.7 1433.5,-311.7"/>
<text text-anchor="start" x="1559" y="-318.5" font-family="Times,serif" font-size="14.00">4</text>
<polygon fill="none" stroke="black" points="1694.5,-311.7 1694.5,-332.7 1843.5,-332.7 1843.5,-311.7 1694.5,-311.7"/>
<text text-anchor="start" x="1764" y="-318.5" font-family="Times,serif" font-size="14.00">4</text>
<polygon fill="none" stroke="black" points="1843.5,-311.7 1843.5,-332.7 2037.5,-332.7 2037.5,-311.7 1843.5,-311.7"/>
<text text-anchor="start" x="1925" y="-318.5" font-family="Times,serif" font-size="14.00">u4le</text>
<polygon fill="none" stroke="black" points="2037.5,-311.7 2037.5,-332.7 2226.5,-332.7 2226.5,-311.7 2037.5,-311.7"/>
<text text-anchor="start" x="2069.5" y="-318.5" font-family="Times,serif" font-size="14.00">num_body_blocks</text>
<polygon fill="none" stroke="black" points="1433.5,-290.7 1433.5,-311.7 1694.5,-311.7 1694.5,-290.7 1433.5,-290.7"/>
<text text-anchor="start" x="1559" y="-297.5" font-family="Times,serif" font-size="14.00">8</text>
<polygon fill="none" stroke="black" points="1694.5,-290.7 1694.5,-311.7 1843.5,-311.7 1843.5,-290.7 1694.5,-290.7"/>
<text text-anchor="start" x="1764" y="-297.5" font-family="Times,serif" font-size="14.00">4</text>
<polygon fill="none" stroke="black" points="1843.5,-290.7 1843.5,-311.7 2037.5,-311.7 2037.5,-290.7 1843.5,-290.7"/>
<text text-anchor="start" x="1925" y="-297.5" font-family="Times,serif" font-size="14.00">u4le</text>
<polygon fill="none" stroke="black" points="2037.5,-290.7 2037.5,-311.7 2226.5,-311.7 2226.5,-290.7 2037.5,-290.7"/>
<text text-anchor="start" x="2096" y="-297.5" font-family="Times,serif" font-size="14.00">len_chunk</text>
<polygon fill="none" stroke="black" points="1433.5,-269.7 1433.5,-290.7 2226.5,-290.7 2226.5,-269.7 1433.5,-269.7"/>
<text text-anchor="start" x="1436.5" y="-276.5" font-family="Times,serif" font-size="14.00">must be equal to (len_body_expected != &#45;1 ? _root.header.len_chunk_header + len_body_expected : len_chunk)</text>
</g>
<!-- chunk__seq&#45;&gt;chunk_header__seq -->
<g id="edge8" class="edge">
<title>chunk__seq:header_type&#45;&gt;chunk_header__seq</title>
<path fill="none" stroke="black" stroke-width="2" d="M1382,-332.7C1392.76,-332.7 1403.66,-332.7 1414.66,-332.7"/>
<polygon fill="black" stroke="black" stroke-width="2" points="1414.79,-336.2 1424.79,-332.7 1414.79,-329.2 1414.79,-336.2"/>
</g>
<!-- chunk_header__seq&#45;&gt;chunk__seq -->
<g id="edge10" class="edge">
<title>chunk_header__seq:chunk_type_type&#45;&gt;chunk__seq:body_type</title>
<path fill="none" stroke="#404040" d="M2227.5,-364.7C2243.06,-364.7 2237.66,-388.85 2226.5,-399.7 2210.53,-415.22 1443.89,-411.49 1425,-399.7 1391.54,-378.81 1419.16,-323.51 1392.24,-313.32"/>
<polygon fill="#404040" stroke="#404040" points="1392.43,-309.81 1382,-311.7 1391.33,-316.72 1392.43,-309.81"/>
</g>
<!-- chunk_header__seq&#45;&gt;chunk_header__seq -->
<g id="edge13" class="edge">
<title>chunk_header__seq:len_chunk_type&#45;&gt;chunk_header__seq:len_chunk__valid</title>
<path fill="none" stroke="#404040" d="M2037.48,-303.2C1721.02,-309.49 1072,-307.68 1072,-290.2 1072,-279.12 1235.5,-274.33 1423,-273.92"/>
<polygon fill="#404040" stroke="#404040" points="1423.1,-277.42 1433.09,-273.9 1423.08,-270.42 1423.1,-277.42"/>
</g>
<!-- chunk_header__inst__len_body -->
<g id="node5" class="node">
<title>chunk_header__inst__len_body</title>
<polygon fill="#e0ffe0" stroke="transparent" points="2919.5,-374.7 2919.5,-395.7 2989.5,-395.7 2989.5,-374.7 2919.5,-374.7"/>
<polygon fill="none" stroke="black" points="2919.5,-374.7 2919.5,-395.7 2989.5,-395.7 2989.5,-374.7 2919.5,-374.7"/>
<text text-anchor="start" x="2947.5" y="-381.5" font-family="Times,serif" font-size="14.00">id</text>
<polygon fill="#e0ffe0" stroke="transparent" points="2989.5,-374.7 2989.5,-395.7 3301.5,-395.7 3301.5,-374.7 2989.5,-374.7"/>
<polygon fill="none" stroke="black" points="2989.5,-374.7 2989.5,-395.7 3301.5,-395.7 3301.5,-374.7 2989.5,-374.7"/>
<text text-anchor="start" x="3126" y="-381.5" font-family="Times,serif" font-size="14.00">value</text>
<polygon fill="none" stroke="black" points="2919.5,-353.7 2919.5,-374.7 2989.5,-374.7 2989.5,-353.7 2919.5,-353.7"/>
<text text-anchor="start" x="2922.5" y="-360.5" font-family="Times,serif" font-size="14.00">len_body</text>
<polygon fill="none" stroke="black" points="2989.5,-353.7 2989.5,-374.7 3301.5,-374.7 3301.5,-353.7 2989.5,-353.7"/>
<text text-anchor="start" x="2992.5" y="-360.5" font-family="Times,serif" font-size="14.00">len_chunk &#45; _root.header.len_chunk_header</text>
</g>
<!-- chunk_header__seq&#45;&gt;chunk_header__inst__len_body -->
<g id="edge14" class="edge">
<title>chunk_header__seq:len_chunk_type&#45;&gt;chunk_header__inst__len_body</title>
<path fill="none" stroke="#404040" d="M2227.5,-300.7C2253.44,-300.7 2246.09,-330.65 2270,-340.7 2489.31,-432.85 2769.89,-421.39 2944.68,-400.93"/>
<polygon fill="#404040" stroke="#404040" points="2945.22,-404.39 2954.74,-399.73 2944.39,-397.44 2945.22,-404.39"/>
</g>
<!-- chunk_header__inst__len_body_expected -->
<g id="node6" class="node">
<title>chunk_header__inst__len_body_expected</title>
<polygon fill="#e0ffe0" stroke="transparent" points="2278.5,-306.7 2278.5,-327.7 2419.5,-327.7 2419.5,-306.7 2278.5,-306.7"/>
<polygon fill="none" stroke="black" points="2278.5,-306.7 2278.5,-327.7 2419.5,-327.7 2419.5,-306.7 2278.5,-306.7"/>
<text text-anchor="start" x="2342" y="-313.5" font-family="Times,serif" font-size="14.00">id</text>
<polygon fill="#e0ffe0" stroke="transparent" points="2419.5,-306.7 2419.5,-327.7 3943.5,-327.7 3943.5,-306.7 2419.5,-306.7"/>
<polygon fill="none" stroke="black" points="2419.5,-306.7 2419.5,-327.7 3943.5,-327.7 3943.5,-306.7 2419.5,-306.7"/>
<text text-anchor="start" x="3162" y="-313.5" font-family="Times,serif" font-size="14.00">value</text>
<polygon fill="none" stroke="black" points="2278.5,-285.7 2278.5,-306.7 2419.5,-306.7 2419.5,-285.7 2278.5,-285.7"/>
<text text-anchor="start" x="2281.5" y="-292.5" font-family="Times,serif" font-size="14.00">len_body_expected</text>
<polygon fill="none" stroke="black" points="2419.5,-285.7 2419.5,-306.7 3943.5,-306.7 3943.5,-285.7 2419.5,-285.7"/>
<text text-anchor="start" x="2422.5" y="-292.5" font-family="Times,serif" font-size="14.00">(chunk_type == :chunk_types_raw ? _root.header.block_size * num_body_blocks : (chunk_type == :chunk_types_fill ? 4 : (chunk_type == :chunk_types_dont_care ? 0 : (chunk_type == :chunk_types_crc32 ? 4 : &#45;1))))</text>
</g>
<!-- chunk_header__seq&#45;&gt;chunk_header__inst__len_body_expected -->
<g id="edge16" class="edge">
<title>chunk_header__seq:chunk_type_type&#45;&gt;chunk_header__inst__len_body_expected</title>
<path fill="none" stroke="#404040" d="M2227.5,-364.7C2249.19,-364.7 2249.14,-346.64 2270,-340.7 2277.85,-338.46 2285.77,-336.31 2293.73,-334.24"/>
<polygon fill="#404040" stroke="#404040" points="2294.65,-337.61 2303.47,-331.74 2292.92,-330.83 2294.65,-337.61"/>
</g>
<!-- chunk_header__seq&#45;&gt;chunk_header__inst__len_body_expected -->
<g id="edge18" class="edge">
<title>chunk_header__seq:num_body_blocks_type&#45;&gt;chunk_header__inst__len_body_expected</title>
<path fill="none" stroke="#404040" d="M2227.5,-321.7C2238.09,-321.7 2248.75,-321.69 2259.47,-321.67"/>
<polygon fill="#404040" stroke="#404040" points="2259.78,-325.17 2269.77,-321.64 2259.76,-318.17 2259.78,-325.17"/>
</g>
<!-- chunk_header__inst__len_body_expected&#45;&gt;chunk_header__seq -->
<g id="edge11" class="edge">
<title>chunk_header__inst__len_body_expected:len_body_expected_type&#45;&gt;chunk_header__seq:len_chunk__valid</title>
<path fill="none" stroke="#404040" d="M2428.81,-281.7C2364.39,-280.51 2299.97,-279.78 2237.85,-279.71"/>
<polygon fill="#404040" stroke="#404040" points="2237.5,-276.21 2227.5,-279.7 2237.5,-283.21 2237.5,-276.21"/>
</g>
<!-- file_header__seq&#45;&gt;android_sparse__seq -->
<g id="edge6" class="edge">
<title>file_header__seq:num_chunks_type&#45;&gt;android_sparse__seq:chunks__repeat</title>
<path fill="none" stroke="#404040" d="M699,-354.7C715.22,-354.7 710.36,-329.79 699,-318.2 684.41,-303.32 343.93,-316.77 324,-310.7 316.92,-308.54 313.54,-308.19 310,-301.7 296.48,-276.93 296.48,-72.47 310,-47.7 336.38,0.63 545.75,19.58 571.01,-26.89"/>
<polygon fill="#404040" stroke="#404040" points="567.65,-27.87 573.5,-36.7 574.43,-26.15 567.65,-27.87"/>
</g>
<!-- file_header__seq&#45;&gt;chunk__seq -->
<g id="edge7" class="edge">
<title>file_header__seq:len_chunk_header_type&#45;&gt;chunk__seq:header_size</title>
<path fill="none" stroke="#404040" d="M692.5,-439.7C804.35,-439.7 927.26,-378.64 980.69,-348.77"/>
<polygon fill="#404040" stroke="#404040" points="982.57,-351.73 989.54,-343.75 979.12,-345.64 982.57,-351.73"/>
</g>
<!-- file_header__seq&#45;&gt;chunk_header__seq -->
<g id="edge12" class="edge">
<title>file_header__seq:len_chunk_header_type&#45;&gt;chunk_header__seq:len_chunk__valid</title>
<path fill="none" stroke="#404040" d="M692.5,-439.7C731.2,-439.7 1358.24,-457.18 1389,-433.7 1442.55,-392.82 1369.86,-291.2 1422.5,-280.6"/>
<polygon fill="#404040" stroke="#404040" points="1422.85,-284.08 1432.5,-279.7 1422.23,-277.11 1422.85,-284.08"/>
</g>
<!-- file_header__seq&#45;&gt;chunk_header__inst__len_body -->
<g id="edge15" class="edge">
<title>file_header__seq:len_chunk_header_type&#45;&gt;chunk_header__inst__len_body</title>
<path fill="none" stroke="#404040" d="M692.5,-439.7C762.09,-439.7 779.42,-443.59 849,-444.7 1464.55,-454.53 1618.88,-448.55 2234,-423.7 2462.3,-414.48 2723.83,-399.23 2901.16,-388.19"/>
<polygon fill="#404040" stroke="#404040" points="2901.63,-391.66 2911.39,-387.55 2901.19,-384.68 2901.63,-391.66"/>
</g>
<!-- file_header__seq&#45;&gt;chunk_header__inst__len_body_expected -->
<g id="edge17" class="edge">
<title>file_header__seq:block_size_type&#45;&gt;chunk_header__inst__len_body_expected</title>
<path fill="none" stroke="#404040" d="M692.5,-418.7C735.32,-418.7 2197.39,-430.91 2234,-408.7 2263.24,-390.97 2241.07,-358.93 2270,-340.7 2497.49,-197.38 2832.62,-242.82 3002.43,-279.5"/>
<polygon fill="#404040" stroke="#404040" points="3001.86,-282.96 3012.38,-281.68 3003.36,-276.12 3001.86,-282.96"/>
</g>
<!-- file_header__inst__len_header -->
<g id="node8" class="node">
<title>file_header__inst__len_header</title>
<polygon fill="#e0ffe0" stroke="transparent" points="416.5,-208.7 416.5,-229.7 501.5,-229.7 501.5,-208.7 416.5,-208.7"/>
<polygon fill="none" stroke="black" points="416.5,-208.7 416.5,-229.7 501.5,-229.7 501.5,-208.7 416.5,-208.7"/>
<text text-anchor="start" x="452" y="-215.5" font-family="Times,serif" font-size="14.00">id</text>
<polygon fill="#e0ffe0" stroke="transparent" points="501.5,-208.7 501.5,-229.7 728.5,-229.7 728.5,-208.7 501.5,-208.7"/>
<polygon fill="none" stroke="black" points="501.5,-208.7 501.5,-229.7 728.5,-229.7 728.5,-208.7 501.5,-208.7"/>
<text text-anchor="start" x="595.5" y="-215.5" font-family="Times,serif" font-size="14.00">value</text>
<polygon fill="none" stroke="black" points="416.5,-187.7 416.5,-208.7 501.5,-208.7 501.5,-187.7 416.5,-187.7"/>
<text text-anchor="start" x="419.5" y="-194.5" font-family="Times,serif" font-size="14.00">len_header</text>
<polygon fill="none" stroke="black" points="501.5,-187.7 501.5,-208.7 728.5,-208.7 728.5,-187.7 501.5,-187.7"/>
<text text-anchor="start" x="504.5" y="-194.5" font-family="Times,serif" font-size="14.00">_root.header_prefix.len_header</text>
</g>
<!-- file_header__inst__version -->
<g id="node9" class="node">
<title>file_header__inst__version</title>
<polygon fill="#e0ffe0" stroke="transparent" points="442.5,-276.7 442.5,-297.7 501.5,-297.7 501.5,-276.7 442.5,-276.7"/>
<polygon fill="none" stroke="black" points="442.5,-276.7 442.5,-297.7 501.5,-297.7 501.5,-276.7 442.5,-276.7"/>
<text text-anchor="start" x="465" y="-283.5" font-family="Times,serif" font-size="14.00">id</text>
<polygon fill="#e0ffe0" stroke="transparent" points="501.5,-276.7 501.5,-297.7 703.5,-297.7 703.5,-276.7 501.5,-276.7"/>
<polygon fill="none" stroke="black" points="501.5,-276.7 501.5,-297.7 703.5,-297.7 703.5,-276.7 501.5,-276.7"/>
<text text-anchor="start" x="583" y="-283.5" font-family="Times,serif" font-size="14.00">value</text>
<polygon fill="none" stroke="black" points="442.5,-255.7 442.5,-276.7 501.5,-276.7 501.5,-255.7 442.5,-255.7"/>
<text text-anchor="start" x="445.5" y="-262.5" font-family="Times,serif" font-size="14.00">version</text>
<polygon fill="none" stroke="black" points="501.5,-255.7 501.5,-276.7 703.5,-276.7 703.5,-255.7 501.5,-255.7"/>
<text text-anchor="start" x="504.5" y="-262.5" font-family="Times,serif" font-size="14.00">_root.header_prefix.version</text>
</g>
<!-- file_header_prefix__seq&#45;&gt;android_sparse__seq -->
<g id="edge2" class="edge">
<title>file_header_prefix__seq:len_header_type&#45;&gt;android_sparse__seq:header_size</title>
<path fill="none" stroke="#404040" d="M281,-208.7C306.21,-208.7 303.32,-186.12 324,-171.7 361.68,-145.42 408.53,-120.58 439.18,-105.26"/>
<polygon fill="#404040" stroke="#404040" points="440.74,-108.4 448.15,-100.83 437.64,-102.13 440.74,-108.4"/>
</g>
<!-- file_header_prefix__seq&#45;&gt;file_header__inst__len_header -->
<g id="edge19" class="edge">
<title>file_header_prefix__seq:len_header_type&#45;&gt;file_header__inst__len_header</title>
<path fill="none" stroke="#404040" d="M281,-208.7C318.85,-208.7 359.47,-208.7 397.99,-208.7"/>
<polygon fill="#404040" stroke="#404040" points="398.26,-212.2 408.26,-208.7 398.26,-205.2 398.26,-212.2"/>
</g>
<!-- file_header_prefix__seq&#45;&gt;file_header__inst__version -->
<g id="edge20" class="edge">
<title>file_header_prefix__seq:version_type&#45;&gt;file_header__inst__version</title>
<path fill="none" stroke="#404040" d="M281,-229.7C300.97,-229.7 304.49,-238.44 324,-242.7 355.97,-249.68 390.59,-255.5 423.53,-260.24"/>
<polygon fill="#404040" stroke="#404040" points="423.3,-263.74 433.69,-261.67 424.28,-256.81 423.3,-263.74"/>
</g>
<!-- version__seq -->
<g id="node11" class="node">
<title>version__seq</title>
<polygon fill="#e0ffe0" stroke="transparent" points="496.5,-589.7 496.5,-610.7 527.5,-610.7 527.5,-589.7 496.5,-589.7"/>
<polygon fill="none" stroke="black" points="496.5,-589.7 496.5,-610.7 527.5,-610.7 527.5,-589.7 496.5,-589.7"/>
<text text-anchor="start" x="499.5" y="-596.5" font-family="Times,serif" font-size="14.00">pos</text>
<polygon fill="#e0ffe0" stroke="transparent" points="527.5,-589.7 527.5,-610.7 561.5,-610.7 561.5,-589.7 527.5,-589.7"/>
<polygon fill="none" stroke="black" points="527.5,-589.7 527.5,-610.7 561.5,-610.7 561.5,-589.7 527.5,-589.7"/>
<text text-anchor="start" x="530.5" y="-596.5" font-family="Times,serif" font-size="14.00">size</text>
<polygon fill="#e0ffe0" stroke="transparent" points="561.5,-589.7 561.5,-610.7 599.5,-610.7 599.5,-589.7 561.5,-589.7"/>
<polygon fill="none" stroke="black" points="561.5,-589.7 561.5,-610.7 599.5,-610.7 599.5,-589.7 561.5,-589.7"/>
<text text-anchor="start" x="564.5" y="-596.5" font-family="Times,serif" font-size="14.00">type</text>
<polygon fill="#e0ffe0" stroke="transparent" points="599.5,-589.7 599.5,-610.7 648.5,-610.7 648.5,-589.7 599.5,-589.7"/>
<polygon fill="none" stroke="black" points="599.5,-589.7 599.5,-610.7 648.5,-610.7 648.5,-589.7 599.5,-589.7"/>
<text text-anchor="start" x="617" y="-596.5" font-family="Times,serif" font-size="14.00">id</text>
<polygon fill="none" stroke="black" points="496.5,-568.7 496.5,-589.7 527.5,-589.7 527.5,-568.7 496.5,-568.7"/>
<text text-anchor="start" x="507" y="-575.5" font-family="Times,serif" font-size="14.00">0</text>
<polygon fill="none" stroke="black" points="527.5,-568.7 527.5,-589.7 561.5,-589.7 561.5,-568.7 527.5,-568.7"/>
<text text-anchor="start" x="539.5" y="-575.5" font-family="Times,serif" font-size="14.00">2</text>
<polygon fill="none" stroke="black" points="561.5,-568.7 561.5,-589.7 599.5,-589.7 599.5,-568.7 561.5,-568.7"/>
<text text-anchor="start" x="565" y="-575.5" font-family="Times,serif" font-size="14.00">u2le</text>
<polygon fill="none" stroke="black" points="599.5,-568.7 599.5,-589.7 648.5,-589.7 648.5,-568.7 599.5,-568.7"/>
<text text-anchor="start" x="603" y="-575.5" font-family="Times,serif" font-size="14.00">major</text>
<polygon fill="none" stroke="black" points="496.5,-547.7 496.5,-568.7 648.5,-568.7 648.5,-547.7 496.5,-547.7"/>
<text text-anchor="start" x="505.5" y="-554.5" font-family="Times,serif" font-size="14.00">must be equal to 1</text>
<polygon fill="none" stroke="black" points="496.5,-526.7 496.5,-547.7 527.5,-547.7 527.5,-526.7 496.5,-526.7"/>
<text text-anchor="start" x="507" y="-533.5" font-family="Times,serif" font-size="14.00">2</text>
<polygon fill="none" stroke="black" points="527.5,-526.7 527.5,-547.7 561.5,-547.7 561.5,-526.7 527.5,-526.7"/>
<text text-anchor="start" x="539.5" y="-533.5" font-family="Times,serif" font-size="14.00">2</text>
<polygon fill="none" stroke="black" points="561.5,-526.7 561.5,-547.7 599.5,-547.7 599.5,-526.7 561.5,-526.7"/>
<text text-anchor="start" x="565" y="-533.5" font-family="Times,serif" font-size="14.00">u2le</text>
<polygon fill="none" stroke="black" points="599.5,-526.7 599.5,-547.7 648.5,-547.7 648.5,-526.7 599.5,-526.7"/>
<text text-anchor="start" x="602.5" y="-533.5" font-family="Times,serif" font-size="14.00">minor</text>
</g>
<!-- file_header_prefix__seq&#45;&gt;version__seq -->
<g id="edge21" class="edge">
<title>file_header_prefix__seq:version_type&#45;&gt;version__seq</title>
<path fill="none" stroke="black" stroke-width="2" d="M281,-229.7C344.17,-229.7 281.11,-464.32 324,-510.7 362.77,-552.63 425.59,-566.99 478.24,-570.94"/>
<polygon fill="black" stroke="black" stroke-width="2" points="478.08,-574.44 488.28,-571.58 478.52,-567.45 478.08,-574.44"/>
</g>
</g>
</svg>
