<?xml version="1.0" encoding="UTF-8" standalone="no"?>
<!DOCTYPE svg PUBLIC "-//W3C//DTD SVG 1.1//EN"
 "http://www.w3.org/Graphics/SVG/1.1/DTD/svg11.dtd">
<!-- Generated by graphviz version 2.43.0 (0)
 -->
<!-- Title: %3 Pages: 1 -->
<svg width="296pt" height="213pt"
 viewBox="0.00 0.00 296.00 213.00" xmlns="http://www.w3.org/2000/svg" xmlns:xlink="http://www.w3.org/1999/xlink">
<g id="graph0" class="graph" transform="scale(1 1) rotate(0) translate(4 209)">
<title>%3</title>
<polygon fill="white" stroke="transparent" points="-4,4 -4,-209 292,-209 292,4 -4,4"/>
<g id="clust1" class="cluster">
<title>cluster__heroes_of_might_and_magic_bmp</title>
<polygon fill="none" stroke="black" stroke-dasharray="1,5" points="8,-8 8,-197 280,-197 280,-8 8,-8"/>
<text text-anchor="middle" x="144" y="-181.8" font-family="Times,serif" font-size="14.00">HeroesOfMightAndMagicBmp</text>
</g>
<!-- heroes_of_might_and_magic_bmp__seq -->
<g id="node1" class="node">
<title>heroes_of_might_and_magic_bmp__seq</title>
<polygon fill="#e0ffe0" stroke="transparent" points="24,-104 24,-125 55,-125 55,-104 24,-104"/>
<polygon fill="none" stroke="black" points="24,-104 24,-125 55,-125 55,-104 24,-104"/>
<text text-anchor="start" x="27" y="-110.8" font-family="Times,serif" font-size="14.00">pos</text>
<polygon fill="#e0ffe0" stroke="transparent" points="55,-104 55,-125 174,-125 174,-104 55,-104"/>
<polygon fill="none" stroke="black" points="55,-104 55,-125 174,-125 174,-104 55,-104"/>
<text text-anchor="start" x="100.5" y="-110.8" font-family="Times,serif" font-size="14.00">size</text>
<polygon fill="#e0ffe0" stroke="transparent" points="174,-104 174,-125 212,-125 212,-104 174,-104"/>
<polygon fill="none" stroke="black" points="174,-104 174,-125 212,-125 212,-104 174,-104"/>
<text text-anchor="start" x="177" y="-110.8" font-family="Times,serif" font-size="14.00">type</text>
<polygon fill="#e0ffe0" stroke="transparent" points="212,-104 212,-125 264,-125 264,-104 212,-104"/>
<polygon fill="none" stroke="black" points="212,-104 212,-125 264,-125 264,-104 212,-104"/>
<text text-anchor="start" x="231" y="-110.8" font-family="Times,serif" font-size="14.00">id</text>
<polygon fill="none" stroke="black" points="24,-83 24,-104 55,-104 55,-83 24,-83"/>
<text text-anchor="start" x="34.5" y="-89.8" font-family="Times,serif" font-size="14.00">0</text>
<polygon fill="none" stroke="black" points="55,-83 55,-104 174,-104 174,-83 55,-83"/>
<text text-anchor="start" x="109.5" y="-89.8" font-family="Times,serif" font-size="14.00">2</text>
<polygon fill="none" stroke="black" points="174,-83 174,-104 212,-104 212,-83 174,-83"/>
<text text-anchor="start" x="177.5" y="-89.8" font-family="Times,serif" font-size="14.00">u2le</text>
<polygon fill="none" stroke="black" points="212,-83 212,-104 264,-104 264,-83 212,-83"/>
<text text-anchor="start" x="216.5" y="-89.8" font-family="Times,serif" font-size="14.00">magic</text>
<polygon fill="none" stroke="black" points="24,-62 24,-83 55,-83 55,-62 24,-62"/>
<text text-anchor="start" x="34.5" y="-68.8" font-family="Times,serif" font-size="14.00">2</text>
<polygon fill="none" stroke="black" points="55,-62 55,-83 174,-83 174,-62 55,-62"/>
<text text-anchor="start" x="109.5" y="-68.8" font-family="Times,serif" font-size="14.00">2</text>
<polygon fill="none" stroke="black" points="174,-62 174,-83 212,-83 212,-62 174,-62"/>
<text text-anchor="start" x="177.5" y="-68.8" font-family="Times,serif" font-size="14.00">u2le</text>
<polygon fill="none" stroke="black" points="212,-62 212,-83 264,-83 264,-62 212,-62"/>
<text text-anchor="start" x="217.5" y="-68.8" font-family="Times,serif" font-size="14.00">width</text>
<polygon fill="none" stroke="black" points="24,-41 24,-62 55,-62 55,-41 24,-41"/>
<text text-anchor="start" x="34.5" y="-47.8" font-family="Times,serif" font-size="14.00">4</text>
<polygon fill="none" stroke="black" points="55,-41 55,-62 174,-62 174,-41 55,-41"/>
<text text-anchor="start" x="109.5" y="-47.8" font-family="Times,serif" font-size="14.00">2</text>
<polygon fill="none" stroke="black" points="174,-41 174,-62 212,-62 212,-41 174,-41"/>
<text text-anchor="start" x="177.5" y="-47.8" font-family="Times,serif" font-size="14.00">u2le</text>
<polygon fill="none" stroke="black" points="212,-41 212,-62 264,-62 264,-41 212,-41"/>
<text text-anchor="start" x="215" y="-47.8" font-family="Times,serif" font-size="14.00">height</text>
<polygon fill="none" stroke="black" points="24,-20 24,-41 55,-41 55,-20 24,-20"/>
<text text-anchor="start" x="34.5" y="-26.8" font-family="Times,serif" font-size="14.00">6</text>
<polygon fill="none" stroke="black" points="55,-20 55,-41 174,-41 174,-20 55,-20"/>
<text text-anchor="start" x="58" y="-26.8" font-family="Times,serif" font-size="14.00">(width * height)</text>
<polygon fill="none" stroke="black" points="174,-20 174,-41 212,-41 212,-20 174,-20"/>
<polygon fill="none" stroke="black" points="212,-20 212,-41 264,-41 264,-20 212,-20"/>
<text text-anchor="start" x="222" y="-26.8" font-family="Times,serif" font-size="14.00">data</text>
</g>
<!-- heroes_of_might_and_magic_bmp__seq&#45;&gt;heroes_of_might_and_magic_bmp__seq -->
<g id="edge1" class="edge">
<title>heroes_of_might_and_magic_bmp__seq:width_type&#45;&gt;heroes_of_might_and_magic_bmp__seq:data_size</title>
<path fill="none" stroke="#404040" d="M259.97,-83.08C299.78,-109.4 285.27,-147.5 176,-147.5 71.49,-147.5 53.66,-83.74 87.15,-47.83"/>
<polygon fill="#404040" stroke="#404040" points="89.53,-50.39 94.52,-41.04 84.79,-45.24 89.53,-50.39"/>
</g>
<!-- heroes_of_might_and_magic_bmp__seq&#45;&gt;heroes_of_might_and_magic_bmp__seq -->
<g id="edge2" class="edge">
<title>heroes_of_might_and_magic_bmp__seq:height_type&#45;&gt;heroes_of_might_and_magic_bmp__seq:data_size</title>
<path fill="none" stroke="#404040" d="M258.6,-62.07C300.09,-92.38 286.5,-147.5 176,-147.5 71.49,-147.5 53.66,-83.74 87.15,-47.83"/>
<polygon fill="#404040" stroke="#404040" points="89.53,-50.39 94.52,-41.04 84.79,-45.24 89.53,-50.39"/>
</g>
</g>
</svg>
