<?xml version="1.0" encoding="UTF-8" standalone="no"?>
<!DOCTYPE svg PUBLIC "-//W3C//DTD SVG 1.1//EN"
 "http://www.w3.org/Graphics/SVG/1.1/DTD/svg11.dtd">
<!-- Generated by graphviz version 2.38.0 (20140413.2041)
 -->
<!-- Title: %3 Pages: 1 -->
<svg width="1217pt" height="568pt"
 viewBox="0.00 0.00 1216.50 568.00" xmlns="http://www.w3.org/2000/svg" xmlns:xlink="http://www.w3.org/1999/xlink">
<g id="graph0" class="graph" transform="scale(1 1) rotate(0) translate(4 564)">
<title>%3</title>
<polygon fill="white" stroke="none" points="-4,4 -4,-564 1212.5,-564 1212.5,4 -4,4"/>
<g id="clust1" class="cluster"><title>cluster__windows_shell_items</title>
<polygon fill="none" stroke="black" stroke-dasharray="1,5" points="8,-8 8,-552 1208.5,-552 1208.5,-8 8,-8"/>
<text text-anchor="middle" x="608.25" y="-536.8" font-family="Times,serif" font-size="14.00">WindowsShellItems</text>
</g>
<g id="clust2" class="cluster"><title>cluster__shell_item_data</title>
<polygon fill="none" stroke="black" stroke-dasharray="1,5" points="513,-207 513,-386 945,-386 945,-207 513,-207"/>
<text text-anchor="middle" x="729" y="-370.8" font-family="Times,serif" font-size="14.00">WindowsShellItems::ShellItemData</text>
</g>
<g id="clust3" class="cluster"><title>cluster__shell_item</title>
<polygon fill="none" stroke="black" stroke-dasharray="1,5" points="219,-251 219,-380 493,-380 493,-251 219,-251"/>
<text text-anchor="middle" x="356" y="-364.8" font-family="Times,serif" font-size="14.00">WindowsShellItems::ShellItem</text>
</g>
<g id="clust4" class="cluster"><title>cluster__root_folder_body</title>
<polygon fill="none" stroke="black" stroke-dasharray="1,5" points="974.5,-16 974.5,-127 1200.5,-127 1200.5,-16 974.5,-16"/>
<text text-anchor="middle" x="1087.5" y="-111.8" font-family="Times,serif" font-size="14.00">WindowsShellItems::RootFolderBody</text>
</g>
<g id="clust5" class="cluster"><title>cluster__volume_body</title>
<polygon fill="none" stroke="black" stroke-dasharray="1,5" points="983,-135 983,-224 1192,-224 1192,-135 983,-135"/>
<text text-anchor="middle" x="1087.5" y="-208.8" font-family="Times,serif" font-size="14.00">WindowsShellItems::VolumeBody</text>
</g>
<g id="clust6" class="cluster"><title>cluster__file_entry_body</title>
<polygon fill="none" stroke="black" stroke-dasharray="1,5" points="980,-232 980,-521 1195,-521 1195,-232 980,-232"/>
<text text-anchor="middle" x="1087.5" y="-505.8" font-family="Times,serif" font-size="14.00">WindowsShellItems::FileEntryBody</text>
</g>
<!-- windows_shell_items__seq -->
<g id="node1" class="node"><title>windows_shell_items__seq</title>
<polygon fill="#e0ffe0" stroke="none" points="24.5,-316 24.5,-337 53.5,-337 53.5,-316 24.5,-316"/>
<polygon fill="none" stroke="black" points="24.5,-316 24.5,-337 53.5,-337 53.5,-316 24.5,-316"/>
<text text-anchor="start" x="29.5" y="-322.8" font-family="Times,serif" font-size="14.00">pos</text>
<polygon fill="#e0ffe0" stroke="none" points="53.5,-316 53.5,-337 83.5,-337 83.5,-316 53.5,-316"/>
<polygon fill="none" stroke="black" points="53.5,-316 53.5,-337 83.5,-337 83.5,-316 53.5,-316"/>
<text text-anchor="start" x="57.5" y="-322.8" font-family="Times,serif" font-size="14.00">size</text>
<polygon fill="#e0ffe0" stroke="none" points="83.5,-316 83.5,-337 144.5,-337 144.5,-316 83.5,-316"/>
<polygon fill="none" stroke="black" points="83.5,-316 83.5,-337 144.5,-337 144.5,-316 83.5,-316"/>
<text text-anchor="start" x="102" y="-322.8" font-family="Times,serif" font-size="14.00">type</text>
<polygon fill="#e0ffe0" stroke="none" points="144.5,-316 144.5,-337 183.5,-337 183.5,-316 144.5,-316"/>
<polygon fill="none" stroke="black" points="144.5,-316 144.5,-337 183.5,-337 183.5,-316 144.5,-316"/>
<text text-anchor="start" x="158.5" y="-322.8" font-family="Times,serif" font-size="14.00">id</text>
<polygon fill="none" stroke="black" points="24.5,-295 24.5,-316 53.5,-316 53.5,-295 24.5,-295"/>
<text text-anchor="start" x="35.5" y="-301.8" font-family="Times,serif" font-size="14.00">0</text>
<polygon fill="none" stroke="black" points="53.5,-295 53.5,-316 83.5,-316 83.5,-295 53.5,-295"/>
<text text-anchor="start" x="62.5" y="-301.8" font-family="Times,serif" font-size="14.00">...</text>
<polygon fill="none" stroke="black" points="83.5,-295 83.5,-316 144.5,-316 144.5,-295 83.5,-295"/>
<text text-anchor="start" x="87" y="-301.8" font-family="Times,serif" font-size="14.00">ShellItem</text>
<polygon fill="none" stroke="black" points="144.5,-295 144.5,-316 183.5,-316 183.5,-295 144.5,-295"/>
<text text-anchor="start" x="148.5" y="-301.8" font-family="Times,serif" font-size="14.00">items</text>
<polygon fill="none" stroke="black" points="24.5,-274 24.5,-295 183.5,-295 183.5,-274 24.5,-274"/>
<text text-anchor="start" x="27.5" y="-280.8" font-family="Times,serif" font-size="14.00">repeat until _.len_data == 0</text>
</g>
<!-- shell_item__seq -->
<g id="node5" class="node"><title>shell_item__seq</title>
<polygon fill="#e0ffe0" stroke="none" points="235,-305 235,-326 260,-326 260,-305 235,-305"/>
<polygon fill="none" stroke="black" points="235,-305 235,-326 260,-326 260,-305 235,-305"/>
<text text-anchor="start" x="238" y="-311.8" font-family="Times,serif" font-size="14.00">pos</text>
<polygon fill="#e0ffe0" stroke="none" points="260,-305 260,-326 340,-326 340,-305 260,-305"/>
<polygon fill="none" stroke="black" points="260,-305 260,-326 340,-326 340,-305 260,-305"/>
<text text-anchor="start" x="289" y="-311.8" font-family="Times,serif" font-size="14.00">size</text>
<polygon fill="#e0ffe0" stroke="none" points="340,-305 340,-326 425,-326 425,-305 340,-305"/>
<polygon fill="none" stroke="black" points="340,-305 340,-326 425,-326 425,-305 340,-305"/>
<text text-anchor="start" x="370.5" y="-311.8" font-family="Times,serif" font-size="14.00">type</text>
<polygon fill="#e0ffe0" stroke="none" points="425,-305 425,-326 477,-326 477,-305 425,-305"/>
<polygon fill="none" stroke="black" points="425,-305 425,-326 477,-326 477,-305 425,-305"/>
<text text-anchor="start" x="445.5" y="-311.8" font-family="Times,serif" font-size="14.00">id</text>
<polygon fill="none" stroke="black" points="235,-284 235,-305 260,-305 260,-284 235,-284"/>
<text text-anchor="start" x="244" y="-290.8" font-family="Times,serif" font-size="14.00">0</text>
<polygon fill="none" stroke="black" points="260,-284 260,-305 340,-305 340,-284 260,-284"/>
<text text-anchor="start" x="296.5" y="-290.8" font-family="Times,serif" font-size="14.00">2</text>
<polygon fill="none" stroke="black" points="340,-284 340,-305 425,-305 425,-284 340,-284"/>
<text text-anchor="start" x="370.5" y="-290.8" font-family="Times,serif" font-size="14.00">u2le</text>
<polygon fill="none" stroke="black" points="425,-284 425,-305 477,-305 477,-284 425,-284"/>
<text text-anchor="start" x="428" y="-290.8" font-family="Times,serif" font-size="14.00">len_data</text>
<polygon fill="none" stroke="black" points="235,-263 235,-284 260,-284 260,-263 235,-263"/>
<text text-anchor="start" x="244" y="-269.8" font-family="Times,serif" font-size="14.00">2</text>
<polygon fill="none" stroke="black" points="260,-263 260,-284 340,-284 340,-263 260,-263"/>
<text text-anchor="start" x="263" y="-269.8" font-family="Times,serif" font-size="14.00">(len_data &#45; 2)</text>
<polygon fill="none" stroke="black" points="340,-263 340,-284 425,-284 425,-263 340,-263"/>
<text text-anchor="start" x="343" y="-269.8" font-family="Times,serif" font-size="14.00">ShellItemData</text>
<polygon fill="none" stroke="black" points="425,-263 425,-284 477,-284 477,-263 425,-263"/>
<text text-anchor="start" x="439.5" y="-269.8" font-family="Times,serif" font-size="14.00">data</text>
</g>
<!-- windows_shell_items__seq&#45;&gt;shell_item__seq -->
<g id="edge1" class="edge"><title>windows_shell_items__seq:items_type&#45;&gt;shell_item__seq</title>
<path fill="none" stroke="black" stroke-width="2" d="M184.5,-305C194.836,-305 205.519,-304.815 216.262,-304.494"/>
<polygon fill="black" stroke="black" stroke-width="2" points="216.695,-307.982 226.572,-304.147 216.46,-300.986 216.695,-307.982"/>
</g>
<!-- shell_item_data__seq -->
<g id="node2" class="node"><title>shell_item_data__seq</title>
<polygon fill="#e0ffe0" stroke="none" points="529.5,-294 529.5,-315 554.5,-315 554.5,-294 529.5,-294"/>
<polygon fill="none" stroke="black" points="529.5,-294 529.5,-315 554.5,-315 554.5,-294 529.5,-294"/>
<text text-anchor="start" x="532.5" y="-300.8" font-family="Times,serif" font-size="14.00">pos</text>
<polygon fill="#e0ffe0" stroke="none" points="554.5,-294 554.5,-315 582.5,-315 582.5,-294 554.5,-294"/>
<polygon fill="none" stroke="black" points="554.5,-294 554.5,-315 582.5,-315 582.5,-294 554.5,-294"/>
<text text-anchor="start" x="557.5" y="-300.8" font-family="Times,serif" font-size="14.00">size</text>
<polygon fill="#e0ffe0" stroke="none" points="582.5,-294 582.5,-315 710.5,-315 710.5,-294 582.5,-294"/>
<polygon fill="none" stroke="black" points="582.5,-294 582.5,-315 710.5,-315 710.5,-294 582.5,-294"/>
<text text-anchor="start" x="634.5" y="-300.8" font-family="Times,serif" font-size="14.00">type</text>
<polygon fill="#e0ffe0" stroke="none" points="710.5,-294 710.5,-315 750.5,-315 750.5,-294 710.5,-294"/>
<polygon fill="none" stroke="black" points="710.5,-294 710.5,-315 750.5,-315 750.5,-294 710.5,-294"/>
<text text-anchor="start" x="725" y="-300.8" font-family="Times,serif" font-size="14.00">id</text>
<polygon fill="none" stroke="black" points="529.5,-273 529.5,-294 554.5,-294 554.5,-273 529.5,-273"/>
<text text-anchor="start" x="538.5" y="-279.8" font-family="Times,serif" font-size="14.00">0</text>
<polygon fill="none" stroke="black" points="554.5,-273 554.5,-294 582.5,-294 582.5,-273 554.5,-273"/>
<text text-anchor="start" x="565" y="-279.8" font-family="Times,serif" font-size="14.00">1</text>
<polygon fill="none" stroke="black" points="582.5,-273 582.5,-294 710.5,-294 710.5,-273 582.5,-273"/>
<text text-anchor="start" x="639.5" y="-279.8" font-family="Times,serif" font-size="14.00">u1</text>
<polygon fill="none" stroke="black" points="710.5,-273 710.5,-294 750.5,-294 750.5,-273 710.5,-273"/>
<text text-anchor="start" x="717.5" y="-279.8" font-family="Times,serif" font-size="14.00">code</text>
<polygon fill="none" stroke="black" points="529.5,-252 529.5,-273 554.5,-273 554.5,-252 529.5,-252"/>
<text text-anchor="start" x="538.5" y="-258.8" font-family="Times,serif" font-size="14.00">1</text>
<polygon fill="none" stroke="black" points="554.5,-252 554.5,-273 582.5,-273 582.5,-252 554.5,-252"/>
<text text-anchor="start" x="562.5" y="-258.8" font-family="Times,serif" font-size="14.00">...</text>
<polygon fill="none" stroke="black" points="582.5,-252 582.5,-273 710.5,-273 710.5,-252 582.5,-252"/>
<text text-anchor="start" x="609.5" y="-258.8" font-family="Times,serif" font-size="14.00">switch (code)</text>
<polygon fill="none" stroke="black" points="710.5,-252 710.5,-273 750.5,-273 750.5,-252 710.5,-252"/>
<text text-anchor="start" x="713.5" y="-258.8" font-family="Times,serif" font-size="14.00">body1</text>
<polygon fill="none" stroke="black" points="529.5,-231 529.5,-252 554.5,-252 554.5,-231 529.5,-231"/>
<text text-anchor="start" x="536" y="-237.8" font-family="Times,serif" font-size="14.00">...</text>
<polygon fill="none" stroke="black" points="554.5,-231 554.5,-252 582.5,-252 582.5,-231 554.5,-231"/>
<text text-anchor="start" x="562.5" y="-237.8" font-family="Times,serif" font-size="14.00">...</text>
<polygon fill="none" stroke="black" points="582.5,-231 582.5,-252 710.5,-252 710.5,-231 582.5,-231"/>
<text text-anchor="start" x="585.5" y="-237.8" font-family="Times,serif" font-size="14.00">switch ((code &amp; 112))</text>
<polygon fill="none" stroke="black" points="710.5,-231 710.5,-252 750.5,-252 750.5,-231 710.5,-231"/>
<text text-anchor="start" x="713.5" y="-237.8" font-family="Times,serif" font-size="14.00">body2</text>
</g>
<!-- shell_item_data__seq&#45;&gt;shell_item_data__seq -->
<g id="edge5" class="edge"><title>shell_item_data__seq:code_type&#45;&gt;shell_item_data__seq:body1_type</title>
<path fill="none" stroke="#404040" d="M710.494,-293.222C675.056,-313.4 681.725,-337 730.5,-337 775.274,-337 784.567,-303.297 758.377,-278.691"/>
<polygon fill="#404040" stroke="#404040" points="760.487,-275.897 750.506,-272.343 756.092,-281.346 760.487,-275.897"/>
</g>
<!-- shell_item_data__seq&#45;&gt;shell_item_data__seq -->
<g id="edge9" class="edge"><title>shell_item_data__seq:code_type&#45;&gt;shell_item_data__seq:body2_type</title>
<path fill="none" stroke="#404040" d="M710.494,-293.222C675.056,-313.4 681.725,-337 730.5,-337 775.86,-337 784.803,-288.875 757.331,-258.858"/>
<polygon fill="#404040" stroke="#404040" points="759.716,-256.297 750.022,-252.022 754.935,-261.409 759.716,-256.297"/>
</g>
<!-- shell_item_data__seq_body1_switch -->
<g id="node3" class="node"><title>shell_item_data__seq_body1_switch</title>
<polygon fill="#f0f2e4" stroke="none" points="802.5,-240 802.5,-261 832.5,-261 832.5,-240 802.5,-240"/>
<polygon fill="none" stroke="black" points="802.5,-240 802.5,-261 832.5,-261 832.5,-240 802.5,-240"/>
<text text-anchor="start" x="805.5" y="-246.8" font-family="Times,serif" font-size="14.00">case</text>
<polygon fill="#f0f2e4" stroke="none" points="832.5,-240 832.5,-261 929.5,-261 929.5,-240 832.5,-240"/>
<polygon fill="none" stroke="black" points="832.5,-240 832.5,-261 929.5,-261 929.5,-240 832.5,-240"/>
<text text-anchor="start" x="869" y="-246.8" font-family="Times,serif" font-size="14.00">type</text>
<polygon fill="none" stroke="black" points="802.5,-219 802.5,-240 832.5,-240 832.5,-219 802.5,-219"/>
<text text-anchor="start" x="810.5" y="-225.8" font-family="Times,serif" font-size="14.00">31</text>
<polygon fill="none" stroke="black" points="832.5,-219 832.5,-240 929.5,-240 929.5,-219 832.5,-219"/>
<text text-anchor="start" x="835.5" y="-225.8" font-family="Times,serif" font-size="14.00">RootFolderBody</text>
</g>
<!-- shell_item_data__seq&#45;&gt;shell_item_data__seq_body1_switch -->
<g id="edge3" class="edge"><title>shell_item_data__seq:body1_type&#45;&gt;shell_item_data__seq_body1_switch</title>
<path fill="none" stroke="black" stroke-width="2" d="M751.5,-262C761.951,-262 772.847,-261.082 783.57,-259.621"/>
<polygon fill="black" stroke="black" stroke-width="2" points="784.418,-263.033 793.778,-258.067 783.365,-256.112 784.418,-263.033"/>
</g>
<!-- shell_item_data__seq_body2_switch -->
<g id="node4" class="node"><title>shell_item_data__seq_body2_switch</title>
<polygon fill="#f0f2e4" stroke="none" points="807.5,-329 807.5,-350 837.5,-350 837.5,-329 807.5,-329"/>
<polygon fill="none" stroke="black" points="807.5,-329 807.5,-350 837.5,-350 837.5,-329 807.5,-329"/>
<text text-anchor="start" x="810.5" y="-335.8" font-family="Times,serif" font-size="14.00">case</text>
<polygon fill="#f0f2e4" stroke="none" points="837.5,-329 837.5,-350 924.5,-350 924.5,-329 837.5,-329"/>
<polygon fill="none" stroke="black" points="837.5,-329 837.5,-350 924.5,-350 924.5,-329 837.5,-329"/>
<text text-anchor="start" x="869" y="-335.8" font-family="Times,serif" font-size="14.00">type</text>
<polygon fill="none" stroke="black" points="807.5,-308 807.5,-329 837.5,-329 837.5,-308 807.5,-308"/>
<text text-anchor="start" x="815.5" y="-314.8" font-family="Times,serif" font-size="14.00">32</text>
<polygon fill="none" stroke="black" points="837.5,-308 837.5,-329 924.5,-329 924.5,-308 837.5,-308"/>
<text text-anchor="start" x="844" y="-314.8" font-family="Times,serif" font-size="14.00">VolumeBody</text>
<polygon fill="none" stroke="black" points="807.5,-287 807.5,-308 837.5,-308 837.5,-287 807.5,-287"/>
<text text-anchor="start" x="815.5" y="-293.8" font-family="Times,serif" font-size="14.00">48</text>
<polygon fill="none" stroke="black" points="837.5,-287 837.5,-308 924.5,-308 924.5,-287 837.5,-287"/>
<text text-anchor="start" x="840.5" y="-293.8" font-family="Times,serif" font-size="14.00">FileEntryBody</text>
</g>
<!-- shell_item_data__seq&#45;&gt;shell_item_data__seq_body2_switch -->
<g id="edge6" class="edge"><title>shell_item_data__seq:body2_type&#45;&gt;shell_item_data__seq_body2_switch</title>
<path fill="none" stroke="black" stroke-width="2" d="M751.5,-241C775.414,-241 774.456,-260.219 794,-274 795.647,-275.161 797.322,-276.328 799.017,-277.498"/>
<polygon fill="black" stroke="black" stroke-width="2" points="797.393,-280.625 807.632,-283.346 801.324,-274.833 797.393,-280.625"/>
</g>
<!-- file_entry_body__inst__is_dir -->
<g id="node9" class="node"><title>file_entry_body__inst__is_dir</title>
<polygon fill="#e0ffe0" stroke="none" points="1000,-397 1000,-418 1037,-418 1037,-397 1000,-397"/>
<polygon fill="none" stroke="black" points="1000,-397 1000,-418 1037,-418 1037,-397 1000,-397"/>
<text text-anchor="start" x="1013" y="-403.8" font-family="Times,serif" font-size="14.00">id</text>
<polygon fill="#e0ffe0" stroke="none" points="1037,-397 1037,-418 1175,-418 1175,-397 1037,-397"/>
<polygon fill="none" stroke="black" points="1037,-397 1037,-418 1175,-418 1175,-397 1037,-397"/>
<text text-anchor="start" x="1091" y="-403.8" font-family="Times,serif" font-size="14.00">value</text>
<polygon fill="none" stroke="black" points="1000,-376 1000,-397 1037,-397 1037,-376 1000,-376"/>
<text text-anchor="start" x="1003" y="-382.8" font-family="Times,serif" font-size="14.00">is_dir</text>
<polygon fill="none" stroke="black" points="1037,-376 1037,-397 1175,-397 1175,-376 1037,-376"/>
<text text-anchor="start" x="1040" y="-382.8" font-family="Times,serif" font-size="14.00">(_parent.code &amp; 1) != 0</text>
</g>
<!-- shell_item_data__seq&#45;&gt;file_entry_body__inst__is_dir -->
<g id="edge12" class="edge"><title>shell_item_data__seq:code_type&#45;&gt;file_entry_body__inst__is_dir</title>
<path fill="none" stroke="#404040" d="M751.5,-284C791.761,-284 760.714,-341.35 794,-364 848.225,-400.899 921.63,-409.059 981.275,-408.04"/>
<polygon fill="#404040" stroke="#404040" points="981.576,-411.534 991.482,-407.775 981.394,-404.536 981.576,-411.534"/>
</g>
<!-- file_entry_body__inst__is_file -->
<g id="node10" class="node"><title>file_entry_body__inst__is_file</title>
<polygon fill="#e0ffe0" stroke="none" points="998,-465 998,-486 1038,-486 1038,-465 998,-465"/>
<polygon fill="none" stroke="black" points="998,-465 998,-486 1038,-486 1038,-465 998,-465"/>
<text text-anchor="start" x="1012.5" y="-471.8" font-family="Times,serif" font-size="14.00">id</text>
<polygon fill="#e0ffe0" stroke="none" points="1038,-465 1038,-486 1176,-486 1176,-465 1038,-465"/>
<polygon fill="none" stroke="black" points="1038,-465 1038,-486 1176,-486 1176,-465 1038,-465"/>
<text text-anchor="start" x="1092" y="-471.8" font-family="Times,serif" font-size="14.00">value</text>
<polygon fill="none" stroke="black" points="998,-444 998,-465 1038,-465 1038,-444 998,-444"/>
<text text-anchor="start" x="1001" y="-450.8" font-family="Times,serif" font-size="14.00">is_file</text>
<polygon fill="none" stroke="black" points="1038,-444 1038,-465 1176,-465 1176,-444 1038,-444"/>
<text text-anchor="start" x="1041" y="-450.8" font-family="Times,serif" font-size="14.00">(_parent.code &amp; 2) != 0</text>
</g>
<!-- shell_item_data__seq&#45;&gt;file_entry_body__inst__is_file -->
<g id="edge13" class="edge"><title>shell_item_data__seq:code_type&#45;&gt;file_entry_body__inst__is_file</title>
<path fill="none" stroke="#404040" d="M751.5,-284C802.257,-284 755.856,-356.515 794,-390 844.953,-434.729 919.106,-453.395 979.934,-460.921"/>
<polygon fill="#404040" stroke="#404040" points="979.627,-464.409 989.962,-462.077 980.429,-457.455 979.627,-464.409"/>
</g>
<!-- root_folder_body__seq -->
<g id="node6" class="node"><title>root_folder_body__seq</title>
<polygon fill="#e0ffe0" stroke="none" points="1002,-70 1002,-91 1027,-91 1027,-70 1002,-70"/>
<polygon fill="none" stroke="black" points="1002,-70 1002,-91 1027,-91 1027,-70 1002,-70"/>
<text text-anchor="start" x="1005" y="-76.8" font-family="Times,serif" font-size="14.00">pos</text>
<polygon fill="#e0ffe0" stroke="none" points="1027,-70 1027,-91 1055,-91 1055,-70 1027,-70"/>
<polygon fill="none" stroke="black" points="1027,-70 1027,-91 1055,-91 1055,-70 1027,-70"/>
<text text-anchor="start" x="1030" y="-76.8" font-family="Times,serif" font-size="14.00">size</text>
<polygon fill="#e0ffe0" stroke="none" points="1055,-70 1055,-91 1085,-91 1085,-70 1055,-70"/>
<polygon fill="none" stroke="black" points="1055,-70 1055,-91 1085,-91 1085,-70 1055,-70"/>
<text text-anchor="start" x="1058" y="-76.8" font-family="Times,serif" font-size="14.00">type</text>
<polygon fill="#e0ffe0" stroke="none" points="1085,-70 1085,-91 1173,-91 1173,-70 1085,-70"/>
<polygon fill="none" stroke="black" points="1085,-70 1085,-91 1173,-91 1173,-70 1085,-70"/>
<text text-anchor="start" x="1123.5" y="-76.8" font-family="Times,serif" font-size="14.00">id</text>
<polygon fill="none" stroke="black" points="1002,-49 1002,-70 1027,-70 1027,-49 1002,-49"/>
<text text-anchor="start" x="1011" y="-55.8" font-family="Times,serif" font-size="14.00">0</text>
<polygon fill="none" stroke="black" points="1027,-49 1027,-70 1055,-70 1055,-49 1027,-49"/>
<text text-anchor="start" x="1037.5" y="-55.8" font-family="Times,serif" font-size="14.00">1</text>
<polygon fill="none" stroke="black" points="1055,-49 1055,-70 1085,-70 1085,-49 1055,-49"/>
<text text-anchor="start" x="1063" y="-55.8" font-family="Times,serif" font-size="14.00">u1</text>
<polygon fill="none" stroke="black" points="1085,-49 1085,-70 1173,-70 1173,-49 1085,-49"/>
<text text-anchor="start" x="1100" y="-55.8" font-family="Times,serif" font-size="14.00">sort_index</text>
<polygon fill="none" stroke="black" points="1002,-28 1002,-49 1027,-49 1027,-28 1002,-28"/>
<text text-anchor="start" x="1011" y="-34.8" font-family="Times,serif" font-size="14.00">1</text>
<polygon fill="none" stroke="black" points="1027,-28 1027,-49 1055,-49 1055,-28 1027,-28"/>
<text text-anchor="start" x="1034" y="-34.8" font-family="Times,serif" font-size="14.00">16</text>
<polygon fill="none" stroke="black" points="1055,-28 1055,-49 1085,-49 1085,-28 1055,-28"/>
<polygon fill="none" stroke="black" points="1085,-28 1085,-49 1173,-49 1173,-28 1085,-28"/>
<text text-anchor="start" x="1088" y="-34.8" font-family="Times,serif" font-size="14.00">shell_folder_id</text>
</g>
<!-- shell_item_data__seq_body1_switch&#45;&gt;root_folder_body__seq -->
<g id="edge4" class="edge"><title>shell_item_data__seq_body1_switch:case0&#45;&gt;root_folder_body__seq</title>
<path fill="none" stroke="black" stroke-width="2" d="M930.5,-229C978.244,-229 943.274,-167.117 974.5,-131 984.012,-119.998 995.648,-110.092 1007.77,-101.413"/>
<polygon fill="black" stroke="black" stroke-width="2" points="1009.97,-104.152 1016.23,-95.6031 1006,-98.3838 1009.97,-104.152"/>
</g>
<!-- volume_body__seq -->
<g id="node7" class="node"><title>volume_body__seq</title>
<polygon fill="#e0ffe0" stroke="none" points="1029,-168 1029,-189 1054,-189 1054,-168 1029,-168"/>
<polygon fill="none" stroke="black" points="1029,-168 1029,-189 1054,-189 1054,-168 1029,-168"/>
<text text-anchor="start" x="1032" y="-174.8" font-family="Times,serif" font-size="14.00">pos</text>
<polygon fill="#e0ffe0" stroke="none" points="1054,-168 1054,-189 1082,-189 1082,-168 1054,-168"/>
<polygon fill="none" stroke="black" points="1054,-168 1054,-189 1082,-189 1082,-168 1054,-168"/>
<text text-anchor="start" x="1057" y="-174.8" font-family="Times,serif" font-size="14.00">size</text>
<polygon fill="#e0ffe0" stroke="none" points="1082,-168 1082,-189 1112,-189 1112,-168 1082,-168"/>
<polygon fill="none" stroke="black" points="1082,-168 1082,-189 1112,-189 1112,-168 1082,-168"/>
<text text-anchor="start" x="1085" y="-174.8" font-family="Times,serif" font-size="14.00">type</text>
<polygon fill="#e0ffe0" stroke="none" points="1112,-168 1112,-189 1145,-189 1145,-168 1112,-168"/>
<polygon fill="none" stroke="black" points="1112,-168 1112,-189 1145,-189 1145,-168 1112,-168"/>
<text text-anchor="start" x="1123" y="-174.8" font-family="Times,serif" font-size="14.00">id</text>
<polygon fill="none" stroke="black" points="1029,-147 1029,-168 1054,-168 1054,-147 1029,-147"/>
<text text-anchor="start" x="1038" y="-153.8" font-family="Times,serif" font-size="14.00">0</text>
<polygon fill="none" stroke="black" points="1054,-147 1054,-168 1082,-168 1082,-147 1054,-147"/>
<text text-anchor="start" x="1064.5" y="-153.8" font-family="Times,serif" font-size="14.00">1</text>
<polygon fill="none" stroke="black" points="1082,-147 1082,-168 1112,-168 1112,-147 1082,-147"/>
<text text-anchor="start" x="1090" y="-153.8" font-family="Times,serif" font-size="14.00">u1</text>
<polygon fill="none" stroke="black" points="1112,-147 1112,-168 1145,-168 1145,-147 1112,-147"/>
<text text-anchor="start" x="1115" y="-153.8" font-family="Times,serif" font-size="14.00">flags</text>
</g>
<!-- shell_item_data__seq_body2_switch&#45;&gt;volume_body__seq -->
<g id="edge7" class="edge"><title>shell_item_data__seq_body2_switch:case0&#45;&gt;volume_body__seq</title>
<path fill="none" stroke="black" stroke-width="2" d="M925.5,-318C971.044,-318 942.217,-260.126 974.5,-228 986.242,-216.315 1000.73,-206.31 1015.34,-198.009"/>
<polygon fill="black" stroke="black" stroke-width="2" points="1017.31,-200.918 1024.42,-193.06 1013.97,-194.77 1017.31,-200.918"/>
</g>
<!-- file_entry_body__seq -->
<g id="node8" class="node"><title>file_entry_body__seq</title>
<polygon fill="#e0ffe0" stroke="none" points="1002,-328 1002,-349 1027,-349 1027,-328 1002,-328"/>
<polygon fill="none" stroke="black" points="1002,-328 1002,-349 1027,-349 1027,-328 1002,-328"/>
<text text-anchor="start" x="1005" y="-334.8" font-family="Times,serif" font-size="14.00">pos</text>
<polygon fill="#e0ffe0" stroke="none" points="1027,-328 1027,-349 1055,-349 1055,-328 1027,-328"/>
<polygon fill="none" stroke="black" points="1027,-328 1027,-349 1055,-349 1055,-328 1027,-328"/>
<text text-anchor="start" x="1030" y="-334.8" font-family="Times,serif" font-size="14.00">size</text>
<polygon fill="#e0ffe0" stroke="none" points="1055,-328 1055,-349 1085,-349 1085,-328 1055,-328"/>
<polygon fill="none" stroke="black" points="1055,-328 1055,-349 1085,-349 1085,-328 1055,-328"/>
<text text-anchor="start" x="1058" y="-334.8" font-family="Times,serif" font-size="14.00">type</text>
<polygon fill="#e0ffe0" stroke="none" points="1085,-328 1085,-349 1173,-349 1173,-328 1085,-328"/>
<polygon fill="none" stroke="black" points="1085,-328 1085,-349 1173,-349 1173,-328 1085,-328"/>
<text text-anchor="start" x="1123.5" y="-334.8" font-family="Times,serif" font-size="14.00">id</text>
<polygon fill="none" stroke="black" points="1002,-307 1002,-328 1027,-328 1027,-307 1002,-307"/>
<text text-anchor="start" x="1011" y="-313.8" font-family="Times,serif" font-size="14.00">0</text>
<polygon fill="none" stroke="black" points="1027,-307 1027,-328 1055,-328 1055,-307 1027,-307"/>
<text text-anchor="start" x="1037.5" y="-313.8" font-family="Times,serif" font-size="14.00">1</text>
<polygon fill="none" stroke="black" points="1055,-307 1055,-328 1085,-328 1085,-307 1055,-307"/>
<text text-anchor="start" x="1063" y="-313.8" font-family="Times,serif" font-size="14.00">u1</text>
<polygon fill="none" stroke="black" points="1085,-307 1085,-328 1173,-328 1173,-307 1085,-307"/>
<text text-anchor="start" x="1097" y="-313.8" font-family="Times,serif" font-size="14.00">_unnamed0</text>
<polygon fill="none" stroke="black" points="1002,-286 1002,-307 1027,-307 1027,-286 1002,-286"/>
<text text-anchor="start" x="1011" y="-292.8" font-family="Times,serif" font-size="14.00">1</text>
<polygon fill="none" stroke="black" points="1027,-286 1027,-307 1055,-307 1055,-286 1027,-286"/>
<text text-anchor="start" x="1037.5" y="-292.8" font-family="Times,serif" font-size="14.00">4</text>
<polygon fill="none" stroke="black" points="1055,-286 1055,-307 1085,-307 1085,-286 1055,-286"/>
<text text-anchor="start" x="1058" y="-292.8" font-family="Times,serif" font-size="14.00">u4le</text>
<polygon fill="none" stroke="black" points="1085,-286 1085,-307 1173,-307 1173,-286 1085,-286"/>
<text text-anchor="start" x="1106" y="-292.8" font-family="Times,serif" font-size="14.00">file_size</text>
<polygon fill="none" stroke="black" points="1002,-265 1002,-286 1027,-286 1027,-265 1002,-265"/>
<text text-anchor="start" x="1011" y="-271.8" font-family="Times,serif" font-size="14.00">5</text>
<polygon fill="none" stroke="black" points="1027,-265 1027,-286 1055,-286 1055,-265 1027,-265"/>
<text text-anchor="start" x="1037.5" y="-271.8" font-family="Times,serif" font-size="14.00">4</text>
<polygon fill="none" stroke="black" points="1055,-265 1055,-286 1085,-286 1085,-265 1055,-265"/>
<text text-anchor="start" x="1058" y="-271.8" font-family="Times,serif" font-size="14.00">u4le</text>
<polygon fill="none" stroke="black" points="1085,-265 1085,-286 1173,-286 1173,-265 1085,-265"/>
<text text-anchor="start" x="1088" y="-271.8" font-family="Times,serif" font-size="14.00">last_mod_time</text>
<polygon fill="none" stroke="black" points="1002,-244 1002,-265 1027,-265 1027,-244 1002,-244"/>
<text text-anchor="start" x="1011" y="-250.8" font-family="Times,serif" font-size="14.00">9</text>
<polygon fill="none" stroke="black" points="1027,-244 1027,-265 1055,-265 1055,-244 1027,-244"/>
<text text-anchor="start" x="1037.5" y="-250.8" font-family="Times,serif" font-size="14.00">2</text>
<polygon fill="none" stroke="black" points="1055,-244 1055,-265 1085,-265 1085,-244 1055,-244"/>
<text text-anchor="start" x="1058" y="-250.8" font-family="Times,serif" font-size="14.00">u2le</text>
<polygon fill="none" stroke="black" points="1085,-244 1085,-265 1173,-265 1173,-244 1085,-244"/>
<text text-anchor="start" x="1104.5" y="-250.8" font-family="Times,serif" font-size="14.00">file_attrs</text>
</g>
<!-- shell_item_data__seq_body2_switch&#45;&gt;file_entry_body__seq -->
<g id="edge8" class="edge"><title>shell_item_data__seq_body2_switch:case1&#45;&gt;file_entry_body__seq</title>
<path fill="none" stroke="black" stroke-width="2" d="M925.5,-297C944.245,-297 964.222,-297 983.489,-297"/>
<polygon fill="black" stroke="black" stroke-width="2" points="983.489,-300.5 993.489,-297 983.489,-293.5 983.489,-300.5"/>
</g>
<!-- shell_item__seq&#45;&gt;windows_shell_items__seq -->
<g id="edge2" class="edge"><title>shell_item__seq:len_data_type&#45;&gt;windows_shell_items__seq:items__repeat</title>
<path fill="none" stroke="#404040" d="M478,-294C493.34,-294 488.003,-270.189 477,-259.5 397.303,-182.079 334.335,-230.778 227,-259.5 209.887,-264.079 206.919,-277.391 194.713,-282.222"/>
<polygon fill="#404040" stroke="#404040" points="193.752,-278.837 184.5,-284 194.952,-285.733 193.752,-278.837"/>
</g>
<!-- shell_item__seq&#45;&gt;shell_item_data__seq -->
<g id="edge11" class="edge"><title>shell_item__seq:data_type&#45;&gt;shell_item_data__seq</title>
<path fill="none" stroke="black" stroke-width="2" d="M478,-273C488.56,-273 499.511,-273 510.506,-273"/>
<polygon fill="black" stroke="black" stroke-width="2" points="510.606,-276.5 520.606,-273 510.606,-269.5 510.606,-276.5"/>
</g>
<!-- shell_item__seq&#45;&gt;shell_item__seq -->
<g id="edge10" class="edge"><title>shell_item__seq:len_data_type&#45;&gt;shell_item__seq:data_size</title>
<path fill="none" stroke="#404040" d="M477.056,-304.317C510.092,-323.117 490.736,-348.5 375.5,-348.5 269.632,-348.5 244.688,-314.806 266.949,-290.964"/>
<polygon fill="#404040" stroke="#404040" points="269.524,-293.369 274.888,-284.233 264.997,-288.03 269.524,-293.369"/>
</g>
</g>
</svg>
