<?xml version="1.0" encoding="UTF-8" standalone="no"?>
<!DOCTYPE svg PUBLIC "-//W3C//DTD SVG 1.1//EN"
 "http://www.w3.org/Graphics/SVG/1.1/DTD/svg11.dtd">
<!-- Generated by graphviz version 2.43.0 (0)
 -->
<!-- Title: %3 Pages: 1 -->
<svg width="1473pt" height="568pt"
 viewBox="0.00 0.00 1473.00 568.00" xmlns="http://www.w3.org/2000/svg" xmlns:xlink="http://www.w3.org/1999/xlink">
<g id="graph0" class="graph" transform="scale(1 1) rotate(0) translate(4 564)">
<title>%3</title>
<polygon fill="white" stroke="transparent" points="-4,4 -4,-564 1469,-564 1469,4 -4,4"/>
<g id="clust1" class="cluster">
<title>cluster__windows_shell_items</title>
<polygon fill="none" stroke="black" stroke-dasharray="1,5" points="8,-8 8,-552 1465,-552 1465,-8 8,-8"/>
<text text-anchor="middle" x="736.5" y="-536.8" font-family="Times,serif" font-size="14.00">WindowsShellItems</text>
</g>
<g id="clust2" class="cluster">
<title>cluster__shell_item_data</title>
<polygon fill="none" stroke="black" stroke-dasharray="1,5" points="627,-207 627,-386 1145,-386 1145,-207 627,-207"/>
<text text-anchor="middle" x="886" y="-370.8" font-family="Times,serif" font-size="14.00">WindowsShellItems::ShellItemData</text>
</g>
<g id="clust3" class="cluster">
<title>cluster__shell_item</title>
<polygon fill="none" stroke="black" stroke-dasharray="1,5" points="268,-251 268,-380 607,-380 607,-251 268,-251"/>
<text text-anchor="middle" x="437.5" y="-364.8" font-family="Times,serif" font-size="14.00">WindowsShellItems::ShellItem</text>
</g>
<g id="clust4" class="cluster">
<title>cluster__root_folder_body</title>
<polygon fill="none" stroke="black" stroke-dasharray="1,5" points="1176,-16 1176,-127 1457,-127 1457,-16 1176,-16"/>
<text text-anchor="middle" x="1316.5" y="-111.8" font-family="Times,serif" font-size="14.00">WindowsShellItems::RootFolderBody</text>
</g>
<g id="clust5" class="cluster">
<title>cluster__volume_body</title>
<polygon fill="none" stroke="black" stroke-dasharray="1,5" points="1188.5,-135 1188.5,-224 1443.5,-224 1443.5,-135 1188.5,-135"/>
<text text-anchor="middle" x="1316" y="-208.8" font-family="Times,serif" font-size="14.00">WindowsShellItems::VolumeBody</text>
</g>
<g id="clust6" class="cluster">
<title>cluster__file_entry_body</title>
<polygon fill="none" stroke="black" stroke-dasharray="1,5" points="1181,-232 1181,-521 1451,-521 1451,-232 1181,-232"/>
<text text-anchor="middle" x="1316" y="-505.8" font-family="Times,serif" font-size="14.00">WindowsShellItems::FileEntryBody</text>
</g>
<!-- windows_shell_items__seq -->
<g id="node1" class="node">
<title>windows_shell_items__seq</title>
<polygon fill="#e0ffe0" stroke="transparent" points="24,-316 24,-337 65,-337 65,-316 24,-316"/>
<polygon fill="none" stroke="black" points="24,-316 24,-337 65,-337 65,-316 24,-316"/>
<text text-anchor="start" x="32" y="-322.8" font-family="Times,serif" font-size="14.00">pos</text>
<polygon fill="#e0ffe0" stroke="transparent" points="65,-316 65,-337 104,-337 104,-316 65,-316"/>
<polygon fill="none" stroke="black" points="65,-316 65,-337 104,-337 104,-316 65,-316"/>
<text text-anchor="start" x="70.5" y="-322.8" font-family="Times,serif" font-size="14.00">size</text>
<polygon fill="#e0ffe0" stroke="transparent" points="104,-316 104,-337 183,-337 183,-316 104,-316"/>
<polygon fill="none" stroke="black" points="104,-316 104,-337 183,-337 183,-316 104,-316"/>
<text text-anchor="start" x="127.5" y="-322.8" font-family="Times,serif" font-size="14.00">type</text>
<polygon fill="#e0ffe0" stroke="transparent" points="183,-316 183,-337 232,-337 232,-316 183,-316"/>
<polygon fill="none" stroke="black" points="183,-316 183,-337 232,-337 232,-316 183,-316"/>
<text text-anchor="start" x="200.5" y="-322.8" font-family="Times,serif" font-size="14.00">id</text>
<polygon fill="none" stroke="black" points="24,-295 24,-316 65,-316 65,-295 24,-295"/>
<text text-anchor="start" x="39.5" y="-301.8" font-family="Times,serif" font-size="14.00">0</text>
<polygon fill="none" stroke="black" points="65,-295 65,-316 104,-316 104,-295 65,-295"/>
<text text-anchor="start" x="77.5" y="-301.8" font-family="Times,serif" font-size="14.00">...</text>
<polygon fill="none" stroke="black" points="104,-295 104,-316 183,-316 183,-295 104,-295"/>
<text text-anchor="start" x="108.5" y="-301.8" font-family="Times,serif" font-size="14.00">ShellItem</text>
<polygon fill="none" stroke="black" points="183,-295 183,-316 232,-316 232,-295 183,-295"/>
<text text-anchor="start" x="187.5" y="-301.8" font-family="Times,serif" font-size="14.00">items</text>
<polygon fill="none" stroke="black" points="24,-274 24,-295 232,-295 232,-274 24,-274"/>
<text text-anchor="start" x="27" y="-280.8" font-family="Times,serif" font-size="14.00">repeat until _.len_data == 0</text>
</g>
<!-- shell_item__seq -->
<g id="node5" class="node">
<title>shell_item__seq</title>
<polygon fill="#e0ffe0" stroke="transparent" points="284.5,-305 284.5,-326 315.5,-326 315.5,-305 284.5,-305"/>
<polygon fill="none" stroke="black" points="284.5,-305 284.5,-326 315.5,-326 315.5,-305 284.5,-305"/>
<text text-anchor="start" x="287.5" y="-311.8" font-family="Times,serif" font-size="14.00">pos</text>
<polygon fill="#e0ffe0" stroke="transparent" points="315.5,-305 315.5,-326 415.5,-326 415.5,-305 315.5,-305"/>
<polygon fill="none" stroke="black" points="315.5,-305 315.5,-326 415.5,-326 415.5,-305 315.5,-305"/>
<text text-anchor="start" x="351.5" y="-311.8" font-family="Times,serif" font-size="14.00">size</text>
<polygon fill="#e0ffe0" stroke="transparent" points="415.5,-305 415.5,-326 524.5,-326 524.5,-305 415.5,-305"/>
<polygon fill="none" stroke="black" points="415.5,-305 415.5,-326 524.5,-326 524.5,-305 415.5,-305"/>
<text text-anchor="start" x="454" y="-311.8" font-family="Times,serif" font-size="14.00">type</text>
<polygon fill="#e0ffe0" stroke="transparent" points="524.5,-305 524.5,-326 591.5,-326 591.5,-305 524.5,-305"/>
<polygon fill="none" stroke="black" points="524.5,-305 524.5,-326 591.5,-326 591.5,-305 524.5,-305"/>
<text text-anchor="start" x="551" y="-311.8" font-family="Times,serif" font-size="14.00">id</text>
<polygon fill="none" stroke="black" points="284.5,-284 284.5,-305 315.5,-305 315.5,-284 284.5,-284"/>
<text text-anchor="start" x="295" y="-290.8" font-family="Times,serif" font-size="14.00">0</text>
<polygon fill="none" stroke="black" points="315.5,-284 315.5,-305 415.5,-305 415.5,-284 315.5,-284"/>
<text text-anchor="start" x="360.5" y="-290.8" font-family="Times,serif" font-size="14.00">2</text>
<polygon fill="none" stroke="black" points="415.5,-284 415.5,-305 524.5,-305 524.5,-284 415.5,-284"/>
<text text-anchor="start" x="454.5" y="-290.8" font-family="Times,serif" font-size="14.00">u2le</text>
<polygon fill="none" stroke="black" points="524.5,-284 524.5,-305 591.5,-305 591.5,-284 524.5,-284"/>
<text text-anchor="start" x="527.5" y="-290.8" font-family="Times,serif" font-size="14.00">len_data</text>
<polygon fill="none" stroke="black" points="284.5,-263 284.5,-284 315.5,-284 315.5,-263 284.5,-263"/>
<text text-anchor="start" x="295" y="-269.8" font-family="Times,serif" font-size="14.00">2</text>
<polygon fill="none" stroke="black" points="315.5,-263 315.5,-284 415.5,-284 415.5,-263 315.5,-263"/>
<text text-anchor="start" x="318.5" y="-269.8" font-family="Times,serif" font-size="14.00">(len_data &#45; 2)</text>
<polygon fill="none" stroke="black" points="415.5,-263 415.5,-284 524.5,-284 524.5,-263 415.5,-263"/>
<text text-anchor="start" x="418.5" y="-269.8" font-family="Times,serif" font-size="14.00">ShellItemData</text>
<polygon fill="none" stroke="black" points="524.5,-263 524.5,-284 591.5,-284 591.5,-263 524.5,-263"/>
<text text-anchor="start" x="542" y="-269.8" font-family="Times,serif" font-size="14.00">data</text>
</g>
<!-- windows_shell_items__seq&#45;&gt;shell_item__seq -->
<g id="edge1" class="edge">
<title>windows_shell_items__seq:items_type&#45;&gt;shell_item__seq</title>
<path fill="none" stroke="black" stroke-width="2" d="M233,-305C243.63,-305 254.57,-304.86 265.6,-304.62"/>
<polygon fill="black" stroke="black" stroke-width="2" points="265.83,-308.11 275.74,-304.37 265.66,-301.12 265.83,-308.11"/>
</g>
<!-- shell_item_data__seq -->
<g id="node2" class="node">
<title>shell_item_data__seq</title>
<polygon fill="#e0ffe0" stroke="transparent" points="643.5,-294 643.5,-315 674.5,-315 674.5,-294 643.5,-294"/>
<polygon fill="none" stroke="black" points="643.5,-294 643.5,-315 674.5,-315 674.5,-294 643.5,-294"/>
<text text-anchor="start" x="646.5" y="-300.8" font-family="Times,serif" font-size="14.00">pos</text>
<polygon fill="#e0ffe0" stroke="transparent" points="674.5,-294 674.5,-315 708.5,-315 708.5,-294 674.5,-294"/>
<polygon fill="none" stroke="black" points="674.5,-294 674.5,-315 708.5,-315 708.5,-294 674.5,-294"/>
<text text-anchor="start" x="677.5" y="-300.8" font-family="Times,serif" font-size="14.00">size</text>
<polygon fill="#e0ffe0" stroke="transparent" points="708.5,-294 708.5,-315 868.5,-315 868.5,-294 708.5,-294"/>
<polygon fill="none" stroke="black" points="708.5,-294 708.5,-315 868.5,-315 868.5,-294 708.5,-294"/>
<text text-anchor="start" x="772.5" y="-300.8" font-family="Times,serif" font-size="14.00">type</text>
<polygon fill="#e0ffe0" stroke="transparent" points="868.5,-294 868.5,-315 918.5,-315 918.5,-294 868.5,-294"/>
<polygon fill="none" stroke="black" points="868.5,-294 868.5,-315 918.5,-315 918.5,-294 868.5,-294"/>
<text text-anchor="start" x="886.5" y="-300.8" font-family="Times,serif" font-size="14.00">id</text>
<polygon fill="none" stroke="black" points="643.5,-273 643.5,-294 674.5,-294 674.5,-273 643.5,-273"/>
<text text-anchor="start" x="654" y="-279.8" font-family="Times,serif" font-size="14.00">0</text>
<polygon fill="none" stroke="black" points="674.5,-273 674.5,-294 708.5,-294 708.5,-273 674.5,-273"/>
<text text-anchor="start" x="686.5" y="-279.8" font-family="Times,serif" font-size="14.00">1</text>
<polygon fill="none" stroke="black" points="708.5,-273 708.5,-294 868.5,-294 868.5,-273 708.5,-273"/>
<text text-anchor="start" x="779" y="-279.8" font-family="Times,serif" font-size="14.00">u1</text>
<polygon fill="none" stroke="black" points="868.5,-273 868.5,-294 918.5,-294 918.5,-273 868.5,-273"/>
<text text-anchor="start" x="876.5" y="-279.8" font-family="Times,serif" font-size="14.00">code</text>
<polygon fill="none" stroke="black" points="643.5,-252 643.5,-273 674.5,-273 674.5,-252 643.5,-252"/>
<text text-anchor="start" x="654" y="-258.8" font-family="Times,serif" font-size="14.00">1</text>
<polygon fill="none" stroke="black" points="674.5,-252 674.5,-273 708.5,-273 708.5,-252 674.5,-252"/>
<text text-anchor="start" x="684.5" y="-258.8" font-family="Times,serif" font-size="14.00">...</text>
<polygon fill="none" stroke="black" points="708.5,-252 708.5,-273 868.5,-273 868.5,-252 708.5,-252"/>
<text text-anchor="start" x="741" y="-258.8" font-family="Times,serif" font-size="14.00">switch (code)</text>
<polygon fill="none" stroke="black" points="868.5,-252 868.5,-273 918.5,-273 918.5,-252 868.5,-252"/>
<text text-anchor="start" x="871.5" y="-258.8" font-family="Times,serif" font-size="14.00">body1</text>
<polygon fill="none" stroke="black" points="643.5,-231 643.5,-252 674.5,-252 674.5,-231 643.5,-231"/>
<text text-anchor="start" x="652" y="-237.8" font-family="Times,serif" font-size="14.00">...</text>
<polygon fill="none" stroke="black" points="674.5,-231 674.5,-252 708.5,-252 708.5,-231 674.5,-231"/>
<text text-anchor="start" x="684.5" y="-237.8" font-family="Times,serif" font-size="14.00">...</text>
<polygon fill="none" stroke="black" points="708.5,-231 708.5,-252 868.5,-252 868.5,-231 708.5,-231"/>
<text text-anchor="start" x="711.5" y="-237.8" font-family="Times,serif" font-size="14.00">switch ((code &amp; 112))</text>
<polygon fill="none" stroke="black" points="868.5,-231 868.5,-252 918.5,-252 918.5,-231 868.5,-231"/>
<text text-anchor="start" x="871.5" y="-237.8" font-family="Times,serif" font-size="14.00">body2</text>
</g>
<!-- shell_item_data__seq&#45;&gt;shell_item_data__seq -->
<g id="edge5" class="edge">
<title>shell_item_data__seq:code_type&#45;&gt;shell_item_data__seq:body1_type</title>
<path fill="none" stroke="#404040" d="M868.37,-293.91C827.94,-313.93 836.31,-337 893.5,-337 946.56,-337 957.6,-303.34 926.61,-278.74"/>
<polygon fill="#404040" stroke="#404040" points="928.57,-275.83 918.35,-273.02 924.58,-281.59 928.57,-275.83"/>
</g>
<!-- shell_item_data__seq&#45;&gt;shell_item_data__seq -->
<g id="edge9" class="edge">
<title>shell_item_data__seq:code_type&#45;&gt;shell_item_data__seq:body2_type</title>
<path fill="none" stroke="#404040" d="M868.37,-293.91C827.94,-313.93 836.31,-337 893.5,-337 947.52,-337 957.98,-288.47 924.9,-258.48"/>
<polygon fill="#404040" stroke="#404040" points="926.68,-255.43 916.65,-252.02 922.37,-260.94 926.68,-255.43"/>
</g>
<!-- shell_item_data__seq_body1_switch -->
<g id="node3" class="node">
<title>shell_item_data__seq_body1_switch</title>
<polygon fill="#f0f2e4" stroke="transparent" points="970.5,-240 970.5,-261 1008.5,-261 1008.5,-240 970.5,-240"/>
<polygon fill="none" stroke="black" points="970.5,-240 970.5,-261 1008.5,-261 1008.5,-240 970.5,-240"/>
<text text-anchor="start" x="973.5" y="-246.8" font-family="Times,serif" font-size="14.00">case</text>
<polygon fill="#f0f2e4" stroke="transparent" points="1008.5,-240 1008.5,-261 1129.5,-261 1129.5,-240 1008.5,-240"/>
<polygon fill="none" stroke="black" points="1008.5,-240 1008.5,-261 1129.5,-261 1129.5,-240 1008.5,-240"/>
<text text-anchor="start" x="1053" y="-246.8" font-family="Times,serif" font-size="14.00">type</text>
<polygon fill="none" stroke="black" points="970.5,-219 970.5,-240 1008.5,-240 1008.5,-219 970.5,-219"/>
<text text-anchor="start" x="980" y="-225.8" font-family="Times,serif" font-size="14.00">31</text>
<polygon fill="none" stroke="black" points="1008.5,-219 1008.5,-240 1129.5,-240 1129.5,-219 1008.5,-219"/>
<text text-anchor="start" x="1011.5" y="-225.8" font-family="Times,serif" font-size="14.00">RootFolderBody</text>
</g>
<!-- shell_item_data__seq&#45;&gt;shell_item_data__seq_body1_switch -->
<g id="edge3" class="edge">
<title>shell_item_data__seq:body1_type&#45;&gt;shell_item_data__seq_body1_switch</title>
<path fill="none" stroke="black" stroke-width="2" d="M919.5,-262C930.02,-262 940.96,-261.28 951.82,-260.1"/>
<polygon fill="black" stroke="black" stroke-width="2" points="952.25,-263.57 961.76,-258.89 951.41,-256.62 952.25,-263.57"/>
</g>
<!-- shell_item_data__seq_body2_switch -->
<g id="node4" class="node">
<title>shell_item_data__seq_body2_switch</title>
<polygon fill="#f0f2e4" stroke="transparent" points="975.5,-329 975.5,-350 1013.5,-350 1013.5,-329 975.5,-329"/>
<polygon fill="none" stroke="black" points="975.5,-329 975.5,-350 1013.5,-350 1013.5,-329 975.5,-329"/>
<text text-anchor="start" x="978.5" y="-335.8" font-family="Times,serif" font-size="14.00">case</text>
<polygon fill="#f0f2e4" stroke="transparent" points="1013.5,-329 1013.5,-350 1123.5,-350 1123.5,-329 1013.5,-329"/>
<polygon fill="none" stroke="black" points="1013.5,-329 1013.5,-350 1123.5,-350 1123.5,-329 1013.5,-329"/>
<text text-anchor="start" x="1052.5" y="-335.8" font-family="Times,serif" font-size="14.00">type</text>
<polygon fill="none" stroke="black" points="975.5,-308 975.5,-329 1013.5,-329 1013.5,-308 975.5,-308"/>
<text text-anchor="start" x="985" y="-314.8" font-family="Times,serif" font-size="14.00">32</text>
<polygon fill="none" stroke="black" points="1013.5,-308 1013.5,-329 1123.5,-329 1123.5,-308 1013.5,-308"/>
<text text-anchor="start" x="1024" y="-314.8" font-family="Times,serif" font-size="14.00">VolumeBody</text>
<polygon fill="none" stroke="black" points="975.5,-287 975.5,-308 1013.5,-308 1013.5,-287 975.5,-287"/>
<text text-anchor="start" x="985" y="-293.8" font-family="Times,serif" font-size="14.00">48</text>
<polygon fill="none" stroke="black" points="1013.5,-287 1013.5,-308 1123.5,-308 1123.5,-287 1013.5,-287"/>
<text text-anchor="start" x="1016.5" y="-293.8" font-family="Times,serif" font-size="14.00">FileEntryBody</text>
</g>
<!-- shell_item_data__seq&#45;&gt;shell_item_data__seq_body2_switch -->
<g id="edge6" class="edge">
<title>shell_item_data__seq:body2_type&#45;&gt;shell_item_data__seq_body2_switch</title>
<path fill="none" stroke="black" stroke-width="2" d="M919.5,-241C943.41,-241 941.87,-261.1 962,-274 964.18,-275.4 966.41,-276.79 968.68,-278.17"/>
<polygon fill="black" stroke="black" stroke-width="2" points="967.17,-281.35 977.56,-283.44 970.75,-275.33 967.17,-281.35"/>
</g>
<!-- file_entry_body__inst__is_dir -->
<g id="node9" class="node">
<title>file_entry_body__inst__is_dir</title>
<polygon fill="#e0ffe0" stroke="transparent" points="1206,-397 1206,-418 1252,-418 1252,-397 1206,-397"/>
<polygon fill="none" stroke="black" points="1206,-397 1206,-418 1252,-418 1252,-397 1206,-397"/>
<text text-anchor="start" x="1222" y="-403.8" font-family="Times,serif" font-size="14.00">id</text>
<polygon fill="#e0ffe0" stroke="transparent" points="1252,-397 1252,-418 1427,-418 1427,-397 1252,-397"/>
<polygon fill="none" stroke="black" points="1252,-397 1252,-418 1427,-418 1427,-397 1252,-397"/>
<text text-anchor="start" x="1320" y="-403.8" font-family="Times,serif" font-size="14.00">value</text>
<polygon fill="none" stroke="black" points="1206,-376 1206,-397 1252,-397 1252,-376 1206,-376"/>
<text text-anchor="start" x="1209" y="-382.8" font-family="Times,serif" font-size="14.00">is_dir</text>
<polygon fill="none" stroke="black" points="1252,-376 1252,-397 1427,-397 1427,-376 1252,-376"/>
<text text-anchor="start" x="1255" y="-382.8" font-family="Times,serif" font-size="14.00">(_parent.code &amp; 1) != 0</text>
</g>
<!-- shell_item_data__seq&#45;&gt;file_entry_body__inst__is_dir -->
<g id="edge12" class="edge">
<title>shell_item_data__seq:code_type&#45;&gt;file_entry_body__inst__is_dir</title>
<path fill="none" stroke="#404040" d="M919.5,-284C959.76,-284 928.5,-341.67 962,-364 1027.43,-407.6 1115.46,-415.91 1187.24,-413.29"/>
<polygon fill="#404040" stroke="#404040" points="1187.42,-416.78 1197.25,-412.84 1187.11,-409.79 1187.42,-416.78"/>
</g>
<!-- file_entry_body__inst__is_file -->
<g id="node10" class="node">
<title>file_entry_body__inst__is_file</title>
<polygon fill="#e0ffe0" stroke="transparent" points="1205,-465 1205,-486 1252,-486 1252,-465 1205,-465"/>
<polygon fill="none" stroke="black" points="1205,-465 1205,-486 1252,-486 1252,-465 1205,-465"/>
<text text-anchor="start" x="1221.5" y="-471.8" font-family="Times,serif" font-size="14.00">id</text>
<polygon fill="#e0ffe0" stroke="transparent" points="1252,-465 1252,-486 1427,-486 1427,-465 1252,-465"/>
<polygon fill="none" stroke="black" points="1252,-465 1252,-486 1427,-486 1427,-465 1252,-465"/>
<text text-anchor="start" x="1320" y="-471.8" font-family="Times,serif" font-size="14.00">value</text>
<polygon fill="none" stroke="black" points="1205,-444 1205,-465 1252,-465 1252,-444 1205,-444"/>
<text text-anchor="start" x="1208" y="-450.8" font-family="Times,serif" font-size="14.00">is_file</text>
<polygon fill="none" stroke="black" points="1252,-444 1252,-465 1427,-465 1427,-444 1252,-444"/>
<text text-anchor="start" x="1255" y="-450.8" font-family="Times,serif" font-size="14.00">(_parent.code &amp; 2) != 0</text>
</g>
<!-- shell_item_data__seq&#45;&gt;file_entry_body__inst__is_file -->
<g id="edge13" class="edge">
<title>shell_item_data__seq:code_type&#45;&gt;file_entry_body__inst__is_file</title>
<path fill="none" stroke="#404040" d="M919.5,-284C971.5,-284 922.23,-359.5 962,-393 1023.79,-445.06 1113.1,-462.91 1186.42,-467.82"/>
<polygon fill="#404040" stroke="#404040" points="1186.47,-471.33 1196.66,-468.43 1186.89,-464.35 1186.47,-471.33"/>
</g>
<!-- root_folder_body__seq -->
<g id="node6" class="node">
<title>root_folder_body__seq</title>
<polygon fill="#e0ffe0" stroke="transparent" points="1210,-70 1210,-91 1241,-91 1241,-70 1210,-70"/>
<polygon fill="none" stroke="black" points="1210,-70 1210,-91 1241,-91 1241,-70 1210,-70"/>
<text text-anchor="start" x="1213" y="-76.8" font-family="Times,serif" font-size="14.00">pos</text>
<polygon fill="#e0ffe0" stroke="transparent" points="1241,-70 1241,-91 1275,-91 1275,-70 1241,-70"/>
<polygon fill="none" stroke="black" points="1241,-70 1241,-91 1275,-91 1275,-70 1241,-70"/>
<text text-anchor="start" x="1244" y="-76.8" font-family="Times,serif" font-size="14.00">size</text>
<polygon fill="#e0ffe0" stroke="transparent" points="1275,-70 1275,-91 1313,-91 1313,-70 1275,-70"/>
<polygon fill="none" stroke="black" points="1275,-70 1275,-91 1313,-91 1313,-70 1275,-70"/>
<text text-anchor="start" x="1278" y="-76.8" font-family="Times,serif" font-size="14.00">type</text>
<polygon fill="#e0ffe0" stroke="transparent" points="1313,-70 1313,-91 1422,-91 1422,-70 1313,-70"/>
<polygon fill="none" stroke="black" points="1313,-70 1313,-91 1422,-91 1422,-70 1313,-70"/>
<text text-anchor="start" x="1360.5" y="-76.8" font-family="Times,serif" font-size="14.00">id</text>
<polygon fill="none" stroke="black" points="1210,-49 1210,-70 1241,-70 1241,-49 1210,-49"/>
<text text-anchor="start" x="1220.5" y="-55.8" font-family="Times,serif" font-size="14.00">0</text>
<polygon fill="none" stroke="black" points="1241,-49 1241,-70 1275,-70 1275,-49 1241,-49"/>
<text text-anchor="start" x="1253" y="-55.8" font-family="Times,serif" font-size="14.00">1</text>
<polygon fill="none" stroke="black" points="1275,-49 1275,-70 1313,-70 1313,-49 1275,-49"/>
<text text-anchor="start" x="1284.5" y="-55.8" font-family="Times,serif" font-size="14.00">u1</text>
<polygon fill="none" stroke="black" points="1313,-49 1313,-70 1422,-70 1422,-49 1313,-49"/>
<text text-anchor="start" x="1330" y="-55.8" font-family="Times,serif" font-size="14.00">sort_index</text>
<polygon fill="none" stroke="black" points="1210,-28 1210,-49 1241,-49 1241,-28 1210,-28"/>
<text text-anchor="start" x="1220.5" y="-34.8" font-family="Times,serif" font-size="14.00">1</text>
<polygon fill="none" stroke="black" points="1241,-28 1241,-49 1275,-49 1275,-28 1241,-28"/>
<text text-anchor="start" x="1248.5" y="-34.8" font-family="Times,serif" font-size="14.00">16</text>
<polygon fill="none" stroke="black" points="1275,-28 1275,-49 1313,-49 1313,-28 1275,-28"/>
<polygon fill="none" stroke="black" points="1313,-28 1313,-49 1422,-49 1422,-28 1313,-28"/>
<text text-anchor="start" x="1316" y="-34.8" font-family="Times,serif" font-size="14.00">shell_folder_id</text>
</g>
<!-- shell_item_data__seq_body1_switch&#45;&gt;root_folder_body__seq -->
<g id="edge4" class="edge">
<title>shell_item_data__seq_body1_switch:case0&#45;&gt;root_folder_body__seq</title>
<path fill="none" stroke="black" stroke-width="2" d="M1130.5,-229C1178.52,-229 1142.69,-165.59 1176,-131 1187.21,-119.36 1200.74,-109.29 1214.89,-100.7"/>
<polygon fill="black" stroke="black" stroke-width="2" points="1216.89,-103.58 1223.78,-95.53 1213.37,-97.53 1216.89,-103.58"/>
</g>
<!-- volume_body__seq -->
<g id="node7" class="node">
<title>volume_body__seq</title>
<polygon fill="#e0ffe0" stroke="transparent" points="1245,-168 1245,-189 1276,-189 1276,-168 1245,-168"/>
<polygon fill="none" stroke="black" points="1245,-168 1245,-189 1276,-189 1276,-168 1245,-168"/>
<text text-anchor="start" x="1248" y="-174.8" font-family="Times,serif" font-size="14.00">pos</text>
<polygon fill="#e0ffe0" stroke="transparent" points="1276,-168 1276,-189 1310,-189 1310,-168 1276,-168"/>
<polygon fill="none" stroke="black" points="1276,-168 1276,-189 1310,-189 1310,-168 1276,-168"/>
<text text-anchor="start" x="1279" y="-174.8" font-family="Times,serif" font-size="14.00">size</text>
<polygon fill="#e0ffe0" stroke="transparent" points="1310,-168 1310,-189 1348,-189 1348,-168 1310,-168"/>
<polygon fill="none" stroke="black" points="1310,-168 1310,-189 1348,-189 1348,-168 1310,-168"/>
<text text-anchor="start" x="1313" y="-174.8" font-family="Times,serif" font-size="14.00">type</text>
<polygon fill="#e0ffe0" stroke="transparent" points="1348,-168 1348,-189 1388,-189 1388,-168 1348,-168"/>
<polygon fill="none" stroke="black" points="1348,-168 1348,-189 1388,-189 1388,-168 1348,-168"/>
<text text-anchor="start" x="1361" y="-174.8" font-family="Times,serif" font-size="14.00">id</text>
<polygon fill="none" stroke="black" points="1245,-147 1245,-168 1276,-168 1276,-147 1245,-147"/>
<text text-anchor="start" x="1255.5" y="-153.8" font-family="Times,serif" font-size="14.00">0</text>
<polygon fill="none" stroke="black" points="1276,-147 1276,-168 1310,-168 1310,-147 1276,-147"/>
<text text-anchor="start" x="1288" y="-153.8" font-family="Times,serif" font-size="14.00">1</text>
<polygon fill="none" stroke="black" points="1310,-147 1310,-168 1348,-168 1348,-147 1310,-147"/>
<text text-anchor="start" x="1319.5" y="-153.8" font-family="Times,serif" font-size="14.00">u1</text>
<polygon fill="none" stroke="black" points="1348,-147 1348,-168 1388,-168 1388,-147 1348,-147"/>
<text text-anchor="start" x="1351" y="-153.8" font-family="Times,serif" font-size="14.00">flags</text>
</g>
<!-- shell_item_data__seq_body2_switch&#45;&gt;volume_body__seq -->
<g id="edge7" class="edge">
<title>shell_item_data__seq_body2_switch:case0&#45;&gt;volume_body__seq</title>
<path fill="none" stroke="black" stroke-width="2" d="M1124.5,-318C1170.59,-318 1141.64,-258.71 1176,-228 1190.69,-214.88 1208.69,-204.29 1226.8,-195.89"/>
<polygon fill="black" stroke="black" stroke-width="2" points="1228.54,-198.95 1236.27,-191.69 1225.71,-192.55 1228.54,-198.95"/>
</g>
<!-- file_entry_body__seq -->
<g id="node8" class="node">
<title>file_entry_body__seq</title>
<polygon fill="#e0ffe0" stroke="transparent" points="1210,-328 1210,-349 1241,-349 1241,-328 1210,-328"/>
<polygon fill="none" stroke="black" points="1210,-328 1210,-349 1241,-349 1241,-328 1210,-328"/>
<text text-anchor="start" x="1213" y="-334.8" font-family="Times,serif" font-size="14.00">pos</text>
<polygon fill="#e0ffe0" stroke="transparent" points="1241,-328 1241,-349 1275,-349 1275,-328 1241,-328"/>
<polygon fill="none" stroke="black" points="1241,-328 1241,-349 1275,-349 1275,-328 1241,-328"/>
<text text-anchor="start" x="1244" y="-334.8" font-family="Times,serif" font-size="14.00">size</text>
<polygon fill="#e0ffe0" stroke="transparent" points="1275,-328 1275,-349 1313,-349 1313,-328 1275,-328"/>
<polygon fill="none" stroke="black" points="1275,-328 1275,-349 1313,-349 1313,-328 1275,-328"/>
<text text-anchor="start" x="1278" y="-334.8" font-family="Times,serif" font-size="14.00">type</text>
<polygon fill="#e0ffe0" stroke="transparent" points="1313,-328 1313,-349 1422,-349 1422,-328 1313,-328"/>
<polygon fill="none" stroke="black" points="1313,-328 1313,-349 1422,-349 1422,-328 1313,-328"/>
<text text-anchor="start" x="1360.5" y="-334.8" font-family="Times,serif" font-size="14.00">id</text>
<polygon fill="none" stroke="black" points="1210,-307 1210,-328 1241,-328 1241,-307 1210,-307"/>
<text text-anchor="start" x="1220.5" y="-313.8" font-family="Times,serif" font-size="14.00">0</text>
<polygon fill="none" stroke="black" points="1241,-307 1241,-328 1275,-328 1275,-307 1241,-307"/>
<text text-anchor="start" x="1253" y="-313.8" font-family="Times,serif" font-size="14.00">1</text>
<polygon fill="none" stroke="black" points="1275,-307 1275,-328 1313,-328 1313,-307 1275,-307"/>
<text text-anchor="start" x="1284.5" y="-313.8" font-family="Times,serif" font-size="14.00">u1</text>
<polygon fill="none" stroke="black" points="1313,-307 1313,-328 1422,-328 1422,-307 1313,-307"/>
<text text-anchor="start" x="1326.5" y="-313.8" font-family="Times,serif" font-size="14.00">_unnamed0</text>
<polygon fill="none" stroke="black" points="1210,-286 1210,-307 1241,-307 1241,-286 1210,-286"/>
<text text-anchor="start" x="1220.5" y="-292.8" font-family="Times,serif" font-size="14.00">1</text>
<polygon fill="none" stroke="black" points="1241,-286 1241,-307 1275,-307 1275,-286 1241,-286"/>
<text text-anchor="start" x="1253" y="-292.8" font-family="Times,serif" font-size="14.00">4</text>
<polygon fill="none" stroke="black" points="1275,-286 1275,-307 1313,-307 1313,-286 1275,-286"/>
<text text-anchor="start" x="1278.5" y="-292.8" font-family="Times,serif" font-size="14.00">u4le</text>
<polygon fill="none" stroke="black" points="1313,-286 1313,-307 1422,-307 1422,-286 1313,-286"/>
<text text-anchor="start" x="1339" y="-292.8" font-family="Times,serif" font-size="14.00">file_size</text>
<polygon fill="none" stroke="black" points="1210,-265 1210,-286 1241,-286 1241,-265 1210,-265"/>
<text text-anchor="start" x="1220.5" y="-271.8" font-family="Times,serif" font-size="14.00">5</text>
<polygon fill="none" stroke="black" points="1241,-265 1241,-286 1275,-286 1275,-265 1241,-265"/>
<text text-anchor="start" x="1253" y="-271.8" font-family="Times,serif" font-size="14.00">4</text>
<polygon fill="none" stroke="black" points="1275,-265 1275,-286 1313,-286 1313,-265 1275,-265"/>
<text text-anchor="start" x="1278.5" y="-271.8" font-family="Times,serif" font-size="14.00">u4le</text>
<polygon fill="none" stroke="black" points="1313,-265 1313,-286 1422,-286 1422,-265 1313,-265"/>
<text text-anchor="start" x="1316" y="-271.8" font-family="Times,serif" font-size="14.00">last_mod_time</text>
<polygon fill="none" stroke="black" points="1210,-244 1210,-265 1241,-265 1241,-244 1210,-244"/>
<text text-anchor="start" x="1220.5" y="-250.8" font-family="Times,serif" font-size="14.00">9</text>
<polygon fill="none" stroke="black" points="1241,-244 1241,-265 1275,-265 1275,-244 1241,-244"/>
<text text-anchor="start" x="1253" y="-250.8" font-family="Times,serif" font-size="14.00">2</text>
<polygon fill="none" stroke="black" points="1275,-244 1275,-265 1313,-265 1313,-244 1275,-244"/>
<text text-anchor="start" x="1278.5" y="-250.8" font-family="Times,serif" font-size="14.00">u2le</text>
<polygon fill="none" stroke="black" points="1313,-244 1313,-265 1422,-265 1422,-244 1313,-244"/>
<text text-anchor="start" x="1335.5" y="-250.8" font-family="Times,serif" font-size="14.00">file_attrs</text>
</g>
<!-- shell_item_data__seq_body2_switch&#45;&gt;file_entry_body__seq -->
<g id="edge8" class="edge">
<title>shell_item_data__seq_body2_switch:case1&#45;&gt;file_entry_body__seq</title>
<path fill="none" stroke="black" stroke-width="2" d="M1124.5,-297C1146.23,-297 1169.34,-297 1191.71,-297"/>
<polygon fill="black" stroke="black" stroke-width="2" points="1191.93,-300.5 1201.93,-297 1191.93,-293.5 1191.93,-300.5"/>
</g>
<!-- shell_item__seq&#45;&gt;windows_shell_items__seq -->
<g id="edge2" class="edge">
<title>shell_item__seq:len_data_type&#45;&gt;windows_shell_items__seq:items__repeat</title>
<path fill="none" stroke="#404040" d="M592.5,-294C607.84,-294 602.5,-270.19 591.5,-259.5 490.92,-161.79 411.55,-223.59 276,-259.5 258.56,-264.12 255.6,-277.65 242.96,-282.36"/>
<polygon fill="#404040" stroke="#404040" points="242.3,-278.92 233,-284 243.44,-285.83 242.3,-278.92"/>
</g>
<!-- shell_item__seq&#45;&gt;shell_item_data__seq -->
<g id="edge11" class="edge">
<title>shell_item__seq:data_type&#45;&gt;shell_item_data__seq</title>
<path fill="none" stroke="black" stroke-width="2" d="M592.5,-273C603,-273 613.84,-273 624.75,-273"/>
<polygon fill="black" stroke="black" stroke-width="2" points="624.79,-276.5 634.79,-273 624.79,-269.5 624.79,-276.5"/>
</g>
<!-- shell_item__seq&#45;&gt;shell_item__seq -->
<g id="edge10" class="edge">
<title>shell_item__seq:len_data_type&#45;&gt;shell_item__seq:data_size</title>
<path fill="none" stroke="#404040" d="M591.72,-304.98C630.02,-323.71 604.66,-348.5 462,-348.5 327.36,-348.5 297.2,-313.77 326.43,-289.88"/>
<polygon fill="#404040" stroke="#404040" points="328.76,-292.54 335.12,-284.07 324.86,-286.72 328.76,-292.54"/>
</g>
</g>
</svg>
