<?xml version="1.0" encoding="UTF-8" standalone="no"?>
<!DOCTYPE svg PUBLIC "-//W3C//DTD SVG 1.1//EN"
 "http://www.w3.org/Graphics/SVG/1.1/DTD/svg11.dtd">
<!-- Generated by graphviz version 2.43.0 (0)
 -->
<!-- Title: %3 Pages: 1 -->
<svg width="1221pt" height="460pt"
 viewBox="0.00 0.00 1221.00 460.00" xmlns="http://www.w3.org/2000/svg" xmlns:xlink="http://www.w3.org/1999/xlink">
<g id="graph0" class="graph" transform="scale(1 1) rotate(0) translate(4 456)">
<title>%3</title>
<polygon fill="white" stroke="transparent" points="-4,4 -4,-456 1217,-456 1217,4 -4,4"/>
<g id="clust1" class="cluster">
<title>cluster__shapefile_index</title>
<polygon fill="none" stroke="black" stroke-dasharray="1,5" points="8,-8 8,-444 1213,-444 1213,-8 8,-8"/>
<text text-anchor="middle" x="610.5" y="-428.8" font-family="Times,serif" font-size="14.00">ShapefileIndex</text>
</g>
<g id="clust2" class="cluster">
<title>cluster__bounding_box_x_y_z_m</title>
<polygon fill="none" stroke="black" stroke-dasharray="1,5" points="657,-91 657,-244 926,-244 926,-91 657,-91"/>
<text text-anchor="middle" x="791.5" y="-228.8" font-family="Times,serif" font-size="14.00">ShapefileIndex::BoundingBoxXYZM</text>
</g>
<g id="clust3" class="cluster">
<title>cluster__bounds_min_max</title>
<polygon fill="none" stroke="black" stroke-dasharray="1,5" points="962,-100 962,-211 1205,-211 1205,-100 962,-100"/>
<text text-anchor="middle" x="1083.5" y="-195.8" font-family="Times,serif" font-size="14.00">ShapefileIndex::BoundsMinMax</text>
</g>
<g id="clust4" class="cluster">
<title>cluster__file_header</title>
<polygon fill="none" stroke="black" stroke-dasharray="1,5" points="275,-135 275,-413 629,-413 629,-135 275,-135"/>
<text text-anchor="middle" x="452" y="-397.8" font-family="Times,serif" font-size="14.00">ShapefileIndex::FileHeader</text>
</g>
<g id="clust5" class="cluster">
<title>cluster__record</title>
<polygon fill="none" stroke="black" stroke-dasharray="1,5" points="327,-16 327,-127 577,-127 577,-16 327,-16"/>
<text text-anchor="middle" x="452" y="-111.8" font-family="Times,serif" font-size="14.00">ShapefileIndex::Record</text>
</g>
<!-- shapefile_index__seq -->
<g id="node1" class="node">
<title>shapefile_index__seq</title>
<polygon fill="#e0ffe0" stroke="transparent" points="24.5,-182 24.5,-203 58.5,-203 58.5,-182 24.5,-182"/>
<polygon fill="none" stroke="black" points="24.5,-182 24.5,-203 58.5,-203 58.5,-182 24.5,-182"/>
<text text-anchor="start" x="29" y="-188.8" font-family="Times,serif" font-size="14.00">pos</text>
<polygon fill="#e0ffe0" stroke="transparent" points="58.5,-182 58.5,-203 92.5,-203 92.5,-182 58.5,-182"/>
<polygon fill="none" stroke="black" points="58.5,-182 58.5,-203 92.5,-203 92.5,-182 58.5,-182"/>
<text text-anchor="start" x="61.5" y="-188.8" font-family="Times,serif" font-size="14.00">size</text>
<polygon fill="#e0ffe0" stroke="transparent" points="92.5,-182 92.5,-203 178.5,-203 178.5,-182 92.5,-182"/>
<polygon fill="none" stroke="black" points="92.5,-182 92.5,-203 178.5,-203 178.5,-182 92.5,-182"/>
<text text-anchor="start" x="119.5" y="-188.8" font-family="Times,serif" font-size="14.00">type</text>
<polygon fill="#e0ffe0" stroke="transparent" points="178.5,-182 178.5,-203 239.5,-203 239.5,-182 178.5,-182"/>
<polygon fill="none" stroke="black" points="178.5,-182 178.5,-203 239.5,-203 239.5,-182 178.5,-182"/>
<text text-anchor="start" x="202" y="-188.8" font-family="Times,serif" font-size="14.00">id</text>
<polygon fill="none" stroke="black" points="24.5,-161 24.5,-182 58.5,-182 58.5,-161 24.5,-161"/>
<text text-anchor="start" x="36.5" y="-167.8" font-family="Times,serif" font-size="14.00">0</text>
<polygon fill="none" stroke="black" points="58.5,-161 58.5,-182 92.5,-182 92.5,-161 58.5,-161"/>
<text text-anchor="start" x="61.5" y="-167.8" font-family="Times,serif" font-size="14.00">100</text>
<polygon fill="none" stroke="black" points="92.5,-161 92.5,-182 178.5,-182 178.5,-161 92.5,-161"/>
<text text-anchor="start" x="95.5" y="-167.8" font-family="Times,serif" font-size="14.00">FileHeader</text>
<polygon fill="none" stroke="black" points="178.5,-161 178.5,-182 239.5,-182 239.5,-161 178.5,-161"/>
<text text-anchor="start" x="184" y="-167.8" font-family="Times,serif" font-size="14.00">header</text>
<polygon fill="none" stroke="black" points="24.5,-140 24.5,-161 58.5,-161 58.5,-140 24.5,-140"/>
<text text-anchor="start" x="27.5" y="-146.8" font-family="Times,serif" font-size="14.00">100</text>
<polygon fill="none" stroke="black" points="58.5,-140 58.5,-161 92.5,-161 92.5,-140 58.5,-140"/>
<text text-anchor="start" x="70.5" y="-146.8" font-family="Times,serif" font-size="14.00">8</text>
<polygon fill="none" stroke="black" points="92.5,-140 92.5,-161 178.5,-161 178.5,-140 92.5,-140"/>
<text text-anchor="start" x="110" y="-146.8" font-family="Times,serif" font-size="14.00">Record</text>
<polygon fill="none" stroke="black" points="178.5,-140 178.5,-161 239.5,-161 239.5,-140 178.5,-140"/>
<text text-anchor="start" x="181.5" y="-146.8" font-family="Times,serif" font-size="14.00">records</text>
<polygon fill="none" stroke="black" points="24.5,-119 24.5,-140 239.5,-140 239.5,-119 24.5,-119"/>
<text text-anchor="start" x="47.5" y="-125.8" font-family="Times,serif" font-size="14.00">repeat to end of stream</text>
</g>
<!-- file_header__seq -->
<g id="node4" class="node">
<title>file_header__seq</title>
<polygon fill="#e0ffe0" stroke="transparent" points="291,-356 291,-377 322,-377 322,-356 291,-356"/>
<polygon fill="none" stroke="black" points="291,-356 291,-377 322,-377 322,-356 291,-356"/>
<text text-anchor="start" x="294" y="-362.8" font-family="Times,serif" font-size="14.00">pos</text>
<polygon fill="#e0ffe0" stroke="transparent" points="322,-356 322,-377 356,-377 356,-356 322,-356"/>
<polygon fill="none" stroke="black" points="322,-356 322,-377 356,-377 356,-356 322,-356"/>
<text text-anchor="start" x="325" y="-362.8" font-family="Times,serif" font-size="14.00">size</text>
<polygon fill="#e0ffe0" stroke="transparent" points="356,-356 356,-377 501,-377 501,-356 356,-356"/>
<polygon fill="none" stroke="black" points="356,-356 356,-377 501,-377 501,-356 356,-356"/>
<text text-anchor="start" x="412.5" y="-362.8" font-family="Times,serif" font-size="14.00">type</text>
<polygon fill="#e0ffe0" stroke="transparent" points="501,-356 501,-377 613,-377 613,-356 501,-356"/>
<polygon fill="none" stroke="black" points="501,-356 501,-377 613,-377 613,-356 501,-356"/>
<text text-anchor="start" x="550" y="-362.8" font-family="Times,serif" font-size="14.00">id</text>
<polygon fill="none" stroke="black" points="291,-335 291,-356 322,-356 322,-335 291,-335"/>
<text text-anchor="start" x="301.5" y="-341.8" font-family="Times,serif" font-size="14.00">0</text>
<polygon fill="none" stroke="black" points="322,-335 322,-356 356,-356 356,-335 322,-335"/>
<text text-anchor="start" x="334" y="-341.8" font-family="Times,serif" font-size="14.00">4</text>
<polygon fill="none" stroke="black" points="356,-335 356,-356 501,-356 501,-335 356,-335"/>
<text text-anchor="start" x="385" y="-341.8" font-family="Times,serif" font-size="14.00">00 00 27 0A</text>
<polygon fill="none" stroke="black" points="501,-335 501,-356 613,-356 613,-335 501,-335"/>
<text text-anchor="start" x="526" y="-341.8" font-family="Times,serif" font-size="14.00">file_code</text>
<polygon fill="none" stroke="black" points="291,-314 291,-335 322,-335 322,-314 291,-314"/>
<text text-anchor="start" x="301.5" y="-320.8" font-family="Times,serif" font-size="14.00">4</text>
<polygon fill="none" stroke="black" points="322,-314 322,-335 356,-335 356,-314 322,-314"/>
<text text-anchor="start" x="334" y="-320.8" font-family="Times,serif" font-size="14.00">4</text>
<polygon fill="none" stroke="black" points="356,-314 356,-335 501,-335 501,-314 356,-314"/>
<text text-anchor="start" x="385.5" y="-320.8" font-family="Times,serif" font-size="14.00">00 00 00 00</text>
<polygon fill="none" stroke="black" points="501,-314 501,-335 613,-335 613,-314 501,-314"/>
<text text-anchor="start" x="504" y="-320.8" font-family="Times,serif" font-size="14.00">unused_field_1</text>
<polygon fill="none" stroke="black" points="291,-293 291,-314 322,-314 322,-293 291,-293"/>
<text text-anchor="start" x="301.5" y="-299.8" font-family="Times,serif" font-size="14.00">8</text>
<polygon fill="none" stroke="black" points="322,-293 322,-314 356,-314 356,-293 322,-293"/>
<text text-anchor="start" x="334" y="-299.8" font-family="Times,serif" font-size="14.00">4</text>
<polygon fill="none" stroke="black" points="356,-293 356,-314 501,-314 501,-293 356,-293"/>
<text text-anchor="start" x="385.5" y="-299.8" font-family="Times,serif" font-size="14.00">00 00 00 00</text>
<polygon fill="none" stroke="black" points="501,-293 501,-314 613,-314 613,-293 501,-293"/>
<text text-anchor="start" x="504" y="-299.8" font-family="Times,serif" font-size="14.00">unused_field_2</text>
<polygon fill="none" stroke="black" points="291,-272 291,-293 322,-293 322,-272 291,-272"/>
<text text-anchor="start" x="297" y="-278.8" font-family="Times,serif" font-size="14.00">12</text>
<polygon fill="none" stroke="black" points="322,-272 322,-293 356,-293 356,-272 322,-272"/>
<text text-anchor="start" x="334" y="-278.8" font-family="Times,serif" font-size="14.00">4</text>
<polygon fill="none" stroke="black" points="356,-272 356,-293 501,-293 501,-272 356,-272"/>
<text text-anchor="start" x="385.5" y="-278.8" font-family="Times,serif" font-size="14.00">00 00 00 00</text>
<polygon fill="none" stroke="black" points="501,-272 501,-293 613,-293 613,-272 501,-272"/>
<text text-anchor="start" x="504" y="-278.8" font-family="Times,serif" font-size="14.00">unused_field_3</text>
<polygon fill="none" stroke="black" points="291,-251 291,-272 322,-272 322,-251 291,-251"/>
<text text-anchor="start" x="297" y="-257.8" font-family="Times,serif" font-size="14.00">16</text>
<polygon fill="none" stroke="black" points="322,-251 322,-272 356,-272 356,-251 322,-251"/>
<text text-anchor="start" x="334" y="-257.8" font-family="Times,serif" font-size="14.00">4</text>
<polygon fill="none" stroke="black" points="356,-251 356,-272 501,-272 501,-251 356,-251"/>
<text text-anchor="start" x="385.5" y="-257.8" font-family="Times,serif" font-size="14.00">00 00 00 00</text>
<polygon fill="none" stroke="black" points="501,-251 501,-272 613,-272 613,-251 501,-251"/>
<text text-anchor="start" x="504" y="-257.8" font-family="Times,serif" font-size="14.00">unused_field_4</text>
<polygon fill="none" stroke="black" points="291,-230 291,-251 322,-251 322,-230 291,-230"/>
<text text-anchor="start" x="297" y="-236.8" font-family="Times,serif" font-size="14.00">20</text>
<polygon fill="none" stroke="black" points="322,-230 322,-251 356,-251 356,-230 322,-230"/>
<text text-anchor="start" x="334" y="-236.8" font-family="Times,serif" font-size="14.00">4</text>
<polygon fill="none" stroke="black" points="356,-230 356,-251 501,-251 501,-230 356,-230"/>
<text text-anchor="start" x="385.5" y="-236.8" font-family="Times,serif" font-size="14.00">00 00 00 00</text>
<polygon fill="none" stroke="black" points="501,-230 501,-251 613,-251 613,-230 501,-230"/>
<text text-anchor="start" x="504" y="-236.8" font-family="Times,serif" font-size="14.00">unused_field_5</text>
<polygon fill="none" stroke="black" points="291,-209 291,-230 322,-230 322,-209 291,-209"/>
<text text-anchor="start" x="297" y="-215.8" font-family="Times,serif" font-size="14.00">24</text>
<polygon fill="none" stroke="black" points="322,-209 322,-230 356,-230 356,-209 322,-209"/>
<text text-anchor="start" x="334" y="-215.8" font-family="Times,serif" font-size="14.00">4</text>
<polygon fill="none" stroke="black" points="356,-209 356,-230 501,-230 501,-209 356,-209"/>
<text text-anchor="start" x="411.5" y="-215.8" font-family="Times,serif" font-size="14.00">s4be</text>
<polygon fill="none" stroke="black" points="501,-209 501,-230 613,-230 613,-209 501,-209"/>
<text text-anchor="start" x="519.5" y="-215.8" font-family="Times,serif" font-size="14.00">file_length</text>
<polygon fill="none" stroke="black" points="291,-188 291,-209 322,-209 322,-188 291,-188"/>
<text text-anchor="start" x="297" y="-194.8" font-family="Times,serif" font-size="14.00">28</text>
<polygon fill="none" stroke="black" points="322,-188 322,-209 356,-209 356,-188 322,-188"/>
<text text-anchor="start" x="334" y="-194.8" font-family="Times,serif" font-size="14.00">4</text>
<polygon fill="none" stroke="black" points="356,-188 356,-209 501,-209 501,-188 356,-188"/>
<text text-anchor="start" x="384.5" y="-194.8" font-family="Times,serif" font-size="14.00">E8 03 00 00</text>
<polygon fill="none" stroke="black" points="501,-188 501,-209 613,-209 613,-188 501,-188"/>
<text text-anchor="start" x="530.5" y="-194.8" font-family="Times,serif" font-size="14.00">version</text>
<polygon fill="none" stroke="black" points="291,-167 291,-188 322,-188 322,-167 291,-167"/>
<text text-anchor="start" x="297" y="-173.8" font-family="Times,serif" font-size="14.00">32</text>
<polygon fill="none" stroke="black" points="322,-167 322,-188 356,-188 356,-167 322,-167"/>
<text text-anchor="start" x="334" y="-173.8" font-family="Times,serif" font-size="14.00">4</text>
<polygon fill="none" stroke="black" points="356,-167 356,-188 501,-188 501,-167 356,-167"/>
<text text-anchor="start" x="368" y="-173.8" font-family="Times,serif" font-size="14.00">s4le→ShapeType</text>
<polygon fill="none" stroke="black" points="501,-167 501,-188 613,-188 613,-167 501,-167"/>
<text text-anchor="start" x="516.5" y="-173.8" font-family="Times,serif" font-size="14.00">shape_type</text>
<polygon fill="none" stroke="black" points="291,-146 291,-167 322,-167 322,-146 291,-146"/>
<text text-anchor="start" x="297" y="-152.8" font-family="Times,serif" font-size="14.00">36</text>
<polygon fill="none" stroke="black" points="322,-146 322,-167 356,-167 356,-146 322,-146"/>
<text text-anchor="start" x="329.5" y="-152.8" font-family="Times,serif" font-size="14.00">64</text>
<polygon fill="none" stroke="black" points="356,-146 356,-167 501,-167 501,-146 356,-146"/>
<text text-anchor="start" x="359" y="-152.8" font-family="Times,serif" font-size="14.00">BoundingBoxXYZM</text>
<polygon fill="none" stroke="black" points="501,-146 501,-167 613,-167 613,-146 501,-146"/>
<text text-anchor="start" x="507" y="-152.8" font-family="Times,serif" font-size="14.00">bounding_box</text>
</g>
<!-- shapefile_index__seq&#45;&gt;file_header__seq -->
<g id="edge1" class="edge">
<title>shapefile_index__seq:header_type&#45;&gt;file_header__seq</title>
<path fill="none" stroke="black" stroke-width="2" d="M240.5,-172C251.3,-172 262.18,-173.01 273.01,-174.83"/>
<polygon fill="black" stroke="black" stroke-width="2" points="272.45,-178.28 282.92,-176.71 273.75,-171.41 272.45,-178.28"/>
</g>
<!-- record__seq -->
<g id="node5" class="node">
<title>record__seq</title>
<polygon fill="#e0ffe0" stroke="transparent" points="343,-70 343,-91 374,-91 374,-70 343,-70"/>
<polygon fill="none" stroke="black" points="343,-70 343,-91 374,-91 374,-70 343,-70"/>
<text text-anchor="start" x="346" y="-76.8" font-family="Times,serif" font-size="14.00">pos</text>
<polygon fill="#e0ffe0" stroke="transparent" points="374,-70 374,-91 408,-91 408,-70 374,-70"/>
<polygon fill="none" stroke="black" points="374,-70 374,-91 408,-91 408,-70 374,-70"/>
<text text-anchor="start" x="377" y="-76.8" font-family="Times,serif" font-size="14.00">size</text>
<polygon fill="#e0ffe0" stroke="transparent" points="408,-70 408,-91 448,-91 448,-70 408,-70"/>
<polygon fill="none" stroke="black" points="408,-70 408,-91 448,-91 448,-70 408,-70"/>
<text text-anchor="start" x="412" y="-76.8" font-family="Times,serif" font-size="14.00">type</text>
<polygon fill="#e0ffe0" stroke="transparent" points="448,-70 448,-91 561,-91 561,-70 448,-70"/>
<polygon fill="none" stroke="black" points="448,-70 448,-91 561,-91 561,-70 448,-70"/>
<text text-anchor="start" x="497.5" y="-76.8" font-family="Times,serif" font-size="14.00">id</text>
<polygon fill="none" stroke="black" points="343,-49 343,-70 374,-70 374,-49 343,-49"/>
<text text-anchor="start" x="353.5" y="-55.8" font-family="Times,serif" font-size="14.00">0</text>
<polygon fill="none" stroke="black" points="374,-49 374,-70 408,-70 408,-49 374,-49"/>
<text text-anchor="start" x="386" y="-55.8" font-family="Times,serif" font-size="14.00">4</text>
<polygon fill="none" stroke="black" points="408,-49 408,-70 448,-70 448,-49 408,-49"/>
<text text-anchor="start" x="411" y="-55.8" font-family="Times,serif" font-size="14.00">s4be</text>
<polygon fill="none" stroke="black" points="448,-49 448,-70 561,-70 561,-49 448,-49"/>
<text text-anchor="start" x="484.5" y="-55.8" font-family="Times,serif" font-size="14.00">offset</text>
<polygon fill="none" stroke="black" points="343,-28 343,-49 374,-49 374,-28 343,-28"/>
<text text-anchor="start" x="353.5" y="-34.8" font-family="Times,serif" font-size="14.00">4</text>
<polygon fill="none" stroke="black" points="374,-28 374,-49 408,-49 408,-28 374,-28"/>
<text text-anchor="start" x="386" y="-34.8" font-family="Times,serif" font-size="14.00">4</text>
<polygon fill="none" stroke="black" points="408,-28 408,-49 448,-49 448,-28 408,-28"/>
<text text-anchor="start" x="411" y="-34.8" font-family="Times,serif" font-size="14.00">s4be</text>
<polygon fill="none" stroke="black" points="448,-28 448,-49 561,-49 561,-28 448,-28"/>
<text text-anchor="start" x="451" y="-34.8" font-family="Times,serif" font-size="14.00">content_length</text>
</g>
<!-- shapefile_index__seq&#45;&gt;record__seq -->
<g id="edge2" class="edge">
<title>shapefile_index__seq:records_type&#45;&gt;record__seq</title>
<path fill="none" stroke="black" stroke-width="2" d="M240.5,-150C258,-150 259.19,-138.51 275,-131 298.12,-120.02 323.42,-109.16 347.44,-99.37"/>
<polygon fill="black" stroke="black" stroke-width="2" points="348.97,-102.52 356.93,-95.53 346.35,-96.04 348.97,-102.52"/>
</g>
<!-- bounding_box_x_y_z_m__seq -->
<g id="node2" class="node">
<title>bounding_box_x_y_z_m__seq</title>
<polygon fill="#e0ffe0" stroke="transparent" points="690.5,-187 690.5,-208 721.5,-208 721.5,-187 690.5,-187"/>
<polygon fill="none" stroke="black" points="690.5,-187 690.5,-208 721.5,-208 721.5,-187 690.5,-187"/>
<text text-anchor="start" x="693.5" y="-193.8" font-family="Times,serif" font-size="14.00">pos</text>
<polygon fill="#e0ffe0" stroke="transparent" points="721.5,-187 721.5,-208 755.5,-208 755.5,-187 721.5,-187"/>
<polygon fill="none" stroke="black" points="721.5,-187 721.5,-208 755.5,-208 755.5,-187 721.5,-187"/>
<text text-anchor="start" x="724.5" y="-193.8" font-family="Times,serif" font-size="14.00">size</text>
<polygon fill="#e0ffe0" stroke="transparent" points="755.5,-187 755.5,-208 873.5,-208 873.5,-187 755.5,-187"/>
<polygon fill="none" stroke="black" points="755.5,-187 755.5,-208 873.5,-208 873.5,-187 755.5,-187"/>
<text text-anchor="start" x="798.5" y="-193.8" font-family="Times,serif" font-size="14.00">type</text>
<polygon fill="#e0ffe0" stroke="transparent" points="873.5,-187 873.5,-208 893.5,-208 893.5,-187 873.5,-187"/>
<polygon fill="none" stroke="black" points="873.5,-187 873.5,-208 893.5,-208 893.5,-187 873.5,-187"/>
<text text-anchor="start" x="876.5" y="-193.8" font-family="Times,serif" font-size="14.00">id</text>
<polygon fill="none" stroke="black" points="690.5,-166 690.5,-187 721.5,-187 721.5,-166 690.5,-166"/>
<text text-anchor="start" x="701" y="-172.8" font-family="Times,serif" font-size="14.00">0</text>
<polygon fill="none" stroke="black" points="721.5,-166 721.5,-187 755.5,-187 755.5,-166 721.5,-166"/>
<text text-anchor="start" x="729" y="-172.8" font-family="Times,serif" font-size="14.00">16</text>
<polygon fill="none" stroke="black" points="755.5,-166 755.5,-187 873.5,-187 873.5,-166 755.5,-166"/>
<text text-anchor="start" x="758.5" y="-172.8" font-family="Times,serif" font-size="14.00">BoundsMinMax</text>
<polygon fill="none" stroke="black" points="873.5,-166 873.5,-187 893.5,-187 893.5,-166 873.5,-166"/>
<text text-anchor="start" x="879" y="-172.8" font-family="Times,serif" font-size="14.00">x</text>
<polygon fill="none" stroke="black" points="690.5,-145 690.5,-166 721.5,-166 721.5,-145 690.5,-145"/>
<text text-anchor="start" x="696.5" y="-151.8" font-family="Times,serif" font-size="14.00">16</text>
<polygon fill="none" stroke="black" points="721.5,-145 721.5,-166 755.5,-166 755.5,-145 721.5,-145"/>
<text text-anchor="start" x="729" y="-151.8" font-family="Times,serif" font-size="14.00">16</text>
<polygon fill="none" stroke="black" points="755.5,-145 755.5,-166 873.5,-166 873.5,-145 755.5,-145"/>
<text text-anchor="start" x="758.5" y="-151.8" font-family="Times,serif" font-size="14.00">BoundsMinMax</text>
<polygon fill="none" stroke="black" points="873.5,-145 873.5,-166 893.5,-166 893.5,-145 873.5,-145"/>
<text text-anchor="start" x="879" y="-151.8" font-family="Times,serif" font-size="14.00">y</text>
<polygon fill="none" stroke="black" points="690.5,-124 690.5,-145 721.5,-145 721.5,-124 690.5,-124"/>
<text text-anchor="start" x="696.5" y="-130.8" font-family="Times,serif" font-size="14.00">32</text>
<polygon fill="none" stroke="black" points="721.5,-124 721.5,-145 755.5,-145 755.5,-124 721.5,-124"/>
<text text-anchor="start" x="729" y="-130.8" font-family="Times,serif" font-size="14.00">16</text>
<polygon fill="none" stroke="black" points="755.5,-124 755.5,-145 873.5,-145 873.5,-124 755.5,-124"/>
<text text-anchor="start" x="758.5" y="-130.8" font-family="Times,serif" font-size="14.00">BoundsMinMax</text>
<polygon fill="none" stroke="black" points="873.5,-124 873.5,-145 893.5,-145 893.5,-124 873.5,-124"/>
<text text-anchor="start" x="879.5" y="-130.8" font-family="Times,serif" font-size="14.00">z</text>
<polygon fill="none" stroke="black" points="690.5,-103 690.5,-124 721.5,-124 721.5,-103 690.5,-103"/>
<text text-anchor="start" x="696.5" y="-109.8" font-family="Times,serif" font-size="14.00">48</text>
<polygon fill="none" stroke="black" points="721.5,-103 721.5,-124 755.5,-124 755.5,-103 721.5,-103"/>
<text text-anchor="start" x="729" y="-109.8" font-family="Times,serif" font-size="14.00">16</text>
<polygon fill="none" stroke="black" points="755.5,-103 755.5,-124 873.5,-124 873.5,-103 755.5,-103"/>
<text text-anchor="start" x="758.5" y="-109.8" font-family="Times,serif" font-size="14.00">BoundsMinMax</text>
<polygon fill="none" stroke="black" points="873.5,-103 873.5,-124 893.5,-124 893.5,-103 873.5,-103"/>
<text text-anchor="start" x="876.5" y="-109.8" font-family="Times,serif" font-size="14.00">m</text>
</g>
<!-- bounds_min_max__seq -->
<g id="node3" class="node">
<title>bounds_min_max__seq</title>
<polygon fill="#e0ffe0" stroke="transparent" points="1013,-154 1013,-175 1044,-175 1044,-154 1013,-154"/>
<polygon fill="none" stroke="black" points="1013,-154 1013,-175 1044,-175 1044,-154 1013,-154"/>
<text text-anchor="start" x="1016" y="-160.8" font-family="Times,serif" font-size="14.00">pos</text>
<polygon fill="#e0ffe0" stroke="transparent" points="1044,-154 1044,-175 1078,-175 1078,-154 1044,-154"/>
<polygon fill="none" stroke="black" points="1044,-154 1044,-175 1078,-175 1078,-154 1044,-154"/>
<text text-anchor="start" x="1047" y="-160.8" font-family="Times,serif" font-size="14.00">size</text>
<polygon fill="#e0ffe0" stroke="transparent" points="1078,-154 1078,-175 1116,-175 1116,-154 1078,-154"/>
<polygon fill="none" stroke="black" points="1078,-154 1078,-175 1116,-175 1116,-154 1078,-154"/>
<text text-anchor="start" x="1081" y="-160.8" font-family="Times,serif" font-size="14.00">type</text>
<polygon fill="#e0ffe0" stroke="transparent" points="1116,-154 1116,-175 1153,-175 1153,-154 1116,-154"/>
<polygon fill="none" stroke="black" points="1116,-154 1116,-175 1153,-175 1153,-154 1116,-154"/>
<text text-anchor="start" x="1127.5" y="-160.8" font-family="Times,serif" font-size="14.00">id</text>
<polygon fill="none" stroke="black" points="1013,-133 1013,-154 1044,-154 1044,-133 1013,-133"/>
<text text-anchor="start" x="1023.5" y="-139.8" font-family="Times,serif" font-size="14.00">0</text>
<polygon fill="none" stroke="black" points="1044,-133 1044,-154 1078,-154 1078,-133 1044,-133"/>
<text text-anchor="start" x="1056" y="-139.8" font-family="Times,serif" font-size="14.00">8</text>
<polygon fill="none" stroke="black" points="1078,-133 1078,-154 1116,-154 1116,-133 1078,-133"/>
<text text-anchor="start" x="1081" y="-139.8" font-family="Times,serif" font-size="14.00">f8be</text>
<polygon fill="none" stroke="black" points="1116,-133 1116,-154 1153,-154 1153,-133 1116,-133"/>
<text text-anchor="start" x="1120.5" y="-139.8" font-family="Times,serif" font-size="14.00">min</text>
<polygon fill="none" stroke="black" points="1013,-112 1013,-133 1044,-133 1044,-112 1013,-112"/>
<text text-anchor="start" x="1023.5" y="-118.8" font-family="Times,serif" font-size="14.00">8</text>
<polygon fill="none" stroke="black" points="1044,-112 1044,-133 1078,-133 1078,-112 1044,-112"/>
<text text-anchor="start" x="1056" y="-118.8" font-family="Times,serif" font-size="14.00">8</text>
<polygon fill="none" stroke="black" points="1078,-112 1078,-133 1116,-133 1116,-112 1078,-112"/>
<text text-anchor="start" x="1081" y="-118.8" font-family="Times,serif" font-size="14.00">f8be</text>
<polygon fill="none" stroke="black" points="1116,-112 1116,-133 1153,-133 1153,-112 1116,-112"/>
<text text-anchor="start" x="1119" y="-118.8" font-family="Times,serif" font-size="14.00">max</text>
</g>
<!-- bounding_box_x_y_z_m__seq&#45;&gt;bounds_min_max__seq -->
<g id="edge3" class="edge">
<title>bounding_box_x_y_z_m__seq:x_type&#45;&gt;bounds_min_max__seq</title>
<path fill="none" stroke="black" stroke-width="2" d="M894.5,-177C927.61,-177 963.51,-171.95 994.95,-165.8"/>
<polygon fill="black" stroke="black" stroke-width="2" points="995.89,-169.18 1004.99,-163.77 994.5,-162.32 995.89,-169.18"/>
</g>
<!-- bounding_box_x_y_z_m__seq&#45;&gt;bounds_min_max__seq -->
<g id="edge4" class="edge">
<title>bounding_box_x_y_z_m__seq:y_type&#45;&gt;bounds_min_max__seq</title>
<path fill="none" stroke="black" stroke-width="2" d="M894.5,-155C927.31,-155 963.29,-153.3 994.88,-151.24"/>
<polygon fill="black" stroke="black" stroke-width="2" points="995.23,-154.72 1004.97,-150.56 994.76,-147.74 995.23,-154.72"/>
</g>
<!-- bounding_box_x_y_z_m__seq&#45;&gt;bounds_min_max__seq -->
<g id="edge5" class="edge">
<title>bounding_box_x_y_z_m__seq:z_type&#45;&gt;bounds_min_max__seq</title>
<path fill="none" stroke="black" stroke-width="2" d="M894.5,-134C927.3,-134 963.28,-135.54 994.87,-137.42"/>
<polygon fill="black" stroke="black" stroke-width="2" points="994.77,-140.92 1004.96,-138.04 995.2,-133.93 994.77,-140.92"/>
</g>
<!-- bounding_box_x_y_z_m__seq&#45;&gt;bounds_min_max__seq -->
<g id="edge6" class="edge">
<title>bounding_box_x_y_z_m__seq:m_type&#45;&gt;bounds_min_max__seq</title>
<path fill="none" stroke="black" stroke-width="2" d="M894.5,-113C927.55,-113 963.44,-117.75 994.89,-123.52"/>
<polygon fill="black" stroke="black" stroke-width="2" points="994.45,-127 1004.93,-125.43 995.76,-120.13 994.45,-127"/>
</g>
<!-- file_header__seq&#45;&gt;bounding_box_x_y_z_m__seq -->
<g id="edge7" class="edge">
<title>file_header__seq:bounding_box_type&#45;&gt;bounding_box_x_y_z_m__seq</title>
<path fill="none" stroke="black" stroke-width="2" d="M614,-156C632.66,-156 652.42,-156 671.72,-156"/>
<polygon fill="black" stroke="black" stroke-width="2" points="671.75,-159.5 681.75,-156 671.75,-152.5 671.75,-159.5"/>
</g>
</g>
</svg>
