<?xml version="1.0" encoding="UTF-8" standalone="no"?>
<!DOCTYPE svg PUBLIC "-//W3C//DTD SVG 1.1//EN"
 "http://www.w3.org/Graphics/SVG/1.1/DTD/svg11.dtd">
<!-- Generated by graphviz version 2.43.0 (0)
 -->
<!-- Title: %3 Pages: 1 -->
<svg width="1693pt" height="296pt"
 viewBox="0.00 0.00 1693.00 296.00" xmlns="http://www.w3.org/2000/svg" xmlns:xlink="http://www.w3.org/1999/xlink">
<g id="graph0" class="graph" transform="scale(1 1) rotate(0) translate(4 292)">
<title>%3</title>
<polygon fill="white" stroke="transparent" points="-4,4 -4,-292 1689,-292 1689,4 -4,4"/>
<g id="clust1" class="cluster">
<title>cluster__android_asus_bootldr</title>
<polygon fill="none" stroke="black" stroke-dasharray="1,5" points="8,-8 8,-280 1677,-280 1677,-8 8,-8"/>
<text text-anchor="middle" x="842.5" y="-264.8" font-family="Times,serif" font-size="14.00">AndroidAsusBootldr</text>
</g>
<g id="clust2" class="cluster">
<title>cluster__image</title>
<polygon fill="none" stroke="black" stroke-dasharray="1,5" points="255,-16 255,-249 1669,-249 1669,-16 255,-16"/>
<text text-anchor="middle" x="962" y="-233.8" font-family="Times,serif" font-size="14.00">AndroidAsusBootldr::Image</text>
</g>
<!-- android_asus_bootldr__seq -->
<g id="node1" class="node">
<title>android_asus_bootldr__seq</title>
<polygon fill="#e0ffe0" stroke="transparent" points="24.5,-207 24.5,-228 55.5,-228 55.5,-207 24.5,-207"/>
<polygon fill="none" stroke="black" points="24.5,-207 24.5,-228 55.5,-228 55.5,-207 24.5,-207"/>
<text text-anchor="start" x="27.5" y="-213.8" font-family="Times,serif" font-size="14.00">pos</text>
<polygon fill="#e0ffe0" stroke="transparent" points="55.5,-207 55.5,-228 89.5,-228 89.5,-207 55.5,-207"/>
<polygon fill="none" stroke="black" points="55.5,-207 55.5,-228 89.5,-228 89.5,-207 55.5,-207"/>
<text text-anchor="start" x="58.5" y="-213.8" font-family="Times,serif" font-size="14.00">size</text>
<polygon fill="#e0ffe0" stroke="transparent" points="89.5,-207 89.5,-228 140.5,-228 140.5,-207 89.5,-207"/>
<polygon fill="none" stroke="black" points="89.5,-207 89.5,-228 140.5,-228 140.5,-207 89.5,-207"/>
<text text-anchor="start" x="99" y="-213.8" font-family="Times,serif" font-size="14.00">type</text>
<polygon fill="#e0ffe0" stroke="transparent" points="140.5,-207 140.5,-228 219.5,-228 219.5,-207 140.5,-207"/>
<polygon fill="none" stroke="black" points="140.5,-207 140.5,-228 219.5,-228 219.5,-207 140.5,-207"/>
<text text-anchor="start" x="173" y="-213.8" font-family="Times,serif" font-size="14.00">id</text>
<polygon fill="none" stroke="black" points="24.5,-186 24.5,-207 55.5,-207 55.5,-186 24.5,-186"/>
<text text-anchor="start" x="35" y="-192.8" font-family="Times,serif" font-size="14.00">0</text>
<polygon fill="none" stroke="black" points="55.5,-186 55.5,-207 89.5,-207 89.5,-186 55.5,-186"/>
<text text-anchor="start" x="67.5" y="-192.8" font-family="Times,serif" font-size="14.00">8</text>
<polygon fill="none" stroke="black" points="89.5,-186 89.5,-207 140.5,-207 140.5,-186 89.5,-186"/>
<polygon fill="none" stroke="black" points="140.5,-186 140.5,-207 219.5,-207 219.5,-186 140.5,-186"/>
<text text-anchor="start" x="158.5" y="-192.8" font-family="Times,serif" font-size="14.00">magic</text>
<polygon fill="none" stroke="black" points="24.5,-165 24.5,-186 55.5,-186 55.5,-165 24.5,-165"/>
<text text-anchor="start" x="35" y="-171.8" font-family="Times,serif" font-size="14.00">8</text>
<polygon fill="none" stroke="black" points="55.5,-165 55.5,-186 89.5,-186 89.5,-165 55.5,-165"/>
<text text-anchor="start" x="67.5" y="-171.8" font-family="Times,serif" font-size="14.00">2</text>
<polygon fill="none" stroke="black" points="89.5,-165 89.5,-186 140.5,-186 140.5,-165 89.5,-165"/>
<text text-anchor="start" x="99.5" y="-171.8" font-family="Times,serif" font-size="14.00">u2le</text>
<polygon fill="none" stroke="black" points="140.5,-165 140.5,-186 219.5,-186 219.5,-165 140.5,-165"/>
<text text-anchor="start" x="151" y="-171.8" font-family="Times,serif" font-size="14.00">revision</text>
<polygon fill="none" stroke="black" points="24.5,-144 24.5,-165 55.5,-165 55.5,-144 24.5,-144"/>
<text text-anchor="start" x="30.5" y="-150.8" font-family="Times,serif" font-size="14.00">10</text>
<polygon fill="none" stroke="black" points="55.5,-144 55.5,-165 89.5,-165 89.5,-144 55.5,-144"/>
<text text-anchor="start" x="67.5" y="-150.8" font-family="Times,serif" font-size="14.00">2</text>
<polygon fill="none" stroke="black" points="89.5,-144 89.5,-165 140.5,-165 140.5,-144 89.5,-144"/>
<text text-anchor="start" x="99.5" y="-150.8" font-family="Times,serif" font-size="14.00">u2le</text>
<polygon fill="none" stroke="black" points="140.5,-144 140.5,-165 219.5,-165 219.5,-144 140.5,-144"/>
<text text-anchor="start" x="143.5" y="-150.8" font-family="Times,serif" font-size="14.00">reserved1</text>
<polygon fill="none" stroke="black" points="24.5,-123 24.5,-144 55.5,-144 55.5,-123 24.5,-123"/>
<text text-anchor="start" x="30.5" y="-129.8" font-family="Times,serif" font-size="14.00">12</text>
<polygon fill="none" stroke="black" points="55.5,-123 55.5,-144 89.5,-144 89.5,-123 55.5,-123"/>
<text text-anchor="start" x="67.5" y="-129.8" font-family="Times,serif" font-size="14.00">4</text>
<polygon fill="none" stroke="black" points="89.5,-123 89.5,-144 140.5,-144 140.5,-123 89.5,-123"/>
<text text-anchor="start" x="99.5" y="-129.8" font-family="Times,serif" font-size="14.00">u4le</text>
<polygon fill="none" stroke="black" points="140.5,-123 140.5,-144 219.5,-144 219.5,-123 140.5,-123"/>
<text text-anchor="start" x="143.5" y="-129.8" font-family="Times,serif" font-size="14.00">reserved2</text>
<polygon fill="none" stroke="black" points="24.5,-102 24.5,-123 55.5,-123 55.5,-102 24.5,-102"/>
<text text-anchor="start" x="30.5" y="-108.8" font-family="Times,serif" font-size="14.00">16</text>
<polygon fill="none" stroke="black" points="55.5,-102 55.5,-123 89.5,-123 89.5,-102 55.5,-102"/>
<text text-anchor="start" x="65.5" y="-108.8" font-family="Times,serif" font-size="14.00">...</text>
<polygon fill="none" stroke="black" points="89.5,-102 89.5,-123 140.5,-123 140.5,-102 89.5,-102"/>
<text text-anchor="start" x="92.5" y="-108.8" font-family="Times,serif" font-size="14.00">Image</text>
<polygon fill="none" stroke="black" points="140.5,-102 140.5,-123 219.5,-123 219.5,-102 140.5,-102"/>
<text text-anchor="start" x="154" y="-108.8" font-family="Times,serif" font-size="14.00">images</text>
<polygon fill="none" stroke="black" points="24.5,-81 24.5,-102 219.5,-102 219.5,-81 24.5,-81"/>
<text text-anchor="start" x="69.5" y="-87.8" font-family="Times,serif" font-size="14.00">repeat 3 times</text>
</g>
<!-- image__seq -->
<g id="node2" class="node">
<title>image__seq</title>
<polygon fill="#e0ffe0" stroke="transparent" points="271,-175 271,-196 302,-196 302,-175 271,-175"/>
<polygon fill="none" stroke="black" points="271,-175 271,-196 302,-196 302,-175 271,-175"/>
<text text-anchor="start" x="274" y="-181.8" font-family="Times,serif" font-size="14.00">pos</text>
<polygon fill="#e0ffe0" stroke="transparent" points="302,-175 302,-196 372,-196 372,-175 302,-175"/>
<polygon fill="none" stroke="black" points="302,-175 302,-196 372,-196 372,-175 302,-175"/>
<text text-anchor="start" x="323" y="-181.8" font-family="Times,serif" font-size="14.00">size</text>
<polygon fill="#e0ffe0" stroke="transparent" points="372,-175 372,-196 450,-196 450,-175 372,-175"/>
<polygon fill="none" stroke="black" points="372,-175 372,-196 450,-196 450,-175 372,-175"/>
<text text-anchor="start" x="395" y="-181.8" font-family="Times,serif" font-size="14.00">type</text>
<polygon fill="#e0ffe0" stroke="transparent" points="450,-175 450,-196 529,-196 529,-175 450,-175"/>
<polygon fill="none" stroke="black" points="450,-175 450,-196 529,-196 529,-175 450,-175"/>
<text text-anchor="start" x="482.5" y="-181.8" font-family="Times,serif" font-size="14.00">id</text>
<polygon fill="none" stroke="black" points="271,-154 271,-175 302,-175 302,-154 271,-154"/>
<text text-anchor="start" x="281.5" y="-160.8" font-family="Times,serif" font-size="14.00">0</text>
<polygon fill="none" stroke="black" points="302,-154 302,-175 372,-175 372,-154 302,-154"/>
<text text-anchor="start" x="332" y="-160.8" font-family="Times,serif" font-size="14.00">8</text>
<polygon fill="none" stroke="black" points="372,-154 372,-175 450,-175 450,-154 372,-154"/>
<text text-anchor="start" x="375" y="-160.8" font-family="Times,serif" font-size="14.00">str(ASCII)</text>
<polygon fill="none" stroke="black" points="450,-154 450,-175 529,-175 529,-154 450,-154"/>
<text text-anchor="start" x="457.5" y="-160.8" font-family="Times,serif" font-size="14.00">chunk_id</text>
<polygon fill="none" stroke="black" points="271,-133 271,-154 302,-154 302,-133 271,-133"/>
<text text-anchor="start" x="281.5" y="-139.8" font-family="Times,serif" font-size="14.00">8</text>
<polygon fill="none" stroke="black" points="302,-133 302,-154 372,-154 372,-133 302,-133"/>
<text text-anchor="start" x="332" y="-139.8" font-family="Times,serif" font-size="14.00">4</text>
<polygon fill="none" stroke="black" points="372,-133 372,-154 450,-154 450,-133 372,-133"/>
<text text-anchor="start" x="395.5" y="-139.8" font-family="Times,serif" font-size="14.00">u4le</text>
<polygon fill="none" stroke="black" points="450,-133 450,-154 529,-154 529,-133 450,-133"/>
<text text-anchor="start" x="457.5" y="-139.8" font-family="Times,serif" font-size="14.00">len_body</text>
<polygon fill="none" stroke="black" points="271,-112 271,-133 302,-133 302,-112 271,-112"/>
<text text-anchor="start" x="277" y="-118.8" font-family="Times,serif" font-size="14.00">12</text>
<polygon fill="none" stroke="black" points="302,-112 302,-133 372,-133 372,-112 302,-112"/>
<text text-anchor="start" x="332" y="-118.8" font-family="Times,serif" font-size="14.00">1</text>
<polygon fill="none" stroke="black" points="372,-112 372,-133 450,-133 450,-112 372,-112"/>
<text text-anchor="start" x="401.5" y="-118.8" font-family="Times,serif" font-size="14.00">u1</text>
<polygon fill="none" stroke="black" points="450,-112 450,-133 529,-133 529,-112 450,-112"/>
<text text-anchor="start" x="472.5" y="-118.8" font-family="Times,serif" font-size="14.00">flags</text>
<polygon fill="none" stroke="black" points="271,-91 271,-112 302,-112 302,-91 271,-91"/>
<text text-anchor="start" x="277" y="-97.8" font-family="Times,serif" font-size="14.00">13</text>
<polygon fill="none" stroke="black" points="302,-91 302,-112 372,-112 372,-91 302,-91"/>
<text text-anchor="start" x="332" y="-97.8" font-family="Times,serif" font-size="14.00">1</text>
<polygon fill="none" stroke="black" points="372,-91 372,-112 450,-112 450,-91 372,-91"/>
<text text-anchor="start" x="401.5" y="-97.8" font-family="Times,serif" font-size="14.00">u1</text>
<polygon fill="none" stroke="black" points="450,-91 450,-112 529,-112 529,-91 450,-91"/>
<text text-anchor="start" x="453" y="-97.8" font-family="Times,serif" font-size="14.00">reserved1</text>
<polygon fill="none" stroke="black" points="271,-70 271,-91 302,-91 302,-70 271,-70"/>
<text text-anchor="start" x="277" y="-76.8" font-family="Times,serif" font-size="14.00">14</text>
<polygon fill="none" stroke="black" points="302,-70 302,-91 372,-91 372,-70 302,-70"/>
<text text-anchor="start" x="332" y="-76.8" font-family="Times,serif" font-size="14.00">1</text>
<polygon fill="none" stroke="black" points="372,-70 372,-91 450,-91 450,-70 372,-70"/>
<text text-anchor="start" x="401.5" y="-76.8" font-family="Times,serif" font-size="14.00">u1</text>
<polygon fill="none" stroke="black" points="450,-70 450,-91 529,-91 529,-70 450,-70"/>
<text text-anchor="start" x="453" y="-76.8" font-family="Times,serif" font-size="14.00">reserved2</text>
<polygon fill="none" stroke="black" points="271,-49 271,-70 302,-70 302,-49 271,-49"/>
<text text-anchor="start" x="277" y="-55.8" font-family="Times,serif" font-size="14.00">15</text>
<polygon fill="none" stroke="black" points="302,-49 302,-70 372,-70 372,-49 302,-49"/>
<text text-anchor="start" x="332" y="-55.8" font-family="Times,serif" font-size="14.00">1</text>
<polygon fill="none" stroke="black" points="372,-49 372,-70 450,-70 450,-49 372,-49"/>
<text text-anchor="start" x="401.5" y="-55.8" font-family="Times,serif" font-size="14.00">u1</text>
<polygon fill="none" stroke="black" points="450,-49 450,-70 529,-70 529,-49 450,-49"/>
<text text-anchor="start" x="453" y="-55.8" font-family="Times,serif" font-size="14.00">reserved3</text>
<polygon fill="none" stroke="black" points="271,-28 271,-49 302,-49 302,-28 271,-28"/>
<text text-anchor="start" x="277" y="-34.8" font-family="Times,serif" font-size="14.00">16</text>
<polygon fill="none" stroke="black" points="302,-28 302,-49 372,-49 372,-28 302,-28"/>
<text text-anchor="start" x="305" y="-34.8" font-family="Times,serif" font-size="14.00">len_body</text>
<polygon fill="none" stroke="black" points="372,-28 372,-49 450,-49 450,-28 372,-28"/>
<polygon fill="none" stroke="black" points="450,-28 450,-49 529,-49 529,-28 450,-28"/>
<text text-anchor="start" x="472" y="-34.8" font-family="Times,serif" font-size="14.00">body</text>
</g>
<!-- android_asus_bootldr__seq&#45;&gt;image__seq -->
<g id="edge1" class="edge">
<title>android_asus_bootldr__seq:images_type&#45;&gt;image__seq</title>
<path fill="none" stroke="black" stroke-width="2" d="M220.5,-112C230.83,-112 241.5,-112 252.25,-112"/>
<polygon fill="black" stroke="black" stroke-width="2" points="252.56,-115.5 262.56,-112 252.56,-108.5 252.56,-115.5"/>
</g>
<!-- image__seq&#45;&gt;image__seq -->
<g id="edge2" class="edge">
<title>image__seq:len_body_type&#45;&gt;image__seq:body_size</title>
<path fill="none" stroke="#404040" d="M507.98,-154.2C558.16,-186.38 545.53,-218 413.5,-218 286.29,-218 269.92,-108.18 313.78,-56.54"/>
<polygon fill="#404040" stroke="#404040" points="316.57,-58.69 321.01,-49.07 311.54,-53.82 316.57,-58.69"/>
</g>
<!-- image__inst__file_name -->
<g id="node3" class="node">
<title>image__inst__file_name</title>
<polygon fill="#e0ffe0" stroke="transparent" points="581,-165 581,-186 655,-186 655,-165 581,-165"/>
<polygon fill="none" stroke="black" points="581,-165 581,-186 655,-186 655,-165 581,-165"/>
<text text-anchor="start" x="611" y="-171.8" font-family="Times,serif" font-size="14.00">id</text>
<polygon fill="#e0ffe0" stroke="transparent" points="655,-165 655,-186 1653,-186 1653,-165 655,-165"/>
<polygon fill="none" stroke="black" points="655,-165 655,-186 1653,-186 1653,-165 655,-165"/>
<text text-anchor="start" x="1134.5" y="-171.8" font-family="Times,serif" font-size="14.00">value</text>
<polygon fill="none" stroke="black" points="581,-144 581,-165 655,-165 655,-144 581,-144"/>
<text text-anchor="start" x="584" y="-150.8" font-family="Times,serif" font-size="14.00">file_name</text>
<polygon fill="none" stroke="black" points="655,-144 655,-165 1653,-165 1653,-144 655,-144"/>
<text text-anchor="start" x="658" y="-150.8" font-family="Times,serif" font-size="14.00">(chunk_id == &quot;IFWI!!!!&quot; ? &quot;ifwi.bin&quot; : (chunk_id == &quot;DROIDBT!&quot; ? &quot;droidboot.img&quot; : (chunk_id == &quot;SPLASHS!&quot; ? &quot;splashscreen.img&quot; : &quot;&quot;)))</text>
</g>
<!-- image__seq&#45;&gt;image__inst__file_name -->
<g id="edge3" class="edge">
<title>image__seq:chunk_id_type&#45;&gt;image__inst__file_name</title>
<path fill="none" stroke="#404040" d="M530,-165C540.81,-164.25 551.73,-163.54 562.73,-162.85"/>
<polygon fill="#404040" stroke="#404040" points="563.09,-166.34 572.86,-162.23 562.66,-159.35 563.09,-166.34"/>
</g>
<!-- image__seq&#45;&gt;image__inst__file_name -->
<g id="edge4" class="edge">
<title>image__seq:chunk_id_type&#45;&gt;image__inst__file_name</title>
<path fill="none" stroke="#404040" d="M530.38,-165C541.09,-165 551.91,-165 562.81,-165"/>
<polygon fill="#404040" stroke="#404040" points="562.84,-168.5 572.84,-165 562.84,-161.5 562.84,-168.5"/>
</g>
<!-- image__seq&#45;&gt;image__inst__file_name -->
<g id="edge5" class="edge">
<title>image__seq:chunk_id_type&#45;&gt;image__inst__file_name</title>
<path fill="none" stroke="#404040" d="M530.38,-165.03C541.09,-165.77 551.91,-166.47 562.81,-167.15"/>
<polygon fill="#404040" stroke="#404040" points="562.64,-170.65 572.84,-167.77 563.07,-163.66 562.64,-170.65"/>
</g>
</g>
</svg>
