<?xml version="1.0" encoding="UTF-8" standalone="no"?>
<!DOCTYPE svg PUBLIC "-//W3C//DTD SVG 1.1//EN"
 "http://www.w3.org/Graphics/SVG/1.1/DTD/svg11.dtd">
<!-- Generated by graphviz version 2.40.1 (20161225.0304)
 -->
<!-- Title: %3 Pages: 1 -->
<svg width="3660pt" height="1291pt"
 viewBox="0.00 0.00 3660.00 1290.72" xmlns="http://www.w3.org/2000/svg" xmlns:xlink="http://www.w3.org/1999/xlink">
<g id="graph0" class="graph" transform="scale(1 1) rotate(0) translate(4 1286.7198)">
<title>%3</title>
<polygon fill="#ffffff" stroke="transparent" points="-4,4 -4,-1286.7198 3656,-1286.7198 3656,4 -4,4"/>
<g id="clust1" class="cluster">
<title>cluster__ruby_marshal</title>
<polygon fill="none" stroke="#000000" stroke-dasharray="1,5" points="8,-64.7198 8,-1274.7198 3644,-1274.7198 3644,-64.7198 8,-64.7198"/>
<text text-anchor="middle" x="1826" y="-1259.5198" font-family="Times,serif" font-size="14.00" fill="#000000">RubyMarshal</text>
</g>
<g id="clust2" class="cluster">
<title>cluster__ruby_array</title>
<polygon fill="none" stroke="#000000" stroke-dasharray="1,5" points="881,-588.7198 881,-719.7198 1168,-719.7198 1168,-588.7198 881,-588.7198"/>
<text text-anchor="middle" x="1024.5" y="-704.5198" font-family="Times,serif" font-size="14.00" fill="#000000">RubyMarshal::RubyArray</text>
</g>
<g id="clust3" class="cluster">
<title>cluster__bignum</title>
<polygon fill="none" stroke="#000000" stroke-dasharray="1,5" points="840,-72.7198 840,-203.7198 1209,-203.7198 1209,-72.7198 840,-72.7198"/>
<text text-anchor="middle" x="1024.5" y="-188.5198" font-family="Times,serif" font-size="14.00" fill="#000000">RubyMarshal::Bignum</text>
</g>
<g id="clust4" class="cluster">
<title>cluster__ruby_struct</title>
<polygon fill="none" stroke="#000000" stroke-dasharray="1,5" points="518.5,-831.7198 518.5,-984.7198 806.5,-984.7198 806.5,-831.7198 518.5,-831.7198"/>
<text text-anchor="middle" x="662.5" y="-969.5198" font-family="Times,serif" font-size="14.00" fill="#000000">RubyMarshal::RubyStruct</text>
</g>
<g id="clust5" class="cluster">
<title>cluster__ruby_symbol</title>
<polygon fill="none" stroke="#000000" stroke-dasharray="1,5" points="893.5,-469.7198 893.5,-580.7198 1155.5,-580.7198 1155.5,-469.7198 893.5,-469.7198"/>
<text text-anchor="middle" x="1024.5" y="-565.5198" font-family="Times,serif" font-size="14.00" fill="#000000">RubyMarshal::RubySymbol</text>
</g>
<g id="clust6" class="cluster">
<title>cluster__packed_int</title>
<polygon fill="none" stroke="#000000" stroke-dasharray="1,5" points="886.5,-727.7198 886.5,-1124.7198 3636,-1124.7198 3636,-727.7198 886.5,-727.7198"/>
<text text-anchor="middle" x="2261.25" y="-1109.5198" font-family="Times,serif" font-size="14.00" fill="#000000">RubyMarshal::PackedInt</text>
</g>
<g id="clust7" class="cluster">
<title>cluster__pair</title>
<polygon fill="none" stroke="#000000" stroke-dasharray="1,5" points="924.5,-1132.7198 924.5,-1243.7198 1124.5,-1243.7198 1124.5,-1132.7198 924.5,-1132.7198"/>
<text text-anchor="middle" x="1024.5" y="-1228.5198" font-family="Times,serif" font-size="14.00" fill="#000000">RubyMarshal::Pair</text>
</g>
<g id="clust8" class="cluster">
<title>cluster__instance_var</title>
<polygon fill="none" stroke="#000000" stroke-dasharray="1,5" points="536.5,-992.7198 536.5,-1145.7198 788.5,-1145.7198 788.5,-992.7198 536.5,-992.7198"/>
<text text-anchor="middle" x="662.5" y="-1130.5198" font-family="Times,serif" font-size="14.00" fill="#000000">RubyMarshal::InstanceVar</text>
</g>
<g id="clust9" class="cluster">
<title>cluster__record</title>
<polygon fill="none" stroke="#000000" stroke-dasharray="1,5" points="244,-566.7198 244,-823.7198 820,-823.7198 820,-566.7198 244,-566.7198"/>
<text text-anchor="middle" x="532" y="-808.5198" font-family="Times,serif" font-size="14.00" fill="#000000">RubyMarshal::Record</text>
</g>
<g id="clust10" class="cluster">
<title>cluster__ruby_hash</title>
<polygon fill="none" stroke="#000000" stroke-dasharray="1,5" points="895.5,-211.7198 895.5,-342.7198 1153.5,-342.7198 1153.5,-211.7198 895.5,-211.7198"/>
<text text-anchor="middle" x="1024.5" y="-327.5198" font-family="Times,serif" font-size="14.00" fill="#000000">RubyMarshal::RubyHash</text>
</g>
<g id="clust11" class="cluster">
<title>cluster__ruby_string</title>
<polygon fill="none" stroke="#000000" stroke-dasharray="1,5" points="897.5,-350.7198 897.5,-461.7198 1151.5,-461.7198 1151.5,-350.7198 897.5,-350.7198"/>
<text text-anchor="middle" x="1024.5" y="-446.5198" font-family="Times,serif" font-size="14.00" fill="#000000">RubyMarshal::RubyString</text>
</g>
<!-- ruby_marshal__seq -->
<g id="node1" class="node">
<title>ruby_marshal__seq</title>
<polygon fill="#e0ffe0" stroke="transparent" points="24,-770.7198 24,-791.7198 55,-791.7198 55,-770.7198 24,-770.7198"/>
<polygon fill="none" stroke="#000000" points="24,-770.7198 24,-791.7198 55,-791.7198 55,-770.7198 24,-770.7198"/>
<text text-anchor="start" x="27" y="-777.5198" font-family="Times,serif" font-size="14.00" fill="#000000">pos</text>
<polygon fill="#e0ffe0" stroke="transparent" points="55,-770.7198 55,-791.7198 89,-791.7198 89,-770.7198 55,-770.7198"/>
<polygon fill="none" stroke="#000000" points="55,-770.7198 55,-791.7198 89,-791.7198 89,-770.7198 55,-770.7198"/>
<text text-anchor="start" x="58" y="-777.5198" font-family="Times,serif" font-size="14.00" fill="#000000">size</text>
<polygon fill="#e0ffe0" stroke="transparent" points="89,-770.7198 89,-791.7198 147,-791.7198 147,-770.7198 89,-770.7198"/>
<polygon fill="none" stroke="#000000" points="89,-770.7198 89,-791.7198 147,-791.7198 147,-770.7198 89,-770.7198"/>
<text text-anchor="start" x="102" y="-777.5198" font-family="Times,serif" font-size="14.00" fill="#000000">type</text>
<polygon fill="#e0ffe0" stroke="transparent" points="147,-770.7198 147,-791.7198 208,-791.7198 208,-770.7198 147,-770.7198"/>
<polygon fill="none" stroke="#000000" points="147,-770.7198 147,-791.7198 208,-791.7198 208,-770.7198 147,-770.7198"/>
<text text-anchor="start" x="170.5" y="-777.5198" font-family="Times,serif" font-size="14.00" fill="#000000">id</text>
<polygon fill="none" stroke="#000000" points="24,-749.7198 24,-770.7198 55,-770.7198 55,-749.7198 24,-749.7198"/>
<text text-anchor="start" x="34.5" y="-756.5198" font-family="Times,serif" font-size="14.00" fill="#000000">0</text>
<polygon fill="none" stroke="#000000" points="55,-749.7198 55,-770.7198 89,-770.7198 89,-749.7198 55,-749.7198"/>
<text text-anchor="start" x="67" y="-756.5198" font-family="Times,serif" font-size="14.00" fill="#000000">2</text>
<polygon fill="none" stroke="#000000" points="89,-749.7198 89,-770.7198 147,-770.7198 147,-749.7198 89,-749.7198"/>
<text text-anchor="start" x="97.5" y="-756.5198" font-family="Times,serif" font-size="14.00" fill="#000000">04 08</text>
<polygon fill="none" stroke="#000000" points="147,-749.7198 147,-770.7198 208,-770.7198 208,-749.7198 147,-749.7198"/>
<text text-anchor="start" x="151" y="-756.5198" font-family="Times,serif" font-size="14.00" fill="#000000">version</text>
<polygon fill="none" stroke="#000000" points="24,-728.7198 24,-749.7198 55,-749.7198 55,-728.7198 24,-728.7198"/>
<text text-anchor="start" x="34.5" y="-735.5198" font-family="Times,serif" font-size="14.00" fill="#000000">2</text>
<polygon fill="none" stroke="#000000" points="55,-728.7198 55,-749.7198 89,-749.7198 89,-728.7198 55,-728.7198"/>
<text text-anchor="start" x="65" y="-735.5198" font-family="Times,serif" font-size="14.00" fill="#000000">...</text>
<polygon fill="none" stroke="#000000" points="89,-728.7198 89,-749.7198 147,-749.7198 147,-728.7198 89,-728.7198"/>
<text text-anchor="start" x="92" y="-735.5198" font-family="Times,serif" font-size="14.00" fill="#000000">Record</text>
<polygon fill="none" stroke="#000000" points="147,-728.7198 147,-749.7198 208,-749.7198 208,-728.7198 147,-728.7198"/>
<text text-anchor="start" x="150" y="-735.5198" font-family="Times,serif" font-size="14.00" fill="#000000">records</text>
</g>
<!-- record__seq -->
<g id="node13" class="node">
<title>record__seq</title>
<polygon fill="#e0ffe0" stroke="transparent" points="260.5,-748.7198 260.5,-769.7198 291.5,-769.7198 291.5,-748.7198 260.5,-748.7198"/>
<polygon fill="none" stroke="#000000" points="260.5,-748.7198 260.5,-769.7198 291.5,-769.7198 291.5,-748.7198 260.5,-748.7198"/>
<text text-anchor="start" x="263.5" y="-755.5198" font-family="Times,serif" font-size="14.00" fill="#000000">pos</text>
<polygon fill="#e0ffe0" stroke="transparent" points="291.5,-748.7198 291.5,-769.7198 325.5,-769.7198 325.5,-748.7198 291.5,-748.7198"/>
<polygon fill="none" stroke="#000000" points="291.5,-748.7198 291.5,-769.7198 325.5,-769.7198 325.5,-748.7198 291.5,-748.7198"/>
<text text-anchor="start" x="294.5" y="-755.5198" font-family="Times,serif" font-size="14.00" fill="#000000">size</text>
<polygon fill="#e0ffe0" stroke="transparent" points="325.5,-748.7198 325.5,-769.7198 428.5,-769.7198 428.5,-748.7198 325.5,-748.7198"/>
<polygon fill="none" stroke="#000000" points="325.5,-748.7198 325.5,-769.7198 428.5,-769.7198 428.5,-748.7198 325.5,-748.7198"/>
<text text-anchor="start" x="361" y="-755.5198" font-family="Times,serif" font-size="14.00" fill="#000000">type</text>
<polygon fill="#e0ffe0" stroke="transparent" points="428.5,-748.7198 428.5,-769.7198 469.5,-769.7198 469.5,-748.7198 428.5,-748.7198"/>
<polygon fill="none" stroke="#000000" points="428.5,-748.7198 428.5,-769.7198 469.5,-769.7198 469.5,-748.7198 428.5,-748.7198"/>
<text text-anchor="start" x="442" y="-755.5198" font-family="Times,serif" font-size="14.00" fill="#000000">id</text>
<polygon fill="none" stroke="#000000" points="260.5,-727.7198 260.5,-748.7198 291.5,-748.7198 291.5,-727.7198 260.5,-727.7198"/>
<text text-anchor="start" x="271" y="-734.5198" font-family="Times,serif" font-size="14.00" fill="#000000">0</text>
<polygon fill="none" stroke="#000000" points="291.5,-727.7198 291.5,-748.7198 325.5,-748.7198 325.5,-727.7198 291.5,-727.7198"/>
<text text-anchor="start" x="303.5" y="-734.5198" font-family="Times,serif" font-size="14.00" fill="#000000">1</text>
<polygon fill="none" stroke="#000000" points="325.5,-727.7198 325.5,-748.7198 428.5,-748.7198 428.5,-727.7198 325.5,-727.7198"/>
<text text-anchor="start" x="339.5" y="-734.5198" font-family="Times,serif" font-size="14.00" fill="#000000">u1→Codes</text>
<polygon fill="none" stroke="#000000" points="428.5,-727.7198 428.5,-748.7198 469.5,-748.7198 469.5,-727.7198 428.5,-727.7198"/>
<text text-anchor="start" x="432" y="-734.5198" font-family="Times,serif" font-size="14.00" fill="#000000">code</text>
<polygon fill="none" stroke="#000000" points="260.5,-706.7198 260.5,-727.7198 291.5,-727.7198 291.5,-706.7198 260.5,-706.7198"/>
<text text-anchor="start" x="271" y="-713.5198" font-family="Times,serif" font-size="14.00" fill="#000000">1</text>
<polygon fill="none" stroke="#000000" points="291.5,-706.7198 291.5,-727.7198 325.5,-727.7198 325.5,-706.7198 291.5,-706.7198"/>
<text text-anchor="start" x="301.5" y="-713.5198" font-family="Times,serif" font-size="14.00" fill="#000000">...</text>
<polygon fill="none" stroke="#000000" points="325.5,-706.7198 325.5,-727.7198 428.5,-727.7198 428.5,-706.7198 325.5,-706.7198"/>
<text text-anchor="start" x="328.5" y="-713.5198" font-family="Times,serif" font-size="14.00" fill="#000000">switch (code)</text>
<polygon fill="none" stroke="#000000" points="428.5,-706.7198 428.5,-727.7198 469.5,-727.7198 469.5,-706.7198 428.5,-706.7198"/>
<text text-anchor="start" x="431.5" y="-713.5198" font-family="Times,serif" font-size="14.00" fill="#000000">body</text>
</g>
<!-- ruby_marshal__seq&#45;&gt;record__seq -->
<g id="edge1" class="edge">
<title>ruby_marshal__seq:records_type&#45;&gt;record__seq</title>
<path fill="none" stroke="#000000" stroke-width="2" d="M208,-738.7198C218.8171,-738.7198 230.0548,-738.7198 241.3206,-738.7198"/>
<polygon fill="#000000" stroke="#000000" stroke-width="2" points="241.6634,-742.2199 251.6634,-738.7198 241.6634,-735.2199 241.6634,-742.2199"/>
</g>
<!-- ruby_array__seq -->
<g id="node2" class="node">
<title>ruby_array__seq</title>
<polygon fill="#e0ffe0" stroke="transparent" points="897.5,-663.7198 897.5,-684.7198 928.5,-684.7198 928.5,-663.7198 897.5,-663.7198"/>
<polygon fill="none" stroke="#000000" points="897.5,-663.7198 897.5,-684.7198 928.5,-684.7198 928.5,-663.7198 897.5,-663.7198"/>
<text text-anchor="start" x="900.5" y="-670.5198" font-family="Times,serif" font-size="14.00" fill="#000000">pos</text>
<polygon fill="#e0ffe0" stroke="transparent" points="928.5,-663.7198 928.5,-684.7198 962.5,-684.7198 962.5,-663.7198 928.5,-663.7198"/>
<polygon fill="none" stroke="#000000" points="928.5,-663.7198 928.5,-684.7198 962.5,-684.7198 962.5,-663.7198 928.5,-663.7198"/>
<text text-anchor="start" x="931.5" y="-670.5198" font-family="Times,serif" font-size="14.00" fill="#000000">size</text>
<polygon fill="#e0ffe0" stroke="transparent" points="962.5,-663.7198 962.5,-684.7198 1041.5,-684.7198 1041.5,-663.7198 962.5,-663.7198"/>
<polygon fill="none" stroke="#000000" points="962.5,-663.7198 962.5,-684.7198 1041.5,-684.7198 1041.5,-663.7198 962.5,-663.7198"/>
<text text-anchor="start" x="986" y="-670.5198" font-family="Times,serif" font-size="14.00" fill="#000000">type</text>
<polygon fill="#e0ffe0" stroke="transparent" points="1041.5,-663.7198 1041.5,-684.7198 1152.5,-684.7198 1152.5,-663.7198 1041.5,-663.7198"/>
<polygon fill="none" stroke="#000000" points="1041.5,-663.7198 1041.5,-684.7198 1152.5,-684.7198 1152.5,-663.7198 1041.5,-663.7198"/>
<text text-anchor="start" x="1090" y="-670.5198" font-family="Times,serif" font-size="14.00" fill="#000000">id</text>
<polygon fill="none" stroke="#000000" points="897.5,-642.7198 897.5,-663.7198 928.5,-663.7198 928.5,-642.7198 897.5,-642.7198"/>
<text text-anchor="start" x="908" y="-649.5198" font-family="Times,serif" font-size="14.00" fill="#000000">0</text>
<polygon fill="none" stroke="#000000" points="928.5,-642.7198 928.5,-663.7198 962.5,-663.7198 962.5,-642.7198 928.5,-642.7198"/>
<text text-anchor="start" x="938.5" y="-649.5198" font-family="Times,serif" font-size="14.00" fill="#000000">...</text>
<polygon fill="none" stroke="#000000" points="962.5,-642.7198 962.5,-663.7198 1041.5,-663.7198 1041.5,-642.7198 962.5,-642.7198"/>
<text text-anchor="start" x="965.5" y="-649.5198" font-family="Times,serif" font-size="14.00" fill="#000000">PackedInt</text>
<polygon fill="none" stroke="#000000" points="1041.5,-642.7198 1041.5,-663.7198 1152.5,-663.7198 1152.5,-642.7198 1041.5,-642.7198"/>
<text text-anchor="start" x="1044.5" y="-649.5198" font-family="Times,serif" font-size="14.00" fill="#000000">num_elements</text>
<polygon fill="none" stroke="#000000" points="897.5,-621.7198 897.5,-642.7198 928.5,-642.7198 928.5,-621.7198 897.5,-621.7198"/>
<text text-anchor="start" x="906" y="-628.5198" font-family="Times,serif" font-size="14.00" fill="#000000">...</text>
<polygon fill="none" stroke="#000000" points="928.5,-621.7198 928.5,-642.7198 962.5,-642.7198 962.5,-621.7198 928.5,-621.7198"/>
<text text-anchor="start" x="938.5" y="-628.5198" font-family="Times,serif" font-size="14.00" fill="#000000">...</text>
<polygon fill="none" stroke="#000000" points="962.5,-621.7198 962.5,-642.7198 1041.5,-642.7198 1041.5,-621.7198 962.5,-621.7198"/>
<text text-anchor="start" x="976" y="-628.5198" font-family="Times,serif" font-size="14.00" fill="#000000">Record</text>
<polygon fill="none" stroke="#000000" points="1041.5,-621.7198 1041.5,-642.7198 1152.5,-642.7198 1152.5,-621.7198 1041.5,-621.7198"/>
<text text-anchor="start" x="1064" y="-628.5198" font-family="Times,serif" font-size="14.00" fill="#000000">elements</text>
<polygon fill="none" stroke="#000000" points="897.5,-600.7198 897.5,-621.7198 1152.5,-621.7198 1152.5,-600.7198 897.5,-600.7198"/>
<text text-anchor="start" x="903.5" y="-607.5198" font-family="Times,serif" font-size="14.00" fill="#000000">repeat num_elements.value times</text>
</g>
<!-- packed_int__seq -->
<g id="node6" class="node">
<title>packed_int__seq</title>
<polygon fill="#e0ffe0" stroke="transparent" points="902.5,-919.7198 902.5,-940.7198 933.5,-940.7198 933.5,-919.7198 902.5,-919.7198"/>
<polygon fill="none" stroke="#000000" points="902.5,-919.7198 902.5,-940.7198 933.5,-940.7198 933.5,-919.7198 902.5,-919.7198"/>
<text text-anchor="start" x="905.5" y="-926.5198" font-family="Times,serif" font-size="14.00" fill="#000000">pos</text>
<polygon fill="#e0ffe0" stroke="transparent" points="933.5,-919.7198 933.5,-940.7198 967.5,-940.7198 967.5,-919.7198 933.5,-919.7198"/>
<polygon fill="none" stroke="#000000" points="933.5,-919.7198 933.5,-940.7198 967.5,-940.7198 967.5,-919.7198 933.5,-919.7198"/>
<text text-anchor="start" x="936.5" y="-926.5198" font-family="Times,serif" font-size="14.00" fill="#000000">size</text>
<polygon fill="#e0ffe0" stroke="transparent" points="967.5,-919.7198 967.5,-940.7198 1070.5,-940.7198 1070.5,-919.7198 967.5,-919.7198"/>
<polygon fill="none" stroke="#000000" points="967.5,-919.7198 967.5,-940.7198 1070.5,-940.7198 1070.5,-919.7198 967.5,-919.7198"/>
<text text-anchor="start" x="1003" y="-926.5198" font-family="Times,serif" font-size="14.00" fill="#000000">type</text>
<polygon fill="#e0ffe0" stroke="transparent" points="1070.5,-919.7198 1070.5,-940.7198 1146.5,-940.7198 1146.5,-919.7198 1070.5,-919.7198"/>
<polygon fill="none" stroke="#000000" points="1070.5,-919.7198 1070.5,-940.7198 1146.5,-940.7198 1146.5,-919.7198 1070.5,-919.7198"/>
<text text-anchor="start" x="1101.5" y="-926.5198" font-family="Times,serif" font-size="14.00" fill="#000000">id</text>
<polygon fill="none" stroke="#000000" points="902.5,-898.7198 902.5,-919.7198 933.5,-919.7198 933.5,-898.7198 902.5,-898.7198"/>
<text text-anchor="start" x="913" y="-905.5198" font-family="Times,serif" font-size="14.00" fill="#000000">0</text>
<polygon fill="none" stroke="#000000" points="933.5,-898.7198 933.5,-919.7198 967.5,-919.7198 967.5,-898.7198 933.5,-898.7198"/>
<text text-anchor="start" x="945.5" y="-905.5198" font-family="Times,serif" font-size="14.00" fill="#000000">1</text>
<polygon fill="none" stroke="#000000" points="967.5,-898.7198 967.5,-919.7198 1070.5,-919.7198 1070.5,-898.7198 967.5,-898.7198"/>
<text text-anchor="start" x="1009.5" y="-905.5198" font-family="Times,serif" font-size="14.00" fill="#000000">u1</text>
<polygon fill="none" stroke="#000000" points="1070.5,-898.7198 1070.5,-919.7198 1146.5,-919.7198 1146.5,-898.7198 1070.5,-898.7198"/>
<text text-anchor="start" x="1091.5" y="-905.5198" font-family="Times,serif" font-size="14.00" fill="#000000">code</text>
<polygon fill="none" stroke="#000000" points="902.5,-877.7198 902.5,-898.7198 933.5,-898.7198 933.5,-877.7198 902.5,-877.7198"/>
<text text-anchor="start" x="913" y="-884.5198" font-family="Times,serif" font-size="14.00" fill="#000000">1</text>
<polygon fill="none" stroke="#000000" points="933.5,-877.7198 933.5,-898.7198 967.5,-898.7198 967.5,-877.7198 933.5,-877.7198"/>
<text text-anchor="start" x="943.5" y="-884.5198" font-family="Times,serif" font-size="14.00" fill="#000000">...</text>
<polygon fill="none" stroke="#000000" points="967.5,-877.7198 967.5,-898.7198 1070.5,-898.7198 1070.5,-877.7198 967.5,-877.7198"/>
<text text-anchor="start" x="970.5" y="-884.5198" font-family="Times,serif" font-size="14.00" fill="#000000">switch (code)</text>
<polygon fill="none" stroke="#000000" points="1070.5,-877.7198 1070.5,-898.7198 1146.5,-898.7198 1146.5,-877.7198 1070.5,-877.7198"/>
<text text-anchor="start" x="1078" y="-884.5198" font-family="Times,serif" font-size="14.00" fill="#000000">encoded</text>
<polygon fill="none" stroke="#000000" points="902.5,-856.7198 902.5,-877.7198 933.5,-877.7198 933.5,-856.7198 902.5,-856.7198"/>
<text text-anchor="start" x="911" y="-863.5198" font-family="Times,serif" font-size="14.00" fill="#000000">...</text>
<polygon fill="none" stroke="#000000" points="933.5,-856.7198 933.5,-877.7198 967.5,-877.7198 967.5,-856.7198 933.5,-856.7198"/>
<text text-anchor="start" x="943.5" y="-863.5198" font-family="Times,serif" font-size="14.00" fill="#000000">...</text>
<polygon fill="none" stroke="#000000" points="967.5,-856.7198 967.5,-877.7198 1070.5,-877.7198 1070.5,-856.7198 967.5,-856.7198"/>
<text text-anchor="start" x="970.5" y="-863.5198" font-family="Times,serif" font-size="14.00" fill="#000000">switch (code)</text>
<polygon fill="none" stroke="#000000" points="1070.5,-856.7198 1070.5,-877.7198 1146.5,-877.7198 1146.5,-856.7198 1070.5,-856.7198"/>
<text text-anchor="start" x="1073.5" y="-863.5198" font-family="Times,serif" font-size="14.00" fill="#000000">encoded2</text>
</g>
<!-- ruby_array__seq&#45;&gt;packed_int__seq -->
<g id="edge2" class="edge">
<title>ruby_array__seq:num_elements_type&#45;&gt;packed_int__seq</title>
<path fill="none" stroke="#000000" stroke-width="2" d="M1130.5166,-781.416C1180.042,-718.4839 1215.6646,-653.7198 1152.5,-653.7198"/>
<polygon fill="#000000" stroke="#000000" stroke-width="2" points="1127.5886,-779.4741 1124.0924,-789.4755 1133.0624,-783.8373 1127.5886,-779.4741"/>
</g>
<!-- ruby_array__seq&#45;&gt;record__seq -->
<g id="edge3" class="edge">
<title>ruby_array__seq:elements_type&#45;&gt;record__seq</title>
<path fill="none" stroke="#000000" stroke-width="2" d="M1152.5,-631.7198C1152.5,-631.7198 889,-596.7198 889,-596.7198 839.1111,-630.9447 858.4339,-666.0966 840,-723.7198 829.0956,-757.8062 848.2746,-779.7804 820,-801.7198 766.1007,-843.5424 579.854,-815.3146 513,-801.7198 489.1068,-796.8611 464.2897,-788.0206 441.9406,-778.4686"/>
<polygon fill="#000000" stroke="#000000" stroke-width="2" points="443.0873,-775.1499 432.5234,-774.3409 440.2771,-781.561 443.0873,-775.1499"/>
</g>
<!-- bignum__seq -->
<g id="node3" class="node">
<title>bignum__seq</title>
<polygon fill="#e0ffe0" stroke="transparent" points="856.5,-147.7198 856.5,-168.7198 887.5,-168.7198 887.5,-147.7198 856.5,-147.7198"/>
<polygon fill="none" stroke="#000000" points="856.5,-147.7198 856.5,-168.7198 887.5,-168.7198 887.5,-147.7198 856.5,-147.7198"/>
<text text-anchor="start" x="859.5" y="-154.5198" font-family="Times,serif" font-size="14.00" fill="#000000">pos</text>
<polygon fill="#e0ffe0" stroke="transparent" points="887.5,-147.7198 887.5,-168.7198 1040.5,-168.7198 1040.5,-147.7198 887.5,-147.7198"/>
<polygon fill="none" stroke="#000000" points="887.5,-147.7198 887.5,-168.7198 1040.5,-168.7198 1040.5,-147.7198 887.5,-147.7198"/>
<text text-anchor="start" x="950" y="-154.5198" font-family="Times,serif" font-size="14.00" fill="#000000">size</text>
<polygon fill="#e0ffe0" stroke="transparent" points="1040.5,-147.7198 1040.5,-168.7198 1119.5,-168.7198 1119.5,-147.7198 1040.5,-147.7198"/>
<polygon fill="none" stroke="#000000" points="1040.5,-147.7198 1040.5,-168.7198 1119.5,-168.7198 1119.5,-147.7198 1040.5,-147.7198"/>
<text text-anchor="start" x="1064" y="-154.5198" font-family="Times,serif" font-size="14.00" fill="#000000">type</text>
<polygon fill="#e0ffe0" stroke="transparent" points="1119.5,-147.7198 1119.5,-168.7198 1193.5,-168.7198 1193.5,-147.7198 1119.5,-147.7198"/>
<polygon fill="none" stroke="#000000" points="1119.5,-147.7198 1119.5,-168.7198 1193.5,-168.7198 1193.5,-147.7198 1119.5,-147.7198"/>
<text text-anchor="start" x="1149.5" y="-154.5198" font-family="Times,serif" font-size="14.00" fill="#000000">id</text>
<polygon fill="none" stroke="#000000" points="856.5,-126.7198 856.5,-147.7198 887.5,-147.7198 887.5,-126.7198 856.5,-126.7198"/>
<text text-anchor="start" x="867" y="-133.5198" font-family="Times,serif" font-size="14.00" fill="#000000">0</text>
<polygon fill="none" stroke="#000000" points="887.5,-126.7198 887.5,-147.7198 1040.5,-147.7198 1040.5,-126.7198 887.5,-126.7198"/>
<text text-anchor="start" x="959" y="-133.5198" font-family="Times,serif" font-size="14.00" fill="#000000">1</text>
<polygon fill="none" stroke="#000000" points="1040.5,-126.7198 1040.5,-147.7198 1119.5,-147.7198 1119.5,-126.7198 1040.5,-126.7198"/>
<text text-anchor="start" x="1070.5" y="-133.5198" font-family="Times,serif" font-size="14.00" fill="#000000">u1</text>
<polygon fill="none" stroke="#000000" points="1119.5,-126.7198 1119.5,-147.7198 1193.5,-147.7198 1193.5,-126.7198 1119.5,-126.7198"/>
<text text-anchor="start" x="1141" y="-133.5198" font-family="Times,serif" font-size="14.00" fill="#000000">sign</text>
<polygon fill="none" stroke="#000000" points="856.5,-105.7198 856.5,-126.7198 887.5,-126.7198 887.5,-105.7198 856.5,-105.7198"/>
<text text-anchor="start" x="867" y="-112.5198" font-family="Times,serif" font-size="14.00" fill="#000000">1</text>
<polygon fill="none" stroke="#000000" points="887.5,-105.7198 887.5,-126.7198 1040.5,-126.7198 1040.5,-105.7198 887.5,-105.7198"/>
<text text-anchor="start" x="957" y="-112.5198" font-family="Times,serif" font-size="14.00" fill="#000000">...</text>
<polygon fill="none" stroke="#000000" points="1040.5,-105.7198 1040.5,-126.7198 1119.5,-126.7198 1119.5,-105.7198 1040.5,-105.7198"/>
<text text-anchor="start" x="1043.5" y="-112.5198" font-family="Times,serif" font-size="14.00" fill="#000000">PackedInt</text>
<polygon fill="none" stroke="#000000" points="1119.5,-105.7198 1119.5,-126.7198 1193.5,-126.7198 1193.5,-105.7198 1119.5,-105.7198"/>
<text text-anchor="start" x="1122.5" y="-112.5198" font-family="Times,serif" font-size="14.00" fill="#000000">len_div_2</text>
<polygon fill="none" stroke="#000000" points="856.5,-84.7198 856.5,-105.7198 887.5,-105.7198 887.5,-84.7198 856.5,-84.7198"/>
<text text-anchor="start" x="865" y="-91.5198" font-family="Times,serif" font-size="14.00" fill="#000000">...</text>
<polygon fill="none" stroke="#000000" points="887.5,-84.7198 887.5,-105.7198 1040.5,-105.7198 1040.5,-84.7198 887.5,-84.7198"/>
<text text-anchor="start" x="890.5" y="-91.5198" font-family="Times,serif" font-size="14.00" fill="#000000">(len_div_2.value * 2)</text>
<polygon fill="none" stroke="#000000" points="1040.5,-84.7198 1040.5,-105.7198 1119.5,-105.7198 1119.5,-84.7198 1040.5,-84.7198"/>
<polygon fill="none" stroke="#000000" points="1119.5,-84.7198 1119.5,-105.7198 1193.5,-105.7198 1193.5,-84.7198 1119.5,-84.7198"/>
<text text-anchor="start" x="1139" y="-91.5198" font-family="Times,serif" font-size="14.00" fill="#000000">body</text>
</g>
<!-- bignum__seq&#45;&gt;packed_int__seq -->
<g id="edge5" class="edge">
<title>bignum__seq:len_div_2_type&#45;&gt;packed_int__seq</title>
<path fill="none" stroke="#000000" stroke-width="2" d="M1201,-115.7198C1226.3333,-115.7198 1218.0271,-153.962 1201,-172.7198 1145.1988,-234.1927 863.7766,-140.879 830,-216.7198 818.7441,-241.9933 819.059,-689.3084 830,-714.7198 853.227,-768.6665 900.9095,-814.1854 943.2475,-846.4537"/>
<polygon fill="#000000" stroke="#000000" stroke-width="2" points="941.2561,-849.3349 951.3589,-852.5262 945.4512,-843.7313 941.2561,-849.3349"/>
</g>
<!-- ruby_struct__seq -->
<g id="node4" class="node">
<title>ruby_struct__seq</title>
<polygon fill="#e0ffe0" stroke="transparent" points="534.5,-927.7198 534.5,-948.7198 565.5,-948.7198 565.5,-927.7198 534.5,-927.7198"/>
<polygon fill="none" stroke="#000000" points="534.5,-927.7198 534.5,-948.7198 565.5,-948.7198 565.5,-927.7198 534.5,-927.7198"/>
<text text-anchor="start" x="537.5" y="-934.5198" font-family="Times,serif" font-size="14.00" fill="#000000">pos</text>
<polygon fill="#e0ffe0" stroke="transparent" points="565.5,-927.7198 565.5,-948.7198 599.5,-948.7198 599.5,-927.7198 565.5,-927.7198"/>
<polygon fill="none" stroke="#000000" points="565.5,-927.7198 565.5,-948.7198 599.5,-948.7198 599.5,-927.7198 565.5,-927.7198"/>
<text text-anchor="start" x="568.5" y="-934.5198" font-family="Times,serif" font-size="14.00" fill="#000000">size</text>
<polygon fill="#e0ffe0" stroke="transparent" points="599.5,-927.7198 599.5,-948.7198 678.5,-948.7198 678.5,-927.7198 599.5,-927.7198"/>
<polygon fill="none" stroke="#000000" points="599.5,-927.7198 599.5,-948.7198 678.5,-948.7198 678.5,-927.7198 599.5,-927.7198"/>
<text text-anchor="start" x="623" y="-934.5198" font-family="Times,serif" font-size="14.00" fill="#000000">type</text>
<polygon fill="#e0ffe0" stroke="transparent" points="678.5,-927.7198 678.5,-948.7198 790.5,-948.7198 790.5,-927.7198 678.5,-927.7198"/>
<polygon fill="none" stroke="#000000" points="678.5,-927.7198 678.5,-948.7198 790.5,-948.7198 790.5,-927.7198 678.5,-927.7198"/>
<text text-anchor="start" x="727.5" y="-934.5198" font-family="Times,serif" font-size="14.00" fill="#000000">id</text>
<polygon fill="none" stroke="#000000" points="534.5,-906.7198 534.5,-927.7198 565.5,-927.7198 565.5,-906.7198 534.5,-906.7198"/>
<text text-anchor="start" x="545" y="-913.5198" font-family="Times,serif" font-size="14.00" fill="#000000">0</text>
<polygon fill="none" stroke="#000000" points="565.5,-906.7198 565.5,-927.7198 599.5,-927.7198 599.5,-906.7198 565.5,-906.7198"/>
<text text-anchor="start" x="575.5" y="-913.5198" font-family="Times,serif" font-size="14.00" fill="#000000">...</text>
<polygon fill="none" stroke="#000000" points="599.5,-906.7198 599.5,-927.7198 678.5,-927.7198 678.5,-906.7198 599.5,-906.7198"/>
<text text-anchor="start" x="613" y="-913.5198" font-family="Times,serif" font-size="14.00" fill="#000000">Record</text>
<polygon fill="none" stroke="#000000" points="678.5,-906.7198 678.5,-927.7198 790.5,-927.7198 790.5,-906.7198 678.5,-906.7198"/>
<text text-anchor="start" x="714.5" y="-913.5198" font-family="Times,serif" font-size="14.00" fill="#000000">name</text>
<polygon fill="none" stroke="#000000" points="534.5,-885.7198 534.5,-906.7198 565.5,-906.7198 565.5,-885.7198 534.5,-885.7198"/>
<text text-anchor="start" x="543" y="-892.5198" font-family="Times,serif" font-size="14.00" fill="#000000">...</text>
<polygon fill="none" stroke="#000000" points="565.5,-885.7198 565.5,-906.7198 599.5,-906.7198 599.5,-885.7198 565.5,-885.7198"/>
<text text-anchor="start" x="575.5" y="-892.5198" font-family="Times,serif" font-size="14.00" fill="#000000">...</text>
<polygon fill="none" stroke="#000000" points="599.5,-885.7198 599.5,-906.7198 678.5,-906.7198 678.5,-885.7198 599.5,-885.7198"/>
<text text-anchor="start" x="602.5" y="-892.5198" font-family="Times,serif" font-size="14.00" fill="#000000">PackedInt</text>
<polygon fill="none" stroke="#000000" points="678.5,-885.7198 678.5,-906.7198 790.5,-906.7198 790.5,-885.7198 678.5,-885.7198"/>
<text text-anchor="start" x="681.5" y="-892.5198" font-family="Times,serif" font-size="14.00" fill="#000000">num_members</text>
<polygon fill="none" stroke="#000000" points="534.5,-864.7198 534.5,-885.7198 565.5,-885.7198 565.5,-864.7198 534.5,-864.7198"/>
<text text-anchor="start" x="543" y="-871.5198" font-family="Times,serif" font-size="14.00" fill="#000000">...</text>
<polygon fill="none" stroke="#000000" points="565.5,-864.7198 565.5,-885.7198 599.5,-885.7198 599.5,-864.7198 565.5,-864.7198"/>
<text text-anchor="start" x="575.5" y="-871.5198" font-family="Times,serif" font-size="14.00" fill="#000000">...</text>
<polygon fill="none" stroke="#000000" points="599.5,-864.7198 599.5,-885.7198 678.5,-885.7198 678.5,-864.7198 599.5,-864.7198"/>
<text text-anchor="start" x="624.5" y="-871.5198" font-family="Times,serif" font-size="14.00" fill="#000000">Pair</text>
<polygon fill="none" stroke="#000000" points="678.5,-864.7198 678.5,-885.7198 790.5,-885.7198 790.5,-864.7198 678.5,-864.7198"/>
<text text-anchor="start" x="701" y="-871.5198" font-family="Times,serif" font-size="14.00" fill="#000000">members</text>
<polygon fill="none" stroke="#000000" points="534.5,-843.7198 534.5,-864.7198 790.5,-864.7198 790.5,-843.7198 534.5,-843.7198"/>
<text text-anchor="start" x="540.5" y="-850.5198" font-family="Times,serif" font-size="14.00" fill="#000000">repeat num_members.value times</text>
</g>
<!-- ruby_struct__seq&#45;&gt;packed_int__seq -->
<g id="edge8" class="edge">
<title>ruby_struct__seq:num_members_type&#45;&gt;packed_int__seq</title>
<path fill="none" stroke="#000000" stroke-width="2" d="M790.5,-895.7198C820.7054,-895.7198 853.1022,-895.9728 883.8701,-896.3319"/>
<polygon fill="#000000" stroke="#000000" stroke-width="2" points="884.1948,-899.836 894.2365,-896.4575 884.2796,-892.8365 884.1948,-899.836"/>
</g>
<!-- pair__seq -->
<g id="node11" class="node">
<title>pair__seq</title>
<polygon fill="#e0ffe0" stroke="transparent" points="940.5,-1186.7198 940.5,-1207.7198 971.5,-1207.7198 971.5,-1186.7198 940.5,-1186.7198"/>
<polygon fill="none" stroke="#000000" points="940.5,-1186.7198 940.5,-1207.7198 971.5,-1207.7198 971.5,-1186.7198 940.5,-1186.7198"/>
<text text-anchor="start" x="943.5" y="-1193.5198" font-family="Times,serif" font-size="14.00" fill="#000000">pos</text>
<polygon fill="#e0ffe0" stroke="transparent" points="971.5,-1186.7198 971.5,-1207.7198 1005.5,-1207.7198 1005.5,-1186.7198 971.5,-1186.7198"/>
<polygon fill="none" stroke="#000000" points="971.5,-1186.7198 971.5,-1207.7198 1005.5,-1207.7198 1005.5,-1186.7198 971.5,-1186.7198"/>
<text text-anchor="start" x="974.5" y="-1193.5198" font-family="Times,serif" font-size="14.00" fill="#000000">size</text>
<polygon fill="#e0ffe0" stroke="transparent" points="1005.5,-1186.7198 1005.5,-1207.7198 1063.5,-1207.7198 1063.5,-1186.7198 1005.5,-1186.7198"/>
<polygon fill="none" stroke="#000000" points="1005.5,-1186.7198 1005.5,-1207.7198 1063.5,-1207.7198 1063.5,-1186.7198 1005.5,-1186.7198"/>
<text text-anchor="start" x="1018.5" y="-1193.5198" font-family="Times,serif" font-size="14.00" fill="#000000">type</text>
<polygon fill="#e0ffe0" stroke="transparent" points="1063.5,-1186.7198 1063.5,-1207.7198 1108.5,-1207.7198 1108.5,-1186.7198 1063.5,-1186.7198"/>
<polygon fill="none" stroke="#000000" points="1063.5,-1186.7198 1063.5,-1207.7198 1108.5,-1207.7198 1108.5,-1186.7198 1063.5,-1186.7198"/>
<text text-anchor="start" x="1079" y="-1193.5198" font-family="Times,serif" font-size="14.00" fill="#000000">id</text>
<polygon fill="none" stroke="#000000" points="940.5,-1165.7198 940.5,-1186.7198 971.5,-1186.7198 971.5,-1165.7198 940.5,-1165.7198"/>
<text text-anchor="start" x="951" y="-1172.5198" font-family="Times,serif" font-size="14.00" fill="#000000">0</text>
<polygon fill="none" stroke="#000000" points="971.5,-1165.7198 971.5,-1186.7198 1005.5,-1186.7198 1005.5,-1165.7198 971.5,-1165.7198"/>
<text text-anchor="start" x="981.5" y="-1172.5198" font-family="Times,serif" font-size="14.00" fill="#000000">...</text>
<polygon fill="none" stroke="#000000" points="1005.5,-1165.7198 1005.5,-1186.7198 1063.5,-1186.7198 1063.5,-1165.7198 1005.5,-1165.7198"/>
<text text-anchor="start" x="1008.5" y="-1172.5198" font-family="Times,serif" font-size="14.00" fill="#000000">Record</text>
<polygon fill="none" stroke="#000000" points="1063.5,-1165.7198 1063.5,-1186.7198 1108.5,-1186.7198 1108.5,-1165.7198 1063.5,-1165.7198"/>
<text text-anchor="start" x="1073" y="-1172.5198" font-family="Times,serif" font-size="14.00" fill="#000000">key</text>
<polygon fill="none" stroke="#000000" points="940.5,-1144.7198 940.5,-1165.7198 971.5,-1165.7198 971.5,-1144.7198 940.5,-1144.7198"/>
<text text-anchor="start" x="949" y="-1151.5198" font-family="Times,serif" font-size="14.00" fill="#000000">...</text>
<polygon fill="none" stroke="#000000" points="971.5,-1144.7198 971.5,-1165.7198 1005.5,-1165.7198 1005.5,-1144.7198 971.5,-1144.7198"/>
<text text-anchor="start" x="981.5" y="-1151.5198" font-family="Times,serif" font-size="14.00" fill="#000000">...</text>
<polygon fill="none" stroke="#000000" points="1005.5,-1144.7198 1005.5,-1165.7198 1063.5,-1165.7198 1063.5,-1144.7198 1005.5,-1144.7198"/>
<text text-anchor="start" x="1008.5" y="-1151.5198" font-family="Times,serif" font-size="14.00" fill="#000000">Record</text>
<polygon fill="none" stroke="#000000" points="1063.5,-1144.7198 1063.5,-1165.7198 1108.5,-1165.7198 1108.5,-1144.7198 1063.5,-1144.7198"/>
<text text-anchor="start" x="1066.5" y="-1151.5198" font-family="Times,serif" font-size="14.00" fill="#000000">value</text>
</g>
<!-- ruby_struct__seq&#45;&gt;pair__seq -->
<g id="edge9" class="edge">
<title>ruby_struct__seq:members_type&#45;&gt;pair__seq</title>
<path fill="none" stroke="#000000" stroke-width="2" d="M790.5,-874.7198C842.8356,-874.7198 809.7279,-937.4022 820,-988.7198 826.1683,-1019.5355 819.0637,-1105.2821 840,-1128.7198 860.9902,-1152.2179 891.8826,-1164.8774 922.4101,-1171.5098"/>
<polygon fill="#000000" stroke="#000000" stroke-width="2" points="921.8078,-1174.9584 932.2958,-1173.4575 923.161,-1168.0904 921.8078,-1174.9584"/>
</g>
<!-- ruby_struct__seq&#45;&gt;record__seq -->
<g id="edge7" class="edge">
<title>ruby_struct__seq:name_type&#45;&gt;record__seq</title>
<path fill="none" stroke="#000000" stroke-width="2" d="M790.5,-917.7198C790.5,-917.7198 526.5,-953.2198 526.5,-953.2198 455.7109,-917.9733 407.6564,-835.4055 383.2552,-783.6061"/>
<polygon fill="#000000" stroke="#000000" stroke-width="2" points="386.3364,-781.9293 378.9741,-774.3104 379.9783,-784.8575 386.3364,-781.9293"/>
</g>
<!-- ruby_symbol__seq -->
<g id="node5" class="node">
<title>ruby_symbol__seq</title>
<polygon fill="#e0ffe0" stroke="transparent" points="909.5,-523.7198 909.5,-544.7198 940.5,-544.7198 940.5,-523.7198 909.5,-523.7198"/>
<polygon fill="none" stroke="#000000" points="909.5,-523.7198 909.5,-544.7198 940.5,-544.7198 940.5,-523.7198 909.5,-523.7198"/>
<text text-anchor="start" x="912.5" y="-530.5198" font-family="Times,serif" font-size="14.00" fill="#000000">pos</text>
<polygon fill="#e0ffe0" stroke="transparent" points="940.5,-523.7198 940.5,-544.7198 1011.5,-544.7198 1011.5,-523.7198 940.5,-523.7198"/>
<polygon fill="none" stroke="#000000" points="940.5,-523.7198 940.5,-544.7198 1011.5,-544.7198 1011.5,-523.7198 940.5,-523.7198"/>
<text text-anchor="start" x="962" y="-530.5198" font-family="Times,serif" font-size="14.00" fill="#000000">size</text>
<polygon fill="#e0ffe0" stroke="transparent" points="1011.5,-523.7198 1011.5,-544.7198 1093.5,-544.7198 1093.5,-523.7198 1011.5,-523.7198"/>
<polygon fill="none" stroke="#000000" points="1011.5,-523.7198 1011.5,-544.7198 1093.5,-544.7198 1093.5,-523.7198 1011.5,-523.7198"/>
<text text-anchor="start" x="1036.5" y="-530.5198" font-family="Times,serif" font-size="14.00" fill="#000000">type</text>
<polygon fill="#e0ffe0" stroke="transparent" points="1093.5,-523.7198 1093.5,-544.7198 1139.5,-544.7198 1139.5,-523.7198 1093.5,-523.7198"/>
<polygon fill="none" stroke="#000000" points="1093.5,-523.7198 1093.5,-544.7198 1139.5,-544.7198 1139.5,-523.7198 1093.5,-523.7198"/>
<text text-anchor="start" x="1109.5" y="-530.5198" font-family="Times,serif" font-size="14.00" fill="#000000">id</text>
<polygon fill="none" stroke="#000000" points="909.5,-502.7198 909.5,-523.7198 940.5,-523.7198 940.5,-502.7198 909.5,-502.7198"/>
<text text-anchor="start" x="920" y="-509.5198" font-family="Times,serif" font-size="14.00" fill="#000000">0</text>
<polygon fill="none" stroke="#000000" points="940.5,-502.7198 940.5,-523.7198 1011.5,-523.7198 1011.5,-502.7198 940.5,-502.7198"/>
<text text-anchor="start" x="969" y="-509.5198" font-family="Times,serif" font-size="14.00" fill="#000000">...</text>
<polygon fill="none" stroke="#000000" points="1011.5,-502.7198 1011.5,-523.7198 1093.5,-523.7198 1093.5,-502.7198 1011.5,-502.7198"/>
<text text-anchor="start" x="1016" y="-509.5198" font-family="Times,serif" font-size="14.00" fill="#000000">PackedInt</text>
<polygon fill="none" stroke="#000000" points="1093.5,-502.7198 1093.5,-523.7198 1139.5,-523.7198 1139.5,-502.7198 1093.5,-502.7198"/>
<text text-anchor="start" x="1105.5" y="-509.5198" font-family="Times,serif" font-size="14.00" fill="#000000">len</text>
<polygon fill="none" stroke="#000000" points="909.5,-481.7198 909.5,-502.7198 940.5,-502.7198 940.5,-481.7198 909.5,-481.7198"/>
<text text-anchor="start" x="918" y="-488.5198" font-family="Times,serif" font-size="14.00" fill="#000000">...</text>
<polygon fill="none" stroke="#000000" points="940.5,-481.7198 940.5,-502.7198 1011.5,-502.7198 1011.5,-481.7198 940.5,-481.7198"/>
<text text-anchor="start" x="943.5" y="-488.5198" font-family="Times,serif" font-size="14.00" fill="#000000">len.value</text>
<polygon fill="none" stroke="#000000" points="1011.5,-481.7198 1011.5,-502.7198 1093.5,-502.7198 1093.5,-481.7198 1011.5,-481.7198"/>
<text text-anchor="start" x="1014.5" y="-488.5198" font-family="Times,serif" font-size="14.00" fill="#000000">str(UTF&#45;8)</text>
<polygon fill="none" stroke="#000000" points="1093.5,-481.7198 1093.5,-502.7198 1139.5,-502.7198 1139.5,-481.7198 1093.5,-481.7198"/>
<text text-anchor="start" x="1096.5" y="-488.5198" font-family="Times,serif" font-size="14.00" fill="#000000">name</text>
</g>
<!-- ruby_symbol__seq&#45;&gt;packed_int__seq -->
<g id="edge11" class="edge">
<title>ruby_symbol__seq:len_type&#45;&gt;packed_int__seq</title>
<path fill="none" stroke="#000000" stroke-width="2" d="M1147.5,-512.7198C1163.7222,-512.7198 1158.293,-537.109 1147.5,-549.2198 1100.0988,-602.4082 858.9853,-528.6373 830,-593.7198 819.0606,-618.2828 819.3666,-690.0228 830,-714.7198 853.227,-768.6665 900.9095,-814.1854 943.2475,-846.4537"/>
<polygon fill="#000000" stroke="#000000" stroke-width="2" points="941.2561,-849.3349 951.3589,-852.5262 945.4512,-843.7313 941.2561,-849.3349"/>
</g>
<!-- packed_int__seq&#45;&gt;packed_int__seq -->
<g id="edge14" class="edge">
<title>packed_int__seq:code_type&#45;&gt;packed_int__seq:encoded_type</title>
<path fill="none" stroke="#404040" d="M1074.1814,-919.7655C1019.994,-939.7565 1031.4336,-962.7198 1108.5,-962.7198 1181.3836,-962.7198 1195.5709,-927.9128 1151.0618,-903.2189"/>
<polygon fill="#404040" stroke="#404040" points="1152.58,-900.065 1142.0688,-898.7364 1149.4573,-906.3299 1152.58,-900.065"/>
</g>
<!-- packed_int__seq&#45;&gt;packed_int__seq -->
<g id="edge16" class="edge">
<title>packed_int__seq:code_type&#45;&gt;packed_int__seq:encoded2_type</title>
<path fill="none" stroke="#404040" d="M1074.1814,-919.7655C1019.994,-939.7565 1031.4336,-962.7198 1108.5,-962.7198 1182.6886,-962.7198 1196.0601,-912.5429 1148.6145,-882.7032"/>
<polygon fill="#404040" stroke="#404040" points="1150.2035,-879.5815 1139.7696,-877.7422 1146.7792,-885.6868 1150.2035,-879.5815"/>
</g>
<!-- packed_int__inst__is_immediate -->
<g id="node7" class="node">
<title>packed_int__inst__is_immediate</title>
<polygon fill="#e0ffe0" stroke="transparent" points="1245.5,-1008.7198 1245.5,-1029.7198 1347.5,-1029.7198 1347.5,-1008.7198 1245.5,-1008.7198"/>
<polygon fill="none" stroke="#000000" points="1245.5,-1008.7198 1245.5,-1029.7198 1347.5,-1029.7198 1347.5,-1008.7198 1245.5,-1008.7198"/>
<text text-anchor="start" x="1289.5" y="-1015.5198" font-family="Times,serif" font-size="14.00" fill="#000000">id</text>
<polygon fill="#e0ffe0" stroke="transparent" points="1347.5,-1008.7198 1347.5,-1029.7198 1574.5,-1029.7198 1574.5,-1008.7198 1347.5,-1008.7198"/>
<polygon fill="none" stroke="#000000" points="1347.5,-1008.7198 1347.5,-1029.7198 1574.5,-1029.7198 1574.5,-1008.7198 1347.5,-1008.7198"/>
<text text-anchor="start" x="1441.5" y="-1015.5198" font-family="Times,serif" font-size="14.00" fill="#000000">value</text>
<polygon fill="none" stroke="#000000" points="1245.5,-987.7198 1245.5,-1008.7198 1347.5,-1008.7198 1347.5,-987.7198 1245.5,-987.7198"/>
<text text-anchor="start" x="1248.5" y="-994.5198" font-family="Times,serif" font-size="14.00" fill="#000000">is_immediate</text>
<polygon fill="none" stroke="#000000" points="1347.5,-987.7198 1347.5,-1008.7198 1574.5,-1008.7198 1574.5,-987.7198 1347.5,-987.7198"/>
<text text-anchor="start" x="1350.5" y="-994.5198" font-family="Times,serif" font-size="14.00" fill="#000000"> ((code &gt; 4) &amp;&amp; (code &lt; 252)) </text>
</g>
<!-- packed_int__seq&#45;&gt;packed_int__inst__is_immediate -->
<g id="edge17" class="edge">
<title>packed_int__seq:code_type&#45;&gt;packed_int__inst__is_immediate</title>
<path fill="none" stroke="#404040" d="M1146.5,-909.7198C1194.7591,-900.7198 1192.6241,-941.7537 1237,-960.7198 1256.3767,-969.0013 1277.7619,-975.6455 1298.6861,-981.1084"/>
<polygon fill="#404040" stroke="#404040" points="1298.0295,-984.5526 1308.583,-983.6168 1299.7494,-977.7672 1298.0295,-984.5526"/>
</g>
<!-- packed_int__seq&#45;&gt;packed_int__inst__is_immediate -->
<g id="edge18" class="edge">
<title>packed_int__seq:code_type&#45;&gt;packed_int__inst__is_immediate</title>
<path fill="none" stroke="#404040" d="M1146.7822,-909.7729C1194.7509,-918.88 1192.7107,-959.7907 1237,-978.7198 1237.8646,-979.0894 1238.7333,-979.4556 1239.6057,-979.8187"/>
<polygon fill="#404040" stroke="#404040" points="1238.502,-983.1462 1249.0877,-983.5844 1241.0857,-976.6405 1238.502,-983.1462"/>
</g>
<!-- packed_int__inst__value -->
<g id="node8" class="node">
<title>packed_int__inst__value</title>
<polygon fill="#e0ffe0" stroke="transparent" points="1626,-890.7198 1626,-911.7198 1671,-911.7198 1671,-890.7198 1626,-890.7198"/>
<polygon fill="none" stroke="#000000" points="1626,-890.7198 1626,-911.7198 1671,-911.7198 1671,-890.7198 1626,-890.7198"/>
<text text-anchor="start" x="1641.5" y="-897.5198" font-family="Times,serif" font-size="14.00" fill="#000000">id</text>
<polygon fill="#e0ffe0" stroke="transparent" points="1671,-890.7198 1671,-911.7198 3620,-911.7198 3620,-890.7198 1671,-890.7198"/>
<polygon fill="none" stroke="#000000" points="1671,-890.7198 1671,-911.7198 3620,-911.7198 3620,-890.7198 1671,-890.7198"/>
<text text-anchor="start" x="2626" y="-897.5198" font-family="Times,serif" font-size="14.00" fill="#000000">value</text>
<polygon fill="none" stroke="#000000" points="1626,-869.7198 1626,-890.7198 1671,-890.7198 1671,-869.7198 1626,-869.7198"/>
<text text-anchor="start" x="1629" y="-876.5198" font-family="Times,serif" font-size="14.00" fill="#000000">value</text>
<polygon fill="none" stroke="#000000" points="1671,-869.7198 1671,-890.7198 3620,-890.7198 3620,-869.7198 1671,-869.7198"/>
<text text-anchor="start" x="1674" y="-876.5198" font-family="Times,serif" font-size="14.00" fill="#000000">(is_immediate ? (code &lt; 128 ? (code &#45; 5) : (4 &#45; (~(code) &amp; 127))) : (code == 0 ? 0 : (code == 255 ? (encoded &#45; 256) : (code == 254 ? (encoded &#45; 65536) : (code == 253 ? (((encoded2 &lt;&lt; 16) | encoded) &#45; 16777216) : (code == 3 ? ((encoded2 &lt;&lt; 16) | encoded) : encoded))))))</text>
</g>
<!-- packed_int__seq&#45;&gt;packed_int__inst__value -->
<g id="edge20" class="edge">
<title>packed_int__seq:code_type&#45;&gt;packed_int__inst__value</title>
<path fill="none" stroke="#404040" d="M1146.5,-909.7198C1217.9979,-873.7198 1173.8029,-973.2822 1237,-1006.7198 1304.7658,-1042.5747 1505.5347,-1012.2729 1582,-1006.7198 1829.5622,-988.7414 2107.6474,-947.016 2314.0836,-917.2081"/>
<polygon fill="#404040" stroke="#404040" points="2314.7703,-920.6454 2324.1681,-915.7534 2313.7707,-913.7171 2314.7703,-920.6454"/>
</g>
<!-- packed_int__seq&#45;&gt;packed_int__inst__value -->
<g id="edge21" class="edge">
<title>packed_int__seq:code_type&#45;&gt;packed_int__inst__value</title>
<path fill="none" stroke="#404040" d="M1146.9176,-909.6157C1217.8257,-892.1085 1173.9263,-991.3475 1237,-1024.7198 1304.7658,-1060.5747 1505.5347,-1030.2729 1582,-1024.7198 1870.4802,-1003.7699 2200.4072,-950.5741 2410.112,-917.3047"/>
<polygon fill="#404040" stroke="#404040" points="2410.678,-920.7588 2420.0064,-915.7357 2409.5816,-913.8452 2410.678,-920.7588"/>
</g>
<!-- packed_int__seq&#45;&gt;packed_int__inst__value -->
<g id="edge22" class="edge">
<title>packed_int__seq:code_type&#45;&gt;packed_int__inst__value</title>
<path fill="none" stroke="#404040" d="M1146.9176,-909.7209C1217.8257,-910.1085 1173.9263,-1009.3475 1237,-1042.7198 1304.7658,-1078.5747 1505.5347,-1048.2729 1582,-1042.7198 1907.142,-1019.1074 2284.9348,-954.5325 2483.9066,-917.5925"/>
<polygon fill="#404040" stroke="#404040" points="2484.6389,-921.0164 2493.8296,-915.7456 2483.358,-914.1346 2484.6389,-921.0164"/>
</g>
<!-- packed_int__seq&#45;&gt;packed_int__inst__value -->
<g id="edge23" class="edge">
<title>packed_int__seq:code_type&#45;&gt;packed_int__inst__value</title>
<path fill="none" stroke="#404040" d="M1146.9176,-909.8262C1217.8257,-928.1085 1173.9263,-1027.3475 1237,-1060.7198 1304.7658,-1096.5747 1505.5347,-1066.2729 1582,-1060.7198 1937.3368,-1034.9147 2355.5574,-960.1855 2534.5281,-918.108"/>
<polygon fill="#404040" stroke="#404040" points="2535.5004,-921.4745 2544.4201,-915.7571 2533.8818,-914.6642 2535.5004,-921.4745"/>
</g>
<!-- packed_int__seq&#45;&gt;packed_int__inst__value -->
<g id="edge24" class="edge">
<title>packed_int__seq:code_type&#45;&gt;packed_int__inst__value</title>
<path fill="none" stroke="#404040" d="M1146.9176,-909.9315C1217.8257,-946.1085 1173.9263,-1045.3475 1237,-1078.7198 1304.7658,-1114.5747 1505.5347,-1084.2729 1582,-1078.7198 1959.6717,-1051.2927 2408.3808,-968.598 2565.3653,-919.0201"/>
<polygon fill="#404040" stroke="#404040" points="2566.8481,-922.2186 2575.2798,-915.8033 2564.6878,-915.5603 2566.8481,-922.2186"/>
</g>
<!-- packed_int__seq&#45;&gt;packed_int__inst__value -->
<g id="edge25" class="edge">
<title>packed_int__seq:encoded_type&#45;&gt;packed_int__inst__value</title>
<path fill="none" stroke="#404040" d="M1146.5,-887.7198C1190.8427,-887.7198 1193.6997,-855.2778 1237,-845.7198 1386.7289,-812.669 1428.7024,-842.408 1582,-845.7198 1762.4055,-849.6172 1960.2743,-857.3097 2134.6062,-865.248"/>
<polygon fill="#404040" stroke="#404040" points="2134.5827,-868.7504 2144.732,-865.7105 2134.9022,-861.7577 2134.5827,-868.7504"/>
</g>
<!-- packed_int__seq&#45;&gt;packed_int__inst__value -->
<g id="edge26" class="edge">
<title>packed_int__seq:code_type&#45;&gt;packed_int__inst__value</title>
<path fill="none" stroke="#404040" d="M1146.5,-909.7198C1222.8439,-909.7198 1170.295,-1018.5871 1237,-1055.7198 1303.987,-1093.0095 1505.57,-1061.7394 1582,-1055.7198 1913.262,-1029.6299 2298.3673,-957.5301 2494.247,-917.8221"/>
<polygon fill="#404040" stroke="#404040" points="2495.1888,-921.2023 2504.2913,-915.7807 2493.7946,-914.3425 2495.1888,-921.2023"/>
</g>
<!-- packed_int__seq&#45;&gt;packed_int__inst__value -->
<g id="edge27" class="edge">
<title>packed_int__seq:encoded_type&#45;&gt;packed_int__inst__value</title>
<path fill="none" stroke="#404040" d="M1146.5,-887.7198C1186.732,-887.7198 1196.7704,-886.1643 1237,-885.7198 1390.324,-884.0258 1428.6671,-885.3516 1582,-885.7198 1590.5247,-885.7403 1599.0887,-885.7617 1607.6876,-885.784"/>
<polygon fill="#404040" stroke="#404040" points="1607.7885,-889.2842 1617.7977,-885.8106 1607.807,-882.2842 1607.7885,-889.2842"/>
</g>
<!-- packed_int__seq&#45;&gt;packed_int__inst__value -->
<g id="edge28" class="edge">
<title>packed_int__seq:code_type&#45;&gt;packed_int__inst__value</title>
<path fill="none" stroke="#404040" d="M1146.5,-909.7198C1227.8118,-909.7198 1166.7072,-1027.8477 1237,-1068.7198 1369.5543,-1145.7943 1429.216,-1081.6879 1582,-1068.7198 1919.1483,-1040.1031 2311.1714,-960.2469 2503.757,-917.8953"/>
<polygon fill="#404040" stroke="#404040" points="2504.6083,-921.2918 2513.6202,-915.7207 2503.1011,-914.4559 2504.6083,-921.2918"/>
</g>
<!-- packed_int__seq&#45;&gt;packed_int__inst__value -->
<g id="edge29" class="edge">
<title>packed_int__seq:encoded2_type&#45;&gt;packed_int__inst__value</title>
<path fill="none" stroke="#404040" d="M1146.5,-866.7198C1211.5398,-866.7198 1178.4927,-780.1287 1237,-751.7198 1374.9329,-684.745 1429.0043,-741.5505 1582,-751.7198 1899.7913,-772.8427 2268.5673,-829.8546 2470.7964,-863.9452"/>
<polygon fill="#404040" stroke="#404040" points="2470.4516,-867.4364 2480.895,-865.6518 2471.6181,-860.5343 2470.4516,-867.4364"/>
</g>
<!-- packed_int__seq&#45;&gt;packed_int__inst__value -->
<g id="edge30" class="edge">
<title>packed_int__seq:encoded_type&#45;&gt;packed_int__inst__value</title>
<path fill="none" stroke="#404040" d="M1146.5,-887.7198C1186.8424,-887.7198 1196.6877,-882.2765 1237,-880.7198 1390.2191,-874.803 1428.6684,-879.9834 1582,-880.7198 1590.5249,-880.7608 1599.0891,-880.8036 1607.6882,-880.8482"/>
<polygon fill="#404040" stroke="#404040" points="1607.7802,-884.3487 1617.7986,-880.9014 1607.8172,-877.3488 1607.7802,-884.3487"/>
</g>
<!-- packed_int__seq&#45;&gt;packed_int__inst__value -->
<g id="edge31" class="edge">
<title>packed_int__seq:code_type&#45;&gt;packed_int__inst__value</title>
<path fill="none" stroke="#404040" d="M1146.5,-909.7198C1191.4202,-909.7198 1193.27,-944.4476 1237,-954.7198 1386.2704,-989.7835 1428.7389,-959.4266 1582,-954.7198 1818.8315,-947.4466 2085.5426,-930.8867 2289.7064,-916.4345"/>
<polygon fill="#404040" stroke="#404040" points="2289.9594,-919.9254 2299.6865,-915.7262 2289.4638,-912.943 2289.9594,-919.9254"/>
</g>
<!-- packed_int__seq&#45;&gt;packed_int__inst__value -->
<g id="edge32" class="edge">
<title>packed_int__seq:encoded2_type&#45;&gt;packed_int__inst__value</title>
<path fill="none" stroke="#404040" d="M1146.5,-866.7198C1206.4428,-866.7198 1182.2087,-791.0314 1237,-766.7198 1307.0779,-735.6254 1505.468,-762.1778 1582,-766.7198 1890.3602,-785.0205 2247.4036,-833.5573 2453.0456,-864.1951"/>
<polygon fill="#404040" stroke="#404040" points="2452.6191,-867.6702 2463.0264,-865.6858 2453.6532,-860.747 2452.6191,-867.6702"/>
</g>
<!-- packed_int__seq&#45;&gt;packed_int__inst__value -->
<g id="edge33" class="edge">
<title>packed_int__seq:encoded_type&#45;&gt;packed_int__inst__value</title>
<path fill="none" stroke="#404040" d="M1146.5,-887.7198C1295.5871,-885.6751 1453.1419,-884.2498 1607.6216,-883.3735"/>
<polygon fill="#404040" stroke="#404040" points="1607.8121,-886.8726 1617.7923,-883.3166 1607.7728,-879.8727 1607.8121,-886.8726"/>
</g>
<!-- packed_int__seq&#45;&gt;packed_int__inst__value -->
<g id="edge34" class="edge">
<title>packed_int__seq:encoded_type&#45;&gt;packed_int__inst__value</title>
<path fill="none" stroke="#404040" d="M1146.9807,-887.7264C1295.8928,-889.7678 1453.2383,-891.5002 1607.5192,-892.8536"/>
<polygon fill="#404040" stroke="#404040" points="1607.6467,-896.3547 1617.6769,-892.9422 1607.7078,-889.355 1607.6467,-896.3547"/>
</g>
<!-- packed_int__seq_encoded_switch -->
<g id="node9" class="node">
<title>packed_int__seq_encoded_switch</title>
<polygon fill="#f0f2e4" stroke="transparent" points="1371.5,-916.7198 1371.5,-937.7198 1410.5,-937.7198 1410.5,-916.7198 1371.5,-916.7198"/>
<polygon fill="none" stroke="#000000" points="1371.5,-916.7198 1371.5,-937.7198 1410.5,-937.7198 1410.5,-916.7198 1371.5,-916.7198"/>
<text text-anchor="start" x="1374.5" y="-923.5198" font-family="Times,serif" font-size="14.00" fill="#000000">case</text>
<polygon fill="#f0f2e4" stroke="transparent" points="1410.5,-916.7198 1410.5,-937.7198 1448.5,-937.7198 1448.5,-916.7198 1410.5,-916.7198"/>
<polygon fill="none" stroke="#000000" points="1410.5,-916.7198 1410.5,-937.7198 1448.5,-937.7198 1448.5,-916.7198 1410.5,-916.7198"/>
<text text-anchor="start" x="1413.5" y="-923.5198" font-family="Times,serif" font-size="14.00" fill="#000000">type</text>
</g>
<!-- packed_int__seq&#45;&gt;packed_int__seq_encoded_switch -->
<g id="edge13" class="edge">
<title>packed_int__seq:encoded_type&#45;&gt;packed_int__seq_encoded_switch</title>
<path fill="none" stroke="#000000" stroke-width="2" d="M1146.5,-887.7198C1185.5719,-887.7198 1287.8823,-905.193 1352.7709,-917.0422"/>
<polygon fill="#000000" stroke="#000000" stroke-width="2" points="1352.3808,-920.529 1362.8484,-918.8921 1353.6447,-913.6441 1352.3808,-920.529"/>
</g>
<!-- packed_int__seq_encoded2_switch -->
<g id="node10" class="node">
<title>packed_int__seq_encoded2_switch</title>
<polygon fill="#f0f2e4" stroke="transparent" points="1371.5,-782.7198 1371.5,-803.7198 1410.5,-803.7198 1410.5,-782.7198 1371.5,-782.7198"/>
<polygon fill="none" stroke="#000000" points="1371.5,-782.7198 1371.5,-803.7198 1410.5,-803.7198 1410.5,-782.7198 1371.5,-782.7198"/>
<text text-anchor="start" x="1374.5" y="-789.5198" font-family="Times,serif" font-size="14.00" fill="#000000">case</text>
<polygon fill="#f0f2e4" stroke="transparent" points="1410.5,-782.7198 1410.5,-803.7198 1448.5,-803.7198 1448.5,-782.7198 1410.5,-782.7198"/>
<polygon fill="none" stroke="#000000" points="1410.5,-782.7198 1410.5,-803.7198 1448.5,-803.7198 1448.5,-782.7198 1410.5,-782.7198"/>
<text text-anchor="start" x="1413.5" y="-789.5198" font-family="Times,serif" font-size="14.00" fill="#000000">type</text>
</g>
<!-- packed_int__seq&#45;&gt;packed_int__seq_encoded2_switch -->
<g id="edge15" class="edge">
<title>packed_int__seq:encoded2_type&#45;&gt;packed_int__seq_encoded2_switch</title>
<path fill="none" stroke="#000000" stroke-width="2" d="M1146.5,-866.7198C1190.6574,-866.7198 1194.8726,-838.9547 1237,-825.7198 1274.7898,-813.8476 1318.7007,-805.7796 1352.7618,-800.7144"/>
<polygon fill="#000000" stroke="#000000" stroke-width="2" points="1353.6006,-804.1297 1362.9986,-799.238 1352.6013,-797.2014 1353.6006,-804.1297"/>
</g>
<!-- packed_int__inst__is_immediate&#45;&gt;packed_int__inst__value -->
<g id="edge19" class="edge">
<title>packed_int__inst__is_immediate:is_immediate_type&#45;&gt;packed_int__inst__value</title>
<path fill="none" stroke="#404040" d="M1582.0762,-991.9386C1783.8255,-972.3206 2120.0653,-939.6249 2355.6569,-916.7161"/>
<polygon fill="#404040" stroke="#404040" points="2356.1314,-920.1866 2365.7457,-915.7351 2355.4539,-913.2194 2356.1314,-920.1866"/>
</g>
<!-- packed_int__inst__value&#45;&gt;ruby_array__seq -->
<g id="edge4" class="edge">
<title>packed_int__inst__value:value_type&#45;&gt;ruby_array__seq:elements__repeat</title>
<path fill="none" stroke="#404040" d="M2546.6519,-865.6253C2331.905,-797.3352 1703.055,-613.0787 1162.842,-610.7422"/>
<polygon fill="#404040" stroke="#404040" points="1162.5076,-607.2416 1152.5,-610.7198 1162.4924,-614.2416 1162.5076,-607.2416"/>
</g>
<!-- packed_int__inst__value&#45;&gt;bignum__seq -->
<g id="edge6" class="edge">
<title>packed_int__inst__value:value_type&#45;&gt;bignum__seq:body_size</title>
<path fill="none" stroke="#404040" d="M2588.339,-865.5827C2352.2401,-695.3268 989.1278,271.8377 963.856,-74.6391"/>
<polygon fill="#404040" stroke="#404040" points="960.3552,-74.6025 963.5,-84.7198 967.3508,-74.8496 960.3552,-74.6025"/>
</g>
<!-- packed_int__inst__value&#45;&gt;ruby_struct__seq -->
<g id="edge10" class="edge">
<title>packed_int__inst__value:value_type&#45;&gt;ruby_struct__seq:members__repeat</title>
<path fill="none" stroke="#404040" d="M2526.6637,-915.7263C2343.9975,-961.7055 1934.0322,-1058.045 1582,-1091.7198 1416.3168,-1107.5688 963.2903,-1101.5305 840,-989.7198 795.1441,-949.0404 847.8808,-864.4233 800.5486,-854.6469"/>
<polygon fill="#404040" stroke="#404040" points="800.7793,-851.1534 790.5,-853.7198 800.1361,-858.1238 800.7793,-851.1534"/>
</g>
<!-- packed_int__inst__value&#45;&gt;ruby_symbol__seq -->
<g id="edge12" class="edge">
<title>packed_int__inst__value:value_type&#45;&gt;ruby_symbol__seq:name_size</title>
<path fill="none" stroke="#404040" d="M2557.4319,-865.63C2352.8573,-788.864 1706.5592,-557.77 1147.5,-481.7198 1131.2263,-479.5061 1015.8966,-466.9832 983.782,-475.6341"/>
<polygon fill="#404040" stroke="#404040" points="981.4859,-472.978 975.5,-481.7198 985.6309,-478.6188 981.4859,-472.978"/>
</g>
<!-- instance_var__seq -->
<g id="node12" class="node">
<title>instance_var__seq</title>
<polygon fill="#e0ffe0" stroke="transparent" points="552.5,-1088.7198 552.5,-1109.7198 583.5,-1109.7198 583.5,-1088.7198 552.5,-1088.7198"/>
<polygon fill="none" stroke="#000000" points="552.5,-1088.7198 552.5,-1109.7198 583.5,-1109.7198 583.5,-1088.7198 552.5,-1088.7198"/>
<text text-anchor="start" x="555.5" y="-1095.5198" font-family="Times,serif" font-size="14.00" fill="#000000">pos</text>
<polygon fill="#e0ffe0" stroke="transparent" points="583.5,-1088.7198 583.5,-1109.7198 617.5,-1109.7198 617.5,-1088.7198 583.5,-1088.7198"/>
<polygon fill="none" stroke="#000000" points="583.5,-1088.7198 583.5,-1109.7198 617.5,-1109.7198 617.5,-1088.7198 583.5,-1088.7198"/>
<text text-anchor="start" x="586.5" y="-1095.5198" font-family="Times,serif" font-size="14.00" fill="#000000">size</text>
<polygon fill="#e0ffe0" stroke="transparent" points="617.5,-1088.7198 617.5,-1109.7198 696.5,-1109.7198 696.5,-1088.7198 617.5,-1088.7198"/>
<polygon fill="none" stroke="#000000" points="617.5,-1088.7198 617.5,-1109.7198 696.5,-1109.7198 696.5,-1088.7198 617.5,-1088.7198"/>
<text text-anchor="start" x="641" y="-1095.5198" font-family="Times,serif" font-size="14.00" fill="#000000">type</text>
<polygon fill="#e0ffe0" stroke="transparent" points="696.5,-1088.7198 696.5,-1109.7198 772.5,-1109.7198 772.5,-1088.7198 696.5,-1088.7198"/>
<polygon fill="none" stroke="#000000" points="696.5,-1088.7198 696.5,-1109.7198 772.5,-1109.7198 772.5,-1088.7198 696.5,-1088.7198"/>
<text text-anchor="start" x="727.5" y="-1095.5198" font-family="Times,serif" font-size="14.00" fill="#000000">id</text>
<polygon fill="none" stroke="#000000" points="552.5,-1067.7198 552.5,-1088.7198 583.5,-1088.7198 583.5,-1067.7198 552.5,-1067.7198"/>
<text text-anchor="start" x="563" y="-1074.5198" font-family="Times,serif" font-size="14.00" fill="#000000">0</text>
<polygon fill="none" stroke="#000000" points="583.5,-1067.7198 583.5,-1088.7198 617.5,-1088.7198 617.5,-1067.7198 583.5,-1067.7198"/>
<text text-anchor="start" x="593.5" y="-1074.5198" font-family="Times,serif" font-size="14.00" fill="#000000">...</text>
<polygon fill="none" stroke="#000000" points="617.5,-1067.7198 617.5,-1088.7198 696.5,-1088.7198 696.5,-1067.7198 617.5,-1067.7198"/>
<text text-anchor="start" x="631" y="-1074.5198" font-family="Times,serif" font-size="14.00" fill="#000000">Record</text>
<polygon fill="none" stroke="#000000" points="696.5,-1067.7198 696.5,-1088.7198 772.5,-1088.7198 772.5,-1067.7198 696.5,-1067.7198"/>
<text text-anchor="start" x="723.5" y="-1074.5198" font-family="Times,serif" font-size="14.00" fill="#000000">obj</text>
<polygon fill="none" stroke="#000000" points="552.5,-1046.7198 552.5,-1067.7198 583.5,-1067.7198 583.5,-1046.7198 552.5,-1046.7198"/>
<text text-anchor="start" x="561" y="-1053.5198" font-family="Times,serif" font-size="14.00" fill="#000000">...</text>
<polygon fill="none" stroke="#000000" points="583.5,-1046.7198 583.5,-1067.7198 617.5,-1067.7198 617.5,-1046.7198 583.5,-1046.7198"/>
<text text-anchor="start" x="593.5" y="-1053.5198" font-family="Times,serif" font-size="14.00" fill="#000000">...</text>
<polygon fill="none" stroke="#000000" points="617.5,-1046.7198 617.5,-1067.7198 696.5,-1067.7198 696.5,-1046.7198 617.5,-1046.7198"/>
<text text-anchor="start" x="620.5" y="-1053.5198" font-family="Times,serif" font-size="14.00" fill="#000000">PackedInt</text>
<polygon fill="none" stroke="#000000" points="696.5,-1046.7198 696.5,-1067.7198 772.5,-1067.7198 772.5,-1046.7198 696.5,-1046.7198"/>
<text text-anchor="start" x="699.5" y="-1053.5198" font-family="Times,serif" font-size="14.00" fill="#000000">num_vars</text>
<polygon fill="none" stroke="#000000" points="552.5,-1025.7198 552.5,-1046.7198 583.5,-1046.7198 583.5,-1025.7198 552.5,-1025.7198"/>
<text text-anchor="start" x="561" y="-1032.5198" font-family="Times,serif" font-size="14.00" fill="#000000">...</text>
<polygon fill="none" stroke="#000000" points="583.5,-1025.7198 583.5,-1046.7198 617.5,-1046.7198 617.5,-1025.7198 583.5,-1025.7198"/>
<text text-anchor="start" x="593.5" y="-1032.5198" font-family="Times,serif" font-size="14.00" fill="#000000">...</text>
<polygon fill="none" stroke="#000000" points="617.5,-1025.7198 617.5,-1046.7198 696.5,-1046.7198 696.5,-1025.7198 617.5,-1025.7198"/>
<text text-anchor="start" x="642.5" y="-1032.5198" font-family="Times,serif" font-size="14.00" fill="#000000">Pair</text>
<polygon fill="none" stroke="#000000" points="696.5,-1025.7198 696.5,-1046.7198 772.5,-1046.7198 772.5,-1025.7198 696.5,-1025.7198"/>
<text text-anchor="start" x="719" y="-1032.5198" font-family="Times,serif" font-size="14.00" fill="#000000">vars</text>
<polygon fill="none" stroke="#000000" points="552.5,-1004.7198 552.5,-1025.7198 772.5,-1025.7198 772.5,-1004.7198 552.5,-1004.7198"/>
<text text-anchor="start" x="558.5" y="-1011.5198" font-family="Times,serif" font-size="14.00" fill="#000000">repeat num_vars.value times</text>
</g>
<!-- packed_int__inst__value&#45;&gt;instance_var__seq -->
<g id="edge40" class="edge">
<title>packed_int__inst__value:value_type&#45;&gt;instance_var__seq:vars__repeat</title>
<path fill="none" stroke="#404040" d="M2530.2699,-915.7928C2349.5247,-963.2183 1936.7112,-1064.4642 1582,-1099.7198 1252.9059,-1132.4293 1158.4717,-1132.875 840,-1043.7198 812.1192,-1035.9147 806.283,-1019.1496 782.5538,-1015.4515"/>
<polygon fill="#404040" stroke="#404040" points="782.7277,-1011.9549 772.5,-1014.7198 782.2196,-1018.9365 782.7277,-1011.9549"/>
</g>
<!-- ruby_hash__seq -->
<g id="node15" class="node">
<title>ruby_hash__seq</title>
<polygon fill="#e0ffe0" stroke="transparent" points="911.5,-286.7198 911.5,-307.7198 942.5,-307.7198 942.5,-286.7198 911.5,-286.7198"/>
<polygon fill="none" stroke="#000000" points="911.5,-286.7198 911.5,-307.7198 942.5,-307.7198 942.5,-286.7198 911.5,-286.7198"/>
<text text-anchor="start" x="914.5" y="-293.5198" font-family="Times,serif" font-size="14.00" fill="#000000">pos</text>
<polygon fill="#e0ffe0" stroke="transparent" points="942.5,-286.7198 942.5,-307.7198 976.5,-307.7198 976.5,-286.7198 942.5,-286.7198"/>
<polygon fill="none" stroke="#000000" points="942.5,-286.7198 942.5,-307.7198 976.5,-307.7198 976.5,-286.7198 942.5,-286.7198"/>
<text text-anchor="start" x="945.5" y="-293.5198" font-family="Times,serif" font-size="14.00" fill="#000000">size</text>
<polygon fill="#e0ffe0" stroke="transparent" points="976.5,-286.7198 976.5,-307.7198 1055.5,-307.7198 1055.5,-286.7198 976.5,-286.7198"/>
<polygon fill="none" stroke="#000000" points="976.5,-286.7198 976.5,-307.7198 1055.5,-307.7198 1055.5,-286.7198 976.5,-286.7198"/>
<text text-anchor="start" x="1000" y="-293.5198" font-family="Times,serif" font-size="14.00" fill="#000000">type</text>
<polygon fill="#e0ffe0" stroke="transparent" points="1055.5,-286.7198 1055.5,-307.7198 1137.5,-307.7198 1137.5,-286.7198 1055.5,-286.7198"/>
<polygon fill="none" stroke="#000000" points="1055.5,-286.7198 1055.5,-307.7198 1137.5,-307.7198 1137.5,-286.7198 1055.5,-286.7198"/>
<text text-anchor="start" x="1089.5" y="-293.5198" font-family="Times,serif" font-size="14.00" fill="#000000">id</text>
<polygon fill="none" stroke="#000000" points="911.5,-265.7198 911.5,-286.7198 942.5,-286.7198 942.5,-265.7198 911.5,-265.7198"/>
<text text-anchor="start" x="922" y="-272.5198" font-family="Times,serif" font-size="14.00" fill="#000000">0</text>
<polygon fill="none" stroke="#000000" points="942.5,-265.7198 942.5,-286.7198 976.5,-286.7198 976.5,-265.7198 942.5,-265.7198"/>
<text text-anchor="start" x="952.5" y="-272.5198" font-family="Times,serif" font-size="14.00" fill="#000000">...</text>
<polygon fill="none" stroke="#000000" points="976.5,-265.7198 976.5,-286.7198 1055.5,-286.7198 1055.5,-265.7198 976.5,-265.7198"/>
<text text-anchor="start" x="979.5" y="-272.5198" font-family="Times,serif" font-size="14.00" fill="#000000">PackedInt</text>
<polygon fill="none" stroke="#000000" points="1055.5,-265.7198 1055.5,-286.7198 1137.5,-286.7198 1137.5,-265.7198 1055.5,-265.7198"/>
<text text-anchor="start" x="1058.5" y="-272.5198" font-family="Times,serif" font-size="14.00" fill="#000000">num_pairs</text>
<polygon fill="none" stroke="#000000" points="911.5,-244.7198 911.5,-265.7198 942.5,-265.7198 942.5,-244.7198 911.5,-244.7198"/>
<text text-anchor="start" x="920" y="-251.5198" font-family="Times,serif" font-size="14.00" fill="#000000">...</text>
<polygon fill="none" stroke="#000000" points="942.5,-244.7198 942.5,-265.7198 976.5,-265.7198 976.5,-244.7198 942.5,-244.7198"/>
<text text-anchor="start" x="952.5" y="-251.5198" font-family="Times,serif" font-size="14.00" fill="#000000">...</text>
<polygon fill="none" stroke="#000000" points="976.5,-244.7198 976.5,-265.7198 1055.5,-265.7198 1055.5,-244.7198 976.5,-244.7198"/>
<text text-anchor="start" x="1001.5" y="-251.5198" font-family="Times,serif" font-size="14.00" fill="#000000">Pair</text>
<polygon fill="none" stroke="#000000" points="1055.5,-244.7198 1055.5,-265.7198 1137.5,-265.7198 1137.5,-244.7198 1055.5,-244.7198"/>
<text text-anchor="start" x="1078" y="-251.5198" font-family="Times,serif" font-size="14.00" fill="#000000">pairs</text>
<polygon fill="none" stroke="#000000" points="911.5,-223.7198 911.5,-244.7198 1137.5,-244.7198 1137.5,-223.7198 911.5,-223.7198"/>
<text text-anchor="start" x="917.5" y="-230.5198" font-family="Times,serif" font-size="14.00" fill="#000000">repeat num_pairs.value times</text>
</g>
<!-- packed_int__inst__value&#45;&gt;ruby_hash__seq -->
<g id="edge54" class="edge">
<title>packed_int__inst__value:value_type&#45;&gt;ruby_hash__seq:pairs__repeat</title>
<path fill="none" stroke="#404040" d="M2592.3433,-865.3672C2443.9261,-745.2743 1781.2799,-239.1968 1147.7606,-233.7639"/>
<polygon fill="#404040" stroke="#404040" points="1147.515,-230.2629 1137.5,-233.7198 1147.4848,-237.2628 1147.515,-230.2629"/>
</g>
<!-- ruby_string__seq -->
<g id="node16" class="node">
<title>ruby_string__seq</title>
<polygon fill="#e0ffe0" stroke="transparent" points="913.5,-404.7198 913.5,-425.7198 944.5,-425.7198 944.5,-404.7198 913.5,-404.7198"/>
<polygon fill="none" stroke="#000000" points="913.5,-404.7198 913.5,-425.7198 944.5,-425.7198 944.5,-404.7198 913.5,-404.7198"/>
<text text-anchor="start" x="916.5" y="-411.5198" font-family="Times,serif" font-size="14.00" fill="#000000">pos</text>
<polygon fill="#e0ffe0" stroke="transparent" points="944.5,-404.7198 944.5,-425.7198 1015.5,-425.7198 1015.5,-404.7198 944.5,-404.7198"/>
<polygon fill="none" stroke="#000000" points="944.5,-404.7198 944.5,-425.7198 1015.5,-425.7198 1015.5,-404.7198 944.5,-404.7198"/>
<text text-anchor="start" x="966" y="-411.5198" font-family="Times,serif" font-size="14.00" fill="#000000">size</text>
<polygon fill="#e0ffe0" stroke="transparent" points="1015.5,-404.7198 1015.5,-425.7198 1094.5,-425.7198 1094.5,-404.7198 1015.5,-404.7198"/>
<polygon fill="none" stroke="#000000" points="1015.5,-404.7198 1015.5,-425.7198 1094.5,-425.7198 1094.5,-404.7198 1015.5,-404.7198"/>
<text text-anchor="start" x="1039" y="-411.5198" font-family="Times,serif" font-size="14.00" fill="#000000">type</text>
<polygon fill="#e0ffe0" stroke="transparent" points="1094.5,-404.7198 1094.5,-425.7198 1135.5,-425.7198 1135.5,-404.7198 1094.5,-404.7198"/>
<polygon fill="none" stroke="#000000" points="1094.5,-404.7198 1094.5,-425.7198 1135.5,-425.7198 1135.5,-404.7198 1094.5,-404.7198"/>
<text text-anchor="start" x="1108" y="-411.5198" font-family="Times,serif" font-size="14.00" fill="#000000">id</text>
<polygon fill="none" stroke="#000000" points="913.5,-383.7198 913.5,-404.7198 944.5,-404.7198 944.5,-383.7198 913.5,-383.7198"/>
<text text-anchor="start" x="924" y="-390.5198" font-family="Times,serif" font-size="14.00" fill="#000000">0</text>
<polygon fill="none" stroke="#000000" points="944.5,-383.7198 944.5,-404.7198 1015.5,-404.7198 1015.5,-383.7198 944.5,-383.7198"/>
<text text-anchor="start" x="973" y="-390.5198" font-family="Times,serif" font-size="14.00" fill="#000000">...</text>
<polygon fill="none" stroke="#000000" points="1015.5,-383.7198 1015.5,-404.7198 1094.5,-404.7198 1094.5,-383.7198 1015.5,-383.7198"/>
<text text-anchor="start" x="1018.5" y="-390.5198" font-family="Times,serif" font-size="14.00" fill="#000000">PackedInt</text>
<polygon fill="none" stroke="#000000" points="1094.5,-383.7198 1094.5,-404.7198 1135.5,-404.7198 1135.5,-383.7198 1094.5,-383.7198"/>
<text text-anchor="start" x="1104" y="-390.5198" font-family="Times,serif" font-size="14.00" fill="#000000">len</text>
<polygon fill="none" stroke="#000000" points="913.5,-362.7198 913.5,-383.7198 944.5,-383.7198 944.5,-362.7198 913.5,-362.7198"/>
<text text-anchor="start" x="922" y="-369.5198" font-family="Times,serif" font-size="14.00" fill="#000000">...</text>
<polygon fill="none" stroke="#000000" points="944.5,-362.7198 944.5,-383.7198 1015.5,-383.7198 1015.5,-362.7198 944.5,-362.7198"/>
<text text-anchor="start" x="947.5" y="-369.5198" font-family="Times,serif" font-size="14.00" fill="#000000">len.value</text>
<polygon fill="none" stroke="#000000" points="1015.5,-362.7198 1015.5,-383.7198 1094.5,-383.7198 1094.5,-362.7198 1015.5,-362.7198"/>
<polygon fill="none" stroke="#000000" points="1094.5,-362.7198 1094.5,-383.7198 1135.5,-383.7198 1135.5,-362.7198 1094.5,-362.7198"/>
<text text-anchor="start" x="1097.5" y="-369.5198" font-family="Times,serif" font-size="14.00" fill="#000000">body</text>
</g>
<!-- packed_int__inst__value&#45;&gt;ruby_string__seq -->
<g id="edge56" class="edge">
<title>packed_int__inst__value:value_type&#45;&gt;ruby_string__seq:body_size</title>
<path fill="none" stroke="#404040" d="M2562.291,-865.6222C2402.9935,-800.1807 1959.2737,-620.5533 1582,-492.7198 1389.4783,-427.4867 1344.6661,-391.9113 1143.5,-362.7198 1128.073,-360.4812 1019.0211,-348.7372 987.8205,-356.7973"/>
<polygon fill="#404040" stroke="#404040" points="985.6173,-354.0694 979.5,-362.7198 989.6766,-359.7722 985.6173,-354.0694"/>
</g>
<!-- pair__seq&#45;&gt;record__seq -->
<g id="edge35" class="edge">
<title>pair__seq:key_type&#45;&gt;record__seq</title>
<path fill="none" stroke="#000000" stroke-width="2" d="M1108.5,-1175.7198C1108.5,-1175.7198 932.5,-1141.2198 932.5,-1141.2198 746.4937,-1156.4116 665.3398,-1267.5238 513,-1159.7198 449.8348,-1115.0207 394.8585,-883.9084 373.7272,-784.3882"/>
<polygon fill="#000000" stroke="#000000" stroke-width="2" points="377.0953,-783.3964 371.6121,-774.3308 370.2452,-784.8371 377.0953,-783.3964"/>
</g>
<!-- pair__seq&#45;&gt;record__seq -->
<g id="edge36" class="edge">
<title>pair__seq:value_type&#45;&gt;record__seq</title>
<path fill="none" stroke="#000000" stroke-width="2" d="M1086.5,-1144.7198C1086.5,-1110.4976 966.7138,-1143.9599 932.5,-1144.7198 882.463,-1145.8312 870.037,-1148.6084 820,-1149.7198 785.8973,-1150.4773 540.9192,-1169.3179 513,-1149.7198 451.2262,-1106.3572 395.7754,-882.1461 374.1317,-784.3831"/>
<polygon fill="#000000" stroke="#000000" stroke-width="2" points="377.5235,-783.5104 371.962,-774.4926 370.6861,-785.0103 377.5235,-783.5104"/>
</g>
<!-- instance_var__seq&#45;&gt;packed_int__seq -->
<g id="edge38" class="edge">
<title>instance_var__seq:num_vars_type&#45;&gt;packed_int__seq</title>
<path fill="none" stroke="#000000" stroke-width="2" d="M772.5,-1056.7198C853.1311,-1056.7198 929.1538,-997.9382 976.1921,-952.0823"/>
<polygon fill="#000000" stroke="#000000" stroke-width="2" points="978.8539,-954.3719 983.4889,-944.8447 973.9243,-949.402 978.8539,-954.3719"/>
</g>
<!-- instance_var__seq&#45;&gt;pair__seq -->
<g id="edge39" class="edge">
<title>instance_var__seq:vars_type&#45;&gt;pair__seq</title>
<path fill="none" stroke="#000000" stroke-width="2" d="M772.5,-1035.7198C823.5729,-1035.7198 797.8114,-1099.935 840,-1128.7198 864.3343,-1145.3228 894.05,-1156.1831 922.4636,-1163.2868"/>
<polygon fill="#000000" stroke="#000000" stroke-width="2" points="921.9117,-1166.7527 932.4486,-1165.6461 923.5214,-1159.9403 921.9117,-1166.7527"/>
</g>
<!-- instance_var__seq&#45;&gt;record__seq -->
<g id="edge37" class="edge">
<title>instance_var__seq:obj_type&#45;&gt;record__seq</title>
<path fill="none" stroke="#000000" stroke-width="2" d="M772.5,-1078.7198C772.5,-1078.7198 544.5,-1114.2198 544.5,-1114.2198 427.4549,-1040.5286 384.8219,-867.2617 370.7503,-784.4087"/>
<polygon fill="#000000" stroke="#000000" stroke-width="2" points="374.1637,-783.5941 369.0979,-774.2889 367.2552,-784.7222 374.1637,-783.5941"/>
</g>
<!-- record__seq&#45;&gt;record__seq -->
<g id="edge51" class="edge">
<title>record__seq:code_type&#45;&gt;record__seq:body_type</title>
<path fill="none" stroke="#404040" d="M428.3453,-745.5639C388.5617,-764.5216 395.6133,-792.2198 449.5,-792.2198 499.6234,-792.2198 509.2249,-754.5302 478.3047,-730.6679"/>
<polygon fill="#404040" stroke="#404040" points="479.8502,-727.4955 469.5706,-724.9305 476.007,-733.3462 479.8502,-727.4955"/>
</g>
<!-- record__seq_body_switch -->
<g id="node14" class="node">
<title>record__seq_body_switch</title>
<polygon fill="#f0f2e4" stroke="transparent" points="521.5,-767.7198 521.5,-788.7198 707.5,-788.7198 707.5,-767.7198 521.5,-767.7198"/>
<polygon fill="none" stroke="#000000" points="521.5,-767.7198 521.5,-788.7198 707.5,-788.7198 707.5,-767.7198 521.5,-767.7198"/>
<text text-anchor="start" x="598" y="-774.5198" font-family="Times,serif" font-size="14.00" fill="#000000">case</text>
<polygon fill="#f0f2e4" stroke="transparent" points="707.5,-767.7198 707.5,-788.7198 804.5,-788.7198 804.5,-767.7198 707.5,-767.7198"/>
<polygon fill="none" stroke="#000000" points="707.5,-767.7198 707.5,-788.7198 804.5,-788.7198 804.5,-767.7198 707.5,-767.7198"/>
<text text-anchor="start" x="740" y="-774.5198" font-family="Times,serif" font-size="14.00" fill="#000000">type</text>
<polygon fill="none" stroke="#000000" points="521.5,-746.7198 521.5,-767.7198 707.5,-767.7198 707.5,-746.7198 521.5,-746.7198"/>
<text text-anchor="start" x="548" y="-753.5198" font-family="Times,serif" font-size="14.00" fill="#000000">:codes_packed_int</text>
<polygon fill="none" stroke="#000000" points="707.5,-746.7198 707.5,-767.7198 804.5,-767.7198 804.5,-746.7198 707.5,-746.7198"/>
<text text-anchor="start" x="719.5" y="-753.5198" font-family="Times,serif" font-size="14.00" fill="#000000">PackedInt</text>
<polygon fill="none" stroke="#000000" points="521.5,-725.7198 521.5,-746.7198 707.5,-746.7198 707.5,-725.7198 521.5,-725.7198"/>
<text text-anchor="start" x="560.5" y="-732.5198" font-family="Times,serif" font-size="14.00" fill="#000000">:codes_bignum</text>
<polygon fill="none" stroke="#000000" points="707.5,-725.7198 707.5,-746.7198 804.5,-746.7198 804.5,-725.7198 707.5,-725.7198"/>
<text text-anchor="start" x="728" y="-732.5198" font-family="Times,serif" font-size="14.00" fill="#000000">Bignum</text>
<polygon fill="none" stroke="#000000" points="521.5,-704.7198 521.5,-725.7198 707.5,-725.7198 707.5,-704.7198 521.5,-704.7198"/>
<text text-anchor="start" x="548" y="-711.5198" font-family="Times,serif" font-size="14.00" fill="#000000">:codes_ruby_array</text>
<polygon fill="none" stroke="#000000" points="707.5,-704.7198 707.5,-725.7198 804.5,-725.7198 804.5,-704.7198 707.5,-704.7198"/>
<text text-anchor="start" x="717" y="-711.5198" font-family="Times,serif" font-size="14.00" fill="#000000">RubyArray</text>
<polygon fill="none" stroke="#000000" points="521.5,-683.7198 521.5,-704.7198 707.5,-704.7198 707.5,-683.7198 521.5,-683.7198"/>
<text text-anchor="start" x="524.5" y="-690.5198" font-family="Times,serif" font-size="14.00" fill="#000000">:codes_ruby_symbol_link</text>
<polygon fill="none" stroke="#000000" points="707.5,-683.7198 707.5,-704.7198 804.5,-704.7198 804.5,-683.7198 707.5,-683.7198"/>
<text text-anchor="start" x="719.5" y="-690.5198" font-family="Times,serif" font-size="14.00" fill="#000000">PackedInt</text>
<polygon fill="none" stroke="#000000" points="521.5,-662.7198 521.5,-683.7198 707.5,-683.7198 707.5,-662.7198 521.5,-662.7198"/>
<text text-anchor="start" x="545.5" y="-669.5198" font-family="Times,serif" font-size="14.00" fill="#000000">:codes_ruby_struct</text>
<polygon fill="none" stroke="#000000" points="707.5,-662.7198 707.5,-683.7198 804.5,-683.7198 804.5,-662.7198 707.5,-662.7198"/>
<text text-anchor="start" x="714.5" y="-669.5198" font-family="Times,serif" font-size="14.00" fill="#000000">RubyStruct</text>
<polygon fill="none" stroke="#000000" points="521.5,-641.7198 521.5,-662.7198 707.5,-662.7198 707.5,-641.7198 521.5,-641.7198"/>
<text text-anchor="start" x="546" y="-648.5198" font-family="Times,serif" font-size="14.00" fill="#000000">:codes_ruby_string</text>
<polygon fill="none" stroke="#000000" points="707.5,-641.7198 707.5,-662.7198 804.5,-662.7198 804.5,-641.7198 707.5,-641.7198"/>
<text text-anchor="start" x="715" y="-648.5198" font-family="Times,serif" font-size="14.00" fill="#000000">RubyString</text>
<polygon fill="none" stroke="#000000" points="521.5,-620.7198 521.5,-641.7198 707.5,-641.7198 707.5,-620.7198 521.5,-620.7198"/>
<text text-anchor="start" x="542" y="-627.5198" font-family="Times,serif" font-size="14.00" fill="#000000">:codes_instance_var</text>
<polygon fill="none" stroke="#000000" points="707.5,-620.7198 707.5,-641.7198 804.5,-641.7198 804.5,-620.7198 707.5,-620.7198"/>
<text text-anchor="start" x="712.5" y="-627.5198" font-family="Times,serif" font-size="14.00" fill="#000000">InstanceVar</text>
<polygon fill="none" stroke="#000000" points="521.5,-599.7198 521.5,-620.7198 707.5,-620.7198 707.5,-599.7198 521.5,-599.7198"/>
<text text-anchor="start" x="550.5" y="-606.5198" font-family="Times,serif" font-size="14.00" fill="#000000">:codes_ruby_hash</text>
<polygon fill="none" stroke="#000000" points="707.5,-599.7198 707.5,-620.7198 804.5,-620.7198 804.5,-599.7198 707.5,-599.7198"/>
<text text-anchor="start" x="718.5" y="-606.5198" font-family="Times,serif" font-size="14.00" fill="#000000">RubyHash</text>
<polygon fill="none" stroke="#000000" points="521.5,-578.7198 521.5,-599.7198 707.5,-599.7198 707.5,-578.7198 521.5,-578.7198"/>
<text text-anchor="start" x="542" y="-585.5198" font-family="Times,serif" font-size="14.00" fill="#000000">:codes_ruby_symbol</text>
<polygon fill="none" stroke="#000000" points="707.5,-578.7198 707.5,-599.7198 804.5,-599.7198 804.5,-578.7198 707.5,-578.7198"/>
<text text-anchor="start" x="710.5" y="-585.5198" font-family="Times,serif" font-size="14.00" fill="#000000">RubySymbol</text>
</g>
<!-- record__seq&#45;&gt;record__seq_body_switch -->
<g id="edge41" class="edge">
<title>record__seq:body_type&#45;&gt;record__seq_body_switch</title>
<path fill="none" stroke="#000000" stroke-width="2" d="M469.5,-716.7198C480.3008,-716.7198 491.3936,-716.2115 502.5395,-715.321"/>
<polygon fill="#000000" stroke="#000000" stroke-width="2" points="503.1376,-718.7814 512.7837,-714.3993 502.5103,-711.8095 503.1376,-718.7814"/>
</g>
<!-- record__seq_body_switch&#45;&gt;ruby_array__seq -->
<g id="edge44" class="edge">
<title>record__seq_body_switch:case2&#45;&gt;ruby_array__seq</title>
<path fill="none" stroke="#000000" stroke-width="2" d="M804.5,-715.7198C843.4729,-715.7198 884.4436,-705.2725 920.323,-692.2824"/>
<polygon fill="#000000" stroke="#000000" stroke-width="2" points="921.6668,-695.5169 929.8147,-688.7447 919.222,-688.9576 921.6668,-695.5169"/>
</g>
<!-- record__seq_body_switch&#45;&gt;bignum__seq -->
<g id="edge43" class="edge">
<title>record__seq_body_switch:case1&#45;&gt;bignum__seq</title>
<path fill="none" stroke="#000000" stroke-width="2" d="M804.5,-736.7198C863.41,-736.7198 806.1531,-255.9357 840,-207.7198 847.768,-196.6541 857.3956,-187.0834 868.1444,-178.8085"/>
<polygon fill="#000000" stroke="#000000" stroke-width="2" points="870.5081,-181.419 876.5704,-172.73 866.4127,-175.7421 870.5081,-181.419"/>
</g>
<!-- record__seq_body_switch&#45;&gt;ruby_struct__seq -->
<g id="edge46" class="edge">
<title>record__seq_body_switch:case4&#45;&gt;ruby_struct__seq</title>
<path fill="none" stroke="#000000" stroke-width="2" d="M773.195,-833.1564C785.775,-821.3444 796.817,-807.8699 804.5,-792.7198 816.561,-768.9366 831.1667,-672.7198 804.5,-672.7198"/>
<polygon fill="#000000" stroke="#000000" stroke-width="2" points="770.7504,-830.6471 765.6241,-839.9192 775.4137,-835.8676 770.7504,-830.6471"/>
</g>
<!-- record__seq_body_switch&#45;&gt;ruby_symbol__seq -->
<g id="edge50" class="edge">
<title>record__seq_body_switch:case8&#45;&gt;ruby_symbol__seq</title>
<path fill="none" stroke="#000000" stroke-width="2" d="M804.5,-588.7198C829.5629,-588.7198 882.1018,-571.0612 929.5513,-552.881"/>
<polygon fill="#000000" stroke="#000000" stroke-width="2" points="930.898,-556.1129 938.9637,-549.2431 928.3744,-549.5836 930.898,-556.1129"/>
</g>
<!-- record__seq_body_switch&#45;&gt;packed_int__seq -->
<g id="edge42" class="edge">
<title>record__seq_body_switch:case0&#45;&gt;packed_int__seq</title>
<path fill="none" stroke="#000000" stroke-width="2" d="M804.5,-757.7198C872.1179,-757.7198 935.5756,-805.5176 976.7956,-845.4546"/>
<polygon fill="#000000" stroke="#000000" stroke-width="2" points="974.4031,-848.011 983.9759,-852.5511 979.3238,-843.0323 974.4031,-848.011"/>
</g>
<!-- record__seq_body_switch&#45;&gt;packed_int__seq -->
<g id="edge45" class="edge">
<title>record__seq_body_switch:case3&#45;&gt;packed_int__seq</title>
<path fill="none" stroke="#000000" stroke-width="2" d="M804.5,-694.7198C810.045,-694.7198 905.5994,-785.0251 968.9355,-845.4688"/>
<polygon fill="#000000" stroke="#000000" stroke-width="2" points="966.842,-848.3091 976.4915,-852.6839 971.6763,-843.2465 966.842,-848.3091"/>
</g>
<!-- record__seq_body_switch&#45;&gt;instance_var__seq -->
<g id="edge48" class="edge">
<title>record__seq_body_switch:case6&#45;&gt;instance_var__seq</title>
<path fill="none" stroke="#000000" stroke-width="2" d="M812,-630.7198C830,-630.7198 824.405,-779.6769 812,-792.7198 789.0756,-816.8231 545.1725,-799.2684 513,-807.7198 504.3492,-809.9923 499.7023,-809.1114 495,-816.7198 475.9569,-847.5323 475.9569,-948.9073 495,-979.7198 505.0528,-995.9857 519.5057,-1008.9056 535.7645,-1019.1559"/>
<polygon fill="#000000" stroke="#000000" stroke-width="2" points="534.0291,-1022.1958 544.4177,-1024.2764 537.594,-1016.1715 534.0291,-1022.1958"/>
</g>
<!-- record__seq_body_switch&#45;&gt;ruby_hash__seq -->
<g id="edge49" class="edge">
<title>record__seq_body_switch:case7&#45;&gt;ruby_hash__seq</title>
<path fill="none" stroke="#000000" stroke-width="2" d="M804.5,-609.7198C863.4745,-609.7198 804.5146,-393.8236 840,-346.7198 854.0897,-328.0169 873.4253,-313.5568 894.3002,-302.3994"/>
<polygon fill="#000000" stroke="#000000" stroke-width="2" points="895.9963,-305.4636 903.33,-297.8171 892.8286,-299.2213 895.9963,-305.4636"/>
</g>
<!-- record__seq_body_switch&#45;&gt;ruby_string__seq -->
<g id="edge47" class="edge">
<title>record__seq_body_switch:case5&#45;&gt;ruby_string__seq</title>
<path fill="none" stroke="#000000" stroke-width="2" d="M804.5,-651.7198C888.6589,-651.7198 786.0402,-530.3035 840,-465.7198 854.9225,-447.8593 874.8853,-434.479 896.171,-424.4588"/>
<polygon fill="#000000" stroke="#000000" stroke-width="2" points="897.6512,-427.631 905.3636,-420.3668 894.8045,-421.236 897.6512,-427.631"/>
</g>
<!-- ruby_hash__seq&#45;&gt;packed_int__seq -->
<g id="edge52" class="edge">
<title>ruby_hash__seq:num_pairs_type&#45;&gt;packed_int__seq</title>
<path fill="none" stroke="#000000" stroke-width="2" d="M1145.5,-276.7198C1161.0556,-276.7198 1155.8545,-300.1113 1145.5,-311.7198 1098.3789,-364.5476 858.8,-291.0535 830,-355.7198 821.8858,-373.9391 822.1128,-696.4012 830,-714.7198 853.227,-768.6665 900.9095,-814.1854 943.2475,-846.4537"/>
<polygon fill="#000000" stroke="#000000" stroke-width="2" points="941.2561,-849.3349 951.3589,-852.5262 945.4512,-843.7313 941.2561,-849.3349"/>
</g>
<!-- ruby_hash__seq&#45;&gt;pair__seq -->
<g id="edge53" class="edge">
<title>ruby_hash__seq:pairs_type&#45;&gt;pair__seq</title>
<path fill="none" stroke="#000000" stroke-width="2" d="M1145.5,-254.7198C1170.8333,-254.7198 1162.3631,-292.8144 1145.5,-311.7198 1098.3789,-364.5476 858.8,-291.0535 830,-355.7198 821.366,-375.1063 821.366,-1100.3333 830,-1119.7198 845.7367,-1155.0545 883.8217,-1170.5536 922.1606,-1176.7368"/>
<polygon fill="#000000" stroke="#000000" stroke-width="2" points="922.0394,-1180.254 932.4289,-1178.1788 923.0129,-1173.3221 922.0394,-1180.254"/>
</g>
<!-- ruby_string__seq&#45;&gt;packed_int__seq -->
<g id="edge55" class="edge">
<title>ruby_string__seq:len_type&#45;&gt;packed_int__seq</title>
<path fill="none" stroke="#000000" stroke-width="2" d="M1143.5,-393.7198C1159.7222,-393.7198 1154.284,-418.101 1143.5,-430.2198 1096.7238,-482.7862 858.6272,-410.4414 830,-474.7198 819.151,-499.0798 819.4545,-690.2269 830,-714.7198 853.227,-768.6665 900.9095,-814.1854 943.2475,-846.4537"/>
<polygon fill="#000000" stroke="#000000" stroke-width="2" points="941.2561,-849.3349 951.3589,-852.5262 945.4512,-843.7313 941.2561,-849.3349"/>
</g>
</g>
</svg>
