<?xml version="1.0" encoding="UTF-8" standalone="no"?>
<!DOCTYPE svg PUBLIC "-//W3C//DTD SVG 1.1//EN"
 "http://www.w3.org/Graphics/SVG/1.1/DTD/svg11.dtd">
<!-- Generated by graphviz version 2.43.0 (0)
 -->
<!-- Title: %3 Pages: 1 -->
<svg width="452pt" height="135pt"
 viewBox="0.00 0.00 452.00 135.00" xmlns="http://www.w3.org/2000/svg" xmlns:xlink="http://www.w3.org/1999/xlink">
<g id="graph0" class="graph" transform="scale(1 1) rotate(0) translate(4 131)">
<title>%3</title>
<polygon fill="white" stroke="transparent" points="-4,4 -4,-131 448,-131 448,4 -4,4"/>
<g id="clust1" class="cluster">
<title>cluster__some_ip_container</title>
<polygon fill="none" stroke="black" stroke-dasharray="1,5" points="8,-8 8,-119 303,-119 303,-8 8,-8"/>
<text text-anchor="middle" x="155.5" y="-103.8" font-family="Times,serif" font-size="14.00">SomeIpContainer</text>
</g>
<!-- some_ip_container__seq -->
<g id="node1" class="node">
<title>some_ip_container__seq</title>
<polygon fill="#e0ffe0" stroke="transparent" points="24.5,-62 24.5,-83 55.5,-83 55.5,-62 24.5,-62"/>
<polygon fill="none" stroke="black" points="24.5,-62 24.5,-83 55.5,-83 55.5,-62 24.5,-62"/>
<text text-anchor="start" x="27.5" y="-68.8" font-family="Times,serif" font-size="14.00">pos</text>
<polygon fill="#e0ffe0" stroke="transparent" points="55.5,-62 55.5,-83 89.5,-83 89.5,-62 55.5,-62"/>
<polygon fill="none" stroke="black" points="55.5,-62 55.5,-83 89.5,-83 89.5,-62 55.5,-62"/>
<text text-anchor="start" x="58.5" y="-68.8" font-family="Times,serif" font-size="14.00">size</text>
<polygon fill="#e0ffe0" stroke="transparent" points="89.5,-62 89.5,-83 150.5,-83 150.5,-62 89.5,-62"/>
<polygon fill="none" stroke="black" points="89.5,-62 89.5,-83 150.5,-83 150.5,-62 89.5,-62"/>
<text text-anchor="start" x="104" y="-68.8" font-family="Times,serif" font-size="14.00">type</text>
<polygon fill="#e0ffe0" stroke="transparent" points="150.5,-62 150.5,-83 287.5,-83 287.5,-62 150.5,-62"/>
<polygon fill="none" stroke="black" points="150.5,-62 150.5,-83 287.5,-83 287.5,-62 150.5,-62"/>
<text text-anchor="start" x="212" y="-68.8" font-family="Times,serif" font-size="14.00">id</text>
<polygon fill="none" stroke="black" points="24.5,-41 24.5,-62 55.5,-62 55.5,-41 24.5,-41"/>
<text text-anchor="start" x="35" y="-47.8" font-family="Times,serif" font-size="14.00">0</text>
<polygon fill="none" stroke="black" points="55.5,-41 55.5,-62 89.5,-62 89.5,-41 55.5,-41"/>
<text text-anchor="start" x="65.5" y="-47.8" font-family="Times,serif" font-size="14.00">...</text>
<polygon fill="none" stroke="black" points="89.5,-41 89.5,-62 150.5,-62 150.5,-41 89.5,-41"/>
<text text-anchor="start" x="92.5" y="-47.8" font-family="Times,serif" font-size="14.00">SomeIp</text>
<polygon fill="none" stroke="black" points="150.5,-41 150.5,-62 287.5,-62 287.5,-41 150.5,-41"/>
<text text-anchor="start" x="153.5" y="-47.8" font-family="Times,serif" font-size="14.00">some_ip_packages</text>
<polygon fill="none" stroke="black" points="24.5,-20 24.5,-41 287.5,-41 287.5,-20 24.5,-20"/>
<text text-anchor="start" x="71.5" y="-26.8" font-family="Times,serif" font-size="14.00">repeat to end of stream</text>
</g>
<!-- some_ip__seq -->
<g id="node2" class="node">
<title>some_ip__seq</title>
<text text-anchor="middle" x="387.5" y="-47.3" font-family="Times,serif" font-size="14.00">some_ip__seq</text>
</g>
<!-- some_ip_container__seq&#45;&gt;some_ip__seq -->
<g id="edge1" class="edge">
<title>some_ip_container__seq:some_ip_packages_type&#45;&gt;some_ip__seq</title>
<path fill="none" stroke="black" stroke-width="2" d="M288.5,-51C298.88,-51 309.88,-51 320.61,-51"/>
<polygon fill="black" stroke="black" stroke-width="2" points="320.79,-54.5 330.79,-51 320.79,-47.5 320.79,-54.5"/>
</g>
</g>
</svg>
