<?xml version="1.0" encoding="UTF-8" standalone="no"?>
<!DOCTYPE svg PUBLIC "-//W3C//DTD SVG 1.1//EN"
 "http://www.w3.org/Graphics/SVG/1.1/DTD/svg11.dtd">
<!-- Generated by graphviz version 2.43.0 (0)
 -->
<!-- Title: %3 Pages: 1 -->
<svg width="618pt" height="281pt"
 viewBox="0.00 0.00 618.00 281.00" xmlns="http://www.w3.org/2000/svg" xmlns:xlink="http://www.w3.org/1999/xlink">
<g id="graph0" class="graph" transform="scale(1 1) rotate(0) translate(4 277)">
<title>%3</title>
<polygon fill="white" stroke="transparent" points="-4,4 -4,-277 614,-277 614,4 -4,4"/>
<g id="clust1" class="cluster">
<title>cluster__android_nanoapp_header</title>
<polygon fill="none" stroke="black" stroke-dasharray="1,5" points="8,-8 8,-265 602,-265 602,-8 8,-8"/>
<text text-anchor="middle" x="305" y="-249.8" font-family="Times,serif" font-size="14.00">AndroidNanoappHeader</text>
</g>
<!-- android_nanoapp_header__seq -->
<g id="node1" class="node">
<title>android_nanoapp_header__seq</title>
<polygon fill="#e0ffe0" stroke="transparent" points="24,-209 24,-230 55,-230 55,-209 24,-209"/>
<polygon fill="none" stroke="black" points="24,-209 24,-230 55,-230 55,-209 24,-209"/>
<text text-anchor="start" x="27" y="-215.8" font-family="Times,serif" font-size="14.00">pos</text>
<polygon fill="#e0ffe0" stroke="transparent" points="55,-209 55,-230 89,-230 89,-209 55,-209"/>
<polygon fill="none" stroke="black" points="55,-209 55,-230 89,-230 89,-209 55,-209"/>
<text text-anchor="start" x="58" y="-215.8" font-family="Times,serif" font-size="14.00">size</text>
<polygon fill="#e0ffe0" stroke="transparent" points="89,-209 89,-230 127,-230 127,-209 89,-209"/>
<polygon fill="none" stroke="black" points="89,-209 89,-230 127,-230 127,-209 89,-209"/>
<text text-anchor="start" x="92" y="-215.8" font-family="Times,serif" font-size="14.00">type</text>
<polygon fill="#e0ffe0" stroke="transparent" points="127,-209 127,-230 302,-230 302,-209 127,-209"/>
<polygon fill="none" stroke="black" points="127,-209 127,-230 302,-230 302,-209 127,-209"/>
<text text-anchor="start" x="207.5" y="-215.8" font-family="Times,serif" font-size="14.00">id</text>
<polygon fill="none" stroke="black" points="24,-188 24,-209 55,-209 55,-188 24,-188"/>
<text text-anchor="start" x="34.5" y="-194.8" font-family="Times,serif" font-size="14.00">0</text>
<polygon fill="none" stroke="black" points="55,-188 55,-209 89,-209 89,-188 55,-188"/>
<text text-anchor="start" x="67" y="-194.8" font-family="Times,serif" font-size="14.00">4</text>
<polygon fill="none" stroke="black" points="89,-188 89,-209 127,-209 127,-188 89,-188"/>
<text text-anchor="start" x="92.5" y="-194.8" font-family="Times,serif" font-size="14.00">u4le</text>
<polygon fill="none" stroke="black" points="127,-188 127,-209 302,-209 302,-188 127,-188"/>
<text text-anchor="start" x="160" y="-194.8" font-family="Times,serif" font-size="14.00">header_version</text>
<polygon fill="none" stroke="black" points="24,-167 24,-188 55,-188 55,-167 24,-167"/>
<text text-anchor="start" x="34.5" y="-173.8" font-family="Times,serif" font-size="14.00">4</text>
<polygon fill="none" stroke="black" points="55,-167 55,-188 89,-188 89,-167 55,-167"/>
<text text-anchor="start" x="67" y="-173.8" font-family="Times,serif" font-size="14.00">4</text>
<polygon fill="none" stroke="black" points="89,-167 89,-188 127,-188 127,-167 89,-167"/>
<polygon fill="none" stroke="black" points="127,-167 127,-188 302,-188 302,-167 127,-167"/>
<text text-anchor="start" x="193" y="-173.8" font-family="Times,serif" font-size="14.00">magic</text>
<polygon fill="none" stroke="black" points="24,-146 24,-167 55,-167 55,-146 24,-146"/>
<text text-anchor="start" x="34.5" y="-152.8" font-family="Times,serif" font-size="14.00">8</text>
<polygon fill="none" stroke="black" points="55,-146 55,-167 89,-167 89,-146 55,-146"/>
<text text-anchor="start" x="67" y="-152.8" font-family="Times,serif" font-size="14.00">8</text>
<polygon fill="none" stroke="black" points="89,-146 89,-167 127,-167 127,-146 89,-146"/>
<text text-anchor="start" x="92.5" y="-152.8" font-family="Times,serif" font-size="14.00">u8le</text>
<polygon fill="none" stroke="black" points="127,-146 127,-167 302,-167 302,-146 127,-146"/>
<text text-anchor="start" x="191" y="-152.8" font-family="Times,serif" font-size="14.00">app_id</text>
<polygon fill="none" stroke="black" points="24,-125 24,-146 55,-146 55,-125 24,-125"/>
<text text-anchor="start" x="30" y="-131.8" font-family="Times,serif" font-size="14.00">16</text>
<polygon fill="none" stroke="black" points="55,-125 55,-146 89,-146 89,-125 55,-125"/>
<text text-anchor="start" x="67" y="-131.8" font-family="Times,serif" font-size="14.00">4</text>
<polygon fill="none" stroke="black" points="89,-125 89,-146 127,-146 127,-125 89,-125"/>
<text text-anchor="start" x="92.5" y="-131.8" font-family="Times,serif" font-size="14.00">u4le</text>
<polygon fill="none" stroke="black" points="127,-125 127,-146 302,-146 302,-125 127,-125"/>
<text text-anchor="start" x="171.5" y="-131.8" font-family="Times,serif" font-size="14.00">app_version</text>
<polygon fill="none" stroke="black" points="24,-104 24,-125 55,-125 55,-104 24,-104"/>
<text text-anchor="start" x="30" y="-110.8" font-family="Times,serif" font-size="14.00">20</text>
<polygon fill="none" stroke="black" points="55,-104 55,-125 89,-125 89,-104 55,-104"/>
<text text-anchor="start" x="67" y="-110.8" font-family="Times,serif" font-size="14.00">4</text>
<polygon fill="none" stroke="black" points="89,-104 89,-125 127,-125 127,-104 89,-104"/>
<text text-anchor="start" x="92.5" y="-110.8" font-family="Times,serif" font-size="14.00">u4le</text>
<polygon fill="none" stroke="black" points="127,-104 127,-125 302,-125 302,-104 127,-104"/>
<text text-anchor="start" x="197.5" y="-110.8" font-family="Times,serif" font-size="14.00">flags</text>
<polygon fill="none" stroke="black" points="24,-83 24,-104 55,-104 55,-83 24,-83"/>
<text text-anchor="start" x="30" y="-89.8" font-family="Times,serif" font-size="14.00">24</text>
<polygon fill="none" stroke="black" points="55,-83 55,-104 89,-104 89,-83 55,-83"/>
<text text-anchor="start" x="67" y="-89.8" font-family="Times,serif" font-size="14.00">8</text>
<polygon fill="none" stroke="black" points="89,-83 89,-104 127,-104 127,-83 89,-83"/>
<text text-anchor="start" x="92.5" y="-89.8" font-family="Times,serif" font-size="14.00">u8le</text>
<polygon fill="none" stroke="black" points="127,-83 127,-104 302,-104 302,-83 127,-83"/>
<text text-anchor="start" x="181.5" y="-89.8" font-family="Times,serif" font-size="14.00">hub_type</text>
<polygon fill="none" stroke="black" points="24,-62 24,-83 55,-83 55,-62 24,-62"/>
<text text-anchor="start" x="30" y="-68.8" font-family="Times,serif" font-size="14.00">32</text>
<polygon fill="none" stroke="black" points="55,-62 55,-83 89,-83 89,-62 55,-62"/>
<text text-anchor="start" x="67" y="-68.8" font-family="Times,serif" font-size="14.00">1</text>
<polygon fill="none" stroke="black" points="89,-62 89,-83 127,-83 127,-62 89,-62"/>
<text text-anchor="start" x="98.5" y="-68.8" font-family="Times,serif" font-size="14.00">u1</text>
<polygon fill="none" stroke="black" points="127,-62 127,-83 302,-83 302,-62 127,-62"/>
<text text-anchor="start" x="130.5" y="-68.8" font-family="Times,serif" font-size="14.00">chre_api_major_version</text>
<polygon fill="none" stroke="black" points="24,-41 24,-62 55,-62 55,-41 24,-41"/>
<text text-anchor="start" x="30" y="-47.8" font-family="Times,serif" font-size="14.00">33</text>
<polygon fill="none" stroke="black" points="55,-41 55,-62 89,-62 89,-41 55,-41"/>
<text text-anchor="start" x="67" y="-47.8" font-family="Times,serif" font-size="14.00">1</text>
<polygon fill="none" stroke="black" points="89,-41 89,-62 127,-62 127,-41 89,-41"/>
<text text-anchor="start" x="98.5" y="-47.8" font-family="Times,serif" font-size="14.00">u1</text>
<polygon fill="none" stroke="black" points="127,-41 127,-62 302,-62 302,-41 127,-41"/>
<text text-anchor="start" x="130" y="-47.8" font-family="Times,serif" font-size="14.00">chre_api_minor_version</text>
<polygon fill="none" stroke="black" points="24,-20 24,-41 55,-41 55,-20 24,-20"/>
<text text-anchor="start" x="30" y="-26.8" font-family="Times,serif" font-size="14.00">34</text>
<polygon fill="none" stroke="black" points="55,-20 55,-41 89,-41 89,-20 55,-20"/>
<text text-anchor="start" x="67" y="-26.8" font-family="Times,serif" font-size="14.00">6</text>
<polygon fill="none" stroke="black" points="89,-20 89,-41 127,-41 127,-20 89,-20"/>
<polygon fill="none" stroke="black" points="127,-20 127,-41 302,-41 302,-20 127,-20"/>
<text text-anchor="start" x="182.5" y="-26.8" font-family="Times,serif" font-size="14.00">reserved</text>
</g>
<!-- android_nanoapp_header__inst__is_signed -->
<g id="node2" class="node">
<title>android_nanoapp_header__inst__is_signed</title>
<polygon fill="#e0ffe0" stroke="transparent" points="375,-46 375,-67 448,-67 448,-46 375,-46"/>
<polygon fill="none" stroke="black" points="375,-46 375,-67 448,-67 448,-46 375,-46"/>
<text text-anchor="start" x="404.5" y="-52.8" font-family="Times,serif" font-size="14.00">id</text>
<polygon fill="#e0ffe0" stroke="transparent" points="448,-46 448,-67 566,-67 566,-46 448,-46"/>
<polygon fill="none" stroke="black" points="448,-46 448,-67 566,-67 566,-46 448,-46"/>
<text text-anchor="start" x="487.5" y="-52.8" font-family="Times,serif" font-size="14.00">value</text>
<polygon fill="none" stroke="black" points="375,-25 375,-46 448,-46 448,-25 375,-25"/>
<text text-anchor="start" x="378" y="-31.8" font-family="Times,serif" font-size="14.00">is_signed</text>
<polygon fill="none" stroke="black" points="448,-25 448,-46 566,-46 566,-25 448,-25"/>
<text text-anchor="start" x="451" y="-31.8" font-family="Times,serif" font-size="14.00">(flags &amp; 1) != 0</text>
</g>
<!-- android_nanoapp_header__seq&#45;&gt;android_nanoapp_header__inst__is_signed -->
<g id="edge1" class="edge">
<title>android_nanoapp_header__seq:flags_type&#45;&gt;android_nanoapp_header__inst__is_signed</title>
<path fill="none" stroke="#404040" d="M303,-114C327.36,-114 324.27,-91.02 346,-80 349.57,-78.19 353.24,-76.47 356.99,-74.83"/>
<polygon fill="#404040" stroke="#404040" points="358.54,-77.98 366.45,-70.92 355.87,-71.51 358.54,-77.98"/>
</g>
<!-- android_nanoapp_header__inst__is_encrypted -->
<g id="node3" class="node">
<title>android_nanoapp_header__inst__is_encrypted</title>
<polygon fill="#e0ffe0" stroke="transparent" points="363,-114 363,-135 460,-135 460,-114 363,-114"/>
<polygon fill="none" stroke="black" points="363,-114 363,-135 460,-135 460,-114 363,-114"/>
<text text-anchor="start" x="404.5" y="-120.8" font-family="Times,serif" font-size="14.00">id</text>
<polygon fill="#e0ffe0" stroke="transparent" points="460,-114 460,-135 578,-135 578,-114 460,-114"/>
<polygon fill="none" stroke="black" points="460,-114 460,-135 578,-135 578,-114 460,-114"/>
<text text-anchor="start" x="499.5" y="-120.8" font-family="Times,serif" font-size="14.00">value</text>
<polygon fill="none" stroke="black" points="363,-93 363,-114 460,-114 460,-93 363,-93"/>
<text text-anchor="start" x="366" y="-99.8" font-family="Times,serif" font-size="14.00">is_encrypted</text>
<polygon fill="none" stroke="black" points="460,-93 460,-114 578,-114 578,-93 460,-93"/>
<text text-anchor="start" x="463" y="-99.8" font-family="Times,serif" font-size="14.00">(flags &amp; 2) != 0</text>
</g>
<!-- android_nanoapp_header__seq&#45;&gt;android_nanoapp_header__inst__is_encrypted -->
<g id="edge2" class="edge">
<title>android_nanoapp_header__seq:flags_type&#45;&gt;android_nanoapp_header__inst__is_encrypted</title>
<path fill="none" stroke="#404040" d="M303,-114C316.33,-114 330.27,-114 344.16,-114"/>
<polygon fill="#404040" stroke="#404040" points="344.25,-117.5 354.25,-114 344.25,-110.5 344.25,-117.5"/>
</g>
<!-- android_nanoapp_header__inst__is_tcm_capable -->
<g id="node4" class="node">
<title>android_nanoapp_header__inst__is_tcm_capable</title>
<polygon fill="#e0ffe0" stroke="transparent" points="354,-182 354,-203 468,-203 468,-182 354,-182"/>
<polygon fill="none" stroke="black" points="354,-182 354,-203 468,-203 468,-182 354,-182"/>
<text text-anchor="start" x="404" y="-188.8" font-family="Times,serif" font-size="14.00">id</text>
<polygon fill="#e0ffe0" stroke="transparent" points="468,-182 468,-203 586,-203 586,-182 468,-182"/>
<polygon fill="none" stroke="black" points="468,-182 468,-203 586,-203 586,-182 468,-182"/>
<text text-anchor="start" x="507.5" y="-188.8" font-family="Times,serif" font-size="14.00">value</text>
<polygon fill="none" stroke="black" points="354,-161 354,-182 468,-182 468,-161 354,-161"/>
<text text-anchor="start" x="357" y="-167.8" font-family="Times,serif" font-size="14.00">is_tcm_capable</text>
<polygon fill="none" stroke="black" points="468,-161 468,-182 586,-182 586,-161 468,-161"/>
<text text-anchor="start" x="471" y="-167.8" font-family="Times,serif" font-size="14.00">(flags &amp; 4) != 0</text>
</g>
<!-- android_nanoapp_header__seq&#45;&gt;android_nanoapp_header__inst__is_tcm_capable -->
<g id="edge3" class="edge">
<title>android_nanoapp_header__seq:flags_type&#45;&gt;android_nanoapp_header__inst__is_tcm_capable</title>
<path fill="none" stroke="#404040" d="M303,-114C327.36,-114 324.27,-136.98 346,-148 349.51,-149.78 353.13,-151.48 356.82,-153.1"/>
<polygon fill="#404040" stroke="#404040" points="355.55,-156.36 366.13,-156.95 358.23,-149.89 355.55,-156.36"/>
</g>
</g>
</svg>
