<?xml version="1.0" encoding="UTF-8" standalone="no"?>
<!DOCTYPE svg PUBLIC "-//W3C//DTD SVG 1.1//EN"
 "http://www.w3.org/Graphics/SVG/1.1/DTD/svg11.dtd">
<!-- Generated by graphviz version 2.43.0 (0)
 -->
<!-- Title: %3 Pages: 1 -->
<svg width="706pt" height="302pt"
 viewBox="0.00 0.00 706.00 302.00" xmlns="http://www.w3.org/2000/svg" xmlns:xlink="http://www.w3.org/1999/xlink">
<g id="graph0" class="graph" transform="scale(1 1) rotate(0) translate(4 298)">
<title>%3</title>
<polygon fill="white" stroke="transparent" points="-4,4 -4,-298 702,-298 702,4 -4,4"/>
<g id="clust1" class="cluster">
<title>cluster__android_nanoapp_header</title>
<polygon fill="none" stroke="black" stroke-dasharray="1,5" points="8,-8 8,-286 690,-286 690,-8 8,-8"/>
<text text-anchor="middle" x="349" y="-270.8" font-family="Times,serif" font-size="14.00">AndroidNanoappHeader</text>
</g>
<!-- android_nanoapp_header__seq -->
<g id="node1" class="node">
<title>android_nanoapp_header__seq</title>
<polygon fill="#e0ffe0" stroke="transparent" points="24.5,-229 24.5,-250 55.5,-250 55.5,-229 24.5,-229"/>
<polygon fill="none" stroke="black" points="24.5,-229 24.5,-250 55.5,-250 55.5,-229 24.5,-229"/>
<text text-anchor="start" x="27.5" y="-235.8" font-family="Times,serif" font-size="14.00">pos</text>
<polygon fill="#e0ffe0" stroke="transparent" points="55.5,-229 55.5,-250 89.5,-250 89.5,-229 55.5,-229"/>
<polygon fill="none" stroke="black" points="55.5,-229 55.5,-250 89.5,-250 89.5,-229 55.5,-229"/>
<text text-anchor="start" x="58.5" y="-235.8" font-family="Times,serif" font-size="14.00">size</text>
<polygon fill="#e0ffe0" stroke="transparent" points="89.5,-229 89.5,-250 226.5,-250 226.5,-229 89.5,-229"/>
<polygon fill="none" stroke="black" points="89.5,-229 89.5,-250 226.5,-250 226.5,-229 89.5,-229"/>
<text text-anchor="start" x="142" y="-235.8" font-family="Times,serif" font-size="14.00">type</text>
<polygon fill="#e0ffe0" stroke="transparent" points="226.5,-229 226.5,-250 401.5,-250 401.5,-229 226.5,-229"/>
<polygon fill="none" stroke="black" points="226.5,-229 226.5,-250 401.5,-250 401.5,-229 226.5,-229"/>
<text text-anchor="start" x="307" y="-235.8" font-family="Times,serif" font-size="14.00">id</text>
<polygon fill="none" stroke="black" points="24.5,-208 24.5,-229 55.5,-229 55.5,-208 24.5,-208"/>
<text text-anchor="start" x="35" y="-214.8" font-family="Times,serif" font-size="14.00">0</text>
<polygon fill="none" stroke="black" points="55.5,-208 55.5,-229 89.5,-229 89.5,-208 55.5,-208"/>
<text text-anchor="start" x="67.5" y="-214.8" font-family="Times,serif" font-size="14.00">4</text>
<polygon fill="none" stroke="black" points="89.5,-208 89.5,-229 226.5,-229 226.5,-208 89.5,-208"/>
<text text-anchor="start" x="142.5" y="-214.8" font-family="Times,serif" font-size="14.00">u4le</text>
<polygon fill="none" stroke="black" points="226.5,-208 226.5,-229 401.5,-229 401.5,-208 226.5,-208"/>
<text text-anchor="start" x="259.5" y="-214.8" font-family="Times,serif" font-size="14.00">header_version</text>
<polygon fill="none" stroke="black" points="24.5,-187 24.5,-208 401.5,-208 401.5,-187 24.5,-187"/>
<text text-anchor="start" x="146" y="-193.8" font-family="Times,serif" font-size="14.00">must be equal to 1</text>
<polygon fill="none" stroke="black" points="24.5,-166 24.5,-187 55.5,-187 55.5,-166 24.5,-166"/>
<text text-anchor="start" x="35" y="-172.8" font-family="Times,serif" font-size="14.00">4</text>
<polygon fill="none" stroke="black" points="55.5,-166 55.5,-187 89.5,-187 89.5,-166 55.5,-166"/>
<text text-anchor="start" x="67.5" y="-172.8" font-family="Times,serif" font-size="14.00">4</text>
<polygon fill="none" stroke="black" points="89.5,-166 89.5,-187 226.5,-187 226.5,-166 89.5,-166"/>
<text text-anchor="start" x="113" y="-172.8" font-family="Times,serif" font-size="14.00">4E 41 4E 4F</text>
<polygon fill="none" stroke="black" points="226.5,-166 226.5,-187 401.5,-187 401.5,-166 226.5,-166"/>
<text text-anchor="start" x="292.5" y="-172.8" font-family="Times,serif" font-size="14.00">magic</text>
<polygon fill="none" stroke="black" points="24.5,-145 24.5,-166 55.5,-166 55.5,-145 24.5,-145"/>
<text text-anchor="start" x="35" y="-151.8" font-family="Times,serif" font-size="14.00">8</text>
<polygon fill="none" stroke="black" points="55.5,-145 55.5,-166 89.5,-166 89.5,-145 55.5,-145"/>
<text text-anchor="start" x="67.5" y="-151.8" font-family="Times,serif" font-size="14.00">8</text>
<polygon fill="none" stroke="black" points="89.5,-145 89.5,-166 226.5,-166 226.5,-145 89.5,-145"/>
<text text-anchor="start" x="142.5" y="-151.8" font-family="Times,serif" font-size="14.00">u8le</text>
<polygon fill="none" stroke="black" points="226.5,-145 226.5,-166 401.5,-166 401.5,-145 226.5,-145"/>
<text text-anchor="start" x="290.5" y="-151.8" font-family="Times,serif" font-size="14.00">app_id</text>
<polygon fill="none" stroke="black" points="24.5,-124 24.5,-145 55.5,-145 55.5,-124 24.5,-124"/>
<text text-anchor="start" x="30.5" y="-130.8" font-family="Times,serif" font-size="14.00">16</text>
<polygon fill="none" stroke="black" points="55.5,-124 55.5,-145 89.5,-145 89.5,-124 55.5,-124"/>
<text text-anchor="start" x="67.5" y="-130.8" font-family="Times,serif" font-size="14.00">4</text>
<polygon fill="none" stroke="black" points="89.5,-124 89.5,-145 226.5,-145 226.5,-124 89.5,-124"/>
<text text-anchor="start" x="142.5" y="-130.8" font-family="Times,serif" font-size="14.00">u4le</text>
<polygon fill="none" stroke="black" points="226.5,-124 226.5,-145 401.5,-145 401.5,-124 226.5,-124"/>
<text text-anchor="start" x="271" y="-130.8" font-family="Times,serif" font-size="14.00">app_version</text>
<polygon fill="none" stroke="black" points="24.5,-103 24.5,-124 55.5,-124 55.5,-103 24.5,-103"/>
<text text-anchor="start" x="30.5" y="-109.8" font-family="Times,serif" font-size="14.00">20</text>
<polygon fill="none" stroke="black" points="55.5,-103 55.5,-124 89.5,-124 89.5,-103 55.5,-103"/>
<text text-anchor="start" x="67.5" y="-109.8" font-family="Times,serif" font-size="14.00">4</text>
<polygon fill="none" stroke="black" points="89.5,-103 89.5,-124 226.5,-124 226.5,-103 89.5,-103"/>
<text text-anchor="start" x="142.5" y="-109.8" font-family="Times,serif" font-size="14.00">u4le</text>
<polygon fill="none" stroke="black" points="226.5,-103 226.5,-124 401.5,-124 401.5,-103 226.5,-103"/>
<text text-anchor="start" x="297" y="-109.8" font-family="Times,serif" font-size="14.00">flags</text>
<polygon fill="none" stroke="black" points="24.5,-82 24.5,-103 55.5,-103 55.5,-82 24.5,-82"/>
<text text-anchor="start" x="30.5" y="-88.8" font-family="Times,serif" font-size="14.00">24</text>
<polygon fill="none" stroke="black" points="55.5,-82 55.5,-103 89.5,-103 89.5,-82 55.5,-82"/>
<text text-anchor="start" x="67.5" y="-88.8" font-family="Times,serif" font-size="14.00">8</text>
<polygon fill="none" stroke="black" points="89.5,-82 89.5,-103 226.5,-103 226.5,-82 89.5,-82"/>
<text text-anchor="start" x="142.5" y="-88.8" font-family="Times,serif" font-size="14.00">u8le</text>
<polygon fill="none" stroke="black" points="226.5,-82 226.5,-103 401.5,-103 401.5,-82 226.5,-82"/>
<text text-anchor="start" x="281" y="-88.8" font-family="Times,serif" font-size="14.00">hub_type</text>
<polygon fill="none" stroke="black" points="24.5,-61 24.5,-82 55.5,-82 55.5,-61 24.5,-61"/>
<text text-anchor="start" x="30.5" y="-67.8" font-family="Times,serif" font-size="14.00">32</text>
<polygon fill="none" stroke="black" points="55.5,-61 55.5,-82 89.5,-82 89.5,-61 55.5,-61"/>
<text text-anchor="start" x="67.5" y="-67.8" font-family="Times,serif" font-size="14.00">1</text>
<polygon fill="none" stroke="black" points="89.5,-61 89.5,-82 226.5,-82 226.5,-61 89.5,-61"/>
<text text-anchor="start" x="148.5" y="-67.8" font-family="Times,serif" font-size="14.00">u1</text>
<polygon fill="none" stroke="black" points="226.5,-61 226.5,-82 401.5,-82 401.5,-61 226.5,-61"/>
<text text-anchor="start" x="230" y="-67.8" font-family="Times,serif" font-size="14.00">chre_api_major_version</text>
<polygon fill="none" stroke="black" points="24.5,-40 24.5,-61 55.5,-61 55.5,-40 24.5,-40"/>
<text text-anchor="start" x="30.5" y="-46.8" font-family="Times,serif" font-size="14.00">33</text>
<polygon fill="none" stroke="black" points="55.5,-40 55.5,-61 89.5,-61 89.5,-40 55.5,-40"/>
<text text-anchor="start" x="67.5" y="-46.8" font-family="Times,serif" font-size="14.00">1</text>
<polygon fill="none" stroke="black" points="89.5,-40 89.5,-61 226.5,-61 226.5,-40 89.5,-40"/>
<text text-anchor="start" x="148.5" y="-46.8" font-family="Times,serif" font-size="14.00">u1</text>
<polygon fill="none" stroke="black" points="226.5,-40 226.5,-61 401.5,-61 401.5,-40 226.5,-40"/>
<text text-anchor="start" x="229.5" y="-46.8" font-family="Times,serif" font-size="14.00">chre_api_minor_version</text>
<polygon fill="none" stroke="black" points="24.5,-19 24.5,-40 55.5,-40 55.5,-19 24.5,-19"/>
<text text-anchor="start" x="30.5" y="-25.8" font-family="Times,serif" font-size="14.00">34</text>
<polygon fill="none" stroke="black" points="55.5,-19 55.5,-40 89.5,-40 89.5,-19 55.5,-19"/>
<text text-anchor="start" x="67.5" y="-25.8" font-family="Times,serif" font-size="14.00">6</text>
<polygon fill="none" stroke="black" points="89.5,-19 89.5,-40 226.5,-40 226.5,-19 89.5,-19"/>
<text text-anchor="start" x="92.5" y="-25.8" font-family="Times,serif" font-size="14.00">00 00 00 00 00 00</text>
<polygon fill="none" stroke="black" points="226.5,-19 226.5,-40 401.5,-40 401.5,-19 226.5,-19"/>
<text text-anchor="start" x="282" y="-25.8" font-family="Times,serif" font-size="14.00">reserved</text>
</g>
<!-- android_nanoapp_header__inst__is_encrypted -->
<g id="node2" class="node">
<title>android_nanoapp_header__inst__is_encrypted</title>
<polygon fill="#e0ffe0" stroke="transparent" points="461.5,-45 461.5,-66 558.5,-66 558.5,-45 461.5,-45"/>
<polygon fill="none" stroke="black" points="461.5,-45 461.5,-66 558.5,-66 558.5,-45 461.5,-45"/>
<text text-anchor="start" x="503" y="-51.8" font-family="Times,serif" font-size="14.00">id</text>
<polygon fill="#e0ffe0" stroke="transparent" points="558.5,-45 558.5,-66 665.5,-66 665.5,-45 558.5,-45"/>
<polygon fill="none" stroke="black" points="558.5,-45 558.5,-66 665.5,-66 665.5,-45 558.5,-45"/>
<text text-anchor="start" x="592.5" y="-51.8" font-family="Times,serif" font-size="14.00">value</text>
<polygon fill="none" stroke="black" points="461.5,-24 461.5,-45 558.5,-45 558.5,-24 461.5,-24"/>
<text text-anchor="start" x="464.5" y="-30.8" font-family="Times,serif" font-size="14.00">is_encrypted</text>
<polygon fill="none" stroke="black" points="558.5,-24 558.5,-45 665.5,-45 665.5,-24 558.5,-24"/>
<text text-anchor="start" x="561.5" y="-30.8" font-family="Times,serif" font-size="14.00">flags &amp; 2 != 0</text>
</g>
<!-- android_nanoapp_header__seq&#45;&gt;android_nanoapp_header__inst__is_encrypted -->
<g id="edge1" class="edge">
<title>android_nanoapp_header__seq:flags_type&#45;&gt;android_nanoapp_header__inst__is_encrypted</title>
<path fill="none" stroke="#404040" d="M402.5,-113C426.69,-113 423.52,-90.13 445,-79 448.31,-77.29 451.71,-75.65 455.18,-74.08"/>
<polygon fill="#404040" stroke="#404040" points="456.69,-77.25 464.52,-70.11 453.95,-70.81 456.69,-77.25"/>
</g>
<!-- android_nanoapp_header__inst__is_signed -->
<g id="node3" class="node">
<title>android_nanoapp_header__inst__is_signed</title>
<polygon fill="#e0ffe0" stroke="transparent" points="473.5,-113 473.5,-134 546.5,-134 546.5,-113 473.5,-113"/>
<polygon fill="none" stroke="black" points="473.5,-113 473.5,-134 546.5,-134 546.5,-113 473.5,-113"/>
<text text-anchor="start" x="503" y="-119.8" font-family="Times,serif" font-size="14.00">id</text>
<polygon fill="#e0ffe0" stroke="transparent" points="546.5,-113 546.5,-134 653.5,-134 653.5,-113 546.5,-113"/>
<polygon fill="none" stroke="black" points="546.5,-113 546.5,-134 653.5,-134 653.5,-113 546.5,-113"/>
<text text-anchor="start" x="580.5" y="-119.8" font-family="Times,serif" font-size="14.00">value</text>
<polygon fill="none" stroke="black" points="473.5,-92 473.5,-113 546.5,-113 546.5,-92 473.5,-92"/>
<text text-anchor="start" x="476.5" y="-98.8" font-family="Times,serif" font-size="14.00">is_signed</text>
<polygon fill="none" stroke="black" points="546.5,-92 546.5,-113 653.5,-113 653.5,-92 546.5,-92"/>
<text text-anchor="start" x="549.5" y="-98.8" font-family="Times,serif" font-size="14.00">flags &amp; 1 != 0</text>
</g>
<!-- android_nanoapp_header__seq&#45;&gt;android_nanoapp_header__inst__is_signed -->
<g id="edge2" class="edge">
<title>android_nanoapp_header__seq:flags_type&#45;&gt;android_nanoapp_header__inst__is_signed</title>
<path fill="none" stroke="#404040" d="M402.5,-113C419.45,-113 437.41,-113 454.94,-113"/>
<polygon fill="#404040" stroke="#404040" points="455.2,-116.5 465.2,-113 455.2,-109.5 455.2,-116.5"/>
</g>
<!-- android_nanoapp_header__inst__is_tcm_capable -->
<g id="node4" class="node">
<title>android_nanoapp_header__inst__is_tcm_capable</title>
<polygon fill="#e0ffe0" stroke="transparent" points="453.5,-181 453.5,-202 567.5,-202 567.5,-181 453.5,-181"/>
<polygon fill="none" stroke="black" points="453.5,-181 453.5,-202 567.5,-202 567.5,-181 453.5,-181"/>
<text text-anchor="start" x="503.5" y="-187.8" font-family="Times,serif" font-size="14.00">id</text>
<polygon fill="#e0ffe0" stroke="transparent" points="567.5,-181 567.5,-202 674.5,-202 674.5,-181 567.5,-181"/>
<polygon fill="none" stroke="black" points="567.5,-181 567.5,-202 674.5,-202 674.5,-181 567.5,-181"/>
<text text-anchor="start" x="601.5" y="-187.8" font-family="Times,serif" font-size="14.00">value</text>
<polygon fill="none" stroke="black" points="453.5,-160 453.5,-181 567.5,-181 567.5,-160 453.5,-160"/>
<text text-anchor="start" x="456.5" y="-166.8" font-family="Times,serif" font-size="14.00">is_tcm_capable</text>
<polygon fill="none" stroke="black" points="567.5,-160 567.5,-181 674.5,-181 674.5,-160 567.5,-160"/>
<text text-anchor="start" x="570.5" y="-166.8" font-family="Times,serif" font-size="14.00">flags &amp; 4 != 0</text>
</g>
<!-- android_nanoapp_header__seq&#45;&gt;android_nanoapp_header__inst__is_tcm_capable -->
<g id="edge3" class="edge">
<title>android_nanoapp_header__seq:flags_type&#45;&gt;android_nanoapp_header__inst__is_tcm_capable</title>
<path fill="none" stroke="#404040" d="M402.5,-113C426.69,-113 423.52,-135.87 445,-147 448.31,-148.71 451.71,-150.35 455.18,-151.92"/>
<polygon fill="#404040" stroke="#404040" points="453.95,-155.19 464.52,-155.89 456.69,-148.75 453.95,-155.19"/>
</g>
</g>
</svg>
