<?xml version="1.0" encoding="UTF-8" standalone="no"?>
<!DOCTYPE svg PUBLIC "-//W3C//DTD SVG 1.1//EN"
 "http://www.w3.org/Graphics/SVG/1.1/DTD/svg11.dtd">
<!-- Generated by graphviz version 2.38.0 (20140413.2041)
 -->
<!-- Title: %3 Pages: 1 -->
<svg width="1967pt" height="333pt"
 viewBox="0.00 0.00 1967.00 333.28" xmlns="http://www.w3.org/2000/svg" xmlns:xlink="http://www.w3.org/1999/xlink">
<g id="graph0" class="graph" transform="scale(1 1) rotate(0) translate(4 329.28)">
<title>%3</title>
<polygon fill="white" stroke="none" points="-4,4 -4,-329.28 1963,-329.28 1963,4 -4,4"/>
<g id="clust1" class="cluster"><title>cluster__nt_mdt_pal</title>
<polygon fill="none" stroke="black" stroke-dasharray="1,5" points="258,-9.27977 258,-317.28 1951,-317.28 1951,-9.27977 258,-9.27977"/>
<text text-anchor="middle" x="1104.5" y="-302.08" font-family="Times,serif" font-size="14.00">NtMdtPal</text>
</g>
<g id="clust2" class="cluster"><title>cluster__meta</title>
<polygon fill="none" stroke="black" stroke-dasharray="1,5" points="1065,-29.2798 1065,-286.28 1302,-286.28 1302,-29.2798 1065,-29.2798"/>
<text text-anchor="middle" x="1183.5" y="-271.08" font-family="Times,serif" font-size="14.00">NtMdtPal::Meta</text>
</g>
<g id="clust3" class="cluster"><title>cluster__color</title>
<polygon fill="none" stroke="black" stroke-dasharray="1,5" points="1760,-17.2798 1760,-170.28 1943,-170.28 1943,-17.2798 1760,-17.2798"/>
<text text-anchor="middle" x="1851.5" y="-155.08" font-family="Times,serif" font-size="14.00">NtMdtPal::Color</text>
</g>
<g id="clust4" class="cluster"><title>cluster__col_table</title>
<polygon fill="none" stroke="black" stroke-dasharray="1,5" points="1322,-28.2798 1322,-223.28 1740,-223.28 1740,-28.2798 1322,-28.2798"/>
<text text-anchor="middle" x="1531" y="-208.08" font-family="Times,serif" font-size="14.00">NtMdtPal::ColTable</text>
</g>
<!-- nt_mdt_pal__seq -->
<g id="node1" class="node"><title>nt_mdt_pal__seq</title>
<polygon fill="#e0ffe0" stroke="none" points="274.5,-183.28 274.5,-204.28 305.5,-204.28 305.5,-183.28 274.5,-183.28"/>
<polygon fill="none" stroke="black" points="274.5,-183.28 274.5,-204.28 305.5,-204.28 305.5,-183.28 274.5,-183.28"/>
<text text-anchor="start" x="277.5" y="-190.08" font-family="Times,serif" font-size="14.00">pos</text>
<polygon fill="#e0ffe0" stroke="none" points="305.5,-183.28 305.5,-204.28 339.5,-204.28 339.5,-183.28 305.5,-183.28"/>
<polygon fill="none" stroke="black" points="305.5,-183.28 305.5,-204.28 339.5,-204.28 339.5,-183.28 305.5,-183.28"/>
<text text-anchor="start" x="308.5" y="-190.08" font-family="Times,serif" font-size="14.00">size</text>
<polygon fill="#e0ffe0" stroke="none" points="339.5,-183.28 339.5,-204.28 938.5,-204.28 938.5,-183.28 339.5,-183.28"/>
<polygon fill="none" stroke="black" points="339.5,-183.28 339.5,-204.28 938.5,-204.28 938.5,-183.28 339.5,-183.28"/>
<text text-anchor="start" x="623" y="-190.08" font-family="Times,serif" font-size="14.00">type</text>
<polygon fill="#e0ffe0" stroke="none" points="938.5,-183.28 938.5,-204.28 1029.5,-204.28 1029.5,-183.28 938.5,-183.28"/>
<polygon fill="none" stroke="black" points="938.5,-183.28 938.5,-204.28 1029.5,-204.28 1029.5,-183.28 938.5,-183.28"/>
<text text-anchor="start" x="977" y="-190.08" font-family="Times,serif" font-size="14.00">id</text>
<polygon fill="none" stroke="black" points="274.5,-162.28 274.5,-183.28 305.5,-183.28 305.5,-162.28 274.5,-162.28"/>
<text text-anchor="start" x="285" y="-169.08" font-family="Times,serif" font-size="14.00">0</text>
<polygon fill="none" stroke="black" points="305.5,-162.28 305.5,-183.28 339.5,-183.28 339.5,-162.28 305.5,-162.28"/>
<text text-anchor="start" x="313" y="-169.08" font-family="Times,serif" font-size="14.00">26</text>
<polygon fill="none" stroke="black" points="339.5,-162.28 339.5,-183.28 938.5,-183.28 938.5,-162.28 339.5,-162.28"/>
<text text-anchor="start" x="342.5" y="-169.08" font-family="Times,serif" font-size="14.00">4E 54 2D 4D 44 54 20 50 61 6C 65 74 74 65 20 46 69 6C 65 20 20 31 2E 30 30 21</text>
<polygon fill="none" stroke="black" points="938.5,-162.28 938.5,-183.28 1029.5,-183.28 1029.5,-162.28 938.5,-162.28"/>
<text text-anchor="start" x="949.5" y="-169.08" font-family="Times,serif" font-size="14.00">signature</text>
<polygon fill="none" stroke="black" points="274.5,-141.28 274.5,-162.28 305.5,-162.28 305.5,-141.28 274.5,-141.28"/>
<text text-anchor="start" x="280.5" y="-148.08" font-family="Times,serif" font-size="14.00">26</text>
<polygon fill="none" stroke="black" points="305.5,-141.28 305.5,-162.28 339.5,-162.28 339.5,-141.28 305.5,-141.28"/>
<text text-anchor="start" x="317.5" y="-148.08" font-family="Times,serif" font-size="14.00">4</text>
<polygon fill="none" stroke="black" points="339.5,-141.28 339.5,-162.28 938.5,-162.28 938.5,-141.28 339.5,-141.28"/>
<text text-anchor="start" x="621" y="-148.08" font-family="Times,serif" font-size="14.00">u4be</text>
<polygon fill="none" stroke="black" points="938.5,-141.28 938.5,-162.28 1029.5,-162.28 1029.5,-141.28 938.5,-141.28"/>
<text text-anchor="start" x="963.5" y="-148.08" font-family="Times,serif" font-size="14.00">count</text>
<polygon fill="none" stroke="black" points="274.5,-120.28 274.5,-141.28 305.5,-141.28 305.5,-120.28 274.5,-120.28"/>
<text text-anchor="start" x="280.5" y="-127.08" font-family="Times,serif" font-size="14.00">30</text>
<polygon fill="none" stroke="black" points="305.5,-120.28 305.5,-141.28 339.5,-141.28 339.5,-120.28 305.5,-120.28"/>
<text text-anchor="start" x="313" y="-127.08" font-family="Times,serif" font-size="14.00">16</text>
<polygon fill="none" stroke="black" points="339.5,-120.28 339.5,-141.28 938.5,-141.28 938.5,-120.28 339.5,-120.28"/>
<text text-anchor="start" x="620.5" y="-127.08" font-family="Times,serif" font-size="14.00">Meta</text>
<polygon fill="none" stroke="black" points="938.5,-120.28 938.5,-141.28 1029.5,-141.28 1029.5,-120.28 938.5,-120.28"/>
<text text-anchor="start" x="965.5" y="-127.08" font-family="Times,serif" font-size="14.00">meta</text>
<polygon fill="none" stroke="black" points="274.5,-99.2798 274.5,-120.28 1029.5,-120.28 1029.5,-99.2798 274.5,-99.2798"/>
<text text-anchor="start" x="584" y="-106.08" font-family="Times,serif" font-size="14.00">repeat count times</text>
<polygon fill="none" stroke="black" points="274.5,-78.2798 274.5,-99.2798 305.5,-99.2798 305.5,-78.2798 274.5,-78.2798"/>
<text text-anchor="start" x="283" y="-85.0798" font-family="Times,serif" font-size="14.00">...</text>
<polygon fill="none" stroke="black" points="305.5,-78.2798 305.5,-99.2798 339.5,-99.2798 339.5,-78.2798 305.5,-78.2798"/>
<text text-anchor="start" x="317.5" y="-85.0798" font-family="Times,serif" font-size="14.00">1</text>
<polygon fill="none" stroke="black" points="339.5,-78.2798 339.5,-99.2798 938.5,-99.2798 938.5,-78.2798 339.5,-78.2798"/>
<polygon fill="none" stroke="black" points="938.5,-78.2798 938.5,-99.2798 1029.5,-99.2798 1029.5,-78.2798 938.5,-78.2798"/>
<text text-anchor="start" x="941.5" y="-85.0798" font-family="Times,serif" font-size="14.00">something2</text>
<polygon fill="none" stroke="black" points="274.5,-57.2798 274.5,-78.2798 305.5,-78.2798 305.5,-57.2798 274.5,-57.2798"/>
<text text-anchor="start" x="283" y="-64.0798" font-family="Times,serif" font-size="14.00">...</text>
<polygon fill="none" stroke="black" points="305.5,-57.2798 305.5,-78.2798 339.5,-78.2798 339.5,-57.2798 305.5,-57.2798"/>
<text text-anchor="start" x="315.5" y="-64.0798" font-family="Times,serif" font-size="14.00">...</text>
<polygon fill="none" stroke="black" points="339.5,-57.2798 339.5,-78.2798 938.5,-78.2798 938.5,-57.2798 339.5,-57.2798"/>
<text text-anchor="start" x="607" y="-64.0798" font-family="Times,serif" font-size="14.00">ColTable</text>
<polygon fill="none" stroke="black" points="938.5,-57.2798 938.5,-78.2798 1029.5,-78.2798 1029.5,-57.2798 938.5,-57.2798"/>
<text text-anchor="start" x="962" y="-64.0798" font-family="Times,serif" font-size="14.00">tables</text>
<polygon fill="none" stroke="black" points="274.5,-36.2798 274.5,-57.2798 1029.5,-57.2798 1029.5,-36.2798 274.5,-36.2798"/>
<text text-anchor="start" x="584" y="-43.0798" font-family="Times,serif" font-size="14.00">repeat count times</text>
</g>
<!-- nt_mdt_pal__seq&#45;&gt;nt_mdt_pal__seq -->
<g id="edge2" class="edge"><title>nt_mdt_pal__seq:count_type&#45;&gt;nt_mdt_pal__seq:meta__repeat</title>
<path fill="none" stroke="#404040" d="M938.477,-153.834C675.82,-161.164 0,-159.403 0,-130.78 0,-114.81 119.356,-107.202 264.251,-104.869"/>
<polygon fill="#404040" stroke="#404040" points="264.333,-108.369 274.278,-104.717 264.226,-101.369 264.333,-108.369"/>
</g>
<!-- nt_mdt_pal__seq&#45;&gt;nt_mdt_pal__seq -->
<g id="edge4" class="edge"><title>nt_mdt_pal__seq:count_type&#45;&gt;nt_mdt_pal__seq:tables__repeat</title>
<path fill="none" stroke="#404040" d="M938.477,-153.826C675.82,-161.045 0,-157.465 0,-99.2798 0,-66.8157 119.356,-51.3503 264.251,-45.2748"/>
<polygon fill="#404040" stroke="#404040" points="264.427,-48.7707 274.278,-44.8708 264.145,-41.7763 264.427,-48.7707"/>
</g>
<!-- meta__seq -->
<g id="node2" class="node"><title>meta__seq</title>
<polygon fill="#e0ffe0" stroke="none" points="1081.5,-230.28 1081.5,-251.28 1112.5,-251.28 1112.5,-230.28 1081.5,-230.28"/>
<polygon fill="none" stroke="black" points="1081.5,-230.28 1081.5,-251.28 1112.5,-251.28 1112.5,-230.28 1081.5,-230.28"/>
<text text-anchor="start" x="1084.5" y="-237.08" font-family="Times,serif" font-size="14.00">pos</text>
<polygon fill="#e0ffe0" stroke="none" points="1112.5,-230.28 1112.5,-251.28 1146.5,-251.28 1146.5,-230.28 1112.5,-230.28"/>
<polygon fill="none" stroke="black" points="1112.5,-230.28 1112.5,-251.28 1146.5,-251.28 1146.5,-230.28 1112.5,-230.28"/>
<text text-anchor="start" x="1115.5" y="-237.08" font-family="Times,serif" font-size="14.00">size</text>
<polygon fill="#e0ffe0" stroke="none" points="1146.5,-230.28 1146.5,-251.28 1188.5,-251.28 1188.5,-230.28 1146.5,-230.28"/>
<polygon fill="none" stroke="black" points="1146.5,-230.28 1146.5,-251.28 1188.5,-251.28 1188.5,-230.28 1146.5,-230.28"/>
<text text-anchor="start" x="1151.5" y="-237.08" font-family="Times,serif" font-size="14.00">type</text>
<polygon fill="#e0ffe0" stroke="none" points="1188.5,-230.28 1188.5,-251.28 1286.5,-251.28 1286.5,-230.28 1188.5,-230.28"/>
<polygon fill="none" stroke="black" points="1188.5,-230.28 1188.5,-251.28 1286.5,-251.28 1286.5,-230.28 1188.5,-230.28"/>
<text text-anchor="start" x="1230.5" y="-237.08" font-family="Times,serif" font-size="14.00">id</text>
<polygon fill="none" stroke="black" points="1081.5,-209.28 1081.5,-230.28 1112.5,-230.28 1112.5,-209.28 1081.5,-209.28"/>
<text text-anchor="start" x="1092" y="-216.08" font-family="Times,serif" font-size="14.00">0</text>
<polygon fill="none" stroke="black" points="1112.5,-209.28 1112.5,-230.28 1146.5,-230.28 1146.5,-209.28 1112.5,-209.28"/>
<text text-anchor="start" x="1124.5" y="-216.08" font-family="Times,serif" font-size="14.00">3</text>
<polygon fill="none" stroke="black" points="1146.5,-209.28 1146.5,-230.28 1188.5,-230.28 1188.5,-209.28 1146.5,-209.28"/>
<polygon fill="none" stroke="black" points="1188.5,-209.28 1188.5,-230.28 1286.5,-230.28 1286.5,-209.28 1188.5,-209.28"/>
<text text-anchor="start" x="1210" y="-216.08" font-family="Times,serif" font-size="14.00">unkn00</text>
<polygon fill="none" stroke="black" points="1081.5,-188.28 1081.5,-209.28 1112.5,-209.28 1112.5,-188.28 1081.5,-188.28"/>
<text text-anchor="start" x="1092" y="-195.08" font-family="Times,serif" font-size="14.00">3</text>
<polygon fill="none" stroke="black" points="1112.5,-188.28 1112.5,-209.28 1146.5,-209.28 1146.5,-188.28 1112.5,-188.28"/>
<text text-anchor="start" x="1124.5" y="-195.08" font-family="Times,serif" font-size="14.00">2</text>
<polygon fill="none" stroke="black" points="1146.5,-188.28 1146.5,-209.28 1188.5,-209.28 1188.5,-188.28 1146.5,-188.28"/>
<polygon fill="none" stroke="black" points="1188.5,-188.28 1188.5,-209.28 1286.5,-209.28 1286.5,-188.28 1188.5,-188.28"/>
<text text-anchor="start" x="1210" y="-195.08" font-family="Times,serif" font-size="14.00">unkn01</text>
<polygon fill="none" stroke="black" points="1081.5,-167.28 1081.5,-188.28 1112.5,-188.28 1112.5,-167.28 1081.5,-167.28"/>
<text text-anchor="start" x="1092" y="-174.08" font-family="Times,serif" font-size="14.00">5</text>
<polygon fill="none" stroke="black" points="1112.5,-167.28 1112.5,-188.28 1146.5,-188.28 1146.5,-167.28 1112.5,-167.28"/>
<text text-anchor="start" x="1124.5" y="-174.08" font-family="Times,serif" font-size="14.00">1</text>
<polygon fill="none" stroke="black" points="1146.5,-167.28 1146.5,-188.28 1188.5,-188.28 1188.5,-167.28 1146.5,-167.28"/>
<polygon fill="none" stroke="black" points="1188.5,-167.28 1188.5,-188.28 1286.5,-188.28 1286.5,-167.28 1188.5,-167.28"/>
<text text-anchor="start" x="1210" y="-174.08" font-family="Times,serif" font-size="14.00">unkn02</text>
<polygon fill="none" stroke="black" points="1081.5,-146.28 1081.5,-167.28 1112.5,-167.28 1112.5,-146.28 1081.5,-146.28"/>
<text text-anchor="start" x="1092" y="-153.08" font-family="Times,serif" font-size="14.00">6</text>
<polygon fill="none" stroke="black" points="1112.5,-146.28 1112.5,-167.28 1146.5,-167.28 1146.5,-146.28 1112.5,-146.28"/>
<text text-anchor="start" x="1124.5" y="-153.08" font-family="Times,serif" font-size="14.00">1</text>
<polygon fill="none" stroke="black" points="1146.5,-146.28 1146.5,-167.28 1188.5,-167.28 1188.5,-146.28 1146.5,-146.28"/>
<polygon fill="none" stroke="black" points="1188.5,-146.28 1188.5,-167.28 1286.5,-167.28 1286.5,-146.28 1188.5,-146.28"/>
<text text-anchor="start" x="1210" y="-153.08" font-family="Times,serif" font-size="14.00">unkn03</text>
<polygon fill="none" stroke="black" points="1081.5,-125.28 1081.5,-146.28 1112.5,-146.28 1112.5,-125.28 1081.5,-125.28"/>
<text text-anchor="start" x="1092" y="-132.08" font-family="Times,serif" font-size="14.00">7</text>
<polygon fill="none" stroke="black" points="1112.5,-125.28 1112.5,-146.28 1146.5,-146.28 1146.5,-125.28 1112.5,-125.28"/>
<text text-anchor="start" x="1124.5" y="-132.08" font-family="Times,serif" font-size="14.00">2</text>
<polygon fill="none" stroke="black" points="1146.5,-125.28 1146.5,-146.28 1188.5,-146.28 1188.5,-125.28 1146.5,-125.28"/>
<text text-anchor="start" x="1152" y="-132.08" font-family="Times,serif" font-size="14.00">u2le</text>
<polygon fill="none" stroke="black" points="1188.5,-125.28 1188.5,-146.28 1286.5,-146.28 1286.5,-125.28 1188.5,-125.28"/>
<text text-anchor="start" x="1191.5" y="-132.08" font-family="Times,serif" font-size="14.00">colors_count</text>
<polygon fill="none" stroke="black" points="1081.5,-104.28 1081.5,-125.28 1112.5,-125.28 1112.5,-104.28 1081.5,-104.28"/>
<text text-anchor="start" x="1092" y="-111.08" font-family="Times,serif" font-size="14.00">9</text>
<polygon fill="none" stroke="black" points="1112.5,-104.28 1112.5,-125.28 1146.5,-125.28 1146.5,-104.28 1112.5,-104.28"/>
<text text-anchor="start" x="1124.5" y="-111.08" font-family="Times,serif" font-size="14.00">2</text>
<polygon fill="none" stroke="black" points="1146.5,-104.28 1146.5,-125.28 1188.5,-125.28 1188.5,-104.28 1146.5,-104.28"/>
<polygon fill="none" stroke="black" points="1188.5,-104.28 1188.5,-125.28 1286.5,-125.28 1286.5,-104.28 1188.5,-104.28"/>
<text text-anchor="start" x="1210" y="-111.08" font-family="Times,serif" font-size="14.00">unkn10</text>
<polygon fill="none" stroke="black" points="1081.5,-83.2798 1081.5,-104.28 1112.5,-104.28 1112.5,-83.2798 1081.5,-83.2798"/>
<text text-anchor="start" x="1087.5" y="-90.0798" font-family="Times,serif" font-size="14.00">11</text>
<polygon fill="none" stroke="black" points="1112.5,-83.2798 1112.5,-104.28 1146.5,-104.28 1146.5,-83.2798 1112.5,-83.2798"/>
<text text-anchor="start" x="1124.5" y="-90.0798" font-family="Times,serif" font-size="14.00">1</text>
<polygon fill="none" stroke="black" points="1146.5,-83.2798 1146.5,-104.28 1188.5,-104.28 1188.5,-83.2798 1146.5,-83.2798"/>
<polygon fill="none" stroke="black" points="1188.5,-83.2798 1188.5,-104.28 1286.5,-104.28 1286.5,-83.2798 1188.5,-83.2798"/>
<text text-anchor="start" x="1210" y="-90.0798" font-family="Times,serif" font-size="14.00">unkn11</text>
<polygon fill="none" stroke="black" points="1081.5,-62.2798 1081.5,-83.2798 1112.5,-83.2798 1112.5,-62.2798 1081.5,-62.2798"/>
<text text-anchor="start" x="1087.5" y="-69.0798" font-family="Times,serif" font-size="14.00">12</text>
<polygon fill="none" stroke="black" points="1112.5,-62.2798 1112.5,-83.2798 1146.5,-83.2798 1146.5,-62.2798 1112.5,-62.2798"/>
<text text-anchor="start" x="1124.5" y="-69.0798" font-family="Times,serif" font-size="14.00">2</text>
<polygon fill="none" stroke="black" points="1146.5,-62.2798 1146.5,-83.2798 1188.5,-83.2798 1188.5,-62.2798 1146.5,-62.2798"/>
<polygon fill="none" stroke="black" points="1188.5,-62.2798 1188.5,-83.2798 1286.5,-83.2798 1286.5,-62.2798 1188.5,-62.2798"/>
<text text-anchor="start" x="1210" y="-69.0798" font-family="Times,serif" font-size="14.00">unkn12</text>
<polygon fill="none" stroke="black" points="1081.5,-41.2798 1081.5,-62.2798 1112.5,-62.2798 1112.5,-41.2798 1081.5,-41.2798"/>
<text text-anchor="start" x="1087.5" y="-48.0798" font-family="Times,serif" font-size="14.00">14</text>
<polygon fill="none" stroke="black" points="1112.5,-41.2798 1112.5,-62.2798 1146.5,-62.2798 1146.5,-41.2798 1112.5,-41.2798"/>
<text text-anchor="start" x="1124.5" y="-48.0798" font-family="Times,serif" font-size="14.00">2</text>
<polygon fill="none" stroke="black" points="1146.5,-41.2798 1146.5,-62.2798 1188.5,-62.2798 1188.5,-41.2798 1146.5,-41.2798"/>
<text text-anchor="start" x="1149.5" y="-48.0798" font-family="Times,serif" font-size="14.00">u2be</text>
<polygon fill="none" stroke="black" points="1188.5,-41.2798 1188.5,-62.2798 1286.5,-62.2798 1286.5,-41.2798 1188.5,-41.2798"/>
<text text-anchor="start" x="1200" y="-48.0798" font-family="Times,serif" font-size="14.00">name_size</text>
</g>
<!-- nt_mdt_pal__seq&#45;&gt;meta__seq -->
<g id="edge1" class="edge"><title>nt_mdt_pal__seq:meta_type&#45;&gt;meta__seq</title>
<path fill="none" stroke="black" stroke-width="2" d="M1030.5,-131.28C1040.85,-131.28 1051.58,-131.628 1062.32,-132.219"/>
<polygon fill="black" stroke="black" stroke-width="2" points="1062.43,-135.732 1072.62,-132.857 1062.86,-128.746 1062.43,-135.732"/>
</g>
<!-- col_table__seq -->
<g id="node4" class="node"><title>col_table__seq</title>
<polygon fill="#e0ffe0" stroke="none" points="1338,-166.28 1338,-187.28 1369,-187.28 1369,-166.28 1338,-166.28"/>
<polygon fill="none" stroke="black" points="1338,-166.28 1338,-187.28 1369,-187.28 1369,-166.28 1338,-166.28"/>
<text text-anchor="start" x="1341" y="-173.08" font-family="Times,serif" font-size="14.00">pos</text>
<polygon fill="#e0ffe0" stroke="none" points="1369,-166.28 1369,-187.28 1581,-187.28 1581,-166.28 1369,-166.28"/>
<polygon fill="none" stroke="black" points="1369,-166.28 1369,-187.28 1581,-187.28 1581,-166.28 1369,-166.28"/>
<text text-anchor="start" x="1461" y="-173.08" font-family="Times,serif" font-size="14.00">size</text>
<polygon fill="#e0ffe0" stroke="none" points="1581,-166.28 1581,-187.28 1672,-187.28 1672,-166.28 1581,-166.28"/>
<polygon fill="none" stroke="black" points="1581,-166.28 1581,-187.28 1672,-187.28 1672,-166.28 1581,-166.28"/>
<text text-anchor="start" x="1610.5" y="-173.08" font-family="Times,serif" font-size="14.00">type</text>
<polygon fill="#e0ffe0" stroke="none" points="1672,-166.28 1672,-187.28 1724,-187.28 1724,-166.28 1672,-166.28"/>
<polygon fill="none" stroke="black" points="1672,-166.28 1672,-187.28 1724,-187.28 1724,-166.28 1672,-166.28"/>
<text text-anchor="start" x="1691" y="-173.08" font-family="Times,serif" font-size="14.00">id</text>
<polygon fill="none" stroke="black" points="1338,-145.28 1338,-166.28 1369,-166.28 1369,-145.28 1338,-145.28"/>
<text text-anchor="start" x="1348.5" y="-152.08" font-family="Times,serif" font-size="14.00">0</text>
<polygon fill="none" stroke="black" points="1369,-145.28 1369,-166.28 1581,-166.28 1581,-145.28 1369,-145.28"/>
<text text-anchor="start" x="1470" y="-152.08" font-family="Times,serif" font-size="14.00">1</text>
<polygon fill="none" stroke="black" points="1581,-145.28 1581,-166.28 1672,-166.28 1672,-145.28 1581,-145.28"/>
<text text-anchor="start" x="1617" y="-152.08" font-family="Times,serif" font-size="14.00">u1</text>
<polygon fill="none" stroke="black" points="1672,-145.28 1672,-166.28 1724,-166.28 1724,-145.28 1672,-145.28"/>
<text text-anchor="start" x="1679.5" y="-152.08" font-family="Times,serif" font-size="14.00">size1</text>
<polygon fill="none" stroke="black" points="1338,-124.28 1338,-145.28 1369,-145.28 1369,-124.28 1338,-124.28"/>
<text text-anchor="start" x="1348.5" y="-131.08" font-family="Times,serif" font-size="14.00">1</text>
<polygon fill="none" stroke="black" points="1369,-124.28 1369,-145.28 1581,-145.28 1581,-124.28 1369,-124.28"/>
<text text-anchor="start" x="1470" y="-131.08" font-family="Times,serif" font-size="14.00">1</text>
<polygon fill="none" stroke="black" points="1581,-124.28 1581,-145.28 1672,-145.28 1672,-124.28 1581,-124.28"/>
<text text-anchor="start" x="1617" y="-131.08" font-family="Times,serif" font-size="14.00">u1</text>
<polygon fill="none" stroke="black" points="1672,-124.28 1672,-145.28 1724,-145.28 1724,-124.28 1672,-124.28"/>
<text text-anchor="start" x="1679.5" y="-131.08" font-family="Times,serif" font-size="14.00">unkn</text>
<polygon fill="none" stroke="black" points="1338,-103.28 1338,-124.28 1369,-124.28 1369,-103.28 1338,-103.28"/>
<text text-anchor="start" x="1348.5" y="-110.08" font-family="Times,serif" font-size="14.00">2</text>
<polygon fill="none" stroke="black" points="1369,-103.28 1369,-124.28 1581,-124.28 1581,-103.28 1369,-103.28"/>
<text text-anchor="start" x="1372" y="-110.08" font-family="Times,serif" font-size="14.00">_root.meta[index].name_size</text>
<polygon fill="none" stroke="black" points="1581,-103.28 1581,-124.28 1672,-124.28 1672,-103.28 1581,-103.28"/>
<text text-anchor="start" x="1584" y="-110.08" font-family="Times,serif" font-size="14.00">str(UTF&#45;16)</text>
<polygon fill="none" stroke="black" points="1672,-103.28 1672,-124.28 1724,-124.28 1724,-103.28 1672,-103.28"/>
<text text-anchor="start" x="1683" y="-110.08" font-family="Times,serif" font-size="14.00">title</text>
<polygon fill="none" stroke="black" points="1338,-82.2798 1338,-103.28 1369,-103.28 1369,-82.2798 1338,-82.2798"/>
<text text-anchor="start" x="1346.5" y="-89.0798" font-family="Times,serif" font-size="14.00">...</text>
<polygon fill="none" stroke="black" points="1369,-82.2798 1369,-103.28 1581,-103.28 1581,-82.2798 1369,-82.2798"/>
<text text-anchor="start" x="1470" y="-89.0798" font-family="Times,serif" font-size="14.00">2</text>
<polygon fill="none" stroke="black" points="1581,-82.2798 1581,-103.28 1672,-103.28 1672,-82.2798 1581,-82.2798"/>
<text text-anchor="start" x="1608.5" y="-89.0798" font-family="Times,serif" font-size="14.00">u2be</text>
<polygon fill="none" stroke="black" points="1672,-82.2798 1672,-103.28 1724,-103.28 1724,-82.2798 1672,-82.2798"/>
<text text-anchor="start" x="1675" y="-89.0798" font-family="Times,serif" font-size="14.00">unkn1</text>
<polygon fill="none" stroke="black" points="1338,-61.2798 1338,-82.2798 1369,-82.2798 1369,-61.2798 1338,-61.2798"/>
<text text-anchor="start" x="1346.5" y="-68.0798" font-family="Times,serif" font-size="14.00">...</text>
<polygon fill="none" stroke="black" points="1369,-61.2798 1369,-82.2798 1581,-82.2798 1581,-61.2798 1369,-61.2798"/>
<text text-anchor="start" x="1470" y="-68.0798" font-family="Times,serif" font-size="14.00">4</text>
<polygon fill="none" stroke="black" points="1581,-61.2798 1581,-82.2798 1672,-82.2798 1672,-61.2798 1581,-61.2798"/>
<text text-anchor="start" x="1606.5" y="-68.0798" font-family="Times,serif" font-size="14.00">Color</text>
<polygon fill="none" stroke="black" points="1672,-61.2798 1672,-82.2798 1724,-82.2798 1724,-61.2798 1672,-61.2798"/>
<text text-anchor="start" x="1676" y="-68.0798" font-family="Times,serif" font-size="14.00">colors</text>
<polygon fill="none" stroke="black" points="1338,-40.2798 1338,-61.2798 1724,-61.2798 1724,-40.2798 1338,-40.2798"/>
<text text-anchor="start" x="1355" y="-47.0798" font-family="Times,serif" font-size="14.00">repeat (_root.meta[index].colors_count &#45; 1) times</text>
</g>
<!-- nt_mdt_pal__seq&#45;&gt;col_table__seq -->
<g id="edge3" class="edge"><title>nt_mdt_pal__seq:tables_type&#45;&gt;col_table__seq</title>
<path fill="none" stroke="black" stroke-width="2" d="M1030.5,-67.2798C1054.66,-67.2798 1043.16,-35.6033 1065,-25.2798 1160.23,19.7347 1198.49,-5.79223 1302,-25.2798 1314.19,-27.5749 1326.57,-30.5041 1338.93,-33.8929"/>
<polygon fill="black" stroke="black" stroke-width="2" points="1338.26,-37.3408 1348.83,-36.7058 1340.17,-30.6071 1338.26,-37.3408"/>
</g>
<!-- meta__seq&#45;&gt;col_table__seq -->
<g id="edge5" class="edge"><title>meta__seq:name_size_type&#45;&gt;col_table__seq:title_size</title>
<path fill="none" stroke="#404040" d="M1287.5,-51.2798C1346.91,-51.2798 1411.79,-79.9647 1447.21,-98.3121"/>
<polygon fill="#404040" stroke="#404040" points="1445.91,-101.587 1456.39,-103.18 1449.19,-95.403 1445.91,-101.587"/>
</g>
<!-- meta__seq&#45;&gt;col_table__seq -->
<g id="edge7" class="edge"><title>meta__seq:colors_count_type&#45;&gt;col_table__seq:colors__repeat</title>
<path fill="none" stroke="#404040" d="M1287.5,-135.28C1327.29,-135.28 1299.44,-64.8671 1327.08,-52.2148"/>
<polygon fill="#404040" stroke="#404040" points="1327.85,-55.6289 1337,-50.2798 1326.51,-48.7583 1327.85,-55.6289"/>
</g>
<!-- color__seq -->
<g id="node3" class="node"><title>color__seq</title>
<polygon fill="#e0ffe0" stroke="none" points="1776.5,-113.28 1776.5,-134.28 1807.5,-134.28 1807.5,-113.28 1776.5,-113.28"/>
<polygon fill="none" stroke="black" points="1776.5,-113.28 1776.5,-134.28 1807.5,-134.28 1807.5,-113.28 1776.5,-113.28"/>
<text text-anchor="start" x="1779.5" y="-120.08" font-family="Times,serif" font-size="14.00">pos</text>
<polygon fill="#e0ffe0" stroke="none" points="1807.5,-113.28 1807.5,-134.28 1841.5,-134.28 1841.5,-113.28 1807.5,-113.28"/>
<polygon fill="none" stroke="black" points="1807.5,-113.28 1807.5,-134.28 1841.5,-134.28 1841.5,-113.28 1807.5,-113.28"/>
<text text-anchor="start" x="1810.5" y="-120.08" font-family="Times,serif" font-size="14.00">size</text>
<polygon fill="#e0ffe0" stroke="none" points="1841.5,-113.28 1841.5,-134.28 1879.5,-134.28 1879.5,-113.28 1841.5,-113.28"/>
<polygon fill="none" stroke="black" points="1841.5,-113.28 1841.5,-134.28 1879.5,-134.28 1879.5,-113.28 1841.5,-113.28"/>
<text text-anchor="start" x="1844.5" y="-120.08" font-family="Times,serif" font-size="14.00">type</text>
<polygon fill="#e0ffe0" stroke="none" points="1879.5,-113.28 1879.5,-134.28 1927.5,-134.28 1927.5,-113.28 1879.5,-113.28"/>
<polygon fill="none" stroke="black" points="1879.5,-113.28 1879.5,-134.28 1927.5,-134.28 1927.5,-113.28 1879.5,-113.28"/>
<text text-anchor="start" x="1896.5" y="-120.08" font-family="Times,serif" font-size="14.00">id</text>
<polygon fill="none" stroke="black" points="1776.5,-92.2798 1776.5,-113.28 1807.5,-113.28 1807.5,-92.2798 1776.5,-92.2798"/>
<text text-anchor="start" x="1787" y="-99.0798" font-family="Times,serif" font-size="14.00">0</text>
<polygon fill="none" stroke="black" points="1807.5,-92.2798 1807.5,-113.28 1841.5,-113.28 1841.5,-92.2798 1807.5,-92.2798"/>
<text text-anchor="start" x="1819.5" y="-99.0798" font-family="Times,serif" font-size="14.00">1</text>
<polygon fill="none" stroke="black" points="1841.5,-92.2798 1841.5,-113.28 1879.5,-113.28 1879.5,-92.2798 1841.5,-92.2798"/>
<text text-anchor="start" x="1851" y="-99.0798" font-family="Times,serif" font-size="14.00">u1</text>
<polygon fill="none" stroke="black" points="1879.5,-92.2798 1879.5,-113.28 1927.5,-113.28 1927.5,-92.2798 1879.5,-92.2798"/>
<text text-anchor="start" x="1891" y="-99.0798" font-family="Times,serif" font-size="14.00">red</text>
<polygon fill="none" stroke="black" points="1776.5,-71.2798 1776.5,-92.2798 1807.5,-92.2798 1807.5,-71.2798 1776.5,-71.2798"/>
<text text-anchor="start" x="1787" y="-78.0798" font-family="Times,serif" font-size="14.00">1</text>
<polygon fill="none" stroke="black" points="1807.5,-71.2798 1807.5,-92.2798 1841.5,-92.2798 1841.5,-71.2798 1807.5,-71.2798"/>
<text text-anchor="start" x="1819.5" y="-78.0798" font-family="Times,serif" font-size="14.00">1</text>
<polygon fill="none" stroke="black" points="1841.5,-71.2798 1841.5,-92.2798 1879.5,-92.2798 1879.5,-71.2798 1841.5,-71.2798"/>
<text text-anchor="start" x="1851" y="-78.0798" font-family="Times,serif" font-size="14.00">u1</text>
<polygon fill="none" stroke="black" points="1879.5,-71.2798 1879.5,-92.2798 1927.5,-92.2798 1927.5,-71.2798 1879.5,-71.2798"/>
<text text-anchor="start" x="1885" y="-78.0798" font-family="Times,serif" font-size="14.00">unkn</text>
<polygon fill="none" stroke="black" points="1776.5,-50.2798 1776.5,-71.2798 1807.5,-71.2798 1807.5,-50.2798 1776.5,-50.2798"/>
<text text-anchor="start" x="1787" y="-57.0798" font-family="Times,serif" font-size="14.00">2</text>
<polygon fill="none" stroke="black" points="1807.5,-50.2798 1807.5,-71.2798 1841.5,-71.2798 1841.5,-50.2798 1807.5,-50.2798"/>
<text text-anchor="start" x="1819.5" y="-57.0798" font-family="Times,serif" font-size="14.00">1</text>
<polygon fill="none" stroke="black" points="1841.5,-50.2798 1841.5,-71.2798 1879.5,-71.2798 1879.5,-50.2798 1841.5,-50.2798"/>
<text text-anchor="start" x="1851" y="-57.0798" font-family="Times,serif" font-size="14.00">u1</text>
<polygon fill="none" stroke="black" points="1879.5,-50.2798 1879.5,-71.2798 1927.5,-71.2798 1927.5,-50.2798 1879.5,-50.2798"/>
<text text-anchor="start" x="1888" y="-57.0798" font-family="Times,serif" font-size="14.00">blue</text>
<polygon fill="none" stroke="black" points="1776.5,-29.2798 1776.5,-50.2798 1807.5,-50.2798 1807.5,-29.2798 1776.5,-29.2798"/>
<text text-anchor="start" x="1787" y="-36.0798" font-family="Times,serif" font-size="14.00">3</text>
<polygon fill="none" stroke="black" points="1807.5,-29.2798 1807.5,-50.2798 1841.5,-50.2798 1841.5,-29.2798 1807.5,-29.2798"/>
<text text-anchor="start" x="1819.5" y="-36.0798" font-family="Times,serif" font-size="14.00">1</text>
<polygon fill="none" stroke="black" points="1841.5,-29.2798 1841.5,-50.2798 1879.5,-50.2798 1879.5,-29.2798 1841.5,-29.2798"/>
<text text-anchor="start" x="1851" y="-36.0798" font-family="Times,serif" font-size="14.00">u1</text>
<polygon fill="none" stroke="black" points="1879.5,-29.2798 1879.5,-50.2798 1927.5,-50.2798 1927.5,-29.2798 1879.5,-29.2798"/>
<text text-anchor="start" x="1882.5" y="-36.0798" font-family="Times,serif" font-size="14.00">green</text>
</g>
<!-- col_table__seq&#45;&gt;color__seq -->
<g id="edge6" class="edge"><title>col_table__seq:colors_type&#45;&gt;color__seq</title>
<path fill="none" stroke="black" stroke-width="2" d="M1725,-71.2798C1735.63,-71.2798 1746.75,-71.6765 1757.79,-72.3193"/>
<polygon fill="black" stroke="black" stroke-width="2" points="1757.69,-75.8196 1767.89,-72.9744 1758.14,-68.8343 1757.69,-75.8196"/>
</g>
</g>
</svg>
