<?xml version="1.0" encoding="UTF-8" standalone="no"?>
<!DOCTYPE svg PUBLIC "-//W3C//DTD SVG 1.1//EN"
 "http://www.w3.org/Graphics/SVG/1.1/DTD/svg11.dtd">
<!-- Generated by graphviz version 2.43.0 (0)
 -->
<!-- Title: %3 Pages: 1 -->
<svg width="1316pt" height="333pt"
 viewBox="0.00 0.00 1316.00 332.74" xmlns="http://www.w3.org/2000/svg" xmlns:xlink="http://www.w3.org/1999/xlink">
<g id="graph0" class="graph" transform="scale(1 1) rotate(0) translate(4 328.74)">
<title>%3</title>
<polygon fill="white" stroke="transparent" points="-4,4 -4,-328.74 1312,-328.74 1312,4 -4,4"/>
<g id="clust1" class="cluster">
<title>cluster__nt_mdt_pal</title>
<polygon fill="none" stroke="black" stroke-dasharray="1,5" points="124,-8.74 124,-316.74 1300,-316.74 1300,-8.74 124,-8.74"/>
<text text-anchor="middle" x="712" y="-301.54" font-family="Times,serif" font-size="14.00">NtMdtPal</text>
</g>
<g id="clust2" class="cluster">
<title>cluster__meta</title>
<polygon fill="none" stroke="black" stroke-dasharray="1,5" points="400,-28.74 400,-285.74 635,-285.74 635,-28.74 400,-28.74"/>
<text text-anchor="middle" x="517.5" y="-270.54" font-family="Times,serif" font-size="14.00">NtMdtPal::Meta</text>
</g>
<g id="clust3" class="cluster">
<title>cluster__color</title>
<polygon fill="none" stroke="black" stroke-dasharray="1,5" points="1109,-16.74 1109,-169.74 1292,-169.74 1292,-16.74 1109,-16.74"/>
<text text-anchor="middle" x="1200.5" y="-154.54" font-family="Times,serif" font-size="14.00">NtMdtPal::Color</text>
</g>
<g id="clust4" class="cluster">
<title>cluster__col_table</title>
<polygon fill="none" stroke="black" stroke-dasharray="1,5" points="655,-27.74 655,-222.74 1089,-222.74 1089,-27.74 655,-27.74"/>
<text text-anchor="middle" x="872" y="-207.54" font-family="Times,serif" font-size="14.00">NtMdtPal::ColTable</text>
</g>
<!-- nt_mdt_pal__seq -->
<g id="node1" class="node">
<title>nt_mdt_pal__seq</title>
<polygon fill="#e0ffe0" stroke="transparent" points="140,-182.74 140,-203.74 171,-203.74 171,-182.74 140,-182.74"/>
<polygon fill="none" stroke="black" points="140,-182.74 140,-203.74 171,-203.74 171,-182.74 140,-182.74"/>
<text text-anchor="start" x="143" y="-189.54" font-family="Times,serif" font-size="14.00">pos</text>
<polygon fill="#e0ffe0" stroke="transparent" points="171,-182.74 171,-203.74 205,-203.74 205,-182.74 171,-182.74"/>
<polygon fill="none" stroke="black" points="171,-182.74 171,-203.74 205,-203.74 205,-182.74 171,-182.74"/>
<text text-anchor="start" x="174" y="-189.54" font-family="Times,serif" font-size="14.00">size</text>
<polygon fill="#e0ffe0" stroke="transparent" points="205,-182.74 205,-203.74 273,-203.74 273,-182.74 205,-182.74"/>
<polygon fill="none" stroke="black" points="205,-182.74 205,-203.74 273,-203.74 273,-182.74 205,-182.74"/>
<text text-anchor="start" x="223" y="-189.54" font-family="Times,serif" font-size="14.00">type</text>
<polygon fill="#e0ffe0" stroke="transparent" points="273,-182.74 273,-203.74 364,-203.74 364,-182.74 273,-182.74"/>
<polygon fill="none" stroke="black" points="273,-182.74 273,-203.74 364,-203.74 364,-182.74 273,-182.74"/>
<text text-anchor="start" x="311.5" y="-189.54" font-family="Times,serif" font-size="14.00">id</text>
<polygon fill="none" stroke="black" points="140,-161.74 140,-182.74 171,-182.74 171,-161.74 140,-161.74"/>
<text text-anchor="start" x="150.5" y="-168.54" font-family="Times,serif" font-size="14.00">0</text>
<polygon fill="none" stroke="black" points="171,-161.74 171,-182.74 205,-182.74 205,-161.74 171,-161.74"/>
<text text-anchor="start" x="178.5" y="-168.54" font-family="Times,serif" font-size="14.00">26</text>
<polygon fill="none" stroke="black" points="205,-161.74 205,-182.74 273,-182.74 273,-161.74 205,-161.74"/>
<polygon fill="none" stroke="black" points="273,-161.74 273,-182.74 364,-182.74 364,-161.74 273,-161.74"/>
<text text-anchor="start" x="284" y="-168.54" font-family="Times,serif" font-size="14.00">signature</text>
<polygon fill="none" stroke="black" points="140,-140.74 140,-161.74 171,-161.74 171,-140.74 140,-140.74"/>
<text text-anchor="start" x="146" y="-147.54" font-family="Times,serif" font-size="14.00">26</text>
<polygon fill="none" stroke="black" points="171,-140.74 171,-161.74 205,-161.74 205,-140.74 171,-140.74"/>
<text text-anchor="start" x="183" y="-147.54" font-family="Times,serif" font-size="14.00">4</text>
<polygon fill="none" stroke="black" points="205,-140.74 205,-161.74 273,-161.74 273,-140.74 205,-140.74"/>
<text text-anchor="start" x="221" y="-147.54" font-family="Times,serif" font-size="14.00">u4be</text>
<polygon fill="none" stroke="black" points="273,-140.74 273,-161.74 364,-161.74 364,-140.74 273,-140.74"/>
<text text-anchor="start" x="298.5" y="-147.54" font-family="Times,serif" font-size="14.00">count</text>
<polygon fill="none" stroke="black" points="140,-119.74 140,-140.74 171,-140.74 171,-119.74 140,-119.74"/>
<text text-anchor="start" x="146" y="-126.54" font-family="Times,serif" font-size="14.00">30</text>
<polygon fill="none" stroke="black" points="171,-119.74 171,-140.74 205,-140.74 205,-119.74 171,-119.74"/>
<text text-anchor="start" x="178.5" y="-126.54" font-family="Times,serif" font-size="14.00">16</text>
<polygon fill="none" stroke="black" points="205,-119.74 205,-140.74 273,-140.74 273,-119.74 205,-119.74"/>
<text text-anchor="start" x="220.5" y="-126.54" font-family="Times,serif" font-size="14.00">Meta</text>
<polygon fill="none" stroke="black" points="273,-119.74 273,-140.74 364,-140.74 364,-119.74 273,-119.74"/>
<text text-anchor="start" x="300" y="-126.54" font-family="Times,serif" font-size="14.00">meta</text>
<polygon fill="none" stroke="black" points="140,-98.74 140,-119.74 364,-119.74 364,-98.74 140,-98.74"/>
<text text-anchor="start" x="184" y="-105.54" font-family="Times,serif" font-size="14.00">repeat count times</text>
<polygon fill="none" stroke="black" points="140,-77.74 140,-98.74 171,-98.74 171,-77.74 140,-77.74"/>
<text text-anchor="start" x="148.5" y="-84.54" font-family="Times,serif" font-size="14.00">...</text>
<polygon fill="none" stroke="black" points="171,-77.74 171,-98.74 205,-98.74 205,-77.74 171,-77.74"/>
<text text-anchor="start" x="183" y="-84.54" font-family="Times,serif" font-size="14.00">1</text>
<polygon fill="none" stroke="black" points="205,-77.74 205,-98.74 273,-98.74 273,-77.74 205,-77.74"/>
<polygon fill="none" stroke="black" points="273,-77.74 273,-98.74 364,-98.74 364,-77.74 273,-77.74"/>
<text text-anchor="start" x="276" y="-84.54" font-family="Times,serif" font-size="14.00">something2</text>
<polygon fill="none" stroke="black" points="140,-56.74 140,-77.74 171,-77.74 171,-56.74 140,-56.74"/>
<text text-anchor="start" x="148.5" y="-63.54" font-family="Times,serif" font-size="14.00">...</text>
<polygon fill="none" stroke="black" points="171,-56.74 171,-77.74 205,-77.74 205,-56.74 171,-56.74"/>
<text text-anchor="start" x="181" y="-63.54" font-family="Times,serif" font-size="14.00">...</text>
<polygon fill="none" stroke="black" points="205,-56.74 205,-77.74 273,-77.74 273,-56.74 205,-56.74"/>
<text text-anchor="start" x="208" y="-63.54" font-family="Times,serif" font-size="14.00">ColTable</text>
<polygon fill="none" stroke="black" points="273,-56.74 273,-77.74 364,-77.74 364,-56.74 273,-56.74"/>
<text text-anchor="start" x="296.5" y="-63.54" font-family="Times,serif" font-size="14.00">tables</text>
<polygon fill="none" stroke="black" points="140,-35.74 140,-56.74 364,-56.74 364,-35.74 140,-35.74"/>
<text text-anchor="start" x="184" y="-42.54" font-family="Times,serif" font-size="14.00">repeat count times</text>
</g>
<!-- nt_mdt_pal__seq&#45;&gt;nt_mdt_pal__seq -->
<g id="edge2" class="edge">
<title>nt_mdt_pal__seq:count_type&#45;&gt;nt_mdt_pal__seq:meta__repeat</title>
<path fill="none" stroke="#404040" d="M272.87,-155.09C170.41,-160.07 0,-156.22 0,-130.24 0,-111.68 62.25,-104.41 129.92,-103.6"/>
<polygon fill="#404040" stroke="#404040" points="129.96,-107.1 139.93,-103.53 129.91,-100.1 129.96,-107.1"/>
</g>
<!-- nt_mdt_pal__seq&#45;&gt;nt_mdt_pal__seq -->
<g id="edge4" class="edge">
<title>nt_mdt_pal__seq:count_type&#45;&gt;nt_mdt_pal__seq:tables__repeat</title>
<path fill="none" stroke="#404040" d="M272.87,-154.98C170.41,-159.38 0,-151.54 0,-98.74 0,-61 62.25,-46.23 129.92,-42.49"/>
<polygon fill="#404040" stroke="#404040" points="130.11,-45.98 139.93,-42.01 129.78,-38.99 130.11,-45.98"/>
</g>
<!-- meta__seq -->
<g id="node2" class="node">
<title>meta__seq</title>
<polygon fill="#e0ffe0" stroke="transparent" points="416.5,-229.74 416.5,-250.74 447.5,-250.74 447.5,-229.74 416.5,-229.74"/>
<polygon fill="none" stroke="black" points="416.5,-229.74 416.5,-250.74 447.5,-250.74 447.5,-229.74 416.5,-229.74"/>
<text text-anchor="start" x="419.5" y="-236.54" font-family="Times,serif" font-size="14.00">pos</text>
<polygon fill="#e0ffe0" stroke="transparent" points="447.5,-229.74 447.5,-250.74 481.5,-250.74 481.5,-229.74 447.5,-229.74"/>
<polygon fill="none" stroke="black" points="447.5,-229.74 447.5,-250.74 481.5,-250.74 481.5,-229.74 447.5,-229.74"/>
<text text-anchor="start" x="450.5" y="-236.54" font-family="Times,serif" font-size="14.00">size</text>
<polygon fill="#e0ffe0" stroke="transparent" points="481.5,-229.74 481.5,-250.74 523.5,-250.74 523.5,-229.74 481.5,-229.74"/>
<polygon fill="none" stroke="black" points="481.5,-229.74 481.5,-250.74 523.5,-250.74 523.5,-229.74 481.5,-229.74"/>
<text text-anchor="start" x="486.5" y="-236.54" font-family="Times,serif" font-size="14.00">type</text>
<polygon fill="#e0ffe0" stroke="transparent" points="523.5,-229.74 523.5,-250.74 619.5,-250.74 619.5,-229.74 523.5,-229.74"/>
<polygon fill="none" stroke="black" points="523.5,-229.74 523.5,-250.74 619.5,-250.74 619.5,-229.74 523.5,-229.74"/>
<text text-anchor="start" x="564.5" y="-236.54" font-family="Times,serif" font-size="14.00">id</text>
<polygon fill="none" stroke="black" points="416.5,-208.74 416.5,-229.74 447.5,-229.74 447.5,-208.74 416.5,-208.74"/>
<text text-anchor="start" x="427" y="-215.54" font-family="Times,serif" font-size="14.00">0</text>
<polygon fill="none" stroke="black" points="447.5,-208.74 447.5,-229.74 481.5,-229.74 481.5,-208.74 447.5,-208.74"/>
<text text-anchor="start" x="459.5" y="-215.54" font-family="Times,serif" font-size="14.00">3</text>
<polygon fill="none" stroke="black" points="481.5,-208.74 481.5,-229.74 523.5,-229.74 523.5,-208.74 481.5,-208.74"/>
<polygon fill="none" stroke="black" points="523.5,-208.74 523.5,-229.74 619.5,-229.74 619.5,-208.74 523.5,-208.74"/>
<text text-anchor="start" x="544.5" y="-215.54" font-family="Times,serif" font-size="14.00">unkn00</text>
<polygon fill="none" stroke="black" points="416.5,-187.74 416.5,-208.74 447.5,-208.74 447.5,-187.74 416.5,-187.74"/>
<text text-anchor="start" x="427" y="-194.54" font-family="Times,serif" font-size="14.00">3</text>
<polygon fill="none" stroke="black" points="447.5,-187.74 447.5,-208.74 481.5,-208.74 481.5,-187.74 447.5,-187.74"/>
<text text-anchor="start" x="459.5" y="-194.54" font-family="Times,serif" font-size="14.00">2</text>
<polygon fill="none" stroke="black" points="481.5,-187.74 481.5,-208.74 523.5,-208.74 523.5,-187.74 481.5,-187.74"/>
<polygon fill="none" stroke="black" points="523.5,-187.74 523.5,-208.74 619.5,-208.74 619.5,-187.74 523.5,-187.74"/>
<text text-anchor="start" x="544.5" y="-194.54" font-family="Times,serif" font-size="14.00">unkn01</text>
<polygon fill="none" stroke="black" points="416.5,-166.74 416.5,-187.74 447.5,-187.74 447.5,-166.74 416.5,-166.74"/>
<text text-anchor="start" x="427" y="-173.54" font-family="Times,serif" font-size="14.00">5</text>
<polygon fill="none" stroke="black" points="447.5,-166.74 447.5,-187.74 481.5,-187.74 481.5,-166.74 447.5,-166.74"/>
<text text-anchor="start" x="459.5" y="-173.54" font-family="Times,serif" font-size="14.00">1</text>
<polygon fill="none" stroke="black" points="481.5,-166.74 481.5,-187.74 523.5,-187.74 523.5,-166.74 481.5,-166.74"/>
<polygon fill="none" stroke="black" points="523.5,-166.74 523.5,-187.74 619.5,-187.74 619.5,-166.74 523.5,-166.74"/>
<text text-anchor="start" x="544.5" y="-173.54" font-family="Times,serif" font-size="14.00">unkn02</text>
<polygon fill="none" stroke="black" points="416.5,-145.74 416.5,-166.74 447.5,-166.74 447.5,-145.74 416.5,-145.74"/>
<text text-anchor="start" x="427" y="-152.54" font-family="Times,serif" font-size="14.00">6</text>
<polygon fill="none" stroke="black" points="447.5,-145.74 447.5,-166.74 481.5,-166.74 481.5,-145.74 447.5,-145.74"/>
<text text-anchor="start" x="459.5" y="-152.54" font-family="Times,serif" font-size="14.00">1</text>
<polygon fill="none" stroke="black" points="481.5,-145.74 481.5,-166.74 523.5,-166.74 523.5,-145.74 481.5,-145.74"/>
<polygon fill="none" stroke="black" points="523.5,-145.74 523.5,-166.74 619.5,-166.74 619.5,-145.74 523.5,-145.74"/>
<text text-anchor="start" x="544.5" y="-152.54" font-family="Times,serif" font-size="14.00">unkn03</text>
<polygon fill="none" stroke="black" points="416.5,-124.74 416.5,-145.74 447.5,-145.74 447.5,-124.74 416.5,-124.74"/>
<text text-anchor="start" x="427" y="-131.54" font-family="Times,serif" font-size="14.00">7</text>
<polygon fill="none" stroke="black" points="447.5,-124.74 447.5,-145.74 481.5,-145.74 481.5,-124.74 447.5,-124.74"/>
<text text-anchor="start" x="459.5" y="-131.54" font-family="Times,serif" font-size="14.00">2</text>
<polygon fill="none" stroke="black" points="481.5,-124.74 481.5,-145.74 523.5,-145.74 523.5,-124.74 481.5,-124.74"/>
<text text-anchor="start" x="487" y="-131.54" font-family="Times,serif" font-size="14.00">u2le</text>
<polygon fill="none" stroke="black" points="523.5,-124.74 523.5,-145.74 619.5,-145.74 619.5,-124.74 523.5,-124.74"/>
<text text-anchor="start" x="526.5" y="-131.54" font-family="Times,serif" font-size="14.00">colors_count</text>
<polygon fill="none" stroke="black" points="416.5,-103.74 416.5,-124.74 447.5,-124.74 447.5,-103.74 416.5,-103.74"/>
<text text-anchor="start" x="427" y="-110.54" font-family="Times,serif" font-size="14.00">9</text>
<polygon fill="none" stroke="black" points="447.5,-103.74 447.5,-124.74 481.5,-124.74 481.5,-103.74 447.5,-103.74"/>
<text text-anchor="start" x="459.5" y="-110.54" font-family="Times,serif" font-size="14.00">2</text>
<polygon fill="none" stroke="black" points="481.5,-103.74 481.5,-124.74 523.5,-124.74 523.5,-103.74 481.5,-103.74"/>
<polygon fill="none" stroke="black" points="523.5,-103.74 523.5,-124.74 619.5,-124.74 619.5,-103.74 523.5,-103.74"/>
<text text-anchor="start" x="544.5" y="-110.54" font-family="Times,serif" font-size="14.00">unkn10</text>
<polygon fill="none" stroke="black" points="416.5,-82.74 416.5,-103.74 447.5,-103.74 447.5,-82.74 416.5,-82.74"/>
<text text-anchor="start" x="422.5" y="-89.54" font-family="Times,serif" font-size="14.00">11</text>
<polygon fill="none" stroke="black" points="447.5,-82.74 447.5,-103.74 481.5,-103.74 481.5,-82.74 447.5,-82.74"/>
<text text-anchor="start" x="459.5" y="-89.54" font-family="Times,serif" font-size="14.00">1</text>
<polygon fill="none" stroke="black" points="481.5,-82.74 481.5,-103.74 523.5,-103.74 523.5,-82.74 481.5,-82.74"/>
<polygon fill="none" stroke="black" points="523.5,-82.74 523.5,-103.74 619.5,-103.74 619.5,-82.74 523.5,-82.74"/>
<text text-anchor="start" x="544.5" y="-89.54" font-family="Times,serif" font-size="14.00">unkn11</text>
<polygon fill="none" stroke="black" points="416.5,-61.74 416.5,-82.74 447.5,-82.74 447.5,-61.74 416.5,-61.74"/>
<text text-anchor="start" x="422.5" y="-68.54" font-family="Times,serif" font-size="14.00">12</text>
<polygon fill="none" stroke="black" points="447.5,-61.74 447.5,-82.74 481.5,-82.74 481.5,-61.74 447.5,-61.74"/>
<text text-anchor="start" x="459.5" y="-68.54" font-family="Times,serif" font-size="14.00">2</text>
<polygon fill="none" stroke="black" points="481.5,-61.74 481.5,-82.74 523.5,-82.74 523.5,-61.74 481.5,-61.74"/>
<polygon fill="none" stroke="black" points="523.5,-61.74 523.5,-82.74 619.5,-82.74 619.5,-61.74 523.5,-61.74"/>
<text text-anchor="start" x="544.5" y="-68.54" font-family="Times,serif" font-size="14.00">unkn12</text>
<polygon fill="none" stroke="black" points="416.5,-40.74 416.5,-61.74 447.5,-61.74 447.5,-40.74 416.5,-40.74"/>
<text text-anchor="start" x="422.5" y="-47.54" font-family="Times,serif" font-size="14.00">14</text>
<polygon fill="none" stroke="black" points="447.5,-40.74 447.5,-61.74 481.5,-61.74 481.5,-40.74 447.5,-40.74"/>
<text text-anchor="start" x="459.5" y="-47.54" font-family="Times,serif" font-size="14.00">2</text>
<polygon fill="none" stroke="black" points="481.5,-40.74 481.5,-61.74 523.5,-61.74 523.5,-40.74 481.5,-40.74"/>
<text text-anchor="start" x="484.5" y="-47.54" font-family="Times,serif" font-size="14.00">u2be</text>
<polygon fill="none" stroke="black" points="523.5,-40.74 523.5,-61.74 619.5,-61.74 619.5,-40.74 523.5,-40.74"/>
<text text-anchor="start" x="534.5" y="-47.54" font-family="Times,serif" font-size="14.00">name_size</text>
</g>
<!-- nt_mdt_pal__seq&#45;&gt;meta__seq -->
<g id="edge1" class="edge">
<title>nt_mdt_pal__seq:meta_type&#45;&gt;meta__seq</title>
<path fill="none" stroke="black" stroke-width="2" d="M365,-130.74C375.62,-130.74 386.65,-131.11 397.68,-131.74"/>
<polygon fill="black" stroke="black" stroke-width="2" points="397.61,-135.24 407.81,-132.38 398.05,-128.25 397.61,-135.24"/>
</g>
<!-- col_table__seq -->
<g id="node4" class="node">
<title>col_table__seq</title>
<polygon fill="#e0ffe0" stroke="transparent" points="671,-165.74 671,-186.74 702,-186.74 702,-165.74 671,-165.74"/>
<polygon fill="none" stroke="black" points="671,-165.74 671,-186.74 702,-186.74 702,-165.74 671,-165.74"/>
<text text-anchor="start" x="674" y="-172.54" font-family="Times,serif" font-size="14.00">pos</text>
<polygon fill="#e0ffe0" stroke="transparent" points="702,-165.74 702,-186.74 913,-186.74 913,-165.74 702,-165.74"/>
<polygon fill="none" stroke="black" points="702,-165.74 702,-186.74 913,-186.74 913,-165.74 702,-165.74"/>
<text text-anchor="start" x="793.5" y="-172.54" font-family="Times,serif" font-size="14.00">size</text>
<polygon fill="#e0ffe0" stroke="transparent" points="913,-165.74 913,-186.74 1022,-186.74 1022,-165.74 913,-165.74"/>
<polygon fill="none" stroke="black" points="913,-165.74 913,-186.74 1022,-186.74 1022,-165.74 913,-165.74"/>
<text text-anchor="start" x="951.5" y="-172.54" font-family="Times,serif" font-size="14.00">type</text>
<polygon fill="#e0ffe0" stroke="transparent" points="1022,-165.74 1022,-186.74 1073,-186.74 1073,-165.74 1022,-165.74"/>
<polygon fill="none" stroke="black" points="1022,-165.74 1022,-186.74 1073,-186.74 1073,-165.74 1022,-165.74"/>
<text text-anchor="start" x="1040.5" y="-172.54" font-family="Times,serif" font-size="14.00">id</text>
<polygon fill="none" stroke="black" points="671,-144.74 671,-165.74 702,-165.74 702,-144.74 671,-144.74"/>
<text text-anchor="start" x="681.5" y="-151.54" font-family="Times,serif" font-size="14.00">0</text>
<polygon fill="none" stroke="black" points="702,-144.74 702,-165.74 913,-165.74 913,-144.74 702,-144.74"/>
<text text-anchor="start" x="802.5" y="-151.54" font-family="Times,serif" font-size="14.00">1</text>
<polygon fill="none" stroke="black" points="913,-144.74 913,-165.74 1022,-165.74 1022,-144.74 913,-144.74"/>
<text text-anchor="start" x="958" y="-151.54" font-family="Times,serif" font-size="14.00">u1</text>
<polygon fill="none" stroke="black" points="1022,-144.74 1022,-165.74 1073,-165.74 1073,-144.74 1022,-144.74"/>
<text text-anchor="start" x="1029" y="-151.54" font-family="Times,serif" font-size="14.00">size1</text>
<polygon fill="none" stroke="black" points="671,-123.74 671,-144.74 702,-144.74 702,-123.74 671,-123.74"/>
<text text-anchor="start" x="681.5" y="-130.54" font-family="Times,serif" font-size="14.00">1</text>
<polygon fill="none" stroke="black" points="702,-123.74 702,-144.74 913,-144.74 913,-123.74 702,-123.74"/>
<text text-anchor="start" x="802.5" y="-130.54" font-family="Times,serif" font-size="14.00">1</text>
<polygon fill="none" stroke="black" points="913,-123.74 913,-144.74 1022,-144.74 1022,-123.74 913,-123.74"/>
<text text-anchor="start" x="958" y="-130.54" font-family="Times,serif" font-size="14.00">u1</text>
<polygon fill="none" stroke="black" points="1022,-123.74 1022,-144.74 1073,-144.74 1073,-123.74 1022,-123.74"/>
<text text-anchor="start" x="1029.5" y="-130.54" font-family="Times,serif" font-size="14.00">unkn</text>
<polygon fill="none" stroke="black" points="671,-102.74 671,-123.74 702,-123.74 702,-102.74 671,-102.74"/>
<text text-anchor="start" x="681.5" y="-109.54" font-family="Times,serif" font-size="14.00">2</text>
<polygon fill="none" stroke="black" points="702,-102.74 702,-123.74 913,-123.74 913,-102.74 702,-102.74"/>
<text text-anchor="start" x="705" y="-109.54" font-family="Times,serif" font-size="14.00">_root.meta[index].name_size</text>
<polygon fill="none" stroke="black" points="913,-102.74 913,-123.74 1022,-123.74 1022,-102.74 913,-102.74"/>
<text text-anchor="start" x="916" y="-109.54" font-family="Times,serif" font-size="14.00">str(UTF&#45;16LE)</text>
<polygon fill="none" stroke="black" points="1022,-102.74 1022,-123.74 1073,-123.74 1073,-102.74 1022,-102.74"/>
<text text-anchor="start" x="1032.5" y="-109.54" font-family="Times,serif" font-size="14.00">title</text>
<polygon fill="none" stroke="black" points="671,-81.74 671,-102.74 702,-102.74 702,-81.74 671,-81.74"/>
<text text-anchor="start" x="679.5" y="-88.54" font-family="Times,serif" font-size="14.00">...</text>
<polygon fill="none" stroke="black" points="702,-81.74 702,-102.74 913,-102.74 913,-81.74 702,-81.74"/>
<text text-anchor="start" x="802.5" y="-88.54" font-family="Times,serif" font-size="14.00">2</text>
<polygon fill="none" stroke="black" points="913,-81.74 913,-102.74 1022,-102.74 1022,-81.74 913,-81.74"/>
<text text-anchor="start" x="949.5" y="-88.54" font-family="Times,serif" font-size="14.00">u2be</text>
<polygon fill="none" stroke="black" points="1022,-81.74 1022,-102.74 1073,-102.74 1073,-81.74 1022,-81.74"/>
<text text-anchor="start" x="1025" y="-88.54" font-family="Times,serif" font-size="14.00">unkn1</text>
<polygon fill="none" stroke="black" points="671,-60.74 671,-81.74 702,-81.74 702,-60.74 671,-60.74"/>
<text text-anchor="start" x="679.5" y="-67.54" font-family="Times,serif" font-size="14.00">...</text>
<polygon fill="none" stroke="black" points="702,-60.74 702,-81.74 913,-81.74 913,-60.74 702,-60.74"/>
<text text-anchor="start" x="802.5" y="-67.54" font-family="Times,serif" font-size="14.00">4</text>
<polygon fill="none" stroke="black" points="913,-60.74 913,-81.74 1022,-81.74 1022,-60.74 913,-60.74"/>
<text text-anchor="start" x="948" y="-67.54" font-family="Times,serif" font-size="14.00">Color</text>
<polygon fill="none" stroke="black" points="1022,-60.74 1022,-81.74 1073,-81.74 1073,-60.74 1022,-60.74"/>
<text text-anchor="start" x="1026" y="-67.54" font-family="Times,serif" font-size="14.00">colors</text>
<polygon fill="none" stroke="black" points="671,-39.74 671,-60.74 1073,-60.74 1073,-39.74 671,-39.74"/>
<text text-anchor="start" x="697.5" y="-46.54" font-family="Times,serif" font-size="14.00">repeat (_root.meta[index].colors_count &#45; 1) times</text>
</g>
<!-- nt_mdt_pal__seq&#45;&gt;col_table__seq -->
<g id="edge3" class="edge">
<title>nt_mdt_pal__seq:tables_type&#45;&gt;col_table__seq</title>
<path fill="none" stroke="black" stroke-width="2" d="M365,-66.74C389.3,-66.74 378,-35.05 400,-24.74 494.58,19.56 532.25,-6.01 635,-24.74 647.7,-27.06 660.61,-30.02 673.5,-33.45"/>
<polygon fill="black" stroke="black" stroke-width="2" points="672.79,-36.88 683.36,-36.16 674.65,-30.13 672.79,-36.88"/>
</g>
<!-- meta__seq&#45;&gt;col_table__seq -->
<g id="edge5" class="edge">
<title>meta__seq:name_size_type&#45;&gt;col_table__seq:title_size</title>
<path fill="none" stroke="#404040" d="M620.5,-50.74C679.63,-50.74 744.14,-79.43 779.36,-97.77"/>
<polygon fill="#404040" stroke="#404040" points="778.02,-101.03 788.49,-102.64 781.31,-94.85 778.02,-101.03"/>
</g>
<!-- meta__seq&#45;&gt;col_table__seq -->
<g id="edge7" class="edge">
<title>meta__seq:colors_count_type&#45;&gt;col_table__seq:colors__repeat</title>
<path fill="none" stroke="#404040" d="M620.5,-134.74C660.29,-134.74 632.44,-64.33 660.08,-51.68"/>
<polygon fill="#404040" stroke="#404040" points="660.85,-55.09 670,-49.74 659.51,-48.22 660.85,-55.09"/>
</g>
<!-- color__seq -->
<g id="node3" class="node">
<title>color__seq</title>
<polygon fill="#e0ffe0" stroke="transparent" points="1125.5,-112.74 1125.5,-133.74 1156.5,-133.74 1156.5,-112.74 1125.5,-112.74"/>
<polygon fill="none" stroke="black" points="1125.5,-112.74 1125.5,-133.74 1156.5,-133.74 1156.5,-112.74 1125.5,-112.74"/>
<text text-anchor="start" x="1128.5" y="-119.54" font-family="Times,serif" font-size="14.00">pos</text>
<polygon fill="#e0ffe0" stroke="transparent" points="1156.5,-112.74 1156.5,-133.74 1190.5,-133.74 1190.5,-112.74 1156.5,-112.74"/>
<polygon fill="none" stroke="black" points="1156.5,-112.74 1156.5,-133.74 1190.5,-133.74 1190.5,-112.74 1156.5,-112.74"/>
<text text-anchor="start" x="1159.5" y="-119.54" font-family="Times,serif" font-size="14.00">size</text>
<polygon fill="#e0ffe0" stroke="transparent" points="1190.5,-112.74 1190.5,-133.74 1228.5,-133.74 1228.5,-112.74 1190.5,-112.74"/>
<polygon fill="none" stroke="black" points="1190.5,-112.74 1190.5,-133.74 1228.5,-133.74 1228.5,-112.74 1190.5,-112.74"/>
<text text-anchor="start" x="1193.5" y="-119.54" font-family="Times,serif" font-size="14.00">type</text>
<polygon fill="#e0ffe0" stroke="transparent" points="1228.5,-112.74 1228.5,-133.74 1276.5,-133.74 1276.5,-112.74 1228.5,-112.74"/>
<polygon fill="none" stroke="black" points="1228.5,-112.74 1228.5,-133.74 1276.5,-133.74 1276.5,-112.74 1228.5,-112.74"/>
<text text-anchor="start" x="1245.5" y="-119.54" font-family="Times,serif" font-size="14.00">id</text>
<polygon fill="none" stroke="black" points="1125.5,-91.74 1125.5,-112.74 1156.5,-112.74 1156.5,-91.74 1125.5,-91.74"/>
<text text-anchor="start" x="1136" y="-98.54" font-family="Times,serif" font-size="14.00">0</text>
<polygon fill="none" stroke="black" points="1156.5,-91.74 1156.5,-112.74 1190.5,-112.74 1190.5,-91.74 1156.5,-91.74"/>
<text text-anchor="start" x="1168.5" y="-98.54" font-family="Times,serif" font-size="14.00">1</text>
<polygon fill="none" stroke="black" points="1190.5,-91.74 1190.5,-112.74 1228.5,-112.74 1228.5,-91.74 1190.5,-91.74"/>
<text text-anchor="start" x="1200" y="-98.54" font-family="Times,serif" font-size="14.00">u1</text>
<polygon fill="none" stroke="black" points="1228.5,-91.74 1228.5,-112.74 1276.5,-112.74 1276.5,-91.74 1228.5,-91.74"/>
<text text-anchor="start" x="1240" y="-98.54" font-family="Times,serif" font-size="14.00">red</text>
<polygon fill="none" stroke="black" points="1125.5,-70.74 1125.5,-91.74 1156.5,-91.74 1156.5,-70.74 1125.5,-70.74"/>
<text text-anchor="start" x="1136" y="-77.54" font-family="Times,serif" font-size="14.00">1</text>
<polygon fill="none" stroke="black" points="1156.5,-70.74 1156.5,-91.74 1190.5,-91.74 1190.5,-70.74 1156.5,-70.74"/>
<text text-anchor="start" x="1168.5" y="-77.54" font-family="Times,serif" font-size="14.00">1</text>
<polygon fill="none" stroke="black" points="1190.5,-70.74 1190.5,-91.74 1228.5,-91.74 1228.5,-70.74 1190.5,-70.74"/>
<text text-anchor="start" x="1200" y="-77.54" font-family="Times,serif" font-size="14.00">u1</text>
<polygon fill="none" stroke="black" points="1228.5,-70.74 1228.5,-91.74 1276.5,-91.74 1276.5,-70.74 1228.5,-70.74"/>
<text text-anchor="start" x="1234.5" y="-77.54" font-family="Times,serif" font-size="14.00">unkn</text>
<polygon fill="none" stroke="black" points="1125.5,-49.74 1125.5,-70.74 1156.5,-70.74 1156.5,-49.74 1125.5,-49.74"/>
<text text-anchor="start" x="1136" y="-56.54" font-family="Times,serif" font-size="14.00">2</text>
<polygon fill="none" stroke="black" points="1156.5,-49.74 1156.5,-70.74 1190.5,-70.74 1190.5,-49.74 1156.5,-49.74"/>
<text text-anchor="start" x="1168.5" y="-56.54" font-family="Times,serif" font-size="14.00">1</text>
<polygon fill="none" stroke="black" points="1190.5,-49.74 1190.5,-70.74 1228.5,-70.74 1228.5,-49.74 1190.5,-49.74"/>
<text text-anchor="start" x="1200" y="-56.54" font-family="Times,serif" font-size="14.00">u1</text>
<polygon fill="none" stroke="black" points="1228.5,-49.74 1228.5,-70.74 1276.5,-70.74 1276.5,-49.74 1228.5,-49.74"/>
<text text-anchor="start" x="1237" y="-56.54" font-family="Times,serif" font-size="14.00">blue</text>
<polygon fill="none" stroke="black" points="1125.5,-28.74 1125.5,-49.74 1156.5,-49.74 1156.5,-28.74 1125.5,-28.74"/>
<text text-anchor="start" x="1136" y="-35.54" font-family="Times,serif" font-size="14.00">3</text>
<polygon fill="none" stroke="black" points="1156.5,-28.74 1156.5,-49.74 1190.5,-49.74 1190.5,-28.74 1156.5,-28.74"/>
<text text-anchor="start" x="1168.5" y="-35.54" font-family="Times,serif" font-size="14.00">1</text>
<polygon fill="none" stroke="black" points="1190.5,-28.74 1190.5,-49.74 1228.5,-49.74 1228.5,-28.74 1190.5,-28.74"/>
<text text-anchor="start" x="1200" y="-35.54" font-family="Times,serif" font-size="14.00">u1</text>
<polygon fill="none" stroke="black" points="1228.5,-28.74 1228.5,-49.74 1276.5,-49.74 1276.5,-28.74 1228.5,-28.74"/>
<text text-anchor="start" x="1231.5" y="-35.54" font-family="Times,serif" font-size="14.00">green</text>
</g>
<!-- col_table__seq&#45;&gt;color__seq -->
<g id="edge6" class="edge">
<title>col_table__seq:colors_type&#45;&gt;color__seq</title>
<path fill="none" stroke="black" stroke-width="2" d="M1074,-70.74C1084.63,-70.74 1095.75,-71.14 1106.79,-71.78"/>
<polygon fill="black" stroke="black" stroke-width="2" points="1106.69,-75.28 1116.89,-72.44 1107.14,-68.3 1106.69,-75.28"/>
</g>
</g>
</svg>
