<?xml version="1.0" encoding="UTF-8" standalone="no"?>
<!DOCTYPE svg PUBLIC "-//W3C//DTD SVG 1.1//EN"
 "http://www.w3.org/Graphics/SVG/1.1/DTD/svg11.dtd">
<!-- Generated by graphviz version 2.38.0 (20140413.2041)
 -->
<!-- Title: %3 Pages: 1 -->
<svg width="1591pt" height="332pt"
 viewBox="0.00 0.00 1591.00 332.00" xmlns="http://www.w3.org/2000/svg" xmlns:xlink="http://www.w3.org/1999/xlink">
<g id="graph0" class="graph" transform="scale(1 1) rotate(0) translate(4 328)">
<title>%3</title>
<polygon fill="white" stroke="none" points="-4,4 -4,-328 1587,-328 1587,4 -4,4"/>
<g id="clust1" class="cluster"><title>cluster__nt_mdt_pal</title>
<polygon fill="none" stroke="black" stroke-dasharray="1,5" points="205,-8 205,-316 1575,-316 1575,-8 205,-8"/>
<text text-anchor="middle" x="890" y="-300.8" font-family="Times,serif" font-size="14.00">NtMdtPal</text>
</g>
<g id="clust2" class="cluster"><title>cluster__meta</title>
<polygon fill="none" stroke="black" stroke-dasharray="1,5" points="845,-28 845,-285 1039,-285 1039,-28 845,-28"/>
<text text-anchor="middle" x="942" y="-269.8" font-family="Times,serif" font-size="14.00">NtMdtPal::Meta</text>
</g>
<g id="clust3" class="cluster"><title>cluster__color</title>
<polygon fill="none" stroke="black" stroke-dasharray="1,5" points="1415,-16 1415,-169 1567,-169 1567,-16 1415,-16"/>
<text text-anchor="middle" x="1491" y="-153.8" font-family="Times,serif" font-size="14.00">NtMdtPal::Color</text>
</g>
<g id="clust4" class="cluster"><title>cluster__col_table</title>
<polygon fill="none" stroke="black" stroke-dasharray="1,5" points="1059,-27 1059,-222 1395,-222 1395,-27 1059,-27"/>
<text text-anchor="middle" x="1227" y="-206.8" font-family="Times,serif" font-size="14.00">NtMdtPal::ColTable</text>
</g>
<!-- nt_mdt_pal__seq -->
<g id="node1" class="node"><title>nt_mdt_pal__seq</title>
<polygon fill="#e0ffe0" stroke="none" points="221,-182 221,-203 246,-203 246,-182 221,-182"/>
<polygon fill="none" stroke="black" points="221,-182 221,-203 246,-203 246,-182 221,-182"/>
<text text-anchor="start" x="224" y="-188.8" font-family="Times,serif" font-size="14.00">pos</text>
<polygon fill="#e0ffe0" stroke="none" points="246,-182 246,-203 274,-203 274,-182 246,-182"/>
<polygon fill="none" stroke="black" points="246,-182 246,-203 274,-203 274,-182 246,-182"/>
<text text-anchor="start" x="249" y="-188.8" font-family="Times,serif" font-size="14.00">size</text>
<polygon fill="#e0ffe0" stroke="none" points="274,-182 274,-203 739,-203 739,-182 274,-182"/>
<polygon fill="none" stroke="black" points="274,-182 274,-203 739,-203 739,-182 274,-182"/>
<text text-anchor="start" x="494.5" y="-188.8" font-family="Times,serif" font-size="14.00">type</text>
<polygon fill="#e0ffe0" stroke="none" points="739,-182 739,-203 809,-203 809,-182 739,-182"/>
<polygon fill="none" stroke="black" points="739,-182 739,-203 809,-203 809,-182 739,-182"/>
<text text-anchor="start" x="768.5" y="-188.8" font-family="Times,serif" font-size="14.00">id</text>
<polygon fill="none" stroke="black" points="221,-161 221,-182 246,-182 246,-161 221,-161"/>
<text text-anchor="start" x="230" y="-167.8" font-family="Times,serif" font-size="14.00">0</text>
<polygon fill="none" stroke="black" points="246,-161 246,-182 274,-182 274,-161 246,-161"/>
<text text-anchor="start" x="253" y="-167.8" font-family="Times,serif" font-size="14.00">26</text>
<polygon fill="none" stroke="black" points="274,-161 274,-182 739,-182 739,-161 274,-161"/>
<text text-anchor="start" x="277" y="-167.8" font-family="Times,serif" font-size="14.00">4E 54 2D 4D 44 54 20 50 61 6C 65 74 74 65 20 46 69 6C 65 20 20 31 2E 30 30 21</text>
<polygon fill="none" stroke="black" points="739,-161 739,-182 809,-182 809,-161 739,-161"/>
<text text-anchor="start" x="749" y="-167.8" font-family="Times,serif" font-size="14.00">signature</text>
<polygon fill="none" stroke="black" points="221,-140 221,-161 246,-161 246,-140 221,-140"/>
<text text-anchor="start" x="226.5" y="-146.8" font-family="Times,serif" font-size="14.00">26</text>
<polygon fill="none" stroke="black" points="246,-140 246,-161 274,-161 274,-140 246,-140"/>
<text text-anchor="start" x="256.5" y="-146.8" font-family="Times,serif" font-size="14.00">4</text>
<polygon fill="none" stroke="black" points="274,-140 274,-161 739,-161 739,-140 274,-140"/>
<text text-anchor="start" x="493" y="-146.8" font-family="Times,serif" font-size="14.00">u4be</text>
<polygon fill="none" stroke="black" points="739,-140 739,-161 809,-161 809,-140 739,-140"/>
<text text-anchor="start" x="758.5" y="-146.8" font-family="Times,serif" font-size="14.00">count</text>
<polygon fill="none" stroke="black" points="221,-119 221,-140 246,-140 246,-119 221,-119"/>
<text text-anchor="start" x="226.5" y="-125.8" font-family="Times,serif" font-size="14.00">30</text>
<polygon fill="none" stroke="black" points="246,-119 246,-140 274,-140 274,-119 246,-119"/>
<text text-anchor="start" x="253" y="-125.8" font-family="Times,serif" font-size="14.00">16</text>
<polygon fill="none" stroke="black" points="274,-119 274,-140 739,-140 739,-119 274,-119"/>
<text text-anchor="start" x="492" y="-125.8" font-family="Times,serif" font-size="14.00">Meta</text>
<polygon fill="none" stroke="black" points="739,-119 739,-140 809,-140 809,-119 739,-119"/>
<text text-anchor="start" x="760" y="-125.8" font-family="Times,serif" font-size="14.00">meta</text>
<polygon fill="none" stroke="black" points="221,-98 221,-119 809,-119 809,-98 221,-98"/>
<text text-anchor="start" x="464.5" y="-104.8" font-family="Times,serif" font-size="14.00">repeat count times</text>
<polygon fill="none" stroke="black" points="221,-77 221,-98 246,-98 246,-77 221,-77"/>
<text text-anchor="start" x="227.5" y="-83.8" font-family="Times,serif" font-size="14.00">...</text>
<polygon fill="none" stroke="black" points="246,-77 246,-98 274,-98 274,-77 246,-77"/>
<text text-anchor="start" x="256.5" y="-83.8" font-family="Times,serif" font-size="14.00">1</text>
<polygon fill="none" stroke="black" points="274,-77 274,-98 739,-98 739,-77 274,-77"/>
<polygon fill="none" stroke="black" points="739,-77 739,-98 809,-98 809,-77 739,-77"/>
<text text-anchor="start" x="742" y="-83.8" font-family="Times,serif" font-size="14.00">something2</text>
<polygon fill="none" stroke="black" points="221,-56 221,-77 246,-77 246,-56 221,-56"/>
<text text-anchor="start" x="227.5" y="-62.8" font-family="Times,serif" font-size="14.00">...</text>
<polygon fill="none" stroke="black" points="246,-56 246,-77 274,-77 274,-56 246,-56"/>
<text text-anchor="start" x="254" y="-62.8" font-family="Times,serif" font-size="14.00">...</text>
<polygon fill="none" stroke="black" points="274,-56 274,-77 739,-77 739,-56 274,-56"/>
<text text-anchor="start" x="481" y="-62.8" font-family="Times,serif" font-size="14.00">ColTable</text>
<polygon fill="none" stroke="black" points="739,-56 739,-77 809,-77 809,-56 739,-56"/>
<text text-anchor="start" x="758" y="-62.8" font-family="Times,serif" font-size="14.00">tables</text>
<polygon fill="none" stroke="black" points="221,-35 221,-56 809,-56 809,-35 221,-35"/>
<text text-anchor="start" x="464.5" y="-41.8" font-family="Times,serif" font-size="14.00">repeat count times</text>
</g>
<!-- nt_mdt_pal__seq&#45;&gt;nt_mdt_pal__seq -->
<g id="edge2" class="edge"><title>nt_mdt_pal__seq:count_type&#45;&gt;nt_mdt_pal__seq:meta__repeat</title>
<path fill="none" stroke="#404040" d="M738.955,-152.508C532.708,-159.892 0,-158.183 0,-129.5 0,-113.423 95.3961,-105.82 210.761,-103.543"/>
<polygon fill="#404040" stroke="#404040" points="210.963,-107.04 220.897,-103.358 210.835,-100.042 210.963,-107.04"/>
</g>
<!-- nt_mdt_pal__seq&#45;&gt;nt_mdt_pal__seq -->
<g id="edge4" class="edge"><title>nt_mdt_pal__seq:count_type&#45;&gt;nt_mdt_pal__seq:tables__repeat</title>
<path fill="none" stroke="#404040" d="M738.955,-152.501C532.708,-159.78 0,-156.307 0,-98 0,-65.3187 95.3961,-49.8643 210.761,-43.8743"/>
<polygon fill="#404040" stroke="#404040" points="211.082,-47.3629 220.897,-43.3745 210.737,-40.3714 211.082,-47.3629"/>
</g>
<!-- meta__seq -->
<g id="node2" class="node"><title>meta__seq</title>
<polygon fill="#e0ffe0" stroke="none" points="861,-229 861,-250 886,-250 886,-229 861,-229"/>
<polygon fill="none" stroke="black" points="861,-229 861,-250 886,-250 886,-229 861,-229"/>
<text text-anchor="start" x="864" y="-235.8" font-family="Times,serif" font-size="14.00">pos</text>
<polygon fill="#e0ffe0" stroke="none" points="886,-229 886,-250 914,-250 914,-229 886,-229"/>
<polygon fill="none" stroke="black" points="886,-229 886,-250 914,-250 914,-229 886,-229"/>
<text text-anchor="start" x="889" y="-235.8" font-family="Times,serif" font-size="14.00">size</text>
<polygon fill="#e0ffe0" stroke="none" points="914,-229 914,-250 947,-250 947,-229 914,-229"/>
<polygon fill="none" stroke="black" points="914,-229 914,-250 947,-250 947,-229 914,-229"/>
<text text-anchor="start" x="918.5" y="-235.8" font-family="Times,serif" font-size="14.00">type</text>
<polygon fill="#e0ffe0" stroke="none" points="947,-229 947,-250 1023,-250 1023,-229 947,-229"/>
<polygon fill="none" stroke="black" points="947,-229 947,-250 1023,-250 1023,-229 947,-229"/>
<text text-anchor="start" x="979.5" y="-235.8" font-family="Times,serif" font-size="14.00">id</text>
<polygon fill="none" stroke="black" points="861,-208 861,-229 886,-229 886,-208 861,-208"/>
<text text-anchor="start" x="870" y="-214.8" font-family="Times,serif" font-size="14.00">0</text>
<polygon fill="none" stroke="black" points="886,-208 886,-229 914,-229 914,-208 886,-208"/>
<text text-anchor="start" x="896.5" y="-214.8" font-family="Times,serif" font-size="14.00">3</text>
<polygon fill="none" stroke="black" points="914,-208 914,-229 947,-229 947,-208 914,-208"/>
<polygon fill="none" stroke="black" points="947,-208 947,-229 1023,-229 1023,-208 947,-208"/>
<text text-anchor="start" x="964.5" y="-214.8" font-family="Times,serif" font-size="14.00">unkn00</text>
<polygon fill="none" stroke="black" points="861,-187 861,-208 886,-208 886,-187 861,-187"/>
<text text-anchor="start" x="870" y="-193.8" font-family="Times,serif" font-size="14.00">3</text>
<polygon fill="none" stroke="black" points="886,-187 886,-208 914,-208 914,-187 886,-187"/>
<text text-anchor="start" x="896.5" y="-193.8" font-family="Times,serif" font-size="14.00">2</text>
<polygon fill="none" stroke="black" points="914,-187 914,-208 947,-208 947,-187 914,-187"/>
<polygon fill="none" stroke="black" points="947,-187 947,-208 1023,-208 1023,-187 947,-187"/>
<text text-anchor="start" x="964.5" y="-193.8" font-family="Times,serif" font-size="14.00">unkn01</text>
<polygon fill="none" stroke="black" points="861,-166 861,-187 886,-187 886,-166 861,-166"/>
<text text-anchor="start" x="870" y="-172.8" font-family="Times,serif" font-size="14.00">5</text>
<polygon fill="none" stroke="black" points="886,-166 886,-187 914,-187 914,-166 886,-166"/>
<text text-anchor="start" x="896.5" y="-172.8" font-family="Times,serif" font-size="14.00">1</text>
<polygon fill="none" stroke="black" points="914,-166 914,-187 947,-187 947,-166 914,-166"/>
<polygon fill="none" stroke="black" points="947,-166 947,-187 1023,-187 1023,-166 947,-166"/>
<text text-anchor="start" x="964.5" y="-172.8" font-family="Times,serif" font-size="14.00">unkn02</text>
<polygon fill="none" stroke="black" points="861,-145 861,-166 886,-166 886,-145 861,-145"/>
<text text-anchor="start" x="870" y="-151.8" font-family="Times,serif" font-size="14.00">6</text>
<polygon fill="none" stroke="black" points="886,-145 886,-166 914,-166 914,-145 886,-145"/>
<text text-anchor="start" x="896.5" y="-151.8" font-family="Times,serif" font-size="14.00">1</text>
<polygon fill="none" stroke="black" points="914,-145 914,-166 947,-166 947,-145 914,-145"/>
<polygon fill="none" stroke="black" points="947,-145 947,-166 1023,-166 1023,-145 947,-145"/>
<text text-anchor="start" x="964.5" y="-151.8" font-family="Times,serif" font-size="14.00">unkn03</text>
<polygon fill="none" stroke="black" points="861,-124 861,-145 886,-145 886,-124 861,-124"/>
<text text-anchor="start" x="870" y="-130.8" font-family="Times,serif" font-size="14.00">7</text>
<polygon fill="none" stroke="black" points="886,-124 886,-145 914,-145 914,-124 886,-124"/>
<text text-anchor="start" x="896.5" y="-130.8" font-family="Times,serif" font-size="14.00">2</text>
<polygon fill="none" stroke="black" points="914,-124 914,-145 947,-145 947,-124 914,-124"/>
<text text-anchor="start" x="918.5" y="-130.8" font-family="Times,serif" font-size="14.00">u2le</text>
<polygon fill="none" stroke="black" points="947,-124 947,-145 1023,-145 1023,-124 947,-124"/>
<text text-anchor="start" x="950" y="-130.8" font-family="Times,serif" font-size="14.00">colors_count</text>
<polygon fill="none" stroke="black" points="861,-103 861,-124 886,-124 886,-103 861,-103"/>
<text text-anchor="start" x="870" y="-109.8" font-family="Times,serif" font-size="14.00">9</text>
<polygon fill="none" stroke="black" points="886,-103 886,-124 914,-124 914,-103 886,-103"/>
<text text-anchor="start" x="896.5" y="-109.8" font-family="Times,serif" font-size="14.00">2</text>
<polygon fill="none" stroke="black" points="914,-103 914,-124 947,-124 947,-103 914,-103"/>
<polygon fill="none" stroke="black" points="947,-103 947,-124 1023,-124 1023,-103 947,-103"/>
<text text-anchor="start" x="964.5" y="-109.8" font-family="Times,serif" font-size="14.00">unkn10</text>
<polygon fill="none" stroke="black" points="861,-82 861,-103 886,-103 886,-82 861,-82"/>
<text text-anchor="start" x="866.5" y="-88.8" font-family="Times,serif" font-size="14.00">11</text>
<polygon fill="none" stroke="black" points="886,-82 886,-103 914,-103 914,-82 886,-82"/>
<text text-anchor="start" x="896.5" y="-88.8" font-family="Times,serif" font-size="14.00">1</text>
<polygon fill="none" stroke="black" points="914,-82 914,-103 947,-103 947,-82 914,-82"/>
<polygon fill="none" stroke="black" points="947,-82 947,-103 1023,-103 1023,-82 947,-82"/>
<text text-anchor="start" x="964.5" y="-88.8" font-family="Times,serif" font-size="14.00">unkn11</text>
<polygon fill="none" stroke="black" points="861,-61 861,-82 886,-82 886,-61 861,-61"/>
<text text-anchor="start" x="866.5" y="-67.8" font-family="Times,serif" font-size="14.00">12</text>
<polygon fill="none" stroke="black" points="886,-61 886,-82 914,-82 914,-61 886,-61"/>
<text text-anchor="start" x="896.5" y="-67.8" font-family="Times,serif" font-size="14.00">2</text>
<polygon fill="none" stroke="black" points="914,-61 914,-82 947,-82 947,-61 914,-61"/>
<polygon fill="none" stroke="black" points="947,-61 947,-82 1023,-82 1023,-61 947,-61"/>
<text text-anchor="start" x="964.5" y="-67.8" font-family="Times,serif" font-size="14.00">unkn12</text>
<polygon fill="none" stroke="black" points="861,-40 861,-61 886,-61 886,-40 861,-40"/>
<text text-anchor="start" x="866.5" y="-46.8" font-family="Times,serif" font-size="14.00">14</text>
<polygon fill="none" stroke="black" points="886,-40 886,-61 914,-61 914,-40 886,-40"/>
<text text-anchor="start" x="896.5" y="-46.8" font-family="Times,serif" font-size="14.00">2</text>
<polygon fill="none" stroke="black" points="914,-40 914,-61 947,-61 947,-40 914,-40"/>
<text text-anchor="start" x="917" y="-46.8" font-family="Times,serif" font-size="14.00">u2be</text>
<polygon fill="none" stroke="black" points="947,-40 947,-61 1023,-61 1023,-40 947,-40"/>
<text text-anchor="start" x="956" y="-46.8" font-family="Times,serif" font-size="14.00">name_size</text>
</g>
<!-- nt_mdt_pal__seq&#45;&gt;meta__seq -->
<g id="edge1" class="edge"><title>nt_mdt_pal__seq:meta_type&#45;&gt;meta__seq</title>
<path fill="none" stroke="black" stroke-width="2" d="M810,-130C820.603,-130 831.659,-130.491 842.655,-131.296"/>
<polygon fill="black" stroke="black" stroke-width="2" points="842.47,-134.792 852.722,-132.117 843.04,-127.815 842.47,-134.792"/>
</g>
<!-- col_table__seq -->
<g id="node4" class="node"><title>col_table__seq</title>
<polygon fill="#e0ffe0" stroke="none" points="1075,-165 1075,-186 1100,-186 1100,-165 1075,-165"/>
<polygon fill="none" stroke="black" points="1075,-165 1075,-186 1100,-186 1100,-165 1075,-165"/>
<text text-anchor="start" x="1078" y="-171.8" font-family="Times,serif" font-size="14.00">pos</text>
<polygon fill="#e0ffe0" stroke="none" points="1100,-165 1100,-186 1266,-186 1266,-165 1100,-165"/>
<polygon fill="none" stroke="black" points="1100,-165 1100,-186 1266,-186 1266,-165 1100,-165"/>
<text text-anchor="start" x="1172" y="-171.8" font-family="Times,serif" font-size="14.00">size</text>
<polygon fill="#e0ffe0" stroke="none" points="1266,-165 1266,-186 1339,-186 1339,-165 1266,-165"/>
<polygon fill="none" stroke="black" points="1266,-165 1266,-186 1339,-186 1339,-165 1266,-165"/>
<text text-anchor="start" x="1290.5" y="-171.8" font-family="Times,serif" font-size="14.00">type</text>
<polygon fill="#e0ffe0" stroke="none" points="1339,-165 1339,-186 1379,-186 1379,-165 1339,-165"/>
<polygon fill="none" stroke="black" points="1339,-165 1339,-186 1379,-186 1379,-165 1339,-165"/>
<text text-anchor="start" x="1353.5" y="-171.8" font-family="Times,serif" font-size="14.00">id</text>
<polygon fill="none" stroke="black" points="1075,-144 1075,-165 1100,-165 1100,-144 1075,-144"/>
<text text-anchor="start" x="1084" y="-150.8" font-family="Times,serif" font-size="14.00">0</text>
<polygon fill="none" stroke="black" points="1100,-144 1100,-165 1266,-165 1266,-144 1100,-144"/>
<text text-anchor="start" x="1179.5" y="-150.8" font-family="Times,serif" font-size="14.00">1</text>
<polygon fill="none" stroke="black" points="1266,-144 1266,-165 1339,-165 1339,-144 1266,-144"/>
<text text-anchor="start" x="1295.5" y="-150.8" font-family="Times,serif" font-size="14.00">u1</text>
<polygon fill="none" stroke="black" points="1339,-144 1339,-165 1379,-165 1379,-144 1339,-144"/>
<text text-anchor="start" x="1345" y="-150.8" font-family="Times,serif" font-size="14.00">size1</text>
<polygon fill="none" stroke="black" points="1075,-123 1075,-144 1100,-144 1100,-123 1075,-123"/>
<text text-anchor="start" x="1084" y="-129.8" font-family="Times,serif" font-size="14.00">1</text>
<polygon fill="none" stroke="black" points="1100,-123 1100,-144 1266,-144 1266,-123 1100,-123"/>
<text text-anchor="start" x="1179.5" y="-129.8" font-family="Times,serif" font-size="14.00">1</text>
<polygon fill="none" stroke="black" points="1266,-123 1266,-144 1339,-144 1339,-123 1266,-123"/>
<text text-anchor="start" x="1295.5" y="-129.8" font-family="Times,serif" font-size="14.00">u1</text>
<polygon fill="none" stroke="black" points="1339,-123 1339,-144 1379,-144 1379,-123 1339,-123"/>
<text text-anchor="start" x="1345" y="-129.8" font-family="Times,serif" font-size="14.00">unkn</text>
<polygon fill="none" stroke="black" points="1075,-102 1075,-123 1100,-123 1100,-102 1075,-102"/>
<text text-anchor="start" x="1084" y="-108.8" font-family="Times,serif" font-size="14.00">2</text>
<polygon fill="none" stroke="black" points="1100,-102 1100,-123 1266,-123 1266,-102 1100,-102"/>
<text text-anchor="start" x="1103" y="-108.8" font-family="Times,serif" font-size="14.00">_root.meta[index].name_size</text>
<polygon fill="none" stroke="black" points="1266,-102 1266,-123 1339,-123 1339,-102 1266,-102"/>
<text text-anchor="start" x="1269" y="-108.8" font-family="Times,serif" font-size="14.00">str(UTF&#45;16)</text>
<polygon fill="none" stroke="black" points="1339,-102 1339,-123 1379,-123 1379,-102 1339,-102"/>
<text text-anchor="start" x="1348" y="-108.8" font-family="Times,serif" font-size="14.00">title</text>
<polygon fill="none" stroke="black" points="1075,-81 1075,-102 1100,-102 1100,-81 1075,-81"/>
<text text-anchor="start" x="1081.5" y="-87.8" font-family="Times,serif" font-size="14.00">...</text>
<polygon fill="none" stroke="black" points="1100,-81 1100,-102 1266,-102 1266,-81 1100,-81"/>
<text text-anchor="start" x="1179.5" y="-87.8" font-family="Times,serif" font-size="14.00">2</text>
<polygon fill="none" stroke="black" points="1266,-81 1266,-102 1339,-102 1339,-81 1266,-81"/>
<text text-anchor="start" x="1289" y="-87.8" font-family="Times,serif" font-size="14.00">u2be</text>
<polygon fill="none" stroke="black" points="1339,-81 1339,-102 1379,-102 1379,-81 1339,-81"/>
<text text-anchor="start" x="1342" y="-87.8" font-family="Times,serif" font-size="14.00">unkn1</text>
<polygon fill="none" stroke="black" points="1075,-60 1075,-81 1100,-81 1100,-60 1075,-60"/>
<text text-anchor="start" x="1081.5" y="-66.8" font-family="Times,serif" font-size="14.00">...</text>
<polygon fill="none" stroke="black" points="1100,-60 1100,-81 1266,-81 1266,-60 1100,-60"/>
<text text-anchor="start" x="1179.5" y="-66.8" font-family="Times,serif" font-size="14.00">4</text>
<polygon fill="none" stroke="black" points="1266,-60 1266,-81 1339,-81 1339,-60 1266,-60"/>
<text text-anchor="start" x="1287" y="-66.8" font-family="Times,serif" font-size="14.00">Color</text>
<polygon fill="none" stroke="black" points="1339,-60 1339,-81 1379,-81 1379,-60 1339,-60"/>
<text text-anchor="start" x="1342" y="-66.8" font-family="Times,serif" font-size="14.00">colors</text>
<polygon fill="none" stroke="black" points="1075,-39 1075,-60 1379,-60 1379,-39 1075,-39"/>
<text text-anchor="start" x="1091.5" y="-45.8" font-family="Times,serif" font-size="14.00">repeat (_root.meta[index].colors_count &#45; 1) times</text>
</g>
<!-- nt_mdt_pal__seq&#45;&gt;col_table__seq -->
<g id="edge3" class="edge"><title>nt_mdt_pal__seq:tables_type&#45;&gt;col_table__seq</title>
<path fill="none" stroke="black" stroke-width="2" d="M810,-66C834.299,-66 822.995,-34.3064 845,-24 923.082,12.5716 954.896,-5.00661 1039,-24 1048.73,-26.1979 1058.55,-28.965 1068.33,-32.1522"/>
<polygon fill="black" stroke="black" stroke-width="2" points="1067.48,-35.5631 1078.08,-35.4739 1069.74,-28.9369 1067.48,-35.5631"/>
</g>
<!-- meta__seq&#45;&gt;col_table__seq -->
<g id="edge5" class="edge"><title>meta__seq:name_size_type&#45;&gt;col_table__seq:title_size</title>
<path fill="none" stroke="#404040" d="M1024,-50C1074.74,-50 1128.7,-78.0488 1158.6,-96.4148"/>
<polygon fill="#404040" stroke="#404040" points="1156.75,-99.3861 1167.07,-101.762 1160.48,-93.4659 1156.75,-99.3861"/>
</g>
<!-- meta__seq&#45;&gt;col_table__seq -->
<g id="edge7" class="edge"><title>meta__seq:colors_count_type&#45;&gt;col_table__seq:colors__repeat</title>
<path fill="none" stroke="#404040" d="M1024,-134C1063.89,-134 1036.28,-63.5873 1064.04,-50.935"/>
<polygon fill="#404040" stroke="#404040" points="1064.85,-54.3433 1074,-49 1063.52,-47.4718 1064.85,-54.3433"/>
</g>
<!-- color__seq -->
<g id="node3" class="node"><title>color__seq</title>
<polygon fill="#e0ffe0" stroke="none" points="1431,-112 1431,-133 1456,-133 1456,-112 1431,-112"/>
<polygon fill="none" stroke="black" points="1431,-112 1431,-133 1456,-133 1456,-112 1431,-112"/>
<text text-anchor="start" x="1434" y="-118.8" font-family="Times,serif" font-size="14.00">pos</text>
<polygon fill="#e0ffe0" stroke="none" points="1456,-112 1456,-133 1484,-133 1484,-112 1456,-112"/>
<polygon fill="none" stroke="black" points="1456,-112 1456,-133 1484,-133 1484,-112 1456,-112"/>
<text text-anchor="start" x="1459" y="-118.8" font-family="Times,serif" font-size="14.00">size</text>
<polygon fill="#e0ffe0" stroke="none" points="1484,-112 1484,-133 1514,-133 1514,-112 1484,-112"/>
<polygon fill="none" stroke="black" points="1484,-112 1484,-133 1514,-133 1514,-112 1484,-112"/>
<text text-anchor="start" x="1487" y="-118.8" font-family="Times,serif" font-size="14.00">type</text>
<polygon fill="#e0ffe0" stroke="none" points="1514,-112 1514,-133 1551,-133 1551,-112 1514,-112"/>
<polygon fill="none" stroke="black" points="1514,-112 1514,-133 1551,-133 1551,-112 1514,-112"/>
<text text-anchor="start" x="1527" y="-118.8" font-family="Times,serif" font-size="14.00">id</text>
<polygon fill="none" stroke="black" points="1431,-91 1431,-112 1456,-112 1456,-91 1431,-91"/>
<text text-anchor="start" x="1440" y="-97.8" font-family="Times,serif" font-size="14.00">0</text>
<polygon fill="none" stroke="black" points="1456,-91 1456,-112 1484,-112 1484,-91 1456,-91"/>
<text text-anchor="start" x="1466.5" y="-97.8" font-family="Times,serif" font-size="14.00">1</text>
<polygon fill="none" stroke="black" points="1484,-91 1484,-112 1514,-112 1514,-91 1484,-91"/>
<text text-anchor="start" x="1492" y="-97.8" font-family="Times,serif" font-size="14.00">u1</text>
<polygon fill="none" stroke="black" points="1514,-91 1514,-112 1551,-112 1551,-91 1514,-91"/>
<text text-anchor="start" x="1523.5" y="-97.8" font-family="Times,serif" font-size="14.00">red</text>
<polygon fill="none" stroke="black" points="1431,-70 1431,-91 1456,-91 1456,-70 1431,-70"/>
<text text-anchor="start" x="1440" y="-76.8" font-family="Times,serif" font-size="14.00">1</text>
<polygon fill="none" stroke="black" points="1456,-70 1456,-91 1484,-91 1484,-70 1456,-70"/>
<text text-anchor="start" x="1466.5" y="-76.8" font-family="Times,serif" font-size="14.00">1</text>
<polygon fill="none" stroke="black" points="1484,-70 1484,-91 1514,-91 1514,-70 1484,-70"/>
<text text-anchor="start" x="1492" y="-76.8" font-family="Times,serif" font-size="14.00">u1</text>
<polygon fill="none" stroke="black" points="1514,-70 1514,-91 1551,-91 1551,-70 1514,-70"/>
<text text-anchor="start" x="1518.5" y="-76.8" font-family="Times,serif" font-size="14.00">unkn</text>
<polygon fill="none" stroke="black" points="1431,-49 1431,-70 1456,-70 1456,-49 1431,-49"/>
<text text-anchor="start" x="1440" y="-55.8" font-family="Times,serif" font-size="14.00">2</text>
<polygon fill="none" stroke="black" points="1456,-49 1456,-70 1484,-70 1484,-49 1456,-49"/>
<text text-anchor="start" x="1466.5" y="-55.8" font-family="Times,serif" font-size="14.00">1</text>
<polygon fill="none" stroke="black" points="1484,-49 1484,-70 1514,-70 1514,-49 1484,-49"/>
<text text-anchor="start" x="1492" y="-55.8" font-family="Times,serif" font-size="14.00">u1</text>
<polygon fill="none" stroke="black" points="1514,-49 1514,-70 1551,-70 1551,-49 1514,-49"/>
<text text-anchor="start" x="1520.5" y="-55.8" font-family="Times,serif" font-size="14.00">blue</text>
<polygon fill="none" stroke="black" points="1431,-28 1431,-49 1456,-49 1456,-28 1431,-28"/>
<text text-anchor="start" x="1440" y="-34.8" font-family="Times,serif" font-size="14.00">3</text>
<polygon fill="none" stroke="black" points="1456,-28 1456,-49 1484,-49 1484,-28 1456,-28"/>
<text text-anchor="start" x="1466.5" y="-34.8" font-family="Times,serif" font-size="14.00">1</text>
<polygon fill="none" stroke="black" points="1484,-28 1484,-49 1514,-49 1514,-28 1484,-28"/>
<text text-anchor="start" x="1492" y="-34.8" font-family="Times,serif" font-size="14.00">u1</text>
<polygon fill="none" stroke="black" points="1514,-28 1514,-49 1551,-49 1551,-28 1514,-28"/>
<text text-anchor="start" x="1517" y="-34.8" font-family="Times,serif" font-size="14.00">green</text>
</g>
<!-- col_table__seq&#45;&gt;color__seq -->
<g id="edge6" class="edge"><title>col_table__seq:colors_type&#45;&gt;color__seq</title>
<path fill="none" stroke="black" stroke-width="2" d="M1380,-70C1390.65,-70 1401.86,-70.5172 1412.87,-71.3272"/>
<polygon fill="black" stroke="black" stroke-width="2" points="1412.67,-74.8217 1422.92,-72.147 1413.24,-67.8449 1412.67,-74.8217"/>
</g>
</g>
</svg>
