<?xml version="1.0" encoding="UTF-8" standalone="no"?>
<!DOCTYPE svg PUBLIC "-//W3C//DTD SVG 1.1//EN"
 "http://www.w3.org/Graphics/SVG/1.1/DTD/svg11.dtd">
<!-- Generated by graphviz version 2.43.0 (0)
 -->
<!-- Title: %3 Pages: 1 -->
<svg width="1297pt" height="333pt"
 viewBox="0.00 0.00 1297.00 332.96" xmlns="http://www.w3.org/2000/svg" xmlns:xlink="http://www.w3.org/1999/xlink">
<g id="graph0" class="graph" transform="scale(1 1) rotate(0) translate(4 328.96)">
<title>%3</title>
<polygon fill="white" stroke="transparent" points="-4,4 -4,-328.96 1293,-328.96 1293,4 -4,4"/>
<g id="clust1" class="cluster">
<title>cluster__nt_mdt_pal</title>
<polygon fill="none" stroke="black" stroke-dasharray="1,5" points="124,-8.96 124,-316.96 1281,-316.96 1281,-8.96 124,-8.96"/>
<text text-anchor="middle" x="702.5" y="-301.76" font-family="Times,serif" font-size="14.00">NtMdtPal</text>
</g>
<g id="clust2" class="cluster">
<title>cluster__meta</title>
<polygon fill="none" stroke="black" stroke-dasharray="1,5" points="400,-28.96 400,-285.96 635,-285.96 635,-28.96 400,-28.96"/>
<text text-anchor="middle" x="517.5" y="-270.76" font-family="Times,serif" font-size="14.00">NtMdtPal::Meta</text>
</g>
<g id="clust3" class="cluster">
<title>cluster__color</title>
<polygon fill="none" stroke="black" stroke-dasharray="1,5" points="1090,-16.96 1090,-169.96 1273,-169.96 1273,-16.96 1090,-16.96"/>
<text text-anchor="middle" x="1181.5" y="-154.76" font-family="Times,serif" font-size="14.00">NtMdtPal::Color</text>
</g>
<g id="clust4" class="cluster">
<title>cluster__col_table</title>
<polygon fill="none" stroke="black" stroke-dasharray="1,5" points="655,-27.96 655,-222.96 1070,-222.96 1070,-27.96 655,-27.96"/>
<text text-anchor="middle" x="862.5" y="-207.76" font-family="Times,serif" font-size="14.00">NtMdtPal::ColTable</text>
</g>
<!-- nt_mdt_pal__seq -->
<g id="node1" class="node">
<title>nt_mdt_pal__seq</title>
<polygon fill="#e0ffe0" stroke="transparent" points="140,-182.96 140,-203.96 171,-203.96 171,-182.96 140,-182.96"/>
<polygon fill="none" stroke="black" points="140,-182.96 140,-203.96 171,-203.96 171,-182.96 140,-182.96"/>
<text text-anchor="start" x="143" y="-189.76" font-family="Times,serif" font-size="14.00">pos</text>
<polygon fill="#e0ffe0" stroke="transparent" points="171,-182.96 171,-203.96 205,-203.96 205,-182.96 171,-182.96"/>
<polygon fill="none" stroke="black" points="171,-182.96 171,-203.96 205,-203.96 205,-182.96 171,-182.96"/>
<text text-anchor="start" x="174" y="-189.76" font-family="Times,serif" font-size="14.00">size</text>
<polygon fill="#e0ffe0" stroke="transparent" points="205,-182.96 205,-203.96 273,-203.96 273,-182.96 205,-182.96"/>
<polygon fill="none" stroke="black" points="205,-182.96 205,-203.96 273,-203.96 273,-182.96 205,-182.96"/>
<text text-anchor="start" x="223" y="-189.76" font-family="Times,serif" font-size="14.00">type</text>
<polygon fill="#e0ffe0" stroke="transparent" points="273,-182.96 273,-203.96 364,-203.96 364,-182.96 273,-182.96"/>
<polygon fill="none" stroke="black" points="273,-182.96 273,-203.96 364,-203.96 364,-182.96 273,-182.96"/>
<text text-anchor="start" x="311.5" y="-189.76" font-family="Times,serif" font-size="14.00">id</text>
<polygon fill="none" stroke="black" points="140,-161.96 140,-182.96 171,-182.96 171,-161.96 140,-161.96"/>
<text text-anchor="start" x="150.5" y="-168.76" font-family="Times,serif" font-size="14.00">0</text>
<polygon fill="none" stroke="black" points="171,-161.96 171,-182.96 205,-182.96 205,-161.96 171,-161.96"/>
<text text-anchor="start" x="178.5" y="-168.76" font-family="Times,serif" font-size="14.00">26</text>
<polygon fill="none" stroke="black" points="205,-161.96 205,-182.96 273,-182.96 273,-161.96 205,-161.96"/>
<polygon fill="none" stroke="black" points="273,-161.96 273,-182.96 364,-182.96 364,-161.96 273,-161.96"/>
<text text-anchor="start" x="284" y="-168.76" font-family="Times,serif" font-size="14.00">signature</text>
<polygon fill="none" stroke="black" points="140,-140.96 140,-161.96 171,-161.96 171,-140.96 140,-140.96"/>
<text text-anchor="start" x="146" y="-147.76" font-family="Times,serif" font-size="14.00">26</text>
<polygon fill="none" stroke="black" points="171,-140.96 171,-161.96 205,-161.96 205,-140.96 171,-140.96"/>
<text text-anchor="start" x="183" y="-147.76" font-family="Times,serif" font-size="14.00">4</text>
<polygon fill="none" stroke="black" points="205,-140.96 205,-161.96 273,-161.96 273,-140.96 205,-140.96"/>
<text text-anchor="start" x="221" y="-147.76" font-family="Times,serif" font-size="14.00">u4be</text>
<polygon fill="none" stroke="black" points="273,-140.96 273,-161.96 364,-161.96 364,-140.96 273,-140.96"/>
<text text-anchor="start" x="298.5" y="-147.76" font-family="Times,serif" font-size="14.00">count</text>
<polygon fill="none" stroke="black" points="140,-119.96 140,-140.96 171,-140.96 171,-119.96 140,-119.96"/>
<text text-anchor="start" x="146" y="-126.76" font-family="Times,serif" font-size="14.00">30</text>
<polygon fill="none" stroke="black" points="171,-119.96 171,-140.96 205,-140.96 205,-119.96 171,-119.96"/>
<text text-anchor="start" x="178.5" y="-126.76" font-family="Times,serif" font-size="14.00">16</text>
<polygon fill="none" stroke="black" points="205,-119.96 205,-140.96 273,-140.96 273,-119.96 205,-119.96"/>
<text text-anchor="start" x="220.5" y="-126.76" font-family="Times,serif" font-size="14.00">Meta</text>
<polygon fill="none" stroke="black" points="273,-119.96 273,-140.96 364,-140.96 364,-119.96 273,-119.96"/>
<text text-anchor="start" x="300" y="-126.76" font-family="Times,serif" font-size="14.00">meta</text>
<polygon fill="none" stroke="black" points="140,-98.96 140,-119.96 364,-119.96 364,-98.96 140,-98.96"/>
<text text-anchor="start" x="184" y="-105.76" font-family="Times,serif" font-size="14.00">repeat count times</text>
<polygon fill="none" stroke="black" points="140,-77.96 140,-98.96 171,-98.96 171,-77.96 140,-77.96"/>
<text text-anchor="start" x="148.5" y="-84.76" font-family="Times,serif" font-size="14.00">...</text>
<polygon fill="none" stroke="black" points="171,-77.96 171,-98.96 205,-98.96 205,-77.96 171,-77.96"/>
<text text-anchor="start" x="183" y="-84.76" font-family="Times,serif" font-size="14.00">1</text>
<polygon fill="none" stroke="black" points="205,-77.96 205,-98.96 273,-98.96 273,-77.96 205,-77.96"/>
<polygon fill="none" stroke="black" points="273,-77.96 273,-98.96 364,-98.96 364,-77.96 273,-77.96"/>
<text text-anchor="start" x="276" y="-84.76" font-family="Times,serif" font-size="14.00">something2</text>
<polygon fill="none" stroke="black" points="140,-56.96 140,-77.96 171,-77.96 171,-56.96 140,-56.96"/>
<text text-anchor="start" x="148.5" y="-63.76" font-family="Times,serif" font-size="14.00">...</text>
<polygon fill="none" stroke="black" points="171,-56.96 171,-77.96 205,-77.96 205,-56.96 171,-56.96"/>
<text text-anchor="start" x="181" y="-63.76" font-family="Times,serif" font-size="14.00">...</text>
<polygon fill="none" stroke="black" points="205,-56.96 205,-77.96 273,-77.96 273,-56.96 205,-56.96"/>
<text text-anchor="start" x="208" y="-63.76" font-family="Times,serif" font-size="14.00">ColTable</text>
<polygon fill="none" stroke="black" points="273,-56.96 273,-77.96 364,-77.96 364,-56.96 273,-56.96"/>
<text text-anchor="start" x="296.5" y="-63.76" font-family="Times,serif" font-size="14.00">tables</text>
<polygon fill="none" stroke="black" points="140,-35.96 140,-56.96 364,-56.96 364,-35.96 140,-35.96"/>
<text text-anchor="start" x="184" y="-42.76" font-family="Times,serif" font-size="14.00">repeat count times</text>
</g>
<!-- nt_mdt_pal__seq&#45;&gt;nt_mdt_pal__seq -->
<g id="edge2" class="edge">
<title>nt_mdt_pal__seq:count_type&#45;&gt;nt_mdt_pal__seq:meta__repeat</title>
<path fill="none" stroke="#404040" d="M272.87,-155.3C170.41,-160.29 0,-156.43 0,-130.46 0,-111.89 62.25,-104.63 129.92,-103.82"/>
<polygon fill="#404040" stroke="#404040" points="129.96,-107.31 139.93,-103.74 129.91,-100.32 129.96,-107.31"/>
</g>
<!-- nt_mdt_pal__seq&#45;&gt;nt_mdt_pal__seq -->
<g id="edge4" class="edge">
<title>nt_mdt_pal__seq:count_type&#45;&gt;nt_mdt_pal__seq:tables__repeat</title>
<path fill="none" stroke="#404040" d="M272.87,-155.2C170.41,-159.59 0,-151.75 0,-98.96 0,-61.22 62.25,-46.45 129.92,-42.7"/>
<polygon fill="#404040" stroke="#404040" points="130.11,-46.2 139.93,-42.23 129.78,-39.2 130.11,-46.2"/>
</g>
<!-- meta__seq -->
<g id="node2" class="node">
<title>meta__seq</title>
<polygon fill="#e0ffe0" stroke="transparent" points="416.5,-229.96 416.5,-250.96 447.5,-250.96 447.5,-229.96 416.5,-229.96"/>
<polygon fill="none" stroke="black" points="416.5,-229.96 416.5,-250.96 447.5,-250.96 447.5,-229.96 416.5,-229.96"/>
<text text-anchor="start" x="419.5" y="-236.76" font-family="Times,serif" font-size="14.00">pos</text>
<polygon fill="#e0ffe0" stroke="transparent" points="447.5,-229.96 447.5,-250.96 481.5,-250.96 481.5,-229.96 447.5,-229.96"/>
<polygon fill="none" stroke="black" points="447.5,-229.96 447.5,-250.96 481.5,-250.96 481.5,-229.96 447.5,-229.96"/>
<text text-anchor="start" x="450.5" y="-236.76" font-family="Times,serif" font-size="14.00">size</text>
<polygon fill="#e0ffe0" stroke="transparent" points="481.5,-229.96 481.5,-250.96 523.5,-250.96 523.5,-229.96 481.5,-229.96"/>
<polygon fill="none" stroke="black" points="481.5,-229.96 481.5,-250.96 523.5,-250.96 523.5,-229.96 481.5,-229.96"/>
<text text-anchor="start" x="486.5" y="-236.76" font-family="Times,serif" font-size="14.00">type</text>
<polygon fill="#e0ffe0" stroke="transparent" points="523.5,-229.96 523.5,-250.96 619.5,-250.96 619.5,-229.96 523.5,-229.96"/>
<polygon fill="none" stroke="black" points="523.5,-229.96 523.5,-250.96 619.5,-250.96 619.5,-229.96 523.5,-229.96"/>
<text text-anchor="start" x="564.5" y="-236.76" font-family="Times,serif" font-size="14.00">id</text>
<polygon fill="none" stroke="black" points="416.5,-208.96 416.5,-229.96 447.5,-229.96 447.5,-208.96 416.5,-208.96"/>
<text text-anchor="start" x="427" y="-215.76" font-family="Times,serif" font-size="14.00">0</text>
<polygon fill="none" stroke="black" points="447.5,-208.96 447.5,-229.96 481.5,-229.96 481.5,-208.96 447.5,-208.96"/>
<text text-anchor="start" x="459.5" y="-215.76" font-family="Times,serif" font-size="14.00">3</text>
<polygon fill="none" stroke="black" points="481.5,-208.96 481.5,-229.96 523.5,-229.96 523.5,-208.96 481.5,-208.96"/>
<polygon fill="none" stroke="black" points="523.5,-208.96 523.5,-229.96 619.5,-229.96 619.5,-208.96 523.5,-208.96"/>
<text text-anchor="start" x="544.5" y="-215.76" font-family="Times,serif" font-size="14.00">unkn00</text>
<polygon fill="none" stroke="black" points="416.5,-187.96 416.5,-208.96 447.5,-208.96 447.5,-187.96 416.5,-187.96"/>
<text text-anchor="start" x="427" y="-194.76" font-family="Times,serif" font-size="14.00">3</text>
<polygon fill="none" stroke="black" points="447.5,-187.96 447.5,-208.96 481.5,-208.96 481.5,-187.96 447.5,-187.96"/>
<text text-anchor="start" x="459.5" y="-194.76" font-family="Times,serif" font-size="14.00">2</text>
<polygon fill="none" stroke="black" points="481.5,-187.96 481.5,-208.96 523.5,-208.96 523.5,-187.96 481.5,-187.96"/>
<polygon fill="none" stroke="black" points="523.5,-187.96 523.5,-208.96 619.5,-208.96 619.5,-187.96 523.5,-187.96"/>
<text text-anchor="start" x="544.5" y="-194.76" font-family="Times,serif" font-size="14.00">unkn01</text>
<polygon fill="none" stroke="black" points="416.5,-166.96 416.5,-187.96 447.5,-187.96 447.5,-166.96 416.5,-166.96"/>
<text text-anchor="start" x="427" y="-173.76" font-family="Times,serif" font-size="14.00">5</text>
<polygon fill="none" stroke="black" points="447.5,-166.96 447.5,-187.96 481.5,-187.96 481.5,-166.96 447.5,-166.96"/>
<text text-anchor="start" x="459.5" y="-173.76" font-family="Times,serif" font-size="14.00">1</text>
<polygon fill="none" stroke="black" points="481.5,-166.96 481.5,-187.96 523.5,-187.96 523.5,-166.96 481.5,-166.96"/>
<polygon fill="none" stroke="black" points="523.5,-166.96 523.5,-187.96 619.5,-187.96 619.5,-166.96 523.5,-166.96"/>
<text text-anchor="start" x="544.5" y="-173.76" font-family="Times,serif" font-size="14.00">unkn02</text>
<polygon fill="none" stroke="black" points="416.5,-145.96 416.5,-166.96 447.5,-166.96 447.5,-145.96 416.5,-145.96"/>
<text text-anchor="start" x="427" y="-152.76" font-family="Times,serif" font-size="14.00">6</text>
<polygon fill="none" stroke="black" points="447.5,-145.96 447.5,-166.96 481.5,-166.96 481.5,-145.96 447.5,-145.96"/>
<text text-anchor="start" x="459.5" y="-152.76" font-family="Times,serif" font-size="14.00">1</text>
<polygon fill="none" stroke="black" points="481.5,-145.96 481.5,-166.96 523.5,-166.96 523.5,-145.96 481.5,-145.96"/>
<polygon fill="none" stroke="black" points="523.5,-145.96 523.5,-166.96 619.5,-166.96 619.5,-145.96 523.5,-145.96"/>
<text text-anchor="start" x="544.5" y="-152.76" font-family="Times,serif" font-size="14.00">unkn03</text>
<polygon fill="none" stroke="black" points="416.5,-124.96 416.5,-145.96 447.5,-145.96 447.5,-124.96 416.5,-124.96"/>
<text text-anchor="start" x="427" y="-131.76" font-family="Times,serif" font-size="14.00">7</text>
<polygon fill="none" stroke="black" points="447.5,-124.96 447.5,-145.96 481.5,-145.96 481.5,-124.96 447.5,-124.96"/>
<text text-anchor="start" x="459.5" y="-131.76" font-family="Times,serif" font-size="14.00">2</text>
<polygon fill="none" stroke="black" points="481.5,-124.96 481.5,-145.96 523.5,-145.96 523.5,-124.96 481.5,-124.96"/>
<text text-anchor="start" x="487" y="-131.76" font-family="Times,serif" font-size="14.00">u2le</text>
<polygon fill="none" stroke="black" points="523.5,-124.96 523.5,-145.96 619.5,-145.96 619.5,-124.96 523.5,-124.96"/>
<text text-anchor="start" x="526.5" y="-131.76" font-family="Times,serif" font-size="14.00">colors_count</text>
<polygon fill="none" stroke="black" points="416.5,-103.96 416.5,-124.96 447.5,-124.96 447.5,-103.96 416.5,-103.96"/>
<text text-anchor="start" x="427" y="-110.76" font-family="Times,serif" font-size="14.00">9</text>
<polygon fill="none" stroke="black" points="447.5,-103.96 447.5,-124.96 481.5,-124.96 481.5,-103.96 447.5,-103.96"/>
<text text-anchor="start" x="459.5" y="-110.76" font-family="Times,serif" font-size="14.00">2</text>
<polygon fill="none" stroke="black" points="481.5,-103.96 481.5,-124.96 523.5,-124.96 523.5,-103.96 481.5,-103.96"/>
<polygon fill="none" stroke="black" points="523.5,-103.96 523.5,-124.96 619.5,-124.96 619.5,-103.96 523.5,-103.96"/>
<text text-anchor="start" x="544.5" y="-110.76" font-family="Times,serif" font-size="14.00">unkn10</text>
<polygon fill="none" stroke="black" points="416.5,-82.96 416.5,-103.96 447.5,-103.96 447.5,-82.96 416.5,-82.96"/>
<text text-anchor="start" x="422.5" y="-89.76" font-family="Times,serif" font-size="14.00">11</text>
<polygon fill="none" stroke="black" points="447.5,-82.96 447.5,-103.96 481.5,-103.96 481.5,-82.96 447.5,-82.96"/>
<text text-anchor="start" x="459.5" y="-89.76" font-family="Times,serif" font-size="14.00">1</text>
<polygon fill="none" stroke="black" points="481.5,-82.96 481.5,-103.96 523.5,-103.96 523.5,-82.96 481.5,-82.96"/>
<polygon fill="none" stroke="black" points="523.5,-82.96 523.5,-103.96 619.5,-103.96 619.5,-82.96 523.5,-82.96"/>
<text text-anchor="start" x="544.5" y="-89.76" font-family="Times,serif" font-size="14.00">unkn11</text>
<polygon fill="none" stroke="black" points="416.5,-61.96 416.5,-82.96 447.5,-82.96 447.5,-61.96 416.5,-61.96"/>
<text text-anchor="start" x="422.5" y="-68.76" font-family="Times,serif" font-size="14.00">12</text>
<polygon fill="none" stroke="black" points="447.5,-61.96 447.5,-82.96 481.5,-82.96 481.5,-61.96 447.5,-61.96"/>
<text text-anchor="start" x="459.5" y="-68.76" font-family="Times,serif" font-size="14.00">2</text>
<polygon fill="none" stroke="black" points="481.5,-61.96 481.5,-82.96 523.5,-82.96 523.5,-61.96 481.5,-61.96"/>
<polygon fill="none" stroke="black" points="523.5,-61.96 523.5,-82.96 619.5,-82.96 619.5,-61.96 523.5,-61.96"/>
<text text-anchor="start" x="544.5" y="-68.76" font-family="Times,serif" font-size="14.00">unkn12</text>
<polygon fill="none" stroke="black" points="416.5,-40.96 416.5,-61.96 447.5,-61.96 447.5,-40.96 416.5,-40.96"/>
<text text-anchor="start" x="422.5" y="-47.76" font-family="Times,serif" font-size="14.00">14</text>
<polygon fill="none" stroke="black" points="447.5,-40.96 447.5,-61.96 481.5,-61.96 481.5,-40.96 447.5,-40.96"/>
<text text-anchor="start" x="459.5" y="-47.76" font-family="Times,serif" font-size="14.00">2</text>
<polygon fill="none" stroke="black" points="481.5,-40.96 481.5,-61.96 523.5,-61.96 523.5,-40.96 481.5,-40.96"/>
<text text-anchor="start" x="484.5" y="-47.76" font-family="Times,serif" font-size="14.00">u2be</text>
<polygon fill="none" stroke="black" points="523.5,-40.96 523.5,-61.96 619.5,-61.96 619.5,-40.96 523.5,-40.96"/>
<text text-anchor="start" x="534.5" y="-47.76" font-family="Times,serif" font-size="14.00">name_size</text>
</g>
<!-- nt_mdt_pal__seq&#45;&gt;meta__seq -->
<g id="edge1" class="edge">
<title>nt_mdt_pal__seq:meta_type&#45;&gt;meta__seq</title>
<path fill="none" stroke="black" stroke-width="2" d="M365,-130.96C375.62,-130.96 386.65,-131.33 397.68,-131.95"/>
<polygon fill="black" stroke="black" stroke-width="2" points="397.61,-135.45 407.81,-132.59 398.05,-128.47 397.61,-135.45"/>
</g>
<!-- col_table__seq -->
<g id="node4" class="node">
<title>col_table__seq</title>
<polygon fill="#e0ffe0" stroke="transparent" points="671.5,-165.96 671.5,-186.96 702.5,-186.96 702.5,-165.96 671.5,-165.96"/>
<polygon fill="none" stroke="black" points="671.5,-165.96 671.5,-186.96 702.5,-186.96 702.5,-165.96 671.5,-165.96"/>
<text text-anchor="start" x="674.5" y="-172.76" font-family="Times,serif" font-size="14.00">pos</text>
<polygon fill="#e0ffe0" stroke="transparent" points="702.5,-165.96 702.5,-186.96 913.5,-186.96 913.5,-165.96 702.5,-165.96"/>
<polygon fill="none" stroke="black" points="702.5,-165.96 702.5,-186.96 913.5,-186.96 913.5,-165.96 702.5,-165.96"/>
<text text-anchor="start" x="794" y="-172.76" font-family="Times,serif" font-size="14.00">size</text>
<polygon fill="#e0ffe0" stroke="transparent" points="913.5,-165.96 913.5,-186.96 1003.5,-186.96 1003.5,-165.96 913.5,-165.96"/>
<polygon fill="none" stroke="black" points="913.5,-165.96 913.5,-186.96 1003.5,-186.96 1003.5,-165.96 913.5,-165.96"/>
<text text-anchor="start" x="942.5" y="-172.76" font-family="Times,serif" font-size="14.00">type</text>
<polygon fill="#e0ffe0" stroke="transparent" points="1003.5,-165.96 1003.5,-186.96 1054.5,-186.96 1054.5,-165.96 1003.5,-165.96"/>
<polygon fill="none" stroke="black" points="1003.5,-165.96 1003.5,-186.96 1054.5,-186.96 1054.5,-165.96 1003.5,-165.96"/>
<text text-anchor="start" x="1022" y="-172.76" font-family="Times,serif" font-size="14.00">id</text>
<polygon fill="none" stroke="black" points="671.5,-144.96 671.5,-165.96 702.5,-165.96 702.5,-144.96 671.5,-144.96"/>
<text text-anchor="start" x="682" y="-151.76" font-family="Times,serif" font-size="14.00">0</text>
<polygon fill="none" stroke="black" points="702.5,-144.96 702.5,-165.96 913.5,-165.96 913.5,-144.96 702.5,-144.96"/>
<text text-anchor="start" x="803" y="-151.76" font-family="Times,serif" font-size="14.00">1</text>
<polygon fill="none" stroke="black" points="913.5,-144.96 913.5,-165.96 1003.5,-165.96 1003.5,-144.96 913.5,-144.96"/>
<text text-anchor="start" x="949" y="-151.76" font-family="Times,serif" font-size="14.00">u1</text>
<polygon fill="none" stroke="black" points="1003.5,-144.96 1003.5,-165.96 1054.5,-165.96 1054.5,-144.96 1003.5,-144.96"/>
<text text-anchor="start" x="1010.5" y="-151.76" font-family="Times,serif" font-size="14.00">size1</text>
<polygon fill="none" stroke="black" points="671.5,-123.96 671.5,-144.96 702.5,-144.96 702.5,-123.96 671.5,-123.96"/>
<text text-anchor="start" x="682" y="-130.76" font-family="Times,serif" font-size="14.00">1</text>
<polygon fill="none" stroke="black" points="702.5,-123.96 702.5,-144.96 913.5,-144.96 913.5,-123.96 702.5,-123.96"/>
<text text-anchor="start" x="803" y="-130.76" font-family="Times,serif" font-size="14.00">1</text>
<polygon fill="none" stroke="black" points="913.5,-123.96 913.5,-144.96 1003.5,-144.96 1003.5,-123.96 913.5,-123.96"/>
<text text-anchor="start" x="949" y="-130.76" font-family="Times,serif" font-size="14.00">u1</text>
<polygon fill="none" stroke="black" points="1003.5,-123.96 1003.5,-144.96 1054.5,-144.96 1054.5,-123.96 1003.5,-123.96"/>
<text text-anchor="start" x="1011" y="-130.76" font-family="Times,serif" font-size="14.00">unkn</text>
<polygon fill="none" stroke="black" points="671.5,-102.96 671.5,-123.96 702.5,-123.96 702.5,-102.96 671.5,-102.96"/>
<text text-anchor="start" x="682" y="-109.76" font-family="Times,serif" font-size="14.00">2</text>
<polygon fill="none" stroke="black" points="702.5,-102.96 702.5,-123.96 913.5,-123.96 913.5,-102.96 702.5,-102.96"/>
<text text-anchor="start" x="705.5" y="-109.76" font-family="Times,serif" font-size="14.00">_root.meta[index].name_size</text>
<polygon fill="none" stroke="black" points="913.5,-102.96 913.5,-123.96 1003.5,-123.96 1003.5,-102.96 913.5,-102.96"/>
<text text-anchor="start" x="916.5" y="-109.76" font-family="Times,serif" font-size="14.00">str(UTF&#45;16)</text>
<polygon fill="none" stroke="black" points="1003.5,-102.96 1003.5,-123.96 1054.5,-123.96 1054.5,-102.96 1003.5,-102.96"/>
<text text-anchor="start" x="1014" y="-109.76" font-family="Times,serif" font-size="14.00">title</text>
<polygon fill="none" stroke="black" points="671.5,-81.96 671.5,-102.96 702.5,-102.96 702.5,-81.96 671.5,-81.96"/>
<text text-anchor="start" x="680" y="-88.76" font-family="Times,serif" font-size="14.00">...</text>
<polygon fill="none" stroke="black" points="702.5,-81.96 702.5,-102.96 913.5,-102.96 913.5,-81.96 702.5,-81.96"/>
<text text-anchor="start" x="803" y="-88.76" font-family="Times,serif" font-size="14.00">2</text>
<polygon fill="none" stroke="black" points="913.5,-81.96 913.5,-102.96 1003.5,-102.96 1003.5,-81.96 913.5,-81.96"/>
<text text-anchor="start" x="940.5" y="-88.76" font-family="Times,serif" font-size="14.00">u2be</text>
<polygon fill="none" stroke="black" points="1003.5,-81.96 1003.5,-102.96 1054.5,-102.96 1054.5,-81.96 1003.5,-81.96"/>
<text text-anchor="start" x="1006.5" y="-88.76" font-family="Times,serif" font-size="14.00">unkn1</text>
<polygon fill="none" stroke="black" points="671.5,-60.96 671.5,-81.96 702.5,-81.96 702.5,-60.96 671.5,-60.96"/>
<text text-anchor="start" x="680" y="-67.76" font-family="Times,serif" font-size="14.00">...</text>
<polygon fill="none" stroke="black" points="702.5,-60.96 702.5,-81.96 913.5,-81.96 913.5,-60.96 702.5,-60.96"/>
<text text-anchor="start" x="803" y="-67.76" font-family="Times,serif" font-size="14.00">4</text>
<polygon fill="none" stroke="black" points="913.5,-60.96 913.5,-81.96 1003.5,-81.96 1003.5,-60.96 913.5,-60.96"/>
<text text-anchor="start" x="939" y="-67.76" font-family="Times,serif" font-size="14.00">Color</text>
<polygon fill="none" stroke="black" points="1003.5,-60.96 1003.5,-81.96 1054.5,-81.96 1054.5,-60.96 1003.5,-60.96"/>
<text text-anchor="start" x="1007.5" y="-67.76" font-family="Times,serif" font-size="14.00">colors</text>
<polygon fill="none" stroke="black" points="671.5,-39.96 671.5,-60.96 1054.5,-60.96 1054.5,-39.96 671.5,-39.96"/>
<text text-anchor="start" x="688.5" y="-46.76" font-family="Times,serif" font-size="14.00">repeat (_root.meta[index].colors_count &#45; 1) times</text>
</g>
<!-- nt_mdt_pal__seq&#45;&gt;col_table__seq -->
<g id="edge3" class="edge">
<title>nt_mdt_pal__seq:tables_type&#45;&gt;col_table__seq</title>
<path fill="none" stroke="black" stroke-width="2" d="M365,-66.96C389.3,-66.96 378,-35.26 400,-24.96 494.58,19.34 532.38,-5.52 635,-24.96 647.12,-27.25 659.42,-30.18 671.7,-33.57"/>
<polygon fill="black" stroke="black" stroke-width="2" points="670.97,-37 681.55,-36.39 672.89,-30.27 670.97,-37"/>
</g>
<!-- meta__seq&#45;&gt;col_table__seq -->
<g id="edge5" class="edge">
<title>meta__seq:name_size_type&#45;&gt;col_table__seq:title_size</title>
<path fill="none" stroke="#404040" d="M620.5,-50.96C679.77,-50.96 744.47,-79.64 779.78,-97.99"/>
<polygon fill="#404040" stroke="#404040" points="778.46,-101.25 788.94,-102.86 781.75,-95.07 778.46,-101.25"/>
</g>
<!-- meta__seq&#45;&gt;col_table__seq -->
<g id="edge7" class="edge">
<title>meta__seq:colors_count_type&#45;&gt;col_table__seq:colors__repeat</title>
<path fill="none" stroke="#404040" d="M620.5,-134.96C660.39,-134.96 632.78,-64.55 660.54,-51.89"/>
<polygon fill="#404040" stroke="#404040" points="661.35,-55.3 670.5,-49.96 660.02,-48.43 661.35,-55.3"/>
</g>
<!-- color__seq -->
<g id="node3" class="node">
<title>color__seq</title>
<polygon fill="#e0ffe0" stroke="transparent" points="1106.5,-112.96 1106.5,-133.96 1137.5,-133.96 1137.5,-112.96 1106.5,-112.96"/>
<polygon fill="none" stroke="black" points="1106.5,-112.96 1106.5,-133.96 1137.5,-133.96 1137.5,-112.96 1106.5,-112.96"/>
<text text-anchor="start" x="1109.5" y="-119.76" font-family="Times,serif" font-size="14.00">pos</text>
<polygon fill="#e0ffe0" stroke="transparent" points="1137.5,-112.96 1137.5,-133.96 1171.5,-133.96 1171.5,-112.96 1137.5,-112.96"/>
<polygon fill="none" stroke="black" points="1137.5,-112.96 1137.5,-133.96 1171.5,-133.96 1171.5,-112.96 1137.5,-112.96"/>
<text text-anchor="start" x="1140.5" y="-119.76" font-family="Times,serif" font-size="14.00">size</text>
<polygon fill="#e0ffe0" stroke="transparent" points="1171.5,-112.96 1171.5,-133.96 1209.5,-133.96 1209.5,-112.96 1171.5,-112.96"/>
<polygon fill="none" stroke="black" points="1171.5,-112.96 1171.5,-133.96 1209.5,-133.96 1209.5,-112.96 1171.5,-112.96"/>
<text text-anchor="start" x="1174.5" y="-119.76" font-family="Times,serif" font-size="14.00">type</text>
<polygon fill="#e0ffe0" stroke="transparent" points="1209.5,-112.96 1209.5,-133.96 1257.5,-133.96 1257.5,-112.96 1209.5,-112.96"/>
<polygon fill="none" stroke="black" points="1209.5,-112.96 1209.5,-133.96 1257.5,-133.96 1257.5,-112.96 1209.5,-112.96"/>
<text text-anchor="start" x="1226.5" y="-119.76" font-family="Times,serif" font-size="14.00">id</text>
<polygon fill="none" stroke="black" points="1106.5,-91.96 1106.5,-112.96 1137.5,-112.96 1137.5,-91.96 1106.5,-91.96"/>
<text text-anchor="start" x="1117" y="-98.76" font-family="Times,serif" font-size="14.00">0</text>
<polygon fill="none" stroke="black" points="1137.5,-91.96 1137.5,-112.96 1171.5,-112.96 1171.5,-91.96 1137.5,-91.96"/>
<text text-anchor="start" x="1149.5" y="-98.76" font-family="Times,serif" font-size="14.00">1</text>
<polygon fill="none" stroke="black" points="1171.5,-91.96 1171.5,-112.96 1209.5,-112.96 1209.5,-91.96 1171.5,-91.96"/>
<text text-anchor="start" x="1181" y="-98.76" font-family="Times,serif" font-size="14.00">u1</text>
<polygon fill="none" stroke="black" points="1209.5,-91.96 1209.5,-112.96 1257.5,-112.96 1257.5,-91.96 1209.5,-91.96"/>
<text text-anchor="start" x="1221" y="-98.76" font-family="Times,serif" font-size="14.00">red</text>
<polygon fill="none" stroke="black" points="1106.5,-70.96 1106.5,-91.96 1137.5,-91.96 1137.5,-70.96 1106.5,-70.96"/>
<text text-anchor="start" x="1117" y="-77.76" font-family="Times,serif" font-size="14.00">1</text>
<polygon fill="none" stroke="black" points="1137.5,-70.96 1137.5,-91.96 1171.5,-91.96 1171.5,-70.96 1137.5,-70.96"/>
<text text-anchor="start" x="1149.5" y="-77.76" font-family="Times,serif" font-size="14.00">1</text>
<polygon fill="none" stroke="black" points="1171.5,-70.96 1171.5,-91.96 1209.5,-91.96 1209.5,-70.96 1171.5,-70.96"/>
<text text-anchor="start" x="1181" y="-77.76" font-family="Times,serif" font-size="14.00">u1</text>
<polygon fill="none" stroke="black" points="1209.5,-70.96 1209.5,-91.96 1257.5,-91.96 1257.5,-70.96 1209.5,-70.96"/>
<text text-anchor="start" x="1215.5" y="-77.76" font-family="Times,serif" font-size="14.00">unkn</text>
<polygon fill="none" stroke="black" points="1106.5,-49.96 1106.5,-70.96 1137.5,-70.96 1137.5,-49.96 1106.5,-49.96"/>
<text text-anchor="start" x="1117" y="-56.76" font-family="Times,serif" font-size="14.00">2</text>
<polygon fill="none" stroke="black" points="1137.5,-49.96 1137.5,-70.96 1171.5,-70.96 1171.5,-49.96 1137.5,-49.96"/>
<text text-anchor="start" x="1149.5" y="-56.76" font-family="Times,serif" font-size="14.00">1</text>
<polygon fill="none" stroke="black" points="1171.5,-49.96 1171.5,-70.96 1209.5,-70.96 1209.5,-49.96 1171.5,-49.96"/>
<text text-anchor="start" x="1181" y="-56.76" font-family="Times,serif" font-size="14.00">u1</text>
<polygon fill="none" stroke="black" points="1209.5,-49.96 1209.5,-70.96 1257.5,-70.96 1257.5,-49.96 1209.5,-49.96"/>
<text text-anchor="start" x="1218" y="-56.76" font-family="Times,serif" font-size="14.00">blue</text>
<polygon fill="none" stroke="black" points="1106.5,-28.96 1106.5,-49.96 1137.5,-49.96 1137.5,-28.96 1106.5,-28.96"/>
<text text-anchor="start" x="1117" y="-35.76" font-family="Times,serif" font-size="14.00">3</text>
<polygon fill="none" stroke="black" points="1137.5,-28.96 1137.5,-49.96 1171.5,-49.96 1171.5,-28.96 1137.5,-28.96"/>
<text text-anchor="start" x="1149.5" y="-35.76" font-family="Times,serif" font-size="14.00">1</text>
<polygon fill="none" stroke="black" points="1171.5,-28.96 1171.5,-49.96 1209.5,-49.96 1209.5,-28.96 1171.5,-28.96"/>
<text text-anchor="start" x="1181" y="-35.76" font-family="Times,serif" font-size="14.00">u1</text>
<polygon fill="none" stroke="black" points="1209.5,-28.96 1209.5,-49.96 1257.5,-49.96 1257.5,-28.96 1209.5,-28.96"/>
<text text-anchor="start" x="1212.5" y="-35.76" font-family="Times,serif" font-size="14.00">green</text>
</g>
<!-- col_table__seq&#45;&gt;color__seq -->
<g id="edge6" class="edge">
<title>col_table__seq:colors_type&#45;&gt;color__seq</title>
<path fill="none" stroke="black" stroke-width="2" d="M1055.5,-70.96C1066.01,-70.96 1076.99,-71.35 1087.9,-71.98"/>
<polygon fill="black" stroke="black" stroke-width="2" points="1087.68,-75.48 1097.89,-72.63 1088.13,-68.49 1087.68,-75.48"/>
</g>
</g>
</svg>
