<?xml version="1.0" encoding="UTF-8" standalone="no"?>
<!DOCTYPE svg PUBLIC "-//W3C//DTD SVG 1.1//EN"
 "http://www.w3.org/Graphics/SVG/1.1/DTD/svg11.dtd">
<!-- Generated by graphviz version 2.38.0 (20140413.2041)
 -->
<!-- Title: %3 Pages: 1 -->
<svg width="1310pt" height="523pt"
 viewBox="0.00 0.00 1310.00 523.00" xmlns="http://www.w3.org/2000/svg" xmlns:xlink="http://www.w3.org/1999/xlink">
<g id="graph0" class="graph" transform="scale(1 1) rotate(0) translate(4 519)">
<title>%3</title>
<polygon fill="white" stroke="none" points="-4,4 -4,-519 1306,-519 1306,4 -4,4"/>
<g id="clust1" class="cluster"><title>cluster__sudoers_ts</title>
<polygon fill="none" stroke="black" stroke-dasharray="1,5" points="8,-8 8,-507 1294,-507 1294,-8 8,-8"/>
<text text-anchor="middle" x="651" y="-491.8" font-family="Times,serif" font-size="14.00">SudoersTs</text>
</g>
<g id="clust2" class="cluster"><title>cluster__record_v2</title>
<polygon fill="none" stroke="black" stroke-dasharray="1,5" points="733,-239 733,-476 1011,-476 1011,-239 733,-239"/>
<text text-anchor="middle" x="872" y="-460.8" font-family="Times,serif" font-size="14.00">SudoersTs::RecordV2</text>
</g>
<g id="clust3" class="cluster"><title>cluster__ts_flag</title>
<polygon fill="none" stroke="black" stroke-dasharray="1,5" points="1031,-88 1031,-241 1286,-241 1286,-88 1031,-88"/>
<text text-anchor="middle" x="1158.5" y="-225.8" font-family="Times,serif" font-size="14.00">SudoersTs::TsFlag</text>
</g>
<g id="clust4" class="cluster"><title>cluster__record_v1</title>
<polygon fill="none" stroke="black" stroke-dasharray="1,5" points="739,-16 739,-231 1005,-231 1005,-16 739,-16"/>
<text text-anchor="middle" x="872" y="-215.8" font-family="Times,serif" font-size="14.00">SudoersTs::RecordV1</text>
</g>
<g id="clust5" class="cluster"><title>cluster__timespec</title>
<polygon fill="none" stroke="black" stroke-dasharray="1,5" points="1071,-259 1071,-370 1246,-370 1246,-259 1071,-259"/>
<text text-anchor="middle" x="1158.5" y="-354.8" font-family="Times,serif" font-size="14.00">SudoersTs::Timespec</text>
</g>
<g id="clust6" class="cluster"><title>cluster__record</title>
<polygon fill="none" stroke="black" stroke-dasharray="1,5" points="244,-196 244,-345 713,-345 713,-196 244,-196"/>
<text text-anchor="middle" x="478.5" y="-329.8" font-family="Times,serif" font-size="14.00">SudoersTs::Record</text>
</g>
<!-- sudoers_ts__seq -->
<g id="node1" class="node"><title>sudoers_ts__seq</title>
<polygon fill="#e0ffe0" stroke="none" points="24,-261 24,-282 55,-282 55,-261 24,-261"/>
<polygon fill="none" stroke="black" points="24,-261 24,-282 55,-282 55,-261 24,-261"/>
<text text-anchor="start" x="27" y="-267.8" font-family="Times,serif" font-size="14.00">pos</text>
<polygon fill="#e0ffe0" stroke="none" points="55,-261 55,-282 89,-282 89,-261 55,-261"/>
<polygon fill="none" stroke="black" points="55,-261 55,-282 89,-282 89,-261 55,-261"/>
<text text-anchor="start" x="58" y="-267.8" font-family="Times,serif" font-size="14.00">size</text>
<polygon fill="#e0ffe0" stroke="none" points="89,-261 89,-282 147,-282 147,-261 89,-261"/>
<polygon fill="none" stroke="black" points="89,-261 89,-282 147,-282 147,-261 89,-261"/>
<text text-anchor="start" x="102" y="-267.8" font-family="Times,serif" font-size="14.00">type</text>
<polygon fill="#e0ffe0" stroke="none" points="147,-261 147,-282 208,-282 208,-261 147,-261"/>
<polygon fill="none" stroke="black" points="147,-261 147,-282 208,-282 208,-261 147,-261"/>
<text text-anchor="start" x="170.5" y="-267.8" font-family="Times,serif" font-size="14.00">id</text>
<polygon fill="none" stroke="black" points="24,-240 24,-261 55,-261 55,-240 24,-240"/>
<text text-anchor="start" x="34.5" y="-246.8" font-family="Times,serif" font-size="14.00">0</text>
<polygon fill="none" stroke="black" points="55,-240 55,-261 89,-261 89,-240 55,-240"/>
<text text-anchor="start" x="65" y="-246.8" font-family="Times,serif" font-size="14.00">...</text>
<polygon fill="none" stroke="black" points="89,-240 89,-261 147,-261 147,-240 89,-240"/>
<text text-anchor="start" x="92" y="-246.8" font-family="Times,serif" font-size="14.00">Record</text>
<polygon fill="none" stroke="black" points="147,-240 147,-261 208,-261 208,-240 147,-240"/>
<text text-anchor="start" x="150" y="-246.8" font-family="Times,serif" font-size="14.00">records</text>
<polygon fill="none" stroke="black" points="24,-219 24,-240 208,-240 208,-219 24,-219"/>
<text text-anchor="start" x="31.5" y="-225.8" font-family="Times,serif" font-size="14.00">repeat to end of stream</text>
</g>
<!-- record__seq -->
<g id="node6" class="node"><title>record__seq</title>
<polygon fill="#e0ffe0" stroke="none" points="260.5,-271 260.5,-292 291.5,-292 291.5,-271 260.5,-271"/>
<polygon fill="none" stroke="black" points="260.5,-271 260.5,-292 291.5,-292 291.5,-271 260.5,-271"/>
<text text-anchor="start" x="263.5" y="-277.8" font-family="Times,serif" font-size="14.00">pos</text>
<polygon fill="#e0ffe0" stroke="none" points="291.5,-271 291.5,-292 325.5,-292 325.5,-271 291.5,-271"/>
<polygon fill="none" stroke="black" points="291.5,-271 291.5,-292 325.5,-292 325.5,-271 291.5,-271"/>
<text text-anchor="start" x="294.5" y="-277.8" font-family="Times,serif" font-size="14.00">size</text>
<polygon fill="#e0ffe0" stroke="none" points="325.5,-271 325.5,-292 446.5,-292 446.5,-271 325.5,-271"/>
<polygon fill="none" stroke="black" points="325.5,-271 325.5,-292 446.5,-292 446.5,-271 325.5,-271"/>
<text text-anchor="start" x="370" y="-277.8" font-family="Times,serif" font-size="14.00">type</text>
<polygon fill="#e0ffe0" stroke="none" points="446.5,-271 446.5,-292 529.5,-292 529.5,-271 446.5,-271"/>
<polygon fill="none" stroke="black" points="446.5,-271 446.5,-292 529.5,-292 529.5,-271 446.5,-271"/>
<text text-anchor="start" x="481" y="-277.8" font-family="Times,serif" font-size="14.00">id</text>
<polygon fill="none" stroke="black" points="260.5,-250 260.5,-271 291.5,-271 291.5,-250 260.5,-250"/>
<text text-anchor="start" x="271" y="-256.8" font-family="Times,serif" font-size="14.00">0</text>
<polygon fill="none" stroke="black" points="291.5,-250 291.5,-271 325.5,-271 325.5,-250 291.5,-250"/>
<text text-anchor="start" x="303.5" y="-256.8" font-family="Times,serif" font-size="14.00">2</text>
<polygon fill="none" stroke="black" points="325.5,-250 325.5,-271 446.5,-271 446.5,-250 325.5,-250"/>
<text text-anchor="start" x="370.5" y="-256.8" font-family="Times,serif" font-size="14.00">u2le</text>
<polygon fill="none" stroke="black" points="446.5,-250 446.5,-271 529.5,-271 529.5,-250 446.5,-250"/>
<text text-anchor="start" x="461.5" y="-256.8" font-family="Times,serif" font-size="14.00">version</text>
<polygon fill="none" stroke="black" points="260.5,-229 260.5,-250 291.5,-250 291.5,-229 260.5,-229"/>
<text text-anchor="start" x="271" y="-235.8" font-family="Times,serif" font-size="14.00">2</text>
<polygon fill="none" stroke="black" points="291.5,-229 291.5,-250 325.5,-250 325.5,-229 291.5,-229"/>
<text text-anchor="start" x="303.5" y="-235.8" font-family="Times,serif" font-size="14.00">2</text>
<polygon fill="none" stroke="black" points="325.5,-229 325.5,-250 446.5,-250 446.5,-229 325.5,-229"/>
<text text-anchor="start" x="370.5" y="-235.8" font-family="Times,serif" font-size="14.00">u2le</text>
<polygon fill="none" stroke="black" points="446.5,-229 446.5,-250 529.5,-250 529.5,-229 446.5,-229"/>
<text text-anchor="start" x="449.5" y="-235.8" font-family="Times,serif" font-size="14.00">len_record</text>
<polygon fill="none" stroke="black" points="260.5,-208 260.5,-229 291.5,-229 291.5,-208 260.5,-208"/>
<text text-anchor="start" x="271" y="-214.8" font-family="Times,serif" font-size="14.00">4</text>
<polygon fill="none" stroke="black" points="291.5,-208 291.5,-229 325.5,-229 325.5,-208 291.5,-208"/>
<text text-anchor="start" x="301.5" y="-214.8" font-family="Times,serif" font-size="14.00">...</text>
<polygon fill="none" stroke="black" points="325.5,-208 325.5,-229 446.5,-229 446.5,-208 325.5,-208"/>
<text text-anchor="start" x="328.5" y="-214.8" font-family="Times,serif" font-size="14.00">switch (version)</text>
<polygon fill="none" stroke="black" points="446.5,-208 446.5,-229 529.5,-229 529.5,-208 446.5,-208"/>
<text text-anchor="start" x="460" y="-214.8" font-family="Times,serif" font-size="14.00">payload</text>
</g>
<!-- sudoers_ts__seq&#45;&gt;record__seq -->
<g id="edge1" class="edge"><title>sudoers_ts__seq:records_type&#45;&gt;record__seq</title>
<path fill="none" stroke="black" stroke-width="2" d="M209,-250C219.668,-250 230.683,-250 241.774,-250"/>
<polygon fill="black" stroke="black" stroke-width="2" points="241.973,-253.5 251.973,-250 241.973,-246.5 241.973,-253.5"/>
</g>
<!-- record_v2__seq -->
<g id="node2" class="node"><title>record_v2__seq</title>
<polygon fill="#e0ffe0" stroke="none" points="749,-419 749,-440 780,-440 780,-419 749,-419"/>
<polygon fill="none" stroke="black" points="749,-419 749,-440 780,-440 780,-419 749,-419"/>
<text text-anchor="start" x="752" y="-425.8" font-family="Times,serif" font-size="14.00">pos</text>
<polygon fill="#e0ffe0" stroke="none" points="780,-419 780,-440 814,-440 814,-419 780,-419"/>
<polygon fill="none" stroke="black" points="780,-419 780,-440 814,-440 814,-419 780,-419"/>
<text text-anchor="start" x="783" y="-425.8" font-family="Times,serif" font-size="14.00">size</text>
<polygon fill="#e0ffe0" stroke="none" points="814,-419 814,-440 914,-440 914,-419 814,-419"/>
<polygon fill="none" stroke="black" points="814,-419 814,-440 914,-440 914,-419 814,-419"/>
<text text-anchor="start" x="848" y="-425.8" font-family="Times,serif" font-size="14.00">type</text>
<polygon fill="#e0ffe0" stroke="none" points="914,-419 914,-440 995,-440 995,-419 914,-419"/>
<polygon fill="none" stroke="black" points="914,-419 914,-440 995,-440 995,-419 914,-419"/>
<text text-anchor="start" x="947.5" y="-425.8" font-family="Times,serif" font-size="14.00">id</text>
<polygon fill="none" stroke="black" points="749,-398 749,-419 780,-419 780,-398 749,-398"/>
<text text-anchor="start" x="759.5" y="-404.8" font-family="Times,serif" font-size="14.00">0</text>
<polygon fill="none" stroke="black" points="780,-398 780,-419 814,-419 814,-398 780,-398"/>
<text text-anchor="start" x="792" y="-404.8" font-family="Times,serif" font-size="14.00">2</text>
<polygon fill="none" stroke="black" points="814,-398 814,-419 914,-419 914,-398 814,-398"/>
<text text-anchor="start" x="817" y="-404.8" font-family="Times,serif" font-size="14.00">u2le→TsType</text>
<polygon fill="none" stroke="black" points="914,-398 914,-419 995,-419 995,-398 914,-398"/>
<text text-anchor="start" x="938.5" y="-404.8" font-family="Times,serif" font-size="14.00">type</text>
<polygon fill="none" stroke="black" points="749,-377 749,-398 780,-398 780,-377 749,-377"/>
<text text-anchor="start" x="759.5" y="-383.8" font-family="Times,serif" font-size="14.00">2</text>
<polygon fill="none" stroke="black" points="780,-377 780,-398 814,-398 814,-377 780,-377"/>
<text text-anchor="start" x="792" y="-383.8" font-family="Times,serif" font-size="14.00">2</text>
<polygon fill="none" stroke="black" points="814,-377 814,-398 914,-398 914,-377 814,-377"/>
<text text-anchor="start" x="840" y="-383.8" font-family="Times,serif" font-size="14.00">TsFlag</text>
<polygon fill="none" stroke="black" points="914,-377 914,-398 995,-398 995,-377 914,-377"/>
<text text-anchor="start" x="937.5" y="-383.8" font-family="Times,serif" font-size="14.00">flags</text>
<polygon fill="none" stroke="black" points="749,-356 749,-377 780,-377 780,-356 749,-356"/>
<text text-anchor="start" x="759.5" y="-362.8" font-family="Times,serif" font-size="14.00">4</text>
<polygon fill="none" stroke="black" points="780,-356 780,-377 814,-377 814,-356 780,-356"/>
<text text-anchor="start" x="792" y="-362.8" font-family="Times,serif" font-size="14.00">4</text>
<polygon fill="none" stroke="black" points="814,-356 814,-377 914,-377 914,-356 814,-356"/>
<text text-anchor="start" x="848.5" y="-362.8" font-family="Times,serif" font-size="14.00">u4le</text>
<polygon fill="none" stroke="black" points="914,-356 914,-377 995,-377 995,-356 914,-356"/>
<text text-anchor="start" x="923" y="-362.8" font-family="Times,serif" font-size="14.00">auth_uid</text>
<polygon fill="none" stroke="black" points="749,-335 749,-356 780,-356 780,-335 749,-335"/>
<text text-anchor="start" x="759.5" y="-341.8" font-family="Times,serif" font-size="14.00">8</text>
<polygon fill="none" stroke="black" points="780,-335 780,-356 814,-356 814,-335 780,-335"/>
<text text-anchor="start" x="792" y="-341.8" font-family="Times,serif" font-size="14.00">4</text>
<polygon fill="none" stroke="black" points="814,-335 814,-356 914,-356 914,-335 814,-335"/>
<text text-anchor="start" x="848.5" y="-341.8" font-family="Times,serif" font-size="14.00">u4le</text>
<polygon fill="none" stroke="black" points="914,-335 914,-356 995,-356 995,-335 914,-335"/>
<text text-anchor="start" x="943.5" y="-341.8" font-family="Times,serif" font-size="14.00">sid</text>
<polygon fill="none" stroke="black" points="749,-314 749,-335 780,-335 780,-314 749,-314"/>
<text text-anchor="start" x="755" y="-320.8" font-family="Times,serif" font-size="14.00">12</text>
<polygon fill="none" stroke="black" points="780,-314 780,-335 814,-335 814,-314 780,-314"/>
<text text-anchor="start" x="787.5" y="-320.8" font-family="Times,serif" font-size="14.00">16</text>
<polygon fill="none" stroke="black" points="814,-314 814,-335 914,-335 914,-314 814,-314"/>
<text text-anchor="start" x="829.5" y="-320.8" font-family="Times,serif" font-size="14.00">Timespec</text>
<polygon fill="none" stroke="black" points="914,-314 914,-335 995,-335 995,-314 914,-314"/>
<text text-anchor="start" x="917" y="-320.8" font-family="Times,serif" font-size="14.00">start_time</text>
<polygon fill="none" stroke="black" points="749,-293 749,-314 780,-314 780,-293 749,-293"/>
<text text-anchor="start" x="755" y="-299.8" font-family="Times,serif" font-size="14.00">28</text>
<polygon fill="none" stroke="black" points="780,-293 780,-314 814,-314 814,-293 780,-293"/>
<text text-anchor="start" x="787.5" y="-299.8" font-family="Times,serif" font-size="14.00">16</text>
<polygon fill="none" stroke="black" points="814,-293 814,-314 914,-314 914,-293 814,-293"/>
<text text-anchor="start" x="829.5" y="-299.8" font-family="Times,serif" font-size="14.00">Timespec</text>
<polygon fill="none" stroke="black" points="914,-293 914,-314 995,-314 995,-293 914,-293"/>
<text text-anchor="start" x="947.5" y="-299.8" font-family="Times,serif" font-size="14.00">ts</text>
<polygon fill="none" stroke="black" points="749,-272 749,-293 780,-293 780,-272 749,-272"/>
<text text-anchor="start" x="755" y="-278.8" font-family="Times,serif" font-size="14.00">44</text>
<polygon fill="none" stroke="black" points="780,-272 780,-293 814,-293 814,-272 780,-272"/>
<text text-anchor="start" x="792" y="-278.8" font-family="Times,serif" font-size="14.00">4</text>
<polygon fill="none" stroke="black" points="814,-272 814,-293 914,-293 914,-272 814,-272"/>
<text text-anchor="start" x="848.5" y="-278.8" font-family="Times,serif" font-size="14.00">u4le</text>
<polygon fill="none" stroke="black" points="914,-272 914,-293 995,-293 995,-272 914,-272"/>
<text text-anchor="start" x="931.5" y="-278.8" font-family="Times,serif" font-size="14.00">ttydev</text>
<polygon fill="none" stroke="black" points="749,-251 749,-272 780,-272 780,-251 749,-251"/>
<text text-anchor="start" x="755" y="-257.8" font-family="Times,serif" font-size="14.00">48</text>
<polygon fill="none" stroke="black" points="780,-251 780,-272 814,-272 814,-251 780,-251"/>
<text text-anchor="start" x="792" y="-257.8" font-family="Times,serif" font-size="14.00">4</text>
<polygon fill="none" stroke="black" points="814,-251 814,-272 914,-272 914,-251 814,-251"/>
<text text-anchor="start" x="848.5" y="-257.8" font-family="Times,serif" font-size="14.00">u4le</text>
<polygon fill="none" stroke="black" points="914,-251 914,-272 995,-272 995,-251 914,-251"/>
<text text-anchor="start" x="938.5" y="-257.8" font-family="Times,serif" font-size="14.00">ppid</text>
</g>
<!-- ts_flag__seq -->
<g id="node3" class="node"><title>ts_flag__seq</title>
<polygon fill="#e0ffe0" stroke="none" points="1047.5,-184 1047.5,-205 1078.5,-205 1078.5,-184 1047.5,-184"/>
<polygon fill="none" stroke="black" points="1047.5,-184 1047.5,-205 1078.5,-205 1078.5,-184 1047.5,-184"/>
<text text-anchor="start" x="1050.5" y="-190.8" font-family="Times,serif" font-size="14.00">pos</text>
<polygon fill="#e0ffe0" stroke="none" points="1078.5,-184 1078.5,-205 1112.5,-205 1112.5,-184 1078.5,-184"/>
<polygon fill="none" stroke="black" points="1078.5,-184 1078.5,-205 1112.5,-205 1112.5,-184 1078.5,-184"/>
<text text-anchor="start" x="1081.5" y="-190.8" font-family="Times,serif" font-size="14.00">size</text>
<polygon fill="#e0ffe0" stroke="none" points="1112.5,-184 1112.5,-205 1191.5,-205 1191.5,-184 1112.5,-184"/>
<polygon fill="none" stroke="black" points="1112.5,-184 1112.5,-205 1191.5,-205 1191.5,-184 1112.5,-184"/>
<text text-anchor="start" x="1136" y="-190.8" font-family="Times,serif" font-size="14.00">type</text>
<polygon fill="#e0ffe0" stroke="none" points="1191.5,-184 1191.5,-205 1270.5,-205 1270.5,-184 1191.5,-184"/>
<polygon fill="none" stroke="black" points="1191.5,-184 1191.5,-205 1270.5,-205 1270.5,-184 1191.5,-184"/>
<text text-anchor="start" x="1224" y="-190.8" font-family="Times,serif" font-size="14.00">id</text>
<polygon fill="none" stroke="black" points="1047.5,-163 1047.5,-184 1078.5,-184 1078.5,-163 1047.5,-163"/>
<text text-anchor="start" x="1058" y="-169.8" font-family="Times,serif" font-size="14.00">0</text>
<polygon fill="none" stroke="black" points="1078.5,-163 1078.5,-184 1112.5,-184 1112.5,-163 1078.5,-163"/>
<text text-anchor="start" x="1086" y="-169.8" font-family="Times,serif" font-size="14.00">6b</text>
<polygon fill="none" stroke="black" points="1112.5,-163 1112.5,-184 1191.5,-184 1191.5,-163 1112.5,-163"/>
<text text-anchor="start" x="1142.5" y="-169.8" font-family="Times,serif" font-size="14.00">b6</text>
<polygon fill="none" stroke="black" points="1191.5,-163 1191.5,-184 1270.5,-184 1270.5,-163 1191.5,-163"/>
<text text-anchor="start" x="1194.5" y="-169.8" font-family="Times,serif" font-size="14.00">reserved0</text>
<polygon fill="none" stroke="black" points="1047.5,-142 1047.5,-163 1078.5,-163 1078.5,-142 1047.5,-142"/>
<text text-anchor="start" x="1051.5" y="-148.8" font-family="Times,serif" font-size="14.00">0:6</text>
<polygon fill="none" stroke="black" points="1078.5,-142 1078.5,-163 1112.5,-163 1112.5,-142 1078.5,-142"/>
<text text-anchor="start" x="1086" y="-148.8" font-family="Times,serif" font-size="14.00">1b</text>
<polygon fill="none" stroke="black" points="1112.5,-142 1112.5,-163 1191.5,-163 1191.5,-142 1112.5,-142"/>
<text text-anchor="start" x="1115.5" y="-148.8" font-family="Times,serif" font-size="14.00">BitsType1</text>
<polygon fill="none" stroke="black" points="1191.5,-142 1191.5,-163 1270.5,-163 1270.5,-142 1191.5,-142"/>
<text text-anchor="start" x="1206.5" y="-148.8" font-family="Times,serif" font-size="14.00">anyuid</text>
<polygon fill="none" stroke="black" points="1047.5,-121 1047.5,-142 1078.5,-142 1078.5,-121 1047.5,-121"/>
<text text-anchor="start" x="1051.5" y="-127.8" font-family="Times,serif" font-size="14.00">0:7</text>
<polygon fill="none" stroke="black" points="1078.5,-121 1078.5,-142 1112.5,-142 1112.5,-121 1078.5,-121"/>
<text text-anchor="start" x="1086" y="-127.8" font-family="Times,serif" font-size="14.00">1b</text>
<polygon fill="none" stroke="black" points="1112.5,-121 1112.5,-142 1191.5,-142 1191.5,-121 1112.5,-121"/>
<text text-anchor="start" x="1115.5" y="-127.8" font-family="Times,serif" font-size="14.00">BitsType1</text>
<polygon fill="none" stroke="black" points="1191.5,-121 1191.5,-142 1270.5,-142 1270.5,-121 1191.5,-121"/>
<text text-anchor="start" x="1200.5" y="-127.8" font-family="Times,serif" font-size="14.00">disabled</text>
<polygon fill="none" stroke="black" points="1047.5,-100 1047.5,-121 1078.5,-121 1078.5,-100 1047.5,-100"/>
<text text-anchor="start" x="1058" y="-106.8" font-family="Times,serif" font-size="14.00">1</text>
<polygon fill="none" stroke="black" points="1078.5,-100 1078.5,-121 1112.5,-121 1112.5,-100 1078.5,-100"/>
<text text-anchor="start" x="1090.5" y="-106.8" font-family="Times,serif" font-size="14.00">1</text>
<polygon fill="none" stroke="black" points="1112.5,-100 1112.5,-121 1191.5,-121 1191.5,-100 1112.5,-100"/>
<text text-anchor="start" x="1142.5" y="-106.8" font-family="Times,serif" font-size="14.00">b8</text>
<polygon fill="none" stroke="black" points="1191.5,-100 1191.5,-121 1270.5,-121 1270.5,-100 1191.5,-100"/>
<text text-anchor="start" x="1194.5" y="-106.8" font-family="Times,serif" font-size="14.00">reserved1</text>
</g>
<!-- record_v2__seq&#45;&gt;ts_flag__seq -->
<g id="edge2" class="edge"><title>record_v2__seq:flags_type&#45;&gt;ts_flag__seq</title>
<path fill="none" stroke="black" stroke-width="2" d="M996,-388C1057.12,-388 997.771,-306.302 1031,-255 1040.04,-241.045 1051.62,-228.11 1064.09,-216.464"/>
<polygon fill="black" stroke="black" stroke-width="2" points="1066.45,-219.055 1071.53,-209.758 1061.76,-213.857 1066.45,-219.055"/>
</g>
<!-- timespec__seq -->
<g id="node5" class="node"><title>timespec__seq</title>
<polygon fill="#e0ffe0" stroke="none" points="1087.5,-313 1087.5,-334 1118.5,-334 1118.5,-313 1087.5,-313"/>
<polygon fill="none" stroke="black" points="1087.5,-313 1087.5,-334 1118.5,-334 1118.5,-313 1087.5,-313"/>
<text text-anchor="start" x="1090.5" y="-319.8" font-family="Times,serif" font-size="14.00">pos</text>
<polygon fill="#e0ffe0" stroke="none" points="1118.5,-313 1118.5,-334 1152.5,-334 1152.5,-313 1118.5,-313"/>
<polygon fill="none" stroke="black" points="1118.5,-313 1118.5,-334 1152.5,-334 1152.5,-313 1118.5,-313"/>
<text text-anchor="start" x="1121.5" y="-319.8" font-family="Times,serif" font-size="14.00">size</text>
<polygon fill="#e0ffe0" stroke="none" points="1152.5,-313 1152.5,-334 1190.5,-334 1190.5,-313 1152.5,-313"/>
<polygon fill="none" stroke="black" points="1152.5,-313 1152.5,-334 1190.5,-334 1190.5,-313 1152.5,-313"/>
<text text-anchor="start" x="1155.5" y="-319.8" font-family="Times,serif" font-size="14.00">type</text>
<polygon fill="#e0ffe0" stroke="none" points="1190.5,-313 1190.5,-334 1230.5,-334 1230.5,-313 1190.5,-313"/>
<polygon fill="none" stroke="black" points="1190.5,-313 1190.5,-334 1230.5,-334 1230.5,-313 1190.5,-313"/>
<text text-anchor="start" x="1203.5" y="-319.8" font-family="Times,serif" font-size="14.00">id</text>
<polygon fill="none" stroke="black" points="1087.5,-292 1087.5,-313 1118.5,-313 1118.5,-292 1087.5,-292"/>
<text text-anchor="start" x="1098" y="-298.8" font-family="Times,serif" font-size="14.00">0</text>
<polygon fill="none" stroke="black" points="1118.5,-292 1118.5,-313 1152.5,-313 1152.5,-292 1118.5,-292"/>
<text text-anchor="start" x="1130.5" y="-298.8" font-family="Times,serif" font-size="14.00">8</text>
<polygon fill="none" stroke="black" points="1152.5,-292 1152.5,-313 1190.5,-313 1190.5,-292 1152.5,-292"/>
<text text-anchor="start" x="1156.5" y="-298.8" font-family="Times,serif" font-size="14.00">s8le</text>
<polygon fill="none" stroke="black" points="1190.5,-292 1190.5,-313 1230.5,-313 1230.5,-292 1190.5,-292"/>
<text text-anchor="start" x="1198" y="-298.8" font-family="Times,serif" font-size="14.00">sec</text>
<polygon fill="none" stroke="black" points="1087.5,-271 1087.5,-292 1118.5,-292 1118.5,-271 1087.5,-271"/>
<text text-anchor="start" x="1098" y="-277.8" font-family="Times,serif" font-size="14.00">8</text>
<polygon fill="none" stroke="black" points="1118.5,-271 1118.5,-292 1152.5,-292 1152.5,-271 1118.5,-271"/>
<text text-anchor="start" x="1130.5" y="-277.8" font-family="Times,serif" font-size="14.00">8</text>
<polygon fill="none" stroke="black" points="1152.5,-271 1152.5,-292 1190.5,-292 1190.5,-271 1152.5,-271"/>
<text text-anchor="start" x="1156.5" y="-277.8" font-family="Times,serif" font-size="14.00">s8le</text>
<polygon fill="none" stroke="black" points="1190.5,-271 1190.5,-292 1230.5,-292 1230.5,-271 1190.5,-271"/>
<text text-anchor="start" x="1193.5" y="-277.8" font-family="Times,serif" font-size="14.00">nsec</text>
</g>
<!-- record_v2__seq&#45;&gt;timespec__seq -->
<g id="edge3" class="edge"><title>record_v2__seq:start_time_type&#45;&gt;timespec__seq</title>
<path fill="none" stroke="black" stroke-width="2" d="M996,-324C1019.75,-324 1045.3,-321.739 1068.92,-318.701"/>
<polygon fill="black" stroke="black" stroke-width="2" points="1069.46,-322.159 1078.91,-317.355 1068.53,-315.221 1069.46,-322.159"/>
</g>
<!-- record_v2__seq&#45;&gt;timespec__seq -->
<g id="edge4" class="edge"><title>record_v2__seq:ts_type&#45;&gt;timespec__seq</title>
<path fill="none" stroke="black" stroke-width="2" d="M996,-303C1019.45,-303 1044.81,-303 1068.33,-303"/>
<polygon fill="black" stroke="black" stroke-width="2" points="1068.64,-306.5 1078.64,-303 1068.64,-299.5 1068.64,-306.5"/>
</g>
<!-- record_v1__seq -->
<g id="node4" class="node"><title>record_v1__seq</title>
<polygon fill="#e0ffe0" stroke="none" points="755,-175 755,-196 786,-196 786,-175 755,-175"/>
<polygon fill="none" stroke="black" points="755,-175 755,-196 786,-196 786,-175 755,-175"/>
<text text-anchor="start" x="758" y="-181.8" font-family="Times,serif" font-size="14.00">pos</text>
<polygon fill="#e0ffe0" stroke="none" points="786,-175 786,-196 820,-196 820,-175 786,-175"/>
<polygon fill="none" stroke="black" points="786,-175 786,-196 820,-196 820,-175 786,-175"/>
<text text-anchor="start" x="789" y="-181.8" font-family="Times,serif" font-size="14.00">size</text>
<polygon fill="#e0ffe0" stroke="none" points="820,-175 820,-196 920,-196 920,-175 820,-175"/>
<polygon fill="none" stroke="black" points="820,-175 820,-196 920,-196 920,-175 820,-175"/>
<text text-anchor="start" x="854" y="-181.8" font-family="Times,serif" font-size="14.00">type</text>
<polygon fill="#e0ffe0" stroke="none" points="920,-175 920,-196 989,-196 989,-175 920,-175"/>
<polygon fill="none" stroke="black" points="920,-175 920,-196 989,-196 989,-175 920,-175"/>
<text text-anchor="start" x="947.5" y="-181.8" font-family="Times,serif" font-size="14.00">id</text>
<polygon fill="none" stroke="black" points="755,-154 755,-175 786,-175 786,-154 755,-154"/>
<text text-anchor="start" x="765.5" y="-160.8" font-family="Times,serif" font-size="14.00">0</text>
<polygon fill="none" stroke="black" points="786,-154 786,-175 820,-175 820,-154 786,-154"/>
<text text-anchor="start" x="798" y="-160.8" font-family="Times,serif" font-size="14.00">2</text>
<polygon fill="none" stroke="black" points="820,-154 820,-175 920,-175 920,-154 820,-154"/>
<text text-anchor="start" x="823" y="-160.8" font-family="Times,serif" font-size="14.00">u2le→TsType</text>
<polygon fill="none" stroke="black" points="920,-154 920,-175 989,-175 989,-154 920,-154"/>
<text text-anchor="start" x="938.5" y="-160.8" font-family="Times,serif" font-size="14.00">type</text>
<polygon fill="none" stroke="black" points="755,-133 755,-154 786,-154 786,-133 755,-133"/>
<text text-anchor="start" x="765.5" y="-139.8" font-family="Times,serif" font-size="14.00">2</text>
<polygon fill="none" stroke="black" points="786,-133 786,-154 820,-154 820,-133 786,-133"/>
<text text-anchor="start" x="798" y="-139.8" font-family="Times,serif" font-size="14.00">2</text>
<polygon fill="none" stroke="black" points="820,-133 820,-154 920,-154 920,-133 820,-133"/>
<text text-anchor="start" x="846" y="-139.8" font-family="Times,serif" font-size="14.00">TsFlag</text>
<polygon fill="none" stroke="black" points="920,-133 920,-154 989,-154 989,-133 920,-133"/>
<text text-anchor="start" x="937.5" y="-139.8" font-family="Times,serif" font-size="14.00">flags</text>
<polygon fill="none" stroke="black" points="755,-112 755,-133 786,-133 786,-112 755,-112"/>
<text text-anchor="start" x="765.5" y="-118.8" font-family="Times,serif" font-size="14.00">4</text>
<polygon fill="none" stroke="black" points="786,-112 786,-133 820,-133 820,-112 786,-112"/>
<text text-anchor="start" x="798" y="-118.8" font-family="Times,serif" font-size="14.00">4</text>
<polygon fill="none" stroke="black" points="820,-112 820,-133 920,-133 920,-112 820,-112"/>
<text text-anchor="start" x="854.5" y="-118.8" font-family="Times,serif" font-size="14.00">u4le</text>
<polygon fill="none" stroke="black" points="920,-112 920,-133 989,-133 989,-112 920,-112"/>
<text text-anchor="start" x="923" y="-118.8" font-family="Times,serif" font-size="14.00">auth_uid</text>
<polygon fill="none" stroke="black" points="755,-91 755,-112 786,-112 786,-91 755,-91"/>
<text text-anchor="start" x="765.5" y="-97.8" font-family="Times,serif" font-size="14.00">8</text>
<polygon fill="none" stroke="black" points="786,-91 786,-112 820,-112 820,-91 786,-91"/>
<text text-anchor="start" x="798" y="-97.8" font-family="Times,serif" font-size="14.00">4</text>
<polygon fill="none" stroke="black" points="820,-91 820,-112 920,-112 920,-91 820,-91"/>
<text text-anchor="start" x="854.5" y="-97.8" font-family="Times,serif" font-size="14.00">u4le</text>
<polygon fill="none" stroke="black" points="920,-91 920,-112 989,-112 989,-91 920,-91"/>
<text text-anchor="start" x="943.5" y="-97.8" font-family="Times,serif" font-size="14.00">sid</text>
<polygon fill="none" stroke="black" points="755,-70 755,-91 786,-91 786,-70 755,-70"/>
<text text-anchor="start" x="761" y="-76.8" font-family="Times,serif" font-size="14.00">12</text>
<polygon fill="none" stroke="black" points="786,-70 786,-91 820,-91 820,-70 786,-70"/>
<text text-anchor="start" x="793.5" y="-76.8" font-family="Times,serif" font-size="14.00">16</text>
<polygon fill="none" stroke="black" points="820,-70 820,-91 920,-91 920,-70 820,-70"/>
<text text-anchor="start" x="835.5" y="-76.8" font-family="Times,serif" font-size="14.00">Timespec</text>
<polygon fill="none" stroke="black" points="920,-70 920,-91 989,-91 989,-70 920,-70"/>
<text text-anchor="start" x="947.5" y="-76.8" font-family="Times,serif" font-size="14.00">ts</text>
<polygon fill="none" stroke="black" points="755,-49 755,-70 786,-70 786,-49 755,-49"/>
<text text-anchor="start" x="761" y="-55.8" font-family="Times,serif" font-size="14.00">28</text>
<polygon fill="none" stroke="black" points="786,-49 786,-70 820,-70 820,-49 786,-49"/>
<text text-anchor="start" x="798" y="-55.8" font-family="Times,serif" font-size="14.00">4</text>
<polygon fill="none" stroke="black" points="820,-49 820,-70 920,-70 920,-49 820,-49"/>
<text text-anchor="start" x="854.5" y="-55.8" font-family="Times,serif" font-size="14.00">u4le</text>
<polygon fill="none" stroke="black" points="920,-49 920,-70 989,-70 989,-49 920,-49"/>
<text text-anchor="start" x="931.5" y="-55.8" font-family="Times,serif" font-size="14.00">ttydev</text>
<polygon fill="none" stroke="black" points="755,-28 755,-49 786,-49 786,-28 755,-28"/>
<text text-anchor="start" x="761" y="-34.8" font-family="Times,serif" font-size="14.00">32</text>
<polygon fill="none" stroke="black" points="786,-28 786,-49 820,-49 820,-28 786,-28"/>
<text text-anchor="start" x="798" y="-34.8" font-family="Times,serif" font-size="14.00">4</text>
<polygon fill="none" stroke="black" points="820,-28 820,-49 920,-49 920,-28 820,-28"/>
<text text-anchor="start" x="854.5" y="-34.8" font-family="Times,serif" font-size="14.00">u4le</text>
<polygon fill="none" stroke="black" points="920,-28 920,-49 989,-49 989,-28 920,-28"/>
<text text-anchor="start" x="938.5" y="-34.8" font-family="Times,serif" font-size="14.00">ppid</text>
</g>
<!-- record_v1__seq&#45;&gt;ts_flag__seq -->
<g id="edge5" class="edge"><title>record_v1__seq:flags_type&#45;&gt;ts_flag__seq</title>
<path fill="none" stroke="black" stroke-width="2" d="M990,-144C1002.41,-144 1015.33,-144.249 1028.24,-144.665"/>
<polygon fill="black" stroke="black" stroke-width="2" points="1028.47,-148.175 1038.59,-145.032 1028.72,-141.18 1028.47,-148.175"/>
</g>
<!-- record_v1__seq&#45;&gt;timespec__seq -->
<g id="edge6" class="edge"><title>record_v1__seq:ts_type&#45;&gt;timespec__seq</title>
<path fill="none" stroke="black" stroke-width="2" d="M990,-80C1065.56,-80 982.772,-186.829 1031,-245 1041.41,-257.553 1055.12,-267.518 1069.67,-275.388"/>
<polygon fill="black" stroke="black" stroke-width="2" points="1068.32,-278.625 1078.82,-280.022 1071.48,-272.38 1068.32,-278.625"/>
</g>
<!-- record__seq&#45;&gt;record__seq -->
<g id="edge10" class="edge"><title>record__seq:version_type&#45;&gt;record__seq:payload_type</title>
<path fill="none" stroke="#404040" d="M465.368,-271.046C428.844,-291.037 436.555,-314 488.5,-314 537.472,-314 547.128,-265.875 517.468,-235.858"/>
<polygon fill="#404040" stroke="#404040" points="519.427,-232.924 509.577,-229.022 514.844,-238.215 519.427,-232.924"/>
</g>
<!-- record__seq_payload_switch -->
<g id="node7" class="node"><title>record__seq_payload_switch</title>
<polygon fill="#f0f2e4" stroke="none" points="581,-250 581,-271 620,-271 620,-250 581,-250"/>
<polygon fill="none" stroke="black" points="581,-250 581,-271 620,-271 620,-250 581,-250"/>
<text text-anchor="start" x="584" y="-256.8" font-family="Times,serif" font-size="14.00">case</text>
<polygon fill="#f0f2e4" stroke="none" points="620,-250 620,-271 697,-271 697,-250 620,-250"/>
<polygon fill="none" stroke="black" points="620,-250 620,-271 697,-271 697,-250 620,-250"/>
<text text-anchor="start" x="642.5" y="-256.8" font-family="Times,serif" font-size="14.00">type</text>
<polygon fill="none" stroke="black" points="581,-229 581,-250 620,-250 620,-229 581,-229"/>
<text text-anchor="start" x="595.5" y="-235.8" font-family="Times,serif" font-size="14.00">1</text>
<polygon fill="none" stroke="black" points="620,-229 620,-250 697,-250 697,-229 620,-229"/>
<text text-anchor="start" x="623" y="-235.8" font-family="Times,serif" font-size="14.00">RecordV1</text>
<polygon fill="none" stroke="black" points="581,-208 581,-229 620,-229 620,-208 581,-208"/>
<text text-anchor="start" x="595.5" y="-214.8" font-family="Times,serif" font-size="14.00">2</text>
<polygon fill="none" stroke="black" points="620,-208 620,-229 697,-229 697,-208 620,-208"/>
<text text-anchor="start" x="623" y="-214.8" font-family="Times,serif" font-size="14.00">RecordV2</text>
</g>
<!-- record__seq&#45;&gt;record__seq_payload_switch -->
<g id="edge7" class="edge"><title>record__seq:payload_type&#45;&gt;record__seq_payload_switch</title>
<path fill="none" stroke="black" stroke-width="2" d="M530.5,-218C540.966,-218 551.892,-219.013 562.597,-220.605"/>
<polygon fill="black" stroke="black" stroke-width="2" points="562.333,-224.109 572.771,-222.294 563.479,-217.203 562.333,-224.109"/>
</g>
<!-- record__seq_payload_switch&#45;&gt;record_v2__seq -->
<g id="edge9" class="edge"><title>record__seq_payload_switch:case1&#45;&gt;record_v2__seq</title>
<path fill="none" stroke="black" stroke-width="2" d="M698,-218C704.526,-218 720.378,-227.536 739.979,-241.402"/>
<polygon fill="black" stroke="black" stroke-width="2" points="738.116,-244.373 748.279,-247.366 742.2,-238.688 738.116,-244.373"/>
</g>
<!-- record__seq_payload_switch&#45;&gt;record_v1__seq -->
<g id="edge8" class="edge"><title>record__seq_payload_switch:case0&#45;&gt;record_v1__seq</title>
<path fill="none" stroke="black" stroke-width="2" d="M698,-239C729.603,-239 759.256,-225.058 784.781,-206.413"/>
<polygon fill="black" stroke="black" stroke-width="2" points="787.092,-209.053 792.921,-200.206 782.847,-203.486 787.092,-209.053"/>
</g>
</g>
</svg>
