<?xml version="1.0" encoding="UTF-8" standalone="no"?>
<!DOCTYPE svg PUBLIC "-//W3C//DTD SVG 1.1//EN"
 "http://www.w3.org/Graphics/SVG/1.1/DTD/svg11.dtd">
<!-- Generated by graphviz version 2.40.1 (20161225.0304)
 -->
<!-- Title: %3 Pages: 1 -->
<svg width="1311pt" height="523pt"
 viewBox="0.00 0.00 1311.00 523.00" xmlns="http://www.w3.org/2000/svg" xmlns:xlink="http://www.w3.org/1999/xlink">
<g id="graph0" class="graph" transform="scale(1 1) rotate(0) translate(4 519)">
<title>%3</title>
<polygon fill="#ffffff" stroke="transparent" points="-4,4 -4,-519 1307,-519 1307,4 -4,4"/>
<g id="clust1" class="cluster">
<title>cluster__sudoers_ts</title>
<polygon fill="none" stroke="#000000" stroke-dasharray="1,5" points="8,-8 8,-507 1295,-507 1295,-8 8,-8"/>
<text text-anchor="middle" x="651.5" y="-491.8" font-family="Times,serif" font-size="14.00" fill="#000000">SudoersTs</text>
</g>
<g id="clust2" class="cluster">
<title>cluster__record_v2</title>
<polygon fill="none" stroke="#000000" stroke-dasharray="1,5" points="733,-239 733,-476 1012,-476 1012,-239 733,-239"/>
<text text-anchor="middle" x="872.5" y="-460.8" font-family="Times,serif" font-size="14.00" fill="#000000">SudoersTs::RecordV2</text>
</g>
<g id="clust3" class="cluster">
<title>cluster__ts_flag</title>
<polygon fill="none" stroke="#000000" stroke-dasharray="1,5" points="1032,-88 1032,-241 1287,-241 1287,-88 1032,-88"/>
<text text-anchor="middle" x="1159.5" y="-225.8" font-family="Times,serif" font-size="14.00" fill="#000000">SudoersTs::TsFlag</text>
</g>
<g id="clust4" class="cluster">
<title>cluster__record_v1</title>
<polygon fill="none" stroke="#000000" stroke-dasharray="1,5" points="739,-16 739,-231 1006,-231 1006,-16 739,-16"/>
<text text-anchor="middle" x="872.5" y="-215.8" font-family="Times,serif" font-size="14.00" fill="#000000">SudoersTs::RecordV1</text>
</g>
<g id="clust5" class="cluster">
<title>cluster__timespec</title>
<polygon fill="none" stroke="#000000" stroke-dasharray="1,5" points="1072,-259 1072,-370 1247,-370 1247,-259 1072,-259"/>
<text text-anchor="middle" x="1159.5" y="-354.8" font-family="Times,serif" font-size="14.00" fill="#000000">SudoersTs::Timespec</text>
</g>
<g id="clust6" class="cluster">
<title>cluster__record</title>
<polygon fill="none" stroke="#000000" stroke-dasharray="1,5" points="244,-196 244,-345 713,-345 713,-196 244,-196"/>
<text text-anchor="middle" x="478.5" y="-329.8" font-family="Times,serif" font-size="14.00" fill="#000000">SudoersTs::Record</text>
</g>
<!-- sudoers_ts__seq -->
<g id="node1" class="node">
<title>sudoers_ts__seq</title>
<polygon fill="#e0ffe0" stroke="transparent" points="24,-261 24,-282 55,-282 55,-261 24,-261"/>
<polygon fill="none" stroke="#000000" points="24,-261 24,-282 55,-282 55,-261 24,-261"/>
<text text-anchor="start" x="27" y="-267.8" font-family="Times,serif" font-size="14.00" fill="#000000">pos</text>
<polygon fill="#e0ffe0" stroke="transparent" points="55,-261 55,-282 89,-282 89,-261 55,-261"/>
<polygon fill="none" stroke="#000000" points="55,-261 55,-282 89,-282 89,-261 55,-261"/>
<text text-anchor="start" x="58" y="-267.8" font-family="Times,serif" font-size="14.00" fill="#000000">size</text>
<polygon fill="#e0ffe0" stroke="transparent" points="89,-261 89,-282 147,-282 147,-261 89,-261"/>
<polygon fill="none" stroke="#000000" points="89,-261 89,-282 147,-282 147,-261 89,-261"/>
<text text-anchor="start" x="102" y="-267.8" font-family="Times,serif" font-size="14.00" fill="#000000">type</text>
<polygon fill="#e0ffe0" stroke="transparent" points="147,-261 147,-282 208,-282 208,-261 147,-261"/>
<polygon fill="none" stroke="#000000" points="147,-261 147,-282 208,-282 208,-261 147,-261"/>
<text text-anchor="start" x="170.5" y="-267.8" font-family="Times,serif" font-size="14.00" fill="#000000">id</text>
<polygon fill="none" stroke="#000000" points="24,-240 24,-261 55,-261 55,-240 24,-240"/>
<text text-anchor="start" x="34.5" y="-246.8" font-family="Times,serif" font-size="14.00" fill="#000000">0</text>
<polygon fill="none" stroke="#000000" points="55,-240 55,-261 89,-261 89,-240 55,-240"/>
<text text-anchor="start" x="65" y="-246.8" font-family="Times,serif" font-size="14.00" fill="#000000">...</text>
<polygon fill="none" stroke="#000000" points="89,-240 89,-261 147,-261 147,-240 89,-240"/>
<text text-anchor="start" x="92" y="-246.8" font-family="Times,serif" font-size="14.00" fill="#000000">Record</text>
<polygon fill="none" stroke="#000000" points="147,-240 147,-261 208,-261 208,-240 147,-240"/>
<text text-anchor="start" x="150" y="-246.8" font-family="Times,serif" font-size="14.00" fill="#000000">records</text>
<polygon fill="none" stroke="#000000" points="24,-219 24,-240 208,-240 208,-219 24,-219"/>
<text text-anchor="start" x="31.5" y="-225.8" font-family="Times,serif" font-size="14.00" fill="#000000">repeat to end of stream</text>
</g>
<!-- record__seq -->
<g id="node6" class="node">
<title>record__seq</title>
<polygon fill="#e0ffe0" stroke="transparent" points="260.5,-271 260.5,-292 291.5,-292 291.5,-271 260.5,-271"/>
<polygon fill="none" stroke="#000000" points="260.5,-271 260.5,-292 291.5,-292 291.5,-271 260.5,-271"/>
<text text-anchor="start" x="263.5" y="-277.8" font-family="Times,serif" font-size="14.00" fill="#000000">pos</text>
<polygon fill="#e0ffe0" stroke="transparent" points="291.5,-271 291.5,-292 325.5,-292 325.5,-271 291.5,-271"/>
<polygon fill="none" stroke="#000000" points="291.5,-271 291.5,-292 325.5,-292 325.5,-271 291.5,-271"/>
<text text-anchor="start" x="294.5" y="-277.8" font-family="Times,serif" font-size="14.00" fill="#000000">size</text>
<polygon fill="#e0ffe0" stroke="transparent" points="325.5,-271 325.5,-292 446.5,-292 446.5,-271 325.5,-271"/>
<polygon fill="none" stroke="#000000" points="325.5,-271 325.5,-292 446.5,-292 446.5,-271 325.5,-271"/>
<text text-anchor="start" x="370" y="-277.8" font-family="Times,serif" font-size="14.00" fill="#000000">type</text>
<polygon fill="#e0ffe0" stroke="transparent" points="446.5,-271 446.5,-292 529.5,-292 529.5,-271 446.5,-271"/>
<polygon fill="none" stroke="#000000" points="446.5,-271 446.5,-292 529.5,-292 529.5,-271 446.5,-271"/>
<text text-anchor="start" x="481" y="-277.8" font-family="Times,serif" font-size="14.00" fill="#000000">id</text>
<polygon fill="none" stroke="#000000" points="260.5,-250 260.5,-271 291.5,-271 291.5,-250 260.5,-250"/>
<text text-anchor="start" x="271" y="-256.8" font-family="Times,serif" font-size="14.00" fill="#000000">0</text>
<polygon fill="none" stroke="#000000" points="291.5,-250 291.5,-271 325.5,-271 325.5,-250 291.5,-250"/>
<text text-anchor="start" x="303.5" y="-256.8" font-family="Times,serif" font-size="14.00" fill="#000000">2</text>
<polygon fill="none" stroke="#000000" points="325.5,-250 325.5,-271 446.5,-271 446.5,-250 325.5,-250"/>
<text text-anchor="start" x="370.5" y="-256.8" font-family="Times,serif" font-size="14.00" fill="#000000">u2le</text>
<polygon fill="none" stroke="#000000" points="446.5,-250 446.5,-271 529.5,-271 529.5,-250 446.5,-250"/>
<text text-anchor="start" x="461.5" y="-256.8" font-family="Times,serif" font-size="14.00" fill="#000000">version</text>
<polygon fill="none" stroke="#000000" points="260.5,-229 260.5,-250 291.5,-250 291.5,-229 260.5,-229"/>
<text text-anchor="start" x="271" y="-235.8" font-family="Times,serif" font-size="14.00" fill="#000000">2</text>
<polygon fill="none" stroke="#000000" points="291.5,-229 291.5,-250 325.5,-250 325.5,-229 291.5,-229"/>
<text text-anchor="start" x="303.5" y="-235.8" font-family="Times,serif" font-size="14.00" fill="#000000">2</text>
<polygon fill="none" stroke="#000000" points="325.5,-229 325.5,-250 446.5,-250 446.5,-229 325.5,-229"/>
<text text-anchor="start" x="370.5" y="-235.8" font-family="Times,serif" font-size="14.00" fill="#000000">u2le</text>
<polygon fill="none" stroke="#000000" points="446.5,-229 446.5,-250 529.5,-250 529.5,-229 446.5,-229"/>
<text text-anchor="start" x="449.5" y="-235.8" font-family="Times,serif" font-size="14.00" fill="#000000">len_record</text>
<polygon fill="none" stroke="#000000" points="260.5,-208 260.5,-229 291.5,-229 291.5,-208 260.5,-208"/>
<text text-anchor="start" x="271" y="-214.8" font-family="Times,serif" font-size="14.00" fill="#000000">4</text>
<polygon fill="none" stroke="#000000" points="291.5,-208 291.5,-229 325.5,-229 325.5,-208 291.5,-208"/>
<text text-anchor="start" x="301.5" y="-214.8" font-family="Times,serif" font-size="14.00" fill="#000000">...</text>
<polygon fill="none" stroke="#000000" points="325.5,-208 325.5,-229 446.5,-229 446.5,-208 325.5,-208"/>
<text text-anchor="start" x="328.5" y="-214.8" font-family="Times,serif" font-size="14.00" fill="#000000">switch (version)</text>
<polygon fill="none" stroke="#000000" points="446.5,-208 446.5,-229 529.5,-229 529.5,-208 446.5,-208"/>
<text text-anchor="start" x="460" y="-214.8" font-family="Times,serif" font-size="14.00" fill="#000000">payload</text>
</g>
<!-- sudoers_ts__seq&#45;&gt;record__seq -->
<g id="edge1" class="edge">
<title>sudoers_ts__seq:records_type&#45;&gt;record__seq</title>
<path fill="none" stroke="#000000" stroke-width="2" d="M208,-250C219.0188,-250 230.4038,-250 241.8629,-250"/>
<polygon fill="#000000" stroke="#000000" stroke-width="2" points="241.9448,-253.5001 251.9448,-250 241.9447,-246.5001 241.9448,-253.5001"/>
</g>
<!-- record_v2__seq -->
<g id="node2" class="node">
<title>record_v2__seq</title>
<polygon fill="#e0ffe0" stroke="transparent" points="749.5,-419 749.5,-440 780.5,-440 780.5,-419 749.5,-419"/>
<polygon fill="none" stroke="#000000" points="749.5,-419 749.5,-440 780.5,-440 780.5,-419 749.5,-419"/>
<text text-anchor="start" x="752.5" y="-425.8" font-family="Times,serif" font-size="14.00" fill="#000000">pos</text>
<polygon fill="#e0ffe0" stroke="transparent" points="780.5,-419 780.5,-440 814.5,-440 814.5,-419 780.5,-419"/>
<polygon fill="none" stroke="#000000" points="780.5,-419 780.5,-440 814.5,-440 814.5,-419 780.5,-419"/>
<text text-anchor="start" x="783.5" y="-425.8" font-family="Times,serif" font-size="14.00" fill="#000000">size</text>
<polygon fill="#e0ffe0" stroke="transparent" points="814.5,-419 814.5,-440 915.5,-440 915.5,-419 814.5,-419"/>
<polygon fill="none" stroke="#000000" points="814.5,-419 814.5,-440 915.5,-440 915.5,-419 814.5,-419"/>
<text text-anchor="start" x="849" y="-425.8" font-family="Times,serif" font-size="14.00" fill="#000000">type</text>
<polygon fill="#e0ffe0" stroke="transparent" points="915.5,-419 915.5,-440 996.5,-440 996.5,-419 915.5,-419"/>
<polygon fill="none" stroke="#000000" points="915.5,-419 915.5,-440 996.5,-440 996.5,-419 915.5,-419"/>
<text text-anchor="start" x="949" y="-425.8" font-family="Times,serif" font-size="14.00" fill="#000000">id</text>
<polygon fill="none" stroke="#000000" points="749.5,-398 749.5,-419 780.5,-419 780.5,-398 749.5,-398"/>
<text text-anchor="start" x="760" y="-404.8" font-family="Times,serif" font-size="14.00" fill="#000000">0</text>
<polygon fill="none" stroke="#000000" points="780.5,-398 780.5,-419 814.5,-419 814.5,-398 780.5,-398"/>
<text text-anchor="start" x="792.5" y="-404.8" font-family="Times,serif" font-size="14.00" fill="#000000">2</text>
<polygon fill="none" stroke="#000000" points="814.5,-398 814.5,-419 915.5,-419 915.5,-398 814.5,-398"/>
<text text-anchor="start" x="817.5" y="-404.8" font-family="Times,serif" font-size="14.00" fill="#000000">u2le→TsType</text>
<polygon fill="none" stroke="#000000" points="915.5,-398 915.5,-419 996.5,-419 996.5,-398 915.5,-398"/>
<text text-anchor="start" x="940" y="-404.8" font-family="Times,serif" font-size="14.00" fill="#000000">type</text>
<polygon fill="none" stroke="#000000" points="749.5,-377 749.5,-398 780.5,-398 780.5,-377 749.5,-377"/>
<text text-anchor="start" x="760" y="-383.8" font-family="Times,serif" font-size="14.00" fill="#000000">2</text>
<polygon fill="none" stroke="#000000" points="780.5,-377 780.5,-398 814.5,-398 814.5,-377 780.5,-377"/>
<text text-anchor="start" x="792.5" y="-383.8" font-family="Times,serif" font-size="14.00" fill="#000000">2</text>
<polygon fill="none" stroke="#000000" points="814.5,-377 814.5,-398 915.5,-398 915.5,-377 814.5,-377"/>
<text text-anchor="start" x="840.5" y="-383.8" font-family="Times,serif" font-size="14.00" fill="#000000">TsFlag</text>
<polygon fill="none" stroke="#000000" points="915.5,-377 915.5,-398 996.5,-398 996.5,-377 915.5,-377"/>
<text text-anchor="start" x="938.5" y="-383.8" font-family="Times,serif" font-size="14.00" fill="#000000">flags</text>
<polygon fill="none" stroke="#000000" points="749.5,-356 749.5,-377 780.5,-377 780.5,-356 749.5,-356"/>
<text text-anchor="start" x="760" y="-362.8" font-family="Times,serif" font-size="14.00" fill="#000000">4</text>
<polygon fill="none" stroke="#000000" points="780.5,-356 780.5,-377 814.5,-377 814.5,-356 780.5,-356"/>
<text text-anchor="start" x="792.5" y="-362.8" font-family="Times,serif" font-size="14.00" fill="#000000">4</text>
<polygon fill="none" stroke="#000000" points="814.5,-356 814.5,-377 915.5,-377 915.5,-356 814.5,-356"/>
<text text-anchor="start" x="849.5" y="-362.8" font-family="Times,serif" font-size="14.00" fill="#000000">u4le</text>
<polygon fill="none" stroke="#000000" points="915.5,-356 915.5,-377 996.5,-377 996.5,-356 915.5,-356"/>
<text text-anchor="start" x="924.5" y="-362.8" font-family="Times,serif" font-size="14.00" fill="#000000">auth_uid</text>
<polygon fill="none" stroke="#000000" points="749.5,-335 749.5,-356 780.5,-356 780.5,-335 749.5,-335"/>
<text text-anchor="start" x="760" y="-341.8" font-family="Times,serif" font-size="14.00" fill="#000000">8</text>
<polygon fill="none" stroke="#000000" points="780.5,-335 780.5,-356 814.5,-356 814.5,-335 780.5,-335"/>
<text text-anchor="start" x="792.5" y="-341.8" font-family="Times,serif" font-size="14.00" fill="#000000">4</text>
<polygon fill="none" stroke="#000000" points="814.5,-335 814.5,-356 915.5,-356 915.5,-335 814.5,-335"/>
<text text-anchor="start" x="849.5" y="-341.8" font-family="Times,serif" font-size="14.00" fill="#000000">u4le</text>
<polygon fill="none" stroke="#000000" points="915.5,-335 915.5,-356 996.5,-356 996.5,-335 915.5,-335"/>
<text text-anchor="start" x="945" y="-341.8" font-family="Times,serif" font-size="14.00" fill="#000000">sid</text>
<polygon fill="none" stroke="#000000" points="749.5,-314 749.5,-335 780.5,-335 780.5,-314 749.5,-314"/>
<text text-anchor="start" x="755.5" y="-320.8" font-family="Times,serif" font-size="14.00" fill="#000000">12</text>
<polygon fill="none" stroke="#000000" points="780.5,-314 780.5,-335 814.5,-335 814.5,-314 780.5,-314"/>
<text text-anchor="start" x="788" y="-320.8" font-family="Times,serif" font-size="14.00" fill="#000000">16</text>
<polygon fill="none" stroke="#000000" points="814.5,-314 814.5,-335 915.5,-335 915.5,-314 814.5,-314"/>
<text text-anchor="start" x="830" y="-320.8" font-family="Times,serif" font-size="14.00" fill="#000000">Timespec</text>
<polygon fill="none" stroke="#000000" points="915.5,-314 915.5,-335 996.5,-335 996.5,-314 915.5,-314"/>
<text text-anchor="start" x="918.5" y="-320.8" font-family="Times,serif" font-size="14.00" fill="#000000">start_time</text>
<polygon fill="none" stroke="#000000" points="749.5,-293 749.5,-314 780.5,-314 780.5,-293 749.5,-293"/>
<text text-anchor="start" x="755.5" y="-299.8" font-family="Times,serif" font-size="14.00" fill="#000000">28</text>
<polygon fill="none" stroke="#000000" points="780.5,-293 780.5,-314 814.5,-314 814.5,-293 780.5,-293"/>
<text text-anchor="start" x="788" y="-299.8" font-family="Times,serif" font-size="14.00" fill="#000000">16</text>
<polygon fill="none" stroke="#000000" points="814.5,-293 814.5,-314 915.5,-314 915.5,-293 814.5,-293"/>
<text text-anchor="start" x="830" y="-299.8" font-family="Times,serif" font-size="14.00" fill="#000000">Timespec</text>
<polygon fill="none" stroke="#000000" points="915.5,-293 915.5,-314 996.5,-314 996.5,-293 915.5,-293"/>
<text text-anchor="start" x="949" y="-299.8" font-family="Times,serif" font-size="14.00" fill="#000000">ts</text>
<polygon fill="none" stroke="#000000" points="749.5,-272 749.5,-293 780.5,-293 780.5,-272 749.5,-272"/>
<text text-anchor="start" x="755.5" y="-278.8" font-family="Times,serif" font-size="14.00" fill="#000000">44</text>
<polygon fill="none" stroke="#000000" points="780.5,-272 780.5,-293 814.5,-293 814.5,-272 780.5,-272"/>
<text text-anchor="start" x="792.5" y="-278.8" font-family="Times,serif" font-size="14.00" fill="#000000">4</text>
<polygon fill="none" stroke="#000000" points="814.5,-272 814.5,-293 915.5,-293 915.5,-272 814.5,-272"/>
<text text-anchor="start" x="849.5" y="-278.8" font-family="Times,serif" font-size="14.00" fill="#000000">u4le</text>
<polygon fill="none" stroke="#000000" points="915.5,-272 915.5,-293 996.5,-293 996.5,-272 915.5,-272"/>
<text text-anchor="start" x="933" y="-278.8" font-family="Times,serif" font-size="14.00" fill="#000000">ttydev</text>
<polygon fill="none" stroke="#000000" points="749.5,-251 749.5,-272 780.5,-272 780.5,-251 749.5,-251"/>
<text text-anchor="start" x="755.5" y="-257.8" font-family="Times,serif" font-size="14.00" fill="#000000">48</text>
<polygon fill="none" stroke="#000000" points="780.5,-251 780.5,-272 814.5,-272 814.5,-251 780.5,-251"/>
<text text-anchor="start" x="792.5" y="-257.8" font-family="Times,serif" font-size="14.00" fill="#000000">4</text>
<polygon fill="none" stroke="#000000" points="814.5,-251 814.5,-272 915.5,-272 915.5,-251 814.5,-251"/>
<text text-anchor="start" x="849.5" y="-257.8" font-family="Times,serif" font-size="14.00" fill="#000000">u4le</text>
<polygon fill="none" stroke="#000000" points="915.5,-251 915.5,-272 996.5,-272 996.5,-251 915.5,-251"/>
<text text-anchor="start" x="940" y="-257.8" font-family="Times,serif" font-size="14.00" fill="#000000">ppid</text>
</g>
<!-- ts_flag__seq -->
<g id="node3" class="node">
<title>ts_flag__seq</title>
<polygon fill="#e0ffe0" stroke="transparent" points="1048.5,-184 1048.5,-205 1079.5,-205 1079.5,-184 1048.5,-184"/>
<polygon fill="none" stroke="#000000" points="1048.5,-184 1048.5,-205 1079.5,-205 1079.5,-184 1048.5,-184"/>
<text text-anchor="start" x="1051.5" y="-190.8" font-family="Times,serif" font-size="14.00" fill="#000000">pos</text>
<polygon fill="#e0ffe0" stroke="transparent" points="1079.5,-184 1079.5,-205 1113.5,-205 1113.5,-184 1079.5,-184"/>
<polygon fill="none" stroke="#000000" points="1079.5,-184 1079.5,-205 1113.5,-205 1113.5,-184 1079.5,-184"/>
<text text-anchor="start" x="1082.5" y="-190.8" font-family="Times,serif" font-size="14.00" fill="#000000">size</text>
<polygon fill="#e0ffe0" stroke="transparent" points="1113.5,-184 1113.5,-205 1192.5,-205 1192.5,-184 1113.5,-184"/>
<polygon fill="none" stroke="#000000" points="1113.5,-184 1113.5,-205 1192.5,-205 1192.5,-184 1113.5,-184"/>
<text text-anchor="start" x="1137" y="-190.8" font-family="Times,serif" font-size="14.00" fill="#000000">type</text>
<polygon fill="#e0ffe0" stroke="transparent" points="1192.5,-184 1192.5,-205 1271.5,-205 1271.5,-184 1192.5,-184"/>
<polygon fill="none" stroke="#000000" points="1192.5,-184 1192.5,-205 1271.5,-205 1271.5,-184 1192.5,-184"/>
<text text-anchor="start" x="1225" y="-190.8" font-family="Times,serif" font-size="14.00" fill="#000000">id</text>
<polygon fill="none" stroke="#000000" points="1048.5,-163 1048.5,-184 1079.5,-184 1079.5,-163 1048.5,-163"/>
<text text-anchor="start" x="1059" y="-169.8" font-family="Times,serif" font-size="14.00" fill="#000000">0</text>
<polygon fill="none" stroke="#000000" points="1079.5,-163 1079.5,-184 1113.5,-184 1113.5,-163 1079.5,-163"/>
<text text-anchor="start" x="1087" y="-169.8" font-family="Times,serif" font-size="14.00" fill="#000000">6b</text>
<polygon fill="none" stroke="#000000" points="1113.5,-163 1113.5,-184 1192.5,-184 1192.5,-163 1113.5,-163"/>
<text text-anchor="start" x="1143.5" y="-169.8" font-family="Times,serif" font-size="14.00" fill="#000000">b6</text>
<polygon fill="none" stroke="#000000" points="1192.5,-163 1192.5,-184 1271.5,-184 1271.5,-163 1192.5,-163"/>
<text text-anchor="start" x="1195.5" y="-169.8" font-family="Times,serif" font-size="14.00" fill="#000000">reserved0</text>
<polygon fill="none" stroke="#000000" points="1048.5,-142 1048.5,-163 1079.5,-163 1079.5,-142 1048.5,-142"/>
<text text-anchor="start" x="1052.5" y="-148.8" font-family="Times,serif" font-size="14.00" fill="#000000">0:6</text>
<polygon fill="none" stroke="#000000" points="1079.5,-142 1079.5,-163 1113.5,-163 1113.5,-142 1079.5,-142"/>
<text text-anchor="start" x="1087" y="-148.8" font-family="Times,serif" font-size="14.00" fill="#000000">1b</text>
<polygon fill="none" stroke="#000000" points="1113.5,-142 1113.5,-163 1192.5,-163 1192.5,-142 1113.5,-142"/>
<text text-anchor="start" x="1116.5" y="-148.8" font-family="Times,serif" font-size="14.00" fill="#000000">BitsType1</text>
<polygon fill="none" stroke="#000000" points="1192.5,-142 1192.5,-163 1271.5,-163 1271.5,-142 1192.5,-142"/>
<text text-anchor="start" x="1207.5" y="-148.8" font-family="Times,serif" font-size="14.00" fill="#000000">anyuid</text>
<polygon fill="none" stroke="#000000" points="1048.5,-121 1048.5,-142 1079.5,-142 1079.5,-121 1048.5,-121"/>
<text text-anchor="start" x="1052.5" y="-127.8" font-family="Times,serif" font-size="14.00" fill="#000000">0:7</text>
<polygon fill="none" stroke="#000000" points="1079.5,-121 1079.5,-142 1113.5,-142 1113.5,-121 1079.5,-121"/>
<text text-anchor="start" x="1087" y="-127.8" font-family="Times,serif" font-size="14.00" fill="#000000">1b</text>
<polygon fill="none" stroke="#000000" points="1113.5,-121 1113.5,-142 1192.5,-142 1192.5,-121 1113.5,-121"/>
<text text-anchor="start" x="1116.5" y="-127.8" font-family="Times,serif" font-size="14.00" fill="#000000">BitsType1</text>
<polygon fill="none" stroke="#000000" points="1192.5,-121 1192.5,-142 1271.5,-142 1271.5,-121 1192.5,-121"/>
<text text-anchor="start" x="1201.5" y="-127.8" font-family="Times,serif" font-size="14.00" fill="#000000">disabled</text>
<polygon fill="none" stroke="#000000" points="1048.5,-100 1048.5,-121 1079.5,-121 1079.5,-100 1048.5,-100"/>
<text text-anchor="start" x="1059" y="-106.8" font-family="Times,serif" font-size="14.00" fill="#000000">1</text>
<polygon fill="none" stroke="#000000" points="1079.5,-100 1079.5,-121 1113.5,-121 1113.5,-100 1079.5,-100"/>
<text text-anchor="start" x="1091.5" y="-106.8" font-family="Times,serif" font-size="14.00" fill="#000000">1</text>
<polygon fill="none" stroke="#000000" points="1113.5,-100 1113.5,-121 1192.5,-121 1192.5,-100 1113.5,-100"/>
<text text-anchor="start" x="1143.5" y="-106.8" font-family="Times,serif" font-size="14.00" fill="#000000">b8</text>
<polygon fill="none" stroke="#000000" points="1192.5,-100 1192.5,-121 1271.5,-121 1271.5,-100 1192.5,-100"/>
<text text-anchor="start" x="1195.5" y="-106.8" font-family="Times,serif" font-size="14.00" fill="#000000">reserved1</text>
</g>
<!-- record_v2__seq&#45;&gt;ts_flag__seq -->
<g id="edge2" class="edge">
<title>record_v2__seq:flags_type&#45;&gt;ts_flag__seq</title>
<path fill="none" stroke="#000000" stroke-width="2" d="M996.5,-388C1057.6806,-388 998.5512,-306.2273 1032,-255 1041.1336,-241.0118 1052.8189,-228.0585 1065.3971,-216.4048"/>
<polygon fill="#000000" stroke="#000000" stroke-width="2" points="1067.7763,-218.9725 1072.8935,-209.6954 1063.1079,-213.7565 1067.7763,-218.9725"/>
</g>
<!-- timespec__seq -->
<g id="node5" class="node">
<title>timespec__seq</title>
<polygon fill="#e0ffe0" stroke="transparent" points="1088.5,-313 1088.5,-334 1119.5,-334 1119.5,-313 1088.5,-313"/>
<polygon fill="none" stroke="#000000" points="1088.5,-313 1088.5,-334 1119.5,-334 1119.5,-313 1088.5,-313"/>
<text text-anchor="start" x="1091.5" y="-319.8" font-family="Times,serif" font-size="14.00" fill="#000000">pos</text>
<polygon fill="#e0ffe0" stroke="transparent" points="1119.5,-313 1119.5,-334 1153.5,-334 1153.5,-313 1119.5,-313"/>
<polygon fill="none" stroke="#000000" points="1119.5,-313 1119.5,-334 1153.5,-334 1153.5,-313 1119.5,-313"/>
<text text-anchor="start" x="1122.5" y="-319.8" font-family="Times,serif" font-size="14.00" fill="#000000">size</text>
<polygon fill="#e0ffe0" stroke="transparent" points="1153.5,-313 1153.5,-334 1191.5,-334 1191.5,-313 1153.5,-313"/>
<polygon fill="none" stroke="#000000" points="1153.5,-313 1153.5,-334 1191.5,-334 1191.5,-313 1153.5,-313"/>
<text text-anchor="start" x="1156.5" y="-319.8" font-family="Times,serif" font-size="14.00" fill="#000000">type</text>
<polygon fill="#e0ffe0" stroke="transparent" points="1191.5,-313 1191.5,-334 1231.5,-334 1231.5,-313 1191.5,-313"/>
<polygon fill="none" stroke="#000000" points="1191.5,-313 1191.5,-334 1231.5,-334 1231.5,-313 1191.5,-313"/>
<text text-anchor="start" x="1204.5" y="-319.8" font-family="Times,serif" font-size="14.00" fill="#000000">id</text>
<polygon fill="none" stroke="#000000" points="1088.5,-292 1088.5,-313 1119.5,-313 1119.5,-292 1088.5,-292"/>
<text text-anchor="start" x="1099" y="-298.8" font-family="Times,serif" font-size="14.00" fill="#000000">0</text>
<polygon fill="none" stroke="#000000" points="1119.5,-292 1119.5,-313 1153.5,-313 1153.5,-292 1119.5,-292"/>
<text text-anchor="start" x="1131.5" y="-298.8" font-family="Times,serif" font-size="14.00" fill="#000000">8</text>
<polygon fill="none" stroke="#000000" points="1153.5,-292 1153.5,-313 1191.5,-313 1191.5,-292 1153.5,-292"/>
<text text-anchor="start" x="1157.5" y="-298.8" font-family="Times,serif" font-size="14.00" fill="#000000">s8le</text>
<polygon fill="none" stroke="#000000" points="1191.5,-292 1191.5,-313 1231.5,-313 1231.5,-292 1191.5,-292"/>
<text text-anchor="start" x="1199" y="-298.8" font-family="Times,serif" font-size="14.00" fill="#000000">sec</text>
<polygon fill="none" stroke="#000000" points="1088.5,-271 1088.5,-292 1119.5,-292 1119.5,-271 1088.5,-271"/>
<text text-anchor="start" x="1099" y="-277.8" font-family="Times,serif" font-size="14.00" fill="#000000">8</text>
<polygon fill="none" stroke="#000000" points="1119.5,-271 1119.5,-292 1153.5,-292 1153.5,-271 1119.5,-271"/>
<text text-anchor="start" x="1131.5" y="-277.8" font-family="Times,serif" font-size="14.00" fill="#000000">8</text>
<polygon fill="none" stroke="#000000" points="1153.5,-271 1153.5,-292 1191.5,-292 1191.5,-271 1153.5,-271"/>
<text text-anchor="start" x="1157.5" y="-277.8" font-family="Times,serif" font-size="14.00" fill="#000000">s8le</text>
<polygon fill="none" stroke="#000000" points="1191.5,-271 1191.5,-292 1231.5,-292 1231.5,-271 1191.5,-271"/>
<text text-anchor="start" x="1194.5" y="-277.8" font-family="Times,serif" font-size="14.00" fill="#000000">nsec</text>
</g>
<!-- record_v2__seq&#45;&gt;timespec__seq -->
<g id="edge3" class="edge">
<title>record_v2__seq:start_time_type&#45;&gt;timespec__seq</title>
<path fill="none" stroke="#000000" stroke-width="2" d="M996.5,-324C1020.3425,-324 1045.987,-321.7625 1069.7169,-318.7482"/>
<polygon fill="#000000" stroke="#000000" stroke-width="2" points="1070.3073,-322.2006 1079.7588,-317.4131 1069.3847,-315.2617 1070.3073,-322.2006"/>
</g>
<!-- record_v2__seq&#45;&gt;timespec__seq -->
<g id="edge4" class="edge">
<title>record_v2__seq:ts_type&#45;&gt;timespec__seq</title>
<path fill="none" stroke="#000000" stroke-width="2" d="M996.5,-303C1020.2708,-303 1045.9916,-303 1069.8234,-303"/>
<polygon fill="#000000" stroke="#000000" stroke-width="2" points="1069.9102,-306.5001 1079.9102,-303 1069.9101,-299.5001 1069.9102,-306.5001"/>
</g>
<!-- record_v1__seq -->
<g id="node4" class="node">
<title>record_v1__seq</title>
<polygon fill="#e0ffe0" stroke="transparent" points="755.5,-175 755.5,-196 786.5,-196 786.5,-175 755.5,-175"/>
<polygon fill="none" stroke="#000000" points="755.5,-175 755.5,-196 786.5,-196 786.5,-175 755.5,-175"/>
<text text-anchor="start" x="758.5" y="-181.8" font-family="Times,serif" font-size="14.00" fill="#000000">pos</text>
<polygon fill="#e0ffe0" stroke="transparent" points="786.5,-175 786.5,-196 820.5,-196 820.5,-175 786.5,-175"/>
<polygon fill="none" stroke="#000000" points="786.5,-175 786.5,-196 820.5,-196 820.5,-175 786.5,-175"/>
<text text-anchor="start" x="789.5" y="-181.8" font-family="Times,serif" font-size="14.00" fill="#000000">size</text>
<polygon fill="#e0ffe0" stroke="transparent" points="820.5,-175 820.5,-196 921.5,-196 921.5,-175 820.5,-175"/>
<polygon fill="none" stroke="#000000" points="820.5,-175 820.5,-196 921.5,-196 921.5,-175 820.5,-175"/>
<text text-anchor="start" x="855" y="-181.8" font-family="Times,serif" font-size="14.00" fill="#000000">type</text>
<polygon fill="#e0ffe0" stroke="transparent" points="921.5,-175 921.5,-196 990.5,-196 990.5,-175 921.5,-175"/>
<polygon fill="none" stroke="#000000" points="921.5,-175 921.5,-196 990.5,-196 990.5,-175 921.5,-175"/>
<text text-anchor="start" x="949" y="-181.8" font-family="Times,serif" font-size="14.00" fill="#000000">id</text>
<polygon fill="none" stroke="#000000" points="755.5,-154 755.5,-175 786.5,-175 786.5,-154 755.5,-154"/>
<text text-anchor="start" x="766" y="-160.8" font-family="Times,serif" font-size="14.00" fill="#000000">0</text>
<polygon fill="none" stroke="#000000" points="786.5,-154 786.5,-175 820.5,-175 820.5,-154 786.5,-154"/>
<text text-anchor="start" x="798.5" y="-160.8" font-family="Times,serif" font-size="14.00" fill="#000000">2</text>
<polygon fill="none" stroke="#000000" points="820.5,-154 820.5,-175 921.5,-175 921.5,-154 820.5,-154"/>
<text text-anchor="start" x="823.5" y="-160.8" font-family="Times,serif" font-size="14.00" fill="#000000">u2le→TsType</text>
<polygon fill="none" stroke="#000000" points="921.5,-154 921.5,-175 990.5,-175 990.5,-154 921.5,-154"/>
<text text-anchor="start" x="940" y="-160.8" font-family="Times,serif" font-size="14.00" fill="#000000">type</text>
<polygon fill="none" stroke="#000000" points="755.5,-133 755.5,-154 786.5,-154 786.5,-133 755.5,-133"/>
<text text-anchor="start" x="766" y="-139.8" font-family="Times,serif" font-size="14.00" fill="#000000">2</text>
<polygon fill="none" stroke="#000000" points="786.5,-133 786.5,-154 820.5,-154 820.5,-133 786.5,-133"/>
<text text-anchor="start" x="798.5" y="-139.8" font-family="Times,serif" font-size="14.00" fill="#000000">2</text>
<polygon fill="none" stroke="#000000" points="820.5,-133 820.5,-154 921.5,-154 921.5,-133 820.5,-133"/>
<text text-anchor="start" x="846.5" y="-139.8" font-family="Times,serif" font-size="14.00" fill="#000000">TsFlag</text>
<polygon fill="none" stroke="#000000" points="921.5,-133 921.5,-154 990.5,-154 990.5,-133 921.5,-133"/>
<text text-anchor="start" x="938.5" y="-139.8" font-family="Times,serif" font-size="14.00" fill="#000000">flags</text>
<polygon fill="none" stroke="#000000" points="755.5,-112 755.5,-133 786.5,-133 786.5,-112 755.5,-112"/>
<text text-anchor="start" x="766" y="-118.8" font-family="Times,serif" font-size="14.00" fill="#000000">4</text>
<polygon fill="none" stroke="#000000" points="786.5,-112 786.5,-133 820.5,-133 820.5,-112 786.5,-112"/>
<text text-anchor="start" x="798.5" y="-118.8" font-family="Times,serif" font-size="14.00" fill="#000000">4</text>
<polygon fill="none" stroke="#000000" points="820.5,-112 820.5,-133 921.5,-133 921.5,-112 820.5,-112"/>
<text text-anchor="start" x="855.5" y="-118.8" font-family="Times,serif" font-size="14.00" fill="#000000">u4le</text>
<polygon fill="none" stroke="#000000" points="921.5,-112 921.5,-133 990.5,-133 990.5,-112 921.5,-112"/>
<text text-anchor="start" x="924.5" y="-118.8" font-family="Times,serif" font-size="14.00" fill="#000000">auth_uid</text>
<polygon fill="none" stroke="#000000" points="755.5,-91 755.5,-112 786.5,-112 786.5,-91 755.5,-91"/>
<text text-anchor="start" x="766" y="-97.8" font-family="Times,serif" font-size="14.00" fill="#000000">8</text>
<polygon fill="none" stroke="#000000" points="786.5,-91 786.5,-112 820.5,-112 820.5,-91 786.5,-91"/>
<text text-anchor="start" x="798.5" y="-97.8" font-family="Times,serif" font-size="14.00" fill="#000000">4</text>
<polygon fill="none" stroke="#000000" points="820.5,-91 820.5,-112 921.5,-112 921.5,-91 820.5,-91"/>
<text text-anchor="start" x="855.5" y="-97.8" font-family="Times,serif" font-size="14.00" fill="#000000">u4le</text>
<polygon fill="none" stroke="#000000" points="921.5,-91 921.5,-112 990.5,-112 990.5,-91 921.5,-91"/>
<text text-anchor="start" x="945" y="-97.8" font-family="Times,serif" font-size="14.00" fill="#000000">sid</text>
<polygon fill="none" stroke="#000000" points="755.5,-70 755.5,-91 786.5,-91 786.5,-70 755.5,-70"/>
<text text-anchor="start" x="761.5" y="-76.8" font-family="Times,serif" font-size="14.00" fill="#000000">12</text>
<polygon fill="none" stroke="#000000" points="786.5,-70 786.5,-91 820.5,-91 820.5,-70 786.5,-70"/>
<text text-anchor="start" x="794" y="-76.8" font-family="Times,serif" font-size="14.00" fill="#000000">16</text>
<polygon fill="none" stroke="#000000" points="820.5,-70 820.5,-91 921.5,-91 921.5,-70 820.5,-70"/>
<text text-anchor="start" x="836" y="-76.8" font-family="Times,serif" font-size="14.00" fill="#000000">Timespec</text>
<polygon fill="none" stroke="#000000" points="921.5,-70 921.5,-91 990.5,-91 990.5,-70 921.5,-70"/>
<text text-anchor="start" x="949" y="-76.8" font-family="Times,serif" font-size="14.00" fill="#000000">ts</text>
<polygon fill="none" stroke="#000000" points="755.5,-49 755.5,-70 786.5,-70 786.5,-49 755.5,-49"/>
<text text-anchor="start" x="761.5" y="-55.8" font-family="Times,serif" font-size="14.00" fill="#000000">28</text>
<polygon fill="none" stroke="#000000" points="786.5,-49 786.5,-70 820.5,-70 820.5,-49 786.5,-49"/>
<text text-anchor="start" x="798.5" y="-55.8" font-family="Times,serif" font-size="14.00" fill="#000000">4</text>
<polygon fill="none" stroke="#000000" points="820.5,-49 820.5,-70 921.5,-70 921.5,-49 820.5,-49"/>
<text text-anchor="start" x="855.5" y="-55.8" font-family="Times,serif" font-size="14.00" fill="#000000">u4le</text>
<polygon fill="none" stroke="#000000" points="921.5,-49 921.5,-70 990.5,-70 990.5,-49 921.5,-49"/>
<text text-anchor="start" x="933" y="-55.8" font-family="Times,serif" font-size="14.00" fill="#000000">ttydev</text>
<polygon fill="none" stroke="#000000" points="755.5,-28 755.5,-49 786.5,-49 786.5,-28 755.5,-28"/>
<text text-anchor="start" x="761.5" y="-34.8" font-family="Times,serif" font-size="14.00" fill="#000000">32</text>
<polygon fill="none" stroke="#000000" points="786.5,-28 786.5,-49 820.5,-49 820.5,-28 786.5,-28"/>
<text text-anchor="start" x="798.5" y="-34.8" font-family="Times,serif" font-size="14.00" fill="#000000">4</text>
<polygon fill="none" stroke="#000000" points="820.5,-28 820.5,-49 921.5,-49 921.5,-28 820.5,-28"/>
<text text-anchor="start" x="855.5" y="-34.8" font-family="Times,serif" font-size="14.00" fill="#000000">u4le</text>
<polygon fill="none" stroke="#000000" points="921.5,-28 921.5,-49 990.5,-49 990.5,-28 921.5,-28"/>
<text text-anchor="start" x="940" y="-34.8" font-family="Times,serif" font-size="14.00" fill="#000000">ppid</text>
</g>
<!-- record_v1__seq&#45;&gt;ts_flag__seq -->
<g id="edge5" class="edge">
<title>record_v1__seq:flags_type&#45;&gt;ts_flag__seq</title>
<path fill="none" stroke="#000000" stroke-width="2" d="M990.5,-144C1003.2604,-144 1016.5552,-144.259 1029.8357,-144.6892"/>
<polygon fill="#000000" stroke="#000000" stroke-width="2" points="1029.8614,-148.1922 1039.9795,-145.05 1030.1103,-141.1966 1029.8614,-148.1922"/>
</g>
<!-- record_v1__seq&#45;&gt;timespec__seq -->
<g id="edge6" class="edge">
<title>record_v1__seq:ts_type&#45;&gt;timespec__seq</title>
<path fill="none" stroke="#000000" stroke-width="2" d="M990.5,-80C1066.1173,-80 983.5677,-186.9286 1032,-245 1042.4478,-257.5271 1056.1741,-267.4715 1070.7436,-275.3266"/>
<polygon fill="#000000" stroke="#000000" stroke-width="2" points="1069.3983,-278.5682 1079.9024,-279.9519 1072.5539,-272.3197 1069.3983,-278.5682"/>
</g>
<!-- record__seq&#45;&gt;record__seq -->
<g id="edge10" class="edge">
<title>record__seq:version_type&#45;&gt;record__seq:payload_type</title>
<path fill="none" stroke="#404040" d="M465.3681,-271.0457C428.8441,-291.0366 436.5547,-314 488.5,-314 537.4724,-314 547.1285,-265.8751 517.4683,-235.8584"/>
<polygon fill="#404040" stroke="#404040" points="519.4269,-232.9244 509.5767,-229.0224 514.8436,-238.2154 519.4269,-232.9244"/>
</g>
<!-- record__seq_payload_switch -->
<g id="node7" class="node">
<title>record__seq_payload_switch</title>
<polygon fill="#f0f2e4" stroke="transparent" points="581,-250 581,-271 620,-271 620,-250 581,-250"/>
<polygon fill="none" stroke="#000000" points="581,-250 581,-271 620,-271 620,-250 581,-250"/>
<text text-anchor="start" x="584" y="-256.8" font-family="Times,serif" font-size="14.00" fill="#000000">case</text>
<polygon fill="#f0f2e4" stroke="transparent" points="620,-250 620,-271 697,-271 697,-250 620,-250"/>
<polygon fill="none" stroke="#000000" points="620,-250 620,-271 697,-271 697,-250 620,-250"/>
<text text-anchor="start" x="642.5" y="-256.8" font-family="Times,serif" font-size="14.00" fill="#000000">type</text>
<polygon fill="none" stroke="#000000" points="581,-229 581,-250 620,-250 620,-229 581,-229"/>
<text text-anchor="start" x="595.5" y="-235.8" font-family="Times,serif" font-size="14.00" fill="#000000">1</text>
<polygon fill="none" stroke="#000000" points="620,-229 620,-250 697,-250 697,-229 620,-229"/>
<text text-anchor="start" x="623" y="-235.8" font-family="Times,serif" font-size="14.00" fill="#000000">RecordV1</text>
<polygon fill="none" stroke="#000000" points="581,-208 581,-229 620,-229 620,-208 581,-208"/>
<text text-anchor="start" x="595.5" y="-214.8" font-family="Times,serif" font-size="14.00" fill="#000000">2</text>
<polygon fill="none" stroke="#000000" points="620,-208 620,-229 697,-229 697,-208 620,-208"/>
<text text-anchor="start" x="623" y="-214.8" font-family="Times,serif" font-size="14.00" fill="#000000">RecordV2</text>
</g>
<!-- record__seq&#45;&gt;record__seq_payload_switch -->
<g id="edge7" class="edge">
<title>record__seq:payload_type&#45;&gt;record__seq_payload_switch</title>
<path fill="none" stroke="#000000" stroke-width="2" d="M529.5,-218C540.3374,-218 551.6619,-219.0486 562.7444,-220.688"/>
<polygon fill="#000000" stroke="#000000" stroke-width="2" points="562.3979,-224.1779 572.8332,-222.3465 563.5335,-217.2706 562.3979,-224.1779"/>
</g>
<!-- record__seq_payload_switch&#45;&gt;record_v2__seq -->
<g id="edge9" class="edge">
<title>record__seq_payload_switch:case1&#45;&gt;record_v2__seq</title>
<path fill="none" stroke="#000000" stroke-width="2" d="M697,-218C703.5876,-218 719.6534,-227.5356 739.5326,-241.4016"/>
<polygon fill="#000000" stroke="#000000" stroke-width="2" points="737.7685,-244.4411 747.9517,-247.3658 741.815,-238.7291 737.7685,-244.4411"/>
</g>
<!-- record__seq_payload_switch&#45;&gt;record_v1__seq -->
<g id="edge8" class="edge">
<title>record__seq_payload_switch:case0&#45;&gt;record_v1__seq</title>
<path fill="none" stroke="#000000" stroke-width="2" d="M697,-239C728.9006,-239 758.9283,-225.058 784.822,-206.4129"/>
<polygon fill="#000000" stroke="#000000" stroke-width="2" points="787.1898,-209.0117 793.081,-200.2057 782.9842,-203.4159 787.1898,-209.0117"/>
</g>
</g>
</svg>
