<?xml version="1.0" encoding="UTF-8" standalone="no"?>
<!DOCTYPE svg PUBLIC "-//W3C//DTD SVG 1.1//EN"
 "http://www.w3.org/Graphics/SVG/1.1/DTD/svg11.dtd">
<!-- Generated by graphviz version 2.40.1 (20161225.0304)
 -->
<!-- Title: %3 Pages: 1 -->
<svg width="1094pt" height="523pt"
 viewBox="0.00 0.00 1094.00 523.00" xmlns="http://www.w3.org/2000/svg" xmlns:xlink="http://www.w3.org/1999/xlink">
<g id="graph0" class="graph" transform="scale(1 1) rotate(0) translate(4 519)">
<title>%3</title>
<polygon fill="#ffffff" stroke="transparent" points="-4,4 -4,-519 1090,-519 1090,4 -4,4"/>
<g id="clust1" class="cluster">
<title>cluster__sudoers_ts</title>
<polygon fill="none" stroke="#000000" stroke-dasharray="1,5" points="8,-8 8,-507 1078,-507 1078,-8 8,-8"/>
<text text-anchor="middle" x="543" y="-491.8" font-family="Times,serif" font-size="14.00" fill="#000000">SudoersTs</text>
</g>
<g id="clust2" class="cluster">
<title>cluster__record_v2</title>
<polygon fill="none" stroke="#000000" stroke-dasharray="1,5" points="612,-239 612,-476 843,-476 843,-239 612,-239"/>
<text text-anchor="middle" x="727.5" y="-460.8" font-family="Times,serif" font-size="14.00" fill="#000000">SudoersTs::RecordV2</text>
</g>
<g id="clust3" class="cluster">
<title>cluster__ts_flag</title>
<polygon fill="none" stroke="#000000" stroke-dasharray="1,5" points="863,-88 863,-241 1070,-241 1070,-88 863,-88"/>
<text text-anchor="middle" x="966.5" y="-225.8" font-family="Times,serif" font-size="14.00" fill="#000000">SudoersTs::TsFlag</text>
</g>
<g id="clust4" class="cluster">
<title>cluster__record_v1</title>
<polygon fill="none" stroke="#000000" stroke-dasharray="1,5" points="615.5,-16 615.5,-231 839.5,-231 839.5,-16 615.5,-16"/>
<text text-anchor="middle" x="727.5" y="-215.8" font-family="Times,serif" font-size="14.00" fill="#000000">SudoersTs::RecordV1</text>
</g>
<g id="clust5" class="cluster">
<title>cluster__timespec</title>
<polygon fill="none" stroke="#000000" stroke-dasharray="1,5" points="893.5,-259 893.5,-370 1039.5,-370 1039.5,-259 893.5,-259"/>
<text text-anchor="middle" x="966.5" y="-354.8" font-family="Times,serif" font-size="14.00" fill="#000000">SudoersTs::Timespec</text>
</g>
<g id="clust6" class="cluster">
<title>cluster__record</title>
<polygon fill="none" stroke="#000000" stroke-dasharray="1,5" points="205,-196 205,-345 592,-345 592,-196 205,-196"/>
<text text-anchor="middle" x="398.5" y="-329.8" font-family="Times,serif" font-size="14.00" fill="#000000">SudoersTs::Record</text>
</g>
<!-- sudoers_ts__seq -->
<g id="node1" class="node">
<title>sudoers_ts__seq</title>
<polygon fill="#e0ffe0" stroke="transparent" points="24.5,-261 24.5,-282 49.5,-282 49.5,-261 24.5,-261"/>
<polygon fill="none" stroke="#000000" points="24.5,-261 24.5,-282 49.5,-282 49.5,-261 24.5,-261"/>
<text text-anchor="start" x="27.5" y="-267.8" font-family="Times,serif" font-size="14.00" fill="#000000">pos</text>
<polygon fill="#e0ffe0" stroke="transparent" points="49.5,-261 49.5,-282 77.5,-282 77.5,-261 49.5,-261"/>
<polygon fill="none" stroke="#000000" points="49.5,-261 49.5,-282 77.5,-282 77.5,-261 49.5,-261"/>
<text text-anchor="start" x="52.5" y="-267.8" font-family="Times,serif" font-size="14.00" fill="#000000">size</text>
<polygon fill="#e0ffe0" stroke="transparent" points="77.5,-261 77.5,-282 123.5,-282 123.5,-261 77.5,-261"/>
<polygon fill="none" stroke="#000000" points="77.5,-261 77.5,-282 123.5,-282 123.5,-261 77.5,-261"/>
<text text-anchor="start" x="88.5" y="-267.8" font-family="Times,serif" font-size="14.00" fill="#000000">type</text>
<polygon fill="#e0ffe0" stroke="transparent" points="123.5,-261 123.5,-282 169.5,-282 169.5,-261 123.5,-261"/>
<polygon fill="none" stroke="#000000" points="123.5,-261 123.5,-282 169.5,-282 169.5,-261 123.5,-261"/>
<text text-anchor="start" x="141" y="-267.8" font-family="Times,serif" font-size="14.00" fill="#000000">id</text>
<polygon fill="none" stroke="#000000" points="24.5,-240 24.5,-261 49.5,-261 49.5,-240 24.5,-240"/>
<text text-anchor="start" x="33.5" y="-246.8" font-family="Times,serif" font-size="14.00" fill="#000000">0</text>
<polygon fill="none" stroke="#000000" points="49.5,-240 49.5,-261 77.5,-261 77.5,-240 49.5,-240"/>
<text text-anchor="start" x="57.5" y="-246.8" font-family="Times,serif" font-size="14.00" fill="#000000">...</text>
<polygon fill="none" stroke="#000000" points="77.5,-240 77.5,-261 123.5,-261 123.5,-240 77.5,-240"/>
<text text-anchor="start" x="80.5" y="-246.8" font-family="Times,serif" font-size="14.00" fill="#000000">Record</text>
<polygon fill="none" stroke="#000000" points="123.5,-240 123.5,-261 169.5,-261 169.5,-240 123.5,-240"/>
<text text-anchor="start" x="126.5" y="-246.8" font-family="Times,serif" font-size="14.00" fill="#000000">records</text>
<polygon fill="none" stroke="#000000" points="24.5,-219 24.5,-240 169.5,-240 169.5,-219 24.5,-219"/>
<text text-anchor="start" x="33.5" y="-225.8" font-family="Times,serif" font-size="14.00" fill="#000000">repeat to end of stream</text>
</g>
<!-- record__seq -->
<g id="node6" class="node">
<title>record__seq</title>
<polygon fill="#e0ffe0" stroke="transparent" points="221.5,-271 221.5,-292 246.5,-292 246.5,-271 221.5,-271"/>
<polygon fill="none" stroke="#000000" points="221.5,-271 221.5,-292 246.5,-292 246.5,-271 221.5,-271"/>
<text text-anchor="start" x="224.5" y="-277.8" font-family="Times,serif" font-size="14.00" fill="#000000">pos</text>
<polygon fill="#e0ffe0" stroke="transparent" points="246.5,-271 246.5,-292 274.5,-292 274.5,-271 246.5,-271"/>
<polygon fill="none" stroke="#000000" points="246.5,-271 246.5,-292 274.5,-292 274.5,-271 246.5,-271"/>
<text text-anchor="start" x="249.5" y="-277.8" font-family="Times,serif" font-size="14.00" fill="#000000">size</text>
<polygon fill="#e0ffe0" stroke="transparent" points="274.5,-271 274.5,-292 368.5,-292 368.5,-271 274.5,-271"/>
<polygon fill="none" stroke="#000000" points="274.5,-271 274.5,-292 368.5,-292 368.5,-271 274.5,-271"/>
<text text-anchor="start" x="309.5" y="-277.8" font-family="Times,serif" font-size="14.00" fill="#000000">type</text>
<polygon fill="#e0ffe0" stroke="transparent" points="368.5,-271 368.5,-292 432.5,-292 432.5,-271 368.5,-271"/>
<polygon fill="none" stroke="#000000" points="368.5,-271 368.5,-292 432.5,-292 432.5,-271 368.5,-271"/>
<text text-anchor="start" x="395" y="-277.8" font-family="Times,serif" font-size="14.00" fill="#000000">id</text>
<polygon fill="none" stroke="#000000" points="221.5,-250 221.5,-271 246.5,-271 246.5,-250 221.5,-250"/>
<text text-anchor="start" x="230.5" y="-256.8" font-family="Times,serif" font-size="14.00" fill="#000000">0</text>
<polygon fill="none" stroke="#000000" points="246.5,-250 246.5,-271 274.5,-271 274.5,-250 246.5,-250"/>
<text text-anchor="start" x="257" y="-256.8" font-family="Times,serif" font-size="14.00" fill="#000000">2</text>
<polygon fill="none" stroke="#000000" points="274.5,-250 274.5,-271 368.5,-271 368.5,-250 274.5,-250"/>
<text text-anchor="start" x="309.5" y="-256.8" font-family="Times,serif" font-size="14.00" fill="#000000">u2le</text>
<polygon fill="none" stroke="#000000" points="368.5,-250 368.5,-271 432.5,-271 432.5,-250 368.5,-250"/>
<text text-anchor="start" x="380.5" y="-256.8" font-family="Times,serif" font-size="14.00" fill="#000000">version</text>
<polygon fill="none" stroke="#000000" points="221.5,-229 221.5,-250 246.5,-250 246.5,-229 221.5,-229"/>
<text text-anchor="start" x="230.5" y="-235.8" font-family="Times,serif" font-size="14.00" fill="#000000">2</text>
<polygon fill="none" stroke="#000000" points="246.5,-229 246.5,-250 274.5,-250 274.5,-229 246.5,-229"/>
<text text-anchor="start" x="257" y="-235.8" font-family="Times,serif" font-size="14.00" fill="#000000">2</text>
<polygon fill="none" stroke="#000000" points="274.5,-229 274.5,-250 368.5,-250 368.5,-229 274.5,-229"/>
<text text-anchor="start" x="309.5" y="-235.8" font-family="Times,serif" font-size="14.00" fill="#000000">u2le</text>
<polygon fill="none" stroke="#000000" points="368.5,-229 368.5,-250 432.5,-250 432.5,-229 368.5,-229"/>
<text text-anchor="start" x="371.5" y="-235.8" font-family="Times,serif" font-size="14.00" fill="#000000">len_record</text>
<polygon fill="none" stroke="#000000" points="221.5,-208 221.5,-229 246.5,-229 246.5,-208 221.5,-208"/>
<text text-anchor="start" x="230.5" y="-214.8" font-family="Times,serif" font-size="14.00" fill="#000000">4</text>
<polygon fill="none" stroke="#000000" points="246.5,-208 246.5,-229 274.5,-229 274.5,-208 246.5,-208"/>
<text text-anchor="start" x="254.5" y="-214.8" font-family="Times,serif" font-size="14.00" fill="#000000">...</text>
<polygon fill="none" stroke="#000000" points="274.5,-208 274.5,-229 368.5,-229 368.5,-208 274.5,-208"/>
<text text-anchor="start" x="277.5" y="-214.8" font-family="Times,serif" font-size="14.00" fill="#000000">switch (version)</text>
<polygon fill="none" stroke="#000000" points="368.5,-208 368.5,-229 432.5,-229 432.5,-208 368.5,-208"/>
<text text-anchor="start" x="379" y="-214.8" font-family="Times,serif" font-size="14.00" fill="#000000">payload</text>
</g>
<!-- sudoers_ts__seq&#45;&gt;record__seq -->
<g id="edge1" class="edge">
<title>sudoers_ts__seq:records_type&#45;&gt;record__seq</title>
<path fill="none" stroke="#000000" stroke-width="2" d="M169.5,-250C180.2473,-250 191.4085,-250 202.601,-250"/>
<polygon fill="#000000" stroke="#000000" stroke-width="2" points="202.8778,-253.5001 212.8778,-250 202.8777,-246.5001 202.8778,-253.5001"/>
</g>
<!-- record_v2__seq -->
<g id="node2" class="node">
<title>record_v2__seq</title>
<polygon fill="#e0ffe0" stroke="transparent" points="628.5,-419 628.5,-440 653.5,-440 653.5,-419 628.5,-419"/>
<polygon fill="none" stroke="#000000" points="628.5,-419 628.5,-440 653.5,-440 653.5,-419 628.5,-419"/>
<text text-anchor="start" x="631.5" y="-425.8" font-family="Times,serif" font-size="14.00" fill="#000000">pos</text>
<polygon fill="#e0ffe0" stroke="transparent" points="653.5,-419 653.5,-440 681.5,-440 681.5,-419 653.5,-419"/>
<polygon fill="none" stroke="#000000" points="653.5,-419 653.5,-440 681.5,-440 681.5,-419 653.5,-419"/>
<text text-anchor="start" x="656.5" y="-425.8" font-family="Times,serif" font-size="14.00" fill="#000000">size</text>
<polygon fill="#e0ffe0" stroke="transparent" points="681.5,-419 681.5,-440 766.5,-440 766.5,-419 681.5,-419"/>
<polygon fill="none" stroke="#000000" points="681.5,-419 681.5,-440 766.5,-440 766.5,-419 681.5,-419"/>
<text text-anchor="start" x="712" y="-425.8" font-family="Times,serif" font-size="14.00" fill="#000000">type</text>
<polygon fill="#e0ffe0" stroke="transparent" points="766.5,-419 766.5,-440 827.5,-440 827.5,-419 766.5,-419"/>
<polygon fill="none" stroke="#000000" points="766.5,-419 766.5,-440 827.5,-440 827.5,-419 766.5,-419"/>
<text text-anchor="start" x="791.5" y="-425.8" font-family="Times,serif" font-size="14.00" fill="#000000">id</text>
<polygon fill="none" stroke="#000000" points="628.5,-398 628.5,-419 653.5,-419 653.5,-398 628.5,-398"/>
<text text-anchor="start" x="637.5" y="-404.8" font-family="Times,serif" font-size="14.00" fill="#000000">0</text>
<polygon fill="none" stroke="#000000" points="653.5,-398 653.5,-419 681.5,-419 681.5,-398 653.5,-398"/>
<text text-anchor="start" x="664" y="-404.8" font-family="Times,serif" font-size="14.00" fill="#000000">2</text>
<polygon fill="none" stroke="#000000" points="681.5,-398 681.5,-419 766.5,-419 766.5,-398 681.5,-398"/>
<text text-anchor="start" x="684.5" y="-404.8" font-family="Times,serif" font-size="14.00" fill="#000000">u2le→TsType</text>
<polygon fill="none" stroke="#000000" points="766.5,-398 766.5,-419 827.5,-419 827.5,-398 766.5,-398"/>
<text text-anchor="start" x="785" y="-404.8" font-family="Times,serif" font-size="14.00" fill="#000000">type</text>
<polygon fill="none" stroke="#000000" points="628.5,-377 628.5,-398 653.5,-398 653.5,-377 628.5,-377"/>
<text text-anchor="start" x="637.5" y="-383.8" font-family="Times,serif" font-size="14.00" fill="#000000">2</text>
<polygon fill="none" stroke="#000000" points="653.5,-377 653.5,-398 681.5,-398 681.5,-377 653.5,-377"/>
<text text-anchor="start" x="664" y="-383.8" font-family="Times,serif" font-size="14.00" fill="#000000">2</text>
<polygon fill="none" stroke="#000000" points="681.5,-377 681.5,-398 766.5,-398 766.5,-377 681.5,-377"/>
<text text-anchor="start" x="705" y="-383.8" font-family="Times,serif" font-size="14.00" fill="#000000">TsFlag</text>
<polygon fill="none" stroke="#000000" points="766.5,-377 766.5,-398 827.5,-398 827.5,-377 766.5,-377"/>
<text text-anchor="start" x="783.5" y="-383.8" font-family="Times,serif" font-size="14.00" fill="#000000">flags</text>
<polygon fill="none" stroke="#000000" points="628.5,-356 628.5,-377 653.5,-377 653.5,-356 628.5,-356"/>
<text text-anchor="start" x="637.5" y="-362.8" font-family="Times,serif" font-size="14.00" fill="#000000">4</text>
<polygon fill="none" stroke="#000000" points="653.5,-356 653.5,-377 681.5,-377 681.5,-356 653.5,-356"/>
<text text-anchor="start" x="664" y="-362.8" font-family="Times,serif" font-size="14.00" fill="#000000">4</text>
<polygon fill="none" stroke="#000000" points="681.5,-356 681.5,-377 766.5,-377 766.5,-356 681.5,-356"/>
<text text-anchor="start" x="712" y="-362.8" font-family="Times,serif" font-size="14.00" fill="#000000">u4le</text>
<polygon fill="none" stroke="#000000" points="766.5,-356 766.5,-377 827.5,-377 827.5,-356 766.5,-356"/>
<text text-anchor="start" x="773" y="-362.8" font-family="Times,serif" font-size="14.00" fill="#000000">auth_uid</text>
<polygon fill="none" stroke="#000000" points="628.5,-335 628.5,-356 653.5,-356 653.5,-335 628.5,-335"/>
<text text-anchor="start" x="637.5" y="-341.8" font-family="Times,serif" font-size="14.00" fill="#000000">8</text>
<polygon fill="none" stroke="#000000" points="653.5,-335 653.5,-356 681.5,-356 681.5,-335 653.5,-335"/>
<text text-anchor="start" x="664" y="-341.8" font-family="Times,serif" font-size="14.00" fill="#000000">4</text>
<polygon fill="none" stroke="#000000" points="681.5,-335 681.5,-356 766.5,-356 766.5,-335 681.5,-335"/>
<text text-anchor="start" x="712" y="-341.8" font-family="Times,serif" font-size="14.00" fill="#000000">u4le</text>
<polygon fill="none" stroke="#000000" points="766.5,-335 766.5,-356 827.5,-356 827.5,-335 766.5,-335"/>
<text text-anchor="start" x="789" y="-341.8" font-family="Times,serif" font-size="14.00" fill="#000000">sid</text>
<polygon fill="none" stroke="#000000" points="628.5,-314 628.5,-335 653.5,-335 653.5,-314 628.5,-314"/>
<text text-anchor="start" x="634" y="-320.8" font-family="Times,serif" font-size="14.00" fill="#000000">12</text>
<polygon fill="none" stroke="#000000" points="653.5,-314 653.5,-335 681.5,-335 681.5,-314 653.5,-314"/>
<text text-anchor="start" x="660.5" y="-320.8" font-family="Times,serif" font-size="14.00" fill="#000000">16</text>
<polygon fill="none" stroke="#000000" points="681.5,-314 681.5,-335 766.5,-335 766.5,-314 681.5,-314"/>
<text text-anchor="start" x="697" y="-320.8" font-family="Times,serif" font-size="14.00" fill="#000000">Timespec</text>
<polygon fill="none" stroke="#000000" points="766.5,-314 766.5,-335 827.5,-335 827.5,-314 766.5,-314"/>
<text text-anchor="start" x="769.5" y="-320.8" font-family="Times,serif" font-size="14.00" fill="#000000">start_time</text>
<polygon fill="none" stroke="#000000" points="628.5,-293 628.5,-314 653.5,-314 653.5,-293 628.5,-293"/>
<text text-anchor="start" x="634" y="-299.8" font-family="Times,serif" font-size="14.00" fill="#000000">28</text>
<polygon fill="none" stroke="#000000" points="653.5,-293 653.5,-314 681.5,-314 681.5,-293 653.5,-293"/>
<text text-anchor="start" x="660.5" y="-299.8" font-family="Times,serif" font-size="14.00" fill="#000000">16</text>
<polygon fill="none" stroke="#000000" points="681.5,-293 681.5,-314 766.5,-314 766.5,-293 681.5,-293"/>
<text text-anchor="start" x="697" y="-299.8" font-family="Times,serif" font-size="14.00" fill="#000000">Timespec</text>
<polygon fill="none" stroke="#000000" points="766.5,-293 766.5,-314 827.5,-314 827.5,-293 766.5,-293"/>
<text text-anchor="start" x="792" y="-299.8" font-family="Times,serif" font-size="14.00" fill="#000000">ts</text>
<polygon fill="none" stroke="#000000" points="628.5,-272 628.5,-293 653.5,-293 653.5,-272 628.5,-272"/>
<text text-anchor="start" x="634" y="-278.8" font-family="Times,serif" font-size="14.00" fill="#000000">44</text>
<polygon fill="none" stroke="#000000" points="653.5,-272 653.5,-293 681.5,-293 681.5,-272 653.5,-272"/>
<text text-anchor="start" x="664" y="-278.8" font-family="Times,serif" font-size="14.00" fill="#000000">4</text>
<polygon fill="none" stroke="#000000" points="681.5,-272 681.5,-293 766.5,-293 766.5,-272 681.5,-272"/>
<text text-anchor="start" x="712" y="-278.8" font-family="Times,serif" font-size="14.00" fill="#000000">u4le</text>
<polygon fill="none" stroke="#000000" points="766.5,-272 766.5,-293 827.5,-293 827.5,-272 766.5,-272"/>
<text text-anchor="start" x="780" y="-278.8" font-family="Times,serif" font-size="14.00" fill="#000000">ttydev</text>
<polygon fill="none" stroke="#000000" points="628.5,-251 628.5,-272 653.5,-272 653.5,-251 628.5,-251"/>
<text text-anchor="start" x="634" y="-257.8" font-family="Times,serif" font-size="14.00" fill="#000000">48</text>
<polygon fill="none" stroke="#000000" points="653.5,-251 653.5,-272 681.5,-272 681.5,-251 653.5,-251"/>
<text text-anchor="start" x="664" y="-257.8" font-family="Times,serif" font-size="14.00" fill="#000000">4</text>
<polygon fill="none" stroke="#000000" points="681.5,-251 681.5,-272 766.5,-272 766.5,-251 681.5,-251"/>
<text text-anchor="start" x="712" y="-257.8" font-family="Times,serif" font-size="14.00" fill="#000000">u4le</text>
<polygon fill="none" stroke="#000000" points="766.5,-251 766.5,-272 827.5,-272 827.5,-251 766.5,-251"/>
<text text-anchor="start" x="784.5" y="-257.8" font-family="Times,serif" font-size="14.00" fill="#000000">ppid</text>
</g>
<!-- ts_flag__seq -->
<g id="node3" class="node">
<title>ts_flag__seq</title>
<polygon fill="#e0ffe0" stroke="transparent" points="879.5,-184 879.5,-205 904.5,-205 904.5,-184 879.5,-184"/>
<polygon fill="none" stroke="#000000" points="879.5,-184 879.5,-205 904.5,-205 904.5,-184 879.5,-184"/>
<text text-anchor="start" x="882.5" y="-190.8" font-family="Times,serif" font-size="14.00" fill="#000000">pos</text>
<polygon fill="#e0ffe0" stroke="transparent" points="904.5,-184 904.5,-205 932.5,-205 932.5,-184 904.5,-184"/>
<polygon fill="none" stroke="#000000" points="904.5,-184 904.5,-205 932.5,-205 932.5,-184 904.5,-184"/>
<text text-anchor="start" x="907.5" y="-190.8" font-family="Times,serif" font-size="14.00" fill="#000000">size</text>
<polygon fill="#e0ffe0" stroke="transparent" points="932.5,-184 932.5,-205 995.5,-205 995.5,-184 932.5,-184"/>
<polygon fill="none" stroke="#000000" points="932.5,-184 932.5,-205 995.5,-205 995.5,-184 932.5,-184"/>
<text text-anchor="start" x="952" y="-190.8" font-family="Times,serif" font-size="14.00" fill="#000000">type</text>
<polygon fill="#e0ffe0" stroke="transparent" points="995.5,-184 995.5,-205 1054.5,-205 1054.5,-184 995.5,-184"/>
<polygon fill="none" stroke="#000000" points="995.5,-184 995.5,-205 1054.5,-205 1054.5,-184 995.5,-184"/>
<text text-anchor="start" x="1019.5" y="-190.8" font-family="Times,serif" font-size="14.00" fill="#000000">id</text>
<polygon fill="none" stroke="#000000" points="879.5,-163 879.5,-184 904.5,-184 904.5,-163 879.5,-163"/>
<text text-anchor="start" x="888.5" y="-169.8" font-family="Times,serif" font-size="14.00" fill="#000000">0</text>
<polygon fill="none" stroke="#000000" points="904.5,-163 904.5,-184 932.5,-184 932.5,-163 904.5,-163"/>
<text text-anchor="start" x="911.5" y="-169.8" font-family="Times,serif" font-size="14.00" fill="#000000">6b</text>
<polygon fill="none" stroke="#000000" points="932.5,-163 932.5,-184 995.5,-184 995.5,-163 932.5,-163"/>
<text text-anchor="start" x="957" y="-169.8" font-family="Times,serif" font-size="14.00" fill="#000000">b6</text>
<polygon fill="none" stroke="#000000" points="995.5,-163 995.5,-184 1054.5,-184 1054.5,-163 995.5,-163"/>
<text text-anchor="start" x="998.5" y="-169.8" font-family="Times,serif" font-size="14.00" fill="#000000">reserved0</text>
<polygon fill="none" stroke="#000000" points="879.5,-142 879.5,-163 904.5,-163 904.5,-142 879.5,-142"/>
<text text-anchor="start" x="883" y="-148.8" font-family="Times,serif" font-size="14.00" fill="#000000">0:6</text>
<polygon fill="none" stroke="#000000" points="904.5,-142 904.5,-163 932.5,-163 932.5,-142 904.5,-142"/>
<text text-anchor="start" x="911.5" y="-148.8" font-family="Times,serif" font-size="14.00" fill="#000000">1b</text>
<polygon fill="none" stroke="#000000" points="932.5,-142 932.5,-163 995.5,-163 995.5,-142 932.5,-142"/>
<text text-anchor="start" x="935.5" y="-148.8" font-family="Times,serif" font-size="14.00" fill="#000000">BitsType1</text>
<polygon fill="none" stroke="#000000" points="995.5,-142 995.5,-163 1054.5,-163 1054.5,-142 995.5,-142"/>
<text text-anchor="start" x="1006.5" y="-148.8" font-family="Times,serif" font-size="14.00" fill="#000000">anyuid</text>
<polygon fill="none" stroke="#000000" points="879.5,-121 879.5,-142 904.5,-142 904.5,-121 879.5,-121"/>
<text text-anchor="start" x="883" y="-127.8" font-family="Times,serif" font-size="14.00" fill="#000000">0:7</text>
<polygon fill="none" stroke="#000000" points="904.5,-121 904.5,-142 932.5,-142 932.5,-121 904.5,-121"/>
<text text-anchor="start" x="911.5" y="-127.8" font-family="Times,serif" font-size="14.00" fill="#000000">1b</text>
<polygon fill="none" stroke="#000000" points="932.5,-121 932.5,-142 995.5,-142 995.5,-121 932.5,-121"/>
<text text-anchor="start" x="935.5" y="-127.8" font-family="Times,serif" font-size="14.00" fill="#000000">BitsType1</text>
<polygon fill="none" stroke="#000000" points="995.5,-121 995.5,-142 1054.5,-142 1054.5,-121 995.5,-121"/>
<text text-anchor="start" x="1002" y="-127.8" font-family="Times,serif" font-size="14.00" fill="#000000">disabled</text>
<polygon fill="none" stroke="#000000" points="879.5,-100 879.5,-121 904.5,-121 904.5,-100 879.5,-100"/>
<text text-anchor="start" x="888.5" y="-106.8" font-family="Times,serif" font-size="14.00" fill="#000000">1</text>
<polygon fill="none" stroke="#000000" points="904.5,-100 904.5,-121 932.5,-121 932.5,-100 904.5,-100"/>
<text text-anchor="start" x="915" y="-106.8" font-family="Times,serif" font-size="14.00" fill="#000000">1</text>
<polygon fill="none" stroke="#000000" points="932.5,-100 932.5,-121 995.5,-121 995.5,-100 932.5,-100"/>
<text text-anchor="start" x="957" y="-106.8" font-family="Times,serif" font-size="14.00" fill="#000000">b8</text>
<polygon fill="none" stroke="#000000" points="995.5,-100 995.5,-121 1054.5,-121 1054.5,-100 995.5,-100"/>
<text text-anchor="start" x="998.5" y="-106.8" font-family="Times,serif" font-size="14.00" fill="#000000">reserved1</text>
</g>
<!-- record_v2__seq&#45;&gt;ts_flag__seq -->
<g id="edge2" class="edge">
<title>record_v2__seq:flags_type&#45;&gt;ts_flag__seq</title>
<path fill="none" stroke="#000000" stroke-width="2" d="M827.5,-388C888.6806,-388 832.242,-307.8867 863,-255 870.7511,-241.6723 880.6999,-228.895 891.3553,-217.1649"/>
<polygon fill="#000000" stroke="#000000" stroke-width="2" points="894.1521,-219.2993 898.4434,-209.6124 889.0479,-214.5089 894.1521,-219.2993"/>
</g>
<!-- timespec__seq -->
<g id="node5" class="node">
<title>timespec__seq</title>
<polygon fill="#e0ffe0" stroke="transparent" points="909.5,-313 909.5,-334 934.5,-334 934.5,-313 909.5,-313"/>
<polygon fill="none" stroke="#000000" points="909.5,-313 909.5,-334 934.5,-334 934.5,-313 909.5,-313"/>
<text text-anchor="start" x="912.5" y="-319.8" font-family="Times,serif" font-size="14.00" fill="#000000">pos</text>
<polygon fill="#e0ffe0" stroke="transparent" points="934.5,-313 934.5,-334 962.5,-334 962.5,-313 934.5,-313"/>
<polygon fill="none" stroke="#000000" points="934.5,-313 934.5,-334 962.5,-334 962.5,-313 934.5,-313"/>
<text text-anchor="start" x="937.5" y="-319.8" font-family="Times,serif" font-size="14.00" fill="#000000">size</text>
<polygon fill="#e0ffe0" stroke="transparent" points="962.5,-313 962.5,-334 992.5,-334 992.5,-313 962.5,-313"/>
<polygon fill="none" stroke="#000000" points="962.5,-313 962.5,-334 992.5,-334 992.5,-313 962.5,-313"/>
<text text-anchor="start" x="965.5" y="-319.8" font-family="Times,serif" font-size="14.00" fill="#000000">type</text>
<polygon fill="#e0ffe0" stroke="transparent" points="992.5,-313 992.5,-334 1023.5,-334 1023.5,-313 992.5,-313"/>
<polygon fill="none" stroke="#000000" points="992.5,-313 992.5,-334 1023.5,-334 1023.5,-313 992.5,-313"/>
<text text-anchor="start" x="1002.5" y="-319.8" font-family="Times,serif" font-size="14.00" fill="#000000">id</text>
<polygon fill="none" stroke="#000000" points="909.5,-292 909.5,-313 934.5,-313 934.5,-292 909.5,-292"/>
<text text-anchor="start" x="918.5" y="-298.8" font-family="Times,serif" font-size="14.00" fill="#000000">0</text>
<polygon fill="none" stroke="#000000" points="934.5,-292 934.5,-313 962.5,-313 962.5,-292 934.5,-292"/>
<text text-anchor="start" x="945" y="-298.8" font-family="Times,serif" font-size="14.00" fill="#000000">8</text>
<polygon fill="none" stroke="#000000" points="962.5,-292 962.5,-313 992.5,-313 992.5,-292 962.5,-292"/>
<text text-anchor="start" x="966.5" y="-298.8" font-family="Times,serif" font-size="14.00" fill="#000000">s8le</text>
<polygon fill="none" stroke="#000000" points="992.5,-292 992.5,-313 1023.5,-313 1023.5,-292 992.5,-292"/>
<text text-anchor="start" x="999" y="-298.8" font-family="Times,serif" font-size="14.00" fill="#000000">sec</text>
<polygon fill="none" stroke="#000000" points="909.5,-271 909.5,-292 934.5,-292 934.5,-271 909.5,-271"/>
<text text-anchor="start" x="918.5" y="-277.8" font-family="Times,serif" font-size="14.00" fill="#000000">8</text>
<polygon fill="none" stroke="#000000" points="934.5,-271 934.5,-292 962.5,-292 962.5,-271 934.5,-271"/>
<text text-anchor="start" x="945" y="-277.8" font-family="Times,serif" font-size="14.00" fill="#000000">8</text>
<polygon fill="none" stroke="#000000" points="962.5,-271 962.5,-292 992.5,-292 992.5,-271 962.5,-271"/>
<text text-anchor="start" x="966.5" y="-277.8" font-family="Times,serif" font-size="14.00" fill="#000000">s8le</text>
<polygon fill="none" stroke="#000000" points="992.5,-271 992.5,-292 1023.5,-292 1023.5,-271 992.5,-271"/>
<text text-anchor="start" x="995.5" y="-277.8" font-family="Times,serif" font-size="14.00" fill="#000000">nsec</text>
</g>
<!-- record_v2__seq&#45;&gt;timespec__seq -->
<g id="edge3" class="edge">
<title>record_v2__seq:start_time_type&#45;&gt;timespec__seq</title>
<path fill="none" stroke="#000000" stroke-width="2" d="M827.5,-324C848.3689,-324 870.8044,-321.6571 891.4317,-318.5365"/>
<polygon fill="#000000" stroke="#000000" stroke-width="2" points="892.0729,-321.9785 901.3978,-316.9489 890.9717,-315.0657 892.0729,-321.9785"/>
</g>
<!-- record_v2__seq&#45;&gt;timespec__seq -->
<g id="edge4" class="edge">
<title>record_v2__seq:ts_type&#45;&gt;timespec__seq</title>
<path fill="none" stroke="#000000" stroke-width="2" d="M827.5,-303C848.2384,-303 870.7172,-303 891.431,-303"/>
<polygon fill="#000000" stroke="#000000" stroke-width="2" points="891.4424,-306.5001 901.4424,-303 891.4423,-299.5001 891.4424,-306.5001"/>
</g>
<!-- record_v1__seq -->
<g id="node4" class="node">
<title>record_v1__seq</title>
<polygon fill="#e0ffe0" stroke="transparent" points="631.5,-175 631.5,-196 656.5,-196 656.5,-175 631.5,-175"/>
<polygon fill="none" stroke="#000000" points="631.5,-175 631.5,-196 656.5,-196 656.5,-175 631.5,-175"/>
<text text-anchor="start" x="634.5" y="-181.8" font-family="Times,serif" font-size="14.00" fill="#000000">pos</text>
<polygon fill="#e0ffe0" stroke="transparent" points="656.5,-175 656.5,-196 684.5,-196 684.5,-175 656.5,-175"/>
<polygon fill="none" stroke="#000000" points="656.5,-175 656.5,-196 684.5,-196 684.5,-175 656.5,-175"/>
<text text-anchor="start" x="659.5" y="-181.8" font-family="Times,serif" font-size="14.00" fill="#000000">size</text>
<polygon fill="#e0ffe0" stroke="transparent" points="684.5,-175 684.5,-196 769.5,-196 769.5,-175 684.5,-175"/>
<polygon fill="none" stroke="#000000" points="684.5,-175 684.5,-196 769.5,-196 769.5,-175 684.5,-175"/>
<text text-anchor="start" x="715" y="-181.8" font-family="Times,serif" font-size="14.00" fill="#000000">type</text>
<polygon fill="#e0ffe0" stroke="transparent" points="769.5,-175 769.5,-196 823.5,-196 823.5,-175 769.5,-175"/>
<polygon fill="none" stroke="#000000" points="769.5,-175 769.5,-196 823.5,-196 823.5,-175 769.5,-175"/>
<text text-anchor="start" x="791" y="-181.8" font-family="Times,serif" font-size="14.00" fill="#000000">id</text>
<polygon fill="none" stroke="#000000" points="631.5,-154 631.5,-175 656.5,-175 656.5,-154 631.5,-154"/>
<text text-anchor="start" x="640.5" y="-160.8" font-family="Times,serif" font-size="14.00" fill="#000000">0</text>
<polygon fill="none" stroke="#000000" points="656.5,-154 656.5,-175 684.5,-175 684.5,-154 656.5,-154"/>
<text text-anchor="start" x="667" y="-160.8" font-family="Times,serif" font-size="14.00" fill="#000000">2</text>
<polygon fill="none" stroke="#000000" points="684.5,-154 684.5,-175 769.5,-175 769.5,-154 684.5,-154"/>
<text text-anchor="start" x="687.5" y="-160.8" font-family="Times,serif" font-size="14.00" fill="#000000">u2le→TsType</text>
<polygon fill="none" stroke="#000000" points="769.5,-154 769.5,-175 823.5,-175 823.5,-154 769.5,-154"/>
<text text-anchor="start" x="784.5" y="-160.8" font-family="Times,serif" font-size="14.00" fill="#000000">type</text>
<polygon fill="none" stroke="#000000" points="631.5,-133 631.5,-154 656.5,-154 656.5,-133 631.5,-133"/>
<text text-anchor="start" x="640.5" y="-139.8" font-family="Times,serif" font-size="14.00" fill="#000000">2</text>
<polygon fill="none" stroke="#000000" points="656.5,-133 656.5,-154 684.5,-154 684.5,-133 656.5,-133"/>
<text text-anchor="start" x="667" y="-139.8" font-family="Times,serif" font-size="14.00" fill="#000000">2</text>
<polygon fill="none" stroke="#000000" points="684.5,-133 684.5,-154 769.5,-154 769.5,-133 684.5,-133"/>
<text text-anchor="start" x="708" y="-139.8" font-family="Times,serif" font-size="14.00" fill="#000000">TsFlag</text>
<polygon fill="none" stroke="#000000" points="769.5,-133 769.5,-154 823.5,-154 823.5,-133 769.5,-133"/>
<text text-anchor="start" x="783" y="-139.8" font-family="Times,serif" font-size="14.00" fill="#000000">flags</text>
<polygon fill="none" stroke="#000000" points="631.5,-112 631.5,-133 656.5,-133 656.5,-112 631.5,-112"/>
<text text-anchor="start" x="640.5" y="-118.8" font-family="Times,serif" font-size="14.00" fill="#000000">4</text>
<polygon fill="none" stroke="#000000" points="656.5,-112 656.5,-133 684.5,-133 684.5,-112 656.5,-112"/>
<text text-anchor="start" x="667" y="-118.8" font-family="Times,serif" font-size="14.00" fill="#000000">4</text>
<polygon fill="none" stroke="#000000" points="684.5,-112 684.5,-133 769.5,-133 769.5,-112 684.5,-112"/>
<text text-anchor="start" x="715" y="-118.8" font-family="Times,serif" font-size="14.00" fill="#000000">u4le</text>
<polygon fill="none" stroke="#000000" points="769.5,-112 769.5,-133 823.5,-133 823.5,-112 769.5,-112"/>
<text text-anchor="start" x="772.5" y="-118.8" font-family="Times,serif" font-size="14.00" fill="#000000">auth_uid</text>
<polygon fill="none" stroke="#000000" points="631.5,-91 631.5,-112 656.5,-112 656.5,-91 631.5,-91"/>
<text text-anchor="start" x="640.5" y="-97.8" font-family="Times,serif" font-size="14.00" fill="#000000">8</text>
<polygon fill="none" stroke="#000000" points="656.5,-91 656.5,-112 684.5,-112 684.5,-91 656.5,-91"/>
<text text-anchor="start" x="667" y="-97.8" font-family="Times,serif" font-size="14.00" fill="#000000">4</text>
<polygon fill="none" stroke="#000000" points="684.5,-91 684.5,-112 769.5,-112 769.5,-91 684.5,-91"/>
<text text-anchor="start" x="715" y="-97.8" font-family="Times,serif" font-size="14.00" fill="#000000">u4le</text>
<polygon fill="none" stroke="#000000" points="769.5,-91 769.5,-112 823.5,-112 823.5,-91 769.5,-91"/>
<text text-anchor="start" x="788.5" y="-97.8" font-family="Times,serif" font-size="14.00" fill="#000000">sid</text>
<polygon fill="none" stroke="#000000" points="631.5,-70 631.5,-91 656.5,-91 656.5,-70 631.5,-70"/>
<text text-anchor="start" x="637" y="-76.8" font-family="Times,serif" font-size="14.00" fill="#000000">12</text>
<polygon fill="none" stroke="#000000" points="656.5,-70 656.5,-91 684.5,-91 684.5,-70 656.5,-70"/>
<text text-anchor="start" x="663.5" y="-76.8" font-family="Times,serif" font-size="14.00" fill="#000000">16</text>
<polygon fill="none" stroke="#000000" points="684.5,-70 684.5,-91 769.5,-91 769.5,-70 684.5,-70"/>
<text text-anchor="start" x="700" y="-76.8" font-family="Times,serif" font-size="14.00" fill="#000000">Timespec</text>
<polygon fill="none" stroke="#000000" points="769.5,-70 769.5,-91 823.5,-91 823.5,-70 769.5,-70"/>
<text text-anchor="start" x="791.5" y="-76.8" font-family="Times,serif" font-size="14.00" fill="#000000">ts</text>
<polygon fill="none" stroke="#000000" points="631.5,-49 631.5,-70 656.5,-70 656.5,-49 631.5,-49"/>
<text text-anchor="start" x="637" y="-55.8" font-family="Times,serif" font-size="14.00" fill="#000000">28</text>
<polygon fill="none" stroke="#000000" points="656.5,-49 656.5,-70 684.5,-70 684.5,-49 656.5,-49"/>
<text text-anchor="start" x="667" y="-55.8" font-family="Times,serif" font-size="14.00" fill="#000000">4</text>
<polygon fill="none" stroke="#000000" points="684.5,-49 684.5,-70 769.5,-70 769.5,-49 684.5,-49"/>
<text text-anchor="start" x="715" y="-55.8" font-family="Times,serif" font-size="14.00" fill="#000000">u4le</text>
<polygon fill="none" stroke="#000000" points="769.5,-49 769.5,-70 823.5,-70 823.5,-49 769.5,-49"/>
<text text-anchor="start" x="779.5" y="-55.8" font-family="Times,serif" font-size="14.00" fill="#000000">ttydev</text>
<polygon fill="none" stroke="#000000" points="631.5,-28 631.5,-49 656.5,-49 656.5,-28 631.5,-28"/>
<text text-anchor="start" x="637" y="-34.8" font-family="Times,serif" font-size="14.00" fill="#000000">32</text>
<polygon fill="none" stroke="#000000" points="656.5,-28 656.5,-49 684.5,-49 684.5,-28 656.5,-28"/>
<text text-anchor="start" x="667" y="-34.8" font-family="Times,serif" font-size="14.00" fill="#000000">4</text>
<polygon fill="none" stroke="#000000" points="684.5,-28 684.5,-49 769.5,-49 769.5,-28 684.5,-28"/>
<text text-anchor="start" x="715" y="-34.8" font-family="Times,serif" font-size="14.00" fill="#000000">u4le</text>
<polygon fill="none" stroke="#000000" points="769.5,-28 769.5,-49 823.5,-49 823.5,-28 769.5,-28"/>
<text text-anchor="start" x="784" y="-34.8" font-family="Times,serif" font-size="14.00" fill="#000000">ppid</text>
</g>
<!-- record_v1__seq&#45;&gt;ts_flag__seq -->
<g id="edge5" class="edge">
<title>record_v1__seq:flags_type&#45;&gt;ts_flag__seq</title>
<path fill="none" stroke="#000000" stroke-width="2" d="M823.5,-144C835.5714,-144 848.2047,-144.3234 860.7532,-144.8476"/>
<polygon fill="#000000" stroke="#000000" stroke-width="2" points="860.636,-148.3458 870.7862,-145.3087 860.9575,-141.3532 860.636,-148.3458"/>
</g>
<!-- record_v1__seq&#45;&gt;timespec__seq -->
<g id="edge6" class="edge">
<title>record_v1__seq:ts_type&#45;&gt;timespec__seq</title>
<path fill="none" stroke="#000000" stroke-width="2" d="M823.5,-80C898.9054,-80 817.5163,-184.8568 863,-245 870.97,-255.5388 881.4446,-264.4378 892.6681,-271.8571"/>
<polygon fill="#000000" stroke="#000000" stroke-width="2" points="891.0232,-274.9552 901.3677,-277.2449 894.7089,-269.0041 891.0232,-274.9552"/>
</g>
<!-- record__seq&#45;&gt;record__seq -->
<g id="edge10" class="edge">
<title>record__seq:version_type&#45;&gt;record__seq:payload_type</title>
<path fill="none" stroke="#404040" d="M381.3498,-271.0457C351.1127,-291.0366 357.4961,-314 400.5,-314 440.7006,-314 448.8994,-266.6839 425.0966,-236.6221"/>
<polygon fill="#404040" stroke="#404040" points="427.3495,-233.9088 417.9488,-229.0224 422.2505,-238.7047 427.3495,-233.9088"/>
</g>
<!-- record__seq_payload_switch -->
<g id="node7" class="node">
<title>record__seq_payload_switch</title>
<polygon fill="#f0f2e4" stroke="transparent" points="484,-250 484,-271 514,-271 514,-250 484,-250"/>
<polygon fill="none" stroke="#000000" points="484,-250 484,-271 514,-271 514,-250 484,-250"/>
<text text-anchor="start" x="487" y="-256.8" font-family="Times,serif" font-size="14.00" fill="#000000">case</text>
<polygon fill="#f0f2e4" stroke="transparent" points="514,-250 514,-271 576,-271 576,-250 514,-250"/>
<polygon fill="none" stroke="#000000" points="514,-250 514,-271 576,-271 576,-250 514,-250"/>
<text text-anchor="start" x="533" y="-256.8" font-family="Times,serif" font-size="14.00" fill="#000000">type</text>
<polygon fill="none" stroke="#000000" points="484,-229 484,-250 514,-250 514,-229 484,-229"/>
<text text-anchor="start" x="495.5" y="-235.8" font-family="Times,serif" font-size="14.00" fill="#000000">1</text>
<polygon fill="none" stroke="#000000" points="514,-229 514,-250 576,-250 576,-229 514,-229"/>
<text text-anchor="start" x="517" y="-235.8" font-family="Times,serif" font-size="14.00" fill="#000000">RecordV1</text>
<polygon fill="none" stroke="#000000" points="484,-208 484,-229 514,-229 514,-208 484,-208"/>
<text text-anchor="start" x="495.5" y="-214.8" font-family="Times,serif" font-size="14.00" fill="#000000">2</text>
<polygon fill="none" stroke="#000000" points="514,-208 514,-229 576,-229 576,-208 514,-208"/>
<text text-anchor="start" x="517" y="-214.8" font-family="Times,serif" font-size="14.00" fill="#000000">RecordV2</text>
</g>
<!-- record__seq&#45;&gt;record__seq_payload_switch -->
<g id="edge7" class="edge">
<title>record__seq:payload_type&#45;&gt;record__seq_payload_switch</title>
<path fill="none" stroke="#000000" stroke-width="2" d="M432.5,-218C443.3942,-218 454.8089,-219.3231 465.8336,-221.3204"/>
<polygon fill="#000000" stroke="#000000" stroke-width="2" points="465.3293,-224.7889 475.8226,-223.3256 466.707,-217.9258 465.3293,-224.7889"/>
</g>
<!-- record__seq_payload_switch&#45;&gt;record_v2__seq -->
<g id="edge9" class="edge">
<title>record__seq_payload_switch:case1&#45;&gt;record_v2__seq</title>
<path fill="none" stroke="#000000" stroke-width="2" d="M576,-218C581.9346,-218 595.6602,-227.283 612.5501,-240.8492"/>
<polygon fill="#000000" stroke="#000000" stroke-width="2" points="610.56,-243.7432 620.5163,-247.3658 614.9922,-238.325 610.56,-243.7432"/>
</g>
<!-- record__seq_payload_switch&#45;&gt;record_v1__seq -->
<g id="edge8" class="edge">
<title>record__seq_payload_switch:case0&#45;&gt;record_v1__seq</title>
<path fill="none" stroke="#000000" stroke-width="2" d="M576,-239C604.8593,-239 631.105,-225.2984 653.3407,-206.8961"/>
<polygon fill="#000000" stroke="#000000" stroke-width="2" points="655.7858,-209.4082 661.0362,-200.2057 651.1931,-204.1255 655.7858,-209.4082"/>
</g>
</g>
</svg>
