<?xml version="1.0" encoding="UTF-8" standalone="no"?>
<!DOCTYPE svg PUBLIC "-//W3C//DTD SVG 1.1//EN"
 "http://www.w3.org/Graphics/SVG/1.1/DTD/svg11.dtd">
<!-- Generated by graphviz version 2.43.0 (0)
 -->
<!-- Title: %3 Pages: 1 -->
<svg width="1310pt" height="606pt"
 viewBox="0.00 0.00 1310.00 606.00" xmlns="http://www.w3.org/2000/svg" xmlns:xlink="http://www.w3.org/1999/xlink">
<g id="graph0" class="graph" transform="scale(1 1) rotate(0) translate(4 602)">
<title>%3</title>
<polygon fill="white" stroke="transparent" points="-4,4 -4,-602 1306,-602 1306,4 -4,4"/>
<g id="clust1" class="cluster">
<title>cluster__sudoers_ts</title>
<polygon fill="none" stroke="black" stroke-dasharray="1,5" points="8,-8 8,-590 1294,-590 1294,-8 8,-8"/>
<text text-anchor="middle" x="651" y="-574.8" font-family="Times,serif" font-size="14.00">SudoersTs</text>
</g>
<g id="clust2" class="cluster">
<title>cluster__record</title>
<polygon fill="none" stroke="black" stroke-dasharray="1,5" points="243,-248 243,-397 709,-397 709,-248 243,-248"/>
<text text-anchor="middle" x="476" y="-381.8" font-family="Times,serif" font-size="14.00">SudoersTs::Record</text>
</g>
<g id="clust3" class="cluster">
<title>cluster__record_v1</title>
<polygon fill="none" stroke="black" stroke-dasharray="1,5" points="735,-302 735,-559 1000,-559 1000,-302 735,-302"/>
<text text-anchor="middle" x="867.5" y="-543.8" font-family="Times,serif" font-size="14.00">SudoersTs::RecordV1</text>
</g>
<g id="clust4" class="cluster">
<title>cluster__record_v2</title>
<polygon fill="none" stroke="black" stroke-dasharray="1,5" points="729,-16 729,-294 1006,-294 1006,-16 729,-16"/>
<text text-anchor="middle" x="867.5" y="-278.8" font-family="Times,serif" font-size="14.00">SudoersTs::RecordV2</text>
</g>
<g id="clust5" class="cluster">
<title>cluster__timespec</title>
<polygon fill="none" stroke="black" stroke-dasharray="1,5" points="1069,-98 1069,-209 1243,-209 1243,-98 1069,-98"/>
<text text-anchor="middle" x="1156" y="-193.8" font-family="Times,serif" font-size="14.00">SudoersTs::Timespec</text>
</g>
<g id="clust6" class="cluster">
<title>cluster__ts_flag</title>
<polygon fill="none" stroke="black" stroke-dasharray="1,5" points="1026,-311 1026,-464 1286,-464 1286,-311 1026,-311"/>
<text text-anchor="middle" x="1156" y="-448.8" font-family="Times,serif" font-size="14.00">SudoersTs::TsFlag</text>
</g>
<!-- sudoers_ts__seq -->
<g id="node1" class="node">
<title>sudoers_ts__seq</title>
<polygon fill="#e0ffe0" stroke="transparent" points="24.5,-313 24.5,-334 55.5,-334 55.5,-313 24.5,-313"/>
<polygon fill="none" stroke="black" points="24.5,-313 24.5,-334 55.5,-334 55.5,-313 24.5,-313"/>
<text text-anchor="start" x="27.5" y="-319.8" font-family="Times,serif" font-size="14.00">pos</text>
<polygon fill="#e0ffe0" stroke="transparent" points="55.5,-313 55.5,-334 89.5,-334 89.5,-313 55.5,-313"/>
<polygon fill="none" stroke="black" points="55.5,-313 55.5,-334 89.5,-334 89.5,-313 55.5,-313"/>
<text text-anchor="start" x="58.5" y="-319.8" font-family="Times,serif" font-size="14.00">size</text>
<polygon fill="#e0ffe0" stroke="transparent" points="89.5,-313 89.5,-334 146.5,-334 146.5,-313 89.5,-313"/>
<polygon fill="none" stroke="black" points="89.5,-313 89.5,-334 146.5,-334 146.5,-313 89.5,-313"/>
<text text-anchor="start" x="102" y="-319.8" font-family="Times,serif" font-size="14.00">type</text>
<polygon fill="#e0ffe0" stroke="transparent" points="146.5,-313 146.5,-334 207.5,-334 207.5,-313 146.5,-313"/>
<polygon fill="none" stroke="black" points="146.5,-313 146.5,-334 207.5,-334 207.5,-313 146.5,-313"/>
<text text-anchor="start" x="170" y="-319.8" font-family="Times,serif" font-size="14.00">id</text>
<polygon fill="none" stroke="black" points="24.5,-292 24.5,-313 55.5,-313 55.5,-292 24.5,-292"/>
<text text-anchor="start" x="35" y="-298.8" font-family="Times,serif" font-size="14.00">0</text>
<polygon fill="none" stroke="black" points="55.5,-292 55.5,-313 89.5,-313 89.5,-292 55.5,-292"/>
<text text-anchor="start" x="65.5" y="-298.8" font-family="Times,serif" font-size="14.00">...</text>
<polygon fill="none" stroke="black" points="89.5,-292 89.5,-313 146.5,-313 146.5,-292 89.5,-292"/>
<text text-anchor="start" x="92.5" y="-298.8" font-family="Times,serif" font-size="14.00">Record</text>
<polygon fill="none" stroke="black" points="146.5,-292 146.5,-313 207.5,-313 207.5,-292 146.5,-292"/>
<text text-anchor="start" x="149.5" y="-298.8" font-family="Times,serif" font-size="14.00">records</text>
<polygon fill="none" stroke="black" points="24.5,-271 24.5,-292 207.5,-292 207.5,-271 24.5,-271"/>
<text text-anchor="start" x="31.5" y="-277.8" font-family="Times,serif" font-size="14.00">repeat to end of stream</text>
</g>
<!-- record__seq -->
<g id="node2" class="node">
<title>record__seq</title>
<polygon fill="#e0ffe0" stroke="transparent" points="259,-323 259,-344 290,-344 290,-323 259,-323"/>
<polygon fill="none" stroke="black" points="259,-323 259,-344 290,-344 290,-323 259,-323"/>
<text text-anchor="start" x="262" y="-329.8" font-family="Times,serif" font-size="14.00">pos</text>
<polygon fill="#e0ffe0" stroke="transparent" points="290,-323 290,-344 324,-344 324,-323 290,-323"/>
<polygon fill="none" stroke="black" points="290,-323 290,-344 324,-344 324,-323 290,-323"/>
<text text-anchor="start" x="293" y="-329.8" font-family="Times,serif" font-size="14.00">size</text>
<polygon fill="#e0ffe0" stroke="transparent" points="324,-323 324,-344 445,-344 445,-323 324,-323"/>
<polygon fill="none" stroke="black" points="324,-323 324,-344 445,-344 445,-323 324,-323"/>
<text text-anchor="start" x="368.5" y="-329.8" font-family="Times,serif" font-size="14.00">type</text>
<polygon fill="#e0ffe0" stroke="transparent" points="445,-323 445,-344 527,-344 527,-323 445,-323"/>
<polygon fill="none" stroke="black" points="445,-323 445,-344 527,-344 527,-323 445,-323"/>
<text text-anchor="start" x="479" y="-329.8" font-family="Times,serif" font-size="14.00">id</text>
<polygon fill="none" stroke="black" points="259,-302 259,-323 290,-323 290,-302 259,-302"/>
<text text-anchor="start" x="269.5" y="-308.8" font-family="Times,serif" font-size="14.00">0</text>
<polygon fill="none" stroke="black" points="290,-302 290,-323 324,-323 324,-302 290,-302"/>
<text text-anchor="start" x="302" y="-308.8" font-family="Times,serif" font-size="14.00">2</text>
<polygon fill="none" stroke="black" points="324,-302 324,-323 445,-323 445,-302 324,-302"/>
<text text-anchor="start" x="369" y="-308.8" font-family="Times,serif" font-size="14.00">u2le</text>
<polygon fill="none" stroke="black" points="445,-302 445,-323 527,-323 527,-302 445,-302"/>
<text text-anchor="start" x="459.5" y="-308.8" font-family="Times,serif" font-size="14.00">version</text>
<polygon fill="none" stroke="black" points="259,-281 259,-302 290,-302 290,-281 259,-281"/>
<text text-anchor="start" x="269.5" y="-287.8" font-family="Times,serif" font-size="14.00">2</text>
<polygon fill="none" stroke="black" points="290,-281 290,-302 324,-302 324,-281 290,-281"/>
<text text-anchor="start" x="302" y="-287.8" font-family="Times,serif" font-size="14.00">2</text>
<polygon fill="none" stroke="black" points="324,-281 324,-302 445,-302 445,-281 324,-281"/>
<text text-anchor="start" x="369" y="-287.8" font-family="Times,serif" font-size="14.00">u2le</text>
<polygon fill="none" stroke="black" points="445,-281 445,-302 527,-302 527,-281 445,-281"/>
<text text-anchor="start" x="448" y="-287.8" font-family="Times,serif" font-size="14.00">len_record</text>
<polygon fill="none" stroke="black" points="259,-260 259,-281 290,-281 290,-260 259,-260"/>
<text text-anchor="start" x="269.5" y="-266.8" font-family="Times,serif" font-size="14.00">4</text>
<polygon fill="none" stroke="black" points="290,-260 290,-281 324,-281 324,-260 290,-260"/>
<text text-anchor="start" x="300" y="-266.8" font-family="Times,serif" font-size="14.00">...</text>
<polygon fill="none" stroke="black" points="324,-260 324,-281 445,-281 445,-260 324,-260"/>
<text text-anchor="start" x="327" y="-266.8" font-family="Times,serif" font-size="14.00">switch (version)</text>
<polygon fill="none" stroke="black" points="445,-260 445,-281 527,-281 527,-260 445,-260"/>
<text text-anchor="start" x="458" y="-266.8" font-family="Times,serif" font-size="14.00">payload</text>
</g>
<!-- sudoers_ts__seq&#45;&gt;record__seq -->
<g id="edge1" class="edge">
<title>sudoers_ts__seq:records_type&#45;&gt;record__seq</title>
<path fill="none" stroke="black" stroke-width="2" d="M208.5,-302C218.99,-302 229.81,-302 240.72,-302"/>
<polygon fill="black" stroke="black" stroke-width="2" points="240.74,-305.5 250.74,-302 240.74,-298.5 240.74,-305.5"/>
</g>
<!-- record__seq&#45;&gt;record__seq -->
<g id="edge5" class="edge">
<title>record__seq:version_type&#45;&gt;record__seq:payload_type</title>
<path fill="none" stroke="#404040" d="M463.06,-323.05C426.83,-343.04 434.48,-366 486,-366 534.57,-366 544.15,-317.88 514.73,-287.86"/>
<polygon fill="#404040" stroke="#404040" points="516.74,-284.96 506.9,-281.02 512.13,-290.24 516.74,-284.96"/>
</g>
<!-- record__seq_payload_switch -->
<g id="node3" class="node">
<title>record__seq_payload_switch</title>
<polygon fill="#f0f2e4" stroke="transparent" points="579,-302 579,-323 617,-323 617,-302 579,-302"/>
<polygon fill="none" stroke="black" points="579,-302 579,-323 617,-323 617,-302 579,-302"/>
<text text-anchor="start" x="582" y="-308.8" font-family="Times,serif" font-size="14.00">case</text>
<polygon fill="#f0f2e4" stroke="transparent" points="617,-302 617,-323 693,-323 693,-302 617,-302"/>
<polygon fill="none" stroke="black" points="617,-302 617,-323 693,-323 693,-302 617,-302"/>
<text text-anchor="start" x="639" y="-308.8" font-family="Times,serif" font-size="14.00">type</text>
<polygon fill="none" stroke="black" points="579,-281 579,-302 617,-302 617,-281 579,-281"/>
<text text-anchor="start" x="593" y="-287.8" font-family="Times,serif" font-size="14.00">1</text>
<polygon fill="none" stroke="black" points="617,-281 617,-302 693,-302 693,-281 617,-281"/>
<text text-anchor="start" x="620" y="-287.8" font-family="Times,serif" font-size="14.00">RecordV1</text>
<polygon fill="none" stroke="black" points="579,-260 579,-281 617,-281 617,-260 579,-260"/>
<text text-anchor="start" x="593" y="-266.8" font-family="Times,serif" font-size="14.00">2</text>
<polygon fill="none" stroke="black" points="617,-260 617,-281 693,-281 693,-260 617,-260"/>
<text text-anchor="start" x="620" y="-266.8" font-family="Times,serif" font-size="14.00">RecordV2</text>
</g>
<!-- record__seq&#45;&gt;record__seq_payload_switch -->
<g id="edge2" class="edge">
<title>record__seq:payload_type&#45;&gt;record__seq_payload_switch</title>
<path fill="none" stroke="black" stroke-width="2" d="M528,-270C538.74,-270 549.97,-271.08 560.95,-272.76"/>
<polygon fill="black" stroke="black" stroke-width="2" points="560.49,-276.23 570.93,-274.45 561.66,-269.33 560.49,-276.23"/>
</g>
<!-- record_v1__seq -->
<g id="node4" class="node">
<title>record_v1__seq</title>
<polygon fill="#e0ffe0" stroke="transparent" points="751.5,-503 751.5,-524 782.5,-524 782.5,-503 751.5,-503"/>
<polygon fill="none" stroke="black" points="751.5,-503 751.5,-524 782.5,-524 782.5,-503 751.5,-503"/>
<text text-anchor="start" x="754.5" y="-509.8" font-family="Times,serif" font-size="14.00">pos</text>
<polygon fill="#e0ffe0" stroke="transparent" points="782.5,-503 782.5,-524 816.5,-524 816.5,-503 782.5,-503"/>
<polygon fill="none" stroke="black" points="782.5,-503 782.5,-524 816.5,-524 816.5,-503 782.5,-503"/>
<text text-anchor="start" x="785.5" y="-509.8" font-family="Times,serif" font-size="14.00">size</text>
<polygon fill="#e0ffe0" stroke="transparent" points="816.5,-503 816.5,-524 916.5,-524 916.5,-503 816.5,-503"/>
<polygon fill="none" stroke="black" points="816.5,-503 816.5,-524 916.5,-524 916.5,-503 816.5,-503"/>
<text text-anchor="start" x="850.5" y="-509.8" font-family="Times,serif" font-size="14.00">type</text>
<polygon fill="#e0ffe0" stroke="transparent" points="916.5,-503 916.5,-524 984.5,-524 984.5,-503 916.5,-503"/>
<polygon fill="none" stroke="black" points="916.5,-503 916.5,-524 984.5,-524 984.5,-503 916.5,-503"/>
<text text-anchor="start" x="943.5" y="-509.8" font-family="Times,serif" font-size="14.00">id</text>
<polygon fill="none" stroke="black" points="751.5,-482 751.5,-503 782.5,-503 782.5,-482 751.5,-482"/>
<text text-anchor="start" x="762" y="-488.8" font-family="Times,serif" font-size="14.00">0</text>
<polygon fill="none" stroke="black" points="782.5,-482 782.5,-503 816.5,-503 816.5,-482 782.5,-482"/>
<text text-anchor="start" x="794.5" y="-488.8" font-family="Times,serif" font-size="14.00">2</text>
<polygon fill="none" stroke="black" points="816.5,-482 816.5,-503 916.5,-503 916.5,-482 816.5,-482"/>
<text text-anchor="start" x="819.5" y="-488.8" font-family="Times,serif" font-size="14.00">u2le→TsType</text>
<polygon fill="none" stroke="black" points="916.5,-482 916.5,-503 984.5,-503 984.5,-482 916.5,-482"/>
<text text-anchor="start" x="934.5" y="-488.8" font-family="Times,serif" font-size="14.00">type</text>
<polygon fill="none" stroke="black" points="751.5,-461 751.5,-482 782.5,-482 782.5,-461 751.5,-461"/>
<text text-anchor="start" x="762" y="-467.8" font-family="Times,serif" font-size="14.00">2</text>
<polygon fill="none" stroke="black" points="782.5,-461 782.5,-482 816.5,-482 816.5,-461 782.5,-461"/>
<text text-anchor="start" x="794.5" y="-467.8" font-family="Times,serif" font-size="14.00">2</text>
<polygon fill="none" stroke="black" points="816.5,-461 816.5,-482 916.5,-482 916.5,-461 816.5,-461"/>
<text text-anchor="start" x="842.5" y="-467.8" font-family="Times,serif" font-size="14.00">TsFlag</text>
<polygon fill="none" stroke="black" points="916.5,-461 916.5,-482 984.5,-482 984.5,-461 916.5,-461"/>
<text text-anchor="start" x="933.5" y="-467.8" font-family="Times,serif" font-size="14.00">flags</text>
<polygon fill="none" stroke="black" points="751.5,-440 751.5,-461 782.5,-461 782.5,-440 751.5,-440"/>
<text text-anchor="start" x="762" y="-446.8" font-family="Times,serif" font-size="14.00">4</text>
<polygon fill="none" stroke="black" points="782.5,-440 782.5,-461 816.5,-461 816.5,-440 782.5,-440"/>
<text text-anchor="start" x="794.5" y="-446.8" font-family="Times,serif" font-size="14.00">4</text>
<polygon fill="none" stroke="black" points="816.5,-440 816.5,-461 916.5,-461 916.5,-440 816.5,-440"/>
<text text-anchor="start" x="851" y="-446.8" font-family="Times,serif" font-size="14.00">u4le</text>
<polygon fill="none" stroke="black" points="916.5,-440 916.5,-461 984.5,-461 984.5,-440 916.5,-440"/>
<text text-anchor="start" x="919.5" y="-446.8" font-family="Times,serif" font-size="14.00">auth_uid</text>
<polygon fill="none" stroke="black" points="751.5,-419 751.5,-440 782.5,-440 782.5,-419 751.5,-419"/>
<text text-anchor="start" x="762" y="-425.8" font-family="Times,serif" font-size="14.00">8</text>
<polygon fill="none" stroke="black" points="782.5,-419 782.5,-440 816.5,-440 816.5,-419 782.5,-419"/>
<text text-anchor="start" x="794.5" y="-425.8" font-family="Times,serif" font-size="14.00">4</text>
<polygon fill="none" stroke="black" points="816.5,-419 816.5,-440 916.5,-440 916.5,-419 816.5,-419"/>
<text text-anchor="start" x="851" y="-425.8" font-family="Times,serif" font-size="14.00">u4le</text>
<polygon fill="none" stroke="black" points="916.5,-419 916.5,-440 984.5,-440 984.5,-419 916.5,-419"/>
<text text-anchor="start" x="939.5" y="-425.8" font-family="Times,serif" font-size="14.00">sid</text>
<polygon fill="none" stroke="black" points="751.5,-398 751.5,-419 782.5,-419 782.5,-398 751.5,-398"/>
<text text-anchor="start" x="757.5" y="-404.8" font-family="Times,serif" font-size="14.00">12</text>
<polygon fill="none" stroke="black" points="782.5,-398 782.5,-419 816.5,-419 816.5,-398 782.5,-398"/>
<text text-anchor="start" x="790" y="-404.8" font-family="Times,serif" font-size="14.00">16</text>
<polygon fill="none" stroke="black" points="816.5,-398 816.5,-419 916.5,-419 916.5,-398 816.5,-398"/>
<text text-anchor="start" x="832.5" y="-404.8" font-family="Times,serif" font-size="14.00">Timespec</text>
<polygon fill="none" stroke="black" points="916.5,-398 916.5,-419 984.5,-419 984.5,-398 916.5,-398"/>
<text text-anchor="start" x="943.5" y="-404.8" font-family="Times,serif" font-size="14.00">ts</text>
<polygon fill="none" stroke="black" points="751.5,-377 751.5,-398 782.5,-398 782.5,-377 751.5,-377"/>
<text text-anchor="start" x="757.5" y="-383.8" font-family="Times,serif" font-size="14.00">28</text>
<polygon fill="none" stroke="black" points="782.5,-377 782.5,-398 816.5,-398 816.5,-377 782.5,-377"/>
<text text-anchor="start" x="794.5" y="-383.8" font-family="Times,serif" font-size="14.00">4</text>
<polygon fill="none" stroke="black" points="816.5,-377 816.5,-398 916.5,-398 916.5,-377 816.5,-377"/>
<text text-anchor="start" x="851" y="-383.8" font-family="Times,serif" font-size="14.00">u4le</text>
<polygon fill="none" stroke="black" points="916.5,-377 916.5,-398 984.5,-398 984.5,-377 916.5,-377"/>
<text text-anchor="start" x="927.5" y="-383.8" font-family="Times,serif" font-size="14.00">ttydev</text>
<polygon fill="none" stroke="black" points="751.5,-356 751.5,-377 984.5,-377 984.5,-356 751.5,-356"/>
<text text-anchor="start" x="786.5" y="-362.8" font-family="Times,serif" font-size="14.00">if type == :ts_type_tty</text>
<polygon fill="none" stroke="black" points="751.5,-335 751.5,-356 782.5,-356 782.5,-335 751.5,-335"/>
<text text-anchor="start" x="757.5" y="-341.8" font-family="Times,serif" font-size="14.00">32</text>
<polygon fill="none" stroke="black" points="782.5,-335 782.5,-356 816.5,-356 816.5,-335 782.5,-335"/>
<text text-anchor="start" x="794.5" y="-341.8" font-family="Times,serif" font-size="14.00">4</text>
<polygon fill="none" stroke="black" points="816.5,-335 816.5,-356 916.5,-356 916.5,-335 816.5,-335"/>
<text text-anchor="start" x="851" y="-341.8" font-family="Times,serif" font-size="14.00">u4le</text>
<polygon fill="none" stroke="black" points="916.5,-335 916.5,-356 984.5,-356 984.5,-335 916.5,-335"/>
<text text-anchor="start" x="934.5" y="-341.8" font-family="Times,serif" font-size="14.00">ppid</text>
<polygon fill="none" stroke="black" points="751.5,-314 751.5,-335 984.5,-335 984.5,-314 751.5,-314"/>
<text text-anchor="start" x="781" y="-320.8" font-family="Times,serif" font-size="14.00">if type == :ts_type_ppid</text>
</g>
<!-- record__seq_payload_switch&#45;&gt;record_v1__seq -->
<g id="edge3" class="edge">
<title>record__seq_payload_switch:case0&#45;&gt;record_v1__seq</title>
<path fill="none" stroke="black" stroke-width="2" d="M694,-291C704.38,-291 718.41,-297.06 734.01,-306.54"/>
<polygon fill="black" stroke="black" stroke-width="2" points="732.5,-309.73 742.82,-312.14 736.26,-303.82 732.5,-309.73"/>
</g>
<!-- record_v2__seq -->
<g id="node5" class="node">
<title>record_v2__seq</title>
<polygon fill="#e0ffe0" stroke="transparent" points="745.5,-237 745.5,-258 776.5,-258 776.5,-237 745.5,-237"/>
<polygon fill="none" stroke="black" points="745.5,-237 745.5,-258 776.5,-258 776.5,-237 745.5,-237"/>
<text text-anchor="start" x="748.5" y="-243.8" font-family="Times,serif" font-size="14.00">pos</text>
<polygon fill="#e0ffe0" stroke="transparent" points="776.5,-237 776.5,-258 810.5,-258 810.5,-237 776.5,-237"/>
<polygon fill="none" stroke="black" points="776.5,-237 776.5,-258 810.5,-258 810.5,-237 776.5,-237"/>
<text text-anchor="start" x="779.5" y="-243.8" font-family="Times,serif" font-size="14.00">size</text>
<polygon fill="#e0ffe0" stroke="transparent" points="810.5,-237 810.5,-258 910.5,-258 910.5,-237 810.5,-237"/>
<polygon fill="none" stroke="black" points="810.5,-237 810.5,-258 910.5,-258 910.5,-237 810.5,-237"/>
<text text-anchor="start" x="844.5" y="-243.8" font-family="Times,serif" font-size="14.00">type</text>
<polygon fill="#e0ffe0" stroke="transparent" points="910.5,-237 910.5,-258 990.5,-258 990.5,-237 910.5,-237"/>
<polygon fill="none" stroke="black" points="910.5,-237 910.5,-258 990.5,-258 990.5,-237 910.5,-237"/>
<text text-anchor="start" x="943.5" y="-243.8" font-family="Times,serif" font-size="14.00">id</text>
<polygon fill="none" stroke="black" points="745.5,-216 745.5,-237 776.5,-237 776.5,-216 745.5,-216"/>
<text text-anchor="start" x="756" y="-222.8" font-family="Times,serif" font-size="14.00">0</text>
<polygon fill="none" stroke="black" points="776.5,-216 776.5,-237 810.5,-237 810.5,-216 776.5,-216"/>
<text text-anchor="start" x="788.5" y="-222.8" font-family="Times,serif" font-size="14.00">2</text>
<polygon fill="none" stroke="black" points="810.5,-216 810.5,-237 910.5,-237 910.5,-216 810.5,-216"/>
<text text-anchor="start" x="813.5" y="-222.8" font-family="Times,serif" font-size="14.00">u2le→TsType</text>
<polygon fill="none" stroke="black" points="910.5,-216 910.5,-237 990.5,-237 990.5,-216 910.5,-216"/>
<text text-anchor="start" x="934.5" y="-222.8" font-family="Times,serif" font-size="14.00">type</text>
<polygon fill="none" stroke="black" points="745.5,-195 745.5,-216 776.5,-216 776.5,-195 745.5,-195"/>
<text text-anchor="start" x="756" y="-201.8" font-family="Times,serif" font-size="14.00">2</text>
<polygon fill="none" stroke="black" points="776.5,-195 776.5,-216 810.5,-216 810.5,-195 776.5,-195"/>
<text text-anchor="start" x="788.5" y="-201.8" font-family="Times,serif" font-size="14.00">2</text>
<polygon fill="none" stroke="black" points="810.5,-195 810.5,-216 910.5,-216 910.5,-195 810.5,-195"/>
<text text-anchor="start" x="836.5" y="-201.8" font-family="Times,serif" font-size="14.00">TsFlag</text>
<polygon fill="none" stroke="black" points="910.5,-195 910.5,-216 990.5,-216 990.5,-195 910.5,-195"/>
<text text-anchor="start" x="933.5" y="-201.8" font-family="Times,serif" font-size="14.00">flags</text>
<polygon fill="none" stroke="black" points="745.5,-174 745.5,-195 776.5,-195 776.5,-174 745.5,-174"/>
<text text-anchor="start" x="756" y="-180.8" font-family="Times,serif" font-size="14.00">4</text>
<polygon fill="none" stroke="black" points="776.5,-174 776.5,-195 810.5,-195 810.5,-174 776.5,-174"/>
<text text-anchor="start" x="788.5" y="-180.8" font-family="Times,serif" font-size="14.00">4</text>
<polygon fill="none" stroke="black" points="810.5,-174 810.5,-195 910.5,-195 910.5,-174 810.5,-174"/>
<text text-anchor="start" x="845" y="-180.8" font-family="Times,serif" font-size="14.00">u4le</text>
<polygon fill="none" stroke="black" points="910.5,-174 910.5,-195 990.5,-195 990.5,-174 910.5,-174"/>
<text text-anchor="start" x="919.5" y="-180.8" font-family="Times,serif" font-size="14.00">auth_uid</text>
<polygon fill="none" stroke="black" points="745.5,-153 745.5,-174 776.5,-174 776.5,-153 745.5,-153"/>
<text text-anchor="start" x="756" y="-159.8" font-family="Times,serif" font-size="14.00">8</text>
<polygon fill="none" stroke="black" points="776.5,-153 776.5,-174 810.5,-174 810.5,-153 776.5,-153"/>
<text text-anchor="start" x="788.5" y="-159.8" font-family="Times,serif" font-size="14.00">4</text>
<polygon fill="none" stroke="black" points="810.5,-153 810.5,-174 910.5,-174 910.5,-153 810.5,-153"/>
<text text-anchor="start" x="845" y="-159.8" font-family="Times,serif" font-size="14.00">u4le</text>
<polygon fill="none" stroke="black" points="910.5,-153 910.5,-174 990.5,-174 990.5,-153 910.5,-153"/>
<text text-anchor="start" x="939.5" y="-159.8" font-family="Times,serif" font-size="14.00">sid</text>
<polygon fill="none" stroke="black" points="745.5,-132 745.5,-153 776.5,-153 776.5,-132 745.5,-132"/>
<text text-anchor="start" x="751.5" y="-138.8" font-family="Times,serif" font-size="14.00">12</text>
<polygon fill="none" stroke="black" points="776.5,-132 776.5,-153 810.5,-153 810.5,-132 776.5,-132"/>
<text text-anchor="start" x="784" y="-138.8" font-family="Times,serif" font-size="14.00">16</text>
<polygon fill="none" stroke="black" points="810.5,-132 810.5,-153 910.5,-153 910.5,-132 810.5,-132"/>
<text text-anchor="start" x="826.5" y="-138.8" font-family="Times,serif" font-size="14.00">Timespec</text>
<polygon fill="none" stroke="black" points="910.5,-132 910.5,-153 990.5,-153 990.5,-132 910.5,-132"/>
<text text-anchor="start" x="913.5" y="-138.8" font-family="Times,serif" font-size="14.00">start_time</text>
<polygon fill="none" stroke="black" points="745.5,-111 745.5,-132 776.5,-132 776.5,-111 745.5,-111"/>
<text text-anchor="start" x="751.5" y="-117.8" font-family="Times,serif" font-size="14.00">28</text>
<polygon fill="none" stroke="black" points="776.5,-111 776.5,-132 810.5,-132 810.5,-111 776.5,-111"/>
<text text-anchor="start" x="784" y="-117.8" font-family="Times,serif" font-size="14.00">16</text>
<polygon fill="none" stroke="black" points="810.5,-111 810.5,-132 910.5,-132 910.5,-111 810.5,-111"/>
<text text-anchor="start" x="826.5" y="-117.8" font-family="Times,serif" font-size="14.00">Timespec</text>
<polygon fill="none" stroke="black" points="910.5,-111 910.5,-132 990.5,-132 990.5,-111 910.5,-111"/>
<text text-anchor="start" x="943.5" y="-117.8" font-family="Times,serif" font-size="14.00">ts</text>
<polygon fill="none" stroke="black" points="745.5,-90 745.5,-111 776.5,-111 776.5,-90 745.5,-90"/>
<text text-anchor="start" x="751.5" y="-96.8" font-family="Times,serif" font-size="14.00">44</text>
<polygon fill="none" stroke="black" points="776.5,-90 776.5,-111 810.5,-111 810.5,-90 776.5,-90"/>
<text text-anchor="start" x="788.5" y="-96.8" font-family="Times,serif" font-size="14.00">4</text>
<polygon fill="none" stroke="black" points="810.5,-90 810.5,-111 910.5,-111 910.5,-90 810.5,-90"/>
<text text-anchor="start" x="845" y="-96.8" font-family="Times,serif" font-size="14.00">u4le</text>
<polygon fill="none" stroke="black" points="910.5,-90 910.5,-111 990.5,-111 990.5,-90 910.5,-90"/>
<text text-anchor="start" x="927.5" y="-96.8" font-family="Times,serif" font-size="14.00">ttydev</text>
<polygon fill="none" stroke="black" points="745.5,-69 745.5,-90 990.5,-90 990.5,-69 745.5,-69"/>
<text text-anchor="start" x="786.5" y="-75.8" font-family="Times,serif" font-size="14.00">if type == :ts_type_tty</text>
<polygon fill="none" stroke="black" points="745.5,-48 745.5,-69 776.5,-69 776.5,-48 745.5,-48"/>
<text text-anchor="start" x="751.5" y="-54.8" font-family="Times,serif" font-size="14.00">48</text>
<polygon fill="none" stroke="black" points="776.5,-48 776.5,-69 810.5,-69 810.5,-48 776.5,-48"/>
<text text-anchor="start" x="788.5" y="-54.8" font-family="Times,serif" font-size="14.00">4</text>
<polygon fill="none" stroke="black" points="810.5,-48 810.5,-69 910.5,-69 910.5,-48 810.5,-48"/>
<text text-anchor="start" x="845" y="-54.8" font-family="Times,serif" font-size="14.00">u4le</text>
<polygon fill="none" stroke="black" points="910.5,-48 910.5,-69 990.5,-69 990.5,-48 910.5,-48"/>
<text text-anchor="start" x="934.5" y="-54.8" font-family="Times,serif" font-size="14.00">ppid</text>
<polygon fill="none" stroke="black" points="745.5,-27 745.5,-48 990.5,-48 990.5,-27 745.5,-27"/>
<text text-anchor="start" x="781" y="-33.8" font-family="Times,serif" font-size="14.00">if type == :ts_type_ppid</text>
</g>
<!-- record__seq_payload_switch&#45;&gt;record_v2__seq -->
<g id="edge4" class="edge">
<title>record__seq_payload_switch:case1&#45;&gt;record_v2__seq</title>
<path fill="none" stroke="black" stroke-width="2" d="M694,-270C705.32,-270 716.38,-268.21 727.09,-265.04"/>
<polygon fill="black" stroke="black" stroke-width="2" points="728.47,-268.27 736.83,-261.77 726.24,-261.64 728.47,-268.27"/>
</g>
<!-- record_v1__seq&#45;&gt;record_v1__seq -->
<g id="edge8" class="edge">
<title>record_v1__seq:type_type&#45;&gt;record_v1__seq:ttydev__if</title>
<path fill="none" stroke="#404040" d="M916.38,-495.69C817.12,-501 628,-493.5 628,-429.5 628,-387.85 681.02,-370.13 741.28,-364.29"/>
<polygon fill="#404040" stroke="#404040" points="741.74,-367.77 751.4,-363.43 741.14,-360.79 741.74,-367.77"/>
</g>
<!-- record_v1__seq&#45;&gt;record_v1__seq -->
<g id="edge9" class="edge">
<title>record_v1__seq:type_type&#45;&gt;record_v1__seq:ppid__if</title>
<path fill="none" stroke="#404040" d="M916.38,-495.66C817.12,-500.72 628,-491.04 628,-408.5 628,-354.79 681.02,-331.93 741.28,-323.91"/>
<polygon fill="#404040" stroke="#404040" points="741.89,-327.36 751.4,-322.71 741.06,-320.41 741.89,-327.36"/>
</g>
<!-- timespec__seq -->
<g id="node6" class="node">
<title>timespec__seq</title>
<polygon fill="#e0ffe0" stroke="transparent" points="1085,-152 1085,-173 1116,-173 1116,-152 1085,-152"/>
<polygon fill="none" stroke="black" points="1085,-152 1085,-173 1116,-173 1116,-152 1085,-152"/>
<text text-anchor="start" x="1088" y="-158.8" font-family="Times,serif" font-size="14.00">pos</text>
<polygon fill="#e0ffe0" stroke="transparent" points="1116,-152 1116,-173 1150,-173 1150,-152 1116,-152"/>
<polygon fill="none" stroke="black" points="1116,-152 1116,-173 1150,-173 1150,-152 1116,-152"/>
<text text-anchor="start" x="1119" y="-158.8" font-family="Times,serif" font-size="14.00">size</text>
<polygon fill="#e0ffe0" stroke="transparent" points="1150,-152 1150,-173 1188,-173 1188,-152 1150,-152"/>
<polygon fill="none" stroke="black" points="1150,-152 1150,-173 1188,-173 1188,-152 1150,-152"/>
<text text-anchor="start" x="1153" y="-158.8" font-family="Times,serif" font-size="14.00">type</text>
<polygon fill="#e0ffe0" stroke="transparent" points="1188,-152 1188,-173 1227,-173 1227,-152 1188,-152"/>
<polygon fill="none" stroke="black" points="1188,-152 1188,-173 1227,-173 1227,-152 1188,-152"/>
<text text-anchor="start" x="1200.5" y="-158.8" font-family="Times,serif" font-size="14.00">id</text>
<polygon fill="none" stroke="black" points="1085,-131 1085,-152 1116,-152 1116,-131 1085,-131"/>
<text text-anchor="start" x="1095.5" y="-137.8" font-family="Times,serif" font-size="14.00">0</text>
<polygon fill="none" stroke="black" points="1116,-131 1116,-152 1150,-152 1150,-131 1116,-131"/>
<text text-anchor="start" x="1128" y="-137.8" font-family="Times,serif" font-size="14.00">8</text>
<polygon fill="none" stroke="black" points="1150,-131 1150,-152 1188,-152 1188,-131 1150,-131"/>
<text text-anchor="start" x="1154" y="-137.8" font-family="Times,serif" font-size="14.00">s8le</text>
<polygon fill="none" stroke="black" points="1188,-131 1188,-152 1227,-152 1227,-131 1188,-131"/>
<text text-anchor="start" x="1195.5" y="-137.8" font-family="Times,serif" font-size="14.00">sec</text>
<polygon fill="none" stroke="black" points="1085,-110 1085,-131 1116,-131 1116,-110 1085,-110"/>
<text text-anchor="start" x="1095.5" y="-116.8" font-family="Times,serif" font-size="14.00">8</text>
<polygon fill="none" stroke="black" points="1116,-110 1116,-131 1150,-131 1150,-110 1116,-110"/>
<text text-anchor="start" x="1128" y="-116.8" font-family="Times,serif" font-size="14.00">8</text>
<polygon fill="none" stroke="black" points="1150,-110 1150,-131 1188,-131 1188,-110 1150,-110"/>
<text text-anchor="start" x="1154" y="-116.8" font-family="Times,serif" font-size="14.00">s8le</text>
<polygon fill="none" stroke="black" points="1188,-110 1188,-131 1227,-131 1227,-110 1188,-110"/>
<text text-anchor="start" x="1191" y="-116.8" font-family="Times,serif" font-size="14.00">nsec</text>
</g>
<!-- record_v1__seq&#45;&gt;timespec__seq -->
<g id="edge7" class="edge">
<title>record_v1__seq:ts_type&#45;&gt;timespec__seq</title>
<path fill="none" stroke="black" stroke-width="2" d="M985.5,-408C1033.86,-408 1001.87,-348.91 1026,-307 1051.51,-262.7 1087.9,-217.3 1115.54,-185.36"/>
<polygon fill="black" stroke="black" stroke-width="2" points="1118.42,-187.37 1122.36,-177.54 1113.15,-182.77 1118.42,-187.37"/>
</g>
<!-- ts_flag__seq -->
<g id="node7" class="node">
<title>ts_flag__seq</title>
<polygon fill="#e0ffe0" stroke="transparent" points="1042,-407 1042,-428 1073,-428 1073,-407 1042,-407"/>
<polygon fill="none" stroke="black" points="1042,-407 1042,-428 1073,-428 1073,-407 1042,-407"/>
<text text-anchor="start" x="1045" y="-413.8" font-family="Times,serif" font-size="14.00">pos</text>
<polygon fill="#e0ffe0" stroke="transparent" points="1073,-407 1073,-428 1107,-428 1107,-407 1073,-407"/>
<polygon fill="none" stroke="black" points="1073,-407 1073,-428 1107,-428 1107,-407 1073,-407"/>
<text text-anchor="start" x="1076" y="-413.8" font-family="Times,serif" font-size="14.00">size</text>
<polygon fill="#e0ffe0" stroke="transparent" points="1107,-407 1107,-428 1191,-428 1191,-407 1107,-407"/>
<polygon fill="none" stroke="black" points="1107,-407 1107,-428 1191,-428 1191,-407 1107,-407"/>
<text text-anchor="start" x="1133" y="-413.8" font-family="Times,serif" font-size="14.00">type</text>
<polygon fill="#e0ffe0" stroke="transparent" points="1191,-407 1191,-428 1270,-428 1270,-407 1191,-407"/>
<polygon fill="none" stroke="black" points="1191,-407 1191,-428 1270,-428 1270,-407 1191,-407"/>
<text text-anchor="start" x="1223.5" y="-413.8" font-family="Times,serif" font-size="14.00">id</text>
<polygon fill="none" stroke="black" points="1042,-386 1042,-407 1073,-407 1073,-386 1042,-386"/>
<text text-anchor="start" x="1052.5" y="-392.8" font-family="Times,serif" font-size="14.00">0</text>
<polygon fill="none" stroke="black" points="1073,-386 1073,-407 1107,-407 1107,-386 1073,-386"/>
<text text-anchor="start" x="1080.5" y="-392.8" font-family="Times,serif" font-size="14.00">6b</text>
<polygon fill="none" stroke="black" points="1107,-386 1107,-407 1191,-407 1191,-386 1107,-386"/>
<text text-anchor="start" x="1131" y="-392.8" font-family="Times,serif" font-size="14.00">b6be</text>
<polygon fill="none" stroke="black" points="1191,-386 1191,-407 1270,-407 1270,-386 1191,-386"/>
<text text-anchor="start" x="1194" y="-392.8" font-family="Times,serif" font-size="14.00">reserved0</text>
<polygon fill="none" stroke="black" points="1042,-365 1042,-386 1073,-386 1073,-365 1042,-365"/>
<text text-anchor="start" x="1046" y="-371.8" font-family="Times,serif" font-size="14.00">0:6</text>
<polygon fill="none" stroke="black" points="1073,-365 1073,-386 1107,-386 1107,-365 1073,-365"/>
<text text-anchor="start" x="1080.5" y="-371.8" font-family="Times,serif" font-size="14.00">1b</text>
<polygon fill="none" stroke="black" points="1107,-365 1107,-386 1191,-386 1191,-365 1107,-365"/>
<text text-anchor="start" x="1110" y="-371.8" font-family="Times,serif" font-size="14.00">b1be→bool</text>
<polygon fill="none" stroke="black" points="1191,-365 1191,-386 1270,-386 1270,-365 1191,-365"/>
<text text-anchor="start" x="1206" y="-371.8" font-family="Times,serif" font-size="14.00">anyuid</text>
<polygon fill="none" stroke="black" points="1042,-344 1042,-365 1073,-365 1073,-344 1042,-344"/>
<text text-anchor="start" x="1046" y="-350.8" font-family="Times,serif" font-size="14.00">0:7</text>
<polygon fill="none" stroke="black" points="1073,-344 1073,-365 1107,-365 1107,-344 1073,-344"/>
<text text-anchor="start" x="1080.5" y="-350.8" font-family="Times,serif" font-size="14.00">1b</text>
<polygon fill="none" stroke="black" points="1107,-344 1107,-365 1191,-365 1191,-344 1107,-344"/>
<text text-anchor="start" x="1110" y="-350.8" font-family="Times,serif" font-size="14.00">b1be→bool</text>
<polygon fill="none" stroke="black" points="1191,-344 1191,-365 1270,-365 1270,-344 1191,-344"/>
<text text-anchor="start" x="1200" y="-350.8" font-family="Times,serif" font-size="14.00">disabled</text>
<polygon fill="none" stroke="black" points="1042,-323 1042,-344 1073,-344 1073,-323 1042,-323"/>
<text text-anchor="start" x="1052.5" y="-329.8" font-family="Times,serif" font-size="14.00">1</text>
<polygon fill="none" stroke="black" points="1073,-323 1073,-344 1107,-344 1107,-323 1073,-323"/>
<text text-anchor="start" x="1085" y="-329.8" font-family="Times,serif" font-size="14.00">1</text>
<polygon fill="none" stroke="black" points="1107,-323 1107,-344 1191,-344 1191,-323 1107,-323"/>
<text text-anchor="start" x="1131" y="-329.8" font-family="Times,serif" font-size="14.00">b8be</text>
<polygon fill="none" stroke="black" points="1191,-323 1191,-344 1270,-344 1270,-323 1191,-323"/>
<text text-anchor="start" x="1194" y="-329.8" font-family="Times,serif" font-size="14.00">reserved1</text>
</g>
<!-- record_v1__seq&#45;&gt;ts_flag__seq -->
<g id="edge6" class="edge">
<title>record_v1__seq:flags_type&#45;&gt;ts_flag__seq</title>
<path fill="none" stroke="black" stroke-width="2" d="M985.5,-472C1019.98,-472 1053.88,-456.77 1082.19,-438.45"/>
<polygon fill="black" stroke="black" stroke-width="2" points="1084.44,-441.15 1090.8,-432.68 1080.54,-435.34 1084.44,-441.15"/>
</g>
<!-- record_v2__seq&#45;&gt;record_v2__seq -->
<g id="edge13" class="edge">
<title>record_v2__seq:type_type&#45;&gt;record_v2__seq:ttydev__if</title>
<path fill="none" stroke="#404040" d="M910.48,-229.92C807.91,-234.56 622,-225.06 622,-153 622,-106.09 674.61,-85.69 735.13,-78.45"/>
<polygon fill="#404040" stroke="#404040" points="735.73,-81.9 745.3,-77.36 734.98,-74.94 735.73,-81.9"/>
</g>
<!-- record_v2__seq&#45;&gt;record_v2__seq -->
<g id="edge14" class="edge">
<title>record_v2__seq:type_type&#45;&gt;record_v2__seq:ppid__if</title>
<path fill="none" stroke="#404040" d="M910.48,-229.87C807.91,-234.19 622,-222.29 622,-132 622,-73.22 674.61,-47.66 735.13,-38.17"/>
<polygon fill="#404040" stroke="#404040" points="735.89,-41.6 745.3,-36.74 734.91,-34.67 735.89,-41.6"/>
</g>
<!-- record_v2__seq&#45;&gt;timespec__seq -->
<g id="edge11" class="edge">
<title>record_v2__seq:start_time_type&#45;&gt;timespec__seq</title>
<path fill="none" stroke="black" stroke-width="2" d="M991.5,-142C1015.84,-142 1042.22,-142 1066.54,-142"/>
<polygon fill="black" stroke="black" stroke-width="2" points="1066.83,-145.5 1076.83,-142 1066.82,-138.5 1066.83,-145.5"/>
</g>
<!-- record_v2__seq&#45;&gt;timespec__seq -->
<g id="edge12" class="edge">
<title>record_v2__seq:ts_type&#45;&gt;timespec__seq</title>
<path fill="none" stroke="black" stroke-width="2" d="M991.5,-121C1016.02,-121 1042.45,-123.35 1066.76,-126.48"/>
<polygon fill="black" stroke="black" stroke-width="2" points="1066.3,-129.95 1076.67,-127.82 1067.23,-123.02 1066.3,-129.95"/>
</g>
<!-- record_v2__seq&#45;&gt;ts_flag__seq -->
<g id="edge10" class="edge">
<title>record_v2__seq:flags_type&#45;&gt;ts_flag__seq</title>
<path fill="none" stroke="black" stroke-width="2" d="M991.5,-206C1021.89,-206 1071.99,-263.14 1108.74,-311.16"/>
<polygon fill="black" stroke="black" stroke-width="2" points="1106.15,-313.54 1114.98,-319.39 1111.73,-309.31 1106.15,-313.54"/>
</g>
</g>
</svg>
