<?xml version="1.0" encoding="UTF-8" standalone="no"?>
<!DOCTYPE svg PUBLIC "-//W3C//DTD SVG 1.1//EN"
 "http://www.w3.org/Graphics/SVG/1.1/DTD/svg11.dtd">
<!-- Generated by graphviz version 2.38.0 (20140413.2041)
 -->
<!-- Title: %3 Pages: 1 -->
<svg width="736pt" height="384pt"
 viewBox="0.00 0.00 736.00 384.00" xmlns="http://www.w3.org/2000/svg" xmlns:xlink="http://www.w3.org/1999/xlink">
<g id="graph0" class="graph" transform="scale(1 1) rotate(0) translate(4 380)">
<title>%3</title>
<polygon fill="white" stroke="none" points="-4,4 -4,-380 732,-380 732,4 -4,4"/>
<g id="clust1" class="cluster"><title>cluster__uimage</title>
<polygon fill="none" stroke="black" stroke-dasharray="1,5" points="8,-8 8,-368 720,-368 720,-8 8,-8"/>
<text text-anchor="middle" x="364" y="-352.8" font-family="Times,serif" font-size="14.00">Uimage</text>
</g>
<g id="clust2" class="cluster"><title>cluster__uheader</title>
<polygon fill="none" stroke="black" stroke-dasharray="1,5" points="346,-16 346,-337 712,-337 712,-16 346,-16"/>
<text text-anchor="middle" x="529" y="-321.8" font-family="Times,serif" font-size="14.00">Uimage::Uheader</text>
</g>
<!-- uimage__seq -->
<g id="node1" class="node"><title>uimage__seq</title>
<polygon fill="#e0ffe0" stroke="none" points="24,-207 24,-228 55,-228 55,-207 24,-207"/>
<polygon fill="none" stroke="black" points="24,-207 24,-228 55,-228 55,-207 24,-207"/>
<text text-anchor="start" x="27" y="-213.8" font-family="Times,serif" font-size="14.00">pos</text>
<polygon fill="#e0ffe0" stroke="none" points="55,-207 55,-228 187,-228 187,-207 55,-207"/>
<polygon fill="none" stroke="black" points="55,-207 55,-228 187,-228 187,-207 55,-207"/>
<text text-anchor="start" x="107" y="-213.8" font-family="Times,serif" font-size="14.00">size</text>
<polygon fill="#e0ffe0" stroke="none" points="187,-207 187,-228 254,-228 254,-207 187,-207"/>
<polygon fill="none" stroke="black" points="187,-207 187,-228 254,-228 254,-207 187,-207"/>
<text text-anchor="start" x="204.5" y="-213.8" font-family="Times,serif" font-size="14.00">type</text>
<polygon fill="#e0ffe0" stroke="none" points="254,-207 254,-228 310,-228 310,-207 254,-207"/>
<polygon fill="none" stroke="black" points="254,-207 254,-228 310,-228 310,-207 254,-207"/>
<text text-anchor="start" x="275" y="-213.8" font-family="Times,serif" font-size="14.00">id</text>
<polygon fill="none" stroke="black" points="24,-186 24,-207 55,-207 55,-186 24,-186"/>
<text text-anchor="start" x="34.5" y="-192.8" font-family="Times,serif" font-size="14.00">0</text>
<polygon fill="none" stroke="black" points="55,-186 55,-207 187,-207 187,-186 55,-186"/>
<text text-anchor="start" x="111.5" y="-192.8" font-family="Times,serif" font-size="14.00">64</text>
<polygon fill="none" stroke="black" points="187,-186 187,-207 254,-207 254,-186 187,-186"/>
<text text-anchor="start" x="190" y="-192.8" font-family="Times,serif" font-size="14.00">Uheader</text>
<polygon fill="none" stroke="black" points="254,-186 254,-207 310,-207 310,-186 254,-186"/>
<text text-anchor="start" x="257" y="-192.8" font-family="Times,serif" font-size="14.00">header</text>
<polygon fill="none" stroke="black" points="24,-165 24,-186 55,-186 55,-165 24,-165"/>
<text text-anchor="start" x="30" y="-171.8" font-family="Times,serif" font-size="14.00">64</text>
<polygon fill="none" stroke="black" points="55,-165 55,-186 187,-186 187,-165 55,-165"/>
<text text-anchor="start" x="58" y="-171.8" font-family="Times,serif" font-size="14.00">header.len_image</text>
<polygon fill="none" stroke="black" points="187,-165 187,-186 254,-186 254,-165 187,-165"/>
<polygon fill="none" stroke="black" points="254,-165 254,-186 310,-186 310,-165 254,-165"/>
<text text-anchor="start" x="266" y="-171.8" font-family="Times,serif" font-size="14.00">data</text>
</g>
<!-- uheader__seq -->
<g id="node2" class="node"><title>uheader__seq</title>
<polygon fill="#e0ffe0" stroke="none" points="362,-280 362,-301 393,-301 393,-280 362,-280"/>
<polygon fill="none" stroke="black" points="362,-280 362,-301 393,-301 393,-280 362,-280"/>
<text text-anchor="start" x="365" y="-286.8" font-family="Times,serif" font-size="14.00">pos</text>
<polygon fill="#e0ffe0" stroke="none" points="393,-280 393,-301 427,-301 427,-280 393,-280"/>
<polygon fill="none" stroke="black" points="393,-280 393,-301 427,-301 427,-280 393,-280"/>
<text text-anchor="start" x="396" y="-286.8" font-family="Times,serif" font-size="14.00">size</text>
<polygon fill="#e0ffe0" stroke="none" points="427,-280 427,-301 560,-301 560,-280 427,-280"/>
<polygon fill="none" stroke="black" points="427,-280 427,-301 560,-301 560,-280 427,-280"/>
<text text-anchor="start" x="477.5" y="-286.8" font-family="Times,serif" font-size="14.00">type</text>
<polygon fill="#e0ffe0" stroke="none" points="560,-280 560,-301 696,-301 696,-280 560,-280"/>
<polygon fill="none" stroke="black" points="560,-280 560,-301 696,-301 696,-280 560,-280"/>
<text text-anchor="start" x="621" y="-286.8" font-family="Times,serif" font-size="14.00">id</text>
<polygon fill="none" stroke="black" points="362,-259 362,-280 393,-280 393,-259 362,-259"/>
<text text-anchor="start" x="372.5" y="-265.8" font-family="Times,serif" font-size="14.00">0</text>
<polygon fill="none" stroke="black" points="393,-259 393,-280 427,-280 427,-259 393,-259"/>
<text text-anchor="start" x="405" y="-265.8" font-family="Times,serif" font-size="14.00">4</text>
<polygon fill="none" stroke="black" points="427,-259 427,-280 560,-280 560,-259 427,-259"/>
<text text-anchor="start" x="450.5" y="-265.8" font-family="Times,serif" font-size="14.00">27 05 19 56</text>
<polygon fill="none" stroke="black" points="560,-259 560,-280 696,-280 696,-259 560,-259"/>
<text text-anchor="start" x="606" y="-265.8" font-family="Times,serif" font-size="14.00">magic</text>
<polygon fill="none" stroke="black" points="362,-238 362,-259 393,-259 393,-238 362,-238"/>
<text text-anchor="start" x="372.5" y="-244.8" font-family="Times,serif" font-size="14.00">4</text>
<polygon fill="none" stroke="black" points="393,-238 393,-259 427,-259 427,-238 393,-238"/>
<text text-anchor="start" x="405" y="-244.8" font-family="Times,serif" font-size="14.00">4</text>
<polygon fill="none" stroke="black" points="427,-238 427,-259 560,-259 560,-238 427,-238"/>
<text text-anchor="start" x="475.5" y="-244.8" font-family="Times,serif" font-size="14.00">u4be</text>
<polygon fill="none" stroke="black" points="560,-238 560,-259 696,-259 696,-238 560,-238"/>
<text text-anchor="start" x="587.5" y="-244.8" font-family="Times,serif" font-size="14.00">header_crc</text>
<polygon fill="none" stroke="black" points="362,-217 362,-238 393,-238 393,-217 362,-217"/>
<text text-anchor="start" x="372.5" y="-223.8" font-family="Times,serif" font-size="14.00">8</text>
<polygon fill="none" stroke="black" points="393,-217 393,-238 427,-238 427,-217 393,-217"/>
<text text-anchor="start" x="405" y="-223.8" font-family="Times,serif" font-size="14.00">4</text>
<polygon fill="none" stroke="black" points="427,-217 427,-238 560,-238 560,-217 427,-217"/>
<text text-anchor="start" x="475.5" y="-223.8" font-family="Times,serif" font-size="14.00">u4be</text>
<polygon fill="none" stroke="black" points="560,-217 560,-238 696,-238 696,-217 560,-217"/>
<text text-anchor="start" x="589.5" y="-223.8" font-family="Times,serif" font-size="14.00">timestamp</text>
<polygon fill="none" stroke="black" points="362,-196 362,-217 393,-217 393,-196 362,-196"/>
<text text-anchor="start" x="368" y="-202.8" font-family="Times,serif" font-size="14.00">12</text>
<polygon fill="none" stroke="black" points="393,-196 393,-217 427,-217 427,-196 393,-196"/>
<text text-anchor="start" x="405" y="-202.8" font-family="Times,serif" font-size="14.00">4</text>
<polygon fill="none" stroke="black" points="427,-196 427,-217 560,-217 560,-196 427,-196"/>
<text text-anchor="start" x="475.5" y="-202.8" font-family="Times,serif" font-size="14.00">u4be</text>
<polygon fill="none" stroke="black" points="560,-196 560,-217 696,-217 696,-196 560,-196"/>
<text text-anchor="start" x="591.5" y="-202.8" font-family="Times,serif" font-size="14.00">len_image</text>
<polygon fill="none" stroke="black" points="362,-175 362,-196 393,-196 393,-175 362,-175"/>
<text text-anchor="start" x="368" y="-181.8" font-family="Times,serif" font-size="14.00">16</text>
<polygon fill="none" stroke="black" points="393,-175 393,-196 427,-196 427,-175 393,-175"/>
<text text-anchor="start" x="405" y="-181.8" font-family="Times,serif" font-size="14.00">4</text>
<polygon fill="none" stroke="black" points="427,-175 427,-196 560,-196 560,-175 427,-175"/>
<text text-anchor="start" x="475.5" y="-181.8" font-family="Times,serif" font-size="14.00">u4be</text>
<polygon fill="none" stroke="black" points="560,-175 560,-196 696,-196 696,-175 560,-175"/>
<text text-anchor="start" x="581" y="-181.8" font-family="Times,serif" font-size="14.00">load_address</text>
<polygon fill="none" stroke="black" points="362,-154 362,-175 393,-175 393,-154 362,-154"/>
<text text-anchor="start" x="368" y="-160.8" font-family="Times,serif" font-size="14.00">20</text>
<polygon fill="none" stroke="black" points="393,-154 393,-175 427,-175 427,-154 393,-154"/>
<text text-anchor="start" x="405" y="-160.8" font-family="Times,serif" font-size="14.00">4</text>
<polygon fill="none" stroke="black" points="427,-154 427,-175 560,-175 560,-154 427,-154"/>
<text text-anchor="start" x="475.5" y="-160.8" font-family="Times,serif" font-size="14.00">u4be</text>
<polygon fill="none" stroke="black" points="560,-154 560,-175 696,-175 696,-154 560,-154"/>
<text text-anchor="start" x="576.5" y="-160.8" font-family="Times,serif" font-size="14.00">entry_address</text>
<polygon fill="none" stroke="black" points="362,-133 362,-154 393,-154 393,-133 362,-133"/>
<text text-anchor="start" x="368" y="-139.8" font-family="Times,serif" font-size="14.00">24</text>
<polygon fill="none" stroke="black" points="393,-133 393,-154 427,-154 427,-133 393,-133"/>
<text text-anchor="start" x="405" y="-139.8" font-family="Times,serif" font-size="14.00">4</text>
<polygon fill="none" stroke="black" points="427,-133 427,-154 560,-154 560,-133 427,-133"/>
<text text-anchor="start" x="475.5" y="-139.8" font-family="Times,serif" font-size="14.00">u4be</text>
<polygon fill="none" stroke="black" points="560,-133 560,-154 696,-154 696,-133 560,-133"/>
<text text-anchor="start" x="596.5" y="-139.8" font-family="Times,serif" font-size="14.00">data_crc</text>
<polygon fill="none" stroke="black" points="362,-112 362,-133 393,-133 393,-112 362,-112"/>
<text text-anchor="start" x="368" y="-118.8" font-family="Times,serif" font-size="14.00">28</text>
<polygon fill="none" stroke="black" points="393,-112 393,-133 427,-133 427,-112 393,-112"/>
<text text-anchor="start" x="405" y="-118.8" font-family="Times,serif" font-size="14.00">1</text>
<polygon fill="none" stroke="black" points="427,-112 427,-133 560,-133 560,-112 427,-112"/>
<text text-anchor="start" x="441.5" y="-118.8" font-family="Times,serif" font-size="14.00">u1→UimageOs</text>
<polygon fill="none" stroke="black" points="560,-112 560,-133 696,-133 696,-112 560,-112"/>
<text text-anchor="start" x="600.5" y="-118.8" font-family="Times,serif" font-size="14.00">os_type</text>
<polygon fill="none" stroke="black" points="362,-91 362,-112 393,-112 393,-91 362,-91"/>
<text text-anchor="start" x="368" y="-97.8" font-family="Times,serif" font-size="14.00">29</text>
<polygon fill="none" stroke="black" points="393,-91 393,-112 427,-112 427,-91 393,-91"/>
<text text-anchor="start" x="405" y="-97.8" font-family="Times,serif" font-size="14.00">1</text>
<polygon fill="none" stroke="black" points="427,-91 427,-112 560,-112 560,-91 427,-91"/>
<text text-anchor="start" x="433.5" y="-97.8" font-family="Times,serif" font-size="14.00">u1→UimageArch</text>
<polygon fill="none" stroke="black" points="560,-91 560,-112 696,-112 696,-91 560,-91"/>
<text text-anchor="start" x="583" y="-97.8" font-family="Times,serif" font-size="14.00">architecture</text>
<polygon fill="none" stroke="black" points="362,-70 362,-91 393,-91 393,-70 362,-70"/>
<text text-anchor="start" x="368" y="-76.8" font-family="Times,serif" font-size="14.00">30</text>
<polygon fill="none" stroke="black" points="393,-70 393,-91 427,-91 427,-70 393,-70"/>
<text text-anchor="start" x="405" y="-76.8" font-family="Times,serif" font-size="14.00">1</text>
<polygon fill="none" stroke="black" points="427,-70 427,-91 560,-91 560,-70 427,-70"/>
<text text-anchor="start" x="433.5" y="-76.8" font-family="Times,serif" font-size="14.00">u1→UimageType</text>
<polygon fill="none" stroke="black" points="560,-70 560,-91 696,-91 696,-70 560,-70"/>
<text text-anchor="start" x="586.5" y="-76.8" font-family="Times,serif" font-size="14.00">image_type</text>
<polygon fill="none" stroke="black" points="362,-49 362,-70 393,-70 393,-49 362,-49"/>
<text text-anchor="start" x="368" y="-55.8" font-family="Times,serif" font-size="14.00">31</text>
<polygon fill="none" stroke="black" points="393,-49 393,-70 427,-70 427,-49 393,-49"/>
<text text-anchor="start" x="405" y="-55.8" font-family="Times,serif" font-size="14.00">1</text>
<polygon fill="none" stroke="black" points="427,-49 427,-70 560,-70 560,-49 427,-49"/>
<text text-anchor="start" x="430" y="-55.8" font-family="Times,serif" font-size="14.00">u1→UimageComp</text>
<polygon fill="none" stroke="black" points="560,-49 560,-70 696,-70 696,-49 560,-49"/>
<text text-anchor="start" x="563" y="-55.8" font-family="Times,serif" font-size="14.00">compression_type</text>
<polygon fill="none" stroke="black" points="362,-28 362,-49 393,-49 393,-28 362,-28"/>
<text text-anchor="start" x="368" y="-34.8" font-family="Times,serif" font-size="14.00">32</text>
<polygon fill="none" stroke="black" points="393,-28 393,-49 427,-49 427,-28 393,-28"/>
<text text-anchor="start" x="400.5" y="-34.8" font-family="Times,serif" font-size="14.00">32</text>
<polygon fill="none" stroke="black" points="427,-28 427,-49 560,-49 560,-28 427,-28"/>
<text text-anchor="start" x="456.5" y="-34.8" font-family="Times,serif" font-size="14.00">str(UTF&#45;8)</text>
<polygon fill="none" stroke="black" points="560,-28 560,-49 696,-49 696,-28 560,-28"/>
<text text-anchor="start" x="608" y="-34.8" font-family="Times,serif" font-size="14.00">name</text>
</g>
<!-- uimage__seq&#45;&gt;uheader__seq -->
<g id="edge1" class="edge"><title>uimage__seq:header_type&#45;&gt;uheader__seq</title>
<path fill="none" stroke="black" stroke-width="2" d="M311,-196C321.708,-196 332.683,-195.626 343.738,-194.959"/>
<polygon fill="black" stroke="black" stroke-width="2" points="344.168,-198.438 353.907,-194.267 343.693,-191.454 344.168,-198.438"/>
</g>
<!-- uheader__seq&#45;&gt;uimage__seq -->
<g id="edge2" class="edge"><title>uheader__seq:len_image_type&#45;&gt;uimage__seq:data_size</title>
<path fill="none" stroke="#404040" d="M697,-207C718.89,-207 711.557,-290.1 696,-305.5 682.497,-318.867 369.01,-317.149 354,-305.5 303.075,-265.978 368.824,-204.651 318,-165 251.798,-113.352 131.398,-79.322 121.633,-153.836"/>
<polygon fill="#404040" stroke="#404040" points="118.128,-153.802 121,-164 125.115,-154.237 118.128,-153.802"/>
</g>
</g>
</svg>
