<?xml version="1.0" encoding="UTF-8" standalone="no"?>
<!DOCTYPE svg PUBLIC "-//W3C//DTD SVG 1.1//EN"
 "http://www.w3.org/Graphics/SVG/1.1/DTD/svg11.dtd">
<!-- Generated by graphviz version 2.38.0 (20140413.2041)
 -->
<!-- Title: %3 Pages: 1 -->
<svg width="738pt" height="384pt"
 viewBox="0.00 0.00 738.00 384.00" xmlns="http://www.w3.org/2000/svg" xmlns:xlink="http://www.w3.org/1999/xlink">
<g id="graph0" class="graph" transform="scale(1 1) rotate(0) translate(4 380)">
<title>%3</title>
<polygon fill="white" stroke="none" points="-4,4 -4,-380 734,-380 734,4 -4,4"/>
<g id="clust1" class="cluster"><title>cluster__uimage</title>
<polygon fill="none" stroke="black" stroke-dasharray="1,5" points="8,-8 8,-368 722,-368 722,-8 8,-8"/>
<text text-anchor="middle" x="365" y="-352.8" font-family="Times,serif" font-size="14.00">Uimage</text>
</g>
<g id="clust2" class="cluster"><title>cluster__uheader</title>
<polygon fill="none" stroke="black" stroke-dasharray="1,5" points="347,-16 347,-337 714,-337 714,-16 347,-16"/>
<text text-anchor="middle" x="530.5" y="-321.8" font-family="Times,serif" font-size="14.00">Uimage::Uheader</text>
</g>
<!-- uimage__seq -->
<g id="node1" class="node"><title>uimage__seq</title>
<polygon fill="#e0ffe0" stroke="none" points="24.5,-207 24.5,-228 55.5,-228 55.5,-207 24.5,-207"/>
<polygon fill="none" stroke="black" points="24.5,-207 24.5,-228 55.5,-228 55.5,-207 24.5,-207"/>
<text text-anchor="start" x="27.5" y="-213.8" font-family="Times,serif" font-size="14.00">pos</text>
<polygon fill="#e0ffe0" stroke="none" points="55.5,-207 55.5,-228 187.5,-228 187.5,-207 55.5,-207"/>
<polygon fill="none" stroke="black" points="55.5,-207 55.5,-228 187.5,-228 187.5,-207 55.5,-207"/>
<text text-anchor="start" x="107.5" y="-213.8" font-family="Times,serif" font-size="14.00">size</text>
<polygon fill="#e0ffe0" stroke="none" points="187.5,-207 187.5,-228 255.5,-228 255.5,-207 187.5,-207"/>
<polygon fill="none" stroke="black" points="187.5,-207 187.5,-228 255.5,-228 255.5,-207 187.5,-207"/>
<text text-anchor="start" x="205.5" y="-213.8" font-family="Times,serif" font-size="14.00">type</text>
<polygon fill="#e0ffe0" stroke="none" points="255.5,-207 255.5,-228 311.5,-228 311.5,-207 255.5,-207"/>
<polygon fill="none" stroke="black" points="255.5,-207 255.5,-228 311.5,-228 311.5,-207 255.5,-207"/>
<text text-anchor="start" x="276.5" y="-213.8" font-family="Times,serif" font-size="14.00">id</text>
<polygon fill="none" stroke="black" points="24.5,-186 24.5,-207 55.5,-207 55.5,-186 24.5,-186"/>
<text text-anchor="start" x="35" y="-192.8" font-family="Times,serif" font-size="14.00">0</text>
<polygon fill="none" stroke="black" points="55.5,-186 55.5,-207 187.5,-207 187.5,-186 55.5,-186"/>
<text text-anchor="start" x="112" y="-192.8" font-family="Times,serif" font-size="14.00">64</text>
<polygon fill="none" stroke="black" points="187.5,-186 187.5,-207 255.5,-207 255.5,-186 187.5,-186"/>
<text text-anchor="start" x="190.5" y="-192.8" font-family="Times,serif" font-size="14.00">Uheader</text>
<polygon fill="none" stroke="black" points="255.5,-186 255.5,-207 311.5,-207 311.5,-186 255.5,-186"/>
<text text-anchor="start" x="258.5" y="-192.8" font-family="Times,serif" font-size="14.00">header</text>
<polygon fill="none" stroke="black" points="24.5,-165 24.5,-186 55.5,-186 55.5,-165 24.5,-165"/>
<text text-anchor="start" x="30.5" y="-171.8" font-family="Times,serif" font-size="14.00">64</text>
<polygon fill="none" stroke="black" points="55.5,-165 55.5,-186 187.5,-186 187.5,-165 55.5,-165"/>
<text text-anchor="start" x="58.5" y="-171.8" font-family="Times,serif" font-size="14.00">header.len_image</text>
<polygon fill="none" stroke="black" points="187.5,-165 187.5,-186 255.5,-186 255.5,-165 187.5,-165"/>
<polygon fill="none" stroke="black" points="255.5,-165 255.5,-186 311.5,-186 311.5,-165 255.5,-165"/>
<text text-anchor="start" x="267.5" y="-171.8" font-family="Times,serif" font-size="14.00">data</text>
</g>
<!-- uheader__seq -->
<g id="node2" class="node"><title>uheader__seq</title>
<polygon fill="#e0ffe0" stroke="none" points="363.5,-280 363.5,-301 394.5,-301 394.5,-280 363.5,-280"/>
<polygon fill="none" stroke="black" points="363.5,-280 363.5,-301 394.5,-301 394.5,-280 363.5,-280"/>
<text text-anchor="start" x="366.5" y="-286.8" font-family="Times,serif" font-size="14.00">pos</text>
<polygon fill="#e0ffe0" stroke="none" points="394.5,-280 394.5,-301 428.5,-301 428.5,-280 394.5,-280"/>
<polygon fill="none" stroke="black" points="394.5,-280 394.5,-301 428.5,-301 428.5,-280 394.5,-280"/>
<text text-anchor="start" x="397.5" y="-286.8" font-family="Times,serif" font-size="14.00">size</text>
<polygon fill="#e0ffe0" stroke="none" points="428.5,-280 428.5,-301 562.5,-301 562.5,-280 428.5,-280"/>
<polygon fill="none" stroke="black" points="428.5,-280 428.5,-301 562.5,-301 562.5,-280 428.5,-280"/>
<text text-anchor="start" x="479.5" y="-286.8" font-family="Times,serif" font-size="14.00">type</text>
<polygon fill="#e0ffe0" stroke="none" points="562.5,-280 562.5,-301 698.5,-301 698.5,-280 562.5,-280"/>
<polygon fill="none" stroke="black" points="562.5,-280 562.5,-301 698.5,-301 698.5,-280 562.5,-280"/>
<text text-anchor="start" x="623.5" y="-286.8" font-family="Times,serif" font-size="14.00">id</text>
<polygon fill="none" stroke="black" points="363.5,-259 363.5,-280 394.5,-280 394.5,-259 363.5,-259"/>
<text text-anchor="start" x="374" y="-265.8" font-family="Times,serif" font-size="14.00">0</text>
<polygon fill="none" stroke="black" points="394.5,-259 394.5,-280 428.5,-280 428.5,-259 394.5,-259"/>
<text text-anchor="start" x="406.5" y="-265.8" font-family="Times,serif" font-size="14.00">4</text>
<polygon fill="none" stroke="black" points="428.5,-259 428.5,-280 562.5,-280 562.5,-259 428.5,-259"/>
<text text-anchor="start" x="452.5" y="-265.8" font-family="Times,serif" font-size="14.00">27 05 19 56</text>
<polygon fill="none" stroke="black" points="562.5,-259 562.5,-280 698.5,-280 698.5,-259 562.5,-259"/>
<text text-anchor="start" x="608.5" y="-265.8" font-family="Times,serif" font-size="14.00">magic</text>
<polygon fill="none" stroke="black" points="363.5,-238 363.5,-259 394.5,-259 394.5,-238 363.5,-238"/>
<text text-anchor="start" x="374" y="-244.8" font-family="Times,serif" font-size="14.00">4</text>
<polygon fill="none" stroke="black" points="394.5,-238 394.5,-259 428.5,-259 428.5,-238 394.5,-238"/>
<text text-anchor="start" x="406.5" y="-244.8" font-family="Times,serif" font-size="14.00">4</text>
<polygon fill="none" stroke="black" points="428.5,-238 428.5,-259 562.5,-259 562.5,-238 428.5,-238"/>
<text text-anchor="start" x="477.5" y="-244.8" font-family="Times,serif" font-size="14.00">u4be</text>
<polygon fill="none" stroke="black" points="562.5,-238 562.5,-259 698.5,-259 698.5,-238 562.5,-238"/>
<text text-anchor="start" x="590" y="-244.8" font-family="Times,serif" font-size="14.00">header_crc</text>
<polygon fill="none" stroke="black" points="363.5,-217 363.5,-238 394.5,-238 394.5,-217 363.5,-217"/>
<text text-anchor="start" x="374" y="-223.8" font-family="Times,serif" font-size="14.00">8</text>
<polygon fill="none" stroke="black" points="394.5,-217 394.5,-238 428.5,-238 428.5,-217 394.5,-217"/>
<text text-anchor="start" x="406.5" y="-223.8" font-family="Times,serif" font-size="14.00">4</text>
<polygon fill="none" stroke="black" points="428.5,-217 428.5,-238 562.5,-238 562.5,-217 428.5,-217"/>
<text text-anchor="start" x="477.5" y="-223.8" font-family="Times,serif" font-size="14.00">u4be</text>
<polygon fill="none" stroke="black" points="562.5,-217 562.5,-238 698.5,-238 698.5,-217 562.5,-217"/>
<text text-anchor="start" x="592" y="-223.8" font-family="Times,serif" font-size="14.00">timestamp</text>
<polygon fill="none" stroke="black" points="363.5,-196 363.5,-217 394.5,-217 394.5,-196 363.5,-196"/>
<text text-anchor="start" x="369.5" y="-202.8" font-family="Times,serif" font-size="14.00">12</text>
<polygon fill="none" stroke="black" points="394.5,-196 394.5,-217 428.5,-217 428.5,-196 394.5,-196"/>
<text text-anchor="start" x="406.5" y="-202.8" font-family="Times,serif" font-size="14.00">4</text>
<polygon fill="none" stroke="black" points="428.5,-196 428.5,-217 562.5,-217 562.5,-196 428.5,-196"/>
<text text-anchor="start" x="477.5" y="-202.8" font-family="Times,serif" font-size="14.00">u4be</text>
<polygon fill="none" stroke="black" points="562.5,-196 562.5,-217 698.5,-217 698.5,-196 562.5,-196"/>
<text text-anchor="start" x="594" y="-202.8" font-family="Times,serif" font-size="14.00">len_image</text>
<polygon fill="none" stroke="black" points="363.5,-175 363.5,-196 394.5,-196 394.5,-175 363.5,-175"/>
<text text-anchor="start" x="369.5" y="-181.8" font-family="Times,serif" font-size="14.00">16</text>
<polygon fill="none" stroke="black" points="394.5,-175 394.5,-196 428.5,-196 428.5,-175 394.5,-175"/>
<text text-anchor="start" x="406.5" y="-181.8" font-family="Times,serif" font-size="14.00">4</text>
<polygon fill="none" stroke="black" points="428.5,-175 428.5,-196 562.5,-196 562.5,-175 428.5,-175"/>
<text text-anchor="start" x="477.5" y="-181.8" font-family="Times,serif" font-size="14.00">u4be</text>
<polygon fill="none" stroke="black" points="562.5,-175 562.5,-196 698.5,-196 698.5,-175 562.5,-175"/>
<text text-anchor="start" x="583.5" y="-181.8" font-family="Times,serif" font-size="14.00">load_address</text>
<polygon fill="none" stroke="black" points="363.5,-154 363.5,-175 394.5,-175 394.5,-154 363.5,-154"/>
<text text-anchor="start" x="369.5" y="-160.8" font-family="Times,serif" font-size="14.00">20</text>
<polygon fill="none" stroke="black" points="394.5,-154 394.5,-175 428.5,-175 428.5,-154 394.5,-154"/>
<text text-anchor="start" x="406.5" y="-160.8" font-family="Times,serif" font-size="14.00">4</text>
<polygon fill="none" stroke="black" points="428.5,-154 428.5,-175 562.5,-175 562.5,-154 428.5,-154"/>
<text text-anchor="start" x="477.5" y="-160.8" font-family="Times,serif" font-size="14.00">u4be</text>
<polygon fill="none" stroke="black" points="562.5,-154 562.5,-175 698.5,-175 698.5,-154 562.5,-154"/>
<text text-anchor="start" x="579" y="-160.8" font-family="Times,serif" font-size="14.00">entry_address</text>
<polygon fill="none" stroke="black" points="363.5,-133 363.5,-154 394.5,-154 394.5,-133 363.5,-133"/>
<text text-anchor="start" x="369.5" y="-139.8" font-family="Times,serif" font-size="14.00">24</text>
<polygon fill="none" stroke="black" points="394.5,-133 394.5,-154 428.5,-154 428.5,-133 394.5,-133"/>
<text text-anchor="start" x="406.5" y="-139.8" font-family="Times,serif" font-size="14.00">4</text>
<polygon fill="none" stroke="black" points="428.5,-133 428.5,-154 562.5,-154 562.5,-133 428.5,-133"/>
<text text-anchor="start" x="477.5" y="-139.8" font-family="Times,serif" font-size="14.00">u4be</text>
<polygon fill="none" stroke="black" points="562.5,-133 562.5,-154 698.5,-154 698.5,-133 562.5,-133"/>
<text text-anchor="start" x="599" y="-139.8" font-family="Times,serif" font-size="14.00">data_crc</text>
<polygon fill="none" stroke="black" points="363.5,-112 363.5,-133 394.5,-133 394.5,-112 363.5,-112"/>
<text text-anchor="start" x="369.5" y="-118.8" font-family="Times,serif" font-size="14.00">28</text>
<polygon fill="none" stroke="black" points="394.5,-112 394.5,-133 428.5,-133 428.5,-112 394.5,-112"/>
<text text-anchor="start" x="406.5" y="-118.8" font-family="Times,serif" font-size="14.00">1</text>
<polygon fill="none" stroke="black" points="428.5,-112 428.5,-133 562.5,-133 562.5,-112 428.5,-112"/>
<text text-anchor="start" x="442.5" y="-118.8" font-family="Times,serif" font-size="14.00">u1→UimageOs</text>
<polygon fill="none" stroke="black" points="562.5,-112 562.5,-133 698.5,-133 698.5,-112 562.5,-112"/>
<text text-anchor="start" x="603" y="-118.8" font-family="Times,serif" font-size="14.00">os_type</text>
<polygon fill="none" stroke="black" points="363.5,-91 363.5,-112 394.5,-112 394.5,-91 363.5,-91"/>
<text text-anchor="start" x="369.5" y="-97.8" font-family="Times,serif" font-size="14.00">29</text>
<polygon fill="none" stroke="black" points="394.5,-91 394.5,-112 428.5,-112 428.5,-91 394.5,-91"/>
<text text-anchor="start" x="406.5" y="-97.8" font-family="Times,serif" font-size="14.00">1</text>
<polygon fill="none" stroke="black" points="428.5,-91 428.5,-112 562.5,-112 562.5,-91 428.5,-91"/>
<text text-anchor="start" x="435" y="-97.8" font-family="Times,serif" font-size="14.00">u1→UimageArch</text>
<polygon fill="none" stroke="black" points="562.5,-91 562.5,-112 698.5,-112 698.5,-91 562.5,-91"/>
<text text-anchor="start" x="585.5" y="-97.8" font-family="Times,serif" font-size="14.00">architecture</text>
<polygon fill="none" stroke="black" points="363.5,-70 363.5,-91 394.5,-91 394.5,-70 363.5,-70"/>
<text text-anchor="start" x="369.5" y="-76.8" font-family="Times,serif" font-size="14.00">30</text>
<polygon fill="none" stroke="black" points="394.5,-70 394.5,-91 428.5,-91 428.5,-70 394.5,-70"/>
<text text-anchor="start" x="406.5" y="-76.8" font-family="Times,serif" font-size="14.00">1</text>
<polygon fill="none" stroke="black" points="428.5,-70 428.5,-91 562.5,-91 562.5,-70 428.5,-70"/>
<text text-anchor="start" x="435" y="-76.8" font-family="Times,serif" font-size="14.00">u1→UimageType</text>
<polygon fill="none" stroke="black" points="562.5,-70 562.5,-91 698.5,-91 698.5,-70 562.5,-70"/>
<text text-anchor="start" x="589" y="-76.8" font-family="Times,serif" font-size="14.00">image_type</text>
<polygon fill="none" stroke="black" points="363.5,-49 363.5,-70 394.5,-70 394.5,-49 363.5,-49"/>
<text text-anchor="start" x="369.5" y="-55.8" font-family="Times,serif" font-size="14.00">31</text>
<polygon fill="none" stroke="black" points="394.5,-49 394.5,-70 428.5,-70 428.5,-49 394.5,-49"/>
<text text-anchor="start" x="406.5" y="-55.8" font-family="Times,serif" font-size="14.00">1</text>
<polygon fill="none" stroke="black" points="428.5,-49 428.5,-70 562.5,-70 562.5,-49 428.5,-49"/>
<text text-anchor="start" x="431.5" y="-55.8" font-family="Times,serif" font-size="14.00">u1→UimageComp</text>
<polygon fill="none" stroke="black" points="562.5,-49 562.5,-70 698.5,-70 698.5,-49 562.5,-49"/>
<text text-anchor="start" x="565.5" y="-55.8" font-family="Times,serif" font-size="14.00">compression_type</text>
<polygon fill="none" stroke="black" points="363.5,-28 363.5,-49 394.5,-49 394.5,-28 363.5,-28"/>
<text text-anchor="start" x="369.5" y="-34.8" font-family="Times,serif" font-size="14.00">32</text>
<polygon fill="none" stroke="black" points="394.5,-28 394.5,-49 428.5,-49 428.5,-28 394.5,-28"/>
<text text-anchor="start" x="402" y="-34.8" font-family="Times,serif" font-size="14.00">32</text>
<polygon fill="none" stroke="black" points="428.5,-28 428.5,-49 562.5,-49 562.5,-28 428.5,-28"/>
<text text-anchor="start" x="457.5" y="-34.8" font-family="Times,serif" font-size="14.00">str(UTF&#45;8)</text>
<polygon fill="none" stroke="black" points="562.5,-28 562.5,-49 698.5,-49 698.5,-28 562.5,-28"/>
<text text-anchor="start" x="610.5" y="-34.8" font-family="Times,serif" font-size="14.00">name</text>
</g>
<!-- uimage__seq&#45;&gt;uheader__seq -->
<g id="edge1" class="edge"><title>uimage__seq:header_type&#45;&gt;uheader__seq</title>
<path fill="none" stroke="black" stroke-width="2" d="M312.5,-196C323.062,-196 333.884,-195.636 344.787,-194.986"/>
<polygon fill="black" stroke="black" stroke-width="2" points="345.074,-198.475 354.816,-194.311 344.604,-191.49 345.074,-198.475"/>
</g>
<!-- uheader__seq&#45;&gt;uimage__seq -->
<g id="edge2" class="edge"><title>uheader__seq:len_image_type&#45;&gt;uimage__seq:data_size</title>
<path fill="none" stroke="#404040" d="M699.5,-207C721.39,-207 714.057,-290.1 698.5,-305.5 684.938,-318.925 370.076,-317.2 355,-305.5 304.075,-265.978 369.825,-204.65 319,-165 252.63,-113.222 131.924,-79.1069 122.135,-153.811"/>
<polygon fill="#404040" stroke="#404040" points="118.628,-153.802 121.5,-164 125.615,-154.237 118.628,-153.802"/>
</g>
</g>
</svg>
