<?xml version="1.0" encoding="UTF-8" standalone="no"?>
<!DOCTYPE svg PUBLIC "-//W3C//DTD SVG 1.1//EN"
 "http://www.w3.org/Graphics/SVG/1.1/DTD/svg11.dtd">
<!-- Generated by graphviz version 2.38.0 (20140413.2041)
 -->
<!-- Title: %3 Pages: 1 -->
<svg width="446pt" height="402pt"
 viewBox="0.00 0.00 446.00 402.00" xmlns="http://www.w3.org/2000/svg" xmlns:xlink="http://www.w3.org/1999/xlink">
<g id="graph0" class="graph" transform="scale(1 1) rotate(0) translate(4 398)">
<title>%3</title>
<polygon fill="white" stroke="none" points="-4,4 -4,-398 442,-398 442,4 -4,4"/>
<g id="clust1" class="cluster"><title>cluster__psx_tim</title>
<polygon fill="none" stroke="black" stroke-dasharray="1,5" points="8,-8 8,-386 430,-386 430,-8 8,-8"/>
<text text-anchor="middle" x="219" y="-370.8" font-family="Times,serif" font-size="14.00">PsxTim</text>
</g>
<g id="clust2" class="cluster"><title>cluster__bitmap</title>
<polygon fill="none" stroke="black" stroke-dasharray="1,5" points="225,-16 225,-229 422,-229 422,-16 225,-16"/>
<text text-anchor="middle" x="323.5" y="-213.8" font-family="Times,serif" font-size="14.00">PsxTim::Bitmap</text>
</g>
<!-- psx_tim__seq -->
<g id="node1" class="node"><title>psx_tim__seq</title>
<polygon fill="#e0ffe0" stroke="none" points="24.5,-235 24.5,-256 49.5,-256 49.5,-235 24.5,-235"/>
<polygon fill="none" stroke="black" points="24.5,-235 24.5,-256 49.5,-256 49.5,-235 24.5,-235"/>
<text text-anchor="start" x="27.5" y="-241.8" font-family="Times,serif" font-size="14.00">pos</text>
<polygon fill="#e0ffe0" stroke="none" points="49.5,-235 49.5,-256 77.5,-256 77.5,-235 49.5,-235"/>
<polygon fill="none" stroke="black" points="49.5,-235 49.5,-256 77.5,-256 77.5,-235 49.5,-235"/>
<text text-anchor="start" x="52.5" y="-241.8" font-family="Times,serif" font-size="14.00">size</text>
<polygon fill="#e0ffe0" stroke="none" points="77.5,-235 77.5,-256 149.5,-256 149.5,-235 77.5,-235"/>
<polygon fill="none" stroke="black" points="77.5,-235 77.5,-256 149.5,-256 149.5,-235 77.5,-235"/>
<text text-anchor="start" x="101.5" y="-241.8" font-family="Times,serif" font-size="14.00">type</text>
<polygon fill="#e0ffe0" stroke="none" points="149.5,-235 149.5,-256 189.5,-256 189.5,-235 149.5,-235"/>
<polygon fill="none" stroke="black" points="149.5,-235 149.5,-256 189.5,-256 189.5,-235 149.5,-235"/>
<text text-anchor="start" x="164" y="-241.8" font-family="Times,serif" font-size="14.00">id</text>
<polygon fill="none" stroke="black" points="24.5,-214 24.5,-235 49.5,-235 49.5,-214 24.5,-214"/>
<text text-anchor="start" x="33.5" y="-220.8" font-family="Times,serif" font-size="14.00">0</text>
<polygon fill="none" stroke="black" points="49.5,-214 49.5,-235 77.5,-235 77.5,-214 49.5,-214"/>
<text text-anchor="start" x="60" y="-220.8" font-family="Times,serif" font-size="14.00">4</text>
<polygon fill="none" stroke="black" points="77.5,-214 77.5,-235 149.5,-235 149.5,-214 77.5,-214"/>
<text text-anchor="start" x="80.5" y="-220.8" font-family="Times,serif" font-size="14.00">10 00 00 00</text>
<polygon fill="none" stroke="black" points="149.5,-214 149.5,-235 189.5,-235 189.5,-214 149.5,-214"/>
<text text-anchor="start" x="152.5" y="-220.8" font-family="Times,serif" font-size="14.00">magic</text>
<polygon fill="none" stroke="black" points="24.5,-193 24.5,-214 49.5,-214 49.5,-193 24.5,-193"/>
<text text-anchor="start" x="33.5" y="-199.8" font-family="Times,serif" font-size="14.00">4</text>
<polygon fill="none" stroke="black" points="49.5,-193 49.5,-214 77.5,-214 77.5,-193 49.5,-193"/>
<text text-anchor="start" x="60" y="-199.8" font-family="Times,serif" font-size="14.00">4</text>
<polygon fill="none" stroke="black" points="77.5,-193 77.5,-214 149.5,-214 149.5,-193 77.5,-193"/>
<text text-anchor="start" x="101.5" y="-199.8" font-family="Times,serif" font-size="14.00">u4le</text>
<polygon fill="none" stroke="black" points="149.5,-193 149.5,-214 189.5,-214 189.5,-193 149.5,-193"/>
<text text-anchor="start" x="156" y="-199.8" font-family="Times,serif" font-size="14.00">flags</text>
<polygon fill="none" stroke="black" points="24.5,-172 24.5,-193 49.5,-193 49.5,-172 24.5,-172"/>
<text text-anchor="start" x="33.5" y="-178.8" font-family="Times,serif" font-size="14.00">8</text>
<polygon fill="none" stroke="black" points="49.5,-172 49.5,-193 77.5,-193 77.5,-172 49.5,-172"/>
<text text-anchor="start" x="57.5" y="-178.8" font-family="Times,serif" font-size="14.00">...</text>
<polygon fill="none" stroke="black" points="77.5,-172 77.5,-193 149.5,-193 149.5,-172 77.5,-172"/>
<text text-anchor="start" x="93" y="-178.8" font-family="Times,serif" font-size="14.00">Bitmap</text>
<polygon fill="none" stroke="black" points="149.5,-172 149.5,-193 189.5,-193 189.5,-172 149.5,-172"/>
<text text-anchor="start" x="159" y="-178.8" font-family="Times,serif" font-size="14.00">clut</text>
<polygon fill="none" stroke="black" points="24.5,-151 24.5,-172 49.5,-172 49.5,-151 24.5,-151"/>
<text text-anchor="start" x="31" y="-157.8" font-family="Times,serif" font-size="14.00">...</text>
<polygon fill="none" stroke="black" points="49.5,-151 49.5,-172 77.5,-172 77.5,-151 49.5,-151"/>
<text text-anchor="start" x="57.5" y="-157.8" font-family="Times,serif" font-size="14.00">...</text>
<polygon fill="none" stroke="black" points="77.5,-151 77.5,-172 149.5,-172 149.5,-151 77.5,-151"/>
<text text-anchor="start" x="93" y="-157.8" font-family="Times,serif" font-size="14.00">Bitmap</text>
<polygon fill="none" stroke="black" points="149.5,-151 149.5,-172 189.5,-172 189.5,-151 149.5,-151"/>
<text text-anchor="start" x="158.5" y="-157.8" font-family="Times,serif" font-size="14.00">img</text>
</g>
<!-- psx_tim__inst__has_clut -->
<g id="node2" class="node"><title>psx_tim__inst__has_clut</title>
<polygon fill="#e0ffe0" stroke="none" points="250.5,-330 250.5,-351 302.5,-351 302.5,-330 250.5,-330"/>
<polygon fill="none" stroke="black" points="250.5,-330 250.5,-351 302.5,-351 302.5,-330 250.5,-330"/>
<text text-anchor="start" x="271" y="-336.8" font-family="Times,serif" font-size="14.00">id</text>
<polygon fill="#e0ffe0" stroke="none" points="302.5,-330 302.5,-351 396.5,-351 396.5,-330 302.5,-330"/>
<polygon fill="none" stroke="black" points="302.5,-330 302.5,-351 396.5,-351 396.5,-330 302.5,-330"/>
<text text-anchor="start" x="334.5" y="-336.8" font-family="Times,serif" font-size="14.00">value</text>
<polygon fill="none" stroke="black" points="250.5,-309 250.5,-330 302.5,-330 302.5,-309 250.5,-309"/>
<text text-anchor="start" x="253.5" y="-315.8" font-family="Times,serif" font-size="14.00">has_clut</text>
<polygon fill="none" stroke="black" points="302.5,-309 302.5,-330 396.5,-330 396.5,-309 302.5,-309"/>
<text text-anchor="start" x="305.5" y="-315.8" font-family="Times,serif" font-size="14.00">(flags &amp; 8) != 0</text>
</g>
<!-- psx_tim__seq&#45;&gt;psx_tim__inst__has_clut -->
<g id="edge3" class="edge"><title>psx_tim__seq:flags_type&#45;&gt;psx_tim__inst__has_clut</title>
<path fill="none" stroke="#404040" d="M190.5,-203C234.586,-203 193.521,-265.135 225,-296 227.72,-298.667 230.66,-301.126 233.766,-303.392"/>
<polygon fill="#404040" stroke="#404040" points="232.039,-306.444 242.333,-308.953 235.85,-300.572 232.039,-306.444"/>
</g>
<!-- psx_tim__inst__bpp -->
<g id="node3" class="node"><title>psx_tim__inst__bpp</title>
<polygon fill="#e0ffe0" stroke="none" points="276.5,-262 276.5,-283 303.5,-283 303.5,-262 276.5,-262"/>
<polygon fill="none" stroke="black" points="276.5,-262 276.5,-283 303.5,-283 303.5,-262 276.5,-262"/>
<text text-anchor="start" x="284.5" y="-268.8" font-family="Times,serif" font-size="14.00">id</text>
<polygon fill="#e0ffe0" stroke="none" points="303.5,-262 303.5,-283 370.5,-283 370.5,-262 303.5,-262"/>
<polygon fill="none" stroke="black" points="303.5,-262 303.5,-283 370.5,-283 370.5,-262 303.5,-262"/>
<text text-anchor="start" x="322" y="-268.8" font-family="Times,serif" font-size="14.00">value</text>
<polygon fill="none" stroke="black" points="276.5,-241 276.5,-262 303.5,-262 303.5,-241 276.5,-241"/>
<text text-anchor="start" x="279.5" y="-247.8" font-family="Times,serif" font-size="14.00">bpp</text>
<polygon fill="none" stroke="black" points="303.5,-241 303.5,-262 370.5,-262 370.5,-241 303.5,-241"/>
<text text-anchor="start" x="306.5" y="-247.8" font-family="Times,serif" font-size="14.00">(flags &amp; 3)</text>
</g>
<!-- psx_tim__seq&#45;&gt;psx_tim__inst__bpp -->
<g id="edge4" class="edge"><title>psx_tim__seq:flags_type&#45;&gt;psx_tim__inst__bpp</title>
<path fill="none" stroke="#404040" d="M190.5,-203C210.82,-203 207.191,-223.215 225,-233 235.459,-238.747 247.191,-243.481 258.794,-247.335"/>
<polygon fill="#404040" stroke="#404040" points="257.891,-250.72 268.48,-250.37 259.983,-244.04 257.891,-250.72"/>
</g>
<!-- bitmap__seq -->
<g id="node4" class="node"><title>bitmap__seq</title>
<polygon fill="#e0ffe0" stroke="none" points="241.5,-154 241.5,-175 266.5,-175 266.5,-154 241.5,-154"/>
<polygon fill="none" stroke="black" points="241.5,-154 241.5,-175 266.5,-175 266.5,-154 241.5,-154"/>
<text text-anchor="start" x="244.5" y="-160.8" font-family="Times,serif" font-size="14.00">pos</text>
<polygon fill="#e0ffe0" stroke="none" points="266.5,-154 266.5,-175 324.5,-175 324.5,-154 266.5,-154"/>
<polygon fill="none" stroke="black" points="266.5,-154 266.5,-175 324.5,-175 324.5,-154 266.5,-154"/>
<text text-anchor="start" x="284.5" y="-160.8" font-family="Times,serif" font-size="14.00">size</text>
<polygon fill="#e0ffe0" stroke="none" points="324.5,-154 324.5,-175 354.5,-175 354.5,-154 324.5,-154"/>
<polygon fill="none" stroke="black" points="324.5,-154 324.5,-175 354.5,-175 354.5,-154 324.5,-154"/>
<text text-anchor="start" x="327.5" y="-160.8" font-family="Times,serif" font-size="14.00">type</text>
<polygon fill="#e0ffe0" stroke="none" points="354.5,-154 354.5,-175 406.5,-175 406.5,-154 354.5,-154"/>
<polygon fill="none" stroke="black" points="354.5,-154 354.5,-175 406.5,-175 406.5,-154 354.5,-154"/>
<text text-anchor="start" x="375" y="-160.8" font-family="Times,serif" font-size="14.00">id</text>
<polygon fill="none" stroke="black" points="241.5,-133 241.5,-154 266.5,-154 266.5,-133 241.5,-133"/>
<text text-anchor="start" x="250.5" y="-139.8" font-family="Times,serif" font-size="14.00">0</text>
<polygon fill="none" stroke="black" points="266.5,-133 266.5,-154 324.5,-154 324.5,-133 266.5,-133"/>
<text text-anchor="start" x="292" y="-139.8" font-family="Times,serif" font-size="14.00">4</text>
<polygon fill="none" stroke="black" points="324.5,-133 324.5,-154 354.5,-154 354.5,-133 324.5,-133"/>
<text text-anchor="start" x="327.5" y="-139.8" font-family="Times,serif" font-size="14.00">u4le</text>
<polygon fill="none" stroke="black" points="354.5,-133 354.5,-154 406.5,-154 406.5,-133 354.5,-133"/>
<text text-anchor="start" x="372" y="-139.8" font-family="Times,serif" font-size="14.00">len</text>
<polygon fill="none" stroke="black" points="241.5,-112 241.5,-133 266.5,-133 266.5,-112 241.5,-112"/>
<text text-anchor="start" x="250.5" y="-118.8" font-family="Times,serif" font-size="14.00">4</text>
<polygon fill="none" stroke="black" points="266.5,-112 266.5,-133 324.5,-133 324.5,-112 266.5,-112"/>
<text text-anchor="start" x="292" y="-118.8" font-family="Times,serif" font-size="14.00">2</text>
<polygon fill="none" stroke="black" points="324.5,-112 324.5,-133 354.5,-133 354.5,-112 324.5,-112"/>
<text text-anchor="start" x="327.5" y="-118.8" font-family="Times,serif" font-size="14.00">u2le</text>
<polygon fill="none" stroke="black" points="354.5,-112 354.5,-133 406.5,-133 406.5,-112 354.5,-112"/>
<text text-anchor="start" x="357.5" y="-118.8" font-family="Times,serif" font-size="14.00">origin_x</text>
<polygon fill="none" stroke="black" points="241.5,-91 241.5,-112 266.5,-112 266.5,-91 241.5,-91"/>
<text text-anchor="start" x="250.5" y="-97.8" font-family="Times,serif" font-size="14.00">6</text>
<polygon fill="none" stroke="black" points="266.5,-91 266.5,-112 324.5,-112 324.5,-91 266.5,-91"/>
<text text-anchor="start" x="292" y="-97.8" font-family="Times,serif" font-size="14.00">2</text>
<polygon fill="none" stroke="black" points="324.5,-91 324.5,-112 354.5,-112 354.5,-91 324.5,-91"/>
<text text-anchor="start" x="327.5" y="-97.8" font-family="Times,serif" font-size="14.00">u2le</text>
<polygon fill="none" stroke="black" points="354.5,-91 354.5,-112 406.5,-112 406.5,-91 354.5,-91"/>
<text text-anchor="start" x="357.5" y="-97.8" font-family="Times,serif" font-size="14.00">origin_y</text>
<polygon fill="none" stroke="black" points="241.5,-70 241.5,-91 266.5,-91 266.5,-70 241.5,-70"/>
<text text-anchor="start" x="250.5" y="-76.8" font-family="Times,serif" font-size="14.00">8</text>
<polygon fill="none" stroke="black" points="266.5,-70 266.5,-91 324.5,-91 324.5,-70 266.5,-70"/>
<text text-anchor="start" x="292" y="-76.8" font-family="Times,serif" font-size="14.00">2</text>
<polygon fill="none" stroke="black" points="324.5,-70 324.5,-91 354.5,-91 354.5,-70 324.5,-70"/>
<text text-anchor="start" x="327.5" y="-76.8" font-family="Times,serif" font-size="14.00">u2le</text>
<polygon fill="none" stroke="black" points="354.5,-70 354.5,-91 406.5,-91 406.5,-70 354.5,-70"/>
<text text-anchor="start" x="365" y="-76.8" font-family="Times,serif" font-size="14.00">width</text>
<polygon fill="none" stroke="black" points="241.5,-49 241.5,-70 266.5,-70 266.5,-49 241.5,-49"/>
<text text-anchor="start" x="247" y="-55.8" font-family="Times,serif" font-size="14.00">10</text>
<polygon fill="none" stroke="black" points="266.5,-49 266.5,-70 324.5,-70 324.5,-49 266.5,-49"/>
<text text-anchor="start" x="292" y="-55.8" font-family="Times,serif" font-size="14.00">2</text>
<polygon fill="none" stroke="black" points="324.5,-49 324.5,-70 354.5,-70 354.5,-49 324.5,-49"/>
<text text-anchor="start" x="327.5" y="-55.8" font-family="Times,serif" font-size="14.00">u2le</text>
<polygon fill="none" stroke="black" points="354.5,-49 354.5,-70 406.5,-70 406.5,-49 354.5,-49"/>
<text text-anchor="start" x="363.5" y="-55.8" font-family="Times,serif" font-size="14.00">height</text>
<polygon fill="none" stroke="black" points="241.5,-28 241.5,-49 266.5,-49 266.5,-28 241.5,-28"/>
<text text-anchor="start" x="247" y="-34.8" font-family="Times,serif" font-size="14.00">12</text>
<polygon fill="none" stroke="black" points="266.5,-28 266.5,-49 324.5,-49 324.5,-28 266.5,-28"/>
<text text-anchor="start" x="269.5" y="-34.8" font-family="Times,serif" font-size="14.00">(len &#45; 12)</text>
<polygon fill="none" stroke="black" points="324.5,-28 324.5,-49 354.5,-49 354.5,-28 324.5,-28"/>
<polygon fill="none" stroke="black" points="354.5,-28 354.5,-49 406.5,-49 406.5,-28 354.5,-28"/>
<text text-anchor="start" x="366.5" y="-34.8" font-family="Times,serif" font-size="14.00">body</text>
</g>
<!-- psx_tim__seq&#45;&gt;bitmap__seq -->
<g id="edge1" class="edge"><title>psx_tim__seq:clut_type&#45;&gt;bitmap__seq</title>
<path fill="none" stroke="black" stroke-width="2" d="M190.5,-182C201.579,-182 212.522,-179.913 223.085,-176.414"/>
<polygon fill="black" stroke="black" stroke-width="2" points="224.534,-179.609 232.671,-172.823 222.078,-173.054 224.534,-179.609"/>
</g>
<!-- psx_tim__seq&#45;&gt;bitmap__seq -->
<g id="edge2" class="edge"><title>psx_tim__seq:img_type&#45;&gt;bitmap__seq</title>
<path fill="none" stroke="black" stroke-width="2" d="M190.5,-161C201.358,-161 212.316,-159.315 223.03,-156.515"/>
<polygon fill="black" stroke="black" stroke-width="2" points="224.183,-159.825 232.79,-153.647 222.209,-153.109 224.183,-159.825"/>
</g>
<!-- bitmap__seq&#45;&gt;bitmap__seq -->
<g id="edge5" class="edge"><title>bitmap__seq:len_type&#45;&gt;bitmap__seq:body_size</title>
<path fill="none" stroke="#404040" d="M396.225,-154.065C433.346,-180.314 423.945,-197.5 338,-197.5 255.322,-197.5 243.48,-103.787 275.744,-56.9211"/>
<polygon fill="#404040" stroke="#404040" points="278.545,-59.0226 282.027,-49.0164 273.065,-54.6671 278.545,-59.0226"/>
</g>
</g>
</svg>
