<?xml version="1.0" encoding="UTF-8" standalone="no"?>
<!DOCTYPE svg PUBLIC "-//W3C//DTD SVG 1.1//EN"
 "http://www.w3.org/Graphics/SVG/1.1/DTD/svg11.dtd">
<!-- Generated by graphviz version 2.43.0 (0)
 -->
<!-- Title: %3 Pages: 1 -->
<svg width="1149pt" height="258pt"
 viewBox="0.00 0.00 1149.00 258.00" xmlns="http://www.w3.org/2000/svg" xmlns:xlink="http://www.w3.org/1999/xlink">
<g id="graph0" class="graph" transform="scale(1 1) rotate(0) translate(4 254)">
<title>%3</title>
<polygon fill="white" stroke="transparent" points="-4,4 -4,-254 1145,-254 1145,4 -4,4"/>
<g id="clust1" class="cluster">
<title>cluster__mbr_partition_table</title>
<polygon fill="none" stroke="black" stroke-dasharray="1,5" points="8,-8 8,-242 1133,-242 1133,-8 8,-8"/>
<text text-anchor="middle" x="570.5" y="-226.8" font-family="Times,serif" font-size="14.00">MbrPartitionTable</text>
</g>
<g id="clust2" class="cluster">
<title>cluster__partition_entry</title>
<polygon fill="none" stroke="black" stroke-dasharray="1,5" points="360,-16 360,-211 619,-211 619,-16 360,-16"/>
<text text-anchor="middle" x="489.5" y="-195.8" font-family="Times,serif" font-size="14.00">MbrPartitionTable::PartitionEntry</text>
</g>
<g id="clust3" class="cluster">
<title>cluster__chs</title>
<polygon fill="none" stroke="black" stroke-dasharray="1,5" points="647,-35 647,-192 1125,-192 1125,-35 647,-35"/>
<text text-anchor="middle" x="886" y="-176.8" font-family="Times,serif" font-size="14.00">MbrPartitionTable::Chs</text>
</g>
<!-- mbr_partition_table__seq -->
<g id="node1" class="node">
<title>mbr_partition_table__seq</title>
<polygon fill="#e0ffe0" stroke="transparent" points="24,-134 24,-155 58,-155 58,-134 24,-134"/>
<polygon fill="none" stroke="black" points="24,-134 24,-155 58,-155 58,-134 24,-134"/>
<text text-anchor="start" x="28.5" y="-140.8" font-family="Times,serif" font-size="14.00">pos</text>
<polygon fill="#e0ffe0" stroke="transparent" points="58,-134 58,-155 92,-155 92,-134 58,-134"/>
<polygon fill="none" stroke="black" points="58,-134 58,-155 92,-155 92,-134 58,-134"/>
<text text-anchor="start" x="61" y="-140.8" font-family="Times,serif" font-size="14.00">size</text>
<polygon fill="#e0ffe0" stroke="transparent" points="92,-134 92,-155 201,-155 201,-134 92,-134"/>
<polygon fill="none" stroke="black" points="92,-134 92,-155 201,-155 201,-134 92,-134"/>
<text text-anchor="start" x="130.5" y="-140.8" font-family="Times,serif" font-size="14.00">type</text>
<polygon fill="#e0ffe0" stroke="transparent" points="201,-134 201,-155 316,-155 316,-134 201,-134"/>
<polygon fill="none" stroke="black" points="201,-134 201,-155 316,-155 316,-134 201,-134"/>
<text text-anchor="start" x="251.5" y="-140.8" font-family="Times,serif" font-size="14.00">id</text>
<polygon fill="none" stroke="black" points="24,-113 24,-134 58,-134 58,-113 24,-113"/>
<text text-anchor="start" x="36" y="-119.8" font-family="Times,serif" font-size="14.00">0</text>
<polygon fill="none" stroke="black" points="58,-113 58,-134 92,-134 92,-113 58,-113"/>
<text text-anchor="start" x="61" y="-119.8" font-family="Times,serif" font-size="14.00">446</text>
<polygon fill="none" stroke="black" points="92,-113 92,-134 201,-134 201,-113 92,-113"/>
<polygon fill="none" stroke="black" points="201,-113 201,-134 316,-134 316,-113 201,-113"/>
<text text-anchor="start" x="204" y="-119.8" font-family="Times,serif" font-size="14.00">bootstrap_code</text>
<polygon fill="none" stroke="black" points="24,-92 24,-113 58,-113 58,-92 24,-92"/>
<text text-anchor="start" x="27" y="-98.8" font-family="Times,serif" font-size="14.00">446</text>
<polygon fill="none" stroke="black" points="58,-92 58,-113 92,-113 92,-92 58,-92"/>
<text text-anchor="start" x="65.5" y="-98.8" font-family="Times,serif" font-size="14.00">16</text>
<polygon fill="none" stroke="black" points="92,-92 92,-113 201,-113 201,-92 92,-92"/>
<text text-anchor="start" x="95" y="-98.8" font-family="Times,serif" font-size="14.00">PartitionEntry</text>
<polygon fill="none" stroke="black" points="201,-92 201,-113 316,-113 316,-92 201,-92"/>
<text text-anchor="start" x="223.5" y="-98.8" font-family="Times,serif" font-size="14.00">partitions</text>
<polygon fill="none" stroke="black" points="24,-71 24,-92 316,-92 316,-71 24,-71"/>
<text text-anchor="start" x="117.5" y="-77.8" font-family="Times,serif" font-size="14.00">repeat 4 times</text>
<polygon fill="none" stroke="black" points="24,-50 24,-71 58,-71 58,-50 24,-50"/>
<text text-anchor="start" x="27" y="-56.8" font-family="Times,serif" font-size="14.00">510</text>
<polygon fill="none" stroke="black" points="58,-50 58,-71 92,-71 92,-50 58,-50"/>
<text text-anchor="start" x="70" y="-56.8" font-family="Times,serif" font-size="14.00">2</text>
<polygon fill="none" stroke="black" points="92,-50 92,-71 201,-71 201,-50 92,-50"/>
<polygon fill="none" stroke="black" points="201,-50 201,-71 316,-71 316,-50 201,-50"/>
<text text-anchor="start" x="205" y="-56.8" font-family="Times,serif" font-size="14.00">boot_signature</text>
</g>
<!-- partition_entry__seq -->
<g id="node2" class="node">
<title>partition_entry__seq</title>
<polygon fill="#e0ffe0" stroke="transparent" points="384,-154 384,-175 415,-175 415,-154 384,-154"/>
<polygon fill="none" stroke="black" points="384,-154 384,-175 415,-175 415,-154 384,-154"/>
<text text-anchor="start" x="387" y="-160.8" font-family="Times,serif" font-size="14.00">pos</text>
<polygon fill="#e0ffe0" stroke="transparent" points="415,-154 415,-175 449,-175 449,-154 415,-154"/>
<polygon fill="none" stroke="black" points="415,-154 415,-175 449,-175 449,-154 415,-154"/>
<text text-anchor="start" x="418" y="-160.8" font-family="Times,serif" font-size="14.00">size</text>
<polygon fill="#e0ffe0" stroke="transparent" points="449,-154 449,-175 487,-175 487,-154 449,-154"/>
<polygon fill="none" stroke="black" points="449,-154 449,-175 487,-175 487,-154 449,-154"/>
<text text-anchor="start" x="452" y="-160.8" font-family="Times,serif" font-size="14.00">type</text>
<polygon fill="#e0ffe0" stroke="transparent" points="487,-154 487,-175 594,-175 594,-154 487,-154"/>
<polygon fill="none" stroke="black" points="487,-154 487,-175 594,-175 594,-154 487,-154"/>
<text text-anchor="start" x="533.5" y="-160.8" font-family="Times,serif" font-size="14.00">id</text>
<polygon fill="none" stroke="black" points="384,-133 384,-154 415,-154 415,-133 384,-133"/>
<text text-anchor="start" x="394.5" y="-139.8" font-family="Times,serif" font-size="14.00">0</text>
<polygon fill="none" stroke="black" points="415,-133 415,-154 449,-154 449,-133 415,-133"/>
<text text-anchor="start" x="427" y="-139.8" font-family="Times,serif" font-size="14.00">1</text>
<polygon fill="none" stroke="black" points="449,-133 449,-154 487,-154 487,-133 449,-133"/>
<text text-anchor="start" x="458.5" y="-139.8" font-family="Times,serif" font-size="14.00">u1</text>
<polygon fill="none" stroke="black" points="487,-133 487,-154 594,-154 594,-133 487,-133"/>
<text text-anchor="start" x="518" y="-139.8" font-family="Times,serif" font-size="14.00">status</text>
<polygon fill="none" stroke="black" points="384,-112 384,-133 415,-133 415,-112 384,-112"/>
<text text-anchor="start" x="394.5" y="-118.8" font-family="Times,serif" font-size="14.00">1</text>
<polygon fill="none" stroke="black" points="415,-112 415,-133 449,-133 449,-112 415,-112"/>
<text text-anchor="start" x="427" y="-118.8" font-family="Times,serif" font-size="14.00">3</text>
<polygon fill="none" stroke="black" points="449,-112 449,-133 487,-133 487,-112 449,-112"/>
<text text-anchor="start" x="454" y="-118.8" font-family="Times,serif" font-size="14.00">Chs</text>
<polygon fill="none" stroke="black" points="487,-112 487,-133 594,-133 594,-112 487,-112"/>
<text text-anchor="start" x="507.5" y="-118.8" font-family="Times,serif" font-size="14.00">chs_start</text>
<polygon fill="none" stroke="black" points="384,-91 384,-112 415,-112 415,-91 384,-91"/>
<text text-anchor="start" x="394.5" y="-97.8" font-family="Times,serif" font-size="14.00">4</text>
<polygon fill="none" stroke="black" points="415,-91 415,-112 449,-112 449,-91 415,-91"/>
<text text-anchor="start" x="427" y="-97.8" font-family="Times,serif" font-size="14.00">1</text>
<polygon fill="none" stroke="black" points="449,-91 449,-112 487,-112 487,-91 449,-91"/>
<text text-anchor="start" x="458.5" y="-97.8" font-family="Times,serif" font-size="14.00">u1</text>
<polygon fill="none" stroke="black" points="487,-91 487,-112 594,-112 594,-91 487,-91"/>
<text text-anchor="start" x="490" y="-97.8" font-family="Times,serif" font-size="14.00">partition_type</text>
<polygon fill="none" stroke="black" points="384,-70 384,-91 415,-91 415,-70 384,-70"/>
<text text-anchor="start" x="394.5" y="-76.8" font-family="Times,serif" font-size="14.00">5</text>
<polygon fill="none" stroke="black" points="415,-70 415,-91 449,-91 449,-70 415,-70"/>
<text text-anchor="start" x="427" y="-76.8" font-family="Times,serif" font-size="14.00">3</text>
<polygon fill="none" stroke="black" points="449,-70 449,-91 487,-91 487,-70 449,-70"/>
<text text-anchor="start" x="454" y="-76.8" font-family="Times,serif" font-size="14.00">Chs</text>
<polygon fill="none" stroke="black" points="487,-70 487,-91 594,-91 594,-70 487,-70"/>
<text text-anchor="start" x="511.5" y="-76.8" font-family="Times,serif" font-size="14.00">chs_end</text>
<polygon fill="none" stroke="black" points="384,-49 384,-70 415,-70 415,-49 384,-49"/>
<text text-anchor="start" x="394.5" y="-55.8" font-family="Times,serif" font-size="14.00">8</text>
<polygon fill="none" stroke="black" points="415,-49 415,-70 449,-70 449,-49 415,-49"/>
<text text-anchor="start" x="427" y="-55.8" font-family="Times,serif" font-size="14.00">4</text>
<polygon fill="none" stroke="black" points="449,-49 449,-70 487,-70 487,-49 449,-49"/>
<text text-anchor="start" x="452.5" y="-55.8" font-family="Times,serif" font-size="14.00">u4le</text>
<polygon fill="none" stroke="black" points="487,-49 487,-70 594,-70 594,-49 487,-49"/>
<text text-anchor="start" x="508.5" y="-55.8" font-family="Times,serif" font-size="14.00">lba_start</text>
<polygon fill="none" stroke="black" points="384,-28 384,-49 415,-49 415,-28 384,-28"/>
<text text-anchor="start" x="390" y="-34.8" font-family="Times,serif" font-size="14.00">12</text>
<polygon fill="none" stroke="black" points="415,-28 415,-49 449,-49 449,-28 415,-28"/>
<text text-anchor="start" x="427" y="-34.8" font-family="Times,serif" font-size="14.00">4</text>
<polygon fill="none" stroke="black" points="449,-28 449,-49 487,-49 487,-28 449,-28"/>
<text text-anchor="start" x="452.5" y="-34.8" font-family="Times,serif" font-size="14.00">u4le</text>
<polygon fill="none" stroke="black" points="487,-28 487,-49 594,-49 594,-28 487,-28"/>
<text text-anchor="start" x="495" y="-34.8" font-family="Times,serif" font-size="14.00">num_sectors</text>
</g>
<!-- mbr_partition_table__seq&#45;&gt;partition_entry__seq -->
<g id="edge1" class="edge">
<title>mbr_partition_table__seq:partitions_type&#45;&gt;partition_entry__seq</title>
<path fill="none" stroke="black" stroke-width="2" d="M317,-102C332.73,-102 349.28,-102 365.63,-102"/>
<polygon fill="black" stroke="black" stroke-width="2" points="365.78,-105.5 375.78,-102 365.78,-98.5 365.78,-105.5"/>
</g>
<!-- chs__seq -->
<g id="node3" class="node">
<title>chs__seq</title>
<polygon fill="#e0ffe0" stroke="transparent" points="663,-121 663,-142 694,-142 694,-121 663,-121"/>
<polygon fill="none" stroke="black" points="663,-121 663,-142 694,-142 694,-121 663,-121"/>
<text text-anchor="start" x="666" y="-127.8" font-family="Times,serif" font-size="14.00">pos</text>
<polygon fill="#e0ffe0" stroke="transparent" points="694,-121 694,-142 728,-142 728,-121 694,-121"/>
<polygon fill="none" stroke="black" points="694,-121 694,-142 728,-142 728,-121 694,-121"/>
<text text-anchor="start" x="697" y="-127.8" font-family="Times,serif" font-size="14.00">size</text>
<polygon fill="#e0ffe0" stroke="transparent" points="728,-121 728,-142 766,-142 766,-121 728,-121"/>
<polygon fill="none" stroke="black" points="728,-121 728,-142 766,-142 766,-121 728,-121"/>
<text text-anchor="start" x="731" y="-127.8" font-family="Times,serif" font-size="14.00">type</text>
<polygon fill="#e0ffe0" stroke="transparent" points="766,-121 766,-142 807,-142 807,-121 766,-121"/>
<polygon fill="none" stroke="black" points="766,-121 766,-142 807,-142 807,-121 766,-121"/>
<text text-anchor="start" x="779.5" y="-127.8" font-family="Times,serif" font-size="14.00">id</text>
<polygon fill="none" stroke="black" points="663,-100 663,-121 694,-121 694,-100 663,-100"/>
<text text-anchor="start" x="673.5" y="-106.8" font-family="Times,serif" font-size="14.00">0</text>
<polygon fill="none" stroke="black" points="694,-100 694,-121 728,-121 728,-100 694,-100"/>
<text text-anchor="start" x="706" y="-106.8" font-family="Times,serif" font-size="14.00">1</text>
<polygon fill="none" stroke="black" points="728,-100 728,-121 766,-121 766,-100 728,-100"/>
<text text-anchor="start" x="737.5" y="-106.8" font-family="Times,serif" font-size="14.00">u1</text>
<polygon fill="none" stroke="black" points="766,-100 766,-121 807,-121 807,-100 766,-100"/>
<text text-anchor="start" x="769" y="-106.8" font-family="Times,serif" font-size="14.00">head</text>
<polygon fill="none" stroke="black" points="663,-79 663,-100 694,-100 694,-79 663,-79"/>
<text text-anchor="start" x="673.5" y="-85.8" font-family="Times,serif" font-size="14.00">1</text>
<polygon fill="none" stroke="black" points="694,-79 694,-100 728,-100 728,-79 694,-79"/>
<text text-anchor="start" x="706" y="-85.8" font-family="Times,serif" font-size="14.00">1</text>
<polygon fill="none" stroke="black" points="728,-79 728,-100 766,-100 766,-79 728,-79"/>
<text text-anchor="start" x="737.5" y="-85.8" font-family="Times,serif" font-size="14.00">u1</text>
<polygon fill="none" stroke="black" points="766,-79 766,-100 807,-100 807,-79 766,-79"/>
<text text-anchor="start" x="777" y="-85.8" font-family="Times,serif" font-size="14.00">b2</text>
<polygon fill="none" stroke="black" points="663,-58 663,-79 694,-79 694,-58 663,-58"/>
<text text-anchor="start" x="673.5" y="-64.8" font-family="Times,serif" font-size="14.00">2</text>
<polygon fill="none" stroke="black" points="694,-58 694,-79 728,-79 728,-58 694,-58"/>
<text text-anchor="start" x="706" y="-64.8" font-family="Times,serif" font-size="14.00">1</text>
<polygon fill="none" stroke="black" points="728,-58 728,-79 766,-79 766,-58 728,-58"/>
<text text-anchor="start" x="737.5" y="-64.8" font-family="Times,serif" font-size="14.00">u1</text>
<polygon fill="none" stroke="black" points="766,-58 766,-79 807,-79 807,-58 766,-58"/>
<text text-anchor="start" x="777" y="-64.8" font-family="Times,serif" font-size="14.00">b3</text>
</g>
<!-- partition_entry__seq&#45;&gt;chs__seq -->
<g id="edge2" class="edge">
<title>partition_entry__seq:chs_start_type&#45;&gt;chs__seq</title>
<path fill="none" stroke="black" stroke-width="2" d="M595,-123C611.2,-123 628.33,-121.46 644.82,-119.18"/>
<polygon fill="black" stroke="black" stroke-width="2" points="645.61,-122.6 654.99,-117.67 644.58,-115.67 645.61,-122.6"/>
</g>
<!-- partition_entry__seq&#45;&gt;chs__seq -->
<g id="edge3" class="edge">
<title>partition_entry__seq:chs_end_type&#45;&gt;chs__seq</title>
<path fill="none" stroke="black" stroke-width="2" d="M595,-80C611.15,-80 628.25,-81.34 644.73,-83.33"/>
<polygon fill="black" stroke="black" stroke-width="2" points="644.53,-86.83 654.9,-84.64 645.43,-79.89 644.53,-86.83"/>
</g>
<!-- chs__inst__sector -->
<g id="node4" class="node">
<title>chs__inst__sector</title>
<polygon fill="#e0ffe0" stroke="transparent" points="921,-136 921,-157 972,-157 972,-136 921,-136"/>
<polygon fill="none" stroke="black" points="921,-136 921,-157 972,-157 972,-136 921,-136"/>
<text text-anchor="start" x="939.5" y="-142.8" font-family="Times,serif" font-size="14.00">id</text>
<polygon fill="#e0ffe0" stroke="transparent" points="972,-136 972,-157 1047,-157 1047,-136 972,-136"/>
<polygon fill="none" stroke="black" points="972,-136 972,-157 1047,-157 1047,-136 972,-136"/>
<text text-anchor="start" x="990" y="-142.8" font-family="Times,serif" font-size="14.00">value</text>
<polygon fill="none" stroke="black" points="921,-115 921,-136 972,-136 972,-115 921,-115"/>
<text text-anchor="start" x="924" y="-121.8" font-family="Times,serif" font-size="14.00">sector</text>
<polygon fill="none" stroke="black" points="972,-115 972,-136 1047,-136 1047,-115 972,-115"/>
<text text-anchor="start" x="975" y="-121.8" font-family="Times,serif" font-size="14.00">(b2 &amp; 63)</text>
</g>
<!-- chs__seq&#45;&gt;chs__inst__sector -->
<g id="edge4" class="edge">
<title>chs__seq:b2_type&#45;&gt;chs__inst__sector</title>
<path fill="none" stroke="#404040" d="M808,-89C827.97,-89 831.77,-96.62 851,-102 867.76,-106.69 885.79,-111.49 902.98,-115.96"/>
<polygon fill="#404040" stroke="#404040" points="902.42,-119.43 912.98,-118.54 904.17,-112.65 902.42,-119.43"/>
</g>
<!-- chs__inst__cylinder -->
<g id="node5" class="node">
<title>chs__inst__cylinder</title>
<polygon fill="#e0ffe0" stroke="transparent" points="859,-68 859,-89 923,-89 923,-68 859,-68"/>
<polygon fill="none" stroke="black" points="859,-68 859,-89 923,-89 923,-68 859,-68"/>
<text text-anchor="start" x="884" y="-74.8" font-family="Times,serif" font-size="14.00">id</text>
<polygon fill="#e0ffe0" stroke="transparent" points="923,-68 923,-89 1109,-89 1109,-68 923,-68"/>
<polygon fill="none" stroke="black" points="923,-68 923,-89 1109,-89 1109,-68 923,-68"/>
<text text-anchor="start" x="996.5" y="-74.8" font-family="Times,serif" font-size="14.00">value</text>
<polygon fill="none" stroke="black" points="859,-47 859,-68 923,-68 923,-47 859,-47"/>
<text text-anchor="start" x="862" y="-53.8" font-family="Times,serif" font-size="14.00">cylinder</text>
<polygon fill="none" stroke="black" points="923,-47 923,-68 1109,-68 1109,-47 923,-47"/>
<text text-anchor="start" x="926" y="-53.8" font-family="Times,serif" font-size="14.00">(b3 + ((b2 &amp; 192) &lt;&lt; 2))</text>
</g>
<!-- chs__seq&#45;&gt;chs__inst__cylinder -->
<g id="edge5" class="edge">
<title>chs__seq:b3_type&#45;&gt;chs__inst__cylinder</title>
<path fill="none" stroke="#404040" d="M808,-68C818.58,-68 829.53,-68 840.54,-68"/>
<polygon fill="#404040" stroke="#404040" points="840.66,-71.5 850.66,-68 840.66,-64.5 840.66,-71.5"/>
</g>
<!-- chs__seq&#45;&gt;chs__inst__cylinder -->
<g id="edge6" class="edge">
<title>chs__seq:b2_type&#45;&gt;chs__inst__cylinder</title>
<path fill="none" stroke="#404040" d="M808,-89C818.66,-89 829.66,-88.61 840.71,-87.94"/>
<polygon fill="#404040" stroke="#404040" points="841.12,-91.42 850.86,-87.25 840.64,-84.44 841.12,-91.42"/>
</g>
</g>
</svg>
