<?xml version="1.0" encoding="UTF-8" standalone="no"?>
<!DOCTYPE svg PUBLIC "-//W3C//DTD SVG 1.1//EN"
 "http://www.w3.org/Graphics/SVG/1.1/DTD/svg11.dtd">
<!-- Generated by graphviz version 2.38.0 (20140413.2041)
 -->
<!-- Title: %3 Pages: 1 -->
<svg width="970pt" height="426pt"
 viewBox="0.00 0.00 970.00 426.00" xmlns="http://www.w3.org/2000/svg" xmlns:xlink="http://www.w3.org/1999/xlink">
<g id="graph0" class="graph" transform="scale(1 1) rotate(0) translate(4 422)">
<title>%3</title>
<polygon fill="white" stroke="none" points="-4,4 -4,-422 966,-422 966,4 -4,4"/>
<g id="clust1" class="cluster"><title>cluster__dos_mz</title>
<polygon fill="none" stroke="black" stroke-dasharray="1,5" points="8,-8 8,-410 954,-410 954,-8 8,-8"/>
<text text-anchor="middle" x="481" y="-394.8" font-family="Times,serif" font-size="14.00">DosMz</text>
</g>
<g id="clust2" class="cluster"><title>cluster__mz_header</title>
<polygon fill="none" stroke="black" stroke-dasharray="1,5" points="16,-16 16,-379 317,-379 317,-16 16,-16"/>
<text text-anchor="middle" x="166.5" y="-363.8" font-family="Times,serif" font-size="14.00">DosMz::MzHeader</text>
</g>
<g id="clust3" class="cluster"><title>cluster__relocation</title>
<polygon fill="none" stroke="black" stroke-dasharray="1,5" points="780,-99 780,-210 946,-210 946,-99 780,-99"/>
<text text-anchor="middle" x="863" y="-194.8" font-family="Times,serif" font-size="14.00">DosMz::Relocation</text>
</g>
<!-- dos_mz__seq -->
<g id="node1" class="node"><title>dos_mz__seq</title>
<polygon fill="#e0ffe0" stroke="none" points="353.5,-196 353.5,-217 384.5,-217 384.5,-196 353.5,-196"/>
<polygon fill="none" stroke="black" points="353.5,-196 353.5,-217 384.5,-217 384.5,-196 353.5,-196"/>
<text text-anchor="start" x="356.5" y="-202.8" font-family="Times,serif" font-size="14.00">pos</text>
<polygon fill="#e0ffe0" stroke="none" points="384.5,-196 384.5,-217 568.5,-217 568.5,-196 384.5,-196"/>
<polygon fill="none" stroke="black" points="384.5,-196 384.5,-217 568.5,-217 568.5,-196 384.5,-196"/>
<text text-anchor="start" x="462.5" y="-202.8" font-family="Times,serif" font-size="14.00">size</text>
<polygon fill="#e0ffe0" stroke="none" points="568.5,-196 568.5,-217 650.5,-217 650.5,-196 568.5,-196"/>
<polygon fill="none" stroke="black" points="568.5,-196 568.5,-217 650.5,-217 650.5,-196 568.5,-196"/>
<text text-anchor="start" x="593.5" y="-202.8" font-family="Times,serif" font-size="14.00">type</text>
<polygon fill="#e0ffe0" stroke="none" points="650.5,-196 650.5,-217 744.5,-217 744.5,-196 650.5,-196"/>
<polygon fill="none" stroke="black" points="650.5,-196 650.5,-217 744.5,-217 744.5,-196 650.5,-196"/>
<text text-anchor="start" x="690.5" y="-202.8" font-family="Times,serif" font-size="14.00">id</text>
<polygon fill="none" stroke="black" points="353.5,-175 353.5,-196 384.5,-196 384.5,-175 353.5,-175"/>
<text text-anchor="start" x="364" y="-181.8" font-family="Times,serif" font-size="14.00">0</text>
<polygon fill="none" stroke="black" points="384.5,-175 384.5,-196 568.5,-196 568.5,-175 384.5,-175"/>
<text text-anchor="start" x="467" y="-181.8" font-family="Times,serif" font-size="14.00">28</text>
<polygon fill="none" stroke="black" points="568.5,-175 568.5,-196 650.5,-196 650.5,-175 568.5,-175"/>
<text text-anchor="start" x="571.5" y="-181.8" font-family="Times,serif" font-size="14.00">MzHeader</text>
<polygon fill="none" stroke="black" points="650.5,-175 650.5,-196 744.5,-196 744.5,-175 650.5,-175"/>
<text text-anchor="start" x="685" y="-181.8" font-family="Times,serif" font-size="14.00">hdr</text>
<polygon fill="none" stroke="black" points="353.5,-154 353.5,-175 384.5,-175 384.5,-154 353.5,-154"/>
<text text-anchor="start" x="359.5" y="-160.8" font-family="Times,serif" font-size="14.00">28</text>
<polygon fill="none" stroke="black" points="384.5,-154 384.5,-175 568.5,-175 568.5,-154 384.5,-154"/>
<text text-anchor="start" x="387.5" y="-160.8" font-family="Times,serif" font-size="14.00">(hdr.ofs_relocations &#45; 28)</text>
<polygon fill="none" stroke="black" points="568.5,-154 568.5,-175 650.5,-175 650.5,-154 568.5,-154"/>
<polygon fill="none" stroke="black" points="650.5,-154 650.5,-175 744.5,-175 744.5,-154 650.5,-154"/>
<text text-anchor="start" x="653.5" y="-160.8" font-family="Times,serif" font-size="14.00">mz_header2</text>
<polygon fill="none" stroke="black" points="353.5,-133 353.5,-154 384.5,-154 384.5,-133 353.5,-133"/>
<text text-anchor="start" x="362" y="-139.8" font-family="Times,serif" font-size="14.00">...</text>
<polygon fill="none" stroke="black" points="384.5,-133 384.5,-154 568.5,-154 568.5,-133 384.5,-133"/>
<text text-anchor="start" x="471.5" y="-139.8" font-family="Times,serif" font-size="14.00">4</text>
<polygon fill="none" stroke="black" points="568.5,-133 568.5,-154 650.5,-154 650.5,-133 568.5,-133"/>
<text text-anchor="start" x="571.5" y="-139.8" font-family="Times,serif" font-size="14.00">Relocation</text>
<polygon fill="none" stroke="black" points="650.5,-133 650.5,-154 744.5,-154 744.5,-133 650.5,-133"/>
<text text-anchor="start" x="657.5" y="-139.8" font-family="Times,serif" font-size="14.00">relocations</text>
<polygon fill="none" stroke="black" points="353.5,-112 353.5,-133 744.5,-133 744.5,-112 353.5,-112"/>
<text text-anchor="start" x="428" y="-118.8" font-family="Times,serif" font-size="14.00">repeat hdr.num_relocations times</text>
<polygon fill="none" stroke="black" points="353.5,-91 353.5,-112 384.5,-112 384.5,-91 353.5,-91"/>
<text text-anchor="start" x="362" y="-97.8" font-family="Times,serif" font-size="14.00">...</text>
<polygon fill="none" stroke="black" points="384.5,-91 384.5,-112 568.5,-112 568.5,-91 384.5,-91"/>
<text text-anchor="start" x="470" y="-97.8" font-family="Times,serif" font-size="14.00">⇲</text>
<polygon fill="none" stroke="black" points="568.5,-91 568.5,-112 650.5,-112 650.5,-91 568.5,-91"/>
<polygon fill="none" stroke="black" points="650.5,-91 650.5,-112 744.5,-112 744.5,-91 650.5,-91"/>
<text text-anchor="start" x="680" y="-97.8" font-family="Times,serif" font-size="14.00">body</text>
</g>
<!-- mz_header__seq -->
<g id="node2" class="node"><title>mz_header__seq</title>
<polygon fill="#e0ffe0" stroke="none" points="32.5,-322 32.5,-343 63.5,-343 63.5,-322 32.5,-322"/>
<polygon fill="none" stroke="black" points="32.5,-322 32.5,-343 63.5,-343 63.5,-322 32.5,-322"/>
<text text-anchor="start" x="35.5" y="-328.8" font-family="Times,serif" font-size="14.00">pos</text>
<polygon fill="#e0ffe0" stroke="none" points="63.5,-322 63.5,-343 97.5,-343 97.5,-322 63.5,-322"/>
<polygon fill="none" stroke="black" points="63.5,-322 63.5,-343 97.5,-343 97.5,-322 63.5,-322"/>
<text text-anchor="start" x="66.5" y="-328.8" font-family="Times,serif" font-size="14.00">size</text>
<polygon fill="#e0ffe0" stroke="none" points="97.5,-322 97.5,-343 135.5,-343 135.5,-322 97.5,-322"/>
<polygon fill="none" stroke="black" points="97.5,-322 97.5,-343 135.5,-343 135.5,-322 97.5,-322"/>
<text text-anchor="start" x="100.5" y="-328.8" font-family="Times,serif" font-size="14.00">type</text>
<polygon fill="#e0ffe0" stroke="none" points="135.5,-322 135.5,-343 301.5,-343 301.5,-322 135.5,-322"/>
<polygon fill="none" stroke="black" points="135.5,-322 135.5,-343 301.5,-343 301.5,-322 135.5,-322"/>
<text text-anchor="start" x="211.5" y="-328.8" font-family="Times,serif" font-size="14.00">id</text>
<polygon fill="none" stroke="black" points="32.5,-301 32.5,-322 63.5,-322 63.5,-301 32.5,-301"/>
<text text-anchor="start" x="43" y="-307.8" font-family="Times,serif" font-size="14.00">0</text>
<polygon fill="none" stroke="black" points="63.5,-301 63.5,-322 97.5,-322 97.5,-301 63.5,-301"/>
<text text-anchor="start" x="75.5" y="-307.8" font-family="Times,serif" font-size="14.00">2</text>
<polygon fill="none" stroke="black" points="97.5,-301 97.5,-322 135.5,-322 135.5,-301 97.5,-301"/>
<polygon fill="none" stroke="black" points="135.5,-301 135.5,-322 301.5,-322 301.5,-301 135.5,-301"/>
<text text-anchor="start" x="196.5" y="-307.8" font-family="Times,serif" font-size="14.00">magic</text>
<polygon fill="none" stroke="black" points="32.5,-280 32.5,-301 63.5,-301 63.5,-280 32.5,-280"/>
<text text-anchor="start" x="43" y="-286.8" font-family="Times,serif" font-size="14.00">2</text>
<polygon fill="none" stroke="black" points="63.5,-280 63.5,-301 97.5,-301 97.5,-280 63.5,-280"/>
<text text-anchor="start" x="75.5" y="-286.8" font-family="Times,serif" font-size="14.00">2</text>
<polygon fill="none" stroke="black" points="97.5,-280 97.5,-301 135.5,-301 135.5,-280 97.5,-280"/>
<text text-anchor="start" x="101" y="-286.8" font-family="Times,serif" font-size="14.00">u2le</text>
<polygon fill="none" stroke="black" points="135.5,-280 135.5,-301 301.5,-301 301.5,-280 135.5,-280"/>
<text text-anchor="start" x="138.5" y="-286.8" font-family="Times,serif" font-size="14.00">last_page_extra_bytes</text>
<polygon fill="none" stroke="black" points="32.5,-259 32.5,-280 63.5,-280 63.5,-259 32.5,-259"/>
<text text-anchor="start" x="43" y="-265.8" font-family="Times,serif" font-size="14.00">4</text>
<polygon fill="none" stroke="black" points="63.5,-259 63.5,-280 97.5,-280 97.5,-259 63.5,-259"/>
<text text-anchor="start" x="75.5" y="-265.8" font-family="Times,serif" font-size="14.00">2</text>
<polygon fill="none" stroke="black" points="97.5,-259 97.5,-280 135.5,-280 135.5,-259 97.5,-259"/>
<text text-anchor="start" x="101" y="-265.8" font-family="Times,serif" font-size="14.00">u2le</text>
<polygon fill="none" stroke="black" points="135.5,-259 135.5,-280 301.5,-280 301.5,-259 135.5,-259"/>
<text text-anchor="start" x="177.5" y="-265.8" font-family="Times,serif" font-size="14.00">num_pages</text>
<polygon fill="none" stroke="black" points="32.5,-238 32.5,-259 63.5,-259 63.5,-238 32.5,-238"/>
<text text-anchor="start" x="43" y="-244.8" font-family="Times,serif" font-size="14.00">6</text>
<polygon fill="none" stroke="black" points="63.5,-238 63.5,-259 97.5,-259 97.5,-238 63.5,-238"/>
<text text-anchor="start" x="75.5" y="-244.8" font-family="Times,serif" font-size="14.00">2</text>
<polygon fill="none" stroke="black" points="97.5,-238 97.5,-259 135.5,-259 135.5,-238 97.5,-238"/>
<text text-anchor="start" x="101" y="-244.8" font-family="Times,serif" font-size="14.00">u2le</text>
<polygon fill="none" stroke="black" points="135.5,-238 135.5,-259 301.5,-259 301.5,-238 135.5,-238"/>
<text text-anchor="start" x="159" y="-244.8" font-family="Times,serif" font-size="14.00">num_relocations</text>
<polygon fill="none" stroke="black" points="32.5,-217 32.5,-238 63.5,-238 63.5,-217 32.5,-217"/>
<text text-anchor="start" x="43" y="-223.8" font-family="Times,serif" font-size="14.00">8</text>
<polygon fill="none" stroke="black" points="63.5,-217 63.5,-238 97.5,-238 97.5,-217 63.5,-217"/>
<text text-anchor="start" x="75.5" y="-223.8" font-family="Times,serif" font-size="14.00">2</text>
<polygon fill="none" stroke="black" points="97.5,-217 97.5,-238 135.5,-238 135.5,-217 97.5,-217"/>
<text text-anchor="start" x="101" y="-223.8" font-family="Times,serif" font-size="14.00">u2le</text>
<polygon fill="none" stroke="black" points="135.5,-217 135.5,-238 301.5,-238 301.5,-217 135.5,-217"/>
<text text-anchor="start" x="176" y="-223.8" font-family="Times,serif" font-size="14.00">header_size</text>
<polygon fill="none" stroke="black" points="32.5,-196 32.5,-217 63.5,-217 63.5,-196 32.5,-196"/>
<text text-anchor="start" x="38.5" y="-202.8" font-family="Times,serif" font-size="14.00">10</text>
<polygon fill="none" stroke="black" points="63.5,-196 63.5,-217 97.5,-217 97.5,-196 63.5,-196"/>
<text text-anchor="start" x="75.5" y="-202.8" font-family="Times,serif" font-size="14.00">2</text>
<polygon fill="none" stroke="black" points="97.5,-196 97.5,-217 135.5,-217 135.5,-196 97.5,-196"/>
<text text-anchor="start" x="101" y="-202.8" font-family="Times,serif" font-size="14.00">u2le</text>
<polygon fill="none" stroke="black" points="135.5,-196 135.5,-217 301.5,-217 301.5,-196 135.5,-196"/>
<text text-anchor="start" x="166" y="-202.8" font-family="Times,serif" font-size="14.00">min_allocation</text>
<polygon fill="none" stroke="black" points="32.5,-175 32.5,-196 63.5,-196 63.5,-175 32.5,-175"/>
<text text-anchor="start" x="38.5" y="-181.8" font-family="Times,serif" font-size="14.00">12</text>
<polygon fill="none" stroke="black" points="63.5,-175 63.5,-196 97.5,-196 97.5,-175 63.5,-175"/>
<text text-anchor="start" x="75.5" y="-181.8" font-family="Times,serif" font-size="14.00">2</text>
<polygon fill="none" stroke="black" points="97.5,-175 97.5,-196 135.5,-196 135.5,-175 97.5,-175"/>
<text text-anchor="start" x="101" y="-181.8" font-family="Times,serif" font-size="14.00">u2le</text>
<polygon fill="none" stroke="black" points="135.5,-175 135.5,-196 301.5,-196 301.5,-175 135.5,-175"/>
<text text-anchor="start" x="164.5" y="-181.8" font-family="Times,serif" font-size="14.00">max_allocation</text>
<polygon fill="none" stroke="black" points="32.5,-154 32.5,-175 63.5,-175 63.5,-154 32.5,-154"/>
<text text-anchor="start" x="38.5" y="-160.8" font-family="Times,serif" font-size="14.00">14</text>
<polygon fill="none" stroke="black" points="63.5,-154 63.5,-175 97.5,-175 97.5,-154 63.5,-154"/>
<text text-anchor="start" x="75.5" y="-160.8" font-family="Times,serif" font-size="14.00">2</text>
<polygon fill="none" stroke="black" points="97.5,-154 97.5,-175 135.5,-175 135.5,-154 97.5,-154"/>
<text text-anchor="start" x="101" y="-160.8" font-family="Times,serif" font-size="14.00">u2le</text>
<polygon fill="none" stroke="black" points="135.5,-154 135.5,-175 301.5,-175 301.5,-154 135.5,-154"/>
<text text-anchor="start" x="186.5" y="-160.8" font-family="Times,serif" font-size="14.00">initial_ss</text>
<polygon fill="none" stroke="black" points="32.5,-133 32.5,-154 63.5,-154 63.5,-133 32.5,-133"/>
<text text-anchor="start" x="38.5" y="-139.8" font-family="Times,serif" font-size="14.00">16</text>
<polygon fill="none" stroke="black" points="63.5,-133 63.5,-154 97.5,-154 97.5,-133 63.5,-133"/>
<text text-anchor="start" x="75.5" y="-139.8" font-family="Times,serif" font-size="14.00">2</text>
<polygon fill="none" stroke="black" points="97.5,-133 97.5,-154 135.5,-154 135.5,-133 97.5,-133"/>
<text text-anchor="start" x="101" y="-139.8" font-family="Times,serif" font-size="14.00">u2le</text>
<polygon fill="none" stroke="black" points="135.5,-133 135.5,-154 301.5,-154 301.5,-133 135.5,-133"/>
<text text-anchor="start" x="185.5" y="-139.8" font-family="Times,serif" font-size="14.00">initial_sp</text>
<polygon fill="none" stroke="black" points="32.5,-112 32.5,-133 63.5,-133 63.5,-112 32.5,-112"/>
<text text-anchor="start" x="38.5" y="-118.8" font-family="Times,serif" font-size="14.00">18</text>
<polygon fill="none" stroke="black" points="63.5,-112 63.5,-133 97.5,-133 97.5,-112 63.5,-112"/>
<text text-anchor="start" x="75.5" y="-118.8" font-family="Times,serif" font-size="14.00">2</text>
<polygon fill="none" stroke="black" points="97.5,-112 97.5,-133 135.5,-133 135.5,-112 97.5,-112"/>
<text text-anchor="start" x="101" y="-118.8" font-family="Times,serif" font-size="14.00">u2le</text>
<polygon fill="none" stroke="black" points="135.5,-112 135.5,-133 301.5,-133 301.5,-112 135.5,-112"/>
<text text-anchor="start" x="182" y="-118.8" font-family="Times,serif" font-size="14.00">checksum</text>
<polygon fill="none" stroke="black" points="32.5,-91 32.5,-112 63.5,-112 63.5,-91 32.5,-91"/>
<text text-anchor="start" x="38.5" y="-97.8" font-family="Times,serif" font-size="14.00">20</text>
<polygon fill="none" stroke="black" points="63.5,-91 63.5,-112 97.5,-112 97.5,-91 63.5,-91"/>
<text text-anchor="start" x="75.5" y="-97.8" font-family="Times,serif" font-size="14.00">2</text>
<polygon fill="none" stroke="black" points="97.5,-91 97.5,-112 135.5,-112 135.5,-91 97.5,-91"/>
<text text-anchor="start" x="101" y="-97.8" font-family="Times,serif" font-size="14.00">u2le</text>
<polygon fill="none" stroke="black" points="135.5,-91 135.5,-112 301.5,-112 301.5,-91 135.5,-91"/>
<text text-anchor="start" x="187" y="-97.8" font-family="Times,serif" font-size="14.00">initial_ip</text>
<polygon fill="none" stroke="black" points="32.5,-70 32.5,-91 63.5,-91 63.5,-70 32.5,-70"/>
<text text-anchor="start" x="38.5" y="-76.8" font-family="Times,serif" font-size="14.00">22</text>
<polygon fill="none" stroke="black" points="63.5,-70 63.5,-91 97.5,-91 97.5,-70 63.5,-70"/>
<text text-anchor="start" x="75.5" y="-76.8" font-family="Times,serif" font-size="14.00">2</text>
<polygon fill="none" stroke="black" points="97.5,-70 97.5,-91 135.5,-91 135.5,-70 97.5,-70"/>
<text text-anchor="start" x="101" y="-76.8" font-family="Times,serif" font-size="14.00">u2le</text>
<polygon fill="none" stroke="black" points="135.5,-70 135.5,-91 301.5,-91 301.5,-70 135.5,-70"/>
<text text-anchor="start" x="186" y="-76.8" font-family="Times,serif" font-size="14.00">initial_cs</text>
<polygon fill="none" stroke="black" points="32.5,-49 32.5,-70 63.5,-70 63.5,-49 32.5,-49"/>
<text text-anchor="start" x="38.5" y="-55.8" font-family="Times,serif" font-size="14.00">24</text>
<polygon fill="none" stroke="black" points="63.5,-49 63.5,-70 97.5,-70 97.5,-49 63.5,-49"/>
<text text-anchor="start" x="75.5" y="-55.8" font-family="Times,serif" font-size="14.00">2</text>
<polygon fill="none" stroke="black" points="97.5,-49 97.5,-70 135.5,-70 135.5,-49 97.5,-49"/>
<text text-anchor="start" x="101" y="-55.8" font-family="Times,serif" font-size="14.00">u2le</text>
<polygon fill="none" stroke="black" points="135.5,-49 135.5,-70 301.5,-70 301.5,-49 135.5,-49"/>
<text text-anchor="start" x="164" y="-55.8" font-family="Times,serif" font-size="14.00">ofs_relocations</text>
<polygon fill="none" stroke="black" points="32.5,-28 32.5,-49 63.5,-49 63.5,-28 32.5,-28"/>
<text text-anchor="start" x="38.5" y="-34.8" font-family="Times,serif" font-size="14.00">26</text>
<polygon fill="none" stroke="black" points="63.5,-28 63.5,-49 97.5,-49 97.5,-28 63.5,-28"/>
<text text-anchor="start" x="75.5" y="-34.8" font-family="Times,serif" font-size="14.00">2</text>
<polygon fill="none" stroke="black" points="97.5,-28 97.5,-49 135.5,-49 135.5,-28 97.5,-28"/>
<text text-anchor="start" x="101" y="-34.8" font-family="Times,serif" font-size="14.00">u2le</text>
<polygon fill="none" stroke="black" points="135.5,-28 135.5,-49 301.5,-49 301.5,-28 135.5,-28"/>
<text text-anchor="start" x="181.5" y="-34.8" font-family="Times,serif" font-size="14.00">overlay_id</text>
</g>
<!-- dos_mz__seq&#45;&gt;mz_header__seq -->
<g id="edge1" class="edge"><title>dos_mz__seq:hdr_type&#45;&gt;mz_header__seq</title>
<path fill="none" stroke="black" stroke-width="2" d="M745.5,-186C761.062,-186 755.66,-210.154 744.5,-221 617.169,-344.745 521.715,-238.256 345,-221 336.483,-220.168 327.768,-219.117 318.994,-217.903"/>
<polygon fill="black" stroke="black" stroke-width="2" points="319.468,-214.435 309.07,-216.465 318.465,-221.363 319.468,-214.435"/>
</g>
<!-- relocation__seq -->
<g id="node3" class="node"><title>relocation__seq</title>
<polygon fill="#e0ffe0" stroke="none" points="796,-153 796,-174 827,-174 827,-153 796,-153"/>
<polygon fill="none" stroke="black" points="796,-153 796,-174 827,-174 827,-153 796,-153"/>
<text text-anchor="start" x="799" y="-159.8" font-family="Times,serif" font-size="14.00">pos</text>
<polygon fill="#e0ffe0" stroke="none" points="827,-153 827,-174 861,-174 861,-153 827,-153"/>
<polygon fill="none" stroke="black" points="827,-153 827,-174 861,-174 861,-153 827,-153"/>
<text text-anchor="start" x="830" y="-159.8" font-family="Times,serif" font-size="14.00">size</text>
<polygon fill="#e0ffe0" stroke="none" points="861,-153 861,-174 899,-174 899,-153 861,-153"/>
<polygon fill="none" stroke="black" points="861,-153 861,-174 899,-174 899,-153 861,-153"/>
<text text-anchor="start" x="864" y="-159.8" font-family="Times,serif" font-size="14.00">type</text>
<polygon fill="#e0ffe0" stroke="none" points="899,-153 899,-174 930,-174 930,-153 899,-153"/>
<polygon fill="none" stroke="black" points="899,-153 899,-174 930,-174 930,-153 899,-153"/>
<text text-anchor="start" x="907.5" y="-159.8" font-family="Times,serif" font-size="14.00">id</text>
<polygon fill="none" stroke="black" points="796,-132 796,-153 827,-153 827,-132 796,-132"/>
<text text-anchor="start" x="806.5" y="-138.8" font-family="Times,serif" font-size="14.00">0</text>
<polygon fill="none" stroke="black" points="827,-132 827,-153 861,-153 861,-132 827,-132"/>
<text text-anchor="start" x="839" y="-138.8" font-family="Times,serif" font-size="14.00">2</text>
<polygon fill="none" stroke="black" points="861,-132 861,-153 899,-153 899,-132 861,-132"/>
<text text-anchor="start" x="864.5" y="-138.8" font-family="Times,serif" font-size="14.00">u2le</text>
<polygon fill="none" stroke="black" points="899,-132 899,-153 930,-153 930,-132 899,-132"/>
<text text-anchor="start" x="903.5" y="-138.8" font-family="Times,serif" font-size="14.00">ofs</text>
<polygon fill="none" stroke="black" points="796,-111 796,-132 827,-132 827,-111 796,-111"/>
<text text-anchor="start" x="806.5" y="-117.8" font-family="Times,serif" font-size="14.00">2</text>
<polygon fill="none" stroke="black" points="827,-111 827,-132 861,-132 861,-111 827,-111"/>
<text text-anchor="start" x="839" y="-117.8" font-family="Times,serif" font-size="14.00">2</text>
<polygon fill="none" stroke="black" points="861,-111 861,-132 899,-132 899,-111 861,-111"/>
<text text-anchor="start" x="864.5" y="-117.8" font-family="Times,serif" font-size="14.00">u2le</text>
<polygon fill="none" stroke="black" points="899,-111 899,-132 930,-132 930,-111 899,-111"/>
<text text-anchor="start" x="902" y="-117.8" font-family="Times,serif" font-size="14.00">seg</text>
</g>
<!-- dos_mz__seq&#45;&gt;relocation__seq -->
<g id="edge3" class="edge"><title>dos_mz__seq:relocations_type&#45;&gt;relocation__seq</title>
<path fill="none" stroke="black" stroke-width="2" d="M745.5,-143C755.846,-143 766.709,-143 777.469,-143"/>
<polygon fill="black" stroke="black" stroke-width="2" points="777.733,-146.5 787.733,-143 777.733,-139.5 777.733,-146.5"/>
</g>
<!-- mz_header__seq&#45;&gt;dos_mz__seq -->
<g id="edge2" class="edge"><title>mz_header__seq:ofs_relocations_type&#45;&gt;dos_mz__seq:mz_header2_size</title>
<path fill="none" stroke="#404040" d="M302.5,-59C368.463,-59 430.494,-115.721 459.048,-146.179"/>
<polygon fill="#404040" stroke="#404040" points="456.551,-148.635 465.88,-153.656 461.719,-143.913 456.551,-148.635"/>
</g>
<!-- mz_header__seq&#45;&gt;dos_mz__seq -->
<g id="edge4" class="edge"><title>mz_header__seq:num_relocations_type&#45;&gt;dos_mz__seq:relocations__repeat</title>
<path fill="none" stroke="#404040" d="M302.5,-249C359.252,-249 300.484,-137.844 342.345,-123.515"/>
<polygon fill="#404040" stroke="#404040" points="343.126,-126.937 352.5,-122 342.093,-120.014 343.126,-126.937"/>
</g>
</g>
</svg>
