<?xml version="1.0" encoding="UTF-8" standalone="no"?>
<!DOCTYPE svg PUBLIC "-//W3C//DTD SVG 1.1//EN"
 "http://www.w3.org/Graphics/SVG/1.1/DTD/svg11.dtd">
<!-- Generated by graphviz version 2.43.0 (0)
 -->
<!-- Title: %3 Pages: 1 -->
<svg width="2071pt" height="526pt"
 viewBox="0.00 0.00 2070.50 526.00" xmlns="http://www.w3.org/2000/svg" xmlns:xlink="http://www.w3.org/1999/xlink">
<g id="graph0" class="graph" transform="scale(1 1) rotate(0) translate(4 522)">
<title>%3</title>
<polygon fill="white" stroke="transparent" points="-4,4 -4,-522 2066.5,-522 2066.5,4 -4,4"/>
<g id="clust1" class="cluster">
<title>cluster__btrfs_stream</title>
<polygon fill="none" stroke="black" stroke-dasharray="1,5" points="8,-8 8,-510 2062.5,-510 2062.5,-8 8,-8"/>
<text text-anchor="middle" x="1035.25" y="-494.8" font-family="Times,serif" font-size="14.00">BtrfsStream</text>
</g>
<g id="clust2" class="cluster">
<title>cluster__send_command</title>
<polygon fill="none" stroke="black" stroke-dasharray="1,5" points="419.5,-16 419.5,-360 2054.5,-360 2054.5,-16 419.5,-16"/>
<text text-anchor="middle" x="1237" y="-344.8" font-family="Times,serif" font-size="14.00">BtrfsStream::SendCommand</text>
</g>
<g id="clust3" class="cluster">
<title>cluster__string</title>
<polygon fill="none" stroke="black" stroke-dasharray="1,5" points="1759,-24 1759,-113 2035,-113 2035,-24 1759,-24"/>
<text text-anchor="middle" x="1897" y="-97.8" font-family="Times,serif" font-size="14.00">BtrfsStream::SendCommand::String</text>
</g>
<g id="clust4" class="cluster">
<title>cluster__timespec</title>
<polygon fill="none" stroke="black" stroke-dasharray="1,5" points="1747.5,-121 1747.5,-232 2046.5,-232 2046.5,-121 1747.5,-121"/>
<text text-anchor="middle" x="1897" y="-216.8" font-family="Times,serif" font-size="14.00">BtrfsStream::SendCommand::Timespec</text>
</g>
<g id="clust5" class="cluster">
<title>cluster__tlv</title>
<polygon fill="none" stroke="black" stroke-dasharray="1,5" points="1143,-24 1143,-323 1696,-323 1696,-24 1143,-24"/>
<text text-anchor="middle" x="1419.5" y="-307.8" font-family="Times,serif" font-size="14.00">BtrfsStream::SendCommand::Tlv</text>
</g>
<g id="clust6" class="cluster">
<title>cluster__tlvs</title>
<polygon fill="none" stroke="black" stroke-dasharray="1,5" points="847,-163 847,-274 1107,-274 1107,-163 847,-163"/>
<text text-anchor="middle" x="977" y="-258.8" font-family="Times,serif" font-size="14.00">BtrfsStream::SendCommand::Tlvs</text>
</g>
<g id="clust7" class="cluster">
<title>cluster__uuid</title>
<polygon fill="none" stroke="black" stroke-dasharray="1,5" points="1764,-240 1764,-329 2030,-329 2030,-240 1764,-240"/>
<text text-anchor="middle" x="1897" y="-313.8" font-family="Times,serif" font-size="14.00">BtrfsStream::SendCommand::Uuid</text>
</g>
<g id="clust8" class="cluster">
<title>cluster__send_stream_header</title>
<polygon fill="none" stroke="black" stroke-dasharray="1,5" points="356,-368 356,-479 811,-479 811,-368 356,-368"/>
<text text-anchor="middle" x="583.5" y="-463.8" font-family="Times,serif" font-size="14.00">BtrfsStream::SendStreamHeader</text>
</g>
<!-- btrfs_stream__seq -->
<g id="node1" class="node">
<title>btrfs_stream__seq</title>
<polygon fill="#e0ffe0" stroke="transparent" points="24,-353 24,-374 55,-374 55,-353 24,-353"/>
<polygon fill="none" stroke="black" points="24,-353 24,-374 55,-374 55,-353 24,-353"/>
<text text-anchor="start" x="27" y="-359.8" font-family="Times,serif" font-size="14.00">pos</text>
<polygon fill="#e0ffe0" stroke="transparent" points="55,-353 55,-374 89,-374 89,-353 55,-353"/>
<polygon fill="none" stroke="black" points="55,-353 55,-374 89,-374 89,-353 55,-353"/>
<text text-anchor="start" x="58" y="-359.8" font-family="Times,serif" font-size="14.00">size</text>
<polygon fill="#e0ffe0" stroke="transparent" points="89,-353 89,-374 237,-374 237,-353 89,-353"/>
<polygon fill="none" stroke="black" points="89,-353 89,-374 237,-374 237,-353 89,-353"/>
<text text-anchor="start" x="147" y="-359.8" font-family="Times,serif" font-size="14.00">type</text>
<polygon fill="#e0ffe0" stroke="transparent" points="237,-353 237,-374 320,-374 320,-353 237,-353"/>
<polygon fill="none" stroke="black" points="237,-353 237,-374 320,-374 320,-353 237,-353"/>
<text text-anchor="start" x="271.5" y="-359.8" font-family="Times,serif" font-size="14.00">id</text>
<polygon fill="none" stroke="black" points="24,-332 24,-353 55,-353 55,-332 24,-332"/>
<text text-anchor="start" x="34.5" y="-338.8" font-family="Times,serif" font-size="14.00">0</text>
<polygon fill="none" stroke="black" points="55,-332 55,-353 89,-353 89,-332 55,-332"/>
<text text-anchor="start" x="62.5" y="-338.8" font-family="Times,serif" font-size="14.00">17</text>
<polygon fill="none" stroke="black" points="89,-332 89,-353 237,-353 237,-332 89,-332"/>
<text text-anchor="start" x="92" y="-338.8" font-family="Times,serif" font-size="14.00">SendStreamHeader</text>
<polygon fill="none" stroke="black" points="237,-332 237,-353 320,-353 320,-332 237,-332"/>
<text text-anchor="start" x="253.5" y="-338.8" font-family="Times,serif" font-size="14.00">header</text>
<polygon fill="none" stroke="black" points="24,-311 24,-332 55,-332 55,-311 24,-311"/>
<text text-anchor="start" x="30" y="-317.8" font-family="Times,serif" font-size="14.00">17</text>
<polygon fill="none" stroke="black" points="55,-311 55,-332 89,-332 89,-311 55,-311"/>
<text text-anchor="start" x="65" y="-317.8" font-family="Times,serif" font-size="14.00">...</text>
<polygon fill="none" stroke="black" points="89,-311 89,-332 237,-332 237,-311 89,-311"/>
<text text-anchor="start" x="108.5" y="-317.8" font-family="Times,serif" font-size="14.00">SendCommand</text>
<polygon fill="none" stroke="black" points="237,-311 237,-332 320,-332 320,-311 237,-311"/>
<text text-anchor="start" x="240" y="-317.8" font-family="Times,serif" font-size="14.00">commands</text>
<polygon fill="none" stroke="black" points="24,-290 24,-311 320,-311 320,-290 24,-290"/>
<text text-anchor="start" x="87.5" y="-296.8" font-family="Times,serif" font-size="14.00">repeat to end of stream</text>
</g>
<!-- send_command__seq -->
<g id="node2" class="node">
<title>send_command__seq</title>
<polygon fill="#e0ffe0" stroke="transparent" points="435.5,-283 435.5,-304 466.5,-304 466.5,-283 435.5,-283"/>
<polygon fill="none" stroke="black" points="435.5,-283 435.5,-304 466.5,-304 466.5,-283 435.5,-283"/>
<text text-anchor="start" x="438.5" y="-289.8" font-family="Times,serif" font-size="14.00">pos</text>
<polygon fill="#e0ffe0" stroke="transparent" points="466.5,-283 466.5,-304 533.5,-304 533.5,-283 466.5,-283"/>
<polygon fill="none" stroke="black" points="466.5,-283 466.5,-304 533.5,-304 533.5,-283 466.5,-283"/>
<text text-anchor="start" x="486" y="-289.8" font-family="Times,serif" font-size="14.00">size</text>
<polygon fill="#e0ffe0" stroke="transparent" points="533.5,-283 533.5,-304 654.5,-304 654.5,-283 533.5,-283"/>
<polygon fill="none" stroke="black" points="533.5,-283 533.5,-304 654.5,-304 654.5,-283 533.5,-283"/>
<text text-anchor="start" x="578" y="-289.8" font-family="Times,serif" font-size="14.00">type</text>
<polygon fill="#e0ffe0" stroke="transparent" points="654.5,-283 654.5,-304 731.5,-304 731.5,-283 654.5,-283"/>
<polygon fill="none" stroke="black" points="654.5,-283 654.5,-304 731.5,-304 731.5,-283 654.5,-283"/>
<text text-anchor="start" x="686" y="-289.8" font-family="Times,serif" font-size="14.00">id</text>
<polygon fill="none" stroke="black" points="435.5,-262 435.5,-283 466.5,-283 466.5,-262 435.5,-262"/>
<text text-anchor="start" x="446" y="-268.8" font-family="Times,serif" font-size="14.00">0</text>
<polygon fill="none" stroke="black" points="466.5,-262 466.5,-283 533.5,-283 533.5,-262 466.5,-262"/>
<text text-anchor="start" x="495" y="-268.8" font-family="Times,serif" font-size="14.00">4</text>
<polygon fill="none" stroke="black" points="533.5,-262 533.5,-283 654.5,-283 654.5,-262 533.5,-262"/>
<text text-anchor="start" x="578.5" y="-268.8" font-family="Times,serif" font-size="14.00">u4le</text>
<polygon fill="none" stroke="black" points="654.5,-262 654.5,-283 731.5,-283 731.5,-262 654.5,-262"/>
<text text-anchor="start" x="662.5" y="-268.8" font-family="Times,serif" font-size="14.00">len_data</text>
<polygon fill="none" stroke="black" points="435.5,-241 435.5,-262 466.5,-262 466.5,-241 435.5,-241"/>
<text text-anchor="start" x="446" y="-247.8" font-family="Times,serif" font-size="14.00">4</text>
<polygon fill="none" stroke="black" points="466.5,-241 466.5,-262 533.5,-262 533.5,-241 466.5,-241"/>
<text text-anchor="start" x="495" y="-247.8" font-family="Times,serif" font-size="14.00">2</text>
<polygon fill="none" stroke="black" points="533.5,-241 533.5,-262 654.5,-262 654.5,-241 533.5,-241"/>
<text text-anchor="start" x="536.5" y="-247.8" font-family="Times,serif" font-size="14.00">u2le→Command</text>
<polygon fill="none" stroke="black" points="654.5,-241 654.5,-262 731.5,-262 731.5,-241 654.5,-241"/>
<text text-anchor="start" x="677" y="-247.8" font-family="Times,serif" font-size="14.00">type</text>
<polygon fill="none" stroke="black" points="435.5,-220 435.5,-241 466.5,-241 466.5,-220 435.5,-220"/>
<text text-anchor="start" x="446" y="-226.8" font-family="Times,serif" font-size="14.00">6</text>
<polygon fill="none" stroke="black" points="466.5,-220 466.5,-241 533.5,-241 533.5,-220 466.5,-220"/>
<text text-anchor="start" x="495" y="-226.8" font-family="Times,serif" font-size="14.00">4</text>
<polygon fill="none" stroke="black" points="533.5,-220 533.5,-241 654.5,-241 654.5,-220 533.5,-220"/>
<polygon fill="none" stroke="black" points="654.5,-220 654.5,-241 731.5,-241 731.5,-220 654.5,-220"/>
<text text-anchor="start" x="657.5" y="-226.8" font-family="Times,serif" font-size="14.00">checksum</text>
<polygon fill="none" stroke="black" points="435.5,-199 435.5,-220 466.5,-220 466.5,-199 435.5,-199"/>
<text text-anchor="start" x="441.5" y="-205.8" font-family="Times,serif" font-size="14.00">10</text>
<polygon fill="none" stroke="black" points="466.5,-199 466.5,-220 533.5,-220 533.5,-199 466.5,-199"/>
<text text-anchor="start" x="469.5" y="-205.8" font-family="Times,serif" font-size="14.00">len_data</text>
<polygon fill="none" stroke="black" points="533.5,-199 533.5,-220 654.5,-220 654.5,-199 533.5,-199"/>
<text text-anchor="start" x="579" y="-205.8" font-family="Times,serif" font-size="14.00">Tlvs</text>
<polygon fill="none" stroke="black" points="654.5,-199 654.5,-220 731.5,-220 731.5,-199 654.5,-199"/>
<text text-anchor="start" x="677" y="-205.8" font-family="Times,serif" font-size="14.00">data</text>
</g>
<!-- btrfs_stream__seq&#45;&gt;send_command__seq -->
<g id="edge2" class="edge">
<title>btrfs_stream__seq:commands_type&#45;&gt;send_command__seq</title>
<path fill="none" stroke="black" stroke-width="2" d="M321,-321C352.7,-321 385.87,-316.2 417.53,-309.13"/>
<polygon fill="black" stroke="black" stroke-width="2" points="418.35,-312.54 427.3,-306.87 416.77,-305.72 418.35,-312.54"/>
</g>
<!-- send_stream_header__seq -->
<g id="node9" class="node">
<title>send_stream_header__seq</title>
<polygon fill="#e0ffe0" stroke="transparent" points="372.5,-422 372.5,-443 403.5,-443 403.5,-422 372.5,-422"/>
<polygon fill="none" stroke="black" points="372.5,-422 372.5,-443 403.5,-443 403.5,-422 372.5,-422"/>
<text text-anchor="start" x="375.5" y="-428.8" font-family="Times,serif" font-size="14.00">pos</text>
<polygon fill="#e0ffe0" stroke="transparent" points="403.5,-422 403.5,-443 437.5,-443 437.5,-422 403.5,-422"/>
<polygon fill="none" stroke="black" points="403.5,-422 403.5,-443 437.5,-443 437.5,-422 403.5,-422"/>
<text text-anchor="start" x="406.5" y="-428.8" font-family="Times,serif" font-size="14.00">size</text>
<polygon fill="#e0ffe0" stroke="transparent" points="437.5,-422 437.5,-443 736.5,-443 736.5,-422 437.5,-422"/>
<polygon fill="none" stroke="black" points="437.5,-422 437.5,-443 736.5,-443 736.5,-422 437.5,-422"/>
<text text-anchor="start" x="571" y="-428.8" font-family="Times,serif" font-size="14.00">type</text>
<polygon fill="#e0ffe0" stroke="transparent" points="736.5,-422 736.5,-443 795.5,-443 795.5,-422 736.5,-422"/>
<polygon fill="none" stroke="black" points="736.5,-422 736.5,-443 795.5,-443 795.5,-422 736.5,-422"/>
<text text-anchor="start" x="759" y="-428.8" font-family="Times,serif" font-size="14.00">id</text>
<polygon fill="none" stroke="black" points="372.5,-401 372.5,-422 403.5,-422 403.5,-401 372.5,-401"/>
<text text-anchor="start" x="383" y="-407.8" font-family="Times,serif" font-size="14.00">0</text>
<polygon fill="none" stroke="black" points="403.5,-401 403.5,-422 437.5,-422 437.5,-401 403.5,-401"/>
<text text-anchor="start" x="411" y="-407.8" font-family="Times,serif" font-size="14.00">13</text>
<polygon fill="none" stroke="black" points="437.5,-401 437.5,-422 736.5,-422 736.5,-401 437.5,-401"/>
<text text-anchor="start" x="440.5" y="-407.8" font-family="Times,serif" font-size="14.00">62 74 72 66 73 2D 73 74 72 65 61 6D 00</text>
<polygon fill="none" stroke="black" points="736.5,-401 736.5,-422 795.5,-422 795.5,-401 736.5,-401"/>
<text text-anchor="start" x="744.5" y="-407.8" font-family="Times,serif" font-size="14.00">magic</text>
<polygon fill="none" stroke="black" points="372.5,-380 372.5,-401 403.5,-401 403.5,-380 372.5,-380"/>
<text text-anchor="start" x="378.5" y="-386.8" font-family="Times,serif" font-size="14.00">13</text>
<polygon fill="none" stroke="black" points="403.5,-380 403.5,-401 437.5,-401 437.5,-380 403.5,-380"/>
<text text-anchor="start" x="415.5" y="-386.8" font-family="Times,serif" font-size="14.00">4</text>
<polygon fill="none" stroke="black" points="437.5,-380 437.5,-401 736.5,-401 736.5,-380 437.5,-380"/>
<text text-anchor="start" x="571.5" y="-386.8" font-family="Times,serif" font-size="14.00">u4le</text>
<polygon fill="none" stroke="black" points="736.5,-380 736.5,-401 795.5,-401 795.5,-380 736.5,-380"/>
<text text-anchor="start" x="739.5" y="-386.8" font-family="Times,serif" font-size="14.00">version</text>
</g>
<!-- btrfs_stream__seq&#45;&gt;send_stream_header__seq -->
<g id="edge1" class="edge">
<title>btrfs_stream__seq:header_type&#45;&gt;send_stream_header__seq</title>
<path fill="none" stroke="black" stroke-width="2" d="M321,-343C339.14,-343 339.12,-357.36 356,-364 364.45,-367.32 373.17,-370.43 382.05,-373.34"/>
<polygon fill="black" stroke="black" stroke-width="2" points="381.15,-376.73 391.74,-376.42 383.26,-370.05 381.15,-376.73"/>
</g>
<!-- send_command__seq&#45;&gt;send_command__seq -->
<g id="edge3" class="edge">
<title>send_command__seq:len_data_type&#45;&gt;send_command__seq:data_size</title>
<path fill="none" stroke="#404040" d="M727.13,-283.02C788.06,-304.94 765.6,-326.5 596.5,-326.5 432.39,-326.5 406.39,-260.87 460.69,-225.27"/>
<polygon fill="#404040" stroke="#404040" points="462.79,-228.1 469.67,-220.04 459.27,-222.05 462.79,-228.1"/>
</g>
<!-- tlvs__seq -->
<g id="node7" class="node">
<title>tlvs__seq</title>
<polygon fill="#e0ffe0" stroke="transparent" points="889.5,-217 889.5,-238 943.5,-238 943.5,-217 889.5,-217"/>
<polygon fill="none" stroke="black" points="889.5,-217 889.5,-238 943.5,-238 943.5,-217 889.5,-217"/>
<text text-anchor="start" x="904" y="-223.8" font-family="Times,serif" font-size="14.00">pos</text>
<polygon fill="#e0ffe0" stroke="transparent" points="943.5,-217 943.5,-238 989.5,-238 989.5,-217 943.5,-217"/>
<polygon fill="none" stroke="black" points="943.5,-217 943.5,-238 989.5,-238 989.5,-217 943.5,-217"/>
<text text-anchor="start" x="952.5" y="-223.8" font-family="Times,serif" font-size="14.00">size</text>
<polygon fill="#e0ffe0" stroke="transparent" points="989.5,-217 989.5,-238 1033.5,-238 1033.5,-217 989.5,-217"/>
<polygon fill="none" stroke="black" points="989.5,-217 989.5,-238 1033.5,-238 1033.5,-217 989.5,-217"/>
<text text-anchor="start" x="995.5" y="-223.8" font-family="Times,serif" font-size="14.00">type</text>
<polygon fill="#e0ffe0" stroke="transparent" points="1033.5,-217 1033.5,-238 1064.5,-238 1064.5,-217 1033.5,-217"/>
<polygon fill="none" stroke="black" points="1033.5,-217 1033.5,-238 1064.5,-238 1064.5,-217 1033.5,-217"/>
<text text-anchor="start" x="1042" y="-223.8" font-family="Times,serif" font-size="14.00">id</text>
<polygon fill="none" stroke="black" points="889.5,-196 889.5,-217 943.5,-217 943.5,-196 889.5,-196"/>
<text text-anchor="start" x="911.5" y="-202.8" font-family="Times,serif" font-size="14.00">0</text>
<polygon fill="none" stroke="black" points="943.5,-196 943.5,-217 989.5,-217 989.5,-196 943.5,-196"/>
<text text-anchor="start" x="959.5" y="-202.8" font-family="Times,serif" font-size="14.00">...</text>
<polygon fill="none" stroke="black" points="989.5,-196 989.5,-217 1033.5,-217 1033.5,-196 989.5,-196"/>
<text text-anchor="start" x="1000.5" y="-202.8" font-family="Times,serif" font-size="14.00">Tlv</text>
<polygon fill="none" stroke="black" points="1033.5,-196 1033.5,-217 1064.5,-217 1064.5,-196 1033.5,-196"/>
<text text-anchor="start" x="1039.5" y="-202.8" font-family="Times,serif" font-size="14.00">tlv</text>
<polygon fill="none" stroke="black" points="889.5,-175 889.5,-196 1064.5,-196 1064.5,-175 889.5,-175"/>
<text text-anchor="start" x="892.5" y="-181.8" font-family="Times,serif" font-size="14.00">repeat to end of stream</text>
</g>
<!-- send_command__seq&#45;&gt;tlvs__seq -->
<g id="edge4" class="edge">
<title>send_command__seq:data_type&#45;&gt;tlvs__seq</title>
<path fill="none" stroke="black" stroke-width="2" d="M732.5,-209C777.81,-209 827.86,-208.65 870.71,-208.24"/>
<polygon fill="black" stroke="black" stroke-width="2" points="870.91,-211.74 880.87,-208.14 870.84,-204.74 870.91,-211.74"/>
</g>
<!-- string__seq -->
<g id="node3" class="node">
<title>string__seq</title>
<polygon fill="#e0ffe0" stroke="transparent" points="1799.5,-57 1799.5,-78 1830.5,-78 1830.5,-57 1799.5,-57"/>
<polygon fill="none" stroke="black" points="1799.5,-57 1799.5,-78 1830.5,-78 1830.5,-57 1799.5,-57"/>
<text text-anchor="start" x="1802.5" y="-63.8" font-family="Times,serif" font-size="14.00">pos</text>
<polygon fill="#e0ffe0" stroke="transparent" points="1830.5,-57 1830.5,-78 1864.5,-78 1864.5,-57 1830.5,-57"/>
<polygon fill="none" stroke="black" points="1830.5,-57 1830.5,-78 1864.5,-78 1864.5,-57 1830.5,-57"/>
<text text-anchor="start" x="1833.5" y="-63.8" font-family="Times,serif" font-size="14.00">size</text>
<polygon fill="#e0ffe0" stroke="transparent" points="1864.5,-57 1864.5,-78 1945.5,-78 1945.5,-57 1864.5,-57"/>
<polygon fill="none" stroke="black" points="1864.5,-57 1864.5,-78 1945.5,-78 1945.5,-57 1864.5,-57"/>
<text text-anchor="start" x="1889" y="-63.8" font-family="Times,serif" font-size="14.00">type</text>
<polygon fill="#e0ffe0" stroke="transparent" points="1945.5,-57 1945.5,-78 1994.5,-78 1994.5,-57 1945.5,-57"/>
<polygon fill="none" stroke="black" points="1945.5,-57 1945.5,-78 1994.5,-78 1994.5,-57 1945.5,-57"/>
<text text-anchor="start" x="1963" y="-63.8" font-family="Times,serif" font-size="14.00">id</text>
<polygon fill="none" stroke="black" points="1799.5,-36 1799.5,-57 1830.5,-57 1830.5,-36 1799.5,-36"/>
<text text-anchor="start" x="1810" y="-42.8" font-family="Times,serif" font-size="14.00">0</text>
<polygon fill="none" stroke="black" points="1830.5,-36 1830.5,-57 1864.5,-57 1864.5,-36 1830.5,-36"/>
<text text-anchor="start" x="1841" y="-42.8" font-family="Times,serif" font-size="14.00">⇲</text>
<polygon fill="none" stroke="black" points="1864.5,-36 1864.5,-57 1945.5,-57 1945.5,-36 1864.5,-36"/>
<text text-anchor="start" x="1867.5" y="-42.8" font-family="Times,serif" font-size="14.00">str(UTF&#45;8)</text>
<polygon fill="none" stroke="black" points="1945.5,-36 1945.5,-57 1994.5,-57 1994.5,-36 1945.5,-36"/>
<text text-anchor="start" x="1948.5" y="-42.8" font-family="Times,serif" font-size="14.00">string</text>
</g>
<!-- timespec__seq -->
<g id="node4" class="node">
<title>timespec__seq</title>
<polygon fill="#e0ffe0" stroke="transparent" points="1815.5,-175 1815.5,-196 1846.5,-196 1846.5,-175 1815.5,-175"/>
<polygon fill="none" stroke="black" points="1815.5,-175 1815.5,-196 1846.5,-196 1846.5,-175 1815.5,-175"/>
<text text-anchor="start" x="1818.5" y="-181.8" font-family="Times,serif" font-size="14.00">pos</text>
<polygon fill="#e0ffe0" stroke="transparent" points="1846.5,-175 1846.5,-196 1880.5,-196 1880.5,-175 1846.5,-175"/>
<polygon fill="none" stroke="black" points="1846.5,-175 1846.5,-196 1880.5,-196 1880.5,-175 1846.5,-175"/>
<text text-anchor="start" x="1849.5" y="-181.8" font-family="Times,serif" font-size="14.00">size</text>
<polygon fill="#e0ffe0" stroke="transparent" points="1880.5,-175 1880.5,-196 1918.5,-196 1918.5,-175 1880.5,-175"/>
<polygon fill="none" stroke="black" points="1880.5,-175 1880.5,-196 1918.5,-196 1918.5,-175 1880.5,-175"/>
<text text-anchor="start" x="1883.5" y="-181.8" font-family="Times,serif" font-size="14.00">type</text>
<polygon fill="#e0ffe0" stroke="transparent" points="1918.5,-175 1918.5,-196 1977.5,-196 1977.5,-175 1918.5,-175"/>
<polygon fill="none" stroke="black" points="1918.5,-175 1918.5,-196 1977.5,-196 1977.5,-175 1918.5,-175"/>
<text text-anchor="start" x="1941" y="-181.8" font-family="Times,serif" font-size="14.00">id</text>
<polygon fill="none" stroke="black" points="1815.5,-154 1815.5,-175 1846.5,-175 1846.5,-154 1815.5,-154"/>
<text text-anchor="start" x="1826" y="-160.8" font-family="Times,serif" font-size="14.00">0</text>
<polygon fill="none" stroke="black" points="1846.5,-154 1846.5,-175 1880.5,-175 1880.5,-154 1846.5,-154"/>
<text text-anchor="start" x="1858.5" y="-160.8" font-family="Times,serif" font-size="14.00">8</text>
<polygon fill="none" stroke="black" points="1880.5,-154 1880.5,-175 1918.5,-175 1918.5,-154 1880.5,-154"/>
<text text-anchor="start" x="1884.5" y="-160.8" font-family="Times,serif" font-size="14.00">s8le</text>
<polygon fill="none" stroke="black" points="1918.5,-154 1918.5,-175 1977.5,-175 1977.5,-154 1918.5,-154"/>
<text text-anchor="start" x="1926" y="-160.8" font-family="Times,serif" font-size="14.00">ts_sec</text>
<polygon fill="none" stroke="black" points="1815.5,-133 1815.5,-154 1846.5,-154 1846.5,-133 1815.5,-133"/>
<text text-anchor="start" x="1826" y="-139.8" font-family="Times,serif" font-size="14.00">8</text>
<polygon fill="none" stroke="black" points="1846.5,-133 1846.5,-154 1880.5,-154 1880.5,-133 1846.5,-133"/>
<text text-anchor="start" x="1858.5" y="-139.8" font-family="Times,serif" font-size="14.00">4</text>
<polygon fill="none" stroke="black" points="1880.5,-133 1880.5,-154 1918.5,-154 1918.5,-133 1880.5,-133"/>
<text text-anchor="start" x="1884.5" y="-139.8" font-family="Times,serif" font-size="14.00">s4le</text>
<polygon fill="none" stroke="black" points="1918.5,-133 1918.5,-154 1977.5,-154 1977.5,-133 1918.5,-133"/>
<text text-anchor="start" x="1921.5" y="-139.8" font-family="Times,serif" font-size="14.00">ts_nsec</text>
</g>
<!-- tlv__seq -->
<g id="node5" class="node">
<title>tlv__seq</title>
<polygon fill="#e0ffe0" stroke="transparent" points="1159,-219 1159,-240 1190,-240 1190,-219 1159,-219"/>
<polygon fill="none" stroke="black" points="1159,-219 1159,-240 1190,-240 1190,-219 1159,-219"/>
<text text-anchor="start" x="1162" y="-225.8" font-family="Times,serif" font-size="14.00">pos</text>
<polygon fill="#e0ffe0" stroke="transparent" points="1190,-219 1190,-240 1224,-240 1224,-219 1190,-219"/>
<polygon fill="none" stroke="black" points="1190,-219 1190,-240 1224,-240 1224,-219 1190,-219"/>
<text text-anchor="start" x="1193" y="-225.8" font-family="Times,serif" font-size="14.00">size</text>
<polygon fill="#e0ffe0" stroke="transparent" points="1224,-219 1224,-240 1339,-240 1339,-219 1224,-219"/>
<polygon fill="none" stroke="black" points="1224,-219 1224,-240 1339,-240 1339,-219 1224,-219"/>
<text text-anchor="start" x="1265.5" y="-225.8" font-family="Times,serif" font-size="14.00">type</text>
<polygon fill="#e0ffe0" stroke="transparent" points="1339,-219 1339,-240 1391,-240 1391,-219 1339,-219"/>
<polygon fill="none" stroke="black" points="1339,-219 1339,-240 1391,-240 1391,-219 1339,-219"/>
<text text-anchor="start" x="1358" y="-225.8" font-family="Times,serif" font-size="14.00">id</text>
<polygon fill="none" stroke="black" points="1159,-198 1159,-219 1190,-219 1190,-198 1159,-198"/>
<text text-anchor="start" x="1169.5" y="-204.8" font-family="Times,serif" font-size="14.00">0</text>
<polygon fill="none" stroke="black" points="1190,-198 1190,-219 1224,-219 1224,-198 1190,-198"/>
<text text-anchor="start" x="1202" y="-204.8" font-family="Times,serif" font-size="14.00">2</text>
<polygon fill="none" stroke="black" points="1224,-198 1224,-219 1339,-219 1339,-198 1224,-198"/>
<text text-anchor="start" x="1227" y="-204.8" font-family="Times,serif" font-size="14.00">u2le→Attribute</text>
<polygon fill="none" stroke="black" points="1339,-198 1339,-219 1391,-219 1391,-198 1339,-198"/>
<text text-anchor="start" x="1349" y="-204.8" font-family="Times,serif" font-size="14.00">type</text>
<polygon fill="none" stroke="black" points="1159,-177 1159,-198 1190,-198 1190,-177 1159,-177"/>
<text text-anchor="start" x="1169.5" y="-183.8" font-family="Times,serif" font-size="14.00">2</text>
<polygon fill="none" stroke="black" points="1190,-177 1190,-198 1224,-198 1224,-177 1190,-177"/>
<text text-anchor="start" x="1202" y="-183.8" font-family="Times,serif" font-size="14.00">2</text>
<polygon fill="none" stroke="black" points="1224,-177 1224,-198 1339,-198 1339,-177 1224,-177"/>
<text text-anchor="start" x="1266" y="-183.8" font-family="Times,serif" font-size="14.00">u2le</text>
<polygon fill="none" stroke="black" points="1339,-177 1339,-198 1391,-198 1391,-177 1339,-177"/>
<text text-anchor="start" x="1342" y="-183.8" font-family="Times,serif" font-size="14.00">length</text>
<polygon fill="none" stroke="black" points="1159,-156 1159,-177 1190,-177 1190,-156 1159,-156"/>
<text text-anchor="start" x="1169.5" y="-162.8" font-family="Times,serif" font-size="14.00">4</text>
<polygon fill="none" stroke="black" points="1190,-156 1190,-177 1224,-177 1224,-156 1190,-156"/>
<text text-anchor="start" x="1200" y="-162.8" font-family="Times,serif" font-size="14.00">...</text>
<polygon fill="none" stroke="black" points="1224,-156 1224,-177 1339,-177 1339,-156 1224,-156"/>
<text text-anchor="start" x="1234.5" y="-162.8" font-family="Times,serif" font-size="14.00">switch (type)</text>
<polygon fill="none" stroke="black" points="1339,-156 1339,-177 1391,-177 1391,-156 1339,-156"/>
<text text-anchor="start" x="1345.5" y="-162.8" font-family="Times,serif" font-size="14.00">value</text>
</g>
<!-- tlv__seq&#45;&gt;tlv__seq -->
<g id="edge17" class="edge">
<title>tlv__seq:type_type&#45;&gt;tlv__seq:value_type</title>
<path fill="none" stroke="#404040" d="M1338.78,-218.63C1294.95,-238.72 1303.69,-262 1365,-262 1422.89,-262 1433.91,-213.06 1398.06,-183.1"/>
<polygon fill="#404040" stroke="#404040" points="1399.85,-180.07 1389.7,-177.02 1395.73,-185.73 1399.85,-180.07"/>
</g>
<!-- tlv__seq_value_switch -->
<g id="node6" class="node">
<title>tlv__seq_value_switch</title>
<polygon fill="#f0f2e4" stroke="transparent" points="1443.5,-267 1443.5,-288 1606.5,-288 1606.5,-267 1443.5,-267"/>
<polygon fill="none" stroke="black" points="1443.5,-267 1443.5,-288 1606.5,-288 1606.5,-267 1443.5,-267"/>
<text text-anchor="start" x="1509" y="-273.8" font-family="Times,serif" font-size="14.00">case</text>
<polygon fill="#f0f2e4" stroke="transparent" points="1606.5,-267 1606.5,-288 1680.5,-288 1680.5,-267 1606.5,-267"/>
<polygon fill="none" stroke="black" points="1606.5,-267 1606.5,-288 1680.5,-288 1680.5,-267 1606.5,-267"/>
<text text-anchor="start" x="1627.5" y="-273.8" font-family="Times,serif" font-size="14.00">type</text>
<polygon fill="none" stroke="black" points="1443.5,-246 1443.5,-267 1606.5,-267 1606.5,-246 1443.5,-246"/>
<text text-anchor="start" x="1467" y="-252.8" font-family="Times,serif" font-size="14.00">:attribute_atime</text>
<polygon fill="none" stroke="black" points="1606.5,-246 1606.5,-267 1680.5,-267 1680.5,-246 1606.5,-246"/>
<text text-anchor="start" x="1609.5" y="-252.8" font-family="Times,serif" font-size="14.00">Timespec</text>
<polygon fill="none" stroke="black" points="1443.5,-225 1443.5,-246 1606.5,-246 1606.5,-225 1443.5,-225"/>
<text text-anchor="start" x="1449" y="-231.8" font-family="Times,serif" font-size="14.00">:attribute_clone_path</text>
<polygon fill="none" stroke="black" points="1606.5,-225 1606.5,-246 1680.5,-246 1680.5,-225 1606.5,-225"/>
<text text-anchor="start" x="1620.5" y="-231.8" font-family="Times,serif" font-size="14.00">String</text>
<polygon fill="none" stroke="black" points="1443.5,-204 1443.5,-225 1606.5,-225 1606.5,-204 1443.5,-204"/>
<text text-anchor="start" x="1449.5" y="-210.8" font-family="Times,serif" font-size="14.00">:attribute_clone_uuid</text>
<polygon fill="none" stroke="black" points="1606.5,-204 1606.5,-225 1680.5,-225 1680.5,-204 1606.5,-204"/>
<text text-anchor="start" x="1626" y="-210.8" font-family="Times,serif" font-size="14.00">Uuid</text>
<polygon fill="none" stroke="black" points="1443.5,-183 1443.5,-204 1606.5,-204 1606.5,-183 1443.5,-183"/>
<text text-anchor="start" x="1467.5" y="-189.8" font-family="Times,serif" font-size="14.00">:attribute_ctime</text>
<polygon fill="none" stroke="black" points="1606.5,-183 1606.5,-204 1680.5,-204 1680.5,-183 1606.5,-183"/>
<text text-anchor="start" x="1609.5" y="-189.8" font-family="Times,serif" font-size="14.00">Timespec</text>
<polygon fill="none" stroke="black" points="1443.5,-162 1443.5,-183 1606.5,-183 1606.5,-162 1443.5,-162"/>
<text text-anchor="start" x="1464.5" y="-168.8" font-family="Times,serif" font-size="14.00">:attribute_mtime</text>
<polygon fill="none" stroke="black" points="1606.5,-162 1606.5,-183 1680.5,-183 1680.5,-162 1606.5,-162"/>
<text text-anchor="start" x="1609.5" y="-168.8" font-family="Times,serif" font-size="14.00">Timespec</text>
<polygon fill="none" stroke="black" points="1443.5,-141 1443.5,-162 1606.5,-162 1606.5,-141 1443.5,-141"/>
<text text-anchor="start" x="1467" y="-147.8" font-family="Times,serif" font-size="14.00">:attribute_otime</text>
<polygon fill="none" stroke="black" points="1606.5,-141 1606.5,-162 1680.5,-162 1680.5,-141 1606.5,-141"/>
<text text-anchor="start" x="1609.5" y="-147.8" font-family="Times,serif" font-size="14.00">Timespec</text>
<polygon fill="none" stroke="black" points="1443.5,-120 1443.5,-141 1606.5,-141 1606.5,-120 1443.5,-120"/>
<text text-anchor="start" x="1471" y="-126.8" font-family="Times,serif" font-size="14.00">:attribute_path</text>
<polygon fill="none" stroke="black" points="1606.5,-120 1606.5,-141 1680.5,-141 1680.5,-120 1606.5,-120"/>
<text text-anchor="start" x="1620.5" y="-126.8" font-family="Times,serif" font-size="14.00">String</text>
<polygon fill="none" stroke="black" points="1443.5,-99 1443.5,-120 1606.5,-120 1606.5,-99 1443.5,-99"/>
<text text-anchor="start" x="1454.5" y="-105.8" font-family="Times,serif" font-size="14.00">:attribute_path_link</text>
<polygon fill="none" stroke="black" points="1606.5,-99 1606.5,-120 1680.5,-120 1680.5,-99 1606.5,-99"/>
<text text-anchor="start" x="1620.5" y="-105.8" font-family="Times,serif" font-size="14.00">String</text>
<polygon fill="none" stroke="black" points="1443.5,-78 1443.5,-99 1606.5,-99 1606.5,-78 1443.5,-78"/>
<text text-anchor="start" x="1460.5" y="-84.8" font-family="Times,serif" font-size="14.00">:attribute_path_to</text>
<polygon fill="none" stroke="black" points="1606.5,-78 1606.5,-99 1680.5,-99 1680.5,-78 1606.5,-78"/>
<text text-anchor="start" x="1620.5" y="-84.8" font-family="Times,serif" font-size="14.00">String</text>
<polygon fill="none" stroke="black" points="1443.5,-57 1443.5,-78 1606.5,-78 1606.5,-57 1443.5,-57"/>
<text text-anchor="start" x="1471.5" y="-63.8" font-family="Times,serif" font-size="14.00">:attribute_uuid</text>
<polygon fill="none" stroke="black" points="1606.5,-57 1606.5,-78 1680.5,-78 1680.5,-57 1606.5,-57"/>
<text text-anchor="start" x="1626" y="-63.8" font-family="Times,serif" font-size="14.00">Uuid</text>
<polygon fill="none" stroke="black" points="1443.5,-36 1443.5,-57 1606.5,-57 1606.5,-36 1443.5,-36"/>
<text text-anchor="start" x="1446.5" y="-42.8" font-family="Times,serif" font-size="14.00">:attribute_xattr_name</text>
<polygon fill="none" stroke="black" points="1606.5,-36 1606.5,-57 1680.5,-57 1680.5,-36 1606.5,-36"/>
<text text-anchor="start" x="1620.5" y="-42.8" font-family="Times,serif" font-size="14.00">String</text>
</g>
<!-- tlv__seq&#45;&gt;tlv__seq_value_switch -->
<g id="edge5" class="edge">
<title>tlv__seq:value_type&#45;&gt;tlv__seq_value_switch</title>
<path fill="none" stroke="black" stroke-width="2" d="M1392,-166C1402.64,-166 1413.66,-165.92 1424.73,-165.78"/>
<polygon fill="black" stroke="black" stroke-width="2" points="1424.96,-169.28 1434.91,-165.64 1424.86,-162.28 1424.96,-169.28"/>
</g>
<!-- tlv__seq_value_switch&#45;&gt;string__seq -->
<g id="edge7" class="edge">
<title>tlv__seq_value_switch:case1&#45;&gt;string__seq</title>
<path fill="none" stroke="black" stroke-width="2" d="M1681.5,-236C1741.98,-236 1702.22,-157.1 1747.5,-117 1761.73,-104.4 1778.95,-94.24 1796.54,-86.13"/>
<polygon fill="black" stroke="black" stroke-width="2" points="1798.02,-89.3 1805.76,-82.07 1795.2,-82.9 1798.02,-89.3"/>
</g>
<!-- tlv__seq_value_switch&#45;&gt;string__seq -->
<g id="edge12" class="edge">
<title>tlv__seq_value_switch:case6&#45;&gt;string__seq</title>
<path fill="none" stroke="black" stroke-width="2" d="M1681.5,-130C1710.19,-130 1775.87,-106.21 1826.95,-85.79"/>
<polygon fill="black" stroke="black" stroke-width="2" points="1828.34,-89 1836.31,-82.02 1825.73,-82.51 1828.34,-89"/>
</g>
<!-- tlv__seq_value_switch&#45;&gt;string__seq -->
<g id="edge13" class="edge">
<title>tlv__seq_value_switch:case7&#45;&gt;string__seq</title>
<path fill="none" stroke="black" stroke-width="2" d="M1681.5,-109C1727.77,-109 1778.12,-97.38 1818.35,-85.12"/>
<polygon fill="black" stroke="black" stroke-width="2" points="1819.58,-88.41 1828.09,-82.09 1817.5,-81.72 1819.58,-88.41"/>
</g>
<!-- tlv__seq_value_switch&#45;&gt;string__seq -->
<g id="edge14" class="edge">
<title>tlv__seq_value_switch:case8&#45;&gt;string__seq</title>
<path fill="none" stroke="black" stroke-width="2" d="M1681.5,-88C1713.85,-88 1748.67,-84.49 1780.63,-79.83"/>
<polygon fill="black" stroke="black" stroke-width="2" points="1781.53,-83.23 1790.9,-78.28 1780.49,-76.31 1781.53,-83.23"/>
</g>
<!-- tlv__seq_value_switch&#45;&gt;string__seq -->
<g id="edge16" class="edge">
<title>tlv__seq_value_switch:case10&#45;&gt;string__seq</title>
<path fill="none" stroke="black" stroke-width="2" d="M1681.5,-46C1713.64,-46 1748.46,-47.25 1780.5,-48.91"/>
<polygon fill="black" stroke="black" stroke-width="2" points="1780.62,-52.42 1790.79,-49.47 1780.99,-45.43 1780.62,-52.42"/>
</g>
<!-- tlv__seq_value_switch&#45;&gt;timespec__seq -->
<g id="edge6" class="edge">
<title>tlv__seq_value_switch:case0&#45;&gt;timespec__seq</title>
<path fill="none" stroke="black" stroke-width="2" d="M1681.5,-257C1695.6,-257 1757.82,-229.71 1811.57,-204.85"/>
<polygon fill="black" stroke="black" stroke-width="2" points="1813.2,-207.95 1820.8,-200.57 1810.25,-201.6 1813.2,-207.95"/>
</g>
<!-- tlv__seq_value_switch&#45;&gt;timespec__seq -->
<g id="edge9" class="edge">
<title>tlv__seq_value_switch:case3&#45;&gt;timespec__seq</title>
<path fill="none" stroke="black" stroke-width="2" d="M1681.5,-194C1719.54,-194 1761.04,-189.44 1797.29,-183.94"/>
<polygon fill="black" stroke="black" stroke-width="2" points="1798.02,-187.37 1807.36,-182.37 1796.94,-180.46 1798.02,-187.37"/>
</g>
<!-- tlv__seq_value_switch&#45;&gt;timespec__seq -->
<g id="edge10" class="edge">
<title>tlv__seq_value_switch:case4&#45;&gt;timespec__seq</title>
<path fill="none" stroke="black" stroke-width="2" d="M1681.5,-173C1719.31,-173 1760.84,-171.74 1797.18,-170.22"/>
<polygon fill="black" stroke="black" stroke-width="2" points="1797.45,-173.71 1807.29,-169.78 1797.15,-166.71 1797.45,-173.71"/>
</g>
<!-- tlv__seq_value_switch&#45;&gt;timespec__seq -->
<g id="edge11" class="edge">
<title>tlv__seq_value_switch:case5&#45;&gt;timespec__seq</title>
<path fill="none" stroke="black" stroke-width="2" d="M1681.5,-151C1719.36,-151 1760.91,-153.21 1797.24,-155.87"/>
<polygon fill="black" stroke="black" stroke-width="2" points="1797.11,-159.37 1807.34,-156.63 1797.64,-152.39 1797.11,-159.37"/>
</g>
<!-- uuid__seq -->
<g id="node8" class="node">
<title>uuid__seq</title>
<polygon fill="#e0ffe0" stroke="transparent" points="1826.5,-273 1826.5,-294 1857.5,-294 1857.5,-273 1826.5,-273"/>
<polygon fill="none" stroke="black" points="1826.5,-273 1826.5,-294 1857.5,-294 1857.5,-273 1826.5,-273"/>
<text text-anchor="start" x="1829.5" y="-279.8" font-family="Times,serif" font-size="14.00">pos</text>
<polygon fill="#e0ffe0" stroke="transparent" points="1857.5,-273 1857.5,-294 1891.5,-294 1891.5,-273 1857.5,-273"/>
<polygon fill="none" stroke="black" points="1857.5,-273 1857.5,-294 1891.5,-294 1891.5,-273 1857.5,-273"/>
<text text-anchor="start" x="1860.5" y="-279.8" font-family="Times,serif" font-size="14.00">size</text>
<polygon fill="#e0ffe0" stroke="transparent" points="1891.5,-273 1891.5,-294 1929.5,-294 1929.5,-273 1891.5,-273"/>
<polygon fill="none" stroke="black" points="1891.5,-273 1891.5,-294 1929.5,-294 1929.5,-273 1891.5,-273"/>
<text text-anchor="start" x="1894.5" y="-279.8" font-family="Times,serif" font-size="14.00">type</text>
<polygon fill="#e0ffe0" stroke="transparent" points="1929.5,-273 1929.5,-294 1967.5,-294 1967.5,-273 1929.5,-273"/>
<polygon fill="none" stroke="black" points="1929.5,-273 1929.5,-294 1967.5,-294 1967.5,-273 1929.5,-273"/>
<text text-anchor="start" x="1941.5" y="-279.8" font-family="Times,serif" font-size="14.00">id</text>
<polygon fill="none" stroke="black" points="1826.5,-252 1826.5,-273 1857.5,-273 1857.5,-252 1826.5,-252"/>
<text text-anchor="start" x="1837" y="-258.8" font-family="Times,serif" font-size="14.00">0</text>
<polygon fill="none" stroke="black" points="1857.5,-252 1857.5,-273 1891.5,-273 1891.5,-252 1857.5,-252"/>
<text text-anchor="start" x="1865" y="-258.8" font-family="Times,serif" font-size="14.00">16</text>
<polygon fill="none" stroke="black" points="1891.5,-252 1891.5,-273 1929.5,-273 1929.5,-252 1891.5,-252"/>
<polygon fill="none" stroke="black" points="1929.5,-252 1929.5,-273 1967.5,-273 1967.5,-252 1929.5,-252"/>
<text text-anchor="start" x="1932.5" y="-258.8" font-family="Times,serif" font-size="14.00">uuid</text>
</g>
<!-- tlv__seq_value_switch&#45;&gt;uuid__seq -->
<g id="edge8" class="edge">
<title>tlv__seq_value_switch:case2&#45;&gt;uuid__seq</title>
<path fill="none" stroke="black" stroke-width="2" d="M1681.5,-215C1712.28,-215 1717.89,-227.6 1747.5,-236 1766.9,-241.51 1787.85,-247.01 1807.71,-252.02"/>
<polygon fill="black" stroke="black" stroke-width="2" points="1807.13,-255.48 1817.68,-254.52 1808.83,-248.69 1807.13,-255.48"/>
</g>
<!-- tlv__seq_value_switch&#45;&gt;uuid__seq -->
<g id="edge15" class="edge">
<title>tlv__seq_value_switch:case9&#45;&gt;uuid__seq</title>
<path fill="none" stroke="black" stroke-width="2" d="M1681.5,-67C1762.14,-67 1686.97,-182.73 1747.5,-236 1764.31,-250.79 1786.16,-259.85 1807.89,-265.35"/>
<polygon fill="black" stroke="black" stroke-width="2" points="1807.31,-268.81 1817.84,-267.63 1808.88,-261.99 1807.31,-268.81"/>
</g>
<!-- tlvs__seq&#45;&gt;tlv__seq -->
<g id="edge18" class="edge">
<title>tlvs__seq:tlv_type&#45;&gt;tlv__seq</title>
<path fill="none" stroke="black" stroke-width="2" d="M1065.5,-206C1089.78,-206 1115.63,-205.45 1140.57,-204.64"/>
<polygon fill="black" stroke="black" stroke-width="2" points="1140.95,-208.13 1150.83,-204.29 1140.71,-201.14 1140.95,-208.13"/>
</g>
</g>
</svg>
