<?xml version="1.0" encoding="UTF-8" standalone="no"?>
<!DOCTYPE svg PUBLIC "-//W3C//DTD SVG 1.1//EN"
 "http://www.w3.org/Graphics/SVG/1.1/DTD/svg11.dtd">
<!-- Generated by graphviz version 2.38.0 (20140413.2041)
 -->
<!-- Title: %3 Pages: 1 -->
<svg width="1385pt" height="296pt"
 viewBox="0.00 0.00 1385.00 296.00" xmlns="http://www.w3.org/2000/svg" xmlns:xlink="http://www.w3.org/1999/xlink">
<g id="graph0" class="graph" transform="scale(1 1) rotate(0) translate(4 292)">
<title>%3</title>
<polygon fill="white" stroke="none" points="-4,4 -4,-292 1381,-292 1381,4 -4,4"/>
<g id="clust1" class="cluster"><title>cluster__heroes_of_might_and_magic_agg</title>
<polygon fill="none" stroke="black" stroke-dasharray="1,5" points="102,-8 102,-280 1377,-280 1377,-8 102,-8"/>
<text text-anchor="middle" x="739.5" y="-264.8" font-family="Times,serif" font-size="14.00">HeroesOfMightAndMagicAgg</text>
</g>
<g id="clust2" class="cluster"><title>cluster__entry</title>
<polygon fill="none" stroke="black" stroke-dasharray="1,5" points="342,-16 342,-169 886,-169 886,-16 342,-16"/>
<text text-anchor="middle" x="614" y="-153.8" font-family="Times,serif" font-size="14.00">HeroesOfMightAndMagicAgg::Entry</text>
</g>
<g id="clust3" class="cluster"><title>cluster__filename</title>
<polygon fill="none" stroke="black" stroke-dasharray="1,5" points="1064,-160 1064,-249 1369,-249 1369,-160 1064,-160"/>
<text text-anchor="middle" x="1216.5" y="-233.8" font-family="Times,serif" font-size="14.00">HeroesOfMightAndMagicAgg::Filename</text>
</g>
<!-- heroes_of_might_and_magic_agg__seq -->
<g id="node1" class="node"><title>heroes_of_might_and_magic_agg__seq</title>
<polygon fill="#e0ffe0" stroke="none" points="118,-153 118,-174 149,-174 149,-153 118,-153"/>
<polygon fill="none" stroke="black" points="118,-153 118,-174 149,-174 149,-153 118,-153"/>
<text text-anchor="start" x="121" y="-159.8" font-family="Times,serif" font-size="14.00">pos</text>
<polygon fill="#e0ffe0" stroke="none" points="149,-153 149,-174 183,-174 183,-153 149,-153"/>
<polygon fill="none" stroke="black" points="149,-153 149,-174 183,-174 183,-153 149,-153"/>
<text text-anchor="start" x="152" y="-159.8" font-family="Times,serif" font-size="14.00">size</text>
<polygon fill="#e0ffe0" stroke="none" points="183,-153 183,-174 230,-174 230,-153 183,-153"/>
<polygon fill="none" stroke="black" points="183,-153 183,-174 230,-174 230,-153 183,-153"/>
<text text-anchor="start" x="190.5" y="-159.8" font-family="Times,serif" font-size="14.00">type</text>
<polygon fill="#e0ffe0" stroke="none" points="230,-153 230,-174 306,-174 306,-153 230,-153"/>
<polygon fill="none" stroke="black" points="230,-153 230,-174 306,-174 306,-153 230,-153"/>
<text text-anchor="start" x="261" y="-159.8" font-family="Times,serif" font-size="14.00">id</text>
<polygon fill="none" stroke="black" points="118,-132 118,-153 149,-153 149,-132 118,-132"/>
<text text-anchor="start" x="128.5" y="-138.8" font-family="Times,serif" font-size="14.00">0</text>
<polygon fill="none" stroke="black" points="149,-132 149,-153 183,-153 183,-132 149,-132"/>
<text text-anchor="start" x="161" y="-138.8" font-family="Times,serif" font-size="14.00">2</text>
<polygon fill="none" stroke="black" points="183,-132 183,-153 230,-153 230,-132 183,-132"/>
<text text-anchor="start" x="191" y="-138.8" font-family="Times,serif" font-size="14.00">u2le</text>
<polygon fill="none" stroke="black" points="230,-132 230,-153 306,-153 306,-132 230,-132"/>
<text text-anchor="start" x="233" y="-138.8" font-family="Times,serif" font-size="14.00">num_files</text>
<polygon fill="none" stroke="black" points="118,-111 118,-132 149,-132 149,-111 118,-111"/>
<text text-anchor="start" x="128.5" y="-117.8" font-family="Times,serif" font-size="14.00">2</text>
<polygon fill="none" stroke="black" points="149,-111 149,-132 183,-132 183,-111 149,-111"/>
<text text-anchor="start" x="156.5" y="-117.8" font-family="Times,serif" font-size="14.00">14</text>
<polygon fill="none" stroke="black" points="183,-111 183,-132 230,-132 230,-111 183,-111"/>
<text text-anchor="start" x="186" y="-117.8" font-family="Times,serif" font-size="14.00">Entry</text>
<polygon fill="none" stroke="black" points="230,-111 230,-132 306,-132 306,-111 230,-111"/>
<text text-anchor="start" x="242.5" y="-117.8" font-family="Times,serif" font-size="14.00">entries</text>
<polygon fill="none" stroke="black" points="118,-90 118,-111 306,-111 306,-90 118,-90"/>
<text text-anchor="start" x="129.5" y="-96.8" font-family="Times,serif" font-size="14.00">repeat num_files times</text>
</g>
<!-- heroes_of_might_and_magic_agg__seq&#45;&gt;heroes_of_might_and_magic_agg__seq -->
<g id="edge2" class="edge"><title>heroes_of_might_and_magic_agg__seq:num_files_type&#45;&gt;heroes_of_might_and_magic_agg__seq:entries__repeat</title>
<path fill="none" stroke="#404040" d="M229.81,-146.308C143.755,-151.346 0,-147.532 0,-121.5 0,-103.096 51.4614,-95.7969 107.805,-94.8798"/>
<polygon fill="#404040" stroke="#404040" points="108.031,-98.3779 117.997,-94.7826 107.964,-91.3782 108.031,-98.3779"/>
</g>
<!-- heroes_of_might_and_magic_agg__inst__filenames -->
<g id="node2" class="node"><title>heroes_of_might_and_magic_agg__inst__filenames</title>
<polygon fill="#e0ffe0" stroke="none" points="560,-223 560,-244 837,-244 837,-223 560,-223"/>
<polygon fill="none" stroke="black" points="560,-223 560,-244 837,-244 837,-223 560,-223"/>
<text text-anchor="start" x="686" y="-229.8" font-family="Times,serif" font-size="14.00">pos</text>
<polygon fill="#e0ffe0" stroke="none" points="837,-223 837,-244 871,-244 871,-223 837,-223"/>
<polygon fill="none" stroke="black" points="837,-223 837,-244 871,-244 871,-223 837,-223"/>
<text text-anchor="start" x="840" y="-229.8" font-family="Times,serif" font-size="14.00">size</text>
<polygon fill="#e0ffe0" stroke="none" points="871,-223 871,-244 944,-244 944,-223 871,-223"/>
<polygon fill="none" stroke="black" points="871,-223 871,-244 944,-244 944,-223 871,-223"/>
<text text-anchor="start" x="891.5" y="-229.8" font-family="Times,serif" font-size="14.00">type</text>
<polygon fill="#e0ffe0" stroke="none" points="944,-223 944,-244 1020,-244 1020,-223 944,-223"/>
<polygon fill="none" stroke="black" points="944,-223 944,-244 1020,-244 1020,-223 944,-223"/>
<text text-anchor="start" x="975" y="-229.8" font-family="Times,serif" font-size="14.00">id</text>
<polygon fill="none" stroke="black" points="560,-202 560,-223 837,-223 837,-202 560,-202"/>
<text text-anchor="start" x="563" y="-208.8" font-family="Times,serif" font-size="14.00">(entries.last.offset + entries.last.size)</text>
<polygon fill="none" stroke="black" points="837,-202 837,-223 871,-223 871,-202 837,-202"/>
<text text-anchor="start" x="844.5" y="-208.8" font-family="Times,serif" font-size="14.00">15</text>
<polygon fill="none" stroke="black" points="871,-202 871,-223 944,-223 944,-202 871,-202"/>
<text text-anchor="start" x="874" y="-208.8" font-family="Times,serif" font-size="14.00">Filename</text>
<polygon fill="none" stroke="black" points="944,-202 944,-223 1020,-223 1020,-202 944,-202"/>
<text text-anchor="start" x="947" y="-208.8" font-family="Times,serif" font-size="14.00">filenames</text>
<polygon fill="none" stroke="black" points="560,-181 560,-202 1020,-202 1020,-181 560,-181"/>
<text text-anchor="start" x="707.5" y="-187.8" font-family="Times,serif" font-size="14.00">repeat num_files times</text>
</g>
<!-- heroes_of_might_and_magic_agg__seq&#45;&gt;heroes_of_might_and_magic_agg__inst__filenames -->
<g id="edge6" class="edge"><title>heroes_of_might_and_magic_agg__seq:num_files_type&#45;&gt;heroes_of_might_and_magic_agg__inst__filenames:filenames__repeat</title>
<path fill="none" stroke="#404040" d="M307,-143C327.488,-143 323.095,-165.103 342,-173 428.071,-208.954 459.913,-192.321 548.762,-191.072"/>
<polygon fill="#404040" stroke="#404040" points="549.025,-194.57 559,-191 548.976,-187.571 549.025,-194.57"/>
</g>
<!-- entry__seq -->
<g id="node3" class="node"><title>entry__seq</title>
<polygon fill="#e0ffe0" stroke="none" points="358,-112 358,-133 389,-133 389,-112 358,-112"/>
<polygon fill="none" stroke="black" points="358,-112 358,-133 389,-133 389,-112 358,-112"/>
<text text-anchor="start" x="361" y="-118.8" font-family="Times,serif" font-size="14.00">pos</text>
<polygon fill="#e0ffe0" stroke="none" points="389,-112 389,-133 423,-133 423,-112 389,-112"/>
<polygon fill="none" stroke="black" points="389,-112 389,-133 423,-133 423,-112 389,-112"/>
<text text-anchor="start" x="392" y="-118.8" font-family="Times,serif" font-size="14.00">size</text>
<polygon fill="#e0ffe0" stroke="none" points="423,-112 423,-133 461,-133 461,-112 423,-112"/>
<polygon fill="none" stroke="black" points="423,-112 423,-133 461,-133 461,-112 423,-112"/>
<text text-anchor="start" x="426" y="-118.8" font-family="Times,serif" font-size="14.00">type</text>
<polygon fill="#e0ffe0" stroke="none" points="461,-112 461,-133 508,-133 508,-112 461,-112"/>
<polygon fill="none" stroke="black" points="461,-112 461,-133 508,-133 508,-112 461,-112"/>
<text text-anchor="start" x="477.5" y="-118.8" font-family="Times,serif" font-size="14.00">id</text>
<polygon fill="none" stroke="black" points="358,-91 358,-112 389,-112 389,-91 358,-91"/>
<text text-anchor="start" x="368.5" y="-97.8" font-family="Times,serif" font-size="14.00">0</text>
<polygon fill="none" stroke="black" points="389,-91 389,-112 423,-112 423,-91 389,-91"/>
<text text-anchor="start" x="401" y="-97.8" font-family="Times,serif" font-size="14.00">2</text>
<polygon fill="none" stroke="black" points="423,-91 423,-112 461,-112 461,-91 423,-91"/>
<text text-anchor="start" x="426.5" y="-97.8" font-family="Times,serif" font-size="14.00">u2le</text>
<polygon fill="none" stroke="black" points="461,-91 461,-112 508,-112 508,-91 461,-91"/>
<text text-anchor="start" x="467.5" y="-97.8" font-family="Times,serif" font-size="14.00">hash</text>
<polygon fill="none" stroke="black" points="358,-70 358,-91 389,-91 389,-70 358,-70"/>
<text text-anchor="start" x="368.5" y="-76.8" font-family="Times,serif" font-size="14.00">2</text>
<polygon fill="none" stroke="black" points="389,-70 389,-91 423,-91 423,-70 389,-70"/>
<text text-anchor="start" x="401" y="-76.8" font-family="Times,serif" font-size="14.00">4</text>
<polygon fill="none" stroke="black" points="423,-70 423,-91 461,-91 461,-70 423,-70"/>
<text text-anchor="start" x="426.5" y="-76.8" font-family="Times,serif" font-size="14.00">u4le</text>
<polygon fill="none" stroke="black" points="461,-70 461,-91 508,-91 508,-70 461,-70"/>
<text text-anchor="start" x="464" y="-76.8" font-family="Times,serif" font-size="14.00">offset</text>
<polygon fill="none" stroke="black" points="358,-49 358,-70 389,-70 389,-49 358,-49"/>
<text text-anchor="start" x="368.5" y="-55.8" font-family="Times,serif" font-size="14.00">6</text>
<polygon fill="none" stroke="black" points="389,-49 389,-70 423,-70 423,-49 389,-49"/>
<text text-anchor="start" x="401" y="-55.8" font-family="Times,serif" font-size="14.00">4</text>
<polygon fill="none" stroke="black" points="423,-49 423,-70 461,-70 461,-49 423,-49"/>
<text text-anchor="start" x="426.5" y="-55.8" font-family="Times,serif" font-size="14.00">u4le</text>
<polygon fill="none" stroke="black" points="461,-49 461,-70 508,-70 508,-49 461,-49"/>
<text text-anchor="start" x="470.5" y="-55.8" font-family="Times,serif" font-size="14.00">size</text>
<polygon fill="none" stroke="black" points="358,-28 358,-49 389,-49 389,-28 358,-28"/>
<text text-anchor="start" x="364" y="-34.8" font-family="Times,serif" font-size="14.00">10</text>
<polygon fill="none" stroke="black" points="389,-28 389,-49 423,-49 423,-28 389,-28"/>
<text text-anchor="start" x="401" y="-34.8" font-family="Times,serif" font-size="14.00">4</text>
<polygon fill="none" stroke="black" points="423,-28 423,-49 461,-49 461,-28 423,-28"/>
<text text-anchor="start" x="426.5" y="-34.8" font-family="Times,serif" font-size="14.00">u4le</text>
<polygon fill="none" stroke="black" points="461,-28 461,-49 508,-49 508,-28 461,-28"/>
<text text-anchor="start" x="466" y="-34.8" font-family="Times,serif" font-size="14.00">size2</text>
</g>
<!-- heroes_of_might_and_magic_agg__seq&#45;&gt;entry__seq -->
<g id="edge1" class="edge"><title>heroes_of_might_and_magic_agg__seq:entries_type&#45;&gt;entry__seq</title>
<path fill="none" stroke="black" stroke-width="2" d="M307,-121C317.816,-121 328.919,-119.625 339.83,-117.384"/>
<polygon fill="black" stroke="black" stroke-width="2" points="340.82,-120.748 349.783,-115.098 339.253,-113.926 340.82,-120.748"/>
</g>
<!-- filename__seq -->
<g id="node5" class="node"><title>filename__seq</title>
<polygon fill="#e0ffe0" stroke="none" points="1130.5,-193 1130.5,-214 1161.5,-214 1161.5,-193 1130.5,-193"/>
<polygon fill="none" stroke="black" points="1130.5,-193 1130.5,-214 1161.5,-214 1161.5,-193 1130.5,-193"/>
<text text-anchor="start" x="1133.5" y="-199.8" font-family="Times,serif" font-size="14.00">pos</text>
<polygon fill="#e0ffe0" stroke="none" points="1161.5,-193 1161.5,-214 1195.5,-214 1195.5,-193 1161.5,-193"/>
<polygon fill="none" stroke="black" points="1161.5,-193 1161.5,-214 1195.5,-214 1195.5,-193 1161.5,-193"/>
<text text-anchor="start" x="1164.5" y="-199.8" font-family="Times,serif" font-size="14.00">size</text>
<polygon fill="#e0ffe0" stroke="none" points="1195.5,-193 1195.5,-214 1276.5,-214 1276.5,-193 1195.5,-193"/>
<polygon fill="none" stroke="black" points="1195.5,-193 1195.5,-214 1276.5,-214 1276.5,-193 1195.5,-193"/>
<text text-anchor="start" x="1220" y="-199.8" font-family="Times,serif" font-size="14.00">type</text>
<polygon fill="#e0ffe0" stroke="none" points="1276.5,-193 1276.5,-214 1303.5,-214 1303.5,-193 1276.5,-193"/>
<polygon fill="none" stroke="black" points="1276.5,-193 1276.5,-214 1303.5,-214 1303.5,-193 1276.5,-193"/>
<text text-anchor="start" x="1283" y="-199.8" font-family="Times,serif" font-size="14.00">id</text>
<polygon fill="none" stroke="black" points="1130.5,-172 1130.5,-193 1161.5,-193 1161.5,-172 1130.5,-172"/>
<text text-anchor="start" x="1141" y="-178.8" font-family="Times,serif" font-size="14.00">0</text>
<polygon fill="none" stroke="black" points="1161.5,-172 1161.5,-193 1195.5,-193 1195.5,-172 1161.5,-172"/>
<text text-anchor="start" x="1171.5" y="-178.8" font-family="Times,serif" font-size="14.00">...</text>
<polygon fill="none" stroke="black" points="1195.5,-172 1195.5,-193 1276.5,-193 1276.5,-172 1195.5,-172"/>
<text text-anchor="start" x="1198.5" y="-178.8" font-family="Times,serif" font-size="14.00">str(ASCII)</text>
<polygon fill="none" stroke="black" points="1276.5,-172 1276.5,-193 1303.5,-193 1303.5,-172 1276.5,-172"/>
<text text-anchor="start" x="1279.5" y="-178.8" font-family="Times,serif" font-size="14.00">str</text>
</g>
<!-- heroes_of_might_and_magic_agg__inst__filenames&#45;&gt;filename__seq -->
<g id="edge5" class="edge"><title>heroes_of_might_and_magic_agg__inst__filenames:filenames_type&#45;&gt;filename__seq</title>
<path fill="none" stroke="black" stroke-width="2" d="M1021,-212C1050.44,-212 1082.27,-209.817 1111.48,-206.931"/>
<polygon fill="black" stroke="black" stroke-width="2" points="1112.11,-210.386 1121.7,-205.884 1111.39,-203.422 1112.11,-210.386"/>
</g>
<!-- entry__seq&#45;&gt;heroes_of_might_and_magic_agg__inst__filenames -->
<g id="edge3" class="edge"><title>entry__seq:offset_type&#45;&gt;heroes_of_might_and_magic_agg__inst__filenames:filenames_pos</title>
<path fill="none" stroke="#404040" d="M509,-80C567.936,-80 504.898,-196.5 549.063,-210.607"/>
<polygon fill="#404040" stroke="#404040" points="548.611,-214.078 559,-212 549.583,-207.145 548.611,-214.078"/>
</g>
<!-- entry__seq&#45;&gt;heroes_of_might_and_magic_agg__inst__filenames -->
<g id="edge4" class="edge"><title>entry__seq:size_type&#45;&gt;heroes_of_might_and_magic_agg__inst__filenames:filenames_pos</title>
<path fill="none" stroke="#404040" d="M509,-59C576.766,-59 496.82,-196.289 549.007,-210.768"/>
<polygon fill="#404040" stroke="#404040" points="548.647,-214.25 559,-212 549.503,-207.303 548.647,-214.25"/>
</g>
<!-- entry__inst__body -->
<g id="node4" class="node"><title>entry__inst__body</title>
<polygon fill="#e0ffe0" stroke="none" points="710,-80 710,-101 757,-101 757,-80 710,-80"/>
<polygon fill="none" stroke="black" points="710,-80 710,-101 757,-101 757,-80 710,-80"/>
<text text-anchor="start" x="721" y="-86.8" font-family="Times,serif" font-size="14.00">pos</text>
<polygon fill="#e0ffe0" stroke="none" points="757,-80 757,-101 791,-101 791,-80 757,-80"/>
<polygon fill="none" stroke="black" points="757,-80 757,-101 791,-101 791,-80 757,-80"/>
<text text-anchor="start" x="760" y="-86.8" font-family="Times,serif" font-size="14.00">size</text>
<polygon fill="#e0ffe0" stroke="none" points="791,-80 791,-101 829,-101 829,-80 791,-80"/>
<polygon fill="none" stroke="black" points="791,-80 791,-101 829,-101 829,-80 791,-80"/>
<text text-anchor="start" x="794" y="-86.8" font-family="Times,serif" font-size="14.00">type</text>
<polygon fill="#e0ffe0" stroke="none" points="829,-80 829,-101 870,-101 870,-80 829,-80"/>
<polygon fill="none" stroke="black" points="829,-80 829,-101 870,-101 870,-80 829,-80"/>
<text text-anchor="start" x="842.5" y="-86.8" font-family="Times,serif" font-size="14.00">id</text>
<polygon fill="none" stroke="black" points="710,-59 710,-80 757,-80 757,-59 710,-59"/>
<text text-anchor="start" x="713" y="-65.8" font-family="Times,serif" font-size="14.00">offset</text>
<polygon fill="none" stroke="black" points="757,-59 757,-80 791,-80 791,-59 757,-59"/>
<text text-anchor="start" x="760" y="-65.8" font-family="Times,serif" font-size="14.00">size</text>
<polygon fill="none" stroke="black" points="791,-59 791,-80 829,-80 829,-59 791,-59"/>
<polygon fill="none" stroke="black" points="829,-59 829,-80 870,-80 870,-59 829,-59"/>
<text text-anchor="start" x="832" y="-65.8" font-family="Times,serif" font-size="14.00">body</text>
</g>
<!-- entry__seq&#45;&gt;entry__inst__body -->
<g id="edge7" class="edge"><title>entry__seq:offset_type&#45;&gt;entry__inst__body:body_pos</title>
<path fill="none" stroke="#404040" d="M509,-80C594.546,-80 618.159,-69.8426 698.867,-69.049"/>
<polygon fill="#404040" stroke="#404040" points="699.017,-72.5485 709,-69 698.983,-65.5485 699.017,-72.5485"/>
</g>
<!-- entry__seq&#45;&gt;entry__inst__body -->
<g id="edge8" class="edge"><title>entry__seq:size_type&#45;&gt;entry__inst__body:body_size</title>
<path fill="none" stroke="#404040" d="M509,-59C623.213,-59 765.113,52.6958 773.6,-47.9439"/>
<polygon fill="#404040" stroke="#404040" points="770.105,-48.147 774,-58 777.1,-47.8688 770.105,-48.147"/>
</g>
</g>
</svg>
