<?xml version="1.0" encoding="UTF-8" standalone="no"?>
<!DOCTYPE svg PUBLIC "-//W3C//DTD SVG 1.1//EN"
 "http://www.w3.org/Graphics/SVG/1.1/DTD/svg11.dtd">
<!-- Generated by graphviz version 2.43.0 (0)
 -->
<!-- Title: %3 Pages: 1 -->
<svg width="1376pt" height="296pt"
 viewBox="0.00 0.00 1376.00 296.00" xmlns="http://www.w3.org/2000/svg" xmlns:xlink="http://www.w3.org/1999/xlink">
<g id="graph0" class="graph" transform="scale(1 1) rotate(0) translate(4 292)">
<title>%3</title>
<polygon fill="white" stroke="transparent" points="-4,4 -4,-292 1372,-292 1372,4 -4,4"/>
<g id="clust1" class="cluster">
<title>cluster__heroes_of_might_and_magic_agg</title>
<polygon fill="none" stroke="black" stroke-dasharray="1,5" points="101,-8 101,-280 1368,-280 1368,-8 101,-8"/>
<text text-anchor="middle" x="734.5" y="-264.8" font-family="Times,serif" font-size="14.00">HeroesOfMightAndMagicAgg</text>
</g>
<g id="clust2" class="cluster">
<title>cluster__entry</title>
<polygon fill="none" stroke="black" stroke-dasharray="1,5" points="339,-16 339,-169 881,-169 881,-16 339,-16"/>
<text text-anchor="middle" x="610" y="-153.8" font-family="Times,serif" font-size="14.00">HeroesOfMightAndMagicAgg::Entry</text>
</g>
<g id="clust3" class="cluster">
<title>cluster__filename</title>
<polygon fill="none" stroke="black" stroke-dasharray="1,5" points="1059,-160 1059,-249 1360,-249 1360,-160 1059,-160"/>
<text text-anchor="middle" x="1209.5" y="-233.8" font-family="Times,serif" font-size="14.00">HeroesOfMightAndMagicAgg::Filename</text>
</g>
<!-- heroes_of_might_and_magic_agg__seq -->
<g id="node1" class="node">
<title>heroes_of_might_and_magic_agg__seq</title>
<polygon fill="#e0ffe0" stroke="transparent" points="117,-153 117,-174 148,-174 148,-153 117,-153"/>
<polygon fill="none" stroke="black" points="117,-153 117,-174 148,-174 148,-153 117,-153"/>
<text text-anchor="start" x="120" y="-159.8" font-family="Times,serif" font-size="14.00">pos</text>
<polygon fill="#e0ffe0" stroke="transparent" points="148,-153 148,-174 182,-174 182,-153 148,-153"/>
<polygon fill="none" stroke="black" points="148,-153 148,-174 182,-174 182,-153 148,-153"/>
<text text-anchor="start" x="151" y="-159.8" font-family="Times,serif" font-size="14.00">size</text>
<polygon fill="#e0ffe0" stroke="transparent" points="182,-153 182,-174 229,-174 229,-153 182,-153"/>
<polygon fill="none" stroke="black" points="182,-153 182,-174 229,-174 229,-153 182,-153"/>
<text text-anchor="start" x="189.5" y="-159.8" font-family="Times,serif" font-size="14.00">type</text>
<polygon fill="#e0ffe0" stroke="transparent" points="229,-153 229,-174 303,-174 303,-153 229,-153"/>
<polygon fill="none" stroke="black" points="229,-153 229,-174 303,-174 303,-153 229,-153"/>
<text text-anchor="start" x="259" y="-159.8" font-family="Times,serif" font-size="14.00">id</text>
<polygon fill="none" stroke="black" points="117,-132 117,-153 148,-153 148,-132 117,-132"/>
<text text-anchor="start" x="127.5" y="-138.8" font-family="Times,serif" font-size="14.00">0</text>
<polygon fill="none" stroke="black" points="148,-132 148,-153 182,-153 182,-132 148,-132"/>
<text text-anchor="start" x="160" y="-138.8" font-family="Times,serif" font-size="14.00">2</text>
<polygon fill="none" stroke="black" points="182,-132 182,-153 229,-153 229,-132 182,-132"/>
<text text-anchor="start" x="190" y="-138.8" font-family="Times,serif" font-size="14.00">u2le</text>
<polygon fill="none" stroke="black" points="229,-132 229,-153 303,-153 303,-132 229,-132"/>
<text text-anchor="start" x="232" y="-138.8" font-family="Times,serif" font-size="14.00">num_files</text>
<polygon fill="none" stroke="black" points="117,-111 117,-132 148,-132 148,-111 117,-111"/>
<text text-anchor="start" x="127.5" y="-117.8" font-family="Times,serif" font-size="14.00">2</text>
<polygon fill="none" stroke="black" points="148,-111 148,-132 182,-132 182,-111 148,-111"/>
<text text-anchor="start" x="155.5" y="-117.8" font-family="Times,serif" font-size="14.00">14</text>
<polygon fill="none" stroke="black" points="182,-111 182,-132 229,-132 229,-111 182,-111"/>
<text text-anchor="start" x="185" y="-117.8" font-family="Times,serif" font-size="14.00">Entry</text>
<polygon fill="none" stroke="black" points="229,-111 229,-132 303,-132 303,-111 229,-111"/>
<text text-anchor="start" x="240.5" y="-117.8" font-family="Times,serif" font-size="14.00">entries</text>
<polygon fill="none" stroke="black" points="117,-90 117,-111 303,-111 303,-90 117,-90"/>
<text text-anchor="start" x="128.5" y="-96.8" font-family="Times,serif" font-size="14.00">repeat num_files times</text>
</g>
<!-- heroes_of_might_and_magic_agg__seq&#45;&gt;heroes_of_might_and_magic_agg__seq -->
<g id="edge2" class="edge">
<title>heroes_of_might_and_magic_agg__seq:num_files_type&#45;&gt;heroes_of_might_and_magic_agg__seq:entries__repeat</title>
<path fill="none" stroke="#404040" d="M228.72,-146.27C143.44,-151.36 0,-147.59 0,-121.5 0,-103.1 50.98,-95.8 106.79,-94.88"/>
<polygon fill="#404040" stroke="#404040" points="106.92,-98.38 116.88,-94.78 106.85,-91.38 106.92,-98.38"/>
</g>
<!-- heroes_of_might_and_magic_agg__inst__filenames -->
<g id="node2" class="node">
<title>heroes_of_might_and_magic_agg__inst__filenames</title>
<polygon fill="#e0ffe0" stroke="transparent" points="556.5,-223 556.5,-244 833.5,-244 833.5,-223 556.5,-223"/>
<polygon fill="none" stroke="black" points="556.5,-223 556.5,-244 833.5,-244 833.5,-223 556.5,-223"/>
<text text-anchor="start" x="682.5" y="-229.8" font-family="Times,serif" font-size="14.00">pos</text>
<polygon fill="#e0ffe0" stroke="transparent" points="833.5,-223 833.5,-244 867.5,-244 867.5,-223 833.5,-223"/>
<polygon fill="none" stroke="black" points="833.5,-223 833.5,-244 867.5,-244 867.5,-223 833.5,-223"/>
<text text-anchor="start" x="836.5" y="-229.8" font-family="Times,serif" font-size="14.00">size</text>
<polygon fill="#e0ffe0" stroke="transparent" points="867.5,-223 867.5,-244 940.5,-244 940.5,-223 867.5,-223"/>
<polygon fill="none" stroke="black" points="867.5,-223 867.5,-244 940.5,-244 940.5,-223 867.5,-223"/>
<text text-anchor="start" x="888" y="-229.8" font-family="Times,serif" font-size="14.00">type</text>
<polygon fill="#e0ffe0" stroke="transparent" points="940.5,-223 940.5,-244 1015.5,-244 1015.5,-223 940.5,-223"/>
<polygon fill="none" stroke="black" points="940.5,-223 940.5,-244 1015.5,-244 1015.5,-223 940.5,-223"/>
<text text-anchor="start" x="971" y="-229.8" font-family="Times,serif" font-size="14.00">id</text>
<polygon fill="none" stroke="black" points="556.5,-202 556.5,-223 833.5,-223 833.5,-202 556.5,-202"/>
<text text-anchor="start" x="559.5" y="-208.8" font-family="Times,serif" font-size="14.00">(entries.last.offset + entries.last.size)</text>
<polygon fill="none" stroke="black" points="833.5,-202 833.5,-223 867.5,-223 867.5,-202 833.5,-202"/>
<text text-anchor="start" x="841" y="-208.8" font-family="Times,serif" font-size="14.00">15</text>
<polygon fill="none" stroke="black" points="867.5,-202 867.5,-223 940.5,-223 940.5,-202 867.5,-202"/>
<text text-anchor="start" x="870.5" y="-208.8" font-family="Times,serif" font-size="14.00">Filename</text>
<polygon fill="none" stroke="black" points="940.5,-202 940.5,-223 1015.5,-223 1015.5,-202 940.5,-202"/>
<text text-anchor="start" x="943.5" y="-208.8" font-family="Times,serif" font-size="14.00">filenames</text>
<polygon fill="none" stroke="black" points="556.5,-181 556.5,-202 1015.5,-202 1015.5,-181 556.5,-181"/>
<text text-anchor="start" x="704.5" y="-187.8" font-family="Times,serif" font-size="14.00">repeat num_files times</text>
</g>
<!-- heroes_of_might_and_magic_agg__seq&#45;&gt;heroes_of_might_and_magic_agg__inst__filenames -->
<g id="edge6" class="edge">
<title>heroes_of_might_and_magic_agg__seq:num_files_type&#45;&gt;heroes_of_might_and_magic_agg__inst__filenames:filenames__repeat</title>
<path fill="none" stroke="#404040" d="M304,-143C324.49,-143 320.1,-165.1 339,-173 424.87,-208.88 456.64,-192.32 545.29,-191.07"/>
<polygon fill="#404040" stroke="#404040" points="545.52,-194.57 555.5,-191 545.48,-187.57 545.52,-194.57"/>
</g>
<!-- entry__seq -->
<g id="node3" class="node">
<title>entry__seq</title>
<polygon fill="#e0ffe0" stroke="transparent" points="355.5,-112 355.5,-133 386.5,-133 386.5,-112 355.5,-112"/>
<polygon fill="none" stroke="black" points="355.5,-112 355.5,-133 386.5,-133 386.5,-112 355.5,-112"/>
<text text-anchor="start" x="358.5" y="-118.8" font-family="Times,serif" font-size="14.00">pos</text>
<polygon fill="#e0ffe0" stroke="transparent" points="386.5,-112 386.5,-133 420.5,-133 420.5,-112 386.5,-112"/>
<polygon fill="none" stroke="black" points="386.5,-112 386.5,-133 420.5,-133 420.5,-112 386.5,-112"/>
<text text-anchor="start" x="389.5" y="-118.8" font-family="Times,serif" font-size="14.00">size</text>
<polygon fill="#e0ffe0" stroke="transparent" points="420.5,-112 420.5,-133 458.5,-133 458.5,-112 420.5,-112"/>
<polygon fill="none" stroke="black" points="420.5,-112 420.5,-133 458.5,-133 458.5,-112 420.5,-112"/>
<text text-anchor="start" x="423.5" y="-118.8" font-family="Times,serif" font-size="14.00">type</text>
<polygon fill="#e0ffe0" stroke="transparent" points="458.5,-112 458.5,-133 504.5,-133 504.5,-112 458.5,-112"/>
<polygon fill="none" stroke="black" points="458.5,-112 458.5,-133 504.5,-133 504.5,-112 458.5,-112"/>
<text text-anchor="start" x="474.5" y="-118.8" font-family="Times,serif" font-size="14.00">id</text>
<polygon fill="none" stroke="black" points="355.5,-91 355.5,-112 386.5,-112 386.5,-91 355.5,-91"/>
<text text-anchor="start" x="366" y="-97.8" font-family="Times,serif" font-size="14.00">0</text>
<polygon fill="none" stroke="black" points="386.5,-91 386.5,-112 420.5,-112 420.5,-91 386.5,-91"/>
<text text-anchor="start" x="398.5" y="-97.8" font-family="Times,serif" font-size="14.00">2</text>
<polygon fill="none" stroke="black" points="420.5,-91 420.5,-112 458.5,-112 458.5,-91 420.5,-91"/>
<text text-anchor="start" x="424" y="-97.8" font-family="Times,serif" font-size="14.00">u2le</text>
<polygon fill="none" stroke="black" points="458.5,-91 458.5,-112 504.5,-112 504.5,-91 458.5,-91"/>
<text text-anchor="start" x="464.5" y="-97.8" font-family="Times,serif" font-size="14.00">hash</text>
<polygon fill="none" stroke="black" points="355.5,-70 355.5,-91 386.5,-91 386.5,-70 355.5,-70"/>
<text text-anchor="start" x="366" y="-76.8" font-family="Times,serif" font-size="14.00">2</text>
<polygon fill="none" stroke="black" points="386.5,-70 386.5,-91 420.5,-91 420.5,-70 386.5,-70"/>
<text text-anchor="start" x="398.5" y="-76.8" font-family="Times,serif" font-size="14.00">4</text>
<polygon fill="none" stroke="black" points="420.5,-70 420.5,-91 458.5,-91 458.5,-70 420.5,-70"/>
<text text-anchor="start" x="424" y="-76.8" font-family="Times,serif" font-size="14.00">u4le</text>
<polygon fill="none" stroke="black" points="458.5,-70 458.5,-91 504.5,-91 504.5,-70 458.5,-70"/>
<text text-anchor="start" x="461.5" y="-76.8" font-family="Times,serif" font-size="14.00">offset</text>
<polygon fill="none" stroke="black" points="355.5,-49 355.5,-70 386.5,-70 386.5,-49 355.5,-49"/>
<text text-anchor="start" x="366" y="-55.8" font-family="Times,serif" font-size="14.00">6</text>
<polygon fill="none" stroke="black" points="386.5,-49 386.5,-70 420.5,-70 420.5,-49 386.5,-49"/>
<text text-anchor="start" x="398.5" y="-55.8" font-family="Times,serif" font-size="14.00">4</text>
<polygon fill="none" stroke="black" points="420.5,-49 420.5,-70 458.5,-70 458.5,-49 420.5,-49"/>
<text text-anchor="start" x="424" y="-55.8" font-family="Times,serif" font-size="14.00">u4le</text>
<polygon fill="none" stroke="black" points="458.5,-49 458.5,-70 504.5,-70 504.5,-49 458.5,-49"/>
<text text-anchor="start" x="467.5" y="-55.8" font-family="Times,serif" font-size="14.00">size</text>
<polygon fill="none" stroke="black" points="355.5,-28 355.5,-49 386.5,-49 386.5,-28 355.5,-28"/>
<text text-anchor="start" x="361.5" y="-34.8" font-family="Times,serif" font-size="14.00">10</text>
<polygon fill="none" stroke="black" points="386.5,-28 386.5,-49 420.5,-49 420.5,-28 386.5,-28"/>
<text text-anchor="start" x="398.5" y="-34.8" font-family="Times,serif" font-size="14.00">4</text>
<polygon fill="none" stroke="black" points="420.5,-28 420.5,-49 458.5,-49 458.5,-28 420.5,-28"/>
<text text-anchor="start" x="424" y="-34.8" font-family="Times,serif" font-size="14.00">u4le</text>
<polygon fill="none" stroke="black" points="458.5,-28 458.5,-49 504.5,-49 504.5,-28 458.5,-28"/>
<text text-anchor="start" x="463" y="-34.8" font-family="Times,serif" font-size="14.00">size2</text>
</g>
<!-- heroes_of_might_and_magic_agg__seq&#45;&gt;entry__seq -->
<g id="edge1" class="edge">
<title>heroes_of_might_and_magic_agg__seq:entries_type&#45;&gt;entry__seq</title>
<path fill="none" stroke="black" stroke-width="2" d="M304,-121C314.86,-121 326.02,-119.6 336.97,-117.33"/>
<polygon fill="black" stroke="black" stroke-width="2" points="338.01,-120.68 346.96,-115.01 336.43,-113.86 338.01,-120.68"/>
</g>
<!-- filename__seq -->
<g id="node5" class="node">
<title>filename__seq</title>
<polygon fill="#e0ffe0" stroke="transparent" points="1124,-193 1124,-214 1155,-214 1155,-193 1124,-193"/>
<polygon fill="none" stroke="black" points="1124,-193 1124,-214 1155,-214 1155,-193 1124,-193"/>
<text text-anchor="start" x="1127" y="-199.8" font-family="Times,serif" font-size="14.00">pos</text>
<polygon fill="#e0ffe0" stroke="transparent" points="1155,-193 1155,-214 1189,-214 1189,-193 1155,-193"/>
<polygon fill="none" stroke="black" points="1155,-193 1155,-214 1189,-214 1189,-193 1155,-193"/>
<text text-anchor="start" x="1158" y="-199.8" font-family="Times,serif" font-size="14.00">size</text>
<polygon fill="#e0ffe0" stroke="transparent" points="1189,-193 1189,-214 1267,-214 1267,-193 1189,-193"/>
<polygon fill="none" stroke="black" points="1189,-193 1189,-214 1267,-214 1267,-193 1189,-193"/>
<text text-anchor="start" x="1212" y="-199.8" font-family="Times,serif" font-size="14.00">type</text>
<polygon fill="#e0ffe0" stroke="transparent" points="1267,-193 1267,-214 1294,-214 1294,-193 1267,-193"/>
<polygon fill="none" stroke="black" points="1267,-193 1267,-214 1294,-214 1294,-193 1267,-193"/>
<text text-anchor="start" x="1273.5" y="-199.8" font-family="Times,serif" font-size="14.00">id</text>
<polygon fill="none" stroke="black" points="1124,-172 1124,-193 1155,-193 1155,-172 1124,-172"/>
<text text-anchor="start" x="1134.5" y="-178.8" font-family="Times,serif" font-size="14.00">0</text>
<polygon fill="none" stroke="black" points="1155,-172 1155,-193 1189,-193 1189,-172 1155,-172"/>
<text text-anchor="start" x="1165" y="-178.8" font-family="Times,serif" font-size="14.00">...</text>
<polygon fill="none" stroke="black" points="1189,-172 1189,-193 1267,-193 1267,-172 1189,-172"/>
<text text-anchor="start" x="1192" y="-178.8" font-family="Times,serif" font-size="14.00">str(ASCII)</text>
<polygon fill="none" stroke="black" points="1267,-172 1267,-193 1294,-193 1294,-172 1267,-172"/>
<text text-anchor="start" x="1270" y="-178.8" font-family="Times,serif" font-size="14.00">str</text>
</g>
<!-- heroes_of_might_and_magic_agg__inst__filenames&#45;&gt;filename__seq -->
<g id="edge5" class="edge">
<title>heroes_of_might_and_magic_agg__inst__filenames:filenames_type&#45;&gt;filename__seq</title>
<path fill="none" stroke="black" stroke-width="2" d="M1016.5,-212C1045.49,-212 1076.83,-209.82 1105.59,-206.93"/>
<polygon fill="black" stroke="black" stroke-width="2" points="1106.07,-210.4 1115.65,-205.88 1105.34,-203.44 1106.07,-210.4"/>
</g>
<!-- entry__seq&#45;&gt;heroes_of_might_and_magic_agg__inst__filenames -->
<g id="edge3" class="edge">
<title>entry__seq:offset_type&#45;&gt;heroes_of_might_and_magic_agg__inst__filenames:filenames_pos</title>
<path fill="none" stroke="#404040" d="M505.5,-80C564.44,-80 501.4,-196.5 545.56,-210.61"/>
<polygon fill="#404040" stroke="#404040" points="545.11,-214.08 555.5,-212 546.08,-207.15 545.11,-214.08"/>
</g>
<!-- entry__seq&#45;&gt;heroes_of_might_and_magic_agg__inst__filenames -->
<g id="edge4" class="edge">
<title>entry__seq:size_type&#45;&gt;heroes_of_might_and_magic_agg__inst__filenames:filenames_pos</title>
<path fill="none" stroke="#404040" d="M505.5,-59C573.27,-59 493.32,-196.29 545.51,-210.77"/>
<polygon fill="#404040" stroke="#404040" points="545.15,-214.25 555.5,-212 546,-207.3 545.15,-214.25"/>
</g>
<!-- entry__inst__body -->
<g id="node4" class="node">
<title>entry__inst__body</title>
<polygon fill="#e0ffe0" stroke="transparent" points="706.5,-80 706.5,-101 752.5,-101 752.5,-80 706.5,-80"/>
<polygon fill="none" stroke="black" points="706.5,-80 706.5,-101 752.5,-101 752.5,-80 706.5,-80"/>
<text text-anchor="start" x="717" y="-86.8" font-family="Times,serif" font-size="14.00">pos</text>
<polygon fill="#e0ffe0" stroke="transparent" points="752.5,-80 752.5,-101 786.5,-101 786.5,-80 752.5,-80"/>
<polygon fill="none" stroke="black" points="752.5,-80 752.5,-101 786.5,-101 786.5,-80 752.5,-80"/>
<text text-anchor="start" x="755.5" y="-86.8" font-family="Times,serif" font-size="14.00">size</text>
<polygon fill="#e0ffe0" stroke="transparent" points="786.5,-80 786.5,-101 824.5,-101 824.5,-80 786.5,-80"/>
<polygon fill="none" stroke="black" points="786.5,-80 786.5,-101 824.5,-101 824.5,-80 786.5,-80"/>
<text text-anchor="start" x="789.5" y="-86.8" font-family="Times,serif" font-size="14.00">type</text>
<polygon fill="#e0ffe0" stroke="transparent" points="824.5,-80 824.5,-101 865.5,-101 865.5,-80 824.5,-80"/>
<polygon fill="none" stroke="black" points="824.5,-80 824.5,-101 865.5,-101 865.5,-80 824.5,-80"/>
<text text-anchor="start" x="838" y="-86.8" font-family="Times,serif" font-size="14.00">id</text>
<polygon fill="none" stroke="black" points="706.5,-59 706.5,-80 752.5,-80 752.5,-59 706.5,-59"/>
<text text-anchor="start" x="709.5" y="-65.8" font-family="Times,serif" font-size="14.00">offset</text>
<polygon fill="none" stroke="black" points="752.5,-59 752.5,-80 786.5,-80 786.5,-59 752.5,-59"/>
<text text-anchor="start" x="755.5" y="-65.8" font-family="Times,serif" font-size="14.00">size</text>
<polygon fill="none" stroke="black" points="786.5,-59 786.5,-80 824.5,-80 824.5,-59 786.5,-59"/>
<polygon fill="none" stroke="black" points="824.5,-59 824.5,-80 865.5,-80 865.5,-59 824.5,-59"/>
<text text-anchor="start" x="827.5" y="-65.8" font-family="Times,serif" font-size="14.00">body</text>
</g>
<!-- entry__seq&#45;&gt;entry__inst__body -->
<g id="edge7" class="edge">
<title>entry__seq:offset_type&#45;&gt;entry__inst__body:body_pos</title>
<path fill="none" stroke="#404040" d="M505.5,-80C591.05,-80 614.66,-69.84 695.37,-69.05"/>
<polygon fill="#404040" stroke="#404040" points="695.52,-72.55 705.5,-69 695.48,-65.55 695.52,-72.55"/>
</g>
<!-- entry__seq&#45;&gt;entry__inst__body -->
<g id="edge8" class="edge">
<title>entry__seq:size_type&#45;&gt;entry__inst__body:body_size</title>
<path fill="none" stroke="#404040" d="M505.5,-59C619.28,-59 760.65,52.28 769.1,-47.98"/>
<polygon fill="#404040" stroke="#404040" points="765.61,-48.15 769.5,-58 772.6,-47.87 765.61,-48.15"/>
</g>
</g>
</svg>
