<?xml version="1.0" encoding="UTF-8" standalone="no"?>
<!DOCTYPE svg PUBLIC "-//W3C//DTD SVG 1.1//EN"
 "http://www.w3.org/Graphics/SVG/1.1/DTD/svg11.dtd">
<!-- Generated by graphviz version 2.43.0 (0)
 -->
<!-- Title: %3 Pages: 1 -->
<svg width="2141pt" height="487pt"
 viewBox="0.00 0.00 2141.00 486.88" xmlns="http://www.w3.org/2000/svg" xmlns:xlink="http://www.w3.org/1999/xlink">
<g id="graph0" class="graph" transform="scale(1 1) rotate(0) translate(4 482.88)">
<title>%3</title>
<polygon fill="white" stroke="transparent" points="-4,4 -4,-482.88 2137,-482.88 2137,4 -4,4"/>
<g id="clust1" class="cluster">
<title>cluster__tsm</title>
<polygon fill="none" stroke="black" stroke-dasharray="1,5" points="8,-60.88 8,-470.88 2133,-470.88 2133,-60.88 8,-60.88"/>
<text text-anchor="middle" x="1070.5" y="-455.68" font-family="Times,serif" font-size="14.00">Tsm</text>
</g>
<g id="clust2" class="cluster">
<title>cluster__header</title>
<polygon fill="none" stroke="black" stroke-dasharray="1,5" points="277,-328.88 277,-439.88 471,-439.88 471,-328.88 277,-328.88"/>
<text text-anchor="middle" x="374" y="-424.68" font-family="Times,serif" font-size="14.00">Tsm::Header</text>
</g>
<g id="clust3" class="cluster">
<title>cluster__index</title>
<polygon fill="none" stroke="black" stroke-dasharray="1,5" points="281.5,-68.88 281.5,-320.88 2125,-320.88 2125,-68.88 281.5,-68.88"/>
<text text-anchor="middle" x="1203.25" y="-305.68" font-family="Times,serif" font-size="14.00">Tsm::Index</text>
</g>
<g id="clust4" class="cluster">
<title>cluster__index_header</title>
<polygon fill="none" stroke="black" stroke-dasharray="1,5" points="805,-76.88 805,-289.88 2117,-289.88 2117,-76.88 805,-76.88"/>
<text text-anchor="middle" x="1461" y="-274.68" font-family="Times,serif" font-size="14.00">Tsm::Index::IndexHeader</text>
</g>
<g id="clust5" class="cluster">
<title>cluster__index_entry</title>
<polygon fill="none" stroke="black" stroke-dasharray="1,5" points="1138,-84.88 1138,-237.88 2109,-237.88 2109,-84.88 1138,-84.88"/>
<text text-anchor="middle" x="1623.5" y="-222.68" font-family="Times,serif" font-size="14.00">Tsm::Index::IndexHeader::IndexEntry</text>
</g>
<g id="clust6" class="cluster">
<title>cluster__block_entry</title>
<polygon fill="none" stroke="black" stroke-dasharray="1,5" points="1727,-93.88 1727,-204.88 2101,-204.88 2101,-93.88 1727,-93.88"/>
<text text-anchor="middle" x="1914" y="-189.68" font-family="Times,serif" font-size="14.00">Tsm::Index::IndexHeader::IndexEntry::BlockEntry</text>
</g>
<!-- tsm__seq -->
<g id="node1" class="node">
<title>tsm__seq</title>
<polygon fill="#e0ffe0" stroke="transparent" points="42.5,-383.88 42.5,-404.88 73.5,-404.88 73.5,-383.88 42.5,-383.88"/>
<polygon fill="none" stroke="black" points="42.5,-383.88 42.5,-404.88 73.5,-404.88 73.5,-383.88 42.5,-383.88"/>
<text text-anchor="start" x="45.5" y="-390.68" font-family="Times,serif" font-size="14.00">pos</text>
<polygon fill="#e0ffe0" stroke="transparent" points="73.5,-383.88 73.5,-404.88 107.5,-404.88 107.5,-383.88 73.5,-383.88"/>
<polygon fill="none" stroke="black" points="73.5,-383.88 73.5,-404.88 107.5,-404.88 107.5,-383.88 73.5,-383.88"/>
<text text-anchor="start" x="76.5" y="-390.68" font-family="Times,serif" font-size="14.00">size</text>
<polygon fill="#e0ffe0" stroke="transparent" points="107.5,-383.88 107.5,-404.88 166.5,-404.88 166.5,-383.88 107.5,-383.88"/>
<polygon fill="none" stroke="black" points="107.5,-383.88 107.5,-404.88 166.5,-404.88 166.5,-383.88 107.5,-383.88"/>
<text text-anchor="start" x="121" y="-390.68" font-family="Times,serif" font-size="14.00">type</text>
<polygon fill="#e0ffe0" stroke="transparent" points="166.5,-383.88 166.5,-404.88 222.5,-404.88 222.5,-383.88 166.5,-383.88"/>
<polygon fill="none" stroke="black" points="166.5,-383.88 166.5,-404.88 222.5,-404.88 222.5,-383.88 166.5,-383.88"/>
<text text-anchor="start" x="187.5" y="-390.68" font-family="Times,serif" font-size="14.00">id</text>
<polygon fill="none" stroke="black" points="42.5,-362.88 42.5,-383.88 73.5,-383.88 73.5,-362.88 42.5,-362.88"/>
<text text-anchor="start" x="53" y="-369.68" font-family="Times,serif" font-size="14.00">0</text>
<polygon fill="none" stroke="black" points="73.5,-362.88 73.5,-383.88 107.5,-383.88 107.5,-362.88 73.5,-362.88"/>
<text text-anchor="start" x="85.5" y="-369.68" font-family="Times,serif" font-size="14.00">5</text>
<polygon fill="none" stroke="black" points="107.5,-362.88 107.5,-383.88 166.5,-383.88 166.5,-362.88 107.5,-362.88"/>
<text text-anchor="start" x="110.5" y="-369.68" font-family="Times,serif" font-size="14.00">Header</text>
<polygon fill="none" stroke="black" points="166.5,-362.88 166.5,-383.88 222.5,-383.88 222.5,-362.88 166.5,-362.88"/>
<text text-anchor="start" x="169.5" y="-369.68" font-family="Times,serif" font-size="14.00">header</text>
</g>
<!-- header__seq -->
<g id="node3" class="node">
<title>header__seq</title>
<polygon fill="#e0ffe0" stroke="transparent" points="293,-382.88 293,-403.88 324,-403.88 324,-382.88 293,-382.88"/>
<polygon fill="none" stroke="black" points="293,-382.88 293,-403.88 324,-403.88 324,-382.88 293,-382.88"/>
<text text-anchor="start" x="296" y="-389.68" font-family="Times,serif" font-size="14.00">pos</text>
<polygon fill="#e0ffe0" stroke="transparent" points="324,-382.88 324,-403.88 358,-403.88 358,-382.88 324,-382.88"/>
<polygon fill="none" stroke="black" points="324,-382.88 324,-403.88 358,-403.88 358,-382.88 324,-382.88"/>
<text text-anchor="start" x="327" y="-389.68" font-family="Times,serif" font-size="14.00">size</text>
<polygon fill="#e0ffe0" stroke="transparent" points="358,-382.88 358,-403.88 396,-403.88 396,-382.88 358,-382.88"/>
<polygon fill="none" stroke="black" points="358,-382.88 358,-403.88 396,-403.88 396,-382.88 358,-382.88"/>
<text text-anchor="start" x="361" y="-389.68" font-family="Times,serif" font-size="14.00">type</text>
<polygon fill="#e0ffe0" stroke="transparent" points="396,-382.88 396,-403.88 455,-403.88 455,-382.88 396,-382.88"/>
<polygon fill="none" stroke="black" points="396,-382.88 396,-403.88 455,-403.88 455,-382.88 396,-382.88"/>
<text text-anchor="start" x="418.5" y="-389.68" font-family="Times,serif" font-size="14.00">id</text>
<polygon fill="none" stroke="black" points="293,-361.88 293,-382.88 324,-382.88 324,-361.88 293,-361.88"/>
<text text-anchor="start" x="303.5" y="-368.68" font-family="Times,serif" font-size="14.00">0</text>
<polygon fill="none" stroke="black" points="324,-361.88 324,-382.88 358,-382.88 358,-361.88 324,-361.88"/>
<text text-anchor="start" x="336" y="-368.68" font-family="Times,serif" font-size="14.00">4</text>
<polygon fill="none" stroke="black" points="358,-361.88 358,-382.88 396,-382.88 396,-361.88 358,-361.88"/>
<polygon fill="none" stroke="black" points="396,-361.88 396,-382.88 455,-382.88 455,-361.88 396,-361.88"/>
<text text-anchor="start" x="404" y="-368.68" font-family="Times,serif" font-size="14.00">magic</text>
<polygon fill="none" stroke="black" points="293,-340.88 293,-361.88 324,-361.88 324,-340.88 293,-340.88"/>
<text text-anchor="start" x="303.5" y="-347.68" font-family="Times,serif" font-size="14.00">4</text>
<polygon fill="none" stroke="black" points="324,-340.88 324,-361.88 358,-361.88 358,-340.88 324,-340.88"/>
<text text-anchor="start" x="336" y="-347.68" font-family="Times,serif" font-size="14.00">1</text>
<polygon fill="none" stroke="black" points="358,-340.88 358,-361.88 396,-361.88 396,-340.88 358,-340.88"/>
<text text-anchor="start" x="367.5" y="-347.68" font-family="Times,serif" font-size="14.00">u1</text>
<polygon fill="none" stroke="black" points="396,-340.88 396,-361.88 455,-361.88 455,-340.88 396,-340.88"/>
<text text-anchor="start" x="399" y="-347.68" font-family="Times,serif" font-size="14.00">version</text>
</g>
<!-- tsm__seq&#45;&gt;header__seq -->
<g id="edge1" class="edge">
<title>tsm__seq:header_type&#45;&gt;header__seq</title>
<path fill="none" stroke="black" stroke-width="2" d="M223.5,-372.88C240.1,-372.88 257.73,-372.88 274.85,-372.88"/>
<polygon fill="black" stroke="black" stroke-width="2" points="274.86,-376.38 284.86,-372.88 274.86,-369.38 274.86,-376.38"/>
</g>
<!-- tsm__inst__index -->
<g id="node2" class="node">
<title>tsm__inst__index</title>
<polygon fill="#e0ffe0" stroke="transparent" points="24.5,-184.88 24.5,-205.88 115.5,-205.88 115.5,-184.88 24.5,-184.88"/>
<polygon fill="none" stroke="black" points="24.5,-184.88 24.5,-205.88 115.5,-205.88 115.5,-184.88 24.5,-184.88"/>
<text text-anchor="start" x="57.5" y="-191.68" font-family="Times,serif" font-size="14.00">pos</text>
<polygon fill="#e0ffe0" stroke="transparent" points="115.5,-184.88 115.5,-205.88 149.5,-205.88 149.5,-184.88 115.5,-184.88"/>
<polygon fill="none" stroke="black" points="115.5,-184.88 115.5,-205.88 149.5,-205.88 149.5,-184.88 115.5,-184.88"/>
<text text-anchor="start" x="118.5" y="-191.68" font-family="Times,serif" font-size="14.00">size</text>
<polygon fill="#e0ffe0" stroke="transparent" points="149.5,-184.88 149.5,-205.88 195.5,-205.88 195.5,-184.88 149.5,-184.88"/>
<polygon fill="none" stroke="black" points="149.5,-184.88 149.5,-205.88 195.5,-205.88 195.5,-184.88 149.5,-184.88"/>
<text text-anchor="start" x="156.5" y="-191.68" font-family="Times,serif" font-size="14.00">type</text>
<polygon fill="#e0ffe0" stroke="transparent" points="195.5,-184.88 195.5,-205.88 241.5,-205.88 241.5,-184.88 195.5,-184.88"/>
<polygon fill="none" stroke="black" points="195.5,-184.88 195.5,-205.88 241.5,-205.88 241.5,-184.88 195.5,-184.88"/>
<text text-anchor="start" x="211.5" y="-191.68" font-family="Times,serif" font-size="14.00">id</text>
<polygon fill="none" stroke="black" points="24.5,-163.88 24.5,-184.88 115.5,-184.88 115.5,-163.88 24.5,-163.88"/>
<text text-anchor="start" x="27.5" y="-170.68" font-family="Times,serif" font-size="14.00">(_io.size &#45; 8)</text>
<polygon fill="none" stroke="black" points="115.5,-163.88 115.5,-184.88 149.5,-184.88 149.5,-163.88 115.5,-163.88"/>
<text text-anchor="start" x="127.5" y="-170.68" font-family="Times,serif" font-size="14.00">8</text>
<polygon fill="none" stroke="black" points="149.5,-163.88 149.5,-184.88 195.5,-184.88 195.5,-163.88 149.5,-163.88"/>
<text text-anchor="start" x="152.5" y="-170.68" font-family="Times,serif" font-size="14.00">Index</text>
<polygon fill="none" stroke="black" points="195.5,-163.88 195.5,-184.88 241.5,-184.88 241.5,-163.88 195.5,-163.88"/>
<text text-anchor="start" x="198.5" y="-170.68" font-family="Times,serif" font-size="14.00">index</text>
</g>
<!-- index__seq -->
<g id="node4" class="node">
<title>index__seq</title>
<polygon fill="#e0ffe0" stroke="transparent" points="298,-173.88 298,-194.88 329,-194.88 329,-173.88 298,-173.88"/>
<polygon fill="none" stroke="black" points="298,-173.88 298,-194.88 329,-194.88 329,-173.88 298,-173.88"/>
<text text-anchor="start" x="301" y="-180.68" font-family="Times,serif" font-size="14.00">pos</text>
<polygon fill="#e0ffe0" stroke="transparent" points="329,-173.88 329,-194.88 363,-194.88 363,-173.88 329,-173.88"/>
<polygon fill="none" stroke="black" points="329,-173.88 329,-194.88 363,-194.88 363,-173.88 329,-173.88"/>
<text text-anchor="start" x="332" y="-180.68" font-family="Times,serif" font-size="14.00">size</text>
<polygon fill="#e0ffe0" stroke="transparent" points="363,-173.88 363,-194.88 405,-194.88 405,-173.88 363,-173.88"/>
<polygon fill="none" stroke="black" points="363,-173.88 363,-194.88 405,-194.88 405,-173.88 363,-173.88"/>
<text text-anchor="start" x="368" y="-180.68" font-family="Times,serif" font-size="14.00">type</text>
<polygon fill="#e0ffe0" stroke="transparent" points="405,-173.88 405,-194.88 451,-194.88 451,-173.88 405,-173.88"/>
<polygon fill="none" stroke="black" points="405,-173.88 405,-194.88 451,-194.88 451,-173.88 405,-173.88"/>
<text text-anchor="start" x="421" y="-180.68" font-family="Times,serif" font-size="14.00">id</text>
<polygon fill="none" stroke="black" points="298,-152.88 298,-173.88 329,-173.88 329,-152.88 298,-152.88"/>
<text text-anchor="start" x="308.5" y="-159.68" font-family="Times,serif" font-size="14.00">0</text>
<polygon fill="none" stroke="black" points="329,-152.88 329,-173.88 363,-173.88 363,-152.88 329,-152.88"/>
<text text-anchor="start" x="341" y="-159.68" font-family="Times,serif" font-size="14.00">8</text>
<polygon fill="none" stroke="black" points="363,-152.88 363,-173.88 405,-173.88 405,-152.88 363,-152.88"/>
<text text-anchor="start" x="366" y="-159.68" font-family="Times,serif" font-size="14.00">u8be</text>
<polygon fill="none" stroke="black" points="405,-152.88 405,-173.88 451,-173.88 451,-152.88 405,-152.88"/>
<text text-anchor="start" x="408" y="-159.68" font-family="Times,serif" font-size="14.00">offset</text>
</g>
<!-- tsm__inst__index&#45;&gt;index__seq -->
<g id="edge2" class="edge">
<title>tsm__inst__index:index_type&#45;&gt;index__seq</title>
<path fill="none" stroke="black" stroke-width="2" d="M242.5,-173.88C254.36,-173.88 266.82,-173.88 279.15,-173.88"/>
<polygon fill="black" stroke="black" stroke-width="2" points="279.46,-177.38 289.46,-173.88 279.46,-170.38 279.46,-177.38"/>
</g>
<!-- index__inst__entries -->
<g id="node5" class="node">
<title>index__inst__entries</title>
<polygon fill="#e0ffe0" stroke="transparent" points="507,-173.88 507,-194.88 566,-194.88 566,-173.88 507,-173.88"/>
<polygon fill="none" stroke="black" points="507,-173.88 507,-194.88 566,-194.88 566,-173.88 507,-173.88"/>
<text text-anchor="start" x="524" y="-180.68" font-family="Times,serif" font-size="14.00">pos</text>
<polygon fill="#e0ffe0" stroke="transparent" points="566,-173.88 566,-194.88 606,-194.88 606,-173.88 566,-173.88"/>
<polygon fill="none" stroke="black" points="566,-173.88 566,-194.88 606,-194.88 606,-173.88 566,-173.88"/>
<text text-anchor="start" x="572" y="-180.68" font-family="Times,serif" font-size="14.00">size</text>
<polygon fill="#e0ffe0" stroke="transparent" points="606,-173.88 606,-194.88 708,-194.88 708,-173.88 606,-173.88"/>
<polygon fill="none" stroke="black" points="606,-173.88 606,-194.88 708,-194.88 708,-173.88 606,-173.88"/>
<text text-anchor="start" x="641" y="-180.68" font-family="Times,serif" font-size="14.00">type</text>
<polygon fill="#e0ffe0" stroke="transparent" points="708,-173.88 708,-194.88 769,-194.88 769,-173.88 708,-173.88"/>
<polygon fill="none" stroke="black" points="708,-173.88 708,-194.88 769,-194.88 769,-173.88 708,-173.88"/>
<text text-anchor="start" x="731.5" y="-180.68" font-family="Times,serif" font-size="14.00">id</text>
<polygon fill="none" stroke="black" points="507,-152.88 507,-173.88 566,-173.88 566,-152.88 507,-152.88"/>
<text text-anchor="start" x="516.5" y="-159.68" font-family="Times,serif" font-size="14.00">offset</text>
<polygon fill="none" stroke="black" points="566,-152.88 566,-173.88 606,-173.88 606,-152.88 566,-152.88"/>
<text text-anchor="start" x="579" y="-159.68" font-family="Times,serif" font-size="14.00">...</text>
<polygon fill="none" stroke="black" points="606,-152.88 606,-173.88 708,-173.88 708,-152.88 606,-152.88"/>
<text text-anchor="start" x="610.5" y="-159.68" font-family="Times,serif" font-size="14.00">IndexHeader</text>
<polygon fill="none" stroke="black" points="708,-152.88 708,-173.88 769,-173.88 769,-152.88 708,-152.88"/>
<text text-anchor="start" x="713" y="-159.68" font-family="Times,serif" font-size="14.00">entries</text>
<polygon fill="none" stroke="black" points="507,-131.88 507,-152.88 769,-152.88 769,-131.88 507,-131.88"/>
<text text-anchor="start" x="510" y="-138.68" font-family="Times,serif" font-size="14.00">repeat until _io.pos == (_io.size &#45; 8)</text>
</g>
<!-- index__seq&#45;&gt;index__inst__entries -->
<g id="edge3" class="edge">
<title>index__seq:offset_type&#45;&gt;index__inst__entries:entries_pos</title>
<path fill="none" stroke="#404040" d="M452,-162.88C472.25,-162.88 479.69,-162.88 495.93,-162.88"/>
<polygon fill="#404040" stroke="#404040" points="496,-166.38 506,-162.88 496,-159.38 496,-166.38"/>
</g>
<!-- index_header__seq -->
<g id="node6" class="node">
<title>index_header__seq</title>
<polygon fill="#e0ffe0" stroke="transparent" points="821.5,-214.88 821.5,-235.88 852.5,-235.88 852.5,-214.88 821.5,-214.88"/>
<polygon fill="none" stroke="black" points="821.5,-214.88 821.5,-235.88 852.5,-235.88 852.5,-214.88 821.5,-214.88"/>
<text text-anchor="start" x="824.5" y="-221.68" font-family="Times,serif" font-size="14.00">pos</text>
<polygon fill="#e0ffe0" stroke="transparent" points="852.5,-214.88 852.5,-235.88 912.5,-235.88 912.5,-214.88 852.5,-214.88"/>
<polygon fill="none" stroke="black" points="852.5,-214.88 852.5,-235.88 912.5,-235.88 912.5,-214.88 852.5,-214.88"/>
<text text-anchor="start" x="868.5" y="-221.68" font-family="Times,serif" font-size="14.00">size</text>
<polygon fill="#e0ffe0" stroke="transparent" points="912.5,-214.88 912.5,-235.88 999.5,-235.88 999.5,-214.88 912.5,-214.88"/>
<polygon fill="none" stroke="black" points="912.5,-214.88 912.5,-235.88 999.5,-235.88 999.5,-214.88 912.5,-214.88"/>
<text text-anchor="start" x="940" y="-221.68" font-family="Times,serif" font-size="14.00">type</text>
<polygon fill="#e0ffe0" stroke="transparent" points="999.5,-214.88 999.5,-235.88 1102.5,-235.88 1102.5,-214.88 999.5,-214.88"/>
<polygon fill="none" stroke="black" points="999.5,-214.88 999.5,-235.88 1102.5,-235.88 1102.5,-214.88 999.5,-214.88"/>
<text text-anchor="start" x="1044" y="-221.68" font-family="Times,serif" font-size="14.00">id</text>
<polygon fill="none" stroke="black" points="821.5,-193.88 821.5,-214.88 852.5,-214.88 852.5,-193.88 821.5,-193.88"/>
<text text-anchor="start" x="832" y="-200.68" font-family="Times,serif" font-size="14.00">0</text>
<polygon fill="none" stroke="black" points="852.5,-193.88 852.5,-214.88 912.5,-214.88 912.5,-193.88 852.5,-193.88"/>
<text text-anchor="start" x="877.5" y="-200.68" font-family="Times,serif" font-size="14.00">2</text>
<polygon fill="none" stroke="black" points="912.5,-193.88 912.5,-214.88 999.5,-214.88 999.5,-193.88 912.5,-193.88"/>
<text text-anchor="start" x="938" y="-200.68" font-family="Times,serif" font-size="14.00">u2be</text>
<polygon fill="none" stroke="black" points="999.5,-193.88 999.5,-214.88 1102.5,-214.88 1102.5,-193.88 999.5,-193.88"/>
<text text-anchor="start" x="1024" y="-200.68" font-family="Times,serif" font-size="14.00">key_len</text>
<polygon fill="none" stroke="black" points="821.5,-172.88 821.5,-193.88 852.5,-193.88 852.5,-172.88 821.5,-172.88"/>
<text text-anchor="start" x="832" y="-179.68" font-family="Times,serif" font-size="14.00">2</text>
<polygon fill="none" stroke="black" points="852.5,-172.88 852.5,-193.88 912.5,-193.88 912.5,-172.88 852.5,-172.88"/>
<text text-anchor="start" x="855.5" y="-179.68" font-family="Times,serif" font-size="14.00">key_len</text>
<polygon fill="none" stroke="black" points="912.5,-172.88 912.5,-193.88 999.5,-193.88 999.5,-172.88 912.5,-172.88"/>
<text text-anchor="start" x="918.5" y="-179.68" font-family="Times,serif" font-size="14.00">str(UTF&#45;8)</text>
<polygon fill="none" stroke="black" points="999.5,-172.88 999.5,-193.88 1102.5,-193.88 1102.5,-172.88 999.5,-172.88"/>
<text text-anchor="start" x="1038.5" y="-179.68" font-family="Times,serif" font-size="14.00">key</text>
<polygon fill="none" stroke="black" points="821.5,-151.88 821.5,-172.88 852.5,-172.88 852.5,-151.88 821.5,-151.88"/>
<text text-anchor="start" x="830" y="-158.68" font-family="Times,serif" font-size="14.00">...</text>
<polygon fill="none" stroke="black" points="852.5,-151.88 852.5,-172.88 912.5,-172.88 912.5,-151.88 852.5,-151.88"/>
<text text-anchor="start" x="877.5" y="-158.68" font-family="Times,serif" font-size="14.00">1</text>
<polygon fill="none" stroke="black" points="912.5,-151.88 912.5,-172.88 999.5,-172.88 999.5,-151.88 912.5,-151.88"/>
<text text-anchor="start" x="946.5" y="-158.68" font-family="Times,serif" font-size="14.00">u1</text>
<polygon fill="none" stroke="black" points="999.5,-151.88 999.5,-172.88 1102.5,-172.88 1102.5,-151.88 999.5,-151.88"/>
<text text-anchor="start" x="1035" y="-158.68" font-family="Times,serif" font-size="14.00">type</text>
<polygon fill="none" stroke="black" points="821.5,-130.88 821.5,-151.88 852.5,-151.88 852.5,-130.88 821.5,-130.88"/>
<text text-anchor="start" x="830" y="-137.68" font-family="Times,serif" font-size="14.00">...</text>
<polygon fill="none" stroke="black" points="852.5,-130.88 852.5,-151.88 912.5,-151.88 912.5,-130.88 852.5,-130.88"/>
<text text-anchor="start" x="877.5" y="-137.68" font-family="Times,serif" font-size="14.00">2</text>
<polygon fill="none" stroke="black" points="912.5,-130.88 912.5,-151.88 999.5,-151.88 999.5,-130.88 912.5,-130.88"/>
<text text-anchor="start" x="938" y="-137.68" font-family="Times,serif" font-size="14.00">u2be</text>
<polygon fill="none" stroke="black" points="999.5,-130.88 999.5,-151.88 1102.5,-151.88 1102.5,-130.88 999.5,-130.88"/>
<text text-anchor="start" x="1008.5" y="-137.68" font-family="Times,serif" font-size="14.00">entry_count</text>
<polygon fill="none" stroke="black" points="821.5,-109.88 821.5,-130.88 852.5,-130.88 852.5,-109.88 821.5,-109.88"/>
<text text-anchor="start" x="830" y="-116.68" font-family="Times,serif" font-size="14.00">...</text>
<polygon fill="none" stroke="black" points="852.5,-109.88 852.5,-130.88 912.5,-130.88 912.5,-109.88 852.5,-109.88"/>
<text text-anchor="start" x="873" y="-116.68" font-family="Times,serif" font-size="14.00">28</text>
<polygon fill="none" stroke="black" points="912.5,-109.88 912.5,-130.88 999.5,-130.88 999.5,-109.88 912.5,-109.88"/>
<text text-anchor="start" x="915.5" y="-116.68" font-family="Times,serif" font-size="14.00">IndexEntry</text>
<polygon fill="none" stroke="black" points="999.5,-109.88 999.5,-130.88 1102.5,-130.88 1102.5,-109.88 999.5,-109.88"/>
<text text-anchor="start" x="1002.5" y="-116.68" font-family="Times,serif" font-size="14.00">index_entries</text>
<polygon fill="none" stroke="black" points="821.5,-88.88 821.5,-109.88 1102.5,-109.88 1102.5,-88.88 821.5,-88.88"/>
<text text-anchor="start" x="871.5" y="-95.68" font-family="Times,serif" font-size="14.00">repeat entry_count times</text>
</g>
<!-- index__inst__entries&#45;&gt;index_header__seq -->
<g id="edge4" class="edge">
<title>index__inst__entries:entries_type&#45;&gt;index_header__seq</title>
<path fill="none" stroke="black" stroke-width="2" d="M770,-162.88C780.64,-162.88 791.6,-162.88 802.66,-162.88"/>
<polygon fill="black" stroke="black" stroke-width="2" points="802.82,-166.38 812.82,-162.88 802.82,-159.38 802.82,-166.38"/>
</g>
<!-- index_header__seq&#45;&gt;index_header__seq -->
<g id="edge5" class="edge">
<title>index_header__seq:key_len_type&#45;&gt;index_header__seq:key_size</title>
<path fill="none" stroke="#404040" d="M1072.58,-214.94C1122.12,-241.19 1106.83,-258.38 967,-258.38 834.77,-258.38 813.91,-228.11 853.93,-199.55"/>
<polygon fill="#404040" stroke="#404040" points="855.92,-202.43 862.41,-194.05 852.11,-196.55 855.92,-202.43"/>
</g>
<!-- index_header__seq&#45;&gt;index_header__seq -->
<g id="edge7" class="edge">
<title>index_header__seq:entry_count_type&#45;&gt;index_header__seq:index_entries__repeat</title>
<path fill="none" stroke="#404040" d="M999.15,-144.14C877.54,-149.26 668,-145.57 668,-119.88 668,-102.3 735.53,-95.02 811.14,-93.82"/>
<polygon fill="#404040" stroke="#404040" points="811.41,-97.31 821.37,-93.69 811.32,-90.32 811.41,-97.31"/>
</g>
<!-- index_entry__seq -->
<g id="node7" class="node">
<title>index_entry__seq</title>
<polygon fill="#e0ffe0" stroke="transparent" points="1154,-180.88 1154,-201.88 1185,-201.88 1185,-180.88 1154,-180.88"/>
<polygon fill="none" stroke="black" points="1154,-180.88 1154,-201.88 1185,-201.88 1185,-180.88 1154,-180.88"/>
<text text-anchor="start" x="1157" y="-187.68" font-family="Times,serif" font-size="14.00">pos</text>
<polygon fill="#e0ffe0" stroke="transparent" points="1185,-180.88 1185,-201.88 1219,-201.88 1219,-180.88 1185,-180.88"/>
<polygon fill="none" stroke="black" points="1185,-180.88 1185,-201.88 1219,-201.88 1219,-180.88 1185,-180.88"/>
<text text-anchor="start" x="1188" y="-187.68" font-family="Times,serif" font-size="14.00">size</text>
<polygon fill="#e0ffe0" stroke="transparent" points="1219,-180.88 1219,-201.88 1261,-201.88 1261,-180.88 1219,-180.88"/>
<polygon fill="none" stroke="black" points="1219,-180.88 1219,-201.88 1261,-201.88 1261,-180.88 1219,-180.88"/>
<text text-anchor="start" x="1224" y="-187.68" font-family="Times,serif" font-size="14.00">type</text>
<polygon fill="#e0ffe0" stroke="transparent" points="1261,-180.88 1261,-201.88 1352,-201.88 1352,-180.88 1261,-180.88"/>
<polygon fill="none" stroke="black" points="1261,-180.88 1261,-201.88 1352,-201.88 1352,-180.88 1261,-180.88"/>
<text text-anchor="start" x="1299.5" y="-187.68" font-family="Times,serif" font-size="14.00">id</text>
<polygon fill="none" stroke="black" points="1154,-159.88 1154,-180.88 1185,-180.88 1185,-159.88 1154,-159.88"/>
<text text-anchor="start" x="1164.5" y="-166.68" font-family="Times,serif" font-size="14.00">0</text>
<polygon fill="none" stroke="black" points="1185,-159.88 1185,-180.88 1219,-180.88 1219,-159.88 1185,-159.88"/>
<text text-anchor="start" x="1197" y="-166.68" font-family="Times,serif" font-size="14.00">8</text>
<polygon fill="none" stroke="black" points="1219,-159.88 1219,-180.88 1261,-180.88 1261,-159.88 1219,-159.88"/>
<text text-anchor="start" x="1222" y="-166.68" font-family="Times,serif" font-size="14.00">u8be</text>
<polygon fill="none" stroke="black" points="1261,-159.88 1261,-180.88 1352,-180.88 1352,-159.88 1261,-159.88"/>
<text text-anchor="start" x="1273" y="-166.68" font-family="Times,serif" font-size="14.00">min_time</text>
<polygon fill="none" stroke="black" points="1154,-138.88 1154,-159.88 1185,-159.88 1185,-138.88 1154,-138.88"/>
<text text-anchor="start" x="1164.5" y="-145.68" font-family="Times,serif" font-size="14.00">8</text>
<polygon fill="none" stroke="black" points="1185,-138.88 1185,-159.88 1219,-159.88 1219,-138.88 1185,-138.88"/>
<text text-anchor="start" x="1197" y="-145.68" font-family="Times,serif" font-size="14.00">8</text>
<polygon fill="none" stroke="black" points="1219,-138.88 1219,-159.88 1261,-159.88 1261,-138.88 1219,-138.88"/>
<text text-anchor="start" x="1222" y="-145.68" font-family="Times,serif" font-size="14.00">u8be</text>
<polygon fill="none" stroke="black" points="1261,-138.88 1261,-159.88 1352,-159.88 1352,-138.88 1261,-138.88"/>
<text text-anchor="start" x="1271.5" y="-145.68" font-family="Times,serif" font-size="14.00">max_time</text>
<polygon fill="none" stroke="black" points="1154,-117.88 1154,-138.88 1185,-138.88 1185,-117.88 1154,-117.88"/>
<text text-anchor="start" x="1160" y="-124.68" font-family="Times,serif" font-size="14.00">16</text>
<polygon fill="none" stroke="black" points="1185,-117.88 1185,-138.88 1219,-138.88 1219,-117.88 1185,-117.88"/>
<text text-anchor="start" x="1197" y="-124.68" font-family="Times,serif" font-size="14.00">8</text>
<polygon fill="none" stroke="black" points="1219,-117.88 1219,-138.88 1261,-138.88 1261,-117.88 1219,-117.88"/>
<text text-anchor="start" x="1222" y="-124.68" font-family="Times,serif" font-size="14.00">u8be</text>
<polygon fill="none" stroke="black" points="1261,-117.88 1261,-138.88 1352,-138.88 1352,-117.88 1261,-117.88"/>
<text text-anchor="start" x="1264" y="-124.68" font-family="Times,serif" font-size="14.00">block_offset</text>
<polygon fill="none" stroke="black" points="1154,-96.88 1154,-117.88 1185,-117.88 1185,-96.88 1154,-96.88"/>
<text text-anchor="start" x="1160" y="-103.68" font-family="Times,serif" font-size="14.00">24</text>
<polygon fill="none" stroke="black" points="1185,-96.88 1185,-117.88 1219,-117.88 1219,-96.88 1185,-96.88"/>
<text text-anchor="start" x="1197" y="-103.68" font-family="Times,serif" font-size="14.00">4</text>
<polygon fill="none" stroke="black" points="1219,-96.88 1219,-117.88 1261,-117.88 1261,-96.88 1219,-96.88"/>
<text text-anchor="start" x="1222" y="-103.68" font-family="Times,serif" font-size="14.00">u4be</text>
<polygon fill="none" stroke="black" points="1261,-96.88 1261,-117.88 1352,-117.88 1352,-96.88 1261,-96.88"/>
<text text-anchor="start" x="1270" y="-103.68" font-family="Times,serif" font-size="14.00">block_size</text>
</g>
<!-- index_header__seq&#45;&gt;index_entry__seq -->
<g id="edge6" class="edge">
<title>index_header__seq:index_entries_type&#45;&gt;index_entry__seq</title>
<path fill="none" stroke="black" stroke-width="2" d="M1103.5,-119.88C1114.07,-119.88 1124.99,-120.62 1135.87,-121.86"/>
<polygon fill="black" stroke="black" stroke-width="2" points="1135.49,-125.34 1145.85,-123.15 1136.38,-118.4 1135.49,-125.34"/>
</g>
<!-- index_entry__inst__block -->
<g id="node8" class="node">
<title>index_entry__inst__block</title>
<polygon fill="#e0ffe0" stroke="transparent" points="1404.5,-149.88 1404.5,-170.88 1495.5,-170.88 1495.5,-149.88 1404.5,-149.88"/>
<polygon fill="none" stroke="black" points="1404.5,-149.88 1404.5,-170.88 1495.5,-170.88 1495.5,-149.88 1404.5,-149.88"/>
<text text-anchor="start" x="1437.5" y="-156.68" font-family="Times,serif" font-size="14.00">pos</text>
<polygon fill="#e0ffe0" stroke="transparent" points="1495.5,-149.88 1495.5,-170.88 1529.5,-170.88 1529.5,-149.88 1495.5,-149.88"/>
<polygon fill="none" stroke="black" points="1495.5,-149.88 1495.5,-170.88 1529.5,-170.88 1529.5,-149.88 1495.5,-149.88"/>
<text text-anchor="start" x="1498.5" y="-156.68" font-family="Times,serif" font-size="14.00">size</text>
<polygon fill="#e0ffe0" stroke="transparent" points="1529.5,-149.88 1529.5,-170.88 1615.5,-170.88 1615.5,-149.88 1529.5,-149.88"/>
<polygon fill="none" stroke="black" points="1529.5,-149.88 1529.5,-170.88 1615.5,-170.88 1615.5,-149.88 1529.5,-149.88"/>
<text text-anchor="start" x="1556.5" y="-156.68" font-family="Times,serif" font-size="14.00">type</text>
<polygon fill="#e0ffe0" stroke="transparent" points="1615.5,-149.88 1615.5,-170.88 1659.5,-170.88 1659.5,-149.88 1615.5,-149.88"/>
<polygon fill="none" stroke="black" points="1615.5,-149.88 1615.5,-170.88 1659.5,-170.88 1659.5,-149.88 1615.5,-149.88"/>
<text text-anchor="start" x="1630.5" y="-156.68" font-family="Times,serif" font-size="14.00">id</text>
<polygon fill="none" stroke="black" points="1404.5,-128.88 1404.5,-149.88 1495.5,-149.88 1495.5,-128.88 1404.5,-128.88"/>
<text text-anchor="start" x="1407.5" y="-135.68" font-family="Times,serif" font-size="14.00">block_offset</text>
<polygon fill="none" stroke="black" points="1495.5,-128.88 1495.5,-149.88 1529.5,-149.88 1529.5,-128.88 1495.5,-128.88"/>
<text text-anchor="start" x="1505.5" y="-135.68" font-family="Times,serif" font-size="14.00">...</text>
<polygon fill="none" stroke="black" points="1529.5,-128.88 1529.5,-149.88 1615.5,-149.88 1615.5,-128.88 1529.5,-128.88"/>
<text text-anchor="start" x="1532.5" y="-135.68" font-family="Times,serif" font-size="14.00">BlockEntry</text>
<polygon fill="none" stroke="black" points="1615.5,-128.88 1615.5,-149.88 1659.5,-149.88 1659.5,-128.88 1615.5,-128.88"/>
<text text-anchor="start" x="1618.5" y="-135.68" font-family="Times,serif" font-size="14.00">block</text>
</g>
<!-- index_entry__seq&#45;&gt;index_entry__inst__block -->
<g id="edge8" class="edge">
<title>index_entry__seq:block_offset_type&#45;&gt;index_entry__inst__block:block_pos</title>
<path fill="none" stroke="#404040" d="M1353,-127.88C1372.2,-127.88 1378.54,-135.56 1393.52,-138.09"/>
<polygon fill="#404040" stroke="#404040" points="1393.25,-141.58 1403.5,-138.88 1393.81,-134.6 1393.25,-141.58"/>
</g>
<!-- block_entry__seq -->
<g id="node9" class="node">
<title>block_entry__seq</title>
<polygon fill="#e0ffe0" stroke="transparent" points="1769.5,-147.88 1769.5,-168.88 1800.5,-168.88 1800.5,-147.88 1769.5,-147.88"/>
<polygon fill="none" stroke="black" points="1769.5,-147.88 1769.5,-168.88 1800.5,-168.88 1800.5,-147.88 1769.5,-147.88"/>
<text text-anchor="start" x="1772.5" y="-154.68" font-family="Times,serif" font-size="14.00">pos</text>
<polygon fill="#e0ffe0" stroke="transparent" points="1800.5,-147.88 1800.5,-168.88 1970.5,-168.88 1970.5,-147.88 1800.5,-147.88"/>
<polygon fill="none" stroke="black" points="1800.5,-147.88 1800.5,-168.88 1970.5,-168.88 1970.5,-147.88 1800.5,-147.88"/>
<text text-anchor="start" x="1871.5" y="-154.68" font-family="Times,serif" font-size="14.00">size</text>
<polygon fill="#e0ffe0" stroke="transparent" points="1970.5,-147.88 1970.5,-168.88 2012.5,-168.88 2012.5,-147.88 1970.5,-147.88"/>
<polygon fill="none" stroke="black" points="1970.5,-147.88 1970.5,-168.88 2012.5,-168.88 2012.5,-147.88 1970.5,-147.88"/>
<text text-anchor="start" x="1975.5" y="-154.68" font-family="Times,serif" font-size="14.00">type</text>
<polygon fill="#e0ffe0" stroke="transparent" points="2012.5,-147.88 2012.5,-168.88 2058.5,-168.88 2058.5,-147.88 2012.5,-147.88"/>
<polygon fill="none" stroke="black" points="2012.5,-147.88 2012.5,-168.88 2058.5,-168.88 2058.5,-147.88 2012.5,-147.88"/>
<text text-anchor="start" x="2028.5" y="-154.68" font-family="Times,serif" font-size="14.00">id</text>
<polygon fill="none" stroke="black" points="1769.5,-126.88 1769.5,-147.88 1800.5,-147.88 1800.5,-126.88 1769.5,-126.88"/>
<text text-anchor="start" x="1780" y="-133.68" font-family="Times,serif" font-size="14.00">0</text>
<polygon fill="none" stroke="black" points="1800.5,-126.88 1800.5,-147.88 1970.5,-147.88 1970.5,-126.88 1800.5,-126.88"/>
<text text-anchor="start" x="1880.5" y="-133.68" font-family="Times,serif" font-size="14.00">4</text>
<polygon fill="none" stroke="black" points="1970.5,-126.88 1970.5,-147.88 2012.5,-147.88 2012.5,-126.88 1970.5,-126.88"/>
<text text-anchor="start" x="1973.5" y="-133.68" font-family="Times,serif" font-size="14.00">u4be</text>
<polygon fill="none" stroke="black" points="2012.5,-126.88 2012.5,-147.88 2058.5,-147.88 2058.5,-126.88 2012.5,-126.88"/>
<text text-anchor="start" x="2015.5" y="-133.68" font-family="Times,serif" font-size="14.00">crc32</text>
<polygon fill="none" stroke="black" points="1769.5,-105.88 1769.5,-126.88 1800.5,-126.88 1800.5,-105.88 1769.5,-105.88"/>
<text text-anchor="start" x="1780" y="-112.68" font-family="Times,serif" font-size="14.00">4</text>
<polygon fill="none" stroke="black" points="1800.5,-105.88 1800.5,-126.88 1970.5,-126.88 1970.5,-105.88 1800.5,-105.88"/>
<text text-anchor="start" x="1803.5" y="-112.68" font-family="Times,serif" font-size="14.00">(_parent.block_size &#45; 4)</text>
<polygon fill="none" stroke="black" points="1970.5,-105.88 1970.5,-126.88 2012.5,-126.88 2012.5,-105.88 1970.5,-105.88"/>
<polygon fill="none" stroke="black" points="2012.5,-105.88 2012.5,-126.88 2058.5,-126.88 2058.5,-105.88 2012.5,-105.88"/>
<text text-anchor="start" x="2019.5" y="-112.68" font-family="Times,serif" font-size="14.00">data</text>
</g>
<!-- index_entry__seq&#45;&gt;block_entry__seq -->
<g id="edge10" class="edge">
<title>index_entry__seq:block_size_type&#45;&gt;block_entry__seq:data_size</title>
<path fill="none" stroke="#404040" d="M1353,-106.88C1586.2,-106.88 1876.85,124.85 1885.31,-94.78"/>
<polygon fill="#404040" stroke="#404040" points="1881.81,-94.95 1885.5,-104.88 1888.81,-94.81 1881.81,-94.95"/>
</g>
<!-- index_entry__inst__block&#45;&gt;block_entry__seq -->
<g id="edge9" class="edge">
<title>index_entry__inst__block:block_type&#45;&gt;block_entry__seq</title>
<path fill="none" stroke="black" stroke-width="2" d="M1660.5,-138.88C1689.69,-138.88 1720.77,-138.81 1750.79,-138.71"/>
<polygon fill="black" stroke="black" stroke-width="2" points="1750.93,-142.21 1760.92,-138.67 1750.91,-135.21 1750.93,-142.21"/>
</g>
</g>
</svg>
