<?xml version="1.0" encoding="UTF-8" standalone="no"?>
<!DOCTYPE svg PUBLIC "-//W3C//DTD SVG 1.1//EN"
 "http://www.w3.org/Graphics/SVG/1.1/DTD/svg11.dtd">
<!-- Generated by graphviz version 2.38.0 (20140413.2041)
 -->
<!-- Title: %3 Pages: 1 -->
<svg width="2220pt" height="435pt"
 viewBox="0.00 0.00 2220.00 435.34" xmlns="http://www.w3.org/2000/svg" xmlns:xlink="http://www.w3.org/1999/xlink">
<g id="graph0" class="graph" transform="scale(1 1) rotate(0) translate(4 431.343)">
<title>%3</title>
<polygon fill="white" stroke="none" points="-4,4 -4,-431.343 2216,-431.343 2216,4 -4,4"/>
<g id="clust1" class="cluster"><title>cluster__tsm</title>
<polygon fill="none" stroke="black" stroke-dasharray="1,5" points="8,-9.34326 8,-419.343 2212,-419.343 2212,-9.34326 8,-9.34326"/>
<text text-anchor="middle" x="1110" y="-404.143" font-family="Times,serif" font-size="14.00">Tsm</text>
</g>
<g id="clust2" class="cluster"><title>cluster__header</title>
<polygon fill="none" stroke="black" stroke-dasharray="1,5" points="279,-277.343 279,-388.343 532,-388.343 532,-277.343 279,-277.343"/>
<text text-anchor="middle" x="405.5" y="-373.143" font-family="Times,serif" font-size="14.00">Tsm::Header</text>
</g>
<g id="clust3" class="cluster"><title>cluster__index</title>
<polygon fill="none" stroke="black" stroke-dasharray="1,5" points="312.5,-17.3433 312.5,-269.343 2204,-269.343 2204,-17.3433 312.5,-17.3433"/>
<text text-anchor="middle" x="1258.25" y="-254.143" font-family="Times,serif" font-size="14.00">Tsm::Index</text>
</g>
<g id="clust4" class="cluster"><title>cluster__index_header</title>
<polygon fill="none" stroke="black" stroke-dasharray="1,5" points="867,-25.3433 867,-238.343 2196,-238.343 2196,-25.3433 867,-25.3433"/>
<text text-anchor="middle" x="1531.5" y="-223.143" font-family="Times,serif" font-size="14.00">Tsm::Index::IndexHeader</text>
</g>
<g id="clust5" class="cluster"><title>cluster__index_entry</title>
<polygon fill="none" stroke="black" stroke-dasharray="1,5" points="1202,-33.3433 1202,-186.343 2188,-186.343 2188,-33.3433 1202,-33.3433"/>
<text text-anchor="middle" x="1695" y="-171.143" font-family="Times,serif" font-size="14.00">Tsm::Index::IndexHeader::IndexEntry</text>
</g>
<g id="clust6" class="cluster"><title>cluster__block_entry</title>
<polygon fill="none" stroke="black" stroke-dasharray="1,5" points="1801,-42.3433 1801,-153.343 2180,-153.343 2180,-42.3433 1801,-42.3433"/>
<text text-anchor="middle" x="1990.5" y="-138.143" font-family="Times,serif" font-size="14.00">Tsm::Index::IndexHeader::IndexEntry::BlockEntry</text>
</g>
<!-- tsm__seq -->
<g id="node1" class="node"><title>tsm__seq</title>
<polygon fill="#e0ffe0" stroke="none" points="43.5,-332.343 43.5,-353.343 74.5,-353.343 74.5,-332.343 43.5,-332.343"/>
<polygon fill="none" stroke="black" points="43.5,-332.343 43.5,-353.343 74.5,-353.343 74.5,-332.343 43.5,-332.343"/>
<text text-anchor="start" x="46.5" y="-339.143" font-family="Times,serif" font-size="14.00">pos</text>
<polygon fill="#e0ffe0" stroke="none" points="74.5,-332.343 74.5,-353.343 108.5,-353.343 108.5,-332.343 74.5,-332.343"/>
<polygon fill="none" stroke="black" points="74.5,-332.343 74.5,-353.343 108.5,-353.343 108.5,-332.343 74.5,-332.343"/>
<text text-anchor="start" x="77.5" y="-339.143" font-family="Times,serif" font-size="14.00">size</text>
<polygon fill="#e0ffe0" stroke="none" points="108.5,-332.343 108.5,-353.343 168.5,-353.343 168.5,-332.343 108.5,-332.343"/>
<polygon fill="none" stroke="black" points="108.5,-332.343 108.5,-353.343 168.5,-353.343 168.5,-332.343 108.5,-332.343"/>
<text text-anchor="start" x="122.5" y="-339.143" font-family="Times,serif" font-size="14.00">type</text>
<polygon fill="#e0ffe0" stroke="none" points="168.5,-332.343 168.5,-353.343 224.5,-353.343 224.5,-332.343 168.5,-332.343"/>
<polygon fill="none" stroke="black" points="168.5,-332.343 168.5,-353.343 224.5,-353.343 224.5,-332.343 168.5,-332.343"/>
<text text-anchor="start" x="189.5" y="-339.143" font-family="Times,serif" font-size="14.00">id</text>
<polygon fill="none" stroke="black" points="43.5,-311.343 43.5,-332.343 74.5,-332.343 74.5,-311.343 43.5,-311.343"/>
<text text-anchor="start" x="54" y="-318.143" font-family="Times,serif" font-size="14.00">0</text>
<polygon fill="none" stroke="black" points="74.5,-311.343 74.5,-332.343 108.5,-332.343 108.5,-311.343 74.5,-311.343"/>
<text text-anchor="start" x="86.5" y="-318.143" font-family="Times,serif" font-size="14.00">5</text>
<polygon fill="none" stroke="black" points="108.5,-311.343 108.5,-332.343 168.5,-332.343 168.5,-311.343 108.5,-311.343"/>
<text text-anchor="start" x="111.5" y="-318.143" font-family="Times,serif" font-size="14.00">Header</text>
<polygon fill="none" stroke="black" points="168.5,-311.343 168.5,-332.343 224.5,-332.343 224.5,-311.343 168.5,-311.343"/>
<text text-anchor="start" x="171.5" y="-318.143" font-family="Times,serif" font-size="14.00">header</text>
</g>
<!-- header__seq -->
<g id="node3" class="node"><title>header__seq</title>
<polygon fill="#e0ffe0" stroke="none" points="295.5,-331.343 295.5,-352.343 326.5,-352.343 326.5,-331.343 295.5,-331.343"/>
<polygon fill="none" stroke="black" points="295.5,-331.343 295.5,-352.343 326.5,-352.343 326.5,-331.343 295.5,-331.343"/>
<text text-anchor="start" x="298.5" y="-338.143" font-family="Times,serif" font-size="14.00">pos</text>
<polygon fill="#e0ffe0" stroke="none" points="326.5,-331.343 326.5,-352.343 360.5,-352.343 360.5,-331.343 326.5,-331.343"/>
<polygon fill="none" stroke="black" points="326.5,-331.343 326.5,-352.343 360.5,-352.343 360.5,-331.343 326.5,-331.343"/>
<text text-anchor="start" x="329.5" y="-338.143" font-family="Times,serif" font-size="14.00">size</text>
<polygon fill="#e0ffe0" stroke="none" points="360.5,-331.343 360.5,-352.343 457.5,-352.343 457.5,-331.343 360.5,-331.343"/>
<polygon fill="none" stroke="black" points="360.5,-331.343 360.5,-352.343 457.5,-352.343 457.5,-331.343 360.5,-331.343"/>
<text text-anchor="start" x="393" y="-338.143" font-family="Times,serif" font-size="14.00">type</text>
<polygon fill="#e0ffe0" stroke="none" points="457.5,-331.343 457.5,-352.343 516.5,-352.343 516.5,-331.343 457.5,-331.343"/>
<polygon fill="none" stroke="black" points="457.5,-331.343 457.5,-352.343 516.5,-352.343 516.5,-331.343 457.5,-331.343"/>
<text text-anchor="start" x="480" y="-338.143" font-family="Times,serif" font-size="14.00">id</text>
<polygon fill="none" stroke="black" points="295.5,-310.343 295.5,-331.343 326.5,-331.343 326.5,-310.343 295.5,-310.343"/>
<text text-anchor="start" x="306" y="-317.143" font-family="Times,serif" font-size="14.00">0</text>
<polygon fill="none" stroke="black" points="326.5,-310.343 326.5,-331.343 360.5,-331.343 360.5,-310.343 326.5,-310.343"/>
<text text-anchor="start" x="338.5" y="-317.143" font-family="Times,serif" font-size="14.00">4</text>
<polygon fill="none" stroke="black" points="360.5,-310.343 360.5,-331.343 457.5,-331.343 457.5,-310.343 360.5,-310.343"/>
<text text-anchor="start" x="363.5" y="-317.143" font-family="Times,serif" font-size="14.00">16 D1 16 D1</text>
<polygon fill="none" stroke="black" points="457.5,-310.343 457.5,-331.343 516.5,-331.343 516.5,-310.343 457.5,-310.343"/>
<text text-anchor="start" x="465" y="-317.143" font-family="Times,serif" font-size="14.00">magic</text>
<polygon fill="none" stroke="black" points="295.5,-289.343 295.5,-310.343 326.5,-310.343 326.5,-289.343 295.5,-289.343"/>
<text text-anchor="start" x="306" y="-296.143" font-family="Times,serif" font-size="14.00">4</text>
<polygon fill="none" stroke="black" points="326.5,-289.343 326.5,-310.343 360.5,-310.343 360.5,-289.343 326.5,-289.343"/>
<text text-anchor="start" x="338.5" y="-296.143" font-family="Times,serif" font-size="14.00">1</text>
<polygon fill="none" stroke="black" points="360.5,-289.343 360.5,-310.343 457.5,-310.343 457.5,-289.343 360.5,-289.343"/>
<text text-anchor="start" x="399.5" y="-296.143" font-family="Times,serif" font-size="14.00">u1</text>
<polygon fill="none" stroke="black" points="457.5,-289.343 457.5,-310.343 516.5,-310.343 516.5,-289.343 457.5,-289.343"/>
<text text-anchor="start" x="460.5" y="-296.143" font-family="Times,serif" font-size="14.00">version</text>
</g>
<!-- tsm__seq&#45;&gt;header__seq -->
<g id="edge1" class="edge"><title>tsm__seq:header_type&#45;&gt;header__seq</title>
<path fill="none" stroke="black" stroke-width="2" d="M225.5,-321.343C241.996,-321.343 259.347,-321.343 276.489,-321.343"/>
<polygon fill="black" stroke="black" stroke-width="2" points="276.55,-324.843 286.55,-321.343 276.55,-317.843 276.55,-324.843"/>
</g>
<!-- tsm__inst__index -->
<g id="node2" class="node"><title>tsm__inst__index</title>
<polygon fill="#e0ffe0" stroke="none" points="24.5,-133.343 24.5,-154.343 116.5,-154.343 116.5,-133.343 24.5,-133.343"/>
<polygon fill="none" stroke="black" points="24.5,-133.343 24.5,-154.343 116.5,-154.343 116.5,-133.343 24.5,-133.343"/>
<text text-anchor="start" x="58" y="-140.143" font-family="Times,serif" font-size="14.00">pos</text>
<polygon fill="#e0ffe0" stroke="none" points="116.5,-133.343 116.5,-154.343 150.5,-154.343 150.5,-133.343 116.5,-133.343"/>
<polygon fill="none" stroke="black" points="116.5,-133.343 116.5,-154.343 150.5,-154.343 150.5,-133.343 116.5,-133.343"/>
<text text-anchor="start" x="119.5" y="-140.143" font-family="Times,serif" font-size="14.00">size</text>
<polygon fill="#e0ffe0" stroke="none" points="150.5,-133.343 150.5,-154.343 197.5,-154.343 197.5,-133.343 150.5,-133.343"/>
<polygon fill="none" stroke="black" points="150.5,-133.343 150.5,-154.343 197.5,-154.343 197.5,-133.343 150.5,-133.343"/>
<text text-anchor="start" x="158" y="-140.143" font-family="Times,serif" font-size="14.00">type</text>
<polygon fill="#e0ffe0" stroke="none" points="197.5,-133.343 197.5,-154.343 243.5,-154.343 243.5,-133.343 197.5,-133.343"/>
<polygon fill="none" stroke="black" points="197.5,-133.343 197.5,-154.343 243.5,-154.343 243.5,-133.343 197.5,-133.343"/>
<text text-anchor="start" x="213.5" y="-140.143" font-family="Times,serif" font-size="14.00">id</text>
<polygon fill="none" stroke="black" points="24.5,-112.343 24.5,-133.343 116.5,-133.343 116.5,-112.343 24.5,-112.343"/>
<text text-anchor="start" x="27.5" y="-119.143" font-family="Times,serif" font-size="14.00">(_io.size &#45; 8)</text>
<polygon fill="none" stroke="black" points="116.5,-112.343 116.5,-133.343 150.5,-133.343 150.5,-112.343 116.5,-112.343"/>
<text text-anchor="start" x="128.5" y="-119.143" font-family="Times,serif" font-size="14.00">8</text>
<polygon fill="none" stroke="black" points="150.5,-112.343 150.5,-133.343 197.5,-133.343 197.5,-112.343 150.5,-112.343"/>
<text text-anchor="start" x="153.5" y="-119.143" font-family="Times,serif" font-size="14.00">Index</text>
<polygon fill="none" stroke="black" points="197.5,-112.343 197.5,-133.343 243.5,-133.343 243.5,-112.343 197.5,-112.343"/>
<text text-anchor="start" x="200.5" y="-119.143" font-family="Times,serif" font-size="14.00">index</text>
</g>
<!-- index__seq -->
<g id="node4" class="node"><title>index__seq</title>
<polygon fill="#e0ffe0" stroke="none" points="328.5,-122.343 328.5,-143.343 359.5,-143.343 359.5,-122.343 328.5,-122.343"/>
<polygon fill="none" stroke="black" points="328.5,-122.343 328.5,-143.343 359.5,-143.343 359.5,-122.343 328.5,-122.343"/>
<text text-anchor="start" x="331.5" y="-129.143" font-family="Times,serif" font-size="14.00">pos</text>
<polygon fill="#e0ffe0" stroke="none" points="359.5,-122.343 359.5,-143.343 393.5,-143.343 393.5,-122.343 359.5,-122.343"/>
<polygon fill="none" stroke="black" points="359.5,-122.343 359.5,-143.343 393.5,-143.343 393.5,-122.343 359.5,-122.343"/>
<text text-anchor="start" x="362.5" y="-129.143" font-family="Times,serif" font-size="14.00">size</text>
<polygon fill="#e0ffe0" stroke="none" points="393.5,-122.343 393.5,-143.343 435.5,-143.343 435.5,-122.343 393.5,-122.343"/>
<polygon fill="none" stroke="black" points="393.5,-122.343 393.5,-143.343 435.5,-143.343 435.5,-122.343 393.5,-122.343"/>
<text text-anchor="start" x="398.5" y="-129.143" font-family="Times,serif" font-size="14.00">type</text>
<polygon fill="#e0ffe0" stroke="none" points="435.5,-122.343 435.5,-143.343 482.5,-143.343 482.5,-122.343 435.5,-122.343"/>
<polygon fill="none" stroke="black" points="435.5,-122.343 435.5,-143.343 482.5,-143.343 482.5,-122.343 435.5,-122.343"/>
<text text-anchor="start" x="452" y="-129.143" font-family="Times,serif" font-size="14.00">id</text>
<polygon fill="none" stroke="black" points="328.5,-101.343 328.5,-122.343 359.5,-122.343 359.5,-101.343 328.5,-101.343"/>
<text text-anchor="start" x="339" y="-108.143" font-family="Times,serif" font-size="14.00">0</text>
<polygon fill="none" stroke="black" points="359.5,-101.343 359.5,-122.343 393.5,-122.343 393.5,-101.343 359.5,-101.343"/>
<text text-anchor="start" x="371.5" y="-108.143" font-family="Times,serif" font-size="14.00">8</text>
<polygon fill="none" stroke="black" points="393.5,-101.343 393.5,-122.343 435.5,-122.343 435.5,-101.343 393.5,-101.343"/>
<text text-anchor="start" x="396.5" y="-108.143" font-family="Times,serif" font-size="14.00">u8be</text>
<polygon fill="none" stroke="black" points="435.5,-101.343 435.5,-122.343 482.5,-122.343 482.5,-101.343 435.5,-101.343"/>
<text text-anchor="start" x="438.5" y="-108.143" font-family="Times,serif" font-size="14.00">offset</text>
</g>
<!-- tsm__inst__index&#45;&gt;index__seq -->
<g id="edge2" class="edge"><title>tsm__inst__index:index_type&#45;&gt;index__seq</title>
<path fill="none" stroke="black" stroke-width="2" d="M244.5,-122.343C265.722,-122.343 288.528,-122.343 310.082,-122.343"/>
<polygon fill="black" stroke="black" stroke-width="2" points="310.217,-125.843 320.217,-122.343 310.217,-118.843 310.217,-125.843"/>
</g>
<!-- index__inst__entries -->
<g id="node5" class="node"><title>index__inst__entries</title>
<polygon fill="#e0ffe0" stroke="none" points="568.5,-122.343 568.5,-143.343 627.5,-143.343 627.5,-122.343 568.5,-122.343"/>
<polygon fill="none" stroke="black" points="568.5,-122.343 568.5,-143.343 627.5,-143.343 627.5,-122.343 568.5,-122.343"/>
<text text-anchor="start" x="585.5" y="-129.143" font-family="Times,serif" font-size="14.00">pos</text>
<polygon fill="#e0ffe0" stroke="none" points="627.5,-122.343 627.5,-143.343 667.5,-143.343 667.5,-122.343 627.5,-122.343"/>
<polygon fill="none" stroke="black" points="627.5,-122.343 627.5,-143.343 667.5,-143.343 667.5,-122.343 627.5,-122.343"/>
<text text-anchor="start" x="633.5" y="-129.143" font-family="Times,serif" font-size="14.00">size</text>
<polygon fill="#e0ffe0" stroke="none" points="667.5,-122.343 667.5,-143.343 770.5,-143.343 770.5,-122.343 667.5,-122.343"/>
<polygon fill="none" stroke="black" points="667.5,-122.343 667.5,-143.343 770.5,-143.343 770.5,-122.343 667.5,-122.343"/>
<text text-anchor="start" x="703" y="-129.143" font-family="Times,serif" font-size="14.00">type</text>
<polygon fill="#e0ffe0" stroke="none" points="770.5,-122.343 770.5,-143.343 831.5,-143.343 831.5,-122.343 770.5,-122.343"/>
<polygon fill="none" stroke="black" points="770.5,-122.343 770.5,-143.343 831.5,-143.343 831.5,-122.343 770.5,-122.343"/>
<text text-anchor="start" x="794" y="-129.143" font-family="Times,serif" font-size="14.00">id</text>
<polygon fill="none" stroke="black" points="568.5,-101.343 568.5,-122.343 627.5,-122.343 627.5,-101.343 568.5,-101.343"/>
<text text-anchor="start" x="577.5" y="-108.143" font-family="Times,serif" font-size="14.00">offset</text>
<polygon fill="none" stroke="black" points="627.5,-101.343 627.5,-122.343 667.5,-122.343 667.5,-101.343 627.5,-101.343"/>
<text text-anchor="start" x="640.5" y="-108.143" font-family="Times,serif" font-size="14.00">...</text>
<polygon fill="none" stroke="black" points="667.5,-101.343 667.5,-122.343 770.5,-122.343 770.5,-101.343 667.5,-101.343"/>
<text text-anchor="start" x="672" y="-108.143" font-family="Times,serif" font-size="14.00">IndexHeader</text>
<polygon fill="none" stroke="black" points="770.5,-101.343 770.5,-122.343 831.5,-122.343 831.5,-101.343 770.5,-101.343"/>
<text text-anchor="start" x="775.5" y="-108.143" font-family="Times,serif" font-size="14.00">entries</text>
<polygon fill="none" stroke="black" points="568.5,-80.3433 568.5,-101.343 831.5,-101.343 831.5,-80.3433 568.5,-80.3433"/>
<text text-anchor="start" x="571.5" y="-87.1433" font-family="Times,serif" font-size="14.00">repeat until _io.pos == (_io.size &#45; 8)</text>
</g>
<!-- index__seq&#45;&gt;index__inst__entries -->
<g id="edge3" class="edge"><title>index__seq:offset_type&#45;&gt;index__inst__entries:entries_pos</title>
<path fill="none" stroke="#404040" d="M483.5,-111.343C517.188,-111.343 528.077,-111.343 557.311,-111.343"/>
<polygon fill="#404040" stroke="#404040" points="557.5,-114.843 567.5,-111.343 557.5,-107.843 557.5,-114.843"/>
</g>
<!-- index_header__seq -->
<g id="node6" class="node"><title>index_header__seq</title>
<polygon fill="#e0ffe0" stroke="none" points="883.5,-163.343 883.5,-184.343 914.5,-184.343 914.5,-163.343 883.5,-163.343"/>
<polygon fill="none" stroke="black" points="883.5,-163.343 883.5,-184.343 914.5,-184.343 914.5,-163.343 883.5,-163.343"/>
<text text-anchor="start" x="886.5" y="-170.143" font-family="Times,serif" font-size="14.00">pos</text>
<polygon fill="#e0ffe0" stroke="none" points="914.5,-163.343 914.5,-184.343 975.5,-184.343 975.5,-163.343 914.5,-163.343"/>
<polygon fill="none" stroke="black" points="914.5,-163.343 914.5,-184.343 975.5,-184.343 975.5,-163.343 914.5,-163.343"/>
<text text-anchor="start" x="931" y="-170.143" font-family="Times,serif" font-size="14.00">size</text>
<polygon fill="#e0ffe0" stroke="none" points="975.5,-163.343 975.5,-184.343 1063.5,-184.343 1063.5,-163.343 975.5,-163.343"/>
<polygon fill="none" stroke="black" points="975.5,-163.343 975.5,-184.343 1063.5,-184.343 1063.5,-163.343 975.5,-163.343"/>
<text text-anchor="start" x="1003.5" y="-170.143" font-family="Times,serif" font-size="14.00">type</text>
<polygon fill="#e0ffe0" stroke="none" points="1063.5,-163.343 1063.5,-184.343 1166.5,-184.343 1166.5,-163.343 1063.5,-163.343"/>
<polygon fill="none" stroke="black" points="1063.5,-163.343 1063.5,-184.343 1166.5,-184.343 1166.5,-163.343 1063.5,-163.343"/>
<text text-anchor="start" x="1108" y="-170.143" font-family="Times,serif" font-size="14.00">id</text>
<polygon fill="none" stroke="black" points="883.5,-142.343 883.5,-163.343 914.5,-163.343 914.5,-142.343 883.5,-142.343"/>
<text text-anchor="start" x="894" y="-149.143" font-family="Times,serif" font-size="14.00">0</text>
<polygon fill="none" stroke="black" points="914.5,-142.343 914.5,-163.343 975.5,-163.343 975.5,-142.343 914.5,-142.343"/>
<text text-anchor="start" x="940" y="-149.143" font-family="Times,serif" font-size="14.00">2</text>
<polygon fill="none" stroke="black" points="975.5,-142.343 975.5,-163.343 1063.5,-163.343 1063.5,-142.343 975.5,-142.343"/>
<text text-anchor="start" x="1001.5" y="-149.143" font-family="Times,serif" font-size="14.00">u2be</text>
<polygon fill="none" stroke="black" points="1063.5,-142.343 1063.5,-163.343 1166.5,-163.343 1166.5,-142.343 1063.5,-142.343"/>
<text text-anchor="start" x="1087.5" y="-149.143" font-family="Times,serif" font-size="14.00">key_len</text>
<polygon fill="none" stroke="black" points="883.5,-121.343 883.5,-142.343 914.5,-142.343 914.5,-121.343 883.5,-121.343"/>
<text text-anchor="start" x="894" y="-128.143" font-family="Times,serif" font-size="14.00">2</text>
<polygon fill="none" stroke="black" points="914.5,-121.343 914.5,-142.343 975.5,-142.343 975.5,-121.343 914.5,-121.343"/>
<text text-anchor="start" x="917.5" y="-128.143" font-family="Times,serif" font-size="14.00">key_len</text>
<polygon fill="none" stroke="black" points="975.5,-121.343 975.5,-142.343 1063.5,-142.343 1063.5,-121.343 975.5,-121.343"/>
<text text-anchor="start" x="981.5" y="-128.143" font-family="Times,serif" font-size="14.00">str(UTF&#45;8)</text>
<polygon fill="none" stroke="black" points="1063.5,-121.343 1063.5,-142.343 1166.5,-142.343 1166.5,-121.343 1063.5,-121.343"/>
<text text-anchor="start" x="1102" y="-128.143" font-family="Times,serif" font-size="14.00">key</text>
<polygon fill="none" stroke="black" points="883.5,-100.343 883.5,-121.343 914.5,-121.343 914.5,-100.343 883.5,-100.343"/>
<text text-anchor="start" x="892" y="-107.143" font-family="Times,serif" font-size="14.00">...</text>
<polygon fill="none" stroke="black" points="914.5,-100.343 914.5,-121.343 975.5,-121.343 975.5,-100.343 914.5,-100.343"/>
<text text-anchor="start" x="940" y="-107.143" font-family="Times,serif" font-size="14.00">1</text>
<polygon fill="none" stroke="black" points="975.5,-100.343 975.5,-121.343 1063.5,-121.343 1063.5,-100.343 975.5,-100.343"/>
<text text-anchor="start" x="1010" y="-107.143" font-family="Times,serif" font-size="14.00">u1</text>
<polygon fill="none" stroke="black" points="1063.5,-100.343 1063.5,-121.343 1166.5,-121.343 1166.5,-100.343 1063.5,-100.343"/>
<text text-anchor="start" x="1099" y="-107.143" font-family="Times,serif" font-size="14.00">type</text>
<polygon fill="none" stroke="black" points="883.5,-79.3433 883.5,-100.343 914.5,-100.343 914.5,-79.3433 883.5,-79.3433"/>
<text text-anchor="start" x="892" y="-86.1433" font-family="Times,serif" font-size="14.00">...</text>
<polygon fill="none" stroke="black" points="914.5,-79.3433 914.5,-100.343 975.5,-100.343 975.5,-79.3433 914.5,-79.3433"/>
<text text-anchor="start" x="940" y="-86.1433" font-family="Times,serif" font-size="14.00">2</text>
<polygon fill="none" stroke="black" points="975.5,-79.3433 975.5,-100.343 1063.5,-100.343 1063.5,-79.3433 975.5,-79.3433"/>
<text text-anchor="start" x="1001.5" y="-86.1433" font-family="Times,serif" font-size="14.00">u2be</text>
<polygon fill="none" stroke="black" points="1063.5,-79.3433 1063.5,-100.343 1166.5,-100.343 1166.5,-79.3433 1063.5,-79.3433"/>
<text text-anchor="start" x="1071.5" y="-86.1433" font-family="Times,serif" font-size="14.00">entry_count</text>
<polygon fill="none" stroke="black" points="883.5,-58.3433 883.5,-79.3433 914.5,-79.3433 914.5,-58.3433 883.5,-58.3433"/>
<text text-anchor="start" x="892" y="-65.1433" font-family="Times,serif" font-size="14.00">...</text>
<polygon fill="none" stroke="black" points="914.5,-58.3433 914.5,-79.3433 975.5,-79.3433 975.5,-58.3433 914.5,-58.3433"/>
<text text-anchor="start" x="935.5" y="-65.1433" font-family="Times,serif" font-size="14.00">28</text>
<polygon fill="none" stroke="black" points="975.5,-58.3433 975.5,-79.3433 1063.5,-79.3433 1063.5,-58.3433 975.5,-58.3433"/>
<text text-anchor="start" x="978.5" y="-65.1433" font-family="Times,serif" font-size="14.00">IndexEntry</text>
<polygon fill="none" stroke="black" points="1063.5,-58.3433 1063.5,-79.3433 1166.5,-79.3433 1166.5,-58.3433 1063.5,-58.3433"/>
<text text-anchor="start" x="1066.5" y="-65.1433" font-family="Times,serif" font-size="14.00">index_entries</text>
<polygon fill="none" stroke="black" points="883.5,-37.3433 883.5,-58.3433 1166.5,-58.3433 1166.5,-37.3433 883.5,-37.3433"/>
<text text-anchor="start" x="934" y="-44.1433" font-family="Times,serif" font-size="14.00">repeat entry_count times</text>
</g>
<!-- index__inst__entries&#45;&gt;index_header__seq -->
<g id="edge4" class="edge"><title>index__inst__entries:entries_type&#45;&gt;index_header__seq</title>
<path fill="none" stroke="black" stroke-width="2" d="M832.5,-111.343C843.036,-111.343 853.899,-111.343 864.845,-111.343"/>
<polygon fill="black" stroke="black" stroke-width="2" points="864.915,-114.843 874.915,-111.343 864.914,-107.843 864.915,-114.843"/>
</g>
<!-- index_header__seq&#45;&gt;index_header__seq -->
<g id="edge5" class="edge"><title>index_header__seq:key_len_type&#45;&gt;index_header__seq:key_size</title>
<path fill="none" stroke="#404040" d="M1136.87,-163.409C1187.1,-189.657 1171.61,-206.843 1030,-206.843 896.089,-206.843 874.959,-176.579 915.532,-148.012"/>
<polygon fill="#404040" stroke="#404040" points="917.589,-150.851 924.132,-142.518 913.821,-144.952 917.589,-150.851"/>
</g>
<!-- index_header__seq&#45;&gt;index_header__seq -->
<g id="edge7" class="edge"><title>index_header__seq:entry_count_type&#45;&gt;index_header__seq:index_entries__repeat</title>
<path fill="none" stroke="#404040" d="M1063.45,-92.5655C940.703,-97.7417 728,-94.0952 728,-68.3433 728,-50.7354 796.438,-43.4621 872.96,-42.2774"/>
<polygon fill="#404040" stroke="#404040" points="873.353,-45.7731 883.311,-42.1543 873.27,-38.7736 873.353,-45.7731"/>
</g>
<!-- index_entry__seq -->
<g id="node7" class="node"><title>index_entry__seq</title>
<polygon fill="#e0ffe0" stroke="none" points="1218.5,-129.343 1218.5,-150.343 1249.5,-150.343 1249.5,-129.343 1218.5,-129.343"/>
<polygon fill="none" stroke="black" points="1218.5,-129.343 1218.5,-150.343 1249.5,-150.343 1249.5,-129.343 1218.5,-129.343"/>
<text text-anchor="start" x="1221.5" y="-136.143" font-family="Times,serif" font-size="14.00">pos</text>
<polygon fill="#e0ffe0" stroke="none" points="1249.5,-129.343 1249.5,-150.343 1283.5,-150.343 1283.5,-129.343 1249.5,-129.343"/>
<polygon fill="none" stroke="black" points="1249.5,-129.343 1249.5,-150.343 1283.5,-150.343 1283.5,-129.343 1249.5,-129.343"/>
<text text-anchor="start" x="1252.5" y="-136.143" font-family="Times,serif" font-size="14.00">size</text>
<polygon fill="#e0ffe0" stroke="none" points="1283.5,-129.343 1283.5,-150.343 1325.5,-150.343 1325.5,-129.343 1283.5,-129.343"/>
<polygon fill="none" stroke="black" points="1283.5,-129.343 1283.5,-150.343 1325.5,-150.343 1325.5,-129.343 1283.5,-129.343"/>
<text text-anchor="start" x="1288.5" y="-136.143" font-family="Times,serif" font-size="14.00">type</text>
<polygon fill="#e0ffe0" stroke="none" points="1325.5,-129.343 1325.5,-150.343 1419.5,-150.343 1419.5,-129.343 1325.5,-129.343"/>
<polygon fill="none" stroke="black" points="1325.5,-129.343 1325.5,-150.343 1419.5,-150.343 1419.5,-129.343 1325.5,-129.343"/>
<text text-anchor="start" x="1365.5" y="-136.143" font-family="Times,serif" font-size="14.00">id</text>
<polygon fill="none" stroke="black" points="1218.5,-108.343 1218.5,-129.343 1249.5,-129.343 1249.5,-108.343 1218.5,-108.343"/>
<text text-anchor="start" x="1229" y="-115.143" font-family="Times,serif" font-size="14.00">0</text>
<polygon fill="none" stroke="black" points="1249.5,-108.343 1249.5,-129.343 1283.5,-129.343 1283.5,-108.343 1249.5,-108.343"/>
<text text-anchor="start" x="1261.5" y="-115.143" font-family="Times,serif" font-size="14.00">8</text>
<polygon fill="none" stroke="black" points="1283.5,-108.343 1283.5,-129.343 1325.5,-129.343 1325.5,-108.343 1283.5,-108.343"/>
<text text-anchor="start" x="1286.5" y="-115.143" font-family="Times,serif" font-size="14.00">u8be</text>
<polygon fill="none" stroke="black" points="1325.5,-108.343 1325.5,-129.343 1419.5,-129.343 1419.5,-108.343 1325.5,-108.343"/>
<text text-anchor="start" x="1339" y="-115.143" font-family="Times,serif" font-size="14.00">min_time</text>
<polygon fill="none" stroke="black" points="1218.5,-87.3433 1218.5,-108.343 1249.5,-108.343 1249.5,-87.3433 1218.5,-87.3433"/>
<text text-anchor="start" x="1229" y="-94.1433" font-family="Times,serif" font-size="14.00">8</text>
<polygon fill="none" stroke="black" points="1249.5,-87.3433 1249.5,-108.343 1283.5,-108.343 1283.5,-87.3433 1249.5,-87.3433"/>
<text text-anchor="start" x="1261.5" y="-94.1433" font-family="Times,serif" font-size="14.00">8</text>
<polygon fill="none" stroke="black" points="1283.5,-87.3433 1283.5,-108.343 1325.5,-108.343 1325.5,-87.3433 1283.5,-87.3433"/>
<text text-anchor="start" x="1286.5" y="-94.1433" font-family="Times,serif" font-size="14.00">u8be</text>
<polygon fill="none" stroke="black" points="1325.5,-87.3433 1325.5,-108.343 1419.5,-108.343 1419.5,-87.3433 1325.5,-87.3433"/>
<text text-anchor="start" x="1337.5" y="-94.1433" font-family="Times,serif" font-size="14.00">max_time</text>
<polygon fill="none" stroke="black" points="1218.5,-66.3433 1218.5,-87.3433 1249.5,-87.3433 1249.5,-66.3433 1218.5,-66.3433"/>
<text text-anchor="start" x="1224.5" y="-73.1433" font-family="Times,serif" font-size="14.00">16</text>
<polygon fill="none" stroke="black" points="1249.5,-66.3433 1249.5,-87.3433 1283.5,-87.3433 1283.5,-66.3433 1249.5,-66.3433"/>
<text text-anchor="start" x="1261.5" y="-73.1433" font-family="Times,serif" font-size="14.00">8</text>
<polygon fill="none" stroke="black" points="1283.5,-66.3433 1283.5,-87.3433 1325.5,-87.3433 1325.5,-66.3433 1283.5,-66.3433"/>
<text text-anchor="start" x="1286.5" y="-73.1433" font-family="Times,serif" font-size="14.00">u8be</text>
<polygon fill="none" stroke="black" points="1325.5,-66.3433 1325.5,-87.3433 1419.5,-87.3433 1419.5,-66.3433 1325.5,-66.3433"/>
<text text-anchor="start" x="1328.5" y="-73.1433" font-family="Times,serif" font-size="14.00">block_offset</text>
<polygon fill="none" stroke="black" points="1218.5,-45.3433 1218.5,-66.3433 1249.5,-66.3433 1249.5,-45.3433 1218.5,-45.3433"/>
<text text-anchor="start" x="1224.5" y="-52.1433" font-family="Times,serif" font-size="14.00">24</text>
<polygon fill="none" stroke="black" points="1249.5,-45.3433 1249.5,-66.3433 1283.5,-66.3433 1283.5,-45.3433 1249.5,-45.3433"/>
<text text-anchor="start" x="1261.5" y="-52.1433" font-family="Times,serif" font-size="14.00">4</text>
<polygon fill="none" stroke="black" points="1283.5,-45.3433 1283.5,-66.3433 1325.5,-66.3433 1325.5,-45.3433 1283.5,-45.3433"/>
<text text-anchor="start" x="1286.5" y="-52.1433" font-family="Times,serif" font-size="14.00">u4be</text>
<polygon fill="none" stroke="black" points="1325.5,-45.3433 1325.5,-66.3433 1419.5,-66.3433 1419.5,-45.3433 1325.5,-45.3433"/>
<text text-anchor="start" x="1335" y="-52.1433" font-family="Times,serif" font-size="14.00">block_size</text>
</g>
<!-- index_header__seq&#45;&gt;index_entry__seq -->
<g id="edge6" class="edge"><title>index_header__seq:index_entries_type&#45;&gt;index_entry__seq</title>
<path fill="none" stroke="black" stroke-width="2" d="M1167.5,-68.3433C1178.07,-68.3433 1188.99,-69.0688 1199.88,-70.2943"/>
<polygon fill="black" stroke="black" stroke-width="2" points="1199.5,-73.7747 1209.86,-71.5538 1200.38,-66.8297 1199.5,-73.7747"/>
</g>
<!-- index_entry__inst__block -->
<g id="node8" class="node"><title>index_entry__inst__block</title>
<polygon fill="#e0ffe0" stroke="none" points="1471,-98.3433 1471,-119.343 1565,-119.343 1565,-98.3433 1471,-98.3433"/>
<polygon fill="none" stroke="black" points="1471,-98.3433 1471,-119.343 1565,-119.343 1565,-98.3433 1471,-98.3433"/>
<text text-anchor="start" x="1505.5" y="-105.143" font-family="Times,serif" font-size="14.00">pos</text>
<polygon fill="#e0ffe0" stroke="none" points="1565,-98.3433 1565,-119.343 1599,-119.343 1599,-98.3433 1565,-98.3433"/>
<polygon fill="none" stroke="black" points="1565,-98.3433 1565,-119.343 1599,-119.343 1599,-98.3433 1565,-98.3433"/>
<text text-anchor="start" x="1568" y="-105.143" font-family="Times,serif" font-size="14.00">size</text>
<polygon fill="#e0ffe0" stroke="none" points="1599,-98.3433 1599,-119.343 1687,-119.343 1687,-98.3433 1599,-98.3433"/>
<polygon fill="none" stroke="black" points="1599,-98.3433 1599,-119.343 1687,-119.343 1687,-98.3433 1599,-98.3433"/>
<text text-anchor="start" x="1627" y="-105.143" font-family="Times,serif" font-size="14.00">type</text>
<polygon fill="#e0ffe0" stroke="none" points="1687,-98.3433 1687,-119.343 1733,-119.343 1733,-98.3433 1687,-98.3433"/>
<polygon fill="none" stroke="black" points="1687,-98.3433 1687,-119.343 1733,-119.343 1733,-98.3433 1687,-98.3433"/>
<text text-anchor="start" x="1703" y="-105.143" font-family="Times,serif" font-size="14.00">id</text>
<polygon fill="none" stroke="black" points="1471,-77.3433 1471,-98.3433 1565,-98.3433 1565,-77.3433 1471,-77.3433"/>
<text text-anchor="start" x="1474" y="-84.1433" font-family="Times,serif" font-size="14.00">block_offset</text>
<polygon fill="none" stroke="black" points="1565,-77.3433 1565,-98.3433 1599,-98.3433 1599,-77.3433 1565,-77.3433"/>
<text text-anchor="start" x="1575" y="-84.1433" font-family="Times,serif" font-size="14.00">...</text>
<polygon fill="none" stroke="black" points="1599,-77.3433 1599,-98.3433 1687,-98.3433 1687,-77.3433 1599,-77.3433"/>
<text text-anchor="start" x="1602" y="-84.1433" font-family="Times,serif" font-size="14.00">BlockEntry</text>
<polygon fill="none" stroke="black" points="1687,-77.3433 1687,-98.3433 1733,-98.3433 1733,-77.3433 1687,-77.3433"/>
<text text-anchor="start" x="1690" y="-84.1433" font-family="Times,serif" font-size="14.00">block</text>
</g>
<!-- index_entry__seq&#45;&gt;index_entry__inst__block -->
<g id="edge8" class="edge"><title>index_entry__seq:block_offset_type&#45;&gt;index_entry__inst__block:block_pos</title>
<path fill="none" stroke="#404040" d="M1420.5,-76.3433C1439.16,-76.3433 1445.41,-83.887 1459.8,-86.4801"/>
<polygon fill="#404040" stroke="#404040" points="1459.74,-89.9874 1470,-87.3433 1460.33,-83.0124 1459.74,-89.9874"/>
</g>
<!-- block_entry__seq -->
<g id="node9" class="node"><title>block_entry__seq</title>
<polygon fill="#e0ffe0" stroke="none" points="1843,-96.3433 1843,-117.343 1874,-117.343 1874,-96.3433 1843,-96.3433"/>
<polygon fill="none" stroke="black" points="1843,-96.3433 1843,-117.343 1874,-117.343 1874,-96.3433 1843,-96.3433"/>
<text text-anchor="start" x="1846" y="-103.143" font-family="Times,serif" font-size="14.00">pos</text>
<polygon fill="#e0ffe0" stroke="none" points="1874,-96.3433 1874,-117.343 2047,-117.343 2047,-96.3433 1874,-96.3433"/>
<polygon fill="none" stroke="black" points="1874,-96.3433 1874,-117.343 2047,-117.343 2047,-96.3433 1874,-96.3433"/>
<text text-anchor="start" x="1946.5" y="-103.143" font-family="Times,serif" font-size="14.00">size</text>
<polygon fill="#e0ffe0" stroke="none" points="2047,-96.3433 2047,-117.343 2089,-117.343 2089,-96.3433 2047,-96.3433"/>
<polygon fill="none" stroke="black" points="2047,-96.3433 2047,-117.343 2089,-117.343 2089,-96.3433 2047,-96.3433"/>
<text text-anchor="start" x="2052" y="-103.143" font-family="Times,serif" font-size="14.00">type</text>
<polygon fill="#e0ffe0" stroke="none" points="2089,-96.3433 2089,-117.343 2137,-117.343 2137,-96.3433 2089,-96.3433"/>
<polygon fill="none" stroke="black" points="2089,-96.3433 2089,-117.343 2137,-117.343 2137,-96.3433 2089,-96.3433"/>
<text text-anchor="start" x="2106" y="-103.143" font-family="Times,serif" font-size="14.00">id</text>
<polygon fill="none" stroke="black" points="1843,-75.3433 1843,-96.3433 1874,-96.3433 1874,-75.3433 1843,-75.3433"/>
<text text-anchor="start" x="1853.5" y="-82.1433" font-family="Times,serif" font-size="14.00">0</text>
<polygon fill="none" stroke="black" points="1874,-75.3433 1874,-96.3433 2047,-96.3433 2047,-75.3433 1874,-75.3433"/>
<text text-anchor="start" x="1955.5" y="-82.1433" font-family="Times,serif" font-size="14.00">4</text>
<polygon fill="none" stroke="black" points="2047,-75.3433 2047,-96.3433 2089,-96.3433 2089,-75.3433 2047,-75.3433"/>
<text text-anchor="start" x="2050" y="-82.1433" font-family="Times,serif" font-size="14.00">u4be</text>
<polygon fill="none" stroke="black" points="2089,-75.3433 2089,-96.3433 2137,-96.3433 2137,-75.3433 2089,-75.3433"/>
<text text-anchor="start" x="2092" y="-82.1433" font-family="Times,serif" font-size="14.00">crc32</text>
<polygon fill="none" stroke="black" points="1843,-54.3433 1843,-75.3433 1874,-75.3433 1874,-54.3433 1843,-54.3433"/>
<text text-anchor="start" x="1853.5" y="-61.1433" font-family="Times,serif" font-size="14.00">4</text>
<polygon fill="none" stroke="black" points="1874,-54.3433 1874,-75.3433 2047,-75.3433 2047,-54.3433 1874,-54.3433"/>
<text text-anchor="start" x="1877" y="-61.1433" font-family="Times,serif" font-size="14.00">(_parent.block_size &#45; 4)</text>
<polygon fill="none" stroke="black" points="2047,-54.3433 2047,-75.3433 2089,-75.3433 2089,-54.3433 2047,-54.3433"/>
<polygon fill="none" stroke="black" points="2089,-54.3433 2089,-75.3433 2137,-75.3433 2137,-54.3433 2089,-54.3433"/>
<text text-anchor="start" x="2097" y="-61.1433" font-family="Times,serif" font-size="14.00">data</text>
</g>
<!-- index_entry__seq&#45;&gt;block_entry__seq -->
<g id="edge10" class="edge"><title>index_entry__seq:block_size_type&#45;&gt;block_entry__seq:data_size</title>
<path fill="none" stroke="#404040" d="M1420.5,-55.3433C1536.76,-55.3433 1934.87,59.2781 1958.87,-43.1095"/>
<polygon fill="#404040" stroke="#404040" points="1955.42,-43.7895 1960,-53.3433 1962.38,-43.0187 1955.42,-43.7895"/>
</g>
<!-- index_entry__inst__block&#45;&gt;block_entry__seq -->
<g id="edge9" class="edge"><title>index_entry__inst__block:block_type&#45;&gt;block_entry__seq</title>
<path fill="none" stroke="black" stroke-width="2" d="M1734,-87.3433C1763.33,-87.3433 1794.57,-87.2763 1824.75,-87.177"/>
<polygon fill="black" stroke="black" stroke-width="2" points="1824.95,-90.6764 1834.94,-87.1421 1824.93,-83.6764 1824.95,-90.6764"/>
</g>
</g>
</svg>
