<?xml version="1.0" encoding="UTF-8" standalone="no"?>
<!DOCTYPE svg PUBLIC "-//W3C//DTD SVG 1.1//EN"
 "http://www.w3.org/Graphics/SVG/1.1/DTD/svg11.dtd">
<!-- Generated by graphviz version 2.38.0 (20140413.2041)
 -->
<!-- Title: %3 Pages: 1 -->
<svg width="681pt" height="278pt"
 viewBox="0.00 0.00 681.00 278.00" xmlns="http://www.w3.org/2000/svg" xmlns:xlink="http://www.w3.org/1999/xlink">
<g id="graph0" class="graph" transform="scale(1 1) rotate(0) translate(4 274)">
<title>%3</title>
<polygon fill="white" stroke="none" points="-4,4 -4,-274 677,-274 677,4 -4,4"/>
<g id="clust1" class="cluster"><title>cluster__id3v1_1</title>
<polygon fill="none" stroke="black" stroke-dasharray="1,5" points="8,-8 8,-262 665,-262 665,-8 8,-8"/>
<text text-anchor="middle" x="336.5" y="-246.8" font-family="Times,serif" font-size="14.00">Id3v11</text>
</g>
<g id="clust2" class="cluster"><title>cluster__id3_v1_1_tag</title>
<polygon fill="none" stroke="black" stroke-dasharray="1,5" points="366,-16 366,-231 657,-231 657,-16 366,-16"/>
<text text-anchor="middle" x="511.5" y="-215.8" font-family="Times,serif" font-size="14.00">Id3v11::Id3V11Tag</text>
</g>
<!-- id3v1_1__seq -->
<g id="node1" class="node"><title>id3v1_1__seq</title>
<polygon fill="#e0ffe0" stroke="none" points="116,-187 116,-208 147,-208 147,-187 116,-187"/>
<polygon fill="none" stroke="black" points="116,-187 116,-208 147,-208 147,-187 116,-187"/>
<text text-anchor="start" x="119" y="-193.8" font-family="Times,serif" font-size="14.00">pos</text>
<polygon fill="#e0ffe0" stroke="none" points="147,-187 147,-208 181,-208 181,-187 147,-187"/>
<polygon fill="none" stroke="black" points="147,-187 147,-208 181,-208 181,-187 147,-187"/>
<text text-anchor="start" x="150" y="-193.8" font-family="Times,serif" font-size="14.00">size</text>
<polygon fill="#e0ffe0" stroke="none" points="181,-187 181,-208 219,-208 219,-187 181,-187"/>
<polygon fill="none" stroke="black" points="181,-187 181,-208 219,-208 219,-187 181,-187"/>
<text text-anchor="start" x="184" y="-193.8" font-family="Times,serif" font-size="14.00">type</text>
<polygon fill="#e0ffe0" stroke="none" points="219,-187 219,-208 239,-208 239,-187 219,-187"/>
<polygon fill="none" stroke="black" points="219,-187 219,-208 239,-208 239,-187 219,-187"/>
<text text-anchor="start" x="222" y="-193.8" font-family="Times,serif" font-size="14.00">id</text>
</g>
<!-- id3v1_1__inst__id3v1_tag -->
<g id="node2" class="node"><title>id3v1_1__inst__id3v1_tag</title>
<polygon fill="#e0ffe0" stroke="none" points="24,-123 24,-144 134,-144 134,-123 24,-123"/>
<polygon fill="none" stroke="black" points="24,-123 24,-144 134,-144 134,-123 24,-123"/>
<text text-anchor="start" x="66.5" y="-129.8" font-family="Times,serif" font-size="14.00">pos</text>
<polygon fill="#e0ffe0" stroke="none" points="134,-123 134,-144 168,-144 168,-123 134,-123"/>
<polygon fill="none" stroke="black" points="134,-123 134,-144 168,-144 168,-123 134,-123"/>
<text text-anchor="start" x="137" y="-129.8" font-family="Times,serif" font-size="14.00">size</text>
<polygon fill="#e0ffe0" stroke="none" points="168,-123 168,-144 253,-144 253,-123 168,-123"/>
<polygon fill="none" stroke="black" points="168,-123 168,-144 253,-144 253,-123 168,-123"/>
<text text-anchor="start" x="194.5" y="-129.8" font-family="Times,serif" font-size="14.00">type</text>
<polygon fill="#e0ffe0" stroke="none" points="253,-123 253,-144 330,-144 330,-123 253,-123"/>
<polygon fill="none" stroke="black" points="253,-123 253,-144 330,-144 330,-123 253,-123"/>
<text text-anchor="start" x="284.5" y="-129.8" font-family="Times,serif" font-size="14.00">id</text>
<polygon fill="none" stroke="black" points="24,-102 24,-123 134,-123 134,-102 24,-102"/>
<text text-anchor="start" x="27" y="-108.8" font-family="Times,serif" font-size="14.00">(_io.size &#45; 128)</text>
<polygon fill="none" stroke="black" points="134,-102 134,-123 168,-123 168,-102 134,-102"/>
<text text-anchor="start" x="137" y="-108.8" font-family="Times,serif" font-size="14.00">128</text>
<polygon fill="none" stroke="black" points="168,-102 168,-123 253,-123 253,-102 168,-102"/>
<text text-anchor="start" x="171" y="-108.8" font-family="Times,serif" font-size="14.00">Id3V11Tag</text>
<polygon fill="none" stroke="black" points="253,-102 253,-123 330,-123 330,-102 253,-102"/>
<text text-anchor="start" x="256" y="-108.8" font-family="Times,serif" font-size="14.00">id3v1_tag</text>
</g>
<!-- id3_v1_1_tag__seq -->
<g id="node3" class="node"><title>id3_v1_1_tag__seq</title>
<polygon fill="#e0ffe0" stroke="none" points="382.5,-175 382.5,-196 416.5,-196 416.5,-175 382.5,-175"/>
<polygon fill="none" stroke="black" points="382.5,-175 382.5,-196 416.5,-196 416.5,-175 382.5,-175"/>
<text text-anchor="start" x="387" y="-181.8" font-family="Times,serif" font-size="14.00">pos</text>
<polygon fill="#e0ffe0" stroke="none" points="416.5,-175 416.5,-196 450.5,-196 450.5,-175 416.5,-175"/>
<polygon fill="none" stroke="black" points="416.5,-175 416.5,-196 450.5,-196 450.5,-175 416.5,-175"/>
<text text-anchor="start" x="419.5" y="-181.8" font-family="Times,serif" font-size="14.00">size</text>
<polygon fill="#e0ffe0" stroke="none" points="450.5,-175 450.5,-196 568.5,-196 568.5,-175 450.5,-175"/>
<polygon fill="none" stroke="black" points="450.5,-175 450.5,-196 568.5,-196 568.5,-175 450.5,-175"/>
<text text-anchor="start" x="493.5" y="-181.8" font-family="Times,serif" font-size="14.00">type</text>
<polygon fill="#e0ffe0" stroke="none" points="568.5,-175 568.5,-196 641.5,-196 641.5,-175 568.5,-175"/>
<polygon fill="none" stroke="black" points="568.5,-175 568.5,-196 641.5,-196 641.5,-175 568.5,-175"/>
<text text-anchor="start" x="598" y="-181.8" font-family="Times,serif" font-size="14.00">id</text>
<polygon fill="none" stroke="black" points="382.5,-154 382.5,-175 416.5,-175 416.5,-154 382.5,-154"/>
<text text-anchor="start" x="394.5" y="-160.8" font-family="Times,serif" font-size="14.00">0</text>
<polygon fill="none" stroke="black" points="416.5,-154 416.5,-175 450.5,-175 450.5,-154 416.5,-154"/>
<text text-anchor="start" x="428.5" y="-160.8" font-family="Times,serif" font-size="14.00">3</text>
<polygon fill="none" stroke="black" points="450.5,-154 450.5,-175 568.5,-175 568.5,-154 450.5,-154"/>
<text text-anchor="start" x="477.5" y="-160.8" font-family="Times,serif" font-size="14.00">54 41 47</text>
<polygon fill="none" stroke="black" points="568.5,-154 568.5,-175 641.5,-175 641.5,-154 568.5,-154"/>
<text text-anchor="start" x="583" y="-160.8" font-family="Times,serif" font-size="14.00">magic</text>
<polygon fill="none" stroke="black" points="382.5,-133 382.5,-154 416.5,-154 416.5,-133 382.5,-133"/>
<text text-anchor="start" x="394.5" y="-139.8" font-family="Times,serif" font-size="14.00">3</text>
<polygon fill="none" stroke="black" points="416.5,-133 416.5,-154 450.5,-154 450.5,-133 416.5,-133"/>
<text text-anchor="start" x="424" y="-139.8" font-family="Times,serif" font-size="14.00">30</text>
<polygon fill="none" stroke="black" points="450.5,-133 450.5,-154 568.5,-154 568.5,-133 450.5,-133"/>
<polygon fill="none" stroke="black" points="568.5,-133 568.5,-154 641.5,-154 641.5,-133 568.5,-133"/>
<text text-anchor="start" x="590" y="-139.8" font-family="Times,serif" font-size="14.00">title</text>
<polygon fill="none" stroke="black" points="382.5,-112 382.5,-133 416.5,-133 416.5,-112 382.5,-112"/>
<text text-anchor="start" x="390" y="-118.8" font-family="Times,serif" font-size="14.00">33</text>
<polygon fill="none" stroke="black" points="416.5,-112 416.5,-133 450.5,-133 450.5,-112 416.5,-112"/>
<text text-anchor="start" x="424" y="-118.8" font-family="Times,serif" font-size="14.00">30</text>
<polygon fill="none" stroke="black" points="450.5,-112 450.5,-133 568.5,-133 568.5,-112 450.5,-112"/>
<polygon fill="none" stroke="black" points="568.5,-112 568.5,-133 641.5,-133 641.5,-112 568.5,-112"/>
<text text-anchor="start" x="585" y="-118.8" font-family="Times,serif" font-size="14.00">artist</text>
<polygon fill="none" stroke="black" points="382.5,-91 382.5,-112 416.5,-112 416.5,-91 382.5,-91"/>
<text text-anchor="start" x="390" y="-97.8" font-family="Times,serif" font-size="14.00">63</text>
<polygon fill="none" stroke="black" points="416.5,-91 416.5,-112 450.5,-112 450.5,-91 416.5,-91"/>
<text text-anchor="start" x="424" y="-97.8" font-family="Times,serif" font-size="14.00">30</text>
<polygon fill="none" stroke="black" points="450.5,-91 450.5,-112 568.5,-112 568.5,-91 450.5,-91"/>
<polygon fill="none" stroke="black" points="568.5,-91 568.5,-112 641.5,-112 641.5,-91 568.5,-91"/>
<text text-anchor="start" x="582.5" y="-97.8" font-family="Times,serif" font-size="14.00">album</text>
<polygon fill="none" stroke="black" points="382.5,-70 382.5,-91 416.5,-91 416.5,-70 382.5,-70"/>
<text text-anchor="start" x="390" y="-76.8" font-family="Times,serif" font-size="14.00">93</text>
<polygon fill="none" stroke="black" points="416.5,-70 416.5,-91 450.5,-91 450.5,-70 416.5,-70"/>
<text text-anchor="start" x="428.5" y="-76.8" font-family="Times,serif" font-size="14.00">4</text>
<polygon fill="none" stroke="black" points="450.5,-70 450.5,-91 568.5,-91 568.5,-70 450.5,-70"/>
<text text-anchor="start" x="472" y="-76.8" font-family="Times,serif" font-size="14.00">str(ASCII)</text>
<polygon fill="none" stroke="black" points="568.5,-70 568.5,-91 641.5,-91 641.5,-70 568.5,-70"/>
<text text-anchor="start" x="589" y="-76.8" font-family="Times,serif" font-size="14.00">year</text>
<polygon fill="none" stroke="black" points="382.5,-49 382.5,-70 416.5,-70 416.5,-49 382.5,-49"/>
<text text-anchor="start" x="390" y="-55.8" font-family="Times,serif" font-size="14.00">97</text>
<polygon fill="none" stroke="black" points="416.5,-49 416.5,-70 450.5,-70 450.5,-49 416.5,-49"/>
<text text-anchor="start" x="424" y="-55.8" font-family="Times,serif" font-size="14.00">30</text>
<polygon fill="none" stroke="black" points="450.5,-49 450.5,-70 568.5,-70 568.5,-49 450.5,-49"/>
<polygon fill="none" stroke="black" points="568.5,-49 568.5,-70 641.5,-70 641.5,-49 568.5,-49"/>
<text text-anchor="start" x="571.5" y="-55.8" font-family="Times,serif" font-size="14.00">comment</text>
<polygon fill="none" stroke="black" points="382.5,-28 382.5,-49 416.5,-49 416.5,-28 382.5,-28"/>
<text text-anchor="start" x="385.5" y="-34.8" font-family="Times,serif" font-size="14.00">127</text>
<polygon fill="none" stroke="black" points="416.5,-28 416.5,-49 450.5,-49 450.5,-28 416.5,-28"/>
<text text-anchor="start" x="428.5" y="-34.8" font-family="Times,serif" font-size="14.00">1</text>
<polygon fill="none" stroke="black" points="450.5,-28 450.5,-49 568.5,-49 568.5,-28 450.5,-28"/>
<text text-anchor="start" x="453.5" y="-34.8" font-family="Times,serif" font-size="14.00">u1?GenreEnum</text>
<polygon fill="none" stroke="black" points="568.5,-28 568.5,-49 641.5,-49 641.5,-28 568.5,-28"/>
<text text-anchor="start" x="584" y="-34.8" font-family="Times,serif" font-size="14.00">genre</text>
</g>
<!-- id3v1_1__inst__id3v1_tag&#45;&gt;id3_v1_1_tag__seq -->
<g id="edge1" class="edge"><title>id3v1_1__inst__id3v1_tag:id3v1_tag_type&#45;&gt;id3_v1_1_tag__seq</title>
<path fill="none" stroke="black" stroke-width="2" d="M331,-112C341.617,-112 352.588,-112 363.63,-112"/>
<polygon fill="black" stroke="black" stroke-width="2" points="363.782,-115.5 373.782,-112 363.782,-108.5 363.782,-115.5"/>
</g>
</g>
</svg>
