<?xml version="1.0" encoding="UTF-8" standalone="no"?>
<!DOCTYPE svg PUBLIC "-//W3C//DTD SVG 1.1//EN"
 "http://www.w3.org/Graphics/SVG/1.1/DTD/svg11.dtd">
<!-- Generated by graphviz version 2.43.0 (0)
 -->
<!-- Title: %3 Pages: 1 -->
<svg width="854pt" height="859pt"
 viewBox="0.00 0.00 854.00 859.00" xmlns="http://www.w3.org/2000/svg" xmlns:xlink="http://www.w3.org/1999/xlink">
<g id="graph0" class="graph" transform="scale(1 1) rotate(0) translate(4 855)">
<title>%3</title>
<polygon fill="white" stroke="transparent" points="-4,4 -4,-855 850,-855 850,4 -4,4"/>
<g id="clust1" class="cluster">
<title>cluster__xwd</title>
<polygon fill="none" stroke="black" stroke-dasharray="1,5" points="8,-8 8,-843 838,-843 838,-8 8,-8"/>
<text text-anchor="middle" x="423" y="-827.8" font-family="Times,serif" font-size="14.00">Xwd</text>
</g>
<g id="clust2" class="cluster">
<title>cluster__header</title>
<polygon fill="none" stroke="black" stroke-dasharray="1,5" points="411,-219 411,-812 830,-812 830,-219 411,-219"/>
<text text-anchor="middle" x="620.5" y="-796.8" font-family="Times,serif" font-size="14.00">Xwd::Header</text>
</g>
<g id="clust3" class="cluster">
<title>cluster__color_map_entry</title>
<polygon fill="none" stroke="black" stroke-dasharray="1,5" points="497.5,-16 497.5,-211 743.5,-211 743.5,-16 497.5,-16"/>
<text text-anchor="middle" x="620.5" y="-195.8" font-family="Times,serif" font-size="14.00">Xwd::ColorMapEntry</text>
</g>
<!-- xwd__seq -->
<g id="node1" class="node">
<title>xwd__seq</title>
<polygon fill="#e0ffe0" stroke="transparent" points="24.5,-441 24.5,-462 55.5,-462 55.5,-441 24.5,-441"/>
<polygon fill="none" stroke="black" points="24.5,-441 24.5,-462 55.5,-462 55.5,-441 24.5,-441"/>
<text text-anchor="start" x="27.5" y="-447.8" font-family="Times,serif" font-size="14.00">pos</text>
<polygon fill="#e0ffe0" stroke="transparent" points="55.5,-441 55.5,-462 173.5,-462 173.5,-441 55.5,-441"/>
<polygon fill="none" stroke="black" points="55.5,-441 55.5,-462 173.5,-462 173.5,-441 55.5,-441"/>
<text text-anchor="start" x="100.5" y="-447.8" font-family="Times,serif" font-size="14.00">size</text>
<polygon fill="#e0ffe0" stroke="transparent" points="173.5,-441 173.5,-462 290.5,-462 290.5,-441 173.5,-441"/>
<polygon fill="none" stroke="black" points="173.5,-441 173.5,-462 290.5,-462 290.5,-441 173.5,-441"/>
<text text-anchor="start" x="216" y="-447.8" font-family="Times,serif" font-size="14.00">type</text>
<polygon fill="#e0ffe0" stroke="transparent" points="290.5,-441 290.5,-462 375.5,-462 375.5,-441 290.5,-441"/>
<polygon fill="none" stroke="black" points="290.5,-441 290.5,-462 375.5,-462 375.5,-441 290.5,-441"/>
<text text-anchor="start" x="326" y="-447.8" font-family="Times,serif" font-size="14.00">id</text>
<polygon fill="none" stroke="black" points="24.5,-420 24.5,-441 55.5,-441 55.5,-420 24.5,-420"/>
<text text-anchor="start" x="35" y="-426.8" font-family="Times,serif" font-size="14.00">0</text>
<polygon fill="none" stroke="black" points="55.5,-420 55.5,-441 173.5,-441 173.5,-420 55.5,-420"/>
<text text-anchor="start" x="109.5" y="-426.8" font-family="Times,serif" font-size="14.00">4</text>
<polygon fill="none" stroke="black" points="173.5,-420 173.5,-441 290.5,-441 290.5,-420 173.5,-420"/>
<text text-anchor="start" x="214" y="-426.8" font-family="Times,serif" font-size="14.00">u4be</text>
<polygon fill="none" stroke="black" points="290.5,-420 290.5,-441 375.5,-441 375.5,-420 290.5,-420"/>
<text text-anchor="start" x="293.5" y="-426.8" font-family="Times,serif" font-size="14.00">len_header</text>
<polygon fill="none" stroke="black" points="24.5,-399 24.5,-420 55.5,-420 55.5,-399 24.5,-399"/>
<text text-anchor="start" x="35" y="-405.8" font-family="Times,serif" font-size="14.00">4</text>
<polygon fill="none" stroke="black" points="55.5,-399 55.5,-420 173.5,-420 173.5,-399 55.5,-399"/>
<text text-anchor="start" x="58.5" y="-405.8" font-family="Times,serif" font-size="14.00">(len_header &#45; 4)</text>
<polygon fill="none" stroke="black" points="173.5,-399 173.5,-420 290.5,-420 290.5,-399 173.5,-399"/>
<text text-anchor="start" x="205.5" y="-405.8" font-family="Times,serif" font-size="14.00">Header</text>
<polygon fill="none" stroke="black" points="290.5,-399 290.5,-420 375.5,-420 375.5,-399 290.5,-399"/>
<text text-anchor="start" x="320.5" y="-405.8" font-family="Times,serif" font-size="14.00">hdr</text>
<polygon fill="none" stroke="black" points="24.5,-378 24.5,-399 55.5,-399 55.5,-378 24.5,-378"/>
<text text-anchor="start" x="33" y="-384.8" font-family="Times,serif" font-size="14.00">...</text>
<polygon fill="none" stroke="black" points="55.5,-378 55.5,-399 173.5,-399 173.5,-378 55.5,-378"/>
<text text-anchor="start" x="105" y="-384.8" font-family="Times,serif" font-size="14.00">12</text>
<polygon fill="none" stroke="black" points="173.5,-378 173.5,-399 290.5,-399 290.5,-378 173.5,-378"/>
<text text-anchor="start" x="176.5" y="-384.8" font-family="Times,serif" font-size="14.00">ColorMapEntry</text>
<polygon fill="none" stroke="black" points="290.5,-378 290.5,-399 375.5,-399 375.5,-378 290.5,-378"/>
<text text-anchor="start" x="296.5" y="-384.8" font-family="Times,serif" font-size="14.00">color_map</text>
<polygon fill="none" stroke="black" points="24.5,-357 24.5,-378 375.5,-378 375.5,-357 24.5,-357"/>
<text text-anchor="start" x="73.5" y="-363.8" font-family="Times,serif" font-size="14.00">repeat hdr.color_map_entries times</text>
</g>
<!-- xwd__seq&#45;&gt;xwd__seq -->
<g id="edge1" class="edge">
<title>xwd__seq:len_header_type&#45;&gt;xwd__seq:hdr_size</title>
<path fill="none" stroke="#404040" d="M369.52,-441.02C434.72,-462.94 410.01,-484.5 224,-484.5 47.43,-484.5 16.21,-450.17 69.25,-424.18"/>
<polygon fill="#404040" stroke="#404040" points="70.76,-427.34 78.48,-420.08 67.92,-420.94 70.76,-427.34"/>
</g>
<!-- header__seq -->
<g id="node2" class="node">
<title>header__seq</title>
<polygon fill="#e0ffe0" stroke="transparent" points="427.5,-756 427.5,-777 458.5,-777 458.5,-756 427.5,-756"/>
<polygon fill="none" stroke="black" points="427.5,-756 427.5,-777 458.5,-777 458.5,-756 427.5,-756"/>
<text text-anchor="start" x="430.5" y="-762.8" font-family="Times,serif" font-size="14.00">pos</text>
<polygon fill="#e0ffe0" stroke="transparent" points="458.5,-756 458.5,-777 492.5,-777 492.5,-756 458.5,-756"/>
<polygon fill="none" stroke="black" points="458.5,-756 458.5,-777 492.5,-777 492.5,-756 458.5,-756"/>
<text text-anchor="start" x="461.5" y="-762.8" font-family="Times,serif" font-size="14.00">size</text>
<polygon fill="#e0ffe0" stroke="transparent" points="492.5,-756 492.5,-777 651.5,-777 651.5,-756 492.5,-756"/>
<polygon fill="none" stroke="black" points="492.5,-756 492.5,-777 651.5,-777 651.5,-756 492.5,-756"/>
<text text-anchor="start" x="556" y="-762.8" font-family="Times,serif" font-size="14.00">type</text>
<polygon fill="#e0ffe0" stroke="transparent" points="651.5,-756 651.5,-777 814.5,-777 814.5,-756 651.5,-756"/>
<polygon fill="none" stroke="black" points="651.5,-756 651.5,-777 814.5,-777 814.5,-756 651.5,-756"/>
<text text-anchor="start" x="726" y="-762.8" font-family="Times,serif" font-size="14.00">id</text>
<polygon fill="none" stroke="black" points="427.5,-735 427.5,-756 458.5,-756 458.5,-735 427.5,-735"/>
<text text-anchor="start" x="438" y="-741.8" font-family="Times,serif" font-size="14.00">0</text>
<polygon fill="none" stroke="black" points="458.5,-735 458.5,-756 492.5,-756 492.5,-735 458.5,-735"/>
<text text-anchor="start" x="470.5" y="-741.8" font-family="Times,serif" font-size="14.00">4</text>
<polygon fill="none" stroke="black" points="492.5,-735 492.5,-756 651.5,-756 651.5,-735 492.5,-735"/>
<text text-anchor="start" x="554" y="-741.8" font-family="Times,serif" font-size="14.00">u4be</text>
<polygon fill="none" stroke="black" points="651.5,-735 651.5,-756 814.5,-756 814.5,-735 651.5,-735"/>
<text text-anchor="start" x="692" y="-741.8" font-family="Times,serif" font-size="14.00">file_version</text>
<polygon fill="none" stroke="black" points="427.5,-714 427.5,-735 458.5,-735 458.5,-714 427.5,-714"/>
<text text-anchor="start" x="438" y="-720.8" font-family="Times,serif" font-size="14.00">4</text>
<polygon fill="none" stroke="black" points="458.5,-714 458.5,-735 492.5,-735 492.5,-714 458.5,-714"/>
<text text-anchor="start" x="470.5" y="-720.8" font-family="Times,serif" font-size="14.00">4</text>
<polygon fill="none" stroke="black" points="492.5,-714 492.5,-735 651.5,-735 651.5,-714 492.5,-714"/>
<text text-anchor="start" x="495.5" y="-720.8" font-family="Times,serif" font-size="14.00">u4be→PixmapFormat</text>
<polygon fill="none" stroke="black" points="651.5,-714 651.5,-735 814.5,-735 814.5,-714 651.5,-714"/>
<text text-anchor="start" x="679" y="-720.8" font-family="Times,serif" font-size="14.00">pixmap_format</text>
<polygon fill="none" stroke="black" points="427.5,-693 427.5,-714 458.5,-714 458.5,-693 427.5,-693"/>
<text text-anchor="start" x="438" y="-699.8" font-family="Times,serif" font-size="14.00">8</text>
<polygon fill="none" stroke="black" points="458.5,-693 458.5,-714 492.5,-714 492.5,-693 458.5,-693"/>
<text text-anchor="start" x="470.5" y="-699.8" font-family="Times,serif" font-size="14.00">4</text>
<polygon fill="none" stroke="black" points="492.5,-693 492.5,-714 651.5,-714 651.5,-693 492.5,-693"/>
<text text-anchor="start" x="554" y="-699.8" font-family="Times,serif" font-size="14.00">u4be</text>
<polygon fill="none" stroke="black" points="651.5,-693 651.5,-714 814.5,-714 814.5,-693 651.5,-693"/>
<text text-anchor="start" x="682.5" y="-699.8" font-family="Times,serif" font-size="14.00">pixmap_depth</text>
<polygon fill="none" stroke="black" points="427.5,-672 427.5,-693 458.5,-693 458.5,-672 427.5,-672"/>
<text text-anchor="start" x="433.5" y="-678.8" font-family="Times,serif" font-size="14.00">12</text>
<polygon fill="none" stroke="black" points="458.5,-672 458.5,-693 492.5,-693 492.5,-672 458.5,-672"/>
<text text-anchor="start" x="470.5" y="-678.8" font-family="Times,serif" font-size="14.00">4</text>
<polygon fill="none" stroke="black" points="492.5,-672 492.5,-693 651.5,-693 651.5,-672 492.5,-672"/>
<text text-anchor="start" x="554" y="-678.8" font-family="Times,serif" font-size="14.00">u4be</text>
<polygon fill="none" stroke="black" points="651.5,-672 651.5,-693 814.5,-693 814.5,-672 651.5,-672"/>
<text text-anchor="start" x="683" y="-678.8" font-family="Times,serif" font-size="14.00">pixmap_width</text>
<polygon fill="none" stroke="black" points="427.5,-651 427.5,-672 458.5,-672 458.5,-651 427.5,-651"/>
<text text-anchor="start" x="433.5" y="-657.8" font-family="Times,serif" font-size="14.00">16</text>
<polygon fill="none" stroke="black" points="458.5,-651 458.5,-672 492.5,-672 492.5,-651 458.5,-651"/>
<text text-anchor="start" x="470.5" y="-657.8" font-family="Times,serif" font-size="14.00">4</text>
<polygon fill="none" stroke="black" points="492.5,-651 492.5,-672 651.5,-672 651.5,-651 492.5,-651"/>
<text text-anchor="start" x="554" y="-657.8" font-family="Times,serif" font-size="14.00">u4be</text>
<polygon fill="none" stroke="black" points="651.5,-651 651.5,-672 814.5,-672 814.5,-651 651.5,-651"/>
<text text-anchor="start" x="680" y="-657.8" font-family="Times,serif" font-size="14.00">pixmap_height</text>
<polygon fill="none" stroke="black" points="427.5,-630 427.5,-651 458.5,-651 458.5,-630 427.5,-630"/>
<text text-anchor="start" x="433.5" y="-636.8" font-family="Times,serif" font-size="14.00">20</text>
<polygon fill="none" stroke="black" points="458.5,-630 458.5,-651 492.5,-651 492.5,-630 458.5,-630"/>
<text text-anchor="start" x="470.5" y="-636.8" font-family="Times,serif" font-size="14.00">4</text>
<polygon fill="none" stroke="black" points="492.5,-630 492.5,-651 651.5,-651 651.5,-630 492.5,-630"/>
<text text-anchor="start" x="554" y="-636.8" font-family="Times,serif" font-size="14.00">u4be</text>
<polygon fill="none" stroke="black" points="651.5,-630 651.5,-651 814.5,-651 814.5,-630 651.5,-630"/>
<text text-anchor="start" x="705.5" y="-636.8" font-family="Times,serif" font-size="14.00">x_offset</text>
<polygon fill="none" stroke="black" points="427.5,-609 427.5,-630 458.5,-630 458.5,-609 427.5,-609"/>
<text text-anchor="start" x="433.5" y="-615.8" font-family="Times,serif" font-size="14.00">24</text>
<polygon fill="none" stroke="black" points="458.5,-609 458.5,-630 492.5,-630 492.5,-609 458.5,-609"/>
<text text-anchor="start" x="470.5" y="-615.8" font-family="Times,serif" font-size="14.00">4</text>
<polygon fill="none" stroke="black" points="492.5,-609 492.5,-630 651.5,-630 651.5,-609 492.5,-609"/>
<text text-anchor="start" x="510.5" y="-615.8" font-family="Times,serif" font-size="14.00">u4be→ByteOrder</text>
<polygon fill="none" stroke="black" points="651.5,-609 651.5,-630 814.5,-630 814.5,-609 651.5,-609"/>
<text text-anchor="start" x="694" y="-615.8" font-family="Times,serif" font-size="14.00">byte_order</text>
<polygon fill="none" stroke="black" points="427.5,-588 427.5,-609 458.5,-609 458.5,-588 427.5,-588"/>
<text text-anchor="start" x="433.5" y="-594.8" font-family="Times,serif" font-size="14.00">28</text>
<polygon fill="none" stroke="black" points="458.5,-588 458.5,-609 492.5,-609 492.5,-588 458.5,-588"/>
<text text-anchor="start" x="470.5" y="-594.8" font-family="Times,serif" font-size="14.00">4</text>
<polygon fill="none" stroke="black" points="492.5,-588 492.5,-609 651.5,-609 651.5,-588 492.5,-588"/>
<text text-anchor="start" x="554" y="-594.8" font-family="Times,serif" font-size="14.00">u4be</text>
<polygon fill="none" stroke="black" points="651.5,-588 651.5,-609 814.5,-609 814.5,-588 651.5,-588"/>
<text text-anchor="start" x="690" y="-594.8" font-family="Times,serif" font-size="14.00">bitmap_unit</text>
<polygon fill="none" stroke="black" points="427.5,-567 427.5,-588 458.5,-588 458.5,-567 427.5,-567"/>
<text text-anchor="start" x="433.5" y="-573.8" font-family="Times,serif" font-size="14.00">32</text>
<polygon fill="none" stroke="black" points="458.5,-567 458.5,-588 492.5,-588 492.5,-567 458.5,-567"/>
<text text-anchor="start" x="470.5" y="-573.8" font-family="Times,serif" font-size="14.00">4</text>
<polygon fill="none" stroke="black" points="492.5,-567 492.5,-588 651.5,-588 651.5,-567 492.5,-567"/>
<text text-anchor="start" x="554" y="-573.8" font-family="Times,serif" font-size="14.00">u4be</text>
<polygon fill="none" stroke="black" points="651.5,-567 651.5,-588 814.5,-588 814.5,-567 651.5,-567"/>
<text text-anchor="start" x="671.5" y="-573.8" font-family="Times,serif" font-size="14.00">bitmap_bit_order</text>
<polygon fill="none" stroke="black" points="427.5,-546 427.5,-567 458.5,-567 458.5,-546 427.5,-546"/>
<text text-anchor="start" x="433.5" y="-552.8" font-family="Times,serif" font-size="14.00">36</text>
<polygon fill="none" stroke="black" points="458.5,-546 458.5,-567 492.5,-567 492.5,-546 458.5,-546"/>
<text text-anchor="start" x="470.5" y="-552.8" font-family="Times,serif" font-size="14.00">4</text>
<polygon fill="none" stroke="black" points="492.5,-546 492.5,-567 651.5,-567 651.5,-546 492.5,-546"/>
<text text-anchor="start" x="554" y="-552.8" font-family="Times,serif" font-size="14.00">u4be</text>
<polygon fill="none" stroke="black" points="651.5,-546 651.5,-567 814.5,-567 814.5,-546 651.5,-546"/>
<text text-anchor="start" x="691" y="-552.8" font-family="Times,serif" font-size="14.00">bitmap_pad</text>
<polygon fill="none" stroke="black" points="427.5,-525 427.5,-546 458.5,-546 458.5,-525 427.5,-525"/>
<text text-anchor="start" x="433.5" y="-531.8" font-family="Times,serif" font-size="14.00">40</text>
<polygon fill="none" stroke="black" points="458.5,-525 458.5,-546 492.5,-546 492.5,-525 458.5,-525"/>
<text text-anchor="start" x="470.5" y="-531.8" font-family="Times,serif" font-size="14.00">4</text>
<polygon fill="none" stroke="black" points="492.5,-525 492.5,-546 651.5,-546 651.5,-525 492.5,-525"/>
<text text-anchor="start" x="554" y="-531.8" font-family="Times,serif" font-size="14.00">u4be</text>
<polygon fill="none" stroke="black" points="651.5,-525 651.5,-546 814.5,-546 814.5,-525 651.5,-525"/>
<text text-anchor="start" x="683" y="-531.8" font-family="Times,serif" font-size="14.00">bits_per_pixel</text>
<polygon fill="none" stroke="black" points="427.5,-504 427.5,-525 458.5,-525 458.5,-504 427.5,-504"/>
<text text-anchor="start" x="433.5" y="-510.8" font-family="Times,serif" font-size="14.00">44</text>
<polygon fill="none" stroke="black" points="458.5,-504 458.5,-525 492.5,-525 492.5,-504 458.5,-504"/>
<text text-anchor="start" x="470.5" y="-510.8" font-family="Times,serif" font-size="14.00">4</text>
<polygon fill="none" stroke="black" points="492.5,-504 492.5,-525 651.5,-525 651.5,-504 492.5,-504"/>
<text text-anchor="start" x="554" y="-510.8" font-family="Times,serif" font-size="14.00">u4be</text>
<polygon fill="none" stroke="black" points="651.5,-504 651.5,-525 814.5,-525 814.5,-504 651.5,-504"/>
<text text-anchor="start" x="681.5" y="-510.8" font-family="Times,serif" font-size="14.00">bytes_per_line</text>
<polygon fill="none" stroke="black" points="427.5,-483 427.5,-504 458.5,-504 458.5,-483 427.5,-483"/>
<text text-anchor="start" x="433.5" y="-489.8" font-family="Times,serif" font-size="14.00">48</text>
<polygon fill="none" stroke="black" points="458.5,-483 458.5,-504 492.5,-504 492.5,-483 458.5,-483"/>
<text text-anchor="start" x="470.5" y="-489.8" font-family="Times,serif" font-size="14.00">4</text>
<polygon fill="none" stroke="black" points="492.5,-483 492.5,-504 651.5,-504 651.5,-483 492.5,-483"/>
<text text-anchor="start" x="507" y="-489.8" font-family="Times,serif" font-size="14.00">u4be→VisualClass</text>
<polygon fill="none" stroke="black" points="651.5,-483 651.5,-504 814.5,-504 814.5,-483 651.5,-483"/>
<text text-anchor="start" x="690.5" y="-489.8" font-family="Times,serif" font-size="14.00">visual_class</text>
<polygon fill="none" stroke="black" points="427.5,-462 427.5,-483 458.5,-483 458.5,-462 427.5,-462"/>
<text text-anchor="start" x="433.5" y="-468.8" font-family="Times,serif" font-size="14.00">52</text>
<polygon fill="none" stroke="black" points="458.5,-462 458.5,-483 492.5,-483 492.5,-462 458.5,-462"/>
<text text-anchor="start" x="470.5" y="-468.8" font-family="Times,serif" font-size="14.00">4</text>
<polygon fill="none" stroke="black" points="492.5,-462 492.5,-483 651.5,-483 651.5,-462 492.5,-462"/>
<text text-anchor="start" x="554" y="-468.8" font-family="Times,serif" font-size="14.00">u4be</text>
<polygon fill="none" stroke="black" points="651.5,-462 651.5,-483 814.5,-483 814.5,-462 651.5,-462"/>
<text text-anchor="start" x="698.5" y="-468.8" font-family="Times,serif" font-size="14.00">red_mask</text>
<polygon fill="none" stroke="black" points="427.5,-441 427.5,-462 458.5,-462 458.5,-441 427.5,-441"/>
<text text-anchor="start" x="433.5" y="-447.8" font-family="Times,serif" font-size="14.00">56</text>
<polygon fill="none" stroke="black" points="458.5,-441 458.5,-462 492.5,-462 492.5,-441 458.5,-441"/>
<text text-anchor="start" x="470.5" y="-447.8" font-family="Times,serif" font-size="14.00">4</text>
<polygon fill="none" stroke="black" points="492.5,-441 492.5,-462 651.5,-462 651.5,-441 492.5,-441"/>
<text text-anchor="start" x="554" y="-447.8" font-family="Times,serif" font-size="14.00">u4be</text>
<polygon fill="none" stroke="black" points="651.5,-441 651.5,-462 814.5,-462 814.5,-441 651.5,-441"/>
<text text-anchor="start" x="690" y="-447.8" font-family="Times,serif" font-size="14.00">green_mask</text>
<polygon fill="none" stroke="black" points="427.5,-420 427.5,-441 458.5,-441 458.5,-420 427.5,-420"/>
<text text-anchor="start" x="433.5" y="-426.8" font-family="Times,serif" font-size="14.00">60</text>
<polygon fill="none" stroke="black" points="458.5,-420 458.5,-441 492.5,-441 492.5,-420 458.5,-420"/>
<text text-anchor="start" x="470.5" y="-426.8" font-family="Times,serif" font-size="14.00">4</text>
<polygon fill="none" stroke="black" points="492.5,-420 492.5,-441 651.5,-441 651.5,-420 492.5,-420"/>
<text text-anchor="start" x="554" y="-426.8" font-family="Times,serif" font-size="14.00">u4be</text>
<polygon fill="none" stroke="black" points="651.5,-420 651.5,-441 814.5,-441 814.5,-420 651.5,-420"/>
<text text-anchor="start" x="695" y="-426.8" font-family="Times,serif" font-size="14.00">blue_mask</text>
<polygon fill="none" stroke="black" points="427.5,-399 427.5,-420 458.5,-420 458.5,-399 427.5,-399"/>
<text text-anchor="start" x="433.5" y="-405.8" font-family="Times,serif" font-size="14.00">64</text>
<polygon fill="none" stroke="black" points="458.5,-399 458.5,-420 492.5,-420 492.5,-399 458.5,-399"/>
<text text-anchor="start" x="470.5" y="-405.8" font-family="Times,serif" font-size="14.00">4</text>
<polygon fill="none" stroke="black" points="492.5,-399 492.5,-420 651.5,-420 651.5,-399 492.5,-399"/>
<text text-anchor="start" x="554" y="-405.8" font-family="Times,serif" font-size="14.00">u4be</text>
<polygon fill="none" stroke="black" points="651.5,-399 651.5,-420 814.5,-420 814.5,-399 651.5,-399"/>
<text text-anchor="start" x="688" y="-405.8" font-family="Times,serif" font-size="14.00">bits_per_rgb</text>
<polygon fill="none" stroke="black" points="427.5,-378 427.5,-399 458.5,-399 458.5,-378 427.5,-378"/>
<text text-anchor="start" x="433.5" y="-384.8" font-family="Times,serif" font-size="14.00">68</text>
<polygon fill="none" stroke="black" points="458.5,-378 458.5,-399 492.5,-399 492.5,-378 458.5,-378"/>
<text text-anchor="start" x="470.5" y="-384.8" font-family="Times,serif" font-size="14.00">4</text>
<polygon fill="none" stroke="black" points="492.5,-378 492.5,-399 651.5,-399 651.5,-378 492.5,-378"/>
<text text-anchor="start" x="554" y="-384.8" font-family="Times,serif" font-size="14.00">u4be</text>
<polygon fill="none" stroke="black" points="651.5,-378 651.5,-399 814.5,-399 814.5,-378 651.5,-378"/>
<text text-anchor="start" x="670" y="-384.8" font-family="Times,serif" font-size="14.00">number_of_colors</text>
<polygon fill="none" stroke="black" points="427.5,-357 427.5,-378 458.5,-378 458.5,-357 427.5,-357"/>
<text text-anchor="start" x="433.5" y="-363.8" font-family="Times,serif" font-size="14.00">72</text>
<polygon fill="none" stroke="black" points="458.5,-357 458.5,-378 492.5,-378 492.5,-357 458.5,-357"/>
<text text-anchor="start" x="470.5" y="-363.8" font-family="Times,serif" font-size="14.00">4</text>
<polygon fill="none" stroke="black" points="492.5,-357 492.5,-378 651.5,-378 651.5,-357 492.5,-357"/>
<text text-anchor="start" x="554" y="-363.8" font-family="Times,serif" font-size="14.00">u4be</text>
<polygon fill="none" stroke="black" points="651.5,-357 651.5,-378 814.5,-378 814.5,-357 651.5,-357"/>
<text text-anchor="start" x="668" y="-363.8" font-family="Times,serif" font-size="14.00">color_map_entries</text>
<polygon fill="none" stroke="black" points="427.5,-336 427.5,-357 458.5,-357 458.5,-336 427.5,-336"/>
<text text-anchor="start" x="433.5" y="-342.8" font-family="Times,serif" font-size="14.00">76</text>
<polygon fill="none" stroke="black" points="458.5,-336 458.5,-357 492.5,-357 492.5,-336 458.5,-336"/>
<text text-anchor="start" x="470.5" y="-342.8" font-family="Times,serif" font-size="14.00">4</text>
<polygon fill="none" stroke="black" points="492.5,-336 492.5,-357 651.5,-357 651.5,-336 492.5,-336"/>
<text text-anchor="start" x="554" y="-342.8" font-family="Times,serif" font-size="14.00">u4be</text>
<polygon fill="none" stroke="black" points="651.5,-336 651.5,-357 814.5,-357 814.5,-336 651.5,-336"/>
<text text-anchor="start" x="681.5" y="-342.8" font-family="Times,serif" font-size="14.00">window_width</text>
<polygon fill="none" stroke="black" points="427.5,-315 427.5,-336 458.5,-336 458.5,-315 427.5,-315"/>
<text text-anchor="start" x="433.5" y="-321.8" font-family="Times,serif" font-size="14.00">80</text>
<polygon fill="none" stroke="black" points="458.5,-315 458.5,-336 492.5,-336 492.5,-315 458.5,-315"/>
<text text-anchor="start" x="470.5" y="-321.8" font-family="Times,serif" font-size="14.00">4</text>
<polygon fill="none" stroke="black" points="492.5,-315 492.5,-336 651.5,-336 651.5,-315 492.5,-315"/>
<text text-anchor="start" x="554" y="-321.8" font-family="Times,serif" font-size="14.00">u4be</text>
<polygon fill="none" stroke="black" points="651.5,-315 651.5,-336 814.5,-336 814.5,-315 651.5,-315"/>
<text text-anchor="start" x="679" y="-321.8" font-family="Times,serif" font-size="14.00">window_height</text>
<polygon fill="none" stroke="black" points="427.5,-294 427.5,-315 458.5,-315 458.5,-294 427.5,-294"/>
<text text-anchor="start" x="433.5" y="-300.8" font-family="Times,serif" font-size="14.00">84</text>
<polygon fill="none" stroke="black" points="458.5,-294 458.5,-315 492.5,-315 492.5,-294 458.5,-294"/>
<text text-anchor="start" x="470.5" y="-300.8" font-family="Times,serif" font-size="14.00">4</text>
<polygon fill="none" stroke="black" points="492.5,-294 492.5,-315 651.5,-315 651.5,-294 492.5,-294"/>
<text text-anchor="start" x="555" y="-300.8" font-family="Times,serif" font-size="14.00">s4be</text>
<polygon fill="none" stroke="black" points="651.5,-294 651.5,-315 814.5,-315 814.5,-294 651.5,-294"/>
<text text-anchor="start" x="698" y="-300.8" font-family="Times,serif" font-size="14.00">window_x</text>
<polygon fill="none" stroke="black" points="427.5,-273 427.5,-294 458.5,-294 458.5,-273 427.5,-273"/>
<text text-anchor="start" x="433.5" y="-279.8" font-family="Times,serif" font-size="14.00">88</text>
<polygon fill="none" stroke="black" points="458.5,-273 458.5,-294 492.5,-294 492.5,-273 458.5,-273"/>
<text text-anchor="start" x="470.5" y="-279.8" font-family="Times,serif" font-size="14.00">4</text>
<polygon fill="none" stroke="black" points="492.5,-273 492.5,-294 651.5,-294 651.5,-273 492.5,-273"/>
<text text-anchor="start" x="555" y="-279.8" font-family="Times,serif" font-size="14.00">s4be</text>
<polygon fill="none" stroke="black" points="651.5,-273 651.5,-294 814.5,-294 814.5,-273 651.5,-273"/>
<text text-anchor="start" x="698" y="-279.8" font-family="Times,serif" font-size="14.00">window_y</text>
<polygon fill="none" stroke="black" points="427.5,-252 427.5,-273 458.5,-273 458.5,-252 427.5,-252"/>
<text text-anchor="start" x="433.5" y="-258.8" font-family="Times,serif" font-size="14.00">92</text>
<polygon fill="none" stroke="black" points="458.5,-252 458.5,-273 492.5,-273 492.5,-252 458.5,-252"/>
<text text-anchor="start" x="470.5" y="-258.8" font-family="Times,serif" font-size="14.00">4</text>
<polygon fill="none" stroke="black" points="492.5,-252 492.5,-273 651.5,-273 651.5,-252 492.5,-252"/>
<text text-anchor="start" x="554" y="-258.8" font-family="Times,serif" font-size="14.00">u4be</text>
<polygon fill="none" stroke="black" points="651.5,-252 651.5,-273 814.5,-273 814.5,-252 651.5,-252"/>
<text text-anchor="start" x="654.5" y="-258.8" font-family="Times,serif" font-size="14.00">window_border_width</text>
<polygon fill="none" stroke="black" points="427.5,-231 427.5,-252 458.5,-252 458.5,-231 427.5,-231"/>
<text text-anchor="start" x="433.5" y="-237.8" font-family="Times,serif" font-size="14.00">96</text>
<polygon fill="none" stroke="black" points="458.5,-231 458.5,-252 492.5,-252 492.5,-231 458.5,-231"/>
<text text-anchor="start" x="468.5" y="-237.8" font-family="Times,serif" font-size="14.00">...</text>
<polygon fill="none" stroke="black" points="492.5,-231 492.5,-252 651.5,-252 651.5,-231 492.5,-231"/>
<text text-anchor="start" x="534.5" y="-237.8" font-family="Times,serif" font-size="14.00">str(UTF&#45;8)</text>
<polygon fill="none" stroke="black" points="651.5,-231 651.5,-252 814.5,-252 814.5,-231 651.5,-231"/>
<text text-anchor="start" x="707" y="-237.8" font-family="Times,serif" font-size="14.00">creator</text>
</g>
<!-- xwd__seq&#45;&gt;header__seq -->
<g id="edge2" class="edge">
<title>xwd__seq:hdr_type&#45;&gt;header__seq</title>
<path fill="none" stroke="black" stroke-width="2" d="M376.5,-409C387.25,-409 398.1,-409.82 408.93,-411.3"/>
<polygon fill="black" stroke="black" stroke-width="2" points="408.45,-414.77 418.87,-412.84 409.52,-407.85 408.45,-414.77"/>
</g>
<!-- color_map_entry__seq -->
<g id="node3" class="node">
<title>color_map_entry__seq</title>
<polygon fill="#e0ffe0" stroke="transparent" points="513.5,-154 513.5,-175 544.5,-175 544.5,-154 513.5,-154"/>
<polygon fill="none" stroke="black" points="513.5,-154 513.5,-175 544.5,-175 544.5,-154 513.5,-154"/>
<text text-anchor="start" x="516.5" y="-160.8" font-family="Times,serif" font-size="14.00">pos</text>
<polygon fill="#e0ffe0" stroke="transparent" points="544.5,-154 544.5,-175 578.5,-175 578.5,-154 544.5,-154"/>
<polygon fill="none" stroke="black" points="544.5,-154 544.5,-175 578.5,-175 578.5,-154 544.5,-154"/>
<text text-anchor="start" x="547.5" y="-160.8" font-family="Times,serif" font-size="14.00">size</text>
<polygon fill="#e0ffe0" stroke="transparent" points="578.5,-154 578.5,-175 620.5,-175 620.5,-154 578.5,-154"/>
<polygon fill="none" stroke="black" points="578.5,-154 578.5,-175 620.5,-175 620.5,-154 578.5,-154"/>
<text text-anchor="start" x="583.5" y="-160.8" font-family="Times,serif" font-size="14.00">type</text>
<polygon fill="#e0ffe0" stroke="transparent" points="620.5,-154 620.5,-175 727.5,-175 727.5,-154 620.5,-154"/>
<polygon fill="none" stroke="black" points="620.5,-154 620.5,-175 727.5,-175 727.5,-154 620.5,-154"/>
<text text-anchor="start" x="667" y="-160.8" font-family="Times,serif" font-size="14.00">id</text>
<polygon fill="none" stroke="black" points="513.5,-133 513.5,-154 544.5,-154 544.5,-133 513.5,-133"/>
<text text-anchor="start" x="524" y="-139.8" font-family="Times,serif" font-size="14.00">0</text>
<polygon fill="none" stroke="black" points="544.5,-133 544.5,-154 578.5,-154 578.5,-133 544.5,-133"/>
<text text-anchor="start" x="556.5" y="-139.8" font-family="Times,serif" font-size="14.00">4</text>
<polygon fill="none" stroke="black" points="578.5,-133 578.5,-154 620.5,-154 620.5,-133 578.5,-133"/>
<text text-anchor="start" x="581.5" y="-139.8" font-family="Times,serif" font-size="14.00">u4be</text>
<polygon fill="none" stroke="black" points="620.5,-133 620.5,-154 727.5,-154 727.5,-133 620.5,-133"/>
<text text-anchor="start" x="623.5" y="-139.8" font-family="Times,serif" font-size="14.00">entry_number</text>
<polygon fill="none" stroke="black" points="513.5,-112 513.5,-133 544.5,-133 544.5,-112 513.5,-112"/>
<text text-anchor="start" x="524" y="-118.8" font-family="Times,serif" font-size="14.00">4</text>
<polygon fill="none" stroke="black" points="544.5,-112 544.5,-133 578.5,-133 578.5,-112 544.5,-112"/>
<text text-anchor="start" x="556.5" y="-118.8" font-family="Times,serif" font-size="14.00">2</text>
<polygon fill="none" stroke="black" points="578.5,-112 578.5,-133 620.5,-133 620.5,-112 578.5,-112"/>
<text text-anchor="start" x="581.5" y="-118.8" font-family="Times,serif" font-size="14.00">u2be</text>
<polygon fill="none" stroke="black" points="620.5,-112 620.5,-133 727.5,-133 727.5,-112 620.5,-112"/>
<text text-anchor="start" x="661.5" y="-118.8" font-family="Times,serif" font-size="14.00">red</text>
<polygon fill="none" stroke="black" points="513.5,-91 513.5,-112 544.5,-112 544.5,-91 513.5,-91"/>
<text text-anchor="start" x="524" y="-97.8" font-family="Times,serif" font-size="14.00">6</text>
<polygon fill="none" stroke="black" points="544.5,-91 544.5,-112 578.5,-112 578.5,-91 544.5,-91"/>
<text text-anchor="start" x="556.5" y="-97.8" font-family="Times,serif" font-size="14.00">2</text>
<polygon fill="none" stroke="black" points="578.5,-91 578.5,-112 620.5,-112 620.5,-91 578.5,-91"/>
<text text-anchor="start" x="581.5" y="-97.8" font-family="Times,serif" font-size="14.00">u2be</text>
<polygon fill="none" stroke="black" points="620.5,-91 620.5,-112 727.5,-112 727.5,-91 620.5,-91"/>
<text text-anchor="start" x="653" y="-97.8" font-family="Times,serif" font-size="14.00">green</text>
<polygon fill="none" stroke="black" points="513.5,-70 513.5,-91 544.5,-91 544.5,-70 513.5,-70"/>
<text text-anchor="start" x="524" y="-76.8" font-family="Times,serif" font-size="14.00">8</text>
<polygon fill="none" stroke="black" points="544.5,-70 544.5,-91 578.5,-91 578.5,-70 544.5,-70"/>
<text text-anchor="start" x="556.5" y="-76.8" font-family="Times,serif" font-size="14.00">2</text>
<polygon fill="none" stroke="black" points="578.5,-70 578.5,-91 620.5,-91 620.5,-70 578.5,-70"/>
<text text-anchor="start" x="581.5" y="-76.8" font-family="Times,serif" font-size="14.00">u2be</text>
<polygon fill="none" stroke="black" points="620.5,-70 620.5,-91 727.5,-91 727.5,-70 620.5,-70"/>
<text text-anchor="start" x="658.5" y="-76.8" font-family="Times,serif" font-size="14.00">blue</text>
<polygon fill="none" stroke="black" points="513.5,-49 513.5,-70 544.5,-70 544.5,-49 513.5,-49"/>
<text text-anchor="start" x="519.5" y="-55.8" font-family="Times,serif" font-size="14.00">10</text>
<polygon fill="none" stroke="black" points="544.5,-49 544.5,-70 578.5,-70 578.5,-49 544.5,-49"/>
<text text-anchor="start" x="556.5" y="-55.8" font-family="Times,serif" font-size="14.00">1</text>
<polygon fill="none" stroke="black" points="578.5,-49 578.5,-70 620.5,-70 620.5,-49 578.5,-49"/>
<text text-anchor="start" x="590" y="-55.8" font-family="Times,serif" font-size="14.00">u1</text>
<polygon fill="none" stroke="black" points="620.5,-49 620.5,-70 727.5,-70 727.5,-49 620.5,-49"/>
<text text-anchor="start" x="657" y="-55.8" font-family="Times,serif" font-size="14.00">flags</text>
<polygon fill="none" stroke="black" points="513.5,-28 513.5,-49 544.5,-49 544.5,-28 513.5,-28"/>
<text text-anchor="start" x="519.5" y="-34.8" font-family="Times,serif" font-size="14.00">11</text>
<polygon fill="none" stroke="black" points="544.5,-28 544.5,-49 578.5,-49 578.5,-28 544.5,-28"/>
<text text-anchor="start" x="556.5" y="-34.8" font-family="Times,serif" font-size="14.00">1</text>
<polygon fill="none" stroke="black" points="578.5,-28 578.5,-49 620.5,-49 620.5,-28 578.5,-28"/>
<text text-anchor="start" x="590" y="-34.8" font-family="Times,serif" font-size="14.00">u1</text>
<polygon fill="none" stroke="black" points="620.5,-28 620.5,-49 727.5,-49 727.5,-28 620.5,-28"/>
<text text-anchor="start" x="645" y="-34.8" font-family="Times,serif" font-size="14.00">padding</text>
</g>
<!-- xwd__seq&#45;&gt;color_map_entry__seq -->
<g id="edge3" class="edge">
<title>xwd__seq:color_map_type&#45;&gt;color_map_entry__seq</title>
<path fill="none" stroke="black" stroke-width="2" d="M376.5,-388C454.9,-388 364.46,-278.1 411,-215 432.61,-185.7 464.17,-163.15 496.23,-146.2"/>
<polygon fill="black" stroke="black" stroke-width="2" points="497.98,-149.24 505.28,-141.56 494.78,-143.01 497.98,-149.24"/>
</g>
<!-- header__seq&#45;&gt;xwd__seq -->
<g id="edge4" class="edge">
<title>header__seq:color_map_entries_type&#45;&gt;xwd__seq:color_map__repeat</title>
<path fill="none" stroke="#404040" d="M815.5,-367C846.61,-367 836.58,-248.92 814.5,-227 798.91,-211.52 436.65,-213.91 419,-227 369.83,-263.46 433.2,-355.35 386.54,-365.99"/>
<polygon fill="#404040" stroke="#404040" points="386.1,-362.52 376.5,-367 386.8,-369.48 386.1,-362.52"/>
</g>
</g>
</svg>
