<?xml version="1.0" encoding="UTF-8" standalone="no"?>
<!DOCTYPE svg PUBLIC "-//W3C//DTD SVG 1.1//EN"
 "http://www.w3.org/Graphics/SVG/1.1/DTD/svg11.dtd">
<!-- Generated by graphviz version 2.40.1 (20161225.0304)
 -->
<!-- Title: %3 Pages: 1 -->
<svg width="857pt" height="859pt"
 viewBox="0.00 0.00 857.00 859.00" xmlns="http://www.w3.org/2000/svg" xmlns:xlink="http://www.w3.org/1999/xlink">
<g id="graph0" class="graph" transform="scale(1 1) rotate(0) translate(4 855)">
<title>%3</title>
<polygon fill="#ffffff" stroke="transparent" points="-4,4 -4,-855 853,-855 853,4 -4,4"/>
<g id="clust1" class="cluster">
<title>cluster__xwd</title>
<polygon fill="none" stroke="#000000" stroke-dasharray="1,5" points="8,-8 8,-843 841,-843 841,-8 8,-8"/>
<text text-anchor="middle" x="424.5" y="-827.8" font-family="Times,serif" font-size="14.00" fill="#000000">Xwd</text>
</g>
<g id="clust2" class="cluster">
<title>cluster__header</title>
<polygon fill="none" stroke="#000000" stroke-dasharray="1,5" points="412,-219 412,-812 833,-812 833,-219 412,-219"/>
<text text-anchor="middle" x="622.5" y="-796.8" font-family="Times,serif" font-size="14.00" fill="#000000">Xwd::Header</text>
</g>
<g id="clust3" class="cluster">
<title>cluster__color_map_entry</title>
<polygon fill="none" stroke="#000000" stroke-dasharray="1,5" points="499,-16 499,-211 746,-211 746,-16 499,-16"/>
<text text-anchor="middle" x="622.5" y="-195.8" font-family="Times,serif" font-size="14.00" fill="#000000">Xwd::ColorMapEntry</text>
</g>
<!-- xwd__seq -->
<g id="node1" class="node">
<title>xwd__seq</title>
<polygon fill="#e0ffe0" stroke="transparent" points="24,-441 24,-462 55,-462 55,-441 24,-441"/>
<polygon fill="none" stroke="#000000" points="24,-441 24,-462 55,-462 55,-441 24,-441"/>
<text text-anchor="start" x="27" y="-447.8" font-family="Times,serif" font-size="14.00" fill="#000000">pos</text>
<polygon fill="#e0ffe0" stroke="transparent" points="55,-441 55,-462 173,-462 173,-441 55,-441"/>
<polygon fill="none" stroke="#000000" points="55,-441 55,-462 173,-462 173,-441 55,-441"/>
<text text-anchor="start" x="100" y="-447.8" font-family="Times,serif" font-size="14.00" fill="#000000">size</text>
<polygon fill="#e0ffe0" stroke="transparent" points="173,-441 173,-462 291,-462 291,-441 173,-441"/>
<polygon fill="none" stroke="#000000" points="173,-441 173,-462 291,-462 291,-441 173,-441"/>
<text text-anchor="start" x="216" y="-447.8" font-family="Times,serif" font-size="14.00" fill="#000000">type</text>
<polygon fill="#e0ffe0" stroke="transparent" points="291,-441 291,-462 376,-462 376,-441 291,-441"/>
<polygon fill="none" stroke="#000000" points="291,-441 291,-462 376,-462 376,-441 291,-441"/>
<text text-anchor="start" x="326.5" y="-447.8" font-family="Times,serif" font-size="14.00" fill="#000000">id</text>
<polygon fill="none" stroke="#000000" points="24,-420 24,-441 55,-441 55,-420 24,-420"/>
<text text-anchor="start" x="34.5" y="-426.8" font-family="Times,serif" font-size="14.00" fill="#000000">0</text>
<polygon fill="none" stroke="#000000" points="55,-420 55,-441 173,-441 173,-420 55,-420"/>
<text text-anchor="start" x="109" y="-426.8" font-family="Times,serif" font-size="14.00" fill="#000000">4</text>
<polygon fill="none" stroke="#000000" points="173,-420 173,-441 291,-441 291,-420 173,-420"/>
<text text-anchor="start" x="214" y="-426.8" font-family="Times,serif" font-size="14.00" fill="#000000">u4be</text>
<polygon fill="none" stroke="#000000" points="291,-420 291,-441 376,-441 376,-420 291,-420"/>
<text text-anchor="start" x="294" y="-426.8" font-family="Times,serif" font-size="14.00" fill="#000000">len_header</text>
<polygon fill="none" stroke="#000000" points="24,-399 24,-420 55,-420 55,-399 24,-399"/>
<text text-anchor="start" x="34.5" y="-405.8" font-family="Times,serif" font-size="14.00" fill="#000000">4</text>
<polygon fill="none" stroke="#000000" points="55,-399 55,-420 173,-420 173,-399 55,-399"/>
<text text-anchor="start" x="58" y="-405.8" font-family="Times,serif" font-size="14.00" fill="#000000">(len_header &#45; 4)</text>
<polygon fill="none" stroke="#000000" points="173,-399 173,-420 291,-420 291,-399 173,-399"/>
<text text-anchor="start" x="205" y="-405.8" font-family="Times,serif" font-size="14.00" fill="#000000">Header</text>
<polygon fill="none" stroke="#000000" points="291,-399 291,-420 376,-420 376,-399 291,-399"/>
<text text-anchor="start" x="321" y="-405.8" font-family="Times,serif" font-size="14.00" fill="#000000">hdr</text>
<polygon fill="none" stroke="#000000" points="24,-378 24,-399 55,-399 55,-378 24,-378"/>
<text text-anchor="start" x="32.5" y="-384.8" font-family="Times,serif" font-size="14.00" fill="#000000">...</text>
<polygon fill="none" stroke="#000000" points="55,-378 55,-399 173,-399 173,-378 55,-378"/>
<text text-anchor="start" x="104.5" y="-384.8" font-family="Times,serif" font-size="14.00" fill="#000000">12</text>
<polygon fill="none" stroke="#000000" points="173,-378 173,-399 291,-399 291,-378 173,-378"/>
<text text-anchor="start" x="176" y="-384.8" font-family="Times,serif" font-size="14.00" fill="#000000">ColorMapEntry</text>
<polygon fill="none" stroke="#000000" points="291,-378 291,-399 376,-399 376,-378 291,-378"/>
<text text-anchor="start" x="296" y="-384.8" font-family="Times,serif" font-size="14.00" fill="#000000">color_map</text>
<polygon fill="none" stroke="#000000" points="24,-357 24,-378 376,-378 376,-357 24,-357"/>
<text text-anchor="start" x="72" y="-363.8" font-family="Times,serif" font-size="14.00" fill="#000000">repeat hdr.color_map_entries times</text>
</g>
<!-- xwd__seq&#45;&gt;xwd__seq -->
<g id="edge1" class="edge">
<title>xwd__seq:len_header_type&#45;&gt;xwd__seq:hdr_size</title>
<path fill="none" stroke="#404040" d="M370.1947,-441.0212C435.6988,-462.9423 410.8789,-484.5 224,-484.5 46.611,-484.5 15.2399,-450.1694 68.5344,-424.176"/>
<polygon fill="#404040" stroke="#404040" points="70.0712,-427.3235 77.8053,-420.0823 67.2437,-420.92 70.0712,-427.3235"/>
</g>
<!-- header__seq -->
<g id="node2" class="node">
<title>header__seq</title>
<polygon fill="#e0ffe0" stroke="transparent" points="428.5,-756 428.5,-777 459.5,-777 459.5,-756 428.5,-756"/>
<polygon fill="none" stroke="#000000" points="428.5,-756 428.5,-777 459.5,-777 459.5,-756 428.5,-756"/>
<text text-anchor="start" x="431.5" y="-762.8" font-family="Times,serif" font-size="14.00" fill="#000000">pos</text>
<polygon fill="#e0ffe0" stroke="transparent" points="459.5,-756 459.5,-777 493.5,-777 493.5,-756 459.5,-756"/>
<polygon fill="none" stroke="#000000" points="459.5,-756 459.5,-777 493.5,-777 493.5,-756 459.5,-756"/>
<text text-anchor="start" x="462.5" y="-762.8" font-family="Times,serif" font-size="14.00" fill="#000000">size</text>
<polygon fill="#e0ffe0" stroke="transparent" points="493.5,-756 493.5,-777 652.5,-777 652.5,-756 493.5,-756"/>
<polygon fill="none" stroke="#000000" points="493.5,-756 493.5,-777 652.5,-777 652.5,-756 493.5,-756"/>
<text text-anchor="start" x="557" y="-762.8" font-family="Times,serif" font-size="14.00" fill="#000000">type</text>
<polygon fill="#e0ffe0" stroke="transparent" points="652.5,-756 652.5,-777 817.5,-777 817.5,-756 652.5,-756"/>
<polygon fill="none" stroke="#000000" points="652.5,-756 652.5,-777 817.5,-777 817.5,-756 652.5,-756"/>
<text text-anchor="start" x="728" y="-762.8" font-family="Times,serif" font-size="14.00" fill="#000000">id</text>
<polygon fill="none" stroke="#000000" points="428.5,-735 428.5,-756 459.5,-756 459.5,-735 428.5,-735"/>
<text text-anchor="start" x="439" y="-741.8" font-family="Times,serif" font-size="14.00" fill="#000000">0</text>
<polygon fill="none" stroke="#000000" points="459.5,-735 459.5,-756 493.5,-756 493.5,-735 459.5,-735"/>
<text text-anchor="start" x="471.5" y="-741.8" font-family="Times,serif" font-size="14.00" fill="#000000">4</text>
<polygon fill="none" stroke="#000000" points="493.5,-735 493.5,-756 652.5,-756 652.5,-735 493.5,-735"/>
<text text-anchor="start" x="555" y="-741.8" font-family="Times,serif" font-size="14.00" fill="#000000">u4be</text>
<polygon fill="none" stroke="#000000" points="652.5,-735 652.5,-756 817.5,-756 817.5,-735 652.5,-735"/>
<text text-anchor="start" x="693.5" y="-741.8" font-family="Times,serif" font-size="14.00" fill="#000000">file_version</text>
<polygon fill="none" stroke="#000000" points="428.5,-714 428.5,-735 459.5,-735 459.5,-714 428.5,-714"/>
<text text-anchor="start" x="439" y="-720.8" font-family="Times,serif" font-size="14.00" fill="#000000">4</text>
<polygon fill="none" stroke="#000000" points="459.5,-714 459.5,-735 493.5,-735 493.5,-714 459.5,-714"/>
<text text-anchor="start" x="471.5" y="-720.8" font-family="Times,serif" font-size="14.00" fill="#000000">4</text>
<polygon fill="none" stroke="#000000" points="493.5,-714 493.5,-735 652.5,-735 652.5,-714 493.5,-714"/>
<text text-anchor="start" x="496.5" y="-720.8" font-family="Times,serif" font-size="14.00" fill="#000000">u4be→PixmapFormat</text>
<polygon fill="none" stroke="#000000" points="652.5,-714 652.5,-735 817.5,-735 817.5,-714 652.5,-714"/>
<text text-anchor="start" x="680.5" y="-720.8" font-family="Times,serif" font-size="14.00" fill="#000000">pixmap_format</text>
<polygon fill="none" stroke="#000000" points="428.5,-693 428.5,-714 459.5,-714 459.5,-693 428.5,-693"/>
<text text-anchor="start" x="439" y="-699.8" font-family="Times,serif" font-size="14.00" fill="#000000">8</text>
<polygon fill="none" stroke="#000000" points="459.5,-693 459.5,-714 493.5,-714 493.5,-693 459.5,-693"/>
<text text-anchor="start" x="471.5" y="-699.8" font-family="Times,serif" font-size="14.00" fill="#000000">4</text>
<polygon fill="none" stroke="#000000" points="493.5,-693 493.5,-714 652.5,-714 652.5,-693 493.5,-693"/>
<text text-anchor="start" x="555" y="-699.8" font-family="Times,serif" font-size="14.00" fill="#000000">u4be</text>
<polygon fill="none" stroke="#000000" points="652.5,-693 652.5,-714 817.5,-714 817.5,-693 652.5,-693"/>
<text text-anchor="start" x="684" y="-699.8" font-family="Times,serif" font-size="14.00" fill="#000000">pixmap_depth</text>
<polygon fill="none" stroke="#000000" points="428.5,-672 428.5,-693 459.5,-693 459.5,-672 428.5,-672"/>
<text text-anchor="start" x="434.5" y="-678.8" font-family="Times,serif" font-size="14.00" fill="#000000">12</text>
<polygon fill="none" stroke="#000000" points="459.5,-672 459.5,-693 493.5,-693 493.5,-672 459.5,-672"/>
<text text-anchor="start" x="471.5" y="-678.8" font-family="Times,serif" font-size="14.00" fill="#000000">4</text>
<polygon fill="none" stroke="#000000" points="493.5,-672 493.5,-693 652.5,-693 652.5,-672 493.5,-672"/>
<text text-anchor="start" x="555" y="-678.8" font-family="Times,serif" font-size="14.00" fill="#000000">u4be</text>
<polygon fill="none" stroke="#000000" points="652.5,-672 652.5,-693 817.5,-693 817.5,-672 652.5,-672"/>
<text text-anchor="start" x="684.5" y="-678.8" font-family="Times,serif" font-size="14.00" fill="#000000">pixmap_width</text>
<polygon fill="none" stroke="#000000" points="428.5,-651 428.5,-672 459.5,-672 459.5,-651 428.5,-651"/>
<text text-anchor="start" x="434.5" y="-657.8" font-family="Times,serif" font-size="14.00" fill="#000000">16</text>
<polygon fill="none" stroke="#000000" points="459.5,-651 459.5,-672 493.5,-672 493.5,-651 459.5,-651"/>
<text text-anchor="start" x="471.5" y="-657.8" font-family="Times,serif" font-size="14.00" fill="#000000">4</text>
<polygon fill="none" stroke="#000000" points="493.5,-651 493.5,-672 652.5,-672 652.5,-651 493.5,-651"/>
<text text-anchor="start" x="555" y="-657.8" font-family="Times,serif" font-size="14.00" fill="#000000">u4be</text>
<polygon fill="none" stroke="#000000" points="652.5,-651 652.5,-672 817.5,-672 817.5,-651 652.5,-651"/>
<text text-anchor="start" x="682" y="-657.8" font-family="Times,serif" font-size="14.00" fill="#000000">pixmap_height</text>
<polygon fill="none" stroke="#000000" points="428.5,-630 428.5,-651 459.5,-651 459.5,-630 428.5,-630"/>
<text text-anchor="start" x="434.5" y="-636.8" font-family="Times,serif" font-size="14.00" fill="#000000">20</text>
<polygon fill="none" stroke="#000000" points="459.5,-630 459.5,-651 493.5,-651 493.5,-630 459.5,-630"/>
<text text-anchor="start" x="471.5" y="-636.8" font-family="Times,serif" font-size="14.00" fill="#000000">4</text>
<polygon fill="none" stroke="#000000" points="493.5,-630 493.5,-651 652.5,-651 652.5,-630 493.5,-630"/>
<text text-anchor="start" x="555" y="-636.8" font-family="Times,serif" font-size="14.00" fill="#000000">u4be</text>
<polygon fill="none" stroke="#000000" points="652.5,-630 652.5,-651 817.5,-651 817.5,-630 652.5,-630"/>
<text text-anchor="start" x="706.5" y="-636.8" font-family="Times,serif" font-size="14.00" fill="#000000">x_offset</text>
<polygon fill="none" stroke="#000000" points="428.5,-609 428.5,-630 459.5,-630 459.5,-609 428.5,-609"/>
<text text-anchor="start" x="434.5" y="-615.8" font-family="Times,serif" font-size="14.00" fill="#000000">24</text>
<polygon fill="none" stroke="#000000" points="459.5,-609 459.5,-630 493.5,-630 493.5,-609 459.5,-609"/>
<text text-anchor="start" x="471.5" y="-615.8" font-family="Times,serif" font-size="14.00" fill="#000000">4</text>
<polygon fill="none" stroke="#000000" points="493.5,-609 493.5,-630 652.5,-630 652.5,-609 493.5,-609"/>
<text text-anchor="start" x="511" y="-615.8" font-family="Times,serif" font-size="14.00" fill="#000000">u4be→ByteOrder</text>
<polygon fill="none" stroke="#000000" points="652.5,-609 652.5,-630 817.5,-630 817.5,-609 652.5,-609"/>
<text text-anchor="start" x="695.5" y="-615.8" font-family="Times,serif" font-size="14.00" fill="#000000">byte_order</text>
<polygon fill="none" stroke="#000000" points="428.5,-588 428.5,-609 459.5,-609 459.5,-588 428.5,-588"/>
<text text-anchor="start" x="434.5" y="-594.8" font-family="Times,serif" font-size="14.00" fill="#000000">28</text>
<polygon fill="none" stroke="#000000" points="459.5,-588 459.5,-609 493.5,-609 493.5,-588 459.5,-588"/>
<text text-anchor="start" x="471.5" y="-594.8" font-family="Times,serif" font-size="14.00" fill="#000000">4</text>
<polygon fill="none" stroke="#000000" points="493.5,-588 493.5,-609 652.5,-609 652.5,-588 493.5,-588"/>
<text text-anchor="start" x="555" y="-594.8" font-family="Times,serif" font-size="14.00" fill="#000000">u4be</text>
<polygon fill="none" stroke="#000000" points="652.5,-588 652.5,-609 817.5,-609 817.5,-588 652.5,-588"/>
<text text-anchor="start" x="691.5" y="-594.8" font-family="Times,serif" font-size="14.00" fill="#000000">bitmap_unit</text>
<polygon fill="none" stroke="#000000" points="428.5,-567 428.5,-588 459.5,-588 459.5,-567 428.5,-567"/>
<text text-anchor="start" x="434.5" y="-573.8" font-family="Times,serif" font-size="14.00" fill="#000000">32</text>
<polygon fill="none" stroke="#000000" points="459.5,-567 459.5,-588 493.5,-588 493.5,-567 459.5,-567"/>
<text text-anchor="start" x="471.5" y="-573.8" font-family="Times,serif" font-size="14.00" fill="#000000">4</text>
<polygon fill="none" stroke="#000000" points="493.5,-567 493.5,-588 652.5,-588 652.5,-567 493.5,-567"/>
<text text-anchor="start" x="555" y="-573.8" font-family="Times,serif" font-size="14.00" fill="#000000">u4be</text>
<polygon fill="none" stroke="#000000" points="652.5,-567 652.5,-588 817.5,-588 817.5,-567 652.5,-567"/>
<text text-anchor="start" x="673" y="-573.8" font-family="Times,serif" font-size="14.00" fill="#000000">bitmap_bit_order</text>
<polygon fill="none" stroke="#000000" points="428.5,-546 428.5,-567 459.5,-567 459.5,-546 428.5,-546"/>
<text text-anchor="start" x="434.5" y="-552.8" font-family="Times,serif" font-size="14.00" fill="#000000">36</text>
<polygon fill="none" stroke="#000000" points="459.5,-546 459.5,-567 493.5,-567 493.5,-546 459.5,-546"/>
<text text-anchor="start" x="471.5" y="-552.8" font-family="Times,serif" font-size="14.00" fill="#000000">4</text>
<polygon fill="none" stroke="#000000" points="493.5,-546 493.5,-567 652.5,-567 652.5,-546 493.5,-546"/>
<text text-anchor="start" x="555" y="-552.8" font-family="Times,serif" font-size="14.00" fill="#000000">u4be</text>
<polygon fill="none" stroke="#000000" points="652.5,-546 652.5,-567 817.5,-567 817.5,-546 652.5,-546"/>
<text text-anchor="start" x="692.5" y="-552.8" font-family="Times,serif" font-size="14.00" fill="#000000">bitmap_pad</text>
<polygon fill="none" stroke="#000000" points="428.5,-525 428.5,-546 459.5,-546 459.5,-525 428.5,-525"/>
<text text-anchor="start" x="434.5" y="-531.8" font-family="Times,serif" font-size="14.00" fill="#000000">40</text>
<polygon fill="none" stroke="#000000" points="459.5,-525 459.5,-546 493.5,-546 493.5,-525 459.5,-525"/>
<text text-anchor="start" x="471.5" y="-531.8" font-family="Times,serif" font-size="14.00" fill="#000000">4</text>
<polygon fill="none" stroke="#000000" points="493.5,-525 493.5,-546 652.5,-546 652.5,-525 493.5,-525"/>
<text text-anchor="start" x="555" y="-531.8" font-family="Times,serif" font-size="14.00" fill="#000000">u4be</text>
<polygon fill="none" stroke="#000000" points="652.5,-525 652.5,-546 817.5,-546 817.5,-525 652.5,-525"/>
<text text-anchor="start" x="684.5" y="-531.8" font-family="Times,serif" font-size="14.00" fill="#000000">bits_per_pixel</text>
<polygon fill="none" stroke="#000000" points="428.5,-504 428.5,-525 459.5,-525 459.5,-504 428.5,-504"/>
<text text-anchor="start" x="434.5" y="-510.8" font-family="Times,serif" font-size="14.00" fill="#000000">44</text>
<polygon fill="none" stroke="#000000" points="459.5,-504 459.5,-525 493.5,-525 493.5,-504 459.5,-504"/>
<text text-anchor="start" x="471.5" y="-510.8" font-family="Times,serif" font-size="14.00" fill="#000000">4</text>
<polygon fill="none" stroke="#000000" points="493.5,-504 493.5,-525 652.5,-525 652.5,-504 493.5,-504"/>
<text text-anchor="start" x="555" y="-510.8" font-family="Times,serif" font-size="14.00" fill="#000000">u4be</text>
<polygon fill="none" stroke="#000000" points="652.5,-504 652.5,-525 817.5,-525 817.5,-504 652.5,-504"/>
<text text-anchor="start" x="682.5" y="-510.8" font-family="Times,serif" font-size="14.00" fill="#000000">bytes_per_line</text>
<polygon fill="none" stroke="#000000" points="428.5,-483 428.5,-504 459.5,-504 459.5,-483 428.5,-483"/>
<text text-anchor="start" x="434.5" y="-489.8" font-family="Times,serif" font-size="14.00" fill="#000000">48</text>
<polygon fill="none" stroke="#000000" points="459.5,-483 459.5,-504 493.5,-504 493.5,-483 459.5,-483"/>
<text text-anchor="start" x="471.5" y="-489.8" font-family="Times,serif" font-size="14.00" fill="#000000">4</text>
<polygon fill="none" stroke="#000000" points="493.5,-483 493.5,-504 652.5,-504 652.5,-483 493.5,-483"/>
<text text-anchor="start" x="507.5" y="-489.8" font-family="Times,serif" font-size="14.00" fill="#000000">u4be→VisualClass</text>
<polygon fill="none" stroke="#000000" points="652.5,-483 652.5,-504 817.5,-504 817.5,-483 652.5,-483"/>
<text text-anchor="start" x="692" y="-489.8" font-family="Times,serif" font-size="14.00" fill="#000000">visual_class</text>
<polygon fill="none" stroke="#000000" points="428.5,-462 428.5,-483 459.5,-483 459.5,-462 428.5,-462"/>
<text text-anchor="start" x="434.5" y="-468.8" font-family="Times,serif" font-size="14.00" fill="#000000">52</text>
<polygon fill="none" stroke="#000000" points="459.5,-462 459.5,-483 493.5,-483 493.5,-462 459.5,-462"/>
<text text-anchor="start" x="471.5" y="-468.8" font-family="Times,serif" font-size="14.00" fill="#000000">4</text>
<polygon fill="none" stroke="#000000" points="493.5,-462 493.5,-483 652.5,-483 652.5,-462 493.5,-462"/>
<text text-anchor="start" x="555" y="-468.8" font-family="Times,serif" font-size="14.00" fill="#000000">u4be</text>
<polygon fill="none" stroke="#000000" points="652.5,-462 652.5,-483 817.5,-483 817.5,-462 652.5,-462"/>
<text text-anchor="start" x="700" y="-468.8" font-family="Times,serif" font-size="14.00" fill="#000000">red_mask</text>
<polygon fill="none" stroke="#000000" points="428.5,-441 428.5,-462 459.5,-462 459.5,-441 428.5,-441"/>
<text text-anchor="start" x="434.5" y="-447.8" font-family="Times,serif" font-size="14.00" fill="#000000">56</text>
<polygon fill="none" stroke="#000000" points="459.5,-441 459.5,-462 493.5,-462 493.5,-441 459.5,-441"/>
<text text-anchor="start" x="471.5" y="-447.8" font-family="Times,serif" font-size="14.00" fill="#000000">4</text>
<polygon fill="none" stroke="#000000" points="493.5,-441 493.5,-462 652.5,-462 652.5,-441 493.5,-441"/>
<text text-anchor="start" x="555" y="-447.8" font-family="Times,serif" font-size="14.00" fill="#000000">u4be</text>
<polygon fill="none" stroke="#000000" points="652.5,-441 652.5,-462 817.5,-462 817.5,-441 652.5,-441"/>
<text text-anchor="start" x="691" y="-447.8" font-family="Times,serif" font-size="14.00" fill="#000000">green_mask</text>
<polygon fill="none" stroke="#000000" points="428.5,-420 428.5,-441 459.5,-441 459.5,-420 428.5,-420"/>
<text text-anchor="start" x="434.5" y="-426.8" font-family="Times,serif" font-size="14.00" fill="#000000">60</text>
<polygon fill="none" stroke="#000000" points="459.5,-420 459.5,-441 493.5,-441 493.5,-420 459.5,-420"/>
<text text-anchor="start" x="471.5" y="-426.8" font-family="Times,serif" font-size="14.00" fill="#000000">4</text>
<polygon fill="none" stroke="#000000" points="493.5,-420 493.5,-441 652.5,-441 652.5,-420 493.5,-420"/>
<text text-anchor="start" x="555" y="-426.8" font-family="Times,serif" font-size="14.00" fill="#000000">u4be</text>
<polygon fill="none" stroke="#000000" points="652.5,-420 652.5,-441 817.5,-441 817.5,-420 652.5,-420"/>
<text text-anchor="start" x="696.5" y="-426.8" font-family="Times,serif" font-size="14.00" fill="#000000">blue_mask</text>
<polygon fill="none" stroke="#000000" points="428.5,-399 428.5,-420 459.5,-420 459.5,-399 428.5,-399"/>
<text text-anchor="start" x="434.5" y="-405.8" font-family="Times,serif" font-size="14.00" fill="#000000">64</text>
<polygon fill="none" stroke="#000000" points="459.5,-399 459.5,-420 493.5,-420 493.5,-399 459.5,-399"/>
<text text-anchor="start" x="471.5" y="-405.8" font-family="Times,serif" font-size="14.00" fill="#000000">4</text>
<polygon fill="none" stroke="#000000" points="493.5,-399 493.5,-420 652.5,-420 652.5,-399 493.5,-399"/>
<text text-anchor="start" x="555" y="-405.8" font-family="Times,serif" font-size="14.00" fill="#000000">u4be</text>
<polygon fill="none" stroke="#000000" points="652.5,-399 652.5,-420 817.5,-420 817.5,-399 652.5,-399"/>
<text text-anchor="start" x="689.5" y="-405.8" font-family="Times,serif" font-size="14.00" fill="#000000">bits_per_rgb</text>
<polygon fill="none" stroke="#000000" points="428.5,-378 428.5,-399 459.5,-399 459.5,-378 428.5,-378"/>
<text text-anchor="start" x="434.5" y="-384.8" font-family="Times,serif" font-size="14.00" fill="#000000">68</text>
<polygon fill="none" stroke="#000000" points="459.5,-378 459.5,-399 493.5,-399 493.5,-378 459.5,-378"/>
<text text-anchor="start" x="471.5" y="-384.8" font-family="Times,serif" font-size="14.00" fill="#000000">4</text>
<polygon fill="none" stroke="#000000" points="493.5,-378 493.5,-399 652.5,-399 652.5,-378 493.5,-378"/>
<text text-anchor="start" x="555" y="-384.8" font-family="Times,serif" font-size="14.00" fill="#000000">u4be</text>
<polygon fill="none" stroke="#000000" points="652.5,-378 652.5,-399 817.5,-399 817.5,-378 652.5,-378"/>
<text text-anchor="start" x="671" y="-384.8" font-family="Times,serif" font-size="14.00" fill="#000000">number_of_colors</text>
<polygon fill="none" stroke="#000000" points="428.5,-357 428.5,-378 459.5,-378 459.5,-357 428.5,-357"/>
<text text-anchor="start" x="434.5" y="-363.8" font-family="Times,serif" font-size="14.00" fill="#000000">72</text>
<polygon fill="none" stroke="#000000" points="459.5,-357 459.5,-378 493.5,-378 493.5,-357 459.5,-357"/>
<text text-anchor="start" x="471.5" y="-363.8" font-family="Times,serif" font-size="14.00" fill="#000000">4</text>
<polygon fill="none" stroke="#000000" points="493.5,-357 493.5,-378 652.5,-378 652.5,-357 493.5,-357"/>
<text text-anchor="start" x="555" y="-363.8" font-family="Times,serif" font-size="14.00" fill="#000000">u4be</text>
<polygon fill="none" stroke="#000000" points="652.5,-357 652.5,-378 817.5,-378 817.5,-357 652.5,-357"/>
<text text-anchor="start" x="668.5" y="-363.8" font-family="Times,serif" font-size="14.00" fill="#000000">color_map_entries</text>
<polygon fill="none" stroke="#000000" points="428.5,-336 428.5,-357 459.5,-357 459.5,-336 428.5,-336"/>
<text text-anchor="start" x="434.5" y="-342.8" font-family="Times,serif" font-size="14.00" fill="#000000">76</text>
<polygon fill="none" stroke="#000000" points="459.5,-336 459.5,-357 493.5,-357 493.5,-336 459.5,-336"/>
<text text-anchor="start" x="471.5" y="-342.8" font-family="Times,serif" font-size="14.00" fill="#000000">4</text>
<polygon fill="none" stroke="#000000" points="493.5,-336 493.5,-357 652.5,-357 652.5,-336 493.5,-336"/>
<text text-anchor="start" x="555" y="-342.8" font-family="Times,serif" font-size="14.00" fill="#000000">u4be</text>
<polygon fill="none" stroke="#000000" points="652.5,-336 652.5,-357 817.5,-357 817.5,-336 652.5,-336"/>
<text text-anchor="start" x="683.5" y="-342.8" font-family="Times,serif" font-size="14.00" fill="#000000">window_width</text>
<polygon fill="none" stroke="#000000" points="428.5,-315 428.5,-336 459.5,-336 459.5,-315 428.5,-315"/>
<text text-anchor="start" x="434.5" y="-321.8" font-family="Times,serif" font-size="14.00" fill="#000000">80</text>
<polygon fill="none" stroke="#000000" points="459.5,-315 459.5,-336 493.5,-336 493.5,-315 459.5,-315"/>
<text text-anchor="start" x="471.5" y="-321.8" font-family="Times,serif" font-size="14.00" fill="#000000">4</text>
<polygon fill="none" stroke="#000000" points="493.5,-315 493.5,-336 652.5,-336 652.5,-315 493.5,-315"/>
<text text-anchor="start" x="555" y="-321.8" font-family="Times,serif" font-size="14.00" fill="#000000">u4be</text>
<polygon fill="none" stroke="#000000" points="652.5,-315 652.5,-336 817.5,-336 817.5,-315 652.5,-315"/>
<text text-anchor="start" x="680.5" y="-321.8" font-family="Times,serif" font-size="14.00" fill="#000000">window_height</text>
<polygon fill="none" stroke="#000000" points="428.5,-294 428.5,-315 459.5,-315 459.5,-294 428.5,-294"/>
<text text-anchor="start" x="434.5" y="-300.8" font-family="Times,serif" font-size="14.00" fill="#000000">84</text>
<polygon fill="none" stroke="#000000" points="459.5,-294 459.5,-315 493.5,-315 493.5,-294 459.5,-294"/>
<text text-anchor="start" x="471.5" y="-300.8" font-family="Times,serif" font-size="14.00" fill="#000000">4</text>
<polygon fill="none" stroke="#000000" points="493.5,-294 493.5,-315 652.5,-315 652.5,-294 493.5,-294"/>
<text text-anchor="start" x="556" y="-300.8" font-family="Times,serif" font-size="14.00" fill="#000000">s4be</text>
<polygon fill="none" stroke="#000000" points="652.5,-294 652.5,-315 817.5,-315 817.5,-294 652.5,-294"/>
<text text-anchor="start" x="699.5" y="-300.8" font-family="Times,serif" font-size="14.00" fill="#000000">window_x</text>
<polygon fill="none" stroke="#000000" points="428.5,-273 428.5,-294 459.5,-294 459.5,-273 428.5,-273"/>
<text text-anchor="start" x="434.5" y="-279.8" font-family="Times,serif" font-size="14.00" fill="#000000">88</text>
<polygon fill="none" stroke="#000000" points="459.5,-273 459.5,-294 493.5,-294 493.5,-273 459.5,-273"/>
<text text-anchor="start" x="471.5" y="-279.8" font-family="Times,serif" font-size="14.00" fill="#000000">4</text>
<polygon fill="none" stroke="#000000" points="493.5,-273 493.5,-294 652.5,-294 652.5,-273 493.5,-273"/>
<text text-anchor="start" x="556" y="-279.8" font-family="Times,serif" font-size="14.00" fill="#000000">s4be</text>
<polygon fill="none" stroke="#000000" points="652.5,-273 652.5,-294 817.5,-294 817.5,-273 652.5,-273"/>
<text text-anchor="start" x="699.5" y="-279.8" font-family="Times,serif" font-size="14.00" fill="#000000">window_y</text>
<polygon fill="none" stroke="#000000" points="428.5,-252 428.5,-273 459.5,-273 459.5,-252 428.5,-252"/>
<text text-anchor="start" x="434.5" y="-258.8" font-family="Times,serif" font-size="14.00" fill="#000000">92</text>
<polygon fill="none" stroke="#000000" points="459.5,-252 459.5,-273 493.5,-273 493.5,-252 459.5,-252"/>
<text text-anchor="start" x="471.5" y="-258.8" font-family="Times,serif" font-size="14.00" fill="#000000">4</text>
<polygon fill="none" stroke="#000000" points="493.5,-252 493.5,-273 652.5,-273 652.5,-252 493.5,-252"/>
<text text-anchor="start" x="555" y="-258.8" font-family="Times,serif" font-size="14.00" fill="#000000">u4be</text>
<polygon fill="none" stroke="#000000" points="652.5,-252 652.5,-273 817.5,-273 817.5,-252 652.5,-252"/>
<text text-anchor="start" x="655.5" y="-258.8" font-family="Times,serif" font-size="14.00" fill="#000000">window_border_width</text>
<polygon fill="none" stroke="#000000" points="428.5,-231 428.5,-252 459.5,-252 459.5,-231 428.5,-231"/>
<text text-anchor="start" x="434.5" y="-237.8" font-family="Times,serif" font-size="14.00" fill="#000000">96</text>
<polygon fill="none" stroke="#000000" points="459.5,-231 459.5,-252 493.5,-252 493.5,-231 459.5,-231"/>
<text text-anchor="start" x="469.5" y="-237.8" font-family="Times,serif" font-size="14.00" fill="#000000">...</text>
<polygon fill="none" stroke="#000000" points="493.5,-231 493.5,-252 652.5,-252 652.5,-231 493.5,-231"/>
<text text-anchor="start" x="535" y="-237.8" font-family="Times,serif" font-size="14.00" fill="#000000">str(UTF&#45;8)</text>
<polygon fill="none" stroke="#000000" points="652.5,-231 652.5,-252 817.5,-252 817.5,-231 652.5,-231"/>
<text text-anchor="start" x="708.5" y="-237.8" font-family="Times,serif" font-size="14.00" fill="#000000">creator</text>
</g>
<!-- xwd__seq&#45;&gt;header__seq -->
<g id="edge2" class="edge">
<title>xwd__seq:hdr_type&#45;&gt;header__seq</title>
<path fill="none" stroke="#000000" stroke-width="2" d="M376,-409C387.2625,-409 398.6325,-409.8741 409.9856,-411.4547"/>
<polygon fill="#000000" stroke="#000000" stroke-width="2" points="409.5331,-414.9265 419.9552,-413.0214 410.6198,-408.0113 409.5331,-414.9265"/>
</g>
<!-- color_map_entry__seq -->
<g id="node3" class="node">
<title>color_map_entry__seq</title>
<polygon fill="#e0ffe0" stroke="transparent" points="515.5,-154 515.5,-175 546.5,-175 546.5,-154 515.5,-154"/>
<polygon fill="none" stroke="#000000" points="515.5,-154 515.5,-175 546.5,-175 546.5,-154 515.5,-154"/>
<text text-anchor="start" x="518.5" y="-160.8" font-family="Times,serif" font-size="14.00" fill="#000000">pos</text>
<polygon fill="#e0ffe0" stroke="transparent" points="546.5,-154 546.5,-175 580.5,-175 580.5,-154 546.5,-154"/>
<polygon fill="none" stroke="#000000" points="546.5,-154 546.5,-175 580.5,-175 580.5,-154 546.5,-154"/>
<text text-anchor="start" x="549.5" y="-160.8" font-family="Times,serif" font-size="14.00" fill="#000000">size</text>
<polygon fill="#e0ffe0" stroke="transparent" points="580.5,-154 580.5,-175 622.5,-175 622.5,-154 580.5,-154"/>
<polygon fill="none" stroke="#000000" points="580.5,-154 580.5,-175 622.5,-175 622.5,-154 580.5,-154"/>
<text text-anchor="start" x="585.5" y="-160.8" font-family="Times,serif" font-size="14.00" fill="#000000">type</text>
<polygon fill="#e0ffe0" stroke="transparent" points="622.5,-154 622.5,-175 730.5,-175 730.5,-154 622.5,-154"/>
<polygon fill="none" stroke="#000000" points="622.5,-154 622.5,-175 730.5,-175 730.5,-154 622.5,-154"/>
<text text-anchor="start" x="669.5" y="-160.8" font-family="Times,serif" font-size="14.00" fill="#000000">id</text>
<polygon fill="none" stroke="#000000" points="515.5,-133 515.5,-154 546.5,-154 546.5,-133 515.5,-133"/>
<text text-anchor="start" x="526" y="-139.8" font-family="Times,serif" font-size="14.00" fill="#000000">0</text>
<polygon fill="none" stroke="#000000" points="546.5,-133 546.5,-154 580.5,-154 580.5,-133 546.5,-133"/>
<text text-anchor="start" x="558.5" y="-139.8" font-family="Times,serif" font-size="14.00" fill="#000000">4</text>
<polygon fill="none" stroke="#000000" points="580.5,-133 580.5,-154 622.5,-154 622.5,-133 580.5,-133"/>
<text text-anchor="start" x="583.5" y="-139.8" font-family="Times,serif" font-size="14.00" fill="#000000">u4be</text>
<polygon fill="none" stroke="#000000" points="622.5,-133 622.5,-154 730.5,-154 730.5,-133 622.5,-133"/>
<text text-anchor="start" x="625.5" y="-139.8" font-family="Times,serif" font-size="14.00" fill="#000000">entry_number</text>
<polygon fill="none" stroke="#000000" points="515.5,-112 515.5,-133 546.5,-133 546.5,-112 515.5,-112"/>
<text text-anchor="start" x="526" y="-118.8" font-family="Times,serif" font-size="14.00" fill="#000000">4</text>
<polygon fill="none" stroke="#000000" points="546.5,-112 546.5,-133 580.5,-133 580.5,-112 546.5,-112"/>
<text text-anchor="start" x="558.5" y="-118.8" font-family="Times,serif" font-size="14.00" fill="#000000">2</text>
<polygon fill="none" stroke="#000000" points="580.5,-112 580.5,-133 622.5,-133 622.5,-112 580.5,-112"/>
<text text-anchor="start" x="583.5" y="-118.8" font-family="Times,serif" font-size="14.00" fill="#000000">u2be</text>
<polygon fill="none" stroke="#000000" points="622.5,-112 622.5,-133 730.5,-133 730.5,-112 622.5,-112"/>
<text text-anchor="start" x="664" y="-118.8" font-family="Times,serif" font-size="14.00" fill="#000000">red</text>
<polygon fill="none" stroke="#000000" points="515.5,-91 515.5,-112 546.5,-112 546.5,-91 515.5,-91"/>
<text text-anchor="start" x="526" y="-97.8" font-family="Times,serif" font-size="14.00" fill="#000000">6</text>
<polygon fill="none" stroke="#000000" points="546.5,-91 546.5,-112 580.5,-112 580.5,-91 546.5,-91"/>
<text text-anchor="start" x="558.5" y="-97.8" font-family="Times,serif" font-size="14.00" fill="#000000">2</text>
<polygon fill="none" stroke="#000000" points="580.5,-91 580.5,-112 622.5,-112 622.5,-91 580.5,-91"/>
<text text-anchor="start" x="583.5" y="-97.8" font-family="Times,serif" font-size="14.00" fill="#000000">u2be</text>
<polygon fill="none" stroke="#000000" points="622.5,-91 622.5,-112 730.5,-112 730.5,-91 622.5,-91"/>
<text text-anchor="start" x="655.5" y="-97.8" font-family="Times,serif" font-size="14.00" fill="#000000">green</text>
<polygon fill="none" stroke="#000000" points="515.5,-70 515.5,-91 546.5,-91 546.5,-70 515.5,-70"/>
<text text-anchor="start" x="526" y="-76.8" font-family="Times,serif" font-size="14.00" fill="#000000">8</text>
<polygon fill="none" stroke="#000000" points="546.5,-70 546.5,-91 580.5,-91 580.5,-70 546.5,-70"/>
<text text-anchor="start" x="558.5" y="-76.8" font-family="Times,serif" font-size="14.00" fill="#000000">2</text>
<polygon fill="none" stroke="#000000" points="580.5,-70 580.5,-91 622.5,-91 622.5,-70 580.5,-70"/>
<text text-anchor="start" x="583.5" y="-76.8" font-family="Times,serif" font-size="14.00" fill="#000000">u2be</text>
<polygon fill="none" stroke="#000000" points="622.5,-70 622.5,-91 730.5,-91 730.5,-70 622.5,-70"/>
<text text-anchor="start" x="661" y="-76.8" font-family="Times,serif" font-size="14.00" fill="#000000">blue</text>
<polygon fill="none" stroke="#000000" points="515.5,-49 515.5,-70 546.5,-70 546.5,-49 515.5,-49"/>
<text text-anchor="start" x="521.5" y="-55.8" font-family="Times,serif" font-size="14.00" fill="#000000">10</text>
<polygon fill="none" stroke="#000000" points="546.5,-49 546.5,-70 580.5,-70 580.5,-49 546.5,-49"/>
<text text-anchor="start" x="558.5" y="-55.8" font-family="Times,serif" font-size="14.00" fill="#000000">1</text>
<polygon fill="none" stroke="#000000" points="580.5,-49 580.5,-70 622.5,-70 622.5,-49 580.5,-49"/>
<text text-anchor="start" x="592" y="-55.8" font-family="Times,serif" font-size="14.00" fill="#000000">u1</text>
<polygon fill="none" stroke="#000000" points="622.5,-49 622.5,-70 730.5,-70 730.5,-49 622.5,-49"/>
<text text-anchor="start" x="659" y="-55.8" font-family="Times,serif" font-size="14.00" fill="#000000">flags</text>
<polygon fill="none" stroke="#000000" points="515.5,-28 515.5,-49 546.5,-49 546.5,-28 515.5,-28"/>
<text text-anchor="start" x="521.5" y="-34.8" font-family="Times,serif" font-size="14.00" fill="#000000">11</text>
<polygon fill="none" stroke="#000000" points="546.5,-28 546.5,-49 580.5,-49 580.5,-28 546.5,-28"/>
<text text-anchor="start" x="558.5" y="-34.8" font-family="Times,serif" font-size="14.00" fill="#000000">1</text>
<polygon fill="none" stroke="#000000" points="580.5,-28 580.5,-49 622.5,-49 622.5,-28 580.5,-28"/>
<text text-anchor="start" x="592" y="-34.8" font-family="Times,serif" font-size="14.00" fill="#000000">u1</text>
<polygon fill="none" stroke="#000000" points="622.5,-28 622.5,-49 730.5,-49 730.5,-28 622.5,-28"/>
<text text-anchor="start" x="647.5" y="-34.8" font-family="Times,serif" font-size="14.00" fill="#000000">padding</text>
</g>
<!-- xwd__seq&#45;&gt;color_map_entry__seq -->
<g id="edge3" class="edge">
<title>xwd__seq:color_map_type&#45;&gt;color_map_entry__seq</title>
<path fill="none" stroke="#000000" stroke-width="2" d="M376,-388C454.536,-388 364.9949,-277.916 412,-215 433.8408,-185.7662 465.5311,-163.2797 497.7215,-146.3555"/>
<polygon fill="#000000" stroke="#000000" stroke-width="2" points="499.4839,-149.3858 506.8064,-141.7286 496.3071,-143.1482 499.4839,-149.3858"/>
</g>
<!-- header__seq&#45;&gt;xwd__seq -->
<g id="edge4" class="edge">
<title>header__seq:color_map_entries_type&#45;&gt;xwd__seq:color_map__repeat</title>
<path fill="none" stroke="#404040" d="M817.5,-367C817.5,-367 420,-227 420,-227 370.5,-263.33 433.0079,-355.3318 386.0864,-365.9886"/>
<polygon fill="#404040" stroke="#404040" points="385.6008,-362.5196 376,-367 386.2993,-369.4847 385.6008,-362.5196"/>
</g>
</g>
</svg>
