<?xml version="1.0" encoding="UTF-8" standalone="no"?>
<!DOCTYPE svg PUBLIC "-//W3C//DTD SVG 1.1//EN"
 "http://www.w3.org/Graphics/SVG/1.1/DTD/svg11.dtd">
<!-- Generated by graphviz version 2.38.0 (20140413.2041)
 -->
<!-- Title: %3 Pages: 1 -->
<svg width="835pt" height="216pt"
 viewBox="0.00 0.00 835.00 216.00" xmlns="http://www.w3.org/2000/svg" xmlns:xlink="http://www.w3.org/1999/xlink">
<g id="graph0" class="graph" transform="scale(1 1) rotate(0) translate(4 212)">
<title>%3</title>
<polygon fill="white" stroke="none" points="-4,4 -4,-212 831,-212 831,4 -4,4"/>
<g id="clust1" class="cluster"><title>cluster__stl</title>
<polygon fill="none" stroke="black" stroke-dasharray="1,5" points="122,-8 122,-200 819,-200 819,-8 122,-8"/>
<text text-anchor="middle" x="470.5" y="-184.8" font-family="Times,serif" font-size="14.00">Stl</text>
</g>
<g id="clust2" class="cluster"><title>cluster__triangle</title>
<polygon fill="none" stroke="black" stroke-dasharray="1,5" points="414,-26 414,-157 625,-157 625,-26 414,-26"/>
<text text-anchor="middle" x="519.5" y="-141.8" font-family="Times,serif" font-size="14.00">Stl::Triangle</text>
</g>
<g id="clust3" class="cluster"><title>cluster__vec3d</title>
<polygon fill="none" stroke="black" stroke-dasharray="1,5" points="645,-16 645,-169 811,-169 811,-16 645,-16"/>
<text text-anchor="middle" x="728" y="-153.8" font-family="Times,serif" font-size="14.00">Stl::Vec3d</text>
</g>
<!-- stl__seq -->
<g id="node1" class="node"><title>stl__seq</title>
<polygon fill="#e0ffe0" stroke="none" points="138,-133 138,-154 169,-154 169,-133 138,-133"/>
<polygon fill="none" stroke="black" points="138,-133 138,-154 169,-154 169,-133 138,-133"/>
<text text-anchor="start" x="141" y="-139.8" font-family="Times,serif" font-size="14.00">pos</text>
<polygon fill="#e0ffe0" stroke="none" points="169,-133 169,-154 203,-154 203,-133 169,-133"/>
<polygon fill="none" stroke="black" points="169,-133 169,-154 203,-154 203,-133 169,-133"/>
<text text-anchor="start" x="172" y="-139.8" font-family="Times,serif" font-size="14.00">size</text>
<polygon fill="#e0ffe0" stroke="none" points="203,-133 203,-154 269,-154 269,-133 203,-133"/>
<polygon fill="none" stroke="black" points="203,-133 203,-154 269,-154 269,-133 203,-133"/>
<text text-anchor="start" x="220" y="-139.8" font-family="Times,serif" font-size="14.00">type</text>
<polygon fill="#e0ffe0" stroke="none" points="269,-133 269,-154 378,-154 378,-133 269,-133"/>
<polygon fill="none" stroke="black" points="269,-133 269,-154 378,-154 378,-133 269,-133"/>
<text text-anchor="start" x="316.5" y="-139.8" font-family="Times,serif" font-size="14.00">id</text>
<polygon fill="none" stroke="black" points="138,-112 138,-133 169,-133 169,-112 138,-112"/>
<text text-anchor="start" x="148.5" y="-118.8" font-family="Times,serif" font-size="14.00">0</text>
<polygon fill="none" stroke="black" points="169,-112 169,-133 203,-133 203,-112 169,-112"/>
<text text-anchor="start" x="176.5" y="-118.8" font-family="Times,serif" font-size="14.00">80</text>
<polygon fill="none" stroke="black" points="203,-112 203,-133 269,-133 269,-112 203,-112"/>
<polygon fill="none" stroke="black" points="269,-112 269,-133 378,-133 378,-112 269,-112"/>
<text text-anchor="start" x="298.5" y="-118.8" font-family="Times,serif" font-size="14.00">header</text>
<polygon fill="none" stroke="black" points="138,-91 138,-112 169,-112 169,-91 138,-91"/>
<text text-anchor="start" x="144" y="-97.8" font-family="Times,serif" font-size="14.00">80</text>
<polygon fill="none" stroke="black" points="169,-91 169,-112 203,-112 203,-91 169,-91"/>
<text text-anchor="start" x="181" y="-97.8" font-family="Times,serif" font-size="14.00">4</text>
<polygon fill="none" stroke="black" points="203,-91 203,-112 269,-112 269,-91 203,-91"/>
<text text-anchor="start" x="220.5" y="-97.8" font-family="Times,serif" font-size="14.00">u4le</text>
<polygon fill="none" stroke="black" points="269,-91 269,-112 378,-112 378,-91 269,-91"/>
<text text-anchor="start" x="272" y="-97.8" font-family="Times,serif" font-size="14.00">num_triangles</text>
<polygon fill="none" stroke="black" points="138,-70 138,-91 169,-91 169,-70 138,-70"/>
<text text-anchor="start" x="144" y="-76.8" font-family="Times,serif" font-size="14.00">84</text>
<polygon fill="none" stroke="black" points="169,-70 169,-91 203,-91 203,-70 169,-70"/>
<text text-anchor="start" x="176.5" y="-76.8" font-family="Times,serif" font-size="14.00">56</text>
<polygon fill="none" stroke="black" points="203,-70 203,-91 269,-91 269,-70 203,-70"/>
<text text-anchor="start" x="206" y="-76.8" font-family="Times,serif" font-size="14.00">Triangle</text>
<polygon fill="none" stroke="black" points="269,-70 269,-91 378,-91 378,-70 269,-70"/>
<text text-anchor="start" x="291.5" y="-76.8" font-family="Times,serif" font-size="14.00">triangles</text>
<polygon fill="none" stroke="black" points="138,-49 138,-70 378,-70 378,-49 138,-49"/>
<text text-anchor="start" x="158.5" y="-55.8" font-family="Times,serif" font-size="14.00">repeat num_triangles times</text>
</g>
<!-- stl__seq&#45;&gt;stl__seq -->
<g id="edge2" class="edge"><title>stl__seq:num_triangles_type&#45;&gt;stl__seq:triangles__repeat</title>
<path fill="none" stroke="#404040" d="M268.907,-104.705C163.989,-109.134 0,-104.902 0,-80 0,-62.2213 60.4071,-54.9786 127.523,-53.9014"/>
<polygon fill="#404040" stroke="#404040" points="127.945,-57.3969 137.905,-53.7836 127.866,-50.3973 127.945,-57.3969"/>
</g>
<!-- triangle__seq -->
<g id="node2" class="node"><title>triangle__seq</title>
<polygon fill="#e0ffe0" stroke="none" points="430.5,-101 430.5,-122 461.5,-122 461.5,-101 430.5,-101"/>
<polygon fill="none" stroke="black" points="430.5,-101 430.5,-122 461.5,-122 461.5,-101 430.5,-101"/>
<text text-anchor="start" x="433.5" y="-107.8" font-family="Times,serif" font-size="14.00">pos</text>
<polygon fill="#e0ffe0" stroke="none" points="461.5,-101 461.5,-122 495.5,-122 495.5,-101 461.5,-101"/>
<polygon fill="none" stroke="black" points="461.5,-101 461.5,-122 495.5,-122 495.5,-101 461.5,-101"/>
<text text-anchor="start" x="464.5" y="-107.8" font-family="Times,serif" font-size="14.00">size</text>
<polygon fill="#e0ffe0" stroke="none" points="495.5,-101 495.5,-122 545.5,-122 545.5,-101 495.5,-101"/>
<polygon fill="none" stroke="black" points="495.5,-101 495.5,-122 545.5,-122 545.5,-101 495.5,-101"/>
<text text-anchor="start" x="504.5" y="-107.8" font-family="Times,serif" font-size="14.00">type</text>
<polygon fill="#e0ffe0" stroke="none" points="545.5,-101 545.5,-122 609.5,-122 609.5,-101 545.5,-101"/>
<polygon fill="none" stroke="black" points="545.5,-101 545.5,-122 609.5,-122 609.5,-101 545.5,-101"/>
<text text-anchor="start" x="570.5" y="-107.8" font-family="Times,serif" font-size="14.00">id</text>
<polygon fill="none" stroke="black" points="430.5,-80 430.5,-101 461.5,-101 461.5,-80 430.5,-80"/>
<text text-anchor="start" x="441" y="-86.8" font-family="Times,serif" font-size="14.00">0</text>
<polygon fill="none" stroke="black" points="461.5,-80 461.5,-101 495.5,-101 495.5,-80 461.5,-80"/>
<text text-anchor="start" x="469" y="-86.8" font-family="Times,serif" font-size="14.00">14</text>
<polygon fill="none" stroke="black" points="495.5,-80 495.5,-101 545.5,-101 545.5,-80 495.5,-80"/>
<text text-anchor="start" x="498.5" y="-86.8" font-family="Times,serif" font-size="14.00">Vec3d</text>
<polygon fill="none" stroke="black" points="545.5,-80 545.5,-101 609.5,-101 609.5,-80 545.5,-80"/>
<text text-anchor="start" x="552" y="-86.8" font-family="Times,serif" font-size="14.00">normal</text>
<polygon fill="none" stroke="black" points="430.5,-59 430.5,-80 461.5,-80 461.5,-59 430.5,-59"/>
<text text-anchor="start" x="436.5" y="-65.8" font-family="Times,serif" font-size="14.00">14</text>
<polygon fill="none" stroke="black" points="461.5,-59 461.5,-80 495.5,-80 495.5,-59 461.5,-59"/>
<text text-anchor="start" x="469" y="-65.8" font-family="Times,serif" font-size="14.00">14</text>
<polygon fill="none" stroke="black" points="495.5,-59 495.5,-80 545.5,-80 545.5,-59 495.5,-59"/>
<text text-anchor="start" x="498.5" y="-65.8" font-family="Times,serif" font-size="14.00">Vec3d</text>
<polygon fill="none" stroke="black" points="545.5,-59 545.5,-80 609.5,-80 609.5,-59 545.5,-59"/>
<text text-anchor="start" x="548.5" y="-65.8" font-family="Times,serif" font-size="14.00">vertices</text>
<polygon fill="none" stroke="black" points="430.5,-38 430.5,-59 609.5,-59 609.5,-38 430.5,-38"/>
<text text-anchor="start" x="467.5" y="-44.8" font-family="Times,serif" font-size="14.00">repeat 3 times</text>
</g>
<!-- stl__seq&#45;&gt;triangle__seq -->
<g id="edge1" class="edge"><title>stl__seq:triangles_type&#45;&gt;triangle__seq</title>
<path fill="none" stroke="black" stroke-width="2" d="M379,-80C389.569,-80 400.589,-80 411.598,-80"/>
<polygon fill="black" stroke="black" stroke-width="2" points="411.693,-83.5001 421.693,-80 411.693,-76.5001 411.693,-83.5001"/>
</g>
<!-- vec3d__seq -->
<g id="node3" class="node"><title>vec3d__seq</title>
<polygon fill="#e0ffe0" stroke="none" points="661,-112 661,-133 692,-133 692,-112 661,-112"/>
<polygon fill="none" stroke="black" points="661,-112 661,-133 692,-133 692,-112 661,-112"/>
<text text-anchor="start" x="664" y="-118.8" font-family="Times,serif" font-size="14.00">pos</text>
<polygon fill="#e0ffe0" stroke="none" points="692,-112 692,-133 726,-133 726,-112 692,-112"/>
<polygon fill="none" stroke="black" points="692,-112 692,-133 726,-133 726,-112 692,-112"/>
<text text-anchor="start" x="695" y="-118.8" font-family="Times,serif" font-size="14.00">size</text>
<polygon fill="#e0ffe0" stroke="none" points="726,-112 726,-133 764,-133 764,-112 726,-112"/>
<polygon fill="none" stroke="black" points="726,-112 726,-133 764,-133 764,-112 726,-112"/>
<text text-anchor="start" x="729" y="-118.8" font-family="Times,serif" font-size="14.00">type</text>
<polygon fill="#e0ffe0" stroke="none" points="764,-112 764,-133 795,-133 795,-112 764,-112"/>
<polygon fill="none" stroke="black" points="764,-112 764,-133 795,-133 795,-112 764,-112"/>
<text text-anchor="start" x="772.5" y="-118.8" font-family="Times,serif" font-size="14.00">id</text>
<polygon fill="none" stroke="black" points="661,-91 661,-112 692,-112 692,-91 661,-91"/>
<text text-anchor="start" x="671.5" y="-97.8" font-family="Times,serif" font-size="14.00">0</text>
<polygon fill="none" stroke="black" points="692,-91 692,-112 726,-112 726,-91 692,-91"/>
<text text-anchor="start" x="704" y="-97.8" font-family="Times,serif" font-size="14.00">4</text>
<polygon fill="none" stroke="black" points="726,-91 726,-112 764,-112 764,-91 726,-91"/>
<text text-anchor="start" x="731" y="-97.8" font-family="Times,serif" font-size="14.00">f4le</text>
<polygon fill="none" stroke="black" points="764,-91 764,-112 795,-112 795,-91 764,-91"/>
<text text-anchor="start" x="775" y="-97.8" font-family="Times,serif" font-size="14.00">x</text>
<polygon fill="none" stroke="black" points="661,-70 661,-91 692,-91 692,-70 661,-70"/>
<text text-anchor="start" x="671.5" y="-76.8" font-family="Times,serif" font-size="14.00">4</text>
<polygon fill="none" stroke="black" points="692,-70 692,-91 726,-91 726,-70 692,-70"/>
<text text-anchor="start" x="704" y="-76.8" font-family="Times,serif" font-size="14.00">4</text>
<polygon fill="none" stroke="black" points="726,-70 726,-91 764,-91 764,-70 726,-70"/>
<text text-anchor="start" x="731" y="-76.8" font-family="Times,serif" font-size="14.00">f4le</text>
<polygon fill="none" stroke="black" points="764,-70 764,-91 795,-91 795,-70 764,-70"/>
<text text-anchor="start" x="775" y="-76.8" font-family="Times,serif" font-size="14.00">y</text>
<polygon fill="none" stroke="black" points="661,-49 661,-70 692,-70 692,-49 661,-49"/>
<text text-anchor="start" x="671.5" y="-55.8" font-family="Times,serif" font-size="14.00">8</text>
<polygon fill="none" stroke="black" points="692,-49 692,-70 726,-70 726,-49 692,-49"/>
<text text-anchor="start" x="704" y="-55.8" font-family="Times,serif" font-size="14.00">4</text>
<polygon fill="none" stroke="black" points="726,-49 726,-70 764,-70 764,-49 726,-49"/>
<text text-anchor="start" x="731" y="-55.8" font-family="Times,serif" font-size="14.00">f4le</text>
<polygon fill="none" stroke="black" points="764,-49 764,-70 795,-70 795,-49 764,-49"/>
<text text-anchor="start" x="775.5" y="-55.8" font-family="Times,serif" font-size="14.00">z</text>
<polygon fill="none" stroke="black" points="661,-28 661,-49 692,-49 692,-28 661,-28"/>
<text text-anchor="start" x="667" y="-34.8" font-family="Times,serif" font-size="14.00">12</text>
<polygon fill="none" stroke="black" points="692,-28 692,-49 726,-49 726,-28 692,-28"/>
<text text-anchor="start" x="704" y="-34.8" font-family="Times,serif" font-size="14.00">2</text>
<polygon fill="none" stroke="black" points="726,-28 726,-49 764,-49 764,-28 726,-28"/>
<text text-anchor="start" x="729.5" y="-34.8" font-family="Times,serif" font-size="14.00">u2le</text>
<polygon fill="none" stroke="black" points="764,-28 764,-49 795,-49 795,-28 764,-28"/>
<text text-anchor="start" x="767" y="-34.8" font-family="Times,serif" font-size="14.00">abr</text>
</g>
<!-- triangle__seq&#45;&gt;vec3d__seq -->
<g id="edge3" class="edge"><title>triangle__seq:normal_type&#45;&gt;vec3d__seq</title>
<path fill="none" stroke="black" stroke-width="2" d="M610.5,-91C620.884,-91 631.77,-90.6007 642.542,-89.9618"/>
<polygon fill="black" stroke="black" stroke-width="2" points="643.068,-93.4347 652.815,-89.2809 642.605,-86.45 643.068,-93.4347"/>
</g>
<!-- triangle__seq&#45;&gt;vec3d__seq -->
<g id="edge4" class="edge"><title>triangle__seq:vertices_type&#45;&gt;vec3d__seq</title>
<path fill="none" stroke="black" stroke-width="2" d="M610.5,-69C620.901,-69 631.796,-69.4791 642.574,-70.2459"/>
<polygon fill="black" stroke="black" stroke-width="2" points="642.605,-73.7593 652.851,-71.0629 643.159,-66.7813 642.605,-73.7593"/>
</g>
</g>
</svg>
