<?xml version="1.0" encoding="UTF-8" standalone="no"?>
<!DOCTYPE svg PUBLIC "-//W3C//DTD SVG 1.1//EN"
 "http://www.w3.org/Graphics/SVG/1.1/DTD/svg11.dtd">
<!-- Generated by graphviz version 2.40.1 (20161225.0304)
 -->
<!-- Title: %3 Pages: 1 -->
<svg width="695pt" height="216pt"
 viewBox="0.00 0.00 695.00 216.00" xmlns="http://www.w3.org/2000/svg" xmlns:xlink="http://www.w3.org/1999/xlink">
<g id="graph0" class="graph" transform="scale(1 1) rotate(0) translate(4 212)">
<title>%3</title>
<polygon fill="#ffffff" stroke="transparent" points="-4,4 -4,-212 691,-212 691,4 -4,4"/>
<g id="clust1" class="cluster">
<title>cluster__stl</title>
<polygon fill="none" stroke="#000000" stroke-dasharray="1,5" points="101,-8 101,-200 679,-200 679,-8 101,-8"/>
<text text-anchor="middle" x="390" y="-184.8" font-family="Times,serif" font-size="14.00" fill="#000000">Stl</text>
</g>
<g id="clust2" class="cluster">
<title>cluster__triangle</title>
<polygon fill="none" stroke="#000000" stroke-dasharray="1,5" points="343,-16 343,-169 519,-169 519,-16 343,-16"/>
<text text-anchor="middle" x="431" y="-153.8" font-family="Times,serif" font-size="14.00" fill="#000000">Stl::Triangle</text>
</g>
<g id="clust3" class="cluster">
<title>cluster__vec3d</title>
<polygon fill="none" stroke="#000000" stroke-dasharray="1,5" points="539,-32 539,-163 671,-163 671,-32 539,-32"/>
<text text-anchor="middle" x="605" y="-147.8" font-family="Times,serif" font-size="14.00" fill="#000000">Stl::Vec3d</text>
</g>
<!-- stl__seq -->
<g id="node1" class="node">
<title>stl__seq</title>
<polygon fill="#e0ffe0" stroke="transparent" points="117,-134 117,-155 142,-155 142,-134 117,-134"/>
<polygon fill="none" stroke="#000000" points="117,-134 117,-155 142,-155 142,-134 117,-134"/>
<text text-anchor="start" x="120" y="-140.8" font-family="Times,serif" font-size="14.00" fill="#000000">pos</text>
<polygon fill="#e0ffe0" stroke="transparent" points="142,-134 142,-155 170,-155 170,-134 142,-134"/>
<polygon fill="none" stroke="#000000" points="142,-134 142,-155 170,-155 170,-134 142,-134"/>
<text text-anchor="start" x="145" y="-140.8" font-family="Times,serif" font-size="14.00" fill="#000000">size</text>
<polygon fill="#e0ffe0" stroke="transparent" points="170,-134 170,-155 222,-155 222,-134 170,-134"/>
<polygon fill="none" stroke="#000000" points="170,-134 170,-155 222,-155 222,-134 170,-134"/>
<text text-anchor="start" x="184" y="-140.8" font-family="Times,serif" font-size="14.00" fill="#000000">type</text>
<polygon fill="#e0ffe0" stroke="transparent" points="222,-134 222,-155 307,-155 307,-134 222,-134"/>
<polygon fill="none" stroke="#000000" points="222,-134 222,-155 307,-155 307,-134 222,-134"/>
<text text-anchor="start" x="259" y="-140.8" font-family="Times,serif" font-size="14.00" fill="#000000">id</text>
<polygon fill="none" stroke="#000000" points="117,-113 117,-134 142,-134 142,-113 117,-113"/>
<text text-anchor="start" x="126" y="-119.8" font-family="Times,serif" font-size="14.00" fill="#000000">0</text>
<polygon fill="none" stroke="#000000" points="142,-113 142,-134 170,-134 170,-113 142,-113"/>
<text text-anchor="start" x="149" y="-119.8" font-family="Times,serif" font-size="14.00" fill="#000000">80</text>
<polygon fill="none" stroke="#000000" points="170,-113 170,-134 222,-134 222,-113 170,-113"/>
<polygon fill="none" stroke="#000000" points="222,-113 222,-134 307,-134 307,-113 222,-113"/>
<text text-anchor="start" x="246" y="-119.8" font-family="Times,serif" font-size="14.00" fill="#000000">header</text>
<polygon fill="none" stroke="#000000" points="117,-92 117,-113 142,-113 142,-92 117,-92"/>
<text text-anchor="start" x="122.5" y="-98.8" font-family="Times,serif" font-size="14.00" fill="#000000">80</text>
<polygon fill="none" stroke="#000000" points="142,-92 142,-113 170,-113 170,-92 142,-92"/>
<text text-anchor="start" x="152.5" y="-98.8" font-family="Times,serif" font-size="14.00" fill="#000000">4</text>
<polygon fill="none" stroke="#000000" points="170,-92 170,-113 222,-113 222,-92 170,-92"/>
<text text-anchor="start" x="184" y="-98.8" font-family="Times,serif" font-size="14.00" fill="#000000">u4le</text>
<polygon fill="none" stroke="#000000" points="222,-92 222,-113 307,-113 307,-92 222,-92"/>
<text text-anchor="start" x="225" y="-98.8" font-family="Times,serif" font-size="14.00" fill="#000000">num_triangles</text>
<polygon fill="none" stroke="#000000" points="117,-71 117,-92 142,-92 142,-71 117,-71"/>
<text text-anchor="start" x="122.5" y="-77.8" font-family="Times,serif" font-size="14.00" fill="#000000">84</text>
<polygon fill="none" stroke="#000000" points="142,-71 142,-92 170,-92 170,-71 142,-71"/>
<text text-anchor="start" x="149" y="-77.8" font-family="Times,serif" font-size="14.00" fill="#000000">50</text>
<polygon fill="none" stroke="#000000" points="170,-71 170,-92 222,-92 222,-71 170,-71"/>
<text text-anchor="start" x="173" y="-77.8" font-family="Times,serif" font-size="14.00" fill="#000000">Triangle</text>
<polygon fill="none" stroke="#000000" points="222,-71 222,-92 307,-92 307,-71 222,-71"/>
<text text-anchor="start" x="241" y="-77.8" font-family="Times,serif" font-size="14.00" fill="#000000">triangles</text>
<polygon fill="none" stroke="#000000" points="117,-50 117,-71 307,-71 307,-50 117,-50"/>
<text text-anchor="start" x="137.5" y="-56.8" font-family="Times,serif" font-size="14.00" fill="#000000">repeat num_triangles times</text>
</g>
<!-- stl__seq&#45;&gt;stl__seq -->
<g id="edge2" class="edge">
<title>stl__seq:num_triangles_type&#45;&gt;stl__seq:triangles__repeat</title>
<path fill="none" stroke="#404040" d="M221.9376,-105.5941C136.116,-110.2021 0,-106.1074 0,-81 0,-63.008 50.8348,-55.8064 106.7734,-54.8653"/>
<polygon fill="#404040" stroke="#404040" points="106.9307,-58.3639 116.8946,-54.7625 106.8595,-51.3643 106.9307,-58.3639"/>
</g>
<!-- triangle__seq -->
<g id="node2" class="node">
<title>triangle__seq</title>
<polygon fill="#e0ffe0" stroke="transparent" points="359,-112 359,-133 384,-133 384,-112 359,-112"/>
<polygon fill="none" stroke="#000000" points="359,-112 359,-133 384,-133 384,-112 359,-112"/>
<text text-anchor="start" x="362" y="-118.8" font-family="Times,serif" font-size="14.00" fill="#000000">pos</text>
<polygon fill="#e0ffe0" stroke="transparent" points="384,-112 384,-133 412,-133 412,-112 384,-112"/>
<polygon fill="none" stroke="#000000" points="384,-112 384,-133 412,-133 412,-112 384,-112"/>
<text text-anchor="start" x="387" y="-118.8" font-family="Times,serif" font-size="14.00" fill="#000000">size</text>
<polygon fill="#e0ffe0" stroke="transparent" points="412,-112 412,-133 454,-133 454,-112 412,-112"/>
<polygon fill="none" stroke="#000000" points="412,-112 412,-133 454,-133 454,-112 412,-112"/>
<text text-anchor="start" x="421" y="-118.8" font-family="Times,serif" font-size="14.00" fill="#000000">type</text>
<polygon fill="#e0ffe0" stroke="transparent" points="454,-112 454,-133 503,-133 503,-112 454,-112"/>
<polygon fill="none" stroke="#000000" points="454,-112 454,-133 503,-133 503,-112 454,-112"/>
<text text-anchor="start" x="473" y="-118.8" font-family="Times,serif" font-size="14.00" fill="#000000">id</text>
<polygon fill="none" stroke="#000000" points="359,-91 359,-112 384,-112 384,-91 359,-91"/>
<text text-anchor="start" x="368" y="-97.8" font-family="Times,serif" font-size="14.00" fill="#000000">0</text>
<polygon fill="none" stroke="#000000" points="384,-91 384,-112 412,-112 412,-91 384,-91"/>
<text text-anchor="start" x="391" y="-97.8" font-family="Times,serif" font-size="14.00" fill="#000000">12</text>
<polygon fill="none" stroke="#000000" points="412,-91 412,-112 454,-112 454,-91 412,-91"/>
<text text-anchor="start" x="415" y="-97.8" font-family="Times,serif" font-size="14.00" fill="#000000">Vec3d</text>
<polygon fill="none" stroke="#000000" points="454,-91 454,-112 503,-112 503,-91 454,-91"/>
<text text-anchor="start" x="458.5" y="-97.8" font-family="Times,serif" font-size="14.00" fill="#000000">normal</text>
<polygon fill="none" stroke="#000000" points="359,-70 359,-91 384,-91 384,-70 359,-70"/>
<text text-anchor="start" x="364.5" y="-76.8" font-family="Times,serif" font-size="14.00" fill="#000000">12</text>
<polygon fill="none" stroke="#000000" points="384,-70 384,-91 412,-91 412,-70 384,-70"/>
<text text-anchor="start" x="391" y="-76.8" font-family="Times,serif" font-size="14.00" fill="#000000">12</text>
<polygon fill="none" stroke="#000000" points="412,-70 412,-91 454,-91 454,-70 412,-70"/>
<text text-anchor="start" x="415" y="-76.8" font-family="Times,serif" font-size="14.00" fill="#000000">Vec3d</text>
<polygon fill="none" stroke="#000000" points="454,-70 454,-91 503,-91 503,-70 454,-70"/>
<text text-anchor="start" x="457" y="-76.8" font-family="Times,serif" font-size="14.00" fill="#000000">vertices</text>
<polygon fill="none" stroke="#000000" points="359,-49 359,-70 503,-70 503,-49 359,-49"/>
<text text-anchor="start" x="392" y="-55.8" font-family="Times,serif" font-size="14.00" fill="#000000">repeat 3 times</text>
<polygon fill="none" stroke="#000000" points="359,-28 359,-49 384,-49 384,-28 359,-28"/>
<text text-anchor="start" x="364.5" y="-34.8" font-family="Times,serif" font-size="14.00" fill="#000000">48</text>
<polygon fill="none" stroke="#000000" points="384,-28 384,-49 412,-49 412,-28 384,-28"/>
<text text-anchor="start" x="394.5" y="-34.8" font-family="Times,serif" font-size="14.00" fill="#000000">2</text>
<polygon fill="none" stroke="#000000" points="412,-28 412,-49 454,-49 454,-28 412,-28"/>
<text text-anchor="start" x="421" y="-34.8" font-family="Times,serif" font-size="14.00" fill="#000000">u2le</text>
<polygon fill="none" stroke="#000000" points="454,-28 454,-49 503,-49 503,-28 454,-28"/>
<text text-anchor="start" x="469.5" y="-34.8" font-family="Times,serif" font-size="14.00" fill="#000000">abr</text>
</g>
<!-- stl__seq&#45;&gt;triangle__seq -->
<g id="edge1" class="edge">
<title>stl__seq:triangles_type&#45;&gt;triangle__seq</title>
<path fill="none" stroke="#000000" stroke-width="2" d="M307,-81C317.8783,-81 329.2933,-81 340.6094,-81"/>
<polygon fill="#000000" stroke="#000000" stroke-width="2" points="340.9558,-84.5001 350.9557,-81 340.9557,-77.5001 340.9558,-84.5001"/>
</g>
<!-- vec3d__seq -->
<g id="node3" class="node">
<title>vec3d__seq</title>
<polygon fill="#e0ffe0" stroke="transparent" points="555,-107 555,-128 580,-128 580,-107 555,-107"/>
<polygon fill="none" stroke="#000000" points="555,-107 555,-128 580,-128 580,-107 555,-107"/>
<text text-anchor="start" x="558" y="-113.8" font-family="Times,serif" font-size="14.00" fill="#000000">pos</text>
<polygon fill="#e0ffe0" stroke="transparent" points="580,-107 580,-128 608,-128 608,-107 580,-107"/>
<polygon fill="none" stroke="#000000" points="580,-107 580,-128 608,-128 608,-107 580,-107"/>
<text text-anchor="start" x="583" y="-113.8" font-family="Times,serif" font-size="14.00" fill="#000000">size</text>
<polygon fill="#e0ffe0" stroke="transparent" points="608,-107 608,-128 638,-128 638,-107 608,-107"/>
<polygon fill="none" stroke="#000000" points="608,-107 608,-128 638,-128 638,-107 608,-107"/>
<text text-anchor="start" x="611" y="-113.8" font-family="Times,serif" font-size="14.00" fill="#000000">type</text>
<polygon fill="#e0ffe0" stroke="transparent" points="638,-107 638,-128 655,-128 655,-107 638,-107"/>
<polygon fill="none" stroke="#000000" points="638,-107 638,-128 655,-128 655,-107 638,-107"/>
<text text-anchor="start" x="641" y="-113.8" font-family="Times,serif" font-size="14.00" fill="#000000">id</text>
<polygon fill="none" stroke="#000000" points="555,-86 555,-107 580,-107 580,-86 555,-86"/>
<text text-anchor="start" x="564" y="-92.8" font-family="Times,serif" font-size="14.00" fill="#000000">0</text>
<polygon fill="none" stroke="#000000" points="580,-86 580,-107 608,-107 608,-86 580,-86"/>
<text text-anchor="start" x="590.5" y="-92.8" font-family="Times,serif" font-size="14.00" fill="#000000">4</text>
<polygon fill="none" stroke="#000000" points="608,-86 608,-107 638,-107 638,-86 608,-86"/>
<text text-anchor="start" x="612" y="-92.8" font-family="Times,serif" font-size="14.00" fill="#000000">f4le</text>
<polygon fill="none" stroke="#000000" points="638,-86 638,-107 655,-107 655,-86 638,-86"/>
<text text-anchor="start" x="643" y="-92.8" font-family="Times,serif" font-size="14.00" fill="#000000">x</text>
<polygon fill="none" stroke="#000000" points="555,-65 555,-86 580,-86 580,-65 555,-65"/>
<text text-anchor="start" x="564" y="-71.8" font-family="Times,serif" font-size="14.00" fill="#000000">4</text>
<polygon fill="none" stroke="#000000" points="580,-65 580,-86 608,-86 608,-65 580,-65"/>
<text text-anchor="start" x="590.5" y="-71.8" font-family="Times,serif" font-size="14.00" fill="#000000">4</text>
<polygon fill="none" stroke="#000000" points="608,-65 608,-86 638,-86 638,-65 608,-65"/>
<text text-anchor="start" x="612" y="-71.8" font-family="Times,serif" font-size="14.00" fill="#000000">f4le</text>
<polygon fill="none" stroke="#000000" points="638,-65 638,-86 655,-86 655,-65 638,-65"/>
<text text-anchor="start" x="643" y="-71.8" font-family="Times,serif" font-size="14.00" fill="#000000">y</text>
<polygon fill="none" stroke="#000000" points="555,-44 555,-65 580,-65 580,-44 555,-44"/>
<text text-anchor="start" x="564" y="-50.8" font-family="Times,serif" font-size="14.00" fill="#000000">8</text>
<polygon fill="none" stroke="#000000" points="580,-44 580,-65 608,-65 608,-44 580,-44"/>
<text text-anchor="start" x="590.5" y="-50.8" font-family="Times,serif" font-size="14.00" fill="#000000">4</text>
<polygon fill="none" stroke="#000000" points="608,-44 608,-65 638,-65 638,-44 608,-44"/>
<text text-anchor="start" x="612" y="-50.8" font-family="Times,serif" font-size="14.00" fill="#000000">f4le</text>
<polygon fill="none" stroke="#000000" points="638,-44 638,-65 655,-65 655,-44 638,-44"/>
<text text-anchor="start" x="643" y="-50.8" font-family="Times,serif" font-size="14.00" fill="#000000">z</text>
</g>
<!-- triangle__seq&#45;&gt;vec3d__seq -->
<g id="edge3" class="edge">
<title>triangle__seq:normal_type&#45;&gt;vec3d__seq</title>
<path fill="none" stroke="#000000" stroke-width="2" d="M503,-102C513.979,-102 525.5433,-101.0841 536.7843,-99.6906"/>
<polygon fill="#000000" stroke="#000000" stroke-width="2" points="537.5599,-103.117 546.9908,-98.2891 536.6076,-96.1821 537.5599,-103.117"/>
</g>
<!-- triangle__seq&#45;&gt;vec3d__seq -->
<g id="edge4" class="edge">
<title>triangle__seq:vertices_type&#45;&gt;vec3d__seq</title>
<path fill="none" stroke="#000000" stroke-width="2" d="M503,-80C513.8651,-80 525.37,-80.3435 536.5866,-80.866"/>
<polygon fill="#000000" stroke="#000000" stroke-width="2" points="536.6129,-84.372 546.7798,-81.3916 536.9734,-77.3812 536.6129,-84.372"/>
</g>
</g>
</svg>
