<?xml version="1.0" encoding="UTF-8" standalone="no"?>
<!DOCTYPE svg PUBLIC "-//W3C//DTD SVG 1.1//EN"
 "http://www.w3.org/Graphics/SVG/1.1/DTD/svg11.dtd">
<!-- Generated by graphviz version 2.43.0 (0)
 -->
<!-- Title: %3 Pages: 1 -->
<svg width="823pt" height="216pt"
 viewBox="0.00 0.00 823.00 216.00" xmlns="http://www.w3.org/2000/svg" xmlns:xlink="http://www.w3.org/1999/xlink">
<g id="graph0" class="graph" transform="scale(1 1) rotate(0) translate(4 212)">
<title>%3</title>
<polygon fill="white" stroke="transparent" points="-4,4 -4,-212 819,-212 819,4 -4,4"/>
<g id="clust1" class="cluster">
<title>cluster__stl</title>
<polygon fill="none" stroke="black" stroke-dasharray="1,5" points="122,-8 122,-200 807,-200 807,-8 122,-8"/>
<text text-anchor="middle" x="464.5" y="-184.8" font-family="Times,serif" font-size="14.00">Stl</text>
</g>
<g id="clust2" class="cluster">
<title>cluster__triangle</title>
<polygon fill="none" stroke="black" stroke-dasharray="1,5" points="414,-16 414,-169 624,-169 624,-16 414,-16"/>
<text text-anchor="middle" x="519" y="-153.8" font-family="Times,serif" font-size="14.00">Stl::Triangle</text>
</g>
<g id="clust3" class="cluster">
<title>cluster__vec3d</title>
<polygon fill="none" stroke="black" stroke-dasharray="1,5" points="644,-32 644,-163 799,-163 799,-32 644,-32"/>
<text text-anchor="middle" x="721.5" y="-147.8" font-family="Times,serif" font-size="14.00">Stl::Vec3d</text>
</g>
<!-- stl__seq -->
<g id="node1" class="node">
<title>stl__seq</title>
<polygon fill="#e0ffe0" stroke="transparent" points="138,-134 138,-155 169,-155 169,-134 138,-134"/>
<polygon fill="none" stroke="black" points="138,-134 138,-155 169,-155 169,-134 138,-134"/>
<text text-anchor="start" x="141" y="-140.8" font-family="Times,serif" font-size="14.00">pos</text>
<polygon fill="#e0ffe0" stroke="transparent" points="169,-134 169,-155 203,-155 203,-134 169,-134"/>
<polygon fill="none" stroke="black" points="169,-134 169,-155 203,-155 203,-134 169,-134"/>
<text text-anchor="start" x="172" y="-140.8" font-family="Times,serif" font-size="14.00">size</text>
<polygon fill="#e0ffe0" stroke="transparent" points="203,-134 203,-155 269,-155 269,-134 203,-134"/>
<polygon fill="none" stroke="black" points="203,-134 203,-155 269,-155 269,-134 203,-134"/>
<text text-anchor="start" x="220" y="-140.8" font-family="Times,serif" font-size="14.00">type</text>
<polygon fill="#e0ffe0" stroke="transparent" points="269,-134 269,-155 378,-155 378,-134 269,-134"/>
<polygon fill="none" stroke="black" points="269,-134 269,-155 378,-155 378,-134 269,-134"/>
<text text-anchor="start" x="316.5" y="-140.8" font-family="Times,serif" font-size="14.00">id</text>
<polygon fill="none" stroke="black" points="138,-113 138,-134 169,-134 169,-113 138,-113"/>
<text text-anchor="start" x="148.5" y="-119.8" font-family="Times,serif" font-size="14.00">0</text>
<polygon fill="none" stroke="black" points="169,-113 169,-134 203,-134 203,-113 169,-113"/>
<text text-anchor="start" x="176.5" y="-119.8" font-family="Times,serif" font-size="14.00">80</text>
<polygon fill="none" stroke="black" points="203,-113 203,-134 269,-134 269,-113 203,-113"/>
<polygon fill="none" stroke="black" points="269,-113 269,-134 378,-134 378,-113 269,-113"/>
<text text-anchor="start" x="298.5" y="-119.8" font-family="Times,serif" font-size="14.00">header</text>
<polygon fill="none" stroke="black" points="138,-92 138,-113 169,-113 169,-92 138,-92"/>
<text text-anchor="start" x="144" y="-98.8" font-family="Times,serif" font-size="14.00">80</text>
<polygon fill="none" stroke="black" points="169,-92 169,-113 203,-113 203,-92 169,-92"/>
<text text-anchor="start" x="181" y="-98.8" font-family="Times,serif" font-size="14.00">4</text>
<polygon fill="none" stroke="black" points="203,-92 203,-113 269,-113 269,-92 203,-92"/>
<text text-anchor="start" x="220.5" y="-98.8" font-family="Times,serif" font-size="14.00">u4le</text>
<polygon fill="none" stroke="black" points="269,-92 269,-113 378,-113 378,-92 269,-92"/>
<text text-anchor="start" x="272" y="-98.8" font-family="Times,serif" font-size="14.00">num_triangles</text>
<polygon fill="none" stroke="black" points="138,-71 138,-92 169,-92 169,-71 138,-71"/>
<text text-anchor="start" x="144" y="-77.8" font-family="Times,serif" font-size="14.00">84</text>
<polygon fill="none" stroke="black" points="169,-71 169,-92 203,-92 203,-71 169,-71"/>
<text text-anchor="start" x="176.5" y="-77.8" font-family="Times,serif" font-size="14.00">50</text>
<polygon fill="none" stroke="black" points="203,-71 203,-92 269,-92 269,-71 203,-71"/>
<text text-anchor="start" x="206" y="-77.8" font-family="Times,serif" font-size="14.00">Triangle</text>
<polygon fill="none" stroke="black" points="269,-71 269,-92 378,-92 378,-71 269,-71"/>
<text text-anchor="start" x="291.5" y="-77.8" font-family="Times,serif" font-size="14.00">triangles</text>
<polygon fill="none" stroke="black" points="138,-50 138,-71 378,-71 378,-50 138,-50"/>
<text text-anchor="start" x="159" y="-56.8" font-family="Times,serif" font-size="14.00">repeat num_triangles times</text>
</g>
<!-- stl__seq&#45;&gt;stl__seq -->
<g id="edge2" class="edge">
<title>stl__seq:num_triangles_type&#45;&gt;stl__seq:triangles__repeat</title>
<path fill="none" stroke="#404040" d="M268.91,-105.71C163.99,-110.13 0,-105.9 0,-81 0,-63.22 60.41,-55.98 127.52,-54.9"/>
<polygon fill="#404040" stroke="#404040" points="127.95,-58.4 137.91,-54.78 127.87,-51.4 127.95,-58.4"/>
</g>
<!-- triangle__seq -->
<g id="node2" class="node">
<title>triangle__seq</title>
<polygon fill="#e0ffe0" stroke="transparent" points="430,-112 430,-133 461,-133 461,-112 430,-112"/>
<polygon fill="none" stroke="black" points="430,-112 430,-133 461,-133 461,-112 430,-112"/>
<text text-anchor="start" x="433" y="-118.8" font-family="Times,serif" font-size="14.00">pos</text>
<polygon fill="#e0ffe0" stroke="transparent" points="461,-112 461,-133 495,-133 495,-112 461,-112"/>
<polygon fill="none" stroke="black" points="461,-112 461,-133 495,-133 495,-112 461,-112"/>
<text text-anchor="start" x="464" y="-118.8" font-family="Times,serif" font-size="14.00">size</text>
<polygon fill="#e0ffe0" stroke="transparent" points="495,-112 495,-133 544,-133 544,-112 495,-112"/>
<polygon fill="none" stroke="black" points="495,-112 495,-133 544,-133 544,-112 495,-112"/>
<text text-anchor="start" x="503.5" y="-118.8" font-family="Times,serif" font-size="14.00">type</text>
<polygon fill="#e0ffe0" stroke="transparent" points="544,-112 544,-133 608,-133 608,-112 544,-112"/>
<polygon fill="none" stroke="black" points="544,-112 544,-133 608,-133 608,-112 544,-112"/>
<text text-anchor="start" x="569" y="-118.8" font-family="Times,serif" font-size="14.00">id</text>
<polygon fill="none" stroke="black" points="430,-91 430,-112 461,-112 461,-91 430,-91"/>
<text text-anchor="start" x="440.5" y="-97.8" font-family="Times,serif" font-size="14.00">0</text>
<polygon fill="none" stroke="black" points="461,-91 461,-112 495,-112 495,-91 461,-91"/>
<text text-anchor="start" x="468.5" y="-97.8" font-family="Times,serif" font-size="14.00">12</text>
<polygon fill="none" stroke="black" points="495,-91 495,-112 544,-112 544,-91 495,-91"/>
<text text-anchor="start" x="498" y="-97.8" font-family="Times,serif" font-size="14.00">Vec3d</text>
<polygon fill="none" stroke="black" points="544,-91 544,-112 608,-112 608,-91 544,-91"/>
<text text-anchor="start" x="550.5" y="-97.8" font-family="Times,serif" font-size="14.00">normal</text>
<polygon fill="none" stroke="black" points="430,-70 430,-91 461,-91 461,-70 430,-70"/>
<text text-anchor="start" x="436" y="-76.8" font-family="Times,serif" font-size="14.00">12</text>
<polygon fill="none" stroke="black" points="461,-70 461,-91 495,-91 495,-70 461,-70"/>
<text text-anchor="start" x="468.5" y="-76.8" font-family="Times,serif" font-size="14.00">12</text>
<polygon fill="none" stroke="black" points="495,-70 495,-91 544,-91 544,-70 495,-70"/>
<text text-anchor="start" x="498" y="-76.8" font-family="Times,serif" font-size="14.00">Vec3d</text>
<polygon fill="none" stroke="black" points="544,-70 544,-91 608,-91 608,-70 544,-70"/>
<text text-anchor="start" x="547" y="-76.8" font-family="Times,serif" font-size="14.00">vertices</text>
<polygon fill="none" stroke="black" points="430,-49 430,-70 608,-70 608,-49 430,-49"/>
<text text-anchor="start" x="466.5" y="-55.8" font-family="Times,serif" font-size="14.00">repeat 3 times</text>
<polygon fill="none" stroke="black" points="430,-28 430,-49 461,-49 461,-28 430,-28"/>
<text text-anchor="start" x="436" y="-34.8" font-family="Times,serif" font-size="14.00">48</text>
<polygon fill="none" stroke="black" points="461,-28 461,-49 495,-49 495,-28 461,-28"/>
<text text-anchor="start" x="473" y="-34.8" font-family="Times,serif" font-size="14.00">2</text>
<polygon fill="none" stroke="black" points="495,-28 495,-49 544,-49 544,-28 495,-28"/>
<text text-anchor="start" x="504" y="-34.8" font-family="Times,serif" font-size="14.00">u2le</text>
<polygon fill="none" stroke="black" points="544,-28 544,-49 608,-49 608,-28 544,-28"/>
<text text-anchor="start" x="563.5" y="-34.8" font-family="Times,serif" font-size="14.00">abr</text>
</g>
<!-- stl__seq&#45;&gt;triangle__seq -->
<g id="edge1" class="edge">
<title>stl__seq:triangles_type&#45;&gt;triangle__seq</title>
<path fill="none" stroke="black" stroke-width="2" d="M379,-81C389.62,-81 400.7,-81 411.77,-81"/>
<polygon fill="black" stroke="black" stroke-width="2" points="411.92,-84.5 421.92,-81 411.92,-77.5 411.92,-84.5"/>
</g>
<!-- vec3d__seq -->
<g id="node3" class="node">
<title>vec3d__seq</title>
<polygon fill="#e0ffe0" stroke="transparent" points="660.5,-107 660.5,-128 691.5,-128 691.5,-107 660.5,-107"/>
<polygon fill="none" stroke="black" points="660.5,-107 660.5,-128 691.5,-128 691.5,-107 660.5,-107"/>
<text text-anchor="start" x="663.5" y="-113.8" font-family="Times,serif" font-size="14.00">pos</text>
<polygon fill="#e0ffe0" stroke="transparent" points="691.5,-107 691.5,-128 725.5,-128 725.5,-107 691.5,-107"/>
<polygon fill="none" stroke="black" points="691.5,-107 691.5,-128 725.5,-128 725.5,-107 691.5,-107"/>
<text text-anchor="start" x="694.5" y="-113.8" font-family="Times,serif" font-size="14.00">size</text>
<polygon fill="#e0ffe0" stroke="transparent" points="725.5,-107 725.5,-128 763.5,-128 763.5,-107 725.5,-107"/>
<polygon fill="none" stroke="black" points="725.5,-107 725.5,-128 763.5,-128 763.5,-107 725.5,-107"/>
<text text-anchor="start" x="728.5" y="-113.8" font-family="Times,serif" font-size="14.00">type</text>
<polygon fill="#e0ffe0" stroke="transparent" points="763.5,-107 763.5,-128 783.5,-128 783.5,-107 763.5,-107"/>
<polygon fill="none" stroke="black" points="763.5,-107 763.5,-128 783.5,-128 783.5,-107 763.5,-107"/>
<text text-anchor="start" x="766.5" y="-113.8" font-family="Times,serif" font-size="14.00">id</text>
<polygon fill="none" stroke="black" points="660.5,-86 660.5,-107 691.5,-107 691.5,-86 660.5,-86"/>
<text text-anchor="start" x="671" y="-92.8" font-family="Times,serif" font-size="14.00">0</text>
<polygon fill="none" stroke="black" points="691.5,-86 691.5,-107 725.5,-107 725.5,-86 691.5,-86"/>
<text text-anchor="start" x="703.5" y="-92.8" font-family="Times,serif" font-size="14.00">4</text>
<polygon fill="none" stroke="black" points="725.5,-86 725.5,-107 763.5,-107 763.5,-86 725.5,-86"/>
<text text-anchor="start" x="730.5" y="-92.8" font-family="Times,serif" font-size="14.00">f4le</text>
<polygon fill="none" stroke="black" points="763.5,-86 763.5,-107 783.5,-107 783.5,-86 763.5,-86"/>
<text text-anchor="start" x="769" y="-92.8" font-family="Times,serif" font-size="14.00">x</text>
<polygon fill="none" stroke="black" points="660.5,-65 660.5,-86 691.5,-86 691.5,-65 660.5,-65"/>
<text text-anchor="start" x="671" y="-71.8" font-family="Times,serif" font-size="14.00">4</text>
<polygon fill="none" stroke="black" points="691.5,-65 691.5,-86 725.5,-86 725.5,-65 691.5,-65"/>
<text text-anchor="start" x="703.5" y="-71.8" font-family="Times,serif" font-size="14.00">4</text>
<polygon fill="none" stroke="black" points="725.5,-65 725.5,-86 763.5,-86 763.5,-65 725.5,-65"/>
<text text-anchor="start" x="730.5" y="-71.8" font-family="Times,serif" font-size="14.00">f4le</text>
<polygon fill="none" stroke="black" points="763.5,-65 763.5,-86 783.5,-86 783.5,-65 763.5,-65"/>
<text text-anchor="start" x="769" y="-71.8" font-family="Times,serif" font-size="14.00">y</text>
<polygon fill="none" stroke="black" points="660.5,-44 660.5,-65 691.5,-65 691.5,-44 660.5,-44"/>
<text text-anchor="start" x="671" y="-50.8" font-family="Times,serif" font-size="14.00">8</text>
<polygon fill="none" stroke="black" points="691.5,-44 691.5,-65 725.5,-65 725.5,-44 691.5,-44"/>
<text text-anchor="start" x="703.5" y="-50.8" font-family="Times,serif" font-size="14.00">4</text>
<polygon fill="none" stroke="black" points="725.5,-44 725.5,-65 763.5,-65 763.5,-44 725.5,-44"/>
<text text-anchor="start" x="730.5" y="-50.8" font-family="Times,serif" font-size="14.00">f4le</text>
<polygon fill="none" stroke="black" points="763.5,-44 763.5,-65 783.5,-65 783.5,-44 763.5,-44"/>
<text text-anchor="start" x="769.5" y="-50.8" font-family="Times,serif" font-size="14.00">z</text>
</g>
<!-- triangle__seq&#45;&gt;vec3d__seq -->
<g id="edge3" class="edge">
<title>triangle__seq:normal_type&#45;&gt;vec3d__seq</title>
<path fill="none" stroke="black" stroke-width="2" d="M609,-102C619.63,-102 630.77,-101.28 641.73,-100.14"/>
<polygon fill="black" stroke="black" stroke-width="2" points="642.19,-103.61 651.73,-98.99 641.39,-96.66 642.19,-103.61"/>
</g>
<!-- triangle__seq&#45;&gt;vec3d__seq -->
<g id="edge4" class="edge">
<title>triangle__seq:vertices_type&#45;&gt;vec3d__seq</title>
<path fill="none" stroke="black" stroke-width="2" d="M609,-80C619.61,-80 630.78,-80.27 641.79,-80.71"/>
<polygon fill="black" stroke="black" stroke-width="2" points="641.69,-84.2 651.83,-81.14 641.99,-77.21 641.69,-84.2"/>
</g>
</g>
</svg>
