<?xml version="1.0" encoding="UTF-8" standalone="no"?>
<!DOCTYPE svg PUBLIC "-//W3C//DTD SVG 1.1//EN"
 "http://www.w3.org/Graphics/SVG/1.1/DTD/svg11.dtd">
<!-- Generated by graphviz version 2.38.0 (20140413.2041)
 -->
<!-- Title: %3 Pages: 1 -->
<svg width="826pt" height="194pt"
 viewBox="0.00 0.00 826.00 194.00" xmlns="http://www.w3.org/2000/svg" xmlns:xlink="http://www.w3.org/1999/xlink">
<g id="graph0" class="graph" transform="scale(1 1) rotate(0) translate(4 190)">
<title>%3</title>
<polygon fill="white" stroke="none" points="-4,4 -4,-190 822,-190 822,4 -4,4"/>
<g id="clust1" class="cluster"><title>cluster__stl</title>
<polygon fill="none" stroke="black" stroke-dasharray="1,5" points="123,-8 123,-178 810,-178 810,-8 123,-8"/>
<text text-anchor="middle" x="466.5" y="-162.8" font-family="Times,serif" font-size="14.00">Stl</text>
</g>
<g id="clust2" class="cluster"><title>cluster__triangle</title>
<polygon fill="none" stroke="black" stroke-dasharray="1,5" points="416,-16 416,-147 627,-147 627,-16 416,-16"/>
<text text-anchor="middle" x="521.5" y="-131.8" font-family="Times,serif" font-size="14.00">Stl::Triangle</text>
</g>
<g id="clust3" class="cluster"><title>cluster__vec3d</title>
<polygon fill="none" stroke="black" stroke-dasharray="1,5" points="647,-16 647,-147 802,-147 802,-16 647,-16"/>
<text text-anchor="middle" x="724.5" y="-131.8" font-family="Times,serif" font-size="14.00">Stl::Vec3d</text>
</g>
<!-- stl__seq -->
<g id="node1" class="node"><title>stl__seq</title>
<polygon fill="#e0ffe0" stroke="none" points="139.5,-121 139.5,-142 170.5,-142 170.5,-121 139.5,-121"/>
<polygon fill="none" stroke="black" points="139.5,-121 139.5,-142 170.5,-142 170.5,-121 139.5,-121"/>
<text text-anchor="start" x="142.5" y="-127.8" font-family="Times,serif" font-size="14.00">pos</text>
<polygon fill="#e0ffe0" stroke="none" points="170.5,-121 170.5,-142 204.5,-142 204.5,-121 170.5,-121"/>
<polygon fill="none" stroke="black" points="170.5,-121 170.5,-142 204.5,-142 204.5,-121 170.5,-121"/>
<text text-anchor="start" x="173.5" y="-127.8" font-family="Times,serif" font-size="14.00">size</text>
<polygon fill="#e0ffe0" stroke="none" points="204.5,-121 204.5,-142 271.5,-142 271.5,-121 204.5,-121"/>
<polygon fill="none" stroke="black" points="204.5,-121 204.5,-142 271.5,-142 271.5,-121 204.5,-121"/>
<text text-anchor="start" x="222" y="-127.8" font-family="Times,serif" font-size="14.00">type</text>
<polygon fill="#e0ffe0" stroke="none" points="271.5,-121 271.5,-142 380.5,-142 380.5,-121 271.5,-121"/>
<polygon fill="none" stroke="black" points="271.5,-121 271.5,-142 380.5,-142 380.5,-121 271.5,-121"/>
<text text-anchor="start" x="319" y="-127.8" font-family="Times,serif" font-size="14.00">id</text>
<polygon fill="none" stroke="black" points="139.5,-100 139.5,-121 170.5,-121 170.5,-100 139.5,-100"/>
<text text-anchor="start" x="150" y="-106.8" font-family="Times,serif" font-size="14.00">0</text>
<polygon fill="none" stroke="black" points="170.5,-100 170.5,-121 204.5,-121 204.5,-100 170.5,-100"/>
<text text-anchor="start" x="178" y="-106.8" font-family="Times,serif" font-size="14.00">80</text>
<polygon fill="none" stroke="black" points="204.5,-100 204.5,-121 271.5,-121 271.5,-100 204.5,-100"/>
<polygon fill="none" stroke="black" points="271.5,-100 271.5,-121 380.5,-121 380.5,-100 271.5,-100"/>
<text text-anchor="start" x="301" y="-106.8" font-family="Times,serif" font-size="14.00">header</text>
<polygon fill="none" stroke="black" points="139.5,-79 139.5,-100 170.5,-100 170.5,-79 139.5,-79"/>
<text text-anchor="start" x="145.5" y="-85.8" font-family="Times,serif" font-size="14.00">80</text>
<polygon fill="none" stroke="black" points="170.5,-79 170.5,-100 204.5,-100 204.5,-79 170.5,-79"/>
<text text-anchor="start" x="182.5" y="-85.8" font-family="Times,serif" font-size="14.00">4</text>
<polygon fill="none" stroke="black" points="204.5,-79 204.5,-100 271.5,-100 271.5,-79 204.5,-79"/>
<text text-anchor="start" x="222.5" y="-85.8" font-family="Times,serif" font-size="14.00">u4le</text>
<polygon fill="none" stroke="black" points="271.5,-79 271.5,-100 380.5,-100 380.5,-79 271.5,-79"/>
<text text-anchor="start" x="274.5" y="-85.8" font-family="Times,serif" font-size="14.00">num_triangles</text>
<polygon fill="none" stroke="black" points="139.5,-58 139.5,-79 170.5,-79 170.5,-58 139.5,-58"/>
<text text-anchor="start" x="145.5" y="-64.8" font-family="Times,serif" font-size="14.00">84</text>
<polygon fill="none" stroke="black" points="170.5,-58 170.5,-79 204.5,-79 204.5,-58 170.5,-58"/>
<text text-anchor="start" x="178" y="-64.8" font-family="Times,serif" font-size="14.00">48</text>
<polygon fill="none" stroke="black" points="204.5,-58 204.5,-79 271.5,-79 271.5,-58 204.5,-58"/>
<text text-anchor="start" x="207.5" y="-64.8" font-family="Times,serif" font-size="14.00">Triangle</text>
<polygon fill="none" stroke="black" points="271.5,-58 271.5,-79 380.5,-79 380.5,-58 271.5,-58"/>
<text text-anchor="start" x="294" y="-64.8" font-family="Times,serif" font-size="14.00">triangles</text>
<polygon fill="none" stroke="black" points="139.5,-37 139.5,-58 380.5,-58 380.5,-37 139.5,-37"/>
<text text-anchor="start" x="160.5" y="-43.8" font-family="Times,serif" font-size="14.00">repeat num_triangles times</text>
</g>
<!-- stl__seq&#45;&gt;stl__seq -->
<g id="edge2" class="edge"><title>stl__seq:num_triangles_type&#45;&gt;stl__seq:triangles__repeat</title>
<path fill="none" stroke="#404040" d="M271.412,-92.6896C165.756,-97.1437 0,-92.9316 0,-68 0,-50.1848 61.3607,-42.9489 129.32,-41.8948"/>
<polygon fill="#404040" stroke="#404040" points="129.427,-45.3939 139.388,-41.7836 129.35,-38.3944 129.427,-45.3939"/>
</g>
<!-- triangle__seq -->
<g id="node2" class="node"><title>triangle__seq</title>
<polygon fill="#e0ffe0" stroke="none" points="432.5,-91 432.5,-112 463.5,-112 463.5,-91 432.5,-91"/>
<polygon fill="none" stroke="black" points="432.5,-91 432.5,-112 463.5,-112 463.5,-91 432.5,-91"/>
<text text-anchor="start" x="435.5" y="-97.8" font-family="Times,serif" font-size="14.00">pos</text>
<polygon fill="#e0ffe0" stroke="none" points="463.5,-91 463.5,-112 497.5,-112 497.5,-91 463.5,-91"/>
<polygon fill="none" stroke="black" points="463.5,-91 463.5,-112 497.5,-112 497.5,-91 463.5,-91"/>
<text text-anchor="start" x="466.5" y="-97.8" font-family="Times,serif" font-size="14.00">size</text>
<polygon fill="#e0ffe0" stroke="none" points="497.5,-91 497.5,-112 547.5,-112 547.5,-91 497.5,-91"/>
<polygon fill="none" stroke="black" points="497.5,-91 497.5,-112 547.5,-112 547.5,-91 497.5,-91"/>
<text text-anchor="start" x="506.5" y="-97.8" font-family="Times,serif" font-size="14.00">type</text>
<polygon fill="#e0ffe0" stroke="none" points="547.5,-91 547.5,-112 611.5,-112 611.5,-91 547.5,-91"/>
<polygon fill="none" stroke="black" points="547.5,-91 547.5,-112 611.5,-112 611.5,-91 547.5,-91"/>
<text text-anchor="start" x="572.5" y="-97.8" font-family="Times,serif" font-size="14.00">id</text>
<polygon fill="none" stroke="black" points="432.5,-70 432.5,-91 463.5,-91 463.5,-70 432.5,-70"/>
<text text-anchor="start" x="443" y="-76.8" font-family="Times,serif" font-size="14.00">0</text>
<polygon fill="none" stroke="black" points="463.5,-70 463.5,-91 497.5,-91 497.5,-70 463.5,-70"/>
<text text-anchor="start" x="471" y="-76.8" font-family="Times,serif" font-size="14.00">12</text>
<polygon fill="none" stroke="black" points="497.5,-70 497.5,-91 547.5,-91 547.5,-70 497.5,-70"/>
<text text-anchor="start" x="500.5" y="-76.8" font-family="Times,serif" font-size="14.00">Vec3d</text>
<polygon fill="none" stroke="black" points="547.5,-70 547.5,-91 611.5,-91 611.5,-70 547.5,-70"/>
<text text-anchor="start" x="554" y="-76.8" font-family="Times,serif" font-size="14.00">normal</text>
<polygon fill="none" stroke="black" points="432.5,-49 432.5,-70 463.5,-70 463.5,-49 432.5,-49"/>
<text text-anchor="start" x="438.5" y="-55.8" font-family="Times,serif" font-size="14.00">12</text>
<polygon fill="none" stroke="black" points="463.5,-49 463.5,-70 497.5,-70 497.5,-49 463.5,-49"/>
<text text-anchor="start" x="471" y="-55.8" font-family="Times,serif" font-size="14.00">12</text>
<polygon fill="none" stroke="black" points="497.5,-49 497.5,-70 547.5,-70 547.5,-49 497.5,-49"/>
<text text-anchor="start" x="500.5" y="-55.8" font-family="Times,serif" font-size="14.00">Vec3d</text>
<polygon fill="none" stroke="black" points="547.5,-49 547.5,-70 611.5,-70 611.5,-49 547.5,-49"/>
<text text-anchor="start" x="550.5" y="-55.8" font-family="Times,serif" font-size="14.00">vertices</text>
<polygon fill="none" stroke="black" points="432.5,-28 432.5,-49 611.5,-49 611.5,-28 432.5,-28"/>
<text text-anchor="start" x="469.5" y="-34.8" font-family="Times,serif" font-size="14.00">repeat 3 times</text>
</g>
<!-- stl__seq&#45;&gt;triangle__seq -->
<g id="edge1" class="edge"><title>stl__seq:triangles_type&#45;&gt;triangle__seq</title>
<path fill="none" stroke="black" stroke-width="2" d="M381.5,-68C391.834,-68 402.599,-68.0559 413.362,-68.1491"/>
<polygon fill="black" stroke="black" stroke-width="2" points="413.633,-71.6518 423.667,-68.2493 413.701,-64.6522 413.633,-71.6518"/>
</g>
<!-- vec3d__seq -->
<g id="node3" class="node"><title>vec3d__seq</title>
<polygon fill="#e0ffe0" stroke="none" points="663.5,-91 663.5,-112 694.5,-112 694.5,-91 663.5,-91"/>
<polygon fill="none" stroke="black" points="663.5,-91 663.5,-112 694.5,-112 694.5,-91 663.5,-91"/>
<text text-anchor="start" x="666.5" y="-97.8" font-family="Times,serif" font-size="14.00">pos</text>
<polygon fill="#e0ffe0" stroke="none" points="694.5,-91 694.5,-112 728.5,-112 728.5,-91 694.5,-91"/>
<polygon fill="none" stroke="black" points="694.5,-91 694.5,-112 728.5,-112 728.5,-91 694.5,-91"/>
<text text-anchor="start" x="697.5" y="-97.8" font-family="Times,serif" font-size="14.00">size</text>
<polygon fill="#e0ffe0" stroke="none" points="728.5,-91 728.5,-112 766.5,-112 766.5,-91 728.5,-91"/>
<polygon fill="none" stroke="black" points="728.5,-91 728.5,-112 766.5,-112 766.5,-91 728.5,-91"/>
<text text-anchor="start" x="731.5" y="-97.8" font-family="Times,serif" font-size="14.00">type</text>
<polygon fill="#e0ffe0" stroke="none" points="766.5,-91 766.5,-112 786.5,-112 786.5,-91 766.5,-91"/>
<polygon fill="none" stroke="black" points="766.5,-91 766.5,-112 786.5,-112 786.5,-91 766.5,-91"/>
<text text-anchor="start" x="769.5" y="-97.8" font-family="Times,serif" font-size="14.00">id</text>
<polygon fill="none" stroke="black" points="663.5,-70 663.5,-91 694.5,-91 694.5,-70 663.5,-70"/>
<text text-anchor="start" x="674" y="-76.8" font-family="Times,serif" font-size="14.00">0</text>
<polygon fill="none" stroke="black" points="694.5,-70 694.5,-91 728.5,-91 728.5,-70 694.5,-70"/>
<text text-anchor="start" x="706.5" y="-76.8" font-family="Times,serif" font-size="14.00">4</text>
<polygon fill="none" stroke="black" points="728.5,-70 728.5,-91 766.5,-91 766.5,-70 728.5,-70"/>
<text text-anchor="start" x="733.5" y="-76.8" font-family="Times,serif" font-size="14.00">f4le</text>
<polygon fill="none" stroke="black" points="766.5,-70 766.5,-91 786.5,-91 786.5,-70 766.5,-70"/>
<text text-anchor="start" x="772" y="-76.8" font-family="Times,serif" font-size="14.00">x</text>
<polygon fill="none" stroke="black" points="663.5,-49 663.5,-70 694.5,-70 694.5,-49 663.5,-49"/>
<text text-anchor="start" x="674" y="-55.8" font-family="Times,serif" font-size="14.00">4</text>
<polygon fill="none" stroke="black" points="694.5,-49 694.5,-70 728.5,-70 728.5,-49 694.5,-49"/>
<text text-anchor="start" x="706.5" y="-55.8" font-family="Times,serif" font-size="14.00">4</text>
<polygon fill="none" stroke="black" points="728.5,-49 728.5,-70 766.5,-70 766.5,-49 728.5,-49"/>
<text text-anchor="start" x="733.5" y="-55.8" font-family="Times,serif" font-size="14.00">f4le</text>
<polygon fill="none" stroke="black" points="766.5,-49 766.5,-70 786.5,-70 786.5,-49 766.5,-49"/>
<text text-anchor="start" x="772" y="-55.8" font-family="Times,serif" font-size="14.00">y</text>
<polygon fill="none" stroke="black" points="663.5,-28 663.5,-49 694.5,-49 694.5,-28 663.5,-28"/>
<text text-anchor="start" x="674" y="-34.8" font-family="Times,serif" font-size="14.00">8</text>
<polygon fill="none" stroke="black" points="694.5,-28 694.5,-49 728.5,-49 728.5,-28 694.5,-28"/>
<text text-anchor="start" x="706.5" y="-34.8" font-family="Times,serif" font-size="14.00">4</text>
<polygon fill="none" stroke="black" points="728.5,-28 728.5,-49 766.5,-49 766.5,-28 728.5,-28"/>
<text text-anchor="start" x="733.5" y="-34.8" font-family="Times,serif" font-size="14.00">f4le</text>
<polygon fill="none" stroke="black" points="766.5,-28 766.5,-49 786.5,-49 786.5,-28 766.5,-28"/>
<text text-anchor="start" x="772.5" y="-34.8" font-family="Times,serif" font-size="14.00">z</text>
</g>
<!-- triangle__seq&#45;&gt;vec3d__seq -->
<g id="edge3" class="edge"><title>triangle__seq:normal_type&#45;&gt;vec3d__seq</title>
<path fill="none" stroke="black" stroke-width="2" d="M612.5,-81C622.919,-81 633.862,-80.5141 644.648,-79.7465"/>
<polygon fill="black" stroke="black" stroke-width="2" points="645.228,-83.2116 654.919,-78.931 644.674,-76.2336 645.228,-83.2116"/>
</g>
<!-- triangle__seq&#45;&gt;vec3d__seq -->
<g id="edge4" class="edge"><title>triangle__seq:vertices_type&#45;&gt;vec3d__seq</title>
<path fill="none" stroke="black" stroke-width="2" d="M612.5,-59C622.919,-59 633.862,-59.4859 644.648,-60.2535"/>
<polygon fill="black" stroke="black" stroke-width="2" points="644.674,-63.7664 654.919,-61.069 645.228,-56.7884 644.674,-63.7664"/>
</g>
</g>
</svg>
