<?xml version="1.0" encoding="UTF-8" standalone="no"?>
<!DOCTYPE svg PUBLIC "-//W3C//DTD SVG 1.1//EN"
 "http://www.w3.org/Graphics/SVG/1.1/DTD/svg11.dtd">
<!-- Generated by graphviz version 2.43.0 (0)
 -->
<!-- Title: %3 Pages: 1 -->
<svg width="3996pt" height="456pt"
 viewBox="0.00 0.00 3996.00 456.00" xmlns="http://www.w3.org/2000/svg" xmlns:xlink="http://www.w3.org/1999/xlink">
<g id="graph0" class="graph" transform="scale(1 1) rotate(0) translate(4 452)">
<title>%3</title>
<polygon fill="white" stroke="transparent" points="-4,4 -4,-452 3992,-452 3992,4 -4,4"/>
<g id="clust1" class="cluster">
<title>cluster__utf8_string</title>
<polygon fill="none" stroke="black" stroke-dasharray="1,5" points="209,-8 209,-440 3980,-440 3980,-8 209,-8"/>
<text text-anchor="middle" x="2094.5" y="-424.8" font-family="Times,serif" font-size="14.00">Utf8String</text>
</g>
<g id="clust2" class="cluster">
<title>cluster__utf8_codepoint</title>
<polygon fill="none" stroke="black" stroke-dasharray="1,5" points="217,-96 217,-409 3972,-409 3972,-96 217,-96"/>
<text text-anchor="middle" x="2094.5" y="-393.8" font-family="Times,serif" font-size="14.00">Utf8String::Utf8Codepoint</text>
</g>
<!-- utf8_string__seq -->
<g id="node1" class="node">
<title>utf8_string__seq</title>
<polygon fill="#e0ffe0" stroke="transparent" points="740.5,-62 740.5,-83 771.5,-83 771.5,-62 740.5,-62"/>
<polygon fill="none" stroke="black" points="740.5,-62 740.5,-83 771.5,-83 771.5,-62 740.5,-62"/>
<text text-anchor="start" x="743.5" y="-68.8" font-family="Times,serif" font-size="14.00">pos</text>
<polygon fill="#e0ffe0" stroke="transparent" points="771.5,-62 771.5,-83 805.5,-83 805.5,-62 771.5,-62"/>
<polygon fill="none" stroke="black" points="771.5,-62 771.5,-83 805.5,-83 805.5,-62 771.5,-62"/>
<text text-anchor="start" x="774.5" y="-68.8" font-family="Times,serif" font-size="14.00">size</text>
<polygon fill="#e0ffe0" stroke="transparent" points="805.5,-62 805.5,-83 917.5,-83 917.5,-62 805.5,-62"/>
<polygon fill="none" stroke="black" points="805.5,-62 805.5,-83 917.5,-83 917.5,-62 805.5,-62"/>
<text text-anchor="start" x="845.5" y="-68.8" font-family="Times,serif" font-size="14.00">type</text>
<polygon fill="#e0ffe0" stroke="transparent" points="917.5,-62 917.5,-83 1001.5,-83 1001.5,-62 917.5,-62"/>
<polygon fill="none" stroke="black" points="917.5,-62 917.5,-83 1001.5,-83 1001.5,-62 917.5,-62"/>
<text text-anchor="start" x="952.5" y="-68.8" font-family="Times,serif" font-size="14.00">id</text>
<polygon fill="none" stroke="black" points="740.5,-41 740.5,-62 771.5,-62 771.5,-41 740.5,-41"/>
<text text-anchor="start" x="751" y="-47.8" font-family="Times,serif" font-size="14.00">0</text>
<polygon fill="none" stroke="black" points="771.5,-41 771.5,-62 805.5,-62 805.5,-41 771.5,-41"/>
<text text-anchor="start" x="781.5" y="-47.8" font-family="Times,serif" font-size="14.00">...</text>
<polygon fill="none" stroke="black" points="805.5,-41 805.5,-62 917.5,-62 917.5,-41 805.5,-41"/>
<text text-anchor="start" x="808.5" y="-47.8" font-family="Times,serif" font-size="14.00">Utf8Codepoint</text>
<polygon fill="none" stroke="black" points="917.5,-41 917.5,-62 1001.5,-62 1001.5,-41 917.5,-41"/>
<text text-anchor="start" x="920.5" y="-47.8" font-family="Times,serif" font-size="14.00">codepoints</text>
<polygon fill="none" stroke="black" points="740.5,-20 740.5,-41 1001.5,-41 1001.5,-20 740.5,-20"/>
<text text-anchor="start" x="786.5" y="-26.8" font-family="Times,serif" font-size="14.00">repeat to end of stream</text>
</g>
<!-- utf8_codepoint__seq -->
<g id="node2" class="node">
<title>utf8_codepoint__seq</title>
<polygon fill="#e0ffe0" stroke="transparent" points="1358.5,-242 1358.5,-263 1389.5,-263 1389.5,-242 1358.5,-242"/>
<polygon fill="none" stroke="black" points="1358.5,-242 1358.5,-263 1389.5,-263 1389.5,-242 1358.5,-242"/>
<text text-anchor="start" x="1361.5" y="-248.8" font-family="Times,serif" font-size="14.00">pos</text>
<polygon fill="#e0ffe0" stroke="transparent" points="1389.5,-242 1389.5,-263 1463.5,-263 1463.5,-242 1389.5,-242"/>
<polygon fill="none" stroke="black" points="1389.5,-242 1389.5,-263 1463.5,-263 1463.5,-242 1389.5,-242"/>
<text text-anchor="start" x="1412.5" y="-248.8" font-family="Times,serif" font-size="14.00">size</text>
<polygon fill="#e0ffe0" stroke="transparent" points="1463.5,-242 1463.5,-263 1501.5,-263 1501.5,-242 1463.5,-242"/>
<polygon fill="none" stroke="black" points="1463.5,-242 1463.5,-263 1501.5,-263 1501.5,-242 1463.5,-242"/>
<text text-anchor="start" x="1466.5" y="-248.8" font-family="Times,serif" font-size="14.00">type</text>
<polygon fill="#e0ffe0" stroke="transparent" points="1501.5,-242 1501.5,-263 1547.5,-263 1547.5,-242 1501.5,-242"/>
<polygon fill="none" stroke="black" points="1501.5,-242 1501.5,-263 1547.5,-263 1547.5,-242 1501.5,-242"/>
<text text-anchor="start" x="1517.5" y="-248.8" font-family="Times,serif" font-size="14.00">id</text>
<polygon fill="none" stroke="black" points="1358.5,-221 1358.5,-242 1389.5,-242 1389.5,-221 1358.5,-221"/>
<text text-anchor="start" x="1369" y="-227.8" font-family="Times,serif" font-size="14.00">0</text>
<polygon fill="none" stroke="black" points="1389.5,-221 1389.5,-242 1463.5,-242 1463.5,-221 1389.5,-221"/>
<text text-anchor="start" x="1392.5" y="-227.8" font-family="Times,serif" font-size="14.00">len_bytes</text>
<polygon fill="none" stroke="black" points="1463.5,-221 1463.5,-242 1501.5,-242 1501.5,-221 1463.5,-221"/>
<polygon fill="none" stroke="black" points="1501.5,-221 1501.5,-242 1547.5,-242 1547.5,-221 1501.5,-221"/>
<text text-anchor="start" x="1504.5" y="-227.8" font-family="Times,serif" font-size="14.00">bytes</text>
</g>
<!-- utf8_string__seq&#45;&gt;utf8_codepoint__seq -->
<g id="edge1" class="edge">
<title>utf8_string__seq:codepoints_type&#45;&gt;utf8_codepoint__seq</title>
<path fill="none" stroke="black" stroke-width="2" d="M1002.5,-51C1142.14,-51 1190.13,-27.54 1314,-92 1365.42,-118.76 1407.42,-172.85 1430.94,-208.23"/>
<polygon fill="black" stroke="black" stroke-width="2" points="1428.13,-210.33 1436.52,-216.8 1434,-206.51 1428.13,-210.33"/>
</g>
<!-- utf8_codepoint__inst__raw0 -->
<g id="node5" class="node">
<title>utf8_codepoint__inst__raw0</title>
<polygon fill="#e0ffe0" stroke="transparent" points="1599.5,-333 1599.5,-354 1642.5,-354 1642.5,-333 1599.5,-333"/>
<polygon fill="none" stroke="black" points="1599.5,-333 1599.5,-354 1642.5,-354 1642.5,-333 1599.5,-333"/>
<text text-anchor="start" x="1614" y="-339.8" font-family="Times,serif" font-size="14.00">id</text>
<polygon fill="#e0ffe0" stroke="transparent" points="1642.5,-333 1642.5,-354 2438.5,-354 2438.5,-333 1642.5,-333"/>
<polygon fill="none" stroke="black" points="1642.5,-333 1642.5,-354 2438.5,-354 2438.5,-333 1642.5,-333"/>
<text text-anchor="start" x="2021" y="-339.8" font-family="Times,serif" font-size="14.00">value</text>
<polygon fill="none" stroke="black" points="1599.5,-312 1599.5,-333 1642.5,-333 1642.5,-312 1599.5,-312"/>
<text text-anchor="start" x="1602.5" y="-318.8" font-family="Times,serif" font-size="14.00">raw0</text>
<polygon fill="none" stroke="black" points="1642.5,-312 1642.5,-333 2438.5,-333 2438.5,-312 1642.5,-312"/>
<text text-anchor="start" x="1645.5" y="-318.8" font-family="Times,serif" font-size="14.00">bytes[0].ord &amp; (len_bytes == 1 ? 127 : (len_bytes == 2 ? 31 : (len_bytes == 3 ? 15 : (len_bytes == 4 ? 7 : 0))))</text>
</g>
<!-- utf8_codepoint__seq&#45;&gt;utf8_codepoint__inst__raw0 -->
<g id="edge5" class="edge">
<title>utf8_codepoint__seq:bytes_type&#45;&gt;utf8_codepoint__inst__raw0</title>
<path fill="none" stroke="#404040" d="M1548.5,-231C1584.14,-231 1560.54,-280.5 1591,-299 1593.22,-300.35 1595.46,-301.67 1597.72,-302.96"/>
<polygon fill="#404040" stroke="#404040" points="1596.07,-306.04 1606.52,-307.78 1599.44,-299.91 1596.07,-306.04"/>
</g>
<!-- utf8_codepoint__inst__raw1 -->
<g id="node6" class="node">
<title>utf8_codepoint__inst__raw1</title>
<polygon fill="#e0ffe0" stroke="transparent" points="1930.5,-129 1930.5,-150 1973.5,-150 1973.5,-129 1930.5,-129"/>
<polygon fill="none" stroke="black" points="1930.5,-129 1930.5,-150 1973.5,-150 1973.5,-129 1930.5,-129"/>
<text text-anchor="start" x="1945" y="-135.8" font-family="Times,serif" font-size="14.00">id</text>
<polygon fill="#e0ffe0" stroke="transparent" points="1973.5,-129 1973.5,-150 2106.5,-150 2106.5,-129 1973.5,-129"/>
<polygon fill="none" stroke="black" points="1973.5,-129 1973.5,-150 2106.5,-150 2106.5,-129 1973.5,-129"/>
<text text-anchor="start" x="2020.5" y="-135.8" font-family="Times,serif" font-size="14.00">value</text>
<polygon fill="none" stroke="black" points="1930.5,-108 1930.5,-129 1973.5,-129 1973.5,-108 1930.5,-108"/>
<text text-anchor="start" x="1933.5" y="-114.8" font-family="Times,serif" font-size="14.00">raw1</text>
<polygon fill="none" stroke="black" points="1973.5,-108 1973.5,-129 2106.5,-129 2106.5,-108 1973.5,-108"/>
<text text-anchor="start" x="1976.5" y="-114.8" font-family="Times,serif" font-size="14.00">bytes[1].ord &amp; 63</text>
</g>
<!-- utf8_codepoint__seq&#45;&gt;utf8_codepoint__inst__raw1 -->
<g id="edge7" class="edge">
<title>utf8_codepoint__seq:bytes_type&#45;&gt;utf8_codepoint__inst__raw1</title>
<path fill="none" stroke="#404040" d="M1548.5,-231C1584.14,-231 1560.54,-181.5 1591,-163 1687.84,-104.18 1820.69,-103.38 1912.26,-112.35"/>
<polygon fill="#404040" stroke="#404040" points="1912.07,-115.85 1922.38,-113.39 1912.79,-108.88 1912.07,-115.85"/>
</g>
<!-- utf8_codepoint__inst__raw2 -->
<g id="node7" class="node">
<title>utf8_codepoint__inst__raw2</title>
<polygon fill="#e0ffe0" stroke="transparent" points="1930.5,-197 1930.5,-218 1973.5,-218 1973.5,-197 1930.5,-197"/>
<polygon fill="none" stroke="black" points="1930.5,-197 1930.5,-218 1973.5,-218 1973.5,-197 1930.5,-197"/>
<text text-anchor="start" x="1945" y="-203.8" font-family="Times,serif" font-size="14.00">id</text>
<polygon fill="#e0ffe0" stroke="transparent" points="1973.5,-197 1973.5,-218 2106.5,-218 2106.5,-197 1973.5,-197"/>
<polygon fill="none" stroke="black" points="1973.5,-197 1973.5,-218 2106.5,-218 2106.5,-197 1973.5,-197"/>
<text text-anchor="start" x="2020.5" y="-203.8" font-family="Times,serif" font-size="14.00">value</text>
<polygon fill="none" stroke="black" points="1930.5,-176 1930.5,-197 1973.5,-197 1973.5,-176 1930.5,-176"/>
<text text-anchor="start" x="1933.5" y="-182.8" font-family="Times,serif" font-size="14.00">raw2</text>
<polygon fill="none" stroke="black" points="1973.5,-176 1973.5,-197 2106.5,-197 2106.5,-176 1973.5,-176"/>
<text text-anchor="start" x="1976.5" y="-182.8" font-family="Times,serif" font-size="14.00">bytes[2].ord &amp; 63</text>
</g>
<!-- utf8_codepoint__seq&#45;&gt;utf8_codepoint__inst__raw2 -->
<g id="edge8" class="edge">
<title>utf8_codepoint__seq:bytes_type&#45;&gt;utf8_codepoint__inst__raw2</title>
<path fill="none" stroke="#404040" d="M1548.5,-231C1673.74,-231 1817.3,-218.79 1912.25,-209"/>
<polygon fill="#404040" stroke="#404040" points="1912.85,-212.46 1922.43,-207.94 1912.12,-205.5 1912.85,-212.46"/>
</g>
<!-- utf8_codepoint__inst__raw3 -->
<g id="node8" class="node">
<title>utf8_codepoint__inst__raw3</title>
<polygon fill="#e0ffe0" stroke="transparent" points="1930.5,-265 1930.5,-286 1973.5,-286 1973.5,-265 1930.5,-265"/>
<polygon fill="none" stroke="black" points="1930.5,-265 1930.5,-286 1973.5,-286 1973.5,-265 1930.5,-265"/>
<text text-anchor="start" x="1945" y="-271.8" font-family="Times,serif" font-size="14.00">id</text>
<polygon fill="#e0ffe0" stroke="transparent" points="1973.5,-265 1973.5,-286 2106.5,-286 2106.5,-265 1973.5,-265"/>
<polygon fill="none" stroke="black" points="1973.5,-265 1973.5,-286 2106.5,-286 2106.5,-265 1973.5,-265"/>
<text text-anchor="start" x="2020.5" y="-271.8" font-family="Times,serif" font-size="14.00">value</text>
<polygon fill="none" stroke="black" points="1930.5,-244 1930.5,-265 1973.5,-265 1973.5,-244 1930.5,-244"/>
<text text-anchor="start" x="1933.5" y="-250.8" font-family="Times,serif" font-size="14.00">raw3</text>
<polygon fill="none" stroke="black" points="1973.5,-244 1973.5,-265 2106.5,-265 2106.5,-244 1973.5,-244"/>
<text text-anchor="start" x="1976.5" y="-250.8" font-family="Times,serif" font-size="14.00">bytes[3].ord &amp; 63</text>
</g>
<!-- utf8_codepoint__seq&#45;&gt;utf8_codepoint__inst__raw3 -->
<g id="edge9" class="edge">
<title>utf8_codepoint__seq:bytes_type&#45;&gt;utf8_codepoint__inst__raw3</title>
<path fill="none" stroke="#404040" d="M1548.5,-231C1673.74,-231 1817.3,-243.21 1912.25,-253"/>
<polygon fill="#404040" stroke="#404040" points="1912.12,-256.5 1922.43,-254.06 1912.85,-249.54 1912.12,-256.5"/>
</g>
<!-- utf8_codepoint__inst__byte0 -->
<g id="node3" class="node">
<title>utf8_codepoint__inst__byte0</title>
<polygon fill="#e0ffe0" stroke="transparent" points="233,-344 233,-365 264,-365 264,-344 233,-344"/>
<polygon fill="none" stroke="black" points="233,-344 233,-365 264,-365 264,-344 233,-344"/>
<text text-anchor="start" x="236" y="-350.8" font-family="Times,serif" font-size="14.00">pos</text>
<polygon fill="#e0ffe0" stroke="transparent" points="264,-344 264,-365 298,-365 298,-344 264,-344"/>
<polygon fill="none" stroke="black" points="264,-344 264,-365 298,-365 298,-344 264,-344"/>
<text text-anchor="start" x="267" y="-350.8" font-family="Times,serif" font-size="14.00">size</text>
<polygon fill="#e0ffe0" stroke="transparent" points="298,-344 298,-365 336,-365 336,-344 298,-344"/>
<polygon fill="none" stroke="black" points="298,-344 298,-365 336,-365 336,-344 298,-344"/>
<text text-anchor="start" x="301" y="-350.8" font-family="Times,serif" font-size="14.00">type</text>
<polygon fill="#e0ffe0" stroke="transparent" points="336,-344 336,-365 383,-365 383,-344 336,-344"/>
<polygon fill="none" stroke="black" points="336,-344 336,-365 383,-365 383,-344 336,-344"/>
<text text-anchor="start" x="352.5" y="-350.8" font-family="Times,serif" font-size="14.00">id</text>
<polygon fill="none" stroke="black" points="233,-323 233,-344 264,-344 264,-323 233,-323"/>
<text text-anchor="start" x="237.5" y="-329.8" font-family="Times,serif" font-size="14.00">ofs</text>
<polygon fill="none" stroke="black" points="264,-323 264,-344 298,-344 298,-323 264,-323"/>
<text text-anchor="start" x="276" y="-329.8" font-family="Times,serif" font-size="14.00">1</text>
<polygon fill="none" stroke="black" points="298,-323 298,-344 336,-344 336,-323 298,-323"/>
<text text-anchor="start" x="307.5" y="-329.8" font-family="Times,serif" font-size="14.00">u1</text>
<polygon fill="none" stroke="black" points="336,-323 336,-344 383,-344 383,-323 336,-323"/>
<text text-anchor="start" x="339" y="-329.8" font-family="Times,serif" font-size="14.00">byte0</text>
</g>
<!-- utf8_codepoint__inst__len_bytes -->
<g id="node4" class="node">
<title>utf8_codepoint__inst__len_bytes</title>
<polygon fill="#e0ffe0" stroke="transparent" points="435.5,-333 435.5,-354 509.5,-354 509.5,-333 435.5,-333"/>
<polygon fill="none" stroke="black" points="435.5,-333 435.5,-354 509.5,-354 509.5,-333 435.5,-333"/>
<text text-anchor="start" x="465.5" y="-339.8" font-family="Times,serif" font-size="14.00">id</text>
<polygon fill="#e0ffe0" stroke="transparent" points="509.5,-333 509.5,-354 1306.5,-354 1306.5,-333 509.5,-333"/>
<polygon fill="none" stroke="black" points="509.5,-333 509.5,-354 1306.5,-354 1306.5,-333 509.5,-333"/>
<text text-anchor="start" x="888.5" y="-339.8" font-family="Times,serif" font-size="14.00">value</text>
<polygon fill="none" stroke="black" points="435.5,-312 435.5,-333 509.5,-333 509.5,-312 435.5,-312"/>
<text text-anchor="start" x="438.5" y="-318.8" font-family="Times,serif" font-size="14.00">len_bytes</text>
<polygon fill="none" stroke="black" points="509.5,-312 509.5,-333 1306.5,-333 1306.5,-312 509.5,-312"/>
<text text-anchor="start" x="512.5" y="-318.8" font-family="Times,serif" font-size="14.00">(byte0 &amp; 128 == 0 ? 1 : (byte0 &amp; 224 == 192 ? 2 : (byte0 &amp; 240 == 224 ? 3 : (byte0 &amp; 248 == 240 ? 4 : &#45;1))))</text>
</g>
<!-- utf8_codepoint__inst__byte0&#45;&gt;utf8_codepoint__inst__len_bytes -->
<g id="edge4" class="edge">
<title>utf8_codepoint__inst__byte0:byte0_type&#45;&gt;utf8_codepoint__inst__len_bytes</title>
<path fill="none" stroke="#404040" d="M384,-333C394.81,-333 405.75,-333 416.79,-333"/>
<polygon fill="#404040" stroke="#404040" points="416.96,-336.5 426.96,-333 416.96,-329.5 416.96,-336.5"/>
</g>
<!-- utf8_codepoint__inst__len_bytes&#45;&gt;utf8_codepoint__seq -->
<g id="edge2" class="edge">
<title>utf8_codepoint__inst__len_bytes:len_bytes_type&#45;&gt;utf8_codepoint__seq:bytes_size</title>
<path fill="none" stroke="#404040" d="M1000.92,-358.03C1096.01,-369.01 1223.83,-367.49 1314,-304 1346.88,-280.85 1316.53,-243.28 1350,-221 1374.99,-204.37 1415.48,-189.82 1424.62,-210.04"/>
<polygon fill="#404040" stroke="#404040" points="1421.21,-210.82 1426.5,-220 1428.09,-209.53 1421.21,-210.82"/>
</g>
<!-- utf8_codepoint__inst__len_bytes&#45;&gt;utf8_codepoint__inst__raw0 -->
<g id="edge6" class="edge">
<title>utf8_codepoint__inst__len_bytes:len_bytes_type&#45;&gt;utf8_codepoint__inst__raw0</title>
<path fill="none" stroke="#404040" d="M1314.16,-333C1401.67,-333 1493.46,-333 1580.77,-333"/>
<polygon fill="#404040" stroke="#404040" points="1580.85,-336.5 1590.85,-333 1580.85,-329.5 1580.85,-336.5"/>
</g>
<!-- utf8_codepoint__inst__value_as_int -->
<g id="node9" class="node">
<title>utf8_codepoint__inst__value_as_int</title>
<polygon fill="#e0ffe0" stroke="transparent" points="2490,-265 2490,-286 2584,-286 2584,-265 2490,-265"/>
<polygon fill="none" stroke="black" points="2490,-265 2490,-286 2584,-286 2584,-265 2490,-265"/>
<text text-anchor="start" x="2530" y="-271.8" font-family="Times,serif" font-size="14.00">id</text>
<polygon fill="#e0ffe0" stroke="transparent" points="2584,-265 2584,-286 3956,-286 3956,-265 2584,-265"/>
<polygon fill="none" stroke="black" points="2584,-265 2584,-286 3956,-286 3956,-265 2584,-265"/>
<text text-anchor="start" x="3250.5" y="-271.8" font-family="Times,serif" font-size="14.00">value</text>
<polygon fill="none" stroke="black" points="2490,-244 2490,-265 2584,-265 2584,-244 2490,-244"/>
<text text-anchor="start" x="2493" y="-250.8" font-family="Times,serif" font-size="14.00">value_as_int</text>
<polygon fill="none" stroke="black" points="2584,-244 2584,-265 3956,-265 3956,-244 2584,-244"/>
<text text-anchor="start" x="2587" y="-250.8" font-family="Times,serif" font-size="14.00">(len_bytes == 1 ? raw0 : (len_bytes == 2 ? raw0 &lt;&lt; 6 | raw1 : (len_bytes == 3 ? (raw0 &lt;&lt; 12 | raw1 &lt;&lt; 6) | raw2 : (len_bytes == 4 ? ((raw0 &lt;&lt; 18 | raw1 &lt;&lt; 12) | raw2 &lt;&lt; 6) | raw3 : &#45;1))))</text>
</g>
<!-- utf8_codepoint__inst__len_bytes&#45;&gt;utf8_codepoint__inst__value_as_int -->
<g id="edge10" class="edge">
<title>utf8_codepoint__inst__len_bytes:len_bytes_type&#45;&gt;utf8_codepoint__inst__value_as_int</title>
<path fill="none" stroke="#404040" d="M1314.21,-357.21C1405.7,-361.29 1501.46,-364.89 1591,-367 1970.89,-375.97 2066.81,-391.81 2446,-367 2661.77,-352.88 2909.13,-316.9 3065.44,-291.7"/>
<polygon fill="#404040" stroke="#404040" points="3066.29,-295.1 3075.6,-290.05 3065.17,-288.19 3066.29,-295.1"/>
</g>
<!-- utf8_codepoint__inst__raw0&#45;&gt;utf8_codepoint__inst__value_as_int -->
<g id="edge11" class="edge">
<title>utf8_codepoint__inst__raw0:raw0_type&#45;&gt;utf8_codepoint__inst__value_as_int</title>
<path fill="none" stroke="#404040" d="M2446.42,-308.86C2551.16,-302.94 2663.62,-296.58 2769.52,-290.59"/>
<polygon fill="#404040" stroke="#404040" points="2769.96,-294.07 2779.74,-290.01 2769.56,-287.08 2769.96,-294.07"/>
</g>
<!-- utf8_codepoint__inst__raw1&#45;&gt;utf8_codepoint__inst__value_as_int -->
<g id="edge12" class="edge">
<title>utf8_codepoint__inst__raw1:raw1_type&#45;&gt;utf8_codepoint__inst__value_as_int</title>
<path fill="none" stroke="#404040" d="M2114.91,-135.2C2201.43,-141.16 2332.42,-151.02 2446,-163 2650.13,-184.54 2883.55,-216.17 3040.61,-238.49"/>
<polygon fill="#404040" stroke="#404040" points="3040.46,-242 3050.85,-239.95 3041.44,-235.07 3040.46,-242"/>
</g>
<!-- utf8_codepoint__inst__raw2&#45;&gt;utf8_codepoint__inst__value_as_int -->
<g id="edge13" class="edge">
<title>utf8_codepoint__inst__raw2:raw2_type&#45;&gt;utf8_codepoint__inst__value_as_int</title>
<path fill="none" stroke="#404040" d="M2114.61,-202.38C2255.65,-210.35 2529.45,-225.84 2769.5,-239.41"/>
<polygon fill="#404040" stroke="#404040" points="2769.64,-242.92 2779.82,-240 2770.03,-235.94 2769.64,-242.92"/>
</g>
<!-- utf8_codepoint__inst__raw3&#45;&gt;utf8_codepoint__inst__value_as_int -->
<g id="edge14" class="edge">
<title>utf8_codepoint__inst__raw3:raw3_type&#45;&gt;utf8_codepoint__inst__value_as_int</title>
<path fill="none" stroke="#404040" d="M2114.61,-265C2198.36,-265 2328.91,-265 2471.41,-265"/>
<polygon fill="#404040" stroke="#404040" points="2471.69,-268.5 2481.69,-265 2471.69,-261.5 2471.69,-268.5"/>
</g>
<!-- utf8_codepoint__params -->
<g id="node10" class="node">
<title>utf8_codepoint__params</title>
<text text-anchor="middle" x="94.5" y="-329.3" font-family="Times,serif" font-size="14.00">utf8_codepoint__params</text>
</g>
<!-- utf8_codepoint__params&#45;&gt;utf8_codepoint__inst__byte0 -->
<g id="edge3" class="edge">
<title>utf8_codepoint__params:ofs_type&#45;&gt;utf8_codepoint__inst__byte0:byte0_pos</title>
<path fill="none" stroke="#404040" d="M189.12,-333C200,-333 211.06,-333 221.8,-333"/>
<polygon fill="#404040" stroke="#404040" points="222,-336.5 232,-333 222,-329.5 222,-336.5"/>
</g>
</g>
</svg>
