<?xml version="1.0" encoding="UTF-8" standalone="no"?>
<!DOCTYPE svg PUBLIC "-//W3C//DTD SVG 1.1//EN"
 "http://www.w3.org/Graphics/SVG/1.1/DTD/svg11.dtd">
<!-- Generated by graphviz version 2.40.1 (20161225.0304)
 -->
<!-- Title: %3 Pages: 1 -->
<svg width="2200pt" height="511pt"
 viewBox="0.00 0.00 2200.00 511.00" xmlns="http://www.w3.org/2000/svg" xmlns:xlink="http://www.w3.org/1999/xlink">
<g id="graph0" class="graph" transform="scale(1 1) rotate(0) translate(4 507)">
<title>%3</title>
<polygon fill="#ffffff" stroke="transparent" points="-4,4 -4,-507 2196,-507 2196,4 -4,4"/>
<g id="clust1" class="cluster">
<title>cluster__tga</title>
<polygon fill="none" stroke="#000000" stroke-dasharray="1,5" points="202,-8 202,-495 2184,-495 2184,-8 202,-8"/>
<text text-anchor="middle" x="1193" y="-479.8" font-family="Times,serif" font-size="14.00" fill="#000000">Tga</text>
</g>
<g id="clust2" class="cluster">
<title>cluster__tga_footer</title>
<polygon fill="none" stroke="#000000" stroke-dasharray="1,5" points="777,-66 777,-223 1832,-223 1832,-66 777,-66"/>
<text text-anchor="middle" x="1304.5" y="-207.8" font-family="Times,serif" font-size="14.00" fill="#000000">Tga::TgaFooter</text>
</g>
<g id="clust3" class="cluster">
<title>cluster__tga_ext_area</title>
<polygon fill="none" stroke="#000000" stroke-dasharray="1,5" points="1852,-16 1852,-419 2176,-419 2176,-16 1852,-16"/>
<text text-anchor="middle" x="2014" y="-403.8" font-family="Times,serif" font-size="14.00" fill="#000000">Tga::TgaExtArea</text>
</g>
<!-- tga__seq -->
<g id="node1" class="node">
<title>tga__seq</title>
<polygon fill="#e0ffe0" stroke="transparent" points="218.5,-403 218.5,-424 249.5,-424 249.5,-403 218.5,-403"/>
<polygon fill="none" stroke="#000000" points="218.5,-403 218.5,-424 249.5,-424 249.5,-403 218.5,-403"/>
<text text-anchor="start" x="221.5" y="-409.8" font-family="Times,serif" font-size="14.00" fill="#000000">pos</text>
<polygon fill="#e0ffe0" stroke="transparent" points="249.5,-403 249.5,-424 452.5,-424 452.5,-403 249.5,-403"/>
<polygon fill="none" stroke="#000000" points="249.5,-403 249.5,-424 452.5,-424 452.5,-403 249.5,-403"/>
<text text-anchor="start" x="337" y="-409.8" font-family="Times,serif" font-size="14.00" fill="#000000">size</text>
<polygon fill="#e0ffe0" stroke="transparent" points="452.5,-403 452.5,-424 611.5,-424 611.5,-403 452.5,-403"/>
<polygon fill="none" stroke="#000000" points="452.5,-403 452.5,-424 611.5,-424 611.5,-403 452.5,-403"/>
<text text-anchor="start" x="516" y="-409.8" font-family="Times,serif" font-size="14.00" fill="#000000">type</text>
<polygon fill="#e0ffe0" stroke="transparent" points="611.5,-403 611.5,-424 741.5,-424 741.5,-403 611.5,-403"/>
<polygon fill="none" stroke="#000000" points="611.5,-403 611.5,-424 741.5,-424 741.5,-403 611.5,-403"/>
<text text-anchor="start" x="669.5" y="-409.8" font-family="Times,serif" font-size="14.00" fill="#000000">id</text>
<polygon fill="none" stroke="#000000" points="218.5,-382 218.5,-403 249.5,-403 249.5,-382 218.5,-382"/>
<text text-anchor="start" x="229" y="-388.8" font-family="Times,serif" font-size="14.00" fill="#000000">0</text>
<polygon fill="none" stroke="#000000" points="249.5,-382 249.5,-403 452.5,-403 452.5,-382 249.5,-382"/>
<text text-anchor="start" x="346" y="-388.8" font-family="Times,serif" font-size="14.00" fill="#000000">1</text>
<polygon fill="none" stroke="#000000" points="452.5,-382 452.5,-403 611.5,-403 611.5,-382 452.5,-382"/>
<text text-anchor="start" x="522.5" y="-388.8" font-family="Times,serif" font-size="14.00" fill="#000000">u1</text>
<polygon fill="none" stroke="#000000" points="611.5,-382 611.5,-403 741.5,-403 741.5,-382 611.5,-382"/>
<text text-anchor="start" x="629.5" y="-388.8" font-family="Times,serif" font-size="14.00" fill="#000000">image_id_len</text>
<polygon fill="none" stroke="#000000" points="218.5,-361 218.5,-382 249.5,-382 249.5,-361 218.5,-361"/>
<text text-anchor="start" x="229" y="-367.8" font-family="Times,serif" font-size="14.00" fill="#000000">1</text>
<polygon fill="none" stroke="#000000" points="249.5,-361 249.5,-382 452.5,-382 452.5,-361 249.5,-361"/>
<text text-anchor="start" x="346" y="-367.8" font-family="Times,serif" font-size="14.00" fill="#000000">1</text>
<polygon fill="none" stroke="#000000" points="452.5,-361 452.5,-382 611.5,-382 611.5,-361 452.5,-361"/>
<text text-anchor="start" x="460.5" y="-367.8" font-family="Times,serif" font-size="14.00" fill="#000000">u1→ColorMapEnum</text>
<polygon fill="none" stroke="#000000" points="611.5,-361 611.5,-382 741.5,-382 741.5,-361 611.5,-361"/>
<text text-anchor="start" x="619.5" y="-367.8" font-family="Times,serif" font-size="14.00" fill="#000000">color_map_type</text>
<polygon fill="none" stroke="#000000" points="218.5,-340 218.5,-361 249.5,-361 249.5,-340 218.5,-340"/>
<text text-anchor="start" x="229" y="-346.8" font-family="Times,serif" font-size="14.00" fill="#000000">2</text>
<polygon fill="none" stroke="#000000" points="249.5,-340 249.5,-361 452.5,-361 452.5,-340 249.5,-340"/>
<text text-anchor="start" x="346" y="-346.8" font-family="Times,serif" font-size="14.00" fill="#000000">1</text>
<polygon fill="none" stroke="#000000" points="452.5,-340 452.5,-361 611.5,-361 611.5,-340 452.5,-340"/>
<text text-anchor="start" x="455.5" y="-346.8" font-family="Times,serif" font-size="14.00" fill="#000000">u1→ImageTypeEnum</text>
<polygon fill="none" stroke="#000000" points="611.5,-340 611.5,-361 741.5,-361 741.5,-340 611.5,-340"/>
<text text-anchor="start" x="635" y="-346.8" font-family="Times,serif" font-size="14.00" fill="#000000">image_type</text>
<polygon fill="none" stroke="#000000" points="218.5,-319 218.5,-340 249.5,-340 249.5,-319 218.5,-319"/>
<text text-anchor="start" x="229" y="-325.8" font-family="Times,serif" font-size="14.00" fill="#000000">3</text>
<polygon fill="none" stroke="#000000" points="249.5,-319 249.5,-340 452.5,-340 452.5,-319 249.5,-319"/>
<text text-anchor="start" x="346" y="-325.8" font-family="Times,serif" font-size="14.00" fill="#000000">2</text>
<polygon fill="none" stroke="#000000" points="452.5,-319 452.5,-340 611.5,-340 611.5,-319 452.5,-319"/>
<text text-anchor="start" x="516.5" y="-325.8" font-family="Times,serif" font-size="14.00" fill="#000000">u2le</text>
<polygon fill="none" stroke="#000000" points="611.5,-319 611.5,-340 741.5,-340 741.5,-319 611.5,-319"/>
<text text-anchor="start" x="625" y="-325.8" font-family="Times,serif" font-size="14.00" fill="#000000">color_map_ofs</text>
<polygon fill="none" stroke="#000000" points="218.5,-298 218.5,-319 249.5,-319 249.5,-298 218.5,-298"/>
<text text-anchor="start" x="229" y="-304.8" font-family="Times,serif" font-size="14.00" fill="#000000">5</text>
<polygon fill="none" stroke="#000000" points="249.5,-298 249.5,-319 452.5,-319 452.5,-298 249.5,-298"/>
<text text-anchor="start" x="346" y="-304.8" font-family="Times,serif" font-size="14.00" fill="#000000">2</text>
<polygon fill="none" stroke="#000000" points="452.5,-298 452.5,-319 611.5,-319 611.5,-298 452.5,-298"/>
<text text-anchor="start" x="516.5" y="-304.8" font-family="Times,serif" font-size="14.00" fill="#000000">u2le</text>
<polygon fill="none" stroke="#000000" points="611.5,-298 611.5,-319 741.5,-319 741.5,-298 611.5,-298"/>
<text text-anchor="start" x="619.5" y="-304.8" font-family="Times,serif" font-size="14.00" fill="#000000">num_color_map</text>
<polygon fill="none" stroke="#000000" points="218.5,-277 218.5,-298 249.5,-298 249.5,-277 218.5,-277"/>
<text text-anchor="start" x="229" y="-283.8" font-family="Times,serif" font-size="14.00" fill="#000000">7</text>
<polygon fill="none" stroke="#000000" points="249.5,-277 249.5,-298 452.5,-298 452.5,-277 249.5,-277"/>
<text text-anchor="start" x="346" y="-283.8" font-family="Times,serif" font-size="14.00" fill="#000000">1</text>
<polygon fill="none" stroke="#000000" points="452.5,-277 452.5,-298 611.5,-298 611.5,-277 452.5,-277"/>
<text text-anchor="start" x="522.5" y="-283.8" font-family="Times,serif" font-size="14.00" fill="#000000">u1</text>
<polygon fill="none" stroke="#000000" points="611.5,-277 611.5,-298 741.5,-298 741.5,-277 611.5,-277"/>
<text text-anchor="start" x="614.5" y="-283.8" font-family="Times,serif" font-size="14.00" fill="#000000">color_map_depth</text>
<polygon fill="none" stroke="#000000" points="218.5,-256 218.5,-277 249.5,-277 249.5,-256 218.5,-256"/>
<text text-anchor="start" x="229" y="-262.8" font-family="Times,serif" font-size="14.00" fill="#000000">8</text>
<polygon fill="none" stroke="#000000" points="249.5,-256 249.5,-277 452.5,-277 452.5,-256 249.5,-256"/>
<text text-anchor="start" x="346" y="-262.8" font-family="Times,serif" font-size="14.00" fill="#000000">2</text>
<polygon fill="none" stroke="#000000" points="452.5,-256 452.5,-277 611.5,-277 611.5,-256 452.5,-256"/>
<text text-anchor="start" x="516.5" y="-262.8" font-family="Times,serif" font-size="14.00" fill="#000000">u2le</text>
<polygon fill="none" stroke="#000000" points="611.5,-256 611.5,-277 741.5,-277 741.5,-256 611.5,-256"/>
<text text-anchor="start" x="648" y="-262.8" font-family="Times,serif" font-size="14.00" fill="#000000">x_offset</text>
<polygon fill="none" stroke="#000000" points="218.5,-235 218.5,-256 249.5,-256 249.5,-235 218.5,-235"/>
<text text-anchor="start" x="224.5" y="-241.8" font-family="Times,serif" font-size="14.00" fill="#000000">10</text>
<polygon fill="none" stroke="#000000" points="249.5,-235 249.5,-256 452.5,-256 452.5,-235 249.5,-235"/>
<text text-anchor="start" x="346" y="-241.8" font-family="Times,serif" font-size="14.00" fill="#000000">2</text>
<polygon fill="none" stroke="#000000" points="452.5,-235 452.5,-256 611.5,-256 611.5,-235 452.5,-235"/>
<text text-anchor="start" x="516.5" y="-241.8" font-family="Times,serif" font-size="14.00" fill="#000000">u2le</text>
<polygon fill="none" stroke="#000000" points="611.5,-235 611.5,-256 741.5,-256 741.5,-235 611.5,-235"/>
<text text-anchor="start" x="648" y="-241.8" font-family="Times,serif" font-size="14.00" fill="#000000">y_offset</text>
<polygon fill="none" stroke="#000000" points="218.5,-214 218.5,-235 249.5,-235 249.5,-214 218.5,-214"/>
<text text-anchor="start" x="224.5" y="-220.8" font-family="Times,serif" font-size="14.00" fill="#000000">12</text>
<polygon fill="none" stroke="#000000" points="249.5,-214 249.5,-235 452.5,-235 452.5,-214 249.5,-214"/>
<text text-anchor="start" x="346" y="-220.8" font-family="Times,serif" font-size="14.00" fill="#000000">2</text>
<polygon fill="none" stroke="#000000" points="452.5,-214 452.5,-235 611.5,-235 611.5,-214 452.5,-214"/>
<text text-anchor="start" x="516.5" y="-220.8" font-family="Times,serif" font-size="14.00" fill="#000000">u2le</text>
<polygon fill="none" stroke="#000000" points="611.5,-214 611.5,-235 741.5,-235 741.5,-214 611.5,-214"/>
<text text-anchor="start" x="656" y="-220.8" font-family="Times,serif" font-size="14.00" fill="#000000">width</text>
<polygon fill="none" stroke="#000000" points="218.5,-193 218.5,-214 249.5,-214 249.5,-193 218.5,-193"/>
<text text-anchor="start" x="224.5" y="-199.8" font-family="Times,serif" font-size="14.00" fill="#000000">14</text>
<polygon fill="none" stroke="#000000" points="249.5,-193 249.5,-214 452.5,-214 452.5,-193 249.5,-193"/>
<text text-anchor="start" x="346" y="-199.8" font-family="Times,serif" font-size="14.00" fill="#000000">2</text>
<polygon fill="none" stroke="#000000" points="452.5,-193 452.5,-214 611.5,-214 611.5,-193 452.5,-193"/>
<text text-anchor="start" x="516.5" y="-199.8" font-family="Times,serif" font-size="14.00" fill="#000000">u2le</text>
<polygon fill="none" stroke="#000000" points="611.5,-193 611.5,-214 741.5,-214 741.5,-193 611.5,-193"/>
<text text-anchor="start" x="653.5" y="-199.8" font-family="Times,serif" font-size="14.00" fill="#000000">height</text>
<polygon fill="none" stroke="#000000" points="218.5,-172 218.5,-193 249.5,-193 249.5,-172 218.5,-172"/>
<text text-anchor="start" x="224.5" y="-178.8" font-family="Times,serif" font-size="14.00" fill="#000000">16</text>
<polygon fill="none" stroke="#000000" points="249.5,-172 249.5,-193 452.5,-193 452.5,-172 249.5,-172"/>
<text text-anchor="start" x="346" y="-178.8" font-family="Times,serif" font-size="14.00" fill="#000000">1</text>
<polygon fill="none" stroke="#000000" points="452.5,-172 452.5,-193 611.5,-193 611.5,-172 452.5,-172"/>
<text text-anchor="start" x="522.5" y="-178.8" font-family="Times,serif" font-size="14.00" fill="#000000">u1</text>
<polygon fill="none" stroke="#000000" points="611.5,-172 611.5,-193 741.5,-193 741.5,-172 611.5,-172"/>
<text text-anchor="start" x="630" y="-178.8" font-family="Times,serif" font-size="14.00" fill="#000000">image_depth</text>
<polygon fill="none" stroke="#000000" points="218.5,-151 218.5,-172 249.5,-172 249.5,-151 218.5,-151"/>
<text text-anchor="start" x="224.5" y="-157.8" font-family="Times,serif" font-size="14.00" fill="#000000">17</text>
<polygon fill="none" stroke="#000000" points="249.5,-151 249.5,-172 452.5,-172 452.5,-151 249.5,-151"/>
<text text-anchor="start" x="346" y="-157.8" font-family="Times,serif" font-size="14.00" fill="#000000">1</text>
<polygon fill="none" stroke="#000000" points="452.5,-151 452.5,-172 611.5,-172 611.5,-151 452.5,-151"/>
<text text-anchor="start" x="522.5" y="-157.8" font-family="Times,serif" font-size="14.00" fill="#000000">u1</text>
<polygon fill="none" stroke="#000000" points="611.5,-151 611.5,-172 741.5,-172 741.5,-151 611.5,-151"/>
<text text-anchor="start" x="622" y="-157.8" font-family="Times,serif" font-size="14.00" fill="#000000">img_descriptor</text>
<polygon fill="none" stroke="#000000" points="218.5,-130 218.5,-151 249.5,-151 249.5,-130 218.5,-130"/>
<text text-anchor="start" x="224.5" y="-136.8" font-family="Times,serif" font-size="14.00" fill="#000000">18</text>
<polygon fill="none" stroke="#000000" points="249.5,-130 249.5,-151 452.5,-151 452.5,-130 249.5,-130"/>
<text text-anchor="start" x="304" y="-136.8" font-family="Times,serif" font-size="14.00" fill="#000000">image_id_len</text>
<polygon fill="none" stroke="#000000" points="452.5,-130 452.5,-151 611.5,-151 611.5,-130 452.5,-130"/>
<polygon fill="none" stroke="#000000" points="611.5,-130 611.5,-151 741.5,-151 741.5,-130 611.5,-130"/>
<text text-anchor="start" x="644" y="-136.8" font-family="Times,serif" font-size="14.00" fill="#000000">image_id</text>
<polygon fill="none" stroke="#000000" points="218.5,-109 218.5,-130 249.5,-130 249.5,-109 218.5,-109"/>
<text text-anchor="start" x="227" y="-115.8" font-family="Times,serif" font-size="14.00" fill="#000000">...</text>
<polygon fill="none" stroke="#000000" points="249.5,-109 249.5,-130 452.5,-130 452.5,-109 249.5,-109"/>
<text text-anchor="start" x="252.5" y="-115.8" font-family="Times,serif" font-size="14.00" fill="#000000">((color_map_depth + 7) / 8)</text>
<polygon fill="none" stroke="#000000" points="452.5,-109 452.5,-130 611.5,-130 611.5,-109 452.5,-109"/>
<polygon fill="none" stroke="#000000" points="611.5,-109 611.5,-130 741.5,-130 741.5,-109 611.5,-109"/>
<text text-anchor="start" x="639" y="-115.8" font-family="Times,serif" font-size="14.00" fill="#000000">color_map</text>
<polygon fill="none" stroke="#000000" points="218.5,-88 218.5,-109 741.5,-109 741.5,-88 218.5,-88"/>
<text text-anchor="start" x="375.5" y="-94.8" font-family="Times,serif" font-size="14.00" fill="#000000">repeat num_color_map times</text>
</g>
<!-- tga__seq&#45;&gt;tga__seq -->
<g id="edge1" class="edge">
<title>tga__seq:image_id_len_type&#45;&gt;tga__seq:image_id_size</title>
<path fill="none" stroke="#404040" d="M701.6416,-403.15C779.4298,-436.0167 757.9453,-446 513.5,-446 266.8163,-446 247.1955,-240.4007 327.5202,-158.3035"/>
<polygon fill="#404040" stroke="#404040" points="330.1716,-160.615 335.0627,-151.2167 325.3783,-155.5135 330.1716,-160.615"/>
</g>
<!-- tga__seq&#45;&gt;tga__seq -->
<g id="edge2" class="edge">
<title>tga__seq:color_map_depth_type&#45;&gt;tga__seq:color_map_size</title>
<path fill="none" stroke="#404040" d="M691.9373,-298.0683C780.7821,-360.8792 767.6289,-446 513.5,-446 266.3138,-446 247.1165,-221.6975 328.0123,-137.1637"/>
<polygon fill="#404040" stroke="#404040" points="330.5435,-139.5857 335.3376,-130.1375 325.6979,-134.5339 330.5435,-139.5857"/>
</g>
<!-- tga__seq&#45;&gt;tga__seq -->
<g id="edge3" class="edge">
<title>tga__seq:num_color_map_type&#45;&gt;tga__seq:color_map__repeat</title>
<path fill="none" stroke="#404040" d="M611.3902,-311.5173C408.4797,-316.5933 0,-305.3088 0,-203.5 0,-141.0349 95.4371,-112.6475 208.1321,-101.208"/>
<polygon fill="#404040" stroke="#404040" points="208.7638,-104.6633 218.3809,-100.218 208.0907,-97.6958 208.7638,-104.6633"/>
</g>
<!-- tga__inst__footer -->
<g id="node2" class="node">
<title>tga__inst__footer</title>
<polygon fill="#e0ffe0" stroke="transparent" points="347.5,-41 347.5,-62 448.5,-62 448.5,-41 347.5,-41"/>
<polygon fill="none" stroke="#000000" points="347.5,-41 347.5,-62 448.5,-62 448.5,-41 347.5,-41"/>
<text text-anchor="start" x="385.5" y="-47.8" font-family="Times,serif" font-size="14.00" fill="#000000">pos</text>
<polygon fill="#e0ffe0" stroke="transparent" points="448.5,-41 448.5,-62 482.5,-62 482.5,-41 448.5,-41"/>
<polygon fill="none" stroke="#000000" points="448.5,-41 448.5,-62 482.5,-62 482.5,-41 448.5,-41"/>
<text text-anchor="start" x="451.5" y="-47.8" font-family="Times,serif" font-size="14.00" fill="#000000">size</text>
<polygon fill="#e0ffe0" stroke="transparent" points="482.5,-41 482.5,-62 562.5,-62 562.5,-41 482.5,-41"/>
<polygon fill="none" stroke="#000000" points="482.5,-41 482.5,-62 562.5,-62 562.5,-41 482.5,-41"/>
<text text-anchor="start" x="506.5" y="-47.8" font-family="Times,serif" font-size="14.00" fill="#000000">type</text>
<polygon fill="#e0ffe0" stroke="transparent" points="562.5,-41 562.5,-62 611.5,-62 611.5,-41 562.5,-41"/>
<polygon fill="none" stroke="#000000" points="562.5,-41 562.5,-62 611.5,-62 611.5,-41 562.5,-41"/>
<text text-anchor="start" x="580" y="-47.8" font-family="Times,serif" font-size="14.00" fill="#000000">id</text>
<polygon fill="none" stroke="#000000" points="347.5,-20 347.5,-41 448.5,-41 448.5,-20 347.5,-20"/>
<text text-anchor="start" x="350.5" y="-26.8" font-family="Times,serif" font-size="14.00" fill="#000000">(_io.size &#45; 26)</text>
<polygon fill="none" stroke="#000000" points="448.5,-20 448.5,-41 482.5,-41 482.5,-20 448.5,-20"/>
<text text-anchor="start" x="456" y="-26.8" font-family="Times,serif" font-size="14.00" fill="#000000">26</text>
<polygon fill="none" stroke="#000000" points="482.5,-20 482.5,-41 562.5,-41 562.5,-20 482.5,-20"/>
<text text-anchor="start" x="485.5" y="-26.8" font-family="Times,serif" font-size="14.00" fill="#000000">TgaFooter</text>
<polygon fill="none" stroke="#000000" points="562.5,-20 562.5,-41 611.5,-41 611.5,-20 562.5,-20"/>
<text text-anchor="start" x="565.5" y="-26.8" font-family="Times,serif" font-size="14.00" fill="#000000">footer</text>
</g>
<!-- tga_footer__seq -->
<g id="node3" class="node">
<title>tga_footer__seq</title>
<polygon fill="#e0ffe0" stroke="transparent" points="793.5,-152 793.5,-173 824.5,-173 824.5,-152 793.5,-152"/>
<polygon fill="none" stroke="#000000" points="793.5,-152 793.5,-173 824.5,-173 824.5,-152 793.5,-152"/>
<text text-anchor="start" x="796.5" y="-158.8" font-family="Times,serif" font-size="14.00" fill="#000000">pos</text>
<polygon fill="#e0ffe0" stroke="transparent" points="824.5,-152 824.5,-173 858.5,-173 858.5,-152 824.5,-152"/>
<polygon fill="none" stroke="#000000" points="824.5,-152 824.5,-173 858.5,-173 858.5,-152 824.5,-152"/>
<text text-anchor="start" x="827.5" y="-158.8" font-family="Times,serif" font-size="14.00" fill="#000000">size</text>
<polygon fill="#e0ffe0" stroke="transparent" points="858.5,-152 858.5,-173 896.5,-173 896.5,-152 858.5,-152"/>
<polygon fill="none" stroke="#000000" points="858.5,-152 858.5,-173 896.5,-173 896.5,-152 858.5,-152"/>
<text text-anchor="start" x="861.5" y="-158.8" font-family="Times,serif" font-size="14.00" fill="#000000">type</text>
<polygon fill="#e0ffe0" stroke="transparent" points="896.5,-152 896.5,-173 1006.5,-173 1006.5,-152 896.5,-152"/>
<polygon fill="none" stroke="#000000" points="896.5,-152 896.5,-173 1006.5,-173 1006.5,-152 896.5,-152"/>
<text text-anchor="start" x="944.5" y="-158.8" font-family="Times,serif" font-size="14.00" fill="#000000">id</text>
<polygon fill="none" stroke="#000000" points="793.5,-131 793.5,-152 824.5,-152 824.5,-131 793.5,-131"/>
<text text-anchor="start" x="804" y="-137.8" font-family="Times,serif" font-size="14.00" fill="#000000">0</text>
<polygon fill="none" stroke="#000000" points="824.5,-131 824.5,-152 858.5,-152 858.5,-131 824.5,-131"/>
<text text-anchor="start" x="836.5" y="-137.8" font-family="Times,serif" font-size="14.00" fill="#000000">4</text>
<polygon fill="none" stroke="#000000" points="858.5,-131 858.5,-152 896.5,-152 896.5,-131 858.5,-131"/>
<text text-anchor="start" x="862" y="-137.8" font-family="Times,serif" font-size="14.00" fill="#000000">u4le</text>
<polygon fill="none" stroke="#000000" points="896.5,-131 896.5,-152 1006.5,-152 1006.5,-131 896.5,-131"/>
<text text-anchor="start" x="906" y="-137.8" font-family="Times,serif" font-size="14.00" fill="#000000">ext_area_ofs</text>
<polygon fill="none" stroke="#000000" points="793.5,-110 793.5,-131 824.5,-131 824.5,-110 793.5,-110"/>
<text text-anchor="start" x="804" y="-116.8" font-family="Times,serif" font-size="14.00" fill="#000000">4</text>
<polygon fill="none" stroke="#000000" points="824.5,-110 824.5,-131 858.5,-131 858.5,-110 824.5,-110"/>
<text text-anchor="start" x="836.5" y="-116.8" font-family="Times,serif" font-size="14.00" fill="#000000">4</text>
<polygon fill="none" stroke="#000000" points="858.5,-110 858.5,-131 896.5,-131 896.5,-110 858.5,-110"/>
<text text-anchor="start" x="862" y="-116.8" font-family="Times,serif" font-size="14.00" fill="#000000">u4le</text>
<polygon fill="none" stroke="#000000" points="896.5,-110 896.5,-131 1006.5,-131 1006.5,-110 896.5,-110"/>
<text text-anchor="start" x="910.5" y="-116.8" font-family="Times,serif" font-size="14.00" fill="#000000">dev_dir_ofs</text>
<polygon fill="none" stroke="#000000" points="793.5,-89 793.5,-110 824.5,-110 824.5,-89 793.5,-89"/>
<text text-anchor="start" x="804" y="-95.8" font-family="Times,serif" font-size="14.00" fill="#000000">8</text>
<polygon fill="none" stroke="#000000" points="824.5,-89 824.5,-110 858.5,-110 858.5,-89 824.5,-89"/>
<text text-anchor="start" x="832" y="-95.8" font-family="Times,serif" font-size="14.00" fill="#000000">18</text>
<polygon fill="none" stroke="#000000" points="858.5,-89 858.5,-110 896.5,-110 896.5,-89 858.5,-89"/>
<polygon fill="none" stroke="#000000" points="896.5,-89 896.5,-110 1006.5,-110 1006.5,-89 896.5,-89"/>
<text text-anchor="start" x="899.5" y="-95.8" font-family="Times,serif" font-size="14.00" fill="#000000">version_magic</text>
</g>
<!-- tga__inst__footer&#45;&gt;tga_footer__seq -->
<g id="edge4" class="edge">
<title>tga__inst__footer:footer_type&#45;&gt;tga_footer__seq</title>
<path fill="none" stroke="#000000" stroke-width="2" d="M611.5,-30C679.3691,-30 751.4226,-55.2855 806.482,-80.5532"/>
<polygon fill="#000000" stroke="#000000" stroke-width="2" points="805.3213,-83.8739 815.863,-84.9334 808.2829,-77.5312 805.3213,-83.8739"/>
</g>
<!-- tga_footer__inst__is_valid -->
<g id="node4" class="node">
<title>tga_footer__inst__is_valid</title>
<polygon fill="#e0ffe0" stroke="transparent" points="1058,-99 1058,-120 1119,-120 1119,-99 1058,-99"/>
<polygon fill="none" stroke="#000000" points="1058,-99 1058,-120 1119,-120 1119,-99 1058,-99"/>
<text text-anchor="start" x="1081.5" y="-105.8" font-family="Times,serif" font-size="14.00" fill="#000000">id</text>
<polygon fill="#e0ffe0" stroke="transparent" points="1119,-99 1119,-120 1816,-120 1816,-99 1119,-99"/>
<polygon fill="none" stroke="#000000" points="1119,-99 1119,-120 1816,-120 1816,-99 1119,-99"/>
<text text-anchor="start" x="1448" y="-105.8" font-family="Times,serif" font-size="14.00" fill="#000000">value</text>
<polygon fill="none" stroke="#000000" points="1058,-78 1058,-99 1119,-99 1119,-78 1058,-78"/>
<text text-anchor="start" x="1061" y="-84.8" font-family="Times,serif" font-size="14.00" fill="#000000">is_valid</text>
<polygon fill="none" stroke="#000000" points="1119,-78 1119,-99 1816,-99 1816,-78 1119,-78"/>
<text text-anchor="start" x="1122" y="-84.8" font-family="Times,serif" font-size="14.00" fill="#000000">version_magic == [84, 82, 85, 69, 86, 73, 83, 73, 79, 78, 45, 88, 70, 73, 76, 69, 46, 0].pack(&#39;C*&#39;)</text>
</g>
<!-- tga_footer__seq&#45;&gt;tga_footer__inst__is_valid -->
<g id="edge5" class="edge">
<title>tga_footer__seq:version_magic_type&#45;&gt;tga_footer__inst__is_valid</title>
<path fill="none" stroke="#404040" d="M1006.5,-99C1017.3723,-99 1028.399,-99 1039.5275,-99"/>
<polygon fill="#404040" stroke="#404040" points="1039.7747,-102.5001 1049.7747,-99 1039.7747,-95.5001 1039.7747,-102.5001"/>
</g>
<!-- tga_footer__inst__ext_area -->
<g id="node5" class="node">
<title>tga_footer__inst__ext_area</title>
<polygon fill="#e0ffe0" stroke="transparent" points="1292,-167 1292,-188 1389,-188 1389,-167 1292,-167"/>
<polygon fill="none" stroke="#000000" points="1292,-167 1292,-188 1389,-188 1389,-167 1292,-167"/>
<text text-anchor="start" x="1328" y="-173.8" font-family="Times,serif" font-size="14.00" fill="#000000">pos</text>
<polygon fill="#e0ffe0" stroke="transparent" points="1389,-167 1389,-188 1423,-188 1423,-167 1389,-167"/>
<polygon fill="none" stroke="#000000" points="1389,-167 1389,-188 1423,-188 1423,-167 1389,-167"/>
<text text-anchor="start" x="1392" y="-173.8" font-family="Times,serif" font-size="14.00" fill="#000000">size</text>
<polygon fill="#e0ffe0" stroke="transparent" points="1423,-167 1423,-188 1515,-188 1515,-167 1423,-167"/>
<polygon fill="none" stroke="#000000" points="1423,-167 1423,-188 1515,-188 1515,-167 1423,-167"/>
<text text-anchor="start" x="1453" y="-173.8" font-family="Times,serif" font-size="14.00" fill="#000000">type</text>
<polygon fill="#e0ffe0" stroke="transparent" points="1515,-167 1515,-188 1583,-188 1583,-167 1515,-167"/>
<polygon fill="none" stroke="#000000" points="1515,-167 1515,-188 1583,-188 1583,-167 1515,-167"/>
<text text-anchor="start" x="1542" y="-173.8" font-family="Times,serif" font-size="14.00" fill="#000000">id</text>
<polygon fill="none" stroke="#000000" points="1292,-146 1292,-167 1389,-167 1389,-146 1292,-146"/>
<text text-anchor="start" x="1295" y="-152.8" font-family="Times,serif" font-size="14.00" fill="#000000">ext_area_ofs</text>
<polygon fill="none" stroke="#000000" points="1389,-146 1389,-167 1423,-167 1423,-146 1389,-146"/>
<text text-anchor="start" x="1392" y="-152.8" font-family="Times,serif" font-size="14.00" fill="#000000">495</text>
<polygon fill="none" stroke="#000000" points="1423,-146 1423,-167 1515,-167 1515,-146 1423,-146"/>
<text text-anchor="start" x="1426" y="-152.8" font-family="Times,serif" font-size="14.00" fill="#000000">TgaExtArea</text>
<polygon fill="none" stroke="#000000" points="1515,-146 1515,-167 1583,-167 1583,-146 1515,-146"/>
<text text-anchor="start" x="1518" y="-152.8" font-family="Times,serif" font-size="14.00" fill="#000000">ext_area</text>
</g>
<!-- tga_footer__seq&#45;&gt;tga_footer__inst__ext_area -->
<g id="edge6" class="edge">
<title>tga_footer__seq:ext_area_ofs_type&#45;&gt;tga_footer__inst__ext_area:ext_area_pos</title>
<path fill="none" stroke="#404040" d="M1006.5,-142C1130.0676,-142 1163.169,-155.2448 1281.7892,-155.9692"/>
<polygon fill="#404040" stroke="#404040" points="1281.9894,-159.4697 1292,-156 1282.0106,-152.4697 1281.9894,-159.4697"/>
</g>
<!-- tga_ext_area__seq -->
<g id="node6" class="node">
<title>tga_ext_area__seq</title>
<polygon fill="#e0ffe0" stroke="transparent" points="1868,-363 1868,-384 1902,-384 1902,-363 1868,-363"/>
<polygon fill="none" stroke="#000000" points="1868,-363 1868,-384 1902,-384 1902,-363 1868,-363"/>
<text text-anchor="start" x="1872.5" y="-369.8" font-family="Times,serif" font-size="14.00" fill="#000000">pos</text>
<polygon fill="#e0ffe0" stroke="transparent" points="1902,-363 1902,-384 1936,-384 1936,-363 1902,-363"/>
<polygon fill="none" stroke="#000000" points="1902,-363 1902,-384 1936,-384 1936,-363 1902,-363"/>
<text text-anchor="start" x="1905" y="-369.8" font-family="Times,serif" font-size="14.00" fill="#000000">size</text>
<polygon fill="#e0ffe0" stroke="transparent" points="1936,-363 1936,-384 2017,-384 2017,-363 1936,-363"/>
<polygon fill="none" stroke="#000000" points="1936,-363 1936,-384 2017,-384 2017,-363 1936,-363"/>
<text text-anchor="start" x="1960.5" y="-369.8" font-family="Times,serif" font-size="14.00" fill="#000000">type</text>
<polygon fill="#e0ffe0" stroke="transparent" points="2017,-363 2017,-384 2160,-384 2160,-363 2017,-363"/>
<polygon fill="none" stroke="#000000" points="2017,-363 2017,-384 2160,-384 2160,-363 2017,-363"/>
<text text-anchor="start" x="2081.5" y="-369.8" font-family="Times,serif" font-size="14.00" fill="#000000">id</text>
<polygon fill="none" stroke="#000000" points="1868,-342 1868,-363 1902,-363 1902,-342 1868,-342"/>
<text text-anchor="start" x="1880" y="-348.8" font-family="Times,serif" font-size="14.00" fill="#000000">0</text>
<polygon fill="none" stroke="#000000" points="1902,-342 1902,-363 1936,-363 1936,-342 1902,-342"/>
<text text-anchor="start" x="1914" y="-348.8" font-family="Times,serif" font-size="14.00" fill="#000000">2</text>
<polygon fill="none" stroke="#000000" points="1936,-342 1936,-363 2017,-363 2017,-342 1936,-342"/>
<text text-anchor="start" x="1961" y="-348.8" font-family="Times,serif" font-size="14.00" fill="#000000">u2le</text>
<polygon fill="none" stroke="#000000" points="2017,-342 2017,-363 2160,-363 2160,-342 2017,-342"/>
<text text-anchor="start" x="2040" y="-348.8" font-family="Times,serif" font-size="14.00" fill="#000000">ext_area_size</text>
<polygon fill="none" stroke="#000000" points="1868,-321 1868,-342 1902,-342 1902,-321 1868,-321"/>
<text text-anchor="start" x="1880" y="-327.8" font-family="Times,serif" font-size="14.00" fill="#000000">2</text>
<polygon fill="none" stroke="#000000" points="1902,-321 1902,-342 1936,-342 1936,-321 1902,-321"/>
<text text-anchor="start" x="1909.5" y="-327.8" font-family="Times,serif" font-size="14.00" fill="#000000">41</text>
<polygon fill="none" stroke="#000000" points="1936,-321 1936,-342 2017,-342 2017,-321 1936,-321"/>
<text text-anchor="start" x="1939" y="-327.8" font-family="Times,serif" font-size="14.00" fill="#000000">str(ASCII)</text>
<polygon fill="none" stroke="#000000" points="2017,-321 2017,-342 2160,-342 2160,-321 2017,-321"/>
<text text-anchor="start" x="2041.5" y="-327.8" font-family="Times,serif" font-size="14.00" fill="#000000">author_name</text>
<polygon fill="none" stroke="#000000" points="1868,-300 1868,-321 1902,-321 1902,-300 1868,-300"/>
<text text-anchor="start" x="1875.5" y="-306.8" font-family="Times,serif" font-size="14.00" fill="#000000">43</text>
<polygon fill="none" stroke="#000000" points="1902,-300 1902,-321 1936,-321 1936,-300 1902,-300"/>
<text text-anchor="start" x="1909.5" y="-306.8" font-family="Times,serif" font-size="14.00" fill="#000000">81</text>
<polygon fill="none" stroke="#000000" points="1936,-300 1936,-321 2017,-321 2017,-300 1936,-300"/>
<text text-anchor="start" x="1939" y="-306.8" font-family="Times,serif" font-size="14.00" fill="#000000">str(ASCII)</text>
<polygon fill="none" stroke="#000000" points="2017,-300 2017,-321 2160,-321 2160,-300 2017,-300"/>
<text text-anchor="start" x="2051" y="-306.8" font-family="Times,serif" font-size="14.00" fill="#000000">comments</text>
<polygon fill="none" stroke="#000000" points="1868,-279 1868,-300 2160,-300 2160,-279 1868,-279"/>
<text text-anchor="start" x="1961.5" y="-285.8" font-family="Times,serif" font-size="14.00" fill="#000000">repeat 4 times</text>
<polygon fill="none" stroke="#000000" points="1868,-258 1868,-279 1902,-279 1902,-258 1868,-258"/>
<text text-anchor="start" x="1871" y="-264.8" font-family="Times,serif" font-size="14.00" fill="#000000">367</text>
<polygon fill="none" stroke="#000000" points="1902,-258 1902,-279 1936,-279 1936,-258 1902,-258"/>
<text text-anchor="start" x="1909.5" y="-264.8" font-family="Times,serif" font-size="14.00" fill="#000000">12</text>
<polygon fill="none" stroke="#000000" points="1936,-258 1936,-279 2017,-279 2017,-258 1936,-258"/>
<polygon fill="none" stroke="#000000" points="2017,-258 2017,-279 2160,-279 2160,-258 2017,-258"/>
<text text-anchor="start" x="2050" y="-264.8" font-family="Times,serif" font-size="14.00" fill="#000000">timestamp</text>
<polygon fill="none" stroke="#000000" points="1868,-237 1868,-258 1902,-258 1902,-237 1868,-237"/>
<text text-anchor="start" x="1871" y="-243.8" font-family="Times,serif" font-size="14.00" fill="#000000">379</text>
<polygon fill="none" stroke="#000000" points="1902,-237 1902,-258 1936,-258 1936,-237 1902,-237"/>
<text text-anchor="start" x="1909.5" y="-243.8" font-family="Times,serif" font-size="14.00" fill="#000000">41</text>
<polygon fill="none" stroke="#000000" points="1936,-237 1936,-258 2017,-258 2017,-237 1936,-237"/>
<text text-anchor="start" x="1939" y="-243.8" font-family="Times,serif" font-size="14.00" fill="#000000">str(ASCII)</text>
<polygon fill="none" stroke="#000000" points="2017,-237 2017,-258 2160,-258 2160,-237 2017,-237"/>
<text text-anchor="start" x="2067" y="-243.8" font-family="Times,serif" font-size="14.00" fill="#000000">job_id</text>
<polygon fill="none" stroke="#000000" points="1868,-216 1868,-237 1902,-237 1902,-216 1868,-216"/>
<text text-anchor="start" x="1871" y="-222.8" font-family="Times,serif" font-size="14.00" fill="#000000">420</text>
<polygon fill="none" stroke="#000000" points="1902,-216 1902,-237 1936,-237 1936,-216 1902,-216"/>
<text text-anchor="start" x="1914" y="-222.8" font-family="Times,serif" font-size="14.00" fill="#000000">6</text>
<polygon fill="none" stroke="#000000" points="1936,-216 1936,-237 2017,-237 2017,-216 1936,-216"/>
<text text-anchor="start" x="1939" y="-222.8" font-family="Times,serif" font-size="14.00" fill="#000000">str(ASCII)</text>
<polygon fill="none" stroke="#000000" points="2017,-216 2017,-237 2160,-237 2160,-216 2017,-216"/>
<text text-anchor="start" x="2057.5" y="-222.8" font-family="Times,serif" font-size="14.00" fill="#000000">job_time</text>
<polygon fill="none" stroke="#000000" points="1868,-195 1868,-216 1902,-216 1902,-195 1868,-195"/>
<text text-anchor="start" x="1871" y="-201.8" font-family="Times,serif" font-size="14.00" fill="#000000">426</text>
<polygon fill="none" stroke="#000000" points="1902,-195 1902,-216 1936,-216 1936,-195 1902,-195"/>
<text text-anchor="start" x="1909.5" y="-201.8" font-family="Times,serif" font-size="14.00" fill="#000000">41</text>
<polygon fill="none" stroke="#000000" points="1936,-195 1936,-216 2017,-216 2017,-195 1936,-195"/>
<text text-anchor="start" x="1939" y="-201.8" font-family="Times,serif" font-size="14.00" fill="#000000">str(ASCII)</text>
<polygon fill="none" stroke="#000000" points="2017,-195 2017,-216 2160,-216 2160,-195 2017,-195"/>
<text text-anchor="start" x="2046.5" y="-201.8" font-family="Times,serif" font-size="14.00" fill="#000000">software_id</text>
<polygon fill="none" stroke="#000000" points="1868,-174 1868,-195 1902,-195 1902,-174 1868,-174"/>
<text text-anchor="start" x="1871" y="-180.8" font-family="Times,serif" font-size="14.00" fill="#000000">467</text>
<polygon fill="none" stroke="#000000" points="1902,-174 1902,-195 1936,-195 1936,-174 1902,-174"/>
<text text-anchor="start" x="1914" y="-180.8" font-family="Times,serif" font-size="14.00" fill="#000000">3</text>
<polygon fill="none" stroke="#000000" points="1936,-174 1936,-195 2017,-195 2017,-174 1936,-174"/>
<polygon fill="none" stroke="#000000" points="2017,-174 2017,-195 2160,-195 2160,-174 2017,-174"/>
<text text-anchor="start" x="2027" y="-180.8" font-family="Times,serif" font-size="14.00" fill="#000000">software_version</text>
<polygon fill="none" stroke="#000000" points="1868,-153 1868,-174 1902,-174 1902,-153 1868,-153"/>
<text text-anchor="start" x="1871" y="-159.8" font-family="Times,serif" font-size="14.00" fill="#000000">470</text>
<polygon fill="none" stroke="#000000" points="1902,-153 1902,-174 1936,-174 1936,-153 1902,-153"/>
<text text-anchor="start" x="1914" y="-159.8" font-family="Times,serif" font-size="14.00" fill="#000000">4</text>
<polygon fill="none" stroke="#000000" points="1936,-153 1936,-174 2017,-174 2017,-153 1936,-153"/>
<text text-anchor="start" x="1961" y="-159.8" font-family="Times,serif" font-size="14.00" fill="#000000">u4le</text>
<polygon fill="none" stroke="#000000" points="2017,-153 2017,-174 2160,-174 2160,-153 2017,-153"/>
<text text-anchor="start" x="2053.5" y="-159.8" font-family="Times,serif" font-size="14.00" fill="#000000">key_color</text>
<polygon fill="none" stroke="#000000" points="1868,-132 1868,-153 1902,-153 1902,-132 1868,-132"/>
<text text-anchor="start" x="1871" y="-138.8" font-family="Times,serif" font-size="14.00" fill="#000000">474</text>
<polygon fill="none" stroke="#000000" points="1902,-132 1902,-153 1936,-153 1936,-132 1902,-132"/>
<text text-anchor="start" x="1914" y="-138.8" font-family="Times,serif" font-size="14.00" fill="#000000">4</text>
<polygon fill="none" stroke="#000000" points="1936,-132 1936,-153 2017,-153 2017,-132 1936,-132"/>
<text text-anchor="start" x="1961" y="-138.8" font-family="Times,serif" font-size="14.00" fill="#000000">u4le</text>
<polygon fill="none" stroke="#000000" points="2017,-132 2017,-153 2160,-153 2160,-132 2017,-132"/>
<text text-anchor="start" x="2023" y="-138.8" font-family="Times,serif" font-size="14.00" fill="#000000">pixel_aspect_ratio</text>
<polygon fill="none" stroke="#000000" points="1868,-111 1868,-132 1902,-132 1902,-111 1868,-111"/>
<text text-anchor="start" x="1871" y="-117.8" font-family="Times,serif" font-size="14.00" fill="#000000">478</text>
<polygon fill="none" stroke="#000000" points="1902,-111 1902,-132 1936,-132 1936,-111 1902,-111"/>
<text text-anchor="start" x="1914" y="-117.8" font-family="Times,serif" font-size="14.00" fill="#000000">4</text>
<polygon fill="none" stroke="#000000" points="1936,-111 1936,-132 2017,-132 2017,-111 1936,-111"/>
<text text-anchor="start" x="1961" y="-117.8" font-family="Times,serif" font-size="14.00" fill="#000000">u4le</text>
<polygon fill="none" stroke="#000000" points="2017,-111 2017,-132 2160,-132 2160,-111 2017,-111"/>
<text text-anchor="start" x="2039" y="-117.8" font-family="Times,serif" font-size="14.00" fill="#000000">gamma_value</text>
<polygon fill="none" stroke="#000000" points="1868,-90 1868,-111 1902,-111 1902,-90 1868,-90"/>
<text text-anchor="start" x="1871" y="-96.8" font-family="Times,serif" font-size="14.00" fill="#000000">482</text>
<polygon fill="none" stroke="#000000" points="1902,-90 1902,-111 1936,-111 1936,-90 1902,-90"/>
<text text-anchor="start" x="1914" y="-96.8" font-family="Times,serif" font-size="14.00" fill="#000000">4</text>
<polygon fill="none" stroke="#000000" points="1936,-90 1936,-111 2017,-111 2017,-90 1936,-90"/>
<text text-anchor="start" x="1961" y="-96.8" font-family="Times,serif" font-size="14.00" fill="#000000">u4le</text>
<polygon fill="none" stroke="#000000" points="2017,-90 2017,-111 2160,-111 2160,-90 2017,-90"/>
<text text-anchor="start" x="2037" y="-96.8" font-family="Times,serif" font-size="14.00" fill="#000000">color_corr_ofs</text>
<polygon fill="none" stroke="#000000" points="1868,-69 1868,-90 1902,-90 1902,-69 1868,-69"/>
<text text-anchor="start" x="1871" y="-75.8" font-family="Times,serif" font-size="14.00" fill="#000000">486</text>
<polygon fill="none" stroke="#000000" points="1902,-69 1902,-90 1936,-90 1936,-69 1902,-69"/>
<text text-anchor="start" x="1914" y="-75.8" font-family="Times,serif" font-size="14.00" fill="#000000">4</text>
<polygon fill="none" stroke="#000000" points="1936,-69 1936,-90 2017,-90 2017,-69 1936,-69"/>
<text text-anchor="start" x="1961" y="-75.8" font-family="Times,serif" font-size="14.00" fill="#000000">u4le</text>
<polygon fill="none" stroke="#000000" points="2017,-69 2017,-90 2160,-90 2160,-69 2017,-69"/>
<text text-anchor="start" x="2020" y="-75.8" font-family="Times,serif" font-size="14.00" fill="#000000">postage_stamp_ofs</text>
<polygon fill="none" stroke="#000000" points="1868,-48 1868,-69 1902,-69 1902,-48 1868,-48"/>
<text text-anchor="start" x="1871" y="-54.8" font-family="Times,serif" font-size="14.00" fill="#000000">490</text>
<polygon fill="none" stroke="#000000" points="1902,-48 1902,-69 1936,-69 1936,-48 1902,-48"/>
<text text-anchor="start" x="1914" y="-54.8" font-family="Times,serif" font-size="14.00" fill="#000000">4</text>
<polygon fill="none" stroke="#000000" points="1936,-48 1936,-69 2017,-69 2017,-48 1936,-48"/>
<text text-anchor="start" x="1961" y="-54.8" font-family="Times,serif" font-size="14.00" fill="#000000">u4le</text>
<polygon fill="none" stroke="#000000" points="2017,-48 2017,-69 2160,-69 2160,-48 2017,-48"/>
<text text-anchor="start" x="2040.5" y="-54.8" font-family="Times,serif" font-size="14.00" fill="#000000">scan_line_ofs</text>
<polygon fill="none" stroke="#000000" points="1868,-27 1868,-48 1902,-48 1902,-27 1868,-27"/>
<text text-anchor="start" x="1871" y="-33.8" font-family="Times,serif" font-size="14.00" fill="#000000">494</text>
<polygon fill="none" stroke="#000000" points="1902,-27 1902,-48 1936,-48 1936,-27 1902,-27"/>
<text text-anchor="start" x="1914" y="-33.8" font-family="Times,serif" font-size="14.00" fill="#000000">1</text>
<polygon fill="none" stroke="#000000" points="1936,-27 1936,-48 2017,-48 2017,-27 1936,-27"/>
<text text-anchor="start" x="1967" y="-33.8" font-family="Times,serif" font-size="14.00" fill="#000000">u1</text>
<polygon fill="none" stroke="#000000" points="2017,-27 2017,-48 2160,-48 2160,-27 2017,-27"/>
<text text-anchor="start" x="2052.5" y="-33.8" font-family="Times,serif" font-size="14.00" fill="#000000">attributes</text>
</g>
<!-- tga_footer__inst__ext_area&#45;&gt;tga_ext_area__seq -->
<g id="edge7" class="edge">
<title>tga_footer__inst__ext_area:ext_area_type&#45;&gt;tga_ext_area__seq</title>
<path fill="none" stroke="#000000" stroke-width="2" d="M1583,-156C1671.4923,-156 1769.5279,-166.529 1849.7135,-177.9236"/>
<polygon fill="#000000" stroke="#000000" stroke-width="2" points="1849.5055,-181.4297 1859.902,-179.3897 1850.5025,-174.501 1849.5055,-181.4297"/>
</g>
</g>
</svg>
