<?xml version="1.0" encoding="UTF-8" standalone="no"?>
<!DOCTYPE svg PUBLIC "-//W3C//DTD SVG 1.1//EN"
 "http://www.w3.org/Graphics/SVG/1.1/DTD/svg11.dtd">
<!-- Generated by graphviz version 2.38.0 (20140413.2041)
 -->
<!-- Title: %3 Pages: 1 -->
<svg width="1784pt" height="511pt"
 viewBox="0.00 0.00 1784.00 511.00" xmlns="http://www.w3.org/2000/svg" xmlns:xlink="http://www.w3.org/1999/xlink">
<g id="graph0" class="graph" transform="scale(1 1) rotate(0) translate(4 507)">
<title>%3</title>
<polygon fill="white" stroke="none" points="-4,4 -4,-507 1780,-507 1780,4 -4,4"/>
<g id="clust1" class="cluster"><title>cluster__tga</title>
<polygon fill="none" stroke="black" stroke-dasharray="1,5" points="164,-8 164,-495 1768,-495 1768,-8 164,-8"/>
<text text-anchor="middle" x="966" y="-479.8" font-family="Times,serif" font-size="14.00">Tga</text>
</g>
<g id="clust2" class="cluster"><title>cluster__tga_footer</title>
<polygon fill="none" stroke="black" stroke-dasharray="1,5" points="633,-66 633,-223 1478,-223 1478,-66 633,-66"/>
<text text-anchor="middle" x="1055.5" y="-207.8" font-family="Times,serif" font-size="14.00">Tga::TgaFooter</text>
</g>
<g id="clust3" class="cluster"><title>cluster__tga_ext_area</title>
<polygon fill="none" stroke="black" stroke-dasharray="1,5" points="1498,-16 1498,-419 1760,-419 1760,-16 1498,-16"/>
<text text-anchor="middle" x="1629" y="-403.8" font-family="Times,serif" font-size="14.00">Tga::TgaExtArea</text>
</g>
<!-- tga__seq -->
<g id="node1" class="node"><title>tga__seq</title>
<polygon fill="#e0ffe0" stroke="none" points="180.5,-403 180.5,-424 205.5,-424 205.5,-403 180.5,-403"/>
<polygon fill="none" stroke="black" points="180.5,-403 180.5,-424 205.5,-424 205.5,-403 180.5,-403"/>
<text text-anchor="start" x="183.5" y="-409.8" font-family="Times,serif" font-size="14.00">pos</text>
<polygon fill="#e0ffe0" stroke="none" points="205.5,-403 205.5,-424 365.5,-424 365.5,-403 205.5,-403"/>
<polygon fill="none" stroke="black" points="205.5,-403 205.5,-424 365.5,-424 365.5,-403 205.5,-403"/>
<text text-anchor="start" x="274.5" y="-409.8" font-family="Times,serif" font-size="14.00">size</text>
<polygon fill="#e0ffe0" stroke="none" points="365.5,-403 365.5,-424 495.5,-424 495.5,-403 365.5,-403"/>
<polygon fill="none" stroke="black" points="365.5,-403 365.5,-424 495.5,-424 495.5,-403 365.5,-403"/>
<text text-anchor="start" x="418.5" y="-409.8" font-family="Times,serif" font-size="14.00">type</text>
<polygon fill="#e0ffe0" stroke="none" points="495.5,-403 495.5,-424 597.5,-424 597.5,-403 495.5,-403"/>
<polygon fill="none" stroke="black" points="495.5,-403 495.5,-424 597.5,-424 597.5,-403 495.5,-403"/>
<text text-anchor="start" x="541" y="-409.8" font-family="Times,serif" font-size="14.00">id</text>
<polygon fill="none" stroke="black" points="180.5,-382 180.5,-403 205.5,-403 205.5,-382 180.5,-382"/>
<text text-anchor="start" x="189.5" y="-388.8" font-family="Times,serif" font-size="14.00">0</text>
<polygon fill="none" stroke="black" points="205.5,-382 205.5,-403 365.5,-403 365.5,-382 205.5,-382"/>
<text text-anchor="start" x="282" y="-388.8" font-family="Times,serif" font-size="14.00">1</text>
<polygon fill="none" stroke="black" points="365.5,-382 365.5,-403 495.5,-403 495.5,-382 365.5,-382"/>
<text text-anchor="start" x="423.5" y="-388.8" font-family="Times,serif" font-size="14.00">u1</text>
<polygon fill="none" stroke="black" points="495.5,-382 495.5,-403 597.5,-403 597.5,-382 495.5,-382"/>
<text text-anchor="start" x="509" y="-388.8" font-family="Times,serif" font-size="14.00">image_id_len</text>
<polygon fill="none" stroke="black" points="180.5,-361 180.5,-382 205.5,-382 205.5,-361 180.5,-361"/>
<text text-anchor="start" x="189.5" y="-367.8" font-family="Times,serif" font-size="14.00">1</text>
<polygon fill="none" stroke="black" points="205.5,-361 205.5,-382 365.5,-382 365.5,-361 205.5,-361"/>
<text text-anchor="start" x="282" y="-367.8" font-family="Times,serif" font-size="14.00">1</text>
<polygon fill="none" stroke="black" points="365.5,-361 365.5,-382 495.5,-382 495.5,-361 365.5,-361"/>
<text text-anchor="start" x="371.5" y="-367.8" font-family="Times,serif" font-size="14.00">u1→ColorMapEnum</text>
<polygon fill="none" stroke="black" points="495.5,-361 495.5,-382 597.5,-382 597.5,-361 495.5,-361"/>
<text text-anchor="start" x="502" y="-367.8" font-family="Times,serif" font-size="14.00">color_map_type</text>
<polygon fill="none" stroke="black" points="180.5,-340 180.5,-361 205.5,-361 205.5,-340 180.5,-340"/>
<text text-anchor="start" x="189.5" y="-346.8" font-family="Times,serif" font-size="14.00">2</text>
<polygon fill="none" stroke="black" points="205.5,-340 205.5,-361 365.5,-361 365.5,-340 205.5,-340"/>
<text text-anchor="start" x="282" y="-346.8" font-family="Times,serif" font-size="14.00">1</text>
<polygon fill="none" stroke="black" points="365.5,-340 365.5,-361 495.5,-361 495.5,-340 365.5,-340"/>
<text text-anchor="start" x="368.5" y="-346.8" font-family="Times,serif" font-size="14.00">u1→ImageTypeEnum</text>
<polygon fill="none" stroke="black" points="495.5,-340 495.5,-361 597.5,-361 597.5,-340 495.5,-340"/>
<text text-anchor="start" x="514.5" y="-346.8" font-family="Times,serif" font-size="14.00">image_type</text>
<polygon fill="none" stroke="black" points="180.5,-319 180.5,-340 205.5,-340 205.5,-319 180.5,-319"/>
<text text-anchor="start" x="189.5" y="-325.8" font-family="Times,serif" font-size="14.00">3</text>
<polygon fill="none" stroke="black" points="205.5,-319 205.5,-340 365.5,-340 365.5,-319 205.5,-319"/>
<text text-anchor="start" x="282" y="-325.8" font-family="Times,serif" font-size="14.00">2</text>
<polygon fill="none" stroke="black" points="365.5,-319 365.5,-340 495.5,-340 495.5,-319 365.5,-319"/>
<text text-anchor="start" x="418.5" y="-325.8" font-family="Times,serif" font-size="14.00">u2le</text>
<polygon fill="none" stroke="black" points="495.5,-319 495.5,-340 597.5,-340 597.5,-319 495.5,-319"/>
<text text-anchor="start" x="505.5" y="-325.8" font-family="Times,serif" font-size="14.00">color_map_ofs</text>
<polygon fill="none" stroke="black" points="180.5,-298 180.5,-319 205.5,-319 205.5,-298 180.5,-298"/>
<text text-anchor="start" x="189.5" y="-304.8" font-family="Times,serif" font-size="14.00">5</text>
<polygon fill="none" stroke="black" points="205.5,-298 205.5,-319 365.5,-319 365.5,-298 205.5,-298"/>
<text text-anchor="start" x="282" y="-304.8" font-family="Times,serif" font-size="14.00">2</text>
<polygon fill="none" stroke="black" points="365.5,-298 365.5,-319 495.5,-319 495.5,-298 365.5,-298"/>
<text text-anchor="start" x="418.5" y="-304.8" font-family="Times,serif" font-size="14.00">u2le</text>
<polygon fill="none" stroke="black" points="495.5,-298 495.5,-319 597.5,-319 597.5,-298 495.5,-298"/>
<text text-anchor="start" x="501" y="-304.8" font-family="Times,serif" font-size="14.00">num_color_map</text>
<polygon fill="none" stroke="black" points="180.5,-277 180.5,-298 205.5,-298 205.5,-277 180.5,-277"/>
<text text-anchor="start" x="189.5" y="-283.8" font-family="Times,serif" font-size="14.00">7</text>
<polygon fill="none" stroke="black" points="205.5,-277 205.5,-298 365.5,-298 365.5,-277 205.5,-277"/>
<text text-anchor="start" x="282" y="-283.8" font-family="Times,serif" font-size="14.00">1</text>
<polygon fill="none" stroke="black" points="365.5,-277 365.5,-298 495.5,-298 495.5,-277 365.5,-277"/>
<text text-anchor="start" x="423.5" y="-283.8" font-family="Times,serif" font-size="14.00">u1</text>
<polygon fill="none" stroke="black" points="495.5,-277 495.5,-298 597.5,-298 597.5,-277 495.5,-277"/>
<text text-anchor="start" x="498.5" y="-283.8" font-family="Times,serif" font-size="14.00">color_map_depth</text>
<polygon fill="none" stroke="black" points="180.5,-256 180.5,-277 205.5,-277 205.5,-256 180.5,-256"/>
<text text-anchor="start" x="189.5" y="-262.8" font-family="Times,serif" font-size="14.00">8</text>
<polygon fill="none" stroke="black" points="205.5,-256 205.5,-277 365.5,-277 365.5,-256 205.5,-256"/>
<text text-anchor="start" x="282" y="-262.8" font-family="Times,serif" font-size="14.00">2</text>
<polygon fill="none" stroke="black" points="365.5,-256 365.5,-277 495.5,-277 495.5,-256 365.5,-256"/>
<text text-anchor="start" x="418.5" y="-262.8" font-family="Times,serif" font-size="14.00">u2le</text>
<polygon fill="none" stroke="black" points="495.5,-256 495.5,-277 597.5,-277 597.5,-256 495.5,-256"/>
<text text-anchor="start" x="524" y="-262.8" font-family="Times,serif" font-size="14.00">x_offset</text>
<polygon fill="none" stroke="black" points="180.5,-235 180.5,-256 205.5,-256 205.5,-235 180.5,-235"/>
<text text-anchor="start" x="186" y="-241.8" font-family="Times,serif" font-size="14.00">10</text>
<polygon fill="none" stroke="black" points="205.5,-235 205.5,-256 365.5,-256 365.5,-235 205.5,-235"/>
<text text-anchor="start" x="282" y="-241.8" font-family="Times,serif" font-size="14.00">2</text>
<polygon fill="none" stroke="black" points="365.5,-235 365.5,-256 495.5,-256 495.5,-235 365.5,-235"/>
<text text-anchor="start" x="418.5" y="-241.8" font-family="Times,serif" font-size="14.00">u2le</text>
<polygon fill="none" stroke="black" points="495.5,-235 495.5,-256 597.5,-256 597.5,-235 495.5,-235"/>
<text text-anchor="start" x="524" y="-241.8" font-family="Times,serif" font-size="14.00">y_offset</text>
<polygon fill="none" stroke="black" points="180.5,-214 180.5,-235 205.5,-235 205.5,-214 180.5,-214"/>
<text text-anchor="start" x="186" y="-220.8" font-family="Times,serif" font-size="14.00">12</text>
<polygon fill="none" stroke="black" points="205.5,-214 205.5,-235 365.5,-235 365.5,-214 205.5,-214"/>
<text text-anchor="start" x="282" y="-220.8" font-family="Times,serif" font-size="14.00">2</text>
<polygon fill="none" stroke="black" points="365.5,-214 365.5,-235 495.5,-235 495.5,-214 365.5,-214"/>
<text text-anchor="start" x="418.5" y="-220.8" font-family="Times,serif" font-size="14.00">u2le</text>
<polygon fill="none" stroke="black" points="495.5,-214 495.5,-235 597.5,-235 597.5,-214 495.5,-214"/>
<text text-anchor="start" x="531" y="-220.8" font-family="Times,serif" font-size="14.00">width</text>
<polygon fill="none" stroke="black" points="180.5,-193 180.5,-214 205.5,-214 205.5,-193 180.5,-193"/>
<text text-anchor="start" x="186" y="-199.8" font-family="Times,serif" font-size="14.00">14</text>
<polygon fill="none" stroke="black" points="205.5,-193 205.5,-214 365.5,-214 365.5,-193 205.5,-193"/>
<text text-anchor="start" x="282" y="-199.8" font-family="Times,serif" font-size="14.00">2</text>
<polygon fill="none" stroke="black" points="365.5,-193 365.5,-214 495.5,-214 495.5,-193 365.5,-193"/>
<text text-anchor="start" x="418.5" y="-199.8" font-family="Times,serif" font-size="14.00">u2le</text>
<polygon fill="none" stroke="black" points="495.5,-193 495.5,-214 597.5,-214 597.5,-193 495.5,-193"/>
<text text-anchor="start" x="529.5" y="-199.8" font-family="Times,serif" font-size="14.00">height</text>
<polygon fill="none" stroke="black" points="180.5,-172 180.5,-193 205.5,-193 205.5,-172 180.5,-172"/>
<text text-anchor="start" x="186" y="-178.8" font-family="Times,serif" font-size="14.00">16</text>
<polygon fill="none" stroke="black" points="205.5,-172 205.5,-193 365.5,-193 365.5,-172 205.5,-172"/>
<text text-anchor="start" x="282" y="-178.8" font-family="Times,serif" font-size="14.00">1</text>
<polygon fill="none" stroke="black" points="365.5,-172 365.5,-193 495.5,-193 495.5,-172 365.5,-172"/>
<text text-anchor="start" x="423.5" y="-178.8" font-family="Times,serif" font-size="14.00">u1</text>
<polygon fill="none" stroke="black" points="495.5,-172 495.5,-193 597.5,-193 597.5,-172 495.5,-172"/>
<text text-anchor="start" x="511" y="-178.8" font-family="Times,serif" font-size="14.00">image_depth</text>
<polygon fill="none" stroke="black" points="180.5,-151 180.5,-172 205.5,-172 205.5,-151 180.5,-151"/>
<text text-anchor="start" x="186" y="-157.8" font-family="Times,serif" font-size="14.00">17</text>
<polygon fill="none" stroke="black" points="205.5,-151 205.5,-172 365.5,-172 365.5,-151 205.5,-151"/>
<text text-anchor="start" x="282" y="-157.8" font-family="Times,serif" font-size="14.00">1</text>
<polygon fill="none" stroke="black" points="365.5,-151 365.5,-172 495.5,-172 495.5,-151 365.5,-151"/>
<text text-anchor="start" x="423.5" y="-157.8" font-family="Times,serif" font-size="14.00">u1</text>
<polygon fill="none" stroke="black" points="495.5,-151 495.5,-172 597.5,-172 597.5,-151 495.5,-151"/>
<text text-anchor="start" x="505" y="-157.8" font-family="Times,serif" font-size="14.00">img_descriptor</text>
<polygon fill="none" stroke="black" points="180.5,-130 180.5,-151 205.5,-151 205.5,-130 180.5,-130"/>
<text text-anchor="start" x="186" y="-136.8" font-family="Times,serif" font-size="14.00">18</text>
<polygon fill="none" stroke="black" points="205.5,-130 205.5,-151 365.5,-151 365.5,-130 205.5,-130"/>
<text text-anchor="start" x="248" y="-136.8" font-family="Times,serif" font-size="14.00">image_id_len</text>
<polygon fill="none" stroke="black" points="365.5,-130 365.5,-151 495.5,-151 495.5,-130 365.5,-130"/>
<polygon fill="none" stroke="black" points="495.5,-130 495.5,-151 597.5,-151 597.5,-130 495.5,-130"/>
<text text-anchor="start" x="520.5" y="-136.8" font-family="Times,serif" font-size="14.00">image_id</text>
<polygon fill="none" stroke="black" points="180.5,-109 180.5,-130 205.5,-130 205.5,-109 180.5,-109"/>
<text text-anchor="start" x="187" y="-115.8" font-family="Times,serif" font-size="14.00">...</text>
<polygon fill="none" stroke="black" points="205.5,-109 205.5,-130 365.5,-130 365.5,-109 205.5,-109"/>
<text text-anchor="start" x="208.5" y="-115.8" font-family="Times,serif" font-size="14.00">((color_map_depth + 7) / 8)</text>
<polygon fill="none" stroke="black" points="365.5,-109 365.5,-130 495.5,-130 495.5,-109 365.5,-109"/>
<polygon fill="none" stroke="black" points="495.5,-109 495.5,-130 597.5,-130 597.5,-109 495.5,-109"/>
<text text-anchor="start" x="517" y="-115.8" font-family="Times,serif" font-size="14.00">color_map</text>
<polygon fill="none" stroke="black" points="180.5,-88 180.5,-109 597.5,-109 597.5,-88 180.5,-88"/>
<text text-anchor="start" x="308.5" y="-94.8" font-family="Times,serif" font-size="14.00">repeat num_color_map times</text>
</g>
<!-- tga__seq&#45;&gt;tga__seq -->
<g id="edge1" class="edge"><title>tga__seq:image_id_len_type&#45;&gt;tga__seq:image_id_size</title>
<path fill="none" stroke="#404040" d="M567.094,-403.15C630.828,-436.017 613.472,-446 416,-446 217.326,-446 200.968,-241.649 266.079,-159.056"/>
<polygon fill="#404040" stroke="#404040" points="268.754,-161.314 272.631,-151.454 263.451,-156.743 268.754,-161.314"/>
</g>
<!-- tga__seq&#45;&gt;tga__seq -->
<g id="edge2" class="edge"><title>tga__seq:color_map_depth_type&#45;&gt;tga__seq:color_map_size</title>
<path fill="none" stroke="#404040" d="M559.369,-298.262C631.898,-361.054 621.083,-446 416,-446 216.916,-446 200.901,-223.048 266.483,-137.932"/>
<polygon fill="#404040" stroke="#404040" points="269.291,-140.031 273.081,-130.137 263.949,-135.509 269.291,-140.031"/>
</g>
<!-- tga__seq&#45;&gt;tga__seq -->
<g id="edge3" class="edge"><title>tga__seq:num_color_map_type&#45;&gt;tga__seq:color_map__repeat</title>
<path fill="none" stroke="#404040" d="M495.419,-311.467C331.859,-316.667 0,-305.644 0,-203.5 0,-140.711 78.1868,-112.354 170.164,-101.031"/>
<polygon fill="#404040" stroke="#404040" points="170.739,-104.488 180.27,-99.8605 169.934,-97.5346 170.739,-104.488"/>
</g>
<!-- tga__inst__footer -->
<g id="node2" class="node"><title>tga__inst__footer</title>
<polygon fill="#e0ffe0" stroke="none" points="282.5,-41 282.5,-62 365.5,-62 365.5,-41 282.5,-41"/>
<polygon fill="none" stroke="black" points="282.5,-41 282.5,-62 365.5,-62 365.5,-41 282.5,-41"/>
<text text-anchor="start" x="314.5" y="-47.8" font-family="Times,serif" font-size="14.00">pos</text>
<polygon fill="#e0ffe0" stroke="none" points="365.5,-41 365.5,-62 393.5,-62 393.5,-41 365.5,-41"/>
<polygon fill="none" stroke="black" points="365.5,-41 365.5,-62 393.5,-62 393.5,-41 365.5,-41"/>
<text text-anchor="start" x="368.5" y="-47.8" font-family="Times,serif" font-size="14.00">size</text>
<polygon fill="#e0ffe0" stroke="none" points="393.5,-41 393.5,-62 456.5,-62 456.5,-41 393.5,-41"/>
<polygon fill="none" stroke="black" points="393.5,-41 393.5,-62 456.5,-62 456.5,-41 393.5,-41"/>
<text text-anchor="start" x="413" y="-47.8" font-family="Times,serif" font-size="14.00">type</text>
<polygon fill="#e0ffe0" stroke="none" points="456.5,-41 456.5,-62 495.5,-62 495.5,-41 456.5,-41"/>
<polygon fill="none" stroke="black" points="456.5,-41 456.5,-62 495.5,-62 495.5,-41 456.5,-41"/>
<text text-anchor="start" x="470.5" y="-47.8" font-family="Times,serif" font-size="14.00">id</text>
<polygon fill="none" stroke="black" points="282.5,-20 282.5,-41 365.5,-41 365.5,-20 282.5,-20"/>
<text text-anchor="start" x="285.5" y="-26.8" font-family="Times,serif" font-size="14.00">(_io.size &#45; 26)</text>
<polygon fill="none" stroke="black" points="365.5,-20 365.5,-41 393.5,-41 393.5,-20 365.5,-20"/>
<text text-anchor="start" x="373.5" y="-26.8" font-family="Times,serif" font-size="14.00">...</text>
<polygon fill="none" stroke="black" points="393.5,-20 393.5,-41 456.5,-41 456.5,-20 393.5,-20"/>
<text text-anchor="start" x="396.5" y="-26.8" font-family="Times,serif" font-size="14.00">TgaFooter</text>
<polygon fill="none" stroke="black" points="456.5,-20 456.5,-41 495.5,-41 495.5,-20 456.5,-20"/>
<text text-anchor="start" x="459.5" y="-26.8" font-family="Times,serif" font-size="14.00">footer</text>
</g>
<!-- tga_footer__seq -->
<g id="node3" class="node"><title>tga_footer__seq</title>
<polygon fill="#e0ffe0" stroke="none" points="649,-152 649,-173 674,-173 674,-152 649,-152"/>
<polygon fill="none" stroke="black" points="649,-152 649,-173 674,-173 674,-152 649,-152"/>
<text text-anchor="start" x="652" y="-158.8" font-family="Times,serif" font-size="14.00">pos</text>
<polygon fill="#e0ffe0" stroke="none" points="674,-152 674,-173 702,-173 702,-152 674,-152"/>
<polygon fill="none" stroke="black" points="674,-152 674,-173 702,-173 702,-152 674,-152"/>
<text text-anchor="start" x="677" y="-158.8" font-family="Times,serif" font-size="14.00">size</text>
<polygon fill="#e0ffe0" stroke="none" points="702,-152 702,-173 732,-173 732,-152 702,-152"/>
<polygon fill="none" stroke="black" points="702,-152 702,-173 732,-173 732,-152 702,-152"/>
<text text-anchor="start" x="705" y="-158.8" font-family="Times,serif" font-size="14.00">type</text>
<polygon fill="#e0ffe0" stroke="none" points="732,-152 732,-173 819,-173 819,-152 732,-152"/>
<polygon fill="none" stroke="black" points="732,-152 732,-173 819,-173 819,-152 732,-152"/>
<text text-anchor="start" x="770" y="-158.8" font-family="Times,serif" font-size="14.00">id</text>
<polygon fill="none" stroke="black" points="649,-131 649,-152 674,-152 674,-131 649,-131"/>
<text text-anchor="start" x="658" y="-137.8" font-family="Times,serif" font-size="14.00">0</text>
<polygon fill="none" stroke="black" points="674,-131 674,-152 702,-152 702,-131 674,-131"/>
<text text-anchor="start" x="684.5" y="-137.8" font-family="Times,serif" font-size="14.00">4</text>
<polygon fill="none" stroke="black" points="702,-131 702,-152 732,-152 732,-131 702,-131"/>
<text text-anchor="start" x="705" y="-137.8" font-family="Times,serif" font-size="14.00">u4le</text>
<polygon fill="none" stroke="black" points="732,-131 732,-152 819,-152 819,-131 732,-131"/>
<text text-anchor="start" x="740.5" y="-137.8" font-family="Times,serif" font-size="14.00">ext_area_ofs</text>
<polygon fill="none" stroke="black" points="649,-110 649,-131 674,-131 674,-110 649,-110"/>
<text text-anchor="start" x="658" y="-116.8" font-family="Times,serif" font-size="14.00">4</text>
<polygon fill="none" stroke="black" points="674,-110 674,-131 702,-131 702,-110 674,-110"/>
<text text-anchor="start" x="684.5" y="-116.8" font-family="Times,serif" font-size="14.00">4</text>
<polygon fill="none" stroke="black" points="702,-110 702,-131 732,-131 732,-110 702,-110"/>
<text text-anchor="start" x="705" y="-116.8" font-family="Times,serif" font-size="14.00">u4le</text>
<polygon fill="none" stroke="black" points="732,-110 732,-131 819,-131 819,-110 732,-110"/>
<text text-anchor="start" x="743" y="-116.8" font-family="Times,serif" font-size="14.00">dev_dir_ofs</text>
<polygon fill="none" stroke="black" points="649,-89 649,-110 674,-110 674,-89 649,-89"/>
<text text-anchor="start" x="658" y="-95.8" font-family="Times,serif" font-size="14.00">8</text>
<polygon fill="none" stroke="black" points="674,-89 674,-110 702,-110 702,-89 674,-89"/>
<text text-anchor="start" x="681" y="-95.8" font-family="Times,serif" font-size="14.00">18</text>
<polygon fill="none" stroke="black" points="702,-89 702,-110 732,-110 732,-89 702,-89"/>
<polygon fill="none" stroke="black" points="732,-89 732,-110 819,-110 819,-89 732,-89"/>
<text text-anchor="start" x="735" y="-95.8" font-family="Times,serif" font-size="14.00">version_magic</text>
</g>
<!-- tga__inst__footer&#45;&gt;tga_footer__seq -->
<g id="edge4" class="edge"><title>tga__inst__footer:footer_type&#45;&gt;tga_footer__seq</title>
<path fill="none" stroke="black" stroke-width="2" d="M496.5,-30C553.215,-30 611.878,-54.8692 656.59,-79.9267"/>
<polygon fill="black" stroke="black" stroke-width="2" points="654.924,-83.0057 665.342,-84.9334 658.4,-76.9297 654.924,-83.0057"/>
</g>
<!-- tga_footer__inst__is_valid -->
<g id="node4" class="node"><title>tga_footer__inst__is_valid</title>
<polygon fill="#e0ffe0" stroke="none" points="871.5,-99 871.5,-120 920.5,-120 920.5,-99 871.5,-99"/>
<polygon fill="none" stroke="black" points="871.5,-99 871.5,-120 920.5,-120 920.5,-99 871.5,-99"/>
<text text-anchor="start" x="890.5" y="-105.8" font-family="Times,serif" font-size="14.00">id</text>
<polygon fill="#e0ffe0" stroke="none" points="920.5,-99 920.5,-120 1462.5,-120 1462.5,-99 920.5,-99"/>
<polygon fill="none" stroke="black" points="920.5,-99 920.5,-120 1462.5,-120 1462.5,-99 920.5,-99"/>
<text text-anchor="start" x="1176.5" y="-105.8" font-family="Times,serif" font-size="14.00">value</text>
<polygon fill="none" stroke="black" points="871.5,-78 871.5,-99 920.5,-99 920.5,-78 871.5,-78"/>
<text text-anchor="start" x="874.5" y="-84.8" font-family="Times,serif" font-size="14.00">is_valid</text>
<polygon fill="none" stroke="black" points="920.5,-78 920.5,-99 1462.5,-99 1462.5,-78 920.5,-78"/>
<text text-anchor="start" x="923.5" y="-84.8" font-family="Times,serif" font-size="14.00">version_magic == [84, 82, 85, 69, 86, 73, 83, 73, 79, 78, 45, 88, 70, 73, 76, 69, 46, 0].pack(&#39;C*&#39;)</text>
</g>
<!-- tga_footer__seq&#45;&gt;tga_footer__inst__is_valid -->
<g id="edge5" class="edge"><title>tga_footer__seq:version_magic_type&#45;&gt;tga_footer__inst__is_valid</title>
<path fill="none" stroke="#404040" d="M820,-99C830.677,-99 841.54,-99 852.512,-99"/>
<polygon fill="#404040" stroke="#404040" points="852.615,-102.5 862.615,-99 852.615,-95.5001 852.615,-102.5"/>
</g>
<!-- tga_footer__inst__ext_area -->
<g id="node5" class="node"><title>tga_footer__inst__ext_area</title>
<polygon fill="#e0ffe0" stroke="none" points="1052.5,-167 1052.5,-188 1128.5,-188 1128.5,-167 1052.5,-167"/>
<polygon fill="none" stroke="black" points="1052.5,-167 1052.5,-188 1128.5,-188 1128.5,-167 1052.5,-167"/>
<text text-anchor="start" x="1081" y="-173.8" font-family="Times,serif" font-size="14.00">pos</text>
<polygon fill="#e0ffe0" stroke="none" points="1128.5,-167 1128.5,-188 1156.5,-188 1156.5,-167 1128.5,-167"/>
<polygon fill="none" stroke="black" points="1128.5,-167 1128.5,-188 1156.5,-188 1156.5,-167 1128.5,-167"/>
<text text-anchor="start" x="1131.5" y="-173.8" font-family="Times,serif" font-size="14.00">size</text>
<polygon fill="#e0ffe0" stroke="none" points="1156.5,-167 1156.5,-188 1229.5,-188 1229.5,-167 1156.5,-167"/>
<polygon fill="none" stroke="black" points="1156.5,-167 1156.5,-188 1229.5,-188 1229.5,-167 1156.5,-167"/>
<text text-anchor="start" x="1181" y="-173.8" font-family="Times,serif" font-size="14.00">type</text>
<polygon fill="#e0ffe0" stroke="none" points="1229.5,-167 1229.5,-188 1281.5,-188 1281.5,-167 1229.5,-167"/>
<polygon fill="none" stroke="black" points="1229.5,-167 1229.5,-188 1281.5,-188 1281.5,-167 1229.5,-167"/>
<text text-anchor="start" x="1250" y="-173.8" font-family="Times,serif" font-size="14.00">id</text>
<polygon fill="none" stroke="black" points="1052.5,-146 1052.5,-167 1128.5,-167 1128.5,-146 1052.5,-146"/>
<text text-anchor="start" x="1055.5" y="-152.8" font-family="Times,serif" font-size="14.00">ext_area_ofs</text>
<polygon fill="none" stroke="black" points="1128.5,-146 1128.5,-167 1156.5,-167 1156.5,-146 1128.5,-146"/>
<text text-anchor="start" x="1136.5" y="-152.8" font-family="Times,serif" font-size="14.00">...</text>
<polygon fill="none" stroke="black" points="1156.5,-146 1156.5,-167 1229.5,-167 1229.5,-146 1156.5,-146"/>
<text text-anchor="start" x="1159.5" y="-152.8" font-family="Times,serif" font-size="14.00">TgaExtArea</text>
<polygon fill="none" stroke="black" points="1229.5,-146 1229.5,-167 1281.5,-167 1281.5,-146 1229.5,-146"/>
<text text-anchor="start" x="1232.5" y="-152.8" font-family="Times,serif" font-size="14.00">ext_area</text>
</g>
<!-- tga_footer__seq&#45;&gt;tga_footer__inst__ext_area -->
<g id="edge6" class="edge"><title>tga_footer__seq:ext_area_ofs_type&#45;&gt;tga_footer__inst__ext_area:ext_area_pos</title>
<path fill="none" stroke="#404040" d="M820,-142C919.654,-142 946.654,-155.086 1041.48,-155.955"/>
<polygon fill="#404040" stroke="#404040" points="1041.48,-159.455 1051.5,-156 1041.52,-152.455 1041.48,-159.455"/>
</g>
<!-- tga_ext_area__seq -->
<g id="node6" class="node"><title>tga_ext_area__seq</title>
<polygon fill="#e0ffe0" stroke="none" points="1514,-363 1514,-384 1541,-384 1541,-363 1514,-363"/>
<polygon fill="none" stroke="black" points="1514,-363 1514,-384 1541,-384 1541,-363 1514,-363"/>
<text text-anchor="start" x="1518" y="-369.8" font-family="Times,serif" font-size="14.00">pos</text>
<polygon fill="#e0ffe0" stroke="none" points="1541,-363 1541,-384 1569,-384 1569,-363 1541,-363"/>
<polygon fill="none" stroke="black" points="1541,-363 1541,-384 1569,-384 1569,-363 1541,-363"/>
<text text-anchor="start" x="1544" y="-369.8" font-family="Times,serif" font-size="14.00">size</text>
<polygon fill="#e0ffe0" stroke="none" points="1569,-363 1569,-384 1633,-384 1633,-363 1569,-363"/>
<polygon fill="none" stroke="black" points="1569,-363 1569,-384 1633,-384 1633,-363 1569,-363"/>
<text text-anchor="start" x="1589" y="-369.8" font-family="Times,serif" font-size="14.00">type</text>
<polygon fill="#e0ffe0" stroke="none" points="1633,-363 1633,-384 1744,-384 1744,-363 1633,-363"/>
<polygon fill="none" stroke="black" points="1633,-363 1633,-384 1744,-384 1744,-363 1633,-363"/>
<text text-anchor="start" x="1683" y="-369.8" font-family="Times,serif" font-size="14.00">id</text>
<polygon fill="none" stroke="black" points="1514,-342 1514,-363 1541,-363 1541,-342 1514,-342"/>
<text text-anchor="start" x="1524" y="-348.8" font-family="Times,serif" font-size="14.00">0</text>
<polygon fill="none" stroke="black" points="1541,-342 1541,-363 1569,-363 1569,-342 1541,-342"/>
<text text-anchor="start" x="1551.5" y="-348.8" font-family="Times,serif" font-size="14.00">2</text>
<polygon fill="none" stroke="black" points="1569,-342 1569,-363 1633,-363 1633,-342 1569,-342"/>
<text text-anchor="start" x="1589" y="-348.8" font-family="Times,serif" font-size="14.00">u2le</text>
<polygon fill="none" stroke="black" points="1633,-342 1633,-363 1744,-363 1744,-342 1633,-342"/>
<text text-anchor="start" x="1651.5" y="-348.8" font-family="Times,serif" font-size="14.00">ext_area_size</text>
<polygon fill="none" stroke="black" points="1514,-321 1514,-342 1541,-342 1541,-321 1514,-321"/>
<text text-anchor="start" x="1524" y="-327.8" font-family="Times,serif" font-size="14.00">2</text>
<polygon fill="none" stroke="black" points="1541,-321 1541,-342 1569,-342 1569,-321 1541,-321"/>
<text text-anchor="start" x="1548" y="-327.8" font-family="Times,serif" font-size="14.00">41</text>
<polygon fill="none" stroke="black" points="1569,-321 1569,-342 1633,-342 1633,-321 1569,-321"/>
<text text-anchor="start" x="1572" y="-327.8" font-family="Times,serif" font-size="14.00">str(ASCII)</text>
<polygon fill="none" stroke="black" points="1633,-321 1633,-342 1744,-342 1744,-321 1633,-321"/>
<text text-anchor="start" x="1652.5" y="-327.8" font-family="Times,serif" font-size="14.00">author_name</text>
<polygon fill="none" stroke="black" points="1514,-300 1514,-321 1541,-321 1541,-300 1514,-300"/>
<text text-anchor="start" x="1520.5" y="-306.8" font-family="Times,serif" font-size="14.00">43</text>
<polygon fill="none" stroke="black" points="1541,-300 1541,-321 1569,-321 1569,-300 1541,-300"/>
<text text-anchor="start" x="1548" y="-306.8" font-family="Times,serif" font-size="14.00">81</text>
<polygon fill="none" stroke="black" points="1569,-300 1569,-321 1633,-321 1633,-300 1569,-300"/>
<text text-anchor="start" x="1572" y="-306.8" font-family="Times,serif" font-size="14.00">str(ASCII)</text>
<polygon fill="none" stroke="black" points="1633,-300 1633,-321 1744,-321 1744,-300 1633,-300"/>
<text text-anchor="start" x="1659.5" y="-306.8" font-family="Times,serif" font-size="14.00">comments</text>
<polygon fill="none" stroke="black" points="1514,-279 1514,-300 1744,-300 1744,-279 1514,-279"/>
<text text-anchor="start" x="1590" y="-285.8" font-family="Times,serif" font-size="14.00">repeat 4 times</text>
<polygon fill="none" stroke="black" points="1514,-258 1514,-279 1541,-279 1541,-258 1514,-258"/>
<text text-anchor="start" x="1517" y="-264.8" font-family="Times,serif" font-size="14.00">124</text>
<polygon fill="none" stroke="black" points="1541,-258 1541,-279 1569,-279 1569,-258 1541,-258"/>
<text text-anchor="start" x="1548" y="-264.8" font-family="Times,serif" font-size="14.00">12</text>
<polygon fill="none" stroke="black" points="1569,-258 1569,-279 1633,-279 1633,-258 1569,-258"/>
<polygon fill="none" stroke="black" points="1633,-258 1633,-279 1744,-279 1744,-258 1633,-258"/>
<text text-anchor="start" x="1659.5" y="-264.8" font-family="Times,serif" font-size="14.00">timestamp</text>
<polygon fill="none" stroke="black" points="1514,-237 1514,-258 1541,-258 1541,-237 1514,-237"/>
<text text-anchor="start" x="1517" y="-243.8" font-family="Times,serif" font-size="14.00">136</text>
<polygon fill="none" stroke="black" points="1541,-237 1541,-258 1569,-258 1569,-237 1541,-237"/>
<text text-anchor="start" x="1548" y="-243.8" font-family="Times,serif" font-size="14.00">41</text>
<polygon fill="none" stroke="black" points="1569,-237 1569,-258 1633,-258 1633,-237 1569,-237"/>
<text text-anchor="start" x="1572" y="-243.8" font-family="Times,serif" font-size="14.00">str(ASCII)</text>
<polygon fill="none" stroke="black" points="1633,-237 1633,-258 1744,-258 1744,-237 1633,-237"/>
<text text-anchor="start" x="1671" y="-243.8" font-family="Times,serif" font-size="14.00">job_id</text>
<polygon fill="none" stroke="black" points="1514,-216 1514,-237 1541,-237 1541,-216 1514,-216"/>
<text text-anchor="start" x="1517" y="-222.8" font-family="Times,serif" font-size="14.00">177</text>
<polygon fill="none" stroke="black" points="1541,-216 1541,-237 1569,-237 1569,-216 1541,-216"/>
<text text-anchor="start" x="1551.5" y="-222.8" font-family="Times,serif" font-size="14.00">6</text>
<polygon fill="none" stroke="black" points="1569,-216 1569,-237 1633,-237 1633,-216 1569,-216"/>
<text text-anchor="start" x="1572" y="-222.8" font-family="Times,serif" font-size="14.00">str(ASCII)</text>
<polygon fill="none" stroke="black" points="1633,-216 1633,-237 1744,-237 1744,-216 1633,-216"/>
<text text-anchor="start" x="1664" y="-222.8" font-family="Times,serif" font-size="14.00">job_time</text>
<polygon fill="none" stroke="black" points="1514,-195 1514,-216 1541,-216 1541,-195 1514,-195"/>
<text text-anchor="start" x="1517" y="-201.8" font-family="Times,serif" font-size="14.00">183</text>
<polygon fill="none" stroke="black" points="1541,-195 1541,-216 1569,-216 1569,-195 1541,-195"/>
<text text-anchor="start" x="1548" y="-201.8" font-family="Times,serif" font-size="14.00">41</text>
<polygon fill="none" stroke="black" points="1569,-195 1569,-216 1633,-216 1633,-195 1569,-195"/>
<text text-anchor="start" x="1572" y="-201.8" font-family="Times,serif" font-size="14.00">str(ASCII)</text>
<polygon fill="none" stroke="black" points="1633,-195 1633,-216 1744,-216 1744,-195 1633,-195"/>
<text text-anchor="start" x="1656.5" y="-201.8" font-family="Times,serif" font-size="14.00">software_id</text>
<polygon fill="none" stroke="black" points="1514,-174 1514,-195 1541,-195 1541,-174 1514,-174"/>
<text text-anchor="start" x="1517" y="-180.8" font-family="Times,serif" font-size="14.00">224</text>
<polygon fill="none" stroke="black" points="1541,-174 1541,-195 1569,-195 1569,-174 1541,-174"/>
<text text-anchor="start" x="1551.5" y="-180.8" font-family="Times,serif" font-size="14.00">3</text>
<polygon fill="none" stroke="black" points="1569,-174 1569,-195 1633,-195 1633,-174 1569,-174"/>
<polygon fill="none" stroke="black" points="1633,-174 1633,-195 1744,-195 1744,-174 1633,-174"/>
<text text-anchor="start" x="1641.5" y="-180.8" font-family="Times,serif" font-size="14.00">software_version</text>
<polygon fill="none" stroke="black" points="1514,-153 1514,-174 1541,-174 1541,-153 1514,-153"/>
<text text-anchor="start" x="1517" y="-159.8" font-family="Times,serif" font-size="14.00">227</text>
<polygon fill="none" stroke="black" points="1541,-153 1541,-174 1569,-174 1569,-153 1541,-153"/>
<text text-anchor="start" x="1551.5" y="-159.8" font-family="Times,serif" font-size="14.00">4</text>
<polygon fill="none" stroke="black" points="1569,-153 1569,-174 1633,-174 1633,-153 1569,-153"/>
<text text-anchor="start" x="1589" y="-159.8" font-family="Times,serif" font-size="14.00">u4le</text>
<polygon fill="none" stroke="black" points="1633,-153 1633,-174 1744,-174 1744,-153 1633,-153"/>
<text text-anchor="start" x="1661" y="-159.8" font-family="Times,serif" font-size="14.00">key_color</text>
<polygon fill="none" stroke="black" points="1514,-132 1514,-153 1541,-153 1541,-132 1514,-132"/>
<text text-anchor="start" x="1517" y="-138.8" font-family="Times,serif" font-size="14.00">231</text>
<polygon fill="none" stroke="black" points="1541,-132 1541,-153 1569,-153 1569,-132 1541,-132"/>
<text text-anchor="start" x="1551.5" y="-138.8" font-family="Times,serif" font-size="14.00">4</text>
<polygon fill="none" stroke="black" points="1569,-132 1569,-153 1633,-153 1633,-132 1569,-132"/>
<text text-anchor="start" x="1589" y="-138.8" font-family="Times,serif" font-size="14.00">u4le</text>
<polygon fill="none" stroke="black" points="1633,-132 1633,-153 1744,-153 1744,-132 1633,-132"/>
<text text-anchor="start" x="1638.5" y="-138.8" font-family="Times,serif" font-size="14.00">pixel_aspect_ratio</text>
<polygon fill="none" stroke="black" points="1514,-111 1514,-132 1541,-132 1541,-111 1514,-111"/>
<text text-anchor="start" x="1517" y="-117.8" font-family="Times,serif" font-size="14.00">235</text>
<polygon fill="none" stroke="black" points="1541,-111 1541,-132 1569,-132 1569,-111 1541,-111"/>
<text text-anchor="start" x="1551.5" y="-117.8" font-family="Times,serif" font-size="14.00">4</text>
<polygon fill="none" stroke="black" points="1569,-111 1569,-132 1633,-132 1633,-111 1569,-111"/>
<text text-anchor="start" x="1589" y="-117.8" font-family="Times,serif" font-size="14.00">u4le</text>
<polygon fill="none" stroke="black" points="1633,-111 1633,-132 1744,-132 1744,-111 1633,-111"/>
<text text-anchor="start" x="1649.5" y="-117.8" font-family="Times,serif" font-size="14.00">gamma_value</text>
<polygon fill="none" stroke="black" points="1514,-90 1514,-111 1541,-111 1541,-90 1514,-90"/>
<text text-anchor="start" x="1517" y="-96.8" font-family="Times,serif" font-size="14.00">239</text>
<polygon fill="none" stroke="black" points="1541,-90 1541,-111 1569,-111 1569,-90 1541,-90"/>
<text text-anchor="start" x="1551.5" y="-96.8" font-family="Times,serif" font-size="14.00">4</text>
<polygon fill="none" stroke="black" points="1569,-90 1569,-111 1633,-111 1633,-90 1569,-90"/>
<text text-anchor="start" x="1589" y="-96.8" font-family="Times,serif" font-size="14.00">u4le</text>
<polygon fill="none" stroke="black" points="1633,-90 1633,-111 1744,-111 1744,-90 1633,-90"/>
<text text-anchor="start" x="1648.5" y="-96.8" font-family="Times,serif" font-size="14.00">color_corr_ofs</text>
<polygon fill="none" stroke="black" points="1514,-69 1514,-90 1541,-90 1541,-69 1514,-69"/>
<text text-anchor="start" x="1517" y="-75.8" font-family="Times,serif" font-size="14.00">243</text>
<polygon fill="none" stroke="black" points="1541,-69 1541,-90 1569,-90 1569,-69 1541,-69"/>
<text text-anchor="start" x="1551.5" y="-75.8" font-family="Times,serif" font-size="14.00">4</text>
<polygon fill="none" stroke="black" points="1569,-69 1569,-90 1633,-90 1633,-69 1569,-69"/>
<text text-anchor="start" x="1589" y="-75.8" font-family="Times,serif" font-size="14.00">u4le</text>
<polygon fill="none" stroke="black" points="1633,-69 1633,-90 1744,-90 1744,-69 1633,-69"/>
<text text-anchor="start" x="1636" y="-75.8" font-family="Times,serif" font-size="14.00">postage_stamp_ofs</text>
<polygon fill="none" stroke="black" points="1514,-48 1514,-69 1541,-69 1541,-48 1514,-48"/>
<text text-anchor="start" x="1517" y="-54.8" font-family="Times,serif" font-size="14.00">247</text>
<polygon fill="none" stroke="black" points="1541,-48 1541,-69 1569,-69 1569,-48 1541,-48"/>
<text text-anchor="start" x="1551.5" y="-54.8" font-family="Times,serif" font-size="14.00">4</text>
<polygon fill="none" stroke="black" points="1569,-48 1569,-69 1633,-69 1633,-48 1569,-48"/>
<text text-anchor="start" x="1589" y="-54.8" font-family="Times,serif" font-size="14.00">u4le</text>
<polygon fill="none" stroke="black" points="1633,-48 1633,-69 1744,-69 1744,-48 1633,-48"/>
<text text-anchor="start" x="1651" y="-54.8" font-family="Times,serif" font-size="14.00">scan_line_ofs</text>
<polygon fill="none" stroke="black" points="1514,-27 1514,-48 1541,-48 1541,-27 1514,-27"/>
<text text-anchor="start" x="1517" y="-33.8" font-family="Times,serif" font-size="14.00">251</text>
<polygon fill="none" stroke="black" points="1541,-27 1541,-48 1569,-48 1569,-27 1541,-27"/>
<text text-anchor="start" x="1551.5" y="-33.8" font-family="Times,serif" font-size="14.00">1</text>
<polygon fill="none" stroke="black" points="1569,-27 1569,-48 1633,-48 1633,-27 1569,-27"/>
<text text-anchor="start" x="1594" y="-33.8" font-family="Times,serif" font-size="14.00">u1</text>
<polygon fill="none" stroke="black" points="1633,-27 1633,-48 1744,-48 1744,-27 1633,-27"/>
<text text-anchor="start" x="1663" y="-33.8" font-family="Times,serif" font-size="14.00">attributes</text>
</g>
<!-- tga_footer__inst__ext_area&#45;&gt;tga_ext_area__seq -->
<g id="edge7" class="edge"><title>tga_footer__inst__ext_area:ext_area_type&#45;&gt;tga_ext_area__seq</title>
<path fill="none" stroke="black" stroke-width="2" d="M1282.5,-156C1353.41,-156 1431.66,-166.442 1495.74,-177.783"/>
<polygon fill="black" stroke="black" stroke-width="2" points="1495.44,-181.284 1505.9,-179.609 1496.67,-174.395 1495.44,-181.284"/>
</g>
</g>
</svg>
