<?xml version="1.0" encoding="UTF-8" standalone="no"?>
<!DOCTYPE svg PUBLIC "-//W3C//DTD SVG 1.1//EN"
 "http://www.w3.org/Graphics/SVG/1.1/DTD/svg11.dtd">
<!-- Generated by graphviz version 2.43.0 (0)
 -->
<!-- Title: %3 Pages: 1 -->
<svg width="291pt" height="215pt"
 viewBox="0.00 0.00 291.00 215.00" xmlns="http://www.w3.org/2000/svg" xmlns:xlink="http://www.w3.org/1999/xlink">
<g id="graph0" class="graph" transform="scale(1 1) rotate(0) translate(4 211)">
<title>%3</title>
<polygon fill="white" stroke="transparent" points="-4,4 -4,-211 287,-211 287,4 -4,4"/>
<g id="clust1" class="cluster">
<title>cluster__udp_datagram</title>
<polygon fill="none" stroke="black" stroke-dasharray="1,5" points="8,-8 8,-199 275,-199 275,-8 8,-8"/>
<text text-anchor="middle" x="141.5" y="-183.8" font-family="Times,serif" font-size="14.00">UdpDatagram</text>
</g>
<!-- udp_datagram__seq -->
<g id="node1" class="node">
<title>udp_datagram__seq</title>
<polygon fill="#e0ffe0" stroke="transparent" points="24.5,-125 24.5,-146 55.5,-146 55.5,-125 24.5,-125"/>
<polygon fill="none" stroke="black" points="24.5,-125 24.5,-146 55.5,-146 55.5,-125 24.5,-125"/>
<text text-anchor="start" x="27.5" y="-131.8" font-family="Times,serif" font-size="14.00">pos</text>
<polygon fill="#e0ffe0" stroke="transparent" points="55.5,-125 55.5,-146 140.5,-146 140.5,-125 55.5,-125"/>
<polygon fill="none" stroke="black" points="55.5,-125 55.5,-146 140.5,-146 140.5,-125 55.5,-125"/>
<text text-anchor="start" x="84" y="-131.8" font-family="Times,serif" font-size="14.00">size</text>
<polygon fill="#e0ffe0" stroke="transparent" points="140.5,-125 140.5,-146 182.5,-146 182.5,-125 140.5,-125"/>
<polygon fill="none" stroke="black" points="140.5,-125 140.5,-146 182.5,-146 182.5,-125 140.5,-125"/>
<text text-anchor="start" x="145.5" y="-131.8" font-family="Times,serif" font-size="14.00">type</text>
<polygon fill="#e0ffe0" stroke="transparent" points="182.5,-125 182.5,-146 259.5,-146 259.5,-125 182.5,-125"/>
<polygon fill="none" stroke="black" points="182.5,-125 182.5,-146 259.5,-146 259.5,-125 182.5,-125"/>
<text text-anchor="start" x="214" y="-131.8" font-family="Times,serif" font-size="14.00">id</text>
<polygon fill="none" stroke="black" points="24.5,-104 24.5,-125 55.5,-125 55.5,-104 24.5,-104"/>
<text text-anchor="start" x="35" y="-110.8" font-family="Times,serif" font-size="14.00">0</text>
<polygon fill="none" stroke="black" points="55.5,-104 55.5,-125 140.5,-125 140.5,-104 55.5,-104"/>
<text text-anchor="start" x="93" y="-110.8" font-family="Times,serif" font-size="14.00">2</text>
<polygon fill="none" stroke="black" points="140.5,-104 140.5,-125 182.5,-125 182.5,-104 140.5,-104"/>
<text text-anchor="start" x="143.5" y="-110.8" font-family="Times,serif" font-size="14.00">u2be</text>
<polygon fill="none" stroke="black" points="182.5,-104 182.5,-125 259.5,-125 259.5,-104 182.5,-104"/>
<text text-anchor="start" x="191.5" y="-110.8" font-family="Times,serif" font-size="14.00">src_port</text>
<polygon fill="none" stroke="black" points="24.5,-83 24.5,-104 55.5,-104 55.5,-83 24.5,-83"/>
<text text-anchor="start" x="35" y="-89.8" font-family="Times,serif" font-size="14.00">2</text>
<polygon fill="none" stroke="black" points="55.5,-83 55.5,-104 140.5,-104 140.5,-83 55.5,-83"/>
<text text-anchor="start" x="93" y="-89.8" font-family="Times,serif" font-size="14.00">2</text>
<polygon fill="none" stroke="black" points="140.5,-83 140.5,-104 182.5,-104 182.5,-83 140.5,-83"/>
<text text-anchor="start" x="143.5" y="-89.8" font-family="Times,serif" font-size="14.00">u2be</text>
<polygon fill="none" stroke="black" points="182.5,-83 182.5,-104 259.5,-104 259.5,-83 182.5,-83"/>
<text text-anchor="start" x="191" y="-89.8" font-family="Times,serif" font-size="14.00">dst_port</text>
<polygon fill="none" stroke="black" points="24.5,-62 24.5,-83 55.5,-83 55.5,-62 24.5,-62"/>
<text text-anchor="start" x="35" y="-68.8" font-family="Times,serif" font-size="14.00">4</text>
<polygon fill="none" stroke="black" points="55.5,-62 55.5,-83 140.5,-83 140.5,-62 55.5,-62"/>
<text text-anchor="start" x="93" y="-68.8" font-family="Times,serif" font-size="14.00">2</text>
<polygon fill="none" stroke="black" points="140.5,-62 140.5,-83 182.5,-83 182.5,-62 140.5,-62"/>
<text text-anchor="start" x="143.5" y="-68.8" font-family="Times,serif" font-size="14.00">u2be</text>
<polygon fill="none" stroke="black" points="182.5,-62 182.5,-83 259.5,-83 259.5,-62 182.5,-62"/>
<text text-anchor="start" x="198" y="-68.8" font-family="Times,serif" font-size="14.00">length</text>
<polygon fill="none" stroke="black" points="24.5,-41 24.5,-62 55.5,-62 55.5,-41 24.5,-41"/>
<text text-anchor="start" x="35" y="-47.8" font-family="Times,serif" font-size="14.00">6</text>
<polygon fill="none" stroke="black" points="55.5,-41 55.5,-62 140.5,-62 140.5,-41 55.5,-41"/>
<text text-anchor="start" x="93" y="-47.8" font-family="Times,serif" font-size="14.00">2</text>
<polygon fill="none" stroke="black" points="140.5,-41 140.5,-62 182.5,-62 182.5,-41 140.5,-41"/>
<text text-anchor="start" x="143.5" y="-47.8" font-family="Times,serif" font-size="14.00">u2be</text>
<polygon fill="none" stroke="black" points="182.5,-41 182.5,-62 259.5,-62 259.5,-41 182.5,-41"/>
<text text-anchor="start" x="185.5" y="-47.8" font-family="Times,serif" font-size="14.00">checksum</text>
<polygon fill="none" stroke="black" points="24.5,-20 24.5,-41 55.5,-41 55.5,-20 24.5,-20"/>
<text text-anchor="start" x="35" y="-26.8" font-family="Times,serif" font-size="14.00">8</text>
<polygon fill="none" stroke="black" points="55.5,-20 55.5,-41 140.5,-41 140.5,-20 55.5,-20"/>
<text text-anchor="start" x="58.5" y="-26.8" font-family="Times,serif" font-size="14.00">(length &#45; 8)</text>
<polygon fill="none" stroke="black" points="140.5,-20 140.5,-41 182.5,-41 182.5,-20 140.5,-20"/>
<polygon fill="none" stroke="black" points="182.5,-20 182.5,-41 259.5,-41 259.5,-20 182.5,-20"/>
<text text-anchor="start" x="203.5" y="-26.8" font-family="Times,serif" font-size="14.00">body</text>
</g>
<!-- udp_datagram__seq&#45;&gt;udp_datagram__seq -->
<g id="edge1" class="edge">
<title>udp_datagram__seq:length_type&#45;&gt;udp_datagram__seq:body_size</title>
<path fill="none" stroke="#404040" d="M240.52,-83.2C282.35,-115.03 269.65,-168 159.5,-168 54.43,-168 38.03,-89.89 73.04,-48.48"/>
<polygon fill="#404040" stroke="#404040" points="75.67,-50.8 80.17,-41.2 70.67,-45.9 75.67,-50.8"/>
</g>
</g>
</svg>
