<?xml version="1.0" encoding="UTF-8" standalone="no"?>
<!DOCTYPE svg PUBLIC "-//W3C//DTD SVG 1.1//EN"
 "http://www.w3.org/Graphics/SVG/1.1/DTD/svg11.dtd">
<!-- Generated by graphviz version 2.40.1 (20161225.0304)
 -->
<!-- Title: %3 Pages: 1 -->
<svg width="243pt" height="215pt"
 viewBox="0.00 0.00 243.00 215.00" xmlns="http://www.w3.org/2000/svg" xmlns:xlink="http://www.w3.org/1999/xlink">
<g id="graph0" class="graph" transform="scale(1 1) rotate(0) translate(4 211)">
<title>%3</title>
<polygon fill="#ffffff" stroke="transparent" points="-4,4 -4,-211 239,-211 239,4 -4,4"/>
<g id="clust1" class="cluster">
<title>cluster__udp_datagram</title>
<polygon fill="none" stroke="#000000" stroke-dasharray="1,5" points="8,-8 8,-199 227,-199 227,-8 8,-8"/>
<text text-anchor="middle" x="117.5" y="-183.8" font-family="Times,serif" font-size="14.00" fill="#000000">UdpDatagram</text>
</g>
<!-- udp_datagram__seq -->
<g id="node1" class="node">
<title>udp_datagram__seq</title>
<polygon fill="#e0ffe0" stroke="transparent" points="24.5,-125 24.5,-146 49.5,-146 49.5,-125 24.5,-125"/>
<polygon fill="none" stroke="#000000" points="24.5,-125 24.5,-146 49.5,-146 49.5,-125 24.5,-125"/>
<text text-anchor="start" x="27.5" y="-131.8" font-family="Times,serif" font-size="14.00" fill="#000000">pos</text>
<polygon fill="#e0ffe0" stroke="transparent" points="49.5,-125 49.5,-146 117.5,-146 117.5,-125 49.5,-125"/>
<polygon fill="none" stroke="#000000" points="49.5,-125 49.5,-146 117.5,-146 117.5,-125 49.5,-125"/>
<text text-anchor="start" x="72.5" y="-131.8" font-family="Times,serif" font-size="14.00" fill="#000000">size</text>
<polygon fill="#e0ffe0" stroke="transparent" points="117.5,-125 117.5,-146 150.5,-146 150.5,-125 117.5,-125"/>
<polygon fill="none" stroke="#000000" points="117.5,-125 117.5,-146 150.5,-146 150.5,-125 117.5,-125"/>
<text text-anchor="start" x="122" y="-131.8" font-family="Times,serif" font-size="14.00" fill="#000000">type</text>
<polygon fill="#e0ffe0" stroke="transparent" points="150.5,-125 150.5,-146 211.5,-146 211.5,-125 150.5,-125"/>
<polygon fill="none" stroke="#000000" points="150.5,-125 150.5,-146 211.5,-146 211.5,-125 150.5,-125"/>
<text text-anchor="start" x="175.5" y="-131.8" font-family="Times,serif" font-size="14.00" fill="#000000">id</text>
<polygon fill="none" stroke="#000000" points="24.5,-104 24.5,-125 49.5,-125 49.5,-104 24.5,-104"/>
<text text-anchor="start" x="33.5" y="-110.8" font-family="Times,serif" font-size="14.00" fill="#000000">0</text>
<polygon fill="none" stroke="#000000" points="49.5,-104 49.5,-125 117.5,-125 117.5,-104 49.5,-104"/>
<text text-anchor="start" x="80" y="-110.8" font-family="Times,serif" font-size="14.00" fill="#000000">2</text>
<polygon fill="none" stroke="#000000" points="117.5,-104 117.5,-125 150.5,-125 150.5,-104 117.5,-104"/>
<text text-anchor="start" x="120.5" y="-110.8" font-family="Times,serif" font-size="14.00" fill="#000000">u2be</text>
<polygon fill="none" stroke="#000000" points="150.5,-104 150.5,-125 211.5,-125 211.5,-104 150.5,-104"/>
<text text-anchor="start" x="158.5" y="-110.8" font-family="Times,serif" font-size="14.00" fill="#000000">src_port</text>
<polygon fill="none" stroke="#000000" points="24.5,-83 24.5,-104 49.5,-104 49.5,-83 24.5,-83"/>
<text text-anchor="start" x="33.5" y="-89.8" font-family="Times,serif" font-size="14.00" fill="#000000">2</text>
<polygon fill="none" stroke="#000000" points="49.5,-83 49.5,-104 117.5,-104 117.5,-83 49.5,-83"/>
<text text-anchor="start" x="80" y="-89.8" font-family="Times,serif" font-size="14.00" fill="#000000">2</text>
<polygon fill="none" stroke="#000000" points="117.5,-83 117.5,-104 150.5,-104 150.5,-83 117.5,-83"/>
<text text-anchor="start" x="120.5" y="-89.8" font-family="Times,serif" font-size="14.00" fill="#000000">u2be</text>
<polygon fill="none" stroke="#000000" points="150.5,-83 150.5,-104 211.5,-104 211.5,-83 150.5,-83"/>
<text text-anchor="start" x="158.5" y="-89.8" font-family="Times,serif" font-size="14.00" fill="#000000">dst_port</text>
<polygon fill="none" stroke="#000000" points="24.5,-62 24.5,-83 49.5,-83 49.5,-62 24.5,-62"/>
<text text-anchor="start" x="33.5" y="-68.8" font-family="Times,serif" font-size="14.00" fill="#000000">4</text>
<polygon fill="none" stroke="#000000" points="49.5,-62 49.5,-83 117.5,-83 117.5,-62 49.5,-62"/>
<text text-anchor="start" x="80" y="-68.8" font-family="Times,serif" font-size="14.00" fill="#000000">2</text>
<polygon fill="none" stroke="#000000" points="117.5,-62 117.5,-83 150.5,-83 150.5,-62 117.5,-62"/>
<text text-anchor="start" x="120.5" y="-68.8" font-family="Times,serif" font-size="14.00" fill="#000000">u2be</text>
<polygon fill="none" stroke="#000000" points="150.5,-62 150.5,-83 211.5,-83 211.5,-62 150.5,-62"/>
<text text-anchor="start" x="164" y="-68.8" font-family="Times,serif" font-size="14.00" fill="#000000">length</text>
<polygon fill="none" stroke="#000000" points="24.5,-41 24.5,-62 49.5,-62 49.5,-41 24.5,-41"/>
<text text-anchor="start" x="33.5" y="-47.8" font-family="Times,serif" font-size="14.00" fill="#000000">6</text>
<polygon fill="none" stroke="#000000" points="49.5,-41 49.5,-62 117.5,-62 117.5,-41 49.5,-41"/>
<text text-anchor="start" x="80" y="-47.8" font-family="Times,serif" font-size="14.00" fill="#000000">2</text>
<polygon fill="none" stroke="#000000" points="117.5,-41 117.5,-62 150.5,-62 150.5,-41 117.5,-41"/>
<text text-anchor="start" x="120.5" y="-47.8" font-family="Times,serif" font-size="14.00" fill="#000000">u2be</text>
<polygon fill="none" stroke="#000000" points="150.5,-41 150.5,-62 211.5,-62 211.5,-41 150.5,-41"/>
<text text-anchor="start" x="153.5" y="-47.8" font-family="Times,serif" font-size="14.00" fill="#000000">checksum</text>
<polygon fill="none" stroke="#000000" points="24.5,-20 24.5,-41 49.5,-41 49.5,-20 24.5,-20"/>
<text text-anchor="start" x="33.5" y="-26.8" font-family="Times,serif" font-size="14.00" fill="#000000">8</text>
<polygon fill="none" stroke="#000000" points="49.5,-20 49.5,-41 117.5,-41 117.5,-20 49.5,-20"/>
<text text-anchor="start" x="52.5" y="-26.8" font-family="Times,serif" font-size="14.00" fill="#000000">(length &#45; 8)</text>
<polygon fill="none" stroke="#000000" points="117.5,-20 117.5,-41 150.5,-41 150.5,-20 117.5,-20"/>
<polygon fill="none" stroke="#000000" points="150.5,-20 150.5,-41 211.5,-41 211.5,-20 150.5,-20"/>
<text text-anchor="start" x="167" y="-26.8" font-family="Times,serif" font-size="14.00" fill="#000000">body</text>
</g>
<!-- udp_datagram__seq&#45;&gt;udp_datagram__seq -->
<g id="edge1" class="edge">
<title>udp_datagram__seq:length_type&#45;&gt;udp_datagram__seq:body_size</title>
<path fill="none" stroke="#404040" d="M197.0945,-83.4092C230.6336,-115.2634 220.3398,-168 132.5,-168 49.049,-168 35.5887,-90.8579 63.2107,-49.2568"/>
<polygon fill="#404040" stroke="#404040" points="66.1035,-51.2389 69.4951,-41.2015 60.5844,-46.933 66.1035,-51.2389"/>
</g>
</g>
</svg>
