<?xml version="1.0" encoding="UTF-8" standalone="no"?>
<!DOCTYPE svg PUBLIC "-//W3C//DTD SVG 1.1//EN"
 "http://www.w3.org/Graphics/SVG/1.1/DTD/svg11.dtd">
<!-- Generated by graphviz version 2.43.0 (0)
 -->
<!-- Title: %3 Pages: 1 -->
<svg width="1397pt" height="468pt"
 viewBox="0.00 0.00 1397.00 468.00" xmlns="http://www.w3.org/2000/svg" xmlns:xlink="http://www.w3.org/1999/xlink">
<g id="graph0" class="graph" transform="scale(1 1) rotate(0) translate(4 464)">
<title>%3</title>
<polygon fill="white" stroke="transparent" points="-4,4 -4,-464 1393,-464 1393,4 -4,4"/>
<g id="clust1" class="cluster">
<title>cluster__android_opengl_shaders_cache</title>
<polygon fill="none" stroke="black" stroke-dasharray="1,5" points="8,-8 8,-452 1381,-452 1381,-8 8,-8"/>
<text text-anchor="middle" x="694.5" y="-436.8" font-family="Times,serif" font-size="14.00">AndroidOpenglShadersCache</text>
</g>
<g id="clust2" class="cluster">
<title>cluster__alignment</title>
<polygon fill="none" stroke="black" stroke-dasharray="1,5" points="971,-138 971,-227 1373,-227 1373,-138 971,-138"/>
<text text-anchor="middle" x="1172" y="-211.8" font-family="Times,serif" font-size="14.00">AndroidOpenglShadersCache::Alignment</text>
</g>
<g id="clust3" class="cluster">
<title>cluster__prefixed_string</title>
<polygon fill="none" stroke="black" stroke-dasharray="1,5" points="601,-272 601,-421 940,-421 940,-272 601,-272"/>
<text text-anchor="middle" x="770.5" y="-405.8" font-family="Times,serif" font-size="14.00">AndroidOpenglShadersCache::PrefixedString</text>
</g>
<g id="clust4" class="cluster">
<title>cluster__cache</title>
<polygon fill="none" stroke="black" stroke-dasharray="1,5" points="243,-16 243,-264 943,-264 943,-16 243,-16"/>
<text text-anchor="middle" x="593" y="-248.8" font-family="Times,serif" font-size="14.00">AndroidOpenglShadersCache::Cache</text>
</g>
<g id="clust5" class="cluster">
<title>cluster__entry</title>
<polygon fill="none" stroke="black" stroke-dasharray="1,5" points="607,-24 607,-233 935,-233 935,-24 607,-24"/>
<text text-anchor="middle" x="771" y="-217.8" font-family="Times,serif" font-size="14.00">AndroidOpenglShadersCache::Cache::Entry</text>
</g>
<!-- android_opengl_shaders_cache__seq -->
<g id="node1" class="node">
<title>android_opengl_shaders_cache__seq</title>
<polygon fill="#e0ffe0" stroke="transparent" points="24.5,-198 24.5,-219 55.5,-219 55.5,-198 24.5,-198"/>
<polygon fill="none" stroke="black" points="24.5,-198 24.5,-219 55.5,-219 55.5,-198 24.5,-198"/>
<text text-anchor="start" x="27.5" y="-204.8" font-family="Times,serif" font-size="14.00">pos</text>
<polygon fill="#e0ffe0" stroke="transparent" points="55.5,-198 55.5,-219 89.5,-219 89.5,-198 55.5,-198"/>
<polygon fill="none" stroke="black" points="55.5,-198 55.5,-219 89.5,-219 89.5,-198 55.5,-198"/>
<text text-anchor="start" x="58.5" y="-204.8" font-family="Times,serif" font-size="14.00">size</text>
<polygon fill="#e0ffe0" stroke="transparent" points="89.5,-198 89.5,-219 139.5,-219 139.5,-198 89.5,-198"/>
<polygon fill="none" stroke="black" points="89.5,-198 89.5,-219 139.5,-219 139.5,-198 89.5,-198"/>
<text text-anchor="start" x="98.5" y="-204.8" font-family="Times,serif" font-size="14.00">type</text>
<polygon fill="#e0ffe0" stroke="transparent" points="139.5,-198 139.5,-219 207.5,-219 207.5,-198 139.5,-198"/>
<polygon fill="none" stroke="black" points="139.5,-198 139.5,-219 207.5,-219 207.5,-198 139.5,-198"/>
<text text-anchor="start" x="166.5" y="-204.8" font-family="Times,serif" font-size="14.00">id</text>
<polygon fill="none" stroke="black" points="24.5,-177 24.5,-198 55.5,-198 55.5,-177 24.5,-177"/>
<text text-anchor="start" x="35" y="-183.8" font-family="Times,serif" font-size="14.00">0</text>
<polygon fill="none" stroke="black" points="55.5,-177 55.5,-198 89.5,-198 89.5,-177 55.5,-177"/>
<text text-anchor="start" x="67.5" y="-183.8" font-family="Times,serif" font-size="14.00">4</text>
<polygon fill="none" stroke="black" points="89.5,-177 89.5,-198 139.5,-198 139.5,-177 89.5,-177"/>
<polygon fill="none" stroke="black" points="139.5,-177 139.5,-198 207.5,-198 207.5,-177 139.5,-177"/>
<text text-anchor="start" x="152" y="-183.8" font-family="Times,serif" font-size="14.00">magic</text>
<polygon fill="none" stroke="black" points="24.5,-156 24.5,-177 55.5,-177 55.5,-156 24.5,-156"/>
<text text-anchor="start" x="35" y="-162.8" font-family="Times,serif" font-size="14.00">4</text>
<polygon fill="none" stroke="black" points="55.5,-156 55.5,-177 89.5,-177 89.5,-156 55.5,-156"/>
<text text-anchor="start" x="67.5" y="-162.8" font-family="Times,serif" font-size="14.00">4</text>
<polygon fill="none" stroke="black" points="89.5,-156 89.5,-177 139.5,-177 139.5,-156 89.5,-156"/>
<text text-anchor="start" x="99" y="-162.8" font-family="Times,serif" font-size="14.00">u4le</text>
<polygon fill="none" stroke="black" points="139.5,-156 139.5,-177 207.5,-177 207.5,-156 139.5,-156"/>
<text text-anchor="start" x="153.5" y="-162.8" font-family="Times,serif" font-size="14.00">crc32</text>
<polygon fill="none" stroke="black" points="24.5,-135 24.5,-156 55.5,-156 55.5,-135 24.5,-135"/>
<text text-anchor="start" x="35" y="-141.8" font-family="Times,serif" font-size="14.00">8</text>
<polygon fill="none" stroke="black" points="55.5,-135 55.5,-156 89.5,-156 89.5,-135 55.5,-135"/>
<text text-anchor="start" x="66" y="-141.8" font-family="Times,serif" font-size="14.00">⇲</text>
<polygon fill="none" stroke="black" points="89.5,-135 89.5,-156 139.5,-156 139.5,-135 89.5,-135"/>
<text text-anchor="start" x="92.5" y="-141.8" font-family="Times,serif" font-size="14.00">Cache</text>
<polygon fill="none" stroke="black" points="139.5,-135 139.5,-156 207.5,-156 207.5,-135 139.5,-135"/>
<text text-anchor="start" x="142.5" y="-141.8" font-family="Times,serif" font-size="14.00">contents</text>
</g>
<!-- cache__seq -->
<g id="node4" class="node">
<title>cache__seq</title>
<polygon fill="#e0ffe0" stroke="transparent" points="259,-208 259,-229 290,-229 290,-208 259,-208"/>
<polygon fill="none" stroke="black" points="259,-208 259,-229 290,-229 290,-208 259,-208"/>
<text text-anchor="start" x="262" y="-214.8" font-family="Times,serif" font-size="14.00">pos</text>
<polygon fill="#e0ffe0" stroke="transparent" points="290,-208 290,-229 324,-229 324,-208 290,-208"/>
<polygon fill="none" stroke="black" points="290,-208 290,-229 324,-229 324,-208 290,-208"/>
<text text-anchor="start" x="293" y="-214.8" font-family="Times,serif" font-size="14.00">size</text>
<polygon fill="#e0ffe0" stroke="transparent" points="324,-208 324,-229 435,-229 435,-208 324,-208"/>
<polygon fill="none" stroke="black" points="324,-208 324,-229 435,-229 435,-208 324,-208"/>
<text text-anchor="start" x="363.5" y="-214.8" font-family="Times,serif" font-size="14.00">type</text>
<polygon fill="#e0ffe0" stroke="transparent" points="435,-208 435,-229 547,-229 547,-208 435,-208"/>
<polygon fill="none" stroke="black" points="435,-208 435,-229 547,-229 547,-208 435,-208"/>
<text text-anchor="start" x="484" y="-214.8" font-family="Times,serif" font-size="14.00">id</text>
<polygon fill="none" stroke="black" points="259,-187 259,-208 290,-208 290,-187 259,-187"/>
<text text-anchor="start" x="269.5" y="-193.8" font-family="Times,serif" font-size="14.00">0</text>
<polygon fill="none" stroke="black" points="290,-187 290,-208 324,-208 324,-187 290,-187"/>
<text text-anchor="start" x="302" y="-193.8" font-family="Times,serif" font-size="14.00">4</text>
<polygon fill="none" stroke="black" points="324,-187 324,-208 435,-208 435,-187 324,-187"/>
<polygon fill="none" stroke="black" points="435,-187 435,-208 547,-208 547,-187 435,-187"/>
<text text-anchor="start" x="469.5" y="-193.8" font-family="Times,serif" font-size="14.00">magic</text>
<polygon fill="none" stroke="black" points="259,-166 259,-187 290,-187 290,-166 259,-166"/>
<text text-anchor="start" x="269.5" y="-172.8" font-family="Times,serif" font-size="14.00">4</text>
<polygon fill="none" stroke="black" points="290,-166 290,-187 324,-187 324,-166 290,-166"/>
<text text-anchor="start" x="302" y="-172.8" font-family="Times,serif" font-size="14.00">4</text>
<polygon fill="none" stroke="black" points="324,-166 324,-187 435,-187 435,-166 324,-166"/>
<text text-anchor="start" x="364" y="-172.8" font-family="Times,serif" font-size="14.00">u4le</text>
<polygon fill="none" stroke="black" points="435,-166 435,-187 547,-187 547,-166 435,-166"/>
<text text-anchor="start" x="464.5" y="-172.8" font-family="Times,serif" font-size="14.00">version</text>
<polygon fill="none" stroke="black" points="259,-145 259,-166 290,-166 290,-145 259,-145"/>
<text text-anchor="start" x="269.5" y="-151.8" font-family="Times,serif" font-size="14.00">8</text>
<polygon fill="none" stroke="black" points="290,-145 290,-166 324,-166 324,-145 290,-145"/>
<text text-anchor="start" x="302" y="-151.8" font-family="Times,serif" font-size="14.00">4</text>
<polygon fill="none" stroke="black" points="324,-145 324,-166 435,-166 435,-145 324,-145"/>
<text text-anchor="start" x="364" y="-151.8" font-family="Times,serif" font-size="14.00">u4le</text>
<polygon fill="none" stroke="black" points="435,-145 435,-166 547,-166 547,-145 435,-145"/>
<text text-anchor="start" x="438" y="-151.8" font-family="Times,serif" font-size="14.00">device_version</text>
<polygon fill="none" stroke="black" points="259,-124 259,-145 290,-145 290,-124 259,-124"/>
<text text-anchor="start" x="265" y="-130.8" font-family="Times,serif" font-size="14.00">12</text>
<polygon fill="none" stroke="black" points="290,-124 290,-145 324,-145 324,-124 290,-124"/>
<text text-anchor="start" x="302" y="-130.8" font-family="Times,serif" font-size="14.00">4</text>
<polygon fill="none" stroke="black" points="324,-124 324,-145 435,-145 435,-124 324,-124"/>
<text text-anchor="start" x="364" y="-130.8" font-family="Times,serif" font-size="14.00">u4le</text>
<polygon fill="none" stroke="black" points="435,-124 435,-145 547,-145 547,-124 435,-124"/>
<text text-anchor="start" x="446.5" y="-130.8" font-family="Times,serif" font-size="14.00">num_entries</text>
<polygon fill="none" stroke="black" points="259,-103 259,-124 290,-124 290,-103 259,-103"/>
<text text-anchor="start" x="265" y="-109.8" font-family="Times,serif" font-size="14.00">16</text>
<polygon fill="none" stroke="black" points="290,-103 290,-124 324,-124 324,-103 290,-103"/>
<text text-anchor="start" x="300" y="-109.8" font-family="Times,serif" font-size="14.00">...</text>
<polygon fill="none" stroke="black" points="324,-103 324,-124 435,-124 435,-103 324,-103"/>
<text text-anchor="start" x="327" y="-109.8" font-family="Times,serif" font-size="14.00">PrefixedString</text>
<polygon fill="none" stroke="black" points="435,-103 435,-124 547,-124 547,-103 435,-103"/>
<text text-anchor="start" x="462.5" y="-109.8" font-family="Times,serif" font-size="14.00">build_id</text>
<polygon fill="none" stroke="black" points="259,-82 259,-103 290,-103 290,-82 259,-82"/>
<text text-anchor="start" x="267.5" y="-88.8" font-family="Times,serif" font-size="14.00">...</text>
<polygon fill="none" stroke="black" points="290,-82 290,-103 324,-103 324,-82 290,-82"/>
<text text-anchor="start" x="300" y="-88.8" font-family="Times,serif" font-size="14.00">...</text>
<polygon fill="none" stroke="black" points="324,-82 324,-103 435,-103 435,-82 324,-82"/>
<text text-anchor="start" x="359" y="-88.8" font-family="Times,serif" font-size="14.00">Entry</text>
<polygon fill="none" stroke="black" points="435,-82 435,-103 547,-103 547,-82 435,-82"/>
<text text-anchor="start" x="465.5" y="-88.8" font-family="Times,serif" font-size="14.00">entries</text>
<polygon fill="none" stroke="black" points="259,-61 259,-82 547,-82 547,-61 259,-61"/>
<text text-anchor="start" x="311" y="-67.8" font-family="Times,serif" font-size="14.00">repeat num_entries times</text>
</g>
<!-- android_opengl_shaders_cache__seq&#45;&gt;cache__seq -->
<g id="edge1" class="edge">
<title>android_opengl_shaders_cache__seq:contents_type&#45;&gt;cache__seq</title>
<path fill="none" stroke="black" stroke-width="2" d="M208.5,-145C219.05,-145 229.91,-145 240.87,-145"/>
<polygon fill="black" stroke="black" stroke-width="2" points="240.94,-148.5 250.94,-145 240.94,-141.5 240.94,-148.5"/>
</g>
<!-- alignment__seq -->
<g id="node2" class="node">
<title>alignment__seq</title>
<polygon fill="#e0ffe0" stroke="transparent" points="987,-171 987,-192 1018,-192 1018,-171 987,-171"/>
<polygon fill="none" stroke="black" points="987,-171 987,-192 1018,-192 1018,-171 987,-171"/>
<text text-anchor="start" x="990" y="-177.8" font-family="Times,serif" font-size="14.00">pos</text>
<polygon fill="#e0ffe0" stroke="transparent" points="1018,-171 1018,-192 1240,-192 1240,-171 1018,-171"/>
<polygon fill="none" stroke="black" points="1018,-171 1018,-192 1240,-192 1240,-171 1018,-171"/>
<text text-anchor="start" x="1115" y="-177.8" font-family="Times,serif" font-size="14.00">size</text>
<polygon fill="#e0ffe0" stroke="transparent" points="1240,-171 1240,-192 1278,-192 1278,-171 1240,-171"/>
<polygon fill="none" stroke="black" points="1240,-171 1240,-192 1278,-192 1278,-171 1240,-171"/>
<text text-anchor="start" x="1243" y="-177.8" font-family="Times,serif" font-size="14.00">type</text>
<polygon fill="#e0ffe0" stroke="transparent" points="1278,-171 1278,-192 1357,-192 1357,-171 1278,-171"/>
<polygon fill="none" stroke="black" points="1278,-171 1278,-192 1357,-192 1357,-171 1278,-171"/>
<text text-anchor="start" x="1310.5" y="-177.8" font-family="Times,serif" font-size="14.00">id</text>
<polygon fill="none" stroke="black" points="987,-150 987,-171 1018,-171 1018,-150 987,-150"/>
<text text-anchor="start" x="997.5" y="-156.8" font-family="Times,serif" font-size="14.00">0</text>
<polygon fill="none" stroke="black" points="1018,-150 1018,-171 1240,-171 1240,-150 1018,-150"/>
<text text-anchor="start" x="1021" y="-156.8" font-family="Times,serif" font-size="14.00">((_io.pos + 3) &amp; (~3 &#45; _io.pos))</text>
<polygon fill="none" stroke="black" points="1240,-150 1240,-171 1278,-171 1278,-150 1240,-150"/>
<polygon fill="none" stroke="black" points="1278,-150 1278,-171 1357,-171 1357,-150 1278,-150"/>
<text text-anchor="start" x="1281" y="-156.8" font-family="Times,serif" font-size="14.00">alignment</text>
</g>
<!-- prefixed_string__seq -->
<g id="node3" class="node">
<title>prefixed_string__seq</title>
<polygon fill="#e0ffe0" stroke="transparent" points="648.5,-347 648.5,-368 679.5,-368 679.5,-347 648.5,-347"/>
<polygon fill="none" stroke="black" points="648.5,-347 648.5,-368 679.5,-368 679.5,-347 648.5,-347"/>
<text text-anchor="start" x="651.5" y="-353.8" font-family="Times,serif" font-size="14.00">pos</text>
<polygon fill="#e0ffe0" stroke="transparent" points="679.5,-347 679.5,-368 734.5,-368 734.5,-347 679.5,-347"/>
<polygon fill="none" stroke="black" points="679.5,-347 679.5,-368 734.5,-368 734.5,-347 679.5,-347"/>
<text text-anchor="start" x="693" y="-353.8" font-family="Times,serif" font-size="14.00">size</text>
<polygon fill="#e0ffe0" stroke="transparent" points="734.5,-347 734.5,-368 814.5,-368 814.5,-347 734.5,-347"/>
<polygon fill="none" stroke="black" points="734.5,-347 734.5,-368 814.5,-368 814.5,-347 734.5,-347"/>
<text text-anchor="start" x="758.5" y="-353.8" font-family="Times,serif" font-size="14.00">type</text>
<polygon fill="#e0ffe0" stroke="transparent" points="814.5,-347 814.5,-368 893.5,-368 893.5,-347 814.5,-347"/>
<polygon fill="none" stroke="black" points="814.5,-347 814.5,-368 893.5,-368 893.5,-347 814.5,-347"/>
<text text-anchor="start" x="847" y="-353.8" font-family="Times,serif" font-size="14.00">id</text>
<polygon fill="none" stroke="black" points="648.5,-326 648.5,-347 679.5,-347 679.5,-326 648.5,-326"/>
<text text-anchor="start" x="659" y="-332.8" font-family="Times,serif" font-size="14.00">0</text>
<polygon fill="none" stroke="black" points="679.5,-326 679.5,-347 734.5,-347 734.5,-326 679.5,-326"/>
<text text-anchor="start" x="702" y="-332.8" font-family="Times,serif" font-size="14.00">4</text>
<polygon fill="none" stroke="black" points="734.5,-326 734.5,-347 814.5,-347 814.5,-326 734.5,-326"/>
<text text-anchor="start" x="759" y="-332.8" font-family="Times,serif" font-size="14.00">u4le</text>
<polygon fill="none" stroke="black" points="814.5,-326 814.5,-347 893.5,-347 893.5,-326 814.5,-326"/>
<text text-anchor="start" x="829.5" y="-332.8" font-family="Times,serif" font-size="14.00">len_str</text>
<polygon fill="none" stroke="black" points="648.5,-305 648.5,-326 679.5,-326 679.5,-305 648.5,-305"/>
<text text-anchor="start" x="659" y="-311.8" font-family="Times,serif" font-size="14.00">4</text>
<polygon fill="none" stroke="black" points="679.5,-305 679.5,-326 734.5,-326 734.5,-305 679.5,-305"/>
<text text-anchor="start" x="682.5" y="-311.8" font-family="Times,serif" font-size="14.00">len_str</text>
<polygon fill="none" stroke="black" points="734.5,-305 734.5,-326 814.5,-326 814.5,-305 734.5,-305"/>
<text text-anchor="start" x="742.5" y="-311.8" font-family="Times,serif" font-size="14.00">str(ascii)</text>
<polygon fill="none" stroke="black" points="814.5,-305 814.5,-326 893.5,-326 893.5,-305 814.5,-305"/>
<text text-anchor="start" x="843.5" y="-311.8" font-family="Times,serif" font-size="14.00">str</text>
<polygon fill="none" stroke="black" points="648.5,-284 648.5,-305 679.5,-305 679.5,-284 648.5,-284"/>
<text text-anchor="start" x="657" y="-290.8" font-family="Times,serif" font-size="14.00">...</text>
<polygon fill="none" stroke="black" points="679.5,-284 679.5,-305 734.5,-305 734.5,-284 679.5,-284"/>
<text text-anchor="start" x="700" y="-290.8" font-family="Times,serif" font-size="14.00">...</text>
<polygon fill="none" stroke="black" points="734.5,-284 734.5,-305 814.5,-305 814.5,-284 734.5,-284"/>
<text text-anchor="start" x="737.5" y="-290.8" font-family="Times,serif" font-size="14.00">Alignment</text>
<polygon fill="none" stroke="black" points="814.5,-284 814.5,-305 893.5,-305 893.5,-284 814.5,-284"/>
<text text-anchor="start" x="817.5" y="-290.8" font-family="Times,serif" font-size="14.00">alignment</text>
</g>
<!-- prefixed_string__seq&#45;&gt;alignment__seq -->
<g id="edge3" class="edge">
<title>prefixed_string__seq:alignment_type&#45;&gt;alignment__seq</title>
<path fill="none" stroke="black" stroke-width="2" d="M894.5,-294C984.83,-294 1078.54,-238.52 1130.35,-202.08"/>
<polygon fill="black" stroke="black" stroke-width="2" points="1132.5,-204.85 1138.61,-196.19 1128.43,-199.15 1132.5,-204.85"/>
</g>
<!-- prefixed_string__seq&#45;&gt;prefixed_string__seq -->
<g id="edge2" class="edge">
<title>prefixed_string__seq:len_str_type&#45;&gt;prefixed_string__seq:str_size</title>
<path fill="none" stroke="#404040" d="M888.96,-347.05C942.35,-367.04 921.43,-390 780.5,-390 641.18,-390 619.14,-351.97 670.24,-327.21"/>
<polygon fill="#404040" stroke="#404040" points="671.67,-330.41 679.44,-323.21 668.88,-323.99 671.67,-330.41"/>
</g>
<!-- cache__seq&#45;&gt;prefixed_string__seq -->
<g id="edge4" class="edge">
<title>cache__seq:build_id_type&#45;&gt;prefixed_string__seq</title>
<path fill="none" stroke="black" stroke-width="2" d="M548,-113C607.93,-113 560.39,-192.92 601,-237 614.17,-251.3 630.17,-263.72 647.01,-274.38"/>
<polygon fill="black" stroke="black" stroke-width="2" points="645.52,-277.57 655.88,-279.79 649.17,-271.59 645.52,-277.57"/>
</g>
<!-- cache__seq&#45;&gt;cache__seq -->
<g id="edge6" class="edge">
<title>cache__seq:num_entries_type&#45;&gt;cache__seq:entries__repeat</title>
<path fill="none" stroke="#404040" d="M434.75,-137.38C312.54,-142.06 108,-136.83 108,-102.5 108,-79.03 174.03,-69.16 248.71,-66.76"/>
<polygon fill="#404040" stroke="#404040" points="248.91,-70.26 258.81,-66.48 248.72,-63.26 248.91,-70.26"/>
</g>
<!-- entry__seq -->
<g id="node5" class="node">
<title>entry__seq</title>
<polygon fill="#e0ffe0" stroke="transparent" points="639.5,-141 639.5,-162 670.5,-162 670.5,-141 639.5,-141"/>
<polygon fill="none" stroke="black" points="639.5,-141 639.5,-162 670.5,-162 670.5,-141 639.5,-141"/>
<text text-anchor="start" x="642.5" y="-147.8" font-family="Times,serif" font-size="14.00">pos</text>
<polygon fill="#e0ffe0" stroke="transparent" points="670.5,-141 670.5,-162 743.5,-162 743.5,-141 670.5,-141"/>
<polygon fill="none" stroke="black" points="670.5,-141 670.5,-162 743.5,-162 743.5,-141 670.5,-141"/>
<text text-anchor="start" x="693" y="-147.8" font-family="Times,serif" font-size="14.00">size</text>
<polygon fill="#e0ffe0" stroke="transparent" points="743.5,-141 743.5,-162 823.5,-162 823.5,-141 743.5,-141"/>
<polygon fill="none" stroke="black" points="743.5,-141 743.5,-162 823.5,-162 823.5,-141 743.5,-141"/>
<text text-anchor="start" x="767.5" y="-147.8" font-family="Times,serif" font-size="14.00">type</text>
<polygon fill="#e0ffe0" stroke="transparent" points="823.5,-141 823.5,-162 902.5,-162 902.5,-141 823.5,-141"/>
<polygon fill="none" stroke="black" points="823.5,-141 823.5,-162 902.5,-162 902.5,-141 823.5,-141"/>
<text text-anchor="start" x="856" y="-147.8" font-family="Times,serif" font-size="14.00">id</text>
<polygon fill="none" stroke="black" points="639.5,-120 639.5,-141 670.5,-141 670.5,-120 639.5,-120"/>
<text text-anchor="start" x="650" y="-126.8" font-family="Times,serif" font-size="14.00">0</text>
<polygon fill="none" stroke="black" points="670.5,-120 670.5,-141 743.5,-141 743.5,-120 670.5,-120"/>
<text text-anchor="start" x="702" y="-126.8" font-family="Times,serif" font-size="14.00">4</text>
<polygon fill="none" stroke="black" points="743.5,-120 743.5,-141 823.5,-141 823.5,-120 743.5,-120"/>
<text text-anchor="start" x="768" y="-126.8" font-family="Times,serif" font-size="14.00">u4le</text>
<polygon fill="none" stroke="black" points="823.5,-120 823.5,-141 902.5,-141 902.5,-120 823.5,-120"/>
<text text-anchor="start" x="836" y="-126.8" font-family="Times,serif" font-size="14.00">len_key</text>
<polygon fill="none" stroke="black" points="639.5,-99 639.5,-120 670.5,-120 670.5,-99 639.5,-99"/>
<text text-anchor="start" x="650" y="-105.8" font-family="Times,serif" font-size="14.00">4</text>
<polygon fill="none" stroke="black" points="670.5,-99 670.5,-120 743.5,-120 743.5,-99 670.5,-99"/>
<text text-anchor="start" x="702" y="-105.8" font-family="Times,serif" font-size="14.00">4</text>
<polygon fill="none" stroke="black" points="743.5,-99 743.5,-120 823.5,-120 823.5,-99 743.5,-99"/>
<text text-anchor="start" x="768" y="-105.8" font-family="Times,serif" font-size="14.00">u4le</text>
<polygon fill="none" stroke="black" points="823.5,-99 823.5,-120 902.5,-120 902.5,-99 823.5,-99"/>
<text text-anchor="start" x="829.5" y="-105.8" font-family="Times,serif" font-size="14.00">len_value</text>
<polygon fill="none" stroke="black" points="639.5,-78 639.5,-99 670.5,-99 670.5,-78 639.5,-78"/>
<text text-anchor="start" x="650" y="-84.8" font-family="Times,serif" font-size="14.00">8</text>
<polygon fill="none" stroke="black" points="670.5,-78 670.5,-99 743.5,-99 743.5,-78 670.5,-78"/>
<text text-anchor="start" x="680" y="-84.8" font-family="Times,serif" font-size="14.00">len_key</text>
<polygon fill="none" stroke="black" points="743.5,-78 743.5,-99 823.5,-99 823.5,-78 743.5,-78"/>
<polygon fill="none" stroke="black" points="823.5,-78 823.5,-99 902.5,-99 902.5,-78 823.5,-78"/>
<text text-anchor="start" x="850.5" y="-84.8" font-family="Times,serif" font-size="14.00">key</text>
<polygon fill="none" stroke="black" points="639.5,-57 639.5,-78 670.5,-78 670.5,-57 639.5,-57"/>
<text text-anchor="start" x="648" y="-63.8" font-family="Times,serif" font-size="14.00">...</text>
<polygon fill="none" stroke="black" points="670.5,-57 670.5,-78 743.5,-78 743.5,-57 670.5,-57"/>
<text text-anchor="start" x="673.5" y="-63.8" font-family="Times,serif" font-size="14.00">len_value</text>
<polygon fill="none" stroke="black" points="743.5,-57 743.5,-78 823.5,-78 823.5,-57 743.5,-57"/>
<polygon fill="none" stroke="black" points="823.5,-57 823.5,-78 902.5,-78 902.5,-57 823.5,-57"/>
<text text-anchor="start" x="843.5" y="-63.8" font-family="Times,serif" font-size="14.00">value</text>
<polygon fill="none" stroke="black" points="639.5,-36 639.5,-57 670.5,-57 670.5,-36 639.5,-36"/>
<text text-anchor="start" x="648" y="-42.8" font-family="Times,serif" font-size="14.00">...</text>
<polygon fill="none" stroke="black" points="670.5,-36 670.5,-57 743.5,-57 743.5,-36 670.5,-36"/>
<text text-anchor="start" x="700" y="-42.8" font-family="Times,serif" font-size="14.00">...</text>
<polygon fill="none" stroke="black" points="743.5,-36 743.5,-57 823.5,-57 823.5,-36 743.5,-36"/>
<text text-anchor="start" x="746.5" y="-42.8" font-family="Times,serif" font-size="14.00">Alignment</text>
<polygon fill="none" stroke="black" points="823.5,-36 823.5,-57 902.5,-57 902.5,-36 823.5,-36"/>
<text text-anchor="start" x="826.5" y="-42.8" font-family="Times,serif" font-size="14.00">alignment</text>
</g>
<!-- cache__seq&#45;&gt;entry__seq -->
<g id="edge5" class="edge">
<title>cache__seq:entries_type&#45;&gt;entry__seq</title>
<path fill="none" stroke="black" stroke-width="2" d="M548,-92C571.59,-92 596.58,-92.4 620.95,-93.01"/>
<polygon fill="black" stroke="black" stroke-width="2" points="620.89,-96.51 630.98,-93.28 621.08,-89.51 620.89,-96.51"/>
</g>
<!-- entry__seq&#45;&gt;alignment__seq -->
<g id="edge9" class="edge">
<title>entry__seq:alignment_type&#45;&gt;alignment__seq</title>
<path fill="none" stroke="black" stroke-width="2" d="M903.5,-46C991.69,-46 1082.16,-102.46 1132.02,-139.49"/>
<polygon fill="black" stroke="black" stroke-width="2" points="1130.16,-142.47 1140.25,-145.7 1134.38,-136.89 1130.16,-142.47"/>
</g>
<!-- entry__seq&#45;&gt;entry__seq -->
<g id="edge7" class="edge">
<title>entry__seq:len_key_type&#45;&gt;entry__seq:key_size</title>
<path fill="none" stroke="#404040" d="M892.58,-141.09C952.51,-164.95 934.41,-184 785,-184 642.23,-184 619.36,-136.27 669.9,-104.2"/>
<polygon fill="#404040" stroke="#404040" points="671.7,-107.21 678.63,-99.2 668.22,-101.13 671.7,-107.21"/>
</g>
<!-- entry__seq&#45;&gt;entry__seq -->
<g id="edge8" class="edge">
<title>entry__seq:len_value_type&#45;&gt;entry__seq:value_size</title>
<path fill="none" stroke="#404040" d="M890.55,-120.02C952.89,-147.94 936.07,-184 785,-184 640.67,-184 618.88,-120.09 671.58,-83.45"/>
<polygon fill="#404040" stroke="#404040" points="673.64,-86.29 680.28,-78.03 669.94,-80.35 673.64,-86.29"/>
</g>
</g>
</svg>
