<?xml version="1.0" encoding="UTF-8" standalone="no"?>
<!DOCTYPE svg PUBLIC "-//W3C//DTD SVG 1.1//EN"
 "http://www.w3.org/Graphics/SVG/1.1/DTD/svg11.dtd">
<!-- Generated by graphviz version 2.43.0 (0)
 -->
<!-- Title: %3 Pages: 1 -->
<svg width="8393pt" height="525pt"
 viewBox="0.00 0.00 8393.00 525.00" xmlns="http://www.w3.org/2000/svg" xmlns:xlink="http://www.w3.org/1999/xlink">
<g id="graph0" class="graph" transform="scale(1 1) rotate(0) translate(4 521)">
<title>%3</title>
<polygon fill="white" stroke="transparent" points="-4,4 -4,-521 8389,-521 8389,4 -4,4"/>
<g id="clust1" class="cluster">
<title>cluster__xar</title>
<polygon fill="none" stroke="black" stroke-dasharray="1,5" points="8,-8 8,-509 8377,-509 8377,-8 8,-8"/>
<text text-anchor="middle" x="4192.5" y="-493.8" font-family="Times,serif" font-size="14.00">Xar</text>
</g>
<g id="clust2" class="cluster">
<title>cluster__file_header</title>
<polygon fill="none" stroke="black" stroke-dasharray="1,5" points="532,-173 532,-478 8369,-478 8369,-173 532,-173"/>
<text text-anchor="middle" x="4450.5" y="-462.8" font-family="Times,serif" font-size="14.00">Xar::FileHeader</text>
</g>
<g id="clust3" class="cluster">
<title>cluster__file_header_prefix</title>
<polygon fill="none" stroke="black" stroke-dasharray="1,5" points="123,-366 123,-477 397,-477 397,-366 123,-366"/>
<text text-anchor="middle" x="260" y="-461.8" font-family="Times,serif" font-size="14.00">Xar::FileHeaderPrefix</text>
</g>
<g id="clust4" class="cluster">
<title>cluster__toc_type</title>
<polygon fill="none" stroke="black" stroke-dasharray="1,5" points="586.5,-76 586.5,-165 846.5,-165 846.5,-76 586.5,-76"/>
<text text-anchor="middle" x="716.5" y="-149.8" font-family="Times,serif" font-size="14.00">Xar::TocType</text>
</g>
<!-- xar__seq -->
<g id="node1" class="node">
<title>xar__seq</title>
<polygon fill="#e0ffe0" stroke="transparent" points="24,-312 24,-333 55,-333 55,-312 24,-312"/>
<polygon fill="none" stroke="black" points="24,-312 24,-333 55,-333 55,-312 24,-312"/>
<text text-anchor="start" x="27" y="-318.8" font-family="Times,serif" font-size="14.00">pos</text>
<polygon fill="#e0ffe0" stroke="transparent" points="55,-312 55,-333 264,-333 264,-312 55,-312"/>
<polygon fill="none" stroke="black" points="55,-312 55,-333 264,-333 264,-312 55,-312"/>
<text text-anchor="start" x="145.5" y="-318.8" font-family="Times,serif" font-size="14.00">size</text>
<polygon fill="#e0ffe0" stroke="transparent" points="264,-312 264,-333 392,-333 392,-312 264,-312"/>
<polygon fill="none" stroke="black" points="264,-312 264,-333 392,-333 392,-312 264,-312"/>
<text text-anchor="start" x="312" y="-318.8" font-family="Times,serif" font-size="14.00">type</text>
<polygon fill="#e0ffe0" stroke="transparent" points="392,-312 392,-333 496,-333 496,-312 392,-312"/>
<polygon fill="none" stroke="black" points="392,-312 392,-333 496,-333 496,-312 392,-312"/>
<text text-anchor="start" x="437" y="-318.8" font-family="Times,serif" font-size="14.00">id</text>
<polygon fill="none" stroke="black" points="24,-291 24,-312 55,-312 55,-291 24,-291"/>
<text text-anchor="start" x="34.5" y="-297.8" font-family="Times,serif" font-size="14.00">0</text>
<polygon fill="none" stroke="black" points="55,-291 55,-312 264,-312 264,-291 55,-291"/>
<text text-anchor="start" x="154.5" y="-297.8" font-family="Times,serif" font-size="14.00">6</text>
<polygon fill="none" stroke="black" points="264,-291 264,-312 392,-312 392,-291 264,-291"/>
<text text-anchor="start" x="267" y="-297.8" font-family="Times,serif" font-size="14.00">FileHeaderPrefix</text>
<polygon fill="none" stroke="black" points="392,-291 392,-312 496,-312 496,-291 392,-291"/>
<text text-anchor="start" x="395" y="-297.8" font-family="Times,serif" font-size="14.00">header_prefix</text>
<polygon fill="none" stroke="black" points="24,-270 24,-291 55,-291 55,-270 24,-270"/>
<text text-anchor="start" x="34.5" y="-276.8" font-family="Times,serif" font-size="14.00">6</text>
<polygon fill="none" stroke="black" points="55,-270 55,-291 264,-291 264,-270 55,-270"/>
<text text-anchor="start" x="58" y="-276.8" font-family="Times,serif" font-size="14.00">header_prefix.len_header &#45; 6</text>
<polygon fill="none" stroke="black" points="264,-270 264,-291 392,-291 392,-270 264,-270"/>
<text text-anchor="start" x="288" y="-276.8" font-family="Times,serif" font-size="14.00">FileHeader</text>
<polygon fill="none" stroke="black" points="392,-270 392,-291 496,-291 496,-270 392,-270"/>
<text text-anchor="start" x="419" y="-276.8" font-family="Times,serif" font-size="14.00">header</text>
<polygon fill="none" stroke="black" points="24,-249 24,-270 55,-270 55,-249 24,-249"/>
<text text-anchor="start" x="32.5" y="-255.8" font-family="Times,serif" font-size="14.00">...</text>
<polygon fill="none" stroke="black" points="55,-249 55,-270 264,-270 264,-249 55,-249"/>
<text text-anchor="start" x="61.5" y="-255.8" font-family="Times,serif" font-size="14.00">header.len_toc_compressed</text>
<polygon fill="none" stroke="black" points="264,-249 264,-270 392,-270 392,-249 264,-249"/>
<text text-anchor="start" x="298.5" y="-255.8" font-family="Times,serif" font-size="14.00">TocType</text>
<polygon fill="none" stroke="black" points="392,-249 392,-270 496,-270 496,-249 392,-249"/>
<text text-anchor="start" x="433" y="-255.8" font-family="Times,serif" font-size="14.00">toc</text>
</g>
<!-- xar__seq&#45;&gt;xar__seq -->
<g id="edge3" class="edge">
<title>xar__seq:header_prefix_size&#45;&gt;xar__seq:header_size</title>
<path fill="none" stroke="#404040" d="M115.77,-312.05C47.51,-332.04 61.92,-355 159,-355 251.76,-355 269.04,-319.47 210.85,-294.73"/>
<polygon fill="#404040" stroke="#404040" points="211.87,-291.38 201.29,-291.02 209.34,-297.9 211.87,-291.38"/>
</g>
<!-- file_header__seq -->
<g id="node3" class="node">
<title>file_header__seq</title>
<polygon fill="#e0ffe0" stroke="transparent" points="548.5,-353 548.5,-374 579.5,-374 579.5,-353 548.5,-353"/>
<polygon fill="none" stroke="black" points="548.5,-353 548.5,-374 579.5,-374 579.5,-353 548.5,-353"/>
<text text-anchor="start" x="551.5" y="-359.8" font-family="Times,serif" font-size="14.00">pos</text>
<polygon fill="#e0ffe0" stroke="transparent" points="579.5,-353 579.5,-374 613.5,-374 613.5,-353 579.5,-353"/>
<polygon fill="none" stroke="black" points="579.5,-353 579.5,-374 613.5,-374 613.5,-353 579.5,-353"/>
<text text-anchor="start" x="582.5" y="-359.8" font-family="Times,serif" font-size="14.00">size</text>
<polygon fill="#e0ffe0" stroke="transparent" points="613.5,-353 613.5,-374 694.5,-374 694.5,-353 613.5,-353"/>
<polygon fill="none" stroke="black" points="613.5,-353 613.5,-374 694.5,-374 694.5,-353 613.5,-353"/>
<text text-anchor="start" x="638" y="-359.8" font-family="Times,serif" font-size="14.00">type</text>
<polygon fill="#e0ffe0" stroke="transparent" points="694.5,-353 694.5,-374 885.5,-374 885.5,-353 694.5,-353"/>
<polygon fill="none" stroke="black" points="694.5,-353 694.5,-374 885.5,-374 885.5,-353 694.5,-353"/>
<text text-anchor="start" x="783" y="-359.8" font-family="Times,serif" font-size="14.00">id</text>
<polygon fill="none" stroke="black" points="548.5,-332 548.5,-353 579.5,-353 579.5,-332 548.5,-332"/>
<text text-anchor="start" x="559" y="-338.8" font-family="Times,serif" font-size="14.00">0</text>
<polygon fill="none" stroke="black" points="579.5,-332 579.5,-353 613.5,-353 613.5,-332 579.5,-332"/>
<text text-anchor="start" x="591.5" y="-338.8" font-family="Times,serif" font-size="14.00">2</text>
<polygon fill="none" stroke="black" points="613.5,-332 613.5,-353 694.5,-353 694.5,-332 613.5,-332"/>
<text text-anchor="start" x="636" y="-338.8" font-family="Times,serif" font-size="14.00">u2be</text>
<polygon fill="none" stroke="black" points="694.5,-332 694.5,-353 885.5,-353 885.5,-332 694.5,-332"/>
<text text-anchor="start" x="763.5" y="-338.8" font-family="Times,serif" font-size="14.00">version</text>
<polygon fill="none" stroke="black" points="548.5,-311 548.5,-332 885.5,-332 885.5,-311 548.5,-311"/>
<text text-anchor="start" x="650" y="-317.8" font-family="Times,serif" font-size="14.00">must be equal to 1</text>
<polygon fill="none" stroke="black" points="548.5,-290 548.5,-311 579.5,-311 579.5,-290 548.5,-290"/>
<text text-anchor="start" x="559" y="-296.8" font-family="Times,serif" font-size="14.00">2</text>
<polygon fill="none" stroke="black" points="579.5,-290 579.5,-311 613.5,-311 613.5,-290 579.5,-290"/>
<text text-anchor="start" x="591.5" y="-296.8" font-family="Times,serif" font-size="14.00">8</text>
<polygon fill="none" stroke="black" points="613.5,-290 613.5,-311 694.5,-311 694.5,-290 613.5,-290"/>
<text text-anchor="start" x="636" y="-296.8" font-family="Times,serif" font-size="14.00">u8be</text>
<polygon fill="none" stroke="black" points="694.5,-290 694.5,-311 885.5,-311 885.5,-290 694.5,-290"/>
<text text-anchor="start" x="718.5" y="-296.8" font-family="Times,serif" font-size="14.00">len_toc_compressed</text>
<polygon fill="none" stroke="black" points="548.5,-269 548.5,-290 579.5,-290 579.5,-269 548.5,-269"/>
<text text-anchor="start" x="554.5" y="-275.8" font-family="Times,serif" font-size="14.00">10</text>
<polygon fill="none" stroke="black" points="579.5,-269 579.5,-290 613.5,-290 613.5,-269 579.5,-269"/>
<text text-anchor="start" x="591.5" y="-275.8" font-family="Times,serif" font-size="14.00">8</text>
<polygon fill="none" stroke="black" points="613.5,-269 613.5,-290 694.5,-290 694.5,-269 613.5,-269"/>
<text text-anchor="start" x="636" y="-275.8" font-family="Times,serif" font-size="14.00">u8be</text>
<polygon fill="none" stroke="black" points="694.5,-269 694.5,-290 885.5,-290 885.5,-269 694.5,-269"/>
<text text-anchor="start" x="697.5" y="-275.8" font-family="Times,serif" font-size="14.00">toc_length_uncompressed</text>
<polygon fill="none" stroke="black" points="548.5,-248 548.5,-269 579.5,-269 579.5,-248 548.5,-248"/>
<text text-anchor="start" x="554.5" y="-254.8" font-family="Times,serif" font-size="14.00">18</text>
<polygon fill="none" stroke="black" points="579.5,-248 579.5,-269 613.5,-269 613.5,-248 579.5,-248"/>
<text text-anchor="start" x="591.5" y="-254.8" font-family="Times,serif" font-size="14.00">4</text>
<polygon fill="none" stroke="black" points="613.5,-248 613.5,-269 694.5,-269 694.5,-248 613.5,-248"/>
<text text-anchor="start" x="636" y="-254.8" font-family="Times,serif" font-size="14.00">u4be</text>
<polygon fill="none" stroke="black" points="694.5,-248 694.5,-269 885.5,-269 885.5,-248 694.5,-248"/>
<text text-anchor="start" x="703" y="-254.8" font-family="Times,serif" font-size="14.00">checksum_algorithm_int</text>
<polygon fill="none" stroke="black" points="548.5,-227 548.5,-248 579.5,-248 579.5,-227 548.5,-227"/>
<text text-anchor="start" x="554.5" y="-233.8" font-family="Times,serif" font-size="14.00">22</text>
<polygon fill="none" stroke="black" points="579.5,-227 579.5,-248 613.5,-248 613.5,-227 579.5,-227"/>
<text text-anchor="start" x="590" y="-233.8" font-family="Times,serif" font-size="14.00">⇲</text>
<polygon fill="none" stroke="black" points="613.5,-227 613.5,-248 694.5,-248 694.5,-227 613.5,-227"/>
<text text-anchor="start" x="616.5" y="-233.8" font-family="Times,serif" font-size="14.00">str(UTF&#45;8)</text>
<polygon fill="none" stroke="black" points="694.5,-227 694.5,-248 885.5,-248 885.5,-227 694.5,-227"/>
<text text-anchor="start" x="717.5" y="-233.8" font-family="Times,serif" font-size="14.00">checksum_alg_name</text>
<polygon fill="none" stroke="black" points="548.5,-206 548.5,-227 885.5,-227 885.5,-206 548.5,-206"/>
<text text-anchor="start" x="568.5" y="-212.8" font-family="Times,serif" font-size="14.00">must satisfy &#160;((_ != &quot;&quot;) &amp;&amp; (_ != &quot;none&quot;)) </text>
<polygon fill="none" stroke="black" points="548.5,-185 548.5,-206 885.5,-206 885.5,-185 548.5,-185"/>
<text text-anchor="start" x="621.5" y="-191.8" font-family="Times,serif" font-size="14.00">if has_checksum_alg_name</text>
</g>
<!-- xar__seq&#45;&gt;file_header__seq -->
<g id="edge4" class="edge">
<title>xar__seq:header_type&#45;&gt;file_header__seq</title>
<path fill="none" stroke="black" stroke-width="2" d="M497,-280C507.67,-280 518.64,-280 529.71,-280"/>
<polygon fill="black" stroke="black" stroke-width="2" points="529.89,-283.5 539.89,-280 529.89,-276.5 529.89,-283.5"/>
</g>
<!-- file_header_prefix__seq -->
<g id="node7" class="node">
<title>file_header_prefix__seq</title>
<polygon fill="#e0ffe0" stroke="transparent" points="139,-420 139,-441 170,-441 170,-420 139,-420"/>
<polygon fill="none" stroke="black" points="139,-420 139,-441 170,-441 170,-420 139,-420"/>
<text text-anchor="start" x="142" y="-426.8" font-family="Times,serif" font-size="14.00">pos</text>
<polygon fill="#e0ffe0" stroke="transparent" points="170,-420 170,-441 204,-441 204,-420 170,-420"/>
<polygon fill="none" stroke="black" points="170,-420 170,-441 204,-441 204,-420 170,-420"/>
<text text-anchor="start" x="173" y="-426.8" font-family="Times,serif" font-size="14.00">size</text>
<polygon fill="#e0ffe0" stroke="transparent" points="204,-420 204,-441 296,-441 296,-420 204,-420"/>
<polygon fill="none" stroke="black" points="204,-420 204,-441 296,-441 296,-420 204,-420"/>
<text text-anchor="start" x="234" y="-426.8" font-family="Times,serif" font-size="14.00">type</text>
<polygon fill="#e0ffe0" stroke="transparent" points="296,-420 296,-441 381,-441 381,-420 296,-420"/>
<polygon fill="none" stroke="black" points="296,-420 296,-441 381,-441 381,-420 296,-420"/>
<text text-anchor="start" x="331.5" y="-426.8" font-family="Times,serif" font-size="14.00">id</text>
<polygon fill="none" stroke="black" points="139,-399 139,-420 170,-420 170,-399 139,-399"/>
<text text-anchor="start" x="149.5" y="-405.8" font-family="Times,serif" font-size="14.00">0</text>
<polygon fill="none" stroke="black" points="170,-399 170,-420 204,-420 204,-399 170,-399"/>
<text text-anchor="start" x="182" y="-405.8" font-family="Times,serif" font-size="14.00">4</text>
<polygon fill="none" stroke="black" points="204,-399 204,-420 296,-420 296,-399 204,-399"/>
<text text-anchor="start" x="207" y="-405.8" font-family="Times,serif" font-size="14.00">78 61 72 21</text>
<polygon fill="none" stroke="black" points="296,-399 296,-420 381,-420 381,-399 296,-399"/>
<text text-anchor="start" x="317" y="-405.8" font-family="Times,serif" font-size="14.00">magic</text>
<polygon fill="none" stroke="black" points="139,-378 139,-399 170,-399 170,-378 139,-378"/>
<text text-anchor="start" x="149.5" y="-384.8" font-family="Times,serif" font-size="14.00">4</text>
<polygon fill="none" stroke="black" points="170,-378 170,-399 204,-399 204,-378 170,-378"/>
<text text-anchor="start" x="182" y="-384.8" font-family="Times,serif" font-size="14.00">2</text>
<polygon fill="none" stroke="black" points="204,-378 204,-399 296,-399 296,-378 204,-378"/>
<text text-anchor="start" x="232" y="-384.8" font-family="Times,serif" font-size="14.00">u2be</text>
<polygon fill="none" stroke="black" points="296,-378 296,-399 381,-399 381,-378 296,-378"/>
<text text-anchor="start" x="299" y="-384.8" font-family="Times,serif" font-size="14.00">len_header</text>
</g>
<!-- xar__seq&#45;&gt;file_header_prefix__seq -->
<g id="edge1" class="edge">
<title>xar__seq:header_prefix_type&#45;&gt;file_header_prefix__seq</title>
<path fill="none" stroke="black" stroke-width="2" d="M399.03,-381.05C442.57,-369.34 482.75,-354.38 496,-337 505.44,-324.63 512.56,-302 497,-302"/>
<polygon fill="black" stroke="black" stroke-width="2" points="397.89,-377.73 389.11,-383.65 399.67,-384.5 397.89,-377.73"/>
</g>
<!-- toc_type__seq -->
<g id="node8" class="node">
<title>toc_type__seq</title>
<polygon fill="#e0ffe0" stroke="transparent" points="602.5,-109 602.5,-130 633.5,-130 633.5,-109 602.5,-109"/>
<polygon fill="none" stroke="black" points="602.5,-109 602.5,-130 633.5,-130 633.5,-109 602.5,-109"/>
<text text-anchor="start" x="605.5" y="-115.8" font-family="Times,serif" font-size="14.00">pos</text>
<polygon fill="#e0ffe0" stroke="transparent" points="633.5,-109 633.5,-130 667.5,-130 667.5,-109 633.5,-109"/>
<polygon fill="none" stroke="black" points="633.5,-109 633.5,-130 667.5,-130 667.5,-109 633.5,-109"/>
<text text-anchor="start" x="636.5" y="-115.8" font-family="Times,serif" font-size="14.00">size</text>
<polygon fill="#e0ffe0" stroke="transparent" points="667.5,-109 667.5,-130 748.5,-130 748.5,-109 667.5,-109"/>
<polygon fill="none" stroke="black" points="667.5,-109 667.5,-130 748.5,-130 748.5,-109 667.5,-109"/>
<text text-anchor="start" x="692" y="-115.8" font-family="Times,serif" font-size="14.00">type</text>
<polygon fill="#e0ffe0" stroke="transparent" points="748.5,-109 748.5,-130 830.5,-130 830.5,-109 748.5,-109"/>
<polygon fill="none" stroke="black" points="748.5,-109 748.5,-130 830.5,-130 830.5,-109 748.5,-109"/>
<text text-anchor="start" x="782.5" y="-115.8" font-family="Times,serif" font-size="14.00">id</text>
<polygon fill="none" stroke="black" points="602.5,-88 602.5,-109 633.5,-109 633.5,-88 602.5,-88"/>
<text text-anchor="start" x="613" y="-94.8" font-family="Times,serif" font-size="14.00">0</text>
<polygon fill="none" stroke="black" points="633.5,-88 633.5,-109 667.5,-109 667.5,-88 633.5,-88"/>
<text text-anchor="start" x="644" y="-94.8" font-family="Times,serif" font-size="14.00">⇲</text>
<polygon fill="none" stroke="black" points="667.5,-88 667.5,-109 748.5,-109 748.5,-88 667.5,-88"/>
<text text-anchor="start" x="670.5" y="-94.8" font-family="Times,serif" font-size="14.00">str(UTF&#45;8)</text>
<polygon fill="none" stroke="black" points="748.5,-88 748.5,-109 830.5,-109 830.5,-88 748.5,-88"/>
<text text-anchor="start" x="751.5" y="-94.8" font-family="Times,serif" font-size="14.00">xml_string</text>
</g>
<!-- xar__seq&#45;&gt;toc_type__seq -->
<g id="edge6" class="edge">
<title>xar__seq:toc_type&#45;&gt;toc_type__seq</title>
<path fill="none" stroke="black" stroke-width="2" d="M497,-259C539.92,-259 500.83,-198.5 532,-169 546.96,-154.84 565.31,-144.02 584.56,-135.76"/>
<polygon fill="black" stroke="black" stroke-width="2" points="586.11,-138.9 594.07,-131.9 583.48,-132.42 586.11,-138.9"/>
</g>
<!-- xar__inst__checksum_algorithm_other -->
<g id="node2" class="node">
<title>xar__inst__checksum_algorithm_other</title>
<polygon fill="#e0ffe0" stroke="transparent" points="594.5,-41 594.5,-62 793.5,-62 793.5,-41 594.5,-41"/>
<polygon fill="none" stroke="black" points="594.5,-41 594.5,-62 793.5,-62 793.5,-41 594.5,-41"/>
<text text-anchor="start" x="687" y="-47.8" font-family="Times,serif" font-size="14.00">id</text>
<polygon fill="#e0ffe0" stroke="transparent" points="793.5,-41 793.5,-62 838.5,-62 838.5,-41 793.5,-41"/>
<polygon fill="none" stroke="black" points="793.5,-41 793.5,-62 838.5,-62 838.5,-41 793.5,-41"/>
<text text-anchor="start" x="796.5" y="-47.8" font-family="Times,serif" font-size="14.00">value</text>
<polygon fill="none" stroke="black" points="594.5,-20 594.5,-41 793.5,-41 793.5,-20 594.5,-20"/>
<text text-anchor="start" x="597.5" y="-26.8" font-family="Times,serif" font-size="14.00">checksum_algorithm_other</text>
<polygon fill="none" stroke="black" points="793.5,-20 793.5,-41 838.5,-41 838.5,-20 793.5,-20"/>
<text text-anchor="start" x="811" y="-26.8" font-family="Times,serif" font-size="14.00">3</text>
</g>
<!-- file_header__inst__has_checksum_alg_name -->
<g id="node5" class="node">
<title>file_header__inst__has_checksum_alg_name</title>
<polygon fill="#e0ffe0" stroke="transparent" points="937.5,-242 937.5,-263 1120.5,-263 1120.5,-242 937.5,-242"/>
<polygon fill="none" stroke="black" points="937.5,-242 937.5,-263 1120.5,-263 1120.5,-242 937.5,-242"/>
<text text-anchor="start" x="1022" y="-248.8" font-family="Times,serif" font-size="14.00">id</text>
<polygon fill="#e0ffe0" stroke="transparent" points="1120.5,-242 1120.5,-263 1966.5,-263 1966.5,-242 1120.5,-242"/>
<polygon fill="none" stroke="black" points="1120.5,-242 1120.5,-263 1966.5,-263 1966.5,-242 1120.5,-242"/>
<text text-anchor="start" x="1524" y="-248.8" font-family="Times,serif" font-size="14.00">value</text>
<polygon fill="none" stroke="black" points="937.5,-221 937.5,-242 1120.5,-242 1120.5,-221 937.5,-221"/>
<text text-anchor="start" x="940.5" y="-227.8" font-family="Times,serif" font-size="14.00">has_checksum_alg_name</text>
<polygon fill="none" stroke="black" points="1120.5,-221 1120.5,-242 1966.5,-242 1966.5,-221 1120.5,-221"/>
<text text-anchor="start" x="1123.5" y="-227.8" font-family="Times,serif" font-size="14.00"> ((checksum_algorithm_int == _root.checksum_algorithm_other) &amp;&amp; (len_header &gt;= 32) &amp;&amp; (len_header % 4 == 0)) </text>
</g>
<!-- xar__inst__checksum_algorithm_other&#45;&gt;file_header__inst__has_checksum_alg_name -->
<g id="edge12" class="edge">
<title>xar__inst__checksum_algorithm_other:checksum_algorithm_other_type&#45;&gt;file_header__inst__has_checksum_alg_name</title>
<path fill="none" stroke="#404040" d="M846.78,-62C862.41,-65.08 878.11,-68.43 893,-72 1064.45,-113.12 1260.78,-177.02 1368.69,-213.64"/>
<polygon fill="#404040" stroke="#404040" points="1367.62,-216.97 1378.22,-216.88 1369.88,-210.35 1367.62,-216.97"/>
</g>
<!-- file_header__seq&#45;&gt;xar__seq -->
<g id="edge5" class="edge">
<title>file_header__seq:len_toc_compressed_type&#45;&gt;xar__seq:toc_size</title>
<path fill="none" stroke="#404040" d="M886.5,-301C920.95,-301 910.01,-354.3 885.5,-378.5 871.84,-391.98 555.28,-390.11 540,-378.5 492.44,-342.36 551.51,-285.21 504,-249 384.79,-158.14 168.97,-97.44 159.33,-237.99"/>
<polygon fill="#404040" stroke="#404040" points="155.84,-237.89 159,-248 162.83,-238.12 155.84,-237.89"/>
</g>
<!-- file_header__inst__checksum_algorithm_name -->
<g id="node4" class="node">
<title>file_header__inst__checksum_algorithm_name</title>
<polygon fill="#e0ffe0" stroke="transparent" points="2018.5,-242 2018.5,-263 2217.5,-263 2217.5,-242 2018.5,-242"/>
<polygon fill="none" stroke="black" points="2018.5,-242 2018.5,-263 2217.5,-263 2217.5,-242 2018.5,-242"/>
<text text-anchor="start" x="2111" y="-248.8" font-family="Times,serif" font-size="14.00">id</text>
<polygon fill="#e0ffe0" stroke="transparent" points="2217.5,-242 2217.5,-263 8353.5,-263 8353.5,-242 2217.5,-242"/>
<polygon fill="none" stroke="black" points="2217.5,-242 2217.5,-263 8353.5,-263 8353.5,-242 2217.5,-242"/>
<text text-anchor="start" x="5266" y="-248.8" font-family="Times,serif" font-size="14.00">value</text>
<polygon fill="none" stroke="black" points="2018.5,-221 2018.5,-242 2217.5,-242 2217.5,-221 2018.5,-221"/>
<text text-anchor="start" x="2021.5" y="-227.8" font-family="Times,serif" font-size="14.00">checksum_algorithm_name</text>
<polygon fill="none" stroke="black" points="2217.5,-221 2217.5,-242 8353.5,-242 8353.5,-221 2217.5,-221"/>
<text text-anchor="start" x="2220.5" y="-227.8" font-family="Times,serif" font-size="14.00">(has_checksum_alg_name ? checksum_alg_name : (checksum_algorithm_int == (Xar::I__CHECKSUM_ALGORITHMS_APPLE[:checksum_algorithms_apple_none] || :checksum_algorithms_apple_none) ? &quot;none&quot; : (checksum_algorithm_int == (Xar::I__CHECKSUM_ALGORITHMS_APPLE[:checksum_algorithms_apple_sha1] || :checksum_algorithms_apple_sha1) ? &quot;sha1&quot; : (checksum_algorithm_int == (Xar::I__CHECKSUM_ALGORITHMS_APPLE[:checksum_algorithms_apple_md5] || :checksum_algorithms_apple_md5) ? &quot;md5&quot; : (checksum_algorithm_int == (Xar::I__CHECKSUM_ALGORITHMS_APPLE[:checksum_algorithms_apple_sha256] || :checksum_algorithms_apple_sha256) ? &quot;sha256&quot; : (checksum_algorithm_int == (Xar::I__CHECKSUM_ALGORITHMS_APPLE[:checksum_algorithms_apple_sha512] || :checksum_algorithms_apple_sha512) ? &quot;sha512&quot; : &quot;&quot;))))))</text>
</g>
<!-- file_header__seq&#45;&gt;file_header__inst__checksum_algorithm_name -->
<g id="edge9" class="edge">
<title>file_header__seq:checksum_alg_name_type&#45;&gt;file_header__inst__checksum_algorithm_name</title>
<path fill="none" stroke="#404040" d="M886.5,-237C909.37,-237 907.15,-214.74 929,-208 1372.78,-71.02 1509.56,-205.54 1974,-208 2344.09,-209.96 2738.17,-213.19 3118.9,-216.9"/>
<polygon fill="#404040" stroke="#404040" points="3118.99,-220.4 3129.02,-217 3119.06,-213.4 3118.99,-220.4"/>
</g>
<!-- file_header__seq&#45;&gt;file_header__inst__checksum_algorithm_name -->
<g id="edge10" class="edge">
<title>file_header__seq:checksum_algorithm_int_type&#45;&gt;file_header__inst__checksum_algorithm_name</title>
<path fill="none" stroke="#404040" d="M886.5,-258C907.01,-258 908.9,-271.92 929,-276 1384.16,-368.41 1509.56,-278.46 1974,-276 2344.09,-274.04 2738.17,-270.81 3118.9,-267.1"/>
<polygon fill="#404040" stroke="#404040" points="3119.06,-270.6 3129.02,-267 3118.99,-263.6 3119.06,-270.6"/>
</g>
<!-- file_header__seq&#45;&gt;file_header__inst__has_checksum_alg_name -->
<g id="edge11" class="edge">
<title>file_header__seq:checksum_algorithm_int_type&#45;&gt;file_header__inst__has_checksum_alg_name</title>
<path fill="none" stroke="#404040" d="M886.5,-258C897.19,-258 907.99,-257.97 918.87,-257.92"/>
<polygon fill="#404040" stroke="#404040" points="918.91,-261.42 928.89,-257.86 918.87,-254.42 918.91,-261.42"/>
</g>
<!-- file_header__inst__has_checksum_alg_name&#45;&gt;file_header__seq -->
<g id="edge7" class="edge">
<title>file_header__inst__has_checksum_alg_name:has_checksum_alg_name_type&#45;&gt;file_header__seq:checksum_alg_name__if</title>
<path fill="none" stroke="#404040" d="M1053.88,-216.98C1011.66,-212.93 969.4,-208.3 929,-203 913.81,-201.01 908.05,-197.11 896.61,-195.61"/>
<polygon fill="#404040" stroke="#404040" points="896.69,-192.11 886.5,-195 896.27,-199.1 896.69,-192.11"/>
</g>
<!-- file_header__inst__has_checksum_alg_name&#45;&gt;file_header__inst__checksum_algorithm_name -->
<g id="edge8" class="edge">
<title>file_header__inst__has_checksum_alg_name:has_checksum_alg_name_type&#45;&gt;file_header__inst__checksum_algorithm_name</title>
<path fill="none" stroke="#404040" d="M1974.36,-242C1982.74,-242 1991.2,-242 1999.73,-242"/>
<polygon fill="#404040" stroke="#404040" points="1999.77,-245.5 2009.77,-242 1999.77,-238.5 1999.77,-245.5"/>
</g>
<!-- file_header__inst__len_header -->
<g id="node6" class="node">
<title>file_header__inst__len_header</title>
<polygon fill="#e0ffe0" stroke="transparent" points="560.5,-422 560.5,-443 645.5,-443 645.5,-422 560.5,-422"/>
<polygon fill="none" stroke="black" points="560.5,-422 560.5,-443 645.5,-443 645.5,-422 560.5,-422"/>
<text text-anchor="start" x="596" y="-428.8" font-family="Times,serif" font-size="14.00">id</text>
<polygon fill="#e0ffe0" stroke="transparent" points="645.5,-422 645.5,-443 872.5,-443 872.5,-422 645.5,-422"/>
<polygon fill="none" stroke="black" points="645.5,-422 645.5,-443 872.5,-443 872.5,-422 645.5,-422"/>
<text text-anchor="start" x="739.5" y="-428.8" font-family="Times,serif" font-size="14.00">value</text>
<polygon fill="none" stroke="black" points="560.5,-401 560.5,-422 645.5,-422 645.5,-401 560.5,-401"/>
<text text-anchor="start" x="563.5" y="-407.8" font-family="Times,serif" font-size="14.00">len_header</text>
<polygon fill="none" stroke="black" points="645.5,-401 645.5,-422 872.5,-422 872.5,-401 645.5,-401"/>
<text text-anchor="start" x="648.5" y="-407.8" font-family="Times,serif" font-size="14.00">_root.header_prefix.len_header</text>
</g>
<!-- file_header__inst__len_header&#45;&gt;file_header__inst__has_checksum_alg_name -->
<g id="edge13" class="edge">
<title>file_header__inst__len_header:len_header_type&#45;&gt;file_header__inst__has_checksum_alg_name</title>
<path fill="none" stroke="#404040" d="M851.36,-397C865.45,-394.09 879.53,-391.06 893,-388 1054.94,-351.15 1241.26,-300.71 1352.26,-269.79"/>
<polygon fill="#404040" stroke="#404040" points="1353.41,-273.1 1362.1,-267.04 1351.53,-266.36 1353.41,-273.1"/>
</g>
<!-- file_header_prefix__seq&#45;&gt;xar__seq -->
<g id="edge2" class="edge">
<title>file_header_prefix__seq:len_header_type&#45;&gt;xar__seq:header_size</title>
<path fill="none" stroke="#404040" d="M243.44,-293.49C290.22,-305.73 339,-329.8 339,-377"/>
<polygon fill="#404040" stroke="#404040" points="244.06,-290.04 233.51,-291.06 242.39,-296.84 244.06,-290.04"/>
</g>
<!-- file_header_prefix__seq&#45;&gt;file_header__inst__len_header -->
<g id="edge14" class="edge">
<title>file_header_prefix__seq:len_header_type&#45;&gt;file_header__inst__len_header</title>
<path fill="none" stroke="#404040" d="M382,-388C434.11,-388 490.56,-392.16 541.94,-397.57"/>
<polygon fill="#404040" stroke="#404040" points="541.83,-401.08 552.15,-398.66 542.58,-394.12 541.83,-401.08"/>
</g>
</g>
</svg>
