<?xml version="1.0" encoding="UTF-8" standalone="no"?>
<!DOCTYPE svg PUBLIC "-//W3C//DTD SVG 1.1//EN"
 "http://www.w3.org/Graphics/SVG/1.1/DTD/svg11.dtd">
<!-- Generated by graphviz version 2.38.0 (20140413.2041)
 -->
<!-- Title: %3 Pages: 1 -->
<svg width="409pt" height="488pt"
 viewBox="0.00 0.00 409.00 488.00" xmlns="http://www.w3.org/2000/svg" xmlns:xlink="http://www.w3.org/1999/xlink">
<g id="graph0" class="graph" transform="scale(1 1) rotate(0) translate(4 484)">
<title>%3</title>
<polygon fill="white" stroke="none" points="-4,4 -4,-484 405,-484 405,4 -4,4"/>
<g id="clust1" class="cluster"><title>cluster__pcx</title>
<polygon fill="none" stroke="black" stroke-dasharray="1,5" points="8,-8 8,-472 393,-472 393,-8 8,-8"/>
<text text-anchor="middle" x="200.5" y="-456.8" font-family="Times,serif" font-size="14.00">Pcx</text>
</g>
<g id="clust2" class="cluster"><title>cluster__header</title>
<polygon fill="none" stroke="black" stroke-dasharray="1,5" points="184,-16 184,-441 385,-441 385,-16 184,-16"/>
<text text-anchor="middle" x="284.5" y="-425.8" font-family="Times,serif" font-size="14.00">Pcx::Header</text>
</g>
<!-- pcx__seq -->
<g id="node1" class="node"><title>pcx__seq</title>
<polygon fill="#e0ffe0" stroke="none" points="24,-228 24,-249 49,-249 49,-228 24,-228"/>
<polygon fill="none" stroke="black" points="24,-228 24,-249 49,-249 49,-228 24,-228"/>
<text text-anchor="start" x="27" y="-234.8" font-family="Times,serif" font-size="14.00">pos</text>
<polygon fill="#e0ffe0" stroke="none" points="49,-228 49,-249 77,-249 77,-228 49,-228"/>
<polygon fill="none" stroke="black" points="49,-228 49,-249 77,-249 77,-228 49,-228"/>
<text text-anchor="start" x="52" y="-234.8" font-family="Times,serif" font-size="14.00">size</text>
<polygon fill="#e0ffe0" stroke="none" points="77,-228 77,-249 123,-249 123,-228 77,-228"/>
<polygon fill="none" stroke="black" points="77,-228 77,-249 123,-249 123,-228 77,-228"/>
<text text-anchor="start" x="88" y="-234.8" font-family="Times,serif" font-size="14.00">type</text>
<polygon fill="#e0ffe0" stroke="none" points="123,-228 123,-249 148,-249 148,-228 123,-228"/>
<polygon fill="none" stroke="black" points="123,-228 123,-249 148,-249 148,-228 123,-228"/>
<text text-anchor="start" x="130" y="-234.8" font-family="Times,serif" font-size="14.00">id</text>
<polygon fill="none" stroke="black" points="24,-207 24,-228 49,-228 49,-207 24,-207"/>
<text text-anchor="start" x="33" y="-213.8" font-family="Times,serif" font-size="14.00">0</text>
<polygon fill="none" stroke="black" points="49,-207 49,-228 77,-228 77,-207 49,-207"/>
<text text-anchor="start" x="52.5" y="-213.8" font-family="Times,serif" font-size="14.00">128</text>
<polygon fill="none" stroke="black" points="77,-207 77,-228 123,-228 123,-207 77,-207"/>
<text text-anchor="start" x="80" y="-213.8" font-family="Times,serif" font-size="14.00">Header</text>
<polygon fill="none" stroke="black" points="123,-207 123,-228 148,-228 148,-207 123,-207"/>
<text text-anchor="start" x="126" y="-213.8" font-family="Times,serif" font-size="14.00">hdr</text>
</g>
<!-- header__seq -->
<g id="node2" class="node"><title>header__seq</title>
<polygon fill="#e0ffe0" stroke="none" points="200.5,-385 200.5,-406 225.5,-406 225.5,-385 200.5,-385"/>
<polygon fill="none" stroke="black" points="200.5,-385 200.5,-406 225.5,-406 225.5,-385 200.5,-385"/>
<text text-anchor="start" x="203.5" y="-391.8" font-family="Times,serif" font-size="14.00">pos</text>
<polygon fill="#e0ffe0" stroke="none" points="225.5,-385 225.5,-406 253.5,-406 253.5,-385 225.5,-385"/>
<polygon fill="none" stroke="black" points="225.5,-385 225.5,-406 253.5,-406 253.5,-385 225.5,-385"/>
<text text-anchor="start" x="228.5" y="-391.8" font-family="Times,serif" font-size="14.00">size</text>
<polygon fill="#e0ffe0" stroke="none" points="253.5,-385 253.5,-406 283.5,-406 283.5,-385 253.5,-385"/>
<polygon fill="none" stroke="black" points="253.5,-385 253.5,-406 283.5,-406 283.5,-385 253.5,-385"/>
<text text-anchor="start" x="256.5" y="-391.8" font-family="Times,serif" font-size="14.00">type</text>
<polygon fill="#e0ffe0" stroke="none" points="283.5,-385 283.5,-406 369.5,-406 369.5,-385 283.5,-385"/>
<polygon fill="none" stroke="black" points="283.5,-385 283.5,-406 369.5,-406 369.5,-385 283.5,-385"/>
<text text-anchor="start" x="321" y="-391.8" font-family="Times,serif" font-size="14.00">id</text>
<polygon fill="none" stroke="black" points="200.5,-364 200.5,-385 225.5,-385 225.5,-364 200.5,-364"/>
<text text-anchor="start" x="209.5" y="-370.8" font-family="Times,serif" font-size="14.00">0</text>
<polygon fill="none" stroke="black" points="225.5,-364 225.5,-385 253.5,-385 253.5,-364 225.5,-364"/>
<text text-anchor="start" x="236" y="-370.8" font-family="Times,serif" font-size="14.00">1</text>
<polygon fill="none" stroke="black" points="253.5,-364 253.5,-385 283.5,-385 283.5,-364 253.5,-364"/>
<text text-anchor="start" x="261.5" y="-370.8" font-family="Times,serif" font-size="14.00">u1</text>
<polygon fill="none" stroke="black" points="283.5,-364 283.5,-385 369.5,-385 369.5,-364 283.5,-364"/>
<text text-anchor="start" x="290" y="-370.8" font-family="Times,serif" font-size="14.00">manufacturer</text>
<polygon fill="none" stroke="black" points="200.5,-343 200.5,-364 225.5,-364 225.5,-343 200.5,-343"/>
<text text-anchor="start" x="209.5" y="-349.8" font-family="Times,serif" font-size="14.00">1</text>
<polygon fill="none" stroke="black" points="225.5,-343 225.5,-364 253.5,-364 253.5,-343 225.5,-343"/>
<text text-anchor="start" x="236" y="-349.8" font-family="Times,serif" font-size="14.00">1</text>
<polygon fill="none" stroke="black" points="253.5,-343 253.5,-364 283.5,-364 283.5,-343 253.5,-343"/>
<text text-anchor="start" x="261.5" y="-349.8" font-family="Times,serif" font-size="14.00">u1</text>
<polygon fill="none" stroke="black" points="283.5,-343 283.5,-364 369.5,-364 369.5,-343 283.5,-343"/>
<text text-anchor="start" x="306.5" y="-349.8" font-family="Times,serif" font-size="14.00">version</text>
<polygon fill="none" stroke="black" points="200.5,-322 200.5,-343 225.5,-343 225.5,-322 200.5,-322"/>
<text text-anchor="start" x="209.5" y="-328.8" font-family="Times,serif" font-size="14.00">2</text>
<polygon fill="none" stroke="black" points="225.5,-322 225.5,-343 253.5,-343 253.5,-322 225.5,-322"/>
<text text-anchor="start" x="236" y="-328.8" font-family="Times,serif" font-size="14.00">1</text>
<polygon fill="none" stroke="black" points="253.5,-322 253.5,-343 283.5,-343 283.5,-322 253.5,-322"/>
<text text-anchor="start" x="261.5" y="-328.8" font-family="Times,serif" font-size="14.00">u1</text>
<polygon fill="none" stroke="black" points="283.5,-322 283.5,-343 369.5,-343 369.5,-322 283.5,-322"/>
<text text-anchor="start" x="301.5" y="-328.8" font-family="Times,serif" font-size="14.00">encoding</text>
<polygon fill="none" stroke="black" points="200.5,-301 200.5,-322 225.5,-322 225.5,-301 200.5,-301"/>
<text text-anchor="start" x="209.5" y="-307.8" font-family="Times,serif" font-size="14.00">3</text>
<polygon fill="none" stroke="black" points="225.5,-301 225.5,-322 253.5,-322 253.5,-301 225.5,-301"/>
<text text-anchor="start" x="236" y="-307.8" font-family="Times,serif" font-size="14.00">1</text>
<polygon fill="none" stroke="black" points="253.5,-301 253.5,-322 283.5,-322 283.5,-301 253.5,-301"/>
<text text-anchor="start" x="261.5" y="-307.8" font-family="Times,serif" font-size="14.00">u1</text>
<polygon fill="none" stroke="black" points="283.5,-301 283.5,-322 369.5,-322 369.5,-301 283.5,-301"/>
<text text-anchor="start" x="287.5" y="-307.8" font-family="Times,serif" font-size="14.00">bits_per_pixel</text>
<polygon fill="none" stroke="black" points="200.5,-280 200.5,-301 225.5,-301 225.5,-280 200.5,-280"/>
<text text-anchor="start" x="209.5" y="-286.8" font-family="Times,serif" font-size="14.00">4</text>
<polygon fill="none" stroke="black" points="225.5,-280 225.5,-301 253.5,-301 253.5,-280 225.5,-280"/>
<text text-anchor="start" x="236" y="-286.8" font-family="Times,serif" font-size="14.00">2</text>
<polygon fill="none" stroke="black" points="253.5,-280 253.5,-301 283.5,-301 283.5,-280 253.5,-280"/>
<text text-anchor="start" x="256.5" y="-286.8" font-family="Times,serif" font-size="14.00">u2le</text>
<polygon fill="none" stroke="black" points="283.5,-280 283.5,-301 369.5,-301 369.5,-280 283.5,-280"/>
<text text-anchor="start" x="294.5" y="-286.8" font-family="Times,serif" font-size="14.00">img_x_min</text>
<polygon fill="none" stroke="black" points="200.5,-259 200.5,-280 225.5,-280 225.5,-259 200.5,-259"/>
<text text-anchor="start" x="209.5" y="-265.8" font-family="Times,serif" font-size="14.00">6</text>
<polygon fill="none" stroke="black" points="225.5,-259 225.5,-280 253.5,-280 253.5,-259 225.5,-259"/>
<text text-anchor="start" x="236" y="-265.8" font-family="Times,serif" font-size="14.00">2</text>
<polygon fill="none" stroke="black" points="253.5,-259 253.5,-280 283.5,-280 283.5,-259 253.5,-259"/>
<text text-anchor="start" x="256.5" y="-265.8" font-family="Times,serif" font-size="14.00">u2le</text>
<polygon fill="none" stroke="black" points="283.5,-259 283.5,-280 369.5,-280 369.5,-259 283.5,-259"/>
<text text-anchor="start" x="294.5" y="-265.8" font-family="Times,serif" font-size="14.00">img_y_min</text>
<polygon fill="none" stroke="black" points="200.5,-238 200.5,-259 225.5,-259 225.5,-238 200.5,-238"/>
<text text-anchor="start" x="209.5" y="-244.8" font-family="Times,serif" font-size="14.00">8</text>
<polygon fill="none" stroke="black" points="225.5,-238 225.5,-259 253.5,-259 253.5,-238 225.5,-238"/>
<text text-anchor="start" x="236" y="-244.8" font-family="Times,serif" font-size="14.00">2</text>
<polygon fill="none" stroke="black" points="253.5,-238 253.5,-259 283.5,-259 283.5,-238 253.5,-238"/>
<text text-anchor="start" x="256.5" y="-244.8" font-family="Times,serif" font-size="14.00">u2le</text>
<polygon fill="none" stroke="black" points="283.5,-238 283.5,-259 369.5,-259 369.5,-238 283.5,-238"/>
<text text-anchor="start" x="293" y="-244.8" font-family="Times,serif" font-size="14.00">img_x_max</text>
<polygon fill="none" stroke="black" points="200.5,-217 200.5,-238 225.5,-238 225.5,-217 200.5,-217"/>
<text text-anchor="start" x="206" y="-223.8" font-family="Times,serif" font-size="14.00">10</text>
<polygon fill="none" stroke="black" points="225.5,-217 225.5,-238 253.5,-238 253.5,-217 225.5,-217"/>
<text text-anchor="start" x="236" y="-223.8" font-family="Times,serif" font-size="14.00">2</text>
<polygon fill="none" stroke="black" points="253.5,-217 253.5,-238 283.5,-238 283.5,-217 253.5,-217"/>
<text text-anchor="start" x="256.5" y="-223.8" font-family="Times,serif" font-size="14.00">u2le</text>
<polygon fill="none" stroke="black" points="283.5,-217 283.5,-238 369.5,-238 369.5,-217 283.5,-217"/>
<text text-anchor="start" x="293" y="-223.8" font-family="Times,serif" font-size="14.00">img_y_max</text>
<polygon fill="none" stroke="black" points="200.5,-196 200.5,-217 225.5,-217 225.5,-196 200.5,-196"/>
<text text-anchor="start" x="206" y="-202.8" font-family="Times,serif" font-size="14.00">12</text>
<polygon fill="none" stroke="black" points="225.5,-196 225.5,-217 253.5,-217 253.5,-196 225.5,-196"/>
<text text-anchor="start" x="236" y="-202.8" font-family="Times,serif" font-size="14.00">2</text>
<polygon fill="none" stroke="black" points="253.5,-196 253.5,-217 283.5,-217 283.5,-196 253.5,-196"/>
<text text-anchor="start" x="256.5" y="-202.8" font-family="Times,serif" font-size="14.00">u2le</text>
<polygon fill="none" stroke="black" points="283.5,-196 283.5,-217 369.5,-217 369.5,-196 283.5,-196"/>
<text text-anchor="start" x="314" y="-202.8" font-family="Times,serif" font-size="14.00">hdpi</text>
<polygon fill="none" stroke="black" points="200.5,-175 200.5,-196 225.5,-196 225.5,-175 200.5,-175"/>
<text text-anchor="start" x="206" y="-181.8" font-family="Times,serif" font-size="14.00">14</text>
<polygon fill="none" stroke="black" points="225.5,-175 225.5,-196 253.5,-196 253.5,-175 225.5,-175"/>
<text text-anchor="start" x="236" y="-181.8" font-family="Times,serif" font-size="14.00">2</text>
<polygon fill="none" stroke="black" points="253.5,-175 253.5,-196 283.5,-196 283.5,-175 253.5,-175"/>
<text text-anchor="start" x="256.5" y="-181.8" font-family="Times,serif" font-size="14.00">u2le</text>
<polygon fill="none" stroke="black" points="283.5,-175 283.5,-196 369.5,-196 369.5,-175 283.5,-175"/>
<text text-anchor="start" x="314" y="-181.8" font-family="Times,serif" font-size="14.00">vdpi</text>
<polygon fill="none" stroke="black" points="200.5,-154 200.5,-175 225.5,-175 225.5,-154 200.5,-154"/>
<text text-anchor="start" x="206" y="-160.8" font-family="Times,serif" font-size="14.00">16</text>
<polygon fill="none" stroke="black" points="225.5,-154 225.5,-175 253.5,-175 253.5,-154 225.5,-154"/>
<text text-anchor="start" x="232.5" y="-160.8" font-family="Times,serif" font-size="14.00">48</text>
<polygon fill="none" stroke="black" points="253.5,-154 253.5,-175 283.5,-175 283.5,-154 253.5,-154"/>
<polygon fill="none" stroke="black" points="283.5,-154 283.5,-175 369.5,-175 369.5,-154 283.5,-154"/>
<text text-anchor="start" x="300.5" y="-160.8" font-family="Times,serif" font-size="14.00">colormap</text>
<polygon fill="none" stroke="black" points="200.5,-133 200.5,-154 225.5,-154 225.5,-133 200.5,-133"/>
<text text-anchor="start" x="206" y="-139.8" font-family="Times,serif" font-size="14.00">64</text>
<polygon fill="none" stroke="black" points="225.5,-133 225.5,-154 253.5,-154 253.5,-133 225.5,-133"/>
<text text-anchor="start" x="236" y="-139.8" font-family="Times,serif" font-size="14.00">1</text>
<polygon fill="none" stroke="black" points="253.5,-133 253.5,-154 283.5,-154 283.5,-133 253.5,-133"/>
<polygon fill="none" stroke="black" points="283.5,-133 283.5,-154 369.5,-154 369.5,-133 283.5,-133"/>
<text text-anchor="start" x="303.5" y="-139.8" font-family="Times,serif" font-size="14.00">reserved</text>
<polygon fill="none" stroke="black" points="200.5,-112 200.5,-133 225.5,-133 225.5,-112 200.5,-112"/>
<text text-anchor="start" x="206" y="-118.8" font-family="Times,serif" font-size="14.00">65</text>
<polygon fill="none" stroke="black" points="225.5,-112 225.5,-133 253.5,-133 253.5,-112 225.5,-112"/>
<text text-anchor="start" x="236" y="-118.8" font-family="Times,serif" font-size="14.00">1</text>
<polygon fill="none" stroke="black" points="253.5,-112 253.5,-133 283.5,-133 283.5,-112 253.5,-112"/>
<text text-anchor="start" x="261.5" y="-118.8" font-family="Times,serif" font-size="14.00">u1</text>
<polygon fill="none" stroke="black" points="283.5,-112 283.5,-133 369.5,-133 369.5,-112 283.5,-112"/>
<text text-anchor="start" x="293" y="-118.8" font-family="Times,serif" font-size="14.00">num_planes</text>
<polygon fill="none" stroke="black" points="200.5,-91 200.5,-112 225.5,-112 225.5,-91 200.5,-91"/>
<text text-anchor="start" x="206" y="-97.8" font-family="Times,serif" font-size="14.00">66</text>
<polygon fill="none" stroke="black" points="225.5,-91 225.5,-112 253.5,-112 253.5,-91 225.5,-91"/>
<text text-anchor="start" x="236" y="-97.8" font-family="Times,serif" font-size="14.00">2</text>
<polygon fill="none" stroke="black" points="253.5,-91 253.5,-112 283.5,-112 283.5,-91 253.5,-91"/>
<text text-anchor="start" x="256.5" y="-97.8" font-family="Times,serif" font-size="14.00">u2le</text>
<polygon fill="none" stroke="black" points="283.5,-91 283.5,-112 369.5,-112 369.5,-91 283.5,-91"/>
<text text-anchor="start" x="286.5" y="-97.8" font-family="Times,serif" font-size="14.00">bytes_per_line</text>
<polygon fill="none" stroke="black" points="200.5,-70 200.5,-91 225.5,-91 225.5,-70 200.5,-70"/>
<text text-anchor="start" x="206" y="-76.8" font-family="Times,serif" font-size="14.00">68</text>
<polygon fill="none" stroke="black" points="225.5,-70 225.5,-91 253.5,-91 253.5,-70 225.5,-70"/>
<text text-anchor="start" x="236" y="-76.8" font-family="Times,serif" font-size="14.00">2</text>
<polygon fill="none" stroke="black" points="253.5,-70 253.5,-91 283.5,-91 283.5,-70 253.5,-70"/>
<text text-anchor="start" x="256.5" y="-76.8" font-family="Times,serif" font-size="14.00">u2le</text>
<polygon fill="none" stroke="black" points="283.5,-70 283.5,-91 369.5,-91 369.5,-70 283.5,-70"/>
<text text-anchor="start" x="294" y="-76.8" font-family="Times,serif" font-size="14.00">palette_info</text>
<polygon fill="none" stroke="black" points="200.5,-49 200.5,-70 225.5,-70 225.5,-49 200.5,-49"/>
<text text-anchor="start" x="206" y="-55.8" font-family="Times,serif" font-size="14.00">70</text>
<polygon fill="none" stroke="black" points="225.5,-49 225.5,-70 253.5,-70 253.5,-49 225.5,-49"/>
<text text-anchor="start" x="236" y="-55.8" font-family="Times,serif" font-size="14.00">2</text>
<polygon fill="none" stroke="black" points="253.5,-49 253.5,-70 283.5,-70 283.5,-49 253.5,-49"/>
<text text-anchor="start" x="256.5" y="-55.8" font-family="Times,serif" font-size="14.00">u2le</text>
<polygon fill="none" stroke="black" points="283.5,-49 283.5,-70 369.5,-70 369.5,-49 283.5,-49"/>
<text text-anchor="start" x="288.5" y="-55.8" font-family="Times,serif" font-size="14.00">h_screen_size</text>
<polygon fill="none" stroke="black" points="200.5,-28 200.5,-49 225.5,-49 225.5,-28 200.5,-28"/>
<text text-anchor="start" x="206" y="-34.8" font-family="Times,serif" font-size="14.00">72</text>
<polygon fill="none" stroke="black" points="225.5,-28 225.5,-49 253.5,-49 253.5,-28 225.5,-28"/>
<text text-anchor="start" x="236" y="-34.8" font-family="Times,serif" font-size="14.00">2</text>
<polygon fill="none" stroke="black" points="253.5,-28 253.5,-49 283.5,-49 283.5,-28 253.5,-28"/>
<text text-anchor="start" x="256.5" y="-34.8" font-family="Times,serif" font-size="14.00">u2le</text>
<polygon fill="none" stroke="black" points="283.5,-28 283.5,-49 369.5,-49 369.5,-28 283.5,-28"/>
<text text-anchor="start" x="288.5" y="-34.8" font-family="Times,serif" font-size="14.00">v_screen_size</text>
</g>
<!-- pcx__seq&#45;&gt;header__seq -->
<g id="edge1" class="edge"><title>pcx__seq:hdr_type&#45;&gt;header__seq</title>
<path fill="none" stroke="black" stroke-width="2" d="M149,-217C159.637,-217 170.748,-217 181.826,-217"/>
<polygon fill="black" stroke="black" stroke-width="2" points="181.977,-220.5 191.977,-217 181.977,-213.5 181.977,-220.5"/>
</g>
</g>
</svg>
