<?xml version="1.0" encoding="UTF-8" standalone="no"?>
<!DOCTYPE svg PUBLIC "-//W3C//DTD SVG 1.1//EN"
 "http://www.w3.org/Graphics/SVG/1.1/DTD/svg11.dtd">
<!-- Generated by graphviz version 2.43.0 (0)
 -->
<!-- Title: %3 Pages: 1 -->
<svg width="1744pt" height="864pt"
 viewBox="0.00 0.00 1744.00 864.00" xmlns="http://www.w3.org/2000/svg" xmlns:xlink="http://www.w3.org/1999/xlink">
<g id="graph0" class="graph" transform="scale(1 1) rotate(0) translate(4 860)">
<title>%3</title>
<polygon fill="white" stroke="transparent" points="-4,4 -4,-860 1740,-860 1740,4 -4,4"/>
<g id="clust1" class="cluster">
<title>cluster__warcraft_2_pud</title>
<polygon fill="none" stroke="black" stroke-dasharray="1,5" points="8,-8 8,-848 1728,-848 1728,-8 8,-8"/>
<text text-anchor="middle" x="868" y="-832.8" font-family="Times,serif" font-size="14.00">Warcraft2Pud</text>
</g>
<g id="clust2" class="cluster">
<title>cluster__section</title>
<polygon fill="none" stroke="black" stroke-dasharray="1,5" points="250,-279 250,-557 805,-557 805,-279 250,-279"/>
<text text-anchor="middle" x="527.5" y="-541.8" font-family="Times,serif" font-size="14.00">Warcraft2Pud::Section</text>
</g>
<g id="clust3" class="cluster">
<title>cluster__section_dim</title>
<polygon fill="none" stroke="black" stroke-dasharray="1,5" points="913.5,-16 913.5,-127 1120.5,-127 1120.5,-16 913.5,-16"/>
<text text-anchor="middle" x="1017" y="-111.8" font-family="Times,serif" font-size="14.00">Warcraft2Pud::SectionDim</text>
</g>
<g id="clust4" class="cluster">
<title>cluster__section_era</title>
<polygon fill="none" stroke="black" stroke-dasharray="1,5" points="872.5,-135 872.5,-224 1161.5,-224 1161.5,-135 872.5,-135"/>
<text text-anchor="middle" x="1017" y="-208.8" font-family="Times,serif" font-size="14.00">Warcraft2Pud::SectionEra</text>
</g>
<g id="clust5" class="cluster">
<title>cluster__section_ownr</title>
<polygon fill="none" stroke="black" stroke-dasharray="1,5" points="838,-232 838,-343 1196,-343 1196,-232 838,-232"/>
<text text-anchor="middle" x="1017" y="-327.8" font-family="Times,serif" font-size="14.00">Warcraft2Pud::SectionOwnr</text>
</g>
<g id="clust6" class="cluster">
<title>cluster__section_starting_resource</title>
<polygon fill="none" stroke="black" stroke-dasharray="1,5" points="865.5,-351 865.5,-462 1168.5,-462 1168.5,-351 865.5,-351"/>
<text text-anchor="middle" x="1017" y="-446.8" font-family="Times,serif" font-size="14.00">Warcraft2Pud::SectionStartingResource</text>
</g>
<g id="clust7" class="cluster">
<title>cluster__section_type</title>
<polygon fill="none" stroke="black" stroke-dasharray="1,5" points="825,-470 825,-601 1209,-601 1209,-470 825,-470"/>
<text text-anchor="middle" x="1017" y="-585.8" font-family="Times,serif" font-size="14.00">Warcraft2Pud::SectionType</text>
</g>
<g id="clust8" class="cluster">
<title>cluster__section_unit</title>
<polygon fill="none" stroke="black" stroke-dasharray="1,5" points="912.5,-609 912.5,-720 1121.5,-720 1121.5,-609 912.5,-609"/>
<text text-anchor="middle" x="1017" y="-704.8" font-family="Times,serif" font-size="14.00">Warcraft2Pud::SectionUnit</text>
</g>
<g id="clust9" class="cluster">
<title>cluster__section_ver</title>
<polygon fill="none" stroke="black" stroke-dasharray="1,5" points="916,-728 916,-817 1118,-817 1118,-728 916,-728"/>
<text text-anchor="middle" x="1017" y="-801.8" font-family="Times,serif" font-size="14.00">Warcraft2Pud::SectionVer</text>
</g>
<g id="clust10" class="cluster">
<title>cluster__unit</title>
<polygon fill="none" stroke="black" stroke-dasharray="1,5" points="1229,-577 1229,-750 1720,-750 1720,-577 1229,-577"/>
<text text-anchor="middle" x="1474.5" y="-734.8" font-family="Times,serif" font-size="14.00">Warcraft2Pud::Unit</text>
</g>
<!-- warcraft_2_pud__seq -->
<g id="node1" class="node">
<title>warcraft_2_pud__seq</title>
<polygon fill="#e0ffe0" stroke="transparent" points="24,-449 24,-470 55,-470 55,-449 24,-449"/>
<polygon fill="none" stroke="black" points="24,-449 24,-470 55,-470 55,-449 24,-449"/>
<text text-anchor="start" x="27" y="-455.8" font-family="Times,serif" font-size="14.00">pos</text>
<polygon fill="#e0ffe0" stroke="transparent" points="55,-449 55,-470 89,-470 89,-449 55,-449"/>
<polygon fill="none" stroke="black" points="55,-449 55,-470 89,-470 89,-449 55,-449"/>
<text text-anchor="start" x="58" y="-455.8" font-family="Times,serif" font-size="14.00">size</text>
<polygon fill="#e0ffe0" stroke="transparent" points="89,-449 89,-470 149,-470 149,-449 89,-449"/>
<polygon fill="none" stroke="black" points="89,-449 89,-470 149,-470 149,-449 89,-449"/>
<text text-anchor="start" x="103" y="-455.8" font-family="Times,serif" font-size="14.00">type</text>
<polygon fill="#e0ffe0" stroke="transparent" points="149,-449 149,-470 214,-470 214,-449 149,-449"/>
<polygon fill="none" stroke="black" points="149,-449 149,-470 214,-470 214,-449 149,-449"/>
<text text-anchor="start" x="174.5" y="-455.8" font-family="Times,serif" font-size="14.00">id</text>
<polygon fill="none" stroke="black" points="24,-428 24,-449 55,-449 55,-428 24,-428"/>
<text text-anchor="start" x="34.5" y="-434.8" font-family="Times,serif" font-size="14.00">0</text>
<polygon fill="none" stroke="black" points="55,-428 55,-449 89,-449 89,-428 55,-428"/>
<text text-anchor="start" x="65" y="-434.8" font-family="Times,serif" font-size="14.00">...</text>
<polygon fill="none" stroke="black" points="89,-428 89,-449 149,-449 149,-428 89,-428"/>
<text text-anchor="start" x="92" y="-434.8" font-family="Times,serif" font-size="14.00">Section</text>
<polygon fill="none" stroke="black" points="149,-428 149,-449 214,-449 214,-428 149,-428"/>
<text text-anchor="start" x="152" y="-434.8" font-family="Times,serif" font-size="14.00">sections</text>
<polygon fill="none" stroke="black" points="24,-407 24,-428 214,-428 214,-407 24,-407"/>
<text text-anchor="start" x="34.5" y="-413.8" font-family="Times,serif" font-size="14.00">repeat to end of stream</text>
</g>
<!-- section__seq -->
<g id="node2" class="node">
<title>section__seq</title>
<polygon fill="#e0ffe0" stroke="transparent" points="266,-459 266,-480 297,-480 297,-459 266,-459"/>
<polygon fill="none" stroke="black" points="266,-459 266,-480 297,-480 297,-459 266,-459"/>
<text text-anchor="start" x="269" y="-465.8" font-family="Times,serif" font-size="14.00">pos</text>
<polygon fill="#e0ffe0" stroke="transparent" points="297,-459 297,-480 331,-480 331,-459 297,-459"/>
<polygon fill="none" stroke="black" points="297,-459 297,-480 331,-480 331,-459 297,-459"/>
<text text-anchor="start" x="300" y="-465.8" font-family="Times,serif" font-size="14.00">size</text>
<polygon fill="#e0ffe0" stroke="transparent" points="331,-459 331,-480 438,-480 438,-459 331,-459"/>
<polygon fill="none" stroke="black" points="331,-459 331,-480 438,-480 438,-459 331,-459"/>
<text text-anchor="start" x="368.5" y="-465.8" font-family="Times,serif" font-size="14.00">type</text>
<polygon fill="#e0ffe0" stroke="transparent" points="438,-459 438,-480 484,-480 484,-459 438,-459"/>
<polygon fill="none" stroke="black" points="438,-459 438,-480 484,-480 484,-459 438,-459"/>
<text text-anchor="start" x="454" y="-465.8" font-family="Times,serif" font-size="14.00">id</text>
<polygon fill="none" stroke="black" points="266,-438 266,-459 297,-459 297,-438 266,-438"/>
<text text-anchor="start" x="276.5" y="-444.8" font-family="Times,serif" font-size="14.00">0</text>
<polygon fill="none" stroke="black" points="297,-438 297,-459 331,-459 331,-438 297,-438"/>
<text text-anchor="start" x="309" y="-444.8" font-family="Times,serif" font-size="14.00">4</text>
<polygon fill="none" stroke="black" points="331,-438 331,-459 438,-459 438,-438 331,-438"/>
<text text-anchor="start" x="348.5" y="-444.8" font-family="Times,serif" font-size="14.00">str(ASCII)</text>
<polygon fill="none" stroke="black" points="438,-438 438,-459 484,-459 484,-438 438,-438"/>
<text text-anchor="start" x="441" y="-444.8" font-family="Times,serif" font-size="14.00">name</text>
<polygon fill="none" stroke="black" points="266,-417 266,-438 297,-438 297,-417 266,-417"/>
<text text-anchor="start" x="276.5" y="-423.8" font-family="Times,serif" font-size="14.00">4</text>
<polygon fill="none" stroke="black" points="297,-417 297,-438 331,-438 331,-417 297,-417"/>
<text text-anchor="start" x="309" y="-423.8" font-family="Times,serif" font-size="14.00">4</text>
<polygon fill="none" stroke="black" points="331,-417 331,-438 438,-438 438,-417 331,-417"/>
<text text-anchor="start" x="369" y="-423.8" font-family="Times,serif" font-size="14.00">u4le</text>
<polygon fill="none" stroke="black" points="438,-417 438,-438 484,-438 484,-417 438,-417"/>
<text text-anchor="start" x="447" y="-423.8" font-family="Times,serif" font-size="14.00">size</text>
<polygon fill="none" stroke="black" points="266,-396 266,-417 297,-417 297,-396 266,-396"/>
<text text-anchor="start" x="276.5" y="-402.8" font-family="Times,serif" font-size="14.00">8</text>
<polygon fill="none" stroke="black" points="297,-396 297,-417 331,-417 331,-396 297,-396"/>
<text text-anchor="start" x="307" y="-402.8" font-family="Times,serif" font-size="14.00">...</text>
<polygon fill="none" stroke="black" points="331,-396 331,-417 438,-417 438,-396 331,-396"/>
<text text-anchor="start" x="334" y="-402.8" font-family="Times,serif" font-size="14.00">switch (name)</text>
<polygon fill="none" stroke="black" points="438,-396 438,-417 484,-417 484,-396 438,-396"/>
<text text-anchor="start" x="443.5" y="-402.8" font-family="Times,serif" font-size="14.00">body</text>
</g>
<!-- warcraft_2_pud__seq&#45;&gt;section__seq -->
<g id="edge1" class="edge">
<title>warcraft_2_pud__seq:sections_type&#45;&gt;section__seq</title>
<path fill="none" stroke="black" stroke-width="2" d="M215,-438C225.57,-438 236.53,-438 247.53,-438"/>
<polygon fill="black" stroke="black" stroke-width="2" points="247.64,-441.5 257.64,-438 247.64,-434.5 247.64,-441.5"/>
</g>
<!-- section__seq&#45;&gt;section__seq -->
<g id="edge13" class="edge">
<title>section__seq:name_type&#45;&gt;section__seq:body_type</title>
<path fill="none" stroke="#404040" d="M437.8,-458.5C398.27,-478.61 406,-502 461,-502 512.6,-502 522.6,-453.47 491,-423.48"/>
<polygon fill="#404040" stroke="#404040" points="493.07,-420.65 483.11,-417.02 488.63,-426.07 493.07,-420.65"/>
</g>
<!-- section__seq_body_switch -->
<g id="node3" class="node">
<title>section__seq_body_switch</title>
<polygon fill="#f0f2e4" stroke="transparent" points="536.5,-500 536.5,-521 604.5,-521 604.5,-500 536.5,-500"/>
<polygon fill="none" stroke="black" points="536.5,-500 536.5,-521 604.5,-521 604.5,-500 536.5,-500"/>
<text text-anchor="start" x="554.5" y="-506.8" font-family="Times,serif" font-size="14.00">case</text>
<polygon fill="#f0f2e4" stroke="transparent" points="604.5,-500 604.5,-521 789.5,-521 789.5,-500 604.5,-500"/>
<polygon fill="none" stroke="black" points="604.5,-500 604.5,-521 789.5,-521 789.5,-500 604.5,-500"/>
<text text-anchor="start" x="681" y="-506.8" font-family="Times,serif" font-size="14.00">type</text>
<polygon fill="none" stroke="black" points="536.5,-479 536.5,-500 604.5,-500 604.5,-479 536.5,-479"/>
<text text-anchor="start" x="546" y="-485.8" font-family="Times,serif" font-size="14.00">&quot;DIM &quot;</text>
<polygon fill="none" stroke="black" points="604.5,-479 604.5,-500 789.5,-500 789.5,-479 604.5,-479"/>
<text text-anchor="start" x="655.5" y="-485.8" font-family="Times,serif" font-size="14.00">SectionDim</text>
<polygon fill="none" stroke="black" points="536.5,-458 536.5,-479 604.5,-479 604.5,-458 536.5,-458"/>
<text text-anchor="start" x="546" y="-464.8" font-family="Times,serif" font-size="14.00">&quot;ERA &quot;</text>
<polygon fill="none" stroke="black" points="604.5,-458 604.5,-479 789.5,-479 789.5,-458 604.5,-458"/>
<text text-anchor="start" x="657.5" y="-464.8" font-family="Times,serif" font-size="14.00">SectionEra</text>
<polygon fill="none" stroke="black" points="536.5,-437 536.5,-458 604.5,-458 604.5,-437 536.5,-437"/>
<text text-anchor="start" x="543" y="-443.8" font-family="Times,serif" font-size="14.00">&quot;ERAX&quot;</text>
<polygon fill="none" stroke="black" points="604.5,-437 604.5,-458 789.5,-458 789.5,-437 604.5,-437"/>
<text text-anchor="start" x="657.5" y="-443.8" font-family="Times,serif" font-size="14.00">SectionEra</text>
<polygon fill="none" stroke="black" points="536.5,-416 536.5,-437 604.5,-437 604.5,-416 536.5,-416"/>
<text text-anchor="start" x="539.5" y="-422.8" font-family="Times,serif" font-size="14.00">&quot;OWNR&quot;</text>
<polygon fill="none" stroke="black" points="604.5,-416 604.5,-437 789.5,-437 789.5,-416 604.5,-416"/>
<text text-anchor="start" x="650.5" y="-422.8" font-family="Times,serif" font-size="14.00">SectionOwnr</text>
<polygon fill="none" stroke="black" points="536.5,-395 536.5,-416 604.5,-416 604.5,-395 536.5,-395"/>
<text text-anchor="start" x="543" y="-401.8" font-family="Times,serif" font-size="14.00">&quot;SGLD&quot;</text>
<polygon fill="none" stroke="black" points="604.5,-395 604.5,-416 789.5,-416 789.5,-395 604.5,-395"/>
<text text-anchor="start" x="607.5" y="-401.8" font-family="Times,serif" font-size="14.00">SectionStartingResource</text>
<polygon fill="none" stroke="black" points="536.5,-374 536.5,-395 604.5,-395 604.5,-374 536.5,-374"/>
<text text-anchor="start" x="543.5" y="-380.8" font-family="Times,serif" font-size="14.00">&quot;SLBR&quot;</text>
<polygon fill="none" stroke="black" points="604.5,-374 604.5,-395 789.5,-395 789.5,-374 604.5,-374"/>
<text text-anchor="start" x="607.5" y="-380.8" font-family="Times,serif" font-size="14.00">SectionStartingResource</text>
<polygon fill="none" stroke="black" points="536.5,-353 536.5,-374 604.5,-374 604.5,-353 536.5,-353"/>
<text text-anchor="start" x="546" y="-359.8" font-family="Times,serif" font-size="14.00">&quot;SOIL&quot;</text>
<polygon fill="none" stroke="black" points="604.5,-353 604.5,-374 789.5,-374 789.5,-353 604.5,-353"/>
<text text-anchor="start" x="607.5" y="-359.8" font-family="Times,serif" font-size="14.00">SectionStartingResource</text>
<polygon fill="none" stroke="black" points="536.5,-332 536.5,-353 604.5,-353 604.5,-332 536.5,-332"/>
<text text-anchor="start" x="544.5" y="-338.8" font-family="Times,serif" font-size="14.00">&quot;TYPE&quot;</text>
<polygon fill="none" stroke="black" points="604.5,-332 604.5,-353 789.5,-353 789.5,-332 604.5,-332"/>
<text text-anchor="start" x="653" y="-338.8" font-family="Times,serif" font-size="14.00">SectionType</text>
<polygon fill="none" stroke="black" points="536.5,-311 536.5,-332 604.5,-332 604.5,-311 536.5,-311"/>
<text text-anchor="start" x="544.5" y="-317.8" font-family="Times,serif" font-size="14.00">&quot;UNIT&quot;</text>
<polygon fill="none" stroke="black" points="604.5,-311 604.5,-332 789.5,-332 789.5,-311 604.5,-311"/>
<text text-anchor="start" x="654.5" y="-317.8" font-family="Times,serif" font-size="14.00">SectionUnit</text>
<polygon fill="none" stroke="black" points="536.5,-290 536.5,-311 604.5,-311 604.5,-290 536.5,-290"/>
<text text-anchor="start" x="546" y="-296.8" font-family="Times,serif" font-size="14.00">&quot;VER &quot;</text>
<polygon fill="none" stroke="black" points="604.5,-290 604.5,-311 789.5,-311 789.5,-290 604.5,-290"/>
<text text-anchor="start" x="658" y="-296.8" font-family="Times,serif" font-size="14.00">SectionVer</text>
</g>
<!-- section__seq&#45;&gt;section__seq_body_switch -->
<g id="edge2" class="edge">
<title>section__seq:body_type&#45;&gt;section__seq_body_switch</title>
<path fill="none" stroke="black" stroke-width="2" d="M485,-406C495.56,-406 506.47,-406 517.45,-406"/>
<polygon fill="black" stroke="black" stroke-width="2" points="517.55,-409.5 527.55,-406 517.55,-402.5 517.55,-409.5"/>
</g>
<!-- section_dim__seq -->
<g id="node4" class="node">
<title>section_dim__seq</title>
<polygon fill="#e0ffe0" stroke="transparent" points="956,-70 956,-91 987,-91 987,-70 956,-70"/>
<polygon fill="none" stroke="black" points="956,-70 956,-91 987,-91 987,-70 956,-70"/>
<text text-anchor="start" x="959" y="-76.8" font-family="Times,serif" font-size="14.00">pos</text>
<polygon fill="#e0ffe0" stroke="transparent" points="987,-70 987,-91 1021,-91 1021,-70 987,-70"/>
<polygon fill="none" stroke="black" points="987,-70 987,-91 1021,-91 1021,-70 987,-70"/>
<text text-anchor="start" x="990" y="-76.8" font-family="Times,serif" font-size="14.00">size</text>
<polygon fill="#e0ffe0" stroke="transparent" points="1021,-70 1021,-91 1059,-91 1059,-70 1021,-70"/>
<polygon fill="none" stroke="black" points="1021,-70 1021,-91 1059,-91 1059,-70 1021,-70"/>
<text text-anchor="start" x="1024" y="-76.8" font-family="Times,serif" font-size="14.00">type</text>
<polygon fill="#e0ffe0" stroke="transparent" points="1059,-70 1059,-91 1079,-91 1079,-70 1059,-70"/>
<polygon fill="none" stroke="black" points="1059,-70 1059,-91 1079,-91 1079,-70 1059,-70"/>
<text text-anchor="start" x="1062" y="-76.8" font-family="Times,serif" font-size="14.00">id</text>
<polygon fill="none" stroke="black" points="956,-49 956,-70 987,-70 987,-49 956,-49"/>
<text text-anchor="start" x="966.5" y="-55.8" font-family="Times,serif" font-size="14.00">0</text>
<polygon fill="none" stroke="black" points="987,-49 987,-70 1021,-70 1021,-49 987,-49"/>
<text text-anchor="start" x="999" y="-55.8" font-family="Times,serif" font-size="14.00">2</text>
<polygon fill="none" stroke="black" points="1021,-49 1021,-70 1059,-70 1059,-49 1021,-49"/>
<text text-anchor="start" x="1024.5" y="-55.8" font-family="Times,serif" font-size="14.00">u2le</text>
<polygon fill="none" stroke="black" points="1059,-49 1059,-70 1079,-70 1079,-49 1059,-49"/>
<text text-anchor="start" x="1064.5" y="-55.8" font-family="Times,serif" font-size="14.00">x</text>
<polygon fill="none" stroke="black" points="956,-28 956,-49 987,-49 987,-28 956,-28"/>
<text text-anchor="start" x="966.5" y="-34.8" font-family="Times,serif" font-size="14.00">2</text>
<polygon fill="none" stroke="black" points="987,-28 987,-49 1021,-49 1021,-28 987,-28"/>
<text text-anchor="start" x="999" y="-34.8" font-family="Times,serif" font-size="14.00">2</text>
<polygon fill="none" stroke="black" points="1021,-28 1021,-49 1059,-49 1059,-28 1021,-28"/>
<text text-anchor="start" x="1024.5" y="-34.8" font-family="Times,serif" font-size="14.00">u2le</text>
<polygon fill="none" stroke="black" points="1059,-28 1059,-49 1079,-49 1079,-28 1059,-28"/>
<text text-anchor="start" x="1064.5" y="-34.8" font-family="Times,serif" font-size="14.00">y</text>
</g>
<!-- section__seq_body_switch&#45;&gt;section_dim__seq -->
<g id="edge3" class="edge">
<title>section__seq_body_switch:case0&#45;&gt;section_dim__seq</title>
<path fill="none" stroke="black" stroke-width="2" d="M790.5,-490C870.65,-490 776.16,-194.54 825,-131 851.73,-96.22 897.38,-78.48 937.34,-69.43"/>
<polygon fill="black" stroke="black" stroke-width="2" points="938.3,-72.8 947.36,-67.31 936.86,-65.95 938.3,-72.8"/>
</g>
<!-- section_era__seq -->
<g id="node5" class="node">
<title>section_era__seq</title>
<polygon fill="#e0ffe0" stroke="transparent" points="889,-168 889,-189 920,-189 920,-168 889,-168"/>
<polygon fill="none" stroke="black" points="889,-168 889,-189 920,-189 920,-168 889,-168"/>
<text text-anchor="start" x="892" y="-174.8" font-family="Times,serif" font-size="14.00">pos</text>
<polygon fill="#e0ffe0" stroke="transparent" points="920,-168 920,-189 954,-189 954,-168 920,-168"/>
<polygon fill="none" stroke="black" points="920,-168 920,-189 954,-189 954,-168 920,-168"/>
<text text-anchor="start" x="923" y="-174.8" font-family="Times,serif" font-size="14.00">size</text>
<polygon fill="#e0ffe0" stroke="transparent" points="954,-168 954,-189 1090,-189 1090,-168 954,-168"/>
<polygon fill="none" stroke="black" points="954,-168 954,-189 1090,-189 1090,-168 954,-168"/>
<text text-anchor="start" x="1006" y="-174.8" font-family="Times,serif" font-size="14.00">type</text>
<polygon fill="#e0ffe0" stroke="transparent" points="1090,-168 1090,-189 1146,-189 1146,-168 1090,-168"/>
<polygon fill="none" stroke="black" points="1090,-168 1090,-189 1146,-189 1146,-168 1090,-168"/>
<text text-anchor="start" x="1111" y="-174.8" font-family="Times,serif" font-size="14.00">id</text>
<polygon fill="none" stroke="black" points="889,-147 889,-168 920,-168 920,-147 889,-147"/>
<text text-anchor="start" x="899.5" y="-153.8" font-family="Times,serif" font-size="14.00">0</text>
<polygon fill="none" stroke="black" points="920,-147 920,-168 954,-168 954,-147 920,-147"/>
<text text-anchor="start" x="932" y="-153.8" font-family="Times,serif" font-size="14.00">2</text>
<polygon fill="none" stroke="black" points="954,-147 954,-168 1090,-168 1090,-147 954,-147"/>
<text text-anchor="start" x="957" y="-153.8" font-family="Times,serif" font-size="14.00">u2le→TerrainType</text>
<polygon fill="none" stroke="black" points="1090,-147 1090,-168 1146,-168 1146,-147 1090,-147"/>
<text text-anchor="start" x="1093" y="-153.8" font-family="Times,serif" font-size="14.00">terrain</text>
</g>
<!-- section__seq_body_switch&#45;&gt;section_era__seq -->
<g id="edge4" class="edge">
<title>section__seq_body_switch:case1&#45;&gt;section_era__seq</title>
<path fill="none" stroke="black" stroke-width="2" d="M790.5,-469C844.6,-469 789.97,-269.23 825,-228 837.46,-213.34 853.46,-202.21 870.88,-193.78"/>
<polygon fill="black" stroke="black" stroke-width="2" points="872.44,-196.91 880.12,-189.61 869.56,-190.53 872.44,-196.91"/>
</g>
<!-- section__seq_body_switch&#45;&gt;section_era__seq -->
<g id="edge5" class="edge">
<title>section__seq_body_switch:case2&#45;&gt;section_era__seq</title>
<path fill="none" stroke="black" stroke-width="2" d="M790.5,-448C839.99,-448 792.71,-265.5 825,-228 837.55,-213.42 853.61,-202.34 871.06,-193.93"/>
<polygon fill="black" stroke="black" stroke-width="2" points="872.63,-197.07 880.31,-189.77 869.75,-190.68 872.63,-197.07"/>
</g>
<!-- section_ownr__seq -->
<g id="node6" class="node">
<title>section_ownr__seq</title>
<polygon fill="#e0ffe0" stroke="transparent" points="854,-286 854,-307 885,-307 885,-286 854,-286"/>
<polygon fill="none" stroke="black" points="854,-286 854,-307 885,-307 885,-286 854,-286"/>
<text text-anchor="start" x="857" y="-292.8" font-family="Times,serif" font-size="14.00">pos</text>
<polygon fill="#e0ffe0" stroke="transparent" points="885,-286 885,-307 919,-307 919,-286 885,-286"/>
<polygon fill="none" stroke="black" points="885,-286 885,-307 919,-307 919,-286 885,-286"/>
<text text-anchor="start" x="888" y="-292.8" font-family="Times,serif" font-size="14.00">size</text>
<polygon fill="#e0ffe0" stroke="transparent" points="919,-286 919,-307 1028,-307 1028,-286 919,-286"/>
<polygon fill="none" stroke="black" points="919,-286 919,-307 1028,-307 1028,-286 919,-286"/>
<text text-anchor="start" x="957.5" y="-292.8" font-family="Times,serif" font-size="14.00">type</text>
<polygon fill="#e0ffe0" stroke="transparent" points="1028,-286 1028,-307 1180,-307 1180,-286 1028,-286"/>
<polygon fill="none" stroke="black" points="1028,-286 1028,-307 1180,-307 1180,-286 1028,-286"/>
<text text-anchor="start" x="1097" y="-292.8" font-family="Times,serif" font-size="14.00">id</text>
<polygon fill="none" stroke="black" points="854,-265 854,-286 885,-286 885,-265 854,-265"/>
<text text-anchor="start" x="864.5" y="-271.8" font-family="Times,serif" font-size="14.00">0</text>
<polygon fill="none" stroke="black" points="885,-265 885,-286 919,-286 919,-265 885,-265"/>
<text text-anchor="start" x="897" y="-271.8" font-family="Times,serif" font-size="14.00">1</text>
<polygon fill="none" stroke="black" points="919,-265 919,-286 1028,-286 1028,-265 919,-265"/>
<text text-anchor="start" x="922" y="-271.8" font-family="Times,serif" font-size="14.00">u1→Controller</text>
<polygon fill="none" stroke="black" points="1028,-265 1028,-286 1180,-286 1180,-265 1028,-265"/>
<text text-anchor="start" x="1031" y="-271.8" font-family="Times,serif" font-size="14.00">controller_by_player</text>
<polygon fill="none" stroke="black" points="854,-244 854,-265 1180,-265 1180,-244 854,-244"/>
<text text-anchor="start" x="932.5" y="-250.8" font-family="Times,serif" font-size="14.00">repeat to end of stream</text>
</g>
<!-- section__seq_body_switch&#45;&gt;section_ownr__seq -->
<g id="edge6" class="edge">
<title>section__seq_body_switch:case3&#45;&gt;section_ownr__seq</title>
<path fill="none" stroke="black" stroke-width="2" d="M790.5,-427C829.22,-427 796.93,-373.67 825,-347 837.88,-334.77 853.05,-324.6 869.12,-316.16"/>
<polygon fill="black" stroke="black" stroke-width="2" points="870.76,-319.26 878.13,-311.65 867.62,-313 870.76,-319.26"/>
</g>
<!-- section_starting_resource__seq -->
<g id="node7" class="node">
<title>section_starting_resource__seq</title>
<polygon fill="#e0ffe0" stroke="transparent" points="890,-405 890,-426 921,-426 921,-405 890,-405"/>
<polygon fill="none" stroke="black" points="890,-405 890,-426 921,-426 921,-405 890,-405"/>
<text text-anchor="start" x="893" y="-411.8" font-family="Times,serif" font-size="14.00">pos</text>
<polygon fill="#e0ffe0" stroke="transparent" points="921,-405 921,-426 955,-426 955,-405 921,-405"/>
<polygon fill="none" stroke="black" points="921,-405 921,-426 955,-426 955,-405 921,-405"/>
<text text-anchor="start" x="924" y="-411.8" font-family="Times,serif" font-size="14.00">size</text>
<polygon fill="#e0ffe0" stroke="transparent" points="955,-405 955,-426 993,-426 993,-405 955,-405"/>
<polygon fill="none" stroke="black" points="955,-405 955,-426 993,-426 993,-405 955,-405"/>
<text text-anchor="start" x="958" y="-411.8" font-family="Times,serif" font-size="14.00">type</text>
<polygon fill="#e0ffe0" stroke="transparent" points="993,-405 993,-426 1145,-426 1145,-405 993,-405"/>
<polygon fill="none" stroke="black" points="993,-405 993,-426 1145,-426 1145,-405 993,-405"/>
<text text-anchor="start" x="1062" y="-411.8" font-family="Times,serif" font-size="14.00">id</text>
<polygon fill="none" stroke="black" points="890,-384 890,-405 921,-405 921,-384 890,-384"/>
<text text-anchor="start" x="900.5" y="-390.8" font-family="Times,serif" font-size="14.00">0</text>
<polygon fill="none" stroke="black" points="921,-384 921,-405 955,-405 955,-384 921,-384"/>
<text text-anchor="start" x="933" y="-390.8" font-family="Times,serif" font-size="14.00">2</text>
<polygon fill="none" stroke="black" points="955,-384 955,-405 993,-405 993,-384 955,-384"/>
<text text-anchor="start" x="958.5" y="-390.8" font-family="Times,serif" font-size="14.00">u2le</text>
<polygon fill="none" stroke="black" points="993,-384 993,-405 1145,-405 1145,-384 993,-384"/>
<text text-anchor="start" x="996" y="-390.8" font-family="Times,serif" font-size="14.00">resources_by_player</text>
<polygon fill="none" stroke="black" points="890,-363 890,-384 1145,-384 1145,-363 890,-363"/>
<text text-anchor="start" x="933" y="-369.8" font-family="Times,serif" font-size="14.00">repeat to end of stream</text>
</g>
<!-- section__seq_body_switch&#45;&gt;section_starting_resource__seq -->
<g id="edge7" class="edge">
<title>section__seq_body_switch:case4&#45;&gt;section_starting_resource__seq</title>
<path fill="none" stroke="black" stroke-width="2" d="M790.5,-405C816.56,-405 844.3,-404.33 871.09,-403.33"/>
<polygon fill="black" stroke="black" stroke-width="2" points="871.44,-406.81 881.3,-402.93 871.17,-399.82 871.44,-406.81"/>
</g>
<!-- section__seq_body_switch&#45;&gt;section_starting_resource__seq -->
<g id="edge8" class="edge">
<title>section__seq_body_switch:case5&#45;&gt;section_starting_resource__seq</title>
<path fill="none" stroke="black" stroke-width="2" d="M790.5,-384C816.57,-384 844.31,-384.74 871.1,-385.84"/>
<polygon fill="black" stroke="black" stroke-width="2" points="871.17,-389.35 881.31,-386.28 871.47,-382.35 871.17,-389.35"/>
</g>
<!-- section__seq_body_switch&#45;&gt;section_starting_resource__seq -->
<g id="edge9" class="edge">
<title>section__seq_body_switch:case6&#45;&gt;section_starting_resource__seq</title>
<path fill="none" stroke="black" stroke-width="2" d="M790.5,-363C816.71,-363 844.46,-365.15 871.21,-368.32"/>
<polygon fill="black" stroke="black" stroke-width="2" points="871.04,-371.83 881.4,-369.59 871.91,-364.88 871.04,-371.83"/>
</g>
<!-- section_type__seq -->
<g id="node8" class="node">
<title>section_type__seq</title>
<polygon fill="#e0ffe0" stroke="transparent" points="841,-545 841,-566 872,-566 872,-545 841,-545"/>
<polygon fill="none" stroke="black" points="841,-545 841,-566 872,-566 872,-545 841,-545"/>
<text text-anchor="start" x="844" y="-551.8" font-family="Times,serif" font-size="14.00">pos</text>
<polygon fill="#e0ffe0" stroke="transparent" points="872,-545 872,-566 906,-566 906,-545 872,-545"/>
<polygon fill="none" stroke="black" points="872,-545 872,-566 906,-566 906,-545 872,-545"/>
<text text-anchor="start" x="875" y="-551.8" font-family="Times,serif" font-size="14.00">size</text>
<polygon fill="#e0ffe0" stroke="transparent" points="906,-545 906,-566 1135,-566 1135,-545 906,-545"/>
<polygon fill="none" stroke="black" points="906,-545 906,-566 1135,-566 1135,-545 906,-545"/>
<text text-anchor="start" x="1004.5" y="-551.8" font-family="Times,serif" font-size="14.00">type</text>
<polygon fill="#e0ffe0" stroke="transparent" points="1135,-545 1135,-566 1193,-566 1193,-545 1135,-545"/>
<polygon fill="none" stroke="black" points="1135,-545 1135,-566 1193,-566 1193,-545 1135,-545"/>
<text text-anchor="start" x="1157" y="-551.8" font-family="Times,serif" font-size="14.00">id</text>
<polygon fill="none" stroke="black" points="841,-524 841,-545 872,-545 872,-524 841,-524"/>
<text text-anchor="start" x="851.5" y="-530.8" font-family="Times,serif" font-size="14.00">0</text>
<polygon fill="none" stroke="black" points="872,-524 872,-545 906,-545 906,-524 872,-524"/>
<text text-anchor="start" x="879.5" y="-530.8" font-family="Times,serif" font-size="14.00">10</text>
<polygon fill="none" stroke="black" points="906,-524 906,-545 1135,-545 1135,-524 906,-524"/>
<text text-anchor="start" x="909" y="-530.8" font-family="Times,serif" font-size="14.00">57 41 52 32 20 4D 41 50 00 00</text>
<polygon fill="none" stroke="black" points="1135,-524 1135,-545 1193,-545 1193,-524 1135,-524"/>
<text text-anchor="start" x="1142.5" y="-530.8" font-family="Times,serif" font-size="14.00">magic</text>
<polygon fill="none" stroke="black" points="841,-503 841,-524 872,-524 872,-503 841,-503"/>
<text text-anchor="start" x="847" y="-509.8" font-family="Times,serif" font-size="14.00">10</text>
<polygon fill="none" stroke="black" points="872,-503 872,-524 906,-524 906,-503 872,-503"/>
<text text-anchor="start" x="884" y="-509.8" font-family="Times,serif" font-size="14.00">2</text>
<polygon fill="none" stroke="black" points="906,-503 906,-524 1135,-524 1135,-503 906,-503"/>
<polygon fill="none" stroke="black" points="1135,-503 1135,-524 1193,-524 1193,-503 1135,-503"/>
<text text-anchor="start" x="1138" y="-509.8" font-family="Times,serif" font-size="14.00">unused</text>
<polygon fill="none" stroke="black" points="841,-482 841,-503 872,-503 872,-482 841,-482"/>
<text text-anchor="start" x="847" y="-488.8" font-family="Times,serif" font-size="14.00">12</text>
<polygon fill="none" stroke="black" points="872,-482 872,-503 906,-503 906,-482 872,-482"/>
<text text-anchor="start" x="884" y="-488.8" font-family="Times,serif" font-size="14.00">4</text>
<polygon fill="none" stroke="black" points="906,-482 906,-503 1135,-503 1135,-482 906,-482"/>
<text text-anchor="start" x="1005" y="-488.8" font-family="Times,serif" font-size="14.00">u4le</text>
<polygon fill="none" stroke="black" points="1135,-482 1135,-503 1193,-503 1193,-482 1135,-482"/>
<text text-anchor="start" x="1142" y="-488.8" font-family="Times,serif" font-size="14.00">id_tag</text>
</g>
<!-- section__seq_body_switch&#45;&gt;section_type__seq -->
<g id="edge10" class="edge">
<title>section__seq_body_switch:case7&#45;&gt;section_type__seq</title>
<path fill="none" stroke="black" stroke-width="2" d="M790.5,-342C847.7,-342 785.03,-425.08 825,-466 826.67,-467.71 828.39,-469.37 830.16,-470.99"/>
<polygon fill="black" stroke="black" stroke-width="2" points="828.28,-473.98 838.18,-477.75 832.79,-468.63 828.28,-473.98"/>
</g>
<!-- section_unit__seq -->
<g id="node9" class="node">
<title>section_unit__seq</title>
<polygon fill="#e0ffe0" stroke="transparent" points="930,-663 930,-684 975,-684 975,-663 930,-663"/>
<polygon fill="none" stroke="black" points="930,-663 930,-684 975,-684 975,-663 930,-663"/>
<text text-anchor="start" x="940" y="-669.8" font-family="Times,serif" font-size="14.00">pos</text>
<polygon fill="#e0ffe0" stroke="transparent" points="975,-663 975,-684 1016,-684 1016,-663 975,-663"/>
<polygon fill="none" stroke="black" points="975,-663 975,-684 1016,-684 1016,-663 975,-663"/>
<text text-anchor="start" x="981.5" y="-669.8" font-family="Times,serif" font-size="14.00">size</text>
<polygon fill="#e0ffe0" stroke="transparent" points="1016,-663 1016,-684 1058,-684 1058,-663 1016,-663"/>
<polygon fill="none" stroke="black" points="1016,-663 1016,-684 1058,-684 1058,-663 1016,-663"/>
<text text-anchor="start" x="1021" y="-669.8" font-family="Times,serif" font-size="14.00">type</text>
<polygon fill="#e0ffe0" stroke="transparent" points="1058,-663 1058,-684 1105,-684 1105,-663 1058,-663"/>
<polygon fill="none" stroke="black" points="1058,-663 1058,-684 1105,-684 1105,-663 1058,-663"/>
<text text-anchor="start" x="1074.5" y="-669.8" font-family="Times,serif" font-size="14.00">id</text>
<polygon fill="none" stroke="black" points="930,-642 930,-663 975,-663 975,-642 930,-642"/>
<text text-anchor="start" x="947.5" y="-648.8" font-family="Times,serif" font-size="14.00">0</text>
<polygon fill="none" stroke="black" points="975,-642 975,-663 1016,-663 1016,-642 975,-642"/>
<text text-anchor="start" x="990.5" y="-648.8" font-family="Times,serif" font-size="14.00">8</text>
<polygon fill="none" stroke="black" points="1016,-642 1016,-663 1058,-663 1058,-642 1016,-642"/>
<text text-anchor="start" x="1021" y="-648.8" font-family="Times,serif" font-size="14.00">Unit</text>
<polygon fill="none" stroke="black" points="1058,-642 1058,-663 1105,-663 1105,-642 1058,-642"/>
<text text-anchor="start" x="1063" y="-648.8" font-family="Times,serif" font-size="14.00">units</text>
<polygon fill="none" stroke="black" points="930,-621 930,-642 1105,-642 1105,-621 930,-621"/>
<text text-anchor="start" x="933" y="-627.8" font-family="Times,serif" font-size="14.00">repeat to end of stream</text>
</g>
<!-- section__seq_body_switch&#45;&gt;section_unit__seq -->
<g id="edge11" class="edge">
<title>section__seq_body_switch:case8&#45;&gt;section_unit__seq</title>
<path fill="none" stroke="black" stroke-width="2" d="M790.5,-321C854.08,-321 782.95,-557.32 825,-605 846.83,-629.75 879.34,-642.66 911.39,-649.14"/>
<polygon fill="black" stroke="black" stroke-width="2" points="910.84,-652.6 921.31,-650.95 912.1,-645.71 910.84,-652.6"/>
</g>
<!-- section_ver__seq -->
<g id="node10" class="node">
<title>section_ver__seq</title>
<polygon fill="#e0ffe0" stroke="transparent" points="936,-761 936,-782 967,-782 967,-761 936,-761"/>
<polygon fill="none" stroke="black" points="936,-761 936,-782 967,-782 967,-761 936,-761"/>
<text text-anchor="start" x="939" y="-767.8" font-family="Times,serif" font-size="14.00">pos</text>
<polygon fill="#e0ffe0" stroke="transparent" points="967,-761 967,-782 1001,-782 1001,-761 967,-761"/>
<polygon fill="none" stroke="black" points="967,-761 967,-782 1001,-782 1001,-761 967,-761"/>
<text text-anchor="start" x="970" y="-767.8" font-family="Times,serif" font-size="14.00">size</text>
<polygon fill="#e0ffe0" stroke="transparent" points="1001,-761 1001,-782 1039,-782 1039,-761 1001,-761"/>
<polygon fill="none" stroke="black" points="1001,-761 1001,-782 1039,-782 1039,-761 1001,-761"/>
<text text-anchor="start" x="1004" y="-767.8" font-family="Times,serif" font-size="14.00">type</text>
<polygon fill="#e0ffe0" stroke="transparent" points="1039,-761 1039,-782 1098,-782 1098,-761 1039,-761"/>
<polygon fill="none" stroke="black" points="1039,-761 1039,-782 1098,-782 1098,-761 1039,-761"/>
<text text-anchor="start" x="1061.5" y="-767.8" font-family="Times,serif" font-size="14.00">id</text>
<polygon fill="none" stroke="black" points="936,-740 936,-761 967,-761 967,-740 936,-740"/>
<text text-anchor="start" x="946.5" y="-746.8" font-family="Times,serif" font-size="14.00">0</text>
<polygon fill="none" stroke="black" points="967,-740 967,-761 1001,-761 1001,-740 967,-740"/>
<text text-anchor="start" x="979" y="-746.8" font-family="Times,serif" font-size="14.00">2</text>
<polygon fill="none" stroke="black" points="1001,-740 1001,-761 1039,-761 1039,-740 1001,-740"/>
<text text-anchor="start" x="1004.5" y="-746.8" font-family="Times,serif" font-size="14.00">u2le</text>
<polygon fill="none" stroke="black" points="1039,-740 1039,-761 1098,-761 1098,-740 1039,-740"/>
<text text-anchor="start" x="1042" y="-746.8" font-family="Times,serif" font-size="14.00">version</text>
</g>
<!-- section__seq_body_switch&#45;&gt;section_ver__seq -->
<g id="edge12" class="edge">
<title>section__seq_body_switch:case9&#45;&gt;section_ver__seq</title>
<path fill="none" stroke="black" stroke-width="2" d="M790.5,-300C837.77,-300 793.47,-688.79 825,-724 848.17,-749.88 883.56,-760.94 917.6,-764.9"/>
<polygon fill="black" stroke="black" stroke-width="2" points="917.33,-768.39 927.62,-765.88 918.01,-761.43 917.33,-768.39"/>
</g>
<!-- unit__seq -->
<g id="node11" class="node">
<title>unit__seq</title>
<polygon fill="#e0ffe0" stroke="transparent" points="1245.5,-694 1245.5,-715 1276.5,-715 1276.5,-694 1245.5,-694"/>
<polygon fill="none" stroke="black" points="1245.5,-694 1245.5,-715 1276.5,-715 1276.5,-694 1245.5,-694"/>
<text text-anchor="start" x="1248.5" y="-700.8" font-family="Times,serif" font-size="14.00">pos</text>
<polygon fill="#e0ffe0" stroke="transparent" points="1276.5,-694 1276.5,-715 1310.5,-715 1310.5,-694 1276.5,-694"/>
<polygon fill="none" stroke="black" points="1276.5,-694 1276.5,-715 1310.5,-715 1310.5,-694 1276.5,-694"/>
<text text-anchor="start" x="1279.5" y="-700.8" font-family="Times,serif" font-size="14.00">size</text>
<polygon fill="#e0ffe0" stroke="transparent" points="1310.5,-694 1310.5,-715 1413.5,-715 1413.5,-694 1310.5,-694"/>
<polygon fill="none" stroke="black" points="1310.5,-694 1310.5,-715 1413.5,-715 1413.5,-694 1310.5,-694"/>
<text text-anchor="start" x="1346" y="-700.8" font-family="Times,serif" font-size="14.00">type</text>
<polygon fill="#e0ffe0" stroke="transparent" points="1413.5,-694 1413.5,-715 1472.5,-715 1472.5,-694 1413.5,-694"/>
<polygon fill="none" stroke="black" points="1413.5,-694 1413.5,-715 1472.5,-715 1472.5,-694 1413.5,-694"/>
<text text-anchor="start" x="1436" y="-700.8" font-family="Times,serif" font-size="14.00">id</text>
<polygon fill="none" stroke="black" points="1245.5,-673 1245.5,-694 1276.5,-694 1276.5,-673 1245.5,-673"/>
<text text-anchor="start" x="1256" y="-679.8" font-family="Times,serif" font-size="14.00">0</text>
<polygon fill="none" stroke="black" points="1276.5,-673 1276.5,-694 1310.5,-694 1310.5,-673 1276.5,-673"/>
<text text-anchor="start" x="1288.5" y="-679.8" font-family="Times,serif" font-size="14.00">2</text>
<polygon fill="none" stroke="black" points="1310.5,-673 1310.5,-694 1413.5,-694 1413.5,-673 1310.5,-673"/>
<text text-anchor="start" x="1346.5" y="-679.8" font-family="Times,serif" font-size="14.00">u2le</text>
<polygon fill="none" stroke="black" points="1413.5,-673 1413.5,-694 1472.5,-694 1472.5,-673 1413.5,-673"/>
<text text-anchor="start" x="1438.5" y="-679.8" font-family="Times,serif" font-size="14.00">x</text>
<polygon fill="none" stroke="black" points="1245.5,-652 1245.5,-673 1276.5,-673 1276.5,-652 1245.5,-652"/>
<text text-anchor="start" x="1256" y="-658.8" font-family="Times,serif" font-size="14.00">2</text>
<polygon fill="none" stroke="black" points="1276.5,-652 1276.5,-673 1310.5,-673 1310.5,-652 1276.5,-652"/>
<text text-anchor="start" x="1288.5" y="-658.8" font-family="Times,serif" font-size="14.00">2</text>
<polygon fill="none" stroke="black" points="1310.5,-652 1310.5,-673 1413.5,-673 1413.5,-652 1310.5,-652"/>
<text text-anchor="start" x="1346.5" y="-658.8" font-family="Times,serif" font-size="14.00">u2le</text>
<polygon fill="none" stroke="black" points="1413.5,-652 1413.5,-673 1472.5,-673 1472.5,-652 1413.5,-652"/>
<text text-anchor="start" x="1438.5" y="-658.8" font-family="Times,serif" font-size="14.00">y</text>
<polygon fill="none" stroke="black" points="1245.5,-631 1245.5,-652 1276.5,-652 1276.5,-631 1245.5,-631"/>
<text text-anchor="start" x="1256" y="-637.8" font-family="Times,serif" font-size="14.00">4</text>
<polygon fill="none" stroke="black" points="1276.5,-631 1276.5,-652 1310.5,-652 1310.5,-631 1276.5,-631"/>
<text text-anchor="start" x="1288.5" y="-637.8" font-family="Times,serif" font-size="14.00">1</text>
<polygon fill="none" stroke="black" points="1310.5,-631 1310.5,-652 1413.5,-652 1413.5,-631 1310.5,-631"/>
<text text-anchor="start" x="1313.5" y="-637.8" font-family="Times,serif" font-size="14.00">u1→UnitType</text>
<polygon fill="none" stroke="black" points="1413.5,-631 1413.5,-652 1472.5,-652 1472.5,-631 1413.5,-631"/>
<text text-anchor="start" x="1419" y="-637.8" font-family="Times,serif" font-size="14.00">u_type</text>
<polygon fill="none" stroke="black" points="1245.5,-610 1245.5,-631 1276.5,-631 1276.5,-610 1245.5,-610"/>
<text text-anchor="start" x="1256" y="-616.8" font-family="Times,serif" font-size="14.00">5</text>
<polygon fill="none" stroke="black" points="1276.5,-610 1276.5,-631 1310.5,-631 1310.5,-610 1276.5,-610"/>
<text text-anchor="start" x="1288.5" y="-616.8" font-family="Times,serif" font-size="14.00">1</text>
<polygon fill="none" stroke="black" points="1310.5,-610 1310.5,-631 1413.5,-631 1413.5,-610 1310.5,-610"/>
<text text-anchor="start" x="1352.5" y="-616.8" font-family="Times,serif" font-size="14.00">u1</text>
<polygon fill="none" stroke="black" points="1413.5,-610 1413.5,-631 1472.5,-631 1472.5,-610 1413.5,-610"/>
<text text-anchor="start" x="1420.5" y="-616.8" font-family="Times,serif" font-size="14.00">owner</text>
<polygon fill="none" stroke="black" points="1245.5,-589 1245.5,-610 1276.5,-610 1276.5,-589 1245.5,-589"/>
<text text-anchor="start" x="1256" y="-595.8" font-family="Times,serif" font-size="14.00">6</text>
<polygon fill="none" stroke="black" points="1276.5,-589 1276.5,-610 1310.5,-610 1310.5,-589 1276.5,-589"/>
<text text-anchor="start" x="1288.5" y="-595.8" font-family="Times,serif" font-size="14.00">2</text>
<polygon fill="none" stroke="black" points="1310.5,-589 1310.5,-610 1413.5,-610 1413.5,-589 1310.5,-589"/>
<text text-anchor="start" x="1346.5" y="-595.8" font-family="Times,serif" font-size="14.00">u2le</text>
<polygon fill="none" stroke="black" points="1413.5,-589 1413.5,-610 1472.5,-610 1472.5,-589 1413.5,-589"/>
<text text-anchor="start" x="1416.5" y="-595.8" font-family="Times,serif" font-size="14.00">options</text>
</g>
<!-- section_unit__seq&#45;&gt;unit__seq -->
<g id="edge14" class="edge">
<title>section_unit__seq:units_type&#45;&gt;unit__seq</title>
<path fill="none" stroke="black" stroke-width="2" d="M1106,-652C1145.18,-652 1187.79,-652 1226.62,-652"/>
<polygon fill="black" stroke="black" stroke-width="2" points="1226.93,-655.5 1236.93,-652 1226.93,-648.5 1226.93,-655.5"/>
</g>
<!-- unit__inst__resource -->
<g id="node12" class="node">
<title>unit__inst__resource</title>
<polygon fill="#e0ffe0" stroke="transparent" points="1524,-610 1524,-631 1593,-631 1593,-610 1524,-610"/>
<polygon fill="none" stroke="black" points="1524,-610 1524,-631 1593,-631 1593,-610 1524,-610"/>
<text text-anchor="start" x="1551.5" y="-616.8" font-family="Times,serif" font-size="14.00">id</text>
<polygon fill="#e0ffe0" stroke="transparent" points="1593,-610 1593,-631 1704,-631 1704,-610 1593,-610"/>
<polygon fill="none" stroke="black" points="1593,-610 1593,-631 1704,-631 1704,-610 1593,-610"/>
<text text-anchor="start" x="1629" y="-616.8" font-family="Times,serif" font-size="14.00">value</text>
<polygon fill="none" stroke="black" points="1524,-589 1524,-610 1593,-610 1593,-589 1524,-589"/>
<text text-anchor="start" x="1527" y="-595.8" font-family="Times,serif" font-size="14.00">resource</text>
<polygon fill="none" stroke="black" points="1593,-589 1593,-610 1704,-610 1704,-589 1593,-589"/>
<text text-anchor="start" x="1596" y="-595.8" font-family="Times,serif" font-size="14.00">options * 2500</text>
</g>
<!-- unit__seq&#45;&gt;unit__inst__resource -->
<g id="edge15" class="edge">
<title>unit__seq:options_type&#45;&gt;unit__inst__resource</title>
<path fill="none" stroke="#404040" d="M1473.5,-599C1484.01,-599 1494.95,-599.31 1505.88,-599.84"/>
<polygon fill="#404040" stroke="#404040" points="1505.72,-603.33 1515.89,-600.37 1506.09,-596.34 1505.72,-603.33"/>
</g>
</g>
</svg>
