<?xml version="1.0" encoding="UTF-8" standalone="no"?>
<!DOCTYPE svg PUBLIC "-//W3C//DTD SVG 1.1//EN"
 "http://www.w3.org/Graphics/SVG/1.1/DTD/svg11.dtd">
<!-- Generated by graphviz version 2.38.0 (20140413.2041)
 -->
<!-- Title: %3 Pages: 1 -->
<svg width="1763pt" height="864pt"
 viewBox="0.00 0.00 1763.00 864.00" xmlns="http://www.w3.org/2000/svg" xmlns:xlink="http://www.w3.org/1999/xlink">
<g id="graph0" class="graph" transform="scale(1 1) rotate(0) translate(4 860)">
<title>%3</title>
<polygon fill="white" stroke="none" points="-4,4 -4,-860 1759,-860 1759,4 -4,4"/>
<g id="clust1" class="cluster"><title>cluster__warcraft_2_pud</title>
<polygon fill="none" stroke="black" stroke-dasharray="1,5" points="8,-8 8,-848 1747,-848 1747,-8 8,-8"/>
<text text-anchor="middle" x="877.5" y="-832.8" font-family="Times,serif" font-size="14.00">Warcraft2Pud</text>
</g>
<g id="clust2" class="cluster"><title>cluster__section_starting_resource</title>
<polygon fill="none" stroke="black" stroke-dasharray="1,5" points="871.5,-16 871.5,-127 1176.5,-127 1176.5,-16 871.5,-16"/>
<text text-anchor="middle" x="1024" y="-111.8" font-family="Times,serif" font-size="14.00">Warcraft2Pud::SectionStartingResource</text>
</g>
<g id="clust3" class="cluster"><title>cluster__section_era</title>
<polygon fill="none" stroke="black" stroke-dasharray="1,5" points="879,-135 879,-224 1169,-224 1169,-135 879,-135"/>
<text text-anchor="middle" x="1024" y="-208.8" font-family="Times,serif" font-size="14.00">Warcraft2Pud::SectionEra</text>
</g>
<g id="clust4" class="cluster"><title>cluster__section_ver</title>
<polygon fill="none" stroke="black" stroke-dasharray="1,5" points="923,-232 923,-321 1126,-321 1126,-232 923,-232"/>
<text text-anchor="middle" x="1024.5" y="-305.8" font-family="Times,serif" font-size="14.00">Warcraft2Pud::SectionVer</text>
</g>
<g id="clust5" class="cluster"><title>cluster__section_dim</title>
<polygon fill="none" stroke="black" stroke-dasharray="1,5" points="919.5,-329 919.5,-440 1128.5,-440 1128.5,-329 919.5,-329"/>
<text text-anchor="middle" x="1024" y="-424.8" font-family="Times,serif" font-size="14.00">Warcraft2Pud::SectionDim</text>
</g>
<g id="clust6" class="cluster"><title>cluster__section_type</title>
<polygon fill="none" stroke="black" stroke-dasharray="1,5" points="832,-448 832,-579 1216,-579 1216,-448 832,-448"/>
<text text-anchor="middle" x="1024" y="-563.8" font-family="Times,serif" font-size="14.00">Warcraft2Pud::SectionType</text>
</g>
<g id="clust7" class="cluster"><title>cluster__section_unit</title>
<polygon fill="none" stroke="black" stroke-dasharray="1,5" points="918.5,-587 918.5,-698 1129.5,-698 1129.5,-587 918.5,-587"/>
<text text-anchor="middle" x="1024" y="-682.8" font-family="Times,serif" font-size="14.00">Warcraft2Pud::SectionUnit</text>
</g>
<g id="clust8" class="cluster"><title>cluster__section</title>
<polygon fill="none" stroke="black" stroke-dasharray="1,5" points="252,-90 252,-368 812,-368 812,-90 252,-90"/>
<text text-anchor="middle" x="532" y="-352.8" font-family="Times,serif" font-size="14.00">Warcraft2Pud::Section</text>
</g>
<g id="clust9" class="cluster"><title>cluster__section_ownr</title>
<polygon fill="none" stroke="black" stroke-dasharray="1,5" points="843.5,-706 843.5,-817 1204.5,-817 1204.5,-706 843.5,-706"/>
<text text-anchor="middle" x="1024" y="-801.8" font-family="Times,serif" font-size="14.00">Warcraft2Pud::SectionOwnr</text>
</g>
<g id="clust10" class="cluster"><title>cluster__unit</title>
<polygon fill="none" stroke="black" stroke-dasharray="1,5" points="1236,-555 1236,-728 1739,-728 1739,-555 1236,-555"/>
<text text-anchor="middle" x="1487.5" y="-712.8" font-family="Times,serif" font-size="14.00">Warcraft2Pud::Unit</text>
</g>
<!-- warcraft_2_pud__seq -->
<g id="node1" class="node"><title>warcraft_2_pud__seq</title>
<polygon fill="#e0ffe0" stroke="none" points="24,-260 24,-281 55,-281 55,-260 24,-260"/>
<polygon fill="none" stroke="black" points="24,-260 24,-281 55,-281 55,-260 24,-260"/>
<text text-anchor="start" x="27" y="-266.8" font-family="Times,serif" font-size="14.00">pos</text>
<polygon fill="#e0ffe0" stroke="none" points="55,-260 55,-281 89,-281 89,-260 55,-260"/>
<polygon fill="none" stroke="black" points="55,-260 55,-281 89,-281 89,-260 55,-260"/>
<text text-anchor="start" x="58" y="-266.8" font-family="Times,serif" font-size="14.00">size</text>
<polygon fill="#e0ffe0" stroke="none" points="89,-260 89,-281 150,-281 150,-260 89,-260"/>
<polygon fill="none" stroke="black" points="89,-260 89,-281 150,-281 150,-260 89,-260"/>
<text text-anchor="start" x="103.5" y="-266.8" font-family="Times,serif" font-size="14.00">type</text>
<polygon fill="#e0ffe0" stroke="none" points="150,-260 150,-281 216,-281 216,-260 150,-260"/>
<polygon fill="none" stroke="black" points="150,-260 150,-281 216,-281 216,-260 150,-260"/>
<text text-anchor="start" x="176" y="-266.8" font-family="Times,serif" font-size="14.00">id</text>
<polygon fill="none" stroke="black" points="24,-239 24,-260 55,-260 55,-239 24,-239"/>
<text text-anchor="start" x="34.5" y="-245.8" font-family="Times,serif" font-size="14.00">0</text>
<polygon fill="none" stroke="black" points="55,-239 55,-260 89,-260 89,-239 55,-239"/>
<text text-anchor="start" x="65" y="-245.8" font-family="Times,serif" font-size="14.00">...</text>
<polygon fill="none" stroke="black" points="89,-239 89,-260 150,-260 150,-239 89,-239"/>
<text text-anchor="start" x="92" y="-245.8" font-family="Times,serif" font-size="14.00">Section</text>
<polygon fill="none" stroke="black" points="150,-239 150,-260 216,-260 216,-239 150,-239"/>
<text text-anchor="start" x="153" y="-245.8" font-family="Times,serif" font-size="14.00">sections</text>
<polygon fill="none" stroke="black" points="24,-218 24,-239 216,-239 216,-218 24,-218"/>
<text text-anchor="start" x="35.5" y="-224.8" font-family="Times,serif" font-size="14.00">repeat to end of stream</text>
</g>
<!-- section__seq -->
<g id="node8" class="node"><title>section__seq</title>
<polygon fill="#e0ffe0" stroke="none" points="268.5,-270 268.5,-291 299.5,-291 299.5,-270 268.5,-270"/>
<polygon fill="none" stroke="black" points="268.5,-270 268.5,-291 299.5,-291 299.5,-270 268.5,-270"/>
<text text-anchor="start" x="271.5" y="-276.8" font-family="Times,serif" font-size="14.00">pos</text>
<polygon fill="#e0ffe0" stroke="none" points="299.5,-270 299.5,-291 333.5,-291 333.5,-270 299.5,-270"/>
<polygon fill="none" stroke="black" points="299.5,-270 299.5,-291 333.5,-291 333.5,-270 299.5,-270"/>
<text text-anchor="start" x="302.5" y="-276.8" font-family="Times,serif" font-size="14.00">size</text>
<polygon fill="#e0ffe0" stroke="none" points="333.5,-270 333.5,-291 441.5,-291 441.5,-270 333.5,-270"/>
<polygon fill="none" stroke="black" points="333.5,-270 333.5,-291 441.5,-291 441.5,-270 333.5,-270"/>
<text text-anchor="start" x="371.5" y="-276.8" font-family="Times,serif" font-size="14.00">type</text>
<polygon fill="#e0ffe0" stroke="none" points="441.5,-270 441.5,-291 487.5,-291 487.5,-270 441.5,-270"/>
<polygon fill="none" stroke="black" points="441.5,-270 441.5,-291 487.5,-291 487.5,-270 441.5,-270"/>
<text text-anchor="start" x="457.5" y="-276.8" font-family="Times,serif" font-size="14.00">id</text>
<polygon fill="none" stroke="black" points="268.5,-249 268.5,-270 299.5,-270 299.5,-249 268.5,-249"/>
<text text-anchor="start" x="279" y="-255.8" font-family="Times,serif" font-size="14.00">0</text>
<polygon fill="none" stroke="black" points="299.5,-249 299.5,-270 333.5,-270 333.5,-249 299.5,-249"/>
<text text-anchor="start" x="311.5" y="-255.8" font-family="Times,serif" font-size="14.00">4</text>
<polygon fill="none" stroke="black" points="333.5,-249 333.5,-270 441.5,-270 441.5,-249 333.5,-249"/>
<text text-anchor="start" x="350" y="-255.8" font-family="Times,serif" font-size="14.00">str(ASCII)</text>
<polygon fill="none" stroke="black" points="441.5,-249 441.5,-270 487.5,-270 487.5,-249 441.5,-249"/>
<text text-anchor="start" x="444.5" y="-255.8" font-family="Times,serif" font-size="14.00">name</text>
<polygon fill="none" stroke="black" points="268.5,-228 268.5,-249 299.5,-249 299.5,-228 268.5,-228"/>
<text text-anchor="start" x="279" y="-234.8" font-family="Times,serif" font-size="14.00">4</text>
<polygon fill="none" stroke="black" points="299.5,-228 299.5,-249 333.5,-249 333.5,-228 299.5,-228"/>
<text text-anchor="start" x="311.5" y="-234.8" font-family="Times,serif" font-size="14.00">4</text>
<polygon fill="none" stroke="black" points="333.5,-228 333.5,-249 441.5,-249 441.5,-228 333.5,-228"/>
<text text-anchor="start" x="372" y="-234.8" font-family="Times,serif" font-size="14.00">u4le</text>
<polygon fill="none" stroke="black" points="441.5,-228 441.5,-249 487.5,-249 487.5,-228 441.5,-228"/>
<text text-anchor="start" x="450.5" y="-234.8" font-family="Times,serif" font-size="14.00">size</text>
<polygon fill="none" stroke="black" points="268.5,-207 268.5,-228 299.5,-228 299.5,-207 268.5,-207"/>
<text text-anchor="start" x="279" y="-213.8" font-family="Times,serif" font-size="14.00">8</text>
<polygon fill="none" stroke="black" points="299.5,-207 299.5,-228 333.5,-228 333.5,-207 299.5,-207"/>
<text text-anchor="start" x="309.5" y="-213.8" font-family="Times,serif" font-size="14.00">...</text>
<polygon fill="none" stroke="black" points="333.5,-207 333.5,-228 441.5,-228 441.5,-207 333.5,-207"/>
<text text-anchor="start" x="336.5" y="-213.8" font-family="Times,serif" font-size="14.00">switch (name)</text>
<polygon fill="none" stroke="black" points="441.5,-207 441.5,-228 487.5,-228 487.5,-207 441.5,-207"/>
<text text-anchor="start" x="447" y="-213.8" font-family="Times,serif" font-size="14.00">body</text>
</g>
<!-- warcraft_2_pud__seq&#45;&gt;section__seq -->
<g id="edge1" class="edge"><title>warcraft_2_pud__seq:sections_type&#45;&gt;section__seq</title>
<path fill="none" stroke="black" stroke-width="2" d="M217,-249C227.6,-249 238.597,-249 249.635,-249"/>
<polygon fill="black" stroke="black" stroke-width="2" points="249.772,-252.5 259.772,-249 249.772,-245.5 249.772,-252.5"/>
</g>
<!-- section_starting_resource__seq -->
<g id="node2" class="node"><title>section_starting_resource__seq</title>
<polygon fill="#e0ffe0" stroke="none" points="896,-70 896,-91 927,-91 927,-70 896,-70"/>
<polygon fill="none" stroke="black" points="896,-70 896,-91 927,-91 927,-70 896,-70"/>
<text text-anchor="start" x="899" y="-76.8" font-family="Times,serif" font-size="14.00">pos</text>
<polygon fill="#e0ffe0" stroke="none" points="927,-70 927,-91 961,-91 961,-70 927,-70"/>
<polygon fill="none" stroke="black" points="927,-70 927,-91 961,-91 961,-70 927,-70"/>
<text text-anchor="start" x="930" y="-76.8" font-family="Times,serif" font-size="14.00">size</text>
<polygon fill="#e0ffe0" stroke="none" points="961,-70 961,-91 999,-91 999,-70 961,-70"/>
<polygon fill="none" stroke="black" points="961,-70 961,-91 999,-91 999,-70 961,-70"/>
<text text-anchor="start" x="964" y="-76.8" font-family="Times,serif" font-size="14.00">type</text>
<polygon fill="#e0ffe0" stroke="none" points="999,-70 999,-91 1153,-91 1153,-70 999,-70"/>
<polygon fill="none" stroke="black" points="999,-70 999,-91 1153,-91 1153,-70 999,-70"/>
<text text-anchor="start" x="1069" y="-76.8" font-family="Times,serif" font-size="14.00">id</text>
<polygon fill="none" stroke="black" points="896,-49 896,-70 927,-70 927,-49 896,-49"/>
<text text-anchor="start" x="906.5" y="-55.8" font-family="Times,serif" font-size="14.00">0</text>
<polygon fill="none" stroke="black" points="927,-49 927,-70 961,-70 961,-49 927,-49"/>
<text text-anchor="start" x="939" y="-55.8" font-family="Times,serif" font-size="14.00">2</text>
<polygon fill="none" stroke="black" points="961,-49 961,-70 999,-70 999,-49 961,-49"/>
<text text-anchor="start" x="964.5" y="-55.8" font-family="Times,serif" font-size="14.00">u2le</text>
<polygon fill="none" stroke="black" points="999,-49 999,-70 1153,-70 1153,-49 999,-49"/>
<text text-anchor="start" x="1002" y="-55.8" font-family="Times,serif" font-size="14.00">resources_by_player</text>
<polygon fill="none" stroke="black" points="896,-28 896,-49 1153,-49 1153,-28 896,-28"/>
<text text-anchor="start" x="940" y="-34.8" font-family="Times,serif" font-size="14.00">repeat to end of stream</text>
</g>
<!-- section_era__seq -->
<g id="node3" class="node"><title>section_era__seq</title>
<polygon fill="#e0ffe0" stroke="none" points="895,-168 895,-189 926,-189 926,-168 895,-168"/>
<polygon fill="none" stroke="black" points="895,-168 895,-189 926,-189 926,-168 895,-168"/>
<text text-anchor="start" x="898" y="-174.8" font-family="Times,serif" font-size="14.00">pos</text>
<polygon fill="#e0ffe0" stroke="none" points="926,-168 926,-189 960,-189 960,-168 926,-168"/>
<polygon fill="none" stroke="black" points="926,-168 926,-189 960,-189 960,-168 926,-168"/>
<text text-anchor="start" x="929" y="-174.8" font-family="Times,serif" font-size="14.00">size</text>
<polygon fill="#e0ffe0" stroke="none" points="960,-168 960,-189 1097,-189 1097,-168 960,-168"/>
<polygon fill="none" stroke="black" points="960,-168 960,-189 1097,-189 1097,-168 960,-168"/>
<text text-anchor="start" x="1012.5" y="-174.8" font-family="Times,serif" font-size="14.00">type</text>
<polygon fill="#e0ffe0" stroke="none" points="1097,-168 1097,-189 1153,-189 1153,-168 1097,-168"/>
<polygon fill="none" stroke="black" points="1097,-168 1097,-189 1153,-189 1153,-168 1097,-168"/>
<text text-anchor="start" x="1118" y="-174.8" font-family="Times,serif" font-size="14.00">id</text>
<polygon fill="none" stroke="black" points="895,-147 895,-168 926,-168 926,-147 895,-147"/>
<text text-anchor="start" x="905.5" y="-153.8" font-family="Times,serif" font-size="14.00">0</text>
<polygon fill="none" stroke="black" points="926,-147 926,-168 960,-168 960,-147 926,-147"/>
<text text-anchor="start" x="938" y="-153.8" font-family="Times,serif" font-size="14.00">2</text>
<polygon fill="none" stroke="black" points="960,-147 960,-168 1097,-168 1097,-147 960,-147"/>
<text text-anchor="start" x="963" y="-153.8" font-family="Times,serif" font-size="14.00">u2le→TerrainType</text>
<polygon fill="none" stroke="black" points="1097,-147 1097,-168 1153,-168 1153,-147 1097,-147"/>
<text text-anchor="start" x="1100" y="-153.8" font-family="Times,serif" font-size="14.00">terrain</text>
</g>
<!-- section_ver__seq -->
<g id="node4" class="node"><title>section_ver__seq</title>
<polygon fill="#e0ffe0" stroke="none" points="943,-265 943,-286 974,-286 974,-265 943,-265"/>
<polygon fill="none" stroke="black" points="943,-265 943,-286 974,-286 974,-265 943,-265"/>
<text text-anchor="start" x="946" y="-271.8" font-family="Times,serif" font-size="14.00">pos</text>
<polygon fill="#e0ffe0" stroke="none" points="974,-265 974,-286 1008,-286 1008,-265 974,-265"/>
<polygon fill="none" stroke="black" points="974,-265 974,-286 1008,-286 1008,-265 974,-265"/>
<text text-anchor="start" x="977" y="-271.8" font-family="Times,serif" font-size="14.00">size</text>
<polygon fill="#e0ffe0" stroke="none" points="1008,-265 1008,-286 1046,-286 1046,-265 1008,-265"/>
<polygon fill="none" stroke="black" points="1008,-265 1008,-286 1046,-286 1046,-265 1008,-265"/>
<text text-anchor="start" x="1011" y="-271.8" font-family="Times,serif" font-size="14.00">type</text>
<polygon fill="#e0ffe0" stroke="none" points="1046,-265 1046,-286 1105,-286 1105,-265 1046,-265"/>
<polygon fill="none" stroke="black" points="1046,-265 1046,-286 1105,-286 1105,-265 1046,-265"/>
<text text-anchor="start" x="1068.5" y="-271.8" font-family="Times,serif" font-size="14.00">id</text>
<polygon fill="none" stroke="black" points="943,-244 943,-265 974,-265 974,-244 943,-244"/>
<text text-anchor="start" x="953.5" y="-250.8" font-family="Times,serif" font-size="14.00">0</text>
<polygon fill="none" stroke="black" points="974,-244 974,-265 1008,-265 1008,-244 974,-244"/>
<text text-anchor="start" x="986" y="-250.8" font-family="Times,serif" font-size="14.00">2</text>
<polygon fill="none" stroke="black" points="1008,-244 1008,-265 1046,-265 1046,-244 1008,-244"/>
<text text-anchor="start" x="1011.5" y="-250.8" font-family="Times,serif" font-size="14.00">u2le</text>
<polygon fill="none" stroke="black" points="1046,-244 1046,-265 1105,-265 1105,-244 1046,-244"/>
<text text-anchor="start" x="1049" y="-250.8" font-family="Times,serif" font-size="14.00">version</text>
</g>
<!-- section_dim__seq -->
<g id="node5" class="node"><title>section_dim__seq</title>
<polygon fill="#e0ffe0" stroke="none" points="963,-383 963,-404 994,-404 994,-383 963,-383"/>
<polygon fill="none" stroke="black" points="963,-383 963,-404 994,-404 994,-383 963,-383"/>
<text text-anchor="start" x="966" y="-389.8" font-family="Times,serif" font-size="14.00">pos</text>
<polygon fill="#e0ffe0" stroke="none" points="994,-383 994,-404 1028,-404 1028,-383 994,-383"/>
<polygon fill="none" stroke="black" points="994,-383 994,-404 1028,-404 1028,-383 994,-383"/>
<text text-anchor="start" x="997" y="-389.8" font-family="Times,serif" font-size="14.00">size</text>
<polygon fill="#e0ffe0" stroke="none" points="1028,-383 1028,-404 1066,-404 1066,-383 1028,-383"/>
<polygon fill="none" stroke="black" points="1028,-383 1028,-404 1066,-404 1066,-383 1028,-383"/>
<text text-anchor="start" x="1031" y="-389.8" font-family="Times,serif" font-size="14.00">type</text>
<polygon fill="#e0ffe0" stroke="none" points="1066,-383 1066,-404 1086,-404 1086,-383 1066,-383"/>
<polygon fill="none" stroke="black" points="1066,-383 1066,-404 1086,-404 1086,-383 1066,-383"/>
<text text-anchor="start" x="1069" y="-389.8" font-family="Times,serif" font-size="14.00">id</text>
<polygon fill="none" stroke="black" points="963,-362 963,-383 994,-383 994,-362 963,-362"/>
<text text-anchor="start" x="973.5" y="-368.8" font-family="Times,serif" font-size="14.00">0</text>
<polygon fill="none" stroke="black" points="994,-362 994,-383 1028,-383 1028,-362 994,-362"/>
<text text-anchor="start" x="1006" y="-368.8" font-family="Times,serif" font-size="14.00">2</text>
<polygon fill="none" stroke="black" points="1028,-362 1028,-383 1066,-383 1066,-362 1028,-362"/>
<text text-anchor="start" x="1031.5" y="-368.8" font-family="Times,serif" font-size="14.00">u2le</text>
<polygon fill="none" stroke="black" points="1066,-362 1066,-383 1086,-383 1086,-362 1066,-362"/>
<text text-anchor="start" x="1071.5" y="-368.8" font-family="Times,serif" font-size="14.00">x</text>
<polygon fill="none" stroke="black" points="963,-341 963,-362 994,-362 994,-341 963,-341"/>
<text text-anchor="start" x="973.5" y="-347.8" font-family="Times,serif" font-size="14.00">2</text>
<polygon fill="none" stroke="black" points="994,-341 994,-362 1028,-362 1028,-341 994,-341"/>
<text text-anchor="start" x="1006" y="-347.8" font-family="Times,serif" font-size="14.00">2</text>
<polygon fill="none" stroke="black" points="1028,-341 1028,-362 1066,-362 1066,-341 1028,-341"/>
<text text-anchor="start" x="1031.5" y="-347.8" font-family="Times,serif" font-size="14.00">u2le</text>
<polygon fill="none" stroke="black" points="1066,-341 1066,-362 1086,-362 1086,-341 1066,-341"/>
<text text-anchor="start" x="1071.5" y="-347.8" font-family="Times,serif" font-size="14.00">y</text>
</g>
<!-- section_type__seq -->
<g id="node6" class="node"><title>section_type__seq</title>
<polygon fill="#e0ffe0" stroke="none" points="848,-523 848,-544 879,-544 879,-523 848,-523"/>
<polygon fill="none" stroke="black" points="848,-523 848,-544 879,-544 879,-523 848,-523"/>
<text text-anchor="start" x="851" y="-529.8" font-family="Times,serif" font-size="14.00">pos</text>
<polygon fill="#e0ffe0" stroke="none" points="879,-523 879,-544 913,-544 913,-523 879,-523"/>
<polygon fill="none" stroke="black" points="879,-523 879,-544 913,-544 913,-523 879,-523"/>
<text text-anchor="start" x="882" y="-529.8" font-family="Times,serif" font-size="14.00">size</text>
<polygon fill="#e0ffe0" stroke="none" points="913,-523 913,-544 1142,-544 1142,-523 913,-523"/>
<polygon fill="none" stroke="black" points="913,-523 913,-544 1142,-544 1142,-523 913,-523"/>
<text text-anchor="start" x="1011.5" y="-529.8" font-family="Times,serif" font-size="14.00">type</text>
<polygon fill="#e0ffe0" stroke="none" points="1142,-523 1142,-544 1200,-544 1200,-523 1142,-523"/>
<polygon fill="none" stroke="black" points="1142,-523 1142,-544 1200,-544 1200,-523 1142,-523"/>
<text text-anchor="start" x="1164" y="-529.8" font-family="Times,serif" font-size="14.00">id</text>
<polygon fill="none" stroke="black" points="848,-502 848,-523 879,-523 879,-502 848,-502"/>
<text text-anchor="start" x="858.5" y="-508.8" font-family="Times,serif" font-size="14.00">0</text>
<polygon fill="none" stroke="black" points="879,-502 879,-523 913,-523 913,-502 879,-502"/>
<text text-anchor="start" x="886.5" y="-508.8" font-family="Times,serif" font-size="14.00">10</text>
<polygon fill="none" stroke="black" points="913,-502 913,-523 1142,-523 1142,-502 913,-502"/>
<text text-anchor="start" x="916" y="-508.8" font-family="Times,serif" font-size="14.00">57 41 52 32 20 4D 41 50 00 00</text>
<polygon fill="none" stroke="black" points="1142,-502 1142,-523 1200,-523 1200,-502 1142,-502"/>
<text text-anchor="start" x="1149" y="-508.8" font-family="Times,serif" font-size="14.00">magic</text>
<polygon fill="none" stroke="black" points="848,-481 848,-502 879,-502 879,-481 848,-481"/>
<text text-anchor="start" x="854" y="-487.8" font-family="Times,serif" font-size="14.00">10</text>
<polygon fill="none" stroke="black" points="879,-481 879,-502 913,-502 913,-481 879,-481"/>
<text text-anchor="start" x="891" y="-487.8" font-family="Times,serif" font-size="14.00">2</text>
<polygon fill="none" stroke="black" points="913,-481 913,-502 1142,-502 1142,-481 913,-481"/>
<polygon fill="none" stroke="black" points="1142,-481 1142,-502 1200,-502 1200,-481 1142,-481"/>
<text text-anchor="start" x="1145" y="-487.8" font-family="Times,serif" font-size="14.00">unused</text>
<polygon fill="none" stroke="black" points="848,-460 848,-481 879,-481 879,-460 848,-460"/>
<text text-anchor="start" x="854" y="-466.8" font-family="Times,serif" font-size="14.00">12</text>
<polygon fill="none" stroke="black" points="879,-460 879,-481 913,-481 913,-460 879,-460"/>
<text text-anchor="start" x="891" y="-466.8" font-family="Times,serif" font-size="14.00">4</text>
<polygon fill="none" stroke="black" points="913,-460 913,-481 1142,-481 1142,-460 913,-460"/>
<text text-anchor="start" x="1012" y="-466.8" font-family="Times,serif" font-size="14.00">u4le</text>
<polygon fill="none" stroke="black" points="1142,-460 1142,-481 1200,-481 1200,-460 1142,-460"/>
<text text-anchor="start" x="1148.5" y="-466.8" font-family="Times,serif" font-size="14.00">id_tag</text>
</g>
<!-- section_unit__seq -->
<g id="node7" class="node"><title>section_unit__seq</title>
<polygon fill="#e0ffe0" stroke="none" points="937,-641 937,-662 982,-662 982,-641 937,-641"/>
<polygon fill="none" stroke="black" points="937,-641 937,-662 982,-662 982,-641 937,-641"/>
<text text-anchor="start" x="947" y="-647.8" font-family="Times,serif" font-size="14.00">pos</text>
<polygon fill="#e0ffe0" stroke="none" points="982,-641 982,-662 1023,-662 1023,-641 982,-641"/>
<polygon fill="none" stroke="black" points="982,-641 982,-662 1023,-662 1023,-641 982,-641"/>
<text text-anchor="start" x="988.5" y="-647.8" font-family="Times,serif" font-size="14.00">size</text>
<polygon fill="#e0ffe0" stroke="none" points="1023,-641 1023,-662 1065,-662 1065,-641 1023,-641"/>
<polygon fill="none" stroke="black" points="1023,-641 1023,-662 1065,-662 1065,-641 1023,-641"/>
<text text-anchor="start" x="1028" y="-647.8" font-family="Times,serif" font-size="14.00">type</text>
<polygon fill="#e0ffe0" stroke="none" points="1065,-641 1065,-662 1112,-662 1112,-641 1065,-641"/>
<polygon fill="none" stroke="black" points="1065,-641 1065,-662 1112,-662 1112,-641 1065,-641"/>
<text text-anchor="start" x="1081.5" y="-647.8" font-family="Times,serif" font-size="14.00">id</text>
<polygon fill="none" stroke="black" points="937,-620 937,-641 982,-641 982,-620 937,-620"/>
<text text-anchor="start" x="954.5" y="-626.8" font-family="Times,serif" font-size="14.00">0</text>
<polygon fill="none" stroke="black" points="982,-620 982,-641 1023,-641 1023,-620 982,-620"/>
<text text-anchor="start" x="997.5" y="-626.8" font-family="Times,serif" font-size="14.00">8</text>
<polygon fill="none" stroke="black" points="1023,-620 1023,-641 1065,-641 1065,-620 1023,-620"/>
<text text-anchor="start" x="1028" y="-626.8" font-family="Times,serif" font-size="14.00">Unit</text>
<polygon fill="none" stroke="black" points="1065,-620 1065,-641 1112,-641 1112,-620 1065,-620"/>
<text text-anchor="start" x="1070" y="-626.8" font-family="Times,serif" font-size="14.00">units</text>
<polygon fill="none" stroke="black" points="937,-599 937,-620 1112,-620 1112,-599 937,-599"/>
<text text-anchor="start" x="940" y="-605.8" font-family="Times,serif" font-size="14.00">repeat to end of stream</text>
</g>
<!-- unit__seq -->
<g id="node11" class="node"><title>unit__seq</title>
<polygon fill="#e0ffe0" stroke="none" points="1252.5,-672 1252.5,-693 1283.5,-693 1283.5,-672 1252.5,-672"/>
<polygon fill="none" stroke="black" points="1252.5,-672 1252.5,-693 1283.5,-693 1283.5,-672 1252.5,-672"/>
<text text-anchor="start" x="1255.5" y="-678.8" font-family="Times,serif" font-size="14.00">pos</text>
<polygon fill="#e0ffe0" stroke="none" points="1283.5,-672 1283.5,-693 1317.5,-693 1317.5,-672 1283.5,-672"/>
<polygon fill="none" stroke="black" points="1283.5,-672 1283.5,-693 1317.5,-693 1317.5,-672 1283.5,-672"/>
<text text-anchor="start" x="1286.5" y="-678.8" font-family="Times,serif" font-size="14.00">size</text>
<polygon fill="#e0ffe0" stroke="none" points="1317.5,-672 1317.5,-693 1420.5,-693 1420.5,-672 1317.5,-672"/>
<polygon fill="none" stroke="black" points="1317.5,-672 1317.5,-693 1420.5,-693 1420.5,-672 1317.5,-672"/>
<text text-anchor="start" x="1353" y="-678.8" font-family="Times,serif" font-size="14.00">type</text>
<polygon fill="#e0ffe0" stroke="none" points="1420.5,-672 1420.5,-693 1479.5,-693 1479.5,-672 1420.5,-672"/>
<polygon fill="none" stroke="black" points="1420.5,-672 1420.5,-693 1479.5,-693 1479.5,-672 1420.5,-672"/>
<text text-anchor="start" x="1443" y="-678.8" font-family="Times,serif" font-size="14.00">id</text>
<polygon fill="none" stroke="black" points="1252.5,-651 1252.5,-672 1283.5,-672 1283.5,-651 1252.5,-651"/>
<text text-anchor="start" x="1263" y="-657.8" font-family="Times,serif" font-size="14.00">0</text>
<polygon fill="none" stroke="black" points="1283.5,-651 1283.5,-672 1317.5,-672 1317.5,-651 1283.5,-651"/>
<text text-anchor="start" x="1295.5" y="-657.8" font-family="Times,serif" font-size="14.00">2</text>
<polygon fill="none" stroke="black" points="1317.5,-651 1317.5,-672 1420.5,-672 1420.5,-651 1317.5,-651"/>
<text text-anchor="start" x="1353.5" y="-657.8" font-family="Times,serif" font-size="14.00">u2le</text>
<polygon fill="none" stroke="black" points="1420.5,-651 1420.5,-672 1479.5,-672 1479.5,-651 1420.5,-651"/>
<text text-anchor="start" x="1445.5" y="-657.8" font-family="Times,serif" font-size="14.00">x</text>
<polygon fill="none" stroke="black" points="1252.5,-630 1252.5,-651 1283.5,-651 1283.5,-630 1252.5,-630"/>
<text text-anchor="start" x="1263" y="-636.8" font-family="Times,serif" font-size="14.00">2</text>
<polygon fill="none" stroke="black" points="1283.5,-630 1283.5,-651 1317.5,-651 1317.5,-630 1283.5,-630"/>
<text text-anchor="start" x="1295.5" y="-636.8" font-family="Times,serif" font-size="14.00">2</text>
<polygon fill="none" stroke="black" points="1317.5,-630 1317.5,-651 1420.5,-651 1420.5,-630 1317.5,-630"/>
<text text-anchor="start" x="1353.5" y="-636.8" font-family="Times,serif" font-size="14.00">u2le</text>
<polygon fill="none" stroke="black" points="1420.5,-630 1420.5,-651 1479.5,-651 1479.5,-630 1420.5,-630"/>
<text text-anchor="start" x="1445.5" y="-636.8" font-family="Times,serif" font-size="14.00">y</text>
<polygon fill="none" stroke="black" points="1252.5,-609 1252.5,-630 1283.5,-630 1283.5,-609 1252.5,-609"/>
<text text-anchor="start" x="1263" y="-615.8" font-family="Times,serif" font-size="14.00">4</text>
<polygon fill="none" stroke="black" points="1283.5,-609 1283.5,-630 1317.5,-630 1317.5,-609 1283.5,-609"/>
<text text-anchor="start" x="1295.5" y="-615.8" font-family="Times,serif" font-size="14.00">1</text>
<polygon fill="none" stroke="black" points="1317.5,-609 1317.5,-630 1420.5,-630 1420.5,-609 1317.5,-609"/>
<text text-anchor="start" x="1320.5" y="-615.8" font-family="Times,serif" font-size="14.00">u1→UnitType</text>
<polygon fill="none" stroke="black" points="1420.5,-609 1420.5,-630 1479.5,-630 1479.5,-609 1420.5,-609"/>
<text text-anchor="start" x="1425.5" y="-615.8" font-family="Times,serif" font-size="14.00">u_type</text>
<polygon fill="none" stroke="black" points="1252.5,-588 1252.5,-609 1283.5,-609 1283.5,-588 1252.5,-588"/>
<text text-anchor="start" x="1263" y="-594.8" font-family="Times,serif" font-size="14.00">5</text>
<polygon fill="none" stroke="black" points="1283.5,-588 1283.5,-609 1317.5,-609 1317.5,-588 1283.5,-588"/>
<text text-anchor="start" x="1295.5" y="-594.8" font-family="Times,serif" font-size="14.00">1</text>
<polygon fill="none" stroke="black" points="1317.5,-588 1317.5,-609 1420.5,-609 1420.5,-588 1317.5,-588"/>
<text text-anchor="start" x="1359.5" y="-594.8" font-family="Times,serif" font-size="14.00">u1</text>
<polygon fill="none" stroke="black" points="1420.5,-588 1420.5,-609 1479.5,-609 1479.5,-588 1420.5,-588"/>
<text text-anchor="start" x="1427.5" y="-594.8" font-family="Times,serif" font-size="14.00">owner</text>
<polygon fill="none" stroke="black" points="1252.5,-567 1252.5,-588 1283.5,-588 1283.5,-567 1252.5,-567"/>
<text text-anchor="start" x="1263" y="-573.8" font-family="Times,serif" font-size="14.00">6</text>
<polygon fill="none" stroke="black" points="1283.5,-567 1283.5,-588 1317.5,-588 1317.5,-567 1283.5,-567"/>
<text text-anchor="start" x="1295.5" y="-573.8" font-family="Times,serif" font-size="14.00">2</text>
<polygon fill="none" stroke="black" points="1317.5,-567 1317.5,-588 1420.5,-588 1420.5,-567 1317.5,-567"/>
<text text-anchor="start" x="1353.5" y="-573.8" font-family="Times,serif" font-size="14.00">u2le</text>
<polygon fill="none" stroke="black" points="1420.5,-567 1420.5,-588 1479.5,-588 1479.5,-567 1420.5,-567"/>
<text text-anchor="start" x="1423.5" y="-573.8" font-family="Times,serif" font-size="14.00">options</text>
</g>
<!-- section_unit__seq&#45;&gt;unit__seq -->
<g id="edge2" class="edge"><title>section_unit__seq:units_type&#45;&gt;unit__seq</title>
<path fill="none" stroke="black" stroke-width="2" d="M1113,-630C1152.18,-630 1194.79,-630 1233.62,-630"/>
<polygon fill="black" stroke="black" stroke-width="2" points="1233.93,-633.5 1243.93,-630 1233.93,-626.5 1233.93,-633.5"/>
</g>
<!-- section__seq&#45;&gt;section__seq -->
<g id="edge14" class="edge"><title>section__seq:name_type&#45;&gt;section__seq:body_type</title>
<path fill="none" stroke="#404040" d="M441.297,-269.496C401.766,-289.613 409.5,-313 464.5,-313 516.098,-313 526.097,-264.468 494.497,-234.479"/>
<polygon fill="#404040" stroke="#404040" points="496.567,-231.651 486.613,-228.022 492.132,-237.067 496.567,-231.651"/>
</g>
<!-- section__seq_body_switch -->
<g id="node9" class="node"><title>section__seq_body_switch</title>
<polygon fill="#f0f2e4" stroke="none" points="539.5,-311 539.5,-332 609.5,-332 609.5,-311 539.5,-311"/>
<polygon fill="none" stroke="black" points="539.5,-311 539.5,-332 609.5,-332 609.5,-311 539.5,-311"/>
<text text-anchor="start" x="558" y="-317.8" font-family="Times,serif" font-size="14.00">case</text>
<polygon fill="#f0f2e4" stroke="none" points="609.5,-311 609.5,-332 796.5,-332 796.5,-311 609.5,-311"/>
<polygon fill="none" stroke="black" points="609.5,-311 609.5,-332 796.5,-332 796.5,-311 609.5,-311"/>
<text text-anchor="start" x="687" y="-317.8" font-family="Times,serif" font-size="14.00">type</text>
<polygon fill="none" stroke="black" points="539.5,-290 539.5,-311 609.5,-311 609.5,-290 539.5,-290"/>
<text text-anchor="start" x="547" y="-296.8" font-family="Times,serif" font-size="14.00">&quot;SLBR&quot;</text>
<polygon fill="none" stroke="black" points="609.5,-290 609.5,-311 796.5,-311 796.5,-290 609.5,-290"/>
<text text-anchor="start" x="612.5" y="-296.8" font-family="Times,serif" font-size="14.00">SectionStartingResource</text>
<polygon fill="none" stroke="black" points="539.5,-269 539.5,-290 609.5,-290 609.5,-269 539.5,-269"/>
<text text-anchor="start" x="546.5" y="-275.8" font-family="Times,serif" font-size="14.00">&quot;ERAX&quot;</text>
<polygon fill="none" stroke="black" points="609.5,-269 609.5,-290 796.5,-290 796.5,-269 609.5,-269"/>
<text text-anchor="start" x="663" y="-275.8" font-family="Times,serif" font-size="14.00">SectionEra</text>
<polygon fill="none" stroke="black" points="539.5,-248 539.5,-269 609.5,-269 609.5,-248 539.5,-248"/>
<text text-anchor="start" x="542.5" y="-254.8" font-family="Times,serif" font-size="14.00">&quot;OWNR&quot;</text>
<polygon fill="none" stroke="black" points="609.5,-248 609.5,-269 796.5,-269 796.5,-248 609.5,-248"/>
<text text-anchor="start" x="656" y="-254.8" font-family="Times,serif" font-size="14.00">SectionOwnr</text>
<polygon fill="none" stroke="black" points="539.5,-227 539.5,-248 609.5,-248 609.5,-227 539.5,-227"/>
<text text-anchor="start" x="549.5" y="-233.8" font-family="Times,serif" font-size="14.00">&quot;ERA &quot;</text>
<polygon fill="none" stroke="black" points="609.5,-227 609.5,-248 796.5,-248 796.5,-227 609.5,-227"/>
<text text-anchor="start" x="663" y="-233.8" font-family="Times,serif" font-size="14.00">SectionEra</text>
<polygon fill="none" stroke="black" points="539.5,-206 539.5,-227 609.5,-227 609.5,-206 539.5,-206"/>
<text text-anchor="start" x="546.5" y="-212.8" font-family="Times,serif" font-size="14.00">&quot;SGLD&quot;</text>
<polygon fill="none" stroke="black" points="609.5,-206 609.5,-227 796.5,-227 796.5,-206 609.5,-206"/>
<text text-anchor="start" x="612.5" y="-212.8" font-family="Times,serif" font-size="14.00">SectionStartingResource</text>
<polygon fill="none" stroke="black" points="539.5,-185 539.5,-206 609.5,-206 609.5,-185 539.5,-185"/>
<text text-anchor="start" x="549.5" y="-191.8" font-family="Times,serif" font-size="14.00">&quot;VER &quot;</text>
<polygon fill="none" stroke="black" points="609.5,-185 609.5,-206 796.5,-206 796.5,-185 609.5,-185"/>
<text text-anchor="start" x="663.5" y="-191.8" font-family="Times,serif" font-size="14.00">SectionVer</text>
<polygon fill="none" stroke="black" points="539.5,-164 539.5,-185 609.5,-185 609.5,-164 539.5,-164"/>
<text text-anchor="start" x="548.5" y="-170.8" font-family="Times,serif" font-size="14.00">&quot;SOIL&quot;</text>
<polygon fill="none" stroke="black" points="609.5,-164 609.5,-185 796.5,-185 796.5,-164 609.5,-164"/>
<text text-anchor="start" x="612.5" y="-170.8" font-family="Times,serif" font-size="14.00">SectionStartingResource</text>
<polygon fill="none" stroke="black" points="539.5,-143 539.5,-164 609.5,-164 609.5,-143 539.5,-143"/>
<text text-anchor="start" x="547" y="-149.8" font-family="Times,serif" font-size="14.00">&quot;UNIT&quot;</text>
<polygon fill="none" stroke="black" points="609.5,-143 609.5,-164 796.5,-164 796.5,-143 609.5,-143"/>
<text text-anchor="start" x="660" y="-149.8" font-family="Times,serif" font-size="14.00">SectionUnit</text>
<polygon fill="none" stroke="black" points="539.5,-122 539.5,-143 609.5,-143 609.5,-122 539.5,-122"/>
<text text-anchor="start" x="549.5" y="-128.8" font-family="Times,serif" font-size="14.00">&quot;DIM &quot;</text>
<polygon fill="none" stroke="black" points="609.5,-122 609.5,-143 796.5,-143 796.5,-122 609.5,-122"/>
<text text-anchor="start" x="661" y="-128.8" font-family="Times,serif" font-size="14.00">SectionDim</text>
<polygon fill="none" stroke="black" points="539.5,-101 539.5,-122 609.5,-122 609.5,-101 539.5,-101"/>
<text text-anchor="start" x="547.5" y="-107.8" font-family="Times,serif" font-size="14.00">&quot;TYPE&quot;</text>
<polygon fill="none" stroke="black" points="609.5,-101 609.5,-122 796.5,-122 796.5,-101 609.5,-101"/>
<text text-anchor="start" x="658" y="-107.8" font-family="Times,serif" font-size="14.00">SectionType</text>
</g>
<!-- section__seq&#45;&gt;section__seq_body_switch -->
<g id="edge3" class="edge"><title>section__seq:body_type&#45;&gt;section__seq_body_switch</title>
<path fill="none" stroke="black" stroke-width="2" d="M488.5,-217C499.029,-217 509.908,-217 520.857,-217"/>
<polygon fill="black" stroke="black" stroke-width="2" points="520.925,-220.5 530.925,-217 520.925,-213.5 520.925,-220.5"/>
</g>
<!-- section__seq_body_switch&#45;&gt;section_starting_resource__seq -->
<g id="edge4" class="edge"><title>section__seq_body_switch:case0&#45;&gt;section_starting_resource__seq</title>
<path fill="none" stroke="black" stroke-width="2" d="M797.5,-301C874.596,-301 781.889,-189.589 832,-131 844.63,-116.233 860.632,-104.535 877.979,-95.2678"/>
<polygon fill="black" stroke="black" stroke-width="2" points="879.807,-98.266 887.162,-90.64 876.657,-92.0149 879.807,-98.266"/>
</g>
<!-- section__seq_body_switch&#45;&gt;section_starting_resource__seq -->
<g id="edge8" class="edge"><title>section__seq_body_switch:case4&#45;&gt;section_starting_resource__seq</title>
<path fill="none" stroke="black" stroke-width="2" d="M797.5,-216C838.271,-216 802.746,-159.399 832,-131 845.279,-118.11 861.106,-107.523 877.886,-98.8359"/>
<polygon fill="black" stroke="black" stroke-width="2" points="879.871,-101.76 887.296,-94.2029 876.779,-95.48 879.871,-101.76"/>
</g>
<!-- section__seq_body_switch&#45;&gt;section_starting_resource__seq -->
<g id="edge10" class="edge"><title>section__seq_body_switch:case6&#45;&gt;section_starting_resource__seq</title>
<path fill="none" stroke="black" stroke-width="2" d="M797.5,-174C822.002,-174 812.134,-145.341 832,-131 849.024,-118.711 868.42,-108.303 888.174,-99.566"/>
<polygon fill="black" stroke="black" stroke-width="2" points="889.763,-102.693 897.578,-95.5396 887.008,-96.2581 889.763,-102.693"/>
</g>
<!-- section__seq_body_switch&#45;&gt;section_era__seq -->
<g id="edge5" class="edge"><title>section__seq_body_switch:case1&#45;&gt;section_era__seq</title>
<path fill="none" stroke="black" stroke-width="2" d="M797.5,-280C825.235,-280 809.832,-244.668 832,-228 849.346,-214.958 869.592,-204.709 890.292,-196.666"/>
<polygon fill="black" stroke="black" stroke-width="2" points="891.671,-199.888 899.826,-193.124 889.233,-193.326 891.671,-199.888"/>
</g>
<!-- section__seq_body_switch&#45;&gt;section_era__seq -->
<g id="edge7" class="edge"><title>section__seq_body_switch:case3&#45;&gt;section_era__seq</title>
<path fill="none" stroke="black" stroke-width="2" d="M797.5,-238C799.354,-238 871.212,-215.618 933.313,-196.167"/>
<polygon fill="black" stroke="black" stroke-width="2" points="934.688,-199.404 943.184,-193.074 932.595,-192.724 934.688,-199.404"/>
</g>
<!-- section__seq_body_switch&#45;&gt;section_ver__seq -->
<g id="edge9" class="edge"><title>section__seq_body_switch:case5&#45;&gt;section_ver__seq</title>
<path fill="none" stroke="black" stroke-width="2" d="M797.5,-195C818.718,-195 813.153,-218.253 832,-228 860.426,-242.7 893.973,-251.587 924.957,-256.95"/>
<polygon fill="black" stroke="black" stroke-width="2" points="924.485,-260.42 934.917,-258.571 925.609,-253.51 924.485,-260.42"/>
</g>
<!-- section__seq_body_switch&#45;&gt;section_dim__seq -->
<g id="edge12" class="edge"><title>section__seq_body_switch:case8&#45;&gt;section_dim__seq</title>
<path fill="none" stroke="black" stroke-width="2" d="M797.5,-132C841.069,-132 802.278,-293.143 832,-325 860.369,-355.408 904.897,-367.756 943.825,-372.342"/>
<polygon fill="black" stroke="black" stroke-width="2" points="943.807,-375.858 954.111,-373.393 944.519,-368.894 943.807,-375.858"/>
</g>
<!-- section__seq_body_switch&#45;&gt;section_type__seq -->
<g id="edge13" class="edge"><title>section__seq_body_switch:case9&#45;&gt;section_type__seq</title>
<path fill="none" stroke="black" stroke-width="2" d="M797.5,-111C871.896,-111 784.667,-386.604 832,-444 833.323,-445.604 834.689,-447.165 836.095,-448.684"/>
<polygon fill="black" stroke="black" stroke-width="2" points="833.868,-451.403 843.447,-455.931 838.782,-446.418 833.868,-451.403"/>
</g>
<!-- section__seq_body_switch&#45;&gt;section_unit__seq -->
<g id="edge11" class="edge"><title>section__seq_body_switch:case7&#45;&gt;section_unit__seq</title>
<path fill="none" stroke="black" stroke-width="2" d="M797.5,-153C845.431,-153 801.037,-546.412 832,-583 853.418,-608.308 886.014,-621.331 918.248,-627.743"/>
<polygon fill="black" stroke="black" stroke-width="2" points="917.767,-631.213 928.227,-629.528 918.999,-624.322 917.767,-631.213"/>
</g>
<!-- section_ownr__seq -->
<g id="node10" class="node"><title>section_ownr__seq</title>
<polygon fill="#e0ffe0" stroke="none" points="860,-760 860,-781 891,-781 891,-760 860,-760"/>
<polygon fill="none" stroke="black" points="860,-760 860,-781 891,-781 891,-760 860,-760"/>
<text text-anchor="start" x="863" y="-766.8" font-family="Times,serif" font-size="14.00">pos</text>
<polygon fill="#e0ffe0" stroke="none" points="891,-760 891,-781 925,-781 925,-760 891,-760"/>
<polygon fill="none" stroke="black" points="891,-760 891,-781 925,-781 925,-760 891,-760"/>
<text text-anchor="start" x="894" y="-766.8" font-family="Times,serif" font-size="14.00">size</text>
<polygon fill="#e0ffe0" stroke="none" points="925,-760 925,-781 1035,-781 1035,-760 925,-760"/>
<polygon fill="none" stroke="black" points="925,-760 925,-781 1035,-781 1035,-760 925,-760"/>
<text text-anchor="start" x="964" y="-766.8" font-family="Times,serif" font-size="14.00">type</text>
<polygon fill="#e0ffe0" stroke="none" points="1035,-760 1035,-781 1189,-781 1189,-760 1035,-760"/>
<polygon fill="none" stroke="black" points="1035,-760 1035,-781 1189,-781 1189,-760 1035,-760"/>
<text text-anchor="start" x="1105" y="-766.8" font-family="Times,serif" font-size="14.00">id</text>
<polygon fill="none" stroke="black" points="860,-739 860,-760 891,-760 891,-739 860,-739"/>
<text text-anchor="start" x="870.5" y="-745.8" font-family="Times,serif" font-size="14.00">0</text>
<polygon fill="none" stroke="black" points="891,-739 891,-760 925,-760 925,-739 891,-739"/>
<text text-anchor="start" x="903" y="-745.8" font-family="Times,serif" font-size="14.00">1</text>
<polygon fill="none" stroke="black" points="925,-739 925,-760 1035,-760 1035,-739 925,-739"/>
<text text-anchor="start" x="928" y="-745.8" font-family="Times,serif" font-size="14.00">u1→Controller</text>
<polygon fill="none" stroke="black" points="1035,-739 1035,-760 1189,-760 1189,-739 1035,-739"/>
<text text-anchor="start" x="1038" y="-745.8" font-family="Times,serif" font-size="14.00">controller_by_player</text>
<polygon fill="none" stroke="black" points="860,-718 860,-739 1189,-739 1189,-718 860,-718"/>
<text text-anchor="start" x="940" y="-724.8" font-family="Times,serif" font-size="14.00">repeat to end of stream</text>
</g>
<!-- section__seq_body_switch&#45;&gt;section_ownr__seq -->
<g id="edge6" class="edge"><title>section__seq_body_switch:case2&#45;&gt;section_ownr__seq</title>
<path fill="none" stroke="black" stroke-width="2" d="M797.5,-259C846.871,-259 800.151,-664.275 832,-702 835.495,-706.139 839.288,-709.95 843.33,-713.457"/>
<polygon fill="black" stroke="black" stroke-width="2" points="841.382,-716.378 851.397,-719.833 845.723,-710.886 841.382,-716.378"/>
</g>
<!-- unit__inst__resource -->
<g id="node12" class="node"><title>unit__inst__resource</title>
<polygon fill="#e0ffe0" stroke="none" points="1531,-588 1531,-609 1601,-609 1601,-588 1531,-588"/>
<polygon fill="none" stroke="black" points="1531,-588 1531,-609 1601,-609 1601,-588 1531,-588"/>
<text text-anchor="start" x="1559" y="-594.8" font-family="Times,serif" font-size="14.00">id</text>
<polygon fill="#e0ffe0" stroke="none" points="1601,-588 1601,-609 1723,-609 1723,-588 1601,-588"/>
<polygon fill="none" stroke="black" points="1601,-588 1601,-609 1723,-609 1723,-588 1601,-588"/>
<text text-anchor="start" x="1642.5" y="-594.8" font-family="Times,serif" font-size="14.00">value</text>
<polygon fill="none" stroke="black" points="1531,-567 1531,-588 1601,-588 1601,-567 1531,-567"/>
<text text-anchor="start" x="1534" y="-573.8" font-family="Times,serif" font-size="14.00">resource</text>
<polygon fill="none" stroke="black" points="1601,-567 1601,-588 1723,-588 1723,-567 1601,-567"/>
<text text-anchor="start" x="1604" y="-573.8" font-family="Times,serif" font-size="14.00">(options * 2500)</text>
</g>
<!-- unit__seq&#45;&gt;unit__inst__resource -->
<g id="edge15" class="edge"><title>unit__seq:options_type&#45;&gt;unit__inst__resource</title>
<path fill="none" stroke="#404040" d="M1480.5,-577C1490.97,-577 1501.86,-577.287 1512.75,-577.768"/>
<polygon fill="#404040" stroke="#404040" points="1512.58,-581.264 1522.74,-578.262 1512.93,-574.272 1512.58,-581.264"/>
</g>
</g>
</svg>
