<?xml version="1.0" encoding="UTF-8" standalone="no"?>
<!DOCTYPE svg PUBLIC "-//W3C//DTD SVG 1.1//EN"
 "http://www.w3.org/Graphics/SVG/1.1/DTD/svg11.dtd">
<!-- Generated by graphviz version 2.43.0 (0)
 -->
<!-- Title: %3 Pages: 1 -->
<svg width="1728pt" height="864pt"
 viewBox="0.00 0.00 1728.00 864.00" xmlns="http://www.w3.org/2000/svg" xmlns:xlink="http://www.w3.org/1999/xlink">
<g id="graph0" class="graph" transform="scale(1 1) rotate(0) translate(4 860)">
<title>%3</title>
<polygon fill="white" stroke="transparent" points="-4,4 -4,-860 1724,-860 1724,4 -4,4"/>
<g id="clust1" class="cluster">
<title>cluster__warcraft_2_pud</title>
<polygon fill="none" stroke="black" stroke-dasharray="1,5" points="8,-8 8,-848 1712,-848 1712,-8 8,-8"/>
<text text-anchor="middle" x="860" y="-832.8" font-family="Times,serif" font-size="14.00">Warcraft2Pud</text>
</g>
<g id="clust2" class="cluster">
<title>cluster__section_starting_resource</title>
<polygon fill="none" stroke="black" stroke-dasharray="1,5" points="852.5,-16 852.5,-127 1155.5,-127 1155.5,-16 852.5,-16"/>
<text text-anchor="middle" x="1004" y="-111.8" font-family="Times,serif" font-size="14.00">Warcraft2Pud::SectionStartingResource</text>
</g>
<g id="clust3" class="cluster">
<title>cluster__section_era</title>
<polygon fill="none" stroke="black" stroke-dasharray="1,5" points="859.5,-135 859.5,-224 1148.5,-224 1148.5,-135 859.5,-135"/>
<text text-anchor="middle" x="1004" y="-208.8" font-family="Times,serif" font-size="14.00">Warcraft2Pud::SectionEra</text>
</g>
<g id="clust4" class="cluster">
<title>cluster__section_ver</title>
<polygon fill="none" stroke="black" stroke-dasharray="1,5" points="903,-232 903,-321 1105,-321 1105,-232 903,-232"/>
<text text-anchor="middle" x="1004" y="-305.8" font-family="Times,serif" font-size="14.00">Warcraft2Pud::SectionVer</text>
</g>
<g id="clust5" class="cluster">
<title>cluster__section_dim</title>
<polygon fill="none" stroke="black" stroke-dasharray="1,5" points="900.5,-329 900.5,-440 1107.5,-440 1107.5,-329 900.5,-329"/>
<text text-anchor="middle" x="1004" y="-424.8" font-family="Times,serif" font-size="14.00">Warcraft2Pud::SectionDim</text>
</g>
<g id="clust6" class="cluster">
<title>cluster__section_type</title>
<polygon fill="none" stroke="black" stroke-dasharray="1,5" points="898.5,-448 898.5,-579 1110.5,-579 1110.5,-448 898.5,-448"/>
<text text-anchor="middle" x="1004.5" y="-563.8" font-family="Times,serif" font-size="14.00">Warcraft2Pud::SectionType</text>
</g>
<g id="clust7" class="cluster">
<title>cluster__section_unit</title>
<polygon fill="none" stroke="black" stroke-dasharray="1,5" points="899.5,-587 899.5,-698 1108.5,-698 1108.5,-587 899.5,-587"/>
<text text-anchor="middle" x="1004" y="-682.8" font-family="Times,serif" font-size="14.00">Warcraft2Pud::SectionUnit</text>
</g>
<g id="clust8" class="cluster">
<title>cluster__section</title>
<polygon fill="none" stroke="black" stroke-dasharray="1,5" points="250,-90 250,-368 805,-368 805,-90 250,-90"/>
<text text-anchor="middle" x="527.5" y="-352.8" font-family="Times,serif" font-size="14.00">Warcraft2Pud::Section</text>
</g>
<g id="clust9" class="cluster">
<title>cluster__section_ownr</title>
<polygon fill="none" stroke="black" stroke-dasharray="1,5" points="825,-706 825,-817 1183,-817 1183,-706 825,-706"/>
<text text-anchor="middle" x="1004" y="-801.8" font-family="Times,serif" font-size="14.00">Warcraft2Pud::SectionOwnr</text>
</g>
<g id="clust10" class="cluster">
<title>cluster__unit</title>
<polygon fill="none" stroke="black" stroke-dasharray="1,5" points="1203,-555 1203,-728 1704,-728 1704,-555 1203,-555"/>
<text text-anchor="middle" x="1453.5" y="-712.8" font-family="Times,serif" font-size="14.00">Warcraft2Pud::Unit</text>
</g>
<!-- warcraft_2_pud__seq -->
<g id="node1" class="node">
<title>warcraft_2_pud__seq</title>
<polygon fill="#e0ffe0" stroke="transparent" points="24,-260 24,-281 55,-281 55,-260 24,-260"/>
<polygon fill="none" stroke="black" points="24,-260 24,-281 55,-281 55,-260 24,-260"/>
<text text-anchor="start" x="27" y="-266.8" font-family="Times,serif" font-size="14.00">pos</text>
<polygon fill="#e0ffe0" stroke="transparent" points="55,-260 55,-281 89,-281 89,-260 55,-260"/>
<polygon fill="none" stroke="black" points="55,-260 55,-281 89,-281 89,-260 55,-260"/>
<text text-anchor="start" x="58" y="-266.8" font-family="Times,serif" font-size="14.00">size</text>
<polygon fill="#e0ffe0" stroke="transparent" points="89,-260 89,-281 149,-281 149,-260 89,-260"/>
<polygon fill="none" stroke="black" points="89,-260 89,-281 149,-281 149,-260 89,-260"/>
<text text-anchor="start" x="103" y="-266.8" font-family="Times,serif" font-size="14.00">type</text>
<polygon fill="#e0ffe0" stroke="transparent" points="149,-260 149,-281 214,-281 214,-260 149,-260"/>
<polygon fill="none" stroke="black" points="149,-260 149,-281 214,-281 214,-260 149,-260"/>
<text text-anchor="start" x="174.5" y="-266.8" font-family="Times,serif" font-size="14.00">id</text>
<polygon fill="none" stroke="black" points="24,-239 24,-260 55,-260 55,-239 24,-239"/>
<text text-anchor="start" x="34.5" y="-245.8" font-family="Times,serif" font-size="14.00">0</text>
<polygon fill="none" stroke="black" points="55,-239 55,-260 89,-260 89,-239 55,-239"/>
<text text-anchor="start" x="65" y="-245.8" font-family="Times,serif" font-size="14.00">...</text>
<polygon fill="none" stroke="black" points="89,-239 89,-260 149,-260 149,-239 89,-239"/>
<text text-anchor="start" x="92" y="-245.8" font-family="Times,serif" font-size="14.00">Section</text>
<polygon fill="none" stroke="black" points="149,-239 149,-260 214,-260 214,-239 149,-239"/>
<text text-anchor="start" x="152" y="-245.8" font-family="Times,serif" font-size="14.00">sections</text>
<polygon fill="none" stroke="black" points="24,-218 24,-239 214,-239 214,-218 24,-218"/>
<text text-anchor="start" x="34.5" y="-224.8" font-family="Times,serif" font-size="14.00">repeat to end of stream</text>
</g>
<!-- section__seq -->
<g id="node8" class="node">
<title>section__seq</title>
<polygon fill="#e0ffe0" stroke="transparent" points="266,-270 266,-291 297,-291 297,-270 266,-270"/>
<polygon fill="none" stroke="black" points="266,-270 266,-291 297,-291 297,-270 266,-270"/>
<text text-anchor="start" x="269" y="-276.8" font-family="Times,serif" font-size="14.00">pos</text>
<polygon fill="#e0ffe0" stroke="transparent" points="297,-270 297,-291 331,-291 331,-270 297,-270"/>
<polygon fill="none" stroke="black" points="297,-270 297,-291 331,-291 331,-270 297,-270"/>
<text text-anchor="start" x="300" y="-276.8" font-family="Times,serif" font-size="14.00">size</text>
<polygon fill="#e0ffe0" stroke="transparent" points="331,-270 331,-291 438,-291 438,-270 331,-270"/>
<polygon fill="none" stroke="black" points="331,-270 331,-291 438,-291 438,-270 331,-270"/>
<text text-anchor="start" x="368.5" y="-276.8" font-family="Times,serif" font-size="14.00">type</text>
<polygon fill="#e0ffe0" stroke="transparent" points="438,-270 438,-291 484,-291 484,-270 438,-270"/>
<polygon fill="none" stroke="black" points="438,-270 438,-291 484,-291 484,-270 438,-270"/>
<text text-anchor="start" x="454" y="-276.8" font-family="Times,serif" font-size="14.00">id</text>
<polygon fill="none" stroke="black" points="266,-249 266,-270 297,-270 297,-249 266,-249"/>
<text text-anchor="start" x="276.5" y="-255.8" font-family="Times,serif" font-size="14.00">0</text>
<polygon fill="none" stroke="black" points="297,-249 297,-270 331,-270 331,-249 297,-249"/>
<text text-anchor="start" x="309" y="-255.8" font-family="Times,serif" font-size="14.00">4</text>
<polygon fill="none" stroke="black" points="331,-249 331,-270 438,-270 438,-249 331,-249"/>
<text text-anchor="start" x="348.5" y="-255.8" font-family="Times,serif" font-size="14.00">str(ASCII)</text>
<polygon fill="none" stroke="black" points="438,-249 438,-270 484,-270 484,-249 438,-249"/>
<text text-anchor="start" x="441" y="-255.8" font-family="Times,serif" font-size="14.00">name</text>
<polygon fill="none" stroke="black" points="266,-228 266,-249 297,-249 297,-228 266,-228"/>
<text text-anchor="start" x="276.5" y="-234.8" font-family="Times,serif" font-size="14.00">4</text>
<polygon fill="none" stroke="black" points="297,-228 297,-249 331,-249 331,-228 297,-228"/>
<text text-anchor="start" x="309" y="-234.8" font-family="Times,serif" font-size="14.00">4</text>
<polygon fill="none" stroke="black" points="331,-228 331,-249 438,-249 438,-228 331,-228"/>
<text text-anchor="start" x="369" y="-234.8" font-family="Times,serif" font-size="14.00">u4le</text>
<polygon fill="none" stroke="black" points="438,-228 438,-249 484,-249 484,-228 438,-228"/>
<text text-anchor="start" x="447" y="-234.8" font-family="Times,serif" font-size="14.00">size</text>
<polygon fill="none" stroke="black" points="266,-207 266,-228 297,-228 297,-207 266,-207"/>
<text text-anchor="start" x="276.5" y="-213.8" font-family="Times,serif" font-size="14.00">8</text>
<polygon fill="none" stroke="black" points="297,-207 297,-228 331,-228 331,-207 297,-207"/>
<text text-anchor="start" x="307" y="-213.8" font-family="Times,serif" font-size="14.00">...</text>
<polygon fill="none" stroke="black" points="331,-207 331,-228 438,-228 438,-207 331,-207"/>
<text text-anchor="start" x="334" y="-213.8" font-family="Times,serif" font-size="14.00">switch (name)</text>
<polygon fill="none" stroke="black" points="438,-207 438,-228 484,-228 484,-207 438,-207"/>
<text text-anchor="start" x="443.5" y="-213.8" font-family="Times,serif" font-size="14.00">body</text>
</g>
<!-- warcraft_2_pud__seq&#45;&gt;section__seq -->
<g id="edge1" class="edge">
<title>warcraft_2_pud__seq:sections_type&#45;&gt;section__seq</title>
<path fill="none" stroke="black" stroke-width="2" d="M215,-249C225.57,-249 236.53,-249 247.53,-249"/>
<polygon fill="black" stroke="black" stroke-width="2" points="247.64,-252.5 257.64,-249 247.64,-245.5 247.64,-252.5"/>
</g>
<!-- section_starting_resource__seq -->
<g id="node2" class="node">
<title>section_starting_resource__seq</title>
<polygon fill="#e0ffe0" stroke="transparent" points="877,-70 877,-91 908,-91 908,-70 877,-70"/>
<polygon fill="none" stroke="black" points="877,-70 877,-91 908,-91 908,-70 877,-70"/>
<text text-anchor="start" x="880" y="-76.8" font-family="Times,serif" font-size="14.00">pos</text>
<polygon fill="#e0ffe0" stroke="transparent" points="908,-70 908,-91 942,-91 942,-70 908,-70"/>
<polygon fill="none" stroke="black" points="908,-70 908,-91 942,-91 942,-70 908,-70"/>
<text text-anchor="start" x="911" y="-76.8" font-family="Times,serif" font-size="14.00">size</text>
<polygon fill="#e0ffe0" stroke="transparent" points="942,-70 942,-91 980,-91 980,-70 942,-70"/>
<polygon fill="none" stroke="black" points="942,-70 942,-91 980,-91 980,-70 942,-70"/>
<text text-anchor="start" x="945" y="-76.8" font-family="Times,serif" font-size="14.00">type</text>
<polygon fill="#e0ffe0" stroke="transparent" points="980,-70 980,-91 1132,-91 1132,-70 980,-70"/>
<polygon fill="none" stroke="black" points="980,-70 980,-91 1132,-91 1132,-70 980,-70"/>
<text text-anchor="start" x="1049" y="-76.8" font-family="Times,serif" font-size="14.00">id</text>
<polygon fill="none" stroke="black" points="877,-49 877,-70 908,-70 908,-49 877,-49"/>
<text text-anchor="start" x="887.5" y="-55.8" font-family="Times,serif" font-size="14.00">0</text>
<polygon fill="none" stroke="black" points="908,-49 908,-70 942,-70 942,-49 908,-49"/>
<text text-anchor="start" x="920" y="-55.8" font-family="Times,serif" font-size="14.00">2</text>
<polygon fill="none" stroke="black" points="942,-49 942,-70 980,-70 980,-49 942,-49"/>
<text text-anchor="start" x="945.5" y="-55.8" font-family="Times,serif" font-size="14.00">u2le</text>
<polygon fill="none" stroke="black" points="980,-49 980,-70 1132,-70 1132,-49 980,-49"/>
<text text-anchor="start" x="983" y="-55.8" font-family="Times,serif" font-size="14.00">resources_by_player</text>
<polygon fill="none" stroke="black" points="877,-28 877,-49 1132,-49 1132,-28 877,-28"/>
<text text-anchor="start" x="920" y="-34.8" font-family="Times,serif" font-size="14.00">repeat to end of stream</text>
</g>
<!-- section_era__seq -->
<g id="node3" class="node">
<title>section_era__seq</title>
<polygon fill="#e0ffe0" stroke="transparent" points="876,-168 876,-189 907,-189 907,-168 876,-168"/>
<polygon fill="none" stroke="black" points="876,-168 876,-189 907,-189 907,-168 876,-168"/>
<text text-anchor="start" x="879" y="-174.8" font-family="Times,serif" font-size="14.00">pos</text>
<polygon fill="#e0ffe0" stroke="transparent" points="907,-168 907,-189 941,-189 941,-168 907,-168"/>
<polygon fill="none" stroke="black" points="907,-168 907,-189 941,-189 941,-168 907,-168"/>
<text text-anchor="start" x="910" y="-174.8" font-family="Times,serif" font-size="14.00">size</text>
<polygon fill="#e0ffe0" stroke="transparent" points="941,-168 941,-189 1077,-189 1077,-168 941,-168"/>
<polygon fill="none" stroke="black" points="941,-168 941,-189 1077,-189 1077,-168 941,-168"/>
<text text-anchor="start" x="993" y="-174.8" font-family="Times,serif" font-size="14.00">type</text>
<polygon fill="#e0ffe0" stroke="transparent" points="1077,-168 1077,-189 1133,-189 1133,-168 1077,-168"/>
<polygon fill="none" stroke="black" points="1077,-168 1077,-189 1133,-189 1133,-168 1077,-168"/>
<text text-anchor="start" x="1098" y="-174.8" font-family="Times,serif" font-size="14.00">id</text>
<polygon fill="none" stroke="black" points="876,-147 876,-168 907,-168 907,-147 876,-147"/>
<text text-anchor="start" x="886.5" y="-153.8" font-family="Times,serif" font-size="14.00">0</text>
<polygon fill="none" stroke="black" points="907,-147 907,-168 941,-168 941,-147 907,-147"/>
<text text-anchor="start" x="919" y="-153.8" font-family="Times,serif" font-size="14.00">2</text>
<polygon fill="none" stroke="black" points="941,-147 941,-168 1077,-168 1077,-147 941,-147"/>
<text text-anchor="start" x="944" y="-153.8" font-family="Times,serif" font-size="14.00">u2le→TerrainType</text>
<polygon fill="none" stroke="black" points="1077,-147 1077,-168 1133,-168 1133,-147 1077,-147"/>
<text text-anchor="start" x="1080" y="-153.8" font-family="Times,serif" font-size="14.00">terrain</text>
</g>
<!-- section_ver__seq -->
<g id="node4" class="node">
<title>section_ver__seq</title>
<polygon fill="#e0ffe0" stroke="transparent" points="923,-265 923,-286 954,-286 954,-265 923,-265"/>
<polygon fill="none" stroke="black" points="923,-265 923,-286 954,-286 954,-265 923,-265"/>
<text text-anchor="start" x="926" y="-271.8" font-family="Times,serif" font-size="14.00">pos</text>
<polygon fill="#e0ffe0" stroke="transparent" points="954,-265 954,-286 988,-286 988,-265 954,-265"/>
<polygon fill="none" stroke="black" points="954,-265 954,-286 988,-286 988,-265 954,-265"/>
<text text-anchor="start" x="957" y="-271.8" font-family="Times,serif" font-size="14.00">size</text>
<polygon fill="#e0ffe0" stroke="transparent" points="988,-265 988,-286 1026,-286 1026,-265 988,-265"/>
<polygon fill="none" stroke="black" points="988,-265 988,-286 1026,-286 1026,-265 988,-265"/>
<text text-anchor="start" x="991" y="-271.8" font-family="Times,serif" font-size="14.00">type</text>
<polygon fill="#e0ffe0" stroke="transparent" points="1026,-265 1026,-286 1085,-286 1085,-265 1026,-265"/>
<polygon fill="none" stroke="black" points="1026,-265 1026,-286 1085,-286 1085,-265 1026,-265"/>
<text text-anchor="start" x="1048.5" y="-271.8" font-family="Times,serif" font-size="14.00">id</text>
<polygon fill="none" stroke="black" points="923,-244 923,-265 954,-265 954,-244 923,-244"/>
<text text-anchor="start" x="933.5" y="-250.8" font-family="Times,serif" font-size="14.00">0</text>
<polygon fill="none" stroke="black" points="954,-244 954,-265 988,-265 988,-244 954,-244"/>
<text text-anchor="start" x="966" y="-250.8" font-family="Times,serif" font-size="14.00">2</text>
<polygon fill="none" stroke="black" points="988,-244 988,-265 1026,-265 1026,-244 988,-244"/>
<text text-anchor="start" x="991.5" y="-250.8" font-family="Times,serif" font-size="14.00">u2le</text>
<polygon fill="none" stroke="black" points="1026,-244 1026,-265 1085,-265 1085,-244 1026,-244"/>
<text text-anchor="start" x="1029" y="-250.8" font-family="Times,serif" font-size="14.00">version</text>
</g>
<!-- section_dim__seq -->
<g id="node5" class="node">
<title>section_dim__seq</title>
<polygon fill="#e0ffe0" stroke="transparent" points="943,-383 943,-404 974,-404 974,-383 943,-383"/>
<polygon fill="none" stroke="black" points="943,-383 943,-404 974,-404 974,-383 943,-383"/>
<text text-anchor="start" x="946" y="-389.8" font-family="Times,serif" font-size="14.00">pos</text>
<polygon fill="#e0ffe0" stroke="transparent" points="974,-383 974,-404 1008,-404 1008,-383 974,-383"/>
<polygon fill="none" stroke="black" points="974,-383 974,-404 1008,-404 1008,-383 974,-383"/>
<text text-anchor="start" x="977" y="-389.8" font-family="Times,serif" font-size="14.00">size</text>
<polygon fill="#e0ffe0" stroke="transparent" points="1008,-383 1008,-404 1046,-404 1046,-383 1008,-383"/>
<polygon fill="none" stroke="black" points="1008,-383 1008,-404 1046,-404 1046,-383 1008,-383"/>
<text text-anchor="start" x="1011" y="-389.8" font-family="Times,serif" font-size="14.00">type</text>
<polygon fill="#e0ffe0" stroke="transparent" points="1046,-383 1046,-404 1066,-404 1066,-383 1046,-383"/>
<polygon fill="none" stroke="black" points="1046,-383 1046,-404 1066,-404 1066,-383 1046,-383"/>
<text text-anchor="start" x="1049" y="-389.8" font-family="Times,serif" font-size="14.00">id</text>
<polygon fill="none" stroke="black" points="943,-362 943,-383 974,-383 974,-362 943,-362"/>
<text text-anchor="start" x="953.5" y="-368.8" font-family="Times,serif" font-size="14.00">0</text>
<polygon fill="none" stroke="black" points="974,-362 974,-383 1008,-383 1008,-362 974,-362"/>
<text text-anchor="start" x="986" y="-368.8" font-family="Times,serif" font-size="14.00">2</text>
<polygon fill="none" stroke="black" points="1008,-362 1008,-383 1046,-383 1046,-362 1008,-362"/>
<text text-anchor="start" x="1011.5" y="-368.8" font-family="Times,serif" font-size="14.00">u2le</text>
<polygon fill="none" stroke="black" points="1046,-362 1046,-383 1066,-383 1066,-362 1046,-362"/>
<text text-anchor="start" x="1051.5" y="-368.8" font-family="Times,serif" font-size="14.00">x</text>
<polygon fill="none" stroke="black" points="943,-341 943,-362 974,-362 974,-341 943,-341"/>
<text text-anchor="start" x="953.5" y="-347.8" font-family="Times,serif" font-size="14.00">2</text>
<polygon fill="none" stroke="black" points="974,-341 974,-362 1008,-362 1008,-341 974,-341"/>
<text text-anchor="start" x="986" y="-347.8" font-family="Times,serif" font-size="14.00">2</text>
<polygon fill="none" stroke="black" points="1008,-341 1008,-362 1046,-362 1046,-341 1008,-341"/>
<text text-anchor="start" x="1011.5" y="-347.8" font-family="Times,serif" font-size="14.00">u2le</text>
<polygon fill="none" stroke="black" points="1046,-341 1046,-362 1066,-362 1066,-341 1046,-341"/>
<text text-anchor="start" x="1051.5" y="-347.8" font-family="Times,serif" font-size="14.00">y</text>
</g>
<!-- section_type__seq -->
<g id="node6" class="node">
<title>section_type__seq</title>
<polygon fill="#e0ffe0" stroke="transparent" points="924,-523 924,-544 955,-544 955,-523 924,-523"/>
<polygon fill="none" stroke="black" points="924,-523 924,-544 955,-544 955,-523 924,-523"/>
<text text-anchor="start" x="927" y="-529.8" font-family="Times,serif" font-size="14.00">pos</text>
<polygon fill="#e0ffe0" stroke="transparent" points="955,-523 955,-544 989,-544 989,-523 955,-523"/>
<polygon fill="none" stroke="black" points="955,-523 955,-544 989,-544 989,-523 955,-523"/>
<text text-anchor="start" x="958" y="-529.8" font-family="Times,serif" font-size="14.00">size</text>
<polygon fill="#e0ffe0" stroke="transparent" points="989,-523 989,-544 1027,-544 1027,-523 989,-523"/>
<polygon fill="none" stroke="black" points="989,-523 989,-544 1027,-544 1027,-523 989,-523"/>
<text text-anchor="start" x="992" y="-529.8" font-family="Times,serif" font-size="14.00">type</text>
<polygon fill="#e0ffe0" stroke="transparent" points="1027,-523 1027,-544 1085,-544 1085,-523 1027,-523"/>
<polygon fill="none" stroke="black" points="1027,-523 1027,-544 1085,-544 1085,-523 1027,-523"/>
<text text-anchor="start" x="1049" y="-529.8" font-family="Times,serif" font-size="14.00">id</text>
<polygon fill="none" stroke="black" points="924,-502 924,-523 955,-523 955,-502 924,-502"/>
<text text-anchor="start" x="934.5" y="-508.8" font-family="Times,serif" font-size="14.00">0</text>
<polygon fill="none" stroke="black" points="955,-502 955,-523 989,-523 989,-502 955,-502"/>
<text text-anchor="start" x="962.5" y="-508.8" font-family="Times,serif" font-size="14.00">10</text>
<polygon fill="none" stroke="black" points="989,-502 989,-523 1027,-523 1027,-502 989,-502"/>
<polygon fill="none" stroke="black" points="1027,-502 1027,-523 1085,-523 1085,-502 1027,-502"/>
<text text-anchor="start" x="1034.5" y="-508.8" font-family="Times,serif" font-size="14.00">magic</text>
<polygon fill="none" stroke="black" points="924,-481 924,-502 955,-502 955,-481 924,-481"/>
<text text-anchor="start" x="930" y="-487.8" font-family="Times,serif" font-size="14.00">10</text>
<polygon fill="none" stroke="black" points="955,-481 955,-502 989,-502 989,-481 955,-481"/>
<text text-anchor="start" x="967" y="-487.8" font-family="Times,serif" font-size="14.00">2</text>
<polygon fill="none" stroke="black" points="989,-481 989,-502 1027,-502 1027,-481 989,-481"/>
<polygon fill="none" stroke="black" points="1027,-481 1027,-502 1085,-502 1085,-481 1027,-481"/>
<text text-anchor="start" x="1030" y="-487.8" font-family="Times,serif" font-size="14.00">unused</text>
<polygon fill="none" stroke="black" points="924,-460 924,-481 955,-481 955,-460 924,-460"/>
<text text-anchor="start" x="930" y="-466.8" font-family="Times,serif" font-size="14.00">12</text>
<polygon fill="none" stroke="black" points="955,-460 955,-481 989,-481 989,-460 955,-460"/>
<text text-anchor="start" x="967" y="-466.8" font-family="Times,serif" font-size="14.00">4</text>
<polygon fill="none" stroke="black" points="989,-460 989,-481 1027,-481 1027,-460 989,-460"/>
<text text-anchor="start" x="992.5" y="-466.8" font-family="Times,serif" font-size="14.00">u4le</text>
<polygon fill="none" stroke="black" points="1027,-460 1027,-481 1085,-481 1085,-460 1027,-460"/>
<text text-anchor="start" x="1034" y="-466.8" font-family="Times,serif" font-size="14.00">id_tag</text>
</g>
<!-- section_unit__seq -->
<g id="node7" class="node">
<title>section_unit__seq</title>
<polygon fill="#e0ffe0" stroke="transparent" points="917,-641 917,-662 962,-662 962,-641 917,-641"/>
<polygon fill="none" stroke="black" points="917,-641 917,-662 962,-662 962,-641 917,-641"/>
<text text-anchor="start" x="927" y="-647.8" font-family="Times,serif" font-size="14.00">pos</text>
<polygon fill="#e0ffe0" stroke="transparent" points="962,-641 962,-662 1003,-662 1003,-641 962,-641"/>
<polygon fill="none" stroke="black" points="962,-641 962,-662 1003,-662 1003,-641 962,-641"/>
<text text-anchor="start" x="968.5" y="-647.8" font-family="Times,serif" font-size="14.00">size</text>
<polygon fill="#e0ffe0" stroke="transparent" points="1003,-641 1003,-662 1045,-662 1045,-641 1003,-641"/>
<polygon fill="none" stroke="black" points="1003,-641 1003,-662 1045,-662 1045,-641 1003,-641"/>
<text text-anchor="start" x="1008" y="-647.8" font-family="Times,serif" font-size="14.00">type</text>
<polygon fill="#e0ffe0" stroke="transparent" points="1045,-641 1045,-662 1092,-662 1092,-641 1045,-641"/>
<polygon fill="none" stroke="black" points="1045,-641 1045,-662 1092,-662 1092,-641 1045,-641"/>
<text text-anchor="start" x="1061.5" y="-647.8" font-family="Times,serif" font-size="14.00">id</text>
<polygon fill="none" stroke="black" points="917,-620 917,-641 962,-641 962,-620 917,-620"/>
<text text-anchor="start" x="934.5" y="-626.8" font-family="Times,serif" font-size="14.00">0</text>
<polygon fill="none" stroke="black" points="962,-620 962,-641 1003,-641 1003,-620 962,-620"/>
<text text-anchor="start" x="977.5" y="-626.8" font-family="Times,serif" font-size="14.00">8</text>
<polygon fill="none" stroke="black" points="1003,-620 1003,-641 1045,-641 1045,-620 1003,-620"/>
<text text-anchor="start" x="1008" y="-626.8" font-family="Times,serif" font-size="14.00">Unit</text>
<polygon fill="none" stroke="black" points="1045,-620 1045,-641 1092,-641 1092,-620 1045,-620"/>
<text text-anchor="start" x="1050" y="-626.8" font-family="Times,serif" font-size="14.00">units</text>
<polygon fill="none" stroke="black" points="917,-599 917,-620 1092,-620 1092,-599 917,-599"/>
<text text-anchor="start" x="920" y="-605.8" font-family="Times,serif" font-size="14.00">repeat to end of stream</text>
</g>
<!-- unit__seq -->
<g id="node11" class="node">
<title>unit__seq</title>
<polygon fill="#e0ffe0" stroke="transparent" points="1219.5,-672 1219.5,-693 1250.5,-693 1250.5,-672 1219.5,-672"/>
<polygon fill="none" stroke="black" points="1219.5,-672 1219.5,-693 1250.5,-693 1250.5,-672 1219.5,-672"/>
<text text-anchor="start" x="1222.5" y="-678.8" font-family="Times,serif" font-size="14.00">pos</text>
<polygon fill="#e0ffe0" stroke="transparent" points="1250.5,-672 1250.5,-693 1284.5,-693 1284.5,-672 1250.5,-672"/>
<polygon fill="none" stroke="black" points="1250.5,-672 1250.5,-693 1284.5,-693 1284.5,-672 1250.5,-672"/>
<text text-anchor="start" x="1253.5" y="-678.8" font-family="Times,serif" font-size="14.00">size</text>
<polygon fill="#e0ffe0" stroke="transparent" points="1284.5,-672 1284.5,-693 1387.5,-693 1387.5,-672 1284.5,-672"/>
<polygon fill="none" stroke="black" points="1284.5,-672 1284.5,-693 1387.5,-693 1387.5,-672 1284.5,-672"/>
<text text-anchor="start" x="1320" y="-678.8" font-family="Times,serif" font-size="14.00">type</text>
<polygon fill="#e0ffe0" stroke="transparent" points="1387.5,-672 1387.5,-693 1446.5,-693 1446.5,-672 1387.5,-672"/>
<polygon fill="none" stroke="black" points="1387.5,-672 1387.5,-693 1446.5,-693 1446.5,-672 1387.5,-672"/>
<text text-anchor="start" x="1410" y="-678.8" font-family="Times,serif" font-size="14.00">id</text>
<polygon fill="none" stroke="black" points="1219.5,-651 1219.5,-672 1250.5,-672 1250.5,-651 1219.5,-651"/>
<text text-anchor="start" x="1230" y="-657.8" font-family="Times,serif" font-size="14.00">0</text>
<polygon fill="none" stroke="black" points="1250.5,-651 1250.5,-672 1284.5,-672 1284.5,-651 1250.5,-651"/>
<text text-anchor="start" x="1262.5" y="-657.8" font-family="Times,serif" font-size="14.00">2</text>
<polygon fill="none" stroke="black" points="1284.5,-651 1284.5,-672 1387.5,-672 1387.5,-651 1284.5,-651"/>
<text text-anchor="start" x="1320.5" y="-657.8" font-family="Times,serif" font-size="14.00">u2le</text>
<polygon fill="none" stroke="black" points="1387.5,-651 1387.5,-672 1446.5,-672 1446.5,-651 1387.5,-651"/>
<text text-anchor="start" x="1412.5" y="-657.8" font-family="Times,serif" font-size="14.00">x</text>
<polygon fill="none" stroke="black" points="1219.5,-630 1219.5,-651 1250.5,-651 1250.5,-630 1219.5,-630"/>
<text text-anchor="start" x="1230" y="-636.8" font-family="Times,serif" font-size="14.00">2</text>
<polygon fill="none" stroke="black" points="1250.5,-630 1250.5,-651 1284.5,-651 1284.5,-630 1250.5,-630"/>
<text text-anchor="start" x="1262.5" y="-636.8" font-family="Times,serif" font-size="14.00">2</text>
<polygon fill="none" stroke="black" points="1284.5,-630 1284.5,-651 1387.5,-651 1387.5,-630 1284.5,-630"/>
<text text-anchor="start" x="1320.5" y="-636.8" font-family="Times,serif" font-size="14.00">u2le</text>
<polygon fill="none" stroke="black" points="1387.5,-630 1387.5,-651 1446.5,-651 1446.5,-630 1387.5,-630"/>
<text text-anchor="start" x="1412.5" y="-636.8" font-family="Times,serif" font-size="14.00">y</text>
<polygon fill="none" stroke="black" points="1219.5,-609 1219.5,-630 1250.5,-630 1250.5,-609 1219.5,-609"/>
<text text-anchor="start" x="1230" y="-615.8" font-family="Times,serif" font-size="14.00">4</text>
<polygon fill="none" stroke="black" points="1250.5,-609 1250.5,-630 1284.5,-630 1284.5,-609 1250.5,-609"/>
<text text-anchor="start" x="1262.5" y="-615.8" font-family="Times,serif" font-size="14.00">1</text>
<polygon fill="none" stroke="black" points="1284.5,-609 1284.5,-630 1387.5,-630 1387.5,-609 1284.5,-609"/>
<text text-anchor="start" x="1287.5" y="-615.8" font-family="Times,serif" font-size="14.00">u1→UnitType</text>
<polygon fill="none" stroke="black" points="1387.5,-609 1387.5,-630 1446.5,-630 1446.5,-609 1387.5,-609"/>
<text text-anchor="start" x="1393" y="-615.8" font-family="Times,serif" font-size="14.00">u_type</text>
<polygon fill="none" stroke="black" points="1219.5,-588 1219.5,-609 1250.5,-609 1250.5,-588 1219.5,-588"/>
<text text-anchor="start" x="1230" y="-594.8" font-family="Times,serif" font-size="14.00">5</text>
<polygon fill="none" stroke="black" points="1250.5,-588 1250.5,-609 1284.5,-609 1284.5,-588 1250.5,-588"/>
<text text-anchor="start" x="1262.5" y="-594.8" font-family="Times,serif" font-size="14.00">1</text>
<polygon fill="none" stroke="black" points="1284.5,-588 1284.5,-609 1387.5,-609 1387.5,-588 1284.5,-588"/>
<text text-anchor="start" x="1326.5" y="-594.8" font-family="Times,serif" font-size="14.00">u1</text>
<polygon fill="none" stroke="black" points="1387.5,-588 1387.5,-609 1446.5,-609 1446.5,-588 1387.5,-588"/>
<text text-anchor="start" x="1394.5" y="-594.8" font-family="Times,serif" font-size="14.00">owner</text>
<polygon fill="none" stroke="black" points="1219.5,-567 1219.5,-588 1250.5,-588 1250.5,-567 1219.5,-567"/>
<text text-anchor="start" x="1230" y="-573.8" font-family="Times,serif" font-size="14.00">6</text>
<polygon fill="none" stroke="black" points="1250.5,-567 1250.5,-588 1284.5,-588 1284.5,-567 1250.5,-567"/>
<text text-anchor="start" x="1262.5" y="-573.8" font-family="Times,serif" font-size="14.00">2</text>
<polygon fill="none" stroke="black" points="1284.5,-567 1284.5,-588 1387.5,-588 1387.5,-567 1284.5,-567"/>
<text text-anchor="start" x="1320.5" y="-573.8" font-family="Times,serif" font-size="14.00">u2le</text>
<polygon fill="none" stroke="black" points="1387.5,-567 1387.5,-588 1446.5,-588 1446.5,-567 1387.5,-567"/>
<text text-anchor="start" x="1390.5" y="-573.8" font-family="Times,serif" font-size="14.00">options</text>
</g>
<!-- section_unit__seq&#45;&gt;unit__seq -->
<g id="edge2" class="edge">
<title>section_unit__seq:units_type&#45;&gt;unit__seq</title>
<path fill="none" stroke="black" stroke-width="2" d="M1093,-630C1127.86,-630 1165.59,-630 1200.52,-630"/>
<polygon fill="black" stroke="black" stroke-width="2" points="1200.78,-633.5 1210.78,-630 1200.78,-626.5 1200.78,-633.5"/>
</g>
<!-- section__seq&#45;&gt;section__seq -->
<g id="edge14" class="edge">
<title>section__seq:name_type&#45;&gt;section__seq:body_type</title>
<path fill="none" stroke="#404040" d="M437.8,-269.5C398.27,-289.61 406,-313 461,-313 512.6,-313 522.6,-264.47 491,-234.48"/>
<polygon fill="#404040" stroke="#404040" points="493.07,-231.65 483.11,-228.02 488.63,-237.07 493.07,-231.65"/>
</g>
<!-- section__seq_body_switch -->
<g id="node9" class="node">
<title>section__seq_body_switch</title>
<polygon fill="#f0f2e4" stroke="transparent" points="536.5,-311 536.5,-332 604.5,-332 604.5,-311 536.5,-311"/>
<polygon fill="none" stroke="black" points="536.5,-311 536.5,-332 604.5,-332 604.5,-311 536.5,-311"/>
<text text-anchor="start" x="554.5" y="-317.8" font-family="Times,serif" font-size="14.00">case</text>
<polygon fill="#f0f2e4" stroke="transparent" points="604.5,-311 604.5,-332 789.5,-332 789.5,-311 604.5,-311"/>
<polygon fill="none" stroke="black" points="604.5,-311 604.5,-332 789.5,-332 789.5,-311 604.5,-311"/>
<text text-anchor="start" x="681" y="-317.8" font-family="Times,serif" font-size="14.00">type</text>
<polygon fill="none" stroke="black" points="536.5,-290 536.5,-311 604.5,-311 604.5,-290 536.5,-290"/>
<text text-anchor="start" x="543.5" y="-296.8" font-family="Times,serif" font-size="14.00">&quot;SLBR&quot;</text>
<polygon fill="none" stroke="black" points="604.5,-290 604.5,-311 789.5,-311 789.5,-290 604.5,-290"/>
<text text-anchor="start" x="607.5" y="-296.8" font-family="Times,serif" font-size="14.00">SectionStartingResource</text>
<polygon fill="none" stroke="black" points="536.5,-269 536.5,-290 604.5,-290 604.5,-269 536.5,-269"/>
<text text-anchor="start" x="543" y="-275.8" font-family="Times,serif" font-size="14.00">&quot;ERAX&quot;</text>
<polygon fill="none" stroke="black" points="604.5,-269 604.5,-290 789.5,-290 789.5,-269 604.5,-269"/>
<text text-anchor="start" x="657.5" y="-275.8" font-family="Times,serif" font-size="14.00">SectionEra</text>
<polygon fill="none" stroke="black" points="536.5,-248 536.5,-269 604.5,-269 604.5,-248 536.5,-248"/>
<text text-anchor="start" x="539.5" y="-254.8" font-family="Times,serif" font-size="14.00">&quot;OWNR&quot;</text>
<polygon fill="none" stroke="black" points="604.5,-248 604.5,-269 789.5,-269 789.5,-248 604.5,-248"/>
<text text-anchor="start" x="650.5" y="-254.8" font-family="Times,serif" font-size="14.00">SectionOwnr</text>
<polygon fill="none" stroke="black" points="536.5,-227 536.5,-248 604.5,-248 604.5,-227 536.5,-227"/>
<text text-anchor="start" x="546" y="-233.8" font-family="Times,serif" font-size="14.00">&quot;ERA &quot;</text>
<polygon fill="none" stroke="black" points="604.5,-227 604.5,-248 789.5,-248 789.5,-227 604.5,-227"/>
<text text-anchor="start" x="657.5" y="-233.8" font-family="Times,serif" font-size="14.00">SectionEra</text>
<polygon fill="none" stroke="black" points="536.5,-206 536.5,-227 604.5,-227 604.5,-206 536.5,-206"/>
<text text-anchor="start" x="543" y="-212.8" font-family="Times,serif" font-size="14.00">&quot;SGLD&quot;</text>
<polygon fill="none" stroke="black" points="604.5,-206 604.5,-227 789.5,-227 789.5,-206 604.5,-206"/>
<text text-anchor="start" x="607.5" y="-212.8" font-family="Times,serif" font-size="14.00">SectionStartingResource</text>
<polygon fill="none" stroke="black" points="536.5,-185 536.5,-206 604.5,-206 604.5,-185 536.5,-185"/>
<text text-anchor="start" x="546" y="-191.8" font-family="Times,serif" font-size="14.00">&quot;VER &quot;</text>
<polygon fill="none" stroke="black" points="604.5,-185 604.5,-206 789.5,-206 789.5,-185 604.5,-185"/>
<text text-anchor="start" x="658" y="-191.8" font-family="Times,serif" font-size="14.00">SectionVer</text>
<polygon fill="none" stroke="black" points="536.5,-164 536.5,-185 604.5,-185 604.5,-164 536.5,-164"/>
<text text-anchor="start" x="546" y="-170.8" font-family="Times,serif" font-size="14.00">&quot;SOIL&quot;</text>
<polygon fill="none" stroke="black" points="604.5,-164 604.5,-185 789.5,-185 789.5,-164 604.5,-164"/>
<text text-anchor="start" x="607.5" y="-170.8" font-family="Times,serif" font-size="14.00">SectionStartingResource</text>
<polygon fill="none" stroke="black" points="536.5,-143 536.5,-164 604.5,-164 604.5,-143 536.5,-143"/>
<text text-anchor="start" x="544.5" y="-149.8" font-family="Times,serif" font-size="14.00">&quot;UNIT&quot;</text>
<polygon fill="none" stroke="black" points="604.5,-143 604.5,-164 789.5,-164 789.5,-143 604.5,-143"/>
<text text-anchor="start" x="654.5" y="-149.8" font-family="Times,serif" font-size="14.00">SectionUnit</text>
<polygon fill="none" stroke="black" points="536.5,-122 536.5,-143 604.5,-143 604.5,-122 536.5,-122"/>
<text text-anchor="start" x="546" y="-128.8" font-family="Times,serif" font-size="14.00">&quot;DIM &quot;</text>
<polygon fill="none" stroke="black" points="604.5,-122 604.5,-143 789.5,-143 789.5,-122 604.5,-122"/>
<text text-anchor="start" x="655.5" y="-128.8" font-family="Times,serif" font-size="14.00">SectionDim</text>
<polygon fill="none" stroke="black" points="536.5,-101 536.5,-122 604.5,-122 604.5,-101 536.5,-101"/>
<text text-anchor="start" x="544.5" y="-107.8" font-family="Times,serif" font-size="14.00">&quot;TYPE&quot;</text>
<polygon fill="none" stroke="black" points="604.5,-101 604.5,-122 789.5,-122 789.5,-101 604.5,-101"/>
<text text-anchor="start" x="653" y="-107.8" font-family="Times,serif" font-size="14.00">SectionType</text>
</g>
<!-- section__seq&#45;&gt;section__seq_body_switch -->
<g id="edge3" class="edge">
<title>section__seq:body_type&#45;&gt;section__seq_body_switch</title>
<path fill="none" stroke="black" stroke-width="2" d="M485,-217C495.56,-217 506.47,-217 517.45,-217"/>
<polygon fill="black" stroke="black" stroke-width="2" points="517.55,-220.5 527.55,-217 517.55,-213.5 517.55,-220.5"/>
</g>
<!-- section__seq_body_switch&#45;&gt;section_starting_resource__seq -->
<g id="edge4" class="edge">
<title>section__seq_body_switch:case0&#45;&gt;section_starting_resource__seq</title>
<path fill="none" stroke="black" stroke-width="2" d="M790.5,-301C867.6,-301 775.59,-190.18 825,-131 834.97,-119.06 847.24,-109.11 860.63,-100.83"/>
<polygon fill="black" stroke="black" stroke-width="2" points="862.7,-103.67 869.58,-95.62 859.18,-97.62 862.7,-103.67"/>
</g>
<!-- section__seq_body_switch&#45;&gt;section_starting_resource__seq -->
<g id="edge8" class="edge">
<title>section__seq_body_switch:case4&#45;&gt;section_starting_resource__seq</title>
<path fill="none" stroke="black" stroke-width="2" d="M790.5,-216C831.27,-216 796.08,-159.74 825,-131 837.13,-118.94 851.57,-108.86 866.9,-100.46"/>
<polygon fill="black" stroke="black" stroke-width="2" points="868.77,-103.43 876.01,-95.7 865.53,-97.22 868.77,-103.43"/>
</g>
<!-- section__seq_body_switch&#45;&gt;section_starting_resource__seq -->
<g id="edge10" class="edge">
<title>section__seq_body_switch:case6&#45;&gt;section_starting_resource__seq</title>
<path fill="none" stroke="black" stroke-width="2" d="M790.5,-174C815,-174 805.3,-145.58 825,-131 841.32,-118.92 859.97,-108.57 878.91,-99.81"/>
<polygon fill="black" stroke="black" stroke-width="2" points="880.54,-102.92 888.23,-95.63 877.67,-96.53 880.54,-102.92"/>
</g>
<!-- section__seq_body_switch&#45;&gt;section_era__seq -->
<g id="edge5" class="edge">
<title>section__seq_body_switch:case1&#45;&gt;section_era__seq</title>
<path fill="none" stroke="black" stroke-width="2" d="M790.5,-280C818.24,-280 803.01,-244.9 825,-228 841.86,-215.05 861.67,-204.81 881.84,-196.73"/>
<polygon fill="black" stroke="black" stroke-width="2" points="883.35,-199.9 891.43,-193.05 880.84,-193.36 883.35,-199.9"/>
</g>
<!-- section__seq_body_switch&#45;&gt;section_era__seq -->
<g id="edge7" class="edge">
<title>section__seq_body_switch:case3&#45;&gt;section_era__seq</title>
<path fill="none" stroke="black" stroke-width="2" d="M790.5,-238C794.01,-238 861.22,-215.71 919.13,-196.29"/>
<polygon fill="black" stroke="black" stroke-width="2" points="920.33,-199.57 928.7,-193.07 918.1,-192.94 920.33,-199.57"/>
</g>
<!-- section__seq_body_switch&#45;&gt;section_ver__seq -->
<g id="edge9" class="edge">
<title>section__seq_body_switch:case5&#45;&gt;section_ver__seq</title>
<path fill="none" stroke="black" stroke-width="2" d="M790.5,-195C811.72,-195 806.22,-218.13 825,-228 849.38,-240.82 877.83,-249.2 904.74,-254.68"/>
<polygon fill="black" stroke="black" stroke-width="2" points="904.09,-258.12 914.57,-256.57 905.41,-251.24 904.09,-258.12"/>
</g>
<!-- section__seq_body_switch&#45;&gt;section_dim__seq -->
<g id="edge12" class="edge">
<title>section__seq_body_switch:case8&#45;&gt;section_dim__seq</title>
<path fill="none" stroke="black" stroke-width="2" d="M790.5,-132C834.07,-132 795.55,-292.89 825,-325 850.1,-352.37 889.02,-364.79 924.08,-370.19"/>
<polygon fill="black" stroke="black" stroke-width="2" points="923.94,-373.71 934.33,-371.59 924.89,-366.77 923.94,-373.71"/>
</g>
<!-- section__seq_body_switch&#45;&gt;section_type__seq -->
<g id="edge13" class="edge">
<title>section__seq_body_switch:case9&#45;&gt;section_type__seq</title>
<path fill="none" stroke="black" stroke-width="2" d="M790.5,-111C864.9,-111 778.25,-386.13 825,-444 844.9,-468.64 875.45,-482.92 905.65,-491.17"/>
<polygon fill="black" stroke="black" stroke-width="2" points="904.88,-494.58 915.43,-493.64 906.59,-487.79 904.88,-494.58"/>
</g>
<!-- section__seq_body_switch&#45;&gt;section_unit__seq -->
<g id="edge11" class="edge">
<title>section__seq_body_switch:case7&#45;&gt;section_unit__seq</title>
<path fill="none" stroke="black" stroke-width="2" d="M790.5,-153C838.43,-153 794.35,-546.15 825,-583 843.31,-605.01 870.55,-617.5 898.26,-624.44"/>
<polygon fill="black" stroke="black" stroke-width="2" points="897.53,-627.86 908.06,-626.67 899.09,-621.04 897.53,-627.86"/>
</g>
<!-- section_ownr__seq -->
<g id="node10" class="node">
<title>section_ownr__seq</title>
<polygon fill="#e0ffe0" stroke="transparent" points="841,-760 841,-781 872,-781 872,-760 841,-760"/>
<polygon fill="none" stroke="black" points="841,-760 841,-781 872,-781 872,-760 841,-760"/>
<text text-anchor="start" x="844" y="-766.8" font-family="Times,serif" font-size="14.00">pos</text>
<polygon fill="#e0ffe0" stroke="transparent" points="872,-760 872,-781 906,-781 906,-760 872,-760"/>
<polygon fill="none" stroke="black" points="872,-760 872,-781 906,-781 906,-760 872,-760"/>
<text text-anchor="start" x="875" y="-766.8" font-family="Times,serif" font-size="14.00">size</text>
<polygon fill="#e0ffe0" stroke="transparent" points="906,-760 906,-781 1015,-781 1015,-760 906,-760"/>
<polygon fill="none" stroke="black" points="906,-760 906,-781 1015,-781 1015,-760 906,-760"/>
<text text-anchor="start" x="944.5" y="-766.8" font-family="Times,serif" font-size="14.00">type</text>
<polygon fill="#e0ffe0" stroke="transparent" points="1015,-760 1015,-781 1167,-781 1167,-760 1015,-760"/>
<polygon fill="none" stroke="black" points="1015,-760 1015,-781 1167,-781 1167,-760 1015,-760"/>
<text text-anchor="start" x="1084" y="-766.8" font-family="Times,serif" font-size="14.00">id</text>
<polygon fill="none" stroke="black" points="841,-739 841,-760 872,-760 872,-739 841,-739"/>
<text text-anchor="start" x="851.5" y="-745.8" font-family="Times,serif" font-size="14.00">0</text>
<polygon fill="none" stroke="black" points="872,-739 872,-760 906,-760 906,-739 872,-739"/>
<text text-anchor="start" x="884" y="-745.8" font-family="Times,serif" font-size="14.00">1</text>
<polygon fill="none" stroke="black" points="906,-739 906,-760 1015,-760 1015,-739 906,-739"/>
<text text-anchor="start" x="909" y="-745.8" font-family="Times,serif" font-size="14.00">u1→Controller</text>
<polygon fill="none" stroke="black" points="1015,-739 1015,-760 1167,-760 1167,-739 1015,-739"/>
<text text-anchor="start" x="1018" y="-745.8" font-family="Times,serif" font-size="14.00">controller_by_player</text>
<polygon fill="none" stroke="black" points="841,-718 841,-739 1167,-739 1167,-718 841,-718"/>
<text text-anchor="start" x="919.5" y="-724.8" font-family="Times,serif" font-size="14.00">repeat to end of stream</text>
</g>
<!-- section__seq_body_switch&#45;&gt;section_ownr__seq -->
<g id="edge6" class="edge">
<title>section__seq_body_switch:case2&#45;&gt;section_ownr__seq</title>
<path fill="none" stroke="black" stroke-width="2" d="M790.5,-259C839.87,-259 793.48,-664 825,-702 826.54,-703.85 828.14,-705.64 829.79,-707.35"/>
<polygon fill="black" stroke="black" stroke-width="2" points="827.72,-710.21 837.42,-714.48 832.5,-705.1 827.72,-710.21"/>
</g>
<!-- unit__inst__resource -->
<g id="node12" class="node">
<title>unit__inst__resource</title>
<polygon fill="#e0ffe0" stroke="transparent" points="1498,-588 1498,-609 1567,-609 1567,-588 1498,-588"/>
<polygon fill="none" stroke="black" points="1498,-588 1498,-609 1567,-609 1567,-588 1498,-588"/>
<text text-anchor="start" x="1525.5" y="-594.8" font-family="Times,serif" font-size="14.00">id</text>
<polygon fill="#e0ffe0" stroke="transparent" points="1567,-588 1567,-609 1688,-609 1688,-588 1567,-588"/>
<polygon fill="none" stroke="black" points="1567,-588 1567,-609 1688,-609 1688,-588 1567,-588"/>
<text text-anchor="start" x="1608" y="-594.8" font-family="Times,serif" font-size="14.00">value</text>
<polygon fill="none" stroke="black" points="1498,-567 1498,-588 1567,-588 1567,-567 1498,-567"/>
<text text-anchor="start" x="1501" y="-573.8" font-family="Times,serif" font-size="14.00">resource</text>
<polygon fill="none" stroke="black" points="1567,-567 1567,-588 1688,-588 1688,-567 1567,-567"/>
<text text-anchor="start" x="1570" y="-573.8" font-family="Times,serif" font-size="14.00">(options * 2500)</text>
</g>
<!-- unit__seq&#45;&gt;unit__inst__resource -->
<g id="edge15" class="edge">
<title>unit__seq:options_type&#45;&gt;unit__inst__resource</title>
<path fill="none" stroke="#404040" d="M1447.5,-577C1458,-577 1468.91,-577.29 1479.83,-577.78"/>
<polygon fill="#404040" stroke="#404040" points="1479.68,-581.28 1489.84,-578.28 1480.03,-574.29 1479.68,-581.28"/>
</g>
</g>
</svg>
