<?xml version="1.0" encoding="UTF-8" standalone="no"?>
<!DOCTYPE svg PUBLIC "-//W3C//DTD SVG 1.1//EN"
 "http://www.w3.org/Graphics/SVG/1.1/DTD/svg11.dtd">
<!-- Generated by graphviz version 2.43.0 (0)
 -->
<!-- Title: %3 Pages: 1 -->
<svg width="799pt" height="464pt"
 viewBox="0.00 0.00 799.00 464.00" xmlns="http://www.w3.org/2000/svg" xmlns:xlink="http://www.w3.org/1999/xlink">
<g id="graph0" class="graph" transform="scale(1 1) rotate(0) translate(4 460)">
<title>%3</title>
<polygon fill="white" stroke="transparent" points="-4,4 -4,-460 795,-460 795,4 -4,4"/>
<g id="clust1" class="cluster">
<title>cluster__ogg</title>
<polygon fill="none" stroke="black" stroke-dasharray="1,5" points="8,-8 8,-448 783,-448 783,-8 8,-8"/>
<text text-anchor="middle" x="395.5" y="-432.8" font-family="Times,serif" font-size="14.00">Ogg</text>
</g>
<g id="clust2" class="cluster">
<title>cluster__page</title>
<polygon fill="none" stroke="black" stroke-dasharray="1,5" points="235,-16 235,-417 775,-417 775,-16 235,-16"/>
<text text-anchor="middle" x="505" y="-401.8" font-family="Times,serif" font-size="14.00">Ogg::Page</text>
</g>
<!-- ogg__seq -->
<g id="node1" class="node">
<title>ogg__seq</title>
<polygon fill="#e0ffe0" stroke="transparent" points="24.5,-207 24.5,-228 65.5,-228 65.5,-207 24.5,-207"/>
<polygon fill="none" stroke="black" points="24.5,-207 24.5,-228 65.5,-228 65.5,-207 24.5,-207"/>
<text text-anchor="start" x="32.5" y="-213.8" font-family="Times,serif" font-size="14.00">pos</text>
<polygon fill="#e0ffe0" stroke="transparent" points="65.5,-207 65.5,-228 104.5,-228 104.5,-207 65.5,-207"/>
<polygon fill="none" stroke="black" points="65.5,-207 65.5,-228 104.5,-228 104.5,-207 65.5,-207"/>
<text text-anchor="start" x="71" y="-213.8" font-family="Times,serif" font-size="14.00">size</text>
<polygon fill="#e0ffe0" stroke="transparent" points="104.5,-207 104.5,-228 147.5,-228 147.5,-207 104.5,-207"/>
<polygon fill="none" stroke="black" points="104.5,-207 104.5,-228 147.5,-228 147.5,-207 104.5,-207"/>
<text text-anchor="start" x="110" y="-213.8" font-family="Times,serif" font-size="14.00">type</text>
<polygon fill="#e0ffe0" stroke="transparent" points="147.5,-207 147.5,-228 199.5,-228 199.5,-207 147.5,-207"/>
<polygon fill="none" stroke="black" points="147.5,-207 147.5,-228 199.5,-228 199.5,-207 147.5,-207"/>
<text text-anchor="start" x="166.5" y="-213.8" font-family="Times,serif" font-size="14.00">id</text>
<polygon fill="none" stroke="black" points="24.5,-186 24.5,-207 65.5,-207 65.5,-186 24.5,-186"/>
<text text-anchor="start" x="40" y="-192.8" font-family="Times,serif" font-size="14.00">0</text>
<polygon fill="none" stroke="black" points="65.5,-186 65.5,-207 104.5,-207 104.5,-186 65.5,-186"/>
<text text-anchor="start" x="78" y="-192.8" font-family="Times,serif" font-size="14.00">...</text>
<polygon fill="none" stroke="black" points="104.5,-186 104.5,-207 147.5,-207 147.5,-186 104.5,-186"/>
<text text-anchor="start" x="108.5" y="-192.8" font-family="Times,serif" font-size="14.00">Page</text>
<polygon fill="none" stroke="black" points="147.5,-186 147.5,-207 199.5,-207 199.5,-186 147.5,-186"/>
<text text-anchor="start" x="152" y="-192.8" font-family="Times,serif" font-size="14.00">pages</text>
<polygon fill="none" stroke="black" points="24.5,-165 24.5,-186 199.5,-186 199.5,-165 24.5,-165"/>
<text text-anchor="start" x="27.5" y="-171.8" font-family="Times,serif" font-size="14.00">repeat to end of stream</text>
</g>
<!-- page__seq -->
<g id="node2" class="node">
<title>page__seq</title>
<polygon fill="#e0ffe0" stroke="transparent" points="251,-343 251,-364 282,-364 282,-343 251,-343"/>
<polygon fill="none" stroke="black" points="251,-343 251,-364 282,-364 282,-343 251,-343"/>
<text text-anchor="start" x="254" y="-349.8" font-family="Times,serif" font-size="14.00">pos</text>
<polygon fill="#e0ffe0" stroke="transparent" points="282,-343 282,-364 401,-364 401,-343 282,-343"/>
<polygon fill="none" stroke="black" points="282,-343 282,-364 401,-364 401,-343 282,-343"/>
<text text-anchor="start" x="327.5" y="-349.8" font-family="Times,serif" font-size="14.00">size</text>
<polygon fill="#e0ffe0" stroke="transparent" points="401,-343 401,-364 585,-364 585,-343 401,-343"/>
<polygon fill="none" stroke="black" points="401,-343 401,-364 585,-364 585,-343 401,-343"/>
<text text-anchor="start" x="477" y="-349.8" font-family="Times,serif" font-size="14.00">type</text>
<polygon fill="#e0ffe0" stroke="transparent" points="585,-343 585,-364 759,-364 759,-343 585,-343"/>
<polygon fill="none" stroke="black" points="585,-343 585,-364 759,-364 759,-343 585,-343"/>
<text text-anchor="start" x="665" y="-349.8" font-family="Times,serif" font-size="14.00">id</text>
<polygon fill="none" stroke="black" points="251,-322 251,-343 282,-343 282,-322 251,-322"/>
<text text-anchor="start" x="261.5" y="-328.8" font-family="Times,serif" font-size="14.00">0</text>
<polygon fill="none" stroke="black" points="282,-322 282,-343 401,-343 401,-322 282,-322"/>
<text text-anchor="start" x="336.5" y="-328.8" font-family="Times,serif" font-size="14.00">4</text>
<polygon fill="none" stroke="black" points="401,-322 401,-343 585,-343 585,-322 401,-322"/>
<polygon fill="none" stroke="black" points="585,-322 585,-343 759,-343 759,-322 585,-322"/>
<text text-anchor="start" x="635.5" y="-328.8" font-family="Times,serif" font-size="14.00">sync_code</text>
<polygon fill="none" stroke="black" points="251,-301 251,-322 282,-322 282,-301 251,-301"/>
<text text-anchor="start" x="261.5" y="-307.8" font-family="Times,serif" font-size="14.00">4</text>
<polygon fill="none" stroke="black" points="282,-301 282,-322 401,-322 401,-301 282,-301"/>
<text text-anchor="start" x="336.5" y="-307.8" font-family="Times,serif" font-size="14.00">1</text>
<polygon fill="none" stroke="black" points="401,-301 401,-322 585,-322 585,-301 401,-301"/>
<polygon fill="none" stroke="black" points="585,-301 585,-322 759,-322 759,-301 585,-301"/>
<text text-anchor="start" x="645.5" y="-307.8" font-family="Times,serif" font-size="14.00">version</text>
<polygon fill="none" stroke="black" points="251,-280 251,-301 282,-301 282,-280 251,-280"/>
<text text-anchor="start" x="261.5" y="-286.8" font-family="Times,serif" font-size="14.00">5</text>
<polygon fill="none" stroke="black" points="282,-280 282,-301 401,-301 401,-280 282,-280"/>
<text text-anchor="start" x="332" y="-286.8" font-family="Times,serif" font-size="14.00">5b</text>
<polygon fill="none" stroke="black" points="401,-280 401,-301 585,-301 585,-280 401,-280"/>
<text text-anchor="start" x="483.5" y="-286.8" font-family="Times,serif" font-size="14.00">b5</text>
<polygon fill="none" stroke="black" points="585,-280 585,-301 759,-301 759,-280 585,-280"/>
<text text-anchor="start" x="635.5" y="-286.8" font-family="Times,serif" font-size="14.00">reserved1</text>
<polygon fill="none" stroke="black" points="251,-259 251,-280 282,-280 282,-259 251,-259"/>
<text text-anchor="start" x="255" y="-265.8" font-family="Times,serif" font-size="14.00">5:5</text>
<polygon fill="none" stroke="black" points="282,-259 282,-280 401,-280 401,-259 282,-259"/>
<text text-anchor="start" x="332" y="-265.8" font-family="Times,serif" font-size="14.00">1b</text>
<polygon fill="none" stroke="black" points="401,-259 401,-280 585,-280 585,-259 401,-259"/>
<text text-anchor="start" x="404" y="-265.8" font-family="Times,serif" font-size="14.00">BitsType1(BigBitEndian)</text>
<polygon fill="none" stroke="black" points="585,-259 585,-280 759,-280 759,-259 585,-259"/>
<text text-anchor="start" x="610.5" y="-265.8" font-family="Times,serif" font-size="14.00">is_end_of_stream</text>
<polygon fill="none" stroke="black" points="251,-238 251,-259 282,-259 282,-238 251,-238"/>
<text text-anchor="start" x="255" y="-244.8" font-family="Times,serif" font-size="14.00">5:6</text>
<polygon fill="none" stroke="black" points="282,-238 282,-259 401,-259 401,-238 282,-238"/>
<text text-anchor="start" x="332" y="-244.8" font-family="Times,serif" font-size="14.00">1b</text>
<polygon fill="none" stroke="black" points="401,-238 401,-259 585,-259 585,-238 401,-238"/>
<text text-anchor="start" x="404" y="-244.8" font-family="Times,serif" font-size="14.00">BitsType1(BigBitEndian)</text>
<polygon fill="none" stroke="black" points="585,-238 585,-259 759,-259 759,-238 585,-238"/>
<text text-anchor="start" x="588" y="-244.8" font-family="Times,serif" font-size="14.00">is_beginning_of_stream</text>
<polygon fill="none" stroke="black" points="251,-217 251,-238 282,-238 282,-217 251,-217"/>
<text text-anchor="start" x="255" y="-223.8" font-family="Times,serif" font-size="14.00">5:7</text>
<polygon fill="none" stroke="black" points="282,-217 282,-238 401,-238 401,-217 282,-217"/>
<text text-anchor="start" x="332" y="-223.8" font-family="Times,serif" font-size="14.00">1b</text>
<polygon fill="none" stroke="black" points="401,-217 401,-238 585,-238 585,-217 401,-217"/>
<text text-anchor="start" x="404" y="-223.8" font-family="Times,serif" font-size="14.00">BitsType1(BigBitEndian)</text>
<polygon fill="none" stroke="black" points="585,-217 585,-238 759,-238 759,-217 585,-217"/>
<text text-anchor="start" x="617.5" y="-223.8" font-family="Times,serif" font-size="14.00">is_continuation</text>
<polygon fill="none" stroke="black" points="251,-196 251,-217 282,-217 282,-196 251,-196"/>
<text text-anchor="start" x="261.5" y="-202.8" font-family="Times,serif" font-size="14.00">6</text>
<polygon fill="none" stroke="black" points="282,-196 282,-217 401,-217 401,-196 282,-196"/>
<text text-anchor="start" x="336.5" y="-202.8" font-family="Times,serif" font-size="14.00">8</text>
<polygon fill="none" stroke="black" points="401,-196 401,-217 585,-217 585,-196 401,-196"/>
<text text-anchor="start" x="477.5" y="-202.8" font-family="Times,serif" font-size="14.00">u8le</text>
<polygon fill="none" stroke="black" points="585,-196 585,-217 759,-217 759,-196 585,-196"/>
<text text-anchor="start" x="628.5" y="-202.8" font-family="Times,serif" font-size="14.00">granule_pos</text>
<polygon fill="none" stroke="black" points="251,-175 251,-196 282,-196 282,-175 251,-175"/>
<text text-anchor="start" x="257" y="-181.8" font-family="Times,serif" font-size="14.00">14</text>
<polygon fill="none" stroke="black" points="282,-175 282,-196 401,-196 401,-175 282,-175"/>
<text text-anchor="start" x="336.5" y="-181.8" font-family="Times,serif" font-size="14.00">4</text>
<polygon fill="none" stroke="black" points="401,-175 401,-196 585,-196 585,-175 401,-175"/>
<text text-anchor="start" x="477.5" y="-181.8" font-family="Times,serif" font-size="14.00">u4le</text>
<polygon fill="none" stroke="black" points="585,-175 585,-196 759,-196 759,-175 585,-175"/>
<text text-anchor="start" x="613.5" y="-181.8" font-family="Times,serif" font-size="14.00">bitstream_serial</text>
<polygon fill="none" stroke="black" points="251,-154 251,-175 282,-175 282,-154 251,-154"/>
<text text-anchor="start" x="257" y="-160.8" font-family="Times,serif" font-size="14.00">18</text>
<polygon fill="none" stroke="black" points="282,-154 282,-175 401,-175 401,-154 282,-154"/>
<text text-anchor="start" x="336.5" y="-160.8" font-family="Times,serif" font-size="14.00">4</text>
<polygon fill="none" stroke="black" points="401,-154 401,-175 585,-175 585,-154 401,-154"/>
<text text-anchor="start" x="477.5" y="-160.8" font-family="Times,serif" font-size="14.00">u4le</text>
<polygon fill="none" stroke="black" points="585,-154 585,-175 759,-175 759,-154 585,-154"/>
<text text-anchor="start" x="619.5" y="-160.8" font-family="Times,serif" font-size="14.00">page_seq_num</text>
<polygon fill="none" stroke="black" points="251,-133 251,-154 282,-154 282,-133 251,-133"/>
<text text-anchor="start" x="257" y="-139.8" font-family="Times,serif" font-size="14.00">22</text>
<polygon fill="none" stroke="black" points="282,-133 282,-154 401,-154 401,-133 282,-133"/>
<text text-anchor="start" x="336.5" y="-139.8" font-family="Times,serif" font-size="14.00">4</text>
<polygon fill="none" stroke="black" points="401,-133 401,-154 585,-154 585,-133 401,-133"/>
<text text-anchor="start" x="477.5" y="-139.8" font-family="Times,serif" font-size="14.00">u4le</text>
<polygon fill="none" stroke="black" points="585,-133 585,-154 759,-154 759,-133 585,-133"/>
<text text-anchor="start" x="652" y="-139.8" font-family="Times,serif" font-size="14.00">crc32</text>
<polygon fill="none" stroke="black" points="251,-112 251,-133 282,-133 282,-112 251,-112"/>
<text text-anchor="start" x="257" y="-118.8" font-family="Times,serif" font-size="14.00">26</text>
<polygon fill="none" stroke="black" points="282,-112 282,-133 401,-133 401,-112 282,-112"/>
<text text-anchor="start" x="336.5" y="-118.8" font-family="Times,serif" font-size="14.00">1</text>
<polygon fill="none" stroke="black" points="401,-112 401,-133 585,-133 585,-112 401,-112"/>
<text text-anchor="start" x="483.5" y="-118.8" font-family="Times,serif" font-size="14.00">u1</text>
<polygon fill="none" stroke="black" points="585,-112 585,-133 759,-133 759,-112 585,-112"/>
<text text-anchor="start" x="618" y="-118.8" font-family="Times,serif" font-size="14.00">num_segments</text>
<polygon fill="none" stroke="black" points="251,-91 251,-112 282,-112 282,-91 251,-91"/>
<text text-anchor="start" x="257" y="-97.8" font-family="Times,serif" font-size="14.00">27</text>
<polygon fill="none" stroke="black" points="282,-91 282,-112 401,-112 401,-91 282,-91"/>
<text text-anchor="start" x="336.5" y="-97.8" font-family="Times,serif" font-size="14.00">1</text>
<polygon fill="none" stroke="black" points="401,-91 401,-112 585,-112 585,-91 401,-91"/>
<text text-anchor="start" x="483.5" y="-97.8" font-family="Times,serif" font-size="14.00">u1</text>
<polygon fill="none" stroke="black" points="585,-91 585,-112 759,-112 759,-91 585,-91"/>
<text text-anchor="start" x="623" y="-97.8" font-family="Times,serif" font-size="14.00">len_segments</text>
<polygon fill="none" stroke="black" points="251,-70 251,-91 759,-91 759,-70 251,-70"/>
<text text-anchor="start" x="403.5" y="-76.8" font-family="Times,serif" font-size="14.00">repeat num_segments times</text>
<polygon fill="none" stroke="black" points="251,-49 251,-70 282,-70 282,-49 251,-49"/>
<text text-anchor="start" x="259.5" y="-55.8" font-family="Times,serif" font-size="14.00">...</text>
<polygon fill="none" stroke="black" points="282,-49 282,-70 401,-70 401,-49 282,-49"/>
<text text-anchor="start" x="285" y="-55.8" font-family="Times,serif" font-size="14.00">len_segments[i]</text>
<polygon fill="none" stroke="black" points="401,-49 401,-70 585,-70 585,-49 401,-49"/>
<polygon fill="none" stroke="black" points="585,-49 585,-70 759,-70 759,-49 585,-49"/>
<text text-anchor="start" x="637" y="-55.8" font-family="Times,serif" font-size="14.00">segments</text>
<polygon fill="none" stroke="black" points="251,-28 251,-49 759,-49 759,-28 251,-28"/>
<text text-anchor="start" x="403.5" y="-34.8" font-family="Times,serif" font-size="14.00">repeat num_segments times</text>
</g>
<!-- ogg__seq&#45;&gt;page__seq -->
<g id="edge1" class="edge">
<title>ogg__seq:pages_type&#45;&gt;page__seq</title>
<path fill="none" stroke="black" stroke-width="2" d="M200.5,-196C211.09,-196 221.89,-196 232.79,-196"/>
<polygon fill="black" stroke="black" stroke-width="2" points="232.84,-199.5 242.84,-196 232.84,-192.5 232.84,-199.5"/>
</g>
<!-- page__seq&#45;&gt;page__seq -->
<g id="edge2" class="edge">
<title>page__seq:num_segments_type&#45;&gt;page__seq:len_segments__repeat</title>
<path fill="none" stroke="#404040" d="M584.8,-125.36C388.73,-130.33 47,-126.52 47,-101 47,-84.87 135.32,-77.41 240.71,-75.36"/>
<polygon fill="#404040" stroke="#404040" points="241.02,-78.86 250.96,-75.18 240.9,-71.86 241.02,-78.86"/>
</g>
<!-- page__seq&#45;&gt;page__seq -->
<g id="edge3" class="edge">
<title>page__seq:len_segments_type&#45;&gt;page__seq:segments_size</title>
<path fill="none" stroke="#404040" d="M686.41,-112.05C769.29,-186.69 756.36,-386 506.5,-386 263.71,-386 244.63,-162.15 319.79,-77.42"/>
<polygon fill="#404040" stroke="#404040" points="322.4,-79.75 326.85,-70.14 317.38,-74.88 322.4,-79.75"/>
</g>
<!-- page__seq&#45;&gt;page__seq -->
<g id="edge4" class="edge">
<title>page__seq:num_segments_type&#45;&gt;page__seq:segments__repeat</title>
<path fill="none" stroke="#404040" d="M584.8,-125.29C388.73,-129.86 47,-123.38 47,-80 47,-52.57 135.32,-39.89 240.71,-35.43"/>
<polygon fill="#404040" stroke="#404040" points="241.1,-38.92 250.96,-35.03 240.83,-31.93 241.1,-38.92"/>
</g>
</g>
</svg>
