<?xml version="1.0" encoding="UTF-8" standalone="no"?>
<!DOCTYPE svg PUBLIC "-//W3C//DTD SVG 1.1//EN"
 "http://www.w3.org/Graphics/SVG/1.1/DTD/svg11.dtd">
<!-- Generated by graphviz version 2.43.0 (0)
 -->
<!-- Title: %3 Pages: 1 -->
<svg width="825pt" height="164pt"
 viewBox="0.00 0.00 825.00 164.10" xmlns="http://www.w3.org/2000/svg" xmlns:xlink="http://www.w3.org/1999/xlink">
<g id="graph0" class="graph" transform="scale(1 1) rotate(0) translate(4 160.1)">
<title>%3</title>
<polygon fill="white" stroke="transparent" points="-4,4 -4,-160.1 821,-160.1 821,4 -4,4"/>
<g id="clust1" class="cluster">
<title>cluster__pcx_dcx</title>
<polygon fill="none" stroke="black" stroke-dasharray="1,5" points="8,-17.1 8,-148.1 717,-148.1 717,-17.1 8,-17.1"/>
<text text-anchor="middle" x="362.5" y="-132.9" font-family="Times,serif" font-size="14.00">PcxDcx</text>
</g>
<g id="clust2" class="cluster">
<title>cluster__pcx_offset</title>
<polygon fill="none" stroke="black" stroke-dasharray="1,5" points="271,-26.1 271,-115.1 709,-115.1 709,-26.1 271,-26.1"/>
<text text-anchor="middle" x="490" y="-99.9" font-family="Times,serif" font-size="14.00">PcxDcx::PcxOffset</text>
</g>
<!-- pcx_dcx__seq -->
<g id="node1" class="node">
<title>pcx_dcx__seq</title>
<polygon fill="#e0ffe0" stroke="transparent" points="24.5,-92.1 24.5,-113.1 66.5,-113.1 66.5,-92.1 24.5,-92.1"/>
<polygon fill="none" stroke="black" points="24.5,-92.1 24.5,-113.1 66.5,-113.1 66.5,-92.1 24.5,-92.1"/>
<text text-anchor="start" x="33" y="-98.9" font-family="Times,serif" font-size="14.00">pos</text>
<polygon fill="#e0ffe0" stroke="transparent" points="66.5,-92.1 66.5,-113.1 105.5,-113.1 105.5,-92.1 66.5,-92.1"/>
<polygon fill="none" stroke="black" points="66.5,-92.1 66.5,-113.1 105.5,-113.1 105.5,-92.1 66.5,-92.1"/>
<text text-anchor="start" x="72" y="-98.9" font-family="Times,serif" font-size="14.00">size</text>
<polygon fill="#e0ffe0" stroke="transparent" points="105.5,-92.1 105.5,-113.1 183.5,-113.1 183.5,-92.1 105.5,-92.1"/>
<polygon fill="none" stroke="black" points="105.5,-92.1 105.5,-113.1 183.5,-113.1 183.5,-92.1 105.5,-92.1"/>
<text text-anchor="start" x="128.5" y="-98.9" font-family="Times,serif" font-size="14.00">type</text>
<polygon fill="#e0ffe0" stroke="transparent" points="183.5,-92.1 183.5,-113.1 235.5,-113.1 235.5,-92.1 183.5,-92.1"/>
<polygon fill="none" stroke="black" points="183.5,-92.1 183.5,-113.1 235.5,-113.1 235.5,-92.1 183.5,-92.1"/>
<text text-anchor="start" x="202.5" y="-98.9" font-family="Times,serif" font-size="14.00">id</text>
<polygon fill="none" stroke="black" points="24.5,-71.1 24.5,-92.1 66.5,-92.1 66.5,-71.1 24.5,-71.1"/>
<text text-anchor="start" x="40.5" y="-77.9" font-family="Times,serif" font-size="14.00">0</text>
<polygon fill="none" stroke="black" points="66.5,-71.1 66.5,-92.1 105.5,-92.1 105.5,-71.1 66.5,-71.1"/>
<text text-anchor="start" x="81" y="-77.9" font-family="Times,serif" font-size="14.00">4</text>
<polygon fill="none" stroke="black" points="105.5,-71.1 105.5,-92.1 183.5,-92.1 183.5,-71.1 105.5,-71.1"/>
<polygon fill="none" stroke="black" points="183.5,-71.1 183.5,-92.1 235.5,-92.1 235.5,-71.1 183.5,-71.1"/>
<text text-anchor="start" x="188" y="-77.9" font-family="Times,serif" font-size="14.00">magic</text>
<polygon fill="none" stroke="black" points="24.5,-50.1 24.5,-71.1 66.5,-71.1 66.5,-50.1 24.5,-50.1"/>
<text text-anchor="start" x="40.5" y="-56.9" font-family="Times,serif" font-size="14.00">4</text>
<polygon fill="none" stroke="black" points="66.5,-50.1 66.5,-71.1 105.5,-71.1 105.5,-50.1 66.5,-50.1"/>
<text text-anchor="start" x="81" y="-56.9" font-family="Times,serif" font-size="14.00">4</text>
<polygon fill="none" stroke="black" points="105.5,-50.1 105.5,-71.1 183.5,-71.1 183.5,-50.1 105.5,-50.1"/>
<text text-anchor="start" x="110" y="-56.9" font-family="Times,serif" font-size="14.00">PcxOffset</text>
<polygon fill="none" stroke="black" points="183.5,-50.1 183.5,-71.1 235.5,-71.1 235.5,-50.1 183.5,-50.1"/>
<text text-anchor="start" x="194.5" y="-56.9" font-family="Times,serif" font-size="14.00">files</text>
<polygon fill="none" stroke="black" points="24.5,-29.1 24.5,-50.1 235.5,-50.1 235.5,-29.1 24.5,-29.1"/>
<text text-anchor="start" x="27.5" y="-35.9" font-family="Times,serif" font-size="14.00">repeat until _.ofs_body == 0</text>
</g>
<!-- pcx_offset__seq -->
<g id="node2" class="node">
<title>pcx_offset__seq</title>
<polygon fill="#e0ffe0" stroke="transparent" points="287,-59.1 287,-80.1 318,-80.1 318,-59.1 287,-59.1"/>
<polygon fill="none" stroke="black" points="287,-59.1 287,-80.1 318,-80.1 318,-59.1 287,-59.1"/>
<text text-anchor="start" x="290" y="-65.9" font-family="Times,serif" font-size="14.00">pos</text>
<polygon fill="#e0ffe0" stroke="transparent" points="318,-59.1 318,-80.1 352,-80.1 352,-59.1 318,-59.1"/>
<polygon fill="none" stroke="black" points="318,-59.1 318,-80.1 352,-80.1 352,-59.1 318,-59.1"/>
<text text-anchor="start" x="321" y="-65.9" font-family="Times,serif" font-size="14.00">size</text>
<polygon fill="#e0ffe0" stroke="transparent" points="352,-59.1 352,-80.1 390,-80.1 390,-59.1 352,-59.1"/>
<polygon fill="none" stroke="black" points="352,-59.1 352,-80.1 390,-80.1 390,-59.1 352,-59.1"/>
<text text-anchor="start" x="355" y="-65.9" font-family="Times,serif" font-size="14.00">type</text>
<polygon fill="#e0ffe0" stroke="transparent" points="390,-59.1 390,-80.1 459,-80.1 459,-59.1 390,-59.1"/>
<polygon fill="none" stroke="black" points="390,-59.1 390,-80.1 459,-80.1 459,-59.1 390,-59.1"/>
<text text-anchor="start" x="417.5" y="-65.9" font-family="Times,serif" font-size="14.00">id</text>
<polygon fill="none" stroke="black" points="287,-38.1 287,-59.1 318,-59.1 318,-38.1 287,-38.1"/>
<text text-anchor="start" x="297.5" y="-44.9" font-family="Times,serif" font-size="14.00">0</text>
<polygon fill="none" stroke="black" points="318,-38.1 318,-59.1 352,-59.1 352,-38.1 318,-38.1"/>
<text text-anchor="start" x="330" y="-44.9" font-family="Times,serif" font-size="14.00">4</text>
<polygon fill="none" stroke="black" points="352,-38.1 352,-59.1 390,-59.1 390,-38.1 352,-38.1"/>
<text text-anchor="start" x="355.5" y="-44.9" font-family="Times,serif" font-size="14.00">u4le</text>
<polygon fill="none" stroke="black" points="390,-38.1 390,-59.1 459,-59.1 459,-38.1 390,-38.1"/>
<text text-anchor="start" x="393" y="-44.9" font-family="Times,serif" font-size="14.00">ofs_body</text>
</g>
<!-- pcx_dcx__seq&#45;&gt;pcx_offset__seq -->
<g id="edge1" class="edge">
<title>pcx_dcx__seq:files_type&#45;&gt;pcx_offset__seq</title>
<path fill="none" stroke="black" stroke-width="2" d="M236.5,-60.1C246.84,-60.1 257.62,-60.07 268.39,-60.02"/>
<polygon fill="black" stroke="black" stroke-width="2" points="268.72,-63.52 278.7,-59.96 268.68,-56.52 268.72,-63.52"/>
</g>
<!-- pcx_offset__seq&#45;&gt;pcx_dcx__seq -->
<g id="edge2" class="edge">
<title>pcx_offset__seq:ofs_body_type&#45;&gt;pcx_dcx__seq:files__repeat</title>
<path fill="none" stroke="#404040" d="M425,-37.1C425,43.25 328.7,-32.34 246.91,-38.68"/>
<polygon fill="#404040" stroke="#404040" points="246.35,-35.2 236.5,-39.1 246.63,-42.19 246.35,-35.2"/>
</g>
<!-- pcx_offset__inst__body -->
<g id="node3" class="node">
<title>pcx_offset__inst__body</title>
<polygon fill="#e0ffe0" stroke="transparent" points="511,-59.1 511,-80.1 580,-80.1 580,-59.1 511,-59.1"/>
<polygon fill="none" stroke="black" points="511,-59.1 511,-80.1 580,-80.1 580,-59.1 511,-59.1"/>
<text text-anchor="start" x="533" y="-65.9" font-family="Times,serif" font-size="14.00">pos</text>
<polygon fill="#e0ffe0" stroke="transparent" points="580,-59.1 580,-80.1 614,-80.1 614,-59.1 580,-59.1"/>
<polygon fill="none" stroke="black" points="580,-59.1 580,-80.1 614,-80.1 614,-59.1 580,-59.1"/>
<text text-anchor="start" x="583" y="-65.9" font-family="Times,serif" font-size="14.00">size</text>
<polygon fill="#e0ffe0" stroke="transparent" points="614,-59.1 614,-80.1 652,-80.1 652,-59.1 614,-59.1"/>
<polygon fill="none" stroke="black" points="614,-59.1 614,-80.1 652,-80.1 652,-59.1 614,-59.1"/>
<text text-anchor="start" x="617" y="-65.9" font-family="Times,serif" font-size="14.00">type</text>
<polygon fill="#e0ffe0" stroke="transparent" points="652,-59.1 652,-80.1 693,-80.1 693,-59.1 652,-59.1"/>
<polygon fill="none" stroke="black" points="652,-59.1 652,-80.1 693,-80.1 693,-59.1 652,-59.1"/>
<text text-anchor="start" x="665.5" y="-65.9" font-family="Times,serif" font-size="14.00">id</text>
<polygon fill="none" stroke="black" points="511,-38.1 511,-59.1 580,-59.1 580,-38.1 511,-38.1"/>
<text text-anchor="start" x="514" y="-44.9" font-family="Times,serif" font-size="14.00">ofs_body</text>
<polygon fill="none" stroke="black" points="580,-38.1 580,-59.1 614,-59.1 614,-38.1 580,-38.1"/>
<text text-anchor="start" x="583" y="-44.9" font-family="Times,serif" font-size="14.00">128</text>
<polygon fill="none" stroke="black" points="614,-38.1 614,-59.1 652,-59.1 652,-38.1 614,-38.1"/>
<text text-anchor="start" x="620" y="-44.9" font-family="Times,serif" font-size="14.00">Pcx</text>
<polygon fill="none" stroke="black" points="652,-38.1 652,-59.1 693,-59.1 693,-38.1 652,-38.1"/>
<text text-anchor="start" x="655" y="-44.9" font-family="Times,serif" font-size="14.00">body</text>
</g>
<!-- pcx_offset__seq&#45;&gt;pcx_offset__inst__body -->
<g id="edge3" class="edge">
<title>pcx_offset__seq:ofs_body_type&#45;&gt;pcx_offset__inst__body:body_pos</title>
<path fill="none" stroke="#404040" d="M460,-48.1C478.4,-48.1 485.38,-48.1 499.85,-48.1"/>
<polygon fill="#404040" stroke="#404040" points="500,-51.6 510,-48.1 500,-44.6 500,-51.6"/>
</g>
<!-- pcx__seq -->
<g id="node4" class="node">
<title>pcx__seq</title>
<text text-anchor="middle" x="777" y="-44.4" font-family="Times,serif" font-size="14.00">pcx__seq</text>
</g>
<!-- pcx_offset__inst__body&#45;&gt;pcx__seq -->
<g id="edge4" class="edge">
<title>pcx_offset__inst__body:body_type&#45;&gt;pcx__seq</title>
<path fill="none" stroke="black" stroke-width="2" d="M694,-48.1C704.57,-48.1 715.91,-48.1 726.68,-48.1"/>
<polygon fill="black" stroke="black" stroke-width="2" points="726.79,-51.6 736.79,-48.1 726.79,-44.6 726.79,-51.6"/>
</g>
</g>
</svg>
