<?xml version="1.0" encoding="UTF-8" standalone="no"?>
<!DOCTYPE svg PUBLIC "-//W3C//DTD SVG 1.1//EN"
 "http://www.w3.org/Graphics/SVG/1.1/DTD/svg11.dtd">
<!-- Generated by graphviz version 2.38.0 (20140413.2041)
 -->
<!-- Title: %3 Pages: 1 -->
<svg width="832pt" height="164pt"
 viewBox="0.00 0.00 832.00 164.30" xmlns="http://www.w3.org/2000/svg" xmlns:xlink="http://www.w3.org/1999/xlink">
<g id="graph0" class="graph" transform="scale(1 1) rotate(0) translate(4 160.296)">
<title>%3</title>
<polygon fill="white" stroke="none" points="-4,4 -4,-160.296 828,-160.296 828,4 -4,4"/>
<g id="clust1" class="cluster"><title>cluster__pcx_dcx</title>
<polygon fill="none" stroke="black" stroke-dasharray="1,5" points="8,-17.2963 8,-148.296 722,-148.296 722,-17.2963 8,-17.2963"/>
<text text-anchor="middle" x="365" y="-133.096" font-family="Times,serif" font-size="14.00">PcxDcx</text>
</g>
<g id="clust2" class="cluster"><title>cluster__pcx_offset</title>
<polygon fill="none" stroke="black" stroke-dasharray="1,5" points="274,-26.2963 274,-115.296 714,-115.296 714,-26.2963 274,-26.2963"/>
<text text-anchor="middle" x="494" y="-100.096" font-family="Times,serif" font-size="14.00">PcxDcx::PcxOffset</text>
</g>
<!-- pcx_dcx__seq -->
<g id="node1" class="node"><title>pcx_dcx__seq</title>
<polygon fill="#e0ffe0" stroke="none" points="24,-92.2963 24,-113.296 55,-113.296 55,-92.2963 24,-92.2963"/>
<polygon fill="none" stroke="black" points="24,-92.2963 24,-113.296 55,-113.296 55,-92.2963 24,-92.2963"/>
<text text-anchor="start" x="27" y="-99.0963" font-family="Times,serif" font-size="14.00">pos</text>
<polygon fill="#e0ffe0" stroke="none" points="55,-92.2963 55,-113.296 89,-113.296 89,-92.2963 55,-92.2963"/>
<polygon fill="none" stroke="black" points="55,-92.2963 55,-113.296 89,-113.296 89,-92.2963 55,-92.2963"/>
<text text-anchor="start" x="58" y="-99.0963" font-family="Times,serif" font-size="14.00">size</text>
<polygon fill="#e0ffe0" stroke="none" points="89,-92.2963 89,-113.296 188,-113.296 188,-92.2963 89,-92.2963"/>
<polygon fill="none" stroke="black" points="89,-92.2963 89,-113.296 188,-113.296 188,-92.2963 89,-92.2963"/>
<text text-anchor="start" x="122.5" y="-99.0963" font-family="Times,serif" font-size="14.00">type</text>
<polygon fill="#e0ffe0" stroke="none" points="188,-92.2963 188,-113.296 238,-113.296 238,-92.2963 188,-92.2963"/>
<polygon fill="none" stroke="black" points="188,-92.2963 188,-113.296 238,-113.296 238,-92.2963 188,-92.2963"/>
<text text-anchor="start" x="206" y="-99.0963" font-family="Times,serif" font-size="14.00">id</text>
<polygon fill="none" stroke="black" points="24,-71.2963 24,-92.2963 55,-92.2963 55,-71.2963 24,-71.2963"/>
<text text-anchor="start" x="34.5" y="-78.0963" font-family="Times,serif" font-size="14.00">0</text>
<polygon fill="none" stroke="black" points="55,-71.2963 55,-92.2963 89,-92.2963 89,-71.2963 55,-71.2963"/>
<text text-anchor="start" x="67" y="-78.0963" font-family="Times,serif" font-size="14.00">4</text>
<polygon fill="none" stroke="black" points="89,-71.2963 89,-92.2963 188,-92.2963 188,-71.2963 89,-71.2963"/>
<text text-anchor="start" x="92" y="-78.0963" font-family="Times,serif" font-size="14.00">B1 68 DE 3A</text>
<polygon fill="none" stroke="black" points="188,-71.2963 188,-92.2963 238,-92.2963 238,-71.2963 188,-71.2963"/>
<text text-anchor="start" x="191" y="-78.0963" font-family="Times,serif" font-size="14.00">magic</text>
<polygon fill="none" stroke="black" points="24,-50.2963 24,-71.2963 55,-71.2963 55,-50.2963 24,-50.2963"/>
<text text-anchor="start" x="34.5" y="-57.0963" font-family="Times,serif" font-size="14.00">4</text>
<polygon fill="none" stroke="black" points="55,-50.2963 55,-71.2963 89,-71.2963 89,-50.2963 55,-50.2963"/>
<text text-anchor="start" x="67" y="-57.0963" font-family="Times,serif" font-size="14.00">4</text>
<polygon fill="none" stroke="black" points="89,-50.2963 89,-71.2963 188,-71.2963 188,-50.2963 89,-50.2963"/>
<text text-anchor="start" x="103.5" y="-57.0963" font-family="Times,serif" font-size="14.00">PcxOffset</text>
<polygon fill="none" stroke="black" points="188,-50.2963 188,-71.2963 238,-71.2963 238,-50.2963 188,-50.2963"/>
<text text-anchor="start" x="198" y="-57.0963" font-family="Times,serif" font-size="14.00">files</text>
<polygon fill="none" stroke="black" points="24,-29.2963 24,-50.2963 238,-50.2963 238,-29.2963 24,-29.2963"/>
<text text-anchor="start" x="28" y="-36.0963" font-family="Times,serif" font-size="14.00">repeat until _.ofs_body == 0</text>
</g>
<!-- pcx_offset__seq -->
<g id="node2" class="node"><title>pcx_offset__seq</title>
<polygon fill="#e0ffe0" stroke="none" points="290.5,-59.2963 290.5,-80.2963 321.5,-80.2963 321.5,-59.2963 290.5,-59.2963"/>
<polygon fill="none" stroke="black" points="290.5,-59.2963 290.5,-80.2963 321.5,-80.2963 321.5,-59.2963 290.5,-59.2963"/>
<text text-anchor="start" x="293.5" y="-66.0963" font-family="Times,serif" font-size="14.00">pos</text>
<polygon fill="#e0ffe0" stroke="none" points="321.5,-59.2963 321.5,-80.2963 355.5,-80.2963 355.5,-59.2963 321.5,-59.2963"/>
<polygon fill="none" stroke="black" points="321.5,-59.2963 321.5,-80.2963 355.5,-80.2963 355.5,-59.2963 321.5,-59.2963"/>
<text text-anchor="start" x="324.5" y="-66.0963" font-family="Times,serif" font-size="14.00">size</text>
<polygon fill="#e0ffe0" stroke="none" points="355.5,-59.2963 355.5,-80.2963 393.5,-80.2963 393.5,-59.2963 355.5,-59.2963"/>
<polygon fill="none" stroke="black" points="355.5,-59.2963 355.5,-80.2963 393.5,-80.2963 393.5,-59.2963 355.5,-59.2963"/>
<text text-anchor="start" x="358.5" y="-66.0963" font-family="Times,serif" font-size="14.00">type</text>
<polygon fill="#e0ffe0" stroke="none" points="393.5,-59.2963 393.5,-80.2963 463.5,-80.2963 463.5,-59.2963 393.5,-59.2963"/>
<polygon fill="none" stroke="black" points="393.5,-59.2963 393.5,-80.2963 463.5,-80.2963 463.5,-59.2963 393.5,-59.2963"/>
<text text-anchor="start" x="421.5" y="-66.0963" font-family="Times,serif" font-size="14.00">id</text>
<polygon fill="none" stroke="black" points="290.5,-38.2963 290.5,-59.2963 321.5,-59.2963 321.5,-38.2963 290.5,-38.2963"/>
<text text-anchor="start" x="301" y="-45.0963" font-family="Times,serif" font-size="14.00">0</text>
<polygon fill="none" stroke="black" points="321.5,-38.2963 321.5,-59.2963 355.5,-59.2963 355.5,-38.2963 321.5,-38.2963"/>
<text text-anchor="start" x="333.5" y="-45.0963" font-family="Times,serif" font-size="14.00">4</text>
<polygon fill="none" stroke="black" points="355.5,-38.2963 355.5,-59.2963 393.5,-59.2963 393.5,-38.2963 355.5,-38.2963"/>
<text text-anchor="start" x="359" y="-45.0963" font-family="Times,serif" font-size="14.00">u4le</text>
<polygon fill="none" stroke="black" points="393.5,-38.2963 393.5,-59.2963 463.5,-59.2963 463.5,-38.2963 393.5,-38.2963"/>
<text text-anchor="start" x="396.5" y="-45.0963" font-family="Times,serif" font-size="14.00">ofs_body</text>
</g>
<!-- pcx_dcx__seq&#45;&gt;pcx_offset__seq -->
<g id="edge1" class="edge"><title>pcx_dcx__seq:files_type&#45;&gt;pcx_offset__seq</title>
<path fill="none" stroke="black" stroke-width="2" d="M239,-60.2963C249.614,-60.2963 260.693,-60.2657 271.748,-60.2152"/>
<polygon fill="black" stroke="black" stroke-width="2" points="271.899,-63.7146 281.881,-60.1635 271.863,-56.7147 271.899,-63.7146"/>
</g>
<!-- pcx_offset__seq&#45;&gt;pcx_dcx__seq -->
<g id="edge2" class="edge"><title>pcx_offset__seq:ofs_body_type&#45;&gt;pcx_dcx__seq:files__repeat</title>
<path fill="none" stroke="#404040" d="M428.5,-37.2963C428.5,43.5582 331.488,-32.6647 249.21,-38.8981"/>
<polygon fill="#404040" stroke="#404040" points="248.856,-35.4092 239,-39.2963 249.129,-42.4038 248.856,-35.4092"/>
</g>
<!-- pcx_offset__inst__body -->
<g id="node3" class="node"><title>pcx_offset__inst__body</title>
<polygon fill="#e0ffe0" stroke="none" points="515.5,-59.2963 515.5,-80.2963 585.5,-80.2963 585.5,-59.2963 515.5,-59.2963"/>
<polygon fill="none" stroke="black" points="515.5,-59.2963 515.5,-80.2963 585.5,-80.2963 585.5,-59.2963 515.5,-59.2963"/>
<text text-anchor="start" x="538" y="-66.0963" font-family="Times,serif" font-size="14.00">pos</text>
<polygon fill="#e0ffe0" stroke="none" points="585.5,-59.2963 585.5,-80.2963 619.5,-80.2963 619.5,-59.2963 585.5,-59.2963"/>
<polygon fill="none" stroke="black" points="585.5,-59.2963 585.5,-80.2963 619.5,-80.2963 619.5,-59.2963 585.5,-59.2963"/>
<text text-anchor="start" x="588.5" y="-66.0963" font-family="Times,serif" font-size="14.00">size</text>
<polygon fill="#e0ffe0" stroke="none" points="619.5,-59.2963 619.5,-80.2963 657.5,-80.2963 657.5,-59.2963 619.5,-59.2963"/>
<polygon fill="none" stroke="black" points="619.5,-59.2963 619.5,-80.2963 657.5,-80.2963 657.5,-59.2963 619.5,-59.2963"/>
<text text-anchor="start" x="622.5" y="-66.0963" font-family="Times,serif" font-size="14.00">type</text>
<polygon fill="#e0ffe0" stroke="none" points="657.5,-59.2963 657.5,-80.2963 698.5,-80.2963 698.5,-59.2963 657.5,-59.2963"/>
<polygon fill="none" stroke="black" points="657.5,-59.2963 657.5,-80.2963 698.5,-80.2963 698.5,-59.2963 657.5,-59.2963"/>
<text text-anchor="start" x="671" y="-66.0963" font-family="Times,serif" font-size="14.00">id</text>
<polygon fill="none" stroke="black" points="515.5,-38.2963 515.5,-59.2963 585.5,-59.2963 585.5,-38.2963 515.5,-38.2963"/>
<text text-anchor="start" x="518.5" y="-45.0963" font-family="Times,serif" font-size="14.00">ofs_body</text>
<polygon fill="none" stroke="black" points="585.5,-38.2963 585.5,-59.2963 619.5,-59.2963 619.5,-38.2963 585.5,-38.2963"/>
<text text-anchor="start" x="588.5" y="-45.0963" font-family="Times,serif" font-size="14.00">128</text>
<polygon fill="none" stroke="black" points="619.5,-38.2963 619.5,-59.2963 657.5,-59.2963 657.5,-38.2963 619.5,-38.2963"/>
<text text-anchor="start" x="625" y="-45.0963" font-family="Times,serif" font-size="14.00">Pcx</text>
<polygon fill="none" stroke="black" points="657.5,-38.2963 657.5,-59.2963 698.5,-59.2963 698.5,-38.2963 657.5,-38.2963"/>
<text text-anchor="start" x="660.5" y="-45.0963" font-family="Times,serif" font-size="14.00">body</text>
</g>
<!-- pcx_offset__seq&#45;&gt;pcx_offset__inst__body -->
<g id="edge3" class="edge"><title>pcx_offset__seq:ofs_body_type&#45;&gt;pcx_offset__inst__body:body_pos</title>
<path fill="none" stroke="#404040" d="M464.5,-48.2963C482.903,-48.2963 489.876,-48.2963 504.349,-48.2963"/>
<polygon fill="#404040" stroke="#404040" points="504.5,-51.7964 514.5,-48.2963 504.5,-44.7964 504.5,-51.7964"/>
</g>
<!-- pcx__seq -->
<g id="node4" class="node"><title>pcx__seq</title>
<text text-anchor="middle" x="783" y="-44.5963" font-family="Times,serif" font-size="14.00">pcx__seq</text>
</g>
<!-- pcx_offset__inst__body&#45;&gt;pcx__seq -->
<g id="edge4" class="edge"><title>pcx_offset__inst__body:body_type&#45;&gt;pcx__seq</title>
<path fill="none" stroke="black" stroke-width="2" d="M699.5,-48.2963C709.812,-48.2963 720.85,-48.2963 731.389,-48.2963"/>
<polygon fill="black" stroke="black" stroke-width="2" points="731.717,-51.7964 741.717,-48.2963 731.717,-44.7964 731.717,-51.7964"/>
</g>
</g>
</svg>
