<?xml version="1.0" encoding="UTF-8" standalone="no"?>
<!DOCTYPE svg PUBLIC "-//W3C//DTD SVG 1.1//EN"
 "http://www.w3.org/Graphics/SVG/1.1/DTD/svg11.dtd">
<!-- Generated by graphviz version 2.38.0 (20140413.2041)
 -->
<!-- Title: %3 Pages: 1 -->
<svg width="462pt" height="427pt"
 viewBox="0.00 0.00 462.00 427.00" xmlns="http://www.w3.org/2000/svg" xmlns:xlink="http://www.w3.org/1999/xlink">
<g id="graph0" class="graph" transform="scale(1 1) rotate(0) translate(4 423)">
<title>%3</title>
<polygon fill="white" stroke="none" points="-4,4 -4,-423 458,-423 458,4 -4,4"/>
<g id="clust1" class="cluster"><title>cluster__avantes_roh60</title>
<polygon fill="none" stroke="black" stroke-dasharray="1,5" points="138,-8 138,-411 446,-411 446,-8 138,-8"/>
<text text-anchor="middle" x="292" y="-395.8" font-family="Times,serif" font-size="14.00">AvantesRoh60</text>
</g>
<!-- avantes_roh60__seq -->
<g id="node1" class="node"><title>avantes_roh60__seq</title>
<polygon fill="#e0ffe0" stroke="none" points="154,-355 154,-376 242,-376 242,-355 154,-355"/>
<polygon fill="none" stroke="black" points="154,-355 154,-376 242,-376 242,-355 154,-355"/>
<text text-anchor="start" x="188.5" y="-361.8" font-family="Times,serif" font-size="14.00">pos</text>
<polygon fill="#e0ffe0" stroke="none" points="242,-355 242,-376 301,-376 301,-355 242,-355"/>
<polygon fill="none" stroke="black" points="242,-355 242,-376 301,-376 301,-355 242,-355"/>
<text text-anchor="start" x="260.5" y="-361.8" font-family="Times,serif" font-size="14.00">size</text>
<polygon fill="#e0ffe0" stroke="none" points="301,-355 301,-376 347,-376 347,-355 301,-355"/>
<polygon fill="none" stroke="black" points="301,-355 301,-376 347,-376 347,-355 301,-355"/>
<text text-anchor="start" x="312" y="-361.8" font-family="Times,serif" font-size="14.00">type</text>
<polygon fill="#e0ffe0" stroke="none" points="347,-355 347,-376 430,-376 430,-355 347,-355"/>
<polygon fill="none" stroke="black" points="347,-355 347,-376 430,-376 430,-355 347,-355"/>
<text text-anchor="start" x="383" y="-361.8" font-family="Times,serif" font-size="14.00">id</text>
<polygon fill="none" stroke="black" points="154,-334 154,-355 242,-355 242,-334 154,-334"/>
<text text-anchor="start" x="194.5" y="-340.8" font-family="Times,serif" font-size="14.00">0</text>
<polygon fill="none" stroke="black" points="242,-334 242,-355 301,-355 301,-334 242,-334"/>
<text text-anchor="start" x="268" y="-340.8" font-family="Times,serif" font-size="14.00">4</text>
<polygon fill="none" stroke="black" points="301,-334 301,-355 347,-355 347,-334 301,-334"/>
<text text-anchor="start" x="313" y="-340.8" font-family="Times,serif" font-size="14.00">f4le</text>
<polygon fill="none" stroke="black" points="347,-334 347,-355 430,-355 430,-334 347,-334"/>
<text text-anchor="start" x="359.5" y="-340.8" font-family="Times,serif" font-size="14.00">unknown1</text>
<polygon fill="none" stroke="black" points="154,-313 154,-334 242,-334 242,-313 154,-313"/>
<text text-anchor="start" x="194.5" y="-319.8" font-family="Times,serif" font-size="14.00">4</text>
<polygon fill="none" stroke="black" points="242,-313 242,-334 301,-334 301,-313 242,-313"/>
<text text-anchor="start" x="268" y="-319.8" font-family="Times,serif" font-size="14.00">4</text>
<polygon fill="none" stroke="black" points="301,-313 301,-334 347,-334 347,-313 301,-313"/>
<text text-anchor="start" x="313" y="-319.8" font-family="Times,serif" font-size="14.00">f4le</text>
<polygon fill="none" stroke="black" points="347,-313 347,-334 430,-334 430,-313 347,-313"/>
<text text-anchor="start" x="358" y="-319.8" font-family="Times,serif" font-size="14.00">wlintercept</text>
<polygon fill="none" stroke="black" points="154,-292 154,-313 242,-313 242,-292 154,-292"/>
<text text-anchor="start" x="194.5" y="-298.8" font-family="Times,serif" font-size="14.00">8</text>
<polygon fill="none" stroke="black" points="242,-292 242,-313 301,-313 301,-292 242,-292"/>
<text text-anchor="start" x="268" y="-298.8" font-family="Times,serif" font-size="14.00">4</text>
<polygon fill="none" stroke="black" points="301,-292 301,-313 347,-313 347,-292 301,-292"/>
<text text-anchor="start" x="313" y="-298.8" font-family="Times,serif" font-size="14.00">f4le</text>
<polygon fill="none" stroke="black" points="347,-292 347,-313 430,-313 430,-292 347,-292"/>
<text text-anchor="start" x="374.5" y="-298.8" font-family="Times,serif" font-size="14.00">wlx1</text>
<polygon fill="none" stroke="black" points="154,-271 154,-292 242,-292 242,-271 154,-271"/>
<text text-anchor="start" x="191" y="-277.8" font-family="Times,serif" font-size="14.00">12</text>
<polygon fill="none" stroke="black" points="242,-271 242,-292 301,-292 301,-271 242,-271"/>
<text text-anchor="start" x="268" y="-277.8" font-family="Times,serif" font-size="14.00">4</text>
<polygon fill="none" stroke="black" points="301,-271 301,-292 347,-292 347,-271 301,-271"/>
<text text-anchor="start" x="313" y="-277.8" font-family="Times,serif" font-size="14.00">f4le</text>
<polygon fill="none" stroke="black" points="347,-271 347,-292 430,-292 430,-271 347,-271"/>
<text text-anchor="start" x="374.5" y="-277.8" font-family="Times,serif" font-size="14.00">wlx2</text>
<polygon fill="none" stroke="black" points="154,-250 154,-271 242,-271 242,-250 154,-250"/>
<text text-anchor="start" x="191" y="-256.8" font-family="Times,serif" font-size="14.00">16</text>
<polygon fill="none" stroke="black" points="242,-250 242,-271 301,-271 301,-250 242,-250"/>
<text text-anchor="start" x="268" y="-256.8" font-family="Times,serif" font-size="14.00">4</text>
<polygon fill="none" stroke="black" points="301,-250 301,-271 347,-271 347,-250 301,-250"/>
<text text-anchor="start" x="313" y="-256.8" font-family="Times,serif" font-size="14.00">f4le</text>
<polygon fill="none" stroke="black" points="347,-250 347,-271 430,-271 430,-250 347,-250"/>
<text text-anchor="start" x="374.5" y="-256.8" font-family="Times,serif" font-size="14.00">wlx3</text>
<polygon fill="none" stroke="black" points="154,-229 154,-250 242,-250 242,-229 154,-229"/>
<text text-anchor="start" x="191" y="-235.8" font-family="Times,serif" font-size="14.00">20</text>
<polygon fill="none" stroke="black" points="242,-229 242,-250 301,-250 301,-229 242,-229"/>
<text text-anchor="start" x="268" y="-235.8" font-family="Times,serif" font-size="14.00">4</text>
<polygon fill="none" stroke="black" points="301,-229 301,-250 347,-250 347,-229 301,-229"/>
<text text-anchor="start" x="313" y="-235.8" font-family="Times,serif" font-size="14.00">f4le</text>
<polygon fill="none" stroke="black" points="347,-229 347,-250 430,-250 430,-229 347,-229"/>
<text text-anchor="start" x="374.5" y="-235.8" font-family="Times,serif" font-size="14.00">wlx4</text>
<polygon fill="none" stroke="black" points="154,-208 154,-229 242,-229 242,-208 154,-208"/>
<text text-anchor="start" x="191" y="-214.8" font-family="Times,serif" font-size="14.00">24</text>
<polygon fill="none" stroke="black" points="242,-208 242,-229 301,-229 301,-208 242,-208"/>
<text text-anchor="start" x="268" y="-214.8" font-family="Times,serif" font-size="14.00">4</text>
<polygon fill="none" stroke="black" points="301,-208 301,-229 347,-229 347,-208 301,-208"/>
<text text-anchor="start" x="313" y="-214.8" font-family="Times,serif" font-size="14.00">f4le</text>
<polygon fill="none" stroke="black" points="347,-208 347,-229 430,-229 430,-208 347,-208"/>
<text text-anchor="start" x="359.5" y="-214.8" font-family="Times,serif" font-size="14.00">unknown2</text>
<polygon fill="none" stroke="black" points="154,-187 154,-208 430,-208 430,-187 154,-187"/>
<text text-anchor="start" x="253" y="-193.8" font-family="Times,serif" font-size="14.00">repeat 9 times</text>
<polygon fill="none" stroke="black" points="154,-166 154,-187 242,-187 242,-166 154,-166"/>
<text text-anchor="start" x="191" y="-172.8" font-family="Times,serif" font-size="14.00">60</text>
<polygon fill="none" stroke="black" points="242,-166 242,-187 301,-187 301,-166 242,-166"/>
<text text-anchor="start" x="268" y="-172.8" font-family="Times,serif" font-size="14.00">4</text>
<polygon fill="none" stroke="black" points="301,-166 301,-187 347,-187 347,-166 301,-166"/>
<text text-anchor="start" x="313" y="-172.8" font-family="Times,serif" font-size="14.00">f4le</text>
<polygon fill="none" stroke="black" points="347,-166 347,-187 430,-187 430,-166 347,-166"/>
<text text-anchor="start" x="367" y="-172.8" font-family="Times,serif" font-size="14.00">ipixfirst</text>
<polygon fill="none" stroke="black" points="154,-145 154,-166 242,-166 242,-145 154,-145"/>
<text text-anchor="start" x="191" y="-151.8" font-family="Times,serif" font-size="14.00">64</text>
<polygon fill="none" stroke="black" points="242,-145 242,-166 301,-166 301,-145 242,-145"/>
<text text-anchor="start" x="268" y="-151.8" font-family="Times,serif" font-size="14.00">4</text>
<polygon fill="none" stroke="black" points="301,-145 301,-166 347,-166 347,-145 301,-145"/>
<text text-anchor="start" x="313" y="-151.8" font-family="Times,serif" font-size="14.00">f4le</text>
<polygon fill="none" stroke="black" points="347,-145 347,-166 430,-166 430,-145 347,-145"/>
<text text-anchor="start" x="368.5" y="-151.8" font-family="Times,serif" font-size="14.00">ipixlast</text>
<polygon fill="none" stroke="black" points="154,-124 154,-145 242,-145 242,-124 154,-124"/>
<text text-anchor="start" x="191" y="-130.8" font-family="Times,serif" font-size="14.00">68</text>
<polygon fill="none" stroke="black" points="242,-124 242,-145 301,-145 301,-124 242,-124"/>
<text text-anchor="start" x="268" y="-130.8" font-family="Times,serif" font-size="14.00">4</text>
<polygon fill="none" stroke="black" points="301,-124 301,-145 347,-145 347,-124 301,-124"/>
<text text-anchor="start" x="313" y="-130.8" font-family="Times,serif" font-size="14.00">f4le</text>
<polygon fill="none" stroke="black" points="347,-124 347,-145 430,-145 430,-124 347,-124"/>
<text text-anchor="start" x="359.5" y="-130.8" font-family="Times,serif" font-size="14.00">unknown3</text>
<polygon fill="none" stroke="black" points="154,-103 154,-124 430,-124 430,-103 154,-103"/>
<text text-anchor="start" x="253" y="-109.8" font-family="Times,serif" font-size="14.00">repeat 4 times</text>
<polygon fill="none" stroke="black" points="154,-82 154,-103 242,-103 242,-82 154,-82"/>
<text text-anchor="start" x="191" y="-88.8" font-family="Times,serif" font-size="14.00">84</text>
<polygon fill="none" stroke="black" points="242,-82 242,-103 301,-103 301,-82 242,-82"/>
<text text-anchor="start" x="268" y="-88.8" font-family="Times,serif" font-size="14.00">4</text>
<polygon fill="none" stroke="black" points="301,-82 301,-103 347,-103 347,-82 301,-82"/>
<text text-anchor="start" x="313" y="-88.8" font-family="Times,serif" font-size="14.00">f4le</text>
<polygon fill="none" stroke="black" points="347,-82 347,-103 430,-103 430,-82 347,-82"/>
<text text-anchor="start" x="363" y="-88.8" font-family="Times,serif" font-size="14.00">spectrum</text>
<polygon fill="none" stroke="black" points="154,-61 154,-82 430,-82 430,-61 154,-61"/>
<text text-anchor="start" x="157" y="-67.8" font-family="Times,serif" font-size="14.00">repeat (((ipixlast).to_i &#45; (ipixfirst).to_i) &#45; 1) times</text>
<polygon fill="none" stroke="black" points="154,-40 154,-61 242,-61 242,-40 154,-40"/>
<text text-anchor="start" x="192" y="-46.8" font-family="Times,serif" font-size="14.00">...</text>
<polygon fill="none" stroke="black" points="242,-40 242,-61 301,-61 301,-40 242,-40"/>
<text text-anchor="start" x="268" y="-46.8" font-family="Times,serif" font-size="14.00">4</text>
<polygon fill="none" stroke="black" points="301,-40 301,-61 347,-61 347,-40 301,-40"/>
<text text-anchor="start" x="313" y="-46.8" font-family="Times,serif" font-size="14.00">f4le</text>
<polygon fill="none" stroke="black" points="347,-40 347,-61 430,-61 430,-40 347,-40"/>
<text text-anchor="start" x="359.5" y="-46.8" font-family="Times,serif" font-size="14.00">unknown4</text>
<polygon fill="none" stroke="black" points="154,-19 154,-40 430,-40 430,-19 154,-19"/>
<text text-anchor="start" x="253" y="-25.8" font-family="Times,serif" font-size="14.00">repeat 3 times</text>
</g>
<!-- avantes_roh60__seq&#45;&gt;avantes_roh60__seq -->
<g id="edge1" class="edge"><title>avantes_roh60__seq:ipixlast_type&#45;&gt;avantes_roh60__seq:spectrum__repeat</title>
<path fill="none" stroke="#404040" d="M346.757,-157.763C226.308,-163.276 0,-157.924 0,-113 0,-82.8759 67.9169,-70.5452 143.576,-67.3525"/>
<polygon fill="#404040" stroke="#404040" points="143.944,-70.8415 153.809,-66.977 143.687,-63.8462 143.944,-70.8415"/>
</g>
<!-- avantes_roh60__seq&#45;&gt;avantes_roh60__seq -->
<g id="edge2" class="edge"><title>avantes_roh60__seq:ipixfirst_type&#45;&gt;avantes_roh60__seq:spectrum__repeat</title>
<path fill="none" stroke="#404040" d="M346.757,-178.745C226.308,-184.127 0,-177.673 0,-123.5 0,-87.1739 67.9169,-72.3045 143.576,-68.0727"/>
<polygon fill="#404040" stroke="#404040" points="143.994,-71.5564 153.809,-67.566 143.648,-64.5649 143.994,-71.5564"/>
</g>
</g>
</svg>
