<?xml version="1.0" encoding="UTF-8" standalone="no"?>
<!DOCTYPE svg PUBLIC "-//W3C//DTD SVG 1.1//EN"
 "http://www.w3.org/Graphics/SVG/1.1/DTD/svg11.dtd">
<!-- Generated by graphviz version 2.40.1 (20161225.0304)
 -->
<!-- Title: %3 Pages: 1 -->
<svg width="1766pt" height="521pt"
 viewBox="0.00 0.00 1766.00 521.00" xmlns="http://www.w3.org/2000/svg" xmlns:xlink="http://www.w3.org/1999/xlink">
<g id="graph0" class="graph" transform="scale(1 1) rotate(0) translate(4 517)">
<title>%3</title>
<polygon fill="#ffffff" stroke="transparent" points="-4,4 -4,-517 1762,-517 1762,4 -4,4"/>
<g id="clust1" class="cluster">
<title>cluster__dos_datetime</title>
<polygon fill="none" stroke="#000000" stroke-dasharray="1,5" points="8,-8 8,-505 1750,-505 1750,-8 8,-8"/>
<text text-anchor="middle" x="879" y="-489.8" font-family="Times,serif" font-size="14.00" fill="#000000">DosDatetime</text>
</g>
<g id="clust2" class="cluster">
<title>cluster__time</title>
<polygon fill="none" stroke="#000000" stroke-dasharray="1,5" points="222,-249 222,-474 1586.5,-474 1586.5,-249 222,-249"/>
<text text-anchor="middle" x="904.25" y="-458.8" font-family="Times,serif" font-size="14.00" fill="#000000">DosDatetime::Time</text>
</g>
<g id="clust3" class="cluster">
<title>cluster__date</title>
<polygon fill="none" stroke="#000000" stroke-dasharray="1,5" points="207,-16 207,-241 1742,-241 1742,-16 207,-16"/>
<text text-anchor="middle" x="974.5" y="-225.8" font-family="Times,serif" font-size="14.00" fill="#000000">DosDatetime::Date</text>
</g>
<!-- dos_datetime__seq -->
<g id="node1" class="node">
<title>dos_datetime__seq</title>
<polygon fill="#e0ffe0" stroke="transparent" points="24.5,-260 24.5,-281 55.5,-281 55.5,-260 24.5,-260"/>
<polygon fill="none" stroke="#000000" points="24.5,-260 24.5,-281 55.5,-281 55.5,-260 24.5,-260"/>
<text text-anchor="start" x="27.5" y="-266.8" font-family="Times,serif" font-size="14.00" fill="#000000">pos</text>
<polygon fill="#e0ffe0" stroke="transparent" points="55.5,-260 55.5,-281 89.5,-281 89.5,-260 55.5,-260"/>
<polygon fill="none" stroke="#000000" points="55.5,-260 55.5,-281 89.5,-281 89.5,-260 55.5,-260"/>
<text text-anchor="start" x="58.5" y="-266.8" font-family="Times,serif" font-size="14.00" fill="#000000">size</text>
<polygon fill="#e0ffe0" stroke="transparent" points="89.5,-260 89.5,-281 132.5,-281 132.5,-260 89.5,-260"/>
<polygon fill="none" stroke="#000000" points="89.5,-260 89.5,-281 132.5,-281 132.5,-260 89.5,-260"/>
<text text-anchor="start" x="95" y="-266.8" font-family="Times,serif" font-size="14.00" fill="#000000">type</text>
<polygon fill="#e0ffe0" stroke="transparent" points="132.5,-260 132.5,-281 171.5,-281 171.5,-260 132.5,-260"/>
<polygon fill="none" stroke="#000000" points="132.5,-260 132.5,-281 171.5,-281 171.5,-260 132.5,-260"/>
<text text-anchor="start" x="145" y="-266.8" font-family="Times,serif" font-size="14.00" fill="#000000">id</text>
<polygon fill="none" stroke="#000000" points="24.5,-239 24.5,-260 55.5,-260 55.5,-239 24.5,-239"/>
<text text-anchor="start" x="35" y="-245.8" font-family="Times,serif" font-size="14.00" fill="#000000">0</text>
<polygon fill="none" stroke="#000000" points="55.5,-239 55.5,-260 89.5,-260 89.5,-239 55.5,-239"/>
<text text-anchor="start" x="67.5" y="-245.8" font-family="Times,serif" font-size="14.00" fill="#000000">2</text>
<polygon fill="none" stroke="#000000" points="89.5,-239 89.5,-260 132.5,-260 132.5,-239 89.5,-239"/>
<text text-anchor="start" x="92.5" y="-245.8" font-family="Times,serif" font-size="14.00" fill="#000000">Time</text>
<polygon fill="none" stroke="#000000" points="132.5,-239 132.5,-260 171.5,-260 171.5,-239 132.5,-239"/>
<text text-anchor="start" x="135.5" y="-245.8" font-family="Times,serif" font-size="14.00" fill="#000000">time</text>
<polygon fill="none" stroke="#000000" points="24.5,-218 24.5,-239 55.5,-239 55.5,-218 24.5,-218"/>
<text text-anchor="start" x="35" y="-224.8" font-family="Times,serif" font-size="14.00" fill="#000000">2</text>
<polygon fill="none" stroke="#000000" points="55.5,-218 55.5,-239 89.5,-239 89.5,-218 55.5,-218"/>
<text text-anchor="start" x="67.5" y="-224.8" font-family="Times,serif" font-size="14.00" fill="#000000">2</text>
<polygon fill="none" stroke="#000000" points="89.5,-218 89.5,-239 132.5,-239 132.5,-218 89.5,-218"/>
<text text-anchor="start" x="94" y="-224.8" font-family="Times,serif" font-size="14.00" fill="#000000">Date</text>
<polygon fill="none" stroke="#000000" points="132.5,-218 132.5,-239 171.5,-239 171.5,-218 132.5,-218"/>
<text text-anchor="start" x="136" y="-224.8" font-family="Times,serif" font-size="14.00" fill="#000000">date</text>
</g>
<!-- time__seq -->
<g id="node2" class="node">
<title>time__seq</title>
<polygon fill="#e0ffe0" stroke="transparent" points="238,-358 238,-379 269,-379 269,-358 238,-358"/>
<polygon fill="none" stroke="#000000" points="238,-358 238,-379 269,-379 269,-358 238,-358"/>
<text text-anchor="start" x="241" y="-364.8" font-family="Times,serif" font-size="14.00" fill="#000000">pos</text>
<polygon fill="#e0ffe0" stroke="transparent" points="269,-358 269,-379 303,-379 303,-358 269,-358"/>
<polygon fill="none" stroke="#000000" points="269,-358 269,-379 303,-379 303,-358 269,-358"/>
<text text-anchor="start" x="272" y="-364.8" font-family="Times,serif" font-size="14.00" fill="#000000">size</text>
<polygon fill="#e0ffe0" stroke="transparent" points="303,-358 303,-379 341,-379 341,-358 303,-358"/>
<polygon fill="none" stroke="#000000" points="303,-358 303,-379 341,-379 341,-358 303,-358"/>
<text text-anchor="start" x="306" y="-364.8" font-family="Times,serif" font-size="14.00" fill="#000000">type</text>
<polygon fill="#e0ffe0" stroke="transparent" points="341,-358 341,-379 444,-379 444,-358 341,-358"/>
<polygon fill="none" stroke="#000000" points="341,-358 341,-379 444,-379 444,-358 341,-358"/>
<text text-anchor="start" x="385.5" y="-364.8" font-family="Times,serif" font-size="14.00" fill="#000000">id</text>
<polygon fill="none" stroke="#000000" points="238,-337 238,-358 269,-358 269,-337 238,-337"/>
<text text-anchor="start" x="248.5" y="-343.8" font-family="Times,serif" font-size="14.00" fill="#000000">0</text>
<polygon fill="none" stroke="#000000" points="269,-337 269,-358 303,-358 303,-337 269,-337"/>
<text text-anchor="start" x="276.5" y="-343.8" font-family="Times,serif" font-size="14.00" fill="#000000">5b</text>
<polygon fill="none" stroke="#000000" points="303,-337 303,-358 341,-358 341,-337 303,-337"/>
<text text-anchor="start" x="312.5" y="-343.8" font-family="Times,serif" font-size="14.00" fill="#000000">b5</text>
<polygon fill="none" stroke="#000000" points="341,-337 341,-358 444,-358 444,-337 341,-337"/>
<text text-anchor="start" x="344" y="-343.8" font-family="Times,serif" font-size="14.00" fill="#000000">second_div_2</text>
<polygon fill="none" stroke="#000000" points="238,-316 238,-337 269,-337 269,-316 238,-316"/>
<text text-anchor="start" x="242" y="-322.8" font-family="Times,serif" font-size="14.00" fill="#000000">0:5</text>
<polygon fill="none" stroke="#000000" points="269,-316 269,-337 303,-337 303,-316 269,-316"/>
<text text-anchor="start" x="276.5" y="-322.8" font-family="Times,serif" font-size="14.00" fill="#000000">6b</text>
<polygon fill="none" stroke="#000000" points="303,-316 303,-337 341,-337 341,-316 303,-316"/>
<text text-anchor="start" x="312.5" y="-322.8" font-family="Times,serif" font-size="14.00" fill="#000000">b6</text>
<polygon fill="none" stroke="#000000" points="341,-316 341,-337 444,-337 444,-316 341,-316"/>
<text text-anchor="start" x="367" y="-322.8" font-family="Times,serif" font-size="14.00" fill="#000000">minute</text>
<polygon fill="none" stroke="#000000" points="238,-295 238,-316 269,-316 269,-295 238,-295"/>
<text text-anchor="start" x="242" y="-301.8" font-family="Times,serif" font-size="14.00" fill="#000000">1:3</text>
<polygon fill="none" stroke="#000000" points="269,-295 269,-316 303,-316 303,-295 269,-295"/>
<text text-anchor="start" x="276.5" y="-301.8" font-family="Times,serif" font-size="14.00" fill="#000000">5b</text>
<polygon fill="none" stroke="#000000" points="303,-295 303,-316 341,-316 341,-295 303,-295"/>
<text text-anchor="start" x="312.5" y="-301.8" font-family="Times,serif" font-size="14.00" fill="#000000">b5</text>
<polygon fill="none" stroke="#000000" points="341,-295 341,-316 444,-316 444,-295 341,-295"/>
<text text-anchor="start" x="375.5" y="-301.8" font-family="Times,serif" font-size="14.00" fill="#000000">hour</text>
</g>
<!-- dos_datetime__seq&#45;&gt;time__seq -->
<g id="edge1" class="edge">
<title>dos_datetime__seq:time_type&#45;&gt;time__seq</title>
<path fill="none" stroke="#000000" stroke-width="2" d="M171.5,-249C208.9204,-249 246.2899,-266.1032 276.3805,-285.2295"/>
<polygon fill="#000000" stroke="#000000" stroke-width="2" points="274.7919,-288.3736 285.0717,-290.9382 278.6349,-282.5228 274.7919,-288.3736"/>
</g>
<!-- date__seq -->
<g id="node7" class="node">
<title>date__seq</title>
<polygon fill="#e0ffe0" stroke="transparent" points="223,-167 223,-188 254,-188 254,-167 223,-167"/>
<polygon fill="none" stroke="#000000" points="223,-167 223,-188 254,-188 254,-167 223,-167"/>
<text text-anchor="start" x="226" y="-173.8" font-family="Times,serif" font-size="14.00" fill="#000000">pos</text>
<polygon fill="#e0ffe0" stroke="transparent" points="254,-167 254,-188 288,-188 288,-167 254,-167"/>
<polygon fill="none" stroke="#000000" points="254,-167 254,-188 288,-188 288,-167 254,-167"/>
<text text-anchor="start" x="257" y="-173.8" font-family="Times,serif" font-size="14.00" fill="#000000">size</text>
<polygon fill="#e0ffe0" stroke="transparent" points="288,-167 288,-188 326,-188 326,-167 288,-167"/>
<polygon fill="none" stroke="#000000" points="288,-167 288,-188 326,-188 326,-167 288,-167"/>
<text text-anchor="start" x="291" y="-173.8" font-family="Times,serif" font-size="14.00" fill="#000000">type</text>
<polygon fill="#e0ffe0" stroke="transparent" points="326,-167 326,-188 459,-188 459,-167 326,-167"/>
<polygon fill="none" stroke="#000000" points="326,-167 326,-188 459,-188 459,-167 326,-167"/>
<text text-anchor="start" x="385.5" y="-173.8" font-family="Times,serif" font-size="14.00" fill="#000000">id</text>
<polygon fill="none" stroke="#000000" points="223,-146 223,-167 254,-167 254,-146 223,-146"/>
<text text-anchor="start" x="233.5" y="-152.8" font-family="Times,serif" font-size="14.00" fill="#000000">0</text>
<polygon fill="none" stroke="#000000" points="254,-146 254,-167 288,-167 288,-146 254,-146"/>
<text text-anchor="start" x="261.5" y="-152.8" font-family="Times,serif" font-size="14.00" fill="#000000">5b</text>
<polygon fill="none" stroke="#000000" points="288,-146 288,-167 326,-167 326,-146 288,-146"/>
<text text-anchor="start" x="297.5" y="-152.8" font-family="Times,serif" font-size="14.00" fill="#000000">b5</text>
<polygon fill="none" stroke="#000000" points="326,-146 326,-167 459,-167 459,-146 326,-146"/>
<text text-anchor="start" x="379.5" y="-152.8" font-family="Times,serif" font-size="14.00" fill="#000000">day</text>
<polygon fill="none" stroke="#000000" points="223,-125 223,-146 254,-146 254,-125 223,-125"/>
<text text-anchor="start" x="227" y="-131.8" font-family="Times,serif" font-size="14.00" fill="#000000">0:5</text>
<polygon fill="none" stroke="#000000" points="254,-125 254,-146 288,-146 288,-125 254,-125"/>
<text text-anchor="start" x="261.5" y="-131.8" font-family="Times,serif" font-size="14.00" fill="#000000">4b</text>
<polygon fill="none" stroke="#000000" points="288,-125 288,-146 326,-146 326,-125 288,-125"/>
<text text-anchor="start" x="297.5" y="-131.8" font-family="Times,serif" font-size="14.00" fill="#000000">b4</text>
<polygon fill="none" stroke="#000000" points="326,-125 326,-146 459,-146 459,-125 326,-125"/>
<text text-anchor="start" x="369.5" y="-131.8" font-family="Times,serif" font-size="14.00" fill="#000000">month</text>
<polygon fill="none" stroke="#000000" points="223,-104 223,-125 254,-125 254,-104 223,-104"/>
<text text-anchor="start" x="227" y="-110.8" font-family="Times,serif" font-size="14.00" fill="#000000">1:1</text>
<polygon fill="none" stroke="#000000" points="254,-104 254,-125 288,-125 288,-104 254,-104"/>
<text text-anchor="start" x="261.5" y="-110.8" font-family="Times,serif" font-size="14.00" fill="#000000">7b</text>
<polygon fill="none" stroke="#000000" points="288,-104 288,-125 326,-125 326,-104 288,-104"/>
<text text-anchor="start" x="297.5" y="-110.8" font-family="Times,serif" font-size="14.00" fill="#000000">b7</text>
<polygon fill="none" stroke="#000000" points="326,-104 326,-125 459,-125 459,-104 326,-104"/>
<text text-anchor="start" x="329" y="-110.8" font-family="Times,serif" font-size="14.00" fill="#000000">year_minus_1980</text>
</g>
<!-- dos_datetime__seq&#45;&gt;date__seq -->
<g id="edge2" class="edge">
<title>dos_datetime__seq:date_type&#45;&gt;date__seq</title>
<path fill="none" stroke="#000000" stroke-width="2" d="M171.5,-228C206.3095,-228 241.4872,-213.8125 270.7042,-197.2402"/>
<polygon fill="#000000" stroke="#000000" stroke-width="2" points="272.7213,-200.1147 279.5732,-192.0336 269.1774,-194.078 272.7213,-200.1147"/>
</g>
<!-- time__inst__second -->
<g id="node3" class="node">
<title>time__inst__second</title>
<polygon fill="#e0ffe0" stroke="transparent" points="626,-418 626,-439 683,-439 683,-418 626,-418"/>
<polygon fill="none" stroke="#000000" points="626,-418 626,-439 683,-439 683,-418 626,-418"/>
<text text-anchor="start" x="647.5" y="-424.8" font-family="Times,serif" font-size="14.00" fill="#000000">id</text>
<polygon fill="#e0ffe0" stroke="transparent" points="683,-418 683,-439 822,-439 822,-418 683,-418"/>
<polygon fill="none" stroke="#000000" points="683,-418 683,-439 822,-439 822,-418 683,-418"/>
<text text-anchor="start" x="733" y="-424.8" font-family="Times,serif" font-size="14.00" fill="#000000">value</text>
<polygon fill="none" stroke="#000000" points="626,-397 626,-418 683,-418 683,-397 626,-397"/>
<text text-anchor="start" x="629" y="-403.8" font-family="Times,serif" font-size="14.00" fill="#000000">second</text>
<polygon fill="none" stroke="#000000" points="683,-397 683,-418 822,-418 822,-397 683,-397"/>
<text text-anchor="start" x="686" y="-403.8" font-family="Times,serif" font-size="14.00" fill="#000000">(2 * second_div_2)</text>
</g>
<!-- time__seq&#45;&gt;time__inst__second -->
<g id="edge3" class="edge">
<title>time__seq:second_div_2_type&#45;&gt;time__inst__second</title>
<path fill="none" stroke="#404040" d="M444,-348C474.7182,-348 474.1469,-373.4594 503,-384 536.0207,-396.0631 573.3351,-403.8463 607.7733,-408.868"/>
<polygon fill="#404040" stroke="#404040" points="607.4935,-412.3627 617.8807,-410.2759 608.4592,-405.4297 607.4935,-412.3627"/>
</g>
<!-- time__inst__padded_minute -->
<g id="node5" class="node">
<title>time__inst__padded_minute</title>
<polygon fill="#e0ffe0" stroke="transparent" points="511,-350 511,-371 628,-371 628,-350 511,-350"/>
<polygon fill="none" stroke="#000000" points="511,-350 511,-371 628,-371 628,-350 511,-350"/>
<text text-anchor="start" x="562.5" y="-356.8" font-family="Times,serif" font-size="14.00" fill="#000000">id</text>
<polygon fill="#e0ffe0" stroke="transparent" points="628,-350 628,-371 937,-371 937,-350 628,-350"/>
<polygon fill="none" stroke="#000000" points="628,-350 628,-371 937,-371 937,-350 628,-350"/>
<text text-anchor="start" x="763" y="-356.8" font-family="Times,serif" font-size="14.00" fill="#000000">value</text>
<polygon fill="none" stroke="#000000" points="511,-329 511,-350 628,-350 628,-329 511,-329"/>
<text text-anchor="start" x="514" y="-335.8" font-family="Times,serif" font-size="14.00" fill="#000000">padded_minute</text>
<polygon fill="none" stroke="#000000" points="628,-329 628,-350 937,-350 937,-329 628,-329"/>
<text text-anchor="start" x="631" y="-335.8" font-family="Times,serif" font-size="14.00" fill="#000000">(minute &lt;= 9 ? &quot;0&quot; : &quot;&quot;) + minute.to_s(10)</text>
</g>
<!-- time__seq&#45;&gt;time__inst__padded_minute -->
<g id="edge6" class="edge">
<title>time__seq:minute_type&#45;&gt;time__inst__padded_minute</title>
<path fill="none" stroke="#404040" d="M444,-326C474.4872,-323.8032 506.7735,-323.5725 538.1644,-324.6099"/>
<polygon fill="#404040" stroke="#404040" points="538.1973,-328.1135 548.3213,-324.9904 538.4594,-321.1184 538.1973,-328.1135"/>
</g>
<!-- time__seq&#45;&gt;time__inst__padded_minute -->
<g id="edge7" class="edge">
<title>time__seq:minute_type&#45;&gt;time__inst__padded_minute</title>
<path fill="none" stroke="#404040" d="M444.366,-326.0264C460.1155,-327.1644 476.3418,-328.54 492.6739,-330.057"/>
<polygon fill="#404040" stroke="#404040" points="492.5684,-333.5625 502.8533,-331.0189 493.227,-326.5935 492.5684,-333.5625"/>
</g>
<!-- time__inst__padded_hour -->
<g id="node6" class="node">
<title>time__inst__padded_hour</title>
<polygon fill="#e0ffe0" stroke="transparent" points="538,-282 538,-303 638,-303 638,-282 538,-282"/>
<polygon fill="none" stroke="#000000" points="538,-282 538,-303 638,-303 638,-282 538,-282"/>
<text text-anchor="start" x="581" y="-288.8" font-family="Times,serif" font-size="14.00" fill="#000000">id</text>
<polygon fill="#e0ffe0" stroke="transparent" points="638,-282 638,-303 911,-303 911,-282 638,-282"/>
<polygon fill="none" stroke="#000000" points="638,-282 638,-303 911,-303 911,-282 638,-282"/>
<text text-anchor="start" x="755" y="-288.8" font-family="Times,serif" font-size="14.00" fill="#000000">value</text>
<polygon fill="none" stroke="#000000" points="538,-261 538,-282 638,-282 638,-261 538,-261"/>
<text text-anchor="start" x="541" y="-267.8" font-family="Times,serif" font-size="14.00" fill="#000000">padded_hour</text>
<polygon fill="none" stroke="#000000" points="638,-261 638,-282 911,-282 911,-261 638,-261"/>
<text text-anchor="start" x="641" y="-267.8" font-family="Times,serif" font-size="14.00" fill="#000000">(hour &lt;= 9 ? &quot;0&quot; : &quot;&quot;) + hour.to_s(10)</text>
</g>
<!-- time__seq&#45;&gt;time__inst__padded_hour -->
<g id="edge8" class="edge">
<title>time__seq:hour_type&#45;&gt;time__inst__padded_hour</title>
<path fill="none" stroke="#404040" d="M444,-305C468.436,-303.2387 494.0314,-300.9412 519.3966,-298.4523"/>
<polygon fill="#404040" stroke="#404040" points="519.8767,-301.9219 529.4823,-297.4518 519.1857,-294.9561 519.8767,-301.9219"/>
</g>
<!-- time__seq&#45;&gt;time__inst__padded_hour -->
<g id="edge9" class="edge">
<title>time__seq:hour_type&#45;&gt;time__inst__padded_hour</title>
<path fill="none" stroke="#404040" d="M444.3659,-305.0263C468.682,-306.766 494.1382,-307.2949 519.3671,-306.9524"/>
<polygon fill="#404040" stroke="#404040" points="519.4639,-310.4513 529.3988,-306.7707 519.3371,-303.4525 519.4639,-310.4513"/>
</g>
<!-- time__inst__padded_second -->
<g id="node4" class="node">
<title>time__inst__padded_second</title>
<polygon fill="#e0ffe0" stroke="transparent" points="1144.5,-393 1144.5,-414 1261.5,-414 1261.5,-393 1144.5,-393"/>
<polygon fill="none" stroke="#000000" points="1144.5,-393 1144.5,-414 1261.5,-414 1261.5,-393 1144.5,-393"/>
<text text-anchor="start" x="1196" y="-399.8" font-family="Times,serif" font-size="14.00" fill="#000000">id</text>
<polygon fill="#e0ffe0" stroke="transparent" points="1261.5,-393 1261.5,-414 1570.5,-414 1570.5,-393 1261.5,-393"/>
<polygon fill="none" stroke="#000000" points="1261.5,-393 1261.5,-414 1570.5,-414 1570.5,-393 1261.5,-393"/>
<text text-anchor="start" x="1396.5" y="-399.8" font-family="Times,serif" font-size="14.00" fill="#000000">value</text>
<polygon fill="none" stroke="#000000" points="1144.5,-372 1144.5,-393 1261.5,-393 1261.5,-372 1144.5,-372"/>
<text text-anchor="start" x="1147.5" y="-378.8" font-family="Times,serif" font-size="14.00" fill="#000000">padded_second</text>
<polygon fill="none" stroke="#000000" points="1261.5,-372 1261.5,-393 1570.5,-393 1570.5,-372 1261.5,-372"/>
<text text-anchor="start" x="1264.5" y="-378.8" font-family="Times,serif" font-size="14.00" fill="#000000">(second &lt;= 9 ? &quot;0&quot; : &quot;&quot;) + second.to_s(10)</text>
</g>
<!-- time__inst__second&#45;&gt;time__inst__padded_second -->
<g id="edge4" class="edge">
<title>time__inst__second:second_type&#45;&gt;time__inst__padded_second</title>
<path fill="none" stroke="#404040" d="M749,-393C755.8893,-380.9231 957.0085,-379.7784 1126.1573,-382.6992"/>
<polygon fill="#404040" stroke="#404040" points="1126.1652,-386.1998 1136.2259,-382.8785 1126.2899,-379.2009 1126.1652,-386.1998"/>
</g>
<!-- time__inst__second&#45;&gt;time__inst__padded_second -->
<g id="edge5" class="edge">
<title>time__inst__second:second_type&#45;&gt;time__inst__padded_second</title>
<path fill="none" stroke="#404040" d="M749,-393C755.8893,-391.2984 957.0085,-394.5487 1126.1573,-395.8839"/>
<polygon fill="#404040" stroke="#404040" points="1126.1993,-399.3843 1136.2259,-395.9614 1126.2532,-392.3845 1126.1993,-399.3843"/>
</g>
<!-- date__inst__year -->
<g id="node8" class="node">
<title>date__inst__year</title>
<polygon fill="#e0ffe0" stroke="transparent" points="605,-49 605,-70 643,-70 643,-49 605,-49"/>
<polygon fill="none" stroke="#000000" points="605,-49 605,-70 643,-70 643,-49 605,-49"/>
<text text-anchor="start" x="617" y="-55.8" font-family="Times,serif" font-size="14.00" fill="#000000">id</text>
<polygon fill="#e0ffe0" stroke="transparent" points="643,-49 643,-70 843,-70 843,-49 643,-49"/>
<polygon fill="none" stroke="#000000" points="643,-49 643,-70 843,-70 843,-49 643,-49"/>
<text text-anchor="start" x="723.5" y="-55.8" font-family="Times,serif" font-size="14.00" fill="#000000">value</text>
<polygon fill="none" stroke="#000000" points="605,-28 605,-49 643,-49 643,-28 605,-28"/>
<text text-anchor="start" x="608" y="-34.8" font-family="Times,serif" font-size="14.00" fill="#000000">year</text>
<polygon fill="none" stroke="#000000" points="643,-28 643,-49 843,-49 843,-28 643,-28"/>
<text text-anchor="start" x="646" y="-34.8" font-family="Times,serif" font-size="14.00" fill="#000000">(1980 + year_minus_1980)</text>
</g>
<!-- date__seq&#45;&gt;date__inst__year -->
<g id="edge10" class="edge">
<title>date__seq:year_minus_1980_type&#45;&gt;date__inst__year</title>
<path fill="none" stroke="#404040" d="M459,-114C482.9217,-114 480.8134,-91.9443 503,-83 529.2484,-72.4183 558.4699,-65.1061 586.8424,-60.0594"/>
<polygon fill="#404040" stroke="#404040" points="587.5612,-63.4876 596.8365,-58.3672 586.3925,-56.5858 587.5612,-63.4876"/>
</g>
<!-- date__inst__padded_day -->
<g id="node9" class="node">
<title>date__inst__padded_day</title>
<polygon fill="#e0ffe0" stroke="transparent" points="549,-185 549,-206 641,-206 641,-185 549,-185"/>
<polygon fill="none" stroke="#000000" points="549,-185 549,-206 641,-206 641,-185 549,-185"/>
<text text-anchor="start" x="588" y="-191.8" font-family="Times,serif" font-size="14.00" fill="#000000">id</text>
<polygon fill="#e0ffe0" stroke="transparent" points="641,-185 641,-206 899,-206 899,-185 641,-185"/>
<polygon fill="none" stroke="#000000" points="641,-185 641,-206 899,-206 899,-185 641,-185"/>
<text text-anchor="start" x="750.5" y="-191.8" font-family="Times,serif" font-size="14.00" fill="#000000">value</text>
<polygon fill="none" stroke="#000000" points="549,-164 549,-185 641,-185 641,-164 549,-164"/>
<text text-anchor="start" x="552" y="-170.8" font-family="Times,serif" font-size="14.00" fill="#000000">padded_day</text>
<polygon fill="none" stroke="#000000" points="641,-164 641,-185 899,-185 899,-164 641,-164"/>
<text text-anchor="start" x="644" y="-170.8" font-family="Times,serif" font-size="14.00" fill="#000000">(day &lt;= 9 ? &quot;0&quot; : &quot;&quot;) + day.to_s(10)</text>
</g>
<!-- date__seq&#45;&gt;date__inst__padded_day -->
<g id="edge11" class="edge">
<title>date__seq:day_type&#45;&gt;date__inst__padded_day</title>
<path fill="none" stroke="#404040" d="M459,-157C501.5254,-153.7684 547.678,-155.3072 589.3702,-159.0238"/>
<polygon fill="#404040" stroke="#404040" points="589.3034,-162.5329 599.5876,-159.9861 589.9599,-155.5638 589.3034,-162.5329"/>
</g>
<!-- date__seq&#45;&gt;date__inst__padded_day -->
<g id="edge12" class="edge">
<title>date__seq:day_type&#45;&gt;date__inst__padded_day</title>
<path fill="none" stroke="#404040" d="M459.3471,-157.0264C482.4089,-158.7853 506.53,-161.262 530.4223,-164.0434"/>
<polygon fill="#404040" stroke="#404040" points="530.3021,-167.5535 540.6441,-165.2528 531.1247,-160.602 530.3021,-167.5535"/>
</g>
<!-- date__inst__padded_month -->
<g id="node10" class="node">
<title>date__inst__padded_month</title>
<polygon fill="#e0ffe0" stroke="transparent" points="518,-117 518,-138 630,-138 630,-117 518,-117"/>
<polygon fill="none" stroke="#000000" points="518,-117 518,-138 630,-138 630,-117 518,-117"/>
<text text-anchor="start" x="567" y="-123.8" font-family="Times,serif" font-size="14.00" fill="#000000">id</text>
<polygon fill="#e0ffe0" stroke="transparent" points="630,-117 630,-138 930,-138 930,-117 630,-117"/>
<polygon fill="none" stroke="#000000" points="630,-117 630,-138 930,-138 930,-117 630,-117"/>
<text text-anchor="start" x="760.5" y="-123.8" font-family="Times,serif" font-size="14.00" fill="#000000">value</text>
<polygon fill="none" stroke="#000000" points="518,-96 518,-117 630,-117 630,-96 518,-96"/>
<text text-anchor="start" x="521" y="-102.8" font-family="Times,serif" font-size="14.00" fill="#000000">padded_month</text>
<polygon fill="none" stroke="#000000" points="630,-96 630,-117 930,-117 930,-96 630,-96"/>
<text text-anchor="start" x="633" y="-102.8" font-family="Times,serif" font-size="14.00" fill="#000000">(month &lt;= 9 ? &quot;0&quot; : &quot;&quot;) + month.to_s(10)</text>
</g>
<!-- date__seq&#45;&gt;date__inst__padded_month -->
<g id="edge13" class="edge">
<title>date__seq:month_type&#45;&gt;date__inst__padded_month</title>
<path fill="none" stroke="#404040" d="M459,-135C472.2656,-133.9886 485.8961,-132.8636 499.6421,-131.6761"/>
<polygon fill="#404040" stroke="#404040" points="500.0103,-135.1573 509.6681,-130.801 499.4016,-128.1838 500.0103,-135.1573"/>
</g>
<!-- date__seq&#45;&gt;date__inst__padded_month -->
<g id="edge14" class="edge">
<title>date__seq:month_type&#45;&gt;date__inst__padded_month</title>
<path fill="none" stroke="#404040" d="M459.3459,-135.0263C472.6049,-136.0307 486.2259,-136.6954 499.9602,-137.0711"/>
<polygon fill="#404040" stroke="#404040" points="499.9019,-140.5705 509.9774,-137.2943 500.0579,-133.5723 499.9019,-140.5705"/>
</g>
<!-- date__inst__padded_year -->
<g id="node11" class="node">
<title>date__inst__padded_year</title>
<polygon fill="#e0ffe0" stroke="transparent" points="989.5,-49 989.5,-70 1087.5,-70 1087.5,-49 989.5,-49"/>
<polygon fill="none" stroke="#000000" points="989.5,-49 989.5,-70 1087.5,-70 1087.5,-49 989.5,-49"/>
<text text-anchor="start" x="1031.5" y="-55.8" font-family="Times,serif" font-size="14.00" fill="#000000">id</text>
<polygon fill="#e0ffe0" stroke="transparent" points="1087.5,-49 1087.5,-70 1726.5,-70 1726.5,-49 1087.5,-49"/>
<polygon fill="none" stroke="#000000" points="1087.5,-49 1087.5,-70 1726.5,-70 1726.5,-49 1087.5,-49"/>
<text text-anchor="start" x="1387.5" y="-55.8" font-family="Times,serif" font-size="14.00" fill="#000000">value</text>
<polygon fill="none" stroke="#000000" points="989.5,-28 989.5,-49 1087.5,-49 1087.5,-28 989.5,-28"/>
<text text-anchor="start" x="992.5" y="-34.8" font-family="Times,serif" font-size="14.00" fill="#000000">padded_year</text>
<polygon fill="none" stroke="#000000" points="1087.5,-28 1087.5,-49 1726.5,-49 1726.5,-28 1087.5,-28"/>
<text text-anchor="start" x="1090.5" y="-34.8" font-family="Times,serif" font-size="14.00" fill="#000000">(year &lt;= 999 ? &quot;0&quot; + (year &lt;= 99 ? &quot;0&quot; + (year &lt;= 9 ? &quot;0&quot; : &quot;&quot;) : &quot;&quot;) : &quot;&quot;) + year.to_s(10)</text>
</g>
<!-- date__inst__year&#45;&gt;date__inst__padded_year -->
<g id="edge15" class="edge">
<title>date__inst__year:year_type&#45;&gt;date__inst__padded_year</title>
<path fill="none" stroke="#404040" d="M851.0557,-32.4043C886.9107,-30.8201 927.8998,-29.7509 970.6844,-29.1969"/>
<polygon fill="#404040" stroke="#404040" points="970.7562,-32.6964 980.7135,-29.0768 970.6723,-25.6969 970.7562,-32.6964"/>
</g>
<!-- date__inst__year&#45;&gt;date__inst__padded_year -->
<g id="edge16" class="edge">
<title>date__inst__year:year_type&#45;&gt;date__inst__padded_year</title>
<path fill="none" stroke="#404040" d="M851.0557,-43.4681C886.9107,-42.94 927.8998,-42.5836 970.6844,-42.399"/>
<polygon fill="#404040" stroke="#404040" points="970.7276,-45.8989 980.7135,-42.3589 970.6996,-38.899 970.7276,-45.8989"/>
</g>
<!-- date__inst__year&#45;&gt;date__inst__padded_year -->
<g id="edge17" class="edge">
<title>date__inst__year:year_type&#45;&gt;date__inst__padded_year</title>
<path fill="none" stroke="#404040" d="M851.0557,-54.5319C886.9107,-55.06 927.8998,-55.4164 970.6844,-55.601"/>
<polygon fill="#404040" stroke="#404040" points="970.6996,-59.101 980.7135,-55.6411 970.7276,-52.1011 970.6996,-59.101"/>
</g>
<!-- date__inst__year&#45;&gt;date__inst__padded_year -->
<g id="edge18" class="edge">
<title>date__inst__year:year_type&#45;&gt;date__inst__padded_year</title>
<path fill="none" stroke="#404040" d="M851.0557,-65.5957C886.9107,-67.1799 927.8998,-68.2491 970.6844,-68.8031"/>
<polygon fill="#404040" stroke="#404040" points="970.6723,-72.3031 980.7135,-68.9232 970.7562,-65.3036 970.6723,-72.3031"/>
</g>
</g>
</svg>
