<?xml version="1.0" encoding="UTF-8" standalone="no"?>
<!DOCTYPE svg PUBLIC "-//W3C//DTD SVG 1.1//EN"
 "http://www.w3.org/Graphics/SVG/1.1/DTD/svg11.dtd">
<!-- Generated by graphviz version 2.40.1 (20161225.0304)
 -->
<!-- Title: %3 Pages: 1 -->
<svg width="854pt" height="199pt"
 viewBox="0.00 0.00 854.00 199.00" xmlns="http://www.w3.org/2000/svg" xmlns:xlink="http://www.w3.org/1999/xlink">
<g id="graph0" class="graph" transform="scale(1 1) rotate(0) translate(4 195)">
<title>%3</title>
<polygon fill="#ffffff" stroke="transparent" points="-4,4 -4,-195 850,-195 850,4 -4,4"/>
<g id="clust1" class="cluster">
<title>cluster__ethernet_frame</title>
<polygon fill="none" stroke="#000000" stroke-dasharray="1,5" points="8,-12 8,-183 675,-183 675,-12 8,-12"/>
<text text-anchor="middle" x="341.5" y="-167.8" font-family="Times,serif" font-size="14.00" fill="#000000">EthernetFrame</text>
</g>
<!-- ethernet_frame__seq -->
<g id="node1" class="node">
<title>ethernet_frame__seq</title>
<polygon fill="#e0ffe0" stroke="transparent" points="24.5,-108 24.5,-129 55.5,-129 55.5,-108 24.5,-108"/>
<polygon fill="none" stroke="#000000" points="24.5,-108 24.5,-129 55.5,-129 55.5,-108 24.5,-108"/>
<text text-anchor="start" x="27.5" y="-114.8" font-family="Times,serif" font-size="14.00" fill="#000000">pos</text>
<polygon fill="#e0ffe0" stroke="transparent" points="55.5,-108 55.5,-129 89.5,-129 89.5,-108 55.5,-108"/>
<polygon fill="none" stroke="#000000" points="55.5,-108 55.5,-129 89.5,-129 89.5,-108 55.5,-108"/>
<text text-anchor="start" x="58.5" y="-114.8" font-family="Times,serif" font-size="14.00" fill="#000000">size</text>
<polygon fill="#e0ffe0" stroke="transparent" points="89.5,-108 89.5,-129 261.5,-129 261.5,-108 89.5,-108"/>
<polygon fill="none" stroke="#000000" points="89.5,-108 89.5,-129 261.5,-129 261.5,-108 89.5,-108"/>
<text text-anchor="start" x="159.5" y="-114.8" font-family="Times,serif" font-size="14.00" fill="#000000">type</text>
<polygon fill="#e0ffe0" stroke="transparent" points="261.5,-108 261.5,-129 345.5,-129 345.5,-108 261.5,-108"/>
<polygon fill="none" stroke="#000000" points="261.5,-108 261.5,-129 345.5,-129 345.5,-108 261.5,-108"/>
<text text-anchor="start" x="296.5" y="-114.8" font-family="Times,serif" font-size="14.00" fill="#000000">id</text>
<polygon fill="none" stroke="#000000" points="24.5,-87 24.5,-108 55.5,-108 55.5,-87 24.5,-87"/>
<text text-anchor="start" x="35" y="-93.8" font-family="Times,serif" font-size="14.00" fill="#000000">0</text>
<polygon fill="none" stroke="#000000" points="55.5,-87 55.5,-108 89.5,-108 89.5,-87 55.5,-87"/>
<text text-anchor="start" x="67.5" y="-93.8" font-family="Times,serif" font-size="14.00" fill="#000000">6</text>
<polygon fill="none" stroke="#000000" points="89.5,-87 89.5,-108 261.5,-108 261.5,-87 89.5,-87"/>
<polygon fill="none" stroke="#000000" points="261.5,-87 261.5,-108 345.5,-108 345.5,-87 261.5,-87"/>
<text text-anchor="start" x="273" y="-93.8" font-family="Times,serif" font-size="14.00" fill="#000000">dst_mac</text>
<polygon fill="none" stroke="#000000" points="24.5,-66 24.5,-87 55.5,-87 55.5,-66 24.5,-66"/>
<text text-anchor="start" x="35" y="-72.8" font-family="Times,serif" font-size="14.00" fill="#000000">6</text>
<polygon fill="none" stroke="#000000" points="55.5,-66 55.5,-87 89.5,-87 89.5,-66 55.5,-66"/>
<text text-anchor="start" x="67.5" y="-72.8" font-family="Times,serif" font-size="14.00" fill="#000000">6</text>
<polygon fill="none" stroke="#000000" points="89.5,-66 89.5,-87 261.5,-87 261.5,-66 89.5,-66"/>
<polygon fill="none" stroke="#000000" points="261.5,-66 261.5,-87 345.5,-87 345.5,-66 261.5,-66"/>
<text text-anchor="start" x="273" y="-72.8" font-family="Times,serif" font-size="14.00" fill="#000000">src_mac</text>
<polygon fill="none" stroke="#000000" points="24.5,-45 24.5,-66 55.5,-66 55.5,-45 24.5,-45"/>
<text text-anchor="start" x="30.5" y="-51.8" font-family="Times,serif" font-size="14.00" fill="#000000">12</text>
<polygon fill="none" stroke="#000000" points="55.5,-45 55.5,-66 89.5,-66 89.5,-45 55.5,-45"/>
<text text-anchor="start" x="67.5" y="-51.8" font-family="Times,serif" font-size="14.00" fill="#000000">2</text>
<polygon fill="none" stroke="#000000" points="89.5,-45 89.5,-66 261.5,-66 261.5,-45 89.5,-45"/>
<text text-anchor="start" x="92.5" y="-51.8" font-family="Times,serif" font-size="14.00" fill="#000000">u2be→EtherTypeEnum</text>
<polygon fill="none" stroke="#000000" points="261.5,-45 261.5,-66 345.5,-66 345.5,-45 261.5,-45"/>
<text text-anchor="start" x="264.5" y="-51.8" font-family="Times,serif" font-size="14.00" fill="#000000">ether_type</text>
<polygon fill="none" stroke="#000000" points="24.5,-24 24.5,-45 55.5,-45 55.5,-24 24.5,-24"/>
<text text-anchor="start" x="30.5" y="-30.8" font-family="Times,serif" font-size="14.00" fill="#000000">14</text>
<polygon fill="none" stroke="#000000" points="55.5,-24 55.5,-45 89.5,-45 89.5,-24 55.5,-24"/>
<text text-anchor="start" x="65.5" y="-30.8" font-family="Times,serif" font-size="14.00" fill="#000000">...</text>
<polygon fill="none" stroke="#000000" points="89.5,-24 89.5,-45 261.5,-45 261.5,-24 89.5,-24"/>
<text text-anchor="start" x="105.5" y="-30.8" font-family="Times,serif" font-size="14.00" fill="#000000">switch (ether_type)</text>
<polygon fill="none" stroke="#000000" points="261.5,-24 261.5,-45 345.5,-45 345.5,-24 261.5,-24"/>
<text text-anchor="start" x="286" y="-30.8" font-family="Times,serif" font-size="14.00" fill="#000000">body</text>
</g>
<!-- ethernet_frame__seq&#45;&gt;ethernet_frame__seq -->
<g id="edge4" class="edge">
<title>ethernet_frame__seq:ether_type_type&#45;&gt;ethernet_frame__seq:body_type</title>
<path fill="none" stroke="#404040" d="M275.822,-66.0735C219.2945,-96.385 228.5205,-151.5 303.5,-151.5 375.1582,-151.5 386.7591,-86.4086 338.3027,-50.7135"/>
<polygon fill="#404040" stroke="#404040" points="339.9335,-47.5975 329.6516,-45.0416 336.0955,-53.4516 339.9335,-47.5975"/>
</g>
<!-- ethernet_frame__seq_body_switch -->
<g id="node2" class="node">
<title>ethernet_frame__seq_body_switch</title>
<polygon fill="#f0f2e4" stroke="transparent" points="397,-66 397,-87 571,-87 571,-66 397,-66"/>
<polygon fill="none" stroke="#000000" points="397,-66 397,-87 571,-87 571,-66 397,-66"/>
<text text-anchor="start" x="467.5" y="-72.8" font-family="Times,serif" font-size="14.00" fill="#000000">case</text>
<polygon fill="#f0f2e4" stroke="transparent" points="571,-66 571,-87 659,-87 659,-66 571,-66"/>
<polygon fill="none" stroke="#000000" points="571,-66 571,-87 659,-87 659,-66 571,-66"/>
<text text-anchor="start" x="599" y="-72.8" font-family="Times,serif" font-size="14.00" fill="#000000">type</text>
<polygon fill="none" stroke="#000000" points="397,-45 397,-66 571,-66 571,-45 397,-45"/>
<text text-anchor="start" x="400" y="-51.8" font-family="Times,serif" font-size="14.00" fill="#000000">:ether_type_enum_ipv4</text>
<polygon fill="none" stroke="#000000" points="571,-45 571,-66 659,-66 659,-45 571,-45"/>
<text text-anchor="start" x="574" y="-51.8" font-family="Times,serif" font-size="14.00" fill="#000000">Ipv4Packet</text>
<polygon fill="none" stroke="#000000" points="397,-24 397,-45 571,-45 571,-24 397,-24"/>
<text text-anchor="start" x="400" y="-30.8" font-family="Times,serif" font-size="14.00" fill="#000000">:ether_type_enum_ipv6</text>
<polygon fill="none" stroke="#000000" points="571,-24 571,-45 659,-45 659,-24 571,-24"/>
<text text-anchor="start" x="574" y="-30.8" font-family="Times,serif" font-size="14.00" fill="#000000">Ipv6Packet</text>
</g>
<!-- ethernet_frame__seq&#45;&gt;ethernet_frame__seq_body_switch -->
<g id="edge1" class="edge">
<title>ethernet_frame__seq:body_type&#45;&gt;ethernet_frame__seq_body_switch</title>
<path fill="none" stroke="#000000" stroke-width="2" d="M345.5,-34C356.2508,-34 367.3325,-34.381 378.4717,-35.0426"/>
<polygon fill="#000000" stroke="#000000" stroke-width="2" points="378.4989,-38.5521 388.7099,-35.7263 378.9654,-31.5677 378.4989,-38.5521"/>
</g>
<!-- ipv4_packet__seq -->
<g id="node3" class="node">
<title>ipv4_packet__seq</title>
<text text-anchor="middle" x="774.5" y="-68.3" font-family="Times,serif" font-size="14.00" fill="#000000">ipv4_packet__seq</text>
</g>
<!-- ethernet_frame__seq_body_switch&#45;&gt;ipv4_packet__seq -->
<g id="edge2" class="edge">
<title>ethernet_frame__seq_body_switch:case0&#45;&gt;ipv4_packet__seq</title>
<path fill="none" stroke="#000000" stroke-width="2" d="M659,-55C670.0517,-55 681.6354,-55.7713 693.0231,-56.9852"/>
<polygon fill="#000000" stroke="#000000" stroke-width="2" points="692.6205,-60.4619 702.9617,-58.1577 693.4407,-53.5101 692.6205,-60.4619"/>
</g>
<!-- ipv6_packet__seq -->
<g id="node4" class="node">
<title>ipv6_packet__seq</title>
<text text-anchor="middle" x="774.5" y="-14.3" font-family="Times,serif" font-size="14.00" fill="#000000">ipv6_packet__seq</text>
</g>
<!-- ethernet_frame__seq_body_switch&#45;&gt;ipv6_packet__seq -->
<g id="edge3" class="edge">
<title>ethernet_frame__seq_body_switch:case1&#45;&gt;ipv6_packet__seq</title>
<path fill="none" stroke="#000000" stroke-width="2" d="M659,-34C669.9268,-34 681.3805,-33.2887 692.6532,-32.1661"/>
<polygon fill="#000000" stroke="#000000" stroke-width="2" points="693.3802,-35.607 702.9344,-31.028 692.6101,-28.6495 693.3802,-35.607"/>
</g>
</g>
</svg>
