<?xml version="1.0" encoding="UTF-8" standalone="no"?>
<!DOCTYPE svg PUBLIC "-//W3C//DTD SVG 1.1//EN"
 "http://www.w3.org/Graphics/SVG/1.1/DTD/svg11.dtd">
<!-- Generated by graphviz version 2.38.0 (20140413.2041)
 -->
<!-- Title: %3 Pages: 1 -->
<svg width="1821pt" height="236pt"
 viewBox="0.00 0.00 1821.00 236.00" xmlns="http://www.w3.org/2000/svg" xmlns:xlink="http://www.w3.org/1999/xlink">
<g id="graph0" class="graph" transform="scale(1 1) rotate(0) translate(4 232)">
<title>%3</title>
<polygon fill="white" stroke="none" points="-4,4 -4,-232 1817,-232 1817,4 -4,4"/>
<g id="clust1" class="cluster"><title>cluster__apple_single_double</title>
<polygon fill="none" stroke="black" stroke-dasharray="1,5" points="145,-8 145,-220 1813,-220 1813,-8 145,-8"/>
<text text-anchor="middle" x="979" y="-204.8" font-family="Times,serif" font-size="14.00">AppleSingleDouble</text>
</g>
<g id="clust2" class="cluster"><title>cluster__entry</title>
<polygon fill="none" stroke="black" stroke-dasharray="1,5" points="474,-27 474,-158 1304,-158 1304,-27 474,-27"/>
<text text-anchor="middle" x="889" y="-142.8" font-family="Times,serif" font-size="14.00">AppleSingleDouble::Entry</text>
</g>
<g id="clust3" class="cluster"><title>cluster__finder_info</title>
<polygon fill="none" stroke="black" stroke-dasharray="1,5" points="1332,-16 1332,-189 1570,-189 1570,-16 1332,-16"/>
<text text-anchor="middle" x="1451" y="-173.8" font-family="Times,serif" font-size="14.00">AppleSingleDouble::FinderInfo</text>
</g>
<g id="clust4" class="cluster"><title>cluster__point</title>
<polygon fill="none" stroke="black" stroke-dasharray="1,5" points="1606,-16 1606,-127 1805,-127 1805,-16 1606,-16"/>
<text text-anchor="middle" x="1705.5" y="-111.8" font-family="Times,serif" font-size="14.00">AppleSingleDouble::Point</text>
</g>
<!-- apple_single_double__seq -->
<g id="node1" class="node"><title>apple_single_double__seq</title>
<polygon fill="#e0ffe0" stroke="none" points="161.5,-163 161.5,-184 192.5,-184 192.5,-163 161.5,-163"/>
<polygon fill="none" stroke="black" points="161.5,-163 161.5,-184 192.5,-184 192.5,-163 161.5,-163"/>
<text text-anchor="start" x="164.5" y="-169.8" font-family="Times,serif" font-size="14.00">pos</text>
<polygon fill="#e0ffe0" stroke="none" points="192.5,-163 192.5,-184 226.5,-184 226.5,-163 192.5,-163"/>
<polygon fill="none" stroke="black" points="192.5,-163 192.5,-184 226.5,-184 226.5,-163 192.5,-163"/>
<text text-anchor="start" x="195.5" y="-169.8" font-family="Times,serif" font-size="14.00">size</text>
<polygon fill="#e0ffe0" stroke="none" points="226.5,-163 226.5,-184 342.5,-184 342.5,-163 226.5,-163"/>
<polygon fill="none" stroke="black" points="226.5,-163 226.5,-184 342.5,-184 342.5,-163 226.5,-163"/>
<text text-anchor="start" x="268.5" y="-169.8" font-family="Times,serif" font-size="14.00">type</text>
<polygon fill="#e0ffe0" stroke="none" points="342.5,-163 342.5,-184 438.5,-184 438.5,-163 342.5,-163"/>
<polygon fill="none" stroke="black" points="342.5,-163 342.5,-184 438.5,-184 438.5,-163 342.5,-163"/>
<text text-anchor="start" x="383.5" y="-169.8" font-family="Times,serif" font-size="14.00">id</text>
<polygon fill="none" stroke="black" points="161.5,-142 161.5,-163 192.5,-163 192.5,-142 161.5,-142"/>
<text text-anchor="start" x="172" y="-148.8" font-family="Times,serif" font-size="14.00">0</text>
<polygon fill="none" stroke="black" points="192.5,-142 192.5,-163 226.5,-163 226.5,-142 192.5,-142"/>
<text text-anchor="start" x="204.5" y="-148.8" font-family="Times,serif" font-size="14.00">4</text>
<polygon fill="none" stroke="black" points="226.5,-142 226.5,-163 342.5,-163 342.5,-142 226.5,-142"/>
<text text-anchor="start" x="229.5" y="-148.8" font-family="Times,serif" font-size="14.00">u4be→FileType</text>
<polygon fill="none" stroke="black" points="342.5,-142 342.5,-163 438.5,-163 438.5,-142 342.5,-142"/>
<text text-anchor="start" x="368.5" y="-148.8" font-family="Times,serif" font-size="14.00">magic</text>
<polygon fill="none" stroke="black" points="161.5,-121 161.5,-142 192.5,-142 192.5,-121 161.5,-121"/>
<text text-anchor="start" x="172" y="-127.8" font-family="Times,serif" font-size="14.00">4</text>
<polygon fill="none" stroke="black" points="192.5,-121 192.5,-142 226.5,-142 226.5,-121 192.5,-121"/>
<text text-anchor="start" x="204.5" y="-127.8" font-family="Times,serif" font-size="14.00">4</text>
<polygon fill="none" stroke="black" points="226.5,-121 226.5,-142 342.5,-142 342.5,-121 226.5,-121"/>
<text text-anchor="start" x="266.5" y="-127.8" font-family="Times,serif" font-size="14.00">u4be</text>
<polygon fill="none" stroke="black" points="342.5,-121 342.5,-142 438.5,-142 438.5,-121 342.5,-121"/>
<text text-anchor="start" x="364" y="-127.8" font-family="Times,serif" font-size="14.00">version</text>
<polygon fill="none" stroke="black" points="161.5,-100 161.5,-121 192.5,-121 192.5,-100 161.5,-100"/>
<text text-anchor="start" x="172" y="-106.8" font-family="Times,serif" font-size="14.00">8</text>
<polygon fill="none" stroke="black" points="192.5,-100 192.5,-121 226.5,-121 226.5,-100 192.5,-100"/>
<text text-anchor="start" x="200" y="-106.8" font-family="Times,serif" font-size="14.00">16</text>
<polygon fill="none" stroke="black" points="226.5,-100 226.5,-121 342.5,-121 342.5,-100 226.5,-100"/>
<polygon fill="none" stroke="black" points="342.5,-100 342.5,-121 438.5,-121 438.5,-100 342.5,-100"/>
<text text-anchor="start" x="358.5" y="-106.8" font-family="Times,serif" font-size="14.00">reserved</text>
<polygon fill="none" stroke="black" points="161.5,-79 161.5,-100 192.5,-100 192.5,-79 161.5,-79"/>
<text text-anchor="start" x="167.5" y="-85.8" font-family="Times,serif" font-size="14.00">24</text>
<polygon fill="none" stroke="black" points="192.5,-79 192.5,-100 226.5,-100 226.5,-79 192.5,-79"/>
<text text-anchor="start" x="204.5" y="-85.8" font-family="Times,serif" font-size="14.00">2</text>
<polygon fill="none" stroke="black" points="226.5,-79 226.5,-100 342.5,-100 342.5,-79 226.5,-79"/>
<text text-anchor="start" x="266.5" y="-85.8" font-family="Times,serif" font-size="14.00">u2be</text>
<polygon fill="none" stroke="black" points="342.5,-79 342.5,-100 438.5,-100 438.5,-79 342.5,-79"/>
<text text-anchor="start" x="345.5" y="-85.8" font-family="Times,serif" font-size="14.00">num_entries</text>
<polygon fill="none" stroke="black" points="161.5,-58 161.5,-79 192.5,-79 192.5,-58 161.5,-58"/>
<text text-anchor="start" x="167.5" y="-64.8" font-family="Times,serif" font-size="14.00">26</text>
<polygon fill="none" stroke="black" points="192.5,-58 192.5,-79 226.5,-79 226.5,-58 192.5,-58"/>
<text text-anchor="start" x="200" y="-64.8" font-family="Times,serif" font-size="14.00">12</text>
<polygon fill="none" stroke="black" points="226.5,-58 226.5,-79 342.5,-79 342.5,-58 226.5,-58"/>
<text text-anchor="start" x="264" y="-64.8" font-family="Times,serif" font-size="14.00">Entry</text>
<polygon fill="none" stroke="black" points="342.5,-58 342.5,-79 438.5,-79 438.5,-58 342.5,-58"/>
<text text-anchor="start" x="365" y="-64.8" font-family="Times,serif" font-size="14.00">entries</text>
<polygon fill="none" stroke="black" points="161.5,-37 161.5,-58 438.5,-58 438.5,-37 161.5,-37"/>
<text text-anchor="start" x="207.5" y="-43.8" font-family="Times,serif" font-size="14.00">repeat num_entries times</text>
</g>
<!-- apple_single_double__seq&#45;&gt;apple_single_double__seq -->
<g id="edge2" class="edge"><title>apple_single_double__seq:num_entries_type&#45;&gt;apple_single_double__seq:entries__repeat</title>
<path fill="none" stroke="#404040" d="M342.168,-92.0422C219.078,-97.4786 0,-94.0449 0,-68 0,-50.0471 71.8621,-42.8378 150.973,-41.8715"/>
<polygon fill="#404040" stroke="#404040" points="151.189,-45.3698 161.158,-41.7814 151.127,-38.3701 151.189,-45.3698"/>
</g>
<!-- entry__seq -->
<g id="node2" class="node"><title>entry__seq</title>
<polygon fill="#e0ffe0" stroke="none" points="490,-102 490,-123 521,-123 521,-102 490,-102"/>
<polygon fill="none" stroke="black" points="490,-102 490,-123 521,-123 521,-102 490,-102"/>
<text text-anchor="start" x="493" y="-108.8" font-family="Times,serif" font-size="14.00">pos</text>
<polygon fill="#e0ffe0" stroke="none" points="521,-102 521,-123 555,-123 555,-102 521,-102"/>
<polygon fill="none" stroke="black" points="521,-102 521,-123 555,-123 555,-102 521,-102"/>
<text text-anchor="start" x="524" y="-108.8" font-family="Times,serif" font-size="14.00">size</text>
<polygon fill="#e0ffe0" stroke="none" points="555,-102 555,-123 652,-123 652,-102 555,-102"/>
<polygon fill="none" stroke="black" points="555,-102 555,-123 652,-123 652,-102 555,-102"/>
<text text-anchor="start" x="587.5" y="-108.8" font-family="Times,serif" font-size="14.00">type</text>
<polygon fill="#e0ffe0" stroke="none" points="652,-102 652,-123 722,-123 722,-102 652,-102"/>
<polygon fill="none" stroke="black" points="652,-102 652,-123 722,-123 722,-102 652,-102"/>
<text text-anchor="start" x="680" y="-108.8" font-family="Times,serif" font-size="14.00">id</text>
<polygon fill="none" stroke="black" points="490,-81 490,-102 521,-102 521,-81 490,-81"/>
<text text-anchor="start" x="500.5" y="-87.8" font-family="Times,serif" font-size="14.00">0</text>
<polygon fill="none" stroke="black" points="521,-81 521,-102 555,-102 555,-81 521,-81"/>
<text text-anchor="start" x="533" y="-87.8" font-family="Times,serif" font-size="14.00">4</text>
<polygon fill="none" stroke="black" points="555,-81 555,-102 652,-102 652,-81 555,-81"/>
<text text-anchor="start" x="558" y="-87.8" font-family="Times,serif" font-size="14.00">u4be→Types</text>
<polygon fill="none" stroke="black" points="652,-81 652,-102 722,-102 722,-81 652,-81"/>
<text text-anchor="start" x="671" y="-87.8" font-family="Times,serif" font-size="14.00">type</text>
<polygon fill="none" stroke="black" points="490,-60 490,-81 521,-81 521,-60 490,-60"/>
<text text-anchor="start" x="500.5" y="-66.8" font-family="Times,serif" font-size="14.00">4</text>
<polygon fill="none" stroke="black" points="521,-60 521,-81 555,-81 555,-60 521,-60"/>
<text text-anchor="start" x="533" y="-66.8" font-family="Times,serif" font-size="14.00">4</text>
<polygon fill="none" stroke="black" points="555,-60 555,-81 652,-81 652,-60 555,-60"/>
<text text-anchor="start" x="585.5" y="-66.8" font-family="Times,serif" font-size="14.00">u4be</text>
<polygon fill="none" stroke="black" points="652,-60 652,-81 722,-81 722,-60 652,-60"/>
<text text-anchor="start" x="655" y="-66.8" font-family="Times,serif" font-size="14.00">ofs_body</text>
<polygon fill="none" stroke="black" points="490,-39 490,-60 521,-60 521,-39 490,-39"/>
<text text-anchor="start" x="500.5" y="-45.8" font-family="Times,serif" font-size="14.00">8</text>
<polygon fill="none" stroke="black" points="521,-39 521,-60 555,-60 555,-39 521,-39"/>
<text text-anchor="start" x="533" y="-45.8" font-family="Times,serif" font-size="14.00">4</text>
<polygon fill="none" stroke="black" points="555,-39 555,-60 652,-60 652,-39 555,-39"/>
<text text-anchor="start" x="585.5" y="-45.8" font-family="Times,serif" font-size="14.00">u4be</text>
<polygon fill="none" stroke="black" points="652,-39 652,-60 722,-60 722,-39 652,-39"/>
<text text-anchor="start" x="655" y="-45.8" font-family="Times,serif" font-size="14.00">len_body</text>
</g>
<!-- apple_single_double__seq&#45;&gt;entry__seq -->
<g id="edge1" class="edge"><title>apple_single_double__seq:entries_type&#45;&gt;entry__seq</title>
<path fill="none" stroke="black" stroke-width="2" d="M439.5,-68C449.981,-68 460.825,-68.2624 471.716,-68.7125"/>
<polygon fill="black" stroke="black" stroke-width="2" points="471.571,-72.2095 481.722,-69.1766 471.895,-65.217 471.571,-72.2095"/>
</g>
<!-- entry__inst__body -->
<g id="node3" class="node"><title>entry__inst__body</title>
<polygon fill="#e0ffe0" stroke="none" points="774.5,-102 774.5,-123 844.5,-123 844.5,-102 774.5,-102"/>
<polygon fill="none" stroke="black" points="774.5,-102 774.5,-123 844.5,-123 844.5,-102 774.5,-102"/>
<text text-anchor="start" x="797" y="-108.8" font-family="Times,serif" font-size="14.00">pos</text>
<polygon fill="#e0ffe0" stroke="none" points="844.5,-102 844.5,-123 878.5,-123 878.5,-102 844.5,-102"/>
<polygon fill="none" stroke="black" points="844.5,-102 844.5,-123 878.5,-123 878.5,-102 844.5,-102"/>
<text text-anchor="start" x="847.5" y="-108.8" font-family="Times,serif" font-size="14.00">size</text>
<polygon fill="#e0ffe0" stroke="none" points="878.5,-102 878.5,-123 978.5,-123 978.5,-102 878.5,-102"/>
<polygon fill="none" stroke="black" points="878.5,-102 878.5,-123 978.5,-123 978.5,-102 878.5,-102"/>
<text text-anchor="start" x="912.5" y="-108.8" font-family="Times,serif" font-size="14.00">type</text>
<polygon fill="#e0ffe0" stroke="none" points="978.5,-102 978.5,-123 1019.5,-123 1019.5,-102 978.5,-102"/>
<polygon fill="none" stroke="black" points="978.5,-102 978.5,-123 1019.5,-123 1019.5,-102 978.5,-102"/>
<text text-anchor="start" x="992" y="-108.8" font-family="Times,serif" font-size="14.00">id</text>
<polygon fill="none" stroke="black" points="774.5,-81 774.5,-102 844.5,-102 844.5,-81 774.5,-81"/>
<text text-anchor="start" x="777.5" y="-87.8" font-family="Times,serif" font-size="14.00">ofs_body</text>
<polygon fill="none" stroke="black" points="844.5,-81 844.5,-102 878.5,-102 878.5,-81 844.5,-81"/>
<text text-anchor="start" x="854.5" y="-87.8" font-family="Times,serif" font-size="14.00">...</text>
<polygon fill="none" stroke="black" points="878.5,-81 878.5,-102 978.5,-102 978.5,-81 878.5,-81"/>
<text text-anchor="start" x="881.5" y="-87.8" font-family="Times,serif" font-size="14.00">switch (type)</text>
<polygon fill="none" stroke="black" points="978.5,-81 978.5,-102 1019.5,-102 1019.5,-81 978.5,-81"/>
<text text-anchor="start" x="981.5" y="-87.8" font-family="Times,serif" font-size="14.00">body</text>
</g>
<!-- entry__seq&#45;&gt;entry__inst__body -->
<g id="edge3" class="edge"><title>entry__seq:ofs_body_type&#45;&gt;entry__inst__body:body_pos</title>
<path fill="none" stroke="#404040" d="M723,-70C743.51,-70 748.056,-84.9502 763.577,-89.6221"/>
<polygon fill="#404040" stroke="#404040" points="763.114,-93.0913 773.5,-91 764.076,-86.1578 763.114,-93.0913"/>
</g>
<!-- entry__seq&#45;&gt;entry__inst__body -->
<g id="edge6" class="edge"><title>entry__seq:type_type&#45;&gt;entry__inst__body:body_type</title>
<path fill="none" stroke="#404040" d="M723,-92C742.727,-92 746.433,-83.5056 766,-81 865.319,-68.2816 990.354,17.4352 999.023,-69.7671"/>
<polygon fill="#404040" stroke="#404040" points="995.538,-70.1739 999.5,-80 1002.53,-69.8478 995.538,-70.1739"/>
</g>
<!-- entry__inst__body_body_switch -->
<g id="node4" class="node"><title>entry__inst__body_body_switch</title>
<polygon fill="#f0f2e4" stroke="none" points="1071.5,-96 1071.5,-117 1206.5,-117 1206.5,-96 1071.5,-96"/>
<polygon fill="none" stroke="black" points="1071.5,-96 1071.5,-117 1206.5,-117 1206.5,-96 1071.5,-96"/>
<text text-anchor="start" x="1122.5" y="-102.8" font-family="Times,serif" font-size="14.00">case</text>
<polygon fill="#f0f2e4" stroke="none" points="1206.5,-96 1206.5,-117 1288.5,-117 1288.5,-96 1206.5,-96"/>
<polygon fill="none" stroke="black" points="1206.5,-96 1206.5,-117 1288.5,-117 1288.5,-96 1206.5,-96"/>
<text text-anchor="start" x="1231.5" y="-102.8" font-family="Times,serif" font-size="14.00">type</text>
<polygon fill="none" stroke="black" points="1071.5,-75 1071.5,-96 1206.5,-96 1206.5,-75 1071.5,-75"/>
<text text-anchor="start" x="1074.5" y="-81.8" font-family="Times,serif" font-size="14.00">:types_finder_info</text>
<polygon fill="none" stroke="black" points="1206.5,-75 1206.5,-96 1288.5,-96 1288.5,-75 1206.5,-75"/>
<text text-anchor="start" x="1209.5" y="-81.8" font-family="Times,serif" font-size="14.00">FinderInfo</text>
</g>
<!-- entry__inst__body&#45;&gt;entry__inst__body_body_switch -->
<g id="edge4" class="edge"><title>entry__inst__body:body_type&#45;&gt;entry__inst__body_body_switch</title>
<path fill="none" stroke="black" stroke-width="2" d="M1020.5,-91C1031.01,-91 1041.9,-91.1118 1052.84,-91.302"/>
<polygon fill="black" stroke="black" stroke-width="2" points="1052.82,-94.8021 1062.88,-91.4977 1052.95,-87.8034 1052.82,-94.8021"/>
</g>
<!-- finder_info__seq -->
<g id="node5" class="node"><title>finder_info__seq</title>
<polygon fill="#e0ffe0" stroke="none" points="1352.5,-133 1352.5,-154 1383.5,-154 1383.5,-133 1352.5,-133"/>
<polygon fill="none" stroke="black" points="1352.5,-133 1352.5,-154 1383.5,-154 1383.5,-133 1352.5,-133"/>
<text text-anchor="start" x="1355.5" y="-139.8" font-family="Times,serif" font-size="14.00">pos</text>
<polygon fill="#e0ffe0" stroke="none" points="1383.5,-133 1383.5,-154 1417.5,-154 1417.5,-133 1383.5,-133"/>
<polygon fill="none" stroke="black" points="1383.5,-133 1383.5,-154 1417.5,-154 1417.5,-133 1383.5,-133"/>
<text text-anchor="start" x="1386.5" y="-139.8" font-family="Times,serif" font-size="14.00">size</text>
<polygon fill="#e0ffe0" stroke="none" points="1417.5,-133 1417.5,-154 1460.5,-154 1460.5,-133 1417.5,-133"/>
<polygon fill="none" stroke="black" points="1417.5,-133 1417.5,-154 1460.5,-154 1460.5,-133 1417.5,-133"/>
<text text-anchor="start" x="1423" y="-139.8" font-family="Times,serif" font-size="14.00">type</text>
<polygon fill="#e0ffe0" stroke="none" points="1460.5,-133 1460.5,-154 1549.5,-154 1549.5,-133 1460.5,-133"/>
<polygon fill="none" stroke="black" points="1460.5,-133 1460.5,-154 1549.5,-154 1549.5,-133 1460.5,-133"/>
<text text-anchor="start" x="1498" y="-139.8" font-family="Times,serif" font-size="14.00">id</text>
<polygon fill="none" stroke="black" points="1352.5,-112 1352.5,-133 1383.5,-133 1383.5,-112 1352.5,-112"/>
<text text-anchor="start" x="1363" y="-118.8" font-family="Times,serif" font-size="14.00">0</text>
<polygon fill="none" stroke="black" points="1383.5,-112 1383.5,-133 1417.5,-133 1417.5,-112 1383.5,-112"/>
<text text-anchor="start" x="1395.5" y="-118.8" font-family="Times,serif" font-size="14.00">4</text>
<polygon fill="none" stroke="black" points="1417.5,-112 1417.5,-133 1460.5,-133 1460.5,-112 1417.5,-112"/>
<polygon fill="none" stroke="black" points="1460.5,-112 1460.5,-133 1549.5,-133 1549.5,-112 1460.5,-112"/>
<text text-anchor="start" x="1474" y="-118.8" font-family="Times,serif" font-size="14.00">file_type</text>
<polygon fill="none" stroke="black" points="1352.5,-91 1352.5,-112 1383.5,-112 1383.5,-91 1352.5,-91"/>
<text text-anchor="start" x="1363" y="-97.8" font-family="Times,serif" font-size="14.00">4</text>
<polygon fill="none" stroke="black" points="1383.5,-91 1383.5,-112 1417.5,-112 1417.5,-91 1383.5,-91"/>
<text text-anchor="start" x="1395.5" y="-97.8" font-family="Times,serif" font-size="14.00">4</text>
<polygon fill="none" stroke="black" points="1417.5,-91 1417.5,-112 1460.5,-112 1460.5,-91 1417.5,-91"/>
<polygon fill="none" stroke="black" points="1460.5,-91 1460.5,-112 1549.5,-112 1549.5,-91 1460.5,-91"/>
<text text-anchor="start" x="1463.5" y="-97.8" font-family="Times,serif" font-size="14.00">file_creator</text>
<polygon fill="none" stroke="black" points="1352.5,-70 1352.5,-91 1383.5,-91 1383.5,-70 1352.5,-70"/>
<text text-anchor="start" x="1363" y="-76.8" font-family="Times,serif" font-size="14.00">8</text>
<polygon fill="none" stroke="black" points="1383.5,-70 1383.5,-91 1417.5,-91 1417.5,-70 1383.5,-70"/>
<text text-anchor="start" x="1395.5" y="-76.8" font-family="Times,serif" font-size="14.00">2</text>
<polygon fill="none" stroke="black" points="1417.5,-70 1417.5,-91 1460.5,-91 1460.5,-70 1417.5,-70"/>
<text text-anchor="start" x="1421" y="-76.8" font-family="Times,serif" font-size="14.00">u2be</text>
<polygon fill="none" stroke="black" points="1460.5,-70 1460.5,-91 1549.5,-91 1549.5,-70 1460.5,-70"/>
<text text-anchor="start" x="1487.5" y="-76.8" font-family="Times,serif" font-size="14.00">flags</text>
<polygon fill="none" stroke="black" points="1352.5,-49 1352.5,-70 1383.5,-70 1383.5,-49 1352.5,-49"/>
<text text-anchor="start" x="1358.5" y="-55.8" font-family="Times,serif" font-size="14.00">10</text>
<polygon fill="none" stroke="black" points="1383.5,-49 1383.5,-70 1417.5,-70 1417.5,-49 1383.5,-49"/>
<text text-anchor="start" x="1395.5" y="-55.8" font-family="Times,serif" font-size="14.00">4</text>
<polygon fill="none" stroke="black" points="1417.5,-49 1417.5,-70 1460.5,-70 1460.5,-49 1417.5,-49"/>
<text text-anchor="start" x="1420.5" y="-55.8" font-family="Times,serif" font-size="14.00">Point</text>
<polygon fill="none" stroke="black" points="1460.5,-49 1460.5,-70 1549.5,-70 1549.5,-49 1460.5,-49"/>
<text text-anchor="start" x="1476" y="-55.8" font-family="Times,serif" font-size="14.00">location</text>
<polygon fill="none" stroke="black" points="1352.5,-28 1352.5,-49 1383.5,-49 1383.5,-28 1352.5,-28"/>
<text text-anchor="start" x="1358.5" y="-34.8" font-family="Times,serif" font-size="14.00">14</text>
<polygon fill="none" stroke="black" points="1383.5,-28 1383.5,-49 1417.5,-49 1417.5,-28 1383.5,-28"/>
<text text-anchor="start" x="1395.5" y="-34.8" font-family="Times,serif" font-size="14.00">2</text>
<polygon fill="none" stroke="black" points="1417.5,-28 1417.5,-49 1460.5,-49 1460.5,-28 1417.5,-28"/>
<text text-anchor="start" x="1421" y="-34.8" font-family="Times,serif" font-size="14.00">u2be</text>
<polygon fill="none" stroke="black" points="1460.5,-28 1460.5,-49 1549.5,-49 1549.5,-28 1460.5,-28"/>
<text text-anchor="start" x="1473" y="-34.8" font-family="Times,serif" font-size="14.00">folder_id</text>
</g>
<!-- entry__inst__body_body_switch&#45;&gt;finder_info__seq -->
<g id="edge5" class="edge"><title>entry__inst__body_body_switch:case0&#45;&gt;finder_info__seq</title>
<path fill="none" stroke="black" stroke-width="2" d="M1289.5,-85C1303.73,-85 1318.66,-85.2399 1333.46,-85.6237"/>
<polygon fill="black" stroke="black" stroke-width="2" points="1333.57,-89.1282 1343.66,-85.9113 1333.76,-82.1309 1333.57,-89.1282"/>
</g>
<!-- point__seq -->
<g id="node6" class="node"><title>point__seq</title>
<polygon fill="#e0ffe0" stroke="none" points="1642.5,-70 1642.5,-91 1673.5,-91 1673.5,-70 1642.5,-70"/>
<polygon fill="none" stroke="black" points="1642.5,-70 1642.5,-91 1673.5,-91 1673.5,-70 1642.5,-70"/>
<text text-anchor="start" x="1645.5" y="-76.8" font-family="Times,serif" font-size="14.00">pos</text>
<polygon fill="#e0ffe0" stroke="none" points="1673.5,-70 1673.5,-91 1707.5,-91 1707.5,-70 1673.5,-70"/>
<polygon fill="none" stroke="black" points="1673.5,-70 1673.5,-91 1707.5,-91 1707.5,-70 1673.5,-70"/>
<text text-anchor="start" x="1676.5" y="-76.8" font-family="Times,serif" font-size="14.00">size</text>
<polygon fill="#e0ffe0" stroke="none" points="1707.5,-70 1707.5,-91 1749.5,-91 1749.5,-70 1707.5,-70"/>
<polygon fill="none" stroke="black" points="1707.5,-70 1707.5,-91 1749.5,-91 1749.5,-70 1707.5,-70"/>
<text text-anchor="start" x="1712.5" y="-76.8" font-family="Times,serif" font-size="14.00">type</text>
<polygon fill="#e0ffe0" stroke="none" points="1749.5,-70 1749.5,-91 1769.5,-91 1769.5,-70 1749.5,-70"/>
<polygon fill="none" stroke="black" points="1749.5,-70 1749.5,-91 1769.5,-91 1769.5,-70 1749.5,-70"/>
<text text-anchor="start" x="1752.5" y="-76.8" font-family="Times,serif" font-size="14.00">id</text>
<polygon fill="none" stroke="black" points="1642.5,-49 1642.5,-70 1673.5,-70 1673.5,-49 1642.5,-49"/>
<text text-anchor="start" x="1653" y="-55.8" font-family="Times,serif" font-size="14.00">0</text>
<polygon fill="none" stroke="black" points="1673.5,-49 1673.5,-70 1707.5,-70 1707.5,-49 1673.5,-49"/>
<text text-anchor="start" x="1685.5" y="-55.8" font-family="Times,serif" font-size="14.00">2</text>
<polygon fill="none" stroke="black" points="1707.5,-49 1707.5,-70 1749.5,-70 1749.5,-49 1707.5,-49"/>
<text text-anchor="start" x="1710.5" y="-55.8" font-family="Times,serif" font-size="14.00">u2be</text>
<polygon fill="none" stroke="black" points="1749.5,-49 1749.5,-70 1769.5,-70 1769.5,-49 1749.5,-49"/>
<text text-anchor="start" x="1755" y="-55.8" font-family="Times,serif" font-size="14.00">x</text>
<polygon fill="none" stroke="black" points="1642.5,-28 1642.5,-49 1673.5,-49 1673.5,-28 1642.5,-28"/>
<text text-anchor="start" x="1653" y="-34.8" font-family="Times,serif" font-size="14.00">2</text>
<polygon fill="none" stroke="black" points="1673.5,-28 1673.5,-49 1707.5,-49 1707.5,-28 1673.5,-28"/>
<text text-anchor="start" x="1685.5" y="-34.8" font-family="Times,serif" font-size="14.00">2</text>
<polygon fill="none" stroke="black" points="1707.5,-28 1707.5,-49 1749.5,-49 1749.5,-28 1707.5,-28"/>
<text text-anchor="start" x="1710.5" y="-34.8" font-family="Times,serif" font-size="14.00">u2be</text>
<polygon fill="none" stroke="black" points="1749.5,-28 1749.5,-49 1769.5,-49 1769.5,-28 1749.5,-28"/>
<text text-anchor="start" x="1755" y="-34.8" font-family="Times,serif" font-size="14.00">y</text>
</g>
<!-- finder_info__seq&#45;&gt;point__seq -->
<g id="edge7" class="edge"><title>finder_info__seq:location_type&#45;&gt;point__seq</title>
<path fill="none" stroke="black" stroke-width="2" d="M1550.5,-59C1574.26,-59 1600.07,-59.1205 1623.66,-59.2778"/>
<polygon fill="black" stroke="black" stroke-width="2" points="1623.94,-62.7798 1633.97,-59.3498 1623.99,-55.7799 1623.94,-62.7798"/>
</g>
</g>
</svg>
