<?xml version="1.0" encoding="UTF-8" standalone="no"?>
<!DOCTYPE svg PUBLIC "-//W3C//DTD SVG 1.1//EN"
 "http://www.w3.org/Graphics/SVG/1.1/DTD/svg11.dtd">
<!-- Generated by graphviz version 2.38.0 (20140413.2041)
 -->
<!-- Title: %3 Pages: 1 -->
<svg width="1806pt" height="546pt"
 viewBox="0.00 0.00 1805.50 546.00" xmlns="http://www.w3.org/2000/svg" xmlns:xlink="http://www.w3.org/1999/xlink">
<g id="graph0" class="graph" transform="scale(1 1) rotate(0) translate(4 542)">
<title>%3</title>
<polygon fill="white" stroke="none" points="-4,4 -4,-542 1801.5,-542 1801.5,4 -4,4"/>
<g id="clust1" class="cluster"><title>cluster__protocol_body</title>
<polygon fill="none" stroke="black" stroke-dasharray="1,5" points="214,-260 214,-530 1797.5,-530 1797.5,-260 214,-260"/>
<text text-anchor="middle" x="1005.75" y="-514.8" font-family="Times,serif" font-size="14.00">ProtocolBody</text>
</g>
<g id="clust2" class="cluster"><title>cluster__no_next_header</title>
<polygon fill="none" stroke="black" stroke-dasharray="1,5" points="1558.5,-362 1558.5,-437 1789.5,-437 1789.5,-362 1558.5,-362"/>
<text text-anchor="middle" x="1674" y="-421.8" font-family="Times,serif" font-size="14.00">ProtocolBody::NoNextHeader</text>
</g>
<g id="clust3" class="cluster"><title>cluster__option_hop_by_hop</title>
<polygon fill="none" stroke="black" stroke-dasharray="1,5" points="318.5,-328 318.5,-499 742.5,-499 742.5,-328 318.5,-328"/>
<text text-anchor="middle" x="530.5" y="-483.8" font-family="Times,serif" font-size="14.00">ProtocolBody::OptionHopByHop</text>
</g>
<!-- protocol_body__seq -->
<g id="node1" class="node"><title>protocol_body__seq</title>
<polygon fill="#e0ffe0" stroke="none" points="883,-349 883,-370 914,-370 914,-349 883,-349"/>
<polygon fill="none" stroke="black" points="883,-349 883,-370 914,-370 914,-349 883,-349"/>
<text text-anchor="start" x="886" y="-355.8" font-family="Times,serif" font-size="14.00">pos</text>
<polygon fill="#e0ffe0" stroke="none" points="914,-349 914,-370 948,-370 948,-349 914,-349"/>
<polygon fill="none" stroke="black" points="914,-349 914,-370 948,-370 948,-349 914,-349"/>
<text text-anchor="start" x="917" y="-355.8" font-family="Times,serif" font-size="14.00">size</text>
<polygon fill="#e0ffe0" stroke="none" points="948,-349 948,-370 1076,-370 1076,-349 948,-349"/>
<polygon fill="none" stroke="black" points="948,-349 948,-370 1076,-370 1076,-349 948,-349"/>
<text text-anchor="start" x="996" y="-355.8" font-family="Times,serif" font-size="14.00">type</text>
<polygon fill="#e0ffe0" stroke="none" points="1076,-349 1076,-370 1117,-370 1117,-349 1076,-349"/>
<polygon fill="none" stroke="black" points="1076,-349 1076,-370 1117,-370 1117,-349 1076,-349"/>
<text text-anchor="start" x="1089.5" y="-355.8" font-family="Times,serif" font-size="14.00">id</text>
<polygon fill="none" stroke="black" points="883,-328 883,-349 914,-349 914,-328 883,-328"/>
<text text-anchor="start" x="893.5" y="-334.8" font-family="Times,serif" font-size="14.00">0</text>
<polygon fill="none" stroke="black" points="914,-328 914,-349 948,-349 948,-328 914,-328"/>
<text text-anchor="start" x="924" y="-334.8" font-family="Times,serif" font-size="14.00">...</text>
<polygon fill="none" stroke="black" points="948,-328 948,-349 1076,-349 1076,-328 948,-328"/>
<text text-anchor="start" x="951" y="-334.8" font-family="Times,serif" font-size="14.00">switch (protocol)</text>
<polygon fill="none" stroke="black" points="1076,-328 1076,-349 1117,-349 1117,-328 1076,-328"/>
<text text-anchor="start" x="1079" y="-334.8" font-family="Times,serif" font-size="14.00">body</text>
</g>
<!-- protocol_body__seq_body_switch -->
<g id="node3" class="node"><title>protocol_body__seq_body_switch</title>
<polygon fill="#f0f2e4" stroke="none" points="1169,-419 1169,-440 1373,-440 1373,-419 1169,-419"/>
<polygon fill="none" stroke="black" points="1169,-419 1169,-440 1373,-440 1373,-419 1169,-419"/>
<text text-anchor="start" x="1254.5" y="-425.8" font-family="Times,serif" font-size="14.00">case</text>
<polygon fill="#f0f2e4" stroke="none" points="1373,-419 1373,-440 1507,-440 1507,-419 1373,-419"/>
<polygon fill="none" stroke="black" points="1373,-419 1373,-440 1507,-440 1507,-419 1373,-419"/>
<text text-anchor="start" x="1424" y="-425.8" font-family="Times,serif" font-size="14.00">type</text>
<polygon fill="none" stroke="black" points="1169,-398 1169,-419 1373,-419 1373,-398 1169,-398"/>
<text text-anchor="start" x="1200" y="-404.8" font-family="Times,serif" font-size="14.00">:protocol_enum_tcp</text>
<polygon fill="none" stroke="black" points="1373,-398 1373,-419 1507,-419 1507,-398 1373,-398"/>
<text text-anchor="start" x="1394.5" y="-404.8" font-family="Times,serif" font-size="14.00">TcpSegment</text>
<polygon fill="none" stroke="black" points="1169,-377 1169,-398 1373,-398 1373,-377 1169,-377"/>
<text text-anchor="start" x="1172" y="-383.8" font-family="Times,serif" font-size="14.00">:protocol_enum_ipv6_nonxt</text>
<polygon fill="none" stroke="black" points="1373,-377 1373,-398 1507,-398 1507,-377 1373,-377"/>
<text text-anchor="start" x="1385" y="-383.8" font-family="Times,serif" font-size="14.00">NoNextHeader</text>
<polygon fill="none" stroke="black" points="1169,-356 1169,-377 1373,-377 1373,-356 1169,-356"/>
<text text-anchor="start" x="1194" y="-362.8" font-family="Times,serif" font-size="14.00">:protocol_enum_icmp</text>
<polygon fill="none" stroke="black" points="1373,-356 1373,-377 1507,-377 1507,-356 1373,-356"/>
<text text-anchor="start" x="1397" y="-362.8" font-family="Times,serif" font-size="14.00">IcmpPacket</text>
<polygon fill="none" stroke="black" points="1169,-335 1169,-356 1373,-356 1373,-335 1169,-335"/>
<text text-anchor="start" x="1198" y="-341.8" font-family="Times,serif" font-size="14.00">:protocol_enum_udp</text>
<polygon fill="none" stroke="black" points="1373,-335 1373,-356 1507,-356 1507,-335 1373,-335"/>
<text text-anchor="start" x="1389" y="-341.8" font-family="Times,serif" font-size="14.00">UdpDatagram</text>
<polygon fill="none" stroke="black" points="1169,-314 1169,-335 1373,-335 1373,-314 1169,-314"/>
<text text-anchor="start" x="1186.5" y="-320.8" font-family="Times,serif" font-size="14.00">:protocol_enum_hopopt</text>
<polygon fill="none" stroke="black" points="1373,-314 1373,-335 1507,-335 1507,-314 1373,-314"/>
<text text-anchor="start" x="1376" y="-320.8" font-family="Times,serif" font-size="14.00">OptionHopByHop</text>
<polygon fill="none" stroke="black" points="1169,-293 1169,-314 1373,-314 1373,-293 1169,-293"/>
<text text-anchor="start" x="1196" y="-299.8" font-family="Times,serif" font-size="14.00">:protocol_enum_ipv6</text>
<polygon fill="none" stroke="black" points="1373,-293 1373,-314 1507,-314 1507,-293 1373,-293"/>
<text text-anchor="start" x="1399" y="-299.8" font-family="Times,serif" font-size="14.00">Ipv6Packet</text>
<polygon fill="none" stroke="black" points="1169,-272 1169,-293 1373,-293 1373,-272 1169,-272"/>
<text text-anchor="start" x="1196" y="-278.8" font-family="Times,serif" font-size="14.00">:protocol_enum_ipv4</text>
<polygon fill="none" stroke="black" points="1373,-272 1373,-293 1507,-293 1507,-272 1373,-272"/>
<text text-anchor="start" x="1399" y="-278.8" font-family="Times,serif" font-size="14.00">Ipv4Packet</text>
</g>
<!-- protocol_body__seq&#45;&gt;protocol_body__seq_body_switch -->
<g id="edge1" class="edge"><title>protocol_body__seq:body_type&#45;&gt;protocol_body__seq_body_switch</title>
<path fill="none" stroke="black" stroke-width="2" d="M1118,-338C1128.66,-338 1139.6,-338.214 1150.64,-338.597"/>
<polygon fill="black" stroke="black" stroke-width="2" points="1150.67,-342.1 1160.8,-338.993 1150.94,-335.106 1150.67,-342.1"/>
</g>
<!-- protocol_body__inst__protocol -->
<g id="node2" class="node"><title>protocol_body__inst__protocol</title>
<polygon fill="#e0ffe0" stroke="none" points="230.5,-293 230.5,-314 296.5,-314 296.5,-293 230.5,-293"/>
<polygon fill="none" stroke="black" points="230.5,-293 230.5,-314 296.5,-314 296.5,-293 230.5,-293"/>
<text text-anchor="start" x="256.5" y="-299.8" font-family="Times,serif" font-size="14.00">id</text>
<polygon fill="#e0ffe0" stroke="none" points="296.5,-293 296.5,-314 831.5,-314 831.5,-293 296.5,-293"/>
<polygon fill="none" stroke="black" points="296.5,-293 296.5,-314 831.5,-314 831.5,-293 296.5,-293"/>
<text text-anchor="start" x="544.5" y="-299.8" font-family="Times,serif" font-size="14.00">value</text>
<polygon fill="none" stroke="black" points="230.5,-272 230.5,-293 296.5,-293 296.5,-272 230.5,-272"/>
<text text-anchor="start" x="233.5" y="-278.8" font-family="Times,serif" font-size="14.00">protocol</text>
<polygon fill="none" stroke="black" points="296.5,-272 296.5,-293 831.5,-293 831.5,-272 296.5,-272"/>
<text text-anchor="start" x="299.5" y="-278.8" font-family="Times,serif" font-size="14.00">Kaitai::Struct::Stream::resolve_enum(PROTOCOL_ENUM, protocol_num)</text>
</g>
<!-- protocol_body__inst__protocol&#45;&gt;protocol_body__seq -->
<g id="edge9" class="edge"><title>protocol_body__inst__protocol:protocol_type&#45;&gt;protocol_body__seq:body_type</title>
<path fill="none" stroke="#404040" d="M603.983,-267.92C753.893,-219.826 1085.09,-134.702 1096.69,-316.958"/>
<polygon fill="#404040" stroke="#404040" points="1093.19,-317.114 1097,-327 1100.19,-316.896 1093.19,-317.114"/>
</g>
<!-- no_next_header__seq -->
<g id="node4" class="node"><title>no_next_header__seq</title>
<polygon fill="#e0ffe0" stroke="none" points="1613,-377 1613,-398 1644,-398 1644,-377 1613,-377"/>
<polygon fill="none" stroke="black" points="1613,-377 1613,-398 1644,-398 1644,-377 1613,-377"/>
<text text-anchor="start" x="1616" y="-383.8" font-family="Times,serif" font-size="14.00">pos</text>
<polygon fill="#e0ffe0" stroke="none" points="1644,-377 1644,-398 1678,-398 1678,-377 1644,-377"/>
<polygon fill="none" stroke="black" points="1644,-377 1644,-398 1678,-398 1678,-377 1644,-377"/>
<text text-anchor="start" x="1647" y="-383.8" font-family="Times,serif" font-size="14.00">size</text>
<polygon fill="#e0ffe0" stroke="none" points="1678,-377 1678,-398 1716,-398 1716,-377 1678,-377"/>
<polygon fill="none" stroke="black" points="1678,-377 1678,-398 1716,-398 1716,-377 1678,-377"/>
<text text-anchor="start" x="1681" y="-383.8" font-family="Times,serif" font-size="14.00">type</text>
<polygon fill="#e0ffe0" stroke="none" points="1716,-377 1716,-398 1736,-398 1736,-377 1716,-377"/>
<polygon fill="none" stroke="black" points="1716,-377 1716,-398 1736,-398 1736,-377 1716,-377"/>
<text text-anchor="start" x="1719" y="-383.8" font-family="Times,serif" font-size="14.00">id</text>
</g>
<!-- protocol_body__seq_body_switch&#45;&gt;no_next_header__seq -->
<g id="edge3" class="edge"><title>protocol_body__seq_body_switch:case1&#45;&gt;no_next_header__seq</title>
<path fill="none" stroke="black" stroke-width="2" d="M1508,-388C1536.07,-388 1566.82,-388 1594.09,-388"/>
<polygon fill="black" stroke="black" stroke-width="2" points="1594.36,-391.5 1604.36,-388 1594.36,-384.5 1594.36,-391.5"/>
</g>
<!-- option_hop_by_hop__seq -->
<g id="node5" class="node"><title>option_hop_by_hop__seq</title>
<polygon fill="#e0ffe0" stroke="none" points="334.5,-424 334.5,-445 365.5,-445 365.5,-424 334.5,-424"/>
<polygon fill="none" stroke="black" points="334.5,-424 334.5,-445 365.5,-445 365.5,-424 334.5,-424"/>
<text text-anchor="start" x="337.5" y="-430.8" font-family="Times,serif" font-size="14.00">pos</text>
<polygon fill="#e0ffe0" stroke="none" points="365.5,-424 365.5,-445 489.5,-445 489.5,-424 365.5,-424"/>
<polygon fill="none" stroke="black" points="365.5,-424 365.5,-445 489.5,-445 489.5,-424 365.5,-424"/>
<text text-anchor="start" x="413.5" y="-430.8" font-family="Times,serif" font-size="14.00">size</text>
<polygon fill="#e0ffe0" stroke="none" points="489.5,-424 489.5,-445 592.5,-445 592.5,-424 489.5,-424"/>
<polygon fill="none" stroke="black" points="489.5,-424 489.5,-445 592.5,-445 592.5,-424 489.5,-424"/>
<text text-anchor="start" x="525" y="-430.8" font-family="Times,serif" font-size="14.00">type</text>
<polygon fill="#e0ffe0" stroke="none" points="592.5,-424 592.5,-445 726.5,-445 726.5,-424 592.5,-424"/>
<polygon fill="none" stroke="black" points="592.5,-424 592.5,-445 726.5,-445 726.5,-424 592.5,-424"/>
<text text-anchor="start" x="652.5" y="-430.8" font-family="Times,serif" font-size="14.00">id</text>
<polygon fill="none" stroke="black" points="334.5,-403 334.5,-424 365.5,-424 365.5,-403 334.5,-403"/>
<text text-anchor="start" x="345" y="-409.8" font-family="Times,serif" font-size="14.00">0</text>
<polygon fill="none" stroke="black" points="365.5,-403 365.5,-424 489.5,-424 489.5,-403 365.5,-403"/>
<text text-anchor="start" x="422.5" y="-409.8" font-family="Times,serif" font-size="14.00">1</text>
<polygon fill="none" stroke="black" points="489.5,-403 489.5,-424 592.5,-424 592.5,-403 489.5,-403"/>
<text text-anchor="start" x="531.5" y="-409.8" font-family="Times,serif" font-size="14.00">u1</text>
<polygon fill="none" stroke="black" points="592.5,-403 592.5,-424 726.5,-424 726.5,-403 592.5,-403"/>
<text text-anchor="start" x="595.5" y="-409.8" font-family="Times,serif" font-size="14.00">next_header_type</text>
<polygon fill="none" stroke="black" points="334.5,-382 334.5,-403 365.5,-403 365.5,-382 334.5,-382"/>
<text text-anchor="start" x="345" y="-388.8" font-family="Times,serif" font-size="14.00">1</text>
<polygon fill="none" stroke="black" points="365.5,-382 365.5,-403 489.5,-403 489.5,-382 365.5,-382"/>
<text text-anchor="start" x="422.5" y="-388.8" font-family="Times,serif" font-size="14.00">1</text>
<polygon fill="none" stroke="black" points="489.5,-382 489.5,-403 592.5,-403 592.5,-382 489.5,-382"/>
<text text-anchor="start" x="531.5" y="-388.8" font-family="Times,serif" font-size="14.00">u1</text>
<polygon fill="none" stroke="black" points="592.5,-382 592.5,-403 726.5,-403 726.5,-382 592.5,-382"/>
<text text-anchor="start" x="617" y="-388.8" font-family="Times,serif" font-size="14.00">hdr_ext_len</text>
<polygon fill="none" stroke="black" points="334.5,-361 334.5,-382 365.5,-382 365.5,-361 334.5,-361"/>
<text text-anchor="start" x="345" y="-367.8" font-family="Times,serif" font-size="14.00">2</text>
<polygon fill="none" stroke="black" points="365.5,-361 365.5,-382 489.5,-382 489.5,-361 365.5,-361"/>
<text text-anchor="start" x="368.5" y="-367.8" font-family="Times,serif" font-size="14.00">(hdr_ext_len &#45; 1)</text>
<polygon fill="none" stroke="black" points="489.5,-361 489.5,-382 592.5,-382 592.5,-361 489.5,-361"/>
<polygon fill="none" stroke="black" points="592.5,-361 592.5,-382 726.5,-382 726.5,-361 592.5,-361"/>
<text text-anchor="start" x="642" y="-367.8" font-family="Times,serif" font-size="14.00">body</text>
<polygon fill="none" stroke="black" points="334.5,-340 334.5,-361 365.5,-361 365.5,-340 334.5,-340"/>
<text text-anchor="start" x="343" y="-346.8" font-family="Times,serif" font-size="14.00">...</text>
<polygon fill="none" stroke="black" points="365.5,-340 365.5,-361 489.5,-361 489.5,-340 365.5,-340"/>
<text text-anchor="start" x="420.5" y="-346.8" font-family="Times,serif" font-size="14.00">...</text>
<polygon fill="none" stroke="black" points="489.5,-340 489.5,-361 592.5,-361 592.5,-340 489.5,-340"/>
<text text-anchor="start" x="492.5" y="-346.8" font-family="Times,serif" font-size="14.00">ProtocolBody</text>
<polygon fill="none" stroke="black" points="592.5,-340 592.5,-361 726.5,-361 726.5,-340 592.5,-340"/>
<text text-anchor="start" x="615" y="-346.8" font-family="Times,serif" font-size="14.00">next_header</text>
</g>
<!-- protocol_body__seq_body_switch&#45;&gt;option_hop_by_hop__seq -->
<g id="edge6" class="edge"><title>protocol_body__seq_body_switch:case4&#45;&gt;option_hop_by_hop__seq</title>
<path fill="none" stroke="black" stroke-width="2" d="M1508,-324C1532.89,-324 1524.76,-285.444 1507,-268 1397.3,-160.238 1284.92,-176.942 1161,-268 1117.84,-299.713 1167.89,-350.925 1125,-383 1018.03,-462.997 867.24,-464.551 744.421,-446.588"/>
<polygon fill="black" stroke="black" stroke-width="2" points="744.917,-443.123 734.505,-445.087 743.869,-450.044 744.917,-443.123"/>
</g>
<!-- tcp_segment__seq -->
<g id="node6" class="node"><title>tcp_segment__seq</title>
<text text-anchor="middle" x="1674" y="-230.3" font-family="Times,serif" font-size="14.00">tcp_segment__seq</text>
</g>
<!-- protocol_body__seq_body_switch&#45;&gt;tcp_segment__seq -->
<g id="edge2" class="edge"><title>protocol_body__seq_body_switch:case0&#45;&gt;tcp_segment__seq</title>
<path fill="none" stroke="black" stroke-width="2" d="M1508,-409C1510.53,-409 1604.16,-308.305 1649.23,-259.679"/>
<polygon fill="black" stroke="black" stroke-width="2" points="1652.05,-261.783 1656.28,-252.069 1646.92,-257.026 1652.05,-261.783"/>
</g>
<!-- icmp_packet__seq -->
<g id="node7" class="node"><title>icmp_packet__seq</title>
<text text-anchor="middle" x="1674" y="-176.3" font-family="Times,serif" font-size="14.00">icmp_packet__seq</text>
</g>
<!-- protocol_body__seq_body_switch&#45;&gt;icmp_packet__seq -->
<g id="edge4" class="edge"><title>protocol_body__seq_body_switch:case2&#45;&gt;icmp_packet__seq</title>
<path fill="none" stroke="black" stroke-width="2" d="M1508,-367C1582.57,-367 1503.85,-257.738 1558.5,-207 1567.45,-198.695 1578.45,-192.796 1590.08,-188.632"/>
<polygon fill="black" stroke="black" stroke-width="2" points="1591.46,-191.866 1599.95,-185.528 1589.36,-185.188 1591.46,-191.866"/>
</g>
<!-- udp_datagram__seq -->
<g id="node8" class="node"><title>udp_datagram__seq</title>
<text text-anchor="middle" x="1674" y="-122.3" font-family="Times,serif" font-size="14.00">udp_datagram__seq</text>
</g>
<!-- protocol_body__seq_body_switch&#45;&gt;udp_datagram__seq -->
<g id="edge5" class="edge"><title>protocol_body__seq_body_switch:case3&#45;&gt;udp_datagram__seq</title>
<path fill="none" stroke="black" stroke-width="2" d="M1508,-345C1596.24,-345 1495.31,-214.588 1558.5,-153 1565.93,-145.762 1574.91,-140.333 1584.54,-136.28"/>
<polygon fill="black" stroke="black" stroke-width="2" points="1585.78,-139.554 1593.95,-132.802 1583.35,-132.988 1585.78,-139.554"/>
</g>
<!-- ipv6_packet__seq -->
<g id="node9" class="node"><title>ipv6_packet__seq</title>
<text text-anchor="middle" x="1674" y="-68.3" font-family="Times,serif" font-size="14.00">ipv6_packet__seq</text>
</g>
<!-- protocol_body__seq_body_switch&#45;&gt;ipv6_packet__seq -->
<g id="edge7" class="edge"><title>protocol_body__seq_body_switch:case5&#45;&gt;ipv6_packet__seq</title>
<path fill="none" stroke="black" stroke-width="2" d="M1508,-303C1601.4,-303 1492.09,-164.679 1558.5,-99 1567.93,-89.6729 1579.95,-83.3406 1592.63,-79.0837"/>
<polygon fill="black" stroke="black" stroke-width="2" points="1593.81,-82.3852 1602.42,-76.2179 1591.84,-75.6668 1593.81,-82.3852"/>
</g>
<!-- ipv4_packet__seq -->
<g id="node10" class="node"><title>ipv4_packet__seq</title>
<text text-anchor="middle" x="1674" y="-14.3" font-family="Times,serif" font-size="14.00">ipv4_packet__seq</text>
</g>
<!-- protocol_body__seq_body_switch&#45;&gt;ipv4_packet__seq -->
<g id="edge8" class="edge"><title>protocol_body__seq_body_switch:case6&#45;&gt;ipv4_packet__seq</title>
<path fill="none" stroke="black" stroke-width="2" d="M1508,-282C1615.7,-282 1483.17,-121.973 1558.5,-45 1567.83,-35.4617 1579.86,-29.0336 1592.6,-24.7493"/>
<polygon fill="black" stroke="black" stroke-width="2" points="1593.83,-28.0367 1602.45,-21.875 1591.87,-21.317 1593.83,-28.0367"/>
</g>
<!-- option_hop_by_hop__seq&#45;&gt;protocol_body__seq -->
<g id="edge12" class="edge"><title>option_hop_by_hop__seq:next_header_type&#45;&gt;protocol_body__seq</title>
<path fill="none" stroke="black" stroke-width="2" d="M727.5,-350C772.213,-350 821.069,-349.863 864.857,-349.69"/>
<polygon fill="black" stroke="black" stroke-width="2" points="865.007,-353.189 874.993,-349.649 864.979,-346.189 865.007,-353.189"/>
</g>
<!-- option_hop_by_hop__seq&#45;&gt;option_hop_by_hop__seq -->
<g id="edge11" class="edge"><title>option_hop_by_hop__seq:hdr_ext_len_type&#45;&gt;option_hop_by_hop__seq:body_size</title>
<path fill="none" stroke="#404040" d="M696.89,-403.082C764.531,-429.398 738.617,-467.5 543.5,-467.5 355.435,-467.5 324.563,-417.431 383.146,-386.491"/>
<polygon fill="#404040" stroke="#404040" points="384.905,-389.531 392.431,-382.073 381.897,-383.21 384.905,-389.531"/>
</g>
<!-- protocol_body__params -->
<g id="node11" class="node"><title>protocol_body__params</title>
<text text-anchor="middle" x="93" y="-289.3" font-family="Times,serif" font-size="14.00">protocol_body__params</text>
</g>
<!-- protocol_body__params&#45;&gt;protocol_body__inst__protocol -->
<g id="edge10" class="edge"><title>protocol_body__params:protocol_num_type&#45;&gt;protocol_body__inst__protocol</title>
<path fill="none" stroke="#404040" d="M186.092,-293C194.253,-293 202.773,-293 211.571,-293"/>
<polygon fill="#404040" stroke="#404040" points="211.619,-296.5 221.619,-293 211.619,-289.5 211.619,-296.5"/>
</g>
</g>
</svg>
