<?xml version="1.0" encoding="UTF-8" standalone="no"?>
<!DOCTYPE svg PUBLIC "-//W3C//DTD SVG 1.1//EN"
 "http://www.w3.org/Graphics/SVG/1.1/DTD/svg11.dtd">
<!-- Generated by graphviz version 2.38.0 (20140413.2041)
 -->
<!-- Title: %3 Pages: 1 -->
<svg width="1800pt" height="546pt"
 viewBox="0.00 0.00 1799.50 546.00" xmlns="http://www.w3.org/2000/svg" xmlns:xlink="http://www.w3.org/1999/xlink">
<g id="graph0" class="graph" transform="scale(1 1) rotate(0) translate(4 542)">
<title>%3</title>
<polygon fill="white" stroke="none" points="-4,4 -4,-542 1795.5,-542 1795.5,4 -4,4"/>
<g id="clust1" class="cluster"><title>cluster__protocol_body</title>
<polygon fill="none" stroke="black" stroke-dasharray="1,5" points="214,-260 214,-530 1791.5,-530 1791.5,-260 214,-260"/>
<text text-anchor="middle" x="1002.75" y="-514.8" font-family="Times,serif" font-size="14.00">ProtocolBody</text>
</g>
<g id="clust2" class="cluster"><title>cluster__no_next_header</title>
<polygon fill="none" stroke="black" stroke-dasharray="1,5" points="1552.5,-362 1552.5,-437 1783.5,-437 1783.5,-362 1552.5,-362"/>
<text text-anchor="middle" x="1668" y="-421.8" font-family="Times,serif" font-size="14.00">ProtocolBody::NoNextHeader</text>
</g>
<g id="clust3" class="cluster"><title>cluster__option_hop_by_hop</title>
<polygon fill="none" stroke="black" stroke-dasharray="1,5" points="316,-328 316,-499 740,-499 740,-328 316,-328"/>
<text text-anchor="middle" x="528" y="-483.8" font-family="Times,serif" font-size="14.00">ProtocolBody::OptionHopByHop</text>
</g>
<!-- protocol_body__seq -->
<g id="node1" class="node"><title>protocol_body__seq</title>
<polygon fill="#e0ffe0" stroke="none" points="878,-349 878,-370 909,-370 909,-349 878,-349"/>
<polygon fill="none" stroke="black" points="878,-349 878,-370 909,-370 909,-349 878,-349"/>
<text text-anchor="start" x="881" y="-355.8" font-family="Times,serif" font-size="14.00">pos</text>
<polygon fill="#e0ffe0" stroke="none" points="909,-349 909,-370 943,-370 943,-349 909,-349"/>
<polygon fill="none" stroke="black" points="909,-349 909,-370 943,-370 943,-349 909,-349"/>
<text text-anchor="start" x="912" y="-355.8" font-family="Times,serif" font-size="14.00">size</text>
<polygon fill="#e0ffe0" stroke="none" points="943,-349 943,-370 1071,-370 1071,-349 943,-349"/>
<polygon fill="none" stroke="black" points="943,-349 943,-370 1071,-370 1071,-349 943,-349"/>
<text text-anchor="start" x="991" y="-355.8" font-family="Times,serif" font-size="14.00">type</text>
<polygon fill="#e0ffe0" stroke="none" points="1071,-349 1071,-370 1112,-370 1112,-349 1071,-349"/>
<polygon fill="none" stroke="black" points="1071,-349 1071,-370 1112,-370 1112,-349 1071,-349"/>
<text text-anchor="start" x="1084.5" y="-355.8" font-family="Times,serif" font-size="14.00">id</text>
<polygon fill="none" stroke="black" points="878,-328 878,-349 909,-349 909,-328 878,-328"/>
<text text-anchor="start" x="888.5" y="-334.8" font-family="Times,serif" font-size="14.00">0</text>
<polygon fill="none" stroke="black" points="909,-328 909,-349 943,-349 943,-328 909,-328"/>
<text text-anchor="start" x="919" y="-334.8" font-family="Times,serif" font-size="14.00">...</text>
<polygon fill="none" stroke="black" points="943,-328 943,-349 1071,-349 1071,-328 943,-328"/>
<text text-anchor="start" x="946" y="-334.8" font-family="Times,serif" font-size="14.00">switch (protocol)</text>
<polygon fill="none" stroke="black" points="1071,-328 1071,-349 1112,-349 1112,-328 1071,-328"/>
<text text-anchor="start" x="1074" y="-334.8" font-family="Times,serif" font-size="14.00">body</text>
</g>
<!-- protocol_body__seq_body_switch -->
<g id="node3" class="node"><title>protocol_body__seq_body_switch</title>
<polygon fill="#f0f2e4" stroke="none" points="1164.5,-419 1164.5,-440 1368.5,-440 1368.5,-419 1164.5,-419"/>
<polygon fill="none" stroke="black" points="1164.5,-419 1164.5,-440 1368.5,-440 1368.5,-419 1164.5,-419"/>
<text text-anchor="start" x="1250" y="-425.8" font-family="Times,serif" font-size="14.00">case</text>
<polygon fill="#f0f2e4" stroke="none" points="1368.5,-419 1368.5,-440 1501.5,-440 1501.5,-419 1368.5,-419"/>
<polygon fill="none" stroke="black" points="1368.5,-419 1368.5,-440 1501.5,-440 1501.5,-419 1368.5,-419"/>
<text text-anchor="start" x="1419" y="-425.8" font-family="Times,serif" font-size="14.00">type</text>
<polygon fill="none" stroke="black" points="1164.5,-398 1164.5,-419 1368.5,-419 1368.5,-398 1164.5,-398"/>
<text text-anchor="start" x="1195.5" y="-404.8" font-family="Times,serif" font-size="14.00">:protocol_enum_tcp</text>
<polygon fill="none" stroke="black" points="1368.5,-398 1368.5,-419 1501.5,-419 1501.5,-398 1368.5,-398"/>
<text text-anchor="start" x="1390.5" y="-404.8" font-family="Times,serif" font-size="14.00">TcpSegment</text>
<polygon fill="none" stroke="black" points="1164.5,-377 1164.5,-398 1368.5,-398 1368.5,-377 1164.5,-377"/>
<text text-anchor="start" x="1167.5" y="-383.8" font-family="Times,serif" font-size="14.00">:protocol_enum_ipv6_nonxt</text>
<polygon fill="none" stroke="black" points="1368.5,-377 1368.5,-398 1501.5,-398 1501.5,-377 1368.5,-377"/>
<text text-anchor="start" x="1380" y="-383.8" font-family="Times,serif" font-size="14.00">NoNextHeader</text>
<polygon fill="none" stroke="black" points="1164.5,-356 1164.5,-377 1368.5,-377 1368.5,-356 1164.5,-356"/>
<text text-anchor="start" x="1189.5" y="-362.8" font-family="Times,serif" font-size="14.00">:protocol_enum_icmp</text>
<polygon fill="none" stroke="black" points="1368.5,-356 1368.5,-377 1501.5,-377 1501.5,-356 1368.5,-356"/>
<text text-anchor="start" x="1392" y="-362.8" font-family="Times,serif" font-size="14.00">IcmpPacket</text>
<polygon fill="none" stroke="black" points="1164.5,-335 1164.5,-356 1368.5,-356 1368.5,-335 1164.5,-335"/>
<text text-anchor="start" x="1193.5" y="-341.8" font-family="Times,serif" font-size="14.00">:protocol_enum_udp</text>
<polygon fill="none" stroke="black" points="1368.5,-335 1368.5,-356 1501.5,-356 1501.5,-335 1368.5,-335"/>
<text text-anchor="start" x="1384.5" y="-341.8" font-family="Times,serif" font-size="14.00">UdpDatagram</text>
<polygon fill="none" stroke="black" points="1164.5,-314 1164.5,-335 1368.5,-335 1368.5,-314 1164.5,-314"/>
<text text-anchor="start" x="1182" y="-320.8" font-family="Times,serif" font-size="14.00">:protocol_enum_hopopt</text>
<polygon fill="none" stroke="black" points="1368.5,-314 1368.5,-335 1501.5,-335 1501.5,-314 1368.5,-314"/>
<text text-anchor="start" x="1371.5" y="-320.8" font-family="Times,serif" font-size="14.00">OptionHopByHop</text>
<polygon fill="none" stroke="black" points="1164.5,-293 1164.5,-314 1368.5,-314 1368.5,-293 1164.5,-293"/>
<text text-anchor="start" x="1191.5" y="-299.8" font-family="Times,serif" font-size="14.00">:protocol_enum_ipv6</text>
<polygon fill="none" stroke="black" points="1368.5,-293 1368.5,-314 1501.5,-314 1501.5,-293 1368.5,-293"/>
<text text-anchor="start" x="1394" y="-299.8" font-family="Times,serif" font-size="14.00">Ipv6Packet</text>
<polygon fill="none" stroke="black" points="1164.5,-272 1164.5,-293 1368.5,-293 1368.5,-272 1164.5,-272"/>
<text text-anchor="start" x="1191.5" y="-278.8" font-family="Times,serif" font-size="14.00">:protocol_enum_ipv4</text>
<polygon fill="none" stroke="black" points="1368.5,-272 1368.5,-293 1501.5,-293 1501.5,-272 1368.5,-272"/>
<text text-anchor="start" x="1394" y="-278.8" font-family="Times,serif" font-size="14.00">Ipv4Packet</text>
</g>
<!-- protocol_body__seq&#45;&gt;protocol_body__seq_body_switch -->
<g id="edge1" class="edge"><title>protocol_body__seq:body_type&#45;&gt;protocol_body__seq_body_switch</title>
<path fill="none" stroke="black" stroke-width="2" d="M1113,-338C1123.71,-338 1134.7,-338.217 1145.79,-338.605"/>
<polygon fill="black" stroke="black" stroke-width="2" points="1145.87,-342.11 1156,-339.006 1146.14,-335.115 1145.87,-342.11"/>
</g>
<!-- protocol_body__inst__protocol -->
<g id="node2" class="node"><title>protocol_body__inst__protocol</title>
<polygon fill="#e0ffe0" stroke="none" points="230,-293 230,-314 296,-314 296,-293 230,-293"/>
<polygon fill="none" stroke="black" points="230,-293 230,-314 296,-314 296,-293 230,-293"/>
<text text-anchor="start" x="256" y="-299.8" font-family="Times,serif" font-size="14.00">id</text>
<polygon fill="#e0ffe0" stroke="none" points="296,-293 296,-314 826,-314 826,-293 296,-293"/>
<polygon fill="none" stroke="black" points="296,-293 296,-314 826,-314 826,-293 296,-293"/>
<text text-anchor="start" x="541.5" y="-299.8" font-family="Times,serif" font-size="14.00">value</text>
<polygon fill="none" stroke="black" points="230,-272 230,-293 296,-293 296,-272 230,-272"/>
<text text-anchor="start" x="233" y="-278.8" font-family="Times,serif" font-size="14.00">protocol</text>
<polygon fill="none" stroke="black" points="296,-272 296,-293 826,-293 826,-272 296,-272"/>
<text text-anchor="start" x="299" y="-278.8" font-family="Times,serif" font-size="14.00">Kaitai::Struct::Stream::resolve_enum(PROTOCOL_ENUM, protocol_num)</text>
</g>
<!-- protocol_body__inst__protocol&#45;&gt;protocol_body__seq -->
<g id="edge9" class="edge"><title>protocol_body__inst__protocol:protocol_type&#45;&gt;protocol_body__seq:body_type</title>
<path fill="none" stroke="#404040" d="M601.45,-267.957C750.76,-220.122 1079.83,-135.744 1091.67,-316.738"/>
<polygon fill="#404040" stroke="#404040" points="1088.18,-317.117 1092,-327 1095.18,-316.893 1088.18,-317.117"/>
</g>
<!-- no_next_header__seq -->
<g id="node4" class="node"><title>no_next_header__seq</title>
<polygon fill="#e0ffe0" stroke="none" points="1607,-377 1607,-398 1638,-398 1638,-377 1607,-377"/>
<polygon fill="none" stroke="black" points="1607,-377 1607,-398 1638,-398 1638,-377 1607,-377"/>
<text text-anchor="start" x="1610" y="-383.8" font-family="Times,serif" font-size="14.00">pos</text>
<polygon fill="#e0ffe0" stroke="none" points="1638,-377 1638,-398 1672,-398 1672,-377 1638,-377"/>
<polygon fill="none" stroke="black" points="1638,-377 1638,-398 1672,-398 1672,-377 1638,-377"/>
<text text-anchor="start" x="1641" y="-383.8" font-family="Times,serif" font-size="14.00">size</text>
<polygon fill="#e0ffe0" stroke="none" points="1672,-377 1672,-398 1710,-398 1710,-377 1672,-377"/>
<polygon fill="none" stroke="black" points="1672,-377 1672,-398 1710,-398 1710,-377 1672,-377"/>
<text text-anchor="start" x="1675" y="-383.8" font-family="Times,serif" font-size="14.00">type</text>
<polygon fill="#e0ffe0" stroke="none" points="1710,-377 1710,-398 1730,-398 1730,-377 1710,-377"/>
<polygon fill="none" stroke="black" points="1710,-377 1710,-398 1730,-398 1730,-377 1710,-377"/>
<text text-anchor="start" x="1713" y="-383.8" font-family="Times,serif" font-size="14.00">id</text>
</g>
<!-- protocol_body__seq_body_switch&#45;&gt;no_next_header__seq -->
<g id="edge3" class="edge"><title>protocol_body__seq_body_switch:case1&#45;&gt;no_next_header__seq</title>
<path fill="none" stroke="black" stroke-width="2" d="M1502.5,-388C1530.36,-388 1560.87,-388 1587.96,-388"/>
<polygon fill="black" stroke="black" stroke-width="2" points="1588.17,-391.5 1598.17,-388 1588.17,-384.5 1588.17,-391.5"/>
</g>
<!-- option_hop_by_hop__seq -->
<g id="node5" class="node"><title>option_hop_by_hop__seq</title>
<polygon fill="#e0ffe0" stroke="none" points="332,-424 332,-445 363,-445 363,-424 332,-424"/>
<polygon fill="none" stroke="black" points="332,-424 332,-445 363,-445 363,-424 332,-424"/>
<text text-anchor="start" x="335" y="-430.8" font-family="Times,serif" font-size="14.00">pos</text>
<polygon fill="#e0ffe0" stroke="none" points="363,-424 363,-445 487,-445 487,-424 363,-424"/>
<polygon fill="none" stroke="black" points="363,-424 363,-445 487,-445 487,-424 363,-424"/>
<text text-anchor="start" x="411" y="-430.8" font-family="Times,serif" font-size="14.00">size</text>
<polygon fill="#e0ffe0" stroke="none" points="487,-424 487,-445 590,-445 590,-424 487,-424"/>
<polygon fill="none" stroke="black" points="487,-424 487,-445 590,-445 590,-424 487,-424"/>
<text text-anchor="start" x="522.5" y="-430.8" font-family="Times,serif" font-size="14.00">type</text>
<polygon fill="#e0ffe0" stroke="none" points="590,-424 590,-445 724,-445 724,-424 590,-424"/>
<polygon fill="none" stroke="black" points="590,-424 590,-445 724,-445 724,-424 590,-424"/>
<text text-anchor="start" x="650" y="-430.8" font-family="Times,serif" font-size="14.00">id</text>
<polygon fill="none" stroke="black" points="332,-403 332,-424 363,-424 363,-403 332,-403"/>
<text text-anchor="start" x="342.5" y="-409.8" font-family="Times,serif" font-size="14.00">0</text>
<polygon fill="none" stroke="black" points="363,-403 363,-424 487,-424 487,-403 363,-403"/>
<text text-anchor="start" x="420" y="-409.8" font-family="Times,serif" font-size="14.00">1</text>
<polygon fill="none" stroke="black" points="487,-403 487,-424 590,-424 590,-403 487,-403"/>
<text text-anchor="start" x="529" y="-409.8" font-family="Times,serif" font-size="14.00">u1</text>
<polygon fill="none" stroke="black" points="590,-403 590,-424 724,-424 724,-403 590,-403"/>
<text text-anchor="start" x="593" y="-409.8" font-family="Times,serif" font-size="14.00">next_header_type</text>
<polygon fill="none" stroke="black" points="332,-382 332,-403 363,-403 363,-382 332,-382"/>
<text text-anchor="start" x="342.5" y="-388.8" font-family="Times,serif" font-size="14.00">1</text>
<polygon fill="none" stroke="black" points="363,-382 363,-403 487,-403 487,-382 363,-382"/>
<text text-anchor="start" x="420" y="-388.8" font-family="Times,serif" font-size="14.00">1</text>
<polygon fill="none" stroke="black" points="487,-382 487,-403 590,-403 590,-382 487,-382"/>
<text text-anchor="start" x="529" y="-388.8" font-family="Times,serif" font-size="14.00">u1</text>
<polygon fill="none" stroke="black" points="590,-382 590,-403 724,-403 724,-382 590,-382"/>
<text text-anchor="start" x="614.5" y="-388.8" font-family="Times,serif" font-size="14.00">hdr_ext_len</text>
<polygon fill="none" stroke="black" points="332,-361 332,-382 363,-382 363,-361 332,-361"/>
<text text-anchor="start" x="342.5" y="-367.8" font-family="Times,serif" font-size="14.00">2</text>
<polygon fill="none" stroke="black" points="363,-361 363,-382 487,-382 487,-361 363,-361"/>
<text text-anchor="start" x="366" y="-367.8" font-family="Times,serif" font-size="14.00">(hdr_ext_len &#45; 1)</text>
<polygon fill="none" stroke="black" points="487,-361 487,-382 590,-382 590,-361 487,-361"/>
<polygon fill="none" stroke="black" points="590,-361 590,-382 724,-382 724,-361 590,-361"/>
<text text-anchor="start" x="639.5" y="-367.8" font-family="Times,serif" font-size="14.00">body</text>
<polygon fill="none" stroke="black" points="332,-340 332,-361 363,-361 363,-340 332,-340"/>
<text text-anchor="start" x="340.5" y="-346.8" font-family="Times,serif" font-size="14.00">...</text>
<polygon fill="none" stroke="black" points="363,-340 363,-361 487,-361 487,-340 363,-340"/>
<text text-anchor="start" x="418" y="-346.8" font-family="Times,serif" font-size="14.00">...</text>
<polygon fill="none" stroke="black" points="487,-340 487,-361 590,-361 590,-340 487,-340"/>
<text text-anchor="start" x="490" y="-346.8" font-family="Times,serif" font-size="14.00">ProtocolBody</text>
<polygon fill="none" stroke="black" points="590,-340 590,-361 724,-361 724,-340 590,-340"/>
<text text-anchor="start" x="612.5" y="-346.8" font-family="Times,serif" font-size="14.00">next_header</text>
</g>
<!-- protocol_body__seq_body_switch&#45;&gt;option_hop_by_hop__seq -->
<g id="edge6" class="edge"><title>protocol_body__seq_body_switch:case4&#45;&gt;option_hop_by_hop__seq</title>
<path fill="none" stroke="black" stroke-width="2" d="M1502.5,-324C1527.39,-324 1519.26,-285.444 1501.5,-268 1391.95,-160.394 1279.74,-177.074 1156,-268 1112.84,-299.713 1162.89,-350.923 1120,-383 1013.89,-462.36 864.474,-464.209 742.428,-446.548"/>
<polygon fill="black" stroke="black" stroke-width="2" points="742.61,-443.036 732.201,-445.014 741.571,-449.959 742.61,-443.036"/>
</g>
<!-- tcp_segment__seq -->
<g id="node6" class="node"><title>tcp_segment__seq</title>
<text text-anchor="middle" x="1668" y="-230.3" font-family="Times,serif" font-size="14.00">tcp_segment__seq</text>
</g>
<!-- protocol_body__seq_body_switch&#45;&gt;tcp_segment__seq -->
<g id="edge2" class="edge"><title>protocol_body__seq_body_switch:case0&#45;&gt;tcp_segment__seq</title>
<path fill="none" stroke="black" stroke-width="2" d="M1502.5,-409C1505.03,-409 1598.38,-308.305 1643.3,-259.679"/>
<polygon fill="black" stroke="black" stroke-width="2" points="1646.12,-261.79 1650.33,-252.069 1640.98,-257.04 1646.12,-261.79"/>
</g>
<!-- icmp_packet__seq -->
<g id="node7" class="node"><title>icmp_packet__seq</title>
<text text-anchor="middle" x="1668" y="-176.3" font-family="Times,serif" font-size="14.00">icmp_packet__seq</text>
</g>
<!-- protocol_body__seq_body_switch&#45;&gt;icmp_packet__seq -->
<g id="edge4" class="edge"><title>protocol_body__seq_body_switch:case2&#45;&gt;icmp_packet__seq</title>
<path fill="none" stroke="black" stroke-width="2" d="M1502.5,-367C1577,-367 1497.97,-257.77 1552.5,-207 1561.43,-198.682 1572.44,-192.776 1584.06,-188.61"/>
<polygon fill="black" stroke="black" stroke-width="2" points="1585.44,-191.843 1593.93,-185.504 1583.34,-185.166 1585.44,-191.843"/>
</g>
<!-- udp_datagram__seq -->
<g id="node8" class="node"><title>udp_datagram__seq</title>
<text text-anchor="middle" x="1668" y="-122.3" font-family="Times,serif" font-size="14.00">udp_datagram__seq</text>
</g>
<!-- protocol_body__seq_body_switch&#45;&gt;udp_datagram__seq -->
<g id="edge5" class="edge"><title>protocol_body__seq_body_switch:case3&#45;&gt;udp_datagram__seq</title>
<path fill="none" stroke="black" stroke-width="2" d="M1502.5,-345C1590.68,-345 1489.43,-214.625 1552.5,-153 1559.92,-145.753 1568.9,-140.318 1578.53,-136.263"/>
<polygon fill="black" stroke="black" stroke-width="2" points="1579.76,-139.536 1587.93,-132.782 1577.33,-132.972 1579.76,-139.536"/>
</g>
<!-- ipv6_packet__seq -->
<g id="node9" class="node"><title>ipv6_packet__seq</title>
<text text-anchor="middle" x="1668" y="-68.3" font-family="Times,serif" font-size="14.00">ipv6_packet__seq</text>
</g>
<!-- protocol_body__seq_body_switch&#45;&gt;ipv6_packet__seq -->
<g id="edge7" class="edge"><title>protocol_body__seq_body_switch:case5&#45;&gt;ipv6_packet__seq</title>
<path fill="none" stroke="black" stroke-width="2" d="M1502.5,-303C1595.85,-303 1486.2,-164.718 1552.5,-99 1561.92,-89.6621 1573.93,-83.3243 1586.61,-79.0655"/>
<polygon fill="black" stroke="black" stroke-width="2" points="1587.79,-82.367 1596.4,-76.1988 1585.82,-75.6488 1587.79,-82.367"/>
</g>
<!-- ipv4_packet__seq -->
<g id="node10" class="node"><title>ipv4_packet__seq</title>
<text text-anchor="middle" x="1668" y="-14.3" font-family="Times,serif" font-size="14.00">ipv4_packet__seq</text>
</g>
<!-- protocol_body__seq_body_switch&#45;&gt;ipv4_packet__seq -->
<g id="edge8" class="edge"><title>protocol_body__seq_body_switch:case6&#45;&gt;ipv4_packet__seq</title>
<path fill="none" stroke="black" stroke-width="2" d="M1502.5,-282C1610.15,-282 1477.28,-122.016 1552.5,-45 1561.82,-35.4523 1573.85,-29.0196 1586.59,-24.7337"/>
<polygon fill="black" stroke="black" stroke-width="2" points="1587.82,-28.021 1596.43,-21.8587 1585.85,-21.3016 1587.82,-28.021"/>
</g>
<!-- option_hop_by_hop__seq&#45;&gt;protocol_body__seq -->
<g id="edge12" class="edge"><title>option_hop_by_hop__seq:next_header_type&#45;&gt;protocol_body__seq</title>
<path fill="none" stroke="black" stroke-width="2" d="M725,-350C768.776,-350 816.559,-349.866 859.546,-349.696"/>
<polygon fill="black" stroke="black" stroke-width="2" points="859.801,-353.195 869.787,-349.654 859.773,-346.195 859.801,-353.195"/>
</g>
<!-- option_hop_by_hop__seq&#45;&gt;option_hop_by_hop__seq -->
<g id="edge11" class="edge"><title>option_hop_by_hop__seq:hdr_ext_len_type&#45;&gt;option_hop_by_hop__seq:body_size</title>
<path fill="none" stroke="#404040" d="M694.217,-403.082C761.54,-429.398 735.684,-467.5 541,-467.5 353.353,-467.5 322.55,-417.431 380.852,-386.491"/>
<polygon fill="#404040" stroke="#404040" points="382.58,-389.545 390.093,-382.073 379.561,-383.229 382.58,-389.545"/>
</g>
<!-- protocol_body__params -->
<g id="node11" class="node"><title>protocol_body__params</title>
<text text-anchor="middle" x="93" y="-289.3" font-family="Times,serif" font-size="14.00">protocol_body__params</text>
</g>
<!-- protocol_body__params&#45;&gt;protocol_body__inst__protocol -->
<g id="edge10" class="edge"><title>protocol_body__params:protocol_num_type&#45;&gt;protocol_body__inst__protocol</title>
<path fill="none" stroke="#404040" d="M186.093,-293C194.302,-293 202.872,-293 211.722,-293"/>
<polygon fill="#404040" stroke="#404040" points="211.829,-296.5 221.829,-293 211.829,-289.5 211.829,-296.5"/>
</g>
</g>
</svg>
