<?xml version="1.0" encoding="UTF-8" standalone="no"?>
<!DOCTYPE svg PUBLIC "-//W3C//DTD SVG 1.1//EN"
 "http://www.w3.org/Graphics/SVG/1.1/DTD/svg11.dtd">
<!-- Generated by graphviz version 2.40.1 (20161225.0304)
 -->
<!-- Title: %3 Pages: 1 -->
<svg width="628pt" height="539pt"
 viewBox="0.00 0.00 628.00 539.00" xmlns="http://www.w3.org/2000/svg" xmlns:xlink="http://www.w3.org/1999/xlink">
<g id="graph0" class="graph" transform="scale(1 1) rotate(0) translate(4 535)">
<title>%3</title>
<polygon fill="#ffffff" stroke="transparent" points="-4,4 -4,-535 624,-535 624,4 -4,4"/>
<g id="clust1" class="cluster">
<title>cluster__hccapx</title>
<polygon fill="none" stroke="#000000" stroke-dasharray="1,5" points="8,-8 8,-523 612,-523 612,-8 8,-8"/>
<text text-anchor="middle" x="310" y="-507.8" font-family="Times,serif" font-size="14.00" fill="#000000">Hccapx</text>
</g>
<g id="clust2" class="cluster">
<title>cluster__hccapx_record</title>
<polygon fill="none" stroke="#000000" stroke-dasharray="1,5" points="246,-16 246,-492 604,-492 604,-16 246,-16"/>
<text text-anchor="middle" x="425" y="-476.8" font-family="Times,serif" font-size="14.00" fill="#000000">Hccapx::HccapxRecord</text>
</g>
<!-- hccapx__seq -->
<g id="node1" class="node">
<title>hccapx__seq</title>
<polygon fill="#e0ffe0" stroke="transparent" points="24,-217 24,-238 49,-238 49,-217 24,-217"/>
<polygon fill="none" stroke="#000000" points="24,-217 24,-238 49,-238 49,-217 24,-217"/>
<text text-anchor="start" x="27" y="-223.8" font-family="Times,serif" font-size="14.00" fill="#000000">pos</text>
<polygon fill="#e0ffe0" stroke="transparent" points="49,-217 49,-238 77,-238 77,-217 49,-217"/>
<polygon fill="none" stroke="#000000" points="49,-217 49,-238 77,-238 77,-217 49,-217"/>
<text text-anchor="start" x="52" y="-223.8" font-family="Times,serif" font-size="14.00" fill="#000000">size</text>
<polygon fill="#e0ffe0" stroke="transparent" points="77,-217 77,-238 164,-238 164,-217 77,-217"/>
<polygon fill="none" stroke="#000000" points="77,-217 77,-238 164,-238 164,-217 77,-217"/>
<text text-anchor="start" x="108.5" y="-223.8" font-family="Times,serif" font-size="14.00" fill="#000000">type</text>
<polygon fill="#e0ffe0" stroke="transparent" points="164,-217 164,-238 210,-238 210,-217 164,-217"/>
<polygon fill="none" stroke="#000000" points="164,-217 164,-238 210,-238 210,-217 164,-217"/>
<text text-anchor="start" x="181.5" y="-223.8" font-family="Times,serif" font-size="14.00" fill="#000000">id</text>
<polygon fill="none" stroke="#000000" points="24,-196 24,-217 49,-217 49,-196 24,-196"/>
<text text-anchor="start" x="33" y="-202.8" font-family="Times,serif" font-size="14.00" fill="#000000">0</text>
<polygon fill="none" stroke="#000000" points="49,-196 49,-217 77,-217 77,-196 49,-196"/>
<text text-anchor="start" x="57" y="-202.8" font-family="Times,serif" font-size="14.00" fill="#000000">...</text>
<polygon fill="none" stroke="#000000" points="77,-196 77,-217 164,-217 164,-196 77,-196"/>
<text text-anchor="start" x="80" y="-202.8" font-family="Times,serif" font-size="14.00" fill="#000000">HccapxRecord</text>
<polygon fill="none" stroke="#000000" points="164,-196 164,-217 210,-217 210,-196 164,-196"/>
<text text-anchor="start" x="167" y="-202.8" font-family="Times,serif" font-size="14.00" fill="#000000">records</text>
<polygon fill="none" stroke="#000000" points="24,-175 24,-196 210,-196 210,-175 24,-175"/>
<text text-anchor="start" x="53.5" y="-181.8" font-family="Times,serif" font-size="14.00" fill="#000000">repeat to end of stream</text>
</g>
<!-- hccapx_record__seq -->
<g id="node2" class="node">
<title>hccapx_record__seq</title>
<polygon fill="#e0ffe0" stroke="transparent" points="262,-363 262,-384 287,-384 287,-363 262,-363"/>
<polygon fill="none" stroke="#000000" points="262,-363 262,-384 287,-384 287,-363 262,-363"/>
<text text-anchor="start" x="265" y="-369.8" font-family="Times,serif" font-size="14.00" fill="#000000">pos</text>
<polygon fill="#e0ffe0" stroke="transparent" points="287,-363 287,-384 387,-384 387,-363 287,-363"/>
<polygon fill="none" stroke="#000000" points="287,-363 287,-384 387,-384 387,-363 287,-363"/>
<text text-anchor="start" x="326" y="-369.8" font-family="Times,serif" font-size="14.00" fill="#000000">size</text>
<polygon fill="#e0ffe0" stroke="transparent" points="387,-363 387,-384 459,-384 459,-363 387,-363"/>
<polygon fill="none" stroke="#000000" points="387,-363 387,-384 459,-384 459,-363 387,-363"/>
<text text-anchor="start" x="411" y="-369.8" font-family="Times,serif" font-size="14.00" fill="#000000">type</text>
<polygon fill="#e0ffe0" stroke="transparent" points="459,-363 459,-384 588,-384 588,-363 459,-363"/>
<polygon fill="none" stroke="#000000" points="459,-363 459,-384 588,-384 588,-363 459,-363"/>
<text text-anchor="start" x="518" y="-369.8" font-family="Times,serif" font-size="14.00" fill="#000000">id</text>
<polygon fill="none" stroke="#000000" points="262,-342 262,-363 287,-363 287,-342 262,-342"/>
<text text-anchor="start" x="271" y="-348.8" font-family="Times,serif" font-size="14.00" fill="#000000">0</text>
<polygon fill="none" stroke="#000000" points="287,-342 287,-363 387,-363 387,-342 287,-342"/>
<text text-anchor="start" x="333.5" y="-348.8" font-family="Times,serif" font-size="14.00" fill="#000000">4</text>
<polygon fill="none" stroke="#000000" points="387,-342 387,-363 459,-363 459,-342 387,-342"/>
<text text-anchor="start" x="390" y="-348.8" font-family="Times,serif" font-size="14.00" fill="#000000">48 43 50 58</text>
<polygon fill="none" stroke="#000000" points="459,-342 459,-363 588,-363 588,-342 459,-342"/>
<text text-anchor="start" x="506.5" y="-348.8" font-family="Times,serif" font-size="14.00" fill="#000000">magic</text>
<polygon fill="none" stroke="#000000" points="262,-321 262,-342 287,-342 287,-321 262,-321"/>
<text text-anchor="start" x="271" y="-327.8" font-family="Times,serif" font-size="14.00" fill="#000000">4</text>
<polygon fill="none" stroke="#000000" points="287,-321 287,-342 387,-342 387,-321 287,-321"/>
<text text-anchor="start" x="333.5" y="-327.8" font-family="Times,serif" font-size="14.00" fill="#000000">4</text>
<polygon fill="none" stroke="#000000" points="387,-321 387,-342 459,-342 459,-321 387,-321"/>
<text text-anchor="start" x="411" y="-327.8" font-family="Times,serif" font-size="14.00" fill="#000000">u4le</text>
<polygon fill="none" stroke="#000000" points="459,-321 459,-342 588,-342 588,-321 459,-321"/>
<text text-anchor="start" x="503.5" y="-327.8" font-family="Times,serif" font-size="14.00" fill="#000000">version</text>
<polygon fill="none" stroke="#000000" points="262,-300 262,-321 287,-321 287,-300 262,-300"/>
<text text-anchor="start" x="271" y="-306.8" font-family="Times,serif" font-size="14.00" fill="#000000">8</text>
<polygon fill="none" stroke="#000000" points="287,-300 287,-321 387,-321 387,-300 287,-300"/>
<text text-anchor="start" x="330" y="-306.8" font-family="Times,serif" font-size="14.00" fill="#000000">1b</text>
<polygon fill="none" stroke="#000000" points="387,-300 387,-321 459,-321 459,-300 387,-300"/>
<text text-anchor="start" x="394.5" y="-306.8" font-family="Times,serif" font-size="14.00" fill="#000000">BitsType1</text>
<polygon fill="none" stroke="#000000" points="459,-300 459,-321 588,-321 588,-300 459,-300"/>
<text text-anchor="start" x="462" y="-306.8" font-family="Times,serif" font-size="14.00" fill="#000000">ignore_replay_counter</text>
<polygon fill="none" stroke="#000000" points="262,-279 262,-300 287,-300 287,-279 262,-279"/>
<text text-anchor="start" x="265.5" y="-285.8" font-family="Times,serif" font-size="14.00" fill="#000000">8:1</text>
<polygon fill="none" stroke="#000000" points="287,-279 287,-300 387,-300 387,-279 287,-279"/>
<text text-anchor="start" x="330" y="-285.8" font-family="Times,serif" font-size="14.00" fill="#000000">7b</text>
<polygon fill="none" stroke="#000000" points="387,-279 387,-300 459,-300 459,-279 387,-279"/>
<text text-anchor="start" x="416" y="-285.8" font-family="Times,serif" font-size="14.00" fill="#000000">b7</text>
<polygon fill="none" stroke="#000000" points="459,-279 459,-300 588,-300 588,-279 459,-279"/>
<text text-anchor="start" x="486" y="-285.8" font-family="Times,serif" font-size="14.00" fill="#000000">message_pair</text>
<polygon fill="none" stroke="#000000" points="262,-258 262,-279 287,-279 287,-258 262,-258"/>
<text text-anchor="start" x="271" y="-264.8" font-family="Times,serif" font-size="14.00" fill="#000000">9</text>
<polygon fill="none" stroke="#000000" points="287,-258 287,-279 387,-279 387,-258 287,-258"/>
<text text-anchor="start" x="333.5" y="-264.8" font-family="Times,serif" font-size="14.00" fill="#000000">1</text>
<polygon fill="none" stroke="#000000" points="387,-258 387,-279 459,-279 459,-258 387,-258"/>
<text text-anchor="start" x="416" y="-264.8" font-family="Times,serif" font-size="14.00" fill="#000000">u1</text>
<polygon fill="none" stroke="#000000" points="459,-258 459,-279 588,-279 588,-258 459,-258"/>
<text text-anchor="start" x="498" y="-264.8" font-family="Times,serif" font-size="14.00" fill="#000000">len_essid</text>
<polygon fill="none" stroke="#000000" points="262,-237 262,-258 287,-258 287,-237 262,-237"/>
<text text-anchor="start" x="267.5" y="-243.8" font-family="Times,serif" font-size="14.00" fill="#000000">10</text>
<polygon fill="none" stroke="#000000" points="287,-237 287,-258 387,-258 387,-237 287,-237"/>
<text text-anchor="start" x="311.5" y="-243.8" font-family="Times,serif" font-size="14.00" fill="#000000">len_essid</text>
<polygon fill="none" stroke="#000000" points="387,-237 387,-258 459,-258 459,-237 387,-237"/>
<polygon fill="none" stroke="#000000" points="459,-237 459,-258 588,-258 588,-237 459,-237"/>
<text text-anchor="start" x="509.5" y="-243.8" font-family="Times,serif" font-size="14.00" fill="#000000">essid</text>
<polygon fill="none" stroke="#000000" points="262,-216 262,-237 287,-237 287,-216 262,-216"/>
<text text-anchor="start" x="268.5" y="-222.8" font-family="Times,serif" font-size="14.00" fill="#000000">...</text>
<polygon fill="none" stroke="#000000" points="287,-216 287,-237 387,-237 387,-216 287,-216"/>
<text text-anchor="start" x="294.5" y="-222.8" font-family="Times,serif" font-size="14.00" fill="#000000">(32 &#45; len_essid)</text>
<polygon fill="none" stroke="#000000" points="387,-216 387,-237 459,-237 459,-216 387,-216"/>
<polygon fill="none" stroke="#000000" points="459,-216 459,-237 588,-237 588,-216 459,-216"/>
<text text-anchor="start" x="498" y="-222.8" font-family="Times,serif" font-size="14.00" fill="#000000">padding1</text>
<polygon fill="none" stroke="#000000" points="262,-195 262,-216 287,-216 287,-195 262,-195"/>
<text text-anchor="start" x="268.5" y="-201.8" font-family="Times,serif" font-size="14.00" fill="#000000">...</text>
<polygon fill="none" stroke="#000000" points="287,-195 287,-216 387,-216 387,-195 287,-195"/>
<text text-anchor="start" x="333.5" y="-201.8" font-family="Times,serif" font-size="14.00" fill="#000000">1</text>
<polygon fill="none" stroke="#000000" points="387,-195 387,-216 459,-216 459,-195 387,-195"/>
<text text-anchor="start" x="416" y="-201.8" font-family="Times,serif" font-size="14.00" fill="#000000">u1</text>
<polygon fill="none" stroke="#000000" points="459,-195 459,-216 588,-216 588,-195 459,-195"/>
<text text-anchor="start" x="505" y="-201.8" font-family="Times,serif" font-size="14.00" fill="#000000">keyver</text>
<polygon fill="none" stroke="#000000" points="262,-174 262,-195 287,-195 287,-174 262,-174"/>
<text text-anchor="start" x="268.5" y="-180.8" font-family="Times,serif" font-size="14.00" fill="#000000">...</text>
<polygon fill="none" stroke="#000000" points="287,-174 287,-195 387,-195 387,-174 287,-174"/>
<text text-anchor="start" x="330" y="-180.8" font-family="Times,serif" font-size="14.00" fill="#000000">16</text>
<polygon fill="none" stroke="#000000" points="387,-174 387,-195 459,-195 459,-174 387,-174"/>
<polygon fill="none" stroke="#000000" points="459,-174 459,-195 588,-195 588,-174 459,-174"/>
<text text-anchor="start" x="503" y="-180.8" font-family="Times,serif" font-size="14.00" fill="#000000">keymic</text>
<polygon fill="none" stroke="#000000" points="262,-153 262,-174 287,-174 287,-153 262,-153"/>
<text text-anchor="start" x="268.5" y="-159.8" font-family="Times,serif" font-size="14.00" fill="#000000">...</text>
<polygon fill="none" stroke="#000000" points="287,-153 287,-174 387,-174 387,-153 287,-153"/>
<text text-anchor="start" x="333.5" y="-159.8" font-family="Times,serif" font-size="14.00" fill="#000000">6</text>
<polygon fill="none" stroke="#000000" points="387,-153 387,-174 459,-174 459,-153 387,-153"/>
<polygon fill="none" stroke="#000000" points="459,-153 459,-174 588,-174 588,-153 459,-153"/>
<text text-anchor="start" x="502" y="-159.8" font-family="Times,serif" font-size="14.00" fill="#000000">mac_ap</text>
<polygon fill="none" stroke="#000000" points="262,-132 262,-153 287,-153 287,-132 262,-132"/>
<text text-anchor="start" x="268.5" y="-138.8" font-family="Times,serif" font-size="14.00" fill="#000000">...</text>
<polygon fill="none" stroke="#000000" points="287,-132 287,-153 387,-153 387,-132 287,-132"/>
<text text-anchor="start" x="330" y="-138.8" font-family="Times,serif" font-size="14.00" fill="#000000">32</text>
<polygon fill="none" stroke="#000000" points="387,-132 387,-153 459,-153 459,-132 387,-132"/>
<polygon fill="none" stroke="#000000" points="459,-132 459,-153 588,-153 588,-132 459,-132"/>
<text text-anchor="start" x="497.5" y="-138.8" font-family="Times,serif" font-size="14.00" fill="#000000">nonce_ap</text>
<polygon fill="none" stroke="#000000" points="262,-111 262,-132 287,-132 287,-111 262,-111"/>
<text text-anchor="start" x="268.5" y="-117.8" font-family="Times,serif" font-size="14.00" fill="#000000">...</text>
<polygon fill="none" stroke="#000000" points="287,-111 287,-132 387,-132 387,-111 287,-111"/>
<text text-anchor="start" x="333.5" y="-117.8" font-family="Times,serif" font-size="14.00" fill="#000000">6</text>
<polygon fill="none" stroke="#000000" points="387,-111 387,-132 459,-132 459,-111 387,-111"/>
<polygon fill="none" stroke="#000000" points="459,-111 459,-132 588,-132 588,-111 459,-111"/>
<text text-anchor="start" x="490" y="-117.8" font-family="Times,serif" font-size="14.00" fill="#000000">mac_station</text>
<polygon fill="none" stroke="#000000" points="262,-90 262,-111 287,-111 287,-90 262,-90"/>
<text text-anchor="start" x="268.5" y="-96.8" font-family="Times,serif" font-size="14.00" fill="#000000">...</text>
<polygon fill="none" stroke="#000000" points="287,-90 287,-111 387,-111 387,-90 287,-90"/>
<text text-anchor="start" x="330" y="-96.8" font-family="Times,serif" font-size="14.00" fill="#000000">32</text>
<polygon fill="none" stroke="#000000" points="387,-90 387,-111 459,-111 459,-90 387,-90"/>
<polygon fill="none" stroke="#000000" points="459,-90 459,-111 588,-111 588,-90 459,-90"/>
<text text-anchor="start" x="485.5" y="-96.8" font-family="Times,serif" font-size="14.00" fill="#000000">nonce_station</text>
<polygon fill="none" stroke="#000000" points="262,-69 262,-90 287,-90 287,-69 262,-69"/>
<text text-anchor="start" x="268.5" y="-75.8" font-family="Times,serif" font-size="14.00" fill="#000000">...</text>
<polygon fill="none" stroke="#000000" points="287,-69 287,-90 387,-90 387,-69 287,-69"/>
<text text-anchor="start" x="333.5" y="-75.8" font-family="Times,serif" font-size="14.00" fill="#000000">2</text>
<polygon fill="none" stroke="#000000" points="387,-69 387,-90 459,-90 459,-69 387,-69"/>
<text text-anchor="start" x="411" y="-75.8" font-family="Times,serif" font-size="14.00" fill="#000000">u2le</text>
<polygon fill="none" stroke="#000000" points="459,-69 459,-90 588,-90 588,-69 459,-69"/>
<text text-anchor="start" x="497" y="-75.8" font-family="Times,serif" font-size="14.00" fill="#000000">len_eapol</text>
<polygon fill="none" stroke="#000000" points="262,-48 262,-69 287,-69 287,-48 262,-48"/>
<text text-anchor="start" x="268.5" y="-54.8" font-family="Times,serif" font-size="14.00" fill="#000000">...</text>
<polygon fill="none" stroke="#000000" points="287,-48 287,-69 387,-69 387,-48 287,-48"/>
<text text-anchor="start" x="310.5" y="-54.8" font-family="Times,serif" font-size="14.00" fill="#000000">len_eapol</text>
<polygon fill="none" stroke="#000000" points="387,-48 387,-69 459,-69 459,-48 387,-48"/>
<polygon fill="none" stroke="#000000" points="459,-48 459,-69 588,-69 588,-48 459,-48"/>
<text text-anchor="start" x="508.5" y="-54.8" font-family="Times,serif" font-size="14.00" fill="#000000">eapol</text>
<polygon fill="none" stroke="#000000" points="262,-27 262,-48 287,-48 287,-27 262,-27"/>
<text text-anchor="start" x="268.5" y="-33.8" font-family="Times,serif" font-size="14.00" fill="#000000">...</text>
<polygon fill="none" stroke="#000000" points="287,-27 287,-48 387,-48 387,-27 287,-27"/>
<text text-anchor="start" x="290" y="-33.8" font-family="Times,serif" font-size="14.00" fill="#000000">(256 &#45; len_eapol)</text>
<polygon fill="none" stroke="#000000" points="387,-27 387,-48 459,-48 459,-27 387,-27"/>
<polygon fill="none" stroke="#000000" points="459,-27 459,-48 588,-48 588,-27 459,-27"/>
<text text-anchor="start" x="498" y="-33.8" font-family="Times,serif" font-size="14.00" fill="#000000">padding2</text>
</g>
<!-- hccapx__seq&#45;&gt;hccapx_record__seq -->
<g id="edge1" class="edge">
<title>hccapx__seq:records_type&#45;&gt;hccapx_record__seq</title>
<path fill="none" stroke="#000000" stroke-width="2" d="M210,-206C221.0426,-206 232.4043,-206 243.8638,-206"/>
<polygon fill="#000000" stroke="#000000" stroke-width="2" points="243.9539,-209.5001 253.9539,-206 243.9538,-202.5001 243.9539,-209.5001"/>
</g>
<!-- hccapx_record__seq&#45;&gt;hccapx_record__seq -->
<g id="edge2" class="edge">
<title>hccapx_record__seq:len_essid_type&#45;&gt;hccapx_record__seq:essid_size</title>
<path fill="none" stroke="#404040" d="M535.1225,-279.2015C600.5603,-342.8282 592.3418,-406.5 430.5,-406.5 274.6641,-406.5 261.2612,-329.9231 318.9008,-265.7212"/>
<polygon fill="#404040" stroke="#404040" points="321.5398,-268.0247 325.8775,-258.3585 316.4586,-263.2099 321.5398,-268.0247"/>
</g>
<!-- hccapx_record__seq&#45;&gt;hccapx_record__seq -->
<g id="edge3" class="edge">
<title>hccapx_record__seq:len_essid_type&#45;&gt;hccapx_record__seq:padding1_size</title>
<path fill="none" stroke="#404040" d="M535.1225,-279.2015C600.5603,-342.8282 592.3418,-406.5 430.5,-406.5 274.3434,-406.5 261.2066,-311.9923 319.2575,-244.7459"/>
<polygon fill="#404040" stroke="#404040" points="322.0943,-246.8314 326.2823,-237.0994 316.9395,-242.0956 322.0943,-246.8314"/>
</g>
<!-- hccapx_record__seq&#45;&gt;hccapx_record__seq -->
<g id="edge4" class="edge">
<title>hccapx_record__seq:len_eapol_type&#45;&gt;hccapx_record__seq:eapol_size</title>
<path fill="none" stroke="#404040" d="M534.7177,-90.1235C600.5935,-170.6676 592.6748,-406.5 430.5,-406.5 273.2319,-406.5 261.0269,-166.8551 320.5079,-77.2096"/>
<polygon fill="#404040" stroke="#404040" points="323.4195,-79.1571 326.4855,-69.0156 317.7644,-75.0317 323.4195,-79.1571"/>
</g>
<!-- hccapx_record__seq&#45;&gt;hccapx_record__seq -->
<g id="edge5" class="edge">
<title>hccapx_record__seq:len_eapol_type&#45;&gt;hccapx_record__seq:padding2_size</title>
<path fill="none" stroke="#404040" d="M534.7177,-90.1235C600.5935,-170.6676 592.6748,-406.5 430.5,-406.5 273.2319,-406.5 261.0269,-148.9881 320.5079,-56.5694"/>
<polygon fill="#404040" stroke="#404040" points="323.5473,-58.3345 326.4855,-48.1552 317.8407,-54.2805 323.5473,-58.3345"/>
</g>
</g>
</svg>
