<?xml version="1.0" encoding="UTF-8" standalone="no"?>
<!DOCTYPE svg PUBLIC "-//W3C//DTD SVG 1.1//EN"
 "http://www.w3.org/Graphics/SVG/1.1/DTD/svg11.dtd">
<!-- Generated by graphviz version 2.43.0 (0)
 -->
<!-- Title: %3 Pages: 1 -->
<svg width="856pt" height="539pt"
 viewBox="0.00 0.00 856.00 539.00" xmlns="http://www.w3.org/2000/svg" xmlns:xlink="http://www.w3.org/1999/xlink">
<g id="graph0" class="graph" transform="scale(1 1) rotate(0) translate(4 535)">
<title>%3</title>
<polygon fill="white" stroke="transparent" points="-4,4 -4,-535 852,-535 852,4 -4,4"/>
<g id="clust1" class="cluster">
<title>cluster__hccapx</title>
<polygon fill="none" stroke="black" stroke-dasharray="1,5" points="8,-8 8,-523 840,-523 840,-8 8,-8"/>
<text text-anchor="middle" x="424" y="-507.8" font-family="Times,serif" font-size="14.00">Hccapx</text>
</g>
<g id="clust2" class="cluster">
<title>cluster__hccapx_record</title>
<polygon fill="none" stroke="black" stroke-dasharray="1,5" points="295,-16 295,-492 832,-492 832,-16 295,-16"/>
<text text-anchor="middle" x="563.5" y="-476.8" font-family="Times,serif" font-size="14.00">Hccapx::HccapxRecord</text>
</g>
<!-- hccapx__seq -->
<g id="node1" class="node">
<title>hccapx__seq</title>
<polygon fill="#e0ffe0" stroke="transparent" points="24.5,-217 24.5,-238 55.5,-238 55.5,-217 24.5,-217"/>
<polygon fill="none" stroke="black" points="24.5,-217 24.5,-238 55.5,-238 55.5,-217 24.5,-217"/>
<text text-anchor="start" x="27.5" y="-223.8" font-family="Times,serif" font-size="14.00">pos</text>
<polygon fill="#e0ffe0" stroke="transparent" points="55.5,-217 55.5,-238 89.5,-238 89.5,-217 55.5,-217"/>
<polygon fill="none" stroke="black" points="55.5,-217 55.5,-238 89.5,-238 89.5,-217 55.5,-217"/>
<text text-anchor="start" x="58.5" y="-223.8" font-family="Times,serif" font-size="14.00">size</text>
<polygon fill="#e0ffe0" stroke="transparent" points="89.5,-217 89.5,-238 198.5,-238 198.5,-217 89.5,-217"/>
<polygon fill="none" stroke="black" points="89.5,-217 89.5,-238 198.5,-238 198.5,-217 89.5,-217"/>
<text text-anchor="start" x="128" y="-223.8" font-family="Times,serif" font-size="14.00">type</text>
<polygon fill="#e0ffe0" stroke="transparent" points="198.5,-217 198.5,-238 259.5,-238 259.5,-217 198.5,-217"/>
<polygon fill="none" stroke="black" points="198.5,-217 198.5,-238 259.5,-238 259.5,-217 198.5,-217"/>
<text text-anchor="start" x="222" y="-223.8" font-family="Times,serif" font-size="14.00">id</text>
<polygon fill="none" stroke="black" points="24.5,-196 24.5,-217 55.5,-217 55.5,-196 24.5,-196"/>
<text text-anchor="start" x="35" y="-202.8" font-family="Times,serif" font-size="14.00">0</text>
<polygon fill="none" stroke="black" points="55.5,-196 55.5,-217 89.5,-217 89.5,-196 55.5,-196"/>
<text text-anchor="start" x="65.5" y="-202.8" font-family="Times,serif" font-size="14.00">...</text>
<polygon fill="none" stroke="black" points="89.5,-196 89.5,-217 198.5,-217 198.5,-196 89.5,-196"/>
<text text-anchor="start" x="92.5" y="-202.8" font-family="Times,serif" font-size="14.00">HccapxRecord</text>
<polygon fill="none" stroke="black" points="198.5,-196 198.5,-217 259.5,-217 259.5,-196 198.5,-196"/>
<text text-anchor="start" x="201.5" y="-202.8" font-family="Times,serif" font-size="14.00">records</text>
<polygon fill="none" stroke="black" points="24.5,-175 24.5,-196 259.5,-196 259.5,-175 24.5,-175"/>
<text text-anchor="start" x="57.5" y="-181.8" font-family="Times,serif" font-size="14.00">repeat to end of stream</text>
</g>
<!-- hccapx_record__seq -->
<g id="node2" class="node">
<title>hccapx_record__seq</title>
<polygon fill="#e0ffe0" stroke="transparent" points="311.5,-363 311.5,-384 342.5,-384 342.5,-363 311.5,-363"/>
<polygon fill="none" stroke="black" points="311.5,-363 311.5,-384 342.5,-384 342.5,-363 311.5,-363"/>
<text text-anchor="start" x="314.5" y="-369.8" font-family="Times,serif" font-size="14.00">pos</text>
<polygon fill="#e0ffe0" stroke="transparent" points="342.5,-363 342.5,-384 466.5,-384 466.5,-363 342.5,-363"/>
<polygon fill="none" stroke="black" points="342.5,-363 342.5,-384 466.5,-384 466.5,-363 342.5,-363"/>
<text text-anchor="start" x="390.5" y="-369.8" font-family="Times,serif" font-size="14.00">size</text>
<polygon fill="#e0ffe0" stroke="transparent" points="466.5,-363 466.5,-384 650.5,-384 650.5,-363 466.5,-363"/>
<polygon fill="none" stroke="black" points="466.5,-363 466.5,-384 650.5,-384 650.5,-363 466.5,-363"/>
<text text-anchor="start" x="542.5" y="-369.8" font-family="Times,serif" font-size="14.00">type</text>
<polygon fill="#e0ffe0" stroke="transparent" points="650.5,-363 650.5,-384 816.5,-384 816.5,-363 650.5,-363"/>
<polygon fill="none" stroke="black" points="650.5,-363 650.5,-384 816.5,-384 816.5,-363 650.5,-363"/>
<text text-anchor="start" x="726.5" y="-369.8" font-family="Times,serif" font-size="14.00">id</text>
<polygon fill="none" stroke="black" points="311.5,-342 311.5,-363 342.5,-363 342.5,-342 311.5,-342"/>
<text text-anchor="start" x="322" y="-348.8" font-family="Times,serif" font-size="14.00">0</text>
<polygon fill="none" stroke="black" points="342.5,-342 342.5,-363 466.5,-363 466.5,-342 342.5,-342"/>
<text text-anchor="start" x="399.5" y="-348.8" font-family="Times,serif" font-size="14.00">4</text>
<polygon fill="none" stroke="black" points="466.5,-342 466.5,-363 650.5,-363 650.5,-342 466.5,-342"/>
<polygon fill="none" stroke="black" points="650.5,-342 650.5,-363 816.5,-363 816.5,-342 650.5,-342"/>
<text text-anchor="start" x="712" y="-348.8" font-family="Times,serif" font-size="14.00">magic</text>
<polygon fill="none" stroke="black" points="311.5,-321 311.5,-342 342.5,-342 342.5,-321 311.5,-321"/>
<text text-anchor="start" x="322" y="-327.8" font-family="Times,serif" font-size="14.00">4</text>
<polygon fill="none" stroke="black" points="342.5,-321 342.5,-342 466.5,-342 466.5,-321 342.5,-321"/>
<text text-anchor="start" x="399.5" y="-327.8" font-family="Times,serif" font-size="14.00">4</text>
<polygon fill="none" stroke="black" points="466.5,-321 466.5,-342 650.5,-342 650.5,-321 466.5,-321"/>
<text text-anchor="start" x="543" y="-327.8" font-family="Times,serif" font-size="14.00">u4le</text>
<polygon fill="none" stroke="black" points="650.5,-321 650.5,-342 816.5,-342 816.5,-321 650.5,-321"/>
<text text-anchor="start" x="707" y="-327.8" font-family="Times,serif" font-size="14.00">version</text>
<polygon fill="none" stroke="black" points="311.5,-300 311.5,-321 342.5,-321 342.5,-300 311.5,-300"/>
<text text-anchor="start" x="322" y="-306.8" font-family="Times,serif" font-size="14.00">8</text>
<polygon fill="none" stroke="black" points="342.5,-300 342.5,-321 466.5,-321 466.5,-300 342.5,-300"/>
<text text-anchor="start" x="395" y="-306.8" font-family="Times,serif" font-size="14.00">1b</text>
<polygon fill="none" stroke="black" points="466.5,-300 466.5,-321 650.5,-321 650.5,-300 466.5,-300"/>
<text text-anchor="start" x="469.5" y="-306.8" font-family="Times,serif" font-size="14.00">BitsType1(BigBitEndian)</text>
<polygon fill="none" stroke="black" points="650.5,-300 650.5,-321 816.5,-321 816.5,-300 650.5,-300"/>
<text text-anchor="start" x="653.5" y="-306.8" font-family="Times,serif" font-size="14.00">ignore_replay_counter</text>
<polygon fill="none" stroke="black" points="311.5,-279 311.5,-300 342.5,-300 342.5,-279 311.5,-279"/>
<text text-anchor="start" x="315.5" y="-285.8" font-family="Times,serif" font-size="14.00">8:1</text>
<polygon fill="none" stroke="black" points="342.5,-279 342.5,-300 466.5,-300 466.5,-279 342.5,-279"/>
<text text-anchor="start" x="395" y="-285.8" font-family="Times,serif" font-size="14.00">7b</text>
<polygon fill="none" stroke="black" points="466.5,-279 466.5,-300 650.5,-300 650.5,-279 466.5,-279"/>
<text text-anchor="start" x="549" y="-285.8" font-family="Times,serif" font-size="14.00">b7</text>
<polygon fill="none" stroke="black" points="650.5,-279 650.5,-300 816.5,-300 816.5,-279 650.5,-279"/>
<text text-anchor="start" x="684.5" y="-285.8" font-family="Times,serif" font-size="14.00">message_pair</text>
<polygon fill="none" stroke="black" points="311.5,-258 311.5,-279 342.5,-279 342.5,-258 311.5,-258"/>
<text text-anchor="start" x="322" y="-264.8" font-family="Times,serif" font-size="14.00">9</text>
<polygon fill="none" stroke="black" points="342.5,-258 342.5,-279 466.5,-279 466.5,-258 342.5,-258"/>
<text text-anchor="start" x="399.5" y="-264.8" font-family="Times,serif" font-size="14.00">1</text>
<polygon fill="none" stroke="black" points="466.5,-258 466.5,-279 650.5,-279 650.5,-258 466.5,-258"/>
<text text-anchor="start" x="549" y="-264.8" font-family="Times,serif" font-size="14.00">u1</text>
<polygon fill="none" stroke="black" points="650.5,-258 650.5,-279 816.5,-279 816.5,-258 650.5,-258"/>
<text text-anchor="start" x="700.5" y="-264.8" font-family="Times,serif" font-size="14.00">len_essid</text>
<polygon fill="none" stroke="black" points="311.5,-237 311.5,-258 342.5,-258 342.5,-237 311.5,-237"/>
<text text-anchor="start" x="317.5" y="-243.8" font-family="Times,serif" font-size="14.00">10</text>
<polygon fill="none" stroke="black" points="342.5,-237 342.5,-258 466.5,-258 466.5,-237 342.5,-237"/>
<text text-anchor="start" x="371.5" y="-243.8" font-family="Times,serif" font-size="14.00">len_essid</text>
<polygon fill="none" stroke="black" points="466.5,-237 466.5,-258 650.5,-258 650.5,-237 466.5,-237"/>
<polygon fill="none" stroke="black" points="650.5,-237 650.5,-258 816.5,-258 816.5,-237 650.5,-237"/>
<text text-anchor="start" x="715" y="-243.8" font-family="Times,serif" font-size="14.00">essid</text>
<polygon fill="none" stroke="black" points="311.5,-216 311.5,-237 342.5,-237 342.5,-216 311.5,-216"/>
<text text-anchor="start" x="320" y="-222.8" font-family="Times,serif" font-size="14.00">...</text>
<polygon fill="none" stroke="black" points="342.5,-216 342.5,-237 466.5,-237 466.5,-216 342.5,-216"/>
<text text-anchor="start" x="350.5" y="-222.8" font-family="Times,serif" font-size="14.00">(32 &#45; len_essid)</text>
<polygon fill="none" stroke="black" points="466.5,-216 466.5,-237 650.5,-237 650.5,-216 466.5,-216"/>
<polygon fill="none" stroke="black" points="650.5,-216 650.5,-237 816.5,-237 816.5,-216 650.5,-216"/>
<text text-anchor="start" x="700" y="-222.8" font-family="Times,serif" font-size="14.00">padding1</text>
<polygon fill="none" stroke="black" points="311.5,-195 311.5,-216 342.5,-216 342.5,-195 311.5,-195"/>
<text text-anchor="start" x="320" y="-201.8" font-family="Times,serif" font-size="14.00">...</text>
<polygon fill="none" stroke="black" points="342.5,-195 342.5,-216 466.5,-216 466.5,-195 342.5,-195"/>
<text text-anchor="start" x="399.5" y="-201.8" font-family="Times,serif" font-size="14.00">1</text>
<polygon fill="none" stroke="black" points="466.5,-195 466.5,-216 650.5,-216 650.5,-195 466.5,-195"/>
<text text-anchor="start" x="549" y="-201.8" font-family="Times,serif" font-size="14.00">u1</text>
<polygon fill="none" stroke="black" points="650.5,-195 650.5,-216 816.5,-216 816.5,-195 650.5,-195"/>
<text text-anchor="start" x="709" y="-201.8" font-family="Times,serif" font-size="14.00">keyver</text>
<polygon fill="none" stroke="black" points="311.5,-174 311.5,-195 342.5,-195 342.5,-174 311.5,-174"/>
<text text-anchor="start" x="320" y="-180.8" font-family="Times,serif" font-size="14.00">...</text>
<polygon fill="none" stroke="black" points="342.5,-174 342.5,-195 466.5,-195 466.5,-174 342.5,-174"/>
<text text-anchor="start" x="395" y="-180.8" font-family="Times,serif" font-size="14.00">16</text>
<polygon fill="none" stroke="black" points="466.5,-174 466.5,-195 650.5,-195 650.5,-174 466.5,-174"/>
<polygon fill="none" stroke="black" points="650.5,-174 650.5,-195 816.5,-195 816.5,-174 650.5,-174"/>
<text text-anchor="start" x="708" y="-180.8" font-family="Times,serif" font-size="14.00">keymic</text>
<polygon fill="none" stroke="black" points="311.5,-153 311.5,-174 342.5,-174 342.5,-153 311.5,-153"/>
<text text-anchor="start" x="320" y="-159.8" font-family="Times,serif" font-size="14.00">...</text>
<polygon fill="none" stroke="black" points="342.5,-153 342.5,-174 466.5,-174 466.5,-153 342.5,-153"/>
<text text-anchor="start" x="399.5" y="-159.8" font-family="Times,serif" font-size="14.00">6</text>
<polygon fill="none" stroke="black" points="466.5,-153 466.5,-174 650.5,-174 650.5,-153 466.5,-153"/>
<polygon fill="none" stroke="black" points="650.5,-153 650.5,-174 816.5,-174 816.5,-153 650.5,-153"/>
<text text-anchor="start" x="706.5" y="-159.8" font-family="Times,serif" font-size="14.00">mac_ap</text>
<polygon fill="none" stroke="black" points="311.5,-132 311.5,-153 342.5,-153 342.5,-132 311.5,-132"/>
<text text-anchor="start" x="320" y="-138.8" font-family="Times,serif" font-size="14.00">...</text>
<polygon fill="none" stroke="black" points="342.5,-132 342.5,-153 466.5,-153 466.5,-132 342.5,-132"/>
<text text-anchor="start" x="395" y="-138.8" font-family="Times,serif" font-size="14.00">32</text>
<polygon fill="none" stroke="black" points="466.5,-132 466.5,-153 650.5,-153 650.5,-132 466.5,-132"/>
<polygon fill="none" stroke="black" points="650.5,-132 650.5,-153 816.5,-153 816.5,-132 650.5,-132"/>
<text text-anchor="start" x="700" y="-138.8" font-family="Times,serif" font-size="14.00">nonce_ap</text>
<polygon fill="none" stroke="black" points="311.5,-111 311.5,-132 342.5,-132 342.5,-111 311.5,-111"/>
<text text-anchor="start" x="320" y="-117.8" font-family="Times,serif" font-size="14.00">...</text>
<polygon fill="none" stroke="black" points="342.5,-111 342.5,-132 466.5,-132 466.5,-111 342.5,-111"/>
<text text-anchor="start" x="399.5" y="-117.8" font-family="Times,serif" font-size="14.00">6</text>
<polygon fill="none" stroke="black" points="466.5,-111 466.5,-132 650.5,-132 650.5,-111 466.5,-111"/>
<polygon fill="none" stroke="black" points="650.5,-111 650.5,-132 816.5,-132 816.5,-111 650.5,-111"/>
<text text-anchor="start" x="690.5" y="-117.8" font-family="Times,serif" font-size="14.00">mac_station</text>
<polygon fill="none" stroke="black" points="311.5,-90 311.5,-111 342.5,-111 342.5,-90 311.5,-90"/>
<text text-anchor="start" x="320" y="-96.8" font-family="Times,serif" font-size="14.00">...</text>
<polygon fill="none" stroke="black" points="342.5,-90 342.5,-111 466.5,-111 466.5,-90 342.5,-90"/>
<text text-anchor="start" x="395" y="-96.8" font-family="Times,serif" font-size="14.00">32</text>
<polygon fill="none" stroke="black" points="466.5,-90 466.5,-111 650.5,-111 650.5,-90 466.5,-90"/>
<polygon fill="none" stroke="black" points="650.5,-90 650.5,-111 816.5,-111 816.5,-90 650.5,-90"/>
<text text-anchor="start" x="684" y="-96.8" font-family="Times,serif" font-size="14.00">nonce_station</text>
<polygon fill="none" stroke="black" points="311.5,-69 311.5,-90 342.5,-90 342.5,-69 311.5,-69"/>
<text text-anchor="start" x="320" y="-75.8" font-family="Times,serif" font-size="14.00">...</text>
<polygon fill="none" stroke="black" points="342.5,-69 342.5,-90 466.5,-90 466.5,-69 342.5,-69"/>
<text text-anchor="start" x="399.5" y="-75.8" font-family="Times,serif" font-size="14.00">2</text>
<polygon fill="none" stroke="black" points="466.5,-69 466.5,-90 650.5,-90 650.5,-69 466.5,-69"/>
<text text-anchor="start" x="543" y="-75.8" font-family="Times,serif" font-size="14.00">u2le</text>
<polygon fill="none" stroke="black" points="650.5,-69 650.5,-90 816.5,-90 816.5,-69 650.5,-69"/>
<text text-anchor="start" x="700" y="-75.8" font-family="Times,serif" font-size="14.00">len_eapol</text>
<polygon fill="none" stroke="black" points="311.5,-48 311.5,-69 342.5,-69 342.5,-48 311.5,-48"/>
<text text-anchor="start" x="320" y="-54.8" font-family="Times,serif" font-size="14.00">...</text>
<polygon fill="none" stroke="black" points="342.5,-48 342.5,-69 466.5,-69 466.5,-48 342.5,-48"/>
<text text-anchor="start" x="371" y="-54.8" font-family="Times,serif" font-size="14.00">len_eapol</text>
<polygon fill="none" stroke="black" points="466.5,-48 466.5,-69 650.5,-69 650.5,-48 466.5,-48"/>
<polygon fill="none" stroke="black" points="650.5,-48 650.5,-69 816.5,-69 816.5,-48 650.5,-48"/>
<text text-anchor="start" x="714" y="-54.8" font-family="Times,serif" font-size="14.00">eapol</text>
<polygon fill="none" stroke="black" points="311.5,-27 311.5,-48 342.5,-48 342.5,-27 311.5,-27"/>
<text text-anchor="start" x="320" y="-33.8" font-family="Times,serif" font-size="14.00">...</text>
<polygon fill="none" stroke="black" points="342.5,-27 342.5,-48 466.5,-48 466.5,-27 342.5,-27"/>
<text text-anchor="start" x="345.5" y="-33.8" font-family="Times,serif" font-size="14.00">(256 &#45; len_eapol)</text>
<polygon fill="none" stroke="black" points="466.5,-27 466.5,-48 650.5,-48 650.5,-27 466.5,-27"/>
<polygon fill="none" stroke="black" points="650.5,-27 650.5,-48 816.5,-48 816.5,-27 650.5,-27"/>
<text text-anchor="start" x="700" y="-33.8" font-family="Times,serif" font-size="14.00">padding2</text>
</g>
<!-- hccapx__seq&#45;&gt;hccapx_record__seq -->
<g id="edge1" class="edge">
<title>hccapx__seq:records_type&#45;&gt;hccapx_record__seq</title>
<path fill="none" stroke="black" stroke-width="2" d="M260.5,-206C270.93,-206 281.56,-206 292.3,-206"/>
<polygon fill="black" stroke="black" stroke-width="2" points="292.63,-209.5 302.63,-206 292.63,-202.5 292.63,-209.5"/>
</g>
<!-- hccapx_record__seq&#45;&gt;hccapx_record__seq -->
<g id="edge2" class="edge">
<title>hccapx_record__seq:len_essid_type&#45;&gt;hccapx_record__seq:essid_size</title>
<path fill="none" stroke="#404040" d="M748.46,-279.01C838.33,-342.7 825.55,-406.5 569,-406.5 320.46,-406.5 300.71,-328.83 381.42,-264.35"/>
<polygon fill="#404040" stroke="#404040" points="383.71,-267 389.54,-258.16 379.47,-261.44 383.71,-267"/>
</g>
<!-- hccapx_record__seq&#45;&gt;hccapx_record__seq -->
<g id="edge3" class="edge">
<title>hccapx_record__seq:len_essid_type&#45;&gt;hccapx_record__seq:padding1_size</title>
<path fill="none" stroke="#404040" d="M748.46,-279.01C838.33,-342.7 825.55,-406.5 569,-406.5 320.21,-406.5 300.67,-310.84 381.67,-243.52"/>
<polygon fill="#404040" stroke="#404040" points="384.13,-246.04 389.82,-237.1 379.8,-240.54 384.13,-246.04"/>
</g>
<!-- hccapx_record__seq&#45;&gt;hccapx_record__seq -->
<g id="edge4" class="edge">
<title>hccapx_record__seq:len_eapol_type&#45;&gt;hccapx_record__seq:eapol_size</title>
<path fill="none" stroke="#404040" d="M748.18,-90.12C838.36,-170.67 825.82,-406.5 569,-406.5 318.95,-406.5 300.47,-164.92 382.91,-76.13"/>
<polygon fill="#404040" stroke="#404040" points="385.45,-78.54 390.1,-69.02 380.53,-73.56 385.45,-78.54"/>
</g>
<!-- hccapx_record__seq&#45;&gt;hccapx_record__seq -->
<g id="edge5" class="edge">
<title>hccapx_record__seq:len_eapol_type&#45;&gt;hccapx_record__seq:padding2_size</title>
<path fill="none" stroke="#404040" d="M748.18,-90.12C838.36,-170.67 825.82,-406.5 569,-406.5 318.95,-406.5 300.47,-146.91 382.91,-55.46"/>
<polygon fill="#404040" stroke="#404040" points="385.58,-57.74 390.1,-48.16 380.59,-52.83 385.58,-57.74"/>
</g>
</g>
</svg>
