<?xml version="1.0" encoding="UTF-8" standalone="no"?>
<!DOCTYPE svg PUBLIC "-//W3C//DTD SVG 1.1//EN"
 "http://www.w3.org/Graphics/SVG/1.1/DTD/svg11.dtd">
<!-- Generated by graphviz version 2.38.0 (20140413.2041)
 -->
<!-- Title: %3 Pages: 1 -->
<svg width="672pt" height="387pt"
 viewBox="0.00 0.00 672.00 387.00" xmlns="http://www.w3.org/2000/svg" xmlns:xlink="http://www.w3.org/1999/xlink">
<g id="graph0" class="graph" transform="scale(1 1) rotate(0) translate(4 383)">
<title>%3</title>
<polygon fill="white" stroke="none" points="-4,4 -4,-383 668,-383 668,4 -4,4"/>
<g id="clust1" class="cluster"><title>cluster__edid</title>
<polygon fill="none" stroke="black" stroke-dasharray="1,5" points="8,-8 8,-371 656,-371 656,-8 8,-8"/>
<text text-anchor="middle" x="332" y="-355.8" font-family="Times,serif" font-size="14.00">Edid</text>
</g>
<!-- edid__seq -->
<g id="node1" class="node"><title>edid__seq</title>
<polygon fill="#e0ffe0" stroke="none" points="24.5,-314 24.5,-335 49.5,-335 49.5,-314 24.5,-314"/>
<polygon fill="none" stroke="black" points="24.5,-314 24.5,-335 49.5,-335 49.5,-314 24.5,-314"/>
<text text-anchor="start" x="27.5" y="-320.8" font-family="Times,serif" font-size="14.00">pos</text>
<polygon fill="#e0ffe0" stroke="none" points="49.5,-314 49.5,-335 77.5,-335 77.5,-314 49.5,-314"/>
<polygon fill="none" stroke="black" points="49.5,-314 49.5,-335 77.5,-335 77.5,-314 49.5,-314"/>
<text text-anchor="start" x="52.5" y="-320.8" font-family="Times,serif" font-size="14.00">size</text>
<polygon fill="#e0ffe0" stroke="none" points="77.5,-314 77.5,-335 227.5,-335 227.5,-314 77.5,-314"/>
<polygon fill="none" stroke="black" points="77.5,-314 77.5,-335 227.5,-335 227.5,-314 77.5,-314"/>
<text text-anchor="start" x="140.5" y="-320.8" font-family="Times,serif" font-size="14.00">type</text>
<polygon fill="#e0ffe0" stroke="none" points="227.5,-314 227.5,-335 343.5,-335 343.5,-314 227.5,-314"/>
<polygon fill="none" stroke="black" points="227.5,-314 227.5,-335 343.5,-335 343.5,-314 227.5,-314"/>
<text text-anchor="start" x="280" y="-320.8" font-family="Times,serif" font-size="14.00">id</text>
<polygon fill="none" stroke="black" points="24.5,-293 24.5,-314 49.5,-314 49.5,-293 24.5,-293"/>
<text text-anchor="start" x="33.5" y="-299.8" font-family="Times,serif" font-size="14.00">0</text>
<polygon fill="none" stroke="black" points="49.5,-293 49.5,-314 77.5,-314 77.5,-293 49.5,-293"/>
<text text-anchor="start" x="60" y="-299.8" font-family="Times,serif" font-size="14.00">8</text>
<polygon fill="none" stroke="black" points="77.5,-293 77.5,-314 227.5,-314 227.5,-293 77.5,-293"/>
<text text-anchor="start" x="80.5" y="-299.8" font-family="Times,serif" font-size="14.00">00 FF FF FF FF FF FF 00</text>
<polygon fill="none" stroke="black" points="227.5,-293 227.5,-314 343.5,-314 343.5,-293 227.5,-293"/>
<text text-anchor="start" x="268.5" y="-299.8" font-family="Times,serif" font-size="14.00">magic</text>
<polygon fill="none" stroke="black" points="24.5,-272 24.5,-293 49.5,-293 49.5,-272 24.5,-272"/>
<text text-anchor="start" x="33.5" y="-278.8" font-family="Times,serif" font-size="14.00">8</text>
<polygon fill="none" stroke="black" points="49.5,-272 49.5,-293 77.5,-293 77.5,-272 49.5,-272"/>
<text text-anchor="start" x="60" y="-278.8" font-family="Times,serif" font-size="14.00">2</text>
<polygon fill="none" stroke="black" points="77.5,-272 77.5,-293 227.5,-293 227.5,-272 77.5,-272"/>
<text text-anchor="start" x="140.5" y="-278.8" font-family="Times,serif" font-size="14.00">u2le</text>
<polygon fill="none" stroke="black" points="227.5,-272 227.5,-293 343.5,-293 343.5,-272 227.5,-272"/>
<text text-anchor="start" x="256.5" y="-278.8" font-family="Times,serif" font-size="14.00">mfg_bytes</text>
<polygon fill="none" stroke="black" points="24.5,-251 24.5,-272 49.5,-272 49.5,-251 24.5,-251"/>
<text text-anchor="start" x="30" y="-257.8" font-family="Times,serif" font-size="14.00">10</text>
<polygon fill="none" stroke="black" points="49.5,-251 49.5,-272 77.5,-272 77.5,-251 49.5,-251"/>
<text text-anchor="start" x="60" y="-257.8" font-family="Times,serif" font-size="14.00">2</text>
<polygon fill="none" stroke="black" points="77.5,-251 77.5,-272 227.5,-272 227.5,-251 77.5,-251"/>
<text text-anchor="start" x="140.5" y="-257.8" font-family="Times,serif" font-size="14.00">u2le</text>
<polygon fill="none" stroke="black" points="227.5,-251 227.5,-272 343.5,-272 343.5,-251 227.5,-251"/>
<text text-anchor="start" x="248.5" y="-257.8" font-family="Times,serif" font-size="14.00">product_code</text>
<polygon fill="none" stroke="black" points="24.5,-230 24.5,-251 49.5,-251 49.5,-230 24.5,-230"/>
<text text-anchor="start" x="30" y="-236.8" font-family="Times,serif" font-size="14.00">12</text>
<polygon fill="none" stroke="black" points="49.5,-230 49.5,-251 77.5,-251 77.5,-230 49.5,-230"/>
<text text-anchor="start" x="60" y="-236.8" font-family="Times,serif" font-size="14.00">4</text>
<polygon fill="none" stroke="black" points="77.5,-230 77.5,-251 227.5,-251 227.5,-230 77.5,-230"/>
<text text-anchor="start" x="140.5" y="-236.8" font-family="Times,serif" font-size="14.00">u4le</text>
<polygon fill="none" stroke="black" points="227.5,-230 227.5,-251 343.5,-251 343.5,-230 227.5,-230"/>
<text text-anchor="start" x="270.5" y="-236.8" font-family="Times,serif" font-size="14.00">serial</text>
<polygon fill="none" stroke="black" points="24.5,-209 24.5,-230 49.5,-230 49.5,-209 24.5,-209"/>
<text text-anchor="start" x="30" y="-215.8" font-family="Times,serif" font-size="14.00">16</text>
<polygon fill="none" stroke="black" points="49.5,-209 49.5,-230 77.5,-230 77.5,-209 49.5,-209"/>
<text text-anchor="start" x="60" y="-215.8" font-family="Times,serif" font-size="14.00">1</text>
<polygon fill="none" stroke="black" points="77.5,-209 77.5,-230 227.5,-230 227.5,-209 77.5,-209"/>
<text text-anchor="start" x="145.5" y="-215.8" font-family="Times,serif" font-size="14.00">u1</text>
<polygon fill="none" stroke="black" points="227.5,-209 227.5,-230 343.5,-230 343.5,-209 227.5,-209"/>
<text text-anchor="start" x="256.5" y="-215.8" font-family="Times,serif" font-size="14.00">mfg_week</text>
<polygon fill="none" stroke="black" points="24.5,-188 24.5,-209 49.5,-209 49.5,-188 24.5,-188"/>
<text text-anchor="start" x="30" y="-194.8" font-family="Times,serif" font-size="14.00">17</text>
<polygon fill="none" stroke="black" points="49.5,-188 49.5,-209 77.5,-209 77.5,-188 49.5,-188"/>
<text text-anchor="start" x="60" y="-194.8" font-family="Times,serif" font-size="14.00">1</text>
<polygon fill="none" stroke="black" points="77.5,-188 77.5,-209 227.5,-209 227.5,-188 77.5,-188"/>
<text text-anchor="start" x="145.5" y="-194.8" font-family="Times,serif" font-size="14.00">u1</text>
<polygon fill="none" stroke="black" points="227.5,-188 227.5,-209 343.5,-209 343.5,-188 227.5,-188"/>
<text text-anchor="start" x="243" y="-194.8" font-family="Times,serif" font-size="14.00">mfg_year_mod</text>
<polygon fill="none" stroke="black" points="24.5,-167 24.5,-188 49.5,-188 49.5,-167 24.5,-167"/>
<text text-anchor="start" x="30" y="-173.8" font-family="Times,serif" font-size="14.00">18</text>
<polygon fill="none" stroke="black" points="49.5,-167 49.5,-188 77.5,-188 77.5,-167 49.5,-167"/>
<text text-anchor="start" x="60" y="-173.8" font-family="Times,serif" font-size="14.00">1</text>
<polygon fill="none" stroke="black" points="77.5,-167 77.5,-188 227.5,-188 227.5,-167 77.5,-167"/>
<text text-anchor="start" x="145.5" y="-173.8" font-family="Times,serif" font-size="14.00">u1</text>
<polygon fill="none" stroke="black" points="227.5,-167 227.5,-188 343.5,-188 343.5,-167 227.5,-167"/>
<text text-anchor="start" x="231" y="-173.8" font-family="Times,serif" font-size="14.00">edid_version_major</text>
<polygon fill="none" stroke="black" points="24.5,-146 24.5,-167 49.5,-167 49.5,-146 24.5,-146"/>
<text text-anchor="start" x="30" y="-152.8" font-family="Times,serif" font-size="14.00">19</text>
<polygon fill="none" stroke="black" points="49.5,-146 49.5,-167 77.5,-167 77.5,-146 49.5,-146"/>
<text text-anchor="start" x="60" y="-152.8" font-family="Times,serif" font-size="14.00">1</text>
<polygon fill="none" stroke="black" points="77.5,-146 77.5,-167 227.5,-167 227.5,-146 77.5,-146"/>
<text text-anchor="start" x="145.5" y="-152.8" font-family="Times,serif" font-size="14.00">u1</text>
<polygon fill="none" stroke="black" points="227.5,-146 227.5,-167 343.5,-167 343.5,-146 227.5,-146"/>
<text text-anchor="start" x="230.5" y="-152.8" font-family="Times,serif" font-size="14.00">edid_version_minor</text>
<polygon fill="none" stroke="black" points="24.5,-125 24.5,-146 49.5,-146 49.5,-125 24.5,-125"/>
<text text-anchor="start" x="30" y="-131.8" font-family="Times,serif" font-size="14.00">20</text>
<polygon fill="none" stroke="black" points="49.5,-125 49.5,-146 77.5,-146 77.5,-125 49.5,-125"/>
<text text-anchor="start" x="60" y="-131.8" font-family="Times,serif" font-size="14.00">1</text>
<polygon fill="none" stroke="black" points="77.5,-125 77.5,-146 227.5,-146 227.5,-125 77.5,-125"/>
<text text-anchor="start" x="145.5" y="-131.8" font-family="Times,serif" font-size="14.00">u1</text>
<polygon fill="none" stroke="black" points="227.5,-125 227.5,-146 343.5,-146 343.5,-125 227.5,-125"/>
<text text-anchor="start" x="255" y="-131.8" font-family="Times,serif" font-size="14.00">input_flags</text>
<polygon fill="none" stroke="black" points="24.5,-104 24.5,-125 49.5,-125 49.5,-104 24.5,-104"/>
<text text-anchor="start" x="30" y="-110.8" font-family="Times,serif" font-size="14.00">21</text>
<polygon fill="none" stroke="black" points="49.5,-104 49.5,-125 77.5,-125 77.5,-104 49.5,-104"/>
<text text-anchor="start" x="60" y="-110.8" font-family="Times,serif" font-size="14.00">1</text>
<polygon fill="none" stroke="black" points="77.5,-104 77.5,-125 227.5,-125 227.5,-104 77.5,-104"/>
<text text-anchor="start" x="145.5" y="-110.8" font-family="Times,serif" font-size="14.00">u1</text>
<polygon fill="none" stroke="black" points="227.5,-104 227.5,-125 343.5,-125 343.5,-104 227.5,-104"/>
<text text-anchor="start" x="247.5" y="-110.8" font-family="Times,serif" font-size="14.00">screen_size_h</text>
<polygon fill="none" stroke="black" points="24.5,-83 24.5,-104 49.5,-104 49.5,-83 24.5,-83"/>
<text text-anchor="start" x="30" y="-89.8" font-family="Times,serif" font-size="14.00">22</text>
<polygon fill="none" stroke="black" points="49.5,-83 49.5,-104 77.5,-104 77.5,-83 49.5,-83"/>
<text text-anchor="start" x="60" y="-89.8" font-family="Times,serif" font-size="14.00">1</text>
<polygon fill="none" stroke="black" points="77.5,-83 77.5,-104 227.5,-104 227.5,-83 77.5,-83"/>
<text text-anchor="start" x="145.5" y="-89.8" font-family="Times,serif" font-size="14.00">u1</text>
<polygon fill="none" stroke="black" points="227.5,-83 227.5,-104 343.5,-104 343.5,-83 227.5,-83"/>
<text text-anchor="start" x="247.5" y="-89.8" font-family="Times,serif" font-size="14.00">screen_size_v</text>
<polygon fill="none" stroke="black" points="24.5,-62 24.5,-83 49.5,-83 49.5,-62 24.5,-62"/>
<text text-anchor="start" x="30" y="-68.8" font-family="Times,serif" font-size="14.00">23</text>
<polygon fill="none" stroke="black" points="49.5,-62 49.5,-83 77.5,-83 77.5,-62 49.5,-62"/>
<text text-anchor="start" x="60" y="-68.8" font-family="Times,serif" font-size="14.00">1</text>
<polygon fill="none" stroke="black" points="77.5,-62 77.5,-83 227.5,-83 227.5,-62 77.5,-62"/>
<text text-anchor="start" x="145.5" y="-68.8" font-family="Times,serif" font-size="14.00">u1</text>
<polygon fill="none" stroke="black" points="227.5,-62 227.5,-83 343.5,-83 343.5,-62 227.5,-62"/>
<text text-anchor="start" x="249" y="-68.8" font-family="Times,serif" font-size="14.00">gamma_mod</text>
<polygon fill="none" stroke="black" points="24.5,-41 24.5,-62 49.5,-62 49.5,-41 24.5,-41"/>
<text text-anchor="start" x="30" y="-47.8" font-family="Times,serif" font-size="14.00">24</text>
<polygon fill="none" stroke="black" points="49.5,-41 49.5,-62 77.5,-62 77.5,-41 49.5,-41"/>
<text text-anchor="start" x="60" y="-47.8" font-family="Times,serif" font-size="14.00">1</text>
<polygon fill="none" stroke="black" points="77.5,-41 77.5,-62 227.5,-62 227.5,-41 77.5,-41"/>
<text text-anchor="start" x="145.5" y="-47.8" font-family="Times,serif" font-size="14.00">u1</text>
<polygon fill="none" stroke="black" points="227.5,-41 227.5,-62 343.5,-62 343.5,-41 227.5,-41"/>
<text text-anchor="start" x="247.5" y="-47.8" font-family="Times,serif" font-size="14.00">features_flags</text>
<polygon fill="none" stroke="black" points="24.5,-20 24.5,-41 49.5,-41 49.5,-20 24.5,-20"/>
<text text-anchor="start" x="30" y="-26.8" font-family="Times,serif" font-size="14.00">25</text>
<polygon fill="none" stroke="black" points="49.5,-20 49.5,-41 77.5,-41 77.5,-20 49.5,-20"/>
<text text-anchor="start" x="56.5" y="-26.8" font-family="Times,serif" font-size="14.00">10</text>
<polygon fill="none" stroke="black" points="77.5,-20 77.5,-41 227.5,-41 227.5,-20 77.5,-20"/>
<polygon fill="none" stroke="black" points="227.5,-20 227.5,-41 343.5,-41 343.5,-20 227.5,-20"/>
<text text-anchor="start" x="254.5" y="-26.8" font-family="Times,serif" font-size="14.00">chromacity</text>
</g>
<!-- edid__inst__mfg_year -->
<g id="node2" class="node"><title>edid__inst__mfg_year</title>
<polygon fill="#e0ffe0" stroke="none" points="417.5,-111 417.5,-132 476.5,-132 476.5,-111 417.5,-111"/>
<polygon fill="none" stroke="black" points="417.5,-111 417.5,-132 476.5,-132 476.5,-111 417.5,-111"/>
<text text-anchor="start" x="441.5" y="-117.8" font-family="Times,serif" font-size="14.00">id</text>
<polygon fill="#e0ffe0" stroke="none" points="476.5,-111 476.5,-132 618.5,-132 618.5,-111 476.5,-111"/>
<polygon fill="none" stroke="black" points="476.5,-111 476.5,-132 618.5,-132 618.5,-111 476.5,-111"/>
<text text-anchor="start" x="532.5" y="-117.8" font-family="Times,serif" font-size="14.00">value</text>
<polygon fill="none" stroke="black" points="417.5,-90 417.5,-111 476.5,-111 476.5,-90 417.5,-90"/>
<text text-anchor="start" x="420.5" y="-96.8" font-family="Times,serif" font-size="14.00">mfg_year</text>
<polygon fill="none" stroke="black" points="476.5,-90 476.5,-111 618.5,-111 618.5,-90 476.5,-90"/>
<text text-anchor="start" x="479.5" y="-96.8" font-family="Times,serif" font-size="14.00">(mfg_year_mod + 1990)</text>
</g>
<!-- edid__seq&#45;&gt;edid__inst__mfg_year -->
<g id="edge1" class="edge"><title>edid__seq:mfg_year_mod_type&#45;&gt;edid__inst__mfg_year</title>
<path fill="none" stroke="#404040" d="M344.5,-199C375.042,-199 361.459,-161.747 387,-145 391.04,-142.351 395.277,-139.908 399.653,-137.656"/>
<polygon fill="#404040" stroke="#404040" points="401.288,-140.754 408.811,-133.293 398.278,-134.434 401.288,-140.754"/>
</g>
<!-- edid__inst__mfg_id_ch1 -->
<g id="node3" class="node"><title>edid__inst__mfg_id_ch1</title>
<polygon fill="#e0ffe0" stroke="none" points="395.5,-247 395.5,-268 468.5,-268 468.5,-247 395.5,-247"/>
<polygon fill="none" stroke="black" points="395.5,-247 395.5,-268 468.5,-268 468.5,-247 395.5,-247"/>
<text text-anchor="start" x="426.5" y="-253.8" font-family="Times,serif" font-size="14.00">id</text>
<polygon fill="#e0ffe0" stroke="none" points="468.5,-247 468.5,-268 640.5,-268 640.5,-247 468.5,-247"/>
<polygon fill="none" stroke="black" points="468.5,-247 468.5,-268 640.5,-268 640.5,-247 468.5,-247"/>
<text text-anchor="start" x="539.5" y="-253.8" font-family="Times,serif" font-size="14.00">value</text>
<polygon fill="none" stroke="black" points="395.5,-226 395.5,-247 468.5,-247 468.5,-226 395.5,-226"/>
<text text-anchor="start" x="398.5" y="-232.8" font-family="Times,serif" font-size="14.00">mfg_id_ch1</text>
<polygon fill="none" stroke="black" points="468.5,-226 468.5,-247 640.5,-247 640.5,-226 468.5,-226"/>
<text text-anchor="start" x="471.5" y="-232.8" font-family="Times,serif" font-size="14.00">((mfg_bytes &amp; 31744) &gt;&gt; 10)</text>
</g>
<!-- edid__seq&#45;&gt;edid__inst__mfg_id_ch1 -->
<g id="edge2" class="edge"><title>edid__seq:mfg_bytes_type&#45;&gt;edid__inst__mfg_id_ch1</title>
<path fill="none" stroke="#404040" d="M344.5,-283C369.817,-283 396.794,-279.217 421.695,-274.104"/>
<polygon fill="#404040" stroke="#404040" points="422.448,-277.522 431.492,-272.003 420.981,-270.678 422.448,-277.522"/>
</g>
<!-- edid__inst__mfg_id_ch3 -->
<g id="node4" class="node"><title>edid__inst__mfg_id_ch3</title>
<polygon fill="#e0ffe0" stroke="none" points="428.5,-315 428.5,-336 501.5,-336 501.5,-315 428.5,-315"/>
<polygon fill="none" stroke="black" points="428.5,-315 428.5,-336 501.5,-336 501.5,-315 428.5,-315"/>
<text text-anchor="start" x="459.5" y="-321.8" font-family="Times,serif" font-size="14.00">id</text>
<polygon fill="#e0ffe0" stroke="none" points="501.5,-315 501.5,-336 607.5,-336 607.5,-315 501.5,-315"/>
<polygon fill="none" stroke="black" points="501.5,-315 501.5,-336 607.5,-336 607.5,-315 501.5,-315"/>
<text text-anchor="start" x="539.5" y="-321.8" font-family="Times,serif" font-size="14.00">value</text>
<polygon fill="none" stroke="black" points="428.5,-294 428.5,-315 501.5,-315 501.5,-294 428.5,-294"/>
<text text-anchor="start" x="431.5" y="-300.8" font-family="Times,serif" font-size="14.00">mfg_id_ch3</text>
<polygon fill="none" stroke="black" points="501.5,-294 501.5,-315 607.5,-315 607.5,-294 501.5,-294"/>
<text text-anchor="start" x="504.5" y="-300.8" font-family="Times,serif" font-size="14.00">(mfg_bytes &amp; 31)</text>
</g>
<!-- edid__seq&#45;&gt;edid__inst__mfg_id_ch3 -->
<g id="edge3" class="edge"><title>edid__seq:mfg_bytes_type&#45;&gt;edid__inst__mfg_id_ch3</title>
<path fill="none" stroke="#404040" d="M344.5,-283C365.739,-283 388.208,-285.388 409.651,-288.858"/>
<polygon fill="#404040" stroke="#404040" points="409.305,-292.35 419.752,-290.584 410.484,-285.45 409.305,-292.35"/>
</g>
<!-- edid__inst__gamma -->
<g id="node5" class="node"><title>edid__inst__gamma</title>
<polygon fill="#e0ffe0" stroke="none" points="406.5,-43 406.5,-64 454.5,-64 454.5,-43 406.5,-43"/>
<polygon fill="none" stroke="black" points="406.5,-43 406.5,-64 454.5,-64 454.5,-43 406.5,-43"/>
<text text-anchor="start" x="425" y="-49.8" font-family="Times,serif" font-size="14.00">id</text>
<polygon fill="#e0ffe0" stroke="none" points="454.5,-43 454.5,-64 629.5,-64 629.5,-43 454.5,-43"/>
<polygon fill="none" stroke="black" points="454.5,-43 454.5,-64 629.5,-64 629.5,-43 454.5,-43"/>
<text text-anchor="start" x="527" y="-49.8" font-family="Times,serif" font-size="14.00">value</text>
<polygon fill="none" stroke="black" points="406.5,-22 406.5,-43 454.5,-43 454.5,-22 406.5,-22"/>
<text text-anchor="start" x="409.5" y="-28.8" font-family="Times,serif" font-size="14.00">gamma</text>
<polygon fill="none" stroke="black" points="454.5,-22 454.5,-43 629.5,-43 629.5,-22 454.5,-22"/>
<text text-anchor="start" x="457.5" y="-28.8" font-family="Times,serif" font-size="14.00">((gamma_mod + 100) / 100.0)</text>
</g>
<!-- edid__seq&#45;&gt;edid__inst__gamma -->
<g id="edge4" class="edge"><title>edid__seq:gamma_mod_type&#45;&gt;edid__inst__gamma</title>
<path fill="none" stroke="#404040" d="M344.5,-72C359.28,-72 374.677,-70.9458 389.918,-69.2395"/>
<polygon fill="#404040" stroke="#404040" points="390.397,-72.7071 399.903,-68.0285 389.554,-65.758 390.397,-72.7071"/>
</g>
<!-- edid__inst__mfg_id_ch2 -->
<g id="node6" class="node"><title>edid__inst__mfg_id_ch2</title>
<polygon fill="#e0ffe0" stroke="none" points="405.5,-179 405.5,-200 478.5,-200 478.5,-179 405.5,-179"/>
<polygon fill="none" stroke="black" points="405.5,-179 405.5,-200 478.5,-200 478.5,-179 405.5,-179"/>
<text text-anchor="start" x="436.5" y="-185.8" font-family="Times,serif" font-size="14.00">id</text>
<polygon fill="#e0ffe0" stroke="none" points="478.5,-179 478.5,-200 630.5,-200 630.5,-179 478.5,-179"/>
<polygon fill="none" stroke="black" points="478.5,-179 478.5,-200 630.5,-200 630.5,-179 478.5,-179"/>
<text text-anchor="start" x="539.5" y="-185.8" font-family="Times,serif" font-size="14.00">value</text>
<polygon fill="none" stroke="black" points="405.5,-158 405.5,-179 478.5,-179 478.5,-158 405.5,-158"/>
<text text-anchor="start" x="408.5" y="-164.8" font-family="Times,serif" font-size="14.00">mfg_id_ch2</text>
<polygon fill="none" stroke="black" points="478.5,-158 478.5,-179 630.5,-179 630.5,-158 478.5,-158"/>
<text text-anchor="start" x="481.5" y="-164.8" font-family="Times,serif" font-size="14.00">((mfg_bytes &amp; 992) &gt;&gt; 5)</text>
</g>
<!-- edid__seq&#45;&gt;edid__inst__mfg_id_ch2 -->
<g id="edge5" class="edge"><title>edid__seq:mfg_bytes_type&#45;&gt;edid__inst__mfg_id_ch2</title>
<path fill="none" stroke="#404040" d="M344.5,-283C380.896,-283 357.827,-234.763 387,-213 388.642,-211.775 390.324,-210.594 392.042,-209.456"/>
<polygon fill="#404040" stroke="#404040" points="394.151,-212.271 400.908,-204.111 390.537,-206.277 394.151,-212.271"/>
</g>
</g>
</svg>
