<?xml version="1.0" encoding="UTF-8" standalone="no"?>
<!DOCTYPE svg PUBLIC "-//W3C//DTD SVG 1.1//EN"
 "http://www.w3.org/Graphics/SVG/1.1/DTD/svg11.dtd">
<!-- Generated by graphviz version 2.43.0 (0)
 -->
<!-- Title: %3 Pages: 1 -->
<svg width="518pt" height="212pt"
 viewBox="0.00 0.00 518.00 212.00" xmlns="http://www.w3.org/2000/svg" xmlns:xlink="http://www.w3.org/1999/xlink">
<g id="graph0" class="graph" transform="scale(1 1) rotate(0) translate(4 208)">
<title>%3</title>
<polygon fill="white" stroke="transparent" points="-4,4 -4,-208 514,-208 514,4 -4,4"/>
<g id="clust1" class="cluster">
<title>cluster__monomakh_sapr_chg</title>
<polygon fill="none" stroke="black" stroke-dasharray="1,5" points="8,-8 8,-196 502,-196 502,-8 8,-8"/>
<text text-anchor="middle" x="255" y="-180.8" font-family="Times,serif" font-size="14.00">MonomakhSaprChg</text>
</g>
<g id="clust2" class="cluster">
<title>cluster__block</title>
<polygon fill="none" stroke="black" stroke-dasharray="1,5" points="235,-16 235,-165 494,-165 494,-16 235,-16"/>
<text text-anchor="middle" x="364.5" y="-149.8" font-family="Times,serif" font-size="14.00">MonomakhSaprChg::Block</text>
</g>
<!-- monomakh_sapr_chg__seq -->
<g id="node1" class="node">
<title>monomakh_sapr_chg__seq</title>
<polygon fill="#e0ffe0" stroke="transparent" points="24.5,-102 24.5,-123 57.5,-123 57.5,-102 24.5,-102"/>
<polygon fill="none" stroke="black" points="24.5,-102 24.5,-123 57.5,-123 57.5,-102 24.5,-102"/>
<text text-anchor="start" x="28.5" y="-108.8" font-family="Times,serif" font-size="14.00">pos</text>
<polygon fill="#e0ffe0" stroke="transparent" points="57.5,-102 57.5,-123 92.5,-123 92.5,-102 57.5,-102"/>
<polygon fill="none" stroke="black" points="57.5,-102 57.5,-123 92.5,-123 92.5,-102 57.5,-102"/>
<text text-anchor="start" x="61" y="-108.8" font-family="Times,serif" font-size="14.00">size</text>
<polygon fill="#e0ffe0" stroke="transparent" points="92.5,-102 92.5,-123 162.5,-123 162.5,-102 92.5,-102"/>
<polygon fill="none" stroke="black" points="92.5,-102 92.5,-123 162.5,-123 162.5,-102 92.5,-102"/>
<text text-anchor="start" x="111.5" y="-108.8" font-family="Times,serif" font-size="14.00">type</text>
<polygon fill="#e0ffe0" stroke="transparent" points="162.5,-102 162.5,-123 199.5,-123 199.5,-102 162.5,-102"/>
<polygon fill="none" stroke="black" points="162.5,-102 162.5,-123 199.5,-123 199.5,-102 162.5,-102"/>
<text text-anchor="start" x="174" y="-108.8" font-family="Times,serif" font-size="14.00">id</text>
<polygon fill="none" stroke="black" points="24.5,-81 24.5,-102 57.5,-102 57.5,-81 24.5,-81"/>
<text text-anchor="start" x="36" y="-87.8" font-family="Times,serif" font-size="14.00">0</text>
<polygon fill="none" stroke="black" points="57.5,-81 57.5,-102 92.5,-102 92.5,-81 57.5,-81"/>
<text text-anchor="start" x="65.5" y="-87.8" font-family="Times,serif" font-size="14.00">10</text>
<polygon fill="none" stroke="black" points="92.5,-81 92.5,-102 162.5,-102 162.5,-81 92.5,-81"/>
<text text-anchor="start" x="95.5" y="-87.8" font-family="Times,serif" font-size="14.00">str(ascii)</text>
<polygon fill="none" stroke="black" points="162.5,-81 162.5,-102 199.5,-102 199.5,-81 162.5,-81"/>
<text text-anchor="start" x="166" y="-87.8" font-family="Times,serif" font-size="14.00">title</text>
<polygon fill="none" stroke="black" points="24.5,-60 24.5,-81 57.5,-81 57.5,-60 24.5,-60"/>
<text text-anchor="start" x="31.5" y="-66.8" font-family="Times,serif" font-size="14.00">10</text>
<polygon fill="none" stroke="black" points="57.5,-60 57.5,-81 92.5,-81 92.5,-60 57.5,-60"/>
<text text-anchor="start" x="68" y="-66.8" font-family="Times,serif" font-size="14.00">...</text>
<polygon fill="none" stroke="black" points="92.5,-60 92.5,-81 162.5,-81 162.5,-60 92.5,-60"/>
<text text-anchor="start" x="107.5" y="-66.8" font-family="Times,serif" font-size="14.00">Block</text>
<polygon fill="none" stroke="black" points="162.5,-60 162.5,-81 199.5,-81 199.5,-60 162.5,-60"/>
<text text-anchor="start" x="169" y="-66.8" font-family="Times,serif" font-size="14.00">ent</text>
<polygon fill="none" stroke="black" points="24.5,-39 24.5,-60 199.5,-60 199.5,-39 24.5,-39"/>
<text text-anchor="start" x="27.5" y="-45.8" font-family="Times,serif" font-size="14.00">repeat to end of stream</text>
</g>
<!-- block__seq -->
<g id="node2" class="node">
<title>block__seq</title>
<polygon fill="#e0ffe0" stroke="transparent" points="251.5,-91 251.5,-112 282.5,-112 282.5,-91 251.5,-91"/>
<polygon fill="none" stroke="black" points="251.5,-91 251.5,-112 282.5,-112 282.5,-91 251.5,-91"/>
<text text-anchor="start" x="254.5" y="-97.8" font-family="Times,serif" font-size="14.00">pos</text>
<polygon fill="#e0ffe0" stroke="transparent" points="282.5,-91 282.5,-112 345.5,-112 345.5,-91 282.5,-91"/>
<polygon fill="none" stroke="black" points="282.5,-91 282.5,-112 345.5,-112 345.5,-91 282.5,-91"/>
<text text-anchor="start" x="300" y="-97.8" font-family="Times,serif" font-size="14.00">size</text>
<polygon fill="#e0ffe0" stroke="transparent" points="345.5,-91 345.5,-112 415.5,-112 415.5,-91 345.5,-91"/>
<polygon fill="none" stroke="black" points="345.5,-91 345.5,-112 415.5,-112 415.5,-91 345.5,-91"/>
<text text-anchor="start" x="364.5" y="-97.8" font-family="Times,serif" font-size="14.00">type</text>
<polygon fill="#e0ffe0" stroke="transparent" points="415.5,-91 415.5,-112 478.5,-112 478.5,-91 415.5,-91"/>
<polygon fill="none" stroke="black" points="415.5,-91 415.5,-112 478.5,-112 478.5,-91 415.5,-91"/>
<text text-anchor="start" x="440" y="-97.8" font-family="Times,serif" font-size="14.00">id</text>
<polygon fill="none" stroke="black" points="251.5,-70 251.5,-91 282.5,-91 282.5,-70 251.5,-70"/>
<text text-anchor="start" x="262" y="-76.8" font-family="Times,serif" font-size="14.00">0</text>
<polygon fill="none" stroke="black" points="282.5,-70 282.5,-91 345.5,-91 345.5,-70 282.5,-70"/>
<text text-anchor="start" x="304.5" y="-76.8" font-family="Times,serif" font-size="14.00">13</text>
<polygon fill="none" stroke="black" points="345.5,-70 345.5,-91 415.5,-91 415.5,-70 345.5,-70"/>
<text text-anchor="start" x="348.5" y="-76.8" font-family="Times,serif" font-size="14.00">str(ascii)</text>
<polygon fill="none" stroke="black" points="415.5,-70 415.5,-91 478.5,-91 478.5,-70 415.5,-70"/>
<text text-anchor="start" x="422" y="-76.8" font-family="Times,serif" font-size="14.00">header</text>
<polygon fill="none" stroke="black" points="251.5,-49 251.5,-70 282.5,-70 282.5,-49 251.5,-49"/>
<text text-anchor="start" x="257.5" y="-55.8" font-family="Times,serif" font-size="14.00">13</text>
<polygon fill="none" stroke="black" points="282.5,-49 282.5,-70 345.5,-70 345.5,-49 282.5,-49"/>
<text text-anchor="start" x="309" y="-55.8" font-family="Times,serif" font-size="14.00">8</text>
<polygon fill="none" stroke="black" points="345.5,-49 345.5,-70 415.5,-70 415.5,-49 345.5,-49"/>
<text text-anchor="start" x="365" y="-55.8" font-family="Times,serif" font-size="14.00">u8le</text>
<polygon fill="none" stroke="black" points="415.5,-49 415.5,-70 478.5,-70 478.5,-49 415.5,-49"/>
<text text-anchor="start" x="418.5" y="-55.8" font-family="Times,serif" font-size="14.00">file_size</text>
<polygon fill="none" stroke="black" points="251.5,-28 251.5,-49 282.5,-49 282.5,-28 251.5,-28"/>
<text text-anchor="start" x="257.5" y="-34.8" font-family="Times,serif" font-size="14.00">21</text>
<polygon fill="none" stroke="black" points="282.5,-28 282.5,-49 345.5,-49 345.5,-28 282.5,-28"/>
<text text-anchor="start" x="285.5" y="-34.8" font-family="Times,serif" font-size="14.00">file_size</text>
<polygon fill="none" stroke="black" points="345.5,-28 345.5,-49 415.5,-49 415.5,-28 345.5,-28"/>
<polygon fill="none" stroke="black" points="415.5,-28 415.5,-49 478.5,-49 478.5,-28 415.5,-28"/>
<text text-anchor="start" x="436" y="-34.8" font-family="Times,serif" font-size="14.00">file</text>
</g>
<!-- monomakh_sapr_chg__seq&#45;&gt;block__seq -->
<g id="edge1" class="edge">
<title>monomakh_sapr_chg__seq:ent_type&#45;&gt;block__seq</title>
<path fill="none" stroke="black" stroke-width="2" d="M200.5,-70C211.01,-70 221.9,-70 232.84,-70"/>
<polygon fill="black" stroke="black" stroke-width="2" points="232.89,-73.5 242.89,-70 232.89,-66.5 232.89,-73.5"/>
</g>
<!-- block__seq&#45;&gt;block__seq -->
<g id="edge2" class="edge">
<title>block__seq:file_size_type&#45;&gt;block__seq:file_size</title>
<path fill="none" stroke="#404040" d="M470.67,-70.02C507.78,-94.73 491.71,-134 380.5,-134 276.13,-134 255.55,-85.88 284.1,-55.86"/>
<polygon fill="#404040" stroke="#404040" points="286.68,-58.25 291.89,-49.02 282.06,-52.99 286.68,-58.25"/>
</g>
</g>
</svg>
