<?xml version="1.0" encoding="UTF-8" standalone="no"?>
<!DOCTYPE svg PUBLIC "-//W3C//DTD SVG 1.1//EN"
 "http://www.w3.org/Graphics/SVG/1.1/DTD/svg11.dtd">
<!-- Generated by graphviz version 2.40.1 (20161225.0304)
 -->
<!-- Title: %3 Pages: 1 -->
<svg width="744pt" height="345pt"
 viewBox="0.00 0.00 744.00 345.00" xmlns="http://www.w3.org/2000/svg" xmlns:xlink="http://www.w3.org/1999/xlink">
<g id="graph0" class="graph" transform="scale(1 1) rotate(0) translate(4 341)">
<title>%3</title>
<polygon fill="#ffffff" stroke="transparent" points="-4,4 -4,-341 740,-341 740,4 -4,4"/>
<g id="clust1" class="cluster">
<title>cluster__vp8_ivf</title>
<polygon fill="none" stroke="#000000" stroke-dasharray="1,5" points="95,-8 95,-329 728,-329 728,-8 95,-8"/>
<text text-anchor="middle" x="411.5" y="-313.8" font-family="Times,serif" font-size="14.00" fill="#000000">Vp8Ivf</text>
</g>
<g id="clust2" class="cluster">
<title>cluster__blocks</title>
<polygon fill="none" stroke="#000000" stroke-dasharray="1,5" points="320,-33 320,-122 487,-122 487,-33 320,-33"/>
<text text-anchor="middle" x="403.5" y="-106.8" font-family="Times,serif" font-size="14.00" fill="#000000">Vp8Ivf::Blocks</text>
</g>
<g id="clust3" class="cluster">
<title>cluster__block</title>
<polygon fill="none" stroke="#000000" stroke-dasharray="1,5" points="507,-16 507,-165 720,-165 720,-16 507,-16"/>
<text text-anchor="middle" x="613.5" y="-149.8" font-family="Times,serif" font-size="14.00" fill="#000000">Vp8Ivf::Block</text>
</g>
<!-- vp8_ivf__seq -->
<g id="node1" class="node">
<title>vp8_ivf__seq</title>
<polygon fill="#e0ffe0" stroke="transparent" points="111.5,-272 111.5,-293 136.5,-293 136.5,-272 111.5,-272"/>
<polygon fill="none" stroke="#000000" points="111.5,-272 111.5,-293 136.5,-293 136.5,-272 111.5,-272"/>
<text text-anchor="start" x="114.5" y="-278.8" font-family="Times,serif" font-size="14.00" fill="#000000">pos</text>
<polygon fill="#e0ffe0" stroke="transparent" points="136.5,-272 136.5,-293 164.5,-293 164.5,-272 136.5,-272"/>
<polygon fill="none" stroke="#000000" points="136.5,-272 136.5,-293 164.5,-293 164.5,-272 136.5,-272"/>
<text text-anchor="start" x="139.5" y="-278.8" font-family="Times,serif" font-size="14.00" fill="#000000">size</text>
<polygon fill="#e0ffe0" stroke="transparent" points="164.5,-272 164.5,-293 208.5,-293 208.5,-272 164.5,-272"/>
<polygon fill="none" stroke="#000000" points="164.5,-272 164.5,-293 208.5,-293 208.5,-272 164.5,-272"/>
<text text-anchor="start" x="174.5" y="-278.8" font-family="Times,serif" font-size="14.00" fill="#000000">type</text>
<polygon fill="#e0ffe0" stroke="transparent" points="208.5,-272 208.5,-293 284.5,-293 284.5,-272 208.5,-272"/>
<polygon fill="none" stroke="#000000" points="208.5,-272 208.5,-293 284.5,-293 284.5,-272 208.5,-272"/>
<text text-anchor="start" x="241" y="-278.8" font-family="Times,serif" font-size="14.00" fill="#000000">id</text>
<polygon fill="none" stroke="#000000" points="111.5,-251 111.5,-272 136.5,-272 136.5,-251 111.5,-251"/>
<text text-anchor="start" x="120.5" y="-257.8" font-family="Times,serif" font-size="14.00" fill="#000000">0</text>
<polygon fill="none" stroke="#000000" points="136.5,-251 136.5,-272 164.5,-272 164.5,-251 136.5,-251"/>
<text text-anchor="start" x="147" y="-257.8" font-family="Times,serif" font-size="14.00" fill="#000000">4</text>
<polygon fill="none" stroke="#000000" points="164.5,-251 164.5,-272 208.5,-272 208.5,-251 164.5,-251"/>
<polygon fill="none" stroke="#000000" points="208.5,-251 208.5,-272 284.5,-272 284.5,-251 208.5,-251"/>
<text text-anchor="start" x="226" y="-257.8" font-family="Times,serif" font-size="14.00" fill="#000000">magic1</text>
<polygon fill="none" stroke="#000000" points="111.5,-230 111.5,-251 136.5,-251 136.5,-230 111.5,-230"/>
<text text-anchor="start" x="120.5" y="-236.8" font-family="Times,serif" font-size="14.00" fill="#000000">4</text>
<polygon fill="none" stroke="#000000" points="136.5,-230 136.5,-251 164.5,-251 164.5,-230 136.5,-230"/>
<text text-anchor="start" x="147" y="-236.8" font-family="Times,serif" font-size="14.00" fill="#000000">2</text>
<polygon fill="none" stroke="#000000" points="164.5,-230 164.5,-251 208.5,-251 208.5,-230 164.5,-230"/>
<text text-anchor="start" x="174.5" y="-236.8" font-family="Times,serif" font-size="14.00" fill="#000000">u2le</text>
<polygon fill="none" stroke="#000000" points="208.5,-230 208.5,-251 284.5,-251 284.5,-230 208.5,-230"/>
<text text-anchor="start" x="226.5" y="-236.8" font-family="Times,serif" font-size="14.00" fill="#000000">version</text>
<polygon fill="none" stroke="#000000" points="111.5,-209 111.5,-230 136.5,-230 136.5,-209 111.5,-209"/>
<text text-anchor="start" x="120.5" y="-215.8" font-family="Times,serif" font-size="14.00" fill="#000000">6</text>
<polygon fill="none" stroke="#000000" points="136.5,-209 136.5,-230 164.5,-230 164.5,-209 136.5,-209"/>
<text text-anchor="start" x="147" y="-215.8" font-family="Times,serif" font-size="14.00" fill="#000000">2</text>
<polygon fill="none" stroke="#000000" points="164.5,-209 164.5,-230 208.5,-230 208.5,-209 164.5,-209"/>
<text text-anchor="start" x="174.5" y="-215.8" font-family="Times,serif" font-size="14.00" fill="#000000">u2le</text>
<polygon fill="none" stroke="#000000" points="208.5,-209 208.5,-230 284.5,-230 284.5,-209 208.5,-209"/>
<text text-anchor="start" x="216.5" y="-215.8" font-family="Times,serif" font-size="14.00" fill="#000000">len_header</text>
<polygon fill="none" stroke="#000000" points="111.5,-188 111.5,-209 136.5,-209 136.5,-188 111.5,-188"/>
<text text-anchor="start" x="120.5" y="-194.8" font-family="Times,serif" font-size="14.00" fill="#000000">8</text>
<polygon fill="none" stroke="#000000" points="136.5,-188 136.5,-209 164.5,-209 164.5,-188 136.5,-188"/>
<text text-anchor="start" x="147" y="-194.8" font-family="Times,serif" font-size="14.00" fill="#000000">4</text>
<polygon fill="none" stroke="#000000" points="164.5,-188 164.5,-209 208.5,-209 208.5,-188 164.5,-188"/>
<polygon fill="none" stroke="#000000" points="208.5,-188 208.5,-209 284.5,-209 284.5,-188 208.5,-188"/>
<text text-anchor="start" x="230.5" y="-194.8" font-family="Times,serif" font-size="14.00" fill="#000000">codec</text>
<polygon fill="none" stroke="#000000" points="111.5,-167 111.5,-188 136.5,-188 136.5,-167 111.5,-167"/>
<text text-anchor="start" x="117" y="-173.8" font-family="Times,serif" font-size="14.00" fill="#000000">12</text>
<polygon fill="none" stroke="#000000" points="136.5,-167 136.5,-188 164.5,-188 164.5,-167 136.5,-167"/>
<text text-anchor="start" x="147" y="-173.8" font-family="Times,serif" font-size="14.00" fill="#000000">2</text>
<polygon fill="none" stroke="#000000" points="164.5,-167 164.5,-188 208.5,-188 208.5,-167 164.5,-167"/>
<text text-anchor="start" x="174.5" y="-173.8" font-family="Times,serif" font-size="14.00" fill="#000000">u2le</text>
<polygon fill="none" stroke="#000000" points="208.5,-167 208.5,-188 284.5,-188 284.5,-167 208.5,-167"/>
<text text-anchor="start" x="231" y="-173.8" font-family="Times,serif" font-size="14.00" fill="#000000">width</text>
<polygon fill="none" stroke="#000000" points="111.5,-146 111.5,-167 136.5,-167 136.5,-146 111.5,-146"/>
<text text-anchor="start" x="117" y="-152.8" font-family="Times,serif" font-size="14.00" fill="#000000">14</text>
<polygon fill="none" stroke="#000000" points="136.5,-146 136.5,-167 164.5,-167 164.5,-146 136.5,-146"/>
<text text-anchor="start" x="147" y="-152.8" font-family="Times,serif" font-size="14.00" fill="#000000">2</text>
<polygon fill="none" stroke="#000000" points="164.5,-146 164.5,-167 208.5,-167 208.5,-146 164.5,-146"/>
<text text-anchor="start" x="174.5" y="-152.8" font-family="Times,serif" font-size="14.00" fill="#000000">u2le</text>
<polygon fill="none" stroke="#000000" points="208.5,-146 208.5,-167 284.5,-167 284.5,-146 208.5,-146"/>
<text text-anchor="start" x="229.5" y="-152.8" font-family="Times,serif" font-size="14.00" fill="#000000">height</text>
<polygon fill="none" stroke="#000000" points="111.5,-125 111.5,-146 136.5,-146 136.5,-125 111.5,-125"/>
<text text-anchor="start" x="117" y="-131.8" font-family="Times,serif" font-size="14.00" fill="#000000">16</text>
<polygon fill="none" stroke="#000000" points="136.5,-125 136.5,-146 164.5,-146 164.5,-125 136.5,-125"/>
<text text-anchor="start" x="147" y="-131.8" font-family="Times,serif" font-size="14.00" fill="#000000">4</text>
<polygon fill="none" stroke="#000000" points="164.5,-125 164.5,-146 208.5,-146 208.5,-125 164.5,-125"/>
<text text-anchor="start" x="174.5" y="-131.8" font-family="Times,serif" font-size="14.00" fill="#000000">u4le</text>
<polygon fill="none" stroke="#000000" points="208.5,-125 208.5,-146 284.5,-146 284.5,-125 208.5,-125"/>
<text text-anchor="start" x="220" y="-131.8" font-family="Times,serif" font-size="14.00" fill="#000000">framerate</text>
<polygon fill="none" stroke="#000000" points="111.5,-104 111.5,-125 136.5,-125 136.5,-104 111.5,-104"/>
<text text-anchor="start" x="117" y="-110.8" font-family="Times,serif" font-size="14.00" fill="#000000">20</text>
<polygon fill="none" stroke="#000000" points="136.5,-104 136.5,-125 164.5,-125 164.5,-104 136.5,-104"/>
<text text-anchor="start" x="147" y="-110.8" font-family="Times,serif" font-size="14.00" fill="#000000">4</text>
<polygon fill="none" stroke="#000000" points="164.5,-104 164.5,-125 208.5,-125 208.5,-104 164.5,-104"/>
<text text-anchor="start" x="174.5" y="-110.8" font-family="Times,serif" font-size="14.00" fill="#000000">u4le</text>
<polygon fill="none" stroke="#000000" points="208.5,-104 208.5,-125 284.5,-125 284.5,-104 208.5,-104"/>
<text text-anchor="start" x="220.5" y="-110.8" font-family="Times,serif" font-size="14.00" fill="#000000">timescale</text>
<polygon fill="none" stroke="#000000" points="111.5,-83 111.5,-104 136.5,-104 136.5,-83 111.5,-83"/>
<text text-anchor="start" x="117" y="-89.8" font-family="Times,serif" font-size="14.00" fill="#000000">24</text>
<polygon fill="none" stroke="#000000" points="136.5,-83 136.5,-104 164.5,-104 164.5,-83 136.5,-83"/>
<text text-anchor="start" x="147" y="-89.8" font-family="Times,serif" font-size="14.00" fill="#000000">4</text>
<polygon fill="none" stroke="#000000" points="164.5,-83 164.5,-104 208.5,-104 208.5,-83 164.5,-83"/>
<text text-anchor="start" x="174.5" y="-89.8" font-family="Times,serif" font-size="14.00" fill="#000000">u4le</text>
<polygon fill="none" stroke="#000000" points="208.5,-83 208.5,-104 284.5,-104 284.5,-83 208.5,-83"/>
<text text-anchor="start" x="211.5" y="-89.8" font-family="Times,serif" font-size="14.00" fill="#000000">num_frames</text>
<polygon fill="none" stroke="#000000" points="111.5,-62 111.5,-83 136.5,-83 136.5,-62 111.5,-62"/>
<text text-anchor="start" x="117" y="-68.8" font-family="Times,serif" font-size="14.00" fill="#000000">28</text>
<polygon fill="none" stroke="#000000" points="136.5,-62 136.5,-83 164.5,-83 164.5,-62 136.5,-62"/>
<text text-anchor="start" x="147" y="-68.8" font-family="Times,serif" font-size="14.00" fill="#000000">4</text>
<polygon fill="none" stroke="#000000" points="164.5,-62 164.5,-83 208.5,-83 208.5,-62 164.5,-62"/>
<text text-anchor="start" x="174.5" y="-68.8" font-family="Times,serif" font-size="14.00" fill="#000000">u4le</text>
<polygon fill="none" stroke="#000000" points="208.5,-62 208.5,-83 284.5,-83 284.5,-62 208.5,-62"/>
<text text-anchor="start" x="227" y="-68.8" font-family="Times,serif" font-size="14.00" fill="#000000">unused</text>
<polygon fill="none" stroke="#000000" points="111.5,-41 111.5,-62 136.5,-62 136.5,-41 111.5,-41"/>
<text text-anchor="start" x="117" y="-47.8" font-family="Times,serif" font-size="14.00" fill="#000000">32</text>
<polygon fill="none" stroke="#000000" points="136.5,-41 136.5,-62 164.5,-62 164.5,-41 136.5,-41"/>
<text text-anchor="start" x="144.5" y="-47.8" font-family="Times,serif" font-size="14.00" fill="#000000">...</text>
<polygon fill="none" stroke="#000000" points="164.5,-41 164.5,-62 208.5,-62 208.5,-41 164.5,-41"/>
<text text-anchor="start" x="167.5" y="-47.8" font-family="Times,serif" font-size="14.00" fill="#000000">Blocks</text>
<polygon fill="none" stroke="#000000" points="208.5,-41 208.5,-62 284.5,-62 284.5,-41 208.5,-41"/>
<text text-anchor="start" x="214.5" y="-47.8" font-family="Times,serif" font-size="14.00" fill="#000000">image_data</text>
<polygon fill="none" stroke="#000000" points="111.5,-20 111.5,-41 284.5,-41 284.5,-20 111.5,-20"/>
<text text-anchor="start" x="128" y="-26.8" font-family="Times,serif" font-size="14.00" fill="#000000">repeat num_frames times</text>
</g>
<!-- vp8_ivf__seq&#45;&gt;vp8_ivf__seq -->
<g id="edge2" class="edge">
<title>vp8_ivf__seq:num_frames_type&#45;&gt;vp8_ivf__seq:image_data__repeat</title>
<path fill="none" stroke="#404040" d="M208.3572,-96.4394C128.6191,-101.0112 0,-95.6719 0,-61.5 0,-37.0513 48.3464,-27.3616 101.1511,-25.5012"/>
<polygon fill="#404040" stroke="#404040" points="101.498,-28.9935 111.4046,-25.2372 101.3177,-21.9958 101.498,-28.9935"/>
</g>
<!-- blocks__seq -->
<g id="node2" class="node">
<title>blocks__seq</title>
<polygon fill="#e0ffe0" stroke="transparent" points="336.5,-66 336.5,-87 361.5,-87 361.5,-66 336.5,-66"/>
<polygon fill="none" stroke="#000000" points="336.5,-66 336.5,-87 361.5,-87 361.5,-66 336.5,-66"/>
<text text-anchor="start" x="339.5" y="-72.8" font-family="Times,serif" font-size="14.00" fill="#000000">pos</text>
<polygon fill="#e0ffe0" stroke="transparent" points="361.5,-66 361.5,-87 389.5,-87 389.5,-66 361.5,-66"/>
<polygon fill="none" stroke="#000000" points="361.5,-66 361.5,-87 389.5,-87 389.5,-66 361.5,-66"/>
<text text-anchor="start" x="364.5" y="-72.8" font-family="Times,serif" font-size="14.00" fill="#000000">size</text>
<polygon fill="#e0ffe0" stroke="transparent" points="389.5,-66 389.5,-87 428.5,-87 428.5,-66 389.5,-66"/>
<polygon fill="none" stroke="#000000" points="389.5,-66 389.5,-87 428.5,-87 428.5,-66 389.5,-66"/>
<text text-anchor="start" x="397" y="-72.8" font-family="Times,serif" font-size="14.00" fill="#000000">type</text>
<polygon fill="#e0ffe0" stroke="transparent" points="428.5,-66 428.5,-87 471.5,-87 471.5,-66 428.5,-66"/>
<polygon fill="none" stroke="#000000" points="428.5,-66 428.5,-87 471.5,-87 471.5,-66 428.5,-66"/>
<text text-anchor="start" x="444.5" y="-72.8" font-family="Times,serif" font-size="14.00" fill="#000000">id</text>
<polygon fill="none" stroke="#000000" points="336.5,-45 336.5,-66 361.5,-66 361.5,-45 336.5,-45"/>
<text text-anchor="start" x="345.5" y="-51.8" font-family="Times,serif" font-size="14.00" fill="#000000">0</text>
<polygon fill="none" stroke="#000000" points="361.5,-45 361.5,-66 389.5,-66 389.5,-45 361.5,-45"/>
<text text-anchor="start" x="369.5" y="-51.8" font-family="Times,serif" font-size="14.00" fill="#000000">...</text>
<polygon fill="none" stroke="#000000" points="389.5,-45 389.5,-66 428.5,-66 428.5,-45 389.5,-45"/>
<text text-anchor="start" x="392.5" y="-51.8" font-family="Times,serif" font-size="14.00" fill="#000000">Block</text>
<polygon fill="none" stroke="#000000" points="428.5,-45 428.5,-66 471.5,-66 471.5,-45 428.5,-45"/>
<text text-anchor="start" x="431.5" y="-51.8" font-family="Times,serif" font-size="14.00" fill="#000000">entries</text>
</g>
<!-- vp8_ivf__seq&#45;&gt;blocks__seq -->
<g id="edge1" class="edge">
<title>vp8_ivf__seq:image_data_type&#45;&gt;blocks__seq</title>
<path fill="none" stroke="#000000" stroke-width="2" d="M284.5,-51C295.2614,-51 306.5275,-51.6113 317.656,-52.5871"/>
<polygon fill="#000000" stroke="#000000" stroke-width="2" points="317.5263,-56.091 327.8189,-53.5786 318.206,-49.124 317.5263,-56.091"/>
</g>
<!-- block__seq -->
<g id="node3" class="node">
<title>block__seq</title>
<polygon fill="#e0ffe0" stroke="transparent" points="523.5,-91 523.5,-112 548.5,-112 548.5,-91 523.5,-91"/>
<polygon fill="none" stroke="#000000" points="523.5,-91 523.5,-112 548.5,-112 548.5,-91 523.5,-91"/>
<text text-anchor="start" x="526.5" y="-97.8" font-family="Times,serif" font-size="14.00" fill="#000000">pos</text>
<polygon fill="#e0ffe0" stroke="transparent" points="548.5,-91 548.5,-112 610.5,-112 610.5,-91 548.5,-91"/>
<polygon fill="none" stroke="#000000" points="548.5,-91 548.5,-112 610.5,-112 610.5,-91 548.5,-91"/>
<text text-anchor="start" x="568.5" y="-97.8" font-family="Times,serif" font-size="14.00" fill="#000000">size</text>
<polygon fill="#e0ffe0" stroke="transparent" points="610.5,-91 610.5,-112 640.5,-112 640.5,-91 610.5,-91"/>
<polygon fill="none" stroke="#000000" points="610.5,-91 610.5,-112 640.5,-112 640.5,-91 610.5,-91"/>
<text text-anchor="start" x="613.5" y="-97.8" font-family="Times,serif" font-size="14.00" fill="#000000">type</text>
<polygon fill="#e0ffe0" stroke="transparent" points="640.5,-91 640.5,-112 704.5,-112 704.5,-91 640.5,-91"/>
<polygon fill="none" stroke="#000000" points="640.5,-91 640.5,-112 704.5,-112 704.5,-91 640.5,-91"/>
<text text-anchor="start" x="667" y="-97.8" font-family="Times,serif" font-size="14.00" fill="#000000">id</text>
<polygon fill="none" stroke="#000000" points="523.5,-70 523.5,-91 548.5,-91 548.5,-70 523.5,-70"/>
<text text-anchor="start" x="532.5" y="-76.8" font-family="Times,serif" font-size="14.00" fill="#000000">0</text>
<polygon fill="none" stroke="#000000" points="548.5,-70 548.5,-91 610.5,-91 610.5,-70 548.5,-70"/>
<text text-anchor="start" x="576" y="-76.8" font-family="Times,serif" font-size="14.00" fill="#000000">4</text>
<polygon fill="none" stroke="#000000" points="610.5,-70 610.5,-91 640.5,-91 640.5,-70 610.5,-70"/>
<text text-anchor="start" x="613.5" y="-76.8" font-family="Times,serif" font-size="14.00" fill="#000000">u4le</text>
<polygon fill="none" stroke="#000000" points="640.5,-70 640.5,-91 704.5,-91 704.5,-70 640.5,-70"/>
<text text-anchor="start" x="644.5" y="-76.8" font-family="Times,serif" font-size="14.00" fill="#000000">len_frame</text>
<polygon fill="none" stroke="#000000" points="523.5,-49 523.5,-70 548.5,-70 548.5,-49 523.5,-49"/>
<text text-anchor="start" x="532.5" y="-55.8" font-family="Times,serif" font-size="14.00" fill="#000000">4</text>
<polygon fill="none" stroke="#000000" points="548.5,-49 548.5,-70 610.5,-70 610.5,-49 548.5,-49"/>
<text text-anchor="start" x="576" y="-55.8" font-family="Times,serif" font-size="14.00" fill="#000000">8</text>
<polygon fill="none" stroke="#000000" points="610.5,-49 610.5,-70 640.5,-70 640.5,-49 610.5,-49"/>
<text text-anchor="start" x="613.5" y="-55.8" font-family="Times,serif" font-size="14.00" fill="#000000">u8le</text>
<polygon fill="none" stroke="#000000" points="640.5,-49 640.5,-70 704.5,-70 704.5,-49 640.5,-49"/>
<text text-anchor="start" x="643.5" y="-55.8" font-family="Times,serif" font-size="14.00" fill="#000000">timestamp</text>
<polygon fill="none" stroke="#000000" points="523.5,-28 523.5,-49 548.5,-49 548.5,-28 523.5,-28"/>
<text text-anchor="start" x="529" y="-34.8" font-family="Times,serif" font-size="14.00" fill="#000000">12</text>
<polygon fill="none" stroke="#000000" points="548.5,-28 548.5,-49 610.5,-49 610.5,-28 548.5,-28"/>
<text text-anchor="start" x="551.5" y="-34.8" font-family="Times,serif" font-size="14.00" fill="#000000">len_frame</text>
<polygon fill="none" stroke="#000000" points="610.5,-28 610.5,-49 640.5,-49 640.5,-28 610.5,-28"/>
<polygon fill="none" stroke="#000000" points="640.5,-28 640.5,-49 704.5,-49 704.5,-28 640.5,-28"/>
<text text-anchor="start" x="645" y="-34.8" font-family="Times,serif" font-size="14.00" fill="#000000">framedata</text>
</g>
<!-- blocks__seq&#45;&gt;block__seq -->
<g id="edge3" class="edge">
<title>blocks__seq:entries_type&#45;&gt;block__seq</title>
<path fill="none" stroke="#000000" stroke-width="2" d="M471.5,-55C482.2236,-55 493.3776,-55.4283 504.5104,-56.1401"/>
<polygon fill="#000000" stroke="#000000" stroke-width="2" points="504.4915,-59.6476 514.7155,-56.8694 504.9905,-52.6654 504.4915,-59.6476"/>
</g>
<!-- block__seq&#45;&gt;block__seq -->
<g id="edge4" class="edge">
<title>block__seq:len_frame_type&#45;&gt;block__seq:framedata_size</title>
<path fill="none" stroke="#404040" d="M692.2565,-91.0457C722.8187,-111.0366 710.3047,-134 626,-134 547.1909,-134 531.1179,-86.6839 554.3238,-56.6221"/>
<polygon fill="#404040" stroke="#404040" points="557.1691,-58.7054 561.4691,-49.0224 552.0692,-53.9104 557.1691,-58.7054"/>
</g>
</g>
</svg>
