<?xml version="1.0" encoding="UTF-8" standalone="no"?>
<!DOCTYPE svg PUBLIC "-//W3C//DTD SVG 1.1//EN"
 "http://www.w3.org/Graphics/SVG/1.1/DTD/svg11.dtd">
<!-- Generated by graphviz version 2.40.1 (20161225.0304)
 -->
<!-- Title: %3 Pages: 1 -->
<svg width="781pt" height="345pt"
 viewBox="0.00 0.00 781.00 345.00" xmlns="http://www.w3.org/2000/svg" xmlns:xlink="http://www.w3.org/1999/xlink">
<g id="graph0" class="graph" transform="scale(1 1) rotate(0) translate(4 341)">
<title>%3</title>
<polygon fill="#ffffff" stroke="transparent" points="-4,4 -4,-341 777,-341 777,4 -4,4"/>
<g id="clust1" class="cluster">
<title>cluster__vp8_ivf</title>
<polygon fill="none" stroke="#000000" stroke-dasharray="1,5" points="102,-8 102,-329 765,-329 765,-8 102,-8"/>
<text text-anchor="middle" x="433.5" y="-313.8" font-family="Times,serif" font-size="14.00" fill="#000000">Vp8Ivf</text>
</g>
<g id="clust2" class="cluster">
<title>cluster__blocks</title>
<polygon fill="none" stroke="#000000" stroke-dasharray="1,5" points="357,-33 357,-122 524,-122 524,-33 357,-33"/>
<text text-anchor="middle" x="440.5" y="-106.8" font-family="Times,serif" font-size="14.00" fill="#000000">Vp8Ivf::Blocks</text>
</g>
<g id="clust3" class="cluster">
<title>cluster__block</title>
<polygon fill="none" stroke="#000000" stroke-dasharray="1,5" points="544,-16 544,-165 757,-165 757,-16 544,-16"/>
<text text-anchor="middle" x="650.5" y="-149.8" font-family="Times,serif" font-size="14.00" fill="#000000">Vp8Ivf::Block</text>
</g>
<!-- vp8_ivf__seq -->
<g id="node1" class="node">
<title>vp8_ivf__seq</title>
<polygon fill="#e0ffe0" stroke="transparent" points="118.5,-272 118.5,-293 143.5,-293 143.5,-272 118.5,-272"/>
<polygon fill="none" stroke="#000000" points="118.5,-272 118.5,-293 143.5,-293 143.5,-272 118.5,-272"/>
<text text-anchor="start" x="121.5" y="-278.8" font-family="Times,serif" font-size="14.00" fill="#000000">pos</text>
<polygon fill="#e0ffe0" stroke="transparent" points="143.5,-272 143.5,-293 171.5,-293 171.5,-272 143.5,-272"/>
<polygon fill="none" stroke="#000000" points="143.5,-272 143.5,-293 171.5,-293 171.5,-272 143.5,-272"/>
<text text-anchor="start" x="146.5" y="-278.8" font-family="Times,serif" font-size="14.00" fill="#000000">size</text>
<polygon fill="#e0ffe0" stroke="transparent" points="171.5,-272 171.5,-293 245.5,-293 245.5,-272 171.5,-272"/>
<polygon fill="none" stroke="#000000" points="171.5,-272 171.5,-293 245.5,-293 245.5,-272 171.5,-272"/>
<text text-anchor="start" x="196.5" y="-278.8" font-family="Times,serif" font-size="14.00" fill="#000000">type</text>
<polygon fill="#e0ffe0" stroke="transparent" points="245.5,-272 245.5,-293 321.5,-293 321.5,-272 245.5,-272"/>
<polygon fill="none" stroke="#000000" points="245.5,-272 245.5,-293 321.5,-293 321.5,-272 245.5,-272"/>
<text text-anchor="start" x="278" y="-278.8" font-family="Times,serif" font-size="14.00" fill="#000000">id</text>
<polygon fill="none" stroke="#000000" points="118.5,-251 118.5,-272 143.5,-272 143.5,-251 118.5,-251"/>
<text text-anchor="start" x="127.5" y="-257.8" font-family="Times,serif" font-size="14.00" fill="#000000">0</text>
<polygon fill="none" stroke="#000000" points="143.5,-251 143.5,-272 171.5,-272 171.5,-251 143.5,-251"/>
<text text-anchor="start" x="154" y="-257.8" font-family="Times,serif" font-size="14.00" fill="#000000">4</text>
<polygon fill="none" stroke="#000000" points="171.5,-251 171.5,-272 245.5,-272 245.5,-251 171.5,-251"/>
<text text-anchor="start" x="174.5" y="-257.8" font-family="Times,serif" font-size="14.00" fill="#000000">44 4B 49 46</text>
<polygon fill="none" stroke="#000000" points="245.5,-251 245.5,-272 321.5,-272 321.5,-251 245.5,-251"/>
<text text-anchor="start" x="263" y="-257.8" font-family="Times,serif" font-size="14.00" fill="#000000">magic1</text>
<polygon fill="none" stroke="#000000" points="118.5,-230 118.5,-251 143.5,-251 143.5,-230 118.5,-230"/>
<text text-anchor="start" x="127.5" y="-236.8" font-family="Times,serif" font-size="14.00" fill="#000000">4</text>
<polygon fill="none" stroke="#000000" points="143.5,-230 143.5,-251 171.5,-251 171.5,-230 143.5,-230"/>
<text text-anchor="start" x="154" y="-236.8" font-family="Times,serif" font-size="14.00" fill="#000000">2</text>
<polygon fill="none" stroke="#000000" points="171.5,-230 171.5,-251 245.5,-251 245.5,-230 171.5,-230"/>
<text text-anchor="start" x="196.5" y="-236.8" font-family="Times,serif" font-size="14.00" fill="#000000">u2le</text>
<polygon fill="none" stroke="#000000" points="245.5,-230 245.5,-251 321.5,-251 321.5,-230 245.5,-230"/>
<text text-anchor="start" x="263.5" y="-236.8" font-family="Times,serif" font-size="14.00" fill="#000000">version</text>
<polygon fill="none" stroke="#000000" points="118.5,-209 118.5,-230 143.5,-230 143.5,-209 118.5,-209"/>
<text text-anchor="start" x="127.5" y="-215.8" font-family="Times,serif" font-size="14.00" fill="#000000">6</text>
<polygon fill="none" stroke="#000000" points="143.5,-209 143.5,-230 171.5,-230 171.5,-209 143.5,-209"/>
<text text-anchor="start" x="154" y="-215.8" font-family="Times,serif" font-size="14.00" fill="#000000">2</text>
<polygon fill="none" stroke="#000000" points="171.5,-209 171.5,-230 245.5,-230 245.5,-209 171.5,-209"/>
<text text-anchor="start" x="196.5" y="-215.8" font-family="Times,serif" font-size="14.00" fill="#000000">u2le</text>
<polygon fill="none" stroke="#000000" points="245.5,-209 245.5,-230 321.5,-230 321.5,-209 245.5,-209"/>
<text text-anchor="start" x="253.5" y="-215.8" font-family="Times,serif" font-size="14.00" fill="#000000">len_header</text>
<polygon fill="none" stroke="#000000" points="118.5,-188 118.5,-209 143.5,-209 143.5,-188 118.5,-188"/>
<text text-anchor="start" x="127.5" y="-194.8" font-family="Times,serif" font-size="14.00" fill="#000000">8</text>
<polygon fill="none" stroke="#000000" points="143.5,-188 143.5,-209 171.5,-209 171.5,-188 143.5,-188"/>
<text text-anchor="start" x="154" y="-194.8" font-family="Times,serif" font-size="14.00" fill="#000000">4</text>
<polygon fill="none" stroke="#000000" points="171.5,-188 171.5,-209 245.5,-209 245.5,-188 171.5,-188"/>
<text text-anchor="start" x="175.5" y="-194.8" font-family="Times,serif" font-size="14.00" fill="#000000">56 50 38 30</text>
<polygon fill="none" stroke="#000000" points="245.5,-188 245.5,-209 321.5,-209 321.5,-188 245.5,-188"/>
<text text-anchor="start" x="267.5" y="-194.8" font-family="Times,serif" font-size="14.00" fill="#000000">codec</text>
<polygon fill="none" stroke="#000000" points="118.5,-167 118.5,-188 143.5,-188 143.5,-167 118.5,-167"/>
<text text-anchor="start" x="124" y="-173.8" font-family="Times,serif" font-size="14.00" fill="#000000">12</text>
<polygon fill="none" stroke="#000000" points="143.5,-167 143.5,-188 171.5,-188 171.5,-167 143.5,-167"/>
<text text-anchor="start" x="154" y="-173.8" font-family="Times,serif" font-size="14.00" fill="#000000">2</text>
<polygon fill="none" stroke="#000000" points="171.5,-167 171.5,-188 245.5,-188 245.5,-167 171.5,-167"/>
<text text-anchor="start" x="196.5" y="-173.8" font-family="Times,serif" font-size="14.00" fill="#000000">u2le</text>
<polygon fill="none" stroke="#000000" points="245.5,-167 245.5,-188 321.5,-188 321.5,-167 245.5,-167"/>
<text text-anchor="start" x="268" y="-173.8" font-family="Times,serif" font-size="14.00" fill="#000000">width</text>
<polygon fill="none" stroke="#000000" points="118.5,-146 118.5,-167 143.5,-167 143.5,-146 118.5,-146"/>
<text text-anchor="start" x="124" y="-152.8" font-family="Times,serif" font-size="14.00" fill="#000000">14</text>
<polygon fill="none" stroke="#000000" points="143.5,-146 143.5,-167 171.5,-167 171.5,-146 143.5,-146"/>
<text text-anchor="start" x="154" y="-152.8" font-family="Times,serif" font-size="14.00" fill="#000000">2</text>
<polygon fill="none" stroke="#000000" points="171.5,-146 171.5,-167 245.5,-167 245.5,-146 171.5,-146"/>
<text text-anchor="start" x="196.5" y="-152.8" font-family="Times,serif" font-size="14.00" fill="#000000">u2le</text>
<polygon fill="none" stroke="#000000" points="245.5,-146 245.5,-167 321.5,-167 321.5,-146 245.5,-146"/>
<text text-anchor="start" x="266.5" y="-152.8" font-family="Times,serif" font-size="14.00" fill="#000000">height</text>
<polygon fill="none" stroke="#000000" points="118.5,-125 118.5,-146 143.5,-146 143.5,-125 118.5,-125"/>
<text text-anchor="start" x="124" y="-131.8" font-family="Times,serif" font-size="14.00" fill="#000000">16</text>
<polygon fill="none" stroke="#000000" points="143.5,-125 143.5,-146 171.5,-146 171.5,-125 143.5,-125"/>
<text text-anchor="start" x="154" y="-131.8" font-family="Times,serif" font-size="14.00" fill="#000000">4</text>
<polygon fill="none" stroke="#000000" points="171.5,-125 171.5,-146 245.5,-146 245.5,-125 171.5,-125"/>
<text text-anchor="start" x="196.5" y="-131.8" font-family="Times,serif" font-size="14.00" fill="#000000">u4le</text>
<polygon fill="none" stroke="#000000" points="245.5,-125 245.5,-146 321.5,-146 321.5,-125 245.5,-125"/>
<text text-anchor="start" x="257" y="-131.8" font-family="Times,serif" font-size="14.00" fill="#000000">framerate</text>
<polygon fill="none" stroke="#000000" points="118.5,-104 118.5,-125 143.5,-125 143.5,-104 118.5,-104"/>
<text text-anchor="start" x="124" y="-110.8" font-family="Times,serif" font-size="14.00" fill="#000000">20</text>
<polygon fill="none" stroke="#000000" points="143.5,-104 143.5,-125 171.5,-125 171.5,-104 143.5,-104"/>
<text text-anchor="start" x="154" y="-110.8" font-family="Times,serif" font-size="14.00" fill="#000000">4</text>
<polygon fill="none" stroke="#000000" points="171.5,-104 171.5,-125 245.5,-125 245.5,-104 171.5,-104"/>
<text text-anchor="start" x="196.5" y="-110.8" font-family="Times,serif" font-size="14.00" fill="#000000">u4le</text>
<polygon fill="none" stroke="#000000" points="245.5,-104 245.5,-125 321.5,-125 321.5,-104 245.5,-104"/>
<text text-anchor="start" x="257.5" y="-110.8" font-family="Times,serif" font-size="14.00" fill="#000000">timescale</text>
<polygon fill="none" stroke="#000000" points="118.5,-83 118.5,-104 143.5,-104 143.5,-83 118.5,-83"/>
<text text-anchor="start" x="124" y="-89.8" font-family="Times,serif" font-size="14.00" fill="#000000">24</text>
<polygon fill="none" stroke="#000000" points="143.5,-83 143.5,-104 171.5,-104 171.5,-83 143.5,-83"/>
<text text-anchor="start" x="154" y="-89.8" font-family="Times,serif" font-size="14.00" fill="#000000">4</text>
<polygon fill="none" stroke="#000000" points="171.5,-83 171.5,-104 245.5,-104 245.5,-83 171.5,-83"/>
<text text-anchor="start" x="196.5" y="-89.8" font-family="Times,serif" font-size="14.00" fill="#000000">u4le</text>
<polygon fill="none" stroke="#000000" points="245.5,-83 245.5,-104 321.5,-104 321.5,-83 245.5,-83"/>
<text text-anchor="start" x="248.5" y="-89.8" font-family="Times,serif" font-size="14.00" fill="#000000">num_frames</text>
<polygon fill="none" stroke="#000000" points="118.5,-62 118.5,-83 143.5,-83 143.5,-62 118.5,-62"/>
<text text-anchor="start" x="124" y="-68.8" font-family="Times,serif" font-size="14.00" fill="#000000">28</text>
<polygon fill="none" stroke="#000000" points="143.5,-62 143.5,-83 171.5,-83 171.5,-62 143.5,-62"/>
<text text-anchor="start" x="154" y="-68.8" font-family="Times,serif" font-size="14.00" fill="#000000">4</text>
<polygon fill="none" stroke="#000000" points="171.5,-62 171.5,-83 245.5,-83 245.5,-62 171.5,-62"/>
<text text-anchor="start" x="196.5" y="-68.8" font-family="Times,serif" font-size="14.00" fill="#000000">u4le</text>
<polygon fill="none" stroke="#000000" points="245.5,-62 245.5,-83 321.5,-83 321.5,-62 245.5,-62"/>
<text text-anchor="start" x="264" y="-68.8" font-family="Times,serif" font-size="14.00" fill="#000000">unused</text>
<polygon fill="none" stroke="#000000" points="118.5,-41 118.5,-62 143.5,-62 143.5,-41 118.5,-41"/>
<text text-anchor="start" x="124" y="-47.8" font-family="Times,serif" font-size="14.00" fill="#000000">32</text>
<polygon fill="none" stroke="#000000" points="143.5,-41 143.5,-62 171.5,-62 171.5,-41 143.5,-41"/>
<text text-anchor="start" x="151.5" y="-47.8" font-family="Times,serif" font-size="14.00" fill="#000000">...</text>
<polygon fill="none" stroke="#000000" points="171.5,-41 171.5,-62 245.5,-62 245.5,-41 171.5,-41"/>
<text text-anchor="start" x="189.5" y="-47.8" font-family="Times,serif" font-size="14.00" fill="#000000">Blocks</text>
<polygon fill="none" stroke="#000000" points="245.5,-41 245.5,-62 321.5,-62 321.5,-41 245.5,-41"/>
<text text-anchor="start" x="251.5" y="-47.8" font-family="Times,serif" font-size="14.00" fill="#000000">image_data</text>
<polygon fill="none" stroke="#000000" points="118.5,-20 118.5,-41 321.5,-41 321.5,-20 118.5,-20"/>
<text text-anchor="start" x="150" y="-26.8" font-family="Times,serif" font-size="14.00" fill="#000000">repeat num_frames times</text>
</g>
<!-- vp8_ivf__seq&#45;&gt;vp8_ivf__seq -->
<g id="edge2" class="edge">
<title>vp8_ivf__seq:num_frames_type&#45;&gt;vp8_ivf__seq:image_data__repeat</title>
<path fill="none" stroke="#404040" d="M245.4616,-96.1753C155.3365,-101.1991 0,-96.3047 0,-61.5 0,-37.6585 51.0572,-27.852 107.9852,-25.6544"/>
<polygon fill="#404040" stroke="#404040" points="108.4046,-29.1433 118.2931,-25.3395 108.1908,-22.1466 108.4046,-29.1433"/>
</g>
<!-- blocks__seq -->
<g id="node2" class="node">
<title>blocks__seq</title>
<polygon fill="#e0ffe0" stroke="transparent" points="373.5,-66 373.5,-87 398.5,-87 398.5,-66 373.5,-66"/>
<polygon fill="none" stroke="#000000" points="373.5,-66 373.5,-87 398.5,-87 398.5,-66 373.5,-66"/>
<text text-anchor="start" x="376.5" y="-72.8" font-family="Times,serif" font-size="14.00" fill="#000000">pos</text>
<polygon fill="#e0ffe0" stroke="transparent" points="398.5,-66 398.5,-87 426.5,-87 426.5,-66 398.5,-66"/>
<polygon fill="none" stroke="#000000" points="398.5,-66 398.5,-87 426.5,-87 426.5,-66 398.5,-66"/>
<text text-anchor="start" x="401.5" y="-72.8" font-family="Times,serif" font-size="14.00" fill="#000000">size</text>
<polygon fill="#e0ffe0" stroke="transparent" points="426.5,-66 426.5,-87 465.5,-87 465.5,-66 426.5,-66"/>
<polygon fill="none" stroke="#000000" points="426.5,-66 426.5,-87 465.5,-87 465.5,-66 426.5,-66"/>
<text text-anchor="start" x="434" y="-72.8" font-family="Times,serif" font-size="14.00" fill="#000000">type</text>
<polygon fill="#e0ffe0" stroke="transparent" points="465.5,-66 465.5,-87 508.5,-87 508.5,-66 465.5,-66"/>
<polygon fill="none" stroke="#000000" points="465.5,-66 465.5,-87 508.5,-87 508.5,-66 465.5,-66"/>
<text text-anchor="start" x="481.5" y="-72.8" font-family="Times,serif" font-size="14.00" fill="#000000">id</text>
<polygon fill="none" stroke="#000000" points="373.5,-45 373.5,-66 398.5,-66 398.5,-45 373.5,-45"/>
<text text-anchor="start" x="382.5" y="-51.8" font-family="Times,serif" font-size="14.00" fill="#000000">0</text>
<polygon fill="none" stroke="#000000" points="398.5,-45 398.5,-66 426.5,-66 426.5,-45 398.5,-45"/>
<text text-anchor="start" x="406.5" y="-51.8" font-family="Times,serif" font-size="14.00" fill="#000000">...</text>
<polygon fill="none" stroke="#000000" points="426.5,-45 426.5,-66 465.5,-66 465.5,-45 426.5,-45"/>
<text text-anchor="start" x="429.5" y="-51.8" font-family="Times,serif" font-size="14.00" fill="#000000">Block</text>
<polygon fill="none" stroke="#000000" points="465.5,-45 465.5,-66 508.5,-66 508.5,-45 465.5,-45"/>
<text text-anchor="start" x="468.5" y="-51.8" font-family="Times,serif" font-size="14.00" fill="#000000">entries</text>
</g>
<!-- vp8_ivf__seq&#45;&gt;blocks__seq -->
<g id="edge1" class="edge">
<title>vp8_ivf__seq:image_data_type&#45;&gt;blocks__seq</title>
<path fill="none" stroke="#000000" stroke-width="2" d="M321.5,-51C332.2614,-51 343.5275,-51.6113 354.656,-52.5871"/>
<polygon fill="#000000" stroke="#000000" stroke-width="2" points="354.5263,-56.091 364.8189,-53.5786 355.206,-49.124 354.5263,-56.091"/>
</g>
<!-- block__seq -->
<g id="node3" class="node">
<title>block__seq</title>
<polygon fill="#e0ffe0" stroke="transparent" points="560.5,-91 560.5,-112 585.5,-112 585.5,-91 560.5,-91"/>
<polygon fill="none" stroke="#000000" points="560.5,-91 560.5,-112 585.5,-112 585.5,-91 560.5,-91"/>
<text text-anchor="start" x="563.5" y="-97.8" font-family="Times,serif" font-size="14.00" fill="#000000">pos</text>
<polygon fill="#e0ffe0" stroke="transparent" points="585.5,-91 585.5,-112 647.5,-112 647.5,-91 585.5,-91"/>
<polygon fill="none" stroke="#000000" points="585.5,-91 585.5,-112 647.5,-112 647.5,-91 585.5,-91"/>
<text text-anchor="start" x="605.5" y="-97.8" font-family="Times,serif" font-size="14.00" fill="#000000">size</text>
<polygon fill="#e0ffe0" stroke="transparent" points="647.5,-91 647.5,-112 677.5,-112 677.5,-91 647.5,-91"/>
<polygon fill="none" stroke="#000000" points="647.5,-91 647.5,-112 677.5,-112 677.5,-91 647.5,-91"/>
<text text-anchor="start" x="650.5" y="-97.8" font-family="Times,serif" font-size="14.00" fill="#000000">type</text>
<polygon fill="#e0ffe0" stroke="transparent" points="677.5,-91 677.5,-112 741.5,-112 741.5,-91 677.5,-91"/>
<polygon fill="none" stroke="#000000" points="677.5,-91 677.5,-112 741.5,-112 741.5,-91 677.5,-91"/>
<text text-anchor="start" x="704" y="-97.8" font-family="Times,serif" font-size="14.00" fill="#000000">id</text>
<polygon fill="none" stroke="#000000" points="560.5,-70 560.5,-91 585.5,-91 585.5,-70 560.5,-70"/>
<text text-anchor="start" x="569.5" y="-76.8" font-family="Times,serif" font-size="14.00" fill="#000000">0</text>
<polygon fill="none" stroke="#000000" points="585.5,-70 585.5,-91 647.5,-91 647.5,-70 585.5,-70"/>
<text text-anchor="start" x="613" y="-76.8" font-family="Times,serif" font-size="14.00" fill="#000000">4</text>
<polygon fill="none" stroke="#000000" points="647.5,-70 647.5,-91 677.5,-91 677.5,-70 647.5,-70"/>
<text text-anchor="start" x="650.5" y="-76.8" font-family="Times,serif" font-size="14.00" fill="#000000">u4le</text>
<polygon fill="none" stroke="#000000" points="677.5,-70 677.5,-91 741.5,-91 741.5,-70 677.5,-70"/>
<text text-anchor="start" x="681.5" y="-76.8" font-family="Times,serif" font-size="14.00" fill="#000000">len_frame</text>
<polygon fill="none" stroke="#000000" points="560.5,-49 560.5,-70 585.5,-70 585.5,-49 560.5,-49"/>
<text text-anchor="start" x="569.5" y="-55.8" font-family="Times,serif" font-size="14.00" fill="#000000">4</text>
<polygon fill="none" stroke="#000000" points="585.5,-49 585.5,-70 647.5,-70 647.5,-49 585.5,-49"/>
<text text-anchor="start" x="613" y="-55.8" font-family="Times,serif" font-size="14.00" fill="#000000">8</text>
<polygon fill="none" stroke="#000000" points="647.5,-49 647.5,-70 677.5,-70 677.5,-49 647.5,-49"/>
<text text-anchor="start" x="650.5" y="-55.8" font-family="Times,serif" font-size="14.00" fill="#000000">u8le</text>
<polygon fill="none" stroke="#000000" points="677.5,-49 677.5,-70 741.5,-70 741.5,-49 677.5,-49"/>
<text text-anchor="start" x="680.5" y="-55.8" font-family="Times,serif" font-size="14.00" fill="#000000">timestamp</text>
<polygon fill="none" stroke="#000000" points="560.5,-28 560.5,-49 585.5,-49 585.5,-28 560.5,-28"/>
<text text-anchor="start" x="566" y="-34.8" font-family="Times,serif" font-size="14.00" fill="#000000">12</text>
<polygon fill="none" stroke="#000000" points="585.5,-28 585.5,-49 647.5,-49 647.5,-28 585.5,-28"/>
<text text-anchor="start" x="588.5" y="-34.8" font-family="Times,serif" font-size="14.00" fill="#000000">len_frame</text>
<polygon fill="none" stroke="#000000" points="647.5,-28 647.5,-49 677.5,-49 677.5,-28 647.5,-28"/>
<polygon fill="none" stroke="#000000" points="677.5,-28 677.5,-49 741.5,-49 741.5,-28 677.5,-28"/>
<text text-anchor="start" x="682" y="-34.8" font-family="Times,serif" font-size="14.00" fill="#000000">framedata</text>
</g>
<!-- blocks__seq&#45;&gt;block__seq -->
<g id="edge3" class="edge">
<title>blocks__seq:entries_type&#45;&gt;block__seq</title>
<path fill="none" stroke="#000000" stroke-width="2" d="M508.5,-55C519.2236,-55 530.3776,-55.4283 541.5104,-56.1401"/>
<polygon fill="#000000" stroke="#000000" stroke-width="2" points="541.4915,-59.6476 551.7155,-56.8694 541.9905,-52.6654 541.4915,-59.6476"/>
</g>
<!-- block__seq&#45;&gt;block__seq -->
<g id="edge4" class="edge">
<title>block__seq:len_frame_type&#45;&gt;block__seq:framedata_size</title>
<path fill="none" stroke="#404040" d="M729.2565,-91.0457C759.8187,-111.0366 747.3047,-134 663,-134 584.1909,-134 568.1179,-86.6839 591.3238,-56.6221"/>
<polygon fill="#404040" stroke="#404040" points="594.1691,-58.7054 598.4691,-49.0224 589.0692,-53.9104 594.1691,-58.7054"/>
</g>
</g>
</svg>
