<?xml version="1.0" encoding="UTF-8" standalone="no"?>
<!DOCTYPE svg PUBLIC "-//W3C//DTD SVG 1.1//EN"
 "http://www.w3.org/Graphics/SVG/1.1/DTD/svg11.dtd">
<!-- Generated by graphviz version 2.40.1 (20161225.0304)
 -->
<!-- Title: %3 Pages: 1 -->
<svg width="1445pt" height="432pt"
 viewBox="0.00 0.00 1445.00 432.00" xmlns="http://www.w3.org/2000/svg" xmlns:xlink="http://www.w3.org/1999/xlink">
<g id="graph0" class="graph" transform="scale(1 1) rotate(0) translate(4 428)">
<title>%3</title>
<polygon fill="#ffffff" stroke="transparent" points="-4,4 -4,-428 1441,-428 1441,4 -4,4"/>
<g id="clust1" class="cluster">
<title>cluster__zx_spectrum_tap</title>
<polygon fill="none" stroke="#000000" stroke-dasharray="1,5" points="8,-8 8,-416 1432,-416 1432,-8 8,-8"/>
<text text-anchor="middle" x="720" y="-400.8" font-family="Times,serif" font-size="14.00" fill="#000000">ZxSpectrumTap</text>
</g>
<g id="clust2" class="cluster">
<title>cluster__block</title>
<polygon fill="none" stroke="#000000" stroke-dasharray="1,5" points="194,-186 194,-377 558,-377 558,-186 194,-186"/>
<text text-anchor="middle" x="376" y="-361.8" font-family="Times,serif" font-size="14.00" fill="#000000">ZxSpectrumTap::Block</text>
</g>
<g id="clust3" class="cluster">
<title>cluster__program_params</title>
<polygon fill="none" stroke="#000000" stroke-dasharray="1,5" points="1224,-16 1224,-127 1424,-127 1424,-16 1224,-16"/>
<text text-anchor="middle" x="1324" y="-111.8" font-family="Times,serif" font-size="14.00" fill="#000000">ZxSpectrumTap::ProgramParams</text>
</g>
<g id="clust4" class="cluster">
<title>cluster__bytes_params</title>
<polygon fill="none" stroke="#000000" stroke-dasharray="1,5" points="1227.5,-135 1227.5,-246 1419.5,-246 1419.5,-135 1227.5,-135"/>
<text text-anchor="middle" x="1323.5" y="-230.8" font-family="Times,serif" font-size="14.00" fill="#000000">ZxSpectrumTap::BytesParams</text>
</g>
<g id="clust5" class="cluster">
<title>cluster__header</title>
<polygon fill="none" stroke="#000000" stroke-dasharray="1,5" points="578,-170 578,-361 1196,-361 1196,-170 578,-170"/>
<text text-anchor="middle" x="887" y="-345.8" font-family="Times,serif" font-size="14.00" fill="#000000">ZxSpectrumTap::Header</text>
</g>
<g id="clust6" class="cluster">
<title>cluster__array_params</title>
<polygon fill="none" stroke="#000000" stroke-dasharray="1,5" points="1231.5,-254 1231.5,-385 1416.5,-385 1416.5,-254 1231.5,-254"/>
<text text-anchor="middle" x="1324" y="-369.8" font-family="Times,serif" font-size="14.00" fill="#000000">ZxSpectrumTap::ArrayParams</text>
</g>
<!-- zx_spectrum_tap__seq -->
<g id="node1" class="node">
<title>zx_spectrum_tap__seq</title>
<polygon fill="#e0ffe0" stroke="transparent" points="24,-272 24,-293 49,-293 49,-272 24,-272"/>
<polygon fill="none" stroke="#000000" points="24,-272 24,-293 49,-293 49,-272 24,-272"/>
<text text-anchor="start" x="27" y="-278.8" font-family="Times,serif" font-size="14.00" fill="#000000">pos</text>
<polygon fill="#e0ffe0" stroke="transparent" points="49,-272 49,-293 77,-293 77,-272 49,-272"/>
<polygon fill="none" stroke="#000000" points="49,-272 49,-293 77,-293 77,-272 49,-272"/>
<text text-anchor="start" x="52" y="-278.8" font-family="Times,serif" font-size="14.00" fill="#000000">size</text>
<polygon fill="#e0ffe0" stroke="transparent" points="77,-272 77,-293 116,-293 116,-272 77,-272"/>
<polygon fill="none" stroke="#000000" points="77,-272 77,-293 116,-293 116,-272 77,-272"/>
<text text-anchor="start" x="84.5" y="-278.8" font-family="Times,serif" font-size="14.00" fill="#000000">type</text>
<polygon fill="#e0ffe0" stroke="transparent" points="116,-272 116,-293 158,-293 158,-272 116,-272"/>
<polygon fill="none" stroke="#000000" points="116,-272 116,-293 158,-293 158,-272 116,-272"/>
<text text-anchor="start" x="131.5" y="-278.8" font-family="Times,serif" font-size="14.00" fill="#000000">id</text>
<polygon fill="none" stroke="#000000" points="24,-251 24,-272 49,-272 49,-251 24,-251"/>
<text text-anchor="start" x="33" y="-257.8" font-family="Times,serif" font-size="14.00" fill="#000000">0</text>
<polygon fill="none" stroke="#000000" points="49,-251 49,-272 77,-272 77,-251 49,-251"/>
<text text-anchor="start" x="57" y="-257.8" font-family="Times,serif" font-size="14.00" fill="#000000">...</text>
<polygon fill="none" stroke="#000000" points="77,-251 77,-272 116,-272 116,-251 77,-251"/>
<text text-anchor="start" x="80" y="-257.8" font-family="Times,serif" font-size="14.00" fill="#000000">Block</text>
<polygon fill="none" stroke="#000000" points="116,-251 116,-272 158,-272 158,-251 116,-251"/>
<text text-anchor="start" x="119" y="-257.8" font-family="Times,serif" font-size="14.00" fill="#000000">blocks</text>
<polygon fill="none" stroke="#000000" points="24,-230 24,-251 158,-251 158,-230 24,-230"/>
<text text-anchor="start" x="27.5" y="-236.8" font-family="Times,serif" font-size="14.00" fill="#000000">repeat to end of stream</text>
</g>
<!-- block__seq -->
<g id="node2" class="node">
<title>block__seq</title>
<polygon fill="#e0ffe0" stroke="transparent" points="210,-303 210,-324 235,-324 235,-303 210,-303"/>
<polygon fill="none" stroke="#000000" points="210,-303 210,-324 235,-324 235,-303 210,-303"/>
<text text-anchor="start" x="213" y="-309.8" font-family="Times,serif" font-size="14.00" fill="#000000">pos</text>
<polygon fill="#e0ffe0" stroke="transparent" points="235,-303 235,-324 359,-324 359,-303 235,-303"/>
<polygon fill="none" stroke="#000000" points="235,-303 235,-324 359,-324 359,-303 235,-303"/>
<text text-anchor="start" x="286" y="-309.8" font-family="Times,serif" font-size="14.00" fill="#000000">size</text>
<polygon fill="#e0ffe0" stroke="transparent" points="359,-303 359,-324 450,-324 450,-303 359,-303"/>
<polygon fill="none" stroke="#000000" points="359,-303 359,-324 450,-324 450,-303 359,-303"/>
<text text-anchor="start" x="392.5" y="-309.8" font-family="Times,serif" font-size="14.00" fill="#000000">type</text>
<polygon fill="#e0ffe0" stroke="transparent" points="450,-303 450,-324 542,-324 542,-303 450,-303"/>
<polygon fill="none" stroke="#000000" points="450,-303 450,-324 542,-324 542,-303 450,-303"/>
<text text-anchor="start" x="490.5" y="-309.8" font-family="Times,serif" font-size="14.00" fill="#000000">id</text>
<polygon fill="none" stroke="#000000" points="210,-282 210,-303 235,-303 235,-282 210,-282"/>
<text text-anchor="start" x="219" y="-288.8" font-family="Times,serif" font-size="14.00" fill="#000000">0</text>
<polygon fill="none" stroke="#000000" points="235,-282 235,-303 359,-303 359,-282 235,-282"/>
<text text-anchor="start" x="293.5" y="-288.8" font-family="Times,serif" font-size="14.00" fill="#000000">2</text>
<polygon fill="none" stroke="#000000" points="359,-282 359,-303 450,-303 450,-282 359,-282"/>
<text text-anchor="start" x="392.5" y="-288.8" font-family="Times,serif" font-size="14.00" fill="#000000">u2le</text>
<polygon fill="none" stroke="#000000" points="450,-282 450,-303 542,-303 542,-282 450,-282"/>
<text text-anchor="start" x="469" y="-288.8" font-family="Times,serif" font-size="14.00" fill="#000000">len_block</text>
<polygon fill="none" stroke="#000000" points="210,-261 210,-282 235,-282 235,-261 210,-261"/>
<text text-anchor="start" x="219" y="-267.8" font-family="Times,serif" font-size="14.00" fill="#000000">2</text>
<polygon fill="none" stroke="#000000" points="235,-261 235,-282 359,-282 359,-261 235,-261"/>
<text text-anchor="start" x="293.5" y="-267.8" font-family="Times,serif" font-size="14.00" fill="#000000">1</text>
<polygon fill="none" stroke="#000000" points="359,-261 359,-282 450,-282 450,-261 359,-261"/>
<text text-anchor="start" x="362" y="-267.8" font-family="Times,serif" font-size="14.00" fill="#000000">u1→FlagEnum</text>
<polygon fill="none" stroke="#000000" points="450,-261 450,-282 542,-282 542,-261 450,-261"/>
<text text-anchor="start" x="485" y="-267.8" font-family="Times,serif" font-size="14.00" fill="#000000">flag</text>
<polygon fill="none" stroke="#000000" points="210,-240 210,-261 235,-261 235,-240 210,-240"/>
<text text-anchor="start" x="219" y="-246.8" font-family="Times,serif" font-size="14.00" fill="#000000">3</text>
<polygon fill="none" stroke="#000000" points="235,-240 235,-261 359,-261 359,-240 235,-240"/>
<text text-anchor="start" x="291" y="-246.8" font-family="Times,serif" font-size="14.00" fill="#000000">...</text>
<polygon fill="none" stroke="#000000" points="359,-240 359,-261 450,-261 450,-240 359,-240"/>
<text text-anchor="start" x="384.5" y="-246.8" font-family="Times,serif" font-size="14.00" fill="#000000">Header</text>
<polygon fill="none" stroke="#000000" points="450,-240 450,-261 542,-261 542,-240 450,-240"/>
<text text-anchor="start" x="477.5" y="-246.8" font-family="Times,serif" font-size="14.00" fill="#000000">header</text>
<polygon fill="none" stroke="#000000" points="210,-219 210,-240 235,-240 235,-219 210,-219"/>
<text text-anchor="start" x="216.5" y="-225.8" font-family="Times,serif" font-size="14.00" fill="#000000">...</text>
<polygon fill="none" stroke="#000000" points="235,-219 235,-240 359,-240 359,-219 235,-219"/>
<text text-anchor="start" x="238" y="-225.8" font-family="Times,serif" font-size="14.00" fill="#000000">(header.len_data + 4)</text>
<polygon fill="none" stroke="#000000" points="359,-219 359,-240 450,-240 450,-219 359,-219"/>
<polygon fill="none" stroke="#000000" points="450,-219 450,-240 542,-240 542,-219 450,-219"/>
<text text-anchor="start" x="484.5" y="-225.8" font-family="Times,serif" font-size="14.00" fill="#000000">data</text>
<polygon fill="none" stroke="#000000" points="210,-198 210,-219 235,-219 235,-198 210,-198"/>
<text text-anchor="start" x="216.5" y="-204.8" font-family="Times,serif" font-size="14.00" fill="#000000">...</text>
<polygon fill="none" stroke="#000000" points="235,-198 235,-219 359,-219 359,-198 235,-198"/>
<text text-anchor="start" x="256" y="-204.8" font-family="Times,serif" font-size="14.00" fill="#000000">(len_block &#45; 1)</text>
<polygon fill="none" stroke="#000000" points="359,-198 359,-219 450,-219 450,-198 359,-198"/>
<polygon fill="none" stroke="#000000" points="450,-198 450,-219 542,-219 542,-198 450,-198"/>
<text text-anchor="start" x="453" y="-204.8" font-family="Times,serif" font-size="14.00" fill="#000000">headerless_data</text>
</g>
<!-- zx_spectrum_tap__seq&#45;&gt;block__seq -->
<g id="edge1" class="edge">
<title>zx_spectrum_tap__seq:blocks_type&#45;&gt;block__seq</title>
<path fill="none" stroke="#000000" stroke-width="2" d="M158,-261C169.0504,-261 180.4158,-261 191.8807,-261"/>
<polygon fill="#000000" stroke="#000000" stroke-width="2" points="191.9761,-264.5001 201.9761,-261 191.9761,-257.5001 191.9761,-264.5001"/>
</g>
<!-- block__seq&#45;&gt;block__seq -->
<g id="edge4" class="edge">
<title>block__seq:len_block_type&#45;&gt;block__seq:headerless_data_size</title>
<path fill="none" stroke="#404040" d="M518.4929,-303.0944C564.4998,-326.9456 546.3535,-346 396.5,-346 252.0084,-346 229.9674,-267.2391 269.818,-225.9658"/>
<polygon fill="#404040" stroke="#404040" points="272.2462,-228.4894 277.3439,-219.2015 267.5669,-223.2832 272.2462,-228.4894"/>
</g>
<!-- header__seq -->
<g id="node5" class="node">
<title>header__seq</title>
<polygon fill="#e0ffe0" stroke="transparent" points="594,-287 594,-308 619,-308 619,-287 594,-287"/>
<polygon fill="none" stroke="#000000" points="594,-287 594,-308 619,-308 619,-287 594,-287"/>
<text text-anchor="start" x="597" y="-293.8" font-family="Times,serif" font-size="14.00" fill="#000000">pos</text>
<polygon fill="#e0ffe0" stroke="transparent" points="619,-287 619,-308 647,-308 647,-287 619,-287"/>
<polygon fill="none" stroke="#000000" points="619,-287 619,-308 647,-308 647,-287 619,-287"/>
<text text-anchor="start" x="622" y="-293.8" font-family="Times,serif" font-size="14.00" fill="#000000">size</text>
<polygon fill="#e0ffe0" stroke="transparent" points="647,-287 647,-308 781,-308 781,-287 647,-287"/>
<polygon fill="none" stroke="#000000" points="647,-287 647,-308 781,-308 781,-287 647,-287"/>
<text text-anchor="start" x="702" y="-293.8" font-family="Times,serif" font-size="14.00" fill="#000000">type</text>
<polygon fill="#e0ffe0" stroke="transparent" points="781,-287 781,-308 854,-308 854,-287 781,-287"/>
<polygon fill="none" stroke="#000000" points="781,-287 781,-308 854,-308 854,-287 781,-287"/>
<text text-anchor="start" x="812" y="-293.8" font-family="Times,serif" font-size="14.00" fill="#000000">id</text>
<polygon fill="none" stroke="#000000" points="594,-266 594,-287 619,-287 619,-266 594,-266"/>
<text text-anchor="start" x="603" y="-272.8" font-family="Times,serif" font-size="14.00" fill="#000000">0</text>
<polygon fill="none" stroke="#000000" points="619,-266 619,-287 647,-287 647,-266 619,-266"/>
<text text-anchor="start" x="629.5" y="-272.8" font-family="Times,serif" font-size="14.00" fill="#000000">1</text>
<polygon fill="none" stroke="#000000" points="647,-266 647,-287 781,-287 781,-266 647,-266"/>
<text text-anchor="start" x="650" y="-272.8" font-family="Times,serif" font-size="14.00" fill="#000000">u1→HeaderTypeEnum</text>
<polygon fill="none" stroke="#000000" points="781,-266 781,-287 854,-287 854,-266 781,-266"/>
<text text-anchor="start" x="784" y="-272.8" font-family="Times,serif" font-size="14.00" fill="#000000">header_type</text>
<polygon fill="none" stroke="#000000" points="594,-245 594,-266 619,-266 619,-245 594,-245"/>
<text text-anchor="start" x="603" y="-251.8" font-family="Times,serif" font-size="14.00" fill="#000000">1</text>
<polygon fill="none" stroke="#000000" points="619,-245 619,-266 647,-266 647,-245 619,-245"/>
<text text-anchor="start" x="626" y="-251.8" font-family="Times,serif" font-size="14.00" fill="#000000">10</text>
<polygon fill="none" stroke="#000000" points="647,-245 647,-266 781,-266 781,-245 647,-245"/>
<polygon fill="none" stroke="#000000" points="781,-245 781,-266 854,-266 854,-245 781,-245"/>
<text text-anchor="start" x="793" y="-251.8" font-family="Times,serif" font-size="14.00" fill="#000000">filename</text>
<polygon fill="none" stroke="#000000" points="594,-224 594,-245 619,-245 619,-224 594,-224"/>
<text text-anchor="start" x="599.5" y="-230.8" font-family="Times,serif" font-size="14.00" fill="#000000">11</text>
<polygon fill="none" stroke="#000000" points="619,-224 619,-245 647,-245 647,-224 619,-224"/>
<text text-anchor="start" x="629.5" y="-230.8" font-family="Times,serif" font-size="14.00" fill="#000000">2</text>
<polygon fill="none" stroke="#000000" points="647,-224 647,-245 781,-245 781,-224 647,-224"/>
<text text-anchor="start" x="702" y="-230.8" font-family="Times,serif" font-size="14.00" fill="#000000">u2le</text>
<polygon fill="none" stroke="#000000" points="781,-224 781,-245 854,-245 854,-224 781,-224"/>
<text text-anchor="start" x="794.5" y="-230.8" font-family="Times,serif" font-size="14.00" fill="#000000">len_data</text>
<polygon fill="none" stroke="#000000" points="594,-203 594,-224 619,-224 619,-203 594,-203"/>
<text text-anchor="start" x="599.5" y="-209.8" font-family="Times,serif" font-size="14.00" fill="#000000">13</text>
<polygon fill="none" stroke="#000000" points="619,-203 619,-224 647,-224 647,-203 619,-203"/>
<text text-anchor="start" x="627" y="-209.8" font-family="Times,serif" font-size="14.00" fill="#000000">...</text>
<polygon fill="none" stroke="#000000" points="647,-203 647,-224 781,-224 781,-203 647,-203"/>
<text text-anchor="start" x="656.5" y="-209.8" font-family="Times,serif" font-size="14.00" fill="#000000">switch (header_type)</text>
<polygon fill="none" stroke="#000000" points="781,-203 781,-224 854,-224 854,-203 781,-203"/>
<text text-anchor="start" x="797.5" y="-209.8" font-family="Times,serif" font-size="14.00" fill="#000000">params</text>
<polygon fill="none" stroke="#000000" points="594,-182 594,-203 619,-203 619,-182 594,-182"/>
<text text-anchor="start" x="600.5" y="-188.8" font-family="Times,serif" font-size="14.00" fill="#000000">...</text>
<polygon fill="none" stroke="#000000" points="619,-182 619,-203 647,-203 647,-182 619,-182"/>
<text text-anchor="start" x="629.5" y="-188.8" font-family="Times,serif" font-size="14.00" fill="#000000">1</text>
<polygon fill="none" stroke="#000000" points="647,-182 647,-203 781,-203 781,-182 647,-182"/>
<text text-anchor="start" x="707" y="-188.8" font-family="Times,serif" font-size="14.00" fill="#000000">u1</text>
<polygon fill="none" stroke="#000000" points="781,-182 781,-203 854,-203 854,-182 781,-182"/>
<text text-anchor="start" x="790" y="-188.8" font-family="Times,serif" font-size="14.00" fill="#000000">checksum</text>
</g>
<!-- block__seq&#45;&gt;header__seq -->
<g id="edge2" class="edge">
<title>block__seq:header_type&#45;&gt;header__seq</title>
<path fill="none" stroke="#000000" stroke-width="2" d="M542,-250C553.0015,-250 564.3756,-249.9076 575.8177,-249.7479"/>
<polygon fill="#000000" stroke="#000000" stroke-width="2" points="575.9386,-253.2465 585.8827,-249.5908 575.8293,-246.2474 575.9386,-253.2465"/>
</g>
<!-- program_params__seq -->
<g id="node3" class="node">
<title>program_params__seq</title>
<polygon fill="#e0ffe0" stroke="transparent" points="1242.5,-70 1242.5,-91 1267.5,-91 1267.5,-70 1242.5,-70"/>
<polygon fill="none" stroke="#000000" points="1242.5,-70 1242.5,-91 1267.5,-91 1267.5,-70 1242.5,-70"/>
<text text-anchor="start" x="1245.5" y="-76.8" font-family="Times,serif" font-size="14.00" fill="#000000">pos</text>
<polygon fill="#e0ffe0" stroke="transparent" points="1267.5,-70 1267.5,-91 1295.5,-91 1295.5,-70 1267.5,-70"/>
<polygon fill="none" stroke="#000000" points="1267.5,-70 1267.5,-91 1295.5,-91 1295.5,-70 1267.5,-70"/>
<text text-anchor="start" x="1270.5" y="-76.8" font-family="Times,serif" font-size="14.00" fill="#000000">size</text>
<polygon fill="#e0ffe0" stroke="transparent" points="1295.5,-70 1295.5,-91 1325.5,-91 1325.5,-70 1295.5,-70"/>
<polygon fill="none" stroke="#000000" points="1295.5,-70 1295.5,-91 1325.5,-91 1325.5,-70 1295.5,-70"/>
<text text-anchor="start" x="1298.5" y="-76.8" font-family="Times,serif" font-size="14.00" fill="#000000">type</text>
<polygon fill="#e0ffe0" stroke="transparent" points="1325.5,-70 1325.5,-91 1405.5,-91 1405.5,-70 1325.5,-70"/>
<polygon fill="none" stroke="#000000" points="1325.5,-70 1325.5,-91 1405.5,-91 1405.5,-70 1325.5,-70"/>
<text text-anchor="start" x="1360" y="-76.8" font-family="Times,serif" font-size="14.00" fill="#000000">id</text>
<polygon fill="none" stroke="#000000" points="1242.5,-49 1242.5,-70 1267.5,-70 1267.5,-49 1242.5,-49"/>
<text text-anchor="start" x="1251.5" y="-55.8" font-family="Times,serif" font-size="14.00" fill="#000000">0</text>
<polygon fill="none" stroke="#000000" points="1267.5,-49 1267.5,-70 1295.5,-70 1295.5,-49 1267.5,-49"/>
<text text-anchor="start" x="1278" y="-55.8" font-family="Times,serif" font-size="14.00" fill="#000000">2</text>
<polygon fill="none" stroke="#000000" points="1295.5,-49 1295.5,-70 1325.5,-70 1325.5,-49 1295.5,-49"/>
<text text-anchor="start" x="1298.5" y="-55.8" font-family="Times,serif" font-size="14.00" fill="#000000">u2le</text>
<polygon fill="none" stroke="#000000" points="1325.5,-49 1325.5,-70 1405.5,-70 1405.5,-49 1325.5,-49"/>
<text text-anchor="start" x="1328.5" y="-55.8" font-family="Times,serif" font-size="14.00" fill="#000000">autostart_line</text>
<polygon fill="none" stroke="#000000" points="1242.5,-28 1242.5,-49 1267.5,-49 1267.5,-28 1242.5,-28"/>
<text text-anchor="start" x="1251.5" y="-34.8" font-family="Times,serif" font-size="14.00" fill="#000000">2</text>
<polygon fill="none" stroke="#000000" points="1267.5,-28 1267.5,-49 1295.5,-49 1295.5,-28 1267.5,-28"/>
<text text-anchor="start" x="1278" y="-34.8" font-family="Times,serif" font-size="14.00" fill="#000000">2</text>
<polygon fill="none" stroke="#000000" points="1295.5,-28 1295.5,-49 1325.5,-49 1325.5,-28 1295.5,-28"/>
<text text-anchor="start" x="1298.5" y="-34.8" font-family="Times,serif" font-size="14.00" fill="#000000">u2le</text>
<polygon fill="none" stroke="#000000" points="1325.5,-28 1325.5,-49 1405.5,-49 1405.5,-28 1325.5,-28"/>
<text text-anchor="start" x="1330.5" y="-34.8" font-family="Times,serif" font-size="14.00" fill="#000000">len_program</text>
</g>
<!-- bytes_params__seq -->
<g id="node4" class="node">
<title>bytes_params__seq</title>
<polygon fill="#e0ffe0" stroke="transparent" points="1243.5,-189 1243.5,-210 1268.5,-210 1268.5,-189 1243.5,-189"/>
<polygon fill="none" stroke="#000000" points="1243.5,-189 1243.5,-210 1268.5,-210 1268.5,-189 1243.5,-189"/>
<text text-anchor="start" x="1246.5" y="-195.8" font-family="Times,serif" font-size="14.00" fill="#000000">pos</text>
<polygon fill="#e0ffe0" stroke="transparent" points="1268.5,-189 1268.5,-210 1296.5,-210 1296.5,-189 1268.5,-189"/>
<polygon fill="none" stroke="#000000" points="1268.5,-189 1268.5,-210 1296.5,-210 1296.5,-189 1268.5,-189"/>
<text text-anchor="start" x="1271.5" y="-195.8" font-family="Times,serif" font-size="14.00" fill="#000000">size</text>
<polygon fill="#e0ffe0" stroke="transparent" points="1296.5,-189 1296.5,-210 1326.5,-210 1326.5,-189 1296.5,-189"/>
<polygon fill="none" stroke="#000000" points="1296.5,-189 1296.5,-210 1326.5,-210 1326.5,-189 1296.5,-189"/>
<text text-anchor="start" x="1299.5" y="-195.8" font-family="Times,serif" font-size="14.00" fill="#000000">type</text>
<polygon fill="#e0ffe0" stroke="transparent" points="1326.5,-189 1326.5,-210 1403.5,-210 1403.5,-189 1326.5,-189"/>
<polygon fill="none" stroke="#000000" points="1326.5,-189 1326.5,-210 1403.5,-210 1403.5,-189 1326.5,-189"/>
<text text-anchor="start" x="1359.5" y="-195.8" font-family="Times,serif" font-size="14.00" fill="#000000">id</text>
<polygon fill="none" stroke="#000000" points="1243.5,-168 1243.5,-189 1268.5,-189 1268.5,-168 1243.5,-168"/>
<text text-anchor="start" x="1252.5" y="-174.8" font-family="Times,serif" font-size="14.00" fill="#000000">0</text>
<polygon fill="none" stroke="#000000" points="1268.5,-168 1268.5,-189 1296.5,-189 1296.5,-168 1268.5,-168"/>
<text text-anchor="start" x="1279" y="-174.8" font-family="Times,serif" font-size="14.00" fill="#000000">2</text>
<polygon fill="none" stroke="#000000" points="1296.5,-168 1296.5,-189 1326.5,-189 1326.5,-168 1296.5,-168"/>
<text text-anchor="start" x="1299.5" y="-174.8" font-family="Times,serif" font-size="14.00" fill="#000000">u2le</text>
<polygon fill="none" stroke="#000000" points="1326.5,-168 1326.5,-189 1403.5,-189 1403.5,-168 1326.5,-168"/>
<text text-anchor="start" x="1329.5" y="-174.8" font-family="Times,serif" font-size="14.00" fill="#000000">start_address</text>
<polygon fill="none" stroke="#000000" points="1243.5,-147 1243.5,-168 1268.5,-168 1268.5,-147 1243.5,-147"/>
<text text-anchor="start" x="1252.5" y="-153.8" font-family="Times,serif" font-size="14.00" fill="#000000">2</text>
<polygon fill="none" stroke="#000000" points="1268.5,-147 1268.5,-168 1296.5,-168 1296.5,-147 1268.5,-147"/>
<text text-anchor="start" x="1279" y="-153.8" font-family="Times,serif" font-size="14.00" fill="#000000">2</text>
<polygon fill="none" stroke="#000000" points="1296.5,-147 1296.5,-168 1326.5,-168 1326.5,-147 1296.5,-147"/>
<polygon fill="none" stroke="#000000" points="1326.5,-147 1326.5,-168 1403.5,-168 1403.5,-147 1326.5,-147"/>
<text text-anchor="start" x="1342" y="-153.8" font-family="Times,serif" font-size="14.00" fill="#000000">reserved</text>
</g>
<!-- header__seq&#45;&gt;block__seq -->
<g id="edge3" class="edge">
<title>header__seq:len_data_type&#45;&gt;block__seq:data_size</title>
<path fill="none" stroke="#404040" d="M854,-234C878.8889,-234 871.5991,-195.5991 854,-178 706.4275,-30.4275 414.0604,-166.5823 324.0267,-214.0809"/>
<polygon fill="#404040" stroke="#404040" points="322.1768,-211.101 315.0076,-218.9019 325.4767,-217.2744 322.1768,-211.101"/>
</g>
<!-- header__seq&#45;&gt;header__seq -->
<g id="edge10" class="edge">
<title>header__seq:header_type_type&#45;&gt;header__seq:params_type</title>
<path fill="none" stroke="#404040" d="M792.6164,-287.0944C739.6658,-310.9456 748.127,-330 818,-330 885.2179,-330 895.6025,-266.6136 849.1538,-229.9024"/>
<polygon fill="#404040" stroke="#404040" points="851.0517,-226.9577 840.868,-224.0348 847.0062,-232.6704 851.0517,-226.9577"/>
</g>
<!-- header__seq_params_switch -->
<g id="node6" class="node">
<title>header__seq_params_switch</title>
<polygon fill="#f0f2e4" stroke="transparent" points="906,-266 906,-287 1086,-287 1086,-266 906,-266"/>
<polygon fill="none" stroke="#000000" points="906,-266 906,-287 1086,-287 1086,-266 906,-266"/>
<text text-anchor="start" x="984" y="-272.8" font-family="Times,serif" font-size="14.00" fill="#000000">case</text>
<polygon fill="#f0f2e4" stroke="transparent" points="1086,-266 1086,-287 1180,-287 1180,-266 1086,-266"/>
<polygon fill="none" stroke="#000000" points="1086,-266 1086,-287 1180,-287 1180,-266 1086,-266"/>
<text text-anchor="start" x="1121" y="-272.8" font-family="Times,serif" font-size="14.00" fill="#000000">type</text>
<polygon fill="none" stroke="#000000" points="906,-245 906,-266 1086,-266 1086,-245 906,-245"/>
<text text-anchor="start" x="915.5" y="-251.8" font-family="Times,serif" font-size="14.00" fill="#000000">:header_type_enum_program</text>
<polygon fill="none" stroke="#000000" points="1086,-245 1086,-266 1180,-266 1180,-245 1086,-245"/>
<text text-anchor="start" x="1089" y="-251.8" font-family="Times,serif" font-size="14.00" fill="#000000">ProgramParams</text>
<polygon fill="none" stroke="#000000" points="906,-224 906,-245 1086,-245 1086,-224 906,-224"/>
<text text-anchor="start" x="909" y="-230.8" font-family="Times,serif" font-size="14.00" fill="#000000">:header_type_enum_num_array</text>
<polygon fill="none" stroke="#000000" points="1086,-224 1086,-245 1180,-245 1180,-224 1086,-224"/>
<text text-anchor="start" x="1096.5" y="-230.8" font-family="Times,serif" font-size="14.00" fill="#000000">ArrayParams</text>
<polygon fill="none" stroke="#000000" points="906,-203 906,-224 1086,-224 1086,-203 906,-203"/>
<text text-anchor="start" x="910" y="-209.8" font-family="Times,serif" font-size="14.00" fill="#000000">:header_type_enum_char_array</text>
<polygon fill="none" stroke="#000000" points="1086,-203 1086,-224 1180,-224 1180,-203 1086,-203"/>
<text text-anchor="start" x="1096.5" y="-209.8" font-family="Times,serif" font-size="14.00" fill="#000000">ArrayParams</text>
<polygon fill="none" stroke="#000000" points="906,-182 906,-203 1086,-203 1086,-182 906,-182"/>
<text text-anchor="start" x="924.5" y="-188.8" font-family="Times,serif" font-size="14.00" fill="#000000">:header_type_enum_bytes</text>
<polygon fill="none" stroke="#000000" points="1086,-182 1086,-203 1180,-203 1180,-182 1086,-182"/>
<text text-anchor="start" x="1097" y="-188.8" font-family="Times,serif" font-size="14.00" fill="#000000">BytesParams</text>
</g>
<!-- header__seq&#45;&gt;header__seq_params_switch -->
<g id="edge5" class="edge">
<title>header__seq:params_type&#45;&gt;header__seq_params_switch</title>
<path fill="none" stroke="#000000" stroke-width="2" d="M854,-213C865.0503,-213 876.4397,-213.3756 887.8911,-214.0287"/>
<polygon fill="#000000" stroke="#000000" stroke-width="2" points="887.7607,-217.5274 897.9633,-214.6716 888.2066,-210.5417 887.7607,-217.5274"/>
</g>
<!-- header__seq_params_switch&#45;&gt;program_params__seq -->
<g id="edge6" class="edge">
<title>header__seq_params_switch:case0&#45;&gt;program_params__seq</title>
<path fill="none" stroke="#000000" stroke-width="2" d="M1180,-256C1238.8969,-256 1188.6036,-178.0737 1224,-131 1232.0289,-120.3224 1242.126,-110.6027 1252.7885,-102.0156"/>
<polygon fill="#000000" stroke="#000000" stroke-width="2" points="1255.2389,-104.5462 1261.0276,-95.6726 1250.9687,-98.9996 1255.2389,-104.5462"/>
</g>
<!-- header__seq_params_switch&#45;&gt;bytes_params__seq -->
<g id="edge9" class="edge">
<title>header__seq_params_switch:case3&#45;&gt;bytes_params__seq</title>
<path fill="none" stroke="#000000" stroke-width="2" d="M1180,-192C1194.5323,-192 1209.8587,-191.3305 1224.8706,-190.2955"/>
<polygon fill="#000000" stroke="#000000" stroke-width="2" points="1225.4879,-193.7592 1235.1995,-189.5242 1224.9666,-186.7786 1225.4879,-193.7592"/>
</g>
<!-- array_params__seq -->
<g id="node7" class="node">
<title>array_params__seq</title>
<polygon fill="#e0ffe0" stroke="transparent" points="1251.5,-329 1251.5,-350 1276.5,-350 1276.5,-329 1251.5,-329"/>
<polygon fill="none" stroke="#000000" points="1251.5,-329 1251.5,-350 1276.5,-350 1276.5,-329 1251.5,-329"/>
<text text-anchor="start" x="1254.5" y="-335.8" font-family="Times,serif" font-size="14.00" fill="#000000">pos</text>
<polygon fill="#e0ffe0" stroke="transparent" points="1276.5,-329 1276.5,-350 1304.5,-350 1304.5,-329 1276.5,-329"/>
<polygon fill="none" stroke="#000000" points="1276.5,-329 1276.5,-350 1304.5,-350 1304.5,-329 1276.5,-329"/>
<text text-anchor="start" x="1279.5" y="-335.8" font-family="Times,serif" font-size="14.00" fill="#000000">size</text>
<polygon fill="#e0ffe0" stroke="transparent" points="1304.5,-329 1304.5,-350 1334.5,-350 1334.5,-329 1304.5,-329"/>
<polygon fill="none" stroke="#000000" points="1304.5,-329 1304.5,-350 1334.5,-350 1334.5,-329 1304.5,-329"/>
<text text-anchor="start" x="1307.5" y="-335.8" font-family="Times,serif" font-size="14.00" fill="#000000">type</text>
<polygon fill="#e0ffe0" stroke="transparent" points="1334.5,-329 1334.5,-350 1395.5,-350 1395.5,-329 1334.5,-329"/>
<polygon fill="none" stroke="#000000" points="1334.5,-329 1334.5,-350 1395.5,-350 1395.5,-329 1334.5,-329"/>
<text text-anchor="start" x="1359.5" y="-335.8" font-family="Times,serif" font-size="14.00" fill="#000000">id</text>
<polygon fill="none" stroke="#000000" points="1251.5,-308 1251.5,-329 1276.5,-329 1276.5,-308 1251.5,-308"/>
<text text-anchor="start" x="1260.5" y="-314.8" font-family="Times,serif" font-size="14.00" fill="#000000">0</text>
<polygon fill="none" stroke="#000000" points="1276.5,-308 1276.5,-329 1304.5,-329 1304.5,-308 1276.5,-308"/>
<text text-anchor="start" x="1287" y="-314.8" font-family="Times,serif" font-size="14.00" fill="#000000">1</text>
<polygon fill="none" stroke="#000000" points="1304.5,-308 1304.5,-329 1334.5,-329 1334.5,-308 1304.5,-308"/>
<text text-anchor="start" x="1312.5" y="-314.8" font-family="Times,serif" font-size="14.00" fill="#000000">u1</text>
<polygon fill="none" stroke="#000000" points="1334.5,-308 1334.5,-329 1395.5,-329 1395.5,-308 1334.5,-308"/>
<text text-anchor="start" x="1342" y="-314.8" font-family="Times,serif" font-size="14.00" fill="#000000">reserved</text>
<polygon fill="none" stroke="#000000" points="1251.5,-287 1251.5,-308 1276.5,-308 1276.5,-287 1251.5,-287"/>
<text text-anchor="start" x="1260.5" y="-293.8" font-family="Times,serif" font-size="14.00" fill="#000000">1</text>
<polygon fill="none" stroke="#000000" points="1276.5,-287 1276.5,-308 1304.5,-308 1304.5,-287 1276.5,-287"/>
<text text-anchor="start" x="1287" y="-293.8" font-family="Times,serif" font-size="14.00" fill="#000000">1</text>
<polygon fill="none" stroke="#000000" points="1304.5,-287 1304.5,-308 1334.5,-308 1334.5,-287 1304.5,-287"/>
<text text-anchor="start" x="1312.5" y="-293.8" font-family="Times,serif" font-size="14.00" fill="#000000">u1</text>
<polygon fill="none" stroke="#000000" points="1334.5,-287 1334.5,-308 1395.5,-308 1395.5,-287 1334.5,-287"/>
<text text-anchor="start" x="1337.5" y="-293.8" font-family="Times,serif" font-size="14.00" fill="#000000">var_name</text>
<polygon fill="none" stroke="#000000" points="1251.5,-266 1251.5,-287 1276.5,-287 1276.5,-266 1251.5,-266"/>
<text text-anchor="start" x="1260.5" y="-272.8" font-family="Times,serif" font-size="14.00" fill="#000000">2</text>
<polygon fill="none" stroke="#000000" points="1276.5,-266 1276.5,-287 1304.5,-287 1304.5,-266 1276.5,-266"/>
<text text-anchor="start" x="1287" y="-272.8" font-family="Times,serif" font-size="14.00" fill="#000000">2</text>
<polygon fill="none" stroke="#000000" points="1304.5,-266 1304.5,-287 1334.5,-287 1334.5,-266 1304.5,-266"/>
<polygon fill="none" stroke="#000000" points="1334.5,-266 1334.5,-287 1395.5,-287 1395.5,-266 1334.5,-266"/>
<text text-anchor="start" x="1338.5" y="-272.8" font-family="Times,serif" font-size="14.00" fill="#000000">reserved1</text>
</g>
<!-- header__seq_params_switch&#45;&gt;array_params__seq -->
<g id="edge7" class="edge">
<title>header__seq_params_switch:case1&#45;&gt;array_params__seq</title>
<path fill="none" stroke="#000000" stroke-width="2" d="M1180,-234C1186.8327,-234 1209.2776,-244.7348 1234.4507,-258.0273"/>
<polygon fill="#000000" stroke="#000000" stroke-width="2" points="1232.9764,-261.2075 1243.4475,-262.8222 1236.2688,-255.0301 1232.9764,-261.2075"/>
</g>
<!-- header__seq_params_switch&#45;&gt;array_params__seq -->
<g id="edge8" class="edge">
<title>header__seq_params_switch:case2&#45;&gt;array_params__seq</title>
<path fill="none" stroke="#000000" stroke-width="2" d="M1180,-213C1205.5507,-213 1203.1084,-235.2901 1224,-250 1227.4946,-252.4605 1231.0992,-254.9146 1234.7713,-257.346"/>
<polygon fill="#000000" stroke="#000000" stroke-width="2" points="1233.1473,-260.4644 1243.4415,-262.9707 1236.9571,-254.5919 1233.1473,-260.4644"/>
</g>
</g>
</svg>
