<?xml version="1.0" encoding="UTF-8" standalone="no"?>
<!DOCTYPE svg PUBLIC "-//W3C//DTD SVG 1.1//EN"
 "http://www.w3.org/Graphics/SVG/1.1/DTD/svg11.dtd">
<!-- Generated by graphviz version 2.38.0 (20140413.2041)
 -->
<!-- Title: %3 Pages: 1 -->
<svg width="1766pt" height="432pt"
 viewBox="0.00 0.00 1766.00 432.00" xmlns="http://www.w3.org/2000/svg" xmlns:xlink="http://www.w3.org/1999/xlink">
<g id="graph0" class="graph" transform="scale(1 1) rotate(0) translate(4 428)">
<title>%3</title>
<polygon fill="white" stroke="none" points="-4,4 -4,-428 1762,-428 1762,4 -4,4"/>
<g id="clust1" class="cluster"><title>cluster__zx_spectrum_tap</title>
<polygon fill="none" stroke="black" stroke-dasharray="1,5" points="8,-8 8,-416 1757,-416 1757,-8 8,-8"/>
<text text-anchor="middle" x="882.5" y="-400.8" font-family="Times,serif" font-size="14.00">ZxSpectrumTap</text>
</g>
<g id="clust2" class="cluster"><title>cluster__block</title>
<polygon fill="none" stroke="black" stroke-dasharray="1,5" points="235,-183 235,-374 691,-374 691,-183 235,-183"/>
<text text-anchor="middle" x="463" y="-358.8" font-family="Times,serif" font-size="14.00">ZxSpectrumTap::Block</text>
</g>
<g id="clust3" class="cluster"><title>cluster__program_params</title>
<polygon fill="none" stroke="black" stroke-dasharray="1,5" points="1495,-16 1495,-127 1749,-127 1749,-16 1495,-16"/>
<text text-anchor="middle" x="1622" y="-111.8" font-family="Times,serif" font-size="14.00">ZxSpectrumTap::ProgramParams</text>
</g>
<g id="clust4" class="cluster"><title>cluster__bytes_params</title>
<polygon fill="none" stroke="black" stroke-dasharray="1,5" points="1501.5,-135 1501.5,-246 1741.5,-246 1741.5,-135 1501.5,-135"/>
<text text-anchor="middle" x="1621.5" y="-230.8" font-family="Times,serif" font-size="14.00">ZxSpectrumTap::BytesParams</text>
</g>
<g id="clust5" class="cluster"><title>cluster__header</title>
<polygon fill="none" stroke="black" stroke-dasharray="1,5" points="711,-167 711,-358 1467,-358 1467,-167 711,-167"/>
<text text-anchor="middle" x="1089" y="-342.8" font-family="Times,serif" font-size="14.00">ZxSpectrumTap::Header</text>
</g>
<g id="clust6" class="cluster"><title>cluster__array_params</title>
<polygon fill="none" stroke="black" stroke-dasharray="1,5" points="1505,-254 1505,-385 1738,-385 1738,-254 1505,-254"/>
<text text-anchor="middle" x="1621.5" y="-369.8" font-family="Times,serif" font-size="14.00">ZxSpectrumTap::ArrayParams</text>
</g>
<!-- zx_spectrum_tap__seq -->
<g id="node1" class="node"><title>zx_spectrum_tap__seq</title>
<polygon fill="#e0ffe0" stroke="none" points="24.5,-269 24.5,-290 63.5,-290 63.5,-269 24.5,-269"/>
<polygon fill="none" stroke="black" points="24.5,-269 24.5,-290 63.5,-290 63.5,-269 24.5,-269"/>
<text text-anchor="start" x="31.5" y="-275.8" font-family="Times,serif" font-size="14.00">pos</text>
<polygon fill="#e0ffe0" stroke="none" points="63.5,-269 63.5,-290 101.5,-290 101.5,-269 63.5,-269"/>
<polygon fill="none" stroke="black" points="63.5,-269 63.5,-290 101.5,-290 101.5,-269 63.5,-269"/>
<text text-anchor="start" x="68.5" y="-275.8" font-family="Times,serif" font-size="14.00">size</text>
<polygon fill="#e0ffe0" stroke="none" points="101.5,-269 101.5,-290 150.5,-290 150.5,-269 101.5,-269"/>
<polygon fill="none" stroke="black" points="101.5,-269 101.5,-290 150.5,-290 150.5,-269 101.5,-269"/>
<text text-anchor="start" x="110" y="-275.8" font-family="Times,serif" font-size="14.00">type</text>
<polygon fill="#e0ffe0" stroke="none" points="150.5,-269 150.5,-290 199.5,-290 199.5,-269 150.5,-269"/>
<polygon fill="none" stroke="black" points="150.5,-269 150.5,-290 199.5,-290 199.5,-269 150.5,-269"/>
<text text-anchor="start" x="168" y="-275.8" font-family="Times,serif" font-size="14.00">id</text>
<polygon fill="none" stroke="black" points="24.5,-248 24.5,-269 63.5,-269 63.5,-248 24.5,-248"/>
<text text-anchor="start" x="39" y="-254.8" font-family="Times,serif" font-size="14.00">0</text>
<polygon fill="none" stroke="black" points="63.5,-248 63.5,-269 101.5,-269 101.5,-248 63.5,-248"/>
<text text-anchor="start" x="75.5" y="-254.8" font-family="Times,serif" font-size="14.00">...</text>
<polygon fill="none" stroke="black" points="101.5,-248 101.5,-269 150.5,-269 150.5,-248 101.5,-248"/>
<text text-anchor="start" x="105.5" y="-254.8" font-family="Times,serif" font-size="14.00">Block</text>
<polygon fill="none" stroke="black" points="150.5,-248 150.5,-269 199.5,-269 199.5,-248 150.5,-248"/>
<text text-anchor="start" x="155" y="-254.8" font-family="Times,serif" font-size="14.00">block</text>
<polygon fill="none" stroke="black" points="24.5,-227 24.5,-248 199.5,-248 199.5,-227 24.5,-227"/>
<text text-anchor="start" x="27.5" y="-233.8" font-family="Times,serif" font-size="14.00">repeat to end of stream</text>
</g>
<!-- block__seq -->
<g id="node2" class="node"><title>block__seq</title>
<polygon fill="#e0ffe0" stroke="none" points="251,-300 251,-321 282,-321 282,-300 251,-300"/>
<polygon fill="none" stroke="black" points="251,-300 251,-321 282,-321 282,-300 251,-300"/>
<text text-anchor="start" x="254" y="-306.8" font-family="Times,serif" font-size="14.00">pos</text>
<polygon fill="#e0ffe0" stroke="none" points="282,-300 282,-321 442,-321 442,-300 282,-300"/>
<polygon fill="none" stroke="black" points="282,-300 282,-321 442,-321 442,-300 282,-300"/>
<text text-anchor="start" x="348" y="-306.8" font-family="Times,serif" font-size="14.00">size</text>
<polygon fill="#e0ffe0" stroke="none" points="442,-300 442,-321 552,-321 552,-300 442,-300"/>
<polygon fill="none" stroke="black" points="442,-300 442,-321 552,-321 552,-300 442,-300"/>
<text text-anchor="start" x="481" y="-306.8" font-family="Times,serif" font-size="14.00">type</text>
<polygon fill="#e0ffe0" stroke="none" points="552,-300 552,-321 675,-321 675,-300 552,-300"/>
<polygon fill="none" stroke="black" points="552,-300 552,-321 675,-321 675,-300 552,-300"/>
<text text-anchor="start" x="606.5" y="-306.8" font-family="Times,serif" font-size="14.00">id</text>
<polygon fill="none" stroke="black" points="251,-279 251,-300 282,-300 282,-279 251,-279"/>
<text text-anchor="start" x="261.5" y="-285.8" font-family="Times,serif" font-size="14.00">0</text>
<polygon fill="none" stroke="black" points="282,-279 282,-300 442,-300 442,-279 282,-279"/>
<text text-anchor="start" x="357" y="-285.8" font-family="Times,serif" font-size="14.00">2</text>
<polygon fill="none" stroke="black" points="442,-279 442,-300 552,-300 552,-279 442,-279"/>
<text text-anchor="start" x="481.5" y="-285.8" font-family="Times,serif" font-size="14.00">u2le</text>
<polygon fill="none" stroke="black" points="552,-279 552,-300 675,-300 675,-279 552,-279"/>
<text text-anchor="start" x="579" y="-285.8" font-family="Times,serif" font-size="14.00">len_block</text>
<polygon fill="none" stroke="black" points="251,-258 251,-279 282,-279 282,-258 251,-258"/>
<text text-anchor="start" x="261.5" y="-264.8" font-family="Times,serif" font-size="14.00">2</text>
<polygon fill="none" stroke="black" points="282,-258 282,-279 442,-279 442,-258 282,-258"/>
<text text-anchor="start" x="357" y="-264.8" font-family="Times,serif" font-size="14.00">1</text>
<polygon fill="none" stroke="black" points="442,-258 442,-279 552,-279 552,-258 442,-258"/>
<text text-anchor="start" x="445" y="-264.8" font-family="Times,serif" font-size="14.00">u1→FlagEnum</text>
<polygon fill="none" stroke="black" points="552,-258 552,-279 675,-279 675,-258 552,-258"/>
<text text-anchor="start" x="600" y="-264.8" font-family="Times,serif" font-size="14.00">flag</text>
<polygon fill="none" stroke="black" points="251,-237 251,-258 282,-258 282,-237 251,-237"/>
<text text-anchor="start" x="261.5" y="-243.8" font-family="Times,serif" font-size="14.00">3</text>
<polygon fill="none" stroke="black" points="282,-237 282,-258 442,-258 442,-237 282,-237"/>
<text text-anchor="start" x="355" y="-243.8" font-family="Times,serif" font-size="14.00">...</text>
<polygon fill="none" stroke="black" points="442,-237 442,-258 552,-258 552,-237 442,-237"/>
<text text-anchor="start" x="470" y="-243.8" font-family="Times,serif" font-size="14.00">Header</text>
<polygon fill="none" stroke="black" points="552,-237 552,-258 675,-258 675,-237 552,-237"/>
<text text-anchor="start" x="588.5" y="-243.8" font-family="Times,serif" font-size="14.00">header</text>
<polygon fill="none" stroke="black" points="251,-216 251,-237 282,-237 282,-216 251,-216"/>
<text text-anchor="start" x="259.5" y="-222.8" font-family="Times,serif" font-size="14.00">...</text>
<polygon fill="none" stroke="black" points="282,-216 282,-237 442,-237 442,-216 282,-216"/>
<text text-anchor="start" x="285" y="-222.8" font-family="Times,serif" font-size="14.00">(header.len_data + 4)</text>
<polygon fill="none" stroke="black" points="442,-216 442,-237 552,-237 552,-216 442,-216"/>
<polygon fill="none" stroke="black" points="552,-216 552,-237 675,-237 675,-216 552,-216"/>
<text text-anchor="start" x="597.5" y="-222.8" font-family="Times,serif" font-size="14.00">data</text>
<polygon fill="none" stroke="black" points="251,-195 251,-216 282,-216 282,-195 251,-195"/>
<text text-anchor="start" x="259.5" y="-201.8" font-family="Times,serif" font-size="14.00">...</text>
<polygon fill="none" stroke="black" points="282,-195 282,-216 442,-216 442,-195 282,-195"/>
<text text-anchor="start" x="311" y="-201.8" font-family="Times,serif" font-size="14.00">(len_block &#45; 1)</text>
<polygon fill="none" stroke="black" points="442,-195 442,-216 552,-216 552,-195 442,-195"/>
<polygon fill="none" stroke="black" points="552,-195 552,-216 675,-216 675,-195 552,-195"/>
<text text-anchor="start" x="555" y="-201.8" font-family="Times,serif" font-size="14.00">headerless_data</text>
</g>
<!-- zx_spectrum_tap__seq&#45;&gt;block__seq -->
<g id="edge1" class="edge"><title>zx_spectrum_tap__seq:block_type&#45;&gt;block__seq</title>
<path fill="none" stroke="black" stroke-width="2" d="M200.5,-258C211.101,-258 221.945,-258 232.897,-258"/>
<polygon fill="black" stroke="black" stroke-width="2" points="232.983,-261.5 242.983,-258 232.983,-254.5 232.983,-261.5"/>
</g>
<!-- block__seq&#45;&gt;block__seq -->
<g id="edge4" class="edge"><title>block__seq:len_block_type&#45;&gt;block__seq:headerless_data_size</title>
<path fill="none" stroke="#404040" d="M641.714,-300.094C698.369,-323.946 675.646,-343 488,-343 305.946,-343 279.132,-263.26 329.434,-222.203"/>
<polygon fill="#404040" stroke="#404040" points="331.704,-224.881 337.78,-216.202 327.617,-219.198 331.704,-224.881"/>
</g>
<!-- header__seq -->
<g id="node5" class="node"><title>header__seq</title>
<polygon fill="#e0ffe0" stroke="none" points="727,-284 727,-305 758,-305 758,-284 727,-284"/>
<polygon fill="none" stroke="black" points="727,-284 727,-305 758,-305 758,-284 727,-284"/>
<text text-anchor="start" x="730" y="-290.8" font-family="Times,serif" font-size="14.00">pos</text>
<polygon fill="#e0ffe0" stroke="none" points="758,-284 758,-305 792,-305 792,-284 758,-284"/>
<polygon fill="none" stroke="black" points="758,-284 758,-305 792,-305 792,-284 758,-284"/>
<text text-anchor="start" x="761" y="-290.8" font-family="Times,serif" font-size="14.00">size</text>
<polygon fill="#e0ffe0" stroke="none" points="792,-284 792,-305 958,-305 958,-284 792,-284"/>
<polygon fill="none" stroke="black" points="792,-284 792,-305 958,-305 958,-284 792,-284"/>
<text text-anchor="start" x="859" y="-290.8" font-family="Times,serif" font-size="14.00">type</text>
<polygon fill="#e0ffe0" stroke="none" points="958,-284 958,-305 1053,-305 1053,-284 958,-284"/>
<polygon fill="none" stroke="black" points="958,-284 958,-305 1053,-305 1053,-284 958,-284"/>
<text text-anchor="start" x="998.5" y="-290.8" font-family="Times,serif" font-size="14.00">id</text>
<polygon fill="none" stroke="black" points="727,-263 727,-284 758,-284 758,-263 727,-263"/>
<text text-anchor="start" x="737.5" y="-269.8" font-family="Times,serif" font-size="14.00">0</text>
<polygon fill="none" stroke="black" points="758,-263 758,-284 792,-284 792,-263 758,-263"/>
<text text-anchor="start" x="770" y="-269.8" font-family="Times,serif" font-size="14.00">1</text>
<polygon fill="none" stroke="black" points="792,-263 792,-284 958,-284 958,-263 792,-263"/>
<text text-anchor="start" x="795" y="-269.8" font-family="Times,serif" font-size="14.00">u1→HeaderTypeEnum</text>
<polygon fill="none" stroke="black" points="958,-263 958,-284 1053,-284 1053,-263 958,-263"/>
<text text-anchor="start" x="961" y="-269.8" font-family="Times,serif" font-size="14.00">header_type</text>
<polygon fill="none" stroke="black" points="727,-242 727,-263 758,-263 758,-242 727,-242"/>
<text text-anchor="start" x="737.5" y="-248.8" font-family="Times,serif" font-size="14.00">1</text>
<polygon fill="none" stroke="black" points="758,-242 758,-263 792,-263 792,-242 758,-242"/>
<text text-anchor="start" x="765.5" y="-248.8" font-family="Times,serif" font-size="14.00">10</text>
<polygon fill="none" stroke="black" points="792,-242 792,-263 958,-263 958,-242 792,-242"/>
<polygon fill="none" stroke="black" points="958,-242 958,-263 1053,-263 1053,-242 958,-242"/>
<text text-anchor="start" x="975" y="-248.8" font-family="Times,serif" font-size="14.00">filename</text>
<polygon fill="none" stroke="black" points="727,-221 727,-242 758,-242 758,-221 727,-221"/>
<text text-anchor="start" x="733" y="-227.8" font-family="Times,serif" font-size="14.00">11</text>
<polygon fill="none" stroke="black" points="758,-221 758,-242 792,-242 792,-221 758,-221"/>
<text text-anchor="start" x="770" y="-227.8" font-family="Times,serif" font-size="14.00">2</text>
<polygon fill="none" stroke="black" points="792,-221 792,-242 958,-242 958,-221 792,-221"/>
<text text-anchor="start" x="859.5" y="-227.8" font-family="Times,serif" font-size="14.00">u2le</text>
<polygon fill="none" stroke="black" points="958,-221 958,-242 1053,-242 1053,-221 958,-221"/>
<text text-anchor="start" x="975" y="-227.8" font-family="Times,serif" font-size="14.00">len_data</text>
<polygon fill="none" stroke="black" points="727,-200 727,-221 758,-221 758,-200 727,-200"/>
<text text-anchor="start" x="733" y="-206.8" font-family="Times,serif" font-size="14.00">13</text>
<polygon fill="none" stroke="black" points="758,-200 758,-221 792,-221 792,-200 758,-200"/>
<text text-anchor="start" x="768" y="-206.8" font-family="Times,serif" font-size="14.00">...</text>
<polygon fill="none" stroke="black" points="792,-200 792,-221 958,-221 958,-200 792,-200"/>
<text text-anchor="start" x="799.5" y="-206.8" font-family="Times,serif" font-size="14.00">switch (header_type)</text>
<polygon fill="none" stroke="black" points="958,-200 958,-221 1053,-221 1053,-200 958,-200"/>
<text text-anchor="start" x="978.5" y="-206.8" font-family="Times,serif" font-size="14.00">params</text>
<polygon fill="none" stroke="black" points="727,-179 727,-200 758,-200 758,-179 727,-179"/>
<text text-anchor="start" x="735.5" y="-185.8" font-family="Times,serif" font-size="14.00">...</text>
<polygon fill="none" stroke="black" points="758,-179 758,-200 792,-200 792,-179 758,-179"/>
<text text-anchor="start" x="770" y="-185.8" font-family="Times,serif" font-size="14.00">1</text>
<polygon fill="none" stroke="black" points="792,-179 792,-200 958,-200 958,-179 792,-179"/>
<text text-anchor="start" x="865.5" y="-185.8" font-family="Times,serif" font-size="14.00">u1</text>
<polygon fill="none" stroke="black" points="958,-179 958,-200 1053,-200 1053,-179 958,-179"/>
<text text-anchor="start" x="969" y="-185.8" font-family="Times,serif" font-size="14.00">checksum</text>
</g>
<!-- block__seq&#45;&gt;header__seq -->
<g id="edge2" class="edge"><title>block__seq:header_type&#45;&gt;header__seq</title>
<path fill="none" stroke="black" stroke-width="2" d="M676,-247C686.691,-247 697.683,-246.936 708.771,-246.823"/>
<polygon fill="black" stroke="black" stroke-width="2" points="709.017,-250.321 718.976,-246.706 708.936,-243.321 709.017,-250.321"/>
</g>
<!-- program_params__seq -->
<g id="node3" class="node"><title>program_params__seq</title>
<polygon fill="#e0ffe0" stroke="none" points="1517.5,-70 1517.5,-91 1548.5,-91 1548.5,-70 1517.5,-70"/>
<polygon fill="none" stroke="black" points="1517.5,-70 1517.5,-91 1548.5,-91 1548.5,-70 1517.5,-70"/>
<text text-anchor="start" x="1520.5" y="-76.8" font-family="Times,serif" font-size="14.00">pos</text>
<polygon fill="#e0ffe0" stroke="none" points="1548.5,-70 1548.5,-91 1582.5,-91 1582.5,-70 1548.5,-70"/>
<polygon fill="none" stroke="black" points="1548.5,-70 1548.5,-91 1582.5,-91 1582.5,-70 1548.5,-70"/>
<text text-anchor="start" x="1551.5" y="-76.8" font-family="Times,serif" font-size="14.00">size</text>
<polygon fill="#e0ffe0" stroke="none" points="1582.5,-70 1582.5,-91 1620.5,-91 1620.5,-70 1582.5,-70"/>
<polygon fill="none" stroke="black" points="1582.5,-70 1582.5,-91 1620.5,-91 1620.5,-70 1582.5,-70"/>
<text text-anchor="start" x="1585.5" y="-76.8" font-family="Times,serif" font-size="14.00">type</text>
<polygon fill="#e0ffe0" stroke="none" points="1620.5,-70 1620.5,-91 1726.5,-91 1726.5,-70 1620.5,-70"/>
<polygon fill="none" stroke="black" points="1620.5,-70 1620.5,-91 1726.5,-91 1726.5,-70 1620.5,-70"/>
<text text-anchor="start" x="1666.5" y="-76.8" font-family="Times,serif" font-size="14.00">id</text>
<polygon fill="none" stroke="black" points="1517.5,-49 1517.5,-70 1548.5,-70 1548.5,-49 1517.5,-49"/>
<text text-anchor="start" x="1528" y="-55.8" font-family="Times,serif" font-size="14.00">0</text>
<polygon fill="none" stroke="black" points="1548.5,-49 1548.5,-70 1582.5,-70 1582.5,-49 1548.5,-49"/>
<text text-anchor="start" x="1560.5" y="-55.8" font-family="Times,serif" font-size="14.00">2</text>
<polygon fill="none" stroke="black" points="1582.5,-49 1582.5,-70 1620.5,-70 1620.5,-49 1582.5,-49"/>
<text text-anchor="start" x="1586" y="-55.8" font-family="Times,serif" font-size="14.00">u2le</text>
<polygon fill="none" stroke="black" points="1620.5,-49 1620.5,-70 1726.5,-70 1726.5,-49 1620.5,-49"/>
<text text-anchor="start" x="1623.5" y="-55.8" font-family="Times,serif" font-size="14.00">autostart_line</text>
<polygon fill="none" stroke="black" points="1517.5,-28 1517.5,-49 1548.5,-49 1548.5,-28 1517.5,-28"/>
<text text-anchor="start" x="1528" y="-34.8" font-family="Times,serif" font-size="14.00">2</text>
<polygon fill="none" stroke="black" points="1548.5,-28 1548.5,-49 1582.5,-49 1582.5,-28 1548.5,-28"/>
<text text-anchor="start" x="1560.5" y="-34.8" font-family="Times,serif" font-size="14.00">2</text>
<polygon fill="none" stroke="black" points="1582.5,-28 1582.5,-49 1620.5,-49 1620.5,-28 1582.5,-28"/>
<text text-anchor="start" x="1586" y="-34.8" font-family="Times,serif" font-size="14.00">u2le</text>
<polygon fill="none" stroke="black" points="1620.5,-28 1620.5,-49 1726.5,-49 1726.5,-28 1620.5,-28"/>
<text text-anchor="start" x="1628" y="-34.8" font-family="Times,serif" font-size="14.00">len_program</text>
</g>
<!-- bytes_params__seq -->
<g id="node4" class="node"><title>bytes_params__seq</title>
<polygon fill="#e0ffe0" stroke="none" points="1517.5,-189 1517.5,-210 1548.5,-210 1548.5,-189 1517.5,-189"/>
<polygon fill="none" stroke="black" points="1517.5,-189 1517.5,-210 1548.5,-210 1548.5,-189 1517.5,-189"/>
<text text-anchor="start" x="1520.5" y="-195.8" font-family="Times,serif" font-size="14.00">pos</text>
<polygon fill="#e0ffe0" stroke="none" points="1548.5,-189 1548.5,-210 1582.5,-210 1582.5,-189 1548.5,-189"/>
<polygon fill="none" stroke="black" points="1548.5,-189 1548.5,-210 1582.5,-210 1582.5,-189 1548.5,-189"/>
<text text-anchor="start" x="1551.5" y="-195.8" font-family="Times,serif" font-size="14.00">size</text>
<polygon fill="#e0ffe0" stroke="none" points="1582.5,-189 1582.5,-210 1620.5,-210 1620.5,-189 1582.5,-189"/>
<polygon fill="none" stroke="black" points="1582.5,-189 1582.5,-210 1620.5,-210 1620.5,-189 1582.5,-189"/>
<text text-anchor="start" x="1585.5" y="-195.8" font-family="Times,serif" font-size="14.00">type</text>
<polygon fill="#e0ffe0" stroke="none" points="1620.5,-189 1620.5,-210 1725.5,-210 1725.5,-189 1620.5,-189"/>
<polygon fill="none" stroke="black" points="1620.5,-189 1620.5,-210 1725.5,-210 1725.5,-189 1620.5,-189"/>
<text text-anchor="start" x="1666" y="-195.8" font-family="Times,serif" font-size="14.00">id</text>
<polygon fill="none" stroke="black" points="1517.5,-168 1517.5,-189 1548.5,-189 1548.5,-168 1517.5,-168"/>
<text text-anchor="start" x="1528" y="-174.8" font-family="Times,serif" font-size="14.00">0</text>
<polygon fill="none" stroke="black" points="1548.5,-168 1548.5,-189 1582.5,-189 1582.5,-168 1548.5,-168"/>
<text text-anchor="start" x="1560.5" y="-174.8" font-family="Times,serif" font-size="14.00">2</text>
<polygon fill="none" stroke="black" points="1582.5,-168 1582.5,-189 1620.5,-189 1620.5,-168 1582.5,-168"/>
<text text-anchor="start" x="1586" y="-174.8" font-family="Times,serif" font-size="14.00">u2le</text>
<polygon fill="none" stroke="black" points="1620.5,-168 1620.5,-189 1725.5,-189 1725.5,-168 1620.5,-168"/>
<text text-anchor="start" x="1623.5" y="-174.8" font-family="Times,serif" font-size="14.00">start_address</text>
<polygon fill="none" stroke="black" points="1517.5,-147 1517.5,-168 1548.5,-168 1548.5,-147 1517.5,-147"/>
<text text-anchor="start" x="1528" y="-153.8" font-family="Times,serif" font-size="14.00">2</text>
<polygon fill="none" stroke="black" points="1548.5,-147 1548.5,-168 1582.5,-168 1582.5,-147 1548.5,-147"/>
<text text-anchor="start" x="1560.5" y="-153.8" font-family="Times,serif" font-size="14.00">2</text>
<polygon fill="none" stroke="black" points="1582.5,-147 1582.5,-168 1620.5,-168 1620.5,-147 1582.5,-147"/>
<polygon fill="none" stroke="black" points="1620.5,-147 1620.5,-168 1725.5,-168 1725.5,-147 1620.5,-147"/>
<text text-anchor="start" x="1641" y="-153.8" font-family="Times,serif" font-size="14.00">reserved</text>
</g>
<!-- header__seq&#45;&gt;block__seq -->
<g id="edge3" class="edge"><title>header__seq:len_data_type&#45;&gt;block__seq:data_size</title>
<path fill="none" stroke="#404040" d="M1054,-231C1078.89,-231 1070.76,-192.444 1053,-175 865.616,9.06808 494.901,-158.535 390.779,-211.324"/>
<polygon fill="#404040" stroke="#404040" points="389.121,-208.24 381.82,-215.918 392.316,-214.469 389.121,-208.24"/>
</g>
<!-- header__seq&#45;&gt;header__seq -->
<g id="edge10" class="edge"><title>header__seq:header_type_type&#45;&gt;header__seq:params_type</title>
<path fill="none" stroke="#404040" d="M975.029,-284.094C910.422,-307.946 920.746,-327 1006,-327 1088.69,-327 1100.89,-262.564 1042.6,-226"/>
<polygon fill="#404040" stroke="#404040" points="1044.32,-222.955 1033.9,-221.035 1040.85,-229.033 1044.32,-222.955"/>
</g>
<!-- header__seq_params_switch -->
<g id="node6" class="node"><title>header__seq_params_switch</title>
<polygon fill="#f0f2e4" stroke="none" points="1105,-263 1105,-284 1329,-284 1329,-263 1105,-263"/>
<polygon fill="none" stroke="black" points="1105,-263 1105,-284 1329,-284 1329,-263 1105,-263"/>
<text text-anchor="start" x="1200.5" y="-269.8" font-family="Times,serif" font-size="14.00">case</text>
<polygon fill="#f0f2e4" stroke="none" points="1329,-263 1329,-284 1451,-284 1451,-263 1329,-263"/>
<polygon fill="none" stroke="black" points="1329,-263 1329,-284 1451,-284 1451,-263 1329,-263"/>
<text text-anchor="start" x="1374" y="-269.8" font-family="Times,serif" font-size="14.00">type</text>
<polygon fill="none" stroke="black" points="1105,-242 1105,-263 1329,-263 1329,-242 1105,-242"/>
<text text-anchor="start" x="1112" y="-248.8" font-family="Times,serif" font-size="14.00">:header_type_enum_program</text>
<polygon fill="none" stroke="black" points="1329,-242 1329,-263 1451,-263 1451,-242 1329,-242"/>
<text text-anchor="start" x="1332" y="-248.8" font-family="Times,serif" font-size="14.00">ProgramParams</text>
<polygon fill="none" stroke="black" points="1105,-221 1105,-242 1329,-242 1329,-221 1105,-221"/>
<text text-anchor="start" x="1108.5" y="-227.8" font-family="Times,serif" font-size="14.00">:header_type_enum_num_arry</text>
<polygon fill="none" stroke="black" points="1329,-221 1329,-242 1451,-242 1451,-221 1329,-221"/>
<text text-anchor="start" x="1343" y="-227.8" font-family="Times,serif" font-size="14.00">ArrayParams</text>
<polygon fill="none" stroke="black" points="1105,-200 1105,-221 1329,-221 1329,-200 1105,-200"/>
<text text-anchor="start" x="1108" y="-206.8" font-family="Times,serif" font-size="14.00">:header_type_enum_char_arry</text>
<polygon fill="none" stroke="black" points="1329,-200 1329,-221 1451,-221 1451,-200 1329,-200"/>
<text text-anchor="start" x="1343" y="-206.8" font-family="Times,serif" font-size="14.00">ArrayParams</text>
<polygon fill="none" stroke="black" points="1105,-179 1105,-200 1329,-200 1329,-179 1105,-179"/>
<text text-anchor="start" x="1123.5" y="-185.8" font-family="Times,serif" font-size="14.00">:header_type_enum_bytes</text>
<polygon fill="none" stroke="black" points="1329,-179 1329,-200 1451,-200 1451,-179 1329,-179"/>
<text text-anchor="start" x="1343" y="-185.8" font-family="Times,serif" font-size="14.00">BytesParams</text>
</g>
<!-- header__seq&#45;&gt;header__seq_params_switch -->
<g id="edge5" class="edge"><title>header__seq:params_type&#45;&gt;header__seq_params_switch</title>
<path fill="none" stroke="black" stroke-width="2" d="M1054,-210C1064.65,-210 1075.57,-210.251 1086.58,-210.701"/>
<polygon fill="black" stroke="black" stroke-width="2" points="1086.57,-214.204 1096.72,-211.167 1086.89,-207.211 1086.57,-214.204"/>
</g>
<!-- header__seq_params_switch&#45;&gt;program_params__seq -->
<g id="edge6" class="edge"><title>header__seq_params_switch:case0&#45;&gt;program_params__seq</title>
<path fill="none" stroke="black" stroke-width="2" d="M1452,-253C1509.49,-253 1458.08,-175.068 1495,-131 1504.47,-119.697 1516.23,-109.836 1528.72,-101.353"/>
<polygon fill="black" stroke="black" stroke-width="2" points="1530.96,-104.068 1537.46,-95.6989 1527.16,-98.1893 1530.96,-104.068"/>
</g>
<!-- header__seq_params_switch&#45;&gt;bytes_params__seq -->
<g id="edge9" class="edge"><title>header__seq_params_switch:case3&#45;&gt;bytes_params__seq</title>
<path fill="none" stroke="black" stroke-width="2" d="M1452,-189C1467.14,-189 1483.04,-188.592 1498.77,-187.942"/>
<polygon fill="black" stroke="black" stroke-width="2" points="1499.24,-191.425 1509.07,-187.481 1498.93,-184.432 1499.24,-191.425"/>
</g>
<!-- array_params__seq -->
<g id="node7" class="node"><title>array_params__seq</title>
<polygon fill="#e0ffe0" stroke="none" points="1526.5,-329 1526.5,-350 1557.5,-350 1557.5,-329 1526.5,-329"/>
<polygon fill="none" stroke="black" points="1526.5,-329 1526.5,-350 1557.5,-350 1557.5,-329 1526.5,-329"/>
<text text-anchor="start" x="1529.5" y="-335.8" font-family="Times,serif" font-size="14.00">pos</text>
<polygon fill="#e0ffe0" stroke="none" points="1557.5,-329 1557.5,-350 1591.5,-350 1591.5,-329 1557.5,-329"/>
<polygon fill="none" stroke="black" points="1557.5,-329 1557.5,-350 1591.5,-350 1591.5,-329 1557.5,-329"/>
<text text-anchor="start" x="1560.5" y="-335.8" font-family="Times,serif" font-size="14.00">size</text>
<polygon fill="#e0ffe0" stroke="none" points="1591.5,-329 1591.5,-350 1638.5,-350 1638.5,-329 1591.5,-329"/>
<polygon fill="none" stroke="black" points="1591.5,-329 1591.5,-350 1638.5,-350 1638.5,-329 1591.5,-329"/>
<text text-anchor="start" x="1599" y="-335.8" font-family="Times,serif" font-size="14.00">type</text>
<polygon fill="#e0ffe0" stroke="none" points="1638.5,-329 1638.5,-350 1717.5,-350 1717.5,-329 1638.5,-329"/>
<polygon fill="none" stroke="black" points="1638.5,-329 1638.5,-350 1717.5,-350 1717.5,-329 1638.5,-329"/>
<text text-anchor="start" x="1671" y="-335.8" font-family="Times,serif" font-size="14.00">id</text>
<polygon fill="none" stroke="black" points="1526.5,-308 1526.5,-329 1557.5,-329 1557.5,-308 1526.5,-308"/>
<text text-anchor="start" x="1537" y="-314.8" font-family="Times,serif" font-size="14.00">0</text>
<polygon fill="none" stroke="black" points="1557.5,-308 1557.5,-329 1591.5,-329 1591.5,-308 1557.5,-308"/>
<text text-anchor="start" x="1569.5" y="-314.8" font-family="Times,serif" font-size="14.00">1</text>
<polygon fill="none" stroke="black" points="1591.5,-308 1591.5,-329 1638.5,-329 1638.5,-308 1591.5,-308"/>
<text text-anchor="start" x="1605.5" y="-314.8" font-family="Times,serif" font-size="14.00">u1</text>
<polygon fill="none" stroke="black" points="1638.5,-308 1638.5,-329 1717.5,-329 1717.5,-308 1638.5,-308"/>
<text text-anchor="start" x="1646" y="-314.8" font-family="Times,serif" font-size="14.00">reserved</text>
<polygon fill="none" stroke="black" points="1526.5,-287 1526.5,-308 1557.5,-308 1557.5,-287 1526.5,-287"/>
<text text-anchor="start" x="1537" y="-293.8" font-family="Times,serif" font-size="14.00">1</text>
<polygon fill="none" stroke="black" points="1557.5,-287 1557.5,-308 1591.5,-308 1591.5,-287 1557.5,-287"/>
<text text-anchor="start" x="1569.5" y="-293.8" font-family="Times,serif" font-size="14.00">1</text>
<polygon fill="none" stroke="black" points="1591.5,-287 1591.5,-308 1638.5,-308 1638.5,-287 1591.5,-287"/>
<text text-anchor="start" x="1605.5" y="-293.8" font-family="Times,serif" font-size="14.00">u1</text>
<polygon fill="none" stroke="black" points="1638.5,-287 1638.5,-308 1717.5,-308 1717.5,-287 1638.5,-287"/>
<text text-anchor="start" x="1643" y="-293.8" font-family="Times,serif" font-size="14.00">var_name</text>
<polygon fill="none" stroke="black" points="1526.5,-266 1526.5,-287 1557.5,-287 1557.5,-266 1526.5,-266"/>
<text text-anchor="start" x="1537" y="-272.8" font-family="Times,serif" font-size="14.00">2</text>
<polygon fill="none" stroke="black" points="1557.5,-266 1557.5,-287 1591.5,-287 1591.5,-266 1557.5,-266"/>
<text text-anchor="start" x="1569.5" y="-272.8" font-family="Times,serif" font-size="14.00">2</text>
<polygon fill="none" stroke="black" points="1591.5,-266 1591.5,-287 1638.5,-287 1638.5,-266 1591.5,-266"/>
<text text-anchor="start" x="1594.5" y="-272.8" font-family="Times,serif" font-size="14.00">00 80</text>
<polygon fill="none" stroke="black" points="1638.5,-266 1638.5,-287 1717.5,-287 1717.5,-266 1638.5,-266"/>
<text text-anchor="start" x="1641.5" y="-272.8" font-family="Times,serif" font-size="14.00">reserved1</text>
</g>
<!-- header__seq_params_switch&#45;&gt;array_params__seq -->
<g id="edge7" class="edge"><title>header__seq_params_switch:case1&#45;&gt;array_params__seq</title>
<path fill="none" stroke="black" stroke-width="2" d="M1452,-231C1453.02,-231 1479.7,-243.095 1511.54,-257.698"/>
<polygon fill="black" stroke="black" stroke-width="2" points="1510.09,-260.884 1520.64,-261.875 1513.01,-254.522 1510.09,-260.884"/>
</g>
<!-- header__seq_params_switch&#45;&gt;array_params__seq -->
<g id="edge8" class="edge"><title>header__seq_params_switch:case2&#45;&gt;array_params__seq</title>
<path fill="none" stroke="black" stroke-width="2" d="M1452,-210C1478.1,-210 1473.33,-235.455 1495,-250 1499.55,-253.051 1504.28,-256.019 1509.13,-258.895"/>
<polygon fill="black" stroke="black" stroke-width="2" points="1507.55,-262.027 1517.97,-263.969 1511.04,-255.956 1507.55,-262.027"/>
</g>
</g>
</svg>
