<?xml version="1.0" encoding="UTF-8" standalone="no"?>
<!DOCTYPE svg PUBLIC "-//W3C//DTD SVG 1.1//EN"
 "http://www.w3.org/Graphics/SVG/1.1/DTD/svg11.dtd">
<!-- Generated by graphviz version 2.38.0 (20140413.2041)
 -->
<!-- Title: %3 Pages: 1 -->
<svg width="1772pt" height="432pt"
 viewBox="0.00 0.00 1772.00 432.00" xmlns="http://www.w3.org/2000/svg" xmlns:xlink="http://www.w3.org/1999/xlink">
<g id="graph0" class="graph" transform="scale(1 1) rotate(0) translate(4 428)">
<title>%3</title>
<polygon fill="white" stroke="none" points="-4,4 -4,-428 1768,-428 1768,4 -4,4"/>
<g id="clust1" class="cluster"><title>cluster__zx_spectrum_tap</title>
<polygon fill="none" stroke="black" stroke-dasharray="1,5" points="8,-8 8,-416 1760,-416 1760,-8 8,-8"/>
<text text-anchor="middle" x="884" y="-400.8" font-family="Times,serif" font-size="14.00">ZxSpectrumTap</text>
</g>
<g id="clust2" class="cluster"><title>cluster__block</title>
<polygon fill="none" stroke="black" stroke-dasharray="1,5" points="235,-183 235,-374 691,-374 691,-183 235,-183"/>
<text text-anchor="middle" x="463" y="-358.8" font-family="Times,serif" font-size="14.00">ZxSpectrumTap::Block</text>
</g>
<g id="clust3" class="cluster"><title>cluster__program_params</title>
<polygon fill="none" stroke="black" stroke-dasharray="1,5" points="1496,-16 1496,-127 1752,-127 1752,-16 1496,-16"/>
<text text-anchor="middle" x="1624" y="-111.8" font-family="Times,serif" font-size="14.00">ZxSpectrumTap::ProgramParams</text>
</g>
<g id="clust4" class="cluster"><title>cluster__bytes_params</title>
<polygon fill="none" stroke="black" stroke-dasharray="1,5" points="1499,-135 1499,-246 1748,-246 1748,-135 1499,-135"/>
<text text-anchor="middle" x="1623.5" y="-230.8" font-family="Times,serif" font-size="14.00">ZxSpectrumTap::BytesParams</text>
</g>
<g id="clust5" class="cluster"><title>cluster__header</title>
<polygon fill="none" stroke="black" stroke-dasharray="1,5" points="711,-167 711,-358 1468,-358 1468,-167 711,-167"/>
<text text-anchor="middle" x="1089.5" y="-342.8" font-family="Times,serif" font-size="14.00">ZxSpectrumTap::Header</text>
</g>
<g id="clust6" class="cluster"><title>cluster__array_params</title>
<polygon fill="none" stroke="black" stroke-dasharray="1,5" points="1507,-254 1507,-385 1741,-385 1741,-254 1507,-254"/>
<text text-anchor="middle" x="1624" y="-369.8" font-family="Times,serif" font-size="14.00">ZxSpectrumTap::ArrayParams</text>
</g>
<!-- zx_spectrum_tap__seq -->
<g id="node1" class="node"><title>zx_spectrum_tap__seq</title>
<polygon fill="#e0ffe0" stroke="none" points="24.5,-269 24.5,-290 63.5,-290 63.5,-269 24.5,-269"/>
<polygon fill="none" stroke="black" points="24.5,-269 24.5,-290 63.5,-290 63.5,-269 24.5,-269"/>
<text text-anchor="start" x="31.5" y="-275.8" font-family="Times,serif" font-size="14.00">pos</text>
<polygon fill="#e0ffe0" stroke="none" points="63.5,-269 63.5,-290 101.5,-290 101.5,-269 63.5,-269"/>
<polygon fill="none" stroke="black" points="63.5,-269 63.5,-290 101.5,-290 101.5,-269 63.5,-269"/>
<text text-anchor="start" x="68.5" y="-275.8" font-family="Times,serif" font-size="14.00">size</text>
<polygon fill="#e0ffe0" stroke="none" points="101.5,-269 101.5,-290 150.5,-290 150.5,-269 101.5,-269"/>
<polygon fill="none" stroke="black" points="101.5,-269 101.5,-290 150.5,-290 150.5,-269 101.5,-269"/>
<text text-anchor="start" x="110" y="-275.8" font-family="Times,serif" font-size="14.00">type</text>
<polygon fill="#e0ffe0" stroke="none" points="150.5,-269 150.5,-290 199.5,-290 199.5,-269 150.5,-269"/>
<polygon fill="none" stroke="black" points="150.5,-269 150.5,-290 199.5,-290 199.5,-269 150.5,-269"/>
<text text-anchor="start" x="168" y="-275.8" font-family="Times,serif" font-size="14.00">id</text>
<polygon fill="none" stroke="black" points="24.5,-248 24.5,-269 63.5,-269 63.5,-248 24.5,-248"/>
<text text-anchor="start" x="39" y="-254.8" font-family="Times,serif" font-size="14.00">0</text>
<polygon fill="none" stroke="black" points="63.5,-248 63.5,-269 101.5,-269 101.5,-248 63.5,-248"/>
<text text-anchor="start" x="75.5" y="-254.8" font-family="Times,serif" font-size="14.00">...</text>
<polygon fill="none" stroke="black" points="101.5,-248 101.5,-269 150.5,-269 150.5,-248 101.5,-248"/>
<text text-anchor="start" x="105.5" y="-254.8" font-family="Times,serif" font-size="14.00">Block</text>
<polygon fill="none" stroke="black" points="150.5,-248 150.5,-269 199.5,-269 199.5,-248 150.5,-248"/>
<text text-anchor="start" x="155" y="-254.8" font-family="Times,serif" font-size="14.00">block</text>
<polygon fill="none" stroke="black" points="24.5,-227 24.5,-248 199.5,-248 199.5,-227 24.5,-227"/>
<text text-anchor="start" x="27.5" y="-233.8" font-family="Times,serif" font-size="14.00">repeat to end of stream</text>
</g>
<!-- block__seq -->
<g id="node2" class="node"><title>block__seq</title>
<polygon fill="#e0ffe0" stroke="none" points="251,-300 251,-321 282,-321 282,-300 251,-300"/>
<polygon fill="none" stroke="black" points="251,-300 251,-321 282,-321 282,-300 251,-300"/>
<text text-anchor="start" x="254" y="-306.8" font-family="Times,serif" font-size="14.00">pos</text>
<polygon fill="#e0ffe0" stroke="none" points="282,-300 282,-321 442,-321 442,-300 282,-300"/>
<polygon fill="none" stroke="black" points="282,-300 282,-321 442,-321 442,-300 282,-300"/>
<text text-anchor="start" x="348" y="-306.8" font-family="Times,serif" font-size="14.00">size</text>
<polygon fill="#e0ffe0" stroke="none" points="442,-300 442,-321 552,-321 552,-300 442,-300"/>
<polygon fill="none" stroke="black" points="442,-300 442,-321 552,-321 552,-300 442,-300"/>
<text text-anchor="start" x="481" y="-306.8" font-family="Times,serif" font-size="14.00">type</text>
<polygon fill="#e0ffe0" stroke="none" points="552,-300 552,-321 675,-321 675,-300 552,-300"/>
<polygon fill="none" stroke="black" points="552,-300 552,-321 675,-321 675,-300 552,-300"/>
<text text-anchor="start" x="606.5" y="-306.8" font-family="Times,serif" font-size="14.00">id</text>
<polygon fill="none" stroke="black" points="251,-279 251,-300 282,-300 282,-279 251,-279"/>
<text text-anchor="start" x="261.5" y="-285.8" font-family="Times,serif" font-size="14.00">0</text>
<polygon fill="none" stroke="black" points="282,-279 282,-300 442,-300 442,-279 282,-279"/>
<text text-anchor="start" x="357" y="-285.8" font-family="Times,serif" font-size="14.00">2</text>
<polygon fill="none" stroke="black" points="442,-279 442,-300 552,-300 552,-279 442,-279"/>
<text text-anchor="start" x="481.5" y="-285.8" font-family="Times,serif" font-size="14.00">u2le</text>
<polygon fill="none" stroke="black" points="552,-279 552,-300 675,-300 675,-279 552,-279"/>
<text text-anchor="start" x="579" y="-285.8" font-family="Times,serif" font-size="14.00">len_block</text>
<polygon fill="none" stroke="black" points="251,-258 251,-279 282,-279 282,-258 251,-258"/>
<text text-anchor="start" x="261.5" y="-264.8" font-family="Times,serif" font-size="14.00">2</text>
<polygon fill="none" stroke="black" points="282,-258 282,-279 442,-279 442,-258 282,-258"/>
<text text-anchor="start" x="357" y="-264.8" font-family="Times,serif" font-size="14.00">1</text>
<polygon fill="none" stroke="black" points="442,-258 442,-279 552,-279 552,-258 442,-258"/>
<text text-anchor="start" x="445" y="-264.8" font-family="Times,serif" font-size="14.00">u1→FlagEnum</text>
<polygon fill="none" stroke="black" points="552,-258 552,-279 675,-279 675,-258 552,-258"/>
<text text-anchor="start" x="599.5" y="-264.8" font-family="Times,serif" font-size="14.00">flag</text>
<polygon fill="none" stroke="black" points="251,-237 251,-258 282,-258 282,-237 251,-237"/>
<text text-anchor="start" x="261.5" y="-243.8" font-family="Times,serif" font-size="14.00">3</text>
<polygon fill="none" stroke="black" points="282,-237 282,-258 442,-258 442,-237 282,-237"/>
<text text-anchor="start" x="355" y="-243.8" font-family="Times,serif" font-size="14.00">...</text>
<polygon fill="none" stroke="black" points="442,-237 442,-258 552,-258 552,-237 442,-237"/>
<text text-anchor="start" x="470" y="-243.8" font-family="Times,serif" font-size="14.00">Header</text>
<polygon fill="none" stroke="black" points="552,-237 552,-258 675,-258 675,-237 552,-237"/>
<text text-anchor="start" x="588.5" y="-243.8" font-family="Times,serif" font-size="14.00">header</text>
<polygon fill="none" stroke="black" points="251,-216 251,-237 282,-237 282,-216 251,-216"/>
<text text-anchor="start" x="259.5" y="-222.8" font-family="Times,serif" font-size="14.00">...</text>
<polygon fill="none" stroke="black" points="282,-216 282,-237 442,-237 442,-216 282,-216"/>
<text text-anchor="start" x="285" y="-222.8" font-family="Times,serif" font-size="14.00">(header.len_data + 4)</text>
<polygon fill="none" stroke="black" points="442,-216 442,-237 552,-237 552,-216 442,-216"/>
<polygon fill="none" stroke="black" points="552,-216 552,-237 675,-237 675,-216 552,-216"/>
<text text-anchor="start" x="597.5" y="-222.8" font-family="Times,serif" font-size="14.00">data</text>
<polygon fill="none" stroke="black" points="251,-195 251,-216 282,-216 282,-195 251,-195"/>
<text text-anchor="start" x="259.5" y="-201.8" font-family="Times,serif" font-size="14.00">...</text>
<polygon fill="none" stroke="black" points="282,-195 282,-216 442,-216 442,-195 282,-195"/>
<text text-anchor="start" x="311" y="-201.8" font-family="Times,serif" font-size="14.00">(len_block &#45; 1)</text>
<polygon fill="none" stroke="black" points="442,-195 442,-216 552,-216 552,-195 442,-195"/>
<polygon fill="none" stroke="black" points="552,-195 552,-216 675,-216 675,-195 552,-195"/>
<text text-anchor="start" x="555" y="-201.8" font-family="Times,serif" font-size="14.00">headerless_data</text>
</g>
<!-- zx_spectrum_tap__seq&#45;&gt;block__seq -->
<g id="edge1" class="edge"><title>zx_spectrum_tap__seq:block_type&#45;&gt;block__seq</title>
<path fill="none" stroke="black" stroke-width="2" d="M200.5,-258C211.101,-258 221.945,-258 232.897,-258"/>
<polygon fill="black" stroke="black" stroke-width="2" points="232.983,-261.5 242.983,-258 232.983,-254.5 232.983,-261.5"/>
</g>
<!-- block__seq&#45;&gt;block__seq -->
<g id="edge4" class="edge"><title>block__seq:len_block_type&#45;&gt;block__seq:headerless_data_size</title>
<path fill="none" stroke="#404040" d="M641.714,-300.094C698.369,-323.946 675.646,-343 488,-343 305.946,-343 279.132,-263.26 329.434,-222.203"/>
<polygon fill="#404040" stroke="#404040" points="331.704,-224.881 337.78,-216.202 327.617,-219.198 331.704,-224.881"/>
</g>
<!-- header__seq -->
<g id="node5" class="node"><title>header__seq</title>
<polygon fill="#e0ffe0" stroke="none" points="727.5,-284 727.5,-305 758.5,-305 758.5,-284 727.5,-284"/>
<polygon fill="none" stroke="black" points="727.5,-284 727.5,-305 758.5,-305 758.5,-284 727.5,-284"/>
<text text-anchor="start" x="730.5" y="-290.8" font-family="Times,serif" font-size="14.00">pos</text>
<polygon fill="#e0ffe0" stroke="none" points="758.5,-284 758.5,-305 792.5,-305 792.5,-284 758.5,-284"/>
<polygon fill="none" stroke="black" points="758.5,-284 758.5,-305 792.5,-305 792.5,-284 758.5,-284"/>
<text text-anchor="start" x="761.5" y="-290.8" font-family="Times,serif" font-size="14.00">size</text>
<polygon fill="#e0ffe0" stroke="none" points="792.5,-284 792.5,-305 959.5,-305 959.5,-284 792.5,-284"/>
<polygon fill="none" stroke="black" points="792.5,-284 792.5,-305 959.5,-305 959.5,-284 792.5,-284"/>
<text text-anchor="start" x="860" y="-290.8" font-family="Times,serif" font-size="14.00">type</text>
<polygon fill="#e0ffe0" stroke="none" points="959.5,-284 959.5,-305 1054.5,-305 1054.5,-284 959.5,-284"/>
<polygon fill="none" stroke="black" points="959.5,-284 959.5,-305 1054.5,-305 1054.5,-284 959.5,-284"/>
<text text-anchor="start" x="1000" y="-290.8" font-family="Times,serif" font-size="14.00">id</text>
<polygon fill="none" stroke="black" points="727.5,-263 727.5,-284 758.5,-284 758.5,-263 727.5,-263"/>
<text text-anchor="start" x="738" y="-269.8" font-family="Times,serif" font-size="14.00">0</text>
<polygon fill="none" stroke="black" points="758.5,-263 758.5,-284 792.5,-284 792.5,-263 758.5,-263"/>
<text text-anchor="start" x="770.5" y="-269.8" font-family="Times,serif" font-size="14.00">1</text>
<polygon fill="none" stroke="black" points="792.5,-263 792.5,-284 959.5,-284 959.5,-263 792.5,-263"/>
<text text-anchor="start" x="795.5" y="-269.8" font-family="Times,serif" font-size="14.00">u1→HeaderTypeEnum</text>
<polygon fill="none" stroke="black" points="959.5,-263 959.5,-284 1054.5,-284 1054.5,-263 959.5,-263"/>
<text text-anchor="start" x="962.5" y="-269.8" font-family="Times,serif" font-size="14.00">header_type</text>
<polygon fill="none" stroke="black" points="727.5,-242 727.5,-263 758.5,-263 758.5,-242 727.5,-242"/>
<text text-anchor="start" x="738" y="-248.8" font-family="Times,serif" font-size="14.00">1</text>
<polygon fill="none" stroke="black" points="758.5,-242 758.5,-263 792.5,-263 792.5,-242 758.5,-242"/>
<text text-anchor="start" x="766" y="-248.8" font-family="Times,serif" font-size="14.00">10</text>
<polygon fill="none" stroke="black" points="792.5,-242 792.5,-263 959.5,-263 959.5,-242 792.5,-242"/>
<polygon fill="none" stroke="black" points="959.5,-242 959.5,-263 1054.5,-263 1054.5,-242 959.5,-242"/>
<text text-anchor="start" x="976" y="-248.8" font-family="Times,serif" font-size="14.00">filename</text>
<polygon fill="none" stroke="black" points="727.5,-221 727.5,-242 758.5,-242 758.5,-221 727.5,-221"/>
<text text-anchor="start" x="733.5" y="-227.8" font-family="Times,serif" font-size="14.00">11</text>
<polygon fill="none" stroke="black" points="758.5,-221 758.5,-242 792.5,-242 792.5,-221 758.5,-221"/>
<text text-anchor="start" x="770.5" y="-227.8" font-family="Times,serif" font-size="14.00">2</text>
<polygon fill="none" stroke="black" points="792.5,-221 792.5,-242 959.5,-242 959.5,-221 792.5,-221"/>
<text text-anchor="start" x="860.5" y="-227.8" font-family="Times,serif" font-size="14.00">u2le</text>
<polygon fill="none" stroke="black" points="959.5,-221 959.5,-242 1054.5,-242 1054.5,-221 959.5,-221"/>
<text text-anchor="start" x="976.5" y="-227.8" font-family="Times,serif" font-size="14.00">len_data</text>
<polygon fill="none" stroke="black" points="727.5,-200 727.5,-221 758.5,-221 758.5,-200 727.5,-200"/>
<text text-anchor="start" x="733.5" y="-206.8" font-family="Times,serif" font-size="14.00">13</text>
<polygon fill="none" stroke="black" points="758.5,-200 758.5,-221 792.5,-221 792.5,-200 758.5,-200"/>
<text text-anchor="start" x="768.5" y="-206.8" font-family="Times,serif" font-size="14.00">...</text>
<polygon fill="none" stroke="black" points="792.5,-200 792.5,-221 959.5,-221 959.5,-200 792.5,-200"/>
<text text-anchor="start" x="800.5" y="-206.8" font-family="Times,serif" font-size="14.00">switch (header_type)</text>
<polygon fill="none" stroke="black" points="959.5,-200 959.5,-221 1054.5,-221 1054.5,-200 959.5,-200"/>
<text text-anchor="start" x="980" y="-206.8" font-family="Times,serif" font-size="14.00">params</text>
<polygon fill="none" stroke="black" points="727.5,-179 727.5,-200 758.5,-200 758.5,-179 727.5,-179"/>
<text text-anchor="start" x="736" y="-185.8" font-family="Times,serif" font-size="14.00">...</text>
<polygon fill="none" stroke="black" points="758.5,-179 758.5,-200 792.5,-200 792.5,-179 758.5,-179"/>
<text text-anchor="start" x="770.5" y="-185.8" font-family="Times,serif" font-size="14.00">1</text>
<polygon fill="none" stroke="black" points="792.5,-179 792.5,-200 959.5,-200 959.5,-179 792.5,-179"/>
<text text-anchor="start" x="866.5" y="-185.8" font-family="Times,serif" font-size="14.00">u1</text>
<polygon fill="none" stroke="black" points="959.5,-179 959.5,-200 1054.5,-200 1054.5,-179 959.5,-179"/>
<text text-anchor="start" x="970.5" y="-185.8" font-family="Times,serif" font-size="14.00">checksum</text>
</g>
<!-- block__seq&#45;&gt;header__seq -->
<g id="edge2" class="edge"><title>block__seq:header_type&#45;&gt;header__seq</title>
<path fill="none" stroke="black" stroke-width="2" d="M676,-247C686.645,-247 697.588,-246.937 708.627,-246.825"/>
<polygon fill="black" stroke="black" stroke-width="2" points="708.828,-250.323 718.787,-246.71 708.748,-243.324 708.828,-250.323"/>
</g>
<!-- program_params__seq -->
<g id="node3" class="node"><title>program_params__seq</title>
<polygon fill="#e0ffe0" stroke="none" points="1519.5,-70 1519.5,-91 1550.5,-91 1550.5,-70 1519.5,-70"/>
<polygon fill="none" stroke="black" points="1519.5,-70 1519.5,-91 1550.5,-91 1550.5,-70 1519.5,-70"/>
<text text-anchor="start" x="1522.5" y="-76.8" font-family="Times,serif" font-size="14.00">pos</text>
<polygon fill="#e0ffe0" stroke="none" points="1550.5,-70 1550.5,-91 1584.5,-91 1584.5,-70 1550.5,-70"/>
<polygon fill="none" stroke="black" points="1550.5,-70 1550.5,-91 1584.5,-91 1584.5,-70 1550.5,-70"/>
<text text-anchor="start" x="1553.5" y="-76.8" font-family="Times,serif" font-size="14.00">size</text>
<polygon fill="#e0ffe0" stroke="none" points="1584.5,-70 1584.5,-91 1622.5,-91 1622.5,-70 1584.5,-70"/>
<polygon fill="none" stroke="black" points="1584.5,-70 1584.5,-91 1622.5,-91 1622.5,-70 1584.5,-70"/>
<text text-anchor="start" x="1587.5" y="-76.8" font-family="Times,serif" font-size="14.00">type</text>
<polygon fill="#e0ffe0" stroke="none" points="1622.5,-70 1622.5,-91 1728.5,-91 1728.5,-70 1622.5,-70"/>
<polygon fill="none" stroke="black" points="1622.5,-70 1622.5,-91 1728.5,-91 1728.5,-70 1622.5,-70"/>
<text text-anchor="start" x="1668.5" y="-76.8" font-family="Times,serif" font-size="14.00">id</text>
<polygon fill="none" stroke="black" points="1519.5,-49 1519.5,-70 1550.5,-70 1550.5,-49 1519.5,-49"/>
<text text-anchor="start" x="1530" y="-55.8" font-family="Times,serif" font-size="14.00">0</text>
<polygon fill="none" stroke="black" points="1550.5,-49 1550.5,-70 1584.5,-70 1584.5,-49 1550.5,-49"/>
<text text-anchor="start" x="1562.5" y="-55.8" font-family="Times,serif" font-size="14.00">2</text>
<polygon fill="none" stroke="black" points="1584.5,-49 1584.5,-70 1622.5,-70 1622.5,-49 1584.5,-49"/>
<text text-anchor="start" x="1588" y="-55.8" font-family="Times,serif" font-size="14.00">u2le</text>
<polygon fill="none" stroke="black" points="1622.5,-49 1622.5,-70 1728.5,-70 1728.5,-49 1622.5,-49"/>
<text text-anchor="start" x="1625.5" y="-55.8" font-family="Times,serif" font-size="14.00">autostart_line</text>
<polygon fill="none" stroke="black" points="1519.5,-28 1519.5,-49 1550.5,-49 1550.5,-28 1519.5,-28"/>
<text text-anchor="start" x="1530" y="-34.8" font-family="Times,serif" font-size="14.00">2</text>
<polygon fill="none" stroke="black" points="1550.5,-28 1550.5,-49 1584.5,-49 1584.5,-28 1550.5,-28"/>
<text text-anchor="start" x="1562.5" y="-34.8" font-family="Times,serif" font-size="14.00">2</text>
<polygon fill="none" stroke="black" points="1584.5,-28 1584.5,-49 1622.5,-49 1622.5,-28 1584.5,-28"/>
<text text-anchor="start" x="1588" y="-34.8" font-family="Times,serif" font-size="14.00">u2le</text>
<polygon fill="none" stroke="black" points="1622.5,-28 1622.5,-49 1728.5,-49 1728.5,-28 1622.5,-28"/>
<text text-anchor="start" x="1630" y="-34.8" font-family="Times,serif" font-size="14.00">len_program</text>
</g>
<!-- bytes_params__seq -->
<g id="node4" class="node"><title>bytes_params__seq</title>
<polygon fill="#e0ffe0" stroke="none" points="1515.5,-189 1515.5,-210 1546.5,-210 1546.5,-189 1515.5,-189"/>
<polygon fill="none" stroke="black" points="1515.5,-189 1515.5,-210 1546.5,-210 1546.5,-189 1515.5,-189"/>
<text text-anchor="start" x="1518.5" y="-195.8" font-family="Times,serif" font-size="14.00">pos</text>
<polygon fill="#e0ffe0" stroke="none" points="1546.5,-189 1546.5,-210 1580.5,-210 1580.5,-189 1546.5,-189"/>
<polygon fill="none" stroke="black" points="1546.5,-189 1546.5,-210 1580.5,-210 1580.5,-189 1546.5,-189"/>
<text text-anchor="start" x="1549.5" y="-195.8" font-family="Times,serif" font-size="14.00">size</text>
<polygon fill="#e0ffe0" stroke="none" points="1580.5,-189 1580.5,-210 1627.5,-210 1627.5,-189 1580.5,-189"/>
<polygon fill="none" stroke="black" points="1580.5,-189 1580.5,-210 1627.5,-210 1627.5,-189 1580.5,-189"/>
<text text-anchor="start" x="1588" y="-195.8" font-family="Times,serif" font-size="14.00">type</text>
<polygon fill="#e0ffe0" stroke="none" points="1627.5,-189 1627.5,-210 1732.5,-210 1732.5,-189 1627.5,-189"/>
<polygon fill="none" stroke="black" points="1627.5,-189 1627.5,-210 1732.5,-210 1732.5,-189 1627.5,-189"/>
<text text-anchor="start" x="1673" y="-195.8" font-family="Times,serif" font-size="14.00">id</text>
<polygon fill="none" stroke="black" points="1515.5,-168 1515.5,-189 1546.5,-189 1546.5,-168 1515.5,-168"/>
<text text-anchor="start" x="1526" y="-174.8" font-family="Times,serif" font-size="14.00">0</text>
<polygon fill="none" stroke="black" points="1546.5,-168 1546.5,-189 1580.5,-189 1580.5,-168 1546.5,-168"/>
<text text-anchor="start" x="1558.5" y="-174.8" font-family="Times,serif" font-size="14.00">2</text>
<polygon fill="none" stroke="black" points="1580.5,-168 1580.5,-189 1627.5,-189 1627.5,-168 1580.5,-168"/>
<text text-anchor="start" x="1588.5" y="-174.8" font-family="Times,serif" font-size="14.00">u2le</text>
<polygon fill="none" stroke="black" points="1627.5,-168 1627.5,-189 1732.5,-189 1732.5,-168 1627.5,-168"/>
<text text-anchor="start" x="1630.5" y="-174.8" font-family="Times,serif" font-size="14.00">start_address</text>
<polygon fill="none" stroke="black" points="1515.5,-147 1515.5,-168 1546.5,-168 1546.5,-147 1515.5,-147"/>
<text text-anchor="start" x="1526" y="-153.8" font-family="Times,serif" font-size="14.00">2</text>
<polygon fill="none" stroke="black" points="1546.5,-147 1546.5,-168 1580.5,-168 1580.5,-147 1546.5,-147"/>
<text text-anchor="start" x="1558.5" y="-153.8" font-family="Times,serif" font-size="14.00">2</text>
<polygon fill="none" stroke="black" points="1580.5,-147 1580.5,-168 1627.5,-168 1627.5,-147 1580.5,-147"/>
<text text-anchor="start" x="1583.5" y="-153.8" font-family="Times,serif" font-size="14.00">00 80</text>
<polygon fill="none" stroke="black" points="1627.5,-147 1627.5,-168 1732.5,-168 1732.5,-147 1627.5,-147"/>
<text text-anchor="start" x="1648" y="-153.8" font-family="Times,serif" font-size="14.00">reserved</text>
</g>
<!-- header__seq&#45;&gt;block__seq -->
<g id="edge3" class="edge"><title>header__seq:len_data_type&#45;&gt;block__seq:data_size</title>
<path fill="none" stroke="#404040" d="M1055.5,-231C1080.39,-231 1072.26,-192.444 1054.5,-175 866.71,9.46606 495.188,-158.419 390.839,-211.298"/>
<polygon fill="#404040" stroke="#404040" points="389.164,-208.224 381.861,-215.9 392.357,-214.453 389.164,-208.224"/>
</g>
<!-- header__seq&#45;&gt;header__seq -->
<g id="edge10" class="edge"><title>header__seq:header_type_type&#45;&gt;header__seq:params_type</title>
<path fill="none" stroke="#404040" d="M976.529,-284.094C911.922,-307.946 922.246,-327 1007.5,-327 1090.19,-327 1102.39,-262.564 1044.1,-226"/>
<polygon fill="#404040" stroke="#404040" points="1045.82,-222.955 1035.4,-221.035 1042.35,-229.033 1045.82,-222.955"/>
</g>
<!-- header__seq_params_switch -->
<g id="node6" class="node"><title>header__seq_params_switch</title>
<polygon fill="#f0f2e4" stroke="none" points="1106,-263 1106,-284 1330,-284 1330,-263 1106,-263"/>
<polygon fill="none" stroke="black" points="1106,-263 1106,-284 1330,-284 1330,-263 1106,-263"/>
<text text-anchor="start" x="1201.5" y="-269.8" font-family="Times,serif" font-size="14.00">case</text>
<polygon fill="#f0f2e4" stroke="none" points="1330,-263 1330,-284 1452,-284 1452,-263 1330,-263"/>
<polygon fill="none" stroke="black" points="1330,-263 1330,-284 1452,-284 1452,-263 1330,-263"/>
<text text-anchor="start" x="1375" y="-269.8" font-family="Times,serif" font-size="14.00">type</text>
<polygon fill="none" stroke="black" points="1106,-242 1106,-263 1330,-263 1330,-242 1106,-242"/>
<text text-anchor="start" x="1113" y="-248.8" font-family="Times,serif" font-size="14.00">:header_type_enum_program</text>
<polygon fill="none" stroke="black" points="1330,-242 1330,-263 1452,-263 1452,-242 1330,-242"/>
<text text-anchor="start" x="1333" y="-248.8" font-family="Times,serif" font-size="14.00">ProgramParams</text>
<polygon fill="none" stroke="black" points="1106,-221 1106,-242 1330,-242 1330,-221 1106,-221"/>
<text text-anchor="start" x="1109.5" y="-227.8" font-family="Times,serif" font-size="14.00">:header_type_enum_num_arry</text>
<polygon fill="none" stroke="black" points="1330,-221 1330,-242 1452,-242 1452,-221 1330,-221"/>
<text text-anchor="start" x="1344" y="-227.8" font-family="Times,serif" font-size="14.00">ArrayParams</text>
<polygon fill="none" stroke="black" points="1106,-200 1106,-221 1330,-221 1330,-200 1106,-200"/>
<text text-anchor="start" x="1109" y="-206.8" font-family="Times,serif" font-size="14.00">:header_type_enum_char_arry</text>
<polygon fill="none" stroke="black" points="1330,-200 1330,-221 1452,-221 1452,-200 1330,-200"/>
<text text-anchor="start" x="1344" y="-206.8" font-family="Times,serif" font-size="14.00">ArrayParams</text>
<polygon fill="none" stroke="black" points="1106,-179 1106,-200 1330,-200 1330,-179 1106,-179"/>
<text text-anchor="start" x="1124.5" y="-185.8" font-family="Times,serif" font-size="14.00">:header_type_enum_bytes</text>
<polygon fill="none" stroke="black" points="1330,-179 1330,-200 1452,-200 1452,-179 1330,-179"/>
<text text-anchor="start" x="1344" y="-185.8" font-family="Times,serif" font-size="14.00">BytesParams</text>
</g>
<!-- header__seq&#45;&gt;header__seq_params_switch -->
<g id="edge5" class="edge"><title>header__seq:params_type&#45;&gt;header__seq_params_switch</title>
<path fill="none" stroke="black" stroke-width="2" d="M1055.5,-210C1066.05,-210 1076.87,-210.248 1087.78,-210.691"/>
<polygon fill="black" stroke="black" stroke-width="2" points="1087.67,-214.19 1097.82,-211.152 1087.99,-207.197 1087.67,-214.19"/>
</g>
<!-- header__seq_params_switch&#45;&gt;program_params__seq -->
<g id="edge6" class="edge"><title>header__seq_params_switch:case0&#45;&gt;program_params__seq</title>
<path fill="none" stroke="black" stroke-width="2" d="M1453,-253C1510.49,-253 1459,-175.005 1496,-131 1505.64,-119.536 1517.63,-109.566 1530.35,-101.015"/>
<polygon fill="black" stroke="black" stroke-width="2" points="1532.27,-103.942 1538.8,-95.6 1528.49,-98.0484 1532.27,-103.942"/>
</g>
<!-- header__seq_params_switch&#45;&gt;bytes_params__seq -->
<g id="edge9" class="edge"><title>header__seq_params_switch:case3&#45;&gt;bytes_params__seq</title>
<path fill="none" stroke="black" stroke-width="2" d="M1453,-189C1467.13,-189 1481.91,-188.649 1496.61,-188.079"/>
<polygon fill="black" stroke="black" stroke-width="2" points="1496.91,-191.57 1506.76,-187.651 1496.62,-184.576 1496.91,-191.57"/>
</g>
<!-- array_params__seq -->
<g id="node7" class="node"><title>array_params__seq</title>
<polygon fill="#e0ffe0" stroke="none" points="1528.5,-329 1528.5,-350 1559.5,-350 1559.5,-329 1528.5,-329"/>
<polygon fill="none" stroke="black" points="1528.5,-329 1528.5,-350 1559.5,-350 1559.5,-329 1528.5,-329"/>
<text text-anchor="start" x="1531.5" y="-335.8" font-family="Times,serif" font-size="14.00">pos</text>
<polygon fill="#e0ffe0" stroke="none" points="1559.5,-329 1559.5,-350 1593.5,-350 1593.5,-329 1559.5,-329"/>
<polygon fill="none" stroke="black" points="1559.5,-329 1559.5,-350 1593.5,-350 1593.5,-329 1559.5,-329"/>
<text text-anchor="start" x="1562.5" y="-335.8" font-family="Times,serif" font-size="14.00">size</text>
<polygon fill="#e0ffe0" stroke="none" points="1593.5,-329 1593.5,-350 1640.5,-350 1640.5,-329 1593.5,-329"/>
<polygon fill="none" stroke="black" points="1593.5,-329 1593.5,-350 1640.5,-350 1640.5,-329 1593.5,-329"/>
<text text-anchor="start" x="1601" y="-335.8" font-family="Times,serif" font-size="14.00">type</text>
<polygon fill="#e0ffe0" stroke="none" points="1640.5,-329 1640.5,-350 1719.5,-350 1719.5,-329 1640.5,-329"/>
<polygon fill="none" stroke="black" points="1640.5,-329 1640.5,-350 1719.5,-350 1719.5,-329 1640.5,-329"/>
<text text-anchor="start" x="1673" y="-335.8" font-family="Times,serif" font-size="14.00">id</text>
<polygon fill="none" stroke="black" points="1528.5,-308 1528.5,-329 1559.5,-329 1559.5,-308 1528.5,-308"/>
<text text-anchor="start" x="1539" y="-314.8" font-family="Times,serif" font-size="14.00">0</text>
<polygon fill="none" stroke="black" points="1559.5,-308 1559.5,-329 1593.5,-329 1593.5,-308 1559.5,-308"/>
<text text-anchor="start" x="1571.5" y="-314.8" font-family="Times,serif" font-size="14.00">1</text>
<polygon fill="none" stroke="black" points="1593.5,-308 1593.5,-329 1640.5,-329 1640.5,-308 1593.5,-308"/>
<text text-anchor="start" x="1607.5" y="-314.8" font-family="Times,serif" font-size="14.00">u1</text>
<polygon fill="none" stroke="black" points="1640.5,-308 1640.5,-329 1719.5,-329 1719.5,-308 1640.5,-308"/>
<text text-anchor="start" x="1648" y="-314.8" font-family="Times,serif" font-size="14.00">reserved</text>
<polygon fill="none" stroke="black" points="1528.5,-287 1528.5,-308 1559.5,-308 1559.5,-287 1528.5,-287"/>
<text text-anchor="start" x="1539" y="-293.8" font-family="Times,serif" font-size="14.00">1</text>
<polygon fill="none" stroke="black" points="1559.5,-287 1559.5,-308 1593.5,-308 1593.5,-287 1559.5,-287"/>
<text text-anchor="start" x="1571.5" y="-293.8" font-family="Times,serif" font-size="14.00">1</text>
<polygon fill="none" stroke="black" points="1593.5,-287 1593.5,-308 1640.5,-308 1640.5,-287 1593.5,-287"/>
<text text-anchor="start" x="1607.5" y="-293.8" font-family="Times,serif" font-size="14.00">u1</text>
<polygon fill="none" stroke="black" points="1640.5,-287 1640.5,-308 1719.5,-308 1719.5,-287 1640.5,-287"/>
<text text-anchor="start" x="1645" y="-293.8" font-family="Times,serif" font-size="14.00">var_name</text>
<polygon fill="none" stroke="black" points="1528.5,-266 1528.5,-287 1559.5,-287 1559.5,-266 1528.5,-266"/>
<text text-anchor="start" x="1539" y="-272.8" font-family="Times,serif" font-size="14.00">2</text>
<polygon fill="none" stroke="black" points="1559.5,-266 1559.5,-287 1593.5,-287 1593.5,-266 1559.5,-266"/>
<text text-anchor="start" x="1571.5" y="-272.8" font-family="Times,serif" font-size="14.00">2</text>
<polygon fill="none" stroke="black" points="1593.5,-266 1593.5,-287 1640.5,-287 1640.5,-266 1593.5,-266"/>
<text text-anchor="start" x="1596.5" y="-272.8" font-family="Times,serif" font-size="14.00">00 80</text>
<polygon fill="none" stroke="black" points="1640.5,-266 1640.5,-287 1719.5,-287 1719.5,-266 1640.5,-266"/>
<text text-anchor="start" x="1643.5" y="-272.8" font-family="Times,serif" font-size="14.00">reserved1</text>
</g>
<!-- header__seq_params_switch&#45;&gt;array_params__seq -->
<g id="edge7" class="edge"><title>header__seq_params_switch:case1&#45;&gt;array_params__seq</title>
<path fill="none" stroke="black" stroke-width="2" d="M1453,-231C1454.02,-231 1480.86,-243.095 1512.89,-257.698"/>
<polygon fill="black" stroke="black" stroke-width="2" points="1511.49,-260.908 1522.04,-261.875 1514.4,-254.54 1511.49,-260.908"/>
</g>
<!-- header__seq_params_switch&#45;&gt;array_params__seq -->
<g id="edge8" class="edge"><title>header__seq_params_switch:case2&#45;&gt;array_params__seq</title>
<path fill="none" stroke="black" stroke-width="2" d="M1453,-210C1479.1,-210 1474.31,-235.487 1496,-250 1500.82,-253.227 1505.86,-256.359 1511.02,-259.386"/>
<polygon fill="black" stroke="black" stroke-width="2" points="1509.38,-262.483 1519.81,-264.378 1512.84,-256.396 1509.38,-262.483"/>
</g>
</g>
</svg>
