<?xml version="1.0" encoding="UTF-8" standalone="no"?>
<!DOCTYPE svg PUBLIC "-//W3C//DTD SVG 1.1//EN"
 "http://www.w3.org/Graphics/SVG/1.1/DTD/svg11.dtd">
<!-- Generated by graphviz version 2.43.0 (0)
 -->
<!-- Title: %3 Pages: 1 -->
<svg width="1769pt" height="432pt"
 viewBox="0.00 0.00 1769.00 432.00" xmlns="http://www.w3.org/2000/svg" xmlns:xlink="http://www.w3.org/1999/xlink">
<g id="graph0" class="graph" transform="scale(1 1) rotate(0) translate(4 428)">
<title>%3</title>
<polygon fill="white" stroke="transparent" points="-4,4 -4,-428 1765,-428 1765,4 -4,4"/>
<g id="clust1" class="cluster">
<title>cluster__zx_spectrum_tap</title>
<polygon fill="none" stroke="black" stroke-dasharray="1,5" points="8,-8 8,-416 1760,-416 1760,-8 8,-8"/>
<text text-anchor="middle" x="884" y="-400.8" font-family="Times,serif" font-size="14.00">ZxSpectrumTap</text>
</g>
<g id="clust2" class="cluster">
<title>cluster__block</title>
<polygon fill="none" stroke="black" stroke-dasharray="1,5" points="235,-186 235,-377 690,-377 690,-186 235,-186"/>
<text text-anchor="middle" x="462.5" y="-361.8" font-family="Times,serif" font-size="14.00">ZxSpectrumTap::Block</text>
</g>
<g id="clust3" class="cluster">
<title>cluster__program_params</title>
<polygon fill="none" stroke="black" stroke-dasharray="1,5" points="1498,-16 1498,-127 1752,-127 1752,-16 1498,-16"/>
<text text-anchor="middle" x="1625" y="-111.8" font-family="Times,serif" font-size="14.00">ZxSpectrumTap::ProgramParams</text>
</g>
<g id="clust4" class="cluster">
<title>cluster__bytes_params</title>
<polygon fill="none" stroke="black" stroke-dasharray="1,5" points="1505,-135 1505,-246 1744,-246 1744,-135 1505,-135"/>
<text text-anchor="middle" x="1624.5" y="-230.8" font-family="Times,serif" font-size="14.00">ZxSpectrumTap::BytesParams</text>
</g>
<g id="clust5" class="cluster">
<title>cluster__header</title>
<polygon fill="none" stroke="black" stroke-dasharray="1,5" points="710,-170 710,-361 1470,-361 1470,-170 710,-170"/>
<text text-anchor="middle" x="1090" y="-345.8" font-family="Times,serif" font-size="14.00">ZxSpectrumTap::Header</text>
</g>
<g id="clust6" class="cluster">
<title>cluster__array_params</title>
<polygon fill="none" stroke="black" stroke-dasharray="1,5" points="1508.5,-254 1508.5,-385 1740.5,-385 1740.5,-254 1508.5,-254"/>
<text text-anchor="middle" x="1624.5" y="-369.8" font-family="Times,serif" font-size="14.00">ZxSpectrumTap::ArrayParams</text>
</g>
<!-- zx_spectrum_tap__seq -->
<g id="node1" class="node">
<title>zx_spectrum_tap__seq</title>
<polygon fill="#e0ffe0" stroke="transparent" points="24.5,-272 24.5,-293 61.5,-293 61.5,-272 24.5,-272"/>
<polygon fill="none" stroke="black" points="24.5,-272 24.5,-293 61.5,-293 61.5,-272 24.5,-272"/>
<text text-anchor="start" x="30.5" y="-278.8" font-family="Times,serif" font-size="14.00">pos</text>
<polygon fill="#e0ffe0" stroke="transparent" points="61.5,-272 61.5,-293 98.5,-293 98.5,-272 61.5,-272"/>
<polygon fill="none" stroke="black" points="61.5,-272 61.5,-293 98.5,-293 98.5,-272 61.5,-272"/>
<text text-anchor="start" x="66" y="-278.8" font-family="Times,serif" font-size="14.00">size</text>
<polygon fill="#e0ffe0" stroke="transparent" points="98.5,-272 98.5,-293 145.5,-293 145.5,-272 98.5,-272"/>
<polygon fill="none" stroke="black" points="98.5,-272 98.5,-293 145.5,-293 145.5,-272 98.5,-272"/>
<text text-anchor="start" x="106" y="-278.8" font-family="Times,serif" font-size="14.00">type</text>
<polygon fill="#e0ffe0" stroke="transparent" points="145.5,-272 145.5,-293 199.5,-293 199.5,-272 145.5,-272"/>
<polygon fill="none" stroke="black" points="145.5,-272 145.5,-293 199.5,-293 199.5,-272 145.5,-272"/>
<text text-anchor="start" x="165.5" y="-278.8" font-family="Times,serif" font-size="14.00">id</text>
<polygon fill="none" stroke="black" points="24.5,-251 24.5,-272 61.5,-272 61.5,-251 24.5,-251"/>
<text text-anchor="start" x="38" y="-257.8" font-family="Times,serif" font-size="14.00">0</text>
<polygon fill="none" stroke="black" points="61.5,-251 61.5,-272 98.5,-272 98.5,-251 61.5,-251"/>
<text text-anchor="start" x="73" y="-257.8" font-family="Times,serif" font-size="14.00">...</text>
<polygon fill="none" stroke="black" points="98.5,-251 98.5,-272 145.5,-272 145.5,-251 98.5,-251"/>
<text text-anchor="start" x="102" y="-257.8" font-family="Times,serif" font-size="14.00">Block</text>
<polygon fill="none" stroke="black" points="145.5,-251 145.5,-272 199.5,-272 199.5,-251 145.5,-251"/>
<text text-anchor="start" x="149.5" y="-257.8" font-family="Times,serif" font-size="14.00">blocks</text>
<polygon fill="none" stroke="black" points="24.5,-230 24.5,-251 199.5,-251 199.5,-230 24.5,-230"/>
<text text-anchor="start" x="27.5" y="-236.8" font-family="Times,serif" font-size="14.00">repeat to end of stream</text>
</g>
<!-- block__seq -->
<g id="node2" class="node">
<title>block__seq</title>
<polygon fill="#e0ffe0" stroke="transparent" points="251.5,-303 251.5,-324 282.5,-324 282.5,-303 251.5,-303"/>
<polygon fill="none" stroke="black" points="251.5,-303 251.5,-324 282.5,-324 282.5,-303 251.5,-303"/>
<text text-anchor="start" x="254.5" y="-309.8" font-family="Times,serif" font-size="14.00">pos</text>
<polygon fill="#e0ffe0" stroke="transparent" points="282.5,-303 282.5,-324 442.5,-324 442.5,-303 282.5,-303"/>
<polygon fill="none" stroke="black" points="282.5,-303 282.5,-324 442.5,-324 442.5,-303 282.5,-303"/>
<text text-anchor="start" x="348.5" y="-309.8" font-family="Times,serif" font-size="14.00">size</text>
<polygon fill="#e0ffe0" stroke="transparent" points="442.5,-303 442.5,-324 552.5,-324 552.5,-303 442.5,-303"/>
<polygon fill="none" stroke="black" points="442.5,-303 442.5,-324 552.5,-324 552.5,-303 442.5,-303"/>
<text text-anchor="start" x="481.5" y="-309.8" font-family="Times,serif" font-size="14.00">type</text>
<polygon fill="#e0ffe0" stroke="transparent" points="552.5,-303 552.5,-324 674.5,-324 674.5,-303 552.5,-303"/>
<polygon fill="none" stroke="black" points="552.5,-303 552.5,-324 674.5,-324 674.5,-303 552.5,-303"/>
<text text-anchor="start" x="606.5" y="-309.8" font-family="Times,serif" font-size="14.00">id</text>
<polygon fill="none" stroke="black" points="251.5,-282 251.5,-303 282.5,-303 282.5,-282 251.5,-282"/>
<text text-anchor="start" x="262" y="-288.8" font-family="Times,serif" font-size="14.00">0</text>
<polygon fill="none" stroke="black" points="282.5,-282 282.5,-303 442.5,-303 442.5,-282 282.5,-282"/>
<text text-anchor="start" x="357.5" y="-288.8" font-family="Times,serif" font-size="14.00">2</text>
<polygon fill="none" stroke="black" points="442.5,-282 442.5,-303 552.5,-303 552.5,-282 442.5,-282"/>
<text text-anchor="start" x="482" y="-288.8" font-family="Times,serif" font-size="14.00">u2le</text>
<polygon fill="none" stroke="black" points="552.5,-282 552.5,-303 674.5,-303 674.5,-282 552.5,-282"/>
<text text-anchor="start" x="580" y="-288.8" font-family="Times,serif" font-size="14.00">len_block</text>
<polygon fill="none" stroke="black" points="251.5,-261 251.5,-282 282.5,-282 282.5,-261 251.5,-261"/>
<text text-anchor="start" x="262" y="-267.8" font-family="Times,serif" font-size="14.00">2</text>
<polygon fill="none" stroke="black" points="282.5,-261 282.5,-282 442.5,-282 442.5,-261 282.5,-261"/>
<text text-anchor="start" x="357.5" y="-267.8" font-family="Times,serif" font-size="14.00">1</text>
<polygon fill="none" stroke="black" points="442.5,-261 442.5,-282 552.5,-282 552.5,-261 442.5,-261"/>
<text text-anchor="start" x="445.5" y="-267.8" font-family="Times,serif" font-size="14.00">u1→FlagEnum</text>
<polygon fill="none" stroke="black" points="552.5,-261 552.5,-282 674.5,-282 674.5,-261 552.5,-261"/>
<text text-anchor="start" x="600" y="-267.8" font-family="Times,serif" font-size="14.00">flag</text>
<polygon fill="none" stroke="black" points="251.5,-240 251.5,-261 282.5,-261 282.5,-240 251.5,-240"/>
<text text-anchor="start" x="262" y="-246.8" font-family="Times,serif" font-size="14.00">3</text>
<polygon fill="none" stroke="black" points="282.5,-240 282.5,-261 442.5,-261 442.5,-240 282.5,-240"/>
<text text-anchor="start" x="355.5" y="-246.8" font-family="Times,serif" font-size="14.00">...</text>
<polygon fill="none" stroke="black" points="442.5,-240 442.5,-261 552.5,-261 552.5,-240 442.5,-240"/>
<text text-anchor="start" x="471" y="-246.8" font-family="Times,serif" font-size="14.00">Header</text>
<polygon fill="none" stroke="black" points="552.5,-240 552.5,-261 674.5,-261 674.5,-240 552.5,-240"/>
<text text-anchor="start" x="588.5" y="-246.8" font-family="Times,serif" font-size="14.00">header</text>
<polygon fill="none" stroke="black" points="251.5,-219 251.5,-240 282.5,-240 282.5,-219 251.5,-219"/>
<text text-anchor="start" x="260" y="-225.8" font-family="Times,serif" font-size="14.00">...</text>
<polygon fill="none" stroke="black" points="282.5,-219 282.5,-240 442.5,-240 442.5,-219 282.5,-219"/>
<text text-anchor="start" x="285.5" y="-225.8" font-family="Times,serif" font-size="14.00">(header.len_data + 4)</text>
<polygon fill="none" stroke="black" points="442.5,-219 442.5,-240 552.5,-240 552.5,-219 442.5,-219"/>
<polygon fill="none" stroke="black" points="552.5,-219 552.5,-240 674.5,-240 674.5,-219 552.5,-219"/>
<text text-anchor="start" x="597.5" y="-225.8" font-family="Times,serif" font-size="14.00">data</text>
<polygon fill="none" stroke="black" points="251.5,-198 251.5,-219 282.5,-219 282.5,-198 251.5,-198"/>
<text text-anchor="start" x="260" y="-204.8" font-family="Times,serif" font-size="14.00">...</text>
<polygon fill="none" stroke="black" points="282.5,-198 282.5,-219 442.5,-219 442.5,-198 282.5,-198"/>
<text text-anchor="start" x="312.5" y="-204.8" font-family="Times,serif" font-size="14.00">(len_block &#45; 1)</text>
<polygon fill="none" stroke="black" points="442.5,-198 442.5,-219 552.5,-219 552.5,-198 442.5,-198"/>
<polygon fill="none" stroke="black" points="552.5,-198 552.5,-219 674.5,-219 674.5,-198 552.5,-198"/>
<text text-anchor="start" x="555.5" y="-204.8" font-family="Times,serif" font-size="14.00">headerless_data</text>
</g>
<!-- zx_spectrum_tap__seq&#45;&gt;block__seq -->
<g id="edge1" class="edge">
<title>zx_spectrum_tap__seq:blocks_type&#45;&gt;block__seq</title>
<path fill="none" stroke="black" stroke-width="2" d="M200.5,-261C211.08,-261 221.9,-261 232.84,-261"/>
<polygon fill="black" stroke="black" stroke-width="2" points="232.9,-264.5 242.9,-261 232.9,-257.5 232.9,-264.5"/>
</g>
<!-- block__seq&#45;&gt;block__seq -->
<g id="edge4" class="edge">
<title>block__seq:len_block_type&#45;&gt;block__seq:headerless_data_size</title>
<path fill="none" stroke="#404040" d="M641.22,-303.09C697.88,-326.95 675.21,-346 488,-346 306.37,-346 279.62,-266.26 329.93,-225.2"/>
<polygon fill="#404040" stroke="#404040" points="332.2,-227.88 338.28,-219.2 328.12,-222.2 332.2,-227.88"/>
</g>
<!-- header__seq -->
<g id="node5" class="node">
<title>header__seq</title>
<polygon fill="#e0ffe0" stroke="transparent" points="726.5,-287 726.5,-308 757.5,-308 757.5,-287 726.5,-287"/>
<polygon fill="none" stroke="black" points="726.5,-287 726.5,-308 757.5,-308 757.5,-287 726.5,-287"/>
<text text-anchor="start" x="729.5" y="-293.8" font-family="Times,serif" font-size="14.00">pos</text>
<polygon fill="#e0ffe0" stroke="transparent" points="757.5,-287 757.5,-308 791.5,-308 791.5,-287 757.5,-287"/>
<polygon fill="none" stroke="black" points="757.5,-287 757.5,-308 791.5,-308 791.5,-287 757.5,-287"/>
<text text-anchor="start" x="760.5" y="-293.8" font-family="Times,serif" font-size="14.00">size</text>
<polygon fill="#e0ffe0" stroke="transparent" points="791.5,-287 791.5,-308 957.5,-308 957.5,-287 791.5,-287"/>
<polygon fill="none" stroke="black" points="791.5,-287 791.5,-308 957.5,-308 957.5,-287 791.5,-287"/>
<text text-anchor="start" x="858.5" y="-293.8" font-family="Times,serif" font-size="14.00">type</text>
<polygon fill="#e0ffe0" stroke="transparent" points="957.5,-287 957.5,-308 1051.5,-308 1051.5,-287 957.5,-287"/>
<polygon fill="none" stroke="black" points="957.5,-287 957.5,-308 1051.5,-308 1051.5,-287 957.5,-287"/>
<text text-anchor="start" x="997.5" y="-293.8" font-family="Times,serif" font-size="14.00">id</text>
<polygon fill="none" stroke="black" points="726.5,-266 726.5,-287 757.5,-287 757.5,-266 726.5,-266"/>
<text text-anchor="start" x="737" y="-272.8" font-family="Times,serif" font-size="14.00">0</text>
<polygon fill="none" stroke="black" points="757.5,-266 757.5,-287 791.5,-287 791.5,-266 757.5,-266"/>
<text text-anchor="start" x="769.5" y="-272.8" font-family="Times,serif" font-size="14.00">1</text>
<polygon fill="none" stroke="black" points="791.5,-266 791.5,-287 957.5,-287 957.5,-266 791.5,-266"/>
<text text-anchor="start" x="794.5" y="-272.8" font-family="Times,serif" font-size="14.00">u1→HeaderTypeEnum</text>
<polygon fill="none" stroke="black" points="957.5,-266 957.5,-287 1051.5,-287 1051.5,-266 957.5,-266"/>
<text text-anchor="start" x="960.5" y="-272.8" font-family="Times,serif" font-size="14.00">header_type</text>
<polygon fill="none" stroke="black" points="726.5,-245 726.5,-266 757.5,-266 757.5,-245 726.5,-245"/>
<text text-anchor="start" x="737" y="-251.8" font-family="Times,serif" font-size="14.00">1</text>
<polygon fill="none" stroke="black" points="757.5,-245 757.5,-266 791.5,-266 791.5,-245 757.5,-245"/>
<text text-anchor="start" x="765" y="-251.8" font-family="Times,serif" font-size="14.00">10</text>
<polygon fill="none" stroke="black" points="791.5,-245 791.5,-266 957.5,-266 957.5,-245 791.5,-245"/>
<polygon fill="none" stroke="black" points="957.5,-245 957.5,-266 1051.5,-266 1051.5,-245 957.5,-245"/>
<text text-anchor="start" x="974" y="-251.8" font-family="Times,serif" font-size="14.00">filename</text>
<polygon fill="none" stroke="black" points="726.5,-224 726.5,-245 757.5,-245 757.5,-224 726.5,-224"/>
<text text-anchor="start" x="732.5" y="-230.8" font-family="Times,serif" font-size="14.00">11</text>
<polygon fill="none" stroke="black" points="757.5,-224 757.5,-245 791.5,-245 791.5,-224 757.5,-224"/>
<text text-anchor="start" x="769.5" y="-230.8" font-family="Times,serif" font-size="14.00">2</text>
<polygon fill="none" stroke="black" points="791.5,-224 791.5,-245 957.5,-245 957.5,-224 791.5,-224"/>
<text text-anchor="start" x="859" y="-230.8" font-family="Times,serif" font-size="14.00">u2le</text>
<polygon fill="none" stroke="black" points="957.5,-224 957.5,-245 1051.5,-245 1051.5,-224 957.5,-224"/>
<text text-anchor="start" x="974" y="-230.8" font-family="Times,serif" font-size="14.00">len_data</text>
<polygon fill="none" stroke="black" points="726.5,-203 726.5,-224 757.5,-224 757.5,-203 726.5,-203"/>
<text text-anchor="start" x="732.5" y="-209.8" font-family="Times,serif" font-size="14.00">13</text>
<polygon fill="none" stroke="black" points="757.5,-203 757.5,-224 791.5,-224 791.5,-203 757.5,-203"/>
<text text-anchor="start" x="767.5" y="-209.8" font-family="Times,serif" font-size="14.00">...</text>
<polygon fill="none" stroke="black" points="791.5,-203 791.5,-224 957.5,-224 957.5,-203 791.5,-203"/>
<text text-anchor="start" x="799.5" y="-209.8" font-family="Times,serif" font-size="14.00">switch (header_type)</text>
<polygon fill="none" stroke="black" points="957.5,-203 957.5,-224 1051.5,-224 1051.5,-203 957.5,-203"/>
<text text-anchor="start" x="977.5" y="-209.8" font-family="Times,serif" font-size="14.00">params</text>
<polygon fill="none" stroke="black" points="726.5,-182 726.5,-203 757.5,-203 757.5,-182 726.5,-182"/>
<text text-anchor="start" x="735" y="-188.8" font-family="Times,serif" font-size="14.00">...</text>
<polygon fill="none" stroke="black" points="757.5,-182 757.5,-203 791.5,-203 791.5,-182 757.5,-182"/>
<text text-anchor="start" x="769.5" y="-188.8" font-family="Times,serif" font-size="14.00">1</text>
<polygon fill="none" stroke="black" points="791.5,-182 791.5,-203 957.5,-203 957.5,-182 791.5,-182"/>
<text text-anchor="start" x="865" y="-188.8" font-family="Times,serif" font-size="14.00">u1</text>
<polygon fill="none" stroke="black" points="957.5,-182 957.5,-203 1051.5,-203 1051.5,-182 957.5,-182"/>
<text text-anchor="start" x="969" y="-188.8" font-family="Times,serif" font-size="14.00">checksum</text>
</g>
<!-- block__seq&#45;&gt;header__seq -->
<g id="edge2" class="edge">
<title>block__seq:header_type&#45;&gt;header__seq</title>
<path fill="none" stroke="black" stroke-width="2" d="M675.5,-250C686.07,-250 696.94,-249.94 707.9,-249.83"/>
<polygon fill="black" stroke="black" stroke-width="2" points="708.03,-253.32 717.99,-249.71 707.95,-246.32 708.03,-253.32"/>
</g>
<!-- program_params__seq -->
<g id="node3" class="node">
<title>program_params__seq</title>
<polygon fill="#e0ffe0" stroke="transparent" points="1520.5,-70 1520.5,-91 1551.5,-91 1551.5,-70 1520.5,-70"/>
<polygon fill="none" stroke="black" points="1520.5,-70 1520.5,-91 1551.5,-91 1551.5,-70 1520.5,-70"/>
<text text-anchor="start" x="1523.5" y="-76.8" font-family="Times,serif" font-size="14.00">pos</text>
<polygon fill="#e0ffe0" stroke="transparent" points="1551.5,-70 1551.5,-91 1585.5,-91 1585.5,-70 1551.5,-70"/>
<polygon fill="none" stroke="black" points="1551.5,-70 1551.5,-91 1585.5,-91 1585.5,-70 1551.5,-70"/>
<text text-anchor="start" x="1554.5" y="-76.8" font-family="Times,serif" font-size="14.00">size</text>
<polygon fill="#e0ffe0" stroke="transparent" points="1585.5,-70 1585.5,-91 1623.5,-91 1623.5,-70 1585.5,-70"/>
<polygon fill="none" stroke="black" points="1585.5,-70 1585.5,-91 1623.5,-91 1623.5,-70 1585.5,-70"/>
<text text-anchor="start" x="1588.5" y="-76.8" font-family="Times,serif" font-size="14.00">type</text>
<polygon fill="#e0ffe0" stroke="transparent" points="1623.5,-70 1623.5,-91 1729.5,-91 1729.5,-70 1623.5,-70"/>
<polygon fill="none" stroke="black" points="1623.5,-70 1623.5,-91 1729.5,-91 1729.5,-70 1623.5,-70"/>
<text text-anchor="start" x="1669.5" y="-76.8" font-family="Times,serif" font-size="14.00">id</text>
<polygon fill="none" stroke="black" points="1520.5,-49 1520.5,-70 1551.5,-70 1551.5,-49 1520.5,-49"/>
<text text-anchor="start" x="1531" y="-55.8" font-family="Times,serif" font-size="14.00">0</text>
<polygon fill="none" stroke="black" points="1551.5,-49 1551.5,-70 1585.5,-70 1585.5,-49 1551.5,-49"/>
<text text-anchor="start" x="1563.5" y="-55.8" font-family="Times,serif" font-size="14.00">2</text>
<polygon fill="none" stroke="black" points="1585.5,-49 1585.5,-70 1623.5,-70 1623.5,-49 1585.5,-49"/>
<text text-anchor="start" x="1589" y="-55.8" font-family="Times,serif" font-size="14.00">u2le</text>
<polygon fill="none" stroke="black" points="1623.5,-49 1623.5,-70 1729.5,-70 1729.5,-49 1623.5,-49"/>
<text text-anchor="start" x="1626.5" y="-55.8" font-family="Times,serif" font-size="14.00">autostart_line</text>
<polygon fill="none" stroke="black" points="1520.5,-28 1520.5,-49 1551.5,-49 1551.5,-28 1520.5,-28"/>
<text text-anchor="start" x="1531" y="-34.8" font-family="Times,serif" font-size="14.00">2</text>
<polygon fill="none" stroke="black" points="1551.5,-28 1551.5,-49 1585.5,-49 1585.5,-28 1551.5,-28"/>
<text text-anchor="start" x="1563.5" y="-34.8" font-family="Times,serif" font-size="14.00">2</text>
<polygon fill="none" stroke="black" points="1585.5,-28 1585.5,-49 1623.5,-49 1623.5,-28 1585.5,-28"/>
<text text-anchor="start" x="1589" y="-34.8" font-family="Times,serif" font-size="14.00">u2le</text>
<polygon fill="none" stroke="black" points="1623.5,-28 1623.5,-49 1729.5,-49 1729.5,-28 1623.5,-28"/>
<text text-anchor="start" x="1631" y="-34.8" font-family="Times,serif" font-size="14.00">len_program</text>
</g>
<!-- bytes_params__seq -->
<g id="node4" class="node">
<title>bytes_params__seq</title>
<polygon fill="#e0ffe0" stroke="transparent" points="1521.5,-189 1521.5,-210 1552.5,-210 1552.5,-189 1521.5,-189"/>
<polygon fill="none" stroke="black" points="1521.5,-189 1521.5,-210 1552.5,-210 1552.5,-189 1521.5,-189"/>
<text text-anchor="start" x="1524.5" y="-195.8" font-family="Times,serif" font-size="14.00">pos</text>
<polygon fill="#e0ffe0" stroke="transparent" points="1552.5,-189 1552.5,-210 1586.5,-210 1586.5,-189 1552.5,-189"/>
<polygon fill="none" stroke="black" points="1552.5,-189 1552.5,-210 1586.5,-210 1586.5,-189 1552.5,-189"/>
<text text-anchor="start" x="1555.5" y="-195.8" font-family="Times,serif" font-size="14.00">size</text>
<polygon fill="#e0ffe0" stroke="transparent" points="1586.5,-189 1586.5,-210 1624.5,-210 1624.5,-189 1586.5,-189"/>
<polygon fill="none" stroke="black" points="1586.5,-189 1586.5,-210 1624.5,-210 1624.5,-189 1586.5,-189"/>
<text text-anchor="start" x="1589.5" y="-195.8" font-family="Times,serif" font-size="14.00">type</text>
<polygon fill="#e0ffe0" stroke="transparent" points="1624.5,-189 1624.5,-210 1728.5,-210 1728.5,-189 1624.5,-189"/>
<polygon fill="none" stroke="black" points="1624.5,-189 1624.5,-210 1728.5,-210 1728.5,-189 1624.5,-189"/>
<text text-anchor="start" x="1669.5" y="-195.8" font-family="Times,serif" font-size="14.00">id</text>
<polygon fill="none" stroke="black" points="1521.5,-168 1521.5,-189 1552.5,-189 1552.5,-168 1521.5,-168"/>
<text text-anchor="start" x="1532" y="-174.8" font-family="Times,serif" font-size="14.00">0</text>
<polygon fill="none" stroke="black" points="1552.5,-168 1552.5,-189 1586.5,-189 1586.5,-168 1552.5,-168"/>
<text text-anchor="start" x="1564.5" y="-174.8" font-family="Times,serif" font-size="14.00">2</text>
<polygon fill="none" stroke="black" points="1586.5,-168 1586.5,-189 1624.5,-189 1624.5,-168 1586.5,-168"/>
<text text-anchor="start" x="1590" y="-174.8" font-family="Times,serif" font-size="14.00">u2le</text>
<polygon fill="none" stroke="black" points="1624.5,-168 1624.5,-189 1728.5,-189 1728.5,-168 1624.5,-168"/>
<text text-anchor="start" x="1627.5" y="-174.8" font-family="Times,serif" font-size="14.00">start_address</text>
<polygon fill="none" stroke="black" points="1521.5,-147 1521.5,-168 1552.5,-168 1552.5,-147 1521.5,-147"/>
<text text-anchor="start" x="1532" y="-153.8" font-family="Times,serif" font-size="14.00">2</text>
<polygon fill="none" stroke="black" points="1552.5,-147 1552.5,-168 1586.5,-168 1586.5,-147 1552.5,-147"/>
<text text-anchor="start" x="1564.5" y="-153.8" font-family="Times,serif" font-size="14.00">2</text>
<polygon fill="none" stroke="black" points="1586.5,-147 1586.5,-168 1624.5,-168 1624.5,-147 1586.5,-147"/>
<polygon fill="none" stroke="black" points="1624.5,-147 1624.5,-168 1728.5,-168 1728.5,-147 1624.5,-147"/>
<text text-anchor="start" x="1644.5" y="-153.8" font-family="Times,serif" font-size="14.00">reserved</text>
</g>
<!-- header__seq&#45;&gt;block__seq -->
<g id="edge3" class="edge">
<title>header__seq:len_data_type&#45;&gt;block__seq:data_size</title>
<path fill="none" stroke="#404040" d="M1052.5,-234C1077.39,-234 1069.26,-195.44 1051.5,-178 864.66,5.54 495.02,-161.69 391.2,-214.36"/>
<polygon fill="#404040" stroke="#404040" points="389.56,-211.26 382.27,-218.94 392.76,-217.49 389.56,-211.26"/>
</g>
<!-- header__seq&#45;&gt;header__seq -->
<g id="edge10" class="edge">
<title>header__seq:header_type_type&#45;&gt;header__seq:params_type</title>
<path fill="none" stroke="#404040" d="M973.37,-287.09C908.43,-310.95 918.81,-330 1004.5,-330 1087.62,-330 1099.88,-265.56 1041.28,-229"/>
<polygon fill="#404040" stroke="#404040" points="1042.97,-225.93 1032.55,-224.03 1039.51,-232.02 1042.97,-225.93"/>
</g>
<!-- header__seq_params_switch -->
<g id="node6" class="node">
<title>header__seq_params_switch</title>
<polygon fill="#f0f2e4" stroke="transparent" points="1103.5,-266 1103.5,-287 1332.5,-287 1332.5,-266 1103.5,-266"/>
<polygon fill="none" stroke="black" points="1103.5,-266 1103.5,-287 1332.5,-287 1332.5,-266 1103.5,-266"/>
<text text-anchor="start" x="1202" y="-272.8" font-family="Times,serif" font-size="14.00">case</text>
<polygon fill="#f0f2e4" stroke="transparent" points="1332.5,-266 1332.5,-287 1454.5,-287 1454.5,-266 1332.5,-266"/>
<polygon fill="none" stroke="black" points="1332.5,-266 1332.5,-287 1454.5,-287 1454.5,-266 1332.5,-266"/>
<text text-anchor="start" x="1377.5" y="-272.8" font-family="Times,serif" font-size="14.00">type</text>
<polygon fill="none" stroke="black" points="1103.5,-245 1103.5,-266 1332.5,-266 1332.5,-245 1103.5,-245"/>
<text text-anchor="start" x="1114" y="-251.8" font-family="Times,serif" font-size="14.00">:header_type_enum_program</text>
<polygon fill="none" stroke="black" points="1332.5,-245 1332.5,-266 1454.5,-266 1454.5,-245 1332.5,-245"/>
<text text-anchor="start" x="1335.5" y="-251.8" font-family="Times,serif" font-size="14.00">ProgramParams</text>
<polygon fill="none" stroke="black" points="1103.5,-224 1103.5,-245 1332.5,-245 1332.5,-224 1103.5,-224"/>
<text text-anchor="start" x="1106.5" y="-230.8" font-family="Times,serif" font-size="14.00">:header_type_enum_num_array</text>
<polygon fill="none" stroke="black" points="1332.5,-224 1332.5,-245 1454.5,-245 1454.5,-224 1332.5,-224"/>
<text text-anchor="start" x="1346.5" y="-230.8" font-family="Times,serif" font-size="14.00">ArrayParams</text>
<polygon fill="none" stroke="black" points="1103.5,-203 1103.5,-224 1332.5,-224 1332.5,-203 1103.5,-203"/>
<text text-anchor="start" x="1106.5" y="-209.8" font-family="Times,serif" font-size="14.00">:header_type_enum_char_array</text>
<polygon fill="none" stroke="black" points="1332.5,-203 1332.5,-224 1454.5,-224 1454.5,-203 1332.5,-203"/>
<text text-anchor="start" x="1346.5" y="-209.8" font-family="Times,serif" font-size="14.00">ArrayParams</text>
<polygon fill="none" stroke="black" points="1103.5,-182 1103.5,-203 1332.5,-203 1332.5,-182 1103.5,-182"/>
<text text-anchor="start" x="1125.5" y="-188.8" font-family="Times,serif" font-size="14.00">:header_type_enum_bytes</text>
<polygon fill="none" stroke="black" points="1332.5,-182 1332.5,-203 1454.5,-203 1454.5,-182 1332.5,-182"/>
<text text-anchor="start" x="1346.5" y="-188.8" font-family="Times,serif" font-size="14.00">BytesParams</text>
</g>
<!-- header__seq&#45;&gt;header__seq_params_switch -->
<g id="edge5" class="edge">
<title>header__seq:params_type&#45;&gt;header__seq_params_switch</title>
<path fill="none" stroke="black" stroke-width="2" d="M1052.5,-213C1063.09,-213 1073.95,-213.24 1084.91,-213.68"/>
<polygon fill="black" stroke="black" stroke-width="2" points="1084.84,-217.18 1094.99,-214.14 1085.15,-210.19 1084.84,-217.18"/>
</g>
<!-- header__seq_params_switch&#45;&gt;program_params__seq -->
<g id="edge6" class="edge">
<title>header__seq_params_switch:case0&#45;&gt;program_params__seq</title>
<path fill="none" stroke="black" stroke-width="2" d="M1455.5,-256C1514.18,-256 1460.57,-176.19 1498,-131 1507.41,-119.64 1519.13,-109.76 1531.61,-101.26"/>
<polygon fill="black" stroke="black" stroke-width="2" points="1533.85,-103.97 1540.34,-95.6 1530.05,-98.1 1533.85,-103.97"/>
</g>
<!-- header__seq_params_switch&#45;&gt;bytes_params__seq -->
<g id="edge9" class="edge">
<title>header__seq_params_switch:case3&#45;&gt;bytes_params__seq</title>
<path fill="none" stroke="black" stroke-width="2" d="M1455.5,-192C1470.74,-192 1486.73,-191.46 1502.54,-190.6"/>
<polygon fill="black" stroke="black" stroke-width="2" points="1503.11,-194.08 1512.89,-190 1502.7,-187.09 1503.11,-194.08"/>
</g>
<!-- array_params__seq -->
<g id="node7" class="node">
<title>array_params__seq</title>
<polygon fill="#e0ffe0" stroke="transparent" points="1533.5,-329 1533.5,-350 1564.5,-350 1564.5,-329 1533.5,-329"/>
<polygon fill="none" stroke="black" points="1533.5,-329 1533.5,-350 1564.5,-350 1564.5,-329 1533.5,-329"/>
<text text-anchor="start" x="1536.5" y="-335.8" font-family="Times,serif" font-size="14.00">pos</text>
<polygon fill="#e0ffe0" stroke="transparent" points="1564.5,-329 1564.5,-350 1598.5,-350 1598.5,-329 1564.5,-329"/>
<polygon fill="none" stroke="black" points="1564.5,-329 1564.5,-350 1598.5,-350 1598.5,-329 1564.5,-329"/>
<text text-anchor="start" x="1567.5" y="-335.8" font-family="Times,serif" font-size="14.00">size</text>
<polygon fill="#e0ffe0" stroke="transparent" points="1598.5,-329 1598.5,-350 1636.5,-350 1636.5,-329 1598.5,-329"/>
<polygon fill="none" stroke="black" points="1598.5,-329 1598.5,-350 1636.5,-350 1636.5,-329 1598.5,-329"/>
<text text-anchor="start" x="1601.5" y="-335.8" font-family="Times,serif" font-size="14.00">type</text>
<polygon fill="#e0ffe0" stroke="transparent" points="1636.5,-329 1636.5,-350 1715.5,-350 1715.5,-329 1636.5,-329"/>
<polygon fill="none" stroke="black" points="1636.5,-329 1636.5,-350 1715.5,-350 1715.5,-329 1636.5,-329"/>
<text text-anchor="start" x="1669" y="-335.8" font-family="Times,serif" font-size="14.00">id</text>
<polygon fill="none" stroke="black" points="1533.5,-308 1533.5,-329 1564.5,-329 1564.5,-308 1533.5,-308"/>
<text text-anchor="start" x="1544" y="-314.8" font-family="Times,serif" font-size="14.00">0</text>
<polygon fill="none" stroke="black" points="1564.5,-308 1564.5,-329 1598.5,-329 1598.5,-308 1564.5,-308"/>
<text text-anchor="start" x="1576.5" y="-314.8" font-family="Times,serif" font-size="14.00">1</text>
<polygon fill="none" stroke="black" points="1598.5,-308 1598.5,-329 1636.5,-329 1636.5,-308 1598.5,-308"/>
<text text-anchor="start" x="1608" y="-314.8" font-family="Times,serif" font-size="14.00">u1</text>
<polygon fill="none" stroke="black" points="1636.5,-308 1636.5,-329 1715.5,-329 1715.5,-308 1636.5,-308"/>
<text text-anchor="start" x="1644" y="-314.8" font-family="Times,serif" font-size="14.00">reserved</text>
<polygon fill="none" stroke="black" points="1533.5,-287 1533.5,-308 1564.5,-308 1564.5,-287 1533.5,-287"/>
<text text-anchor="start" x="1544" y="-293.8" font-family="Times,serif" font-size="14.00">1</text>
<polygon fill="none" stroke="black" points="1564.5,-287 1564.5,-308 1598.5,-308 1598.5,-287 1564.5,-287"/>
<text text-anchor="start" x="1576.5" y="-293.8" font-family="Times,serif" font-size="14.00">1</text>
<polygon fill="none" stroke="black" points="1598.5,-287 1598.5,-308 1636.5,-308 1636.5,-287 1598.5,-287"/>
<text text-anchor="start" x="1608" y="-293.8" font-family="Times,serif" font-size="14.00">u1</text>
<polygon fill="none" stroke="black" points="1636.5,-287 1636.5,-308 1715.5,-308 1715.5,-287 1636.5,-287"/>
<text text-anchor="start" x="1641" y="-293.8" font-family="Times,serif" font-size="14.00">var_name</text>
<polygon fill="none" stroke="black" points="1533.5,-266 1533.5,-287 1564.5,-287 1564.5,-266 1533.5,-266"/>
<text text-anchor="start" x="1544" y="-272.8" font-family="Times,serif" font-size="14.00">2</text>
<polygon fill="none" stroke="black" points="1564.5,-266 1564.5,-287 1598.5,-287 1598.5,-266 1564.5,-266"/>
<text text-anchor="start" x="1576.5" y="-272.8" font-family="Times,serif" font-size="14.00">2</text>
<polygon fill="none" stroke="black" points="1598.5,-266 1598.5,-287 1636.5,-287 1636.5,-266 1598.5,-266"/>
<polygon fill="none" stroke="black" points="1636.5,-266 1636.5,-287 1715.5,-287 1715.5,-266 1636.5,-266"/>
<text text-anchor="start" x="1639.5" y="-272.8" font-family="Times,serif" font-size="14.00">reserved1</text>
</g>
<!-- header__seq_params_switch&#45;&gt;array_params__seq -->
<g id="edge7" class="edge">
<title>header__seq_params_switch:case1&#45;&gt;array_params__seq</title>
<path fill="none" stroke="black" stroke-width="2" d="M1455.5,-234C1459.45,-234 1485.57,-245.11 1516.08,-258.73"/>
<polygon fill="black" stroke="black" stroke-width="2" points="1514.67,-261.93 1525.23,-262.82 1517.53,-255.54 1514.67,-261.93"/>
</g>
<!-- header__seq_params_switch&#45;&gt;array_params__seq -->
<g id="edge8" class="edge">
<title>header__seq_params_switch:case2&#45;&gt;array_params__seq</title>
<path fill="none" stroke="black" stroke-width="2" d="M1455.5,-213C1480.54,-213 1476.98,-236.39 1498,-250 1503.96,-253.86 1510.21,-257.6 1516.61,-261.19"/>
<polygon fill="black" stroke="black" stroke-width="2" points="1514.97,-264.28 1525.43,-266.01 1518.33,-258.14 1514.97,-264.28"/>
</g>
</g>
</svg>
