<?xml version="1.0" encoding="UTF-8" standalone="no"?>
<!DOCTYPE svg PUBLIC "-//W3C//DTD SVG 1.1//EN"
 "http://www.w3.org/Graphics/SVG/1.1/DTD/svg11.dtd">
<!-- Generated by graphviz version 2.38.0 (20140413.2041)
 -->
<!-- Title: %3 Pages: 1 -->
<svg width="966pt" height="474pt"
 viewBox="0.00 0.00 966.00 474.00" xmlns="http://www.w3.org/2000/svg" xmlns:xlink="http://www.w3.org/1999/xlink">
<g id="graph0" class="graph" transform="scale(1 1) rotate(0) translate(4 470)">
<title>%3</title>
<polygon fill="white" stroke="none" points="-4,4 -4,-470 962,-470 962,4 -4,4"/>
<g id="clust1" class="cluster"><title>cluster__icmp_packet</title>
<polygon fill="none" stroke="black" stroke-dasharray="1,5" points="8,-8 8,-458 950,-458 950,-8 8,-8"/>
<text text-anchor="middle" x="479" y="-442.8" font-family="Times,serif" font-size="14.00">IcmpPacket</text>
</g>
<g id="clust2" class="cluster"><title>cluster__destination_unreachable_msg</title>
<polygon fill="none" stroke="black" stroke-dasharray="1,5" points="519,-316 519,-427 942,-427 942,-316 519,-316"/>
<text text-anchor="middle" x="730.5" y="-411.8" font-family="Times,serif" font-size="14.00">IcmpPacket::DestinationUnreachableMsg</text>
</g>
<g id="clust3" class="cluster"><title>cluster__time_exceeded_msg</title>
<polygon fill="none" stroke="black" stroke-dasharray="1,5" points="553.5,-197 553.5,-308 907.5,-308 907.5,-197 553.5,-197"/>
<text text-anchor="middle" x="730.5" y="-292.8" font-family="Times,serif" font-size="14.00">IcmpPacket::TimeExceededMsg</text>
</g>
<g id="clust4" class="cluster"><title>cluster__echo_msg</title>
<polygon fill="none" stroke="black" stroke-dasharray="1,5" points="621.5,-16 621.5,-189 839.5,-189 839.5,-16 621.5,-16"/>
<text text-anchor="middle" x="730.5" y="-173.8" font-family="Times,serif" font-size="14.00">IcmpPacket::EchoMsg</text>
</g>
<!-- icmp_packet__seq -->
<g id="node1" class="node"><title>icmp_packet__seq</title>
<polygon fill="#e0ffe0" stroke="none" points="24.5,-294 24.5,-315 55.5,-315 55.5,-294 24.5,-294"/>
<polygon fill="none" stroke="black" points="24.5,-294 24.5,-315 55.5,-315 55.5,-294 24.5,-294"/>
<text text-anchor="start" x="27.5" y="-300.8" font-family="Times,serif" font-size="14.00">pos</text>
<polygon fill="#e0ffe0" stroke="none" points="55.5,-294 55.5,-315 89.5,-315 89.5,-294 55.5,-294"/>
<polygon fill="none" stroke="black" points="55.5,-294 55.5,-315 89.5,-315 89.5,-294 55.5,-294"/>
<text text-anchor="start" x="58.5" y="-300.8" font-family="Times,serif" font-size="14.00">size</text>
<polygon fill="#e0ffe0" stroke="none" points="89.5,-294 89.5,-315 300.5,-315 300.5,-294 89.5,-294"/>
<polygon fill="none" stroke="black" points="89.5,-294 89.5,-315 300.5,-315 300.5,-294 89.5,-294"/>
<text text-anchor="start" x="179" y="-300.8" font-family="Times,serif" font-size="14.00">type</text>
<polygon fill="#e0ffe0" stroke="none" points="300.5,-294 300.5,-315 483.5,-315 483.5,-294 300.5,-294"/>
<polygon fill="none" stroke="black" points="300.5,-294 300.5,-315 483.5,-315 483.5,-294 300.5,-294"/>
<text text-anchor="start" x="385" y="-300.8" font-family="Times,serif" font-size="14.00">id</text>
<polygon fill="none" stroke="black" points="24.5,-273 24.5,-294 55.5,-294 55.5,-273 24.5,-273"/>
<text text-anchor="start" x="35" y="-279.8" font-family="Times,serif" font-size="14.00">0</text>
<polygon fill="none" stroke="black" points="55.5,-273 55.5,-294 89.5,-294 89.5,-273 55.5,-273"/>
<text text-anchor="start" x="67.5" y="-279.8" font-family="Times,serif" font-size="14.00">1</text>
<polygon fill="none" stroke="black" points="89.5,-273 89.5,-294 300.5,-294 300.5,-273 89.5,-273"/>
<text text-anchor="start" x="123" y="-279.8" font-family="Times,serif" font-size="14.00">u1→IcmpTypeEnum</text>
<polygon fill="none" stroke="black" points="300.5,-273 300.5,-294 483.5,-294 483.5,-273 300.5,-273"/>
<text text-anchor="start" x="354.5" y="-279.8" font-family="Times,serif" font-size="14.00">icmp_type</text>
<polygon fill="none" stroke="black" points="24.5,-252 24.5,-273 55.5,-273 55.5,-252 24.5,-252"/>
<text text-anchor="start" x="35" y="-258.8" font-family="Times,serif" font-size="14.00">1</text>
<polygon fill="none" stroke="black" points="55.5,-252 55.5,-273 89.5,-273 89.5,-252 55.5,-252"/>
<text text-anchor="start" x="67.5" y="-258.8" font-family="Times,serif" font-size="14.00">3</text>
<polygon fill="none" stroke="black" points="89.5,-252 89.5,-273 300.5,-273 300.5,-252 89.5,-252"/>
<text text-anchor="start" x="92.5" y="-258.8" font-family="Times,serif" font-size="14.00">DestinationUnreachableMsg</text>
<polygon fill="none" stroke="black" points="300.5,-252 300.5,-273 483.5,-273 483.5,-252 300.5,-252"/>
<text text-anchor="start" x="303.5" y="-258.8" font-family="Times,serif" font-size="14.00">destination_unreachable</text>
<polygon fill="none" stroke="black" points="24.5,-231 24.5,-252 55.5,-252 55.5,-231 24.5,-231"/>
<text text-anchor="start" x="35" y="-237.8" font-family="Times,serif" font-size="14.00">4</text>
<polygon fill="none" stroke="black" points="55.5,-231 55.5,-252 89.5,-252 89.5,-231 55.5,-231"/>
<text text-anchor="start" x="67.5" y="-237.8" font-family="Times,serif" font-size="14.00">3</text>
<polygon fill="none" stroke="black" points="89.5,-231 89.5,-252 300.5,-252 300.5,-231 89.5,-231"/>
<text text-anchor="start" x="126.5" y="-237.8" font-family="Times,serif" font-size="14.00">TimeExceededMsg</text>
<polygon fill="none" stroke="black" points="300.5,-231 300.5,-252 483.5,-252 483.5,-231 300.5,-231"/>
<text text-anchor="start" x="338" y="-237.8" font-family="Times,serif" font-size="14.00">time_exceeded</text>
<polygon fill="none" stroke="black" points="24.5,-210 24.5,-231 55.5,-231 55.5,-210 24.5,-210"/>
<text text-anchor="start" x="35" y="-216.8" font-family="Times,serif" font-size="14.00">7</text>
<polygon fill="none" stroke="black" points="55.5,-210 55.5,-231 89.5,-231 89.5,-210 55.5,-210"/>
<text text-anchor="start" x="65.5" y="-216.8" font-family="Times,serif" font-size="14.00">...</text>
<polygon fill="none" stroke="black" points="89.5,-210 89.5,-231 300.5,-231 300.5,-210 89.5,-210"/>
<text text-anchor="start" x="161" y="-216.8" font-family="Times,serif" font-size="14.00">EchoMsg</text>
<polygon fill="none" stroke="black" points="300.5,-210 300.5,-231 483.5,-231 483.5,-210 300.5,-210"/>
<text text-anchor="start" x="375" y="-216.8" font-family="Times,serif" font-size="14.00">echo</text>
</g>
<!-- destination_unreachable_msg__seq -->
<g id="node2" class="node"><title>destination_unreachable_msg__seq</title>
<polygon fill="#e0ffe0" stroke="none" points="535.5,-370 535.5,-391 566.5,-391 566.5,-370 535.5,-370"/>
<polygon fill="none" stroke="black" points="535.5,-370 535.5,-391 566.5,-391 566.5,-370 535.5,-370"/>
<text text-anchor="start" x="538.5" y="-376.8" font-family="Times,serif" font-size="14.00">pos</text>
<polygon fill="#e0ffe0" stroke="none" points="566.5,-370 566.5,-391 600.5,-391 600.5,-370 566.5,-370"/>
<polygon fill="none" stroke="black" points="566.5,-370 566.5,-391 600.5,-391 600.5,-370 566.5,-370"/>
<text text-anchor="start" x="569.5" y="-376.8" font-family="Times,serif" font-size="14.00">size</text>
<polygon fill="#e0ffe0" stroke="none" points="600.5,-370 600.5,-391 847.5,-391 847.5,-370 600.5,-370"/>
<polygon fill="none" stroke="black" points="600.5,-370 600.5,-391 847.5,-391 847.5,-370 600.5,-370"/>
<text text-anchor="start" x="708" y="-376.8" font-family="Times,serif" font-size="14.00">type</text>
<polygon fill="#e0ffe0" stroke="none" points="847.5,-370 847.5,-391 926.5,-391 926.5,-370 847.5,-370"/>
<polygon fill="none" stroke="black" points="847.5,-370 847.5,-391 926.5,-391 926.5,-370 847.5,-370"/>
<text text-anchor="start" x="880" y="-376.8" font-family="Times,serif" font-size="14.00">id</text>
<polygon fill="none" stroke="black" points="535.5,-349 535.5,-370 566.5,-370 566.5,-349 535.5,-349"/>
<text text-anchor="start" x="546" y="-355.8" font-family="Times,serif" font-size="14.00">0</text>
<polygon fill="none" stroke="black" points="566.5,-349 566.5,-370 600.5,-370 600.5,-349 566.5,-349"/>
<text text-anchor="start" x="578.5" y="-355.8" font-family="Times,serif" font-size="14.00">1</text>
<polygon fill="none" stroke="black" points="600.5,-349 600.5,-370 847.5,-370 847.5,-349 600.5,-349"/>
<text text-anchor="start" x="603.5" y="-355.8" font-family="Times,serif" font-size="14.00">u1→DestinationUnreachableCode</text>
<polygon fill="none" stroke="black" points="847.5,-349 847.5,-370 926.5,-370 926.5,-349 847.5,-349"/>
<text text-anchor="start" x="870" y="-355.8" font-family="Times,serif" font-size="14.00">code</text>
<polygon fill="none" stroke="black" points="535.5,-328 535.5,-349 566.5,-349 566.5,-328 535.5,-328"/>
<text text-anchor="start" x="546" y="-334.8" font-family="Times,serif" font-size="14.00">1</text>
<polygon fill="none" stroke="black" points="566.5,-328 566.5,-349 600.5,-349 600.5,-328 566.5,-328"/>
<text text-anchor="start" x="578.5" y="-334.8" font-family="Times,serif" font-size="14.00">2</text>
<polygon fill="none" stroke="black" points="600.5,-328 600.5,-349 847.5,-349 847.5,-328 600.5,-328"/>
<text text-anchor="start" x="706" y="-334.8" font-family="Times,serif" font-size="14.00">u2be</text>
<polygon fill="none" stroke="black" points="847.5,-328 847.5,-349 926.5,-349 926.5,-328 847.5,-328"/>
<text text-anchor="start" x="850.5" y="-334.8" font-family="Times,serif" font-size="14.00">checksum</text>
</g>
<!-- icmp_packet__seq&#45;&gt;destination_unreachable_msg__seq -->
<g id="edge1" class="edge"><title>icmp_packet__seq:destination_unreachable_type&#45;&gt;destination_unreachable_msg__seq</title>
<path fill="none" stroke="black" stroke-width="2" d="M484.5,-262C511.499,-262 496.649,-296.856 519,-312 523.007,-314.715 527.146,-317.279 531.393,-319.699"/>
<polygon fill="black" stroke="black" stroke-width="2" points="529.789,-322.81 540.254,-324.467 533.107,-316.646 529.789,-322.81"/>
</g>
<!-- time_exceeded_msg__seq -->
<g id="node3" class="node"><title>time_exceeded_msg__seq</title>
<polygon fill="#e0ffe0" stroke="none" points="569.5,-251 569.5,-272 600.5,-272 600.5,-251 569.5,-251"/>
<polygon fill="none" stroke="black" points="569.5,-251 569.5,-272 600.5,-272 600.5,-251 569.5,-251"/>
<text text-anchor="start" x="572.5" y="-257.8" font-family="Times,serif" font-size="14.00">pos</text>
<polygon fill="#e0ffe0" stroke="none" points="600.5,-251 600.5,-272 634.5,-272 634.5,-251 600.5,-251"/>
<polygon fill="none" stroke="black" points="600.5,-251 600.5,-272 634.5,-272 634.5,-251 600.5,-251"/>
<text text-anchor="start" x="603.5" y="-257.8" font-family="Times,serif" font-size="14.00">size</text>
<polygon fill="#e0ffe0" stroke="none" points="634.5,-251 634.5,-272 812.5,-272 812.5,-251 634.5,-251"/>
<polygon fill="none" stroke="black" points="634.5,-251 634.5,-272 812.5,-272 812.5,-251 634.5,-251"/>
<text text-anchor="start" x="707.5" y="-257.8" font-family="Times,serif" font-size="14.00">type</text>
<polygon fill="#e0ffe0" stroke="none" points="812.5,-251 812.5,-272 891.5,-272 891.5,-251 812.5,-251"/>
<polygon fill="none" stroke="black" points="812.5,-251 812.5,-272 891.5,-272 891.5,-251 812.5,-251"/>
<text text-anchor="start" x="845" y="-257.8" font-family="Times,serif" font-size="14.00">id</text>
<polygon fill="none" stroke="black" points="569.5,-230 569.5,-251 600.5,-251 600.5,-230 569.5,-230"/>
<text text-anchor="start" x="580" y="-236.8" font-family="Times,serif" font-size="14.00">0</text>
<polygon fill="none" stroke="black" points="600.5,-230 600.5,-251 634.5,-251 634.5,-230 600.5,-230"/>
<text text-anchor="start" x="612.5" y="-236.8" font-family="Times,serif" font-size="14.00">1</text>
<polygon fill="none" stroke="black" points="634.5,-230 634.5,-251 812.5,-251 812.5,-230 634.5,-230"/>
<text text-anchor="start" x="637.5" y="-236.8" font-family="Times,serif" font-size="14.00">u1→TimeExceededCode</text>
<polygon fill="none" stroke="black" points="812.5,-230 812.5,-251 891.5,-251 891.5,-230 812.5,-230"/>
<text text-anchor="start" x="835" y="-236.8" font-family="Times,serif" font-size="14.00">code</text>
<polygon fill="none" stroke="black" points="569.5,-209 569.5,-230 600.5,-230 600.5,-209 569.5,-209"/>
<text text-anchor="start" x="580" y="-215.8" font-family="Times,serif" font-size="14.00">1</text>
<polygon fill="none" stroke="black" points="600.5,-209 600.5,-230 634.5,-230 634.5,-209 600.5,-209"/>
<text text-anchor="start" x="612.5" y="-215.8" font-family="Times,serif" font-size="14.00">2</text>
<polygon fill="none" stroke="black" points="634.5,-209 634.5,-230 812.5,-230 812.5,-209 634.5,-209"/>
<text text-anchor="start" x="705.5" y="-215.8" font-family="Times,serif" font-size="14.00">u2be</text>
<polygon fill="none" stroke="black" points="812.5,-209 812.5,-230 891.5,-230 891.5,-209 812.5,-209"/>
<text text-anchor="start" x="815.5" y="-215.8" font-family="Times,serif" font-size="14.00">checksum</text>
</g>
<!-- icmp_packet__seq&#45;&gt;time_exceeded_msg__seq -->
<g id="edge2" class="edge"><title>icmp_packet__seq:time_exceeded_type&#45;&gt;time_exceeded_msg__seq</title>
<path fill="none" stroke="black" stroke-width="2" d="M484.5,-241C506.078,-241 528.725,-241 551.17,-241"/>
<polygon fill="black" stroke="black" stroke-width="2" points="551.464,-244.5 561.464,-241 551.464,-237.5 551.464,-244.5"/>
</g>
<!-- echo_msg__seq -->
<g id="node4" class="node"><title>echo_msg__seq</title>
<polygon fill="#e0ffe0" stroke="none" points="637.5,-133 637.5,-154 668.5,-154 668.5,-133 637.5,-133"/>
<polygon fill="none" stroke="black" points="637.5,-133 637.5,-154 668.5,-154 668.5,-133 637.5,-133"/>
<text text-anchor="start" x="640.5" y="-139.8" font-family="Times,serif" font-size="14.00">pos</text>
<polygon fill="#e0ffe0" stroke="none" points="668.5,-133 668.5,-154 702.5,-154 702.5,-133 668.5,-133"/>
<polygon fill="none" stroke="black" points="668.5,-133 668.5,-154 702.5,-154 702.5,-133 668.5,-133"/>
<text text-anchor="start" x="671.5" y="-139.8" font-family="Times,serif" font-size="14.00">size</text>
<polygon fill="#e0ffe0" stroke="none" points="702.5,-133 702.5,-154 744.5,-154 744.5,-133 702.5,-133"/>
<polygon fill="none" stroke="black" points="702.5,-133 702.5,-154 744.5,-154 744.5,-133 702.5,-133"/>
<text text-anchor="start" x="707.5" y="-139.8" font-family="Times,serif" font-size="14.00">type</text>
<polygon fill="#e0ffe0" stroke="none" points="744.5,-133 744.5,-154 823.5,-154 823.5,-133 744.5,-133"/>
<polygon fill="none" stroke="black" points="744.5,-133 744.5,-154 823.5,-154 823.5,-133 744.5,-133"/>
<text text-anchor="start" x="777" y="-139.8" font-family="Times,serif" font-size="14.00">id</text>
<polygon fill="none" stroke="black" points="637.5,-112 637.5,-133 668.5,-133 668.5,-112 637.5,-112"/>
<text text-anchor="start" x="648" y="-118.8" font-family="Times,serif" font-size="14.00">0</text>
<polygon fill="none" stroke="black" points="668.5,-112 668.5,-133 702.5,-133 702.5,-112 668.5,-112"/>
<text text-anchor="start" x="680.5" y="-118.8" font-family="Times,serif" font-size="14.00">1</text>
<polygon fill="none" stroke="black" points="702.5,-112 702.5,-133 744.5,-133 744.5,-112 702.5,-112"/>
<text text-anchor="start" x="714" y="-118.8" font-family="Times,serif" font-size="14.00">00</text>
<polygon fill="none" stroke="black" points="744.5,-112 744.5,-133 823.5,-133 823.5,-112 744.5,-112"/>
<text text-anchor="start" x="767" y="-118.8" font-family="Times,serif" font-size="14.00">code</text>
<polygon fill="none" stroke="black" points="637.5,-91 637.5,-112 668.5,-112 668.5,-91 637.5,-91"/>
<text text-anchor="start" x="648" y="-97.8" font-family="Times,serif" font-size="14.00">1</text>
<polygon fill="none" stroke="black" points="668.5,-91 668.5,-112 702.5,-112 702.5,-91 668.5,-91"/>
<text text-anchor="start" x="680.5" y="-97.8" font-family="Times,serif" font-size="14.00">2</text>
<polygon fill="none" stroke="black" points="702.5,-91 702.5,-112 744.5,-112 744.5,-91 702.5,-91"/>
<text text-anchor="start" x="705.5" y="-97.8" font-family="Times,serif" font-size="14.00">u2be</text>
<polygon fill="none" stroke="black" points="744.5,-91 744.5,-112 823.5,-112 823.5,-91 744.5,-91"/>
<text text-anchor="start" x="747.5" y="-97.8" font-family="Times,serif" font-size="14.00">checksum</text>
<polygon fill="none" stroke="black" points="637.5,-70 637.5,-91 668.5,-91 668.5,-70 637.5,-70"/>
<text text-anchor="start" x="648" y="-76.8" font-family="Times,serif" font-size="14.00">3</text>
<polygon fill="none" stroke="black" points="668.5,-70 668.5,-91 702.5,-91 702.5,-70 668.5,-70"/>
<text text-anchor="start" x="680.5" y="-76.8" font-family="Times,serif" font-size="14.00">2</text>
<polygon fill="none" stroke="black" points="702.5,-70 702.5,-91 744.5,-91 744.5,-70 702.5,-70"/>
<text text-anchor="start" x="705.5" y="-76.8" font-family="Times,serif" font-size="14.00">u2be</text>
<polygon fill="none" stroke="black" points="744.5,-70 744.5,-91 823.5,-91 823.5,-70 744.5,-70"/>
<text text-anchor="start" x="751" y="-76.8" font-family="Times,serif" font-size="14.00">identifier</text>
<polygon fill="none" stroke="black" points="637.5,-49 637.5,-70 668.5,-70 668.5,-49 637.5,-49"/>
<text text-anchor="start" x="648" y="-55.8" font-family="Times,serif" font-size="14.00">5</text>
<polygon fill="none" stroke="black" points="668.5,-49 668.5,-70 702.5,-70 702.5,-49 668.5,-49"/>
<text text-anchor="start" x="680.5" y="-55.8" font-family="Times,serif" font-size="14.00">2</text>
<polygon fill="none" stroke="black" points="702.5,-49 702.5,-70 744.5,-70 744.5,-49 702.5,-49"/>
<text text-anchor="start" x="705.5" y="-55.8" font-family="Times,serif" font-size="14.00">u2be</text>
<polygon fill="none" stroke="black" points="744.5,-49 744.5,-70 823.5,-70 823.5,-49 744.5,-49"/>
<text text-anchor="start" x="752" y="-55.8" font-family="Times,serif" font-size="14.00">seq_num</text>
<polygon fill="none" stroke="black" points="637.5,-28 637.5,-49 668.5,-49 668.5,-28 637.5,-28"/>
<text text-anchor="start" x="648" y="-34.8" font-family="Times,serif" font-size="14.00">7</text>
<polygon fill="none" stroke="black" points="668.5,-28 668.5,-49 702.5,-49 702.5,-28 668.5,-28"/>
<text text-anchor="start" x="679" y="-34.8" font-family="Times,serif" font-size="14.00">⇲</text>
<polygon fill="none" stroke="black" points="702.5,-28 702.5,-49 744.5,-49 744.5,-28 702.5,-28"/>
<polygon fill="none" stroke="black" points="744.5,-28 744.5,-49 823.5,-49 823.5,-28 744.5,-28"/>
<text text-anchor="start" x="768" y="-34.8" font-family="Times,serif" font-size="14.00">data</text>
</g>
<!-- icmp_packet__seq&#45;&gt;echo_msg__seq -->
<g id="edge3" class="edge"><title>icmp_packet__seq:echo_type&#45;&gt;echo_msg__seq</title>
<path fill="none" stroke="black" stroke-width="2" d="M484.5,-220C503.971,-220 502.479,-203.304 519,-193 550.733,-173.21 586.875,-154.458 620.148,-138.559"/>
<polygon fill="black" stroke="black" stroke-width="2" points="621.912,-141.597 629.451,-134.152 618.915,-135.271 621.912,-141.597"/>
</g>
</g>
</svg>
