<?xml version="1.0" encoding="UTF-8" standalone="no"?>
<!DOCTYPE svg PUBLIC "-//W3C//DTD SVG 1.1//EN"
 "http://www.w3.org/Graphics/SVG/1.1/DTD/svg11.dtd">
<!-- Generated by graphviz version 2.38.0 (20140413.2041)
 -->
<!-- Title: %3 Pages: 1 -->
<svg width="962pt" height="474pt"
 viewBox="0.00 0.00 962.00 474.00" xmlns="http://www.w3.org/2000/svg" xmlns:xlink="http://www.w3.org/1999/xlink">
<g id="graph0" class="graph" transform="scale(1 1) rotate(0) translate(4 470)">
<title>%3</title>
<polygon fill="white" stroke="none" points="-4,4 -4,-470 958,-470 958,4 -4,4"/>
<g id="clust1" class="cluster"><title>cluster__icmp_packet</title>
<polygon fill="none" stroke="black" stroke-dasharray="1,5" points="8,-8 8,-458 946,-458 946,-8 8,-8"/>
<text text-anchor="middle" x="477" y="-442.8" font-family="Times,serif" font-size="14.00">IcmpPacket</text>
</g>
<g id="clust2" class="cluster"><title>cluster__destination_unreachable_msg</title>
<polygon fill="none" stroke="black" stroke-dasharray="1,5" points="519,-316 519,-427 938,-427 938,-316 519,-316"/>
<text text-anchor="middle" x="728.5" y="-411.8" font-family="Times,serif" font-size="14.00">IcmpPacket::DestinationUnreachableMsg</text>
</g>
<g id="clust3" class="cluster"><title>cluster__time_exceeded_msg</title>
<polygon fill="none" stroke="black" stroke-dasharray="1,5" points="553,-197 553,-308 904,-308 904,-197 553,-197"/>
<text text-anchor="middle" x="728.5" y="-292.8" font-family="Times,serif" font-size="14.00">IcmpPacket::TimeExceededMsg</text>
</g>
<g id="clust4" class="cluster"><title>cluster__echo_msg</title>
<polygon fill="none" stroke="black" stroke-dasharray="1,5" points="619.5,-16 619.5,-189 837.5,-189 837.5,-16 619.5,-16"/>
<text text-anchor="middle" x="728.5" y="-173.8" font-family="Times,serif" font-size="14.00">IcmpPacket::EchoMsg</text>
</g>
<!-- icmp_packet__seq -->
<g id="node1" class="node"><title>icmp_packet__seq</title>
<polygon fill="#e0ffe0" stroke="none" points="24.5,-294 24.5,-315 55.5,-315 55.5,-294 24.5,-294"/>
<polygon fill="none" stroke="black" points="24.5,-294 24.5,-315 55.5,-315 55.5,-294 24.5,-294"/>
<text text-anchor="start" x="27.5" y="-300.8" font-family="Times,serif" font-size="14.00">pos</text>
<polygon fill="#e0ffe0" stroke="none" points="55.5,-294 55.5,-315 89.5,-315 89.5,-294 55.5,-294"/>
<polygon fill="none" stroke="black" points="55.5,-294 55.5,-315 89.5,-315 89.5,-294 55.5,-294"/>
<text text-anchor="start" x="58.5" y="-300.8" font-family="Times,serif" font-size="14.00">size</text>
<polygon fill="#e0ffe0" stroke="none" points="89.5,-294 89.5,-315 300.5,-315 300.5,-294 89.5,-294"/>
<polygon fill="none" stroke="black" points="89.5,-294 89.5,-315 300.5,-315 300.5,-294 89.5,-294"/>
<text text-anchor="start" x="179" y="-300.8" font-family="Times,serif" font-size="14.00">type</text>
<polygon fill="#e0ffe0" stroke="none" points="300.5,-294 300.5,-315 483.5,-315 483.5,-294 300.5,-294"/>
<polygon fill="none" stroke="black" points="300.5,-294 300.5,-315 483.5,-315 483.5,-294 300.5,-294"/>
<text text-anchor="start" x="385" y="-300.8" font-family="Times,serif" font-size="14.00">id</text>
<polygon fill="none" stroke="black" points="24.5,-273 24.5,-294 55.5,-294 55.5,-273 24.5,-273"/>
<text text-anchor="start" x="35" y="-279.8" font-family="Times,serif" font-size="14.00">0</text>
<polygon fill="none" stroke="black" points="55.5,-273 55.5,-294 89.5,-294 89.5,-273 55.5,-273"/>
<text text-anchor="start" x="67.5" y="-279.8" font-family="Times,serif" font-size="14.00">1</text>
<polygon fill="none" stroke="black" points="89.5,-273 89.5,-294 300.5,-294 300.5,-273 89.5,-273"/>
<text text-anchor="start" x="125" y="-279.8" font-family="Times,serif" font-size="14.00">u1?IcmpTypeEnum</text>
<polygon fill="none" stroke="black" points="300.5,-273 300.5,-294 483.5,-294 483.5,-273 300.5,-273"/>
<text text-anchor="start" x="354.5" y="-279.8" font-family="Times,serif" font-size="14.00">icmp_type</text>
<polygon fill="none" stroke="black" points="24.5,-252 24.5,-273 55.5,-273 55.5,-252 24.5,-252"/>
<text text-anchor="start" x="35" y="-258.8" font-family="Times,serif" font-size="14.00">1</text>
<polygon fill="none" stroke="black" points="55.5,-252 55.5,-273 89.5,-273 89.5,-252 55.5,-252"/>
<text text-anchor="start" x="67.5" y="-258.8" font-family="Times,serif" font-size="14.00">3</text>
<polygon fill="none" stroke="black" points="89.5,-252 89.5,-273 300.5,-273 300.5,-252 89.5,-252"/>
<text text-anchor="start" x="92.5" y="-258.8" font-family="Times,serif" font-size="14.00">DestinationUnreachableMsg</text>
<polygon fill="none" stroke="black" points="300.5,-252 300.5,-273 483.5,-273 483.5,-252 300.5,-252"/>
<text text-anchor="start" x="303.5" y="-258.8" font-family="Times,serif" font-size="14.00">destination_unreachable</text>
<polygon fill="none" stroke="black" points="24.5,-231 24.5,-252 55.5,-252 55.5,-231 24.5,-231"/>
<text text-anchor="start" x="35" y="-237.8" font-family="Times,serif" font-size="14.00">4</text>
<polygon fill="none" stroke="black" points="55.5,-231 55.5,-252 89.5,-252 89.5,-231 55.5,-231"/>
<text text-anchor="start" x="67.5" y="-237.8" font-family="Times,serif" font-size="14.00">3</text>
<polygon fill="none" stroke="black" points="89.5,-231 89.5,-252 300.5,-252 300.5,-231 89.5,-231"/>
<text text-anchor="start" x="126.5" y="-237.8" font-family="Times,serif" font-size="14.00">TimeExceededMsg</text>
<polygon fill="none" stroke="black" points="300.5,-231 300.5,-252 483.5,-252 483.5,-231 300.5,-231"/>
<text text-anchor="start" x="338" y="-237.8" font-family="Times,serif" font-size="14.00">time_exceeded</text>
<polygon fill="none" stroke="black" points="24.5,-210 24.5,-231 55.5,-231 55.5,-210 24.5,-210"/>
<text text-anchor="start" x="35" y="-216.8" font-family="Times,serif" font-size="14.00">7</text>
<polygon fill="none" stroke="black" points="55.5,-210 55.5,-231 89.5,-231 89.5,-210 55.5,-210"/>
<text text-anchor="start" x="65.5" y="-216.8" font-family="Times,serif" font-size="14.00">...</text>
<polygon fill="none" stroke="black" points="89.5,-210 89.5,-231 300.5,-231 300.5,-210 89.5,-210"/>
<text text-anchor="start" x="161.5" y="-216.8" font-family="Times,serif" font-size="14.00">EchoMsg</text>
<polygon fill="none" stroke="black" points="300.5,-210 300.5,-231 483.5,-231 483.5,-210 300.5,-210"/>
<text text-anchor="start" x="375" y="-216.8" font-family="Times,serif" font-size="14.00">echo</text>
</g>
<!-- destination_unreachable_msg__seq -->
<g id="node2" class="node"><title>destination_unreachable_msg__seq</title>
<polygon fill="#e0ffe0" stroke="none" points="535.5,-370 535.5,-391 566.5,-391 566.5,-370 535.5,-370"/>
<polygon fill="none" stroke="black" points="535.5,-370 535.5,-391 566.5,-391 566.5,-370 535.5,-370"/>
<text text-anchor="start" x="538.5" y="-376.8" font-family="Times,serif" font-size="14.00">pos</text>
<polygon fill="#e0ffe0" stroke="none" points="566.5,-370 566.5,-391 600.5,-391 600.5,-370 566.5,-370"/>
<polygon fill="none" stroke="black" points="566.5,-370 566.5,-391 600.5,-391 600.5,-370 566.5,-370"/>
<text text-anchor="start" x="569.5" y="-376.8" font-family="Times,serif" font-size="14.00">size</text>
<polygon fill="#e0ffe0" stroke="none" points="600.5,-370 600.5,-391 843.5,-391 843.5,-370 600.5,-370"/>
<polygon fill="none" stroke="black" points="600.5,-370 600.5,-391 843.5,-391 843.5,-370 600.5,-370"/>
<text text-anchor="start" x="706" y="-376.8" font-family="Times,serif" font-size="14.00">type</text>
<polygon fill="#e0ffe0" stroke="none" points="843.5,-370 843.5,-391 922.5,-391 922.5,-370 843.5,-370"/>
<polygon fill="none" stroke="black" points="843.5,-370 843.5,-391 922.5,-391 922.5,-370 843.5,-370"/>
<text text-anchor="start" x="876" y="-376.8" font-family="Times,serif" font-size="14.00">id</text>
<polygon fill="none" stroke="black" points="535.5,-349 535.5,-370 566.5,-370 566.5,-349 535.5,-349"/>
<text text-anchor="start" x="546" y="-355.8" font-family="Times,serif" font-size="14.00">0</text>
<polygon fill="none" stroke="black" points="566.5,-349 566.5,-370 600.5,-370 600.5,-349 566.5,-349"/>
<text text-anchor="start" x="578.5" y="-355.8" font-family="Times,serif" font-size="14.00">1</text>
<polygon fill="none" stroke="black" points="600.5,-349 600.5,-370 843.5,-370 843.5,-349 600.5,-349"/>
<text text-anchor="start" x="603.5" y="-355.8" font-family="Times,serif" font-size="14.00">u1?DestinationUnreachableCode</text>
<polygon fill="none" stroke="black" points="843.5,-349 843.5,-370 922.5,-370 922.5,-349 843.5,-349"/>
<text text-anchor="start" x="866" y="-355.8" font-family="Times,serif" font-size="14.00">code</text>
<polygon fill="none" stroke="black" points="535.5,-328 535.5,-349 566.5,-349 566.5,-328 535.5,-328"/>
<text text-anchor="start" x="546" y="-334.8" font-family="Times,serif" font-size="14.00">1</text>
<polygon fill="none" stroke="black" points="566.5,-328 566.5,-349 600.5,-349 600.5,-328 566.5,-328"/>
<text text-anchor="start" x="578.5" y="-334.8" font-family="Times,serif" font-size="14.00">2</text>
<polygon fill="none" stroke="black" points="600.5,-328 600.5,-349 843.5,-349 843.5,-328 600.5,-328"/>
<text text-anchor="start" x="704" y="-334.8" font-family="Times,serif" font-size="14.00">u2be</text>
<polygon fill="none" stroke="black" points="843.5,-328 843.5,-349 922.5,-349 922.5,-328 843.5,-328"/>
<text text-anchor="start" x="846.5" y="-334.8" font-family="Times,serif" font-size="14.00">checksum</text>
</g>
<!-- icmp_packet__seq&#45;&gt;destination_unreachable_msg__seq -->
<g id="edge1" class="edge"><title>icmp_packet__seq:destination_unreachable_type&#45;&gt;destination_unreachable_msg__seq</title>
<path fill="none" stroke="black" stroke-width="2" d="M484.5,-262C511.499,-262 496.664,-296.832 519,-312 522.864,-314.624 526.851,-317.106 530.941,-319.453"/>
<polygon fill="black" stroke="black" stroke-width="2" points="529.587,-322.701 540.048,-324.381 532.918,-316.544 529.587,-322.701"/>
</g>
<!-- time_exceeded_msg__seq -->
<g id="node3" class="node"><title>time_exceeded_msg__seq</title>
<polygon fill="#e0ffe0" stroke="none" points="569.5,-251 569.5,-272 600.5,-272 600.5,-251 569.5,-251"/>
<polygon fill="none" stroke="black" points="569.5,-251 569.5,-272 600.5,-272 600.5,-251 569.5,-251"/>
<text text-anchor="start" x="572.5" y="-257.8" font-family="Times,serif" font-size="14.00">pos</text>
<polygon fill="#e0ffe0" stroke="none" points="600.5,-251 600.5,-272 634.5,-272 634.5,-251 600.5,-251"/>
<polygon fill="none" stroke="black" points="600.5,-251 600.5,-272 634.5,-272 634.5,-251 600.5,-251"/>
<text text-anchor="start" x="603.5" y="-257.8" font-family="Times,serif" font-size="14.00">size</text>
<polygon fill="#e0ffe0" stroke="none" points="634.5,-251 634.5,-272 809.5,-272 809.5,-251 634.5,-251"/>
<polygon fill="none" stroke="black" points="634.5,-251 634.5,-272 809.5,-272 809.5,-251 634.5,-251"/>
<text text-anchor="start" x="706" y="-257.8" font-family="Times,serif" font-size="14.00">type</text>
<polygon fill="#e0ffe0" stroke="none" points="809.5,-251 809.5,-272 888.5,-272 888.5,-251 809.5,-251"/>
<polygon fill="none" stroke="black" points="809.5,-251 809.5,-272 888.5,-272 888.5,-251 809.5,-251"/>
<text text-anchor="start" x="842" y="-257.8" font-family="Times,serif" font-size="14.00">id</text>
<polygon fill="none" stroke="black" points="569.5,-230 569.5,-251 600.5,-251 600.5,-230 569.5,-230"/>
<text text-anchor="start" x="580" y="-236.8" font-family="Times,serif" font-size="14.00">0</text>
<polygon fill="none" stroke="black" points="600.5,-230 600.5,-251 634.5,-251 634.5,-230 600.5,-230"/>
<text text-anchor="start" x="612.5" y="-236.8" font-family="Times,serif" font-size="14.00">1</text>
<polygon fill="none" stroke="black" points="634.5,-230 634.5,-251 809.5,-251 809.5,-230 634.5,-230"/>
<text text-anchor="start" x="637.5" y="-236.8" font-family="Times,serif" font-size="14.00">u1?TimeExceededCode</text>
<polygon fill="none" stroke="black" points="809.5,-230 809.5,-251 888.5,-251 888.5,-230 809.5,-230"/>
<text text-anchor="start" x="832" y="-236.8" font-family="Times,serif" font-size="14.00">code</text>
<polygon fill="none" stroke="black" points="569.5,-209 569.5,-230 600.5,-230 600.5,-209 569.5,-209"/>
<text text-anchor="start" x="580" y="-215.8" font-family="Times,serif" font-size="14.00">1</text>
<polygon fill="none" stroke="black" points="600.5,-209 600.5,-230 634.5,-230 634.5,-209 600.5,-209"/>
<text text-anchor="start" x="612.5" y="-215.8" font-family="Times,serif" font-size="14.00">2</text>
<polygon fill="none" stroke="black" points="634.5,-209 634.5,-230 809.5,-230 809.5,-209 634.5,-209"/>
<text text-anchor="start" x="704" y="-215.8" font-family="Times,serif" font-size="14.00">u2be</text>
<polygon fill="none" stroke="black" points="809.5,-209 809.5,-230 888.5,-230 888.5,-209 809.5,-209"/>
<text text-anchor="start" x="812.5" y="-215.8" font-family="Times,serif" font-size="14.00">checksum</text>
</g>
<!-- icmp_packet__seq&#45;&gt;time_exceeded_msg__seq -->
<g id="edge2" class="edge"><title>icmp_packet__seq:time_exceeded_type&#45;&gt;time_exceeded_msg__seq</title>
<path fill="none" stroke="black" stroke-width="2" d="M484.5,-241C505.902,-241 528.364,-241 550.626,-241"/>
<polygon fill="black" stroke="black" stroke-width="2" points="550.836,-244.5 560.836,-241 550.836,-237.5 550.836,-244.5"/>
</g>
<!-- echo_msg__seq -->
<g id="node4" class="node"><title>echo_msg__seq</title>
<polygon fill="#e0ffe0" stroke="none" points="635.5,-133 635.5,-154 666.5,-154 666.5,-133 635.5,-133"/>
<polygon fill="none" stroke="black" points="635.5,-133 635.5,-154 666.5,-154 666.5,-133 635.5,-133"/>
<text text-anchor="start" x="638.5" y="-139.8" font-family="Times,serif" font-size="14.00">pos</text>
<polygon fill="#e0ffe0" stroke="none" points="666.5,-133 666.5,-154 700.5,-154 700.5,-133 666.5,-133"/>
<polygon fill="none" stroke="black" points="666.5,-133 666.5,-154 700.5,-154 700.5,-133 666.5,-133"/>
<text text-anchor="start" x="669.5" y="-139.8" font-family="Times,serif" font-size="14.00">size</text>
<polygon fill="#e0ffe0" stroke="none" points="700.5,-133 700.5,-154 742.5,-154 742.5,-133 700.5,-133"/>
<polygon fill="none" stroke="black" points="700.5,-133 700.5,-154 742.5,-154 742.5,-133 700.5,-133"/>
<text text-anchor="start" x="705.5" y="-139.8" font-family="Times,serif" font-size="14.00">type</text>
<polygon fill="#e0ffe0" stroke="none" points="742.5,-133 742.5,-154 821.5,-154 821.5,-133 742.5,-133"/>
<polygon fill="none" stroke="black" points="742.5,-133 742.5,-154 821.5,-154 821.5,-133 742.5,-133"/>
<text text-anchor="start" x="775" y="-139.8" font-family="Times,serif" font-size="14.00">id</text>
<polygon fill="none" stroke="black" points="635.5,-112 635.5,-133 666.5,-133 666.5,-112 635.5,-112"/>
<text text-anchor="start" x="646" y="-118.8" font-family="Times,serif" font-size="14.00">0</text>
<polygon fill="none" stroke="black" points="666.5,-112 666.5,-133 700.5,-133 700.5,-112 666.5,-112"/>
<text text-anchor="start" x="678.5" y="-118.8" font-family="Times,serif" font-size="14.00">1</text>
<polygon fill="none" stroke="black" points="700.5,-112 700.5,-133 742.5,-133 742.5,-112 700.5,-112"/>
<text text-anchor="start" x="712" y="-118.8" font-family="Times,serif" font-size="14.00">00</text>
<polygon fill="none" stroke="black" points="742.5,-112 742.5,-133 821.5,-133 821.5,-112 742.5,-112"/>
<text text-anchor="start" x="765" y="-118.8" font-family="Times,serif" font-size="14.00">code</text>
<polygon fill="none" stroke="black" points="635.5,-91 635.5,-112 666.5,-112 666.5,-91 635.5,-91"/>
<text text-anchor="start" x="646" y="-97.8" font-family="Times,serif" font-size="14.00">1</text>
<polygon fill="none" stroke="black" points="666.5,-91 666.5,-112 700.5,-112 700.5,-91 666.5,-91"/>
<text text-anchor="start" x="678.5" y="-97.8" font-family="Times,serif" font-size="14.00">2</text>
<polygon fill="none" stroke="black" points="700.5,-91 700.5,-112 742.5,-112 742.5,-91 700.5,-91"/>
<text text-anchor="start" x="703.5" y="-97.8" font-family="Times,serif" font-size="14.00">u2be</text>
<polygon fill="none" stroke="black" points="742.5,-91 742.5,-112 821.5,-112 821.5,-91 742.5,-91"/>
<text text-anchor="start" x="745.5" y="-97.8" font-family="Times,serif" font-size="14.00">checksum</text>
<polygon fill="none" stroke="black" points="635.5,-70 635.5,-91 666.5,-91 666.5,-70 635.5,-70"/>
<text text-anchor="start" x="646" y="-76.8" font-family="Times,serif" font-size="14.00">3</text>
<polygon fill="none" stroke="black" points="666.5,-70 666.5,-91 700.5,-91 700.5,-70 666.5,-70"/>
<text text-anchor="start" x="678.5" y="-76.8" font-family="Times,serif" font-size="14.00">2</text>
<polygon fill="none" stroke="black" points="700.5,-70 700.5,-91 742.5,-91 742.5,-70 700.5,-70"/>
<text text-anchor="start" x="703.5" y="-76.8" font-family="Times,serif" font-size="14.00">u2be</text>
<polygon fill="none" stroke="black" points="742.5,-70 742.5,-91 821.5,-91 821.5,-70 742.5,-70"/>
<text text-anchor="start" x="748.5" y="-76.8" font-family="Times,serif" font-size="14.00">identifier</text>
<polygon fill="none" stroke="black" points="635.5,-49 635.5,-70 666.5,-70 666.5,-49 635.5,-49"/>
<text text-anchor="start" x="646" y="-55.8" font-family="Times,serif" font-size="14.00">5</text>
<polygon fill="none" stroke="black" points="666.5,-49 666.5,-70 700.5,-70 700.5,-49 666.5,-49"/>
<text text-anchor="start" x="678.5" y="-55.8" font-family="Times,serif" font-size="14.00">2</text>
<polygon fill="none" stroke="black" points="700.5,-49 700.5,-70 742.5,-70 742.5,-49 700.5,-49"/>
<text text-anchor="start" x="703.5" y="-55.8" font-family="Times,serif" font-size="14.00">u2be</text>
<polygon fill="none" stroke="black" points="742.5,-49 742.5,-70 821.5,-70 821.5,-49 742.5,-49"/>
<text text-anchor="start" x="750" y="-55.8" font-family="Times,serif" font-size="14.00">seq_num</text>
<polygon fill="none" stroke="black" points="635.5,-28 635.5,-49 666.5,-49 666.5,-28 635.5,-28"/>
<text text-anchor="start" x="646" y="-34.8" font-family="Times,serif" font-size="14.00">7</text>
<polygon fill="none" stroke="black" points="666.5,-28 666.5,-49 700.5,-49 700.5,-28 666.5,-28"/>
<text text-anchor="start" x="679.5" y="-34.8" font-family="Times,serif" font-size="14.00">?</text>
<polygon fill="none" stroke="black" points="700.5,-28 700.5,-49 742.5,-49 742.5,-28 700.5,-28"/>
<polygon fill="none" stroke="black" points="742.5,-28 742.5,-49 821.5,-49 821.5,-28 742.5,-28"/>
<text text-anchor="start" x="766" y="-34.8" font-family="Times,serif" font-size="14.00">data</text>
</g>
<!-- icmp_packet__seq&#45;&gt;echo_msg__seq -->
<g id="edge3" class="edge"><title>icmp_packet__seq:echo_type&#45;&gt;echo_msg__seq</title>
<path fill="none" stroke="black" stroke-width="2" d="M484.5,-220C503.971,-220 502.498,-203.335 519,-193 550.14,-173.498 585.546,-154.949 618.23,-139.148"/>
<polygon fill="black" stroke="black" stroke-width="2" points="619.867,-142.245 627.371,-134.766 616.841,-135.933 619.867,-142.245"/>
</g>
</g>
</svg>
