<?xml version="1.0" encoding="UTF-8" standalone="no"?>
<!DOCTYPE svg PUBLIC "-//W3C//DTD SVG 1.1//EN"
 "http://www.w3.org/Graphics/SVG/1.1/DTD/svg11.dtd">
<!-- Generated by graphviz version 2.43.0 (0)
 -->
<!-- Title: %3 Pages: 1 -->
<svg width="961pt" height="474pt"
 viewBox="0.00 0.00 961.00 474.00" xmlns="http://www.w3.org/2000/svg" xmlns:xlink="http://www.w3.org/1999/xlink">
<g id="graph0" class="graph" transform="scale(1 1) rotate(0) translate(4 470)">
<title>%3</title>
<polygon fill="white" stroke="transparent" points="-4,4 -4,-470 957,-470 957,4 -4,4"/>
<g id="clust1" class="cluster">
<title>cluster__icmp_packet</title>
<polygon fill="none" stroke="black" stroke-dasharray="1,5" points="8,-8 8,-458 945,-458 945,-8 8,-8"/>
<text text-anchor="middle" x="476.5" y="-442.8" font-family="Times,serif" font-size="14.00">IcmpPacket</text>
</g>
<g id="clust2" class="cluster">
<title>cluster__destination_unreachable_msg</title>
<polygon fill="none" stroke="black" stroke-dasharray="1,5" points="517,-316 517,-427 937,-427 937,-316 517,-316"/>
<text text-anchor="middle" x="727" y="-411.8" font-family="Times,serif" font-size="14.00">IcmpPacket::DestinationUnreachableMsg</text>
</g>
<g id="clust3" class="cluster">
<title>cluster__time_exceeded_msg</title>
<polygon fill="none" stroke="black" stroke-dasharray="1,5" points="551.5,-197 551.5,-308 902.5,-308 902.5,-197 551.5,-197"/>
<text text-anchor="middle" x="727" y="-292.8" font-family="Times,serif" font-size="14.00">IcmpPacket::TimeExceededMsg</text>
</g>
<g id="clust4" class="cluster">
<title>cluster__echo_msg</title>
<polygon fill="none" stroke="black" stroke-dasharray="1,5" points="619,-16 619,-189 835,-189 835,-16 619,-16"/>
<text text-anchor="middle" x="727" y="-173.8" font-family="Times,serif" font-size="14.00">IcmpPacket::EchoMsg</text>
</g>
<!-- icmp_packet__seq -->
<g id="node1" class="node">
<title>icmp_packet__seq</title>
<polygon fill="#e0ffe0" stroke="transparent" points="24.5,-294 24.5,-315 55.5,-315 55.5,-294 24.5,-294"/>
<polygon fill="none" stroke="black" points="24.5,-294 24.5,-315 55.5,-315 55.5,-294 24.5,-294"/>
<text text-anchor="start" x="27.5" y="-300.8" font-family="Times,serif" font-size="14.00">pos</text>
<polygon fill="#e0ffe0" stroke="transparent" points="55.5,-294 55.5,-315 89.5,-315 89.5,-294 55.5,-294"/>
<polygon fill="none" stroke="black" points="55.5,-294 55.5,-315 89.5,-315 89.5,-294 55.5,-294"/>
<text text-anchor="start" x="58.5" y="-300.8" font-family="Times,serif" font-size="14.00">size</text>
<polygon fill="#e0ffe0" stroke="transparent" points="89.5,-294 89.5,-315 300.5,-315 300.5,-294 89.5,-294"/>
<polygon fill="none" stroke="black" points="89.5,-294 89.5,-315 300.5,-315 300.5,-294 89.5,-294"/>
<text text-anchor="start" x="179" y="-300.8" font-family="Times,serif" font-size="14.00">type</text>
<polygon fill="#e0ffe0" stroke="transparent" points="300.5,-294 300.5,-315 481.5,-315 481.5,-294 300.5,-294"/>
<polygon fill="none" stroke="black" points="300.5,-294 300.5,-315 481.5,-315 481.5,-294 300.5,-294"/>
<text text-anchor="start" x="384" y="-300.8" font-family="Times,serif" font-size="14.00">id</text>
<polygon fill="none" stroke="black" points="24.5,-273 24.5,-294 55.5,-294 55.5,-273 24.5,-273"/>
<text text-anchor="start" x="35" y="-279.8" font-family="Times,serif" font-size="14.00">0</text>
<polygon fill="none" stroke="black" points="55.5,-273 55.5,-294 89.5,-294 89.5,-273 55.5,-273"/>
<text text-anchor="start" x="67.5" y="-279.8" font-family="Times,serif" font-size="14.00">1</text>
<polygon fill="none" stroke="black" points="89.5,-273 89.5,-294 300.5,-294 300.5,-273 89.5,-273"/>
<text text-anchor="start" x="124" y="-279.8" font-family="Times,serif" font-size="14.00">u1→IcmpTypeEnum</text>
<polygon fill="none" stroke="black" points="300.5,-273 300.5,-294 481.5,-294 481.5,-273 300.5,-273"/>
<text text-anchor="start" x="354.5" y="-279.8" font-family="Times,serif" font-size="14.00">icmp_type</text>
<polygon fill="none" stroke="black" points="24.5,-252 24.5,-273 55.5,-273 55.5,-252 24.5,-252"/>
<text text-anchor="start" x="35" y="-258.8" font-family="Times,serif" font-size="14.00">1</text>
<polygon fill="none" stroke="black" points="55.5,-252 55.5,-273 89.5,-273 89.5,-252 55.5,-252"/>
<text text-anchor="start" x="67.5" y="-258.8" font-family="Times,serif" font-size="14.00">3</text>
<polygon fill="none" stroke="black" points="89.5,-252 89.5,-273 300.5,-273 300.5,-252 89.5,-252"/>
<text text-anchor="start" x="92.5" y="-258.8" font-family="Times,serif" font-size="14.00">DestinationUnreachableMsg</text>
<polygon fill="none" stroke="black" points="300.5,-252 300.5,-273 481.5,-273 481.5,-252 300.5,-252"/>
<text text-anchor="start" x="303.5" y="-258.8" font-family="Times,serif" font-size="14.00">destination_unreachable</text>
<polygon fill="none" stroke="black" points="24.5,-231 24.5,-252 55.5,-252 55.5,-231 24.5,-231"/>
<text text-anchor="start" x="35" y="-237.8" font-family="Times,serif" font-size="14.00">4</text>
<polygon fill="none" stroke="black" points="55.5,-231 55.5,-252 89.5,-252 89.5,-231 55.5,-231"/>
<text text-anchor="start" x="67.5" y="-237.8" font-family="Times,serif" font-size="14.00">3</text>
<polygon fill="none" stroke="black" points="89.5,-231 89.5,-252 300.5,-252 300.5,-231 89.5,-231"/>
<text text-anchor="start" x="127" y="-237.8" font-family="Times,serif" font-size="14.00">TimeExceededMsg</text>
<polygon fill="none" stroke="black" points="300.5,-231 300.5,-252 481.5,-252 481.5,-231 300.5,-231"/>
<text text-anchor="start" x="338" y="-237.8" font-family="Times,serif" font-size="14.00">time_exceeded</text>
<polygon fill="none" stroke="black" points="24.5,-210 24.5,-231 55.5,-231 55.5,-210 24.5,-210"/>
<text text-anchor="start" x="35" y="-216.8" font-family="Times,serif" font-size="14.00">7</text>
<polygon fill="none" stroke="black" points="55.5,-210 55.5,-231 89.5,-231 89.5,-210 55.5,-210"/>
<text text-anchor="start" x="65.5" y="-216.8" font-family="Times,serif" font-size="14.00">...</text>
<polygon fill="none" stroke="black" points="89.5,-210 89.5,-231 300.5,-231 300.5,-210 89.5,-210"/>
<text text-anchor="start" x="161.5" y="-216.8" font-family="Times,serif" font-size="14.00">EchoMsg</text>
<polygon fill="none" stroke="black" points="300.5,-210 300.5,-231 481.5,-231 481.5,-210 300.5,-210"/>
<text text-anchor="start" x="374" y="-216.8" font-family="Times,serif" font-size="14.00">echo</text>
</g>
<!-- destination_unreachable_msg__seq -->
<g id="node2" class="node">
<title>destination_unreachable_msg__seq</title>
<polygon fill="#e0ffe0" stroke="transparent" points="533,-370 533,-391 564,-391 564,-370 533,-370"/>
<polygon fill="none" stroke="black" points="533,-370 533,-391 564,-391 564,-370 533,-370"/>
<text text-anchor="start" x="536" y="-376.8" font-family="Times,serif" font-size="14.00">pos</text>
<polygon fill="#e0ffe0" stroke="transparent" points="564,-370 564,-391 598,-391 598,-370 564,-370"/>
<polygon fill="none" stroke="black" points="564,-370 564,-391 598,-391 598,-370 564,-370"/>
<text text-anchor="start" x="567" y="-376.8" font-family="Times,serif" font-size="14.00">size</text>
<polygon fill="#e0ffe0" stroke="transparent" points="598,-370 598,-391 844,-391 844,-370 598,-370"/>
<polygon fill="none" stroke="black" points="598,-370 598,-391 844,-391 844,-370 598,-370"/>
<text text-anchor="start" x="705" y="-376.8" font-family="Times,serif" font-size="14.00">type</text>
<polygon fill="#e0ffe0" stroke="transparent" points="844,-370 844,-391 921,-391 921,-370 844,-370"/>
<polygon fill="none" stroke="black" points="844,-370 844,-391 921,-391 921,-370 844,-370"/>
<text text-anchor="start" x="875.5" y="-376.8" font-family="Times,serif" font-size="14.00">id</text>
<polygon fill="none" stroke="black" points="533,-349 533,-370 564,-370 564,-349 533,-349"/>
<text text-anchor="start" x="543.5" y="-355.8" font-family="Times,serif" font-size="14.00">0</text>
<polygon fill="none" stroke="black" points="564,-349 564,-370 598,-370 598,-349 564,-349"/>
<text text-anchor="start" x="576" y="-355.8" font-family="Times,serif" font-size="14.00">1</text>
<polygon fill="none" stroke="black" points="598,-349 598,-370 844,-370 844,-349 598,-349"/>
<text text-anchor="start" x="601" y="-355.8" font-family="Times,serif" font-size="14.00">u1→DestinationUnreachableCode</text>
<polygon fill="none" stroke="black" points="844,-349 844,-370 921,-370 921,-349 844,-349"/>
<text text-anchor="start" x="865.5" y="-355.8" font-family="Times,serif" font-size="14.00">code</text>
<polygon fill="none" stroke="black" points="533,-328 533,-349 564,-349 564,-328 533,-328"/>
<text text-anchor="start" x="543.5" y="-334.8" font-family="Times,serif" font-size="14.00">1</text>
<polygon fill="none" stroke="black" points="564,-328 564,-349 598,-349 598,-328 564,-328"/>
<text text-anchor="start" x="576" y="-334.8" font-family="Times,serif" font-size="14.00">2</text>
<polygon fill="none" stroke="black" points="598,-328 598,-349 844,-349 844,-328 598,-328"/>
<text text-anchor="start" x="703" y="-334.8" font-family="Times,serif" font-size="14.00">u2be</text>
<polygon fill="none" stroke="black" points="844,-328 844,-349 921,-349 921,-328 844,-328"/>
<text text-anchor="start" x="847" y="-334.8" font-family="Times,serif" font-size="14.00">checksum</text>
</g>
<!-- icmp_packet__seq&#45;&gt;destination_unreachable_msg__seq -->
<g id="edge1" class="edge">
<title>icmp_packet__seq:destination_unreachable_type&#45;&gt;destination_unreachable_msg__seq</title>
<path fill="none" stroke="black" stroke-width="2" d="M482.5,-262C509.5,-262 494.66,-296.84 517,-312 520.87,-314.63 524.87,-317.12 528.97,-319.47"/>
<polygon fill="black" stroke="black" stroke-width="2" points="527.64,-322.73 538.1,-324.4 530.97,-316.57 527.64,-322.73"/>
</g>
<!-- time_exceeded_msg__seq -->
<g id="node3" class="node">
<title>time_exceeded_msg__seq</title>
<polygon fill="#e0ffe0" stroke="transparent" points="568,-251 568,-272 599,-272 599,-251 568,-251"/>
<polygon fill="none" stroke="black" points="568,-251 568,-272 599,-272 599,-251 568,-251"/>
<text text-anchor="start" x="571" y="-257.8" font-family="Times,serif" font-size="14.00">pos</text>
<polygon fill="#e0ffe0" stroke="transparent" points="599,-251 599,-272 633,-272 633,-251 599,-251"/>
<polygon fill="none" stroke="black" points="599,-251 599,-272 633,-272 633,-251 599,-251"/>
<text text-anchor="start" x="602" y="-257.8" font-family="Times,serif" font-size="14.00">size</text>
<polygon fill="#e0ffe0" stroke="transparent" points="633,-251 633,-272 810,-272 810,-251 633,-251"/>
<polygon fill="none" stroke="black" points="633,-251 633,-272 810,-272 810,-251 633,-251"/>
<text text-anchor="start" x="705.5" y="-257.8" font-family="Times,serif" font-size="14.00">type</text>
<polygon fill="#e0ffe0" stroke="transparent" points="810,-251 810,-272 887,-272 887,-251 810,-251"/>
<polygon fill="none" stroke="black" points="810,-251 810,-272 887,-272 887,-251 810,-251"/>
<text text-anchor="start" x="841.5" y="-257.8" font-family="Times,serif" font-size="14.00">id</text>
<polygon fill="none" stroke="black" points="568,-230 568,-251 599,-251 599,-230 568,-230"/>
<text text-anchor="start" x="578.5" y="-236.8" font-family="Times,serif" font-size="14.00">0</text>
<polygon fill="none" stroke="black" points="599,-230 599,-251 633,-251 633,-230 599,-230"/>
<text text-anchor="start" x="611" y="-236.8" font-family="Times,serif" font-size="14.00">1</text>
<polygon fill="none" stroke="black" points="633,-230 633,-251 810,-251 810,-230 633,-230"/>
<text text-anchor="start" x="636" y="-236.8" font-family="Times,serif" font-size="14.00">u1→TimeExceededCode</text>
<polygon fill="none" stroke="black" points="810,-230 810,-251 887,-251 887,-230 810,-230"/>
<text text-anchor="start" x="831.5" y="-236.8" font-family="Times,serif" font-size="14.00">code</text>
<polygon fill="none" stroke="black" points="568,-209 568,-230 599,-230 599,-209 568,-209"/>
<text text-anchor="start" x="578.5" y="-215.8" font-family="Times,serif" font-size="14.00">1</text>
<polygon fill="none" stroke="black" points="599,-209 599,-230 633,-230 633,-209 599,-209"/>
<text text-anchor="start" x="611" y="-215.8" font-family="Times,serif" font-size="14.00">2</text>
<polygon fill="none" stroke="black" points="633,-209 633,-230 810,-230 810,-209 633,-209"/>
<text text-anchor="start" x="703.5" y="-215.8" font-family="Times,serif" font-size="14.00">u2be</text>
<polygon fill="none" stroke="black" points="810,-209 810,-230 887,-230 887,-209 810,-209"/>
<text text-anchor="start" x="813" y="-215.8" font-family="Times,serif" font-size="14.00">checksum</text>
</g>
<!-- icmp_packet__seq&#45;&gt;time_exceeded_msg__seq -->
<g id="edge2" class="edge">
<title>icmp_packet__seq:time_exceeded_type&#45;&gt;time_exceeded_msg__seq</title>
<path fill="none" stroke="black" stroke-width="2" d="M482.5,-241C504.04,-241 526.65,-241 549.05,-241"/>
<polygon fill="black" stroke="black" stroke-width="2" points="549.32,-244.5 559.32,-241 549.32,-237.5 549.32,-244.5"/>
</g>
<!-- echo_msg__seq -->
<g id="node4" class="node">
<title>echo_msg__seq</title>
<polygon fill="#e0ffe0" stroke="transparent" points="635,-133 635,-154 666,-154 666,-133 635,-133"/>
<polygon fill="none" stroke="black" points="635,-133 635,-154 666,-154 666,-133 635,-133"/>
<text text-anchor="start" x="638" y="-139.8" font-family="Times,serif" font-size="14.00">pos</text>
<polygon fill="#e0ffe0" stroke="transparent" points="666,-133 666,-154 700,-154 700,-133 666,-133"/>
<polygon fill="none" stroke="black" points="666,-133 666,-154 700,-154 700,-133 666,-133"/>
<text text-anchor="start" x="669" y="-139.8" font-family="Times,serif" font-size="14.00">size</text>
<polygon fill="#e0ffe0" stroke="transparent" points="700,-133 700,-154 742,-154 742,-133 700,-133"/>
<polygon fill="none" stroke="black" points="700,-133 700,-154 742,-154 742,-133 700,-133"/>
<text text-anchor="start" x="705" y="-139.8" font-family="Times,serif" font-size="14.00">type</text>
<polygon fill="#e0ffe0" stroke="transparent" points="742,-133 742,-154 819,-154 819,-133 742,-133"/>
<polygon fill="none" stroke="black" points="742,-133 742,-154 819,-154 819,-133 742,-133"/>
<text text-anchor="start" x="773.5" y="-139.8" font-family="Times,serif" font-size="14.00">id</text>
<polygon fill="none" stroke="black" points="635,-112 635,-133 666,-133 666,-112 635,-112"/>
<text text-anchor="start" x="645.5" y="-118.8" font-family="Times,serif" font-size="14.00">0</text>
<polygon fill="none" stroke="black" points="666,-112 666,-133 700,-133 700,-112 666,-112"/>
<text text-anchor="start" x="678" y="-118.8" font-family="Times,serif" font-size="14.00">1</text>
<polygon fill="none" stroke="black" points="700,-112 700,-133 742,-133 742,-112 700,-112"/>
<polygon fill="none" stroke="black" points="742,-112 742,-133 819,-133 819,-112 742,-112"/>
<text text-anchor="start" x="763.5" y="-118.8" font-family="Times,serif" font-size="14.00">code</text>
<polygon fill="none" stroke="black" points="635,-91 635,-112 666,-112 666,-91 635,-91"/>
<text text-anchor="start" x="645.5" y="-97.8" font-family="Times,serif" font-size="14.00">1</text>
<polygon fill="none" stroke="black" points="666,-91 666,-112 700,-112 700,-91 666,-91"/>
<text text-anchor="start" x="678" y="-97.8" font-family="Times,serif" font-size="14.00">2</text>
<polygon fill="none" stroke="black" points="700,-91 700,-112 742,-112 742,-91 700,-91"/>
<text text-anchor="start" x="703" y="-97.8" font-family="Times,serif" font-size="14.00">u2be</text>
<polygon fill="none" stroke="black" points="742,-91 742,-112 819,-112 819,-91 742,-91"/>
<text text-anchor="start" x="745" y="-97.8" font-family="Times,serif" font-size="14.00">checksum</text>
<polygon fill="none" stroke="black" points="635,-70 635,-91 666,-91 666,-70 635,-70"/>
<text text-anchor="start" x="645.5" y="-76.8" font-family="Times,serif" font-size="14.00">3</text>
<polygon fill="none" stroke="black" points="666,-70 666,-91 700,-91 700,-70 666,-70"/>
<text text-anchor="start" x="678" y="-76.8" font-family="Times,serif" font-size="14.00">2</text>
<polygon fill="none" stroke="black" points="700,-70 700,-91 742,-91 742,-70 700,-70"/>
<text text-anchor="start" x="703" y="-76.8" font-family="Times,serif" font-size="14.00">u2be</text>
<polygon fill="none" stroke="black" points="742,-70 742,-91 819,-91 819,-70 742,-70"/>
<text text-anchor="start" x="747.5" y="-76.8" font-family="Times,serif" font-size="14.00">identifier</text>
<polygon fill="none" stroke="black" points="635,-49 635,-70 666,-70 666,-49 635,-49"/>
<text text-anchor="start" x="645.5" y="-55.8" font-family="Times,serif" font-size="14.00">5</text>
<polygon fill="none" stroke="black" points="666,-49 666,-70 700,-70 700,-49 666,-49"/>
<text text-anchor="start" x="678" y="-55.8" font-family="Times,serif" font-size="14.00">2</text>
<polygon fill="none" stroke="black" points="700,-49 700,-70 742,-70 742,-49 700,-49"/>
<text text-anchor="start" x="703" y="-55.8" font-family="Times,serif" font-size="14.00">u2be</text>
<polygon fill="none" stroke="black" points="742,-49 742,-70 819,-70 819,-49 742,-49"/>
<text text-anchor="start" x="748.5" y="-55.8" font-family="Times,serif" font-size="14.00">seq_num</text>
<polygon fill="none" stroke="black" points="635,-28 635,-49 666,-49 666,-28 635,-28"/>
<text text-anchor="start" x="645.5" y="-34.8" font-family="Times,serif" font-size="14.00">7</text>
<polygon fill="none" stroke="black" points="666,-28 666,-49 700,-49 700,-28 666,-28"/>
<text text-anchor="start" x="676.5" y="-34.8" font-family="Times,serif" font-size="14.00">⇲</text>
<polygon fill="none" stroke="black" points="700,-28 700,-49 742,-49 742,-28 700,-28"/>
<polygon fill="none" stroke="black" points="742,-28 742,-49 819,-49 819,-28 742,-28"/>
<text text-anchor="start" x="764.5" y="-34.8" font-family="Times,serif" font-size="14.00">data</text>
</g>
<!-- icmp_packet__seq&#45;&gt;echo_msg__seq -->
<g id="edge3" class="edge">
<title>icmp_packet__seq:echo_type&#45;&gt;echo_msg__seq</title>
<path fill="none" stroke="black" stroke-width="2" d="M482.5,-220C501.97,-220 500.49,-203.33 517,-193 548.6,-173.23 584.59,-154.45 617.69,-138.53"/>
<polygon fill="black" stroke="black" stroke-width="2" points="619.43,-141.58 626.95,-134.11 616.41,-135.26 619.43,-141.58"/>
</g>
</g>
</svg>
