<?xml version="1.0" encoding="UTF-8" standalone="no"?>
<!DOCTYPE svg PUBLIC "-//W3C//DTD SVG 1.1//EN"
 "http://www.w3.org/Graphics/SVG/1.1/DTD/svg11.dtd">
<!-- Generated by graphviz version 2.40.1 (20161225.0304)
 -->
<!-- Title: %3 Pages: 1 -->
<svg width="907pt" height="167pt"
 viewBox="0.00 0.00 907.00 167.00" xmlns="http://www.w3.org/2000/svg" xmlns:xlink="http://www.w3.org/1999/xlink">
<g id="graph0" class="graph" transform="scale(1 1) rotate(0) translate(4 163)">
<title>%3</title>
<polygon fill="#ffffff" stroke="transparent" points="-4,4 -4,-163 903,-163 903,4 -4,4"/>
<g id="clust1" class="cluster">
<title>cluster__dcmp_variable_length_integer</title>
<polygon fill="none" stroke="#000000" stroke-dasharray="1,5" points="8,-8 8,-151 891,-151 891,-8 8,-8"/>
<text text-anchor="middle" x="449.5" y="-135.8" font-family="Times,serif" font-size="14.00" fill="#000000">DcmpVariableLengthInteger</text>
</g>
<!-- dcmp_variable_length_integer__seq -->
<g id="node1" class="node">
<title>dcmp_variable_length_integer__seq</title>
<polygon fill="#e0ffe0" stroke="transparent" points="24.5,-76 24.5,-97 55.5,-97 55.5,-76 24.5,-76"/>
<polygon fill="none" stroke="#000000" points="24.5,-76 24.5,-97 55.5,-97 55.5,-76 24.5,-76"/>
<text text-anchor="start" x="27.5" y="-82.8" font-family="Times,serif" font-size="14.00" fill="#000000">pos</text>
<polygon fill="#e0ffe0" stroke="transparent" points="55.5,-76 55.5,-97 89.5,-97 89.5,-76 55.5,-76"/>
<polygon fill="none" stroke="#000000" points="55.5,-76 55.5,-97 89.5,-97 89.5,-76 55.5,-76"/>
<text text-anchor="start" x="58.5" y="-82.8" font-family="Times,serif" font-size="14.00" fill="#000000">size</text>
<polygon fill="#e0ffe0" stroke="transparent" points="89.5,-76 89.5,-97 188.5,-97 188.5,-76 89.5,-76"/>
<polygon fill="none" stroke="#000000" points="89.5,-76 89.5,-97 188.5,-97 188.5,-76 89.5,-76"/>
<text text-anchor="start" x="123" y="-82.8" font-family="Times,serif" font-size="14.00" fill="#000000">type</text>
<polygon fill="#e0ffe0" stroke="transparent" points="188.5,-76 188.5,-97 231.5,-97 231.5,-76 188.5,-76"/>
<polygon fill="none" stroke="#000000" points="188.5,-76 188.5,-97 231.5,-97 231.5,-76 188.5,-76"/>
<text text-anchor="start" x="203" y="-82.8" font-family="Times,serif" font-size="14.00" fill="#000000">id</text>
<polygon fill="none" stroke="#000000" points="24.5,-55 24.5,-76 55.5,-76 55.5,-55 24.5,-55"/>
<text text-anchor="start" x="35" y="-61.8" font-family="Times,serif" font-size="14.00" fill="#000000">0</text>
<polygon fill="none" stroke="#000000" points="55.5,-55 55.5,-76 89.5,-76 89.5,-55 55.5,-55"/>
<text text-anchor="start" x="67.5" y="-61.8" font-family="Times,serif" font-size="14.00" fill="#000000">1</text>
<polygon fill="none" stroke="#000000" points="89.5,-55 89.5,-76 188.5,-76 188.5,-55 89.5,-55"/>
<text text-anchor="start" x="129.5" y="-61.8" font-family="Times,serif" font-size="14.00" fill="#000000">u1</text>
<polygon fill="none" stroke="#000000" points="188.5,-55 188.5,-76 231.5,-76 231.5,-55 188.5,-55"/>
<text text-anchor="start" x="194.5" y="-61.8" font-family="Times,serif" font-size="14.00" fill="#000000">first</text>
<polygon fill="none" stroke="#000000" points="24.5,-34 24.5,-55 55.5,-55 55.5,-34 24.5,-34"/>
<text text-anchor="start" x="35" y="-40.8" font-family="Times,serif" font-size="14.00" fill="#000000">1</text>
<polygon fill="none" stroke="#000000" points="55.5,-34 55.5,-55 89.5,-55 89.5,-34 55.5,-34"/>
<text text-anchor="start" x="65.5" y="-40.8" font-family="Times,serif" font-size="14.00" fill="#000000">...</text>
<polygon fill="none" stroke="#000000" points="89.5,-34 89.5,-55 188.5,-55 188.5,-34 89.5,-34"/>
<text text-anchor="start" x="92.5" y="-40.8" font-family="Times,serif" font-size="14.00" fill="#000000">switch (first)</text>
<polygon fill="none" stroke="#000000" points="188.5,-34 188.5,-55 231.5,-55 231.5,-34 188.5,-34"/>
<text text-anchor="start" x="191.5" y="-40.8" font-family="Times,serif" font-size="14.00" fill="#000000">more</text>
</g>
<!-- dcmp_variable_length_integer__seq&#45;&gt;dcmp_variable_length_integer__seq -->
<g id="edge2" class="edge">
<title>dcmp_variable_length_integer__seq:first_type&#45;&gt;dcmp_variable_length_integer__seq:more_type</title>
<path fill="none" stroke="#404040" d="M188.4381,-69.0218C98.5562,-87.8083 105.9102,-119.5 210.5,-119.5 311.5259,-119.5 321.8297,-72.9965 241.4114,-50.5962"/>
<polygon fill="#404040" stroke="#404040" points="242.2645,-47.2018 231.7093,-48.1177 240.5319,-53.984 242.2645,-47.2018"/>
</g>
<!-- dcmp_variable_length_integer__inst__value -->
<g id="node2" class="node">
<title>dcmp_variable_length_integer__inst__value</title>
<polygon fill="#e0ffe0" stroke="transparent" points="283,-95 283,-116 328,-116 328,-95 283,-95"/>
<polygon fill="none" stroke="#000000" points="283,-95 283,-116 328,-116 328,-95 283,-95"/>
<text text-anchor="start" x="298.5" y="-101.8" font-family="Times,serif" font-size="14.00" fill="#000000">id</text>
<polygon fill="#e0ffe0" stroke="transparent" points="328,-95 328,-116 875,-116 875,-95 328,-95"/>
<polygon fill="none" stroke="#000000" points="328,-95 328,-116 875,-116 875,-95 328,-95"/>
<text text-anchor="start" x="582" y="-101.8" font-family="Times,serif" font-size="14.00" fill="#000000">value</text>
<polygon fill="none" stroke="#000000" points="283,-74 283,-95 328,-95 328,-74 283,-74"/>
<text text-anchor="start" x="286" y="-80.8" font-family="Times,serif" font-size="14.00" fill="#000000">value</text>
<polygon fill="none" stroke="#000000" points="328,-74 328,-95 875,-95 875,-74 328,-74"/>
<text text-anchor="start" x="331" y="-80.8" font-family="Times,serif" font-size="14.00" fill="#000000">(first == 255 ? more : (first &gt;= 128 ? (((first &lt;&lt; 8) | more) &#45; 49152) : first))</text>
</g>
<!-- dcmp_variable_length_integer__seq&#45;&gt;dcmp_variable_length_integer__inst__value -->
<g id="edge3" class="edge">
<title>dcmp_variable_length_integer__seq:first_type&#45;&gt;dcmp_variable_length_integer__inst__value</title>
<path fill="none" stroke="#404040" d="M231.5,-65C268.3263,-65 307.2668,-66.693 345.2387,-69.2747"/>
<polygon fill="#404040" stroke="#404040" points="345.1725,-72.7786 355.393,-69.9876 345.6627,-65.7958 345.1725,-72.7786"/>
</g>
<!-- dcmp_variable_length_integer__seq&#45;&gt;dcmp_variable_length_integer__inst__value -->
<g id="edge4" class="edge">
<title>dcmp_variable_length_integer__seq:more_type&#45;&gt;dcmp_variable_length_integer__inst__value</title>
<path fill="none" stroke="#404040" d="M231.5,-44C252.2573,-44 254.8474,-56.0263 275,-61 285.2636,-63.5331 295.7692,-65.8778 306.417,-68.0481"/>
<polygon fill="#404040" stroke="#404040" points="305.7432,-71.4826 316.2327,-69.9927 307.1035,-64.616 305.7432,-71.4826"/>
</g>
<!-- dcmp_variable_length_integer__seq&#45;&gt;dcmp_variable_length_integer__inst__value -->
<g id="edge5" class="edge">
<title>dcmp_variable_length_integer__seq:first_type&#45;&gt;dcmp_variable_length_integer__inst__value</title>
<path fill="none" stroke="#404040" d="M231.5,-65C293.4652,-61.4025 361.4162,-64.0364 420.6667,-69.0697"/>
<polygon fill="#404040" stroke="#404040" points="420.5913,-72.5765 430.8597,-69.9666 421.205,-65.6034 420.5913,-72.5765"/>
</g>
<!-- dcmp_variable_length_integer__seq&#45;&gt;dcmp_variable_length_integer__inst__value -->
<g id="edge6" class="edge">
<title>dcmp_variable_length_integer__seq:first_type&#45;&gt;dcmp_variable_length_integer__inst__value</title>
<path fill="none" stroke="#404040" d="M231.9543,-65.0264C250.7662,-66.1231 270.1261,-67.5278 289.6234,-69.1335"/>
<polygon fill="#404040" stroke="#404040" points="289.5717,-72.6414 299.8296,-69.991 290.1578,-65.666 289.5717,-72.6414"/>
</g>
<!-- dcmp_variable_length_integer__seq&#45;&gt;dcmp_variable_length_integer__inst__value -->
<g id="edge7" class="edge">
<title>dcmp_variable_length_integer__seq:more_type&#45;&gt;dcmp_variable_length_integer__inst__value</title>
<path fill="none" stroke="#404040" d="M231.5,-44C252.2573,-44 254.8474,-56.0263 275,-61 285.2636,-63.5331 295.7692,-65.8778 306.417,-68.0481"/>
<polygon fill="#404040" stroke="#404040" points="305.7432,-71.4826 316.2327,-69.9927 307.1035,-64.616 305.7432,-71.4826"/>
</g>
<!-- dcmp_variable_length_integer__seq&#45;&gt;dcmp_variable_length_integer__inst__value -->
<g id="edge8" class="edge">
<title>dcmp_variable_length_integer__seq:first_type&#45;&gt;dcmp_variable_length_integer__inst__value</title>
<path fill="none" stroke="#404040" d="M231.5,-65C268.3263,-65 307.2668,-66.693 345.2387,-69.2747"/>
<polygon fill="#404040" stroke="#404040" points="345.1725,-72.7786 355.393,-69.9876 345.6627,-65.7958 345.1725,-72.7786"/>
</g>
<!-- dcmp_variable_length_integer__seq_more_switch -->
<g id="node3" class="node">
<title>dcmp_variable_length_integer__seq_more_switch</title>
<polygon fill="#f0f2e4" stroke="transparent" points="541,-23 541,-44 580,-44 580,-23 541,-23"/>
<polygon fill="none" stroke="#000000" points="541,-23 541,-44 580,-44 580,-23 541,-23"/>
<text text-anchor="start" x="544" y="-29.8" font-family="Times,serif" font-size="14.00" fill="#000000">case</text>
<polygon fill="#f0f2e4" stroke="transparent" points="580,-23 580,-44 618,-44 618,-23 580,-23"/>
<polygon fill="none" stroke="#000000" points="580,-23 580,-44 618,-44 618,-23 580,-23"/>
<text text-anchor="start" x="583" y="-29.8" font-family="Times,serif" font-size="14.00" fill="#000000">type</text>
</g>
<!-- dcmp_variable_length_integer__seq&#45;&gt;dcmp_variable_length_integer__seq_more_switch -->
<g id="edge1" class="edge">
<title>dcmp_variable_length_integer__seq:more_type&#45;&gt;dcmp_variable_length_integer__seq_more_switch</title>
<path fill="none" stroke="#000000" stroke-width="2" d="M231.5,-44C333.973,-44 453.3732,-39.6014 522.1739,-36.6387"/>
<polygon fill="#000000" stroke="#000000" stroke-width="2" points="522.5223,-40.1269 532.3603,-36.1945 522.2173,-33.1335 522.5223,-40.1269"/>
</g>
</g>
</svg>
