<?xml version="1.0" encoding="UTF-8" standalone="no"?>
<!DOCTYPE svg PUBLIC "-//W3C//DTD SVG 1.1//EN"
 "http://www.w3.org/Graphics/SVG/1.1/DTD/svg11.dtd">
<!-- Generated by graphviz version 2.43.0 (0)
 -->
<!-- Title: %3 Pages: 1 -->
<svg width="1084pt" height="173pt"
 viewBox="0.00 0.00 1084.00 173.00" xmlns="http://www.w3.org/2000/svg" xmlns:xlink="http://www.w3.org/1999/xlink">
<g id="graph0" class="graph" transform="scale(1 1) rotate(0) translate(4 169)">
<title>%3</title>
<polygon fill="white" stroke="transparent" points="-4,4 -4,-169 1080,-169 1080,4 -4,4"/>
<g id="clust1" class="cluster">
<title>cluster__dcmp_variable_length_integer</title>
<polygon fill="none" stroke="black" stroke-dasharray="1,5" points="211,-8 211,-157 1068,-157 1068,-8 211,-8"/>
<text text-anchor="middle" x="639.5" y="-141.8" font-family="Times,serif" font-size="14.00">DcmpVariableLengthInteger</text>
</g>
<!-- dcmp_variable_length_integer__seq -->
<g id="node1" class="node">
<title>dcmp_variable_length_integer__seq</title>
<polygon fill="#e0ffe0" stroke="transparent" points="227.5,-83 227.5,-104 258.5,-104 258.5,-83 227.5,-83"/>
<polygon fill="none" stroke="black" points="227.5,-83 227.5,-104 258.5,-104 258.5,-83 227.5,-83"/>
<text text-anchor="start" x="230.5" y="-89.8" font-family="Times,serif" font-size="14.00">pos</text>
<polygon fill="#e0ffe0" stroke="transparent" points="258.5,-83 258.5,-104 292.5,-104 292.5,-83 258.5,-83"/>
<polygon fill="none" stroke="black" points="258.5,-83 258.5,-104 292.5,-104 292.5,-83 258.5,-83"/>
<text text-anchor="start" x="261.5" y="-89.8" font-family="Times,serif" font-size="14.00">size</text>
<polygon fill="#e0ffe0" stroke="transparent" points="292.5,-83 292.5,-104 389.5,-104 389.5,-83 292.5,-83"/>
<polygon fill="none" stroke="black" points="292.5,-83 292.5,-104 389.5,-104 389.5,-83 292.5,-83"/>
<text text-anchor="start" x="325" y="-89.8" font-family="Times,serif" font-size="14.00">type</text>
<polygon fill="#e0ffe0" stroke="transparent" points="389.5,-83 389.5,-104 432.5,-104 432.5,-83 389.5,-83"/>
<polygon fill="none" stroke="black" points="389.5,-83 389.5,-104 432.5,-104 432.5,-83 389.5,-83"/>
<text text-anchor="start" x="404" y="-89.8" font-family="Times,serif" font-size="14.00">id</text>
<polygon fill="none" stroke="black" points="227.5,-62 227.5,-83 258.5,-83 258.5,-62 227.5,-62"/>
<text text-anchor="start" x="238" y="-68.8" font-family="Times,serif" font-size="14.00">0</text>
<polygon fill="none" stroke="black" points="258.5,-62 258.5,-83 292.5,-83 292.5,-62 258.5,-62"/>
<text text-anchor="start" x="270.5" y="-68.8" font-family="Times,serif" font-size="14.00">1</text>
<polygon fill="none" stroke="black" points="292.5,-62 292.5,-83 389.5,-83 389.5,-62 292.5,-62"/>
<text text-anchor="start" x="331.5" y="-68.8" font-family="Times,serif" font-size="14.00">u1</text>
<polygon fill="none" stroke="black" points="389.5,-62 389.5,-83 432.5,-83 432.5,-62 389.5,-62"/>
<text text-anchor="start" x="396" y="-68.8" font-family="Times,serif" font-size="14.00">first</text>
<polygon fill="none" stroke="black" points="227.5,-41 227.5,-62 258.5,-62 258.5,-41 227.5,-41"/>
<text text-anchor="start" x="238" y="-47.8" font-family="Times,serif" font-size="14.00">1</text>
<polygon fill="none" stroke="black" points="258.5,-41 258.5,-62 292.5,-62 292.5,-41 258.5,-41"/>
<text text-anchor="start" x="268.5" y="-47.8" font-family="Times,serif" font-size="14.00">...</text>
<polygon fill="none" stroke="black" points="292.5,-41 292.5,-62 389.5,-62 389.5,-41 292.5,-41"/>
<text text-anchor="start" x="295.5" y="-47.8" font-family="Times,serif" font-size="14.00">switch (first)</text>
<polygon fill="none" stroke="black" points="389.5,-41 389.5,-62 432.5,-62 432.5,-41 389.5,-41"/>
<text text-anchor="start" x="392.5" y="-47.8" font-family="Times,serif" font-size="14.00">more</text>
<polygon fill="none" stroke="black" points="227.5,-20 227.5,-41 432.5,-41 432.5,-20 227.5,-20"/>
<text text-anchor="start" x="278" y="-26.8" font-family="Times,serif" font-size="14.00">if first &gt;= 128</text>
</g>
<!-- dcmp_variable_length_integer__seq&#45;&gt;dcmp_variable_length_integer__seq -->
<g id="edge2" class="edge">
<title>dcmp_variable_length_integer__seq:first_type&#45;&gt;dcmp_variable_length_integer__seq:more_type</title>
<path fill="none" stroke="#404040" d="M389.48,-77.77C302.57,-98.74 309.91,-126 411.5,-126 509.43,-126 519.78,-83.08 442.55,-58.75"/>
<polygon fill="#404040" stroke="#404040" points="443.28,-55.31 432.7,-55.88 441.32,-62.03 443.28,-55.31"/>
</g>
<!-- dcmp_variable_length_integer__seq&#45;&gt;dcmp_variable_length_integer__seq -->
<g id="edge3" class="edge">
<title>dcmp_variable_length_integer__seq:first_type&#45;&gt;dcmp_variable_length_integer__seq:more__if</title>
<path fill="none" stroke="#404040" d="M389.16,-74.55C265.69,-81.88 0,-80.12 0,-51.5 0,-29.69 112.88,-23.47 217.35,-25"/>
<polygon fill="#404040" stroke="#404040" points="217.37,-28.5 227.43,-25.17 217.49,-21.5 217.37,-28.5"/>
</g>
<!-- dcmp_variable_length_integer__inst__value -->
<g id="node2" class="node">
<title>dcmp_variable_length_integer__inst__value</title>
<polygon fill="#e0ffe0" stroke="transparent" points="484,-95 484,-116 529,-116 529,-95 484,-95"/>
<polygon fill="none" stroke="black" points="484,-95 484,-116 529,-116 529,-95 484,-95"/>
<text text-anchor="start" x="499.5" y="-101.8" font-family="Times,serif" font-size="14.00">id</text>
<polygon fill="#e0ffe0" stroke="transparent" points="529,-95 529,-116 1052,-116 1052,-95 529,-95"/>
<polygon fill="none" stroke="black" points="529,-95 529,-116 1052,-116 1052,-95 529,-95"/>
<text text-anchor="start" x="771" y="-101.8" font-family="Times,serif" font-size="14.00">value</text>
<polygon fill="none" stroke="black" points="484,-74 484,-95 529,-95 529,-74 484,-74"/>
<text text-anchor="start" x="487" y="-80.8" font-family="Times,serif" font-size="14.00">value</text>
<polygon fill="none" stroke="black" points="529,-74 529,-95 1052,-95 1052,-74 529,-74"/>
<text text-anchor="start" x="532" y="-80.8" font-family="Times,serif" font-size="14.00">(first == 255 ? more : (first &gt;= 128 ? (first &lt;&lt; 8 | more) &#45; 49152 : first))</text>
</g>
<!-- dcmp_variable_length_integer__seq&#45;&gt;dcmp_variable_length_integer__inst__value -->
<g id="edge4" class="edge">
<title>dcmp_variable_length_integer__seq:first_type&#45;&gt;dcmp_variable_length_integer__inst__value</title>
<path fill="none" stroke="#404040" d="M433.5,-73C443.94,-73 454.57,-73.11 465.29,-73.31"/>
<polygon fill="#404040" stroke="#404040" points="465.53,-76.82 475.61,-73.53 465.68,-69.82 465.53,-76.82"/>
</g>
<!-- dcmp_variable_length_integer__seq&#45;&gt;dcmp_variable_length_integer__inst__value -->
<g id="edge5" class="edge">
<title>dcmp_variable_length_integer__seq:more_type&#45;&gt;dcmp_variable_length_integer__inst__value</title>
<path fill="none" stroke="#404040" d="M433.5,-51C452.9,-51 456.89,-57.65 476,-61 491,-63.63 506.47,-66.11 522.1,-68.44"/>
<polygon fill="#404040" stroke="#404040" points="521.99,-71.96 532.39,-69.95 523,-65.04 521.99,-71.96"/>
</g>
<!-- dcmp_variable_length_integer__seq_more_switch -->
<g id="node3" class="node">
<title>dcmp_variable_length_integer__seq_more_switch</title>
<polygon fill="#f0f2e4" stroke="transparent" points="730,-23 730,-44 768,-44 768,-23 730,-23"/>
<polygon fill="none" stroke="black" points="730,-23 730,-44 768,-44 768,-23 730,-23"/>
<text text-anchor="start" x="733" y="-29.8" font-family="Times,serif" font-size="14.00">case</text>
<polygon fill="#f0f2e4" stroke="transparent" points="768,-23 768,-44 806,-44 806,-23 768,-23"/>
<polygon fill="none" stroke="black" points="768,-23 768,-44 806,-44 806,-23 768,-23"/>
<text text-anchor="start" x="771" y="-29.8" font-family="Times,serif" font-size="14.00">type</text>
</g>
<!-- dcmp_variable_length_integer__seq&#45;&gt;dcmp_variable_length_integer__seq_more_switch -->
<g id="edge1" class="edge">
<title>dcmp_variable_length_integer__seq:more_type&#45;&gt;dcmp_variable_length_integer__seq_more_switch</title>
<path fill="none" stroke="black" stroke-width="2" d="M433.5,-51C531.59,-51 645.7,-43.57 711.81,-38.54"/>
<polygon fill="black" stroke="black" stroke-width="2" points="712.29,-42.01 722,-37.75 711.76,-35.03 712.29,-42.01"/>
</g>
</g>
</svg>
