<?xml version="1.0" encoding="UTF-8" standalone="no"?>
<!DOCTYPE svg PUBLIC "-//W3C//DTD SVG 1.1//EN"
 "http://www.w3.org/Graphics/SVG/1.1/DTD/svg11.dtd">
<!-- Generated by graphviz version 2.40.1 (20161225.0304)
 -->
<!-- Title: %3 Pages: 1 -->
<svg width="729pt" height="167pt"
 viewBox="0.00 0.00 729.00 167.00" xmlns="http://www.w3.org/2000/svg" xmlns:xlink="http://www.w3.org/1999/xlink">
<g id="graph0" class="graph" transform="scale(1 1) rotate(0) translate(4 163)">
<title>%3</title>
<polygon fill="#ffffff" stroke="transparent" points="-4,4 -4,-163 725,-163 725,4 -4,4"/>
<g id="clust1" class="cluster">
<title>cluster__dcmp_variable_length_integer</title>
<polygon fill="none" stroke="#000000" stroke-dasharray="1,5" points="8,-8 8,-151 713,-151 713,-8 8,-8"/>
<text text-anchor="middle" x="360.5" y="-135.8" font-family="Times,serif" font-size="14.00" fill="#000000">DcmpVariableLengthInteger</text>
</g>
<!-- dcmp_variable_length_integer__seq -->
<g id="node1" class="node">
<title>dcmp_variable_length_integer__seq</title>
<polygon fill="#e0ffe0" stroke="transparent" points="24,-76 24,-97 49,-97 49,-76 24,-76"/>
<polygon fill="none" stroke="#000000" points="24,-76 24,-97 49,-97 49,-76 24,-76"/>
<text text-anchor="start" x="27" y="-82.8" font-family="Times,serif" font-size="14.00" fill="#000000">pos</text>
<polygon fill="#e0ffe0" stroke="transparent" points="49,-76 49,-97 77,-97 77,-76 49,-76"/>
<polygon fill="none" stroke="#000000" points="49,-76 49,-97 77,-97 77,-76 49,-76"/>
<text text-anchor="start" x="52" y="-82.8" font-family="Times,serif" font-size="14.00" fill="#000000">size</text>
<polygon fill="#e0ffe0" stroke="transparent" points="77,-76 77,-97 153,-97 153,-76 77,-76"/>
<polygon fill="none" stroke="#000000" points="77,-76 77,-97 153,-97 153,-76 77,-76"/>
<text text-anchor="start" x="103" y="-82.8" font-family="Times,serif" font-size="14.00" fill="#000000">type</text>
<polygon fill="#e0ffe0" stroke="transparent" points="153,-76 153,-97 188,-97 188,-76 153,-76"/>
<polygon fill="none" stroke="#000000" points="153,-76 153,-97 188,-97 188,-76 153,-76"/>
<text text-anchor="start" x="165" y="-82.8" font-family="Times,serif" font-size="14.00" fill="#000000">id</text>
<polygon fill="none" stroke="#000000" points="24,-55 24,-76 49,-76 49,-55 24,-55"/>
<text text-anchor="start" x="33" y="-61.8" font-family="Times,serif" font-size="14.00" fill="#000000">0</text>
<polygon fill="none" stroke="#000000" points="49,-55 49,-76 77,-76 77,-55 49,-55"/>
<text text-anchor="start" x="59.5" y="-61.8" font-family="Times,serif" font-size="14.00" fill="#000000">1</text>
<polygon fill="none" stroke="#000000" points="77,-55 77,-76 153,-76 153,-55 77,-55"/>
<text text-anchor="start" x="108" y="-61.8" font-family="Times,serif" font-size="14.00" fill="#000000">u1</text>
<polygon fill="none" stroke="#000000" points="153,-55 153,-76 188,-76 188,-55 153,-55"/>
<text text-anchor="start" x="159.5" y="-61.8" font-family="Times,serif" font-size="14.00" fill="#000000">first</text>
<polygon fill="none" stroke="#000000" points="24,-34 24,-55 49,-55 49,-34 24,-34"/>
<text text-anchor="start" x="33" y="-40.8" font-family="Times,serif" font-size="14.00" fill="#000000">1</text>
<polygon fill="none" stroke="#000000" points="49,-34 49,-55 77,-55 77,-34 49,-34"/>
<text text-anchor="start" x="57" y="-40.8" font-family="Times,serif" font-size="14.00" fill="#000000">...</text>
<polygon fill="none" stroke="#000000" points="77,-34 77,-55 153,-55 153,-34 77,-34"/>
<text text-anchor="start" x="80" y="-40.8" font-family="Times,serif" font-size="14.00" fill="#000000">switch (first)</text>
<polygon fill="none" stroke="#000000" points="153,-34 153,-55 188,-55 188,-34 153,-34"/>
<text text-anchor="start" x="156" y="-40.8" font-family="Times,serif" font-size="14.00" fill="#000000">more</text>
</g>
<!-- dcmp_variable_length_integer__seq&#45;&gt;dcmp_variable_length_integer__seq -->
<g id="edge2" class="edge">
<title>dcmp_variable_length_integer__seq:first_type&#45;&gt;dcmp_variable_length_integer__seq:more_type</title>
<path fill="none" stroke="#404040" d="M152.7977,-69.1403C80.9726,-87.9413 87.04,-119.5 171,-119.5 251.3613,-119.5 260.3642,-74.0304 198.0086,-51.3563"/>
<polygon fill="#404040" stroke="#404040" points="198.8833,-47.9602 188.2908,-48.1845 196.7113,-54.6147 198.8833,-47.9602"/>
</g>
<!-- dcmp_variable_length_integer__inst__value -->
<g id="node2" class="node">
<title>dcmp_variable_length_integer__inst__value</title>
<polygon fill="#e0ffe0" stroke="transparent" points="240.5,-95 240.5,-116 276.5,-116 276.5,-95 240.5,-95"/>
<polygon fill="none" stroke="#000000" points="240.5,-95 240.5,-116 276.5,-116 276.5,-95 240.5,-95"/>
<text text-anchor="start" x="253" y="-101.8" font-family="Times,serif" font-size="14.00" fill="#000000">id</text>
<polygon fill="#e0ffe0" stroke="transparent" points="276.5,-95 276.5,-116 697.5,-116 697.5,-95 276.5,-95"/>
<polygon fill="none" stroke="#000000" points="276.5,-95 276.5,-116 697.5,-116 697.5,-95 276.5,-95"/>
<text text-anchor="start" x="472" y="-101.8" font-family="Times,serif" font-size="14.00" fill="#000000">value</text>
<polygon fill="none" stroke="#000000" points="240.5,-74 240.5,-95 276.5,-95 276.5,-74 240.5,-74"/>
<text text-anchor="start" x="243.5" y="-80.8" font-family="Times,serif" font-size="14.00" fill="#000000">value</text>
<polygon fill="none" stroke="#000000" points="276.5,-74 276.5,-95 697.5,-95 697.5,-74 276.5,-74"/>
<text text-anchor="start" x="279.5" y="-80.8" font-family="Times,serif" font-size="14.00" fill="#000000">(first == 255 ? more : (first &gt;= 128 ? (((first &lt;&lt; 8) | more) &#45; 49152) : first))</text>
</g>
<!-- dcmp_variable_length_integer__seq&#45;&gt;dcmp_variable_length_integer__inst__value -->
<g id="edge3" class="edge">
<title>dcmp_variable_length_integer__seq:first_type&#45;&gt;dcmp_variable_length_integer__inst__value</title>
<path fill="none" stroke="#404040" d="M188,-65C217.151,-65 247.91,-66.6218 277.9534,-69.1112"/>
<polygon fill="#404040" stroke="#404040" points="277.8474,-72.6149 288.1112,-69.9876 278.4491,-65.6408 277.8474,-72.6149"/>
</g>
<!-- dcmp_variable_length_integer__seq&#45;&gt;dcmp_variable_length_integer__inst__value -->
<g id="edge4" class="edge">
<title>dcmp_variable_length_integer__seq:more_type&#45;&gt;dcmp_variable_length_integer__inst__value</title>
<path fill="none" stroke="#404040" d="M188,-44C208.9644,-44 211.7174,-55.6968 232,-61 241.4059,-63.4593 251.0719,-65.7533 260.8715,-67.8917"/>
<polygon fill="#404040" stroke="#404040" points="260.2023,-71.3275 270.7109,-69.9785 261.6547,-64.4798 260.2023,-71.3275"/>
</g>
<!-- dcmp_variable_length_integer__seq&#45;&gt;dcmp_variable_length_integer__inst__value -->
<g id="edge5" class="edge">
<title>dcmp_variable_length_integer__seq:first_type&#45;&gt;dcmp_variable_length_integer__inst__value</title>
<path fill="none" stroke="#404040" d="M188,-65C237.4955,-61.4471 291.6266,-63.9721 339.0197,-68.8836"/>
<polygon fill="#404040" stroke="#404040" points="338.7079,-72.3702 349.0265,-69.9666 339.4611,-65.4109 338.7079,-72.3702"/>
</g>
<!-- dcmp_variable_length_integer__seq&#45;&gt;dcmp_variable_length_integer__inst__value -->
<g id="edge6" class="edge">
<title>dcmp_variable_length_integer__seq:first_type&#45;&gt;dcmp_variable_length_integer__inst__value</title>
<path fill="none" stroke="#404040" d="M188.3674,-65.0264C203.0238,-66.0828 218.0839,-67.4251 233.2527,-68.9576"/>
<polygon fill="#404040" stroke="#404040" points="232.926,-72.4424 243.2333,-69.991 233.647,-65.4796 232.926,-72.4424"/>
</g>
<!-- dcmp_variable_length_integer__seq&#45;&gt;dcmp_variable_length_integer__inst__value -->
<g id="edge7" class="edge">
<title>dcmp_variable_length_integer__seq:more_type&#45;&gt;dcmp_variable_length_integer__inst__value</title>
<path fill="none" stroke="#404040" d="M188,-44C208.9644,-44 211.7174,-55.6968 232,-61 241.4059,-63.4593 251.0719,-65.7533 260.8715,-67.8917"/>
<polygon fill="#404040" stroke="#404040" points="260.2023,-71.3275 270.7109,-69.9785 261.6547,-64.4798 260.2023,-71.3275"/>
</g>
<!-- dcmp_variable_length_integer__seq&#45;&gt;dcmp_variable_length_integer__inst__value -->
<g id="edge8" class="edge">
<title>dcmp_variable_length_integer__seq:first_type&#45;&gt;dcmp_variable_length_integer__inst__value</title>
<path fill="none" stroke="#404040" d="M188,-65C217.151,-65 247.91,-66.6218 277.9534,-69.1112"/>
<polygon fill="#404040" stroke="#404040" points="277.8474,-72.6149 288.1112,-69.9876 278.4491,-65.6408 277.8474,-72.6149"/>
</g>
<!-- dcmp_variable_length_integer__seq_more_switch -->
<g id="node3" class="node">
<title>dcmp_variable_length_integer__seq_more_switch</title>
<polygon fill="#f0f2e4" stroke="transparent" points="438.5,-23 438.5,-44 468.5,-44 468.5,-23 438.5,-23"/>
<polygon fill="none" stroke="#000000" points="438.5,-23 438.5,-44 468.5,-44 468.5,-23 438.5,-23"/>
<text text-anchor="start" x="441.5" y="-29.8" font-family="Times,serif" font-size="14.00" fill="#000000">case</text>
<polygon fill="#f0f2e4" stroke="transparent" points="468.5,-23 468.5,-44 498.5,-44 498.5,-23 468.5,-23"/>
<polygon fill="none" stroke="#000000" points="468.5,-23 468.5,-44 498.5,-44 498.5,-23 468.5,-23"/>
<text text-anchor="start" x="471.5" y="-29.8" font-family="Times,serif" font-size="14.00" fill="#000000">type</text>
</g>
<!-- dcmp_variable_length_integer__seq&#45;&gt;dcmp_variable_length_integer__seq_more_switch -->
<g id="edge1" class="edge">
<title>dcmp_variable_length_integer__seq:more_type&#45;&gt;dcmp_variable_length_integer__seq_more_switch</title>
<path fill="none" stroke="#000000" stroke-width="2" d="M188,-44C269.4857,-44 364.2022,-39.7331 420.0955,-36.7737"/>
<polygon fill="#000000" stroke="#000000" stroke-width="2" points="420.607,-40.2514 430.4046,-36.2193 420.2311,-33.2615 420.607,-40.2514"/>
</g>
</g>
</svg>
