<?xml version="1.0" encoding="UTF-8" standalone="no"?>
<!DOCTYPE svg PUBLIC "-//W3C//DTD SVG 1.1//EN"
 "http://www.w3.org/Graphics/SVG/1.1/DTD/svg11.dtd">
<!-- Generated by graphviz version 2.43.0 (0)
 -->
<!-- Title: %3 Pages: 1 -->
<svg width="3271pt" height="300pt"
 viewBox="0.00 0.00 3271.00 300.00" xmlns="http://www.w3.org/2000/svg" xmlns:xlink="http://www.w3.org/1999/xlink">
<g id="graph0" class="graph" transform="scale(1 1) rotate(0) translate(4 296)">
<title>%3</title>
<polygon fill="white" stroke="transparent" points="-4,4 -4,-296 3267,-296 3267,4 -4,4"/>
<g id="clust1" class="cluster">
<title>cluster__vlq_base128_le</title>
<polygon fill="none" stroke="black" stroke-dasharray="1,5" points="8,-8 8,-284 3255,-284 3255,-8 8,-8"/>
<text text-anchor="middle" x="1631.5" y="-268.8" font-family="Times,serif" font-size="14.00">VlqBase128Le</text>
</g>
<g id="clust2" class="cluster">
<title>cluster__group</title>
<polygon fill="none" stroke="black" stroke-dasharray="1,5" points="39.5,-96 39.5,-253 459,-253 459,-96 39.5,-96"/>
<text text-anchor="middle" x="249.25" y="-237.8" font-family="Times,serif" font-size="14.00">VlqBase128Le::Group</text>
</g>
<!-- vlq_base128_le__seq -->
<g id="node1" class="node">
<title>vlq_base128_le__seq</title>
<polygon fill="#e0ffe0" stroke="transparent" points="24,-62 24,-83 62,-83 62,-62 24,-62"/>
<polygon fill="none" stroke="black" points="24,-62 24,-83 62,-83 62,-62 24,-62"/>
<text text-anchor="start" x="30.5" y="-68.8" font-family="Times,serif" font-size="14.00">pos</text>
<polygon fill="#e0ffe0" stroke="transparent" points="62,-62 62,-83 99,-83 99,-62 62,-62"/>
<polygon fill="none" stroke="black" points="62,-62 62,-83 99,-83 99,-62 62,-62"/>
<text text-anchor="start" x="66.5" y="-68.8" font-family="Times,serif" font-size="14.00">size</text>
<polygon fill="#e0ffe0" stroke="transparent" points="99,-62 99,-83 152,-83 152,-62 99,-62"/>
<polygon fill="none" stroke="black" points="99,-62 99,-83 152,-83 152,-62 99,-62"/>
<text text-anchor="start" x="109.5" y="-68.8" font-family="Times,serif" font-size="14.00">type</text>
<polygon fill="#e0ffe0" stroke="transparent" points="152,-62 152,-83 210,-83 210,-62 152,-62"/>
<polygon fill="none" stroke="black" points="152,-62 152,-83 210,-83 210,-62 152,-62"/>
<text text-anchor="start" x="174" y="-68.8" font-family="Times,serif" font-size="14.00">id</text>
<polygon fill="none" stroke="black" points="24,-41 24,-62 62,-62 62,-41 24,-41"/>
<text text-anchor="start" x="38" y="-47.8" font-family="Times,serif" font-size="14.00">0</text>
<polygon fill="none" stroke="black" points="62,-41 62,-62 99,-62 99,-41 62,-41"/>
<text text-anchor="start" x="75.5" y="-47.8" font-family="Times,serif" font-size="14.00">1</text>
<polygon fill="none" stroke="black" points="99,-41 99,-62 152,-62 152,-41 99,-41"/>
<text text-anchor="start" x="103" y="-47.8" font-family="Times,serif" font-size="14.00">Group</text>
<polygon fill="none" stroke="black" points="152,-41 152,-62 210,-62 210,-41 152,-41"/>
<text text-anchor="start" x="156" y="-47.8" font-family="Times,serif" font-size="14.00">groups</text>
<polygon fill="none" stroke="black" points="24,-20 24,-41 210,-41 210,-20 24,-20"/>
<text text-anchor="start" x="27" y="-26.8" font-family="Times,serif" font-size="14.00">repeat until !(_.has_next)</text>
</g>
<!-- vlq_base128_le__inst__len -->
<g id="node2" class="node">
<title>vlq_base128_le__inst__len</title>
<polygon fill="#e0ffe0" stroke="transparent" points="285.5,-61 285.5,-82 313.5,-82 313.5,-61 285.5,-61"/>
<polygon fill="none" stroke="black" points="285.5,-61 285.5,-82 313.5,-82 313.5,-61 285.5,-61"/>
<text text-anchor="start" x="292.5" y="-67.8" font-family="Times,serif" font-size="14.00">id</text>
<polygon fill="#e0ffe0" stroke="transparent" points="313.5,-61 313.5,-82 419.5,-82 419.5,-61 313.5,-61"/>
<polygon fill="none" stroke="black" points="313.5,-61 313.5,-82 419.5,-82 419.5,-61 313.5,-61"/>
<text text-anchor="start" x="347" y="-67.8" font-family="Times,serif" font-size="14.00">value</text>
<polygon fill="none" stroke="black" points="285.5,-40 285.5,-61 313.5,-61 313.5,-40 285.5,-40"/>
<text text-anchor="start" x="288.5" y="-46.8" font-family="Times,serif" font-size="14.00">len</text>
<polygon fill="none" stroke="black" points="313.5,-40 313.5,-61 419.5,-61 419.5,-40 313.5,-40"/>
<text text-anchor="start" x="316.5" y="-46.8" font-family="Times,serif" font-size="14.00">groups.length</text>
</g>
<!-- vlq_base128_le__seq&#45;&gt;vlq_base128_le__inst__len -->
<g id="edge3" class="edge">
<title>vlq_base128_le__seq:groups_type&#45;&gt;vlq_base128_le__inst__len</title>
<path fill="none" stroke="#404040" d="M211,-51C229.16,-51 248.6,-51.84 267.06,-53.04"/>
<polygon fill="#404040" stroke="#404040" points="266.98,-56.54 277.2,-53.73 267.46,-49.55 266.98,-56.54"/>
</g>
<!-- group__seq -->
<g id="node6" class="node">
<title>group__seq</title>
<polygon fill="#e0ffe0" stroke="transparent" points="56,-140 56,-161 87,-161 87,-140 56,-140"/>
<polygon fill="none" stroke="black" points="56,-140 56,-161 87,-161 87,-140 56,-140"/>
<text text-anchor="start" x="59" y="-146.8" font-family="Times,serif" font-size="14.00">pos</text>
<polygon fill="#e0ffe0" stroke="transparent" points="87,-140 87,-161 121,-161 121,-140 87,-140"/>
<polygon fill="none" stroke="black" points="87,-140 87,-161 121,-161 121,-140 87,-140"/>
<text text-anchor="start" x="90" y="-146.8" font-family="Times,serif" font-size="14.00">size</text>
<polygon fill="#e0ffe0" stroke="transparent" points="121,-140 121,-161 159,-161 159,-140 121,-140"/>
<polygon fill="none" stroke="black" points="121,-140 121,-161 159,-161 159,-140 121,-140"/>
<text text-anchor="start" x="124" y="-146.8" font-family="Times,serif" font-size="14.00">type</text>
<polygon fill="#e0ffe0" stroke="transparent" points="159,-140 159,-161 179,-161 179,-140 159,-140"/>
<polygon fill="none" stroke="black" points="159,-140 159,-161 179,-161 179,-140 159,-140"/>
<text text-anchor="start" x="162" y="-146.8" font-family="Times,serif" font-size="14.00">id</text>
<polygon fill="none" stroke="black" points="56,-119 56,-140 87,-140 87,-119 56,-119"/>
<text text-anchor="start" x="66.5" y="-125.8" font-family="Times,serif" font-size="14.00">0</text>
<polygon fill="none" stroke="black" points="87,-119 87,-140 121,-140 121,-119 87,-119"/>
<text text-anchor="start" x="99" y="-125.8" font-family="Times,serif" font-size="14.00">1</text>
<polygon fill="none" stroke="black" points="121,-119 121,-140 159,-140 159,-119 121,-119"/>
<text text-anchor="start" x="130.5" y="-125.8" font-family="Times,serif" font-size="14.00">u1</text>
<polygon fill="none" stroke="black" points="159,-119 159,-140 179,-140 179,-119 159,-119"/>
<text text-anchor="start" x="164" y="-125.8" font-family="Times,serif" font-size="14.00">b</text>
</g>
<!-- vlq_base128_le__seq&#45;&gt;group__seq -->
<g id="edge1" class="edge">
<title>vlq_base128_le__seq:groups_type&#45;&gt;group__seq</title>
<path fill="none" stroke="black" stroke-width="2" d="M190.49,-108.68C198.18,-102.73 205,-95.72 210,-87.5 218.43,-73.63 227.23,-51 211,-51"/>
<polygon fill="black" stroke="black" stroke-width="2" points="188.03,-106.13 181.84,-114.73 192.04,-111.87 188.03,-106.13"/>
</g>
<!-- vlq_base128_le__inst__value -->
<g id="node3" class="node">
<title>vlq_base128_le__inst__value</title>
<polygon fill="#e0ffe0" stroke="transparent" points="495,-180 495,-201 540,-201 540,-180 495,-180"/>
<polygon fill="none" stroke="black" points="495,-180 495,-201 540,-201 540,-180 495,-180"/>
<text text-anchor="start" x="510.5" y="-186.8" font-family="Times,serif" font-size="14.00">id</text>
<polygon fill="#e0ffe0" stroke="transparent" points="540,-180 540,-201 2875,-201 2875,-180 540,-180"/>
<polygon fill="none" stroke="black" points="540,-180 540,-201 2875,-201 2875,-180 540,-180"/>
<text text-anchor="start" x="1688" y="-186.8" font-family="Times,serif" font-size="14.00">value</text>
<polygon fill="none" stroke="black" points="495,-159 495,-180 540,-180 540,-159 495,-159"/>
<text text-anchor="start" x="498" y="-165.8" font-family="Times,serif" font-size="14.00">value</text>
<polygon fill="none" stroke="black" points="540,-159 540,-180 2875,-180 2875,-159 540,-159"/>
<text text-anchor="start" x="543" y="-165.8" font-family="Times,serif" font-size="14.00">(((((((groups[0].value + (len &gt;= 2 ? (groups[1].value &lt;&lt; 7) : 0)) + (len &gt;= 3 ? (groups[2].value &lt;&lt; 14) : 0)) + (len &gt;= 4 ? (groups[3].value &lt;&lt; 21) : 0)) + (len &gt;= 5 ? (groups[4].value &lt;&lt; 28) : 0)) + (len &gt;= 6 ? (groups[5].value &lt;&lt; 35) : 0)) + (len &gt;= 7 ? (groups[6].value &lt;&lt; 42) : 0)) + (len &gt;= 8 ? (groups[7].value &lt;&lt; 49) : 0))</text>
</g>
<!-- vlq_base128_le__inst__len&#45;&gt;vlq_base128_le__inst__value -->
<g id="edge5" class="edge">
<title>vlq_base128_le__inst__len:len_type&#45;&gt;vlq_base128_le__inst__value</title>
<path fill="none" stroke="#404040" d="M360.3,-35.67C378.05,-9.2 426.64,-15.65 459,-38 475.97,-49.72 468.73,-65.43 487,-75 550.34,-108.2 618.26,-133.4 688.39,-152.29"/>
<polygon fill="#404040" stroke="#404040" points="687.73,-155.74 698.3,-154.91 689.53,-148.97 687.73,-155.74"/>
</g>
<!-- vlq_base128_le__inst__len&#45;&gt;vlq_base128_le__inst__value -->
<g id="edge7" class="edge">
<title>vlq_base128_le__inst__len:len_type&#45;&gt;vlq_base128_le__inst__value</title>
<path fill="none" stroke="#404040" d="M377.57,-35.99C400.25,-31.17 434.34,-38.97 459,-56 475.97,-67.72 468.73,-83.43 487,-93 766.29,-239.39 1134.57,-230.28 1388.49,-205.99"/>
<polygon fill="#404040" stroke="#404040" points="1388.99,-209.46 1398.61,-205.01 1388.32,-202.49 1388.99,-209.46"/>
</g>
<!-- vlq_base128_le__inst__len&#45;&gt;vlq_base128_le__inst__value -->
<g id="edge9" class="edge">
<title>vlq_base128_le__inst__len:len_type&#45;&gt;vlq_base128_le__inst__value</title>
<path fill="none" stroke="#404040" d="M427.76,-58.48C438.77,-62.33 449.57,-67.49 459,-74 475.97,-85.72 468.73,-101.43 487,-111 809.19,-279.88 1249.81,-241.82 1496.68,-206.48"/>
<polygon fill="#404040" stroke="#404040" points="1497.44,-209.91 1506.84,-205.02 1496.44,-202.98 1497.44,-209.91"/>
</g>
<!-- vlq_base128_le__inst__len&#45;&gt;vlq_base128_le__inst__value -->
<g id="edge11" class="edge">
<title>vlq_base128_le__inst__len:len_type&#45;&gt;vlq_base128_le__inst__value</title>
<path fill="none" stroke="#404040" d="M427.76,-76.24C438.77,-80.33 449.57,-85.49 459,-92 475.97,-103.72 468.73,-119.43 487,-129 840.3,-314.18 1336,-250.54 1562.49,-206.95"/>
<polygon fill="#404040" stroke="#404040" points="1563.26,-210.36 1572.41,-205.02 1561.93,-203.49 1563.26,-210.36"/>
</g>
<!-- vlq_base128_le__inst__len&#45;&gt;vlq_base128_le__inst__value -->
<g id="edge13" class="edge">
<title>vlq_base128_le__inst__len:len_type&#45;&gt;vlq_base128_le__inst__value</title>
<path fill="none" stroke="#404040" d="M404.71,-86.01C422.97,-91.77 442.98,-98.93 459,-110 475.97,-121.72 468.73,-137.43 487,-147 863.38,-344.28 1401.37,-259.16 1603.31,-207.59"/>
<polygon fill="#404040" stroke="#404040" points="1604.45,-210.91 1613.25,-205.01 1602.69,-204.13 1604.45,-210.91"/>
</g>
<!-- vlq_base128_le__inst__len&#45;&gt;vlq_base128_le__inst__value -->
<g id="edge15" class="edge">
<title>vlq_base128_le__inst__len:len_type&#45;&gt;vlq_base128_le__inst__value</title>
<path fill="none" stroke="#404040" d="M368.76,-86.15C390.51,-101.16 430.88,-108.58 459,-128 472.55,-137.36 470.67,-149.26 478.66,-158.54"/>
<polygon fill="#404040" stroke="#404040" points="476.55,-161.34 486.58,-164.77 480.88,-155.84 476.55,-161.34"/>
</g>
<!-- vlq_base128_le__inst__len&#45;&gt;vlq_base128_le__inst__value -->
<g id="edge17" class="edge">
<title>vlq_base128_le__inst__len:len_type&#45;&gt;vlq_base128_le__inst__value</title>
<path fill="none" stroke="#404040" d="M359.54,-86.07C376.63,-117.01 426.17,-123.33 459,-146 472.55,-155.36 470.67,-167.26 478.66,-176.54"/>
<polygon fill="#404040" stroke="#404040" points="476.55,-179.34 486.58,-182.77 480.88,-173.84 476.55,-179.34"/>
</g>
<!-- vlq_base128_le__inst__sign_bit -->
<g id="node4" class="node">
<title>vlq_base128_le__inst__sign_bit</title>
<polygon fill="#e0ffe0" stroke="transparent" points="1579,-95 1579,-116 1642,-116 1642,-95 1579,-95"/>
<polygon fill="none" stroke="black" points="1579,-95 1579,-116 1642,-116 1642,-95 1579,-95"/>
<text text-anchor="start" x="1603.5" y="-101.8" font-family="Times,serif" font-size="14.00">id</text>
<polygon fill="#e0ffe0" stroke="transparent" points="1642,-95 1642,-116 1791,-116 1791,-95 1642,-95"/>
<polygon fill="none" stroke="black" points="1642,-95 1642,-116 1791,-116 1791,-95 1642,-95"/>
<text text-anchor="start" x="1697" y="-101.8" font-family="Times,serif" font-size="14.00">value</text>
<polygon fill="none" stroke="black" points="1579,-74 1579,-95 1642,-95 1642,-74 1579,-74"/>
<text text-anchor="start" x="1582" y="-80.8" font-family="Times,serif" font-size="14.00">sign_bit</text>
<polygon fill="none" stroke="black" points="1642,-74 1642,-95 1791,-95 1791,-74 1642,-74"/>
<text text-anchor="start" x="1645" y="-80.8" font-family="Times,serif" font-size="14.00">(1 &lt;&lt; ((7 * len) &#45; 1))</text>
</g>
<!-- vlq_base128_le__inst__len&#45;&gt;vlq_base128_le__inst__sign_bit -->
<g id="edge19" class="edge">
<title>vlq_base128_le__inst__len:len_type&#45;&gt;vlq_base128_le__inst__sign_bit</title>
<path fill="none" stroke="#404040" d="M427.88,-62.9C646.57,-68.49 1289.08,-84.91 1560.61,-91.85"/>
<polygon fill="#404040" stroke="#404040" points="1560.81,-95.35 1570.9,-92.11 1560.99,-88.36 1560.81,-95.35"/>
</g>
<!-- vlq_base128_le__inst__value_signed -->
<g id="node5" class="node">
<title>vlq_base128_le__inst__value_signed</title>
<polygon fill="#e0ffe0" stroke="transparent" points="2927,-95 2927,-116 3026,-116 3026,-95 2927,-95"/>
<polygon fill="none" stroke="black" points="2927,-95 2927,-116 3026,-116 3026,-95 2927,-95"/>
<text text-anchor="start" x="2969.5" y="-101.8" font-family="Times,serif" font-size="14.00">id</text>
<polygon fill="#e0ffe0" stroke="transparent" points="3026,-95 3026,-116 3239,-116 3239,-95 3026,-95"/>
<polygon fill="none" stroke="black" points="3026,-95 3026,-116 3239,-116 3239,-95 3026,-95"/>
<text text-anchor="start" x="3113" y="-101.8" font-family="Times,serif" font-size="14.00">value</text>
<polygon fill="none" stroke="black" points="2927,-74 2927,-95 3026,-95 3026,-74 2927,-74"/>
<text text-anchor="start" x="2930" y="-80.8" font-family="Times,serif" font-size="14.00">value_signed</text>
<polygon fill="none" stroke="black" points="3026,-74 3026,-95 3239,-95 3239,-74 3026,-74"/>
<text text-anchor="start" x="3029" y="-80.8" font-family="Times,serif" font-size="14.00">((value ^ sign_bit) &#45; sign_bit)</text>
</g>
<!-- vlq_base128_le__inst__value&#45;&gt;vlq_base128_le__inst__value_signed -->
<g id="edge20" class="edge">
<title>vlq_base128_le__inst__value:value_type&#45;&gt;vlq_base128_le__inst__value_signed</title>
<path fill="none" stroke="#404040" d="M2569.84,-155C2675.52,-148.27 2781.78,-139.76 2883,-129 2901.4,-127.04 2920.68,-124.45 2939.68,-121.56"/>
<polygon fill="#404040" stroke="#404040" points="2940.25,-125.02 2949.59,-120.03 2939.17,-118.1 2940.25,-125.02"/>
</g>
<!-- vlq_base128_le__inst__sign_bit&#45;&gt;vlq_base128_le__inst__value_signed -->
<g id="edge21" class="edge">
<title>vlq_base128_le__inst__sign_bit:sign_bit_type&#45;&gt;vlq_base128_le__inst__value_signed</title>
<path fill="none" stroke="#404040" d="M1799.06,-91.11C2042.67,-87.56 2618.47,-87.32 2908.57,-90.36"/>
<polygon fill="#404040" stroke="#404040" points="2908.73,-93.86 2918.77,-90.47 2908.8,-86.86 2908.73,-93.86"/>
</g>
<!-- vlq_base128_le__inst__sign_bit&#45;&gt;vlq_base128_le__inst__value_signed -->
<g id="edge22" class="edge">
<title>vlq_base128_le__inst__sign_bit:sign_bit_type&#45;&gt;vlq_base128_le__inst__value_signed</title>
<path fill="none" stroke="#404040" d="M1799.06,-98.89C2042.67,-102.44 2618.47,-102.68 2908.57,-99.64"/>
<polygon fill="#404040" stroke="#404040" points="2908.8,-103.14 2918.77,-99.53 2908.73,-96.14 2908.8,-103.14"/>
</g>
<!-- group__inst__has_next -->
<g id="node7" class="node">
<title>group__inst__has_next</title>
<polygon fill="#e0ffe0" stroke="transparent" points="262.5,-129 262.5,-150 332.5,-150 332.5,-129 262.5,-129"/>
<polygon fill="none" stroke="black" points="262.5,-129 262.5,-150 332.5,-150 332.5,-129 262.5,-129"/>
<text text-anchor="start" x="290.5" y="-135.8" font-family="Times,serif" font-size="14.00">id</text>
<polygon fill="#e0ffe0" stroke="transparent" points="332.5,-129 332.5,-150 443.5,-150 443.5,-129 332.5,-129"/>
<polygon fill="none" stroke="black" points="332.5,-129 332.5,-150 443.5,-150 443.5,-129 332.5,-129"/>
<text text-anchor="start" x="368.5" y="-135.8" font-family="Times,serif" font-size="14.00">value</text>
<polygon fill="none" stroke="black" points="262.5,-108 262.5,-129 332.5,-129 332.5,-108 262.5,-108"/>
<text text-anchor="start" x="265.5" y="-114.8" font-family="Times,serif" font-size="14.00">has_next</text>
<polygon fill="none" stroke="black" points="332.5,-108 332.5,-129 443.5,-129 443.5,-108 332.5,-108"/>
<text text-anchor="start" x="335.5" y="-114.8" font-family="Times,serif" font-size="14.00">(b &amp; 128) != 0</text>
</g>
<!-- group__seq&#45;&gt;group__inst__has_next -->
<g id="edge23" class="edge">
<title>group__seq:b_type&#45;&gt;group__inst__has_next</title>
<path fill="none" stroke="#404040" d="M180,-129C200.47,-129 222.31,-129 243.32,-129"/>
<polygon fill="#404040" stroke="#404040" points="243.55,-132.5 253.55,-129 243.55,-125.5 243.55,-132.5"/>
</g>
<!-- group__inst__value -->
<g id="node8" class="node">
<title>group__inst__value</title>
<polygon fill="#e0ffe0" stroke="transparent" points="292.5,-197 292.5,-218 337.5,-218 337.5,-197 292.5,-197"/>
<polygon fill="none" stroke="black" points="292.5,-197 292.5,-218 337.5,-218 337.5,-197 292.5,-197"/>
<text text-anchor="start" x="308" y="-203.8" font-family="Times,serif" font-size="14.00">id</text>
<polygon fill="#e0ffe0" stroke="transparent" points="337.5,-197 337.5,-218 412.5,-218 412.5,-197 337.5,-197"/>
<polygon fill="none" stroke="black" points="337.5,-197 337.5,-218 412.5,-218 412.5,-197 337.5,-197"/>
<text text-anchor="start" x="355.5" y="-203.8" font-family="Times,serif" font-size="14.00">value</text>
<polygon fill="none" stroke="black" points="292.5,-176 292.5,-197 337.5,-197 337.5,-176 292.5,-176"/>
<text text-anchor="start" x="295.5" y="-182.8" font-family="Times,serif" font-size="14.00">value</text>
<polygon fill="none" stroke="black" points="337.5,-176 337.5,-197 412.5,-197 412.5,-176 337.5,-176"/>
<text text-anchor="start" x="340.5" y="-182.8" font-family="Times,serif" font-size="14.00">(b &amp; 127)</text>
</g>
<!-- group__seq&#45;&gt;group__inst__value -->
<g id="edge24" class="edge">
<title>group__seq:b_type&#45;&gt;group__inst__value</title>
<path fill="none" stroke="#404040" d="M180,-129C216.19,-129 220.43,-149.47 254,-163 260.69,-165.7 267.68,-168.38 274.72,-171"/>
<polygon fill="#404040" stroke="#404040" points="273.72,-174.36 284.32,-174.51 276.13,-167.79 273.72,-174.36"/>
</g>
<!-- group__inst__has_next&#45;&gt;vlq_base128_le__seq -->
<g id="edge2" class="edge">
<title>group__inst__has_next:has_next_type&#45;&gt;vlq_base128_le__seq:groups__repeat</title>
<path fill="none" stroke="#404040" d="M259.65,-103.99C257.71,-102.73 255.82,-101.4 254,-100 228.2,-80.2 243.21,-40.14 221.01,-31.62"/>
<polygon fill="#404040" stroke="#404040" points="221.43,-28.14 211,-30 220.31,-35.05 221.43,-28.14"/>
</g>
<!-- group__inst__value&#45;&gt;vlq_base128_le__inst__value -->
<g id="edge4" class="edge">
<title>group__inst__value:value_type&#45;&gt;vlq_base128_le__inst__value</title>
<path fill="none" stroke="#404040" d="M420.85,-173.9C636.25,-139.62 1309.72,-129.29 1575.02,-154"/>
<polygon fill="#404040" stroke="#404040" points="1574.76,-157.49 1585.05,-154.97 1575.44,-150.52 1574.76,-157.49"/>
</g>
<!-- group__inst__value&#45;&gt;vlq_base128_le__inst__value -->
<g id="edge6" class="edge">
<title>group__inst__value:value_type&#45;&gt;vlq_base128_le__inst__value</title>
<path fill="none" stroke="#404040" d="M420.85,-180.25C592.26,-160.14 1053.73,-149.81 1368.77,-154.83"/>
<polygon fill="#404040" stroke="#404040" points="1368.92,-158.33 1378.98,-155 1369.04,-151.33 1368.92,-158.33"/>
</g>
<!-- group__inst__value&#45;&gt;vlq_base128_le__inst__value -->
<g id="edge8" class="edge">
<title>group__inst__value:value_type&#45;&gt;vlq_base128_le__inst__value</title>
<path fill="none" stroke="#404040" d="M420.85,-186.61C437.04,-185.39 455.82,-184.2 476.81,-183.06"/>
<polygon fill="#404040" stroke="#404040" points="477.15,-186.55 486.95,-182.52 476.78,-179.56 477.15,-186.55"/>
</g>
<!-- group__inst__value&#45;&gt;vlq_base128_le__inst__value -->
<g id="edge10" class="edge">
<title>group__inst__value:value_type&#45;&gt;vlq_base128_le__inst__value</title>
<path fill="none" stroke="#404040" d="M420.85,-192.96C437.04,-192.42 455.82,-191.86 476.81,-191.3"/>
<polygon fill="#404040" stroke="#404040" points="477.05,-194.8 486.95,-191.04 476.87,-187.8 477.05,-194.8"/>
</g>
<!-- group__inst__value&#45;&gt;vlq_base128_le__inst__value -->
<g id="edge12" class="edge">
<title>group__inst__value:value_type&#45;&gt;vlq_base128_le__inst__value</title>
<path fill="none" stroke="#404040" d="M420.85,-199.32C437.04,-199.45 455.82,-199.52 476.81,-199.55"/>
<polygon fill="#404040" stroke="#404040" points="476.95,-203.04 486.95,-199.55 476.96,-196.04 476.95,-203.04"/>
</g>
<!-- group__inst__value&#45;&gt;vlq_base128_le__inst__value -->
<g id="edge14" class="edge">
<title>group__inst__value:value_type&#45;&gt;vlq_base128_le__inst__value</title>
<path fill="none" stroke="#404040" d="M420.85,-205.67C567.56,-213 926.76,-211.69 1224.76,-205.23"/>
<polygon fill="#404040" stroke="#404040" points="1224.97,-208.73 1234.89,-205.01 1224.82,-201.73 1224.97,-208.73"/>
</g>
<!-- group__inst__value&#45;&gt;vlq_base128_le__inst__value -->
<g id="edge16" class="edge">
<title>group__inst__value:value_type&#45;&gt;vlq_base128_le__inst__value</title>
<path fill="none" stroke="#404040" d="M420.85,-212.03C620.93,-230.39 1216.25,-225.33 1512.54,-205.72"/>
<polygon fill="#404040" stroke="#404040" points="1513.21,-209.18 1522.95,-205.01 1512.74,-202.19 1513.21,-209.18"/>
</g>
<!-- group__inst__value&#45;&gt;vlq_base128_le__inst__value -->
<g id="edge18" class="edge">
<title>group__inst__value:value_type&#45;&gt;vlq_base128_le__inst__value</title>
<path fill="none" stroke="#404040" d="M420.85,-218.38C641.51,-247.86 1342.87,-239.91 1593.71,-206.44"/>
<polygon fill="#404040" stroke="#404040" points="1594.45,-209.87 1603.88,-205.03 1593.49,-202.93 1594.45,-209.87"/>
</g>
</g>
</svg>
