<?xml version="1.0" encoding="UTF-8" standalone="no"?>
<!DOCTYPE svg PUBLIC "-//W3C//DTD SVG 1.1//EN"
 "http://www.w3.org/Graphics/SVG/1.1/DTD/svg11.dtd">
<!-- Generated by graphviz version 2.38.0 (20140413.2041)
 -->
<!-- Title: %3 Pages: 1 -->
<svg width="621pt" height="258pt"
 viewBox="0.00 0.00 621.00 258.00" xmlns="http://www.w3.org/2000/svg" xmlns:xlink="http://www.w3.org/1999/xlink">
<g id="graph0" class="graph" transform="scale(1 1) rotate(0) translate(4 254)">
<title>%3</title>
<polygon fill="white" stroke="none" points="-4,4 -4,-254 617,-254 617,4 -4,4"/>
<g id="clust1" class="cluster"><title>cluster__andes_firmware</title>
<polygon fill="none" stroke="black" stroke-dasharray="1,5" points="8,-8 8,-242 605,-242 605,-8 8,-8"/>
<text text-anchor="middle" x="306.5" y="-226.8" font-family="Times,serif" font-size="14.00">AndesFirmware</text>
</g>
<g id="clust2" class="cluster"><title>cluster__image_header</title>
<polygon fill="none" stroke="black" stroke-dasharray="1,5" points="16,-16 16,-211 233,-211 233,-16 16,-16"/>
<text text-anchor="middle" x="124.5" y="-195.8" font-family="Times,serif" font-size="14.00">AndesFirmware::ImageHeader</text>
</g>
<!-- andes_firmware__seq -->
<g id="node1" class="node"><title>andes_firmware__seq</title>
<polygon fill="#e0ffe0" stroke="none" points="269,-176 269,-197 294,-197 294,-176 269,-176"/>
<polygon fill="none" stroke="black" points="269,-176 269,-197 294,-197 294,-176 269,-176"/>
<text text-anchor="start" x="272" y="-182.8" font-family="Times,serif" font-size="14.00">pos</text>
<polygon fill="#e0ffe0" stroke="none" points="294,-176 294,-197 426,-197 426,-176 294,-176"/>
<polygon fill="none" stroke="black" points="294,-176 294,-197 426,-197 426,-176 294,-176"/>
<text text-anchor="start" x="349" y="-182.8" font-family="Times,serif" font-size="14.00">size</text>
<polygon fill="#e0ffe0" stroke="none" points="426,-176 426,-197 506,-197 506,-176 426,-176"/>
<polygon fill="none" stroke="black" points="426,-176 426,-197 506,-197 506,-176 426,-176"/>
<text text-anchor="start" x="454" y="-182.8" font-family="Times,serif" font-size="14.00">type</text>
<polygon fill="#e0ffe0" stroke="none" points="506,-176 506,-197 589,-197 589,-176 506,-176"/>
<polygon fill="none" stroke="black" points="506,-176 506,-197 589,-197 589,-176 506,-176"/>
<text text-anchor="start" x="542" y="-182.8" font-family="Times,serif" font-size="14.00">id</text>
<polygon fill="none" stroke="black" points="269,-155 269,-176 294,-176 294,-155 269,-155"/>
<text text-anchor="start" x="278" y="-161.8" font-family="Times,serif" font-size="14.00">0</text>
<polygon fill="none" stroke="black" points="294,-155 294,-176 426,-176 426,-155 294,-155"/>
<text text-anchor="start" x="353" y="-161.8" font-family="Times,serif" font-size="14.00">32</text>
<polygon fill="none" stroke="black" points="426,-155 426,-176 506,-176 506,-155 426,-155"/>
<text text-anchor="start" x="429" y="-161.8" font-family="Times,serif" font-size="14.00">ImageHeader</text>
<polygon fill="none" stroke="black" points="506,-155 506,-176 589,-176 589,-155 506,-155"/>
<text text-anchor="start" x="509" y="-161.8" font-family="Times,serif" font-size="14.00">image_header</text>
<polygon fill="none" stroke="black" points="269,-134 269,-155 294,-155 294,-134 269,-134"/>
<text text-anchor="start" x="274.5" y="-140.8" font-family="Times,serif" font-size="14.00">32</text>
<polygon fill="none" stroke="black" points="294,-134 294,-155 426,-155 426,-134 294,-134"/>
<text text-anchor="start" x="298.5" y="-140.8" font-family="Times,serif" font-size="14.00">image_header.ilm_len</text>
<polygon fill="none" stroke="black" points="426,-134 426,-155 506,-155 506,-134 426,-134"/>
<polygon fill="none" stroke="black" points="506,-134 506,-155 589,-155 589,-134 506,-134"/>
<text text-anchor="start" x="538" y="-140.8" font-family="Times,serif" font-size="14.00">ilm</text>
<polygon fill="none" stroke="black" points="269,-113 269,-134 294,-134 294,-113 269,-113"/>
<text text-anchor="start" x="275.5" y="-119.8" font-family="Times,serif" font-size="14.00">...</text>
<polygon fill="none" stroke="black" points="294,-113 294,-134 426,-134 426,-113 294,-113"/>
<text text-anchor="start" x="297" y="-119.8" font-family="Times,serif" font-size="14.00">image_header.dlm_len</text>
<polygon fill="none" stroke="black" points="426,-113 426,-134 506,-134 506,-113 426,-113"/>
<polygon fill="none" stroke="black" points="506,-113 506,-134 589,-134 589,-113 506,-113"/>
<text text-anchor="start" x="536.5" y="-119.8" font-family="Times,serif" font-size="14.00">dlm</text>
</g>
<!-- image_header__seq -->
<g id="node2" class="node"><title>image_header__seq</title>
<polygon fill="#e0ffe0" stroke="none" points="32.5,-154 32.5,-175 57.5,-175 57.5,-154 32.5,-154"/>
<polygon fill="none" stroke="black" points="32.5,-154 32.5,-175 57.5,-175 57.5,-154 32.5,-154"/>
<text text-anchor="start" x="35.5" y="-160.8" font-family="Times,serif" font-size="14.00">pos</text>
<polygon fill="#e0ffe0" stroke="none" points="57.5,-154 57.5,-175 85.5,-175 85.5,-154 57.5,-154"/>
<polygon fill="none" stroke="black" points="57.5,-154 57.5,-175 85.5,-175 85.5,-154 57.5,-154"/>
<text text-anchor="start" x="60.5" y="-160.8" font-family="Times,serif" font-size="14.00">size</text>
<polygon fill="#e0ffe0" stroke="none" points="85.5,-154 85.5,-175 151.5,-175 151.5,-154 85.5,-154"/>
<polygon fill="none" stroke="black" points="85.5,-154 85.5,-175 151.5,-175 151.5,-154 85.5,-154"/>
<text text-anchor="start" x="106.5" y="-160.8" font-family="Times,serif" font-size="14.00">type</text>
<polygon fill="#e0ffe0" stroke="none" points="151.5,-154 151.5,-175 217.5,-175 217.5,-154 151.5,-154"/>
<polygon fill="none" stroke="black" points="151.5,-154 151.5,-175 217.5,-175 217.5,-154 151.5,-154"/>
<text text-anchor="start" x="179" y="-160.8" font-family="Times,serif" font-size="14.00">id</text>
<polygon fill="none" stroke="black" points="32.5,-133 32.5,-154 57.5,-154 57.5,-133 32.5,-133"/>
<text text-anchor="start" x="41.5" y="-139.8" font-family="Times,serif" font-size="14.00">0</text>
<polygon fill="none" stroke="black" points="57.5,-133 57.5,-154 85.5,-154 85.5,-133 57.5,-133"/>
<text text-anchor="start" x="68" y="-139.8" font-family="Times,serif" font-size="14.00">4</text>
<polygon fill="none" stroke="black" points="85.5,-133 85.5,-154 151.5,-154 151.5,-133 85.5,-133"/>
<text text-anchor="start" x="106.5" y="-139.8" font-family="Times,serif" font-size="14.00">u4le</text>
<polygon fill="none" stroke="black" points="151.5,-133 151.5,-154 217.5,-154 217.5,-133 151.5,-133"/>
<text text-anchor="start" x="163" y="-139.8" font-family="Times,serif" font-size="14.00">ilm_len</text>
<polygon fill="none" stroke="black" points="32.5,-112 32.5,-133 57.5,-133 57.5,-112 32.5,-112"/>
<text text-anchor="start" x="41.5" y="-118.8" font-family="Times,serif" font-size="14.00">4</text>
<polygon fill="none" stroke="black" points="57.5,-112 57.5,-133 85.5,-133 85.5,-112 57.5,-112"/>
<text text-anchor="start" x="68" y="-118.8" font-family="Times,serif" font-size="14.00">4</text>
<polygon fill="none" stroke="black" points="85.5,-112 85.5,-133 151.5,-133 151.5,-112 85.5,-112"/>
<text text-anchor="start" x="106.5" y="-118.8" font-family="Times,serif" font-size="14.00">u4le</text>
<polygon fill="none" stroke="black" points="151.5,-112 151.5,-133 217.5,-133 217.5,-112 151.5,-112"/>
<text text-anchor="start" x="161.5" y="-118.8" font-family="Times,serif" font-size="14.00">dlm_len</text>
<polygon fill="none" stroke="black" points="32.5,-91 32.5,-112 57.5,-112 57.5,-91 32.5,-91"/>
<text text-anchor="start" x="41.5" y="-97.8" font-family="Times,serif" font-size="14.00">8</text>
<polygon fill="none" stroke="black" points="57.5,-91 57.5,-112 85.5,-112 85.5,-91 57.5,-91"/>
<text text-anchor="start" x="68" y="-97.8" font-family="Times,serif" font-size="14.00">2</text>
<polygon fill="none" stroke="black" points="85.5,-91 85.5,-112 151.5,-112 151.5,-91 85.5,-91"/>
<text text-anchor="start" x="106.5" y="-97.8" font-family="Times,serif" font-size="14.00">u2le</text>
<polygon fill="none" stroke="black" points="151.5,-91 151.5,-112 217.5,-112 217.5,-91 151.5,-91"/>
<text text-anchor="start" x="165" y="-97.8" font-family="Times,serif" font-size="14.00">fw_ver</text>
<polygon fill="none" stroke="black" points="32.5,-70 32.5,-91 57.5,-91 57.5,-70 32.5,-70"/>
<text text-anchor="start" x="38" y="-76.8" font-family="Times,serif" font-size="14.00">10</text>
<polygon fill="none" stroke="black" points="57.5,-70 57.5,-91 85.5,-91 85.5,-70 57.5,-70"/>
<text text-anchor="start" x="68" y="-76.8" font-family="Times,serif" font-size="14.00">2</text>
<polygon fill="none" stroke="black" points="85.5,-70 85.5,-91 151.5,-91 151.5,-70 85.5,-70"/>
<text text-anchor="start" x="106.5" y="-76.8" font-family="Times,serif" font-size="14.00">u2le</text>
<polygon fill="none" stroke="black" points="151.5,-70 151.5,-91 217.5,-91 217.5,-70 151.5,-70"/>
<text text-anchor="start" x="158.5" y="-76.8" font-family="Times,serif" font-size="14.00">build_ver</text>
<polygon fill="none" stroke="black" points="32.5,-49 32.5,-70 57.5,-70 57.5,-49 32.5,-49"/>
<text text-anchor="start" x="38" y="-55.8" font-family="Times,serif" font-size="14.00">12</text>
<polygon fill="none" stroke="black" points="57.5,-49 57.5,-70 85.5,-70 85.5,-49 57.5,-49"/>
<text text-anchor="start" x="68" y="-55.8" font-family="Times,serif" font-size="14.00">4</text>
<polygon fill="none" stroke="black" points="85.5,-49 85.5,-70 151.5,-70 151.5,-49 85.5,-49"/>
<text text-anchor="start" x="106.5" y="-55.8" font-family="Times,serif" font-size="14.00">u4le</text>
<polygon fill="none" stroke="black" points="151.5,-49 151.5,-70 217.5,-70 217.5,-49 151.5,-49"/>
<text text-anchor="start" x="170.5" y="-55.8" font-family="Times,serif" font-size="14.00">extra</text>
<polygon fill="none" stroke="black" points="32.5,-28 32.5,-49 57.5,-49 57.5,-28 32.5,-28"/>
<text text-anchor="start" x="38" y="-34.8" font-family="Times,serif" font-size="14.00">16</text>
<polygon fill="none" stroke="black" points="57.5,-28 57.5,-49 85.5,-49 85.5,-28 57.5,-28"/>
<text text-anchor="start" x="64.5" y="-34.8" font-family="Times,serif" font-size="14.00">16</text>
<polygon fill="none" stroke="black" points="85.5,-28 85.5,-49 151.5,-49 151.5,-28 85.5,-28"/>
<text text-anchor="start" x="88.5" y="-34.8" font-family="Times,serif" font-size="14.00">str(UTF&#45;8)</text>
<polygon fill="none" stroke="black" points="151.5,-28 151.5,-49 217.5,-49 217.5,-28 151.5,-28"/>
<text text-anchor="start" x="154.5" y="-34.8" font-family="Times,serif" font-size="14.00">build_time</text>
</g>
<!-- andes_firmware__seq&#45;&gt;image_header__seq -->
<g id="edge1" class="edge"><title>andes_firmware__seq:image_header_type&#45;&gt;image_header__seq</title>
<path fill="none" stroke="black" stroke-width="2" d="M590,-166C605.562,-166 600.16,-190.154 589,-201 562.864,-226.399 295.646,-212.308 261,-201 248.641,-196.966 236.473,-191.33 224.805,-184.773"/>
<polygon fill="black" stroke="black" stroke-width="2" points="226.381,-181.64 215.986,-179.591 222.834,-187.675 226.381,-181.64"/>
</g>
<!-- image_header__seq&#45;&gt;andes_firmware__seq -->
<g id="edge2" class="edge"><title>image_header__seq:ilm_len_type&#45;&gt;andes_firmware__seq:ilm_size</title>
<path fill="none" stroke="#404040" d="M218.5,-144C239.672,-144 262.638,-144 283.748,-144"/>
<polygon fill="#404040" stroke="#404040" points="283.947,-147.5 293.947,-144 283.947,-140.5 283.947,-147.5"/>
</g>
<!-- image_header__seq&#45;&gt;andes_firmware__seq -->
<g id="edge3" class="edge"><title>image_header__seq:dlm_len_type&#45;&gt;andes_firmware__seq:dlm_size</title>
<path fill="none" stroke="#404040" d="M218.5,-123C237.905,-123 241.736,-115.334 261,-113 300.758,-108.182 350.154,-74.8551 358.709,-102.081"/>
<polygon fill="#404040" stroke="#404040" points="355.238,-102.535 360,-112 362.18,-101.632 355.238,-102.535"/>
</g>
</g>
</svg>
