<?xml version="1.0" encoding="UTF-8" standalone="no"?>
<!DOCTYPE svg PUBLIC "-//W3C//DTD SVG 1.1//EN"
 "http://www.w3.org/Graphics/SVG/1.1/DTD/svg11.dtd">
<!-- Generated by graphviz version 2.43.0 (0)
 -->
<!-- Title: %3 Pages: 1 -->
<svg width="749pt" height="258pt"
 viewBox="0.00 0.00 749.00 258.00" xmlns="http://www.w3.org/2000/svg" xmlns:xlink="http://www.w3.org/1999/xlink">
<g id="graph0" class="graph" transform="scale(1 1) rotate(0) translate(4 254)">
<title>%3</title>
<polygon fill="white" stroke="transparent" points="-4,4 -4,-254 745,-254 745,4 -4,4"/>
<g id="clust1" class="cluster">
<title>cluster__andes_firmware</title>
<polygon fill="none" stroke="black" stroke-dasharray="1,5" points="8,-8 8,-242 733,-242 733,-8 8,-8"/>
<text text-anchor="middle" x="370.5" y="-226.8" font-family="Times,serif" font-size="14.00">AndesFirmware</text>
</g>
<g id="clust2" class="cluster">
<title>cluster__image_header</title>
<polygon fill="none" stroke="black" stroke-dasharray="1,5" points="16,-16 16,-211 276,-211 276,-16 16,-16"/>
<text text-anchor="middle" x="146" y="-195.8" font-family="Times,serif" font-size="14.00">AndesFirmware::ImageHeader</text>
</g>
<!-- andes_firmware__seq -->
<g id="node1" class="node">
<title>andes_firmware__seq</title>
<polygon fill="#e0ffe0" stroke="transparent" points="312.5,-176 312.5,-197 343.5,-197 343.5,-176 312.5,-176"/>
<polygon fill="none" stroke="black" points="312.5,-176 312.5,-197 343.5,-197 343.5,-176 312.5,-176"/>
<text text-anchor="start" x="315.5" y="-182.8" font-family="Times,serif" font-size="14.00">pos</text>
<polygon fill="#e0ffe0" stroke="transparent" points="343.5,-176 343.5,-197 508.5,-197 508.5,-176 343.5,-176"/>
<polygon fill="none" stroke="black" points="343.5,-176 343.5,-197 508.5,-197 508.5,-176 343.5,-176"/>
<text text-anchor="start" x="412" y="-182.8" font-family="Times,serif" font-size="14.00">size</text>
<polygon fill="#e0ffe0" stroke="transparent" points="508.5,-176 508.5,-197 611.5,-197 611.5,-176 508.5,-176"/>
<polygon fill="none" stroke="black" points="508.5,-176 508.5,-197 611.5,-197 611.5,-176 508.5,-176"/>
<text text-anchor="start" x="544" y="-182.8" font-family="Times,serif" font-size="14.00">type</text>
<polygon fill="#e0ffe0" stroke="transparent" points="611.5,-176 611.5,-197 717.5,-197 717.5,-176 611.5,-176"/>
<polygon fill="none" stroke="black" points="611.5,-176 611.5,-197 717.5,-197 717.5,-176 611.5,-176"/>
<text text-anchor="start" x="657.5" y="-182.8" font-family="Times,serif" font-size="14.00">id</text>
<polygon fill="none" stroke="black" points="312.5,-155 312.5,-176 343.5,-176 343.5,-155 312.5,-155"/>
<text text-anchor="start" x="323" y="-161.8" font-family="Times,serif" font-size="14.00">0</text>
<polygon fill="none" stroke="black" points="343.5,-155 343.5,-176 508.5,-176 508.5,-155 343.5,-155"/>
<text text-anchor="start" x="416.5" y="-161.8" font-family="Times,serif" font-size="14.00">32</text>
<polygon fill="none" stroke="black" points="508.5,-155 508.5,-176 611.5,-176 611.5,-155 508.5,-155"/>
<text text-anchor="start" x="511.5" y="-161.8" font-family="Times,serif" font-size="14.00">ImageHeader</text>
<polygon fill="none" stroke="black" points="611.5,-155 611.5,-176 717.5,-176 717.5,-155 611.5,-155"/>
<text text-anchor="start" x="614.5" y="-161.8" font-family="Times,serif" font-size="14.00">image_header</text>
<polygon fill="none" stroke="black" points="312.5,-134 312.5,-155 343.5,-155 343.5,-134 312.5,-134"/>
<text text-anchor="start" x="318.5" y="-140.8" font-family="Times,serif" font-size="14.00">32</text>
<polygon fill="none" stroke="black" points="343.5,-134 343.5,-155 508.5,-155 508.5,-134 343.5,-134"/>
<text text-anchor="start" x="349" y="-140.8" font-family="Times,serif" font-size="14.00">image_header.ilm_len</text>
<polygon fill="none" stroke="black" points="508.5,-134 508.5,-155 611.5,-155 611.5,-134 508.5,-134"/>
<polygon fill="none" stroke="black" points="611.5,-134 611.5,-155 717.5,-155 717.5,-134 611.5,-134"/>
<text text-anchor="start" x="653" y="-140.8" font-family="Times,serif" font-size="14.00">ilm</text>
<polygon fill="none" stroke="black" points="312.5,-113 312.5,-134 343.5,-134 343.5,-113 312.5,-113"/>
<text text-anchor="start" x="321" y="-119.8" font-family="Times,serif" font-size="14.00">...</text>
<polygon fill="none" stroke="black" points="343.5,-113 343.5,-134 508.5,-134 508.5,-113 343.5,-113"/>
<text text-anchor="start" x="346.5" y="-119.8" font-family="Times,serif" font-size="14.00">image_header.dlm_len</text>
<polygon fill="none" stroke="black" points="508.5,-113 508.5,-134 611.5,-134 611.5,-113 508.5,-113"/>
<polygon fill="none" stroke="black" points="611.5,-113 611.5,-134 717.5,-134 717.5,-113 611.5,-113"/>
<text text-anchor="start" x="650.5" y="-119.8" font-family="Times,serif" font-size="14.00">dlm</text>
</g>
<!-- image_header__seq -->
<g id="node2" class="node">
<title>image_header__seq</title>
<polygon fill="#e0ffe0" stroke="transparent" points="32,-154 32,-175 63,-175 63,-154 32,-154"/>
<polygon fill="none" stroke="black" points="32,-154 32,-175 63,-175 63,-154 32,-154"/>
<text text-anchor="start" x="35" y="-160.8" font-family="Times,serif" font-size="14.00">pos</text>
<polygon fill="#e0ffe0" stroke="transparent" points="63,-154 63,-175 97,-175 97,-154 63,-154"/>
<polygon fill="none" stroke="black" points="63,-154 63,-175 97,-175 97,-154 63,-154"/>
<text text-anchor="start" x="66" y="-160.8" font-family="Times,serif" font-size="14.00">size</text>
<polygon fill="#e0ffe0" stroke="transparent" points="97,-154 97,-175 178,-175 178,-154 97,-154"/>
<polygon fill="none" stroke="black" points="97,-154 97,-175 178,-175 178,-154 97,-154"/>
<text text-anchor="start" x="121.5" y="-160.8" font-family="Times,serif" font-size="14.00">type</text>
<polygon fill="#e0ffe0" stroke="transparent" points="178,-154 178,-175 260,-175 260,-154 178,-154"/>
<polygon fill="none" stroke="black" points="178,-154 178,-175 260,-175 260,-154 178,-154"/>
<text text-anchor="start" x="212" y="-160.8" font-family="Times,serif" font-size="14.00">id</text>
<polygon fill="none" stroke="black" points="32,-133 32,-154 63,-154 63,-133 32,-133"/>
<text text-anchor="start" x="42.5" y="-139.8" font-family="Times,serif" font-size="14.00">0</text>
<polygon fill="none" stroke="black" points="63,-133 63,-154 97,-154 97,-133 63,-133"/>
<text text-anchor="start" x="75" y="-139.8" font-family="Times,serif" font-size="14.00">4</text>
<polygon fill="none" stroke="black" points="97,-133 97,-154 178,-154 178,-133 97,-133"/>
<text text-anchor="start" x="122" y="-139.8" font-family="Times,serif" font-size="14.00">u4le</text>
<polygon fill="none" stroke="black" points="178,-133 178,-154 260,-154 260,-133 178,-133"/>
<text text-anchor="start" x="193" y="-139.8" font-family="Times,serif" font-size="14.00">ilm_len</text>
<polygon fill="none" stroke="black" points="32,-112 32,-133 63,-133 63,-112 32,-112"/>
<text text-anchor="start" x="42.5" y="-118.8" font-family="Times,serif" font-size="14.00">4</text>
<polygon fill="none" stroke="black" points="63,-112 63,-133 97,-133 97,-112 63,-112"/>
<text text-anchor="start" x="75" y="-118.8" font-family="Times,serif" font-size="14.00">4</text>
<polygon fill="none" stroke="black" points="97,-112 97,-133 178,-133 178,-112 97,-112"/>
<text text-anchor="start" x="122" y="-118.8" font-family="Times,serif" font-size="14.00">u4le</text>
<polygon fill="none" stroke="black" points="178,-112 178,-133 260,-133 260,-112 178,-112"/>
<text text-anchor="start" x="191" y="-118.8" font-family="Times,serif" font-size="14.00">dlm_len</text>
<polygon fill="none" stroke="black" points="32,-91 32,-112 63,-112 63,-91 32,-91"/>
<text text-anchor="start" x="42.5" y="-97.8" font-family="Times,serif" font-size="14.00">8</text>
<polygon fill="none" stroke="black" points="63,-91 63,-112 97,-112 97,-91 63,-91"/>
<text text-anchor="start" x="75" y="-97.8" font-family="Times,serif" font-size="14.00">2</text>
<polygon fill="none" stroke="black" points="97,-91 97,-112 178,-112 178,-91 97,-91"/>
<text text-anchor="start" x="122" y="-97.8" font-family="Times,serif" font-size="14.00">u2le</text>
<polygon fill="none" stroke="black" points="178,-91 178,-112 260,-112 260,-91 178,-91"/>
<text text-anchor="start" x="195" y="-97.8" font-family="Times,serif" font-size="14.00">fw_ver</text>
<polygon fill="none" stroke="black" points="32,-70 32,-91 63,-91 63,-70 32,-70"/>
<text text-anchor="start" x="38" y="-76.8" font-family="Times,serif" font-size="14.00">10</text>
<polygon fill="none" stroke="black" points="63,-70 63,-91 97,-91 97,-70 63,-70"/>
<text text-anchor="start" x="75" y="-76.8" font-family="Times,serif" font-size="14.00">2</text>
<polygon fill="none" stroke="black" points="97,-70 97,-91 178,-91 178,-70 97,-70"/>
<text text-anchor="start" x="122" y="-76.8" font-family="Times,serif" font-size="14.00">u2le</text>
<polygon fill="none" stroke="black" points="178,-70 178,-91 260,-91 260,-70 178,-70"/>
<text text-anchor="start" x="185.5" y="-76.8" font-family="Times,serif" font-size="14.00">build_ver</text>
<polygon fill="none" stroke="black" points="32,-49 32,-70 63,-70 63,-49 32,-49"/>
<text text-anchor="start" x="38" y="-55.8" font-family="Times,serif" font-size="14.00">12</text>
<polygon fill="none" stroke="black" points="63,-49 63,-70 97,-70 97,-49 63,-49"/>
<text text-anchor="start" x="75" y="-55.8" font-family="Times,serif" font-size="14.00">4</text>
<polygon fill="none" stroke="black" points="97,-49 97,-70 178,-70 178,-49 97,-49"/>
<text text-anchor="start" x="122" y="-55.8" font-family="Times,serif" font-size="14.00">u4le</text>
<polygon fill="none" stroke="black" points="178,-49 178,-70 260,-70 260,-49 178,-49"/>
<text text-anchor="start" x="200" y="-55.8" font-family="Times,serif" font-size="14.00">extra</text>
<polygon fill="none" stroke="black" points="32,-28 32,-49 63,-49 63,-28 32,-28"/>
<text text-anchor="start" x="38" y="-34.8" font-family="Times,serif" font-size="14.00">16</text>
<polygon fill="none" stroke="black" points="63,-28 63,-49 97,-49 97,-28 63,-28"/>
<text text-anchor="start" x="70.5" y="-34.8" font-family="Times,serif" font-size="14.00">16</text>
<polygon fill="none" stroke="black" points="97,-28 97,-49 178,-49 178,-28 97,-28"/>
<text text-anchor="start" x="100" y="-34.8" font-family="Times,serif" font-size="14.00">str(UTF&#45;8)</text>
<polygon fill="none" stroke="black" points="178,-28 178,-49 260,-49 260,-28 178,-28"/>
<text text-anchor="start" x="181" y="-34.8" font-family="Times,serif" font-size="14.00">build_time</text>
</g>
<!-- andes_firmware__seq&#45;&gt;image_header__seq -->
<g id="edge1" class="edge">
<title>andes_firmware__seq:image_header_type&#45;&gt;image_header__seq</title>
<path fill="none" stroke="black" stroke-width="2" d="M718.5,-166C734.06,-166 728.66,-190.15 717.5,-201 701.03,-217.01 326.07,-207.38 304,-201 289.78,-196.89 275.61,-191.07 261.92,-184.28"/>
<polygon fill="black" stroke="black" stroke-width="2" points="263.5,-181.15 253.01,-179.69 260.29,-187.38 263.5,-181.15"/>
</g>
<!-- image_header__seq&#45;&gt;andes_firmware__seq -->
<g id="edge2" class="edge">
<title>image_header__seq:ilm_len_type&#45;&gt;andes_firmware__seq:ilm_size</title>
<path fill="none" stroke="#404040" d="M261,-144C284.37,-144 309.61,-144 333.11,-144"/>
<polygon fill="#404040" stroke="#404040" points="333.42,-147.5 343.42,-144 333.42,-140.5 333.42,-147.5"/>
</g>
<!-- image_header__seq&#45;&gt;andes_firmware__seq -->
<g id="edge3" class="edge">
<title>image_header__seq:dlm_len_type&#45;&gt;andes_firmware__seq:dlm_size</title>
<path fill="none" stroke="#404040" d="M261,-123C280.62,-123 284.52,-115.32 304,-113 353.64,-107.1 415.5,-64.98 424.41,-101.61"/>
<polygon fill="#404040" stroke="#404040" points="420.98,-102.42 425.5,-112 427.94,-101.69 420.98,-102.42"/>
</g>
</g>
</svg>
