<?xml version="1.0" encoding="UTF-8" standalone="no"?>
<!DOCTYPE svg PUBLIC "-//W3C//DTD SVG 1.1//EN"
 "http://www.w3.org/Graphics/SVG/1.1/DTD/svg11.dtd">
<!-- Generated by graphviz version 2.38.0 (20140413.2041)
 -->
<!-- Title: %3 Pages: 1 -->
<svg width="1800pt" height="873pt"
 viewBox="0.00 0.00 1800.00 872.82" xmlns="http://www.w3.org/2000/svg" xmlns:xlink="http://www.w3.org/1999/xlink">
<g id="graph0" class="graph" transform="scale(1 1) rotate(0) translate(4 868.817)">
<title>%3</title>
<polygon fill="white" stroke="none" points="-4,4 -4,-868.817 1796,-868.817 1796,4 -4,4"/>
<g id="clust1" class="cluster"><title>cluster__avi</title>
<polygon fill="none" stroke="black" stroke-dasharray="1,5" points="8,-28.8168 8,-856.817 1784,-856.817 1784,-28.8168 8,-28.8168"/>
<text text-anchor="middle" x="896" y="-841.617" font-family="Times,serif" font-size="14.00">Avi</text>
</g>
<g id="clust2" class="cluster"><title>cluster__list_body</title>
<polygon fill="none" stroke="black" stroke-dasharray="1,5" points="1212.5,-36.8168 1212.5,-147.817 1508.5,-147.817 1508.5,-36.8168 1212.5,-36.8168"/>
<text text-anchor="middle" x="1360.5" y="-132.617" font-family="Times,serif" font-size="14.00">Avi::ListBody</text>
</g>
<g id="clust3" class="cluster"><title>cluster__rect</title>
<polygon fill="none" stroke="black" stroke-dasharray="1,5" points="1583,-112.817 1583,-265.817 1776,-265.817 1776,-112.817 1583,-112.817"/>
<text text-anchor="middle" x="1679.5" y="-250.617" font-family="Times,serif" font-size="14.00">Avi::Rect</text>
</g>
<g id="clust4" class="cluster"><title>cluster__blocks</title>
<polygon fill="none" stroke="black" stroke-dasharray="1,5" points="344,-63.8168 344,-174.817 551,-174.817 551,-63.8168 344,-63.8168"/>
<text text-anchor="middle" x="447.5" y="-159.617" font-family="Times,serif" font-size="14.00">Avi::Blocks</text>
</g>
<g id="clust5" class="cluster"><title>cluster__avih_body</title>
<polygon fill="none" stroke="black" stroke-dasharray="1,5" points="1210,-526.817 1210,-825.817 1511,-825.817 1511,-526.817 1210,-526.817"/>
<text text-anchor="middle" x="1360.5" y="-810.617" font-family="Times,serif" font-size="14.00">Avi::AvihBody</text>
</g>
<g id="clust6" class="cluster"><title>cluster__block</title>
<polygon fill="none" stroke="black" stroke-dasharray="1,5" points="571,-80.8168 571,-229.817 1138,-229.817 1138,-80.8168 571,-80.8168"/>
<text text-anchor="middle" x="854.5" y="-214.617" font-family="Times,serif" font-size="14.00">Avi::Block</text>
</g>
<g id="clust7" class="cluster"><title>cluster__strh_body</title>
<polygon fill="none" stroke="black" stroke-dasharray="1,5" points="1158,-155.817 1158,-518.817 1563,-518.817 1563,-155.817 1158,-155.817"/>
<text text-anchor="middle" x="1360.5" y="-503.617" font-family="Times,serif" font-size="14.00">Avi::StrhBody</text>
</g>
<g id="clust8" class="cluster"><title>cluster__strf_body</title>
<polygon fill="none" stroke="black" stroke-dasharray="1,5" points="88.5,-506.817 88.5,-581.817 243.5,-581.817 243.5,-506.817 88.5,-506.817"/>
<text text-anchor="middle" x="166" y="-566.617" font-family="Times,serif" font-size="14.00">Avi::StrfBody</text>
</g>
<!-- avi__seq -->
<g id="node1" class="node"><title>avi__seq</title>
<polygon fill="#e0ffe0" stroke="none" points="24,-181.817 24,-202.817 55,-202.817 55,-181.817 24,-181.817"/>
<polygon fill="none" stroke="black" points="24,-181.817 24,-202.817 55,-202.817 55,-181.817 24,-181.817"/>
<text text-anchor="start" x="27" y="-188.617" font-family="Times,serif" font-size="14.00">pos</text>
<polygon fill="#e0ffe0" stroke="none" points="55,-181.817 55,-202.817 152,-202.817 152,-181.817 55,-181.817"/>
<polygon fill="none" stroke="black" points="55,-181.817 55,-202.817 152,-202.817 152,-181.817 55,-181.817"/>
<text text-anchor="start" x="89.5" y="-188.617" font-family="Times,serif" font-size="14.00">size</text>
<polygon fill="#e0ffe0" stroke="none" points="152,-181.817 152,-202.817 244,-202.817 244,-181.817 152,-181.817"/>
<polygon fill="none" stroke="black" points="152,-181.817 152,-202.817 244,-202.817 244,-181.817 152,-181.817"/>
<text text-anchor="start" x="182" y="-188.617" font-family="Times,serif" font-size="14.00">type</text>
<polygon fill="#e0ffe0" stroke="none" points="244,-181.817 244,-202.817 308,-202.817 308,-181.817 244,-181.817"/>
<polygon fill="none" stroke="black" points="244,-181.817 244,-202.817 308,-202.817 308,-181.817 244,-181.817"/>
<text text-anchor="start" x="269" y="-188.617" font-family="Times,serif" font-size="14.00">id</text>
<polygon fill="none" stroke="black" points="24,-160.817 24,-181.817 55,-181.817 55,-160.817 24,-160.817"/>
<text text-anchor="start" x="34.5" y="-167.617" font-family="Times,serif" font-size="14.00">0</text>
<polygon fill="none" stroke="black" points="55,-160.817 55,-181.817 152,-181.817 152,-160.817 55,-160.817"/>
<text text-anchor="start" x="98.5" y="-167.617" font-family="Times,serif" font-size="14.00">4</text>
<polygon fill="none" stroke="black" points="152,-160.817 152,-181.817 244,-181.817 244,-160.817 152,-160.817"/>
<text text-anchor="start" x="155" y="-167.617" font-family="Times,serif" font-size="14.00">52 49 46 46</text>
<polygon fill="none" stroke="black" points="244,-160.817 244,-181.817 308,-181.817 308,-160.817 244,-160.817"/>
<text text-anchor="start" x="249.5" y="-167.617" font-family="Times,serif" font-size="14.00">magic1</text>
<polygon fill="none" stroke="black" points="24,-139.817 24,-160.817 55,-160.817 55,-139.817 24,-139.817"/>
<text text-anchor="start" x="34.5" y="-146.617" font-family="Times,serif" font-size="14.00">4</text>
<polygon fill="none" stroke="black" points="55,-139.817 55,-160.817 152,-160.817 152,-139.817 55,-139.817"/>
<text text-anchor="start" x="98.5" y="-146.617" font-family="Times,serif" font-size="14.00">4</text>
<polygon fill="none" stroke="black" points="152,-139.817 152,-160.817 244,-160.817 244,-139.817 152,-139.817"/>
<text text-anchor="start" x="182.5" y="-146.617" font-family="Times,serif" font-size="14.00">u4le</text>
<polygon fill="none" stroke="black" points="244,-139.817 244,-160.817 308,-160.817 308,-139.817 244,-139.817"/>
<text text-anchor="start" x="247" y="-146.617" font-family="Times,serif" font-size="14.00">file_size</text>
<polygon fill="none" stroke="black" points="24,-118.817 24,-139.817 55,-139.817 55,-118.817 24,-118.817"/>
<text text-anchor="start" x="34.5" y="-125.617" font-family="Times,serif" font-size="14.00">8</text>
<polygon fill="none" stroke="black" points="55,-118.817 55,-139.817 152,-139.817 152,-118.817 55,-118.817"/>
<text text-anchor="start" x="98.5" y="-125.617" font-family="Times,serif" font-size="14.00">4</text>
<polygon fill="none" stroke="black" points="152,-118.817 152,-139.817 244,-139.817 244,-118.817 152,-118.817"/>
<text text-anchor="start" x="155" y="-125.617" font-family="Times,serif" font-size="14.00">41 56 49 20</text>
<polygon fill="none" stroke="black" points="244,-118.817 244,-139.817 308,-139.817 308,-118.817 244,-118.817"/>
<text text-anchor="start" x="249.5" y="-125.617" font-family="Times,serif" font-size="14.00">magic2</text>
<polygon fill="none" stroke="black" points="24,-97.8168 24,-118.817 55,-118.817 55,-97.8168 24,-97.8168"/>
<text text-anchor="start" x="30" y="-104.617" font-family="Times,serif" font-size="14.00">12</text>
<polygon fill="none" stroke="black" points="55,-97.8168 55,-118.817 152,-118.817 152,-97.8168 55,-97.8168"/>
<text text-anchor="start" x="58" y="-104.617" font-family="Times,serif" font-size="14.00">(file_size &#45; 4)</text>
<polygon fill="none" stroke="black" points="152,-97.8168 152,-118.817 244,-118.817 244,-97.8168 152,-97.8168"/>
<text text-anchor="start" x="173.5" y="-104.617" font-family="Times,serif" font-size="14.00">Blocks</text>
<polygon fill="none" stroke="black" points="244,-97.8168 244,-118.817 308,-118.817 308,-97.8168 244,-97.8168"/>
<text text-anchor="start" x="260" y="-104.617" font-family="Times,serif" font-size="14.00">data</text>
</g>
<!-- avi__seq&#45;&gt;avi__seq -->
<g id="edge1" class="edge"><title>avi__seq:file_size_type&#45;&gt;avi__seq:data_size</title>
<path fill="none" stroke="#404040" d="M299.984,-160.899C343.239,-187.215 325.215,-225.317 189.5,-225.317 59.6883,-225.317 37.5512,-161.561 73.7243,-125.643"/>
<polygon fill="#404040" stroke="#404040" points="76.3606,-127.997 81.7217,-118.858 71.832,-122.659 76.3606,-127.997"/>
</g>
<!-- blocks__seq -->
<g id="node4" class="node"><title>blocks__seq</title>
<polygon fill="#e0ffe0" stroke="none" points="360.5,-117.817 360.5,-138.817 394.5,-138.817 394.5,-117.817 360.5,-117.817"/>
<polygon fill="none" stroke="black" points="360.5,-117.817 360.5,-138.817 394.5,-138.817 394.5,-117.817 360.5,-117.817"/>
<text text-anchor="start" x="365" y="-124.617" font-family="Times,serif" font-size="14.00">pos</text>
<polygon fill="#e0ffe0" stroke="none" points="394.5,-117.817 394.5,-138.817 429.5,-138.817 429.5,-117.817 394.5,-117.817"/>
<polygon fill="none" stroke="black" points="394.5,-117.817 394.5,-138.817 429.5,-138.817 429.5,-117.817 394.5,-117.817"/>
<text text-anchor="start" x="398" y="-124.617" font-family="Times,serif" font-size="14.00">size</text>
<polygon fill="#e0ffe0" stroke="none" points="429.5,-117.817 429.5,-138.817 477.5,-138.817 477.5,-117.817 429.5,-117.817"/>
<polygon fill="none" stroke="black" points="429.5,-117.817 429.5,-138.817 477.5,-138.817 477.5,-117.817 429.5,-117.817"/>
<text text-anchor="start" x="437.5" y="-124.617" font-family="Times,serif" font-size="14.00">type</text>
<polygon fill="#e0ffe0" stroke="none" points="477.5,-117.817 477.5,-138.817 535.5,-138.817 535.5,-117.817 477.5,-117.817"/>
<polygon fill="none" stroke="black" points="477.5,-117.817 477.5,-138.817 535.5,-138.817 535.5,-117.817 477.5,-117.817"/>
<text text-anchor="start" x="499.5" y="-124.617" font-family="Times,serif" font-size="14.00">id</text>
<polygon fill="none" stroke="black" points="360.5,-96.8168 360.5,-117.817 394.5,-117.817 394.5,-96.8168 360.5,-96.8168"/>
<text text-anchor="start" x="372.5" y="-103.617" font-family="Times,serif" font-size="14.00">0</text>
<polygon fill="none" stroke="black" points="394.5,-96.8168 394.5,-117.817 429.5,-117.817 429.5,-96.8168 394.5,-96.8168"/>
<text text-anchor="start" x="405" y="-103.617" font-family="Times,serif" font-size="14.00">...</text>
<polygon fill="none" stroke="black" points="429.5,-96.8168 429.5,-117.817 477.5,-117.817 477.5,-96.8168 429.5,-96.8168"/>
<text text-anchor="start" x="433" y="-103.617" font-family="Times,serif" font-size="14.00">Block</text>
<polygon fill="none" stroke="black" points="477.5,-96.8168 477.5,-117.817 535.5,-117.817 535.5,-96.8168 477.5,-96.8168"/>
<text text-anchor="start" x="481" y="-103.617" font-family="Times,serif" font-size="14.00">entries</text>
<polygon fill="none" stroke="black" points="360.5,-75.8168 360.5,-96.8168 535.5,-96.8168 535.5,-75.8168 360.5,-75.8168"/>
<text text-anchor="start" x="363.5" y="-82.6168" font-family="Times,serif" font-size="14.00">repeat to end of stream</text>
</g>
<!-- avi__seq&#45;&gt;blocks__seq -->
<g id="edge2" class="edge"><title>avi__seq:data_type&#45;&gt;blocks__seq</title>
<path fill="none" stroke="black" stroke-width="2" d="M309,-107.817C319.6,-107.817 330.661,-107.817 341.702,-107.817"/>
<polygon fill="black" stroke="black" stroke-width="2" points="341.823,-111.317 351.823,-107.817 341.823,-104.317 341.823,-111.317"/>
</g>
<!-- list_body__seq -->
<g id="node2" class="node"><title>list_body__seq</title>
<polygon fill="#e0ffe0" stroke="none" points="1228.5,-90.8168 1228.5,-111.817 1259.5,-111.817 1259.5,-90.8168 1228.5,-90.8168"/>
<polygon fill="none" stroke="black" points="1228.5,-90.8168 1228.5,-111.817 1259.5,-111.817 1259.5,-90.8168 1228.5,-90.8168"/>
<text text-anchor="start" x="1231.5" y="-97.6168" font-family="Times,serif" font-size="14.00">pos</text>
<polygon fill="#e0ffe0" stroke="none" points="1259.5,-90.8168 1259.5,-111.817 1293.5,-111.817 1293.5,-90.8168 1259.5,-90.8168"/>
<polygon fill="none" stroke="black" points="1259.5,-90.8168 1259.5,-111.817 1293.5,-111.817 1293.5,-90.8168 1259.5,-90.8168"/>
<text text-anchor="start" x="1262.5" y="-97.6168" font-family="Times,serif" font-size="14.00">size</text>
<polygon fill="#e0ffe0" stroke="none" points="1293.5,-90.8168 1293.5,-111.817 1424.5,-111.817 1424.5,-90.8168 1293.5,-90.8168"/>
<polygon fill="none" stroke="black" points="1293.5,-90.8168 1293.5,-111.817 1424.5,-111.817 1424.5,-90.8168 1293.5,-90.8168"/>
<text text-anchor="start" x="1343" y="-97.6168" font-family="Times,serif" font-size="14.00">type</text>
<polygon fill="#e0ffe0" stroke="none" points="1424.5,-90.8168 1424.5,-111.817 1492.5,-111.817 1492.5,-90.8168 1424.5,-90.8168"/>
<polygon fill="none" stroke="black" points="1424.5,-90.8168 1424.5,-111.817 1492.5,-111.817 1492.5,-90.8168 1424.5,-90.8168"/>
<text text-anchor="start" x="1451.5" y="-97.6168" font-family="Times,serif" font-size="14.00">id</text>
<polygon fill="none" stroke="black" points="1228.5,-69.8168 1228.5,-90.8168 1259.5,-90.8168 1259.5,-69.8168 1228.5,-69.8168"/>
<text text-anchor="start" x="1239" y="-76.6168" font-family="Times,serif" font-size="14.00">0</text>
<polygon fill="none" stroke="black" points="1259.5,-69.8168 1259.5,-90.8168 1293.5,-90.8168 1293.5,-69.8168 1259.5,-69.8168"/>
<text text-anchor="start" x="1271.5" y="-76.6168" font-family="Times,serif" font-size="14.00">4</text>
<polygon fill="none" stroke="black" points="1293.5,-69.8168 1293.5,-90.8168 1424.5,-90.8168 1424.5,-69.8168 1293.5,-69.8168"/>
<text text-anchor="start" x="1296.5" y="-76.6168" font-family="Times,serif" font-size="14.00">u4le→ChunkType</text>
<polygon fill="none" stroke="black" points="1424.5,-69.8168 1424.5,-90.8168 1492.5,-90.8168 1492.5,-69.8168 1424.5,-69.8168"/>
<text text-anchor="start" x="1427.5" y="-76.6168" font-family="Times,serif" font-size="14.00">list_type</text>
<polygon fill="none" stroke="black" points="1228.5,-48.8168 1228.5,-69.8168 1259.5,-69.8168 1259.5,-48.8168 1228.5,-48.8168"/>
<text text-anchor="start" x="1239" y="-55.6168" font-family="Times,serif" font-size="14.00">4</text>
<polygon fill="none" stroke="black" points="1259.5,-48.8168 1259.5,-69.8168 1293.5,-69.8168 1293.5,-48.8168 1259.5,-48.8168"/>
<text text-anchor="start" x="1269.5" y="-55.6168" font-family="Times,serif" font-size="14.00">...</text>
<polygon fill="none" stroke="black" points="1293.5,-48.8168 1293.5,-69.8168 1424.5,-69.8168 1424.5,-48.8168 1293.5,-48.8168"/>
<text text-anchor="start" x="1334.5" y="-55.6168" font-family="Times,serif" font-size="14.00">Blocks</text>
<polygon fill="none" stroke="black" points="1424.5,-48.8168 1424.5,-69.8168 1492.5,-69.8168 1492.5,-48.8168 1424.5,-48.8168"/>
<text text-anchor="start" x="1442.5" y="-55.6168" font-family="Times,serif" font-size="14.00">data</text>
</g>
<!-- list_body__seq&#45;&gt;blocks__seq -->
<g id="edge3" class="edge"><title>list_body__seq:data_type&#45;&gt;blocks__seq</title>
<path fill="none" stroke="black" stroke-width="2" d="M1458.5,-47.8168C1458.5,57.962 1326.25,-46.3161 1220.5,-48.8168 931.646,-55.6473 856.883,-34.9333 571,-76.8168 565.16,-77.6724 559.194,-78.6906 553.193,-79.8278"/>
<polygon fill="black" stroke="black" stroke-width="2" points="552.2,-76.4569 543.078,-81.8462 553.57,-83.3216 552.2,-76.4569"/>
</g>
<!-- rect__seq -->
<g id="node3" class="node"><title>rect__seq</title>
<polygon fill="#e0ffe0" stroke="none" points="1599.5,-208.817 1599.5,-229.817 1630.5,-229.817 1630.5,-208.817 1599.5,-208.817"/>
<polygon fill="none" stroke="black" points="1599.5,-208.817 1599.5,-229.817 1630.5,-229.817 1630.5,-208.817 1599.5,-208.817"/>
<text text-anchor="start" x="1602.5" y="-215.617" font-family="Times,serif" font-size="14.00">pos</text>
<polygon fill="#e0ffe0" stroke="none" points="1630.5,-208.817 1630.5,-229.817 1664.5,-229.817 1664.5,-208.817 1630.5,-208.817"/>
<polygon fill="none" stroke="black" points="1630.5,-208.817 1630.5,-229.817 1664.5,-229.817 1664.5,-208.817 1630.5,-208.817"/>
<text text-anchor="start" x="1633.5" y="-215.617" font-family="Times,serif" font-size="14.00">size</text>
<polygon fill="#e0ffe0" stroke="none" points="1664.5,-208.817 1664.5,-229.817 1702.5,-229.817 1702.5,-208.817 1664.5,-208.817"/>
<polygon fill="none" stroke="black" points="1664.5,-208.817 1664.5,-229.817 1702.5,-229.817 1702.5,-208.817 1664.5,-208.817"/>
<text text-anchor="start" x="1667.5" y="-215.617" font-family="Times,serif" font-size="14.00">type</text>
<polygon fill="#e0ffe0" stroke="none" points="1702.5,-208.817 1702.5,-229.817 1760.5,-229.817 1760.5,-208.817 1702.5,-208.817"/>
<polygon fill="none" stroke="black" points="1702.5,-208.817 1702.5,-229.817 1760.5,-229.817 1760.5,-208.817 1702.5,-208.817"/>
<text text-anchor="start" x="1724.5" y="-215.617" font-family="Times,serif" font-size="14.00">id</text>
<polygon fill="none" stroke="black" points="1599.5,-187.817 1599.5,-208.817 1630.5,-208.817 1630.5,-187.817 1599.5,-187.817"/>
<text text-anchor="start" x="1610" y="-194.617" font-family="Times,serif" font-size="14.00">0</text>
<polygon fill="none" stroke="black" points="1630.5,-187.817 1630.5,-208.817 1664.5,-208.817 1664.5,-187.817 1630.5,-187.817"/>
<text text-anchor="start" x="1642.5" y="-194.617" font-family="Times,serif" font-size="14.00">2</text>
<polygon fill="none" stroke="black" points="1664.5,-187.817 1664.5,-208.817 1702.5,-208.817 1702.5,-187.817 1664.5,-187.817"/>
<text text-anchor="start" x="1668.5" y="-194.617" font-family="Times,serif" font-size="14.00">s2le</text>
<polygon fill="none" stroke="black" points="1702.5,-187.817 1702.5,-208.817 1760.5,-208.817 1760.5,-187.817 1702.5,-187.817"/>
<text text-anchor="start" x="1719" y="-194.617" font-family="Times,serif" font-size="14.00">left</text>
<polygon fill="none" stroke="black" points="1599.5,-166.817 1599.5,-187.817 1630.5,-187.817 1630.5,-166.817 1599.5,-166.817"/>
<text text-anchor="start" x="1610" y="-173.617" font-family="Times,serif" font-size="14.00">2</text>
<polygon fill="none" stroke="black" points="1630.5,-166.817 1630.5,-187.817 1664.5,-187.817 1664.5,-166.817 1630.5,-166.817"/>
<text text-anchor="start" x="1642.5" y="-173.617" font-family="Times,serif" font-size="14.00">2</text>
<polygon fill="none" stroke="black" points="1664.5,-166.817 1664.5,-187.817 1702.5,-187.817 1702.5,-166.817 1664.5,-166.817"/>
<text text-anchor="start" x="1668.5" y="-173.617" font-family="Times,serif" font-size="14.00">s2le</text>
<polygon fill="none" stroke="black" points="1702.5,-166.817 1702.5,-187.817 1760.5,-187.817 1760.5,-166.817 1702.5,-166.817"/>
<text text-anchor="start" x="1719.5" y="-173.617" font-family="Times,serif" font-size="14.00">top</text>
<polygon fill="none" stroke="black" points="1599.5,-145.817 1599.5,-166.817 1630.5,-166.817 1630.5,-145.817 1599.5,-145.817"/>
<text text-anchor="start" x="1610" y="-152.617" font-family="Times,serif" font-size="14.00">4</text>
<polygon fill="none" stroke="black" points="1630.5,-145.817 1630.5,-166.817 1664.5,-166.817 1664.5,-145.817 1630.5,-145.817"/>
<text text-anchor="start" x="1642.5" y="-152.617" font-family="Times,serif" font-size="14.00">2</text>
<polygon fill="none" stroke="black" points="1664.5,-145.817 1664.5,-166.817 1702.5,-166.817 1702.5,-145.817 1664.5,-145.817"/>
<text text-anchor="start" x="1668.5" y="-152.617" font-family="Times,serif" font-size="14.00">s2le</text>
<polygon fill="none" stroke="black" points="1702.5,-145.817 1702.5,-166.817 1760.5,-166.817 1760.5,-145.817 1702.5,-145.817"/>
<text text-anchor="start" x="1713.5" y="-152.617" font-family="Times,serif" font-size="14.00">right</text>
<polygon fill="none" stroke="black" points="1599.5,-124.817 1599.5,-145.817 1630.5,-145.817 1630.5,-124.817 1599.5,-124.817"/>
<text text-anchor="start" x="1610" y="-131.617" font-family="Times,serif" font-size="14.00">6</text>
<polygon fill="none" stroke="black" points="1630.5,-124.817 1630.5,-145.817 1664.5,-145.817 1664.5,-124.817 1630.5,-124.817"/>
<text text-anchor="start" x="1642.5" y="-131.617" font-family="Times,serif" font-size="14.00">2</text>
<polygon fill="none" stroke="black" points="1664.5,-124.817 1664.5,-145.817 1702.5,-145.817 1702.5,-124.817 1664.5,-124.817"/>
<text text-anchor="start" x="1668.5" y="-131.617" font-family="Times,serif" font-size="14.00">s2le</text>
<polygon fill="none" stroke="black" points="1702.5,-124.817 1702.5,-145.817 1760.5,-145.817 1760.5,-124.817 1702.5,-124.817"/>
<text text-anchor="start" x="1705.5" y="-131.617" font-family="Times,serif" font-size="14.00">bottom</text>
</g>
<!-- block__seq -->
<g id="node6" class="node"><title>block__seq</title>
<polygon fill="#e0ffe0" stroke="none" points="587.5,-155.817 587.5,-176.817 618.5,-176.817 618.5,-155.817 587.5,-155.817"/>
<polygon fill="none" stroke="black" points="587.5,-155.817 587.5,-176.817 618.5,-176.817 618.5,-155.817 587.5,-155.817"/>
<text text-anchor="start" x="590.5" y="-162.617" font-family="Times,serif" font-size="14.00">pos</text>
<polygon fill="#e0ffe0" stroke="none" points="618.5,-155.817 618.5,-176.817 652.5,-176.817 652.5,-155.817 618.5,-155.817"/>
<polygon fill="none" stroke="black" points="618.5,-155.817 618.5,-176.817 652.5,-176.817 652.5,-155.817 618.5,-155.817"/>
<text text-anchor="start" x="621.5" y="-162.617" font-family="Times,serif" font-size="14.00">size</text>
<polygon fill="#e0ffe0" stroke="none" points="652.5,-155.817 652.5,-176.817 783.5,-176.817 783.5,-155.817 652.5,-155.817"/>
<polygon fill="none" stroke="black" points="652.5,-155.817 652.5,-176.817 783.5,-176.817 783.5,-155.817 652.5,-155.817"/>
<text text-anchor="start" x="702" y="-162.617" font-family="Times,serif" font-size="14.00">type</text>
<polygon fill="#e0ffe0" stroke="none" points="783.5,-155.817 783.5,-176.817 864.5,-176.817 864.5,-155.817 783.5,-155.817"/>
<polygon fill="none" stroke="black" points="783.5,-155.817 783.5,-176.817 864.5,-176.817 864.5,-155.817 783.5,-155.817"/>
<text text-anchor="start" x="817" y="-162.617" font-family="Times,serif" font-size="14.00">id</text>
<polygon fill="none" stroke="black" points="587.5,-134.817 587.5,-155.817 618.5,-155.817 618.5,-134.817 587.5,-134.817"/>
<text text-anchor="start" x="598" y="-141.617" font-family="Times,serif" font-size="14.00">0</text>
<polygon fill="none" stroke="black" points="618.5,-134.817 618.5,-155.817 652.5,-155.817 652.5,-134.817 618.5,-134.817"/>
<text text-anchor="start" x="630.5" y="-141.617" font-family="Times,serif" font-size="14.00">4</text>
<polygon fill="none" stroke="black" points="652.5,-134.817 652.5,-155.817 783.5,-155.817 783.5,-134.817 652.5,-134.817"/>
<text text-anchor="start" x="655.5" y="-141.617" font-family="Times,serif" font-size="14.00">u4le→ChunkType</text>
<polygon fill="none" stroke="black" points="783.5,-134.817 783.5,-155.817 864.5,-155.817 864.5,-134.817 783.5,-134.817"/>
<text text-anchor="start" x="797" y="-141.617" font-family="Times,serif" font-size="14.00">four_cc</text>
<polygon fill="none" stroke="black" points="587.5,-113.817 587.5,-134.817 618.5,-134.817 618.5,-113.817 587.5,-113.817"/>
<text text-anchor="start" x="598" y="-120.617" font-family="Times,serif" font-size="14.00">4</text>
<polygon fill="none" stroke="black" points="618.5,-113.817 618.5,-134.817 652.5,-134.817 652.5,-113.817 618.5,-113.817"/>
<text text-anchor="start" x="630.5" y="-120.617" font-family="Times,serif" font-size="14.00">4</text>
<polygon fill="none" stroke="black" points="652.5,-113.817 652.5,-134.817 783.5,-134.817 783.5,-113.817 652.5,-113.817"/>
<text text-anchor="start" x="702.5" y="-120.617" font-family="Times,serif" font-size="14.00">u4le</text>
<polygon fill="none" stroke="black" points="783.5,-113.817 783.5,-134.817 864.5,-134.817 864.5,-113.817 783.5,-113.817"/>
<text text-anchor="start" x="786.5" y="-120.617" font-family="Times,serif" font-size="14.00">block_size</text>
<polygon fill="none" stroke="black" points="587.5,-92.8168 587.5,-113.817 618.5,-113.817 618.5,-92.8168 587.5,-92.8168"/>
<text text-anchor="start" x="598" y="-99.6168" font-family="Times,serif" font-size="14.00">8</text>
<polygon fill="none" stroke="black" points="618.5,-92.8168 618.5,-113.817 652.5,-113.817 652.5,-92.8168 618.5,-92.8168"/>
<text text-anchor="start" x="628.5" y="-99.6168" font-family="Times,serif" font-size="14.00">...</text>
<polygon fill="none" stroke="black" points="652.5,-92.8168 652.5,-113.817 783.5,-113.817 783.5,-92.8168 652.5,-92.8168"/>
<text text-anchor="start" x="660" y="-99.6168" font-family="Times,serif" font-size="14.00">switch (four_cc)</text>
<polygon fill="none" stroke="black" points="783.5,-92.8168 783.5,-113.817 864.5,-113.817 864.5,-92.8168 783.5,-92.8168"/>
<text text-anchor="start" x="808" y="-99.6168" font-family="Times,serif" font-size="14.00">data</text>
</g>
<!-- blocks__seq&#45;&gt;block__seq -->
<g id="edge4" class="edge"><title>blocks__seq:entries_type&#45;&gt;block__seq</title>
<path fill="none" stroke="black" stroke-width="2" d="M536.5,-106.817C547.048,-106.817 557.893,-107.253 568.796,-108.017"/>
<polygon fill="black" stroke="black" stroke-width="2" points="568.575,-111.511 578.819,-108.808 569.125,-104.532 568.575,-111.511"/>
</g>
<!-- avih_body__seq -->
<g id="node5" class="node"><title>avih_body__seq</title>
<polygon fill="#e0ffe0" stroke="none" points="1226.5,-769.817 1226.5,-790.817 1257.5,-790.817 1257.5,-769.817 1226.5,-769.817"/>
<polygon fill="none" stroke="black" points="1226.5,-769.817 1226.5,-790.817 1257.5,-790.817 1257.5,-769.817 1226.5,-769.817"/>
<text text-anchor="start" x="1229.5" y="-776.617" font-family="Times,serif" font-size="14.00">pos</text>
<polygon fill="#e0ffe0" stroke="none" points="1257.5,-769.817 1257.5,-790.817 1291.5,-790.817 1291.5,-769.817 1257.5,-769.817"/>
<polygon fill="none" stroke="black" points="1257.5,-769.817 1257.5,-790.817 1291.5,-790.817 1291.5,-769.817 1257.5,-769.817"/>
<text text-anchor="start" x="1260.5" y="-776.617" font-family="Times,serif" font-size="14.00">size</text>
<polygon fill="#e0ffe0" stroke="none" points="1291.5,-769.817 1291.5,-790.817 1329.5,-790.817 1329.5,-769.817 1291.5,-769.817"/>
<polygon fill="none" stroke="black" points="1291.5,-769.817 1291.5,-790.817 1329.5,-790.817 1329.5,-769.817 1291.5,-769.817"/>
<text text-anchor="start" x="1294.5" y="-776.617" font-family="Times,serif" font-size="14.00">type</text>
<polygon fill="#e0ffe0" stroke="none" points="1329.5,-769.817 1329.5,-790.817 1495.5,-790.817 1495.5,-769.817 1329.5,-769.817"/>
<polygon fill="none" stroke="black" points="1329.5,-769.817 1329.5,-790.817 1495.5,-790.817 1495.5,-769.817 1329.5,-769.817"/>
<text text-anchor="start" x="1405.5" y="-776.617" font-family="Times,serif" font-size="14.00">id</text>
<polygon fill="none" stroke="black" points="1226.5,-748.817 1226.5,-769.817 1257.5,-769.817 1257.5,-748.817 1226.5,-748.817"/>
<text text-anchor="start" x="1237" y="-755.617" font-family="Times,serif" font-size="14.00">0</text>
<polygon fill="none" stroke="black" points="1257.5,-748.817 1257.5,-769.817 1291.5,-769.817 1291.5,-748.817 1257.5,-748.817"/>
<text text-anchor="start" x="1269.5" y="-755.617" font-family="Times,serif" font-size="14.00">4</text>
<polygon fill="none" stroke="black" points="1291.5,-748.817 1291.5,-769.817 1329.5,-769.817 1329.5,-748.817 1291.5,-748.817"/>
<text text-anchor="start" x="1295" y="-755.617" font-family="Times,serif" font-size="14.00">u4le</text>
<polygon fill="none" stroke="black" points="1329.5,-748.817 1329.5,-769.817 1495.5,-769.817 1495.5,-748.817 1329.5,-748.817"/>
<text text-anchor="start" x="1335.5" y="-755.617" font-family="Times,serif" font-size="14.00">micro_sec_per_frame</text>
<polygon fill="none" stroke="black" points="1226.5,-727.817 1226.5,-748.817 1257.5,-748.817 1257.5,-727.817 1226.5,-727.817"/>
<text text-anchor="start" x="1237" y="-734.617" font-family="Times,serif" font-size="14.00">4</text>
<polygon fill="none" stroke="black" points="1257.5,-727.817 1257.5,-748.817 1291.5,-748.817 1291.5,-727.817 1257.5,-727.817"/>
<text text-anchor="start" x="1269.5" y="-734.617" font-family="Times,serif" font-size="14.00">4</text>
<polygon fill="none" stroke="black" points="1291.5,-727.817 1291.5,-748.817 1329.5,-748.817 1329.5,-727.817 1291.5,-727.817"/>
<text text-anchor="start" x="1295" y="-734.617" font-family="Times,serif" font-size="14.00">u4le</text>
<polygon fill="none" stroke="black" points="1329.5,-727.817 1329.5,-748.817 1495.5,-748.817 1495.5,-727.817 1329.5,-727.817"/>
<text text-anchor="start" x="1342.5" y="-734.617" font-family="Times,serif" font-size="14.00">max_bytes_per_sec</text>
<polygon fill="none" stroke="black" points="1226.5,-706.817 1226.5,-727.817 1257.5,-727.817 1257.5,-706.817 1226.5,-706.817"/>
<text text-anchor="start" x="1237" y="-713.617" font-family="Times,serif" font-size="14.00">8</text>
<polygon fill="none" stroke="black" points="1257.5,-706.817 1257.5,-727.817 1291.5,-727.817 1291.5,-706.817 1257.5,-706.817"/>
<text text-anchor="start" x="1269.5" y="-713.617" font-family="Times,serif" font-size="14.00">4</text>
<polygon fill="none" stroke="black" points="1291.5,-706.817 1291.5,-727.817 1329.5,-727.817 1329.5,-706.817 1291.5,-706.817"/>
<text text-anchor="start" x="1295" y="-713.617" font-family="Times,serif" font-size="14.00">u4le</text>
<polygon fill="none" stroke="black" points="1329.5,-706.817 1329.5,-727.817 1495.5,-727.817 1495.5,-706.817 1329.5,-706.817"/>
<text text-anchor="start" x="1339.5" y="-713.617" font-family="Times,serif" font-size="14.00">padding_granularity</text>
<polygon fill="none" stroke="black" points="1226.5,-685.817 1226.5,-706.817 1257.5,-706.817 1257.5,-685.817 1226.5,-685.817"/>
<text text-anchor="start" x="1232.5" y="-692.617" font-family="Times,serif" font-size="14.00">12</text>
<polygon fill="none" stroke="black" points="1257.5,-685.817 1257.5,-706.817 1291.5,-706.817 1291.5,-685.817 1257.5,-685.817"/>
<text text-anchor="start" x="1269.5" y="-692.617" font-family="Times,serif" font-size="14.00">4</text>
<polygon fill="none" stroke="black" points="1291.5,-685.817 1291.5,-706.817 1329.5,-706.817 1329.5,-685.817 1291.5,-685.817"/>
<text text-anchor="start" x="1295" y="-692.617" font-family="Times,serif" font-size="14.00">u4le</text>
<polygon fill="none" stroke="black" points="1329.5,-685.817 1329.5,-706.817 1495.5,-706.817 1495.5,-685.817 1329.5,-685.817"/>
<text text-anchor="start" x="1395.5" y="-692.617" font-family="Times,serif" font-size="14.00">flags</text>
<polygon fill="none" stroke="black" points="1226.5,-664.817 1226.5,-685.817 1257.5,-685.817 1257.5,-664.817 1226.5,-664.817"/>
<text text-anchor="start" x="1232.5" y="-671.617" font-family="Times,serif" font-size="14.00">16</text>
<polygon fill="none" stroke="black" points="1257.5,-664.817 1257.5,-685.817 1291.5,-685.817 1291.5,-664.817 1257.5,-664.817"/>
<text text-anchor="start" x="1269.5" y="-671.617" font-family="Times,serif" font-size="14.00">4</text>
<polygon fill="none" stroke="black" points="1291.5,-664.817 1291.5,-685.817 1329.5,-685.817 1329.5,-664.817 1291.5,-664.817"/>
<text text-anchor="start" x="1295" y="-671.617" font-family="Times,serif" font-size="14.00">u4le</text>
<polygon fill="none" stroke="black" points="1329.5,-664.817 1329.5,-685.817 1495.5,-685.817 1495.5,-664.817 1329.5,-664.817"/>
<text text-anchor="start" x="1367" y="-671.617" font-family="Times,serif" font-size="14.00">total_frames</text>
<polygon fill="none" stroke="black" points="1226.5,-643.817 1226.5,-664.817 1257.5,-664.817 1257.5,-643.817 1226.5,-643.817"/>
<text text-anchor="start" x="1232.5" y="-650.617" font-family="Times,serif" font-size="14.00">20</text>
<polygon fill="none" stroke="black" points="1257.5,-643.817 1257.5,-664.817 1291.5,-664.817 1291.5,-643.817 1257.5,-643.817"/>
<text text-anchor="start" x="1269.5" y="-650.617" font-family="Times,serif" font-size="14.00">4</text>
<polygon fill="none" stroke="black" points="1291.5,-643.817 1291.5,-664.817 1329.5,-664.817 1329.5,-643.817 1291.5,-643.817"/>
<text text-anchor="start" x="1295" y="-650.617" font-family="Times,serif" font-size="14.00">u4le</text>
<polygon fill="none" stroke="black" points="1329.5,-643.817 1329.5,-664.817 1495.5,-664.817 1495.5,-643.817 1329.5,-643.817"/>
<text text-anchor="start" x="1363" y="-650.617" font-family="Times,serif" font-size="14.00">initial_frames</text>
<polygon fill="none" stroke="black" points="1226.5,-622.817 1226.5,-643.817 1257.5,-643.817 1257.5,-622.817 1226.5,-622.817"/>
<text text-anchor="start" x="1232.5" y="-629.617" font-family="Times,serif" font-size="14.00">24</text>
<polygon fill="none" stroke="black" points="1257.5,-622.817 1257.5,-643.817 1291.5,-643.817 1291.5,-622.817 1257.5,-622.817"/>
<text text-anchor="start" x="1269.5" y="-629.617" font-family="Times,serif" font-size="14.00">4</text>
<polygon fill="none" stroke="black" points="1291.5,-622.817 1291.5,-643.817 1329.5,-643.817 1329.5,-622.817 1291.5,-622.817"/>
<text text-anchor="start" x="1295" y="-629.617" font-family="Times,serif" font-size="14.00">u4le</text>
<polygon fill="none" stroke="black" points="1329.5,-622.817 1329.5,-643.817 1495.5,-643.817 1495.5,-622.817 1329.5,-622.817"/>
<text text-anchor="start" x="1383.5" y="-629.617" font-family="Times,serif" font-size="14.00">streams</text>
<polygon fill="none" stroke="black" points="1226.5,-601.817 1226.5,-622.817 1257.5,-622.817 1257.5,-601.817 1226.5,-601.817"/>
<text text-anchor="start" x="1232.5" y="-608.617" font-family="Times,serif" font-size="14.00">28</text>
<polygon fill="none" stroke="black" points="1257.5,-601.817 1257.5,-622.817 1291.5,-622.817 1291.5,-601.817 1257.5,-601.817"/>
<text text-anchor="start" x="1269.5" y="-608.617" font-family="Times,serif" font-size="14.00">4</text>
<polygon fill="none" stroke="black" points="1291.5,-601.817 1291.5,-622.817 1329.5,-622.817 1329.5,-601.817 1291.5,-601.817"/>
<text text-anchor="start" x="1295" y="-608.617" font-family="Times,serif" font-size="14.00">u4le</text>
<polygon fill="none" stroke="black" points="1329.5,-601.817 1329.5,-622.817 1495.5,-622.817 1495.5,-601.817 1329.5,-601.817"/>
<text text-anchor="start" x="1332.5" y="-608.617" font-family="Times,serif" font-size="14.00">suggested_buffer_size</text>
<polygon fill="none" stroke="black" points="1226.5,-580.817 1226.5,-601.817 1257.5,-601.817 1257.5,-580.817 1226.5,-580.817"/>
<text text-anchor="start" x="1232.5" y="-587.617" font-family="Times,serif" font-size="14.00">32</text>
<polygon fill="none" stroke="black" points="1257.5,-580.817 1257.5,-601.817 1291.5,-601.817 1291.5,-580.817 1257.5,-580.817"/>
<text text-anchor="start" x="1269.5" y="-587.617" font-family="Times,serif" font-size="14.00">4</text>
<polygon fill="none" stroke="black" points="1291.5,-580.817 1291.5,-601.817 1329.5,-601.817 1329.5,-580.817 1291.5,-580.817"/>
<text text-anchor="start" x="1295" y="-587.617" font-family="Times,serif" font-size="14.00">u4le</text>
<polygon fill="none" stroke="black" points="1329.5,-580.817 1329.5,-601.817 1495.5,-601.817 1495.5,-580.817 1329.5,-580.817"/>
<text text-anchor="start" x="1392" y="-587.617" font-family="Times,serif" font-size="14.00">width</text>
<polygon fill="none" stroke="black" points="1226.5,-559.817 1226.5,-580.817 1257.5,-580.817 1257.5,-559.817 1226.5,-559.817"/>
<text text-anchor="start" x="1232.5" y="-566.617" font-family="Times,serif" font-size="14.00">36</text>
<polygon fill="none" stroke="black" points="1257.5,-559.817 1257.5,-580.817 1291.5,-580.817 1291.5,-559.817 1257.5,-559.817"/>
<text text-anchor="start" x="1269.5" y="-566.617" font-family="Times,serif" font-size="14.00">4</text>
<polygon fill="none" stroke="black" points="1291.5,-559.817 1291.5,-580.817 1329.5,-580.817 1329.5,-559.817 1291.5,-559.817"/>
<text text-anchor="start" x="1295" y="-566.617" font-family="Times,serif" font-size="14.00">u4le</text>
<polygon fill="none" stroke="black" points="1329.5,-559.817 1329.5,-580.817 1495.5,-580.817 1495.5,-559.817 1329.5,-559.817"/>
<text text-anchor="start" x="1389.5" y="-566.617" font-family="Times,serif" font-size="14.00">height</text>
<polygon fill="none" stroke="black" points="1226.5,-538.817 1226.5,-559.817 1257.5,-559.817 1257.5,-538.817 1226.5,-538.817"/>
<text text-anchor="start" x="1232.5" y="-545.617" font-family="Times,serif" font-size="14.00">40</text>
<polygon fill="none" stroke="black" points="1257.5,-538.817 1257.5,-559.817 1291.5,-559.817 1291.5,-538.817 1257.5,-538.817"/>
<text text-anchor="start" x="1265" y="-545.617" font-family="Times,serif" font-size="14.00">16</text>
<polygon fill="none" stroke="black" points="1291.5,-538.817 1291.5,-559.817 1329.5,-559.817 1329.5,-538.817 1291.5,-538.817"/>
<polygon fill="none" stroke="black" points="1329.5,-538.817 1329.5,-559.817 1495.5,-559.817 1495.5,-538.817 1329.5,-538.817"/>
<text text-anchor="start" x="1380.5" y="-545.617" font-family="Times,serif" font-size="14.00">reserved</text>
</g>
<!-- block__seq&#45;&gt;block__seq -->
<g id="edge9" class="edge"><title>block__seq:four_cc_type&#45;&gt;block__seq:data_type</title>
<path fill="none" stroke="#404040" d="M798.145,-155.862C756.531,-175.853 765.316,-198.817 824.5,-198.817 880.767,-198.817 891.48,-149.876 856.64,-119.919"/>
<polygon fill="#404040" stroke="#404040" points="858.617,-117.028 848.514,-113.839 854.424,-122.632 858.617,-117.028"/>
</g>
<!-- block__seq_data_switch -->
<g id="node7" class="node"><title>block__seq_data_switch</title>
<polygon fill="#f0f2e4" stroke="none" points="916,-164.817 916,-185.817 1048,-185.817 1048,-164.817 916,-164.817"/>
<polygon fill="none" stroke="black" points="916,-164.817 916,-185.817 1048,-185.817 1048,-164.817 916,-164.817"/>
<text text-anchor="start" x="965.5" y="-171.617" font-family="Times,serif" font-size="14.00">case</text>
<polygon fill="#f0f2e4" stroke="none" points="1048,-164.817 1048,-185.817 1122,-185.817 1122,-164.817 1048,-164.817"/>
<polygon fill="none" stroke="black" points="1048,-164.817 1048,-185.817 1122,-185.817 1122,-164.817 1048,-164.817"/>
<text text-anchor="start" x="1069" y="-171.617" font-family="Times,serif" font-size="14.00">type</text>
<polygon fill="none" stroke="black" points="916,-143.817 916,-164.817 1048,-164.817 1048,-143.817 916,-143.817"/>
<text text-anchor="start" x="923" y="-150.617" font-family="Times,serif" font-size="14.00">:chunk_type_list</text>
<polygon fill="none" stroke="black" points="1048,-143.817 1048,-164.817 1122,-164.817 1122,-143.817 1048,-143.817"/>
<text text-anchor="start" x="1053" y="-150.617" font-family="Times,serif" font-size="14.00">ListBody</text>
<polygon fill="none" stroke="black" points="916,-122.817 916,-143.817 1048,-143.817 1048,-122.817 916,-122.817"/>
<text text-anchor="start" x="919" y="-129.617" font-family="Times,serif" font-size="14.00">:chunk_type_avih</text>
<polygon fill="none" stroke="black" points="1048,-122.817 1048,-143.817 1122,-143.817 1122,-122.817 1048,-122.817"/>
<text text-anchor="start" x="1051" y="-129.617" font-family="Times,serif" font-size="14.00">AvihBody</text>
<polygon fill="none" stroke="black" points="916,-101.817 916,-122.817 1048,-122.817 1048,-101.817 916,-101.817"/>
<text text-anchor="start" x="919.5" y="-108.617" font-family="Times,serif" font-size="14.00">:chunk_type_strh</text>
<polygon fill="none" stroke="black" points="1048,-101.817 1048,-122.817 1122,-122.817 1122,-101.817 1048,-101.817"/>
<text text-anchor="start" x="1051.5" y="-108.617" font-family="Times,serif" font-size="14.00">StrhBody</text>
</g>
<!-- block__seq&#45;&gt;block__seq_data_switch -->
<g id="edge5" class="edge"><title>block__seq:data_type&#45;&gt;block__seq_data_switch</title>
<path fill="none" stroke="black" stroke-width="2" d="M865.5,-102.817C876.1,-102.817 886.977,-103.752 897.805,-105.34"/>
<polygon fill="black" stroke="black" stroke-width="2" points="897.29,-108.802 907.726,-106.974 898.428,-101.895 897.29,-108.802"/>
</g>
<!-- block__seq_data_switch&#45;&gt;list_body__seq -->
<g id="edge6" class="edge"><title>block__seq_data_switch:case0&#45;&gt;list_body__seq</title>
<path fill="none" stroke="black" stroke-width="2" d="M1123,-154.817C1149.52,-154.817 1205.36,-137.65 1256.12,-119.852"/>
<polygon fill="black" stroke="black" stroke-width="2" points="1257.6,-123.041 1265.87,-116.408 1255.27,-116.442 1257.6,-123.041"/>
</g>
<!-- block__seq_data_switch&#45;&gt;avih_body__seq -->
<g id="edge7" class="edge"><title>block__seq_data_switch:case1&#45;&gt;avih_body__seq</title>
<path fill="none" stroke="black" stroke-width="2" d="M1123,-132.817C1166.51,-132.817 1136.26,-485.13 1158,-522.817 1171.13,-545.58 1189.56,-565.594 1209.98,-582.866"/>
<polygon fill="black" stroke="black" stroke-width="2" points="1207.94,-585.723 1217.9,-589.352 1212.38,-580.308 1207.94,-585.723"/>
</g>
<!-- strh_body__seq -->
<g id="node8" class="node"><title>strh_body__seq</title>
<polygon fill="#e0ffe0" stroke="none" points="1174.5,-461.817 1174.5,-482.817 1205.5,-482.817 1205.5,-461.817 1174.5,-461.817"/>
<polygon fill="none" stroke="black" points="1174.5,-461.817 1174.5,-482.817 1205.5,-482.817 1205.5,-461.817 1174.5,-461.817"/>
<text text-anchor="start" x="1177.5" y="-468.617" font-family="Times,serif" font-size="14.00">pos</text>
<polygon fill="#e0ffe0" stroke="none" points="1205.5,-461.817 1205.5,-482.817 1239.5,-482.817 1239.5,-461.817 1205.5,-461.817"/>
<polygon fill="none" stroke="black" points="1205.5,-461.817 1205.5,-482.817 1239.5,-482.817 1239.5,-461.817 1205.5,-461.817"/>
<text text-anchor="start" x="1208.5" y="-468.617" font-family="Times,serif" font-size="14.00">size</text>
<polygon fill="#e0ffe0" stroke="none" points="1239.5,-461.817 1239.5,-482.817 1381.5,-482.817 1381.5,-461.817 1239.5,-461.817"/>
<polygon fill="none" stroke="black" points="1239.5,-461.817 1239.5,-482.817 1381.5,-482.817 1381.5,-461.817 1239.5,-461.817"/>
<text text-anchor="start" x="1294.5" y="-468.617" font-family="Times,serif" font-size="14.00">type</text>
<polygon fill="#e0ffe0" stroke="none" points="1381.5,-461.817 1381.5,-482.817 1547.5,-482.817 1547.5,-461.817 1381.5,-461.817"/>
<polygon fill="none" stroke="black" points="1381.5,-461.817 1381.5,-482.817 1547.5,-482.817 1547.5,-461.817 1381.5,-461.817"/>
<text text-anchor="start" x="1457.5" y="-468.617" font-family="Times,serif" font-size="14.00">id</text>
<polygon fill="none" stroke="black" points="1174.5,-440.817 1174.5,-461.817 1205.5,-461.817 1205.5,-440.817 1174.5,-440.817"/>
<text text-anchor="start" x="1185" y="-447.617" font-family="Times,serif" font-size="14.00">0</text>
<polygon fill="none" stroke="black" points="1205.5,-440.817 1205.5,-461.817 1239.5,-461.817 1239.5,-440.817 1205.5,-440.817"/>
<text text-anchor="start" x="1217.5" y="-447.617" font-family="Times,serif" font-size="14.00">4</text>
<polygon fill="none" stroke="black" points="1239.5,-440.817 1239.5,-461.817 1381.5,-461.817 1381.5,-440.817 1239.5,-440.817"/>
<text text-anchor="start" x="1245.5" y="-447.617" font-family="Times,serif" font-size="14.00">u4le→StreamType</text>
<polygon fill="none" stroke="black" points="1381.5,-440.817 1381.5,-461.817 1547.5,-461.817 1547.5,-440.817 1381.5,-440.817"/>
<text text-anchor="start" x="1434" y="-447.617" font-family="Times,serif" font-size="14.00">fcc_type</text>
<polygon fill="none" stroke="black" points="1174.5,-419.817 1174.5,-440.817 1205.5,-440.817 1205.5,-419.817 1174.5,-419.817"/>
<text text-anchor="start" x="1185" y="-426.617" font-family="Times,serif" font-size="14.00">4</text>
<polygon fill="none" stroke="black" points="1205.5,-419.817 1205.5,-440.817 1239.5,-440.817 1239.5,-419.817 1205.5,-419.817"/>
<text text-anchor="start" x="1217.5" y="-426.617" font-family="Times,serif" font-size="14.00">4</text>
<polygon fill="none" stroke="black" points="1239.5,-419.817 1239.5,-440.817 1381.5,-440.817 1381.5,-419.817 1239.5,-419.817"/>
<text text-anchor="start" x="1242.5" y="-426.617" font-family="Times,serif" font-size="14.00">u4le→HandlerType</text>
<polygon fill="none" stroke="black" points="1381.5,-419.817 1381.5,-440.817 1547.5,-440.817 1547.5,-419.817 1381.5,-419.817"/>
<text text-anchor="start" x="1422" y="-426.617" font-family="Times,serif" font-size="14.00">fcc_handler</text>
<polygon fill="none" stroke="black" points="1174.5,-398.817 1174.5,-419.817 1205.5,-419.817 1205.5,-398.817 1174.5,-398.817"/>
<text text-anchor="start" x="1185" y="-405.617" font-family="Times,serif" font-size="14.00">8</text>
<polygon fill="none" stroke="black" points="1205.5,-398.817 1205.5,-419.817 1239.5,-419.817 1239.5,-398.817 1205.5,-398.817"/>
<text text-anchor="start" x="1217.5" y="-405.617" font-family="Times,serif" font-size="14.00">4</text>
<polygon fill="none" stroke="black" points="1239.5,-398.817 1239.5,-419.817 1381.5,-419.817 1381.5,-398.817 1239.5,-398.817"/>
<text text-anchor="start" x="1295" y="-405.617" font-family="Times,serif" font-size="14.00">u4le</text>
<polygon fill="none" stroke="black" points="1381.5,-398.817 1381.5,-419.817 1547.5,-419.817 1547.5,-398.817 1381.5,-398.817"/>
<text text-anchor="start" x="1447.5" y="-405.617" font-family="Times,serif" font-size="14.00">flags</text>
<polygon fill="none" stroke="black" points="1174.5,-377.817 1174.5,-398.817 1205.5,-398.817 1205.5,-377.817 1174.5,-377.817"/>
<text text-anchor="start" x="1180.5" y="-384.617" font-family="Times,serif" font-size="14.00">12</text>
<polygon fill="none" stroke="black" points="1205.5,-377.817 1205.5,-398.817 1239.5,-398.817 1239.5,-377.817 1205.5,-377.817"/>
<text text-anchor="start" x="1217.5" y="-384.617" font-family="Times,serif" font-size="14.00">2</text>
<polygon fill="none" stroke="black" points="1239.5,-377.817 1239.5,-398.817 1381.5,-398.817 1381.5,-377.817 1239.5,-377.817"/>
<text text-anchor="start" x="1295" y="-384.617" font-family="Times,serif" font-size="14.00">u2le</text>
<polygon fill="none" stroke="black" points="1381.5,-377.817 1381.5,-398.817 1547.5,-398.817 1547.5,-377.817 1381.5,-377.817"/>
<text text-anchor="start" x="1437" y="-384.617" font-family="Times,serif" font-size="14.00">priority</text>
<polygon fill="none" stroke="black" points="1174.5,-356.817 1174.5,-377.817 1205.5,-377.817 1205.5,-356.817 1174.5,-356.817"/>
<text text-anchor="start" x="1180.5" y="-363.617" font-family="Times,serif" font-size="14.00">14</text>
<polygon fill="none" stroke="black" points="1205.5,-356.817 1205.5,-377.817 1239.5,-377.817 1239.5,-356.817 1205.5,-356.817"/>
<text text-anchor="start" x="1217.5" y="-363.617" font-family="Times,serif" font-size="14.00">2</text>
<polygon fill="none" stroke="black" points="1239.5,-356.817 1239.5,-377.817 1381.5,-377.817 1381.5,-356.817 1239.5,-356.817"/>
<text text-anchor="start" x="1295" y="-363.617" font-family="Times,serif" font-size="14.00">u2le</text>
<polygon fill="none" stroke="black" points="1381.5,-356.817 1381.5,-377.817 1547.5,-377.817 1547.5,-356.817 1381.5,-356.817"/>
<text text-anchor="start" x="1431.5" y="-363.617" font-family="Times,serif" font-size="14.00">language</text>
<polygon fill="none" stroke="black" points="1174.5,-335.817 1174.5,-356.817 1205.5,-356.817 1205.5,-335.817 1174.5,-335.817"/>
<text text-anchor="start" x="1180.5" y="-342.617" font-family="Times,serif" font-size="14.00">16</text>
<polygon fill="none" stroke="black" points="1205.5,-335.817 1205.5,-356.817 1239.5,-356.817 1239.5,-335.817 1205.5,-335.817"/>
<text text-anchor="start" x="1217.5" y="-342.617" font-family="Times,serif" font-size="14.00">4</text>
<polygon fill="none" stroke="black" points="1239.5,-335.817 1239.5,-356.817 1381.5,-356.817 1381.5,-335.817 1239.5,-335.817"/>
<text text-anchor="start" x="1295" y="-342.617" font-family="Times,serif" font-size="14.00">u4le</text>
<polygon fill="none" stroke="black" points="1381.5,-335.817 1381.5,-356.817 1547.5,-356.817 1547.5,-335.817 1381.5,-335.817"/>
<text text-anchor="start" x="1415" y="-342.617" font-family="Times,serif" font-size="14.00">initial_frames</text>
<polygon fill="none" stroke="black" points="1174.5,-314.817 1174.5,-335.817 1205.5,-335.817 1205.5,-314.817 1174.5,-314.817"/>
<text text-anchor="start" x="1180.5" y="-321.617" font-family="Times,serif" font-size="14.00">20</text>
<polygon fill="none" stroke="black" points="1205.5,-314.817 1205.5,-335.817 1239.5,-335.817 1239.5,-314.817 1205.5,-314.817"/>
<text text-anchor="start" x="1217.5" y="-321.617" font-family="Times,serif" font-size="14.00">4</text>
<polygon fill="none" stroke="black" points="1239.5,-314.817 1239.5,-335.817 1381.5,-335.817 1381.5,-314.817 1239.5,-314.817"/>
<text text-anchor="start" x="1295" y="-321.617" font-family="Times,serif" font-size="14.00">u4le</text>
<polygon fill="none" stroke="black" points="1381.5,-314.817 1381.5,-335.817 1547.5,-335.817 1547.5,-314.817 1381.5,-314.817"/>
<text text-anchor="start" x="1446" y="-321.617" font-family="Times,serif" font-size="14.00">scale</text>
<polygon fill="none" stroke="black" points="1174.5,-293.817 1174.5,-314.817 1205.5,-314.817 1205.5,-293.817 1174.5,-293.817"/>
<text text-anchor="start" x="1180.5" y="-300.617" font-family="Times,serif" font-size="14.00">24</text>
<polygon fill="none" stroke="black" points="1205.5,-293.817 1205.5,-314.817 1239.5,-314.817 1239.5,-293.817 1205.5,-293.817"/>
<text text-anchor="start" x="1217.5" y="-300.617" font-family="Times,serif" font-size="14.00">4</text>
<polygon fill="none" stroke="black" points="1239.5,-293.817 1239.5,-314.817 1381.5,-314.817 1381.5,-293.817 1239.5,-293.817"/>
<text text-anchor="start" x="1295" y="-300.617" font-family="Times,serif" font-size="14.00">u4le</text>
<polygon fill="none" stroke="black" points="1381.5,-293.817 1381.5,-314.817 1547.5,-314.817 1547.5,-293.817 1381.5,-293.817"/>
<text text-anchor="start" x="1449.5" y="-300.617" font-family="Times,serif" font-size="14.00">rate</text>
<polygon fill="none" stroke="black" points="1174.5,-272.817 1174.5,-293.817 1205.5,-293.817 1205.5,-272.817 1174.5,-272.817"/>
<text text-anchor="start" x="1180.5" y="-279.617" font-family="Times,serif" font-size="14.00">28</text>
<polygon fill="none" stroke="black" points="1205.5,-272.817 1205.5,-293.817 1239.5,-293.817 1239.5,-272.817 1205.5,-272.817"/>
<text text-anchor="start" x="1217.5" y="-279.617" font-family="Times,serif" font-size="14.00">4</text>
<polygon fill="none" stroke="black" points="1239.5,-272.817 1239.5,-293.817 1381.5,-293.817 1381.5,-272.817 1239.5,-272.817"/>
<text text-anchor="start" x="1295" y="-279.617" font-family="Times,serif" font-size="14.00">u4le</text>
<polygon fill="none" stroke="black" points="1381.5,-272.817 1381.5,-293.817 1547.5,-293.817 1547.5,-272.817 1381.5,-272.817"/>
<text text-anchor="start" x="1447" y="-279.617" font-family="Times,serif" font-size="14.00">start</text>
<polygon fill="none" stroke="black" points="1174.5,-251.817 1174.5,-272.817 1205.5,-272.817 1205.5,-251.817 1174.5,-251.817"/>
<text text-anchor="start" x="1180.5" y="-258.617" font-family="Times,serif" font-size="14.00">32</text>
<polygon fill="none" stroke="black" points="1205.5,-251.817 1205.5,-272.817 1239.5,-272.817 1239.5,-251.817 1205.5,-251.817"/>
<text text-anchor="start" x="1217.5" y="-258.617" font-family="Times,serif" font-size="14.00">4</text>
<polygon fill="none" stroke="black" points="1239.5,-251.817 1239.5,-272.817 1381.5,-272.817 1381.5,-251.817 1239.5,-251.817"/>
<text text-anchor="start" x="1295" y="-258.617" font-family="Times,serif" font-size="14.00">u4le</text>
<polygon fill="none" stroke="black" points="1381.5,-251.817 1381.5,-272.817 1547.5,-272.817 1547.5,-251.817 1381.5,-251.817"/>
<text text-anchor="start" x="1441.5" y="-258.617" font-family="Times,serif" font-size="14.00">length</text>
<polygon fill="none" stroke="black" points="1174.5,-230.817 1174.5,-251.817 1205.5,-251.817 1205.5,-230.817 1174.5,-230.817"/>
<text text-anchor="start" x="1180.5" y="-237.617" font-family="Times,serif" font-size="14.00">36</text>
<polygon fill="none" stroke="black" points="1205.5,-230.817 1205.5,-251.817 1239.5,-251.817 1239.5,-230.817 1205.5,-230.817"/>
<text text-anchor="start" x="1217.5" y="-237.617" font-family="Times,serif" font-size="14.00">4</text>
<polygon fill="none" stroke="black" points="1239.5,-230.817 1239.5,-251.817 1381.5,-251.817 1381.5,-230.817 1239.5,-230.817"/>
<text text-anchor="start" x="1295" y="-237.617" font-family="Times,serif" font-size="14.00">u4le</text>
<polygon fill="none" stroke="black" points="1381.5,-230.817 1381.5,-251.817 1547.5,-251.817 1547.5,-230.817 1381.5,-230.817"/>
<text text-anchor="start" x="1384.5" y="-237.617" font-family="Times,serif" font-size="14.00">suggested_buffer_size</text>
<polygon fill="none" stroke="black" points="1174.5,-209.817 1174.5,-230.817 1205.5,-230.817 1205.5,-209.817 1174.5,-209.817"/>
<text text-anchor="start" x="1180.5" y="-216.617" font-family="Times,serif" font-size="14.00">40</text>
<polygon fill="none" stroke="black" points="1205.5,-209.817 1205.5,-230.817 1239.5,-230.817 1239.5,-209.817 1205.5,-209.817"/>
<text text-anchor="start" x="1217.5" y="-216.617" font-family="Times,serif" font-size="14.00">4</text>
<polygon fill="none" stroke="black" points="1239.5,-209.817 1239.5,-230.817 1381.5,-230.817 1381.5,-209.817 1239.5,-209.817"/>
<text text-anchor="start" x="1295" y="-216.617" font-family="Times,serif" font-size="14.00">u4le</text>
<polygon fill="none" stroke="black" points="1381.5,-209.817 1381.5,-230.817 1547.5,-230.817 1547.5,-209.817 1381.5,-209.817"/>
<text text-anchor="start" x="1439.5" y="-216.617" font-family="Times,serif" font-size="14.00">quality</text>
<polygon fill="none" stroke="black" points="1174.5,-188.817 1174.5,-209.817 1205.5,-209.817 1205.5,-188.817 1174.5,-188.817"/>
<text text-anchor="start" x="1180.5" y="-195.617" font-family="Times,serif" font-size="14.00">44</text>
<polygon fill="none" stroke="black" points="1205.5,-188.817 1205.5,-209.817 1239.5,-209.817 1239.5,-188.817 1205.5,-188.817"/>
<text text-anchor="start" x="1217.5" y="-195.617" font-family="Times,serif" font-size="14.00">4</text>
<polygon fill="none" stroke="black" points="1239.5,-188.817 1239.5,-209.817 1381.5,-209.817 1381.5,-188.817 1239.5,-188.817"/>
<text text-anchor="start" x="1295" y="-195.617" font-family="Times,serif" font-size="14.00">u4le</text>
<polygon fill="none" stroke="black" points="1381.5,-188.817 1381.5,-209.817 1547.5,-209.817 1547.5,-188.817 1381.5,-188.817"/>
<text text-anchor="start" x="1421" y="-195.617" font-family="Times,serif" font-size="14.00">sample_size</text>
<polygon fill="none" stroke="black" points="1174.5,-167.817 1174.5,-188.817 1205.5,-188.817 1205.5,-167.817 1174.5,-167.817"/>
<text text-anchor="start" x="1180.5" y="-174.617" font-family="Times,serif" font-size="14.00">48</text>
<polygon fill="none" stroke="black" points="1205.5,-167.817 1205.5,-188.817 1239.5,-188.817 1239.5,-167.817 1205.5,-167.817"/>
<text text-anchor="start" x="1217.5" y="-174.617" font-family="Times,serif" font-size="14.00">8</text>
<polygon fill="none" stroke="black" points="1239.5,-167.817 1239.5,-188.817 1381.5,-188.817 1381.5,-167.817 1239.5,-167.817"/>
<text text-anchor="start" x="1293.5" y="-174.617" font-family="Times,serif" font-size="14.00">Rect</text>
<polygon fill="none" stroke="black" points="1381.5,-167.817 1381.5,-188.817 1547.5,-188.817 1547.5,-167.817 1381.5,-167.817"/>
<text text-anchor="start" x="1443" y="-174.617" font-family="Times,serif" font-size="14.00">frame</text>
</g>
<!-- block__seq_data_switch&#45;&gt;strh_body__seq -->
<g id="edge8" class="edge"><title>block__seq_data_switch:case2&#45;&gt;strh_body__seq</title>
<path fill="none" stroke="black" stroke-width="2" d="M1123,-111.817C1146.62,-111.817 1141.24,-135.168 1158,-151.817 1159.67,-153.471 1161.34,-155.128 1163.03,-156.787"/>
<polygon fill="black" stroke="black" stroke-width="2" points="1160.91,-159.606 1170.52,-164.073 1165.79,-154.59 1160.91,-159.606"/>
</g>
<!-- strh_body__seq&#45;&gt;rect__seq -->
<g id="edge10" class="edge"><title>strh_body__seq:frame_type&#45;&gt;rect__seq</title>
<path fill="none" stroke="black" stroke-width="2" d="M1548.5,-177.817C1558.85,-177.817 1569.66,-177.817 1580.43,-177.817"/>
<polygon fill="black" stroke="black" stroke-width="2" points="1580.74,-181.317 1590.74,-177.817 1580.74,-174.317 1580.74,-181.317"/>
</g>
<!-- strf_body__seq -->
<g id="node9" class="node"><title>strf_body__seq</title>
<polygon fill="#e0ffe0" stroke="none" points="105,-521.817 105,-542.817 136,-542.817 136,-521.817 105,-521.817"/>
<polygon fill="none" stroke="black" points="105,-521.817 105,-542.817 136,-542.817 136,-521.817 105,-521.817"/>
<text text-anchor="start" x="108" y="-528.617" font-family="Times,serif" font-size="14.00">pos</text>
<polygon fill="#e0ffe0" stroke="none" points="136,-521.817 136,-542.817 170,-542.817 170,-521.817 136,-521.817"/>
<polygon fill="none" stroke="black" points="136,-521.817 136,-542.817 170,-542.817 170,-521.817 136,-521.817"/>
<text text-anchor="start" x="139" y="-528.617" font-family="Times,serif" font-size="14.00">size</text>
<polygon fill="#e0ffe0" stroke="none" points="170,-521.817 170,-542.817 208,-542.817 208,-521.817 170,-521.817"/>
<polygon fill="none" stroke="black" points="170,-521.817 170,-542.817 208,-542.817 208,-521.817 170,-521.817"/>
<text text-anchor="start" x="173" y="-528.617" font-family="Times,serif" font-size="14.00">type</text>
<polygon fill="#e0ffe0" stroke="none" points="208,-521.817 208,-542.817 228,-542.817 228,-521.817 208,-521.817"/>
<polygon fill="none" stroke="black" points="208,-521.817 208,-542.817 228,-542.817 228,-521.817 208,-521.817"/>
<text text-anchor="start" x="211" y="-528.617" font-family="Times,serif" font-size="14.00">id</text>
</g>
</g>
</svg>
