<?xml version="1.0" encoding="UTF-8" standalone="no"?>
<!DOCTYPE svg PUBLIC "-//W3C//DTD SVG 1.1//EN"
 "http://www.w3.org/Graphics/SVG/1.1/DTD/svg11.dtd">
<!-- Generated by graphviz version 2.38.0 (20140413.2041)
 -->
<!-- Title: %3 Pages: 1 -->
<svg width="1204pt" height="444pt"
 viewBox="0.00 0.00 1204.00 444.00" xmlns="http://www.w3.org/2000/svg" xmlns:xlink="http://www.w3.org/1999/xlink">
<g id="graph0" class="graph" transform="scale(1 1) rotate(0) translate(4 440)">
<title>%3</title>
<polygon fill="white" stroke="none" points="-4,4 -4,-440 1200,-440 1200,4 -4,4"/>
<g id="clust1" class="cluster"><title>cluster__cpio_old_le</title>
<polygon fill="none" stroke="black" stroke-dasharray="1,5" points="8,-8 8,-428 1188,-428 1188,-8 8,-8"/>
<text text-anchor="middle" x="598" y="-412.8" font-family="Times,serif" font-size="14.00">CpioOldLe</text>
</g>
<g id="clust2" class="cluster"><title>cluster__file</title>
<polygon fill="none" stroke="black" stroke-dasharray="1,5" points="377,-16 377,-231 782,-231 782,-16 377,-16"/>
<text text-anchor="middle" x="579.5" y="-215.8" font-family="Times,serif" font-size="14.00">CpioOldLe::File</text>
</g>
<g id="clust3" class="cluster"><title>cluster__file_header</title>
<polygon fill="none" stroke="black" stroke-dasharray="1,5" points="16,-98 16,-397 357,-397 357,-98 16,-98"/>
<text text-anchor="middle" x="186.5" y="-381.8" font-family="Times,serif" font-size="14.00">CpioOldLe::FileHeader</text>
</g>
<g id="clust4" class="cluster"><title>cluster__four_byte_unsigned_integer</title>
<polygon fill="none" stroke="black" stroke-dasharray="1,5" points="460,-239 460,-350 1180,-350 1180,-239 460,-239"/>
<text text-anchor="middle" x="820" y="-334.8" font-family="Times,serif" font-size="14.00">CpioOldLe::FourByteUnsignedInteger</text>
</g>
<!-- cpio_old_le__seq -->
<g id="node1" class="node"><title>cpio_old_le__seq</title>
<polygon fill="#e0ffe0" stroke="none" points="120.5,-62 120.5,-83 155.5,-83 155.5,-62 120.5,-62"/>
<polygon fill="none" stroke="black" points="120.5,-62 120.5,-83 155.5,-83 155.5,-62 120.5,-62"/>
<text text-anchor="start" x="128.5" y="-68.8" font-family="Times,serif" font-size="14.00">pos</text>
<polygon fill="#e0ffe0" stroke="none" points="155.5,-62 155.5,-83 188.5,-83 188.5,-62 155.5,-62"/>
<polygon fill="none" stroke="black" points="155.5,-62 155.5,-83 188.5,-83 188.5,-62 155.5,-62"/>
<text text-anchor="start" x="161" y="-68.8" font-family="Times,serif" font-size="14.00">size</text>
<polygon fill="#e0ffe0" stroke="none" points="188.5,-62 188.5,-83 220.5,-83 220.5,-62 188.5,-62"/>
<polygon fill="none" stroke="black" points="188.5,-62 188.5,-83 220.5,-83 220.5,-62 188.5,-62"/>
<text text-anchor="start" x="192.5" y="-68.8" font-family="Times,serif" font-size="14.00">type</text>
<polygon fill="#e0ffe0" stroke="none" points="220.5,-62 220.5,-83 253.5,-83 253.5,-62 220.5,-62"/>
<polygon fill="none" stroke="black" points="220.5,-62 220.5,-83 253.5,-83 253.5,-62 220.5,-62"/>
<text text-anchor="start" x="231.5" y="-68.8" font-family="Times,serif" font-size="14.00">id</text>
<polygon fill="none" stroke="black" points="120.5,-41 120.5,-62 155.5,-62 155.5,-41 120.5,-41"/>
<text text-anchor="start" x="134.5" y="-47.8" font-family="Times,serif" font-size="14.00">0</text>
<polygon fill="none" stroke="black" points="155.5,-41 155.5,-62 188.5,-62 188.5,-41 155.5,-41"/>
<text text-anchor="start" x="166" y="-47.8" font-family="Times,serif" font-size="14.00">...</text>
<polygon fill="none" stroke="black" points="188.5,-41 188.5,-62 220.5,-62 220.5,-41 188.5,-41"/>
<text text-anchor="start" x="193.5" y="-47.8" font-family="Times,serif" font-size="14.00">File</text>
<polygon fill="none" stroke="black" points="220.5,-41 220.5,-62 253.5,-62 253.5,-41 220.5,-41"/>
<text text-anchor="start" x="225" y="-47.8" font-family="Times,serif" font-size="14.00">files</text>
<polygon fill="none" stroke="black" points="120.5,-20 120.5,-41 253.5,-41 253.5,-20 120.5,-20"/>
<text text-anchor="start" x="123.5" y="-26.8" font-family="Times,serif" font-size="14.00">repeat to end of stream</text>
</g>
<!-- file__seq -->
<g id="node2" class="node"><title>file__seq</title>
<polygon fill="#e0ffe0" stroke="none" points="393.5,-175 393.5,-196 418.5,-196 418.5,-175 393.5,-175"/>
<polygon fill="none" stroke="black" points="393.5,-175 393.5,-196 418.5,-196 418.5,-175 393.5,-175"/>
<text text-anchor="start" x="396.5" y="-181.8" font-family="Times,serif" font-size="14.00">pos</text>
<polygon fill="#e0ffe0" stroke="none" points="418.5,-175 418.5,-196 580.5,-196 580.5,-175 418.5,-175"/>
<polygon fill="none" stroke="black" points="418.5,-175 418.5,-196 580.5,-196 580.5,-175 418.5,-175"/>
<text text-anchor="start" x="488.5" y="-181.8" font-family="Times,serif" font-size="14.00">size</text>
<polygon fill="#e0ffe0" stroke="none" points="580.5,-175 580.5,-196 647.5,-196 647.5,-175 580.5,-175"/>
<polygon fill="none" stroke="black" points="580.5,-175 580.5,-196 647.5,-196 647.5,-175 580.5,-175"/>
<text text-anchor="start" x="602" y="-181.8" font-family="Times,serif" font-size="14.00">type</text>
<polygon fill="#e0ffe0" stroke="none" points="647.5,-175 647.5,-196 766.5,-196 766.5,-175 647.5,-175"/>
<polygon fill="none" stroke="black" points="647.5,-175 647.5,-196 766.5,-196 766.5,-175 647.5,-175"/>
<text text-anchor="start" x="701.5" y="-181.8" font-family="Times,serif" font-size="14.00">id</text>
<polygon fill="none" stroke="black" points="393.5,-154 393.5,-175 418.5,-175 418.5,-154 393.5,-154"/>
<text text-anchor="start" x="402.5" y="-160.8" font-family="Times,serif" font-size="14.00">0</text>
<polygon fill="none" stroke="black" points="418.5,-154 418.5,-175 580.5,-175 580.5,-154 418.5,-154"/>
<text text-anchor="start" x="492.5" y="-160.8" font-family="Times,serif" font-size="14.00">26</text>
<polygon fill="none" stroke="black" points="580.5,-154 580.5,-175 647.5,-175 647.5,-154 580.5,-154"/>
<text text-anchor="start" x="583.5" y="-160.8" font-family="Times,serif" font-size="14.00">FileHeader</text>
<polygon fill="none" stroke="black" points="647.5,-154 647.5,-175 766.5,-175 766.5,-154 647.5,-154"/>
<text text-anchor="start" x="688.5" y="-160.8" font-family="Times,serif" font-size="14.00">header</text>
<polygon fill="none" stroke="black" points="393.5,-133 393.5,-154 418.5,-154 418.5,-133 393.5,-133"/>
<text text-anchor="start" x="399" y="-139.8" font-family="Times,serif" font-size="14.00">26</text>
<polygon fill="none" stroke="black" points="418.5,-133 418.5,-154 580.5,-154 580.5,-133 418.5,-133"/>
<text text-anchor="start" x="421.5" y="-139.8" font-family="Times,serif" font-size="14.00">(header.path_name_size &#45; 1)</text>
<polygon fill="none" stroke="black" points="580.5,-133 580.5,-154 647.5,-154 647.5,-133 580.5,-133"/>
<polygon fill="none" stroke="black" points="647.5,-133 647.5,-154 766.5,-154 766.5,-133 647.5,-133"/>
<text text-anchor="start" x="676.5" y="-139.8" font-family="Times,serif" font-size="14.00">path_name</text>
<polygon fill="none" stroke="black" points="393.5,-112 393.5,-133 418.5,-133 418.5,-112 393.5,-112"/>
<text text-anchor="start" x="400" y="-118.8" font-family="Times,serif" font-size="14.00">...</text>
<polygon fill="none" stroke="black" points="418.5,-112 418.5,-133 580.5,-133 580.5,-112 418.5,-112"/>
<text text-anchor="start" x="496" y="-118.8" font-family="Times,serif" font-size="14.00">1</text>
<polygon fill="none" stroke="black" points="580.5,-112 580.5,-133 647.5,-133 647.5,-112 580.5,-112"/>
<text text-anchor="start" x="607" y="-118.8" font-family="Times,serif" font-size="14.00">00</text>
<polygon fill="none" stroke="black" points="647.5,-112 647.5,-133 766.5,-133 766.5,-112 647.5,-112"/>
<text text-anchor="start" x="659.5" y="-118.8" font-family="Times,serif" font-size="14.00">string_terminator</text>
<polygon fill="none" stroke="black" points="393.5,-91 393.5,-112 418.5,-112 418.5,-91 393.5,-91"/>
<text text-anchor="start" x="400" y="-97.8" font-family="Times,serif" font-size="14.00">...</text>
<polygon fill="none" stroke="black" points="418.5,-91 418.5,-112 580.5,-112 580.5,-91 418.5,-91"/>
<text text-anchor="start" x="496" y="-97.8" font-family="Times,serif" font-size="14.00">1</text>
<polygon fill="none" stroke="black" points="580.5,-91 580.5,-112 647.5,-112 647.5,-91 580.5,-91"/>
<text text-anchor="start" x="607" y="-97.8" font-family="Times,serif" font-size="14.00">00</text>
<polygon fill="none" stroke="black" points="647.5,-91 647.5,-112 766.5,-112 766.5,-91 647.5,-91"/>
<text text-anchor="start" x="651.5" y="-97.8" font-family="Times,serif" font-size="14.00">path_name_padding</text>
<polygon fill="none" stroke="black" points="393.5,-70 393.5,-91 418.5,-91 418.5,-70 393.5,-70"/>
<text text-anchor="start" x="400" y="-76.8" font-family="Times,serif" font-size="14.00">...</text>
<polygon fill="none" stroke="black" points="418.5,-70 418.5,-91 580.5,-91 580.5,-70 418.5,-70"/>
<text text-anchor="start" x="440" y="-76.8" font-family="Times,serif" font-size="14.00">header.file_size.value</text>
<polygon fill="none" stroke="black" points="580.5,-70 580.5,-91 647.5,-91 647.5,-70 580.5,-70"/>
<polygon fill="none" stroke="black" points="647.5,-70 647.5,-91 766.5,-91 766.5,-70 647.5,-70"/>
<text text-anchor="start" x="683" y="-76.8" font-family="Times,serif" font-size="14.00">file_data</text>
<polygon fill="none" stroke="black" points="393.5,-49 393.5,-70 418.5,-70 418.5,-49 393.5,-49"/>
<text text-anchor="start" x="400" y="-55.8" font-family="Times,serif" font-size="14.00">...</text>
<polygon fill="none" stroke="black" points="418.5,-49 418.5,-70 580.5,-70 580.5,-49 418.5,-49"/>
<text text-anchor="start" x="496" y="-55.8" font-family="Times,serif" font-size="14.00">1</text>
<polygon fill="none" stroke="black" points="580.5,-49 580.5,-70 647.5,-70 647.5,-49 580.5,-49"/>
<text text-anchor="start" x="607" y="-55.8" font-family="Times,serif" font-size="14.00">00</text>
<polygon fill="none" stroke="black" points="647.5,-49 647.5,-70 766.5,-70 766.5,-49 647.5,-49"/>
<text text-anchor="start" x="658" y="-55.8" font-family="Times,serif" font-size="14.00">file_data_padding</text>
<polygon fill="none" stroke="black" points="393.5,-28 393.5,-49 418.5,-49 418.5,-28 393.5,-28"/>
<text text-anchor="start" x="400" y="-34.8" font-family="Times,serif" font-size="14.00">...</text>
<polygon fill="none" stroke="black" points="418.5,-28 418.5,-49 580.5,-49 580.5,-28 418.5,-28"/>
<text text-anchor="start" x="493" y="-34.8" font-family="Times,serif" font-size="14.00">⇲</text>
<polygon fill="none" stroke="black" points="580.5,-28 580.5,-49 647.5,-49 647.5,-28 580.5,-28"/>
<polygon fill="none" stroke="black" points="647.5,-28 647.5,-49 766.5,-49 766.5,-28 647.5,-28"/>
<text text-anchor="start" x="650.5" y="-34.8" font-family="Times,serif" font-size="14.00">end_of_file_padding</text>
</g>
<!-- cpio_old_le__seq&#45;&gt;file__seq -->
<g id="edge1" class="edge"><title>cpio_old_le__seq:files_type&#45;&gt;file__seq</title>
<path fill="none" stroke="black" stroke-width="2" d="M254.5,-51C293.679,-51 335.07,-55.361 374.689,-61.7509"/>
<polygon fill="black" stroke="black" stroke-width="2" points="374.283,-65.2313 384.722,-63.4178 375.43,-58.326 374.283,-65.2313"/>
</g>
<!-- file_header__seq -->
<g id="node3" class="node"><title>file_header__seq</title>
<polygon fill="#e0ffe0" stroke="none" points="32.5,-341 32.5,-362 57.5,-362 57.5,-341 32.5,-341"/>
<polygon fill="none" stroke="black" points="32.5,-341 32.5,-362 57.5,-362 57.5,-341 32.5,-341"/>
<text text-anchor="start" x="35.5" y="-347.8" font-family="Times,serif" font-size="14.00">pos</text>
<polygon fill="#e0ffe0" stroke="none" points="57.5,-341 57.5,-362 85.5,-362 85.5,-341 57.5,-341"/>
<polygon fill="none" stroke="black" points="57.5,-341 57.5,-362 85.5,-362 85.5,-341 57.5,-341"/>
<text text-anchor="start" x="60.5" y="-347.8" font-family="Times,serif" font-size="14.00">size</text>
<polygon fill="#e0ffe0" stroke="none" points="85.5,-341 85.5,-362 233.5,-362 233.5,-341 85.5,-341"/>
<polygon fill="none" stroke="black" points="85.5,-341 85.5,-362 233.5,-362 233.5,-341 85.5,-341"/>
<text text-anchor="start" x="147.5" y="-347.8" font-family="Times,serif" font-size="14.00">type</text>
<polygon fill="#e0ffe0" stroke="none" points="233.5,-341 233.5,-362 341.5,-362 341.5,-341 233.5,-341"/>
<polygon fill="none" stroke="black" points="233.5,-341 233.5,-362 341.5,-362 341.5,-341 233.5,-341"/>
<text text-anchor="start" x="282" y="-347.8" font-family="Times,serif" font-size="14.00">id</text>
<polygon fill="none" stroke="black" points="32.5,-320 32.5,-341 57.5,-341 57.5,-320 32.5,-320"/>
<text text-anchor="start" x="41.5" y="-326.8" font-family="Times,serif" font-size="14.00">0</text>
<polygon fill="none" stroke="black" points="57.5,-320 57.5,-341 85.5,-341 85.5,-320 57.5,-320"/>
<text text-anchor="start" x="68" y="-326.8" font-family="Times,serif" font-size="14.00">2</text>
<polygon fill="none" stroke="black" points="85.5,-320 85.5,-341 233.5,-341 233.5,-320 85.5,-320"/>
<text text-anchor="start" x="142.5" y="-326.8" font-family="Times,serif" font-size="14.00">C7 71</text>
<polygon fill="none" stroke="black" points="233.5,-320 233.5,-341 341.5,-341 341.5,-320 233.5,-320"/>
<text text-anchor="start" x="270.5" y="-326.8" font-family="Times,serif" font-size="14.00">magic</text>
<polygon fill="none" stroke="black" points="32.5,-299 32.5,-320 57.5,-320 57.5,-299 32.5,-299"/>
<text text-anchor="start" x="41.5" y="-305.8" font-family="Times,serif" font-size="14.00">2</text>
<polygon fill="none" stroke="black" points="57.5,-299 57.5,-320 85.5,-320 85.5,-299 57.5,-299"/>
<text text-anchor="start" x="68" y="-305.8" font-family="Times,serif" font-size="14.00">2</text>
<polygon fill="none" stroke="black" points="85.5,-299 85.5,-320 233.5,-320 233.5,-299 85.5,-299"/>
<text text-anchor="start" x="147.5" y="-305.8" font-family="Times,serif" font-size="14.00">u2le</text>
<polygon fill="none" stroke="black" points="233.5,-299 233.5,-320 341.5,-320 341.5,-299 233.5,-299"/>
<text text-anchor="start" x="245" y="-305.8" font-family="Times,serif" font-size="14.00">device_number</text>
<polygon fill="none" stroke="black" points="32.5,-278 32.5,-299 57.5,-299 57.5,-278 32.5,-278"/>
<text text-anchor="start" x="41.5" y="-284.8" font-family="Times,serif" font-size="14.00">4</text>
<polygon fill="none" stroke="black" points="57.5,-278 57.5,-299 85.5,-299 85.5,-278 57.5,-278"/>
<text text-anchor="start" x="68" y="-284.8" font-family="Times,serif" font-size="14.00">2</text>
<polygon fill="none" stroke="black" points="85.5,-278 85.5,-299 233.5,-299 233.5,-278 85.5,-278"/>
<text text-anchor="start" x="147.5" y="-284.8" font-family="Times,serif" font-size="14.00">u2le</text>
<polygon fill="none" stroke="black" points="233.5,-278 233.5,-299 341.5,-299 341.5,-278 233.5,-278"/>
<text text-anchor="start" x="248" y="-284.8" font-family="Times,serif" font-size="14.00">inode_number</text>
<polygon fill="none" stroke="black" points="32.5,-257 32.5,-278 57.5,-278 57.5,-257 32.5,-257"/>
<text text-anchor="start" x="41.5" y="-263.8" font-family="Times,serif" font-size="14.00">6</text>
<polygon fill="none" stroke="black" points="57.5,-257 57.5,-278 85.5,-278 85.5,-257 57.5,-257"/>
<text text-anchor="start" x="68" y="-263.8" font-family="Times,serif" font-size="14.00">2</text>
<polygon fill="none" stroke="black" points="85.5,-257 85.5,-278 233.5,-278 233.5,-257 85.5,-257"/>
<text text-anchor="start" x="147.5" y="-263.8" font-family="Times,serif" font-size="14.00">u2le</text>
<polygon fill="none" stroke="black" points="233.5,-257 233.5,-278 341.5,-278 341.5,-257 233.5,-257"/>
<text text-anchor="start" x="272" y="-263.8" font-family="Times,serif" font-size="14.00">mode</text>
<polygon fill="none" stroke="black" points="32.5,-236 32.5,-257 57.5,-257 57.5,-236 32.5,-236"/>
<text text-anchor="start" x="41.5" y="-242.8" font-family="Times,serif" font-size="14.00">8</text>
<polygon fill="none" stroke="black" points="57.5,-236 57.5,-257 85.5,-257 85.5,-236 57.5,-236"/>
<text text-anchor="start" x="68" y="-242.8" font-family="Times,serif" font-size="14.00">2</text>
<polygon fill="none" stroke="black" points="85.5,-236 85.5,-257 233.5,-257 233.5,-236 85.5,-236"/>
<text text-anchor="start" x="147.5" y="-242.8" font-family="Times,serif" font-size="14.00">u2le</text>
<polygon fill="none" stroke="black" points="233.5,-236 233.5,-257 341.5,-257 341.5,-236 233.5,-236"/>
<text text-anchor="start" x="267.5" y="-242.8" font-family="Times,serif" font-size="14.00">user_id</text>
<polygon fill="none" stroke="black" points="32.5,-215 32.5,-236 57.5,-236 57.5,-215 32.5,-215"/>
<text text-anchor="start" x="38" y="-221.8" font-family="Times,serif" font-size="14.00">10</text>
<polygon fill="none" stroke="black" points="57.5,-215 57.5,-236 85.5,-236 85.5,-215 57.5,-215"/>
<text text-anchor="start" x="68" y="-221.8" font-family="Times,serif" font-size="14.00">2</text>
<polygon fill="none" stroke="black" points="85.5,-215 85.5,-236 233.5,-236 233.5,-215 85.5,-215"/>
<text text-anchor="start" x="147.5" y="-221.8" font-family="Times,serif" font-size="14.00">u2le</text>
<polygon fill="none" stroke="black" points="233.5,-215 233.5,-236 341.5,-236 341.5,-215 233.5,-215"/>
<text text-anchor="start" x="263" y="-221.8" font-family="Times,serif" font-size="14.00">group_id</text>
<polygon fill="none" stroke="black" points="32.5,-194 32.5,-215 57.5,-215 57.5,-194 32.5,-194"/>
<text text-anchor="start" x="38" y="-200.8" font-family="Times,serif" font-size="14.00">12</text>
<polygon fill="none" stroke="black" points="57.5,-194 57.5,-215 85.5,-215 85.5,-194 57.5,-194"/>
<text text-anchor="start" x="68" y="-200.8" font-family="Times,serif" font-size="14.00">2</text>
<polygon fill="none" stroke="black" points="85.5,-194 85.5,-215 233.5,-215 233.5,-194 85.5,-194"/>
<text text-anchor="start" x="147.5" y="-200.8" font-family="Times,serif" font-size="14.00">u2le</text>
<polygon fill="none" stroke="black" points="233.5,-194 233.5,-215 341.5,-215 341.5,-194 233.5,-194"/>
<text text-anchor="start" x="240.5" y="-200.8" font-family="Times,serif" font-size="14.00">number_of_links</text>
<polygon fill="none" stroke="black" points="32.5,-173 32.5,-194 57.5,-194 57.5,-173 32.5,-173"/>
<text text-anchor="start" x="38" y="-179.8" font-family="Times,serif" font-size="14.00">14</text>
<polygon fill="none" stroke="black" points="57.5,-173 57.5,-194 85.5,-194 85.5,-173 57.5,-173"/>
<text text-anchor="start" x="68" y="-179.8" font-family="Times,serif" font-size="14.00">2</text>
<polygon fill="none" stroke="black" points="85.5,-173 85.5,-194 233.5,-194 233.5,-173 85.5,-173"/>
<text text-anchor="start" x="147.5" y="-179.8" font-family="Times,serif" font-size="14.00">u2le</text>
<polygon fill="none" stroke="black" points="233.5,-173 233.5,-194 341.5,-194 341.5,-173 233.5,-173"/>
<text text-anchor="start" x="239.5" y="-179.8" font-family="Times,serif" font-size="14.00">r_device_number</text>
<polygon fill="none" stroke="black" points="32.5,-152 32.5,-173 57.5,-173 57.5,-152 32.5,-152"/>
<text text-anchor="start" x="38" y="-158.8" font-family="Times,serif" font-size="14.00">16</text>
<polygon fill="none" stroke="black" points="57.5,-152 57.5,-173 85.5,-173 85.5,-152 57.5,-152"/>
<text text-anchor="start" x="68" y="-158.8" font-family="Times,serif" font-size="14.00">4</text>
<polygon fill="none" stroke="black" points="85.5,-152 85.5,-173 233.5,-173 233.5,-152 85.5,-152"/>
<text text-anchor="start" x="88.5" y="-158.8" font-family="Times,serif" font-size="14.00">FourByteUnsignedInteger</text>
<polygon fill="none" stroke="black" points="233.5,-152 233.5,-173 341.5,-173 341.5,-152 233.5,-152"/>
<text text-anchor="start" x="236.5" y="-158.8" font-family="Times,serif" font-size="14.00">modification_time</text>
<polygon fill="none" stroke="black" points="32.5,-131 32.5,-152 57.5,-152 57.5,-131 32.5,-131"/>
<text text-anchor="start" x="38" y="-137.8" font-family="Times,serif" font-size="14.00">20</text>
<polygon fill="none" stroke="black" points="57.5,-131 57.5,-152 85.5,-152 85.5,-131 57.5,-131"/>
<text text-anchor="start" x="68" y="-137.8" font-family="Times,serif" font-size="14.00">2</text>
<polygon fill="none" stroke="black" points="85.5,-131 85.5,-152 233.5,-152 233.5,-131 85.5,-131"/>
<text text-anchor="start" x="147.5" y="-137.8" font-family="Times,serif" font-size="14.00">u2le</text>
<polygon fill="none" stroke="black" points="233.5,-131 233.5,-152 341.5,-152 341.5,-131 233.5,-131"/>
<text text-anchor="start" x="243.5" y="-137.8" font-family="Times,serif" font-size="14.00">path_name_size</text>
<polygon fill="none" stroke="black" points="32.5,-110 32.5,-131 57.5,-131 57.5,-110 32.5,-110"/>
<text text-anchor="start" x="38" y="-116.8" font-family="Times,serif" font-size="14.00">22</text>
<polygon fill="none" stroke="black" points="57.5,-110 57.5,-131 85.5,-131 85.5,-110 57.5,-110"/>
<text text-anchor="start" x="68" y="-116.8" font-family="Times,serif" font-size="14.00">4</text>
<polygon fill="none" stroke="black" points="85.5,-110 85.5,-131 233.5,-131 233.5,-110 85.5,-110"/>
<text text-anchor="start" x="88.5" y="-116.8" font-family="Times,serif" font-size="14.00">FourByteUnsignedInteger</text>
<polygon fill="none" stroke="black" points="233.5,-110 233.5,-131 341.5,-131 341.5,-110 233.5,-110"/>
<text text-anchor="start" x="264.5" y="-116.8" font-family="Times,serif" font-size="14.00">file_size</text>
</g>
<!-- file__seq&#45;&gt;file_header__seq -->
<g id="edge2" class="edge"><title>file__seq:header_type&#45;&gt;file_header__seq</title>
<path fill="none" stroke="black" stroke-width="2" d="M767.5,-165C783.062,-165 777.318,-188.813 766.5,-200 752.345,-214.637 524.962,-225.149 359.433,-230.905"/>
<polygon fill="black" stroke="black" stroke-width="2" points="358.993,-227.418 349.119,-231.261 359.234,-234.414 358.993,-227.418"/>
</g>
<!-- file_header__seq&#45;&gt;file__seq -->
<g id="edge3" class="edge"><title>file_header__seq:path_name_size_type&#45;&gt;file__seq:path_name_size</title>
<path fill="none" stroke="#404040" d="M342.5,-141C363.78,-141 386.69,-141.283 408.226,-141.674"/>
<polygon fill="#404040" stroke="#404040" points="408.277,-145.176 418.342,-141.868 408.411,-138.177 408.277,-145.176"/>
</g>
<!-- four_byte_unsigned_integer__seq -->
<g id="node4" class="node"><title>four_byte_unsigned_integer__seq</title>
<polygon fill="#e0ffe0" stroke="none" points="476.5,-293 476.5,-314 501.5,-314 501.5,-293 476.5,-293"/>
<polygon fill="none" stroke="black" points="476.5,-293 476.5,-314 501.5,-314 501.5,-293 476.5,-293"/>
<text text-anchor="start" x="479.5" y="-299.8" font-family="Times,serif" font-size="14.00">pos</text>
<polygon fill="#e0ffe0" stroke="none" points="501.5,-293 501.5,-314 529.5,-314 529.5,-293 501.5,-293"/>
<polygon fill="none" stroke="black" points="501.5,-293 501.5,-314 529.5,-314 529.5,-293 501.5,-293"/>
<text text-anchor="start" x="504.5" y="-299.8" font-family="Times,serif" font-size="14.00">size</text>
<polygon fill="#e0ffe0" stroke="none" points="529.5,-293 529.5,-314 559.5,-314 559.5,-293 529.5,-293"/>
<polygon fill="none" stroke="black" points="529.5,-293 529.5,-314 559.5,-314 559.5,-293 529.5,-293"/>
<text text-anchor="start" x="532.5" y="-299.8" font-family="Times,serif" font-size="14.00">type</text>
<polygon fill="#e0ffe0" stroke="none" points="559.5,-293 559.5,-314 683.5,-314 683.5,-293 559.5,-293"/>
<polygon fill="none" stroke="black" points="559.5,-293 559.5,-314 683.5,-314 683.5,-293 559.5,-293"/>
<text text-anchor="start" x="616" y="-299.8" font-family="Times,serif" font-size="14.00">id</text>
<polygon fill="none" stroke="black" points="476.5,-272 476.5,-293 501.5,-293 501.5,-272 476.5,-272"/>
<text text-anchor="start" x="485.5" y="-278.8" font-family="Times,serif" font-size="14.00">0</text>
<polygon fill="none" stroke="black" points="501.5,-272 501.5,-293 529.5,-293 529.5,-272 501.5,-272"/>
<text text-anchor="start" x="512" y="-278.8" font-family="Times,serif" font-size="14.00">2</text>
<polygon fill="none" stroke="black" points="529.5,-272 529.5,-293 559.5,-293 559.5,-272 529.5,-272"/>
<text text-anchor="start" x="532.5" y="-278.8" font-family="Times,serif" font-size="14.00">u2le</text>
<polygon fill="none" stroke="black" points="559.5,-272 559.5,-293 683.5,-293 683.5,-272 559.5,-272"/>
<text text-anchor="start" x="562.5" y="-278.8" font-family="Times,serif" font-size="14.00">most_significant_bits</text>
<polygon fill="none" stroke="black" points="476.5,-251 476.5,-272 501.5,-272 501.5,-251 476.5,-251"/>
<text text-anchor="start" x="485.5" y="-257.8" font-family="Times,serif" font-size="14.00">2</text>
<polygon fill="none" stroke="black" points="501.5,-251 501.5,-272 529.5,-272 529.5,-251 501.5,-251"/>
<text text-anchor="start" x="512" y="-257.8" font-family="Times,serif" font-size="14.00">2</text>
<polygon fill="none" stroke="black" points="529.5,-251 529.5,-272 559.5,-272 559.5,-251 529.5,-251"/>
<text text-anchor="start" x="532.5" y="-257.8" font-family="Times,serif" font-size="14.00">u2le</text>
<polygon fill="none" stroke="black" points="559.5,-251 559.5,-272 683.5,-272 683.5,-251 559.5,-251"/>
<text text-anchor="start" x="564" y="-257.8" font-family="Times,serif" font-size="14.00">least_significant_bits</text>
</g>
<!-- file_header__seq&#45;&gt;four_byte_unsigned_integer__seq -->
<g id="edge5" class="edge"><title>file_header__seq:modification_time_type&#45;&gt;four_byte_unsigned_integer__seq</title>
<path fill="none" stroke="black" stroke-width="2" d="M342.5,-162C378.385,-162 349.132,-212.392 377,-235 400.083,-253.727 429.267,-265.365 458.205,-272.539"/>
<polygon fill="black" stroke="black" stroke-width="2" points="457.468,-275.961 468,-274.805 459.046,-269.141 457.468,-275.961"/>
</g>
<!-- file_header__seq&#45;&gt;four_byte_unsigned_integer__seq -->
<g id="edge6" class="edge"><title>file_header__seq:file_size_type&#45;&gt;four_byte_unsigned_integer__seq</title>
<path fill="none" stroke="black" stroke-width="2" d="M342.5,-120C395.862,-120 338.197,-198.37 377,-235 399.026,-255.792 428.371,-268.099 457.835,-275.253"/>
<polygon fill="black" stroke="black" stroke-width="2" points="457.298,-278.719 467.821,-277.486 458.826,-271.888 457.298,-278.719"/>
</g>
<!-- four_byte_unsigned_integer__inst__value -->
<g id="node5" class="node"><title>four_byte_unsigned_integer__inst__value</title>
<polygon fill="#e0ffe0" stroke="none" points="818,-272 818,-293 854,-293 854,-272 818,-272"/>
<polygon fill="none" stroke="black" points="818,-272 818,-293 854,-293 854,-272 818,-272"/>
<text text-anchor="start" x="830.5" y="-278.8" font-family="Times,serif" font-size="14.00">id</text>
<polygon fill="#e0ffe0" stroke="none" points="854,-272 854,-293 1164,-293 1164,-272 854,-272"/>
<polygon fill="none" stroke="black" points="854,-272 854,-293 1164,-293 1164,-272 854,-272"/>
<text text-anchor="start" x="994" y="-278.8" font-family="Times,serif" font-size="14.00">value</text>
<polygon fill="none" stroke="black" points="818,-251 818,-272 854,-272 854,-251 818,-251"/>
<text text-anchor="start" x="821" y="-257.8" font-family="Times,serif" font-size="14.00">value</text>
<polygon fill="none" stroke="black" points="854,-251 854,-272 1164,-272 1164,-251 854,-251"/>
<text text-anchor="start" x="857" y="-257.8" font-family="Times,serif" font-size="14.00">(least_significant_bits + (most_significant_bits &lt;&lt; 16))</text>
</g>
<!-- four_byte_unsigned_integer__seq&#45;&gt;four_byte_unsigned_integer__inst__value -->
<g id="edge7" class="edge"><title>four_byte_unsigned_integer__seq:least_significant_bits_type&#45;&gt;four_byte_unsigned_integer__inst__value</title>
<path fill="none" stroke="#404040" d="M684.5,-261C721.77,-261 761.581,-261.828 799.734,-263.029"/>
<polygon fill="#404040" stroke="#404040" points="799.812,-266.533 809.92,-263.36 800.039,-259.537 799.812,-266.533"/>
</g>
<!-- four_byte_unsigned_integer__seq&#45;&gt;four_byte_unsigned_integer__inst__value -->
<g id="edge8" class="edge"><title>four_byte_unsigned_integer__seq:most_significant_bits_type&#45;&gt;four_byte_unsigned_integer__inst__value</title>
<path fill="none" stroke="#404040" d="M684.5,-282C721.766,-282 761.575,-281.248 799.728,-280.155"/>
<polygon fill="#404040" stroke="#404040" points="800.021,-283.648 809.913,-279.855 799.814,-276.651 800.021,-283.648"/>
</g>
<!-- four_byte_unsigned_integer__inst__value&#45;&gt;file__seq -->
<g id="edge4" class="edge"><title>four_byte_unsigned_integer__inst__value:value_type&#45;&gt;file__seq:file_data_size</title>
<path fill="none" stroke="#404040" d="M926.224,-246.985C822.671,-206.367 621.171,-127.332 537.898,-94.6688"/>
<polygon fill="#404040" stroke="#404040" points="539.163,-91.4056 528.576,-91.0124 536.607,-97.9223 539.163,-91.4056"/>
</g>
</g>
</svg>
