<?xml version="1.0" encoding="UTF-8" standalone="no"?>
<!DOCTYPE svg PUBLIC "-//W3C//DTD SVG 1.1//EN"
 "http://www.w3.org/Graphics/SVG/1.1/DTD/svg11.dtd">
<!-- Generated by graphviz version 2.43.0 (0)
 -->
<!-- Title: %3 Pages: 1 -->
<svg width="2057pt" height="393pt"
 viewBox="0.00 0.00 2057.00 393.12" xmlns="http://www.w3.org/2000/svg" xmlns:xlink="http://www.w3.org/1999/xlink">
<g id="graph0" class="graph" transform="scale(1 1) rotate(0) translate(4 389.12)">
<title>%3</title>
<polygon fill="white" stroke="transparent" points="-4,4 -4,-389.12 2053,-389.12 2053,4 -4,4"/>
<g id="clust1" class="cluster">
<title>cluster__cpio_old_le</title>
<polygon fill="none" stroke="black" stroke-dasharray="1,5" points="8,-39.12 8,-377.12 2041,-377.12 2041,-39.12 8,-39.12"/>
<text text-anchor="middle" x="1024.5" y="-361.92" font-family="Times,serif" font-size="14.00">CpioOldLe</text>
</g>
<g id="clust2" class="cluster">
<title>cluster__file</title>
<polygon fill="none" stroke="black" stroke-dasharray="1,5" points="1256,-47.12 1256,-325.12 2033,-325.12 2033,-47.12 1256,-47.12"/>
<text text-anchor="middle" x="1644.5" y="-309.92" font-family="Times,serif" font-size="14.00">CpioOldLe::File</text>
</g>
<g id="clust3" class="cluster">
<title>cluster__file_header</title>
<polygon fill="none" stroke="black" stroke-dasharray="1,5" points="16,-47.12 16,-346.12 439,-346.12 439,-47.12 16,-47.12"/>
<text text-anchor="middle" x="227.5" y="-330.92" font-family="Times,serif" font-size="14.00">CpioOldLe::FileHeader</text>
</g>
<g id="clust4" class="cluster">
<title>cluster__four_byte_unsigned_integer</title>
<polygon fill="none" stroke="black" stroke-dasharray="1,5" points="459,-192.12 459,-303.12 1236,-303.12 1236,-192.12 459,-192.12"/>
<text text-anchor="middle" x="847.5" y="-287.92" font-family="Times,serif" font-size="14.00">CpioOldLe::FourByteUnsignedInteger</text>
</g>
<!-- cpio_old_le__seq -->
<g id="node1" class="node">
<title>cpio_old_le__seq</title>
<polygon fill="#e0ffe0" stroke="transparent" points="916.5,-116.12 916.5,-137.12 965.5,-137.12 965.5,-116.12 916.5,-116.12"/>
<polygon fill="none" stroke="black" points="916.5,-116.12 916.5,-137.12 965.5,-137.12 965.5,-116.12 916.5,-116.12"/>
<text text-anchor="start" x="928.5" y="-122.92" font-family="Times,serif" font-size="14.00">pos</text>
<polygon fill="#e0ffe0" stroke="transparent" points="965.5,-116.12 965.5,-137.12 1008.5,-137.12 1008.5,-116.12 965.5,-116.12"/>
<polygon fill="none" stroke="black" points="965.5,-116.12 965.5,-137.12 1008.5,-137.12 1008.5,-116.12 965.5,-116.12"/>
<text text-anchor="start" x="973" y="-122.92" font-family="Times,serif" font-size="14.00">size</text>
<polygon fill="#e0ffe0" stroke="transparent" points="1008.5,-116.12 1008.5,-137.12 1050.5,-137.12 1050.5,-116.12 1008.5,-116.12"/>
<polygon fill="none" stroke="black" points="1008.5,-116.12 1008.5,-137.12 1050.5,-137.12 1050.5,-116.12 1008.5,-116.12"/>
<text text-anchor="start" x="1013.5" y="-122.92" font-family="Times,serif" font-size="14.00">type</text>
<polygon fill="#e0ffe0" stroke="transparent" points="1050.5,-116.12 1050.5,-137.12 1091.5,-137.12 1091.5,-116.12 1050.5,-116.12"/>
<polygon fill="none" stroke="black" points="1050.5,-116.12 1050.5,-137.12 1091.5,-137.12 1091.5,-116.12 1050.5,-116.12"/>
<text text-anchor="start" x="1064" y="-122.92" font-family="Times,serif" font-size="14.00">id</text>
<polygon fill="none" stroke="black" points="916.5,-95.12 916.5,-116.12 965.5,-116.12 965.5,-95.12 916.5,-95.12"/>
<text text-anchor="start" x="936" y="-101.92" font-family="Times,serif" font-size="14.00">0</text>
<polygon fill="none" stroke="black" points="965.5,-95.12 965.5,-116.12 1008.5,-116.12 1008.5,-95.12 965.5,-95.12"/>
<text text-anchor="start" x="980" y="-101.92" font-family="Times,serif" font-size="14.00">...</text>
<polygon fill="none" stroke="black" points="1008.5,-95.12 1008.5,-116.12 1050.5,-116.12 1050.5,-95.12 1008.5,-95.12"/>
<text text-anchor="start" x="1015.5" y="-101.92" font-family="Times,serif" font-size="14.00">File</text>
<polygon fill="none" stroke="black" points="1050.5,-95.12 1050.5,-116.12 1091.5,-116.12 1091.5,-95.12 1050.5,-95.12"/>
<text text-anchor="start" x="1056" y="-101.92" font-family="Times,serif" font-size="14.00">files</text>
<polygon fill="none" stroke="black" points="916.5,-74.12 916.5,-95.12 1091.5,-95.12 1091.5,-74.12 916.5,-74.12"/>
<text text-anchor="start" x="919.5" y="-80.92" font-family="Times,serif" font-size="14.00">repeat to end of stream</text>
</g>
<!-- file__seq -->
<g id="node2" class="node">
<title>file__seq</title>
<polygon fill="#e0ffe0" stroke="transparent" points="1272.5,-268.12 1272.5,-289.12 1445.5,-289.12 1445.5,-268.12 1272.5,-268.12"/>
<polygon fill="none" stroke="black" points="1272.5,-268.12 1272.5,-289.12 1445.5,-289.12 1445.5,-268.12 1272.5,-268.12"/>
<text text-anchor="start" x="1346.5" y="-274.92" font-family="Times,serif" font-size="14.00">pos</text>
<polygon fill="#e0ffe0" stroke="transparent" points="1445.5,-268.12 1445.5,-289.12 1710.5,-289.12 1710.5,-268.12 1445.5,-268.12"/>
<polygon fill="none" stroke="black" points="1445.5,-268.12 1445.5,-289.12 1710.5,-289.12 1710.5,-268.12 1445.5,-268.12"/>
<text text-anchor="start" x="1564" y="-274.92" font-family="Times,serif" font-size="14.00">size</text>
<polygon fill="#e0ffe0" stroke="transparent" points="1710.5,-268.12 1710.5,-289.12 1832.5,-289.12 1832.5,-268.12 1710.5,-268.12"/>
<polygon fill="none" stroke="black" points="1710.5,-268.12 1710.5,-289.12 1832.5,-289.12 1832.5,-268.12 1710.5,-268.12"/>
<text text-anchor="start" x="1755.5" y="-274.92" font-family="Times,serif" font-size="14.00">type</text>
<polygon fill="#e0ffe0" stroke="transparent" points="1832.5,-268.12 1832.5,-289.12 2017.5,-289.12 2017.5,-268.12 1832.5,-268.12"/>
<polygon fill="none" stroke="black" points="1832.5,-268.12 1832.5,-289.12 2017.5,-289.12 2017.5,-268.12 1832.5,-268.12"/>
<text text-anchor="start" x="1918" y="-274.92" font-family="Times,serif" font-size="14.00">id</text>
<polygon fill="none" stroke="black" points="1272.5,-247.12 1272.5,-268.12 1445.5,-268.12 1445.5,-247.12 1272.5,-247.12"/>
<text text-anchor="start" x="1354" y="-253.92" font-family="Times,serif" font-size="14.00">0</text>
<polygon fill="none" stroke="black" points="1445.5,-247.12 1445.5,-268.12 1710.5,-268.12 1710.5,-247.12 1445.5,-247.12"/>
<text text-anchor="start" x="1568.5" y="-253.92" font-family="Times,serif" font-size="14.00">26</text>
<polygon fill="none" stroke="black" points="1710.5,-247.12 1710.5,-268.12 1832.5,-268.12 1832.5,-247.12 1710.5,-247.12"/>
<text text-anchor="start" x="1731.5" y="-253.92" font-family="Times,serif" font-size="14.00">FileHeader</text>
<polygon fill="none" stroke="black" points="1832.5,-247.12 1832.5,-268.12 2017.5,-268.12 2017.5,-247.12 1832.5,-247.12"/>
<text text-anchor="start" x="1900" y="-253.92" font-family="Times,serif" font-size="14.00">header</text>
<polygon fill="none" stroke="black" points="1272.5,-226.12 1272.5,-247.12 1445.5,-247.12 1445.5,-226.12 1272.5,-226.12"/>
<text text-anchor="start" x="1349.5" y="-232.92" font-family="Times,serif" font-size="14.00">26</text>
<polygon fill="none" stroke="black" points="1445.5,-226.12 1445.5,-247.12 1710.5,-247.12 1710.5,-226.12 1445.5,-226.12"/>
<text text-anchor="start" x="1484" y="-232.92" font-family="Times,serif" font-size="14.00">header.path_name_size &#45; 1</text>
<polygon fill="none" stroke="black" points="1710.5,-226.12 1710.5,-247.12 1832.5,-247.12 1832.5,-226.12 1710.5,-226.12"/>
<polygon fill="none" stroke="black" points="1832.5,-226.12 1832.5,-247.12 2017.5,-247.12 2017.5,-226.12 1832.5,-226.12"/>
<text text-anchor="start" x="1885.5" y="-232.92" font-family="Times,serif" font-size="14.00">path_name</text>
<polygon fill="none" stroke="black" points="1272.5,-205.12 1272.5,-226.12 1445.5,-226.12 1445.5,-205.12 1272.5,-205.12"/>
<text text-anchor="start" x="1352" y="-211.92" font-family="Times,serif" font-size="14.00">...</text>
<polygon fill="none" stroke="black" points="1445.5,-205.12 1445.5,-226.12 1710.5,-226.12 1710.5,-205.12 1445.5,-205.12"/>
<text text-anchor="start" x="1573" y="-211.92" font-family="Times,serif" font-size="14.00">1</text>
<polygon fill="none" stroke="black" points="1710.5,-205.12 1710.5,-226.12 1832.5,-226.12 1832.5,-205.12 1710.5,-205.12"/>
<text text-anchor="start" x="1762" y="-211.92" font-family="Times,serif" font-size="14.00">00</text>
<polygon fill="none" stroke="black" points="1832.5,-205.12 1832.5,-226.12 2017.5,-226.12 2017.5,-205.12 1832.5,-205.12"/>
<text text-anchor="start" x="1861.5" y="-211.92" font-family="Times,serif" font-size="14.00">string_terminator</text>
<polygon fill="none" stroke="black" points="1272.5,-184.12 1272.5,-205.12 1445.5,-205.12 1445.5,-184.12 1272.5,-184.12"/>
<text text-anchor="start" x="1352" y="-190.92" font-family="Times,serif" font-size="14.00">...</text>
<polygon fill="none" stroke="black" points="1445.5,-184.12 1445.5,-205.12 1710.5,-205.12 1710.5,-184.12 1445.5,-184.12"/>
<text text-anchor="start" x="1573" y="-190.92" font-family="Times,serif" font-size="14.00">1</text>
<polygon fill="none" stroke="black" points="1710.5,-184.12 1710.5,-205.12 1832.5,-205.12 1832.5,-184.12 1710.5,-184.12"/>
<text text-anchor="start" x="1762" y="-190.92" font-family="Times,serif" font-size="14.00">00</text>
<polygon fill="none" stroke="black" points="1832.5,-184.12 1832.5,-205.12 2017.5,-205.12 2017.5,-184.12 1832.5,-184.12"/>
<text text-anchor="start" x="1853.5" y="-190.92" font-family="Times,serif" font-size="14.00">path_name_padding</text>
<polygon fill="none" stroke="black" points="1272.5,-163.12 1272.5,-184.12 2017.5,-184.12 2017.5,-163.12 1272.5,-163.12"/>
<text text-anchor="start" x="1518.5" y="-169.92" font-family="Times,serif" font-size="14.00">if header.path_name_size % 2 == 1</text>
<polygon fill="none" stroke="black" points="1272.5,-142.12 1272.5,-163.12 1445.5,-163.12 1445.5,-142.12 1272.5,-142.12"/>
<text text-anchor="start" x="1352" y="-148.92" font-family="Times,serif" font-size="14.00">...</text>
<polygon fill="none" stroke="black" points="1445.5,-142.12 1445.5,-163.12 1710.5,-163.12 1710.5,-142.12 1445.5,-142.12"/>
<text text-anchor="start" x="1502" y="-148.92" font-family="Times,serif" font-size="14.00">header.file_size.value</text>
<polygon fill="none" stroke="black" points="1710.5,-142.12 1710.5,-163.12 1832.5,-163.12 1832.5,-142.12 1710.5,-142.12"/>
<polygon fill="none" stroke="black" points="1832.5,-142.12 1832.5,-163.12 2017.5,-163.12 2017.5,-142.12 1832.5,-142.12"/>
<text text-anchor="start" x="1894.5" y="-148.92" font-family="Times,serif" font-size="14.00">file_data</text>
<polygon fill="none" stroke="black" points="1272.5,-121.12 1272.5,-142.12 1445.5,-142.12 1445.5,-121.12 1272.5,-121.12"/>
<text text-anchor="start" x="1352" y="-127.92" font-family="Times,serif" font-size="14.00">...</text>
<polygon fill="none" stroke="black" points="1445.5,-121.12 1445.5,-142.12 1710.5,-142.12 1710.5,-121.12 1445.5,-121.12"/>
<text text-anchor="start" x="1573" y="-127.92" font-family="Times,serif" font-size="14.00">1</text>
<polygon fill="none" stroke="black" points="1710.5,-121.12 1710.5,-142.12 1832.5,-142.12 1832.5,-121.12 1710.5,-121.12"/>
<text text-anchor="start" x="1762" y="-127.92" font-family="Times,serif" font-size="14.00">00</text>
<polygon fill="none" stroke="black" points="1832.5,-121.12 1832.5,-142.12 2017.5,-142.12 2017.5,-121.12 1832.5,-121.12"/>
<text text-anchor="start" x="1862.5" y="-127.92" font-family="Times,serif" font-size="14.00">file_data_padding</text>
<polygon fill="none" stroke="black" points="1272.5,-100.12 1272.5,-121.12 2017.5,-121.12 2017.5,-100.12 1272.5,-100.12"/>
<text text-anchor="start" x="1525" y="-106.92" font-family="Times,serif" font-size="14.00">if header.file_size.value % 2 == 1</text>
<polygon fill="none" stroke="black" points="1272.5,-79.12 1272.5,-100.12 1445.5,-100.12 1445.5,-79.12 1272.5,-79.12"/>
<text text-anchor="start" x="1352" y="-85.92" font-family="Times,serif" font-size="14.00">...</text>
<polygon fill="none" stroke="black" points="1445.5,-79.12 1445.5,-100.12 1710.5,-100.12 1710.5,-79.12 1445.5,-79.12"/>
<text text-anchor="start" x="1571.5" y="-85.92" font-family="Times,serif" font-size="14.00">⇲</text>
<polygon fill="none" stroke="black" points="1710.5,-79.12 1710.5,-100.12 1832.5,-100.12 1832.5,-79.12 1710.5,-79.12"/>
<polygon fill="none" stroke="black" points="1832.5,-79.12 1832.5,-100.12 2017.5,-100.12 2017.5,-79.12 1832.5,-79.12"/>
<text text-anchor="start" x="1855" y="-85.92" font-family="Times,serif" font-size="14.00">end_of_file_padding</text>
<polygon fill="none" stroke="black" points="1272.5,-58.12 1272.5,-79.12 2017.5,-79.12 2017.5,-58.12 1272.5,-58.12"/>
<text text-anchor="start" x="1275.5" y="-64.92" font-family="Times,serif" font-size="14.00">if &#160;((path_name == [84, 82, 65, 73, 76, 69, 82, 33, 33, 33].pack(&#39;C*&#39;)) &amp;&amp; (header.file_size.value == 0)) </text>
</g>
<!-- cpio_old_le__seq&#45;&gt;file__seq -->
<g id="edge1" class="edge">
<title>cpio_old_le__seq:files_type&#45;&gt;file__seq</title>
<path fill="none" stroke="black" stroke-width="2" d="M1092.5,-105.12C1144.8,-105.12 1199.68,-108.22 1253.69,-113.1"/>
<polygon fill="black" stroke="black" stroke-width="2" points="1253.48,-116.6 1263.76,-114.03 1254.13,-109.63 1253.48,-116.6"/>
</g>
<!-- file__seq&#45;&gt;file__seq -->
<g id="edge7" class="edge">
<title>file__seq:path_name_type&#45;&gt;file__seq:end_of_file_padding__if</title>
<path fill="none" stroke="#404040" d="M1832.07,-239.64C1537.32,-245 944,-235.89 944,-152.62 944,-100.16 1091.34,-77.13 1261.92,-68.62"/>
<polygon fill="#404040" stroke="#404040" points="1262.32,-72.1 1272.14,-68.12 1261.98,-65.11 1262.32,-72.1"/>
</g>
<!-- file_header__seq -->
<g id="node3" class="node">
<title>file_header__seq</title>
<polygon fill="#e0ffe0" stroke="transparent" points="32.5,-290.12 32.5,-311.12 63.5,-311.12 63.5,-290.12 32.5,-290.12"/>
<polygon fill="none" stroke="black" points="32.5,-290.12 32.5,-311.12 63.5,-311.12 63.5,-290.12 32.5,-290.12"/>
<text text-anchor="start" x="35.5" y="-296.92" font-family="Times,serif" font-size="14.00">pos</text>
<polygon fill="#e0ffe0" stroke="transparent" points="63.5,-290.12 63.5,-311.12 97.5,-311.12 97.5,-290.12 63.5,-290.12"/>
<polygon fill="none" stroke="black" points="63.5,-290.12 63.5,-311.12 97.5,-311.12 97.5,-290.12 63.5,-290.12"/>
<text text-anchor="start" x="66.5" y="-296.92" font-family="Times,serif" font-size="14.00">size</text>
<polygon fill="#e0ffe0" stroke="transparent" points="97.5,-290.12 97.5,-311.12 290.5,-311.12 290.5,-290.12 97.5,-290.12"/>
<polygon fill="none" stroke="black" points="97.5,-290.12 97.5,-311.12 290.5,-311.12 290.5,-290.12 97.5,-290.12"/>
<text text-anchor="start" x="178" y="-296.92" font-family="Times,serif" font-size="14.00">type</text>
<polygon fill="#e0ffe0" stroke="transparent" points="290.5,-290.12 290.5,-311.12 423.5,-311.12 423.5,-290.12 290.5,-290.12"/>
<polygon fill="none" stroke="black" points="290.5,-290.12 290.5,-311.12 423.5,-311.12 423.5,-290.12 290.5,-290.12"/>
<text text-anchor="start" x="350" y="-296.92" font-family="Times,serif" font-size="14.00">id</text>
<polygon fill="none" stroke="black" points="32.5,-269.12 32.5,-290.12 63.5,-290.12 63.5,-269.12 32.5,-269.12"/>
<text text-anchor="start" x="43" y="-275.92" font-family="Times,serif" font-size="14.00">0</text>
<polygon fill="none" stroke="black" points="63.5,-269.12 63.5,-290.12 97.5,-290.12 97.5,-269.12 63.5,-269.12"/>
<text text-anchor="start" x="75.5" y="-275.92" font-family="Times,serif" font-size="14.00">2</text>
<polygon fill="none" stroke="black" points="97.5,-269.12 97.5,-290.12 290.5,-290.12 290.5,-269.12 97.5,-269.12"/>
<text text-anchor="start" x="172.5" y="-275.92" font-family="Times,serif" font-size="14.00">C7 71</text>
<polygon fill="none" stroke="black" points="290.5,-269.12 290.5,-290.12 423.5,-290.12 423.5,-269.12 290.5,-269.12"/>
<text text-anchor="start" x="335.5" y="-275.92" font-family="Times,serif" font-size="14.00">magic</text>
<polygon fill="none" stroke="black" points="32.5,-248.12 32.5,-269.12 63.5,-269.12 63.5,-248.12 32.5,-248.12"/>
<text text-anchor="start" x="43" y="-254.92" font-family="Times,serif" font-size="14.00">2</text>
<polygon fill="none" stroke="black" points="63.5,-248.12 63.5,-269.12 97.5,-269.12 97.5,-248.12 63.5,-248.12"/>
<text text-anchor="start" x="75.5" y="-254.92" font-family="Times,serif" font-size="14.00">2</text>
<polygon fill="none" stroke="black" points="97.5,-248.12 97.5,-269.12 290.5,-269.12 290.5,-248.12 97.5,-248.12"/>
<text text-anchor="start" x="178.5" y="-254.92" font-family="Times,serif" font-size="14.00">u2le</text>
<polygon fill="none" stroke="black" points="290.5,-248.12 290.5,-269.12 423.5,-269.12 423.5,-248.12 290.5,-248.12"/>
<text text-anchor="start" x="302.5" y="-254.92" font-family="Times,serif" font-size="14.00">device_number</text>
<polygon fill="none" stroke="black" points="32.5,-227.12 32.5,-248.12 63.5,-248.12 63.5,-227.12 32.5,-227.12"/>
<text text-anchor="start" x="43" y="-233.92" font-family="Times,serif" font-size="14.00">4</text>
<polygon fill="none" stroke="black" points="63.5,-227.12 63.5,-248.12 97.5,-248.12 97.5,-227.12 63.5,-227.12"/>
<text text-anchor="start" x="75.5" y="-233.92" font-family="Times,serif" font-size="14.00">2</text>
<polygon fill="none" stroke="black" points="97.5,-227.12 97.5,-248.12 290.5,-248.12 290.5,-227.12 97.5,-227.12"/>
<text text-anchor="start" x="178.5" y="-233.92" font-family="Times,serif" font-size="14.00">u2le</text>
<polygon fill="none" stroke="black" points="290.5,-227.12 290.5,-248.12 423.5,-248.12 423.5,-227.12 290.5,-227.12"/>
<text text-anchor="start" x="306" y="-233.92" font-family="Times,serif" font-size="14.00">inode_number</text>
<polygon fill="none" stroke="black" points="32.5,-206.12 32.5,-227.12 63.5,-227.12 63.5,-206.12 32.5,-206.12"/>
<text text-anchor="start" x="43" y="-212.92" font-family="Times,serif" font-size="14.00">6</text>
<polygon fill="none" stroke="black" points="63.5,-206.12 63.5,-227.12 97.5,-227.12 97.5,-206.12 63.5,-206.12"/>
<text text-anchor="start" x="75.5" y="-212.92" font-family="Times,serif" font-size="14.00">2</text>
<polygon fill="none" stroke="black" points="97.5,-206.12 97.5,-227.12 290.5,-227.12 290.5,-206.12 97.5,-206.12"/>
<text text-anchor="start" x="178.5" y="-212.92" font-family="Times,serif" font-size="14.00">u2le</text>
<polygon fill="none" stroke="black" points="290.5,-206.12 290.5,-227.12 423.5,-227.12 423.5,-206.12 290.5,-206.12"/>
<text text-anchor="start" x="337" y="-212.92" font-family="Times,serif" font-size="14.00">mode</text>
<polygon fill="none" stroke="black" points="32.5,-185.12 32.5,-206.12 63.5,-206.12 63.5,-185.12 32.5,-185.12"/>
<text text-anchor="start" x="43" y="-191.92" font-family="Times,serif" font-size="14.00">8</text>
<polygon fill="none" stroke="black" points="63.5,-185.12 63.5,-206.12 97.5,-206.12 97.5,-185.12 63.5,-185.12"/>
<text text-anchor="start" x="75.5" y="-191.92" font-family="Times,serif" font-size="14.00">2</text>
<polygon fill="none" stroke="black" points="97.5,-185.12 97.5,-206.12 290.5,-206.12 290.5,-185.12 97.5,-185.12"/>
<text text-anchor="start" x="178.5" y="-191.92" font-family="Times,serif" font-size="14.00">u2le</text>
<polygon fill="none" stroke="black" points="290.5,-185.12 290.5,-206.12 423.5,-206.12 423.5,-185.12 290.5,-185.12"/>
<text text-anchor="start" x="331" y="-191.92" font-family="Times,serif" font-size="14.00">user_id</text>
<polygon fill="none" stroke="black" points="32.5,-164.12 32.5,-185.12 63.5,-185.12 63.5,-164.12 32.5,-164.12"/>
<text text-anchor="start" x="38.5" y="-170.92" font-family="Times,serif" font-size="14.00">10</text>
<polygon fill="none" stroke="black" points="63.5,-164.12 63.5,-185.12 97.5,-185.12 97.5,-164.12 63.5,-164.12"/>
<text text-anchor="start" x="75.5" y="-170.92" font-family="Times,serif" font-size="14.00">2</text>
<polygon fill="none" stroke="black" points="97.5,-164.12 97.5,-185.12 290.5,-185.12 290.5,-164.12 97.5,-164.12"/>
<text text-anchor="start" x="178.5" y="-170.92" font-family="Times,serif" font-size="14.00">u2le</text>
<polygon fill="none" stroke="black" points="290.5,-164.12 290.5,-185.12 423.5,-185.12 423.5,-164.12 290.5,-164.12"/>
<text text-anchor="start" x="325.5" y="-170.92" font-family="Times,serif" font-size="14.00">group_id</text>
<polygon fill="none" stroke="black" points="32.5,-143.12 32.5,-164.12 63.5,-164.12 63.5,-143.12 32.5,-143.12"/>
<text text-anchor="start" x="38.5" y="-149.92" font-family="Times,serif" font-size="14.00">12</text>
<polygon fill="none" stroke="black" points="63.5,-143.12 63.5,-164.12 97.5,-164.12 97.5,-143.12 63.5,-143.12"/>
<text text-anchor="start" x="75.5" y="-149.92" font-family="Times,serif" font-size="14.00">2</text>
<polygon fill="none" stroke="black" points="97.5,-143.12 97.5,-164.12 290.5,-164.12 290.5,-143.12 97.5,-143.12"/>
<text text-anchor="start" x="178.5" y="-149.92" font-family="Times,serif" font-size="14.00">u2le</text>
<polygon fill="none" stroke="black" points="290.5,-143.12 290.5,-164.12 423.5,-164.12 423.5,-143.12 290.5,-143.12"/>
<text text-anchor="start" x="298.5" y="-149.92" font-family="Times,serif" font-size="14.00">number_of_links</text>
<polygon fill="none" stroke="black" points="32.5,-122.12 32.5,-143.12 63.5,-143.12 63.5,-122.12 32.5,-122.12"/>
<text text-anchor="start" x="38.5" y="-128.92" font-family="Times,serif" font-size="14.00">14</text>
<polygon fill="none" stroke="black" points="63.5,-122.12 63.5,-143.12 97.5,-143.12 97.5,-122.12 63.5,-122.12"/>
<text text-anchor="start" x="75.5" y="-128.92" font-family="Times,serif" font-size="14.00">2</text>
<polygon fill="none" stroke="black" points="97.5,-122.12 97.5,-143.12 290.5,-143.12 290.5,-122.12 97.5,-122.12"/>
<text text-anchor="start" x="178.5" y="-128.92" font-family="Times,serif" font-size="14.00">u2le</text>
<polygon fill="none" stroke="black" points="290.5,-122.12 290.5,-143.12 423.5,-143.12 423.5,-122.12 290.5,-122.12"/>
<text text-anchor="start" x="296" y="-128.92" font-family="Times,serif" font-size="14.00">r_device_number</text>
<polygon fill="none" stroke="black" points="32.5,-101.12 32.5,-122.12 63.5,-122.12 63.5,-101.12 32.5,-101.12"/>
<text text-anchor="start" x="38.5" y="-107.92" font-family="Times,serif" font-size="14.00">16</text>
<polygon fill="none" stroke="black" points="63.5,-101.12 63.5,-122.12 97.5,-122.12 97.5,-101.12 63.5,-101.12"/>
<text text-anchor="start" x="75.5" y="-107.92" font-family="Times,serif" font-size="14.00">4</text>
<polygon fill="none" stroke="black" points="97.5,-101.12 97.5,-122.12 290.5,-122.12 290.5,-101.12 97.5,-101.12"/>
<text text-anchor="start" x="100.5" y="-107.92" font-family="Times,serif" font-size="14.00">FourByteUnsignedInteger</text>
<polygon fill="none" stroke="black" points="290.5,-101.12 290.5,-122.12 423.5,-122.12 423.5,-101.12 290.5,-101.12"/>
<text text-anchor="start" x="293.5" y="-107.92" font-family="Times,serif" font-size="14.00">modification_time</text>
<polygon fill="none" stroke="black" points="32.5,-80.12 32.5,-101.12 63.5,-101.12 63.5,-80.12 32.5,-80.12"/>
<text text-anchor="start" x="38.5" y="-86.92" font-family="Times,serif" font-size="14.00">20</text>
<polygon fill="none" stroke="black" points="63.5,-80.12 63.5,-101.12 97.5,-101.12 97.5,-80.12 63.5,-80.12"/>
<text text-anchor="start" x="75.5" y="-86.92" font-family="Times,serif" font-size="14.00">2</text>
<polygon fill="none" stroke="black" points="97.5,-80.12 97.5,-101.12 290.5,-101.12 290.5,-80.12 97.5,-80.12"/>
<text text-anchor="start" x="178.5" y="-86.92" font-family="Times,serif" font-size="14.00">u2le</text>
<polygon fill="none" stroke="black" points="290.5,-80.12 290.5,-101.12 423.5,-101.12 423.5,-80.12 290.5,-80.12"/>
<text text-anchor="start" x="300.5" y="-86.92" font-family="Times,serif" font-size="14.00">path_name_size</text>
<polygon fill="none" stroke="black" points="32.5,-59.12 32.5,-80.12 63.5,-80.12 63.5,-59.12 32.5,-59.12"/>
<text text-anchor="start" x="38.5" y="-65.92" font-family="Times,serif" font-size="14.00">22</text>
<polygon fill="none" stroke="black" points="63.5,-59.12 63.5,-80.12 97.5,-80.12 97.5,-59.12 63.5,-59.12"/>
<text text-anchor="start" x="75.5" y="-65.92" font-family="Times,serif" font-size="14.00">4</text>
<polygon fill="none" stroke="black" points="97.5,-59.12 97.5,-80.12 290.5,-80.12 290.5,-59.12 97.5,-59.12"/>
<text text-anchor="start" x="100.5" y="-65.92" font-family="Times,serif" font-size="14.00">FourByteUnsignedInteger</text>
<polygon fill="none" stroke="black" points="290.5,-59.12 290.5,-80.12 423.5,-80.12 423.5,-59.12 290.5,-59.12"/>
<text text-anchor="start" x="328.5" y="-65.92" font-family="Times,serif" font-size="14.00">file_size</text>
</g>
<!-- file__seq&#45;&gt;file_header__seq -->
<g id="edge2" class="edge">
<title>file__seq:header_type&#45;&gt;file_header__seq</title>
<path fill="none" stroke="black" stroke-width="2" d="M2018.5,-258.12C2034.28,-258.12 2028.82,-282.62 2017.5,-293.62 1897.44,-410.34 1396.72,-395.71 1264,-293.62 1225.55,-264.04 1274.41,-217.75 1236,-188.12 1205.11,-164.29 727.75,-172.22 441.36,-179.22"/>
<polygon fill="black" stroke="black" stroke-width="2" points="441.17,-175.72 431.26,-179.46 441.34,-182.72 441.17,-175.72"/>
</g>
<!-- file_header__seq&#45;&gt;file__seq -->
<g id="edge3" class="edge">
<title>file_header__seq:path_name_size_type&#45;&gt;file__seq:path_name_size</title>
<path fill="none" stroke="#404040" d="M424.5,-90.12C584.76,-90.12 619.6,-139.47 779,-156.12 981.07,-177.22 1034.14,-144.13 1236,-167.12 1339.8,-178.94 1458.92,-206.79 1525.18,-223.58"/>
<polygon fill="#404040" stroke="#404040" points="1524.4,-226.99 1534.95,-226.07 1526.13,-220.21 1524.4,-226.99"/>
</g>
<!-- file_header__seq&#45;&gt;file__seq -->
<g id="edge4" class="edge">
<title>file_header__seq:path_name_size_type&#45;&gt;file__seq:path_name_padding__if</title>
<path fill="none" stroke="#404040" d="M424.5,-90.12C434.39,-90.12 769.12,-56.59 779,-56.12 981.88,-46.41 1072.86,64.87 1236,-56.12 1276.41,-86.09 1225.85,-160.85 1261.24,-171.78"/>
<polygon fill="#404040" stroke="#404040" points="1261.13,-175.29 1271.5,-173.12 1262.04,-168.35 1261.13,-175.29"/>
</g>
<!-- four_byte_unsigned_integer__seq -->
<g id="node4" class="node">
<title>four_byte_unsigned_integer__seq</title>
<polygon fill="#e0ffe0" stroke="transparent" points="475,-246.12 475,-267.12 506,-267.12 506,-246.12 475,-246.12"/>
<polygon fill="none" stroke="black" points="475,-246.12 475,-267.12 506,-267.12 506,-246.12 475,-246.12"/>
<text text-anchor="start" x="478" y="-252.92" font-family="Times,serif" font-size="14.00">pos</text>
<polygon fill="#e0ffe0" stroke="transparent" points="506,-246.12 506,-267.12 540,-267.12 540,-246.12 506,-246.12"/>
<polygon fill="none" stroke="black" points="506,-246.12 506,-267.12 540,-267.12 540,-246.12 506,-246.12"/>
<text text-anchor="start" x="509" y="-252.92" font-family="Times,serif" font-size="14.00">size</text>
<polygon fill="#e0ffe0" stroke="transparent" points="540,-246.12 540,-267.12 578,-267.12 578,-246.12 540,-246.12"/>
<polygon fill="none" stroke="black" points="540,-246.12 540,-267.12 578,-267.12 578,-246.12 540,-246.12"/>
<text text-anchor="start" x="543" y="-252.92" font-family="Times,serif" font-size="14.00">type</text>
<polygon fill="#e0ffe0" stroke="transparent" points="578,-246.12 578,-267.12 735,-267.12 735,-246.12 578,-246.12"/>
<polygon fill="none" stroke="black" points="578,-246.12 578,-267.12 735,-267.12 735,-246.12 578,-246.12"/>
<text text-anchor="start" x="649.5" y="-252.92" font-family="Times,serif" font-size="14.00">id</text>
<polygon fill="none" stroke="black" points="475,-225.12 475,-246.12 506,-246.12 506,-225.12 475,-225.12"/>
<text text-anchor="start" x="485.5" y="-231.92" font-family="Times,serif" font-size="14.00">0</text>
<polygon fill="none" stroke="black" points="506,-225.12 506,-246.12 540,-246.12 540,-225.12 506,-225.12"/>
<text text-anchor="start" x="518" y="-231.92" font-family="Times,serif" font-size="14.00">2</text>
<polygon fill="none" stroke="black" points="540,-225.12 540,-246.12 578,-246.12 578,-225.12 540,-225.12"/>
<text text-anchor="start" x="543.5" y="-231.92" font-family="Times,serif" font-size="14.00">u2le</text>
<polygon fill="none" stroke="black" points="578,-225.12 578,-246.12 735,-246.12 735,-225.12 578,-225.12"/>
<text text-anchor="start" x="581" y="-231.92" font-family="Times,serif" font-size="14.00">most_significant_bits</text>
<polygon fill="none" stroke="black" points="475,-204.12 475,-225.12 506,-225.12 506,-204.12 475,-204.12"/>
<text text-anchor="start" x="485.5" y="-210.92" font-family="Times,serif" font-size="14.00">2</text>
<polygon fill="none" stroke="black" points="506,-204.12 506,-225.12 540,-225.12 540,-204.12 506,-204.12"/>
<text text-anchor="start" x="518" y="-210.92" font-family="Times,serif" font-size="14.00">2</text>
<polygon fill="none" stroke="black" points="540,-204.12 540,-225.12 578,-225.12 578,-204.12 540,-204.12"/>
<text text-anchor="start" x="543.5" y="-210.92" font-family="Times,serif" font-size="14.00">u2le</text>
<polygon fill="none" stroke="black" points="578,-204.12 578,-225.12 735,-225.12 735,-204.12 578,-204.12"/>
<text text-anchor="start" x="581.5" y="-210.92" font-family="Times,serif" font-size="14.00">least_significant_bits</text>
</g>
<!-- file_header__seq&#45;&gt;four_byte_unsigned_integer__seq -->
<g id="edge9" class="edge">
<title>file_header__seq:modification_time_type&#45;&gt;four_byte_unsigned_integer__seq</title>
<path fill="none" stroke="black" stroke-width="2" d="M424.5,-111.12C461.19,-111.12 431.8,-161.49 459,-186.12 462.42,-189.22 466.05,-192.13 469.83,-194.86"/>
<polygon fill="black" stroke="black" stroke-width="2" points="468.09,-197.91 478.35,-200.56 471.98,-192.09 468.09,-197.91"/>
</g>
<!-- file_header__seq&#45;&gt;four_byte_unsigned_integer__seq -->
<g id="edge10" class="edge">
<title>file_header__seq:file_size_type&#45;&gt;four_byte_unsigned_integer__seq</title>
<path fill="none" stroke="black" stroke-width="2" d="M424.5,-69.12C478.71,-69.12 421.54,-146.93 459,-186.12 461.82,-189.07 464.82,-191.84 467.96,-194.45"/>
<polygon fill="black" stroke="black" stroke-width="2" points="466,-197.35 476.08,-200.61 470.23,-191.78 466,-197.35"/>
</g>
<!-- four_byte_unsigned_integer__inst__value -->
<g id="node5" class="node">
<title>four_byte_unsigned_integer__inst__value</title>
<polygon fill="#e0ffe0" stroke="transparent" points="787.5,-225.12 787.5,-246.12 832.5,-246.12 832.5,-225.12 787.5,-225.12"/>
<polygon fill="none" stroke="black" points="787.5,-225.12 787.5,-246.12 832.5,-246.12 832.5,-225.12 787.5,-225.12"/>
<text text-anchor="start" x="803" y="-231.92" font-family="Times,serif" font-size="14.00">id</text>
<polygon fill="#e0ffe0" stroke="transparent" points="832.5,-225.12 832.5,-246.12 1220.5,-246.12 1220.5,-225.12 832.5,-225.12"/>
<polygon fill="none" stroke="black" points="832.5,-225.12 832.5,-246.12 1220.5,-246.12 1220.5,-225.12 832.5,-225.12"/>
<text text-anchor="start" x="1007" y="-231.92" font-family="Times,serif" font-size="14.00">value</text>
<polygon fill="none" stroke="black" points="787.5,-204.12 787.5,-225.12 832.5,-225.12 832.5,-204.12 787.5,-204.12"/>
<text text-anchor="start" x="790.5" y="-210.92" font-family="Times,serif" font-size="14.00">value</text>
<polygon fill="none" stroke="black" points="832.5,-204.12 832.5,-225.12 1220.5,-225.12 1220.5,-204.12 832.5,-204.12"/>
<text text-anchor="start" x="835.5" y="-210.92" font-family="Times,serif" font-size="14.00">least_significant_bits + (most_significant_bits &lt;&lt; 16)</text>
</g>
<!-- four_byte_unsigned_integer__seq&#45;&gt;four_byte_unsigned_integer__inst__value -->
<g id="edge11" class="edge">
<title>four_byte_unsigned_integer__seq:least_significant_bits_type&#45;&gt;four_byte_unsigned_integer__inst__value</title>
<path fill="none" stroke="#404040" d="M736,-214.12C746.72,-214.12 757.69,-214.21 768.76,-214.37"/>
<polygon fill="#404040" stroke="#404040" points="768.91,-217.88 778.96,-214.54 769.02,-210.88 768.91,-217.88"/>
</g>
<!-- four_byte_unsigned_integer__seq&#45;&gt;four_byte_unsigned_integer__inst__value -->
<g id="edge12" class="edge">
<title>four_byte_unsigned_integer__seq:most_significant_bits_type&#45;&gt;four_byte_unsigned_integer__inst__value</title>
<path fill="none" stroke="#404040" d="M736,-235.12C746.72,-235.12 757.69,-235.04 768.76,-234.89"/>
<polygon fill="#404040" stroke="#404040" points="769.01,-238.39 778.96,-234.73 768.91,-231.39 769.01,-238.39"/>
</g>
<!-- four_byte_unsigned_integer__inst__value&#45;&gt;file__seq -->
<g id="edge5" class="edge">
<title>four_byte_unsigned_integer__inst__value:value_type&#45;&gt;file__seq:file_data_size</title>
<path fill="none" stroke="#404040" d="M1200.55,-200.1C1294.95,-188.05 1403.91,-174.15 1480.14,-164.42"/>
<polygon fill="#404040" stroke="#404040" points="1480.73,-167.87 1490.2,-163.13 1479.84,-160.93 1480.73,-167.87"/>
</g>
<!-- four_byte_unsigned_integer__inst__value&#45;&gt;file__seq -->
<g id="edge6" class="edge">
<title>four_byte_unsigned_integer__inst__value:value_type&#45;&gt;file__seq:file_data_padding__if</title>
<path fill="none" stroke="#404040" d="M1214.09,-200.11C1221.76,-196.01 1229.11,-191.36 1236,-186.12 1262.43,-166.02 1240.37,-121.44 1261.56,-111.93"/>
<polygon fill="#404040" stroke="#404040" points="1262.29,-115.35 1271.5,-110.12 1261.04,-108.47 1262.29,-115.35"/>
</g>
<!-- four_byte_unsigned_integer__inst__value&#45;&gt;file__seq -->
<g id="edge8" class="edge">
<title>four_byte_unsigned_integer__inst__value:value_type&#45;&gt;file__seq:end_of_file_padding__if</title>
<path fill="none" stroke="#404040" d="M1217.17,-200.06C1223.81,-195.94 1230.12,-191.31 1236,-186.12 1274.03,-152.58 1225.13,-80.01 1261.12,-69.42"/>
<polygon fill="#404040" stroke="#404040" points="1262.01,-72.83 1271.5,-68.12 1261.14,-65.89 1262.01,-72.83"/>
</g>
</g>
</svg>
