<?xml version="1.0" encoding="UTF-8" standalone="no"?>
<!DOCTYPE svg PUBLIC "-//W3C//DTD SVG 1.1//EN"
 "http://www.w3.org/Graphics/SVG/1.1/DTD/svg11.dtd">
<!-- Generated by graphviz version 2.43.0 (0)
 -->
<!-- Title: %3 Pages: 1 -->
<svg width="1435pt" height="582pt"
 viewBox="0.00 0.00 1435.00 582.00" xmlns="http://www.w3.org/2000/svg" xmlns:xlink="http://www.w3.org/1999/xlink">
<g id="graph0" class="graph" transform="scale(1 1) rotate(0) translate(4 578)">
<title>%3</title>
<polygon fill="white" stroke="transparent" points="-4,4 -4,-578 1431,-578 1431,4 -4,4"/>
<g id="clust1" class="cluster">
<title>cluster__dime_message</title>
<polygon fill="none" stroke="black" stroke-dasharray="1,5" points="8,-8 8,-566 1419,-566 1419,-8 8,-8"/>
<text text-anchor="middle" x="713.5" y="-550.8" font-family="Times,serif" font-size="14.00">DimeMessage</text>
</g>
<g id="clust2" class="cluster">
<title>cluster__padding</title>
<polygon fill="none" stroke="black" stroke-dasharray="1,5" points="722,-47 722,-136 1074,-136 1074,-47 722,-47"/>
<text text-anchor="middle" x="898" y="-120.8" font-family="Times,serif" font-size="14.00">DimeMessage::Padding</text>
</g>
<g id="clust3" class="cluster">
<title>cluster__option_field</title>
<polygon fill="none" stroke="black" stroke-dasharray="1,5" points="730,-144 730,-255 1066,-255 1066,-144 730,-144"/>
<text text-anchor="middle" x="898" y="-239.8" font-family="Times,serif" font-size="14.00">DimeMessage::OptionField</text>
</g>
<g id="clust4" class="cluster">
<title>cluster__option_element</title>
<polygon fill="none" stroke="black" stroke-dasharray="1,5" points="1094,-133 1094,-282 1411,-282 1411,-133 1094,-133"/>
<text text-anchor="middle" x="1252.5" y="-266.8" font-family="Times,serif" font-size="14.00">DimeMessage::OptionElement</text>
</g>
<g id="clust5" class="cluster">
<title>cluster__record</title>
<polygon fill="none" stroke="black" stroke-dasharray="1,5" points="243,-16 243,-535 702,-535 702,-16 243,-16"/>
<text text-anchor="middle" x="472.5" y="-519.8" font-family="Times,serif" font-size="14.00">DimeMessage::Record</text>
</g>
<!-- dime_message__seq -->
<g id="node1" class="node">
<title>dime_message__seq</title>
<polygon fill="#e0ffe0" stroke="transparent" points="24.5,-239 24.5,-260 55.5,-260 55.5,-239 24.5,-239"/>
<polygon fill="none" stroke="black" points="24.5,-239 24.5,-260 55.5,-260 55.5,-239 24.5,-239"/>
<text text-anchor="start" x="27.5" y="-245.8" font-family="Times,serif" font-size="14.00">pos</text>
<polygon fill="#e0ffe0" stroke="transparent" points="55.5,-239 55.5,-260 89.5,-260 89.5,-239 55.5,-239"/>
<polygon fill="none" stroke="black" points="55.5,-239 55.5,-260 89.5,-260 89.5,-239 55.5,-239"/>
<text text-anchor="start" x="58.5" y="-245.8" font-family="Times,serif" font-size="14.00">size</text>
<polygon fill="#e0ffe0" stroke="transparent" points="89.5,-239 89.5,-260 146.5,-260 146.5,-239 89.5,-239"/>
<polygon fill="none" stroke="black" points="89.5,-239 89.5,-260 146.5,-260 146.5,-239 89.5,-239"/>
<text text-anchor="start" x="102" y="-245.8" font-family="Times,serif" font-size="14.00">type</text>
<polygon fill="#e0ffe0" stroke="transparent" points="146.5,-239 146.5,-260 207.5,-260 207.5,-239 146.5,-239"/>
<polygon fill="none" stroke="black" points="146.5,-239 146.5,-260 207.5,-260 207.5,-239 146.5,-239"/>
<text text-anchor="start" x="170" y="-245.8" font-family="Times,serif" font-size="14.00">id</text>
<polygon fill="none" stroke="black" points="24.5,-218 24.5,-239 55.5,-239 55.5,-218 24.5,-218"/>
<text text-anchor="start" x="35" y="-224.8" font-family="Times,serif" font-size="14.00">0</text>
<polygon fill="none" stroke="black" points="55.5,-218 55.5,-239 89.5,-239 89.5,-218 55.5,-218"/>
<text text-anchor="start" x="65.5" y="-224.8" font-family="Times,serif" font-size="14.00">...</text>
<polygon fill="none" stroke="black" points="89.5,-218 89.5,-239 146.5,-239 146.5,-218 89.5,-218"/>
<text text-anchor="start" x="92.5" y="-224.8" font-family="Times,serif" font-size="14.00">Record</text>
<polygon fill="none" stroke="black" points="146.5,-218 146.5,-239 207.5,-239 207.5,-218 146.5,-218"/>
<text text-anchor="start" x="149.5" y="-224.8" font-family="Times,serif" font-size="14.00">records</text>
<polygon fill="none" stroke="black" points="24.5,-197 24.5,-218 207.5,-218 207.5,-197 24.5,-197"/>
<text text-anchor="start" x="31.5" y="-203.8" font-family="Times,serif" font-size="14.00">repeat to end of stream</text>
</g>
<!-- record__seq -->
<g id="node5" class="node">
<title>record__seq</title>
<polygon fill="#e0ffe0" stroke="transparent" points="259.5,-406 259.5,-427 290.5,-427 290.5,-406 259.5,-406"/>
<polygon fill="none" stroke="black" points="259.5,-406 259.5,-427 290.5,-427 290.5,-406 259.5,-406"/>
<text text-anchor="start" x="262.5" y="-412.8" font-family="Times,serif" font-size="14.00">pos</text>
<polygon fill="#e0ffe0" stroke="transparent" points="290.5,-406 290.5,-427 378.5,-427 378.5,-406 290.5,-406"/>
<polygon fill="none" stroke="black" points="290.5,-406 290.5,-427 378.5,-427 378.5,-406 290.5,-406"/>
<text text-anchor="start" x="320.5" y="-412.8" font-family="Times,serif" font-size="14.00">size</text>
<polygon fill="#e0ffe0" stroke="transparent" points="378.5,-406 378.5,-427 562.5,-427 562.5,-406 378.5,-406"/>
<polygon fill="none" stroke="black" points="378.5,-406 378.5,-427 562.5,-427 562.5,-406 378.5,-406"/>
<text text-anchor="start" x="454.5" y="-412.8" font-family="Times,serif" font-size="14.00">type</text>
<polygon fill="#e0ffe0" stroke="transparent" points="562.5,-406 562.5,-427 686.5,-427 686.5,-406 562.5,-406"/>
<polygon fill="none" stroke="black" points="562.5,-406 562.5,-427 686.5,-427 686.5,-406 562.5,-406"/>
<text text-anchor="start" x="617.5" y="-412.8" font-family="Times,serif" font-size="14.00">id</text>
<polygon fill="none" stroke="black" points="259.5,-385 259.5,-406 290.5,-406 290.5,-385 259.5,-385"/>
<text text-anchor="start" x="270" y="-391.8" font-family="Times,serif" font-size="14.00">0</text>
<polygon fill="none" stroke="black" points="290.5,-385 290.5,-406 378.5,-406 378.5,-385 290.5,-385"/>
<text text-anchor="start" x="325" y="-391.8" font-family="Times,serif" font-size="14.00">5b</text>
<polygon fill="none" stroke="black" points="378.5,-385 378.5,-406 562.5,-406 562.5,-385 378.5,-385"/>
<text text-anchor="start" x="461" y="-391.8" font-family="Times,serif" font-size="14.00">b5</text>
<polygon fill="none" stroke="black" points="562.5,-385 562.5,-406 686.5,-406 686.5,-385 562.5,-385"/>
<text text-anchor="start" x="598" y="-391.8" font-family="Times,serif" font-size="14.00">version</text>
<polygon fill="none" stroke="black" points="259.5,-364 259.5,-385 290.5,-385 290.5,-364 259.5,-364"/>
<text text-anchor="start" x="263.5" y="-370.8" font-family="Times,serif" font-size="14.00">0:5</text>
<polygon fill="none" stroke="black" points="290.5,-364 290.5,-385 378.5,-385 378.5,-364 290.5,-364"/>
<text text-anchor="start" x="325" y="-370.8" font-family="Times,serif" font-size="14.00">1b</text>
<polygon fill="none" stroke="black" points="378.5,-364 378.5,-385 562.5,-385 562.5,-364 378.5,-364"/>
<text text-anchor="start" x="381.5" y="-370.8" font-family="Times,serif" font-size="14.00">BitsType1(BigBitEndian)</text>
<polygon fill="none" stroke="black" points="562.5,-364 562.5,-385 686.5,-385 686.5,-364 562.5,-364"/>
<text text-anchor="start" x="573.5" y="-370.8" font-family="Times,serif" font-size="14.00">is_first_record</text>
<polygon fill="none" stroke="black" points="259.5,-343 259.5,-364 290.5,-364 290.5,-343 259.5,-343"/>
<text text-anchor="start" x="263.5" y="-349.8" font-family="Times,serif" font-size="14.00">0:6</text>
<polygon fill="none" stroke="black" points="290.5,-343 290.5,-364 378.5,-364 378.5,-343 290.5,-343"/>
<text text-anchor="start" x="325" y="-349.8" font-family="Times,serif" font-size="14.00">1b</text>
<polygon fill="none" stroke="black" points="378.5,-343 378.5,-364 562.5,-364 562.5,-343 378.5,-343"/>
<text text-anchor="start" x="381.5" y="-349.8" font-family="Times,serif" font-size="14.00">BitsType1(BigBitEndian)</text>
<polygon fill="none" stroke="black" points="562.5,-343 562.5,-364 686.5,-364 686.5,-343 562.5,-343"/>
<text text-anchor="start" x="575" y="-349.8" font-family="Times,serif" font-size="14.00">is_last_record</text>
<polygon fill="none" stroke="black" points="259.5,-322 259.5,-343 290.5,-343 290.5,-322 259.5,-322"/>
<text text-anchor="start" x="263.5" y="-328.8" font-family="Times,serif" font-size="14.00">0:7</text>
<polygon fill="none" stroke="black" points="290.5,-322 290.5,-343 378.5,-343 378.5,-322 290.5,-322"/>
<text text-anchor="start" x="325" y="-328.8" font-family="Times,serif" font-size="14.00">1b</text>
<polygon fill="none" stroke="black" points="378.5,-322 378.5,-343 562.5,-343 562.5,-322 378.5,-322"/>
<text text-anchor="start" x="381.5" y="-328.8" font-family="Times,serif" font-size="14.00">BitsType1(BigBitEndian)</text>
<polygon fill="none" stroke="black" points="562.5,-322 562.5,-343 686.5,-343 686.5,-322 562.5,-322"/>
<text text-anchor="start" x="567" y="-328.8" font-family="Times,serif" font-size="14.00">is_chunk_record</text>
<polygon fill="none" stroke="black" points="259.5,-301 259.5,-322 290.5,-322 290.5,-301 259.5,-301"/>
<text text-anchor="start" x="270" y="-307.8" font-family="Times,serif" font-size="14.00">1</text>
<polygon fill="none" stroke="black" points="290.5,-301 290.5,-322 378.5,-322 378.5,-301 290.5,-301"/>
<text text-anchor="start" x="325" y="-307.8" font-family="Times,serif" font-size="14.00">4b</text>
<polygon fill="none" stroke="black" points="378.5,-301 378.5,-322 562.5,-322 562.5,-301 378.5,-301"/>
<text text-anchor="start" x="408.5" y="-307.8" font-family="Times,serif" font-size="14.00">b4→TypeFormats</text>
<polygon fill="none" stroke="black" points="562.5,-301 562.5,-322 686.5,-322 686.5,-301 562.5,-301"/>
<text text-anchor="start" x="581" y="-307.8" font-family="Times,serif" font-size="14.00">type_format</text>
<polygon fill="none" stroke="black" points="259.5,-280 259.5,-301 290.5,-301 290.5,-280 259.5,-280"/>
<text text-anchor="start" x="263.5" y="-286.8" font-family="Times,serif" font-size="14.00">1:4</text>
<polygon fill="none" stroke="black" points="290.5,-280 290.5,-301 378.5,-301 378.5,-280 290.5,-280"/>
<text text-anchor="start" x="325" y="-286.8" font-family="Times,serif" font-size="14.00">4b</text>
<polygon fill="none" stroke="black" points="378.5,-280 378.5,-301 562.5,-301 562.5,-280 378.5,-280"/>
<text text-anchor="start" x="461" y="-286.8" font-family="Times,serif" font-size="14.00">b4</text>
<polygon fill="none" stroke="black" points="562.5,-280 562.5,-301 686.5,-301 686.5,-280 562.5,-280"/>
<text text-anchor="start" x="592.5" y="-286.8" font-family="Times,serif" font-size="14.00">reserved</text>
<polygon fill="none" stroke="black" points="259.5,-259 259.5,-280 290.5,-280 290.5,-259 259.5,-259"/>
<text text-anchor="start" x="270" y="-265.8" font-family="Times,serif" font-size="14.00">2</text>
<polygon fill="none" stroke="black" points="290.5,-259 290.5,-280 378.5,-280 378.5,-259 290.5,-259"/>
<text text-anchor="start" x="329.5" y="-265.8" font-family="Times,serif" font-size="14.00">2</text>
<polygon fill="none" stroke="black" points="378.5,-259 378.5,-280 562.5,-280 562.5,-259 378.5,-259"/>
<text text-anchor="start" x="452.5" y="-265.8" font-family="Times,serif" font-size="14.00">u2be</text>
<polygon fill="none" stroke="black" points="562.5,-259 562.5,-280 686.5,-280 686.5,-259 562.5,-259"/>
<text text-anchor="start" x="583.5" y="-265.8" font-family="Times,serif" font-size="14.00">len_options</text>
<polygon fill="none" stroke="black" points="259.5,-238 259.5,-259 290.5,-259 290.5,-238 259.5,-238"/>
<text text-anchor="start" x="270" y="-244.8" font-family="Times,serif" font-size="14.00">4</text>
<polygon fill="none" stroke="black" points="290.5,-238 290.5,-259 378.5,-259 378.5,-238 290.5,-238"/>
<text text-anchor="start" x="329.5" y="-244.8" font-family="Times,serif" font-size="14.00">2</text>
<polygon fill="none" stroke="black" points="378.5,-238 378.5,-259 562.5,-259 562.5,-238 378.5,-238"/>
<text text-anchor="start" x="452.5" y="-244.8" font-family="Times,serif" font-size="14.00">u2be</text>
<polygon fill="none" stroke="black" points="562.5,-238 562.5,-259 686.5,-259 686.5,-238 562.5,-238"/>
<text text-anchor="start" x="603" y="-244.8" font-family="Times,serif" font-size="14.00">len_id</text>
<polygon fill="none" stroke="black" points="259.5,-217 259.5,-238 290.5,-238 290.5,-217 259.5,-217"/>
<text text-anchor="start" x="270" y="-223.8" font-family="Times,serif" font-size="14.00">6</text>
<polygon fill="none" stroke="black" points="290.5,-217 290.5,-238 378.5,-238 378.5,-217 290.5,-217"/>
<text text-anchor="start" x="329.5" y="-223.8" font-family="Times,serif" font-size="14.00">2</text>
<polygon fill="none" stroke="black" points="378.5,-217 378.5,-238 562.5,-238 562.5,-217 378.5,-217"/>
<text text-anchor="start" x="452.5" y="-223.8" font-family="Times,serif" font-size="14.00">u2be</text>
<polygon fill="none" stroke="black" points="562.5,-217 562.5,-238 686.5,-238 686.5,-217 562.5,-217"/>
<text text-anchor="start" x="594" y="-223.8" font-family="Times,serif" font-size="14.00">len_type</text>
<polygon fill="none" stroke="black" points="259.5,-196 259.5,-217 290.5,-217 290.5,-196 259.5,-196"/>
<text text-anchor="start" x="270" y="-202.8" font-family="Times,serif" font-size="14.00">8</text>
<polygon fill="none" stroke="black" points="290.5,-196 290.5,-217 378.5,-217 378.5,-196 290.5,-196"/>
<text text-anchor="start" x="329.5" y="-202.8" font-family="Times,serif" font-size="14.00">4</text>
<polygon fill="none" stroke="black" points="378.5,-196 378.5,-217 562.5,-217 562.5,-196 378.5,-196"/>
<text text-anchor="start" x="452.5" y="-202.8" font-family="Times,serif" font-size="14.00">u4be</text>
<polygon fill="none" stroke="black" points="562.5,-196 562.5,-217 686.5,-217 686.5,-196 562.5,-196"/>
<text text-anchor="start" x="594" y="-202.8" font-family="Times,serif" font-size="14.00">len_data</text>
<polygon fill="none" stroke="black" points="259.5,-175 259.5,-196 290.5,-196 290.5,-175 259.5,-175"/>
<text text-anchor="start" x="265.5" y="-181.8" font-family="Times,serif" font-size="14.00">12</text>
<polygon fill="none" stroke="black" points="290.5,-175 290.5,-196 378.5,-196 378.5,-175 290.5,-175"/>
<text text-anchor="start" x="293.5" y="-181.8" font-family="Times,serif" font-size="14.00">len_options</text>
<polygon fill="none" stroke="black" points="378.5,-175 378.5,-196 562.5,-196 562.5,-175 378.5,-175"/>
<text text-anchor="start" x="428" y="-181.8" font-family="Times,serif" font-size="14.00">OptionField</text>
<polygon fill="none" stroke="black" points="562.5,-175 562.5,-196 686.5,-196 686.5,-175 562.5,-175"/>
<text text-anchor="start" x="598" y="-181.8" font-family="Times,serif" font-size="14.00">options</text>
<polygon fill="none" stroke="black" points="259.5,-154 259.5,-175 290.5,-175 290.5,-154 259.5,-154"/>
<text text-anchor="start" x="268" y="-160.8" font-family="Times,serif" font-size="14.00">...</text>
<polygon fill="none" stroke="black" points="290.5,-154 290.5,-175 378.5,-175 378.5,-154 290.5,-154"/>
<text text-anchor="start" x="327.5" y="-160.8" font-family="Times,serif" font-size="14.00">...</text>
<polygon fill="none" stroke="black" points="378.5,-154 378.5,-175 562.5,-175 562.5,-154 378.5,-154"/>
<text text-anchor="start" x="441.5" y="-160.8" font-family="Times,serif" font-size="14.00">Padding</text>
<polygon fill="none" stroke="black" points="562.5,-154 562.5,-175 686.5,-175 686.5,-154 562.5,-154"/>
<text text-anchor="start" x="565.5" y="-160.8" font-family="Times,serif" font-size="14.00">options_padding</text>
<polygon fill="none" stroke="black" points="259.5,-133 259.5,-154 290.5,-154 290.5,-133 259.5,-133"/>
<text text-anchor="start" x="268" y="-139.8" font-family="Times,serif" font-size="14.00">...</text>
<polygon fill="none" stroke="black" points="290.5,-133 290.5,-154 378.5,-154 378.5,-133 290.5,-133"/>
<text text-anchor="start" x="313" y="-139.8" font-family="Times,serif" font-size="14.00">len_id</text>
<polygon fill="none" stroke="black" points="378.5,-133 378.5,-154 562.5,-154 562.5,-133 378.5,-133"/>
<text text-anchor="start" x="434.5" y="-139.8" font-family="Times,serif" font-size="14.00">str(ASCII)</text>
<polygon fill="none" stroke="black" points="562.5,-133 562.5,-154 686.5,-154 686.5,-133 562.5,-133"/>
<text text-anchor="start" x="617.5" y="-139.8" font-family="Times,serif" font-size="14.00">id</text>
<polygon fill="none" stroke="black" points="259.5,-112 259.5,-133 290.5,-133 290.5,-112 259.5,-112"/>
<text text-anchor="start" x="268" y="-118.8" font-family="Times,serif" font-size="14.00">...</text>
<polygon fill="none" stroke="black" points="290.5,-112 290.5,-133 378.5,-133 378.5,-112 290.5,-112"/>
<text text-anchor="start" x="327.5" y="-118.8" font-family="Times,serif" font-size="14.00">...</text>
<polygon fill="none" stroke="black" points="378.5,-112 378.5,-133 562.5,-133 562.5,-112 378.5,-112"/>
<text text-anchor="start" x="441.5" y="-118.8" font-family="Times,serif" font-size="14.00">Padding</text>
<polygon fill="none" stroke="black" points="562.5,-112 562.5,-133 686.5,-133 686.5,-112 562.5,-112"/>
<text text-anchor="start" x="585" y="-118.8" font-family="Times,serif" font-size="14.00">id_padding</text>
<polygon fill="none" stroke="black" points="259.5,-91 259.5,-112 290.5,-112 290.5,-91 259.5,-91"/>
<text text-anchor="start" x="268" y="-97.8" font-family="Times,serif" font-size="14.00">...</text>
<polygon fill="none" stroke="black" points="290.5,-91 290.5,-112 378.5,-112 378.5,-91 290.5,-91"/>
<text text-anchor="start" x="304" y="-97.8" font-family="Times,serif" font-size="14.00">len_type</text>
<polygon fill="none" stroke="black" points="378.5,-91 378.5,-112 562.5,-112 562.5,-91 378.5,-91"/>
<text text-anchor="start" x="434.5" y="-97.8" font-family="Times,serif" font-size="14.00">str(ASCII)</text>
<polygon fill="none" stroke="black" points="562.5,-91 562.5,-112 686.5,-112 686.5,-91 562.5,-91"/>
<text text-anchor="start" x="608.5" y="-97.8" font-family="Times,serif" font-size="14.00">type</text>
<polygon fill="none" stroke="black" points="259.5,-70 259.5,-91 290.5,-91 290.5,-70 259.5,-70"/>
<text text-anchor="start" x="268" y="-76.8" font-family="Times,serif" font-size="14.00">...</text>
<polygon fill="none" stroke="black" points="290.5,-70 290.5,-91 378.5,-91 378.5,-70 290.5,-70"/>
<text text-anchor="start" x="327.5" y="-76.8" font-family="Times,serif" font-size="14.00">...</text>
<polygon fill="none" stroke="black" points="378.5,-70 378.5,-91 562.5,-91 562.5,-70 378.5,-70"/>
<text text-anchor="start" x="441.5" y="-76.8" font-family="Times,serif" font-size="14.00">Padding</text>
<polygon fill="none" stroke="black" points="562.5,-70 562.5,-91 686.5,-91 686.5,-70 562.5,-70"/>
<text text-anchor="start" x="576" y="-76.8" font-family="Times,serif" font-size="14.00">type_padding</text>
<polygon fill="none" stroke="black" points="259.5,-49 259.5,-70 290.5,-70 290.5,-49 259.5,-49"/>
<text text-anchor="start" x="268" y="-55.8" font-family="Times,serif" font-size="14.00">...</text>
<polygon fill="none" stroke="black" points="290.5,-49 290.5,-70 378.5,-70 378.5,-49 290.5,-49"/>
<text text-anchor="start" x="304" y="-55.8" font-family="Times,serif" font-size="14.00">len_data</text>
<polygon fill="none" stroke="black" points="378.5,-49 378.5,-70 562.5,-70 562.5,-49 378.5,-49"/>
<polygon fill="none" stroke="black" points="562.5,-49 562.5,-70 686.5,-70 686.5,-49 562.5,-49"/>
<text text-anchor="start" x="608.5" y="-55.8" font-family="Times,serif" font-size="14.00">data</text>
<polygon fill="none" stroke="black" points="259.5,-28 259.5,-49 290.5,-49 290.5,-28 259.5,-28"/>
<text text-anchor="start" x="268" y="-34.8" font-family="Times,serif" font-size="14.00">...</text>
<polygon fill="none" stroke="black" points="290.5,-28 290.5,-49 378.5,-49 378.5,-28 290.5,-28"/>
<text text-anchor="start" x="327.5" y="-34.8" font-family="Times,serif" font-size="14.00">...</text>
<polygon fill="none" stroke="black" points="378.5,-28 378.5,-49 562.5,-49 562.5,-28 378.5,-28"/>
<text text-anchor="start" x="441.5" y="-34.8" font-family="Times,serif" font-size="14.00">Padding</text>
<polygon fill="none" stroke="black" points="562.5,-28 562.5,-49 686.5,-49 686.5,-28 562.5,-28"/>
<text text-anchor="start" x="576" y="-34.8" font-family="Times,serif" font-size="14.00">data_padding</text>
</g>
<!-- dime_message__seq&#45;&gt;record__seq -->
<g id="edge1" class="edge">
<title>dime_message__seq:records_type&#45;&gt;record__seq</title>
<path fill="none" stroke="black" stroke-width="2" d="M208.5,-228C219.07,-228 229.89,-228 240.81,-228"/>
<polygon fill="black" stroke="black" stroke-width="2" points="240.87,-231.5 250.87,-228 240.87,-224.5 240.87,-231.5"/>
</g>
<!-- padding__seq -->
<g id="node2" class="node">
<title>padding__seq</title>
<polygon fill="#e0ffe0" stroke="transparent" points="738,-80 738,-101 769,-101 769,-80 738,-80"/>
<polygon fill="none" stroke="black" points="738,-80 738,-101 769,-101 769,-80 738,-80"/>
<text text-anchor="start" x="741" y="-86.8" font-family="Times,serif" font-size="14.00">pos</text>
<polygon fill="#e0ffe0" stroke="transparent" points="769,-80 769,-101 881,-101 881,-80 769,-80"/>
<polygon fill="none" stroke="black" points="769,-80 769,-101 881,-101 881,-80 769,-80"/>
<text text-anchor="start" x="811" y="-86.8" font-family="Times,serif" font-size="14.00">size</text>
<polygon fill="#e0ffe0" stroke="transparent" points="881,-80 881,-101 919,-101 919,-80 881,-80"/>
<polygon fill="none" stroke="black" points="881,-80 881,-101 919,-101 919,-80 881,-80"/>
<text text-anchor="start" x="884" y="-86.8" font-family="Times,serif" font-size="14.00">type</text>
<polygon fill="#e0ffe0" stroke="transparent" points="919,-80 919,-101 1058,-101 1058,-80 919,-80"/>
<polygon fill="none" stroke="black" points="919,-80 919,-101 1058,-101 1058,-80 919,-80"/>
<text text-anchor="start" x="981.5" y="-86.8" font-family="Times,serif" font-size="14.00">id</text>
<polygon fill="none" stroke="black" points="738,-59 738,-80 769,-80 769,-59 738,-59"/>
<text text-anchor="start" x="748.5" y="-65.8" font-family="Times,serif" font-size="14.00">0</text>
<polygon fill="none" stroke="black" points="769,-59 769,-80 881,-80 881,-59 769,-59"/>
<text text-anchor="start" x="772" y="-65.8" font-family="Times,serif" font-size="14.00">(&#45;(_io.pos) % 4)</text>
<polygon fill="none" stroke="black" points="881,-59 881,-80 919,-80 919,-59 881,-59"/>
<polygon fill="none" stroke="black" points="919,-59 919,-80 1058,-80 1058,-59 919,-59"/>
<text text-anchor="start" x="922" y="-65.8" font-family="Times,serif" font-size="14.00">boundary_padding</text>
</g>
<!-- option_field__seq -->
<g id="node3" class="node">
<title>option_field__seq</title>
<polygon fill="#e0ffe0" stroke="transparent" points="746,-198 746,-219 777,-219 777,-198 746,-198"/>
<polygon fill="none" stroke="black" points="746,-198 746,-219 777,-219 777,-198 746,-198"/>
<text text-anchor="start" x="749" y="-204.8" font-family="Times,serif" font-size="14.00">pos</text>
<polygon fill="#e0ffe0" stroke="transparent" points="777,-198 777,-219 811,-219 811,-198 777,-198"/>
<polygon fill="none" stroke="black" points="777,-198 777,-219 811,-219 811,-198 777,-198"/>
<text text-anchor="start" x="780" y="-204.8" font-family="Times,serif" font-size="14.00">size</text>
<polygon fill="#e0ffe0" stroke="transparent" points="811,-198 811,-219 926,-219 926,-198 811,-198"/>
<polygon fill="none" stroke="black" points="811,-198 811,-219 926,-219 926,-198 811,-198"/>
<text text-anchor="start" x="852.5" y="-204.8" font-family="Times,serif" font-size="14.00">type</text>
<polygon fill="#e0ffe0" stroke="transparent" points="926,-198 926,-219 1050,-219 1050,-198 926,-198"/>
<polygon fill="none" stroke="black" points="926,-198 926,-219 1050,-219 1050,-198 926,-198"/>
<text text-anchor="start" x="981" y="-204.8" font-family="Times,serif" font-size="14.00">id</text>
<polygon fill="none" stroke="black" points="746,-177 746,-198 777,-198 777,-177 746,-177"/>
<text text-anchor="start" x="756.5" y="-183.8" font-family="Times,serif" font-size="14.00">0</text>
<polygon fill="none" stroke="black" points="777,-177 777,-198 811,-198 811,-177 777,-177"/>
<text text-anchor="start" x="787" y="-183.8" font-family="Times,serif" font-size="14.00">...</text>
<polygon fill="none" stroke="black" points="811,-177 811,-198 926,-198 926,-177 811,-177"/>
<text text-anchor="start" x="814" y="-183.8" font-family="Times,serif" font-size="14.00">OptionElement</text>
<polygon fill="none" stroke="black" points="926,-177 926,-198 1050,-198 1050,-177 926,-177"/>
<text text-anchor="start" x="929" y="-183.8" font-family="Times,serif" font-size="14.00">option_elements</text>
<polygon fill="none" stroke="black" points="746,-156 746,-177 1050,-177 1050,-156 746,-156"/>
<text text-anchor="start" x="813.5" y="-162.8" font-family="Times,serif" font-size="14.00">repeat to end of stream</text>
</g>
<!-- option_element__seq -->
<g id="node4" class="node">
<title>option_element__seq</title>
<polygon fill="#e0ffe0" stroke="transparent" points="1110.5,-208 1110.5,-229 1141.5,-229 1141.5,-208 1110.5,-208"/>
<polygon fill="none" stroke="black" points="1110.5,-208 1110.5,-229 1141.5,-229 1141.5,-208 1110.5,-208"/>
<text text-anchor="start" x="1113.5" y="-214.8" font-family="Times,serif" font-size="14.00">pos</text>
<polygon fill="#e0ffe0" stroke="transparent" points="1141.5,-208 1141.5,-229 1234.5,-229 1234.5,-208 1141.5,-208"/>
<polygon fill="none" stroke="black" points="1141.5,-208 1141.5,-229 1234.5,-229 1234.5,-208 1141.5,-208"/>
<text text-anchor="start" x="1174" y="-214.8" font-family="Times,serif" font-size="14.00">size</text>
<polygon fill="#e0ffe0" stroke="transparent" points="1234.5,-208 1234.5,-229 1276.5,-229 1276.5,-208 1234.5,-208"/>
<polygon fill="none" stroke="black" points="1234.5,-208 1234.5,-229 1276.5,-229 1276.5,-208 1234.5,-208"/>
<text text-anchor="start" x="1239.5" y="-214.8" font-family="Times,serif" font-size="14.00">type</text>
<polygon fill="#e0ffe0" stroke="transparent" points="1276.5,-208 1276.5,-229 1395.5,-229 1395.5,-208 1276.5,-208"/>
<polygon fill="none" stroke="black" points="1276.5,-208 1276.5,-229 1395.5,-229 1395.5,-208 1276.5,-208"/>
<text text-anchor="start" x="1329" y="-214.8" font-family="Times,serif" font-size="14.00">id</text>
<polygon fill="none" stroke="black" points="1110.5,-187 1110.5,-208 1141.5,-208 1141.5,-187 1110.5,-187"/>
<text text-anchor="start" x="1121" y="-193.8" font-family="Times,serif" font-size="14.00">0</text>
<polygon fill="none" stroke="black" points="1141.5,-187 1141.5,-208 1234.5,-208 1234.5,-187 1141.5,-187"/>
<text text-anchor="start" x="1183" y="-193.8" font-family="Times,serif" font-size="14.00">2</text>
<polygon fill="none" stroke="black" points="1234.5,-187 1234.5,-208 1276.5,-208 1276.5,-187 1234.5,-187"/>
<text text-anchor="start" x="1237.5" y="-193.8" font-family="Times,serif" font-size="14.00">u2be</text>
<polygon fill="none" stroke="black" points="1276.5,-187 1276.5,-208 1395.5,-208 1395.5,-187 1276.5,-187"/>
<text text-anchor="start" x="1279.5" y="-193.8" font-family="Times,serif" font-size="14.00">element_format</text>
<polygon fill="none" stroke="black" points="1110.5,-166 1110.5,-187 1141.5,-187 1141.5,-166 1110.5,-166"/>
<text text-anchor="start" x="1121" y="-172.8" font-family="Times,serif" font-size="14.00">2</text>
<polygon fill="none" stroke="black" points="1141.5,-166 1141.5,-187 1234.5,-187 1234.5,-166 1141.5,-166"/>
<text text-anchor="start" x="1183" y="-172.8" font-family="Times,serif" font-size="14.00">2</text>
<polygon fill="none" stroke="black" points="1234.5,-166 1234.5,-187 1276.5,-187 1276.5,-166 1234.5,-166"/>
<text text-anchor="start" x="1237.5" y="-172.8" font-family="Times,serif" font-size="14.00">u2be</text>
<polygon fill="none" stroke="black" points="1276.5,-166 1276.5,-187 1395.5,-187 1395.5,-166 1276.5,-166"/>
<text text-anchor="start" x="1292.5" y="-172.8" font-family="Times,serif" font-size="14.00">len_element</text>
<polygon fill="none" stroke="black" points="1110.5,-145 1110.5,-166 1141.5,-166 1141.5,-145 1110.5,-145"/>
<text text-anchor="start" x="1121" y="-151.8" font-family="Times,serif" font-size="14.00">4</text>
<polygon fill="none" stroke="black" points="1141.5,-145 1141.5,-166 1234.5,-166 1234.5,-145 1141.5,-145"/>
<text text-anchor="start" x="1144.5" y="-151.8" font-family="Times,serif" font-size="14.00">len_element</text>
<polygon fill="none" stroke="black" points="1234.5,-145 1234.5,-166 1276.5,-166 1276.5,-145 1234.5,-145"/>
<polygon fill="none" stroke="black" points="1276.5,-145 1276.5,-166 1395.5,-166 1395.5,-145 1276.5,-145"/>
<text text-anchor="start" x="1287.5" y="-151.8" font-family="Times,serif" font-size="14.00">element_data</text>
</g>
<!-- option_field__seq&#45;&gt;option_element__seq -->
<g id="edge2" class="edge">
<title>option_field__seq:option_elements_type&#45;&gt;option_element__seq</title>
<path fill="none" stroke="black" stroke-width="2" d="M1051,-187C1064.23,-187 1077.96,-187 1091.74,-187"/>
<polygon fill="black" stroke="black" stroke-width="2" points="1091.78,-190.5 1101.78,-187 1091.78,-183.5 1091.78,-190.5"/>
</g>
<!-- option_element__seq&#45;&gt;option_element__seq -->
<g id="edge3" class="edge">
<title>option_element__seq:len_element_type&#45;&gt;option_element__seq:element_data_size</title>
<path fill="none" stroke="#404040" d="M1369.1,-187.02C1421.6,-211.73 1401.44,-251 1262,-251 1128.65,-251 1104.4,-201.03 1148.43,-171.17"/>
<polygon fill="#404040" stroke="#404040" points="1150.29,-174.14 1157.1,-166.02 1146.71,-168.12 1150.29,-174.14"/>
</g>
<!-- record__seq&#45;&gt;padding__seq -->
<g id="edge6" class="edge">
<title>record__seq:options_padding_type&#45;&gt;padding__seq</title>
<path fill="none" stroke="black" stroke-width="2" d="M687.5,-164C706.18,-164 705.34,-148.44 722,-140 746.01,-127.83 773.05,-117.2 798.56,-108.41"/>
<polygon fill="black" stroke="black" stroke-width="2" points="799.91,-111.65 808.26,-105.13 797.66,-105.02 799.91,-111.65"/>
</g>
<!-- record__seq&#45;&gt;padding__seq -->
<g id="edge8" class="edge">
<title>record__seq:id_padding_type&#45;&gt;padding__seq</title>
<path fill="none" stroke="black" stroke-width="2" d="M687.5,-122C725.31,-122 766.22,-115.34 801.76,-107.33"/>
<polygon fill="black" stroke="black" stroke-width="2" points="802.69,-110.71 811.64,-105.04 801.11,-103.89 802.69,-110.71"/>
</g>
<!-- record__seq&#45;&gt;padding__seq -->
<g id="edge10" class="edge">
<title>record__seq:type_padding_type&#45;&gt;padding__seq</title>
<path fill="none" stroke="black" stroke-width="2" d="M687.5,-80C698.01,-80 708.82,-80 719.73,-80"/>
<polygon fill="black" stroke="black" stroke-width="2" points="719.76,-83.5 729.76,-80 719.76,-76.5 719.76,-83.5"/>
</g>
<!-- record__seq&#45;&gt;padding__seq -->
<g id="edge12" class="edge">
<title>record__seq:data_padding_type&#45;&gt;padding__seq</title>
<path fill="none" stroke="black" stroke-width="2" d="M687.5,-38C725.31,-38 766.22,-44.66 801.76,-52.67"/>
<polygon fill="black" stroke="black" stroke-width="2" points="801.11,-56.11 811.64,-54.96 802.69,-49.29 801.11,-56.11"/>
</g>
<!-- record__seq&#45;&gt;option_field__seq -->
<g id="edge5" class="edge">
<title>record__seq:options_type&#45;&gt;option_field__seq</title>
<path fill="none" stroke="black" stroke-width="2" d="M687.5,-185C700.47,-185 713.89,-185.06 727.39,-185.16"/>
<polygon fill="black" stroke="black" stroke-width="2" points="727.69,-188.66 737.72,-185.24 727.75,-181.66 727.69,-188.66"/>
</g>
<!-- record__seq&#45;&gt;record__seq -->
<g id="edge4" class="edge">
<title>record__seq:len_options_type&#45;&gt;record__seq:options_size</title>
<path fill="none" stroke="#404040" d="M635.94,-280.13C713.03,-353.11 702.99,-449.5 479.5,-449.5 263.44,-449.5 246.88,-286.95 315.67,-203.9"/>
<polygon fill="#404040" stroke="#404040" points="318.56,-205.92 322.59,-196.12 313.32,-201.27 318.56,-205.92"/>
</g>
<!-- record__seq&#45;&gt;record__seq -->
<g id="edge7" class="edge">
<title>record__seq:len_id_type&#45;&gt;record__seq:id_size</title>
<path fill="none" stroke="#404040" d="M635.94,-259.25C713.03,-333.96 702.99,-449.5 479.5,-449.5 262.78,-449.5 246.78,-249.93 316.3,-161.8"/>
<polygon fill="#404040" stroke="#404040" points="319.01,-164.02 322.82,-154.13 313.67,-159.48 319.01,-164.02"/>
</g>
<!-- record__seq&#45;&gt;record__seq -->
<g id="edge9" class="edge">
<title>record__seq:len_type_type&#45;&gt;record__seq:type_size</title>
<path fill="none" stroke="#404040" d="M636.88,-238.32C712.94,-315 702.07,-449.5 479.5,-449.5 262.34,-449.5 246.71,-212.95 316.72,-119.88"/>
<polygon fill="#404040" stroke="#404040" points="319.44,-122.08 323.06,-112.12 314.02,-117.66 319.44,-122.08"/>
</g>
<!-- record__seq&#45;&gt;record__seq -->
<g id="edge11" class="edge">
<title>record__seq:len_data_type&#45;&gt;record__seq:data_size</title>
<path fill="none" stroke="#404040" d="M636.88,-217.47C712.94,-296 702.07,-449.5 479.5,-449.5 262.12,-449.5 246.68,-176.22 316.94,-78.21"/>
<polygon fill="#404040" stroke="#404040" points="319.88,-80.12 323.29,-70.09 314.37,-75.8 319.88,-80.12"/>
</g>
</g>
</svg>
