<?xml version="1.0" encoding="UTF-8" standalone="no"?>
<!DOCTYPE svg PUBLIC "-//W3C//DTD SVG 1.1//EN"
 "http://www.w3.org/Graphics/SVG/1.1/DTD/svg11.dtd">
<!-- Generated by graphviz version 2.38.0 (20140413.2041)
 -->
<!-- Title: %3 Pages: 1 -->
<svg width="2027pt" height="317pt"
 viewBox="0.00 0.00 2027.00 317.14" xmlns="http://www.w3.org/2000/svg" xmlns:xlink="http://www.w3.org/1999/xlink">
<g id="graph0" class="graph" transform="scale(1 1) rotate(0) translate(4 313.141)">
<title>%3</title>
<polygon fill="white" stroke="none" points="-4,4 -4,-313.141 2023,-313.141 2023,4 -4,4"/>
<g id="clust1" class="cluster"><title>cluster__google_protobuf</title>
<polygon fill="none" stroke="black" stroke-dasharray="1,5" points="241,-23.1411 241,-301.141 1833,-301.141 1833,-23.1411 241,-23.1411"/>
<text text-anchor="middle" x="1037" y="-285.941" font-family="Times,serif" font-size="14.00">GoogleProtobuf</text>
</g>
<g id="clust2" class="cluster"><title>cluster__pair</title>
<polygon fill="none" stroke="black" stroke-dasharray="1,5" points="249,-113.141 249,-270.141 1520,-270.141 1520,-113.141 249,-113.141"/>
<text text-anchor="middle" x="884.5" y="-254.941" font-family="Times,serif" font-size="14.00">GoogleProtobuf::Pair</text>
</g>
<g id="clust3" class="cluster"><title>cluster__delimited_bytes</title>
<polygon fill="none" stroke="black" stroke-dasharray="1,5" points="1540,-43.1411 1540,-154.141 1825,-154.141 1825,-43.1411 1540,-43.1411"/>
<text text-anchor="middle" x="1682.5" y="-138.941" font-family="Times,serif" font-size="14.00">GoogleProtobuf::DelimitedBytes</text>
</g>
<!-- google_protobuf__seq -->
<g id="node1" class="node"><title>google_protobuf__seq</title>
<polygon fill="#e0ffe0" stroke="none" points="466,-77.1411 466,-98.1411 511,-98.1411 511,-77.1411 466,-77.1411"/>
<polygon fill="none" stroke="black" points="466,-77.1411 466,-98.1411 511,-98.1411 511,-77.1411 466,-77.1411"/>
<text text-anchor="start" x="476" y="-83.9411" font-family="Times,serif" font-size="14.00">pos</text>
<polygon fill="#e0ffe0" stroke="none" points="511,-77.1411 511,-98.1411 552,-98.1411 552,-77.1411 511,-77.1411"/>
<polygon fill="none" stroke="black" points="511,-77.1411 511,-98.1411 552,-98.1411 552,-77.1411 511,-77.1411"/>
<text text-anchor="start" x="517.5" y="-83.9411" font-family="Times,serif" font-size="14.00">size</text>
<polygon fill="#e0ffe0" stroke="none" points="552,-77.1411 552,-98.1411 594,-98.1411 594,-77.1411 552,-77.1411"/>
<polygon fill="none" stroke="black" points="552,-77.1411 552,-98.1411 594,-98.1411 594,-77.1411 552,-77.1411"/>
<text text-anchor="start" x="557" y="-83.9411" font-family="Times,serif" font-size="14.00">type</text>
<polygon fill="#e0ffe0" stroke="none" points="594,-77.1411 594,-98.1411 641,-98.1411 641,-77.1411 594,-77.1411"/>
<polygon fill="none" stroke="black" points="594,-77.1411 594,-98.1411 641,-98.1411 641,-77.1411 594,-77.1411"/>
<text text-anchor="start" x="610.5" y="-83.9411" font-family="Times,serif" font-size="14.00">id</text>
<polygon fill="none" stroke="black" points="466,-56.1411 466,-77.1411 511,-77.1411 511,-56.1411 466,-56.1411"/>
<text text-anchor="start" x="483.5" y="-62.9411" font-family="Times,serif" font-size="14.00">0</text>
<polygon fill="none" stroke="black" points="511,-56.1411 511,-77.1411 552,-77.1411 552,-56.1411 511,-56.1411"/>
<text text-anchor="start" x="524.5" y="-62.9411" font-family="Times,serif" font-size="14.00">...</text>
<polygon fill="none" stroke="black" points="552,-56.1411 552,-77.1411 594,-77.1411 594,-56.1411 552,-56.1411"/>
<text text-anchor="start" x="558.5" y="-62.9411" font-family="Times,serif" font-size="14.00">Pair</text>
<polygon fill="none" stroke="black" points="594,-56.1411 594,-77.1411 641,-77.1411 641,-56.1411 594,-56.1411"/>
<text text-anchor="start" x="599" y="-62.9411" font-family="Times,serif" font-size="14.00">pairs</text>
<polygon fill="none" stroke="black" points="466,-35.1411 466,-56.1411 641,-56.1411 641,-35.1411 466,-35.1411"/>
<text text-anchor="start" x="469" y="-41.9411" font-family="Times,serif" font-size="14.00">repeat to end of stream</text>
</g>
<!-- pair__seq -->
<g id="node2" class="node"><title>pair__seq</title>
<polygon fill="#e0ffe0" stroke="none" points="893.5,-201.141 893.5,-222.141 924.5,-222.141 924.5,-201.141 893.5,-201.141"/>
<polygon fill="none" stroke="black" points="893.5,-201.141 893.5,-222.141 924.5,-222.141 924.5,-201.141 893.5,-201.141"/>
<text text-anchor="start" x="896.5" y="-207.941" font-family="Times,serif" font-size="14.00">pos</text>
<polygon fill="#e0ffe0" stroke="none" points="924.5,-201.141 924.5,-222.141 958.5,-222.141 958.5,-201.141 924.5,-201.141"/>
<polygon fill="none" stroke="black" points="924.5,-201.141 924.5,-222.141 958.5,-222.141 958.5,-201.141 924.5,-201.141"/>
<text text-anchor="start" x="927.5" y="-207.941" font-family="Times,serif" font-size="14.00">size</text>
<polygon fill="#e0ffe0" stroke="none" points="958.5,-201.141 958.5,-222.141 1097.5,-222.141 1097.5,-201.141 958.5,-201.141"/>
<polygon fill="none" stroke="black" points="958.5,-201.141 958.5,-222.141 1097.5,-222.141 1097.5,-201.141 958.5,-201.141"/>
<text text-anchor="start" x="1012" y="-207.941" font-family="Times,serif" font-size="14.00">type</text>
<polygon fill="#e0ffe0" stroke="none" points="1097.5,-201.141 1097.5,-222.141 1142.5,-222.141 1142.5,-201.141 1097.5,-201.141"/>
<polygon fill="none" stroke="black" points="1097.5,-201.141 1097.5,-222.141 1142.5,-222.141 1142.5,-201.141 1097.5,-201.141"/>
<text text-anchor="start" x="1113" y="-207.941" font-family="Times,serif" font-size="14.00">id</text>
<polygon fill="none" stroke="black" points="893.5,-180.141 893.5,-201.141 924.5,-201.141 924.5,-180.141 893.5,-180.141"/>
<text text-anchor="start" x="904" y="-186.941" font-family="Times,serif" font-size="14.00">0</text>
<polygon fill="none" stroke="black" points="924.5,-180.141 924.5,-201.141 958.5,-201.141 958.5,-180.141 924.5,-180.141"/>
<text text-anchor="start" x="934.5" y="-186.941" font-family="Times,serif" font-size="14.00">...</text>
<polygon fill="none" stroke="black" points="958.5,-180.141 958.5,-201.141 1097.5,-201.141 1097.5,-180.141 958.5,-180.141"/>
<text text-anchor="start" x="976" y="-186.941" font-family="Times,serif" font-size="14.00">VlqBase128Le</text>
<polygon fill="none" stroke="black" points="1097.5,-180.141 1097.5,-201.141 1142.5,-201.141 1142.5,-180.141 1097.5,-180.141"/>
<text text-anchor="start" x="1107" y="-186.941" font-family="Times,serif" font-size="14.00">key</text>
<polygon fill="none" stroke="black" points="893.5,-159.141 893.5,-180.141 924.5,-180.141 924.5,-159.141 893.5,-159.141"/>
<text text-anchor="start" x="902" y="-165.941" font-family="Times,serif" font-size="14.00">...</text>
<polygon fill="none" stroke="black" points="924.5,-159.141 924.5,-180.141 958.5,-180.141 958.5,-159.141 924.5,-159.141"/>
<text text-anchor="start" x="934.5" y="-165.941" font-family="Times,serif" font-size="14.00">...</text>
<polygon fill="none" stroke="black" points="958.5,-159.141 958.5,-180.141 1097.5,-180.141 1097.5,-159.141 958.5,-159.141"/>
<text text-anchor="start" x="961.5" y="-165.941" font-family="Times,serif" font-size="14.00">switch (wire_type)</text>
<polygon fill="none" stroke="black" points="1097.5,-159.141 1097.5,-180.141 1142.5,-180.141 1142.5,-159.141 1097.5,-159.141"/>
<text text-anchor="start" x="1100.5" y="-165.941" font-family="Times,serif" font-size="14.00">value</text>
</g>
<!-- google_protobuf__seq&#45;&gt;pair__seq -->
<g id="edge1" class="edge"><title>google_protobuf__seq:pairs_type&#45;&gt;pair__seq</title>
<path fill="none" stroke="black" stroke-width="2" d="M642,-66.1411C735.964,-66.1411 760.107,-78.6896 849,-109.141 881.199,-120.171 915.199,-135.97 944.09,-150.761"/>
<polygon fill="black" stroke="black" stroke-width="2" points="942.792,-154.03 953.282,-155.52 946.011,-147.814 942.792,-154.03"/>
</g>
<!-- pair__seq_value_switch -->
<g id="node5" class="node"><title>pair__seq_value_switch</title>
<polygon fill="#f0f2e4" stroke="none" points="1194,-167.141 1194,-188.141 1387,-188.141 1387,-167.141 1194,-167.141"/>
<polygon fill="none" stroke="black" points="1194,-167.141 1194,-188.141 1387,-188.141 1387,-167.141 1194,-167.141"/>
<text text-anchor="start" x="1274" y="-173.941" font-family="Times,serif" font-size="14.00">case</text>
<polygon fill="#f0f2e4" stroke="none" points="1387,-167.141 1387,-188.141 1504,-188.141 1504,-167.141 1387,-167.141"/>
<polygon fill="none" stroke="black" points="1387,-167.141 1387,-188.141 1504,-188.141 1504,-167.141 1387,-167.141"/>
<text text-anchor="start" x="1429.5" y="-173.941" font-family="Times,serif" font-size="14.00">type</text>
<polygon fill="none" stroke="black" points="1194,-146.141 1194,-167.141 1387,-167.141 1387,-146.141 1194,-146.141"/>
<text text-anchor="start" x="1224" y="-152.941" font-family="Times,serif" font-size="14.00">:wire_types_varint</text>
<polygon fill="none" stroke="black" points="1387,-146.141 1387,-167.141 1504,-167.141 1504,-146.141 1387,-146.141"/>
<text text-anchor="start" x="1393.5" y="-152.941" font-family="Times,serif" font-size="14.00">VlqBase128Le</text>
<polygon fill="none" stroke="black" points="1194,-125.141 1194,-146.141 1387,-146.141 1387,-125.141 1194,-125.141"/>
<text text-anchor="start" x="1197" y="-131.941" font-family="Times,serif" font-size="14.00">:wire_types_len_delimited</text>
<polygon fill="none" stroke="black" points="1387,-125.141 1387,-146.141 1504,-146.141 1504,-125.141 1387,-125.141"/>
<text text-anchor="start" x="1390" y="-131.941" font-family="Times,serif" font-size="14.00">DelimitedBytes</text>
</g>
<!-- pair__seq&#45;&gt;pair__seq_value_switch -->
<g id="edge3" class="edge"><title>pair__seq:value_type&#45;&gt;pair__seq_value_switch</title>
<path fill="none" stroke="black" stroke-width="2" d="M1143.5,-169.141C1154.05,-169.141 1164.9,-168.98 1175.85,-168.695"/>
<polygon fill="black" stroke="black" stroke-width="2" points="1176.02,-172.191 1185.91,-168.399 1175.81,-165.194 1176.02,-172.191"/>
</g>
<!-- vlq_base128_le__seq -->
<g id="node7" class="node"><title>vlq_base128_le__seq</title>
<text text-anchor="middle" x="1936" y="-168.441" font-family="Times,serif" font-size="14.00">vlq_base128_le__seq</text>
</g>
<!-- pair__seq&#45;&gt;vlq_base128_le__seq -->
<g id="edge2" class="edge"><title>pair__seq:key_type&#45;&gt;vlq_base128_le__seq</title>
<path fill="none" stroke="black" stroke-width="2" d="M1143.5,-190.141C1163.13,-190.141 1166.56,-199.449 1186,-202.141 1333.04,-222.502 1371.65,-207.496 1520,-202.141 1631.16,-198.128 1758.75,-188.088 1842.78,-180.724"/>
<polygon fill="black" stroke="black" stroke-width="2" points="1843.16,-184.205 1852.81,-179.84 1842.54,-177.232 1843.16,-184.205"/>
</g>
<!-- pair__inst__wire_type -->
<g id="node3" class="node"><title>pair__inst__wire_type</title>
<polygon fill="#e0ffe0" stroke="none" points="265,-214.141 265,-235.141 342,-235.141 342,-214.141 265,-214.141"/>
<polygon fill="none" stroke="black" points="265,-214.141 265,-235.141 342,-235.141 342,-214.141 265,-214.141"/>
<text text-anchor="start" x="296.5" y="-220.941" font-family="Times,serif" font-size="14.00">id</text>
<polygon fill="#e0ffe0" stroke="none" points="342,-214.141 342,-235.141 841,-235.141 841,-214.141 342,-214.141"/>
<polygon fill="none" stroke="black" points="342,-214.141 342,-235.141 841,-235.141 841,-214.141 342,-214.141"/>
<text text-anchor="start" x="572" y="-220.941" font-family="Times,serif" font-size="14.00">value</text>
<polygon fill="none" stroke="black" points="265,-193.141 265,-214.141 342,-214.141 342,-193.141 265,-193.141"/>
<text text-anchor="start" x="268" y="-199.941" font-family="Times,serif" font-size="14.00">wire_type</text>
<polygon fill="none" stroke="black" points="342,-193.141 342,-214.141 841,-214.141 841,-193.141 342,-193.141"/>
<text text-anchor="start" x="345" y="-199.941" font-family="Times,serif" font-size="14.00">Kaitai::Struct::Stream::resolve_enum(WIRE_TYPES, (key.value &amp; 7))</text>
</g>
<!-- pair__inst__wire_type&#45;&gt;pair__seq -->
<g id="edge6" class="edge"><title>pair__inst__wire_type:wire_type_type&#45;&gt;pair__seq:value_type</title>
<path fill="none" stroke="#404040" d="M818.554,-189.136C828.911,-186.428 839.095,-183.439 849,-180.141 866.575,-174.289 867.129,-164.013 885,-159.141 982.531,-132.551 1111.34,-58.7558 1120.04,-148.04"/>
<polygon fill="#404040" stroke="#404040" points="1116.54,-148.313 1120.5,-158.141 1123.54,-147.991 1116.54,-148.313"/>
</g>
<!-- pair__inst__field_tag -->
<g id="node4" class="node"><title>pair__inst__field_tag</title>
<polygon fill="#e0ffe0" stroke="none" points="456,-146.141 456,-167.141 525,-167.141 525,-146.141 456,-146.141"/>
<polygon fill="none" stroke="black" points="456,-146.141 456,-167.141 525,-167.141 525,-146.141 456,-146.141"/>
<text text-anchor="start" x="483.5" y="-152.941" font-family="Times,serif" font-size="14.00">id</text>
<polygon fill="#e0ffe0" stroke="none" points="525,-146.141 525,-167.141 651,-167.141 651,-146.141 525,-146.141"/>
<polygon fill="none" stroke="black" points="525,-146.141 525,-167.141 651,-167.141 651,-146.141 525,-146.141"/>
<text text-anchor="start" x="568.5" y="-152.941" font-family="Times,serif" font-size="14.00">value</text>
<polygon fill="none" stroke="black" points="456,-125.141 456,-146.141 525,-146.141 525,-125.141 456,-125.141"/>
<text text-anchor="start" x="459" y="-131.941" font-family="Times,serif" font-size="14.00">field_tag</text>
<polygon fill="none" stroke="black" points="525,-125.141 525,-146.141 651,-146.141 651,-125.141 525,-125.141"/>
<text text-anchor="start" x="528" y="-131.941" font-family="Times,serif" font-size="14.00">(key.value &gt;&gt; 3)</text>
</g>
<!-- delimited_bytes__seq -->
<g id="node6" class="node"><title>delimited_bytes__seq</title>
<polygon fill="#e0ffe0" stroke="none" points="1556.5,-97.1411 1556.5,-118.141 1587.5,-118.141 1587.5,-97.1411 1556.5,-97.1411"/>
<polygon fill="none" stroke="black" points="1556.5,-97.1411 1556.5,-118.141 1587.5,-118.141 1587.5,-97.1411 1556.5,-97.1411"/>
<text text-anchor="start" x="1559.5" y="-103.941" font-family="Times,serif" font-size="14.00">pos</text>
<polygon fill="#e0ffe0" stroke="none" points="1587.5,-97.1411 1587.5,-118.141 1658.5,-118.141 1658.5,-97.1411 1587.5,-97.1411"/>
<polygon fill="none" stroke="black" points="1587.5,-97.1411 1587.5,-118.141 1658.5,-118.141 1658.5,-97.1411 1587.5,-97.1411"/>
<text text-anchor="start" x="1609" y="-103.941" font-family="Times,serif" font-size="14.00">size</text>
<polygon fill="#e0ffe0" stroke="none" points="1658.5,-97.1411 1658.5,-118.141 1768.5,-118.141 1768.5,-97.1411 1658.5,-97.1411"/>
<polygon fill="none" stroke="black" points="1658.5,-97.1411 1658.5,-118.141 1768.5,-118.141 1768.5,-97.1411 1658.5,-97.1411"/>
<text text-anchor="start" x="1697.5" y="-103.941" font-family="Times,serif" font-size="14.00">type</text>
<polygon fill="#e0ffe0" stroke="none" points="1768.5,-97.1411 1768.5,-118.141 1809.5,-118.141 1809.5,-97.1411 1768.5,-97.1411"/>
<polygon fill="none" stroke="black" points="1768.5,-97.1411 1768.5,-118.141 1809.5,-118.141 1809.5,-97.1411 1768.5,-97.1411"/>
<text text-anchor="start" x="1782" y="-103.941" font-family="Times,serif" font-size="14.00">id</text>
<polygon fill="none" stroke="black" points="1556.5,-76.1411 1556.5,-97.1411 1587.5,-97.1411 1587.5,-76.1411 1556.5,-76.1411"/>
<text text-anchor="start" x="1567" y="-82.9411" font-family="Times,serif" font-size="14.00">0</text>
<polygon fill="none" stroke="black" points="1587.5,-76.1411 1587.5,-97.1411 1658.5,-97.1411 1658.5,-76.1411 1587.5,-76.1411"/>
<text text-anchor="start" x="1616" y="-82.9411" font-family="Times,serif" font-size="14.00">...</text>
<polygon fill="none" stroke="black" points="1658.5,-76.1411 1658.5,-97.1411 1768.5,-97.1411 1768.5,-76.1411 1658.5,-76.1411"/>
<text text-anchor="start" x="1661.5" y="-82.9411" font-family="Times,serif" font-size="14.00">VlqBase128Le</text>
<polygon fill="none" stroke="black" points="1768.5,-76.1411 1768.5,-97.1411 1809.5,-97.1411 1809.5,-76.1411 1768.5,-76.1411"/>
<text text-anchor="start" x="1778" y="-82.9411" font-family="Times,serif" font-size="14.00">len</text>
<polygon fill="none" stroke="black" points="1556.5,-55.1411 1556.5,-76.1411 1587.5,-76.1411 1587.5,-55.1411 1556.5,-55.1411"/>
<text text-anchor="start" x="1565" y="-61.9411" font-family="Times,serif" font-size="14.00">...</text>
<polygon fill="none" stroke="black" points="1587.5,-55.1411 1587.5,-76.1411 1658.5,-76.1411 1658.5,-55.1411 1587.5,-55.1411"/>
<text text-anchor="start" x="1590.5" y="-61.9411" font-family="Times,serif" font-size="14.00">len.value</text>
<polygon fill="none" stroke="black" points="1658.5,-55.1411 1658.5,-76.1411 1768.5,-76.1411 1768.5,-55.1411 1658.5,-55.1411"/>
<polygon fill="none" stroke="black" points="1768.5,-55.1411 1768.5,-76.1411 1809.5,-76.1411 1809.5,-55.1411 1768.5,-55.1411"/>
<text text-anchor="start" x="1771.5" y="-61.9411" font-family="Times,serif" font-size="14.00">body</text>
</g>
<!-- pair__seq_value_switch&#45;&gt;delimited_bytes__seq -->
<g id="edge5" class="edge"><title>pair__seq_value_switch:case1&#45;&gt;delimited_bytes__seq</title>
<path fill="none" stroke="black" stroke-width="2" d="M1505,-135.141C1528.76,-135.141 1553.7,-131.042 1577.11,-125.239"/>
<polygon fill="black" stroke="black" stroke-width="2" points="1578.25,-128.561 1587.04,-122.655 1576.48,-121.786 1578.25,-128.561"/>
</g>
<!-- pair__seq_value_switch&#45;&gt;vlq_base128_le__seq -->
<g id="edge4" class="edge"><title>pair__seq_value_switch:case0&#45;&gt;vlq_base128_le__seq</title>
<path fill="none" stroke="black" stroke-width="2" d="M1505,-156.141C1520.58,-156.141 1524.44,-157.421 1540,-158.141 1643.7,-162.941 1762.77,-166.957 1842.84,-169.439"/>
<polygon fill="black" stroke="black" stroke-width="2" points="1842.79,-172.939 1852.9,-169.749 1843.01,-165.943 1842.79,-172.939"/>
</g>
<!-- delimited_bytes__seq&#45;&gt;vlq_base128_le__seq -->
<g id="edge9" class="edge"><title>delimited_bytes__seq:len_type&#45;&gt;vlq_base128_le__seq</title>
<path fill="none" stroke="black" stroke-width="2" d="M1810.5,-86.1411C1853.17,-86.1411 1891.81,-120.76 1914.36,-146.068"/>
<polygon fill="black" stroke="black" stroke-width="2" points="1911.92,-148.605 1921.1,-153.903 1917.23,-144.039 1911.92,-148.605"/>
</g>
<!-- vlq_base128_le__inst__value -->
<g id="node8" class="node"><title>vlq_base128_le__inst__value</title>
<text text-anchor="middle" x="110.5" y="-142.441" font-family="Times,serif" font-size="14.00">vlq_base128_le__inst__value</text>
</g>
<!-- vlq_base128_le__inst__value&#45;&gt;pair__inst__wire_type -->
<g id="edge7" class="edge"><title>vlq_base128_le__inst__value:value_type&#45;&gt;pair__inst__wire_type</title>
<path fill="none" stroke="#404040" d="M172.672,-164.187C194.125,-169.986 218.486,-175.978 241,-180.141 255.458,-182.814 270.336,-185.302 285.383,-187.614"/>
<polygon fill="#404040" stroke="#404040" points="284.883,-191.078 295.293,-189.108 285.927,-184.157 284.883,-191.078"/>
</g>
<!-- vlq_base128_le__inst__value&#45;&gt;pair__inst__field_tag -->
<g id="edge8" class="edge"><title>vlq_base128_le__inst__value:value_type&#45;&gt;pair__inst__field_tag</title>
<path fill="none" stroke="#404040" d="M221.237,-146.141C287.042,-146.141 370.611,-146.141 437.285,-146.141"/>
<polygon fill="#404040" stroke="#404040" points="437.414,-149.641 447.414,-146.141 437.414,-142.641 437.414,-149.641"/>
</g>
<!-- vlq_base128_le__inst__value&#45;&gt;delimited_bytes__seq -->
<g id="edge10" class="edge"><title>vlq_base128_le__inst__value:value_type&#45;&gt;delimited_bytes__seq:body_size</title>
<path fill="none" stroke="#404040" d="M123.09,-127.816C142.986,-98.2969 186.779,-41.2913 241,-19.1411 366.974,32.3214 1493.92,-35.8726 1612.43,-51.9672"/>
<polygon fill="#404040" stroke="#404040" points="1611.99,-55.4519 1622.5,-54.1411 1613.46,-48.6095 1611.99,-55.4519"/>
</g>
</g>
</svg>
