<?xml version="1.0" encoding="UTF-8" standalone="no"?>
<!DOCTYPE svg PUBLIC "-//W3C//DTD SVG 1.1//EN"
 "http://www.w3.org/Graphics/SVG/1.1/DTD/svg11.dtd">
<!-- Generated by graphviz version 2.38.0 (20140413.2041)
 -->
<!-- Title: %3 Pages: 1 -->
<svg width="2023pt" height="318pt"
 viewBox="0.00 0.00 2023.00 317.97" xmlns="http://www.w3.org/2000/svg" xmlns:xlink="http://www.w3.org/1999/xlink">
<g id="graph0" class="graph" transform="scale(1 1) rotate(0) translate(4 313.967)">
<title>%3</title>
<polygon fill="white" stroke="none" points="-4,4 -4,-313.967 2019,-313.967 2019,4 -4,4"/>
<g id="clust1" class="cluster"><title>cluster__google_protobuf</title>
<polygon fill="none" stroke="black" stroke-dasharray="1,5" points="241,-23.9675 241,-301.967 1829,-301.967 1829,-23.9675 241,-23.9675"/>
<text text-anchor="middle" x="1035" y="-286.767" font-family="Times,serif" font-size="14.00">GoogleProtobuf</text>
</g>
<g id="clust2" class="cluster"><title>cluster__pair</title>
<polygon fill="none" stroke="black" stroke-dasharray="1,5" points="249,-113.967 249,-270.967 1516,-270.967 1516,-113.967 249,-113.967"/>
<text text-anchor="middle" x="882.5" y="-255.767" font-family="Times,serif" font-size="14.00">GoogleProtobuf::Pair</text>
</g>
<g id="clust3" class="cluster"><title>cluster__delimited_bytes</title>
<polygon fill="none" stroke="black" stroke-dasharray="1,5" points="1536,-43.9675 1536,-154.967 1821,-154.967 1821,-43.9675 1536,-43.9675"/>
<text text-anchor="middle" x="1678.5" y="-139.767" font-family="Times,serif" font-size="14.00">GoogleProtobuf::DelimitedBytes</text>
</g>
<!-- google_protobuf__seq -->
<g id="node1" class="node"><title>google_protobuf__seq</title>
<polygon fill="#e0ffe0" stroke="none" points="464,-77.9675 464,-98.9675 509,-98.9675 509,-77.9675 464,-77.9675"/>
<polygon fill="none" stroke="black" points="464,-77.9675 464,-98.9675 509,-98.9675 509,-77.9675 464,-77.9675"/>
<text text-anchor="start" x="474" y="-84.7675" font-family="Times,serif" font-size="14.00">pos</text>
<polygon fill="#e0ffe0" stroke="none" points="509,-77.9675 509,-98.9675 550,-98.9675 550,-77.9675 509,-77.9675"/>
<polygon fill="none" stroke="black" points="509,-77.9675 509,-98.9675 550,-98.9675 550,-77.9675 509,-77.9675"/>
<text text-anchor="start" x="515.5" y="-84.7675" font-family="Times,serif" font-size="14.00">size</text>
<polygon fill="#e0ffe0" stroke="none" points="550,-77.9675 550,-98.9675 592,-98.9675 592,-77.9675 550,-77.9675"/>
<polygon fill="none" stroke="black" points="550,-77.9675 550,-98.9675 592,-98.9675 592,-77.9675 550,-77.9675"/>
<text text-anchor="start" x="555" y="-84.7675" font-family="Times,serif" font-size="14.00">type</text>
<polygon fill="#e0ffe0" stroke="none" points="592,-77.9675 592,-98.9675 639,-98.9675 639,-77.9675 592,-77.9675"/>
<polygon fill="none" stroke="black" points="592,-77.9675 592,-98.9675 639,-98.9675 639,-77.9675 592,-77.9675"/>
<text text-anchor="start" x="608.5" y="-84.7675" font-family="Times,serif" font-size="14.00">id</text>
<polygon fill="none" stroke="black" points="464,-56.9675 464,-77.9675 509,-77.9675 509,-56.9675 464,-56.9675"/>
<text text-anchor="start" x="481.5" y="-63.7675" font-family="Times,serif" font-size="14.00">0</text>
<polygon fill="none" stroke="black" points="509,-56.9675 509,-77.9675 550,-77.9675 550,-56.9675 509,-56.9675"/>
<text text-anchor="start" x="522.5" y="-63.7675" font-family="Times,serif" font-size="14.00">...</text>
<polygon fill="none" stroke="black" points="550,-56.9675 550,-77.9675 592,-77.9675 592,-56.9675 550,-56.9675"/>
<text text-anchor="start" x="556.5" y="-63.7675" font-family="Times,serif" font-size="14.00">Pair</text>
<polygon fill="none" stroke="black" points="592,-56.9675 592,-77.9675 639,-77.9675 639,-56.9675 592,-56.9675"/>
<text text-anchor="start" x="597" y="-63.7675" font-family="Times,serif" font-size="14.00">pairs</text>
<polygon fill="none" stroke="black" points="464,-35.9675 464,-56.9675 639,-56.9675 639,-35.9675 464,-35.9675"/>
<text text-anchor="start" x="467" y="-42.7675" font-family="Times,serif" font-size="14.00">repeat to end of stream</text>
</g>
<!-- pair__seq -->
<g id="node2" class="node"><title>pair__seq</title>
<polygon fill="#e0ffe0" stroke="none" points="889.5,-201.967 889.5,-222.967 920.5,-222.967 920.5,-201.967 889.5,-201.967"/>
<polygon fill="none" stroke="black" points="889.5,-201.967 889.5,-222.967 920.5,-222.967 920.5,-201.967 889.5,-201.967"/>
<text text-anchor="start" x="892.5" y="-208.767" font-family="Times,serif" font-size="14.00">pos</text>
<polygon fill="#e0ffe0" stroke="none" points="920.5,-201.967 920.5,-222.967 954.5,-222.967 954.5,-201.967 920.5,-201.967"/>
<polygon fill="none" stroke="black" points="920.5,-201.967 920.5,-222.967 954.5,-222.967 954.5,-201.967 920.5,-201.967"/>
<text text-anchor="start" x="923.5" y="-208.767" font-family="Times,serif" font-size="14.00">size</text>
<polygon fill="#e0ffe0" stroke="none" points="954.5,-201.967 954.5,-222.967 1093.5,-222.967 1093.5,-201.967 954.5,-201.967"/>
<polygon fill="none" stroke="black" points="954.5,-201.967 954.5,-222.967 1093.5,-222.967 1093.5,-201.967 954.5,-201.967"/>
<text text-anchor="start" x="1008" y="-208.767" font-family="Times,serif" font-size="14.00">type</text>
<polygon fill="#e0ffe0" stroke="none" points="1093.5,-201.967 1093.5,-222.967 1138.5,-222.967 1138.5,-201.967 1093.5,-201.967"/>
<polygon fill="none" stroke="black" points="1093.5,-201.967 1093.5,-222.967 1138.5,-222.967 1138.5,-201.967 1093.5,-201.967"/>
<text text-anchor="start" x="1109" y="-208.767" font-family="Times,serif" font-size="14.00">id</text>
<polygon fill="none" stroke="black" points="889.5,-180.967 889.5,-201.967 920.5,-201.967 920.5,-180.967 889.5,-180.967"/>
<text text-anchor="start" x="900" y="-187.767" font-family="Times,serif" font-size="14.00">0</text>
<polygon fill="none" stroke="black" points="920.5,-180.967 920.5,-201.967 954.5,-201.967 954.5,-180.967 920.5,-180.967"/>
<text text-anchor="start" x="930.5" y="-187.767" font-family="Times,serif" font-size="14.00">...</text>
<polygon fill="none" stroke="black" points="954.5,-180.967 954.5,-201.967 1093.5,-201.967 1093.5,-180.967 954.5,-180.967"/>
<text text-anchor="start" x="972" y="-187.767" font-family="Times,serif" font-size="14.00">VlqBase128Le</text>
<polygon fill="none" stroke="black" points="1093.5,-180.967 1093.5,-201.967 1138.5,-201.967 1138.5,-180.967 1093.5,-180.967"/>
<text text-anchor="start" x="1103" y="-187.767" font-family="Times,serif" font-size="14.00">key</text>
<polygon fill="none" stroke="black" points="889.5,-159.967 889.5,-180.967 920.5,-180.967 920.5,-159.967 889.5,-159.967"/>
<text text-anchor="start" x="898" y="-166.767" font-family="Times,serif" font-size="14.00">...</text>
<polygon fill="none" stroke="black" points="920.5,-159.967 920.5,-180.967 954.5,-180.967 954.5,-159.967 920.5,-159.967"/>
<text text-anchor="start" x="930.5" y="-166.767" font-family="Times,serif" font-size="14.00">...</text>
<polygon fill="none" stroke="black" points="954.5,-159.967 954.5,-180.967 1093.5,-180.967 1093.5,-159.967 954.5,-159.967"/>
<text text-anchor="start" x="957.5" y="-166.767" font-family="Times,serif" font-size="14.00">switch (wire_type)</text>
<polygon fill="none" stroke="black" points="1093.5,-159.967 1093.5,-180.967 1138.5,-180.967 1138.5,-159.967 1093.5,-159.967"/>
<text text-anchor="start" x="1096.5" y="-166.767" font-family="Times,serif" font-size="14.00">value</text>
</g>
<!-- google_protobuf__seq&#45;&gt;pair__seq -->
<g id="edge1" class="edge"><title>google_protobuf__seq:pairs_type&#45;&gt;pair__seq</title>
<path fill="none" stroke="black" stroke-width="2" d="M640,-66.9675C733.094,-66.9675 756.96,-79.7124 845,-109.967 877.189,-121.029 911.186,-136.833 940.079,-151.62"/>
<polygon fill="black" stroke="black" stroke-width="2" points="938.781,-154.889 949.271,-156.377 941.999,-148.672 938.781,-154.889"/>
</g>
<!-- pair__seq_value_switch -->
<g id="node5" class="node"><title>pair__seq_value_switch</title>
<polygon fill="#f0f2e4" stroke="none" points="1190,-167.967 1190,-188.967 1383,-188.967 1383,-167.967 1190,-167.967"/>
<polygon fill="none" stroke="black" points="1190,-167.967 1190,-188.967 1383,-188.967 1383,-167.967 1190,-167.967"/>
<text text-anchor="start" x="1270" y="-174.767" font-family="Times,serif" font-size="14.00">case</text>
<polygon fill="#f0f2e4" stroke="none" points="1383,-167.967 1383,-188.967 1500,-188.967 1500,-167.967 1383,-167.967"/>
<polygon fill="none" stroke="black" points="1383,-167.967 1383,-188.967 1500,-188.967 1500,-167.967 1383,-167.967"/>
<text text-anchor="start" x="1425.5" y="-174.767" font-family="Times,serif" font-size="14.00">type</text>
<polygon fill="none" stroke="black" points="1190,-146.967 1190,-167.967 1383,-167.967 1383,-146.967 1190,-146.967"/>
<text text-anchor="start" x="1220" y="-153.767" font-family="Times,serif" font-size="14.00">:wire_types_varint</text>
<polygon fill="none" stroke="black" points="1383,-146.967 1383,-167.967 1500,-167.967 1500,-146.967 1383,-146.967"/>
<text text-anchor="start" x="1389.5" y="-153.767" font-family="Times,serif" font-size="14.00">VlqBase128Le</text>
<polygon fill="none" stroke="black" points="1190,-125.967 1190,-146.967 1383,-146.967 1383,-125.967 1190,-125.967"/>
<text text-anchor="start" x="1193" y="-132.767" font-family="Times,serif" font-size="14.00">:wire_types_len_delimited</text>
<polygon fill="none" stroke="black" points="1383,-125.967 1383,-146.967 1500,-146.967 1500,-125.967 1383,-125.967"/>
<text text-anchor="start" x="1386" y="-132.767" font-family="Times,serif" font-size="14.00">DelimitedBytes</text>
</g>
<!-- pair__seq&#45;&gt;pair__seq_value_switch -->
<g id="edge3" class="edge"><title>pair__seq:value_type&#45;&gt;pair__seq_value_switch</title>
<path fill="none" stroke="black" stroke-width="2" d="M1139.5,-169.967C1150.05,-169.967 1160.9,-169.806 1171.85,-169.521"/>
<polygon fill="black" stroke="black" stroke-width="2" points="1172.02,-173.018 1181.91,-169.226 1171.81,-166.021 1172.02,-173.018"/>
</g>
<!-- vlq_base128_le__seq -->
<g id="node7" class="node"><title>vlq_base128_le__seq</title>
<text text-anchor="middle" x="1932" y="-169.267" font-family="Times,serif" font-size="14.00">vlq_base128_le__seq</text>
</g>
<!-- pair__seq&#45;&gt;vlq_base128_le__seq -->
<g id="edge2" class="edge"><title>pair__seq:key_type&#45;&gt;vlq_base128_le__seq</title>
<path fill="none" stroke="black" stroke-width="2" d="M1139.5,-190.967C1159.13,-190.967 1162.56,-200.275 1182,-202.967 1329.04,-223.328 1367.65,-208.322 1516,-202.967 1627.16,-198.955 1754.75,-188.915 1838.78,-181.55"/>
<polygon fill="black" stroke="black" stroke-width="2" points="1839.16,-185.031 1848.81,-180.666 1838.54,-178.058 1839.16,-185.031"/>
</g>
<!-- pair__inst__wire_type -->
<g id="node3" class="node"><title>pair__inst__wire_type</title>
<polygon fill="#e0ffe0" stroke="none" points="265,-214.967 265,-235.967 342,-235.967 342,-214.967 265,-214.967"/>
<polygon fill="none" stroke="black" points="265,-214.967 265,-235.967 342,-235.967 342,-214.967 265,-214.967"/>
<text text-anchor="start" x="296.5" y="-221.767" font-family="Times,serif" font-size="14.00">id</text>
<polygon fill="#e0ffe0" stroke="none" points="342,-214.967 342,-235.967 837,-235.967 837,-214.967 342,-214.967"/>
<polygon fill="none" stroke="black" points="342,-214.967 342,-235.967 837,-235.967 837,-214.967 342,-214.967"/>
<text text-anchor="start" x="570" y="-221.767" font-family="Times,serif" font-size="14.00">value</text>
<polygon fill="none" stroke="black" points="265,-193.967 265,-214.967 342,-214.967 342,-193.967 265,-193.967"/>
<text text-anchor="start" x="268" y="-200.767" font-family="Times,serif" font-size="14.00">wire_type</text>
<polygon fill="none" stroke="black" points="342,-193.967 342,-214.967 837,-214.967 837,-193.967 342,-193.967"/>
<text text-anchor="start" x="345" y="-200.767" font-family="Times,serif" font-size="14.00">Kaitai::Struct::Stream::resolve_enum(WIRE_TYPES, (key.value &amp; 7))</text>
</g>
<!-- pair__inst__wire_type&#45;&gt;pair__seq -->
<g id="edge6" class="edge"><title>pair__inst__wire_type:wire_type_type&#45;&gt;pair__seq:value_type</title>
<path fill="none" stroke="#404040" d="M814.762,-189.916C825.048,-187.221 835.162,-184.247 845,-180.967 862.572,-175.109 863.129,-164.84 881,-159.967 978.531,-133.378 1107.34,-59.5821 1116.04,-148.866"/>
<polygon fill="#404040" stroke="#404040" points="1112.54,-149.139 1116.5,-158.967 1119.54,-148.817 1112.54,-149.139"/>
</g>
<!-- pair__inst__field_tag -->
<g id="node4" class="node"><title>pair__inst__field_tag</title>
<polygon fill="#e0ffe0" stroke="none" points="455,-146.967 455,-167.967 523,-167.967 523,-146.967 455,-146.967"/>
<polygon fill="none" stroke="black" points="455,-146.967 455,-167.967 523,-167.967 523,-146.967 455,-146.967"/>
<text text-anchor="start" x="482" y="-153.767" font-family="Times,serif" font-size="14.00">id</text>
<polygon fill="#e0ffe0" stroke="none" points="523,-146.967 523,-167.967 648,-167.967 648,-146.967 523,-146.967"/>
<polygon fill="none" stroke="black" points="523,-146.967 523,-167.967 648,-167.967 648,-146.967 523,-146.967"/>
<text text-anchor="start" x="566" y="-153.767" font-family="Times,serif" font-size="14.00">value</text>
<polygon fill="none" stroke="black" points="455,-125.967 455,-146.967 523,-146.967 523,-125.967 455,-125.967"/>
<text text-anchor="start" x="458" y="-132.767" font-family="Times,serif" font-size="14.00">field_tag</text>
<polygon fill="none" stroke="black" points="523,-125.967 523,-146.967 648,-146.967 648,-125.967 523,-125.967"/>
<text text-anchor="start" x="526" y="-132.767" font-family="Times,serif" font-size="14.00">(key.value &gt;&gt; 3)</text>
</g>
<!-- delimited_bytes__seq -->
<g id="node6" class="node"><title>delimited_bytes__seq</title>
<polygon fill="#e0ffe0" stroke="none" points="1552.5,-97.9675 1552.5,-118.967 1583.5,-118.967 1583.5,-97.9675 1552.5,-97.9675"/>
<polygon fill="none" stroke="black" points="1552.5,-97.9675 1552.5,-118.967 1583.5,-118.967 1583.5,-97.9675 1552.5,-97.9675"/>
<text text-anchor="start" x="1555.5" y="-104.767" font-family="Times,serif" font-size="14.00">pos</text>
<polygon fill="#e0ffe0" stroke="none" points="1583.5,-97.9675 1583.5,-118.967 1654.5,-118.967 1654.5,-97.9675 1583.5,-97.9675"/>
<polygon fill="none" stroke="black" points="1583.5,-97.9675 1583.5,-118.967 1654.5,-118.967 1654.5,-97.9675 1583.5,-97.9675"/>
<text text-anchor="start" x="1605" y="-104.767" font-family="Times,serif" font-size="14.00">size</text>
<polygon fill="#e0ffe0" stroke="none" points="1654.5,-97.9675 1654.5,-118.967 1764.5,-118.967 1764.5,-97.9675 1654.5,-97.9675"/>
<polygon fill="none" stroke="black" points="1654.5,-97.9675 1654.5,-118.967 1764.5,-118.967 1764.5,-97.9675 1654.5,-97.9675"/>
<text text-anchor="start" x="1693.5" y="-104.767" font-family="Times,serif" font-size="14.00">type</text>
<polygon fill="#e0ffe0" stroke="none" points="1764.5,-97.9675 1764.5,-118.967 1805.5,-118.967 1805.5,-97.9675 1764.5,-97.9675"/>
<polygon fill="none" stroke="black" points="1764.5,-97.9675 1764.5,-118.967 1805.5,-118.967 1805.5,-97.9675 1764.5,-97.9675"/>
<text text-anchor="start" x="1778" y="-104.767" font-family="Times,serif" font-size="14.00">id</text>
<polygon fill="none" stroke="black" points="1552.5,-76.9675 1552.5,-97.9675 1583.5,-97.9675 1583.5,-76.9675 1552.5,-76.9675"/>
<text text-anchor="start" x="1563" y="-83.7675" font-family="Times,serif" font-size="14.00">0</text>
<polygon fill="none" stroke="black" points="1583.5,-76.9675 1583.5,-97.9675 1654.5,-97.9675 1654.5,-76.9675 1583.5,-76.9675"/>
<text text-anchor="start" x="1612" y="-83.7675" font-family="Times,serif" font-size="14.00">...</text>
<polygon fill="none" stroke="black" points="1654.5,-76.9675 1654.5,-97.9675 1764.5,-97.9675 1764.5,-76.9675 1654.5,-76.9675"/>
<text text-anchor="start" x="1657.5" y="-83.7675" font-family="Times,serif" font-size="14.00">VlqBase128Le</text>
<polygon fill="none" stroke="black" points="1764.5,-76.9675 1764.5,-97.9675 1805.5,-97.9675 1805.5,-76.9675 1764.5,-76.9675"/>
<text text-anchor="start" x="1774" y="-83.7675" font-family="Times,serif" font-size="14.00">len</text>
<polygon fill="none" stroke="black" points="1552.5,-55.9675 1552.5,-76.9675 1583.5,-76.9675 1583.5,-55.9675 1552.5,-55.9675"/>
<text text-anchor="start" x="1561" y="-62.7675" font-family="Times,serif" font-size="14.00">...</text>
<polygon fill="none" stroke="black" points="1583.5,-55.9675 1583.5,-76.9675 1654.5,-76.9675 1654.5,-55.9675 1583.5,-55.9675"/>
<text text-anchor="start" x="1586.5" y="-62.7675" font-family="Times,serif" font-size="14.00">len.value</text>
<polygon fill="none" stroke="black" points="1654.5,-55.9675 1654.5,-76.9675 1764.5,-76.9675 1764.5,-55.9675 1654.5,-55.9675"/>
<polygon fill="none" stroke="black" points="1764.5,-55.9675 1764.5,-76.9675 1805.5,-76.9675 1805.5,-55.9675 1764.5,-55.9675"/>
<text text-anchor="start" x="1767.5" y="-62.7675" font-family="Times,serif" font-size="14.00">body</text>
</g>
<!-- pair__seq_value_switch&#45;&gt;delimited_bytes__seq -->
<g id="edge5" class="edge"><title>pair__seq_value_switch:case1&#45;&gt;delimited_bytes__seq</title>
<path fill="none" stroke="black" stroke-width="2" d="M1501,-135.967C1524.76,-135.967 1549.7,-131.868 1573.11,-126.066"/>
<polygon fill="black" stroke="black" stroke-width="2" points="1574.25,-129.387 1583.04,-123.481 1572.48,-122.613 1574.25,-129.387"/>
</g>
<!-- pair__seq_value_switch&#45;&gt;vlq_base128_le__seq -->
<g id="edge4" class="edge"><title>pair__seq_value_switch:case0&#45;&gt;vlq_base128_le__seq</title>
<path fill="none" stroke="black" stroke-width="2" d="M1501,-156.967C1516.58,-156.967 1520.44,-158.247 1536,-158.967 1639.7,-163.767 1758.77,-167.783 1838.84,-170.266"/>
<polygon fill="black" stroke="black" stroke-width="2" points="1838.79,-173.766 1848.9,-170.576 1839.01,-166.769 1838.79,-173.766"/>
</g>
<!-- delimited_bytes__seq&#45;&gt;vlq_base128_le__seq -->
<g id="edge9" class="edge"><title>delimited_bytes__seq:len_type&#45;&gt;vlq_base128_le__seq</title>
<path fill="none" stroke="black" stroke-width="2" d="M1806.5,-86.9675C1849.17,-86.9675 1887.81,-121.586 1910.36,-146.895"/>
<polygon fill="black" stroke="black" stroke-width="2" points="1907.92,-149.431 1917.1,-154.729 1913.23,-144.866 1907.92,-149.431"/>
</g>
<!-- vlq_base128_le__inst__value -->
<g id="node8" class="node"><title>vlq_base128_le__inst__value</title>
<text text-anchor="middle" x="110.5" y="-143.267" font-family="Times,serif" font-size="14.00">vlq_base128_le__inst__value</text>
</g>
<!-- vlq_base128_le__inst__value&#45;&gt;pair__inst__wire_type -->
<g id="edge7" class="edge"><title>vlq_base128_le__inst__value:value_type&#45;&gt;pair__inst__wire_type</title>
<path fill="none" stroke="#404040" d="M172.674,-165.005C194.127,-170.802 218.487,-176.797 241,-180.967 255.474,-183.649 270.372,-186.145 285.438,-188.464"/>
<polygon fill="#404040" stroke="#404040" points="284.95,-191.93 295.361,-189.963 285.996,-185.009 284.95,-191.93"/>
</g>
<!-- vlq_base128_le__inst__value&#45;&gt;pair__inst__field_tag -->
<g id="edge8" class="edge"><title>vlq_base128_le__inst__value:value_type&#45;&gt;pair__inst__field_tag</title>
<path fill="none" stroke="#404040" d="M221.021,-146.967C286.651,-146.967 369.955,-146.967 436.313,-146.967"/>
<polygon fill="#404040" stroke="#404040" points="436.394,-150.468 446.394,-146.967 436.394,-143.468 436.394,-150.468"/>
</g>
<!-- vlq_base128_le__inst__value&#45;&gt;delimited_bytes__seq -->
<g id="edge10" class="edge"><title>vlq_base128_le__inst__value:value_type&#45;&gt;delimited_bytes__seq:body_size</title>
<path fill="none" stroke="#404040" d="M123.09,-128.642C142.986,-99.1233 186.779,-42.1177 241,-19.9675 369.603,32.5687 1490.61,-34.7988 1608.48,-52.5019"/>
<polygon fill="#404040" stroke="#404040" points="1607.95,-55.9755 1618.5,-54.9675 1609.63,-49.1784 1607.95,-55.9755"/>
</g>
</g>
</svg>
