<?xml version="1.0" encoding="UTF-8" standalone="no"?>
<!DOCTYPE svg PUBLIC "-//W3C//DTD SVG 1.1//EN"
 "http://www.w3.org/Graphics/SVG/1.1/DTD/svg11.dtd">
<!-- Generated by graphviz version 2.40.1 (20161225.0304)
 -->
<!-- Title: %3 Pages: 1 -->
<svg width="2027pt" height="317pt"
 viewBox="0.00 0.00 2027.00 316.51" xmlns="http://www.w3.org/2000/svg" xmlns:xlink="http://www.w3.org/1999/xlink">
<g id="graph0" class="graph" transform="scale(1 1) rotate(0) translate(4 312.5116)">
<title>%3</title>
<polygon fill="#ffffff" stroke="transparent" points="-4,4 -4,-312.5116 2023,-312.5116 2023,4 -4,4"/>
<g id="clust1" class="cluster">
<title>cluster__google_protobuf</title>
<polygon fill="none" stroke="#000000" stroke-dasharray="1,5" points="241,-22.5116 241,-300.5116 1833,-300.5116 1833,-22.5116 241,-22.5116"/>
<text text-anchor="middle" x="1037" y="-285.3116" font-family="Times,serif" font-size="14.00" fill="#000000">GoogleProtobuf</text>
</g>
<g id="clust2" class="cluster">
<title>cluster__pair</title>
<polygon fill="none" stroke="#000000" stroke-dasharray="1,5" points="249,-112.5116 249,-269.5116 1520,-269.5116 1520,-112.5116 249,-112.5116"/>
<text text-anchor="middle" x="884.5" y="-254.3116" font-family="Times,serif" font-size="14.00" fill="#000000">GoogleProtobuf::Pair</text>
</g>
<g id="clust3" class="cluster">
<title>cluster__delimited_bytes</title>
<polygon fill="none" stroke="#000000" stroke-dasharray="1,5" points="1540,-42.5116 1540,-153.5116 1825,-153.5116 1825,-42.5116 1540,-42.5116"/>
<text text-anchor="middle" x="1682.5" y="-138.3116" font-family="Times,serif" font-size="14.00" fill="#000000">GoogleProtobuf::DelimitedBytes</text>
</g>
<!-- google_protobuf__seq -->
<g id="node1" class="node">
<title>google_protobuf__seq</title>
<polygon fill="#e0ffe0" stroke="transparent" points="466,-76.5116 466,-97.5116 511,-97.5116 511,-76.5116 466,-76.5116"/>
<polygon fill="none" stroke="#000000" points="466,-76.5116 466,-97.5116 511,-97.5116 511,-76.5116 466,-76.5116"/>
<text text-anchor="start" x="476" y="-83.3116" font-family="Times,serif" font-size="14.00" fill="#000000">pos</text>
<polygon fill="#e0ffe0" stroke="transparent" points="511,-76.5116 511,-97.5116 552,-97.5116 552,-76.5116 511,-76.5116"/>
<polygon fill="none" stroke="#000000" points="511,-76.5116 511,-97.5116 552,-97.5116 552,-76.5116 511,-76.5116"/>
<text text-anchor="start" x="517.5" y="-83.3116" font-family="Times,serif" font-size="14.00" fill="#000000">size</text>
<polygon fill="#e0ffe0" stroke="transparent" points="552,-76.5116 552,-97.5116 594,-97.5116 594,-76.5116 552,-76.5116"/>
<polygon fill="none" stroke="#000000" points="552,-76.5116 552,-97.5116 594,-97.5116 594,-76.5116 552,-76.5116"/>
<text text-anchor="start" x="557" y="-83.3116" font-family="Times,serif" font-size="14.00" fill="#000000">type</text>
<polygon fill="#e0ffe0" stroke="transparent" points="594,-76.5116 594,-97.5116 641,-97.5116 641,-76.5116 594,-76.5116"/>
<polygon fill="none" stroke="#000000" points="594,-76.5116 594,-97.5116 641,-97.5116 641,-76.5116 594,-76.5116"/>
<text text-anchor="start" x="610.5" y="-83.3116" font-family="Times,serif" font-size="14.00" fill="#000000">id</text>
<polygon fill="none" stroke="#000000" points="466,-55.5116 466,-76.5116 511,-76.5116 511,-55.5116 466,-55.5116"/>
<text text-anchor="start" x="483.5" y="-62.3116" font-family="Times,serif" font-size="14.00" fill="#000000">0</text>
<polygon fill="none" stroke="#000000" points="511,-55.5116 511,-76.5116 552,-76.5116 552,-55.5116 511,-55.5116"/>
<text text-anchor="start" x="524.5" y="-62.3116" font-family="Times,serif" font-size="14.00" fill="#000000">...</text>
<polygon fill="none" stroke="#000000" points="552,-55.5116 552,-76.5116 594,-76.5116 594,-55.5116 552,-55.5116"/>
<text text-anchor="start" x="558.5" y="-62.3116" font-family="Times,serif" font-size="14.00" fill="#000000">Pair</text>
<polygon fill="none" stroke="#000000" points="594,-55.5116 594,-76.5116 641,-76.5116 641,-55.5116 594,-55.5116"/>
<text text-anchor="start" x="599" y="-62.3116" font-family="Times,serif" font-size="14.00" fill="#000000">pairs</text>
<polygon fill="none" stroke="#000000" points="466,-34.5116 466,-55.5116 641,-55.5116 641,-34.5116 466,-34.5116"/>
<text text-anchor="start" x="469" y="-41.3116" font-family="Times,serif" font-size="14.00" fill="#000000">repeat to end of stream</text>
</g>
<!-- pair__seq -->
<g id="node2" class="node">
<title>pair__seq</title>
<polygon fill="#e0ffe0" stroke="transparent" points="893.5,-200.5116 893.5,-221.5116 924.5,-221.5116 924.5,-200.5116 893.5,-200.5116"/>
<polygon fill="none" stroke="#000000" points="893.5,-200.5116 893.5,-221.5116 924.5,-221.5116 924.5,-200.5116 893.5,-200.5116"/>
<text text-anchor="start" x="896.5" y="-207.3116" font-family="Times,serif" font-size="14.00" fill="#000000">pos</text>
<polygon fill="#e0ffe0" stroke="transparent" points="924.5,-200.5116 924.5,-221.5116 958.5,-221.5116 958.5,-200.5116 924.5,-200.5116"/>
<polygon fill="none" stroke="#000000" points="924.5,-200.5116 924.5,-221.5116 958.5,-221.5116 958.5,-200.5116 924.5,-200.5116"/>
<text text-anchor="start" x="927.5" y="-207.3116" font-family="Times,serif" font-size="14.00" fill="#000000">size</text>
<polygon fill="#e0ffe0" stroke="transparent" points="958.5,-200.5116 958.5,-221.5116 1097.5,-221.5116 1097.5,-200.5116 958.5,-200.5116"/>
<polygon fill="none" stroke="#000000" points="958.5,-200.5116 958.5,-221.5116 1097.5,-221.5116 1097.5,-200.5116 958.5,-200.5116"/>
<text text-anchor="start" x="1012" y="-207.3116" font-family="Times,serif" font-size="14.00" fill="#000000">type</text>
<polygon fill="#e0ffe0" stroke="transparent" points="1097.5,-200.5116 1097.5,-221.5116 1142.5,-221.5116 1142.5,-200.5116 1097.5,-200.5116"/>
<polygon fill="none" stroke="#000000" points="1097.5,-200.5116 1097.5,-221.5116 1142.5,-221.5116 1142.5,-200.5116 1097.5,-200.5116"/>
<text text-anchor="start" x="1113" y="-207.3116" font-family="Times,serif" font-size="14.00" fill="#000000">id</text>
<polygon fill="none" stroke="#000000" points="893.5,-179.5116 893.5,-200.5116 924.5,-200.5116 924.5,-179.5116 893.5,-179.5116"/>
<text text-anchor="start" x="904" y="-186.3116" font-family="Times,serif" font-size="14.00" fill="#000000">0</text>
<polygon fill="none" stroke="#000000" points="924.5,-179.5116 924.5,-200.5116 958.5,-200.5116 958.5,-179.5116 924.5,-179.5116"/>
<text text-anchor="start" x="934.5" y="-186.3116" font-family="Times,serif" font-size="14.00" fill="#000000">...</text>
<polygon fill="none" stroke="#000000" points="958.5,-179.5116 958.5,-200.5116 1097.5,-200.5116 1097.5,-179.5116 958.5,-179.5116"/>
<text text-anchor="start" x="976" y="-186.3116" font-family="Times,serif" font-size="14.00" fill="#000000">VlqBase128Le</text>
<polygon fill="none" stroke="#000000" points="1097.5,-179.5116 1097.5,-200.5116 1142.5,-200.5116 1142.5,-179.5116 1097.5,-179.5116"/>
<text text-anchor="start" x="1107" y="-186.3116" font-family="Times,serif" font-size="14.00" fill="#000000">key</text>
<polygon fill="none" stroke="#000000" points="893.5,-158.5116 893.5,-179.5116 924.5,-179.5116 924.5,-158.5116 893.5,-158.5116"/>
<text text-anchor="start" x="902" y="-165.3116" font-family="Times,serif" font-size="14.00" fill="#000000">...</text>
<polygon fill="none" stroke="#000000" points="924.5,-158.5116 924.5,-179.5116 958.5,-179.5116 958.5,-158.5116 924.5,-158.5116"/>
<text text-anchor="start" x="934.5" y="-165.3116" font-family="Times,serif" font-size="14.00" fill="#000000">...</text>
<polygon fill="none" stroke="#000000" points="958.5,-158.5116 958.5,-179.5116 1097.5,-179.5116 1097.5,-158.5116 958.5,-158.5116"/>
<text text-anchor="start" x="961.5" y="-165.3116" font-family="Times,serif" font-size="14.00" fill="#000000">switch (wire_type)</text>
<polygon fill="none" stroke="#000000" points="1097.5,-158.5116 1097.5,-179.5116 1142.5,-179.5116 1142.5,-158.5116 1097.5,-158.5116"/>
<text text-anchor="start" x="1100.5" y="-165.3116" font-family="Times,serif" font-size="14.00" fill="#000000">value</text>
</g>
<!-- google_protobuf__seq&#45;&gt;pair__seq -->
<g id="edge1" class="edge">
<title>google_protobuf__seq:pairs_type&#45;&gt;pair__seq</title>
<path fill="none" stroke="#000000" stroke-width="2" d="M641,-65.5116C735.3992,-65.5116 759.645,-78.0666 849,-108.5116 881.3728,-119.5416 915.5716,-135.34 944.6379,-150.1308"/>
<polygon fill="#000000" stroke="#000000" stroke-width="2" points="943.3927,-153.4262 953.8859,-154.8902 946.5959,-147.2021 943.3927,-153.4262"/>
</g>
<!-- pair__seq_value_switch -->
<g id="node5" class="node">
<title>pair__seq_value_switch</title>
<polygon fill="#f0f2e4" stroke="transparent" points="1194,-166.5116 1194,-187.5116 1387,-187.5116 1387,-166.5116 1194,-166.5116"/>
<polygon fill="none" stroke="#000000" points="1194,-166.5116 1194,-187.5116 1387,-187.5116 1387,-166.5116 1194,-166.5116"/>
<text text-anchor="start" x="1274" y="-173.3116" font-family="Times,serif" font-size="14.00" fill="#000000">case</text>
<polygon fill="#f0f2e4" stroke="transparent" points="1387,-166.5116 1387,-187.5116 1504,-187.5116 1504,-166.5116 1387,-166.5116"/>
<polygon fill="none" stroke="#000000" points="1387,-166.5116 1387,-187.5116 1504,-187.5116 1504,-166.5116 1387,-166.5116"/>
<text text-anchor="start" x="1429.5" y="-173.3116" font-family="Times,serif" font-size="14.00" fill="#000000">type</text>
<polygon fill="none" stroke="#000000" points="1194,-145.5116 1194,-166.5116 1387,-166.5116 1387,-145.5116 1194,-145.5116"/>
<text text-anchor="start" x="1224" y="-152.3116" font-family="Times,serif" font-size="14.00" fill="#000000">:wire_types_varint</text>
<polygon fill="none" stroke="#000000" points="1387,-145.5116 1387,-166.5116 1504,-166.5116 1504,-145.5116 1387,-145.5116"/>
<text text-anchor="start" x="1393.5" y="-152.3116" font-family="Times,serif" font-size="14.00" fill="#000000">VlqBase128Le</text>
<polygon fill="none" stroke="#000000" points="1194,-124.5116 1194,-145.5116 1387,-145.5116 1387,-124.5116 1194,-124.5116"/>
<text text-anchor="start" x="1197" y="-131.3116" font-family="Times,serif" font-size="14.00" fill="#000000">:wire_types_len_delimited</text>
<polygon fill="none" stroke="#000000" points="1387,-124.5116 1387,-145.5116 1504,-145.5116 1504,-124.5116 1387,-124.5116"/>
<text text-anchor="start" x="1390" y="-131.3116" font-family="Times,serif" font-size="14.00" fill="#000000">DelimitedBytes</text>
</g>
<!-- pair__seq&#45;&gt;pair__seq_value_switch -->
<g id="edge3" class="edge">
<title>pair__seq:value_type&#45;&gt;pair__seq_value_switch</title>
<path fill="none" stroke="#000000" stroke-width="2" d="M1142.5,-168.5116C1153.2916,-168.5116 1164.3951,-168.3462 1175.5885,-168.0543"/>
<polygon fill="#000000" stroke="#000000" stroke-width="2" points="1175.9943,-171.544 1185.8872,-167.7518 1175.7887,-164.547 1175.9943,-171.544"/>
</g>
<!-- vlq_base128_le__seq -->
<g id="node7" class="node">
<title>vlq_base128_le__seq</title>
<text text-anchor="middle" x="1936" y="-167.8116" font-family="Times,serif" font-size="14.00" fill="#000000">vlq_base128_le__seq</text>
</g>
<!-- pair__seq&#45;&gt;vlq_base128_le__seq -->
<g id="edge2" class="edge">
<title>pair__seq:key_type&#45;&gt;vlq_base128_le__seq</title>
<path fill="none" stroke="#000000" stroke-width="2" d="M1142.5,-189.5116C1162.5555,-189.5116 1166.1259,-198.8206 1186,-201.5116 1333.1021,-221.4295 1371.6517,-206.8537 1520,-201.5116 1631.0841,-197.5113 1758.5297,-187.5212 1842.7712,-180.1633"/>
<polygon fill="#000000" stroke="#000000" stroke-width="2" points="1843.1712,-183.6417 1852.8264,-179.2796 1842.5583,-176.6686 1843.1712,-183.6417"/>
</g>
<!-- pair__inst__wire_type -->
<g id="node3" class="node">
<title>pair__inst__wire_type</title>
<polygon fill="#e0ffe0" stroke="transparent" points="265,-213.5116 265,-234.5116 342,-234.5116 342,-213.5116 265,-213.5116"/>
<polygon fill="none" stroke="#000000" points="265,-213.5116 265,-234.5116 342,-234.5116 342,-213.5116 265,-213.5116"/>
<text text-anchor="start" x="296.5" y="-220.3116" font-family="Times,serif" font-size="14.00" fill="#000000">id</text>
<polygon fill="#e0ffe0" stroke="transparent" points="342,-213.5116 342,-234.5116 841,-234.5116 841,-213.5116 342,-213.5116"/>
<polygon fill="none" stroke="#000000" points="342,-213.5116 342,-234.5116 841,-234.5116 841,-213.5116 342,-213.5116"/>
<text text-anchor="start" x="572" y="-220.3116" font-family="Times,serif" font-size="14.00" fill="#000000">value</text>
<polygon fill="none" stroke="#000000" points="265,-192.5116 265,-213.5116 342,-213.5116 342,-192.5116 265,-192.5116"/>
<text text-anchor="start" x="268" y="-199.3116" font-family="Times,serif" font-size="14.00" fill="#000000">wire_type</text>
<polygon fill="none" stroke="#000000" points="342,-192.5116 342,-213.5116 841,-213.5116 841,-192.5116 342,-192.5116"/>
<text text-anchor="start" x="345" y="-199.3116" font-family="Times,serif" font-size="14.00" fill="#000000">Kaitai::Struct::Stream::resolve_enum(WIRE_TYPES, (key.value &amp; 7))</text>
</g>
<!-- pair__inst__wire_type&#45;&gt;pair__seq -->
<g id="edge6" class="edge">
<title>pair__inst__wire_type:wire_type_type&#45;&gt;pair__seq:value_type</title>
<path fill="none" stroke="#404040" d="M818.8354,-188.4293C829.0947,-185.7413 839.1838,-182.7778 849,-179.5116 866.5758,-173.6633 867.1187,-163.3458 885,-158.5116 982.5859,-132.1293 1111.3474,-59.0741 1120.0355,-148.4078"/>
<polygon fill="#404040" stroke="#404040" points="1116.5443,-148.6829 1120.5,-158.5116 1123.5369,-148.3613 1116.5443,-148.6829"/>
</g>
<!-- pair__inst__field_tag -->
<g id="node4" class="node">
<title>pair__inst__field_tag</title>
<polygon fill="#e0ffe0" stroke="transparent" points="456,-145.5116 456,-166.5116 525,-166.5116 525,-145.5116 456,-145.5116"/>
<polygon fill="none" stroke="#000000" points="456,-145.5116 456,-166.5116 525,-166.5116 525,-145.5116 456,-145.5116"/>
<text text-anchor="start" x="483.5" y="-152.3116" font-family="Times,serif" font-size="14.00" fill="#000000">id</text>
<polygon fill="#e0ffe0" stroke="transparent" points="525,-145.5116 525,-166.5116 651,-166.5116 651,-145.5116 525,-145.5116"/>
<polygon fill="none" stroke="#000000" points="525,-145.5116 525,-166.5116 651,-166.5116 651,-145.5116 525,-145.5116"/>
<text text-anchor="start" x="568.5" y="-152.3116" font-family="Times,serif" font-size="14.00" fill="#000000">value</text>
<polygon fill="none" stroke="#000000" points="456,-124.5116 456,-145.5116 525,-145.5116 525,-124.5116 456,-124.5116"/>
<text text-anchor="start" x="459" y="-131.3116" font-family="Times,serif" font-size="14.00" fill="#000000">field_tag</text>
<polygon fill="none" stroke="#000000" points="525,-124.5116 525,-145.5116 651,-145.5116 651,-124.5116 525,-124.5116"/>
<text text-anchor="start" x="528" y="-131.3116" font-family="Times,serif" font-size="14.00" fill="#000000">(key.value &gt;&gt; 3)</text>
</g>
<!-- delimited_bytes__seq -->
<g id="node6" class="node">
<title>delimited_bytes__seq</title>
<polygon fill="#e0ffe0" stroke="transparent" points="1556.5,-96.5116 1556.5,-117.5116 1587.5,-117.5116 1587.5,-96.5116 1556.5,-96.5116"/>
<polygon fill="none" stroke="#000000" points="1556.5,-96.5116 1556.5,-117.5116 1587.5,-117.5116 1587.5,-96.5116 1556.5,-96.5116"/>
<text text-anchor="start" x="1559.5" y="-103.3116" font-family="Times,serif" font-size="14.00" fill="#000000">pos</text>
<polygon fill="#e0ffe0" stroke="transparent" points="1587.5,-96.5116 1587.5,-117.5116 1658.5,-117.5116 1658.5,-96.5116 1587.5,-96.5116"/>
<polygon fill="none" stroke="#000000" points="1587.5,-96.5116 1587.5,-117.5116 1658.5,-117.5116 1658.5,-96.5116 1587.5,-96.5116"/>
<text text-anchor="start" x="1609" y="-103.3116" font-family="Times,serif" font-size="14.00" fill="#000000">size</text>
<polygon fill="#e0ffe0" stroke="transparent" points="1658.5,-96.5116 1658.5,-117.5116 1768.5,-117.5116 1768.5,-96.5116 1658.5,-96.5116"/>
<polygon fill="none" stroke="#000000" points="1658.5,-96.5116 1658.5,-117.5116 1768.5,-117.5116 1768.5,-96.5116 1658.5,-96.5116"/>
<text text-anchor="start" x="1697.5" y="-103.3116" font-family="Times,serif" font-size="14.00" fill="#000000">type</text>
<polygon fill="#e0ffe0" stroke="transparent" points="1768.5,-96.5116 1768.5,-117.5116 1809.5,-117.5116 1809.5,-96.5116 1768.5,-96.5116"/>
<polygon fill="none" stroke="#000000" points="1768.5,-96.5116 1768.5,-117.5116 1809.5,-117.5116 1809.5,-96.5116 1768.5,-96.5116"/>
<text text-anchor="start" x="1782" y="-103.3116" font-family="Times,serif" font-size="14.00" fill="#000000">id</text>
<polygon fill="none" stroke="#000000" points="1556.5,-75.5116 1556.5,-96.5116 1587.5,-96.5116 1587.5,-75.5116 1556.5,-75.5116"/>
<text text-anchor="start" x="1567" y="-82.3116" font-family="Times,serif" font-size="14.00" fill="#000000">0</text>
<polygon fill="none" stroke="#000000" points="1587.5,-75.5116 1587.5,-96.5116 1658.5,-96.5116 1658.5,-75.5116 1587.5,-75.5116"/>
<text text-anchor="start" x="1616" y="-82.3116" font-family="Times,serif" font-size="14.00" fill="#000000">...</text>
<polygon fill="none" stroke="#000000" points="1658.5,-75.5116 1658.5,-96.5116 1768.5,-96.5116 1768.5,-75.5116 1658.5,-75.5116"/>
<text text-anchor="start" x="1661.5" y="-82.3116" font-family="Times,serif" font-size="14.00" fill="#000000">VlqBase128Le</text>
<polygon fill="none" stroke="#000000" points="1768.5,-75.5116 1768.5,-96.5116 1809.5,-96.5116 1809.5,-75.5116 1768.5,-75.5116"/>
<text text-anchor="start" x="1778" y="-82.3116" font-family="Times,serif" font-size="14.00" fill="#000000">len</text>
<polygon fill="none" stroke="#000000" points="1556.5,-54.5116 1556.5,-75.5116 1587.5,-75.5116 1587.5,-54.5116 1556.5,-54.5116"/>
<text text-anchor="start" x="1565" y="-61.3116" font-family="Times,serif" font-size="14.00" fill="#000000">...</text>
<polygon fill="none" stroke="#000000" points="1587.5,-54.5116 1587.5,-75.5116 1658.5,-75.5116 1658.5,-54.5116 1587.5,-54.5116"/>
<text text-anchor="start" x="1590.5" y="-61.3116" font-family="Times,serif" font-size="14.00" fill="#000000">len.value</text>
<polygon fill="none" stroke="#000000" points="1658.5,-54.5116 1658.5,-75.5116 1768.5,-75.5116 1768.5,-54.5116 1658.5,-54.5116"/>
<polygon fill="none" stroke="#000000" points="1768.5,-54.5116 1768.5,-75.5116 1809.5,-75.5116 1809.5,-54.5116 1768.5,-54.5116"/>
<text text-anchor="start" x="1771.5" y="-61.3116" font-family="Times,serif" font-size="14.00" fill="#000000">body</text>
</g>
<!-- pair__seq_value_switch&#45;&gt;delimited_bytes__seq -->
<g id="edge5" class="edge">
<title>pair__seq_value_switch:case1&#45;&gt;delimited_bytes__seq</title>
<path fill="none" stroke="#000000" stroke-width="2" d="M1504,-134.5116C1528.1149,-134.5116 1553.453,-130.3756 1577.2184,-124.5318"/>
<polygon fill="#000000" stroke="#000000" stroke-width="2" points="1578.1343,-127.9102 1586.9445,-122.0254 1576.3875,-121.1316 1578.1343,-127.9102"/>
</g>
<!-- pair__seq_value_switch&#45;&gt;vlq_base128_le__seq -->
<g id="edge4" class="edge">
<title>pair__seq_value_switch:case0&#45;&gt;vlq_base128_le__seq</title>
<path fill="none" stroke="#000000" stroke-width="2" d="M1504,-155.5116C1520.0247,-155.5116 1523.9919,-156.784 1540,-157.5116 1643.633,-162.2217 1762.5835,-166.2406 1842.8454,-168.7483"/>
<polygon fill="#000000" stroke="#000000" stroke-width="2" points="1842.8232,-172.2492 1852.9272,-169.0617 1843.0408,-165.2526 1842.8232,-172.2492"/>
</g>
<!-- delimited_bytes__seq&#45;&gt;vlq_base128_le__seq -->
<g id="edge9" class="edge">
<title>delimited_bytes__seq:len_type&#45;&gt;vlq_base128_le__seq</title>
<path fill="none" stroke="#000000" stroke-width="2" d="M1809.5,-85.5116C1852.6334,-85.5116 1891.9552,-120.13 1914.9392,-145.4388"/>
<polygon fill="#000000" stroke="#000000" stroke-width="2" points="1912.5859,-148.0637 1921.8115,-153.2732 1917.8482,-143.4476 1912.5859,-148.0637"/>
</g>
<!-- vlq_base128_le__inst__value -->
<g id="node8" class="node">
<title>vlq_base128_le__inst__value</title>
<text text-anchor="middle" x="110.5" y="-141.8116" font-family="Times,serif" font-size="14.00" fill="#000000">vlq_base128_le__inst__value</text>
</g>
<!-- vlq_base128_le__inst__value&#45;&gt;pair__inst__wire_type -->
<g id="edge7" class="edge">
<title>vlq_base128_le__inst__value:value_type&#45;&gt;pair__inst__wire_type</title>
<path fill="none" stroke="#404040" d="M172.1518,-163.5522C193.771,-169.3502 218.3183,-175.3442 241,-179.5116 255.5071,-182.177 270.4347,-184.6589 285.5319,-186.9663"/>
<polygon fill="#404040" stroke="#404040" points="285.0661,-190.4355 295.4746,-188.4576 286.1044,-183.513 285.0661,-190.4355"/>
</g>
<!-- vlq_base128_le__inst__value&#45;&gt;pair__inst__field_tag -->
<g id="edge8" class="edge">
<title>vlq_base128_le__inst__value:value_type&#45;&gt;pair__inst__field_tag</title>
<path fill="none" stroke="#404040" d="M221.02,-145.5116C286.8834,-145.5116 370.3859,-145.5116 437.1668,-145.5116"/>
<polygon fill="#404040" stroke="#404040" points="437.3145,-149.0117 447.3145,-145.5116 437.3145,-142.0117 437.3145,-149.0117"/>
</g>
<!-- vlq_base128_le__inst__value&#45;&gt;delimited_bytes__seq -->
<g id="edge10" class="edge">
<title>vlq_base128_le__inst__value:value_type&#45;&gt;delimited_bytes__seq:body_size</title>
<path fill="none" stroke="#404040" d="M122.2161,-127.1823C142.3175,-97.6579 186.5223,-40.6445 241,-18.5116 367.0629,32.7045 1493.9324,-37.9689 1612.4314,-52.6168"/>
<polygon fill="#404040" stroke="#404040" points="1612.0252,-56.1017 1622.5,-54.5116 1613.3198,-49.2225 1612.0252,-56.1017"/>
</g>
</g>
</svg>
