<?xml version="1.0" encoding="UTF-8" standalone="no"?>
<!DOCTYPE svg PUBLIC "-//W3C//DTD SVG 1.1//EN"
 "http://www.w3.org/Graphics/SVG/1.1/DTD/svg11.dtd">
<!-- Generated by graphviz version 2.43.0 (0)
 -->
<!-- Title: %3 Pages: 1 -->
<svg width="2008pt" height="318pt"
 viewBox="0.00 0.00 2008.00 318.47" xmlns="http://www.w3.org/2000/svg" xmlns:xlink="http://www.w3.org/1999/xlink">
<g id="graph0" class="graph" transform="scale(1 1) rotate(0) translate(4 314.47)">
<title>%3</title>
<polygon fill="white" stroke="transparent" points="-4,4 -4,-314.47 2004,-314.47 2004,4 -4,4"/>
<g id="clust1" class="cluster">
<title>cluster__google_protobuf</title>
<polygon fill="none" stroke="black" stroke-dasharray="1,5" points="237,-24.47 237,-302.47 1817,-302.47 1817,-24.47 237,-24.47"/>
<text text-anchor="middle" x="1027" y="-287.27" font-family="Times,serif" font-size="14.00">GoogleProtobuf</text>
</g>
<g id="clust2" class="cluster">
<title>cluster__pair</title>
<polygon fill="none" stroke="black" stroke-dasharray="1,5" points="245,-114.47 245,-271.47 1505,-271.47 1505,-114.47 245,-114.47"/>
<text text-anchor="middle" x="875" y="-256.27" font-family="Times,serif" font-size="14.00">GoogleProtobuf::Pair</text>
</g>
<g id="clust3" class="cluster">
<title>cluster__delimited_bytes</title>
<polygon fill="none" stroke="black" stroke-dasharray="1,5" points="1525,-44.47 1525,-155.47 1809,-155.47 1809,-44.47 1525,-44.47"/>
<text text-anchor="middle" x="1667" y="-140.27" font-family="Times,serif" font-size="14.00">GoogleProtobuf::DelimitedBytes</text>
</g>
<!-- google_protobuf__seq -->
<g id="node1" class="node">
<title>google_protobuf__seq</title>
<polygon fill="#e0ffe0" stroke="transparent" points="458,-78.47 458,-99.47 503,-99.47 503,-78.47 458,-78.47"/>
<polygon fill="none" stroke="black" points="458,-78.47 458,-99.47 503,-99.47 503,-78.47 458,-78.47"/>
<text text-anchor="start" x="468" y="-85.27" font-family="Times,serif" font-size="14.00">pos</text>
<polygon fill="#e0ffe0" stroke="transparent" points="503,-78.47 503,-99.47 544,-99.47 544,-78.47 503,-78.47"/>
<polygon fill="none" stroke="black" points="503,-78.47 503,-99.47 544,-99.47 544,-78.47 503,-78.47"/>
<text text-anchor="start" x="509.5" y="-85.27" font-family="Times,serif" font-size="14.00">size</text>
<polygon fill="#e0ffe0" stroke="transparent" points="544,-78.47 544,-99.47 586,-99.47 586,-78.47 544,-78.47"/>
<polygon fill="none" stroke="black" points="544,-78.47 544,-99.47 586,-99.47 586,-78.47 544,-78.47"/>
<text text-anchor="start" x="549" y="-85.27" font-family="Times,serif" font-size="14.00">type</text>
<polygon fill="#e0ffe0" stroke="transparent" points="586,-78.47 586,-99.47 633,-99.47 633,-78.47 586,-78.47"/>
<polygon fill="none" stroke="black" points="586,-78.47 586,-99.47 633,-99.47 633,-78.47 586,-78.47"/>
<text text-anchor="start" x="602.5" y="-85.27" font-family="Times,serif" font-size="14.00">id</text>
<polygon fill="none" stroke="black" points="458,-57.47 458,-78.47 503,-78.47 503,-57.47 458,-57.47"/>
<text text-anchor="start" x="475.5" y="-64.27" font-family="Times,serif" font-size="14.00">0</text>
<polygon fill="none" stroke="black" points="503,-57.47 503,-78.47 544,-78.47 544,-57.47 503,-57.47"/>
<text text-anchor="start" x="516.5" y="-64.27" font-family="Times,serif" font-size="14.00">...</text>
<polygon fill="none" stroke="black" points="544,-57.47 544,-78.47 586,-78.47 586,-57.47 544,-57.47"/>
<text text-anchor="start" x="550.5" y="-64.27" font-family="Times,serif" font-size="14.00">Pair</text>
<polygon fill="none" stroke="black" points="586,-57.47 586,-78.47 633,-78.47 633,-57.47 586,-57.47"/>
<text text-anchor="start" x="591" y="-64.27" font-family="Times,serif" font-size="14.00">pairs</text>
<polygon fill="none" stroke="black" points="458,-36.47 458,-57.47 633,-57.47 633,-36.47 458,-36.47"/>
<text text-anchor="start" x="461" y="-43.27" font-family="Times,serif" font-size="14.00">repeat to end of stream</text>
</g>
<!-- pair__seq -->
<g id="node2" class="node">
<title>pair__seq</title>
<polygon fill="#e0ffe0" stroke="transparent" points="881,-202.47 881,-223.47 912,-223.47 912,-202.47 881,-202.47"/>
<polygon fill="none" stroke="black" points="881,-202.47 881,-223.47 912,-223.47 912,-202.47 881,-202.47"/>
<text text-anchor="start" x="884" y="-209.27" font-family="Times,serif" font-size="14.00">pos</text>
<polygon fill="#e0ffe0" stroke="transparent" points="912,-202.47 912,-223.47 946,-223.47 946,-202.47 912,-202.47"/>
<polygon fill="none" stroke="black" points="912,-202.47 912,-223.47 946,-223.47 946,-202.47 912,-202.47"/>
<text text-anchor="start" x="915" y="-209.27" font-family="Times,serif" font-size="14.00">size</text>
<polygon fill="#e0ffe0" stroke="transparent" points="946,-202.47 946,-223.47 1084,-223.47 1084,-202.47 946,-202.47"/>
<polygon fill="none" stroke="black" points="946,-202.47 946,-223.47 1084,-223.47 1084,-202.47 946,-202.47"/>
<text text-anchor="start" x="999" y="-209.27" font-family="Times,serif" font-size="14.00">type</text>
<polygon fill="#e0ffe0" stroke="transparent" points="1084,-202.47 1084,-223.47 1129,-223.47 1129,-202.47 1084,-202.47"/>
<polygon fill="none" stroke="black" points="1084,-202.47 1084,-223.47 1129,-223.47 1129,-202.47 1084,-202.47"/>
<text text-anchor="start" x="1099.5" y="-209.27" font-family="Times,serif" font-size="14.00">id</text>
<polygon fill="none" stroke="black" points="881,-181.47 881,-202.47 912,-202.47 912,-181.47 881,-181.47"/>
<text text-anchor="start" x="891.5" y="-188.27" font-family="Times,serif" font-size="14.00">0</text>
<polygon fill="none" stroke="black" points="912,-181.47 912,-202.47 946,-202.47 946,-181.47 912,-181.47"/>
<text text-anchor="start" x="922" y="-188.27" font-family="Times,serif" font-size="14.00">...</text>
<polygon fill="none" stroke="black" points="946,-181.47 946,-202.47 1084,-202.47 1084,-181.47 946,-181.47"/>
<text text-anchor="start" x="963.5" y="-188.27" font-family="Times,serif" font-size="14.00">VlqBase128Le</text>
<polygon fill="none" stroke="black" points="1084,-181.47 1084,-202.47 1129,-202.47 1129,-181.47 1084,-181.47"/>
<text text-anchor="start" x="1094" y="-188.27" font-family="Times,serif" font-size="14.00">key</text>
<polygon fill="none" stroke="black" points="881,-160.47 881,-181.47 912,-181.47 912,-160.47 881,-160.47"/>
<text text-anchor="start" x="889.5" y="-167.27" font-family="Times,serif" font-size="14.00">...</text>
<polygon fill="none" stroke="black" points="912,-160.47 912,-181.47 946,-181.47 946,-160.47 912,-160.47"/>
<text text-anchor="start" x="922" y="-167.27" font-family="Times,serif" font-size="14.00">...</text>
<polygon fill="none" stroke="black" points="946,-160.47 946,-181.47 1084,-181.47 1084,-160.47 946,-160.47"/>
<text text-anchor="start" x="949" y="-167.27" font-family="Times,serif" font-size="14.00">switch (wire_type)</text>
<polygon fill="none" stroke="black" points="1084,-160.47 1084,-181.47 1129,-181.47 1129,-160.47 1084,-160.47"/>
<text text-anchor="start" x="1087" y="-167.27" font-family="Times,serif" font-size="14.00">value</text>
</g>
<!-- google_protobuf__seq&#45;&gt;pair__seq -->
<g id="edge1" class="edge">
<title>google_protobuf__seq:pairs_type&#45;&gt;pair__seq</title>
<path fill="none" stroke="black" stroke-width="2" d="M634,-67.47C726.22,-67.47 749.83,-80.36 837,-110.47 869.09,-121.56 902.99,-137.37 931.8,-152.15"/>
<polygon fill="black" stroke="black" stroke-width="2" points="930.47,-155.41 940.96,-156.91 933.7,-149.19 930.47,-155.41"/>
</g>
<!-- pair__seq_value_switch -->
<g id="node5" class="node">
<title>pair__seq_value_switch</title>
<polygon fill="#f0f2e4" stroke="transparent" points="1181,-168.47 1181,-189.47 1372,-189.47 1372,-168.47 1181,-168.47"/>
<polygon fill="none" stroke="black" points="1181,-168.47 1181,-189.47 1372,-189.47 1372,-168.47 1181,-168.47"/>
<text text-anchor="start" x="1260.5" y="-175.27" font-family="Times,serif" font-size="14.00">case</text>
<polygon fill="#f0f2e4" stroke="transparent" points="1372,-168.47 1372,-189.47 1489,-189.47 1489,-168.47 1372,-168.47"/>
<polygon fill="none" stroke="black" points="1372,-168.47 1372,-189.47 1489,-189.47 1489,-168.47 1372,-168.47"/>
<text text-anchor="start" x="1414.5" y="-175.27" font-family="Times,serif" font-size="14.00">type</text>
<polygon fill="none" stroke="black" points="1181,-147.47 1181,-168.47 1372,-168.47 1372,-147.47 1181,-147.47"/>
<text text-anchor="start" x="1210.5" y="-154.27" font-family="Times,serif" font-size="14.00">:wire_types_varint</text>
<polygon fill="none" stroke="black" points="1372,-147.47 1372,-168.47 1489,-168.47 1489,-147.47 1372,-147.47"/>
<text text-anchor="start" x="1379" y="-154.27" font-family="Times,serif" font-size="14.00">VlqBase128Le</text>
<polygon fill="none" stroke="black" points="1181,-126.47 1181,-147.47 1372,-147.47 1372,-126.47 1181,-126.47"/>
<text text-anchor="start" x="1184" y="-133.27" font-family="Times,serif" font-size="14.00">:wire_types_len_delimited</text>
<polygon fill="none" stroke="black" points="1372,-126.47 1372,-147.47 1489,-147.47 1489,-126.47 1372,-126.47"/>
<text text-anchor="start" x="1375" y="-133.27" font-family="Times,serif" font-size="14.00">DelimitedBytes</text>
</g>
<!-- pair__seq&#45;&gt;pair__seq_value_switch -->
<g id="edge3" class="edge">
<title>pair__seq:value_type&#45;&gt;pair__seq_value_switch</title>
<path fill="none" stroke="black" stroke-width="2" d="M1130,-170.47C1140.66,-170.47 1151.63,-170.31 1162.69,-170.02"/>
<polygon fill="black" stroke="black" stroke-width="2" points="1162.97,-173.51 1172.86,-169.71 1162.76,-166.51 1162.97,-173.51"/>
</g>
<!-- vlq_base128_le__seq -->
<g id="node7" class="node">
<title>vlq_base128_le__seq</title>
<text text-anchor="middle" x="1918.5" y="-169.77" font-family="Times,serif" font-size="14.00">vlq_base128_le__seq</text>
</g>
<!-- pair__seq&#45;&gt;vlq_base128_le__seq -->
<g id="edge2" class="edge">
<title>pair__seq:key_type&#45;&gt;vlq_base128_le__seq</title>
<path fill="none" stroke="black" stroke-width="2" d="M1130,-191.47C1149.84,-191.47 1153.34,-200.78 1173,-203.47 1319.19,-223.49 1357.54,-208.83 1505,-203.47 1616.02,-199.44 1743.5,-189.33 1827.01,-181.95"/>
<polygon fill="black" stroke="black" stroke-width="2" points="1827.32,-185.44 1836.97,-181.07 1826.7,-178.47 1827.32,-185.44"/>
</g>
<!-- pair__inst__wire_type -->
<g id="node3" class="node">
<title>pair__inst__wire_type</title>
<polygon fill="#e0ffe0" stroke="transparent" points="261,-215.47 261,-236.47 337,-236.47 337,-215.47 261,-215.47"/>
<polygon fill="none" stroke="black" points="261,-215.47 261,-236.47 337,-236.47 337,-215.47 261,-215.47"/>
<text text-anchor="start" x="292" y="-222.27" font-family="Times,serif" font-size="14.00">id</text>
<polygon fill="#e0ffe0" stroke="transparent" points="337,-215.47 337,-236.47 829,-236.47 829,-215.47 337,-215.47"/>
<polygon fill="none" stroke="black" points="337,-215.47 337,-236.47 829,-236.47 829,-215.47 337,-215.47"/>
<text text-anchor="start" x="563.5" y="-222.27" font-family="Times,serif" font-size="14.00">value</text>
<polygon fill="none" stroke="black" points="261,-194.47 261,-215.47 337,-215.47 337,-194.47 261,-194.47"/>
<text text-anchor="start" x="264" y="-201.27" font-family="Times,serif" font-size="14.00">wire_type</text>
<polygon fill="none" stroke="black" points="337,-194.47 337,-215.47 829,-215.47 829,-194.47 337,-194.47"/>
<text text-anchor="start" x="340" y="-201.27" font-family="Times,serif" font-size="14.00">Kaitai::Struct::Stream::resolve_enum(WIRE_TYPES, (key.value &amp; 7))</text>
</g>
<!-- pair__inst__wire_type&#45;&gt;pair__seq -->
<g id="edge6" class="edge">
<title>pair__inst__wire_type:wire_type_type&#45;&gt;pair__seq:value_type</title>
<path fill="none" stroke="#404040" d="M806.97,-190.38C817.18,-187.69 827.23,-184.73 837,-181.47 854.57,-175.61 855.13,-165.35 873,-160.47 969.91,-134.05 1097.9,-60.72 1106.54,-149.44"/>
<polygon fill="#404040" stroke="#404040" points="1103.04,-149.64 1107,-159.47 1110.04,-149.32 1103.04,-149.64"/>
</g>
<!-- pair__inst__field_tag -->
<g id="node4" class="node">
<title>pair__inst__field_tag</title>
<polygon fill="#e0ffe0" stroke="transparent" points="450,-147.47 450,-168.47 517,-168.47 517,-147.47 450,-147.47"/>
<polygon fill="none" stroke="black" points="450,-147.47 450,-168.47 517,-168.47 517,-147.47 450,-147.47"/>
<text text-anchor="start" x="476.5" y="-154.27" font-family="Times,serif" font-size="14.00">id</text>
<polygon fill="#e0ffe0" stroke="transparent" points="517,-147.47 517,-168.47 641,-168.47 641,-147.47 517,-147.47"/>
<polygon fill="none" stroke="black" points="517,-147.47 517,-168.47 641,-168.47 641,-147.47 517,-147.47"/>
<text text-anchor="start" x="559.5" y="-154.27" font-family="Times,serif" font-size="14.00">value</text>
<polygon fill="none" stroke="black" points="450,-126.47 450,-147.47 517,-147.47 517,-126.47 450,-126.47"/>
<text text-anchor="start" x="453" y="-133.27" font-family="Times,serif" font-size="14.00">field_tag</text>
<polygon fill="none" stroke="black" points="517,-126.47 517,-147.47 641,-147.47 641,-126.47 517,-126.47"/>
<text text-anchor="start" x="520" y="-133.27" font-family="Times,serif" font-size="14.00">(key.value &gt;&gt; 3)</text>
</g>
<!-- delimited_bytes__seq -->
<g id="node6" class="node">
<title>delimited_bytes__seq</title>
<polygon fill="#e0ffe0" stroke="transparent" points="1541,-98.47 1541,-119.47 1572,-119.47 1572,-98.47 1541,-98.47"/>
<polygon fill="none" stroke="black" points="1541,-98.47 1541,-119.47 1572,-119.47 1572,-98.47 1541,-98.47"/>
<text text-anchor="start" x="1544" y="-105.27" font-family="Times,serif" font-size="14.00">pos</text>
<polygon fill="#e0ffe0" stroke="transparent" points="1572,-98.47 1572,-119.47 1643,-119.47 1643,-98.47 1572,-98.47"/>
<polygon fill="none" stroke="black" points="1572,-98.47 1572,-119.47 1643,-119.47 1643,-98.47 1572,-98.47"/>
<text text-anchor="start" x="1593.5" y="-105.27" font-family="Times,serif" font-size="14.00">size</text>
<polygon fill="#e0ffe0" stroke="transparent" points="1643,-98.47 1643,-119.47 1752,-119.47 1752,-98.47 1643,-98.47"/>
<polygon fill="none" stroke="black" points="1643,-98.47 1643,-119.47 1752,-119.47 1752,-98.47 1643,-98.47"/>
<text text-anchor="start" x="1681.5" y="-105.27" font-family="Times,serif" font-size="14.00">type</text>
<polygon fill="#e0ffe0" stroke="transparent" points="1752,-98.47 1752,-119.47 1793,-119.47 1793,-98.47 1752,-98.47"/>
<polygon fill="none" stroke="black" points="1752,-98.47 1752,-119.47 1793,-119.47 1793,-98.47 1752,-98.47"/>
<text text-anchor="start" x="1765.5" y="-105.27" font-family="Times,serif" font-size="14.00">id</text>
<polygon fill="none" stroke="black" points="1541,-77.47 1541,-98.47 1572,-98.47 1572,-77.47 1541,-77.47"/>
<text text-anchor="start" x="1551.5" y="-84.27" font-family="Times,serif" font-size="14.00">0</text>
<polygon fill="none" stroke="black" points="1572,-77.47 1572,-98.47 1643,-98.47 1643,-77.47 1572,-77.47"/>
<text text-anchor="start" x="1600.5" y="-84.27" font-family="Times,serif" font-size="14.00">...</text>
<polygon fill="none" stroke="black" points="1643,-77.47 1643,-98.47 1752,-98.47 1752,-77.47 1643,-77.47"/>
<text text-anchor="start" x="1646" y="-84.27" font-family="Times,serif" font-size="14.00">VlqBase128Le</text>
<polygon fill="none" stroke="black" points="1752,-77.47 1752,-98.47 1793,-98.47 1793,-77.47 1752,-77.47"/>
<text text-anchor="start" x="1761.5" y="-84.27" font-family="Times,serif" font-size="14.00">len</text>
<polygon fill="none" stroke="black" points="1541,-56.47 1541,-77.47 1572,-77.47 1572,-56.47 1541,-56.47"/>
<text text-anchor="start" x="1549.5" y="-63.27" font-family="Times,serif" font-size="14.00">...</text>
<polygon fill="none" stroke="black" points="1572,-56.47 1572,-77.47 1643,-77.47 1643,-56.47 1572,-56.47"/>
<text text-anchor="start" x="1575" y="-63.27" font-family="Times,serif" font-size="14.00">len.value</text>
<polygon fill="none" stroke="black" points="1643,-56.47 1643,-77.47 1752,-77.47 1752,-56.47 1643,-56.47"/>
<polygon fill="none" stroke="black" points="1752,-56.47 1752,-77.47 1793,-77.47 1793,-56.47 1752,-56.47"/>
<text text-anchor="start" x="1755" y="-63.27" font-family="Times,serif" font-size="14.00">body</text>
</g>
<!-- pair__seq_value_switch&#45;&gt;delimited_bytes__seq -->
<g id="edge5" class="edge">
<title>pair__seq_value_switch:case1&#45;&gt;delimited_bytes__seq</title>
<path fill="none" stroke="black" stroke-width="2" d="M1490,-136.47C1513.69,-136.47 1538.57,-132.37 1561.91,-126.57"/>
<polygon fill="black" stroke="black" stroke-width="2" points="1563.03,-129.9 1571.82,-123.99 1561.26,-123.12 1563.03,-129.9"/>
</g>
<!-- pair__seq_value_switch&#45;&gt;vlq_base128_le__seq -->
<g id="edge4" class="edge">
<title>pair__seq_value_switch:case0&#45;&gt;vlq_base128_le__seq</title>
<path fill="none" stroke="black" stroke-width="2" d="M1490,-157.47C1505.58,-157.47 1509.44,-158.75 1525,-159.47 1628.16,-164.26 1746.63,-168.28 1826.19,-170.77"/>
<polygon fill="black" stroke="black" stroke-width="2" points="1826.57,-174.28 1836.67,-171.1 1826.78,-167.29 1826.57,-174.28"/>
</g>
<!-- delimited_bytes__seq&#45;&gt;vlq_base128_le__seq -->
<g id="edge9" class="edge">
<title>delimited_bytes__seq:len_type&#45;&gt;vlq_base128_le__seq</title>
<path fill="none" stroke="black" stroke-width="2" d="M1794,-87.47C1836.44,-87.47 1874.74,-122.09 1897.07,-147.4"/>
<polygon fill="black" stroke="black" stroke-width="2" points="1894.59,-149.89 1903.74,-155.23 1899.92,-145.35 1894.59,-149.89"/>
</g>
<!-- vlq_base128_le__inst__value -->
<g id="node8" class="node">
<title>vlq_base128_le__inst__value</title>
<text text-anchor="middle" x="108.5" y="-143.77" font-family="Times,serif" font-size="14.00">vlq_base128_le__inst__value</text>
</g>
<!-- vlq_base128_le__inst__value&#45;&gt;pair__inst__wire_type -->
<g id="edge7" class="edge">
<title>vlq_base128_le__inst__value:value_type&#45;&gt;pair__inst__wire_type</title>
<path fill="none" stroke="#404040" d="M169.71,-165.52C190.83,-171.32 214.82,-177.31 237,-181.47 251.13,-184.12 265.67,-186.59 280.38,-188.89"/>
<polygon fill="#404040" stroke="#404040" points="280.17,-192.4 290.58,-190.45 281.23,-185.48 280.17,-192.4"/>
</g>
<!-- vlq_base128_le__inst__value&#45;&gt;pair__inst__field_tag -->
<g id="edge8" class="edge">
<title>vlq_base128_le__inst__value:value_type&#45;&gt;pair__inst__field_tag</title>
<path fill="none" stroke="#404040" d="M217.18,-147.47C282.32,-147.47 365.27,-147.47 431.29,-147.47"/>
<polygon fill="#404040" stroke="#404040" points="431.32,-150.97 441.32,-147.47 431.32,-143.97 431.32,-150.97"/>
</g>
<!-- vlq_base128_le__inst__value&#45;&gt;delimited_bytes__seq -->
<g id="edge10" class="edge">
<title>vlq_base128_le__inst__value:value_type&#45;&gt;delimited_bytes__seq:body_size</title>
<path fill="none" stroke="#404040" d="M120.84,-129.16C140.32,-99.65 183.29,-42.66 237,-20.47 365.86,32.76 1479.91,-34.23 1597.05,-52.84"/>
<polygon fill="#404040" stroke="#404040" points="1596.44,-56.3 1607,-55.47 1598.23,-49.53 1596.44,-56.3"/>
</g>
</g>
</svg>
