<?xml version="1.0" encoding="UTF-8" standalone="no"?>
<!DOCTYPE svg PUBLIC "-//W3C//DTD SVG 1.1//EN"
 "http://www.w3.org/Graphics/SVG/1.1/DTD/svg11.dtd">
<!-- Generated by graphviz version 2.43.0 (0)
 -->
<!-- Title: %3 Pages: 1 -->
<svg width="2101pt" height="467pt"
 viewBox="0.00 0.00 2101.00 467.00" xmlns="http://www.w3.org/2000/svg" xmlns:xlink="http://www.w3.org/1999/xlink">
<g id="graph0" class="graph" transform="scale(1 1) rotate(0) translate(4 463)">
<title>%3</title>
<polygon fill="white" stroke="transparent" points="-4,4 -4,-463 2097,-463 2097,4 -4,4"/>
<g id="clust1" class="cluster">
<title>cluster__gzip</title>
<polygon fill="none" stroke="black" stroke-dasharray="1,5" points="8,-8 8,-451 2085,-451 2085,-8 8,-8"/>
<text text-anchor="middle" x="1046.5" y="-435.8" font-family="Times,serif" font-size="14.00">Gzip</text>
</g>
<g id="clust2" class="cluster">
<title>cluster__extra_flags_deflate</title>
<polygon fill="none" stroke="black" stroke-dasharray="1,5" points="1359,-277 1359,-366 1822,-366 1822,-277 1359,-277"/>
<text text-anchor="middle" x="1590.5" y="-350.8" font-family="Times,serif" font-size="14.00">Gzip::ExtraFlagsDeflate</text>
</g>
<g id="clust3" class="cluster">
<title>cluster__extras</title>
<polygon fill="none" stroke="black" stroke-dasharray="1,5" points="975.5,-159 975.5,-288 1309.5,-288 1309.5,-159 975.5,-159"/>
<text text-anchor="middle" x="1142.5" y="-272.8" font-family="Times,serif" font-size="14.00">Gzip::Extras</text>
</g>
<g id="clust4" class="cluster">
<title>cluster__flags</title>
<polygon fill="none" stroke="black" stroke-dasharray="1,5" points="16,-92 16,-287 313,-287 313,-92 16,-92"/>
<text text-anchor="middle" x="164.5" y="-271.8" font-family="Times,serif" font-size="14.00">Gzip::Flags</text>
</g>
<g id="clust5" class="cluster">
<title>cluster__subfield</title>
<polygon fill="none" stroke="black" stroke-dasharray="1,5" points="1842,-126 1842,-275 2077,-275 2077,-126 1842,-126"/>
<text text-anchor="middle" x="1959.5" y="-259.8" font-family="Times,serif" font-size="14.00">Gzip::Subfield</text>
</g>
<g id="clust6" class="cluster">
<title>cluster__subfields</title>
<polygon fill="none" stroke="black" stroke-dasharray="1,5" points="1481,-137 1481,-248 1700,-248 1700,-137 1481,-137"/>
<text text-anchor="middle" x="1590.5" y="-232.8" font-family="Times,serif" font-size="14.00">Gzip::Subfields</text>
</g>
<!-- gzip__seq -->
<g id="node1" class="node">
<title>gzip__seq</title>
<polygon fill="#e0ffe0" stroke="transparent" points="349.5,-377 349.5,-398 380.5,-398 380.5,-377 349.5,-377"/>
<polygon fill="none" stroke="black" points="349.5,-377 349.5,-398 380.5,-398 380.5,-377 349.5,-377"/>
<text text-anchor="start" x="352.5" y="-383.8" font-family="Times,serif" font-size="14.00">pos</text>
<polygon fill="#e0ffe0" stroke="transparent" points="380.5,-377 380.5,-398 534.5,-398 534.5,-377 380.5,-377"/>
<polygon fill="none" stroke="black" points="380.5,-377 380.5,-398 534.5,-398 534.5,-377 380.5,-377"/>
<text text-anchor="start" x="443.5" y="-383.8" font-family="Times,serif" font-size="14.00">size</text>
<polygon fill="#e0ffe0" stroke="transparent" points="534.5,-377 534.5,-398 753.5,-398 753.5,-377 534.5,-377"/>
<polygon fill="none" stroke="black" points="534.5,-377 534.5,-398 753.5,-398 753.5,-377 534.5,-377"/>
<text text-anchor="start" x="628" y="-383.8" font-family="Times,serif" font-size="14.00">type</text>
<polygon fill="#e0ffe0" stroke="transparent" points="753.5,-377 753.5,-398 910.5,-398 910.5,-377 753.5,-377"/>
<polygon fill="none" stroke="black" points="753.5,-377 753.5,-398 910.5,-398 910.5,-377 753.5,-377"/>
<text text-anchor="start" x="825" y="-383.8" font-family="Times,serif" font-size="14.00">id</text>
<polygon fill="none" stroke="black" points="349.5,-356 349.5,-377 380.5,-377 380.5,-356 349.5,-356"/>
<text text-anchor="start" x="360" y="-362.8" font-family="Times,serif" font-size="14.00">0</text>
<polygon fill="none" stroke="black" points="380.5,-356 380.5,-377 534.5,-377 534.5,-356 380.5,-356"/>
<text text-anchor="start" x="452.5" y="-362.8" font-family="Times,serif" font-size="14.00">2</text>
<polygon fill="none" stroke="black" points="534.5,-356 534.5,-377 753.5,-377 753.5,-356 534.5,-356"/>
<text text-anchor="start" x="622.5" y="-362.8" font-family="Times,serif" font-size="14.00">1F 8B</text>
<polygon fill="none" stroke="black" points="753.5,-356 753.5,-377 910.5,-377 910.5,-356 753.5,-356"/>
<text text-anchor="start" x="810.5" y="-362.8" font-family="Times,serif" font-size="14.00">magic</text>
<polygon fill="none" stroke="black" points="349.5,-335 349.5,-356 380.5,-356 380.5,-335 349.5,-335"/>
<text text-anchor="start" x="360" y="-341.8" font-family="Times,serif" font-size="14.00">2</text>
<polygon fill="none" stroke="black" points="380.5,-335 380.5,-356 534.5,-356 534.5,-335 380.5,-335"/>
<text text-anchor="start" x="452.5" y="-341.8" font-family="Times,serif" font-size="14.00">1</text>
<polygon fill="none" stroke="black" points="534.5,-335 534.5,-356 753.5,-356 753.5,-335 534.5,-335"/>
<text text-anchor="start" x="551" y="-341.8" font-family="Times,serif" font-size="14.00">u1→CompressionMethods</text>
<polygon fill="none" stroke="black" points="753.5,-335 753.5,-356 910.5,-356 910.5,-335 753.5,-335"/>
<text text-anchor="start" x="756.5" y="-341.8" font-family="Times,serif" font-size="14.00">compression_method</text>
<polygon fill="none" stroke="black" points="349.5,-314 349.5,-335 380.5,-335 380.5,-314 349.5,-314"/>
<text text-anchor="start" x="360" y="-320.8" font-family="Times,serif" font-size="14.00">3</text>
<polygon fill="none" stroke="black" points="380.5,-314 380.5,-335 534.5,-335 534.5,-314 380.5,-314"/>
<text text-anchor="start" x="452.5" y="-320.8" font-family="Times,serif" font-size="14.00">1</text>
<polygon fill="none" stroke="black" points="534.5,-314 534.5,-335 753.5,-335 753.5,-314 534.5,-314"/>
<text text-anchor="start" x="624" y="-320.8" font-family="Times,serif" font-size="14.00">Flags</text>
<polygon fill="none" stroke="black" points="753.5,-314 753.5,-335 910.5,-335 910.5,-314 753.5,-314"/>
<text text-anchor="start" x="815" y="-320.8" font-family="Times,serif" font-size="14.00">flags</text>
<polygon fill="none" stroke="black" points="349.5,-293 349.5,-314 380.5,-314 380.5,-293 349.5,-293"/>
<text text-anchor="start" x="360" y="-299.8" font-family="Times,serif" font-size="14.00">4</text>
<polygon fill="none" stroke="black" points="380.5,-293 380.5,-314 534.5,-314 534.5,-293 380.5,-293"/>
<text text-anchor="start" x="452.5" y="-299.8" font-family="Times,serif" font-size="14.00">4</text>
<polygon fill="none" stroke="black" points="534.5,-293 534.5,-314 753.5,-314 753.5,-293 534.5,-293"/>
<text text-anchor="start" x="628.5" y="-299.8" font-family="Times,serif" font-size="14.00">u4le</text>
<polygon fill="none" stroke="black" points="753.5,-293 753.5,-314 910.5,-314 910.5,-293 753.5,-293"/>
<text text-anchor="start" x="797" y="-299.8" font-family="Times,serif" font-size="14.00">mod_time</text>
<polygon fill="none" stroke="black" points="349.5,-272 349.5,-293 380.5,-293 380.5,-272 349.5,-272"/>
<text text-anchor="start" x="360" y="-278.8" font-family="Times,serif" font-size="14.00">8</text>
<polygon fill="none" stroke="black" points="380.5,-272 380.5,-293 534.5,-293 534.5,-272 380.5,-272"/>
<text text-anchor="start" x="450.5" y="-278.8" font-family="Times,serif" font-size="14.00">...</text>
<polygon fill="none" stroke="black" points="534.5,-272 534.5,-293 753.5,-293 753.5,-272 534.5,-272"/>
<text text-anchor="start" x="537.5" y="-278.8" font-family="Times,serif" font-size="14.00">switch (compression_method)</text>
<polygon fill="none" stroke="black" points="753.5,-272 753.5,-293 910.5,-293 910.5,-272 753.5,-272"/>
<text text-anchor="start" x="792.5" y="-278.8" font-family="Times,serif" font-size="14.00">extra_flags</text>
<polygon fill="none" stroke="black" points="349.5,-251 349.5,-272 380.5,-272 380.5,-251 349.5,-251"/>
<text text-anchor="start" x="358" y="-257.8" font-family="Times,serif" font-size="14.00">...</text>
<polygon fill="none" stroke="black" points="380.5,-251 380.5,-272 534.5,-272 534.5,-251 380.5,-251"/>
<text text-anchor="start" x="452.5" y="-257.8" font-family="Times,serif" font-size="14.00">1</text>
<polygon fill="none" stroke="black" points="534.5,-251 534.5,-272 753.5,-272 753.5,-251 534.5,-251"/>
<text text-anchor="start" x="611.5" y="-257.8" font-family="Times,serif" font-size="14.00">u1→Oses</text>
<polygon fill="none" stroke="black" points="753.5,-251 753.5,-272 910.5,-272 910.5,-251 753.5,-251"/>
<text text-anchor="start" x="824" y="-257.8" font-family="Times,serif" font-size="14.00">os</text>
<polygon fill="none" stroke="black" points="349.5,-230 349.5,-251 380.5,-251 380.5,-230 349.5,-230"/>
<text text-anchor="start" x="358" y="-236.8" font-family="Times,serif" font-size="14.00">...</text>
<polygon fill="none" stroke="black" points="380.5,-230 380.5,-251 534.5,-251 534.5,-230 380.5,-230"/>
<text text-anchor="start" x="450.5" y="-236.8" font-family="Times,serif" font-size="14.00">...</text>
<polygon fill="none" stroke="black" points="534.5,-230 534.5,-251 753.5,-251 753.5,-230 534.5,-230"/>
<text text-anchor="start" x="620" y="-236.8" font-family="Times,serif" font-size="14.00">Extras</text>
<polygon fill="none" stroke="black" points="753.5,-230 753.5,-251 910.5,-251 910.5,-230 753.5,-230"/>
<text text-anchor="start" x="809" y="-236.8" font-family="Times,serif" font-size="14.00">extras</text>
<polygon fill="none" stroke="black" points="349.5,-209 349.5,-230 910.5,-230 910.5,-209 349.5,-209"/>
<text text-anchor="start" x="569" y="-215.8" font-family="Times,serif" font-size="14.00">if flags.has_extra</text>
<polygon fill="none" stroke="black" points="349.5,-188 349.5,-209 380.5,-209 380.5,-188 349.5,-188"/>
<text text-anchor="start" x="358" y="-194.8" font-family="Times,serif" font-size="14.00">...</text>
<polygon fill="none" stroke="black" points="380.5,-188 380.5,-209 534.5,-209 534.5,-188 380.5,-188"/>
<text text-anchor="start" x="450.5" y="-194.8" font-family="Times,serif" font-size="14.00">...</text>
<polygon fill="none" stroke="black" points="534.5,-188 534.5,-209 753.5,-209 753.5,-188 534.5,-188"/>
<text text-anchor="start" x="616" y="-194.8" font-family="Times,serif" font-size="14.00">term=0</text>
<polygon fill="none" stroke="black" points="753.5,-188 753.5,-209 910.5,-209 910.5,-188 753.5,-188"/>
<text text-anchor="start" x="812" y="-194.8" font-family="Times,serif" font-size="14.00">name</text>
<polygon fill="none" stroke="black" points="349.5,-167 349.5,-188 910.5,-188 910.5,-167 349.5,-167"/>
<text text-anchor="start" x="568" y="-173.8" font-family="Times,serif" font-size="14.00">if flags.has_name</text>
<polygon fill="none" stroke="black" points="349.5,-146 349.5,-167 380.5,-167 380.5,-146 349.5,-146"/>
<text text-anchor="start" x="358" y="-152.8" font-family="Times,serif" font-size="14.00">...</text>
<polygon fill="none" stroke="black" points="380.5,-146 380.5,-167 534.5,-167 534.5,-146 380.5,-146"/>
<text text-anchor="start" x="450.5" y="-152.8" font-family="Times,serif" font-size="14.00">...</text>
<polygon fill="none" stroke="black" points="534.5,-146 534.5,-167 753.5,-167 753.5,-146 534.5,-146"/>
<text text-anchor="start" x="616" y="-152.8" font-family="Times,serif" font-size="14.00">term=0</text>
<polygon fill="none" stroke="black" points="753.5,-146 753.5,-167 910.5,-167 910.5,-146 753.5,-146"/>
<text text-anchor="start" x="798.5" y="-152.8" font-family="Times,serif" font-size="14.00">comment</text>
<polygon fill="none" stroke="black" points="349.5,-125 349.5,-146 910.5,-146 910.5,-125 349.5,-125"/>
<text text-anchor="start" x="554.5" y="-131.8" font-family="Times,serif" font-size="14.00">if flags.has_comment</text>
<polygon fill="none" stroke="black" points="349.5,-104 349.5,-125 380.5,-125 380.5,-104 349.5,-104"/>
<text text-anchor="start" x="358" y="-110.8" font-family="Times,serif" font-size="14.00">...</text>
<polygon fill="none" stroke="black" points="380.5,-104 380.5,-125 534.5,-125 534.5,-104 380.5,-104"/>
<text text-anchor="start" x="452.5" y="-110.8" font-family="Times,serif" font-size="14.00">2</text>
<polygon fill="none" stroke="black" points="534.5,-104 534.5,-125 753.5,-125 753.5,-104 534.5,-104"/>
<text text-anchor="start" x="628.5" y="-110.8" font-family="Times,serif" font-size="14.00">u2le</text>
<polygon fill="none" stroke="black" points="753.5,-104 753.5,-125 910.5,-125 910.5,-104 753.5,-104"/>
<text text-anchor="start" x="783.5" y="-110.8" font-family="Times,serif" font-size="14.00">header_crc16</text>
<polygon fill="none" stroke="black" points="349.5,-83 349.5,-104 910.5,-104 910.5,-83 349.5,-83"/>
<text text-anchor="start" x="548.5" y="-89.8" font-family="Times,serif" font-size="14.00">if flags.has_header_crc</text>
<polygon fill="none" stroke="black" points="349.5,-62 349.5,-83 380.5,-83 380.5,-62 349.5,-62"/>
<text text-anchor="start" x="358" y="-68.8" font-family="Times,serif" font-size="14.00">...</text>
<polygon fill="none" stroke="black" points="380.5,-62 380.5,-83 534.5,-83 534.5,-62 380.5,-62"/>
<text text-anchor="start" x="383.5" y="-68.8" font-family="Times,serif" font-size="14.00">(_io.size &#45; _io.pos) &#45; 8</text>
<polygon fill="none" stroke="black" points="534.5,-62 534.5,-83 753.5,-83 753.5,-62 534.5,-62"/>
<polygon fill="none" stroke="black" points="753.5,-62 753.5,-83 910.5,-83 910.5,-62 753.5,-62"/>
<text text-anchor="start" x="814.5" y="-68.8" font-family="Times,serif" font-size="14.00">body</text>
<polygon fill="none" stroke="black" points="349.5,-41 349.5,-62 380.5,-62 380.5,-41 349.5,-41"/>
<text text-anchor="start" x="358" y="-47.8" font-family="Times,serif" font-size="14.00">...</text>
<polygon fill="none" stroke="black" points="380.5,-41 380.5,-62 534.5,-62 534.5,-41 380.5,-41"/>
<text text-anchor="start" x="452.5" y="-47.8" font-family="Times,serif" font-size="14.00">4</text>
<polygon fill="none" stroke="black" points="534.5,-41 534.5,-62 753.5,-62 753.5,-41 534.5,-41"/>
<text text-anchor="start" x="628.5" y="-47.8" font-family="Times,serif" font-size="14.00">u4le</text>
<polygon fill="none" stroke="black" points="753.5,-41 753.5,-62 910.5,-62 910.5,-41 753.5,-41"/>
<text text-anchor="start" x="791" y="-47.8" font-family="Times,serif" font-size="14.00">body_crc32</text>
<polygon fill="none" stroke="black" points="349.5,-20 349.5,-41 380.5,-41 380.5,-20 349.5,-20"/>
<text text-anchor="start" x="358" y="-26.8" font-family="Times,serif" font-size="14.00">...</text>
<polygon fill="none" stroke="black" points="380.5,-20 380.5,-41 534.5,-41 534.5,-20 380.5,-20"/>
<text text-anchor="start" x="452.5" y="-26.8" font-family="Times,serif" font-size="14.00">4</text>
<polygon fill="none" stroke="black" points="534.5,-20 534.5,-41 753.5,-41 753.5,-20 534.5,-20"/>
<text text-anchor="start" x="628.5" y="-26.8" font-family="Times,serif" font-size="14.00">u4le</text>
<polygon fill="none" stroke="black" points="753.5,-20 753.5,-41 910.5,-41 910.5,-20 753.5,-20"/>
<text text-anchor="start" x="765.5" y="-26.8" font-family="Times,serif" font-size="14.00">len_uncompressed</text>
</g>
<!-- gzip__seq&#45;&gt;gzip__seq -->
<g id="edge4" class="edge">
<title>gzip__seq:compression_method_type&#45;&gt;gzip__seq:extra_flags_type</title>
<path fill="none" stroke="#404040" d="M813.91,-356.06C716.87,-409.32 723.07,-420 832.5,-420 939.71,-420 947.83,-363.05 856.86,-298.89"/>
<polygon fill="#404040" stroke="#404040" points="858.58,-295.83 848.36,-293.06 854.63,-301.6 858.58,-295.83"/>
</g>
<!-- gzip__seq_extra_flags_switch -->
<g id="node2" class="node">
<title>gzip__seq_extra_flags_switch</title>
<polygon fill="#f0f2e4" stroke="transparent" points="962.5,-321 962.5,-342 1187.5,-342 1187.5,-321 962.5,-321"/>
<polygon fill="none" stroke="black" points="962.5,-321 962.5,-342 1187.5,-342 1187.5,-321 962.5,-321"/>
<text text-anchor="start" x="1059" y="-327.8" font-family="Times,serif" font-size="14.00">case</text>
<polygon fill="#f0f2e4" stroke="transparent" points="1187.5,-321 1187.5,-342 1323.5,-342 1323.5,-321 1187.5,-321"/>
<polygon fill="none" stroke="black" points="1187.5,-321 1187.5,-342 1323.5,-342 1323.5,-321 1187.5,-321"/>
<text text-anchor="start" x="1239.5" y="-327.8" font-family="Times,serif" font-size="14.00">type</text>
<polygon fill="none" stroke="black" points="962.5,-300 962.5,-321 1187.5,-321 1187.5,-300 962.5,-300"/>
<text text-anchor="start" x="965.5" y="-306.8" font-family="Times,serif" font-size="14.00">:compression_methods_deflate</text>
<polygon fill="none" stroke="black" points="1187.5,-300 1187.5,-321 1323.5,-321 1323.5,-300 1187.5,-300"/>
<text text-anchor="start" x="1190.5" y="-306.8" font-family="Times,serif" font-size="14.00">ExtraFlagsDeflate</text>
</g>
<!-- gzip__seq&#45;&gt;gzip__seq_extra_flags_switch -->
<g id="edge2" class="edge">
<title>gzip__seq:extra_flags_type&#45;&gt;gzip__seq_extra_flags_switch</title>
<path fill="none" stroke="black" stroke-width="2" d="M911.5,-283C930.81,-283 935.01,-288.52 954,-292 957.99,-292.73 962.02,-293.46 966.1,-294.18"/>
<polygon fill="black" stroke="black" stroke-width="2" points="965.83,-297.69 976.29,-295.96 967.04,-290.79 965.83,-297.69"/>
</g>
<!-- extras__seq -->
<g id="node4" class="node">
<title>extras__seq</title>
<polygon fill="#e0ffe0" stroke="transparent" points="991.5,-213 991.5,-234 1022.5,-234 1022.5,-213 991.5,-213"/>
<polygon fill="none" stroke="black" points="991.5,-213 991.5,-234 1022.5,-234 1022.5,-213 991.5,-213"/>
<text text-anchor="start" x="994.5" y="-219.8" font-family="Times,serif" font-size="14.00">pos</text>
<polygon fill="#e0ffe0" stroke="transparent" points="1022.5,-213 1022.5,-234 1121.5,-234 1121.5,-213 1022.5,-213"/>
<polygon fill="none" stroke="black" points="1022.5,-213 1022.5,-234 1121.5,-234 1121.5,-213 1022.5,-213"/>
<text text-anchor="start" x="1058" y="-219.8" font-family="Times,serif" font-size="14.00">size</text>
<polygon fill="#e0ffe0" stroke="transparent" points="1121.5,-213 1121.5,-234 1194.5,-234 1194.5,-213 1121.5,-213"/>
<polygon fill="none" stroke="black" points="1121.5,-213 1121.5,-234 1194.5,-234 1194.5,-213 1121.5,-213"/>
<text text-anchor="start" x="1142" y="-219.8" font-family="Times,serif" font-size="14.00">type</text>
<polygon fill="#e0ffe0" stroke="transparent" points="1194.5,-213 1194.5,-234 1293.5,-234 1293.5,-213 1194.5,-213"/>
<polygon fill="none" stroke="black" points="1194.5,-213 1194.5,-234 1293.5,-234 1293.5,-213 1194.5,-213"/>
<text text-anchor="start" x="1237" y="-219.8" font-family="Times,serif" font-size="14.00">id</text>
<polygon fill="none" stroke="black" points="991.5,-192 991.5,-213 1022.5,-213 1022.5,-192 991.5,-192"/>
<text text-anchor="start" x="1002" y="-198.8" font-family="Times,serif" font-size="14.00">0</text>
<polygon fill="none" stroke="black" points="1022.5,-192 1022.5,-213 1121.5,-213 1121.5,-192 1022.5,-192"/>
<text text-anchor="start" x="1067" y="-198.8" font-family="Times,serif" font-size="14.00">2</text>
<polygon fill="none" stroke="black" points="1121.5,-192 1121.5,-213 1194.5,-213 1194.5,-192 1121.5,-192"/>
<text text-anchor="start" x="1142.5" y="-198.8" font-family="Times,serif" font-size="14.00">u2le</text>
<polygon fill="none" stroke="black" points="1194.5,-192 1194.5,-213 1293.5,-213 1293.5,-192 1194.5,-192"/>
<text text-anchor="start" x="1197.5" y="-198.8" font-family="Times,serif" font-size="14.00">len_subfields</text>
<polygon fill="none" stroke="black" points="991.5,-171 991.5,-192 1022.5,-192 1022.5,-171 991.5,-171"/>
<text text-anchor="start" x="1002" y="-177.8" font-family="Times,serif" font-size="14.00">2</text>
<polygon fill="none" stroke="black" points="1022.5,-171 1022.5,-192 1121.5,-192 1121.5,-171 1022.5,-171"/>
<text text-anchor="start" x="1025.5" y="-177.8" font-family="Times,serif" font-size="14.00">len_subfields</text>
<polygon fill="none" stroke="black" points="1121.5,-171 1121.5,-192 1194.5,-192 1194.5,-171 1121.5,-171"/>
<text text-anchor="start" x="1124.5" y="-177.8" font-family="Times,serif" font-size="14.00">Subfields</text>
<polygon fill="none" stroke="black" points="1194.5,-171 1194.5,-192 1293.5,-192 1293.5,-171 1194.5,-171"/>
<text text-anchor="start" x="1212" y="-177.8" font-family="Times,serif" font-size="14.00">subfields</text>
</g>
<!-- gzip__seq&#45;&gt;extras__seq -->
<g id="edge5" class="edge">
<title>gzip__seq:extras_type&#45;&gt;extras__seq</title>
<path fill="none" stroke="black" stroke-width="2" d="M911.5,-241C931.59,-241 952.53,-239.57 973.24,-237.27"/>
<polygon fill="black" stroke="black" stroke-width="2" points="973.86,-240.72 983.38,-236.07 973.04,-233.77 973.86,-240.72"/>
</g>
<!-- flags__seq -->
<g id="node5" class="node">
<title>flags__seq</title>
<polygon fill="#e0ffe0" stroke="transparent" points="32.5,-230 32.5,-251 63.5,-251 63.5,-230 32.5,-230"/>
<polygon fill="none" stroke="black" points="32.5,-230 32.5,-251 63.5,-251 63.5,-230 32.5,-230"/>
<text text-anchor="start" x="35.5" y="-236.8" font-family="Times,serif" font-size="14.00">pos</text>
<polygon fill="#e0ffe0" stroke="transparent" points="63.5,-230 63.5,-251 97.5,-251 97.5,-230 63.5,-230"/>
<polygon fill="none" stroke="black" points="63.5,-230 63.5,-251 97.5,-251 97.5,-230 63.5,-230"/>
<text text-anchor="start" x="66.5" y="-236.8" font-family="Times,serif" font-size="14.00">size</text>
<polygon fill="#e0ffe0" stroke="transparent" points="97.5,-230 97.5,-251 181.5,-251 181.5,-230 97.5,-230"/>
<polygon fill="none" stroke="black" points="97.5,-230 97.5,-251 181.5,-251 181.5,-230 97.5,-230"/>
<text text-anchor="start" x="123.5" y="-236.8" font-family="Times,serif" font-size="14.00">type</text>
<polygon fill="#e0ffe0" stroke="transparent" points="181.5,-230 181.5,-251 297.5,-251 297.5,-230 181.5,-230"/>
<polygon fill="none" stroke="black" points="181.5,-230 181.5,-251 297.5,-251 297.5,-230 181.5,-230"/>
<text text-anchor="start" x="232.5" y="-236.8" font-family="Times,serif" font-size="14.00">id</text>
<polygon fill="none" stroke="black" points="32.5,-209 32.5,-230 63.5,-230 63.5,-209 32.5,-209"/>
<text text-anchor="start" x="43" y="-215.8" font-family="Times,serif" font-size="14.00">0</text>
<polygon fill="none" stroke="black" points="63.5,-209 63.5,-230 97.5,-230 97.5,-209 63.5,-209"/>
<text text-anchor="start" x="71" y="-215.8" font-family="Times,serif" font-size="14.00">3b</text>
<polygon fill="none" stroke="black" points="97.5,-209 97.5,-230 181.5,-230 181.5,-209 97.5,-209"/>
<text text-anchor="start" x="121.5" y="-215.8" font-family="Times,serif" font-size="14.00">b3be</text>
<polygon fill="none" stroke="black" points="181.5,-209 181.5,-230 297.5,-230 297.5,-209 181.5,-209"/>
<text text-anchor="start" x="203" y="-215.8" font-family="Times,serif" font-size="14.00">reserved1</text>
<polygon fill="none" stroke="black" points="32.5,-188 32.5,-209 63.5,-209 63.5,-188 32.5,-188"/>
<text text-anchor="start" x="36.5" y="-194.8" font-family="Times,serif" font-size="14.00">0:3</text>
<polygon fill="none" stroke="black" points="63.5,-188 63.5,-209 97.5,-209 97.5,-188 63.5,-188"/>
<text text-anchor="start" x="71" y="-194.8" font-family="Times,serif" font-size="14.00">1b</text>
<polygon fill="none" stroke="black" points="97.5,-188 97.5,-209 181.5,-209 181.5,-188 97.5,-188"/>
<text text-anchor="start" x="100.5" y="-194.8" font-family="Times,serif" font-size="14.00">b1be→bool</text>
<polygon fill="none" stroke="black" points="181.5,-188 181.5,-209 297.5,-209 297.5,-188 181.5,-188"/>
<text text-anchor="start" x="190.5" y="-194.8" font-family="Times,serif" font-size="14.00">has_comment</text>
<polygon fill="none" stroke="black" points="32.5,-167 32.5,-188 63.5,-188 63.5,-167 32.5,-167"/>
<text text-anchor="start" x="36.5" y="-173.8" font-family="Times,serif" font-size="14.00">0:4</text>
<polygon fill="none" stroke="black" points="63.5,-167 63.5,-188 97.5,-188 97.5,-167 63.5,-167"/>
<text text-anchor="start" x="71" y="-173.8" font-family="Times,serif" font-size="14.00">1b</text>
<polygon fill="none" stroke="black" points="97.5,-167 97.5,-188 181.5,-188 181.5,-167 97.5,-167"/>
<text text-anchor="start" x="100.5" y="-173.8" font-family="Times,serif" font-size="14.00">b1be→bool</text>
<polygon fill="none" stroke="black" points="181.5,-167 181.5,-188 297.5,-188 297.5,-167 181.5,-167"/>
<text text-anchor="start" x="204" y="-173.8" font-family="Times,serif" font-size="14.00">has_name</text>
<polygon fill="none" stroke="black" points="32.5,-146 32.5,-167 63.5,-167 63.5,-146 32.5,-146"/>
<text text-anchor="start" x="36.5" y="-152.8" font-family="Times,serif" font-size="14.00">0:5</text>
<polygon fill="none" stroke="black" points="63.5,-146 63.5,-167 97.5,-167 97.5,-146 63.5,-146"/>
<text text-anchor="start" x="71" y="-152.8" font-family="Times,serif" font-size="14.00">1b</text>
<polygon fill="none" stroke="black" points="97.5,-146 97.5,-167 181.5,-167 181.5,-146 97.5,-146"/>
<text text-anchor="start" x="100.5" y="-152.8" font-family="Times,serif" font-size="14.00">b1be→bool</text>
<polygon fill="none" stroke="black" points="181.5,-146 181.5,-167 297.5,-167 297.5,-146 181.5,-146"/>
<text text-anchor="start" x="204.5" y="-152.8" font-family="Times,serif" font-size="14.00">has_extra</text>
<polygon fill="none" stroke="black" points="32.5,-125 32.5,-146 63.5,-146 63.5,-125 32.5,-125"/>
<text text-anchor="start" x="36.5" y="-131.8" font-family="Times,serif" font-size="14.00">0:6</text>
<polygon fill="none" stroke="black" points="63.5,-125 63.5,-146 97.5,-146 97.5,-125 63.5,-125"/>
<text text-anchor="start" x="71" y="-131.8" font-family="Times,serif" font-size="14.00">1b</text>
<polygon fill="none" stroke="black" points="97.5,-125 97.5,-146 181.5,-146 181.5,-125 97.5,-125"/>
<text text-anchor="start" x="100.5" y="-131.8" font-family="Times,serif" font-size="14.00">b1be→bool</text>
<polygon fill="none" stroke="black" points="181.5,-125 181.5,-146 297.5,-146 297.5,-125 181.5,-125"/>
<text text-anchor="start" x="184.5" y="-131.8" font-family="Times,serif" font-size="14.00">has_header_crc</text>
<polygon fill="none" stroke="black" points="32.5,-104 32.5,-125 63.5,-125 63.5,-104 32.5,-104"/>
<text text-anchor="start" x="36.5" y="-110.8" font-family="Times,serif" font-size="14.00">0:7</text>
<polygon fill="none" stroke="black" points="63.5,-104 63.5,-125 97.5,-125 97.5,-104 63.5,-104"/>
<text text-anchor="start" x="71" y="-110.8" font-family="Times,serif" font-size="14.00">1b</text>
<polygon fill="none" stroke="black" points="97.5,-104 97.5,-125 181.5,-125 181.5,-104 97.5,-104"/>
<text text-anchor="start" x="100.5" y="-110.8" font-family="Times,serif" font-size="14.00">b1be→bool</text>
<polygon fill="none" stroke="black" points="181.5,-104 181.5,-125 297.5,-125 297.5,-104 181.5,-104"/>
<text text-anchor="start" x="215.5" y="-110.8" font-family="Times,serif" font-size="14.00">is_text</text>
</g>
<!-- gzip__seq&#45;&gt;flags__seq -->
<g id="edge1" class="edge">
<title>gzip__seq:flags_type&#45;&gt;flags__seq</title>
<path fill="none" stroke="black" stroke-width="2" d="M911.5,-325C945.73,-325 934.86,-377.96 910.5,-402 820.43,-490.91 454.79,-457.4 341,-402 282.34,-373.44 237.49,-314.73 207.82,-264.58"/>
<polygon fill="black" stroke="black" stroke-width="2" points="210.69,-262.54 202.64,-255.65 204.63,-266.05 210.69,-262.54"/>
</g>
<!-- extra_flags_deflate__seq -->
<g id="node3" class="node">
<title>extra_flags_deflate__seq</title>
<polygon fill="#e0ffe0" stroke="transparent" points="1375.5,-310 1375.5,-331 1406.5,-331 1406.5,-310 1375.5,-310"/>
<polygon fill="none" stroke="black" points="1375.5,-310 1375.5,-331 1406.5,-331 1406.5,-310 1375.5,-310"/>
<text text-anchor="start" x="1378.5" y="-316.8" font-family="Times,serif" font-size="14.00">pos</text>
<polygon fill="#e0ffe0" stroke="transparent" points="1406.5,-310 1406.5,-331 1440.5,-331 1440.5,-310 1406.5,-310"/>
<polygon fill="none" stroke="black" points="1406.5,-310 1406.5,-331 1440.5,-331 1440.5,-310 1406.5,-310"/>
<text text-anchor="start" x="1409.5" y="-316.8" font-family="Times,serif" font-size="14.00">size</text>
<polygon fill="#e0ffe0" stroke="transparent" points="1440.5,-310 1440.5,-331 1641.5,-331 1641.5,-310 1440.5,-310"/>
<polygon fill="none" stroke="black" points="1440.5,-310 1440.5,-331 1641.5,-331 1641.5,-310 1440.5,-310"/>
<text text-anchor="start" x="1525" y="-316.8" font-family="Times,serif" font-size="14.00">type</text>
<polygon fill="#e0ffe0" stroke="transparent" points="1641.5,-310 1641.5,-331 1806.5,-331 1806.5,-310 1641.5,-310"/>
<polygon fill="none" stroke="black" points="1641.5,-310 1641.5,-331 1806.5,-331 1806.5,-310 1641.5,-310"/>
<text text-anchor="start" x="1717" y="-316.8" font-family="Times,serif" font-size="14.00">id</text>
<polygon fill="none" stroke="black" points="1375.5,-289 1375.5,-310 1406.5,-310 1406.5,-289 1375.5,-289"/>
<text text-anchor="start" x="1386" y="-295.8" font-family="Times,serif" font-size="14.00">0</text>
<polygon fill="none" stroke="black" points="1406.5,-289 1406.5,-310 1440.5,-310 1440.5,-289 1406.5,-289"/>
<text text-anchor="start" x="1418.5" y="-295.8" font-family="Times,serif" font-size="14.00">1</text>
<polygon fill="none" stroke="black" points="1440.5,-289 1440.5,-310 1641.5,-310 1641.5,-289 1440.5,-289"/>
<text text-anchor="start" x="1443.5" y="-295.8" font-family="Times,serif" font-size="14.00">u1→CompressionStrengths</text>
<polygon fill="none" stroke="black" points="1641.5,-289 1641.5,-310 1806.5,-310 1806.5,-289 1641.5,-289"/>
<text text-anchor="start" x="1644.5" y="-295.8" font-family="Times,serif" font-size="14.00">compression_strength</text>
</g>
<!-- gzip__seq_extra_flags_switch&#45;&gt;extra_flags_deflate__seq -->
<g id="edge3" class="edge">
<title>gzip__seq_extra_flags_switch:case0&#45;&gt;extra_flags_deflate__seq</title>
<path fill="none" stroke="black" stroke-width="2" d="M1324.5,-310C1335.07,-310 1345.87,-310 1356.79,-310"/>
<polygon fill="black" stroke="black" stroke-width="2" points="1356.84,-313.5 1366.84,-310 1356.83,-306.5 1356.84,-313.5"/>
</g>
<!-- extras__seq&#45;&gt;extras__seq -->
<g id="edge10" class="edge">
<title>extras__seq:len_subfields_type&#45;&gt;extras__seq:subfields_size</title>
<path fill="none" stroke="#404040" d="M1293.52,-213.12C1350.09,-231.83 1320.83,-256.5 1158,-256.5 1000.04,-256.5 967.78,-219.98 1017.63,-196.08"/>
<polygon fill="#404040" stroke="#404040" points="1019.25,-199.19 1027.1,-192.07 1016.52,-192.75 1019.25,-199.19"/>
</g>
<!-- subfields__seq -->
<g id="node7" class="node">
<title>subfields__seq</title>
<polygon fill="#e0ffe0" stroke="transparent" points="1497.5,-191 1497.5,-212 1528.5,-212 1528.5,-191 1497.5,-191"/>
<polygon fill="none" stroke="black" points="1497.5,-191 1497.5,-212 1528.5,-212 1528.5,-191 1497.5,-191"/>
<text text-anchor="start" x="1500.5" y="-197.8" font-family="Times,serif" font-size="14.00">pos</text>
<polygon fill="#e0ffe0" stroke="transparent" points="1528.5,-191 1528.5,-212 1562.5,-212 1562.5,-191 1528.5,-191"/>
<polygon fill="none" stroke="black" points="1528.5,-191 1528.5,-212 1562.5,-212 1562.5,-191 1528.5,-191"/>
<text text-anchor="start" x="1531.5" y="-197.8" font-family="Times,serif" font-size="14.00">size</text>
<polygon fill="#e0ffe0" stroke="transparent" points="1562.5,-191 1562.5,-212 1627.5,-212 1627.5,-191 1562.5,-191"/>
<polygon fill="none" stroke="black" points="1562.5,-191 1562.5,-212 1627.5,-212 1627.5,-191 1562.5,-191"/>
<text text-anchor="start" x="1579" y="-197.8" font-family="Times,serif" font-size="14.00">type</text>
<polygon fill="#e0ffe0" stroke="transparent" points="1627.5,-191 1627.5,-212 1684.5,-212 1684.5,-191 1627.5,-191"/>
<polygon fill="none" stroke="black" points="1627.5,-191 1627.5,-212 1684.5,-212 1684.5,-191 1627.5,-191"/>
<text text-anchor="start" x="1649" y="-197.8" font-family="Times,serif" font-size="14.00">id</text>
<polygon fill="none" stroke="black" points="1497.5,-170 1497.5,-191 1528.5,-191 1528.5,-170 1497.5,-170"/>
<text text-anchor="start" x="1508" y="-176.8" font-family="Times,serif" font-size="14.00">0</text>
<polygon fill="none" stroke="black" points="1528.5,-170 1528.5,-191 1562.5,-191 1562.5,-170 1528.5,-170"/>
<text text-anchor="start" x="1538.5" y="-176.8" font-family="Times,serif" font-size="14.00">...</text>
<polygon fill="none" stroke="black" points="1562.5,-170 1562.5,-191 1627.5,-191 1627.5,-170 1562.5,-170"/>
<text text-anchor="start" x="1565.5" y="-176.8" font-family="Times,serif" font-size="14.00">Subfield</text>
<polygon fill="none" stroke="black" points="1627.5,-170 1627.5,-191 1684.5,-191 1684.5,-170 1627.5,-170"/>
<text text-anchor="start" x="1630.5" y="-176.8" font-family="Times,serif" font-size="14.00">entries</text>
<polygon fill="none" stroke="black" points="1497.5,-149 1497.5,-170 1684.5,-170 1684.5,-149 1497.5,-149"/>
<text text-anchor="start" x="1506.5" y="-155.8" font-family="Times,serif" font-size="14.00">repeat to end of stream</text>
</g>
<!-- extras__seq&#45;&gt;subfields__seq -->
<g id="edge11" class="edge">
<title>extras__seq:subfields_type&#45;&gt;subfields__seq</title>
<path fill="none" stroke="black" stroke-width="2" d="M1294.5,-181C1355.37,-181 1423.31,-181 1478.63,-181"/>
<polygon fill="black" stroke="black" stroke-width="2" points="1478.8,-184.5 1488.8,-181 1478.8,-177.5 1478.8,-184.5"/>
</g>
<!-- flags__seq&#45;&gt;gzip__seq -->
<g id="edge6" class="edge">
<title>flags__seq:has_extra_type&#45;&gt;gzip__seq:extras__if</title>
<path fill="none" stroke="#404040" d="M298.5,-156C330.65,-156 316.56,-206.77 338.6,-217.87"/>
<polygon fill="#404040" stroke="#404040" points="337.99,-221.32 348.5,-220 339.46,-214.48 337.99,-221.32"/>
</g>
<!-- flags__seq&#45;&gt;gzip__seq -->
<g id="edge7" class="edge">
<title>flags__seq:has_name_type&#45;&gt;gzip__seq:name__if</title>
<path fill="none" stroke="#404040" d="M298.5,-177C316.9,-177 323.88,-177 338.35,-177"/>
<polygon fill="#404040" stroke="#404040" points="338.5,-180.5 348.5,-177 338.5,-173.5 338.5,-180.5"/>
</g>
<!-- flags__seq&#45;&gt;gzip__seq -->
<g id="edge8" class="edge">
<title>flags__seq:has_comment_type&#45;&gt;gzip__seq:comment__if</title>
<path fill="none" stroke="#404040" d="M298.5,-199C330.65,-199 316.56,-148.23 338.6,-137.13"/>
<polygon fill="#404040" stroke="#404040" points="339.46,-140.52 348.5,-135 337.99,-133.68 339.46,-140.52"/>
</g>
<!-- flags__seq&#45;&gt;gzip__seq -->
<g id="edge9" class="edge">
<title>flags__seq:has_header_crc_type&#45;&gt;gzip__seq:header_crc16__if</title>
<path fill="none" stroke="#404040" d="M298.5,-135C323.44,-135 321.01,-103.98 338.25,-95.26"/>
<polygon fill="#404040" stroke="#404040" points="339.49,-98.57 348.5,-93 337.98,-91.73 339.49,-98.57"/>
</g>
<!-- subfield__seq -->
<g id="node6" class="node">
<title>subfield__seq</title>
<polygon fill="#e0ffe0" stroke="transparent" points="1858.5,-201 1858.5,-222 1889.5,-222 1889.5,-201 1858.5,-201"/>
<polygon fill="none" stroke="black" points="1858.5,-201 1858.5,-222 1889.5,-222 1889.5,-201 1858.5,-201"/>
<text text-anchor="start" x="1861.5" y="-207.8" font-family="Times,serif" font-size="14.00">pos</text>
<polygon fill="#e0ffe0" stroke="transparent" points="1889.5,-201 1889.5,-222 1956.5,-222 1956.5,-201 1889.5,-201"/>
<polygon fill="none" stroke="black" points="1889.5,-201 1889.5,-222 1956.5,-222 1956.5,-201 1889.5,-201"/>
<text text-anchor="start" x="1909" y="-207.8" font-family="Times,serif" font-size="14.00">size</text>
<polygon fill="#e0ffe0" stroke="transparent" points="1956.5,-201 1956.5,-222 1994.5,-222 1994.5,-201 1956.5,-201"/>
<polygon fill="none" stroke="black" points="1956.5,-201 1956.5,-222 1994.5,-222 1994.5,-201 1956.5,-201"/>
<text text-anchor="start" x="1959.5" y="-207.8" font-family="Times,serif" font-size="14.00">type</text>
<polygon fill="#e0ffe0" stroke="transparent" points="1994.5,-201 1994.5,-222 2061.5,-222 2061.5,-201 1994.5,-201"/>
<polygon fill="none" stroke="black" points="1994.5,-201 1994.5,-222 2061.5,-222 2061.5,-201 1994.5,-201"/>
<text text-anchor="start" x="2021" y="-207.8" font-family="Times,serif" font-size="14.00">id</text>
<polygon fill="none" stroke="black" points="1858.5,-180 1858.5,-201 1889.5,-201 1889.5,-180 1858.5,-180"/>
<text text-anchor="start" x="1869" y="-186.8" font-family="Times,serif" font-size="14.00">0</text>
<polygon fill="none" stroke="black" points="1889.5,-180 1889.5,-201 1956.5,-201 1956.5,-180 1889.5,-180"/>
<text text-anchor="start" x="1918" y="-186.8" font-family="Times,serif" font-size="14.00">2</text>
<polygon fill="none" stroke="black" points="1956.5,-180 1956.5,-201 1994.5,-201 1994.5,-180 1956.5,-180"/>
<text text-anchor="start" x="1960" y="-186.8" font-family="Times,serif" font-size="14.00">u2le</text>
<polygon fill="none" stroke="black" points="1994.5,-180 1994.5,-201 2061.5,-201 2061.5,-180 1994.5,-180"/>
<text text-anchor="start" x="2021" y="-186.8" font-family="Times,serif" font-size="14.00">id</text>
<polygon fill="none" stroke="black" points="1858.5,-159 1858.5,-180 1889.5,-180 1889.5,-159 1858.5,-159"/>
<text text-anchor="start" x="1869" y="-165.8" font-family="Times,serif" font-size="14.00">2</text>
<polygon fill="none" stroke="black" points="1889.5,-159 1889.5,-180 1956.5,-180 1956.5,-159 1889.5,-159"/>
<text text-anchor="start" x="1918" y="-165.8" font-family="Times,serif" font-size="14.00">2</text>
<polygon fill="none" stroke="black" points="1956.5,-159 1956.5,-180 1994.5,-180 1994.5,-159 1956.5,-159"/>
<text text-anchor="start" x="1960" y="-165.8" font-family="Times,serif" font-size="14.00">u2le</text>
<polygon fill="none" stroke="black" points="1994.5,-159 1994.5,-180 2061.5,-180 2061.5,-159 1994.5,-159"/>
<text text-anchor="start" x="1997.5" y="-165.8" font-family="Times,serif" font-size="14.00">len_data</text>
<polygon fill="none" stroke="black" points="1858.5,-138 1858.5,-159 1889.5,-159 1889.5,-138 1858.5,-138"/>
<text text-anchor="start" x="1869" y="-144.8" font-family="Times,serif" font-size="14.00">4</text>
<polygon fill="none" stroke="black" points="1889.5,-138 1889.5,-159 1956.5,-159 1956.5,-138 1889.5,-138"/>
<text text-anchor="start" x="1892.5" y="-144.8" font-family="Times,serif" font-size="14.00">len_data</text>
<polygon fill="none" stroke="black" points="1956.5,-138 1956.5,-159 1994.5,-159 1994.5,-138 1956.5,-138"/>
<polygon fill="none" stroke="black" points="1994.5,-138 1994.5,-159 2061.5,-159 2061.5,-138 1994.5,-138"/>
<text text-anchor="start" x="2012" y="-144.8" font-family="Times,serif" font-size="14.00">data</text>
</g>
<!-- subfield__seq&#45;&gt;subfield__seq -->
<g id="edge12" class="edge">
<title>subfield__seq:len_data_type&#45;&gt;subfield__seq:data_size</title>
<path fill="none" stroke="#404040" d="M2061.71,-179.68C2117.63,-204.37 2100.11,-244 1975.5,-244 1856.63,-244 1835.21,-193.82 1882.03,-163.98"/>
<polygon fill="#404040" stroke="#404040" points="1883.84,-166.98 1890.84,-159.02 1880.41,-160.88 1883.84,-166.98"/>
</g>
<!-- subfields__seq&#45;&gt;subfield__seq -->
<g id="edge13" class="edge">
<title>subfields__seq:entries_type&#45;&gt;subfield__seq</title>
<path fill="none" stroke="black" stroke-width="2" d="M1685.5,-180C1736.05,-180 1791.87,-180 1839.79,-180"/>
<polygon fill="black" stroke="black" stroke-width="2" points="1839.9,-183.5 1849.9,-180 1839.9,-176.5 1839.9,-183.5"/>
</g>
</g>
</svg>
