<?xml version="1.0" encoding="UTF-8" standalone="no"?>
<!DOCTYPE svg PUBLIC "-//W3C//DTD SVG 1.1//EN"
 "http://www.w3.org/Graphics/SVG/1.1/DTD/svg11.dtd">
<!-- Generated by graphviz version 2.38.0 (20140413.2041)
 -->
<!-- Title: %3 Pages: 1 -->
<svg width="1798pt" height="455pt"
 viewBox="0.00 0.00 1798.00 455.00" xmlns="http://www.w3.org/2000/svg" xmlns:xlink="http://www.w3.org/1999/xlink">
<g id="graph0" class="graph" transform="scale(1 1) rotate(0) translate(4 451)">
<title>%3</title>
<polygon fill="white" stroke="none" points="-4,4 -4,-451 1794,-451 1794,4 -4,4"/>
<g id="clust1" class="cluster"><title>cluster__gzip</title>
<polygon fill="none" stroke="black" stroke-dasharray="1,5" points="8,-8 8,-439 1782,-439 1782,-8 8,-8"/>
<text text-anchor="middle" x="895" y="-423.8" font-family="Times,serif" font-size="14.00">Gzip</text>
</g>
<g id="clust2" class="cluster"><title>cluster__flags</title>
<polygon fill="none" stroke="black" stroke-dasharray="1,5" points="688,-213 688,-408 983,-408 983,-213 688,-213"/>
<text text-anchor="middle" x="835.5" y="-392.8" font-family="Times,serif" font-size="14.00">Gzip::Flags</text>
</g>
<g id="clust3" class="cluster"><title>cluster__extra_flags_deflate</title>
<polygon fill="none" stroke="black" stroke-dasharray="1,5" points="1054,-135 1054,-224 1519,-224 1519,-135 1054,-135"/>
<text text-anchor="middle" x="1286.5" y="-208.8" font-family="Times,serif" font-size="14.00">Gzip::ExtraFlagsDeflate</text>
</g>
<g id="clust4" class="cluster"><title>cluster__subfields</title>
<polygon fill="none" stroke="black" stroke-dasharray="1,5" points="1176.5,-16 1176.5,-127 1396.5,-127 1396.5,-16 1176.5,-16"/>
<text text-anchor="middle" x="1286.5" y="-111.8" font-family="Times,serif" font-size="14.00">Gzip::Subfields</text>
</g>
<g id="clust5" class="cluster"><title>cluster__subfield</title>
<polygon fill="none" stroke="black" stroke-dasharray="1,5" points="1539,-16 1539,-165 1774,-165 1774,-16 1539,-16"/>
<text text-anchor="middle" x="1656.5" y="-149.8" font-family="Times,serif" font-size="14.00">Gzip::Subfield</text>
</g>
<g id="clust6" class="cluster"><title>cluster__extras</title>
<polygon fill="none" stroke="black" stroke-dasharray="1,5" points="667.5,-16 667.5,-145 1003.5,-145 1003.5,-16 667.5,-16"/>
<text text-anchor="middle" x="835.5" y="-129.8" font-family="Times,serif" font-size="14.00">Gzip::Extras</text>
</g>
<!-- gzip__seq -->
<g id="node1" class="node"><title>gzip__seq</title>
<polygon fill="#e0ffe0" stroke="none" points="24.5,-293 24.5,-314 55.5,-314 55.5,-293 24.5,-293"/>
<polygon fill="none" stroke="black" points="24.5,-293 24.5,-314 55.5,-314 55.5,-293 24.5,-293"/>
<text text-anchor="start" x="27.5" y="-299.8" font-family="Times,serif" font-size="14.00">pos</text>
<polygon fill="#e0ffe0" stroke="none" points="55.5,-293 55.5,-314 221.5,-314 221.5,-293 55.5,-293"/>
<polygon fill="none" stroke="black" points="55.5,-293 55.5,-314 221.5,-314 221.5,-293 55.5,-293"/>
<text text-anchor="start" x="124.5" y="-299.8" font-family="Times,serif" font-size="14.00">size</text>
<polygon fill="#e0ffe0" stroke="none" points="221.5,-293 221.5,-314 442.5,-314 442.5,-293 221.5,-293"/>
<polygon fill="none" stroke="black" points="221.5,-293 221.5,-314 442.5,-314 442.5,-293 221.5,-293"/>
<text text-anchor="start" x="316" y="-299.8" font-family="Times,serif" font-size="14.00">type</text>
<polygon fill="#e0ffe0" stroke="none" points="442.5,-293 442.5,-314 601.5,-314 601.5,-293 442.5,-293"/>
<polygon fill="none" stroke="black" points="442.5,-293 442.5,-314 601.5,-314 601.5,-293 442.5,-293"/>
<text text-anchor="start" x="515" y="-299.8" font-family="Times,serif" font-size="14.00">id</text>
<polygon fill="none" stroke="black" points="24.5,-272 24.5,-293 55.5,-293 55.5,-272 24.5,-272"/>
<text text-anchor="start" x="35" y="-278.8" font-family="Times,serif" font-size="14.00">0</text>
<polygon fill="none" stroke="black" points="55.5,-272 55.5,-293 221.5,-293 221.5,-272 55.5,-272"/>
<text text-anchor="start" x="133.5" y="-278.8" font-family="Times,serif" font-size="14.00">2</text>
<polygon fill="none" stroke="black" points="221.5,-272 221.5,-293 442.5,-293 442.5,-272 221.5,-272"/>
<text text-anchor="start" x="310.5" y="-278.8" font-family="Times,serif" font-size="14.00">1F 8B</text>
<polygon fill="none" stroke="black" points="442.5,-272 442.5,-293 601.5,-293 601.5,-272 442.5,-272"/>
<text text-anchor="start" x="500" y="-278.8" font-family="Times,serif" font-size="14.00">magic</text>
<polygon fill="none" stroke="black" points="24.5,-251 24.5,-272 55.5,-272 55.5,-251 24.5,-251"/>
<text text-anchor="start" x="35" y="-257.8" font-family="Times,serif" font-size="14.00">2</text>
<polygon fill="none" stroke="black" points="55.5,-251 55.5,-272 221.5,-272 221.5,-251 55.5,-251"/>
<text text-anchor="start" x="133.5" y="-257.8" font-family="Times,serif" font-size="14.00">1</text>
<polygon fill="none" stroke="black" points="221.5,-251 221.5,-272 442.5,-272 442.5,-251 221.5,-251"/>
<text text-anchor="start" x="238.5" y="-257.8" font-family="Times,serif" font-size="14.00">u1→CompressionMethods</text>
<polygon fill="none" stroke="black" points="442.5,-251 442.5,-272 601.5,-272 601.5,-251 442.5,-251"/>
<text text-anchor="start" x="445.5" y="-257.8" font-family="Times,serif" font-size="14.00">compression_method</text>
<polygon fill="none" stroke="black" points="24.5,-230 24.5,-251 55.5,-251 55.5,-230 24.5,-230"/>
<text text-anchor="start" x="35" y="-236.8" font-family="Times,serif" font-size="14.00">3</text>
<polygon fill="none" stroke="black" points="55.5,-230 55.5,-251 221.5,-251 221.5,-230 55.5,-230"/>
<text text-anchor="start" x="133.5" y="-236.8" font-family="Times,serif" font-size="14.00">1</text>
<polygon fill="none" stroke="black" points="221.5,-230 221.5,-251 442.5,-251 442.5,-230 221.5,-230"/>
<text text-anchor="start" x="312" y="-236.8" font-family="Times,serif" font-size="14.00">Flags</text>
<polygon fill="none" stroke="black" points="442.5,-230 442.5,-251 601.5,-251 601.5,-230 442.5,-230"/>
<text text-anchor="start" x="504.5" y="-236.8" font-family="Times,serif" font-size="14.00">flags</text>
<polygon fill="none" stroke="black" points="24.5,-209 24.5,-230 55.5,-230 55.5,-209 24.5,-209"/>
<text text-anchor="start" x="35" y="-215.8" font-family="Times,serif" font-size="14.00">4</text>
<polygon fill="none" stroke="black" points="55.5,-209 55.5,-230 221.5,-230 221.5,-209 55.5,-209"/>
<text text-anchor="start" x="133.5" y="-215.8" font-family="Times,serif" font-size="14.00">4</text>
<polygon fill="none" stroke="black" points="221.5,-209 221.5,-230 442.5,-230 442.5,-209 221.5,-209"/>
<text text-anchor="start" x="316.5" y="-215.8" font-family="Times,serif" font-size="14.00">u4le</text>
<polygon fill="none" stroke="black" points="442.5,-209 442.5,-230 601.5,-230 601.5,-209 442.5,-209"/>
<text text-anchor="start" x="486.5" y="-215.8" font-family="Times,serif" font-size="14.00">mod_time</text>
<polygon fill="none" stroke="black" points="24.5,-188 24.5,-209 55.5,-209 55.5,-188 24.5,-188"/>
<text text-anchor="start" x="35" y="-194.8" font-family="Times,serif" font-size="14.00">8</text>
<polygon fill="none" stroke="black" points="55.5,-188 55.5,-209 221.5,-209 221.5,-188 55.5,-188"/>
<text text-anchor="start" x="131.5" y="-194.8" font-family="Times,serif" font-size="14.00">...</text>
<polygon fill="none" stroke="black" points="221.5,-188 221.5,-209 442.5,-209 442.5,-188 221.5,-188"/>
<text text-anchor="start" x="224.5" y="-194.8" font-family="Times,serif" font-size="14.00">switch (compression_method)</text>
<polygon fill="none" stroke="black" points="442.5,-188 442.5,-209 601.5,-209 601.5,-188 442.5,-188"/>
<text text-anchor="start" x="482" y="-194.8" font-family="Times,serif" font-size="14.00">extra_flags</text>
<polygon fill="none" stroke="black" points="24.5,-167 24.5,-188 55.5,-188 55.5,-167 24.5,-167"/>
<text text-anchor="start" x="33" y="-173.8" font-family="Times,serif" font-size="14.00">...</text>
<polygon fill="none" stroke="black" points="55.5,-167 55.5,-188 221.5,-188 221.5,-167 55.5,-167"/>
<text text-anchor="start" x="133.5" y="-173.8" font-family="Times,serif" font-size="14.00">1</text>
<polygon fill="none" stroke="black" points="221.5,-167 221.5,-188 442.5,-188 442.5,-167 221.5,-167"/>
<text text-anchor="start" x="299" y="-173.8" font-family="Times,serif" font-size="14.00">u1→Oses</text>
<polygon fill="none" stroke="black" points="442.5,-167 442.5,-188 601.5,-188 601.5,-167 442.5,-167"/>
<text text-anchor="start" x="514" y="-173.8" font-family="Times,serif" font-size="14.00">os</text>
<polygon fill="none" stroke="black" points="24.5,-146 24.5,-167 55.5,-167 55.5,-146 24.5,-146"/>
<text text-anchor="start" x="33" y="-152.8" font-family="Times,serif" font-size="14.00">...</text>
<polygon fill="none" stroke="black" points="55.5,-146 55.5,-167 221.5,-167 221.5,-146 55.5,-146"/>
<text text-anchor="start" x="131.5" y="-152.8" font-family="Times,serif" font-size="14.00">...</text>
<polygon fill="none" stroke="black" points="221.5,-146 221.5,-167 442.5,-167 442.5,-146 221.5,-146"/>
<text text-anchor="start" x="308" y="-152.8" font-family="Times,serif" font-size="14.00">Extras</text>
<polygon fill="none" stroke="black" points="442.5,-146 442.5,-167 601.5,-167 601.5,-146 442.5,-146"/>
<text text-anchor="start" x="499" y="-152.8" font-family="Times,serif" font-size="14.00">extras</text>
<polygon fill="none" stroke="black" points="24.5,-125 24.5,-146 55.5,-146 55.5,-125 24.5,-125"/>
<text text-anchor="start" x="33" y="-131.8" font-family="Times,serif" font-size="14.00">...</text>
<polygon fill="none" stroke="black" points="55.5,-125 55.5,-146 221.5,-146 221.5,-125 55.5,-125"/>
<text text-anchor="start" x="131.5" y="-131.8" font-family="Times,serif" font-size="14.00">...</text>
<polygon fill="none" stroke="black" points="221.5,-125 221.5,-146 442.5,-146 442.5,-125 221.5,-125"/>
<polygon fill="none" stroke="black" points="442.5,-125 442.5,-146 601.5,-146 601.5,-125 442.5,-125"/>
<text text-anchor="start" x="502" y="-131.8" font-family="Times,serif" font-size="14.00">name</text>
<polygon fill="none" stroke="black" points="24.5,-104 24.5,-125 55.5,-125 55.5,-104 24.5,-104"/>
<text text-anchor="start" x="33" y="-110.8" font-family="Times,serif" font-size="14.00">...</text>
<polygon fill="none" stroke="black" points="55.5,-104 55.5,-125 221.5,-125 221.5,-104 55.5,-104"/>
<text text-anchor="start" x="131.5" y="-110.8" font-family="Times,serif" font-size="14.00">...</text>
<polygon fill="none" stroke="black" points="221.5,-104 221.5,-125 442.5,-125 442.5,-104 221.5,-104"/>
<polygon fill="none" stroke="black" points="442.5,-104 442.5,-125 601.5,-125 601.5,-104 442.5,-104"/>
<text text-anchor="start" x="488.5" y="-110.8" font-family="Times,serif" font-size="14.00">comment</text>
<polygon fill="none" stroke="black" points="24.5,-83 24.5,-104 55.5,-104 55.5,-83 24.5,-83"/>
<text text-anchor="start" x="33" y="-89.8" font-family="Times,serif" font-size="14.00">...</text>
<polygon fill="none" stroke="black" points="55.5,-83 55.5,-104 221.5,-104 221.5,-83 55.5,-83"/>
<text text-anchor="start" x="133.5" y="-89.8" font-family="Times,serif" font-size="14.00">2</text>
<polygon fill="none" stroke="black" points="221.5,-83 221.5,-104 442.5,-104 442.5,-83 221.5,-83"/>
<text text-anchor="start" x="316.5" y="-89.8" font-family="Times,serif" font-size="14.00">u2le</text>
<polygon fill="none" stroke="black" points="442.5,-83 442.5,-104 601.5,-104 601.5,-83 442.5,-83"/>
<text text-anchor="start" x="472.5" y="-89.8" font-family="Times,serif" font-size="14.00">header_crc16</text>
<polygon fill="none" stroke="black" points="24.5,-62 24.5,-83 55.5,-83 55.5,-62 24.5,-62"/>
<text text-anchor="start" x="33" y="-68.8" font-family="Times,serif" font-size="14.00">...</text>
<polygon fill="none" stroke="black" points="55.5,-62 55.5,-83 221.5,-83 221.5,-62 55.5,-62"/>
<text text-anchor="start" x="58.5" y="-68.8" font-family="Times,serif" font-size="14.00">((_io.size &#45; _io.pos) &#45; 8)</text>
<polygon fill="none" stroke="black" points="221.5,-62 221.5,-83 442.5,-83 442.5,-62 221.5,-62"/>
<polygon fill="none" stroke="black" points="442.5,-62 442.5,-83 601.5,-83 601.5,-62 442.5,-62"/>
<text text-anchor="start" x="504.5" y="-68.8" font-family="Times,serif" font-size="14.00">body</text>
<polygon fill="none" stroke="black" points="24.5,-41 24.5,-62 55.5,-62 55.5,-41 24.5,-41"/>
<text text-anchor="start" x="33" y="-47.8" font-family="Times,serif" font-size="14.00">...</text>
<polygon fill="none" stroke="black" points="55.5,-41 55.5,-62 221.5,-62 221.5,-41 55.5,-41"/>
<text text-anchor="start" x="133.5" y="-47.8" font-family="Times,serif" font-size="14.00">4</text>
<polygon fill="none" stroke="black" points="221.5,-41 221.5,-62 442.5,-62 442.5,-41 221.5,-41"/>
<text text-anchor="start" x="316.5" y="-47.8" font-family="Times,serif" font-size="14.00">u4le</text>
<polygon fill="none" stroke="black" points="442.5,-41 442.5,-62 601.5,-62 601.5,-41 442.5,-41"/>
<text text-anchor="start" x="480" y="-47.8" font-family="Times,serif" font-size="14.00">body_crc32</text>
<polygon fill="none" stroke="black" points="24.5,-20 24.5,-41 55.5,-41 55.5,-20 24.5,-20"/>
<text text-anchor="start" x="33" y="-26.8" font-family="Times,serif" font-size="14.00">...</text>
<polygon fill="none" stroke="black" points="55.5,-20 55.5,-41 221.5,-41 221.5,-20 55.5,-20"/>
<text text-anchor="start" x="133.5" y="-26.8" font-family="Times,serif" font-size="14.00">4</text>
<polygon fill="none" stroke="black" points="221.5,-20 221.5,-41 442.5,-41 442.5,-20 221.5,-20"/>
<text text-anchor="start" x="316.5" y="-26.8" font-family="Times,serif" font-size="14.00">u4le</text>
<polygon fill="none" stroke="black" points="442.5,-20 442.5,-41 601.5,-41 601.5,-20 442.5,-20"/>
<text text-anchor="start" x="455" y="-26.8" font-family="Times,serif" font-size="14.00">len_uncompressed</text>
</g>
<!-- gzip__seq&#45;&gt;gzip__seq -->
<g id="edge4" class="edge"><title>gzip__seq:compression_method_type&#45;&gt;gzip__seq:extra_flags_type</title>
<path fill="none" stroke="#404040" d="M499.561,-272.115C392.51,-320.473 400.156,-336 522.5,-336 641.874,-336 652.051,-268.501 553.032,-213.874"/>
<polygon fill="#404040" stroke="#404040" points="554.569,-210.727 544.095,-209.132 551.288,-216.911 554.569,-210.727"/>
</g>
<!-- gzip__seq_extra_flags_switch -->
<g id="node2" class="node"><title>gzip__seq_extra_flags_switch</title>
<polygon fill="#f0f2e4" stroke="none" points="653.5,-178 653.5,-199 881.5,-199 881.5,-178 653.5,-178"/>
<polygon fill="none" stroke="black" points="653.5,-178 653.5,-199 881.5,-199 881.5,-178 653.5,-178"/>
<text text-anchor="start" x="751" y="-184.8" font-family="Times,serif" font-size="14.00">case</text>
<polygon fill="#f0f2e4" stroke="none" points="881.5,-178 881.5,-199 1018.5,-199 1018.5,-178 881.5,-178"/>
<polygon fill="none" stroke="black" points="881.5,-178 881.5,-199 1018.5,-199 1018.5,-178 881.5,-178"/>
<text text-anchor="start" x="934" y="-184.8" font-family="Times,serif" font-size="14.00">type</text>
<polygon fill="none" stroke="black" points="653.5,-157 653.5,-178 881.5,-178 881.5,-157 653.5,-157"/>
<text text-anchor="start" x="656.5" y="-163.8" font-family="Times,serif" font-size="14.00">:compression_methods_deflate</text>
<polygon fill="none" stroke="black" points="881.5,-157 881.5,-178 1018.5,-178 1018.5,-157 881.5,-157"/>
<text text-anchor="start" x="884.5" y="-163.8" font-family="Times,serif" font-size="14.00">ExtraFlagsDeflate</text>
</g>
<!-- gzip__seq&#45;&gt;gzip__seq_extra_flags_switch -->
<g id="edge2" class="edge"><title>gzip__seq:extra_flags_type&#45;&gt;gzip__seq_extra_flags_switch</title>
<path fill="none" stroke="black" stroke-width="2" d="M602.5,-199C613.028,-199 623.813,-198.783 634.695,-198.393"/>
<polygon fill="black" stroke="black" stroke-width="2" points="634.861,-201.889 644.711,-197.987 634.578,-194.895 634.861,-201.889"/>
</g>
<!-- flags__seq -->
<g id="node3" class="node"><title>flags__seq</title>
<polygon fill="#e0ffe0" stroke="none" points="704.5,-351 704.5,-372 735.5,-372 735.5,-351 704.5,-351"/>
<polygon fill="none" stroke="black" points="704.5,-351 704.5,-372 735.5,-372 735.5,-351 704.5,-351"/>
<text text-anchor="start" x="707.5" y="-357.8" font-family="Times,serif" font-size="14.00">pos</text>
<polygon fill="#e0ffe0" stroke="none" points="735.5,-351 735.5,-372 769.5,-372 769.5,-351 735.5,-351"/>
<polygon fill="none" stroke="black" points="735.5,-351 735.5,-372 769.5,-372 769.5,-351 735.5,-351"/>
<text text-anchor="start" x="738.5" y="-357.8" font-family="Times,serif" font-size="14.00">size</text>
<polygon fill="#e0ffe0" stroke="none" points="769.5,-351 769.5,-372 848.5,-372 848.5,-351 769.5,-351"/>
<polygon fill="none" stroke="black" points="769.5,-351 769.5,-372 848.5,-372 848.5,-351 769.5,-351"/>
<text text-anchor="start" x="793" y="-357.8" font-family="Times,serif" font-size="14.00">type</text>
<polygon fill="#e0ffe0" stroke="none" points="848.5,-351 848.5,-372 967.5,-372 967.5,-351 848.5,-351"/>
<polygon fill="none" stroke="black" points="848.5,-351 848.5,-372 967.5,-372 967.5,-351 848.5,-351"/>
<text text-anchor="start" x="901" y="-357.8" font-family="Times,serif" font-size="14.00">id</text>
<polygon fill="none" stroke="black" points="704.5,-330 704.5,-351 735.5,-351 735.5,-330 704.5,-330"/>
<text text-anchor="start" x="715" y="-336.8" font-family="Times,serif" font-size="14.00">0</text>
<polygon fill="none" stroke="black" points="735.5,-330 735.5,-351 769.5,-351 769.5,-330 735.5,-330"/>
<text text-anchor="start" x="743" y="-336.8" font-family="Times,serif" font-size="14.00">3b</text>
<polygon fill="none" stroke="black" points="769.5,-330 769.5,-351 848.5,-351 848.5,-330 769.5,-330"/>
<text text-anchor="start" x="799.5" y="-336.8" font-family="Times,serif" font-size="14.00">b3</text>
<polygon fill="none" stroke="black" points="848.5,-330 848.5,-351 967.5,-351 967.5,-330 848.5,-330"/>
<text text-anchor="start" x="871.5" y="-336.8" font-family="Times,serif" font-size="14.00">reserved1</text>
<polygon fill="none" stroke="black" points="704.5,-309 704.5,-330 735.5,-330 735.5,-309 704.5,-309"/>
<text text-anchor="start" x="708.5" y="-315.8" font-family="Times,serif" font-size="14.00">0:3</text>
<polygon fill="none" stroke="black" points="735.5,-309 735.5,-330 769.5,-330 769.5,-309 735.5,-309"/>
<text text-anchor="start" x="743" y="-315.8" font-family="Times,serif" font-size="14.00">1b</text>
<polygon fill="none" stroke="black" points="769.5,-309 769.5,-330 848.5,-330 848.5,-309 769.5,-309"/>
<text text-anchor="start" x="772.5" y="-315.8" font-family="Times,serif" font-size="14.00">BitsType1</text>
<polygon fill="none" stroke="black" points="848.5,-309 848.5,-330 967.5,-330 967.5,-309 848.5,-309"/>
<text text-anchor="start" x="858" y="-315.8" font-family="Times,serif" font-size="14.00">has_comment</text>
<polygon fill="none" stroke="black" points="704.5,-288 704.5,-309 735.5,-309 735.5,-288 704.5,-288"/>
<text text-anchor="start" x="708.5" y="-294.8" font-family="Times,serif" font-size="14.00">0:4</text>
<polygon fill="none" stroke="black" points="735.5,-288 735.5,-309 769.5,-309 769.5,-288 735.5,-288"/>
<text text-anchor="start" x="743" y="-294.8" font-family="Times,serif" font-size="14.00">1b</text>
<polygon fill="none" stroke="black" points="769.5,-288 769.5,-309 848.5,-309 848.5,-288 769.5,-288"/>
<text text-anchor="start" x="772.5" y="-294.8" font-family="Times,serif" font-size="14.00">BitsType1</text>
<polygon fill="none" stroke="black" points="848.5,-288 848.5,-309 967.5,-309 967.5,-288 848.5,-288"/>
<text text-anchor="start" x="872" y="-294.8" font-family="Times,serif" font-size="14.00">has_name</text>
<polygon fill="none" stroke="black" points="704.5,-267 704.5,-288 735.5,-288 735.5,-267 704.5,-267"/>
<text text-anchor="start" x="708.5" y="-273.8" font-family="Times,serif" font-size="14.00">0:5</text>
<polygon fill="none" stroke="black" points="735.5,-267 735.5,-288 769.5,-288 769.5,-267 735.5,-267"/>
<text text-anchor="start" x="743" y="-273.8" font-family="Times,serif" font-size="14.00">1b</text>
<polygon fill="none" stroke="black" points="769.5,-267 769.5,-288 848.5,-288 848.5,-267 769.5,-267"/>
<text text-anchor="start" x="772.5" y="-273.8" font-family="Times,serif" font-size="14.00">BitsType1</text>
<polygon fill="none" stroke="black" points="848.5,-267 848.5,-288 967.5,-288 967.5,-267 848.5,-267"/>
<text text-anchor="start" x="873" y="-273.8" font-family="Times,serif" font-size="14.00">has_extra</text>
<polygon fill="none" stroke="black" points="704.5,-246 704.5,-267 735.5,-267 735.5,-246 704.5,-246"/>
<text text-anchor="start" x="708.5" y="-252.8" font-family="Times,serif" font-size="14.00">0:6</text>
<polygon fill="none" stroke="black" points="735.5,-246 735.5,-267 769.5,-267 769.5,-246 735.5,-246"/>
<text text-anchor="start" x="743" y="-252.8" font-family="Times,serif" font-size="14.00">1b</text>
<polygon fill="none" stroke="black" points="769.5,-246 769.5,-267 848.5,-267 848.5,-246 769.5,-246"/>
<text text-anchor="start" x="772.5" y="-252.8" font-family="Times,serif" font-size="14.00">BitsType1</text>
<polygon fill="none" stroke="black" points="848.5,-246 848.5,-267 967.5,-267 967.5,-246 848.5,-246"/>
<text text-anchor="start" x="851.5" y="-252.8" font-family="Times,serif" font-size="14.00">has_header_crc</text>
<polygon fill="none" stroke="black" points="704.5,-225 704.5,-246 735.5,-246 735.5,-225 704.5,-225"/>
<text text-anchor="start" x="708.5" y="-231.8" font-family="Times,serif" font-size="14.00">0:7</text>
<polygon fill="none" stroke="black" points="735.5,-225 735.5,-246 769.5,-246 769.5,-225 735.5,-225"/>
<text text-anchor="start" x="743" y="-231.8" font-family="Times,serif" font-size="14.00">1b</text>
<polygon fill="none" stroke="black" points="769.5,-225 769.5,-246 848.5,-246 848.5,-225 769.5,-225"/>
<text text-anchor="start" x="772.5" y="-231.8" font-family="Times,serif" font-size="14.00">BitsType1</text>
<polygon fill="none" stroke="black" points="848.5,-225 848.5,-246 967.5,-246 967.5,-225 848.5,-225"/>
<text text-anchor="start" x="883.5" y="-231.8" font-family="Times,serif" font-size="14.00">is_text</text>
</g>
<!-- gzip__seq&#45;&gt;flags__seq -->
<g id="edge1" class="edge"><title>gzip__seq:flags_type&#45;&gt;flags__seq</title>
<path fill="none" stroke="black" stroke-width="2" d="M602.5,-241C629.77,-241 658.319,-244.818 685.696,-250.495"/>
<polygon fill="black" stroke="black" stroke-width="2" points="685.211,-253.971 695.725,-252.667 686.692,-247.13 685.211,-253.971"/>
</g>
<!-- extras__seq -->
<g id="node7" class="node"><title>extras__seq</title>
<polygon fill="#e0ffe0" stroke="none" points="683.5,-70 683.5,-91 714.5,-91 714.5,-70 683.5,-70"/>
<polygon fill="none" stroke="black" points="683.5,-70 683.5,-91 714.5,-91 714.5,-70 683.5,-70"/>
<text text-anchor="start" x="686.5" y="-76.8" font-family="Times,serif" font-size="14.00">pos</text>
<polygon fill="#e0ffe0" stroke="none" points="714.5,-70 714.5,-91 814.5,-91 814.5,-70 714.5,-70"/>
<polygon fill="none" stroke="black" points="714.5,-70 714.5,-91 814.5,-91 814.5,-70 714.5,-70"/>
<text text-anchor="start" x="750.5" y="-76.8" font-family="Times,serif" font-size="14.00">size</text>
<polygon fill="#e0ffe0" stroke="none" points="814.5,-70 814.5,-91 887.5,-91 887.5,-70 814.5,-70"/>
<polygon fill="none" stroke="black" points="814.5,-70 814.5,-91 887.5,-91 887.5,-70 814.5,-70"/>
<text text-anchor="start" x="835" y="-76.8" font-family="Times,serif" font-size="14.00">type</text>
<polygon fill="#e0ffe0" stroke="none" points="887.5,-70 887.5,-91 987.5,-91 987.5,-70 887.5,-70"/>
<polygon fill="none" stroke="black" points="887.5,-70 887.5,-91 987.5,-91 987.5,-70 887.5,-70"/>
<text text-anchor="start" x="930.5" y="-76.8" font-family="Times,serif" font-size="14.00">id</text>
<polygon fill="none" stroke="black" points="683.5,-49 683.5,-70 714.5,-70 714.5,-49 683.5,-49"/>
<text text-anchor="start" x="694" y="-55.8" font-family="Times,serif" font-size="14.00">0</text>
<polygon fill="none" stroke="black" points="714.5,-49 714.5,-70 814.5,-70 814.5,-49 714.5,-49"/>
<text text-anchor="start" x="759.5" y="-55.8" font-family="Times,serif" font-size="14.00">2</text>
<polygon fill="none" stroke="black" points="814.5,-49 814.5,-70 887.5,-70 887.5,-49 814.5,-49"/>
<text text-anchor="start" x="835.5" y="-55.8" font-family="Times,serif" font-size="14.00">u2le</text>
<polygon fill="none" stroke="black" points="887.5,-49 887.5,-70 987.5,-70 987.5,-49 887.5,-49"/>
<text text-anchor="start" x="890.5" y="-55.8" font-family="Times,serif" font-size="14.00">len_subfields</text>
<polygon fill="none" stroke="black" points="683.5,-28 683.5,-49 714.5,-49 714.5,-28 683.5,-28"/>
<text text-anchor="start" x="694" y="-34.8" font-family="Times,serif" font-size="14.00">2</text>
<polygon fill="none" stroke="black" points="714.5,-28 714.5,-49 814.5,-49 814.5,-28 714.5,-28"/>
<text text-anchor="start" x="717.5" y="-34.8" font-family="Times,serif" font-size="14.00">len_subfields</text>
<polygon fill="none" stroke="black" points="814.5,-28 814.5,-49 887.5,-49 887.5,-28 814.5,-28"/>
<text text-anchor="start" x="817.5" y="-34.8" font-family="Times,serif" font-size="14.00">Subfields</text>
<polygon fill="none" stroke="black" points="887.5,-28 887.5,-49 987.5,-49 987.5,-28 887.5,-28"/>
<text text-anchor="start" x="905" y="-34.8" font-family="Times,serif" font-size="14.00">subfields</text>
</g>
<!-- gzip__seq&#45;&gt;extras__seq -->
<g id="edge5" class="edge"><title>gzip__seq:extras_type&#45;&gt;extras__seq</title>
<path fill="none" stroke="black" stroke-width="2" d="M602.5,-156C634.1,-156 618.337,-115.96 645,-99 651.676,-94.7536 658.727,-90.9585 666.029,-87.5676"/>
<polygon fill="black" stroke="black" stroke-width="2" points="667.631,-90.6872 675.402,-83.485 664.836,-84.2695 667.631,-90.6872"/>
</g>
<!-- extra_flags_deflate__seq -->
<g id="node4" class="node"><title>extra_flags_deflate__seq</title>
<polygon fill="#e0ffe0" stroke="none" points="1070.5,-168 1070.5,-189 1101.5,-189 1101.5,-168 1070.5,-168"/>
<polygon fill="none" stroke="black" points="1070.5,-168 1070.5,-189 1101.5,-189 1101.5,-168 1070.5,-168"/>
<text text-anchor="start" x="1073.5" y="-174.8" font-family="Times,serif" font-size="14.00">pos</text>
<polygon fill="#e0ffe0" stroke="none" points="1101.5,-168 1101.5,-189 1135.5,-189 1135.5,-168 1101.5,-168"/>
<polygon fill="none" stroke="black" points="1101.5,-168 1101.5,-189 1135.5,-189 1135.5,-168 1101.5,-168"/>
<text text-anchor="start" x="1104.5" y="-174.8" font-family="Times,serif" font-size="14.00">size</text>
<polygon fill="#e0ffe0" stroke="none" points="1135.5,-168 1135.5,-189 1337.5,-189 1337.5,-168 1135.5,-168"/>
<polygon fill="none" stroke="black" points="1135.5,-168 1135.5,-189 1337.5,-189 1337.5,-168 1135.5,-168"/>
<text text-anchor="start" x="1220.5" y="-174.8" font-family="Times,serif" font-size="14.00">type</text>
<polygon fill="#e0ffe0" stroke="none" points="1337.5,-168 1337.5,-189 1503.5,-189 1503.5,-168 1337.5,-168"/>
<polygon fill="none" stroke="black" points="1337.5,-168 1337.5,-189 1503.5,-189 1503.5,-168 1337.5,-168"/>
<text text-anchor="start" x="1413.5" y="-174.8" font-family="Times,serif" font-size="14.00">id</text>
<polygon fill="none" stroke="black" points="1070.5,-147 1070.5,-168 1101.5,-168 1101.5,-147 1070.5,-147"/>
<text text-anchor="start" x="1081" y="-153.8" font-family="Times,serif" font-size="14.00">0</text>
<polygon fill="none" stroke="black" points="1101.5,-147 1101.5,-168 1135.5,-168 1135.5,-147 1101.5,-147"/>
<text text-anchor="start" x="1113.5" y="-153.8" font-family="Times,serif" font-size="14.00">1</text>
<polygon fill="none" stroke="black" points="1135.5,-147 1135.5,-168 1337.5,-168 1337.5,-147 1135.5,-147"/>
<text text-anchor="start" x="1138.5" y="-153.8" font-family="Times,serif" font-size="14.00">u1→CompressionStrengths</text>
<polygon fill="none" stroke="black" points="1337.5,-147 1337.5,-168 1503.5,-168 1503.5,-147 1337.5,-147"/>
<text text-anchor="start" x="1340.5" y="-153.8" font-family="Times,serif" font-size="14.00">compression_strength</text>
</g>
<!-- gzip__seq_extra_flags_switch&#45;&gt;extra_flags_deflate__seq -->
<g id="edge3" class="edge"><title>gzip__seq_extra_flags_switch:case0&#45;&gt;extra_flags_deflate__seq</title>
<path fill="none" stroke="black" stroke-width="2" d="M1019.5,-167C1030.11,-167 1040.95,-167.008 1051.91,-167.023"/>
<polygon fill="black" stroke="black" stroke-width="2" points="1051.99,-170.523 1061.99,-167.038 1052,-163.523 1051.99,-170.523"/>
</g>
<!-- subfields__seq -->
<g id="node5" class="node"><title>subfields__seq</title>
<polygon fill="#e0ffe0" stroke="none" points="1192.5,-70 1192.5,-91 1223.5,-91 1223.5,-70 1192.5,-70"/>
<polygon fill="none" stroke="black" points="1192.5,-70 1192.5,-91 1223.5,-91 1223.5,-70 1192.5,-70"/>
<text text-anchor="start" x="1195.5" y="-76.8" font-family="Times,serif" font-size="14.00">pos</text>
<polygon fill="#e0ffe0" stroke="none" points="1223.5,-70 1223.5,-91 1257.5,-91 1257.5,-70 1223.5,-70"/>
<polygon fill="none" stroke="black" points="1223.5,-70 1223.5,-91 1257.5,-91 1257.5,-70 1223.5,-70"/>
<text text-anchor="start" x="1226.5" y="-76.8" font-family="Times,serif" font-size="14.00">size</text>
<polygon fill="#e0ffe0" stroke="none" points="1257.5,-70 1257.5,-91 1323.5,-91 1323.5,-70 1257.5,-70"/>
<polygon fill="none" stroke="black" points="1257.5,-70 1257.5,-91 1323.5,-91 1323.5,-70 1257.5,-70"/>
<text text-anchor="start" x="1274.5" y="-76.8" font-family="Times,serif" font-size="14.00">type</text>
<polygon fill="#e0ffe0" stroke="none" points="1323.5,-70 1323.5,-91 1380.5,-91 1380.5,-70 1323.5,-70"/>
<polygon fill="none" stroke="black" points="1323.5,-70 1323.5,-91 1380.5,-91 1380.5,-70 1323.5,-70"/>
<text text-anchor="start" x="1345" y="-76.8" font-family="Times,serif" font-size="14.00">id</text>
<polygon fill="none" stroke="black" points="1192.5,-49 1192.5,-70 1223.5,-70 1223.5,-49 1192.5,-49"/>
<text text-anchor="start" x="1203" y="-55.8" font-family="Times,serif" font-size="14.00">0</text>
<polygon fill="none" stroke="black" points="1223.5,-49 1223.5,-70 1257.5,-70 1257.5,-49 1223.5,-49"/>
<text text-anchor="start" x="1233.5" y="-55.8" font-family="Times,serif" font-size="14.00">...</text>
<polygon fill="none" stroke="black" points="1257.5,-49 1257.5,-70 1323.5,-70 1323.5,-49 1257.5,-49"/>
<text text-anchor="start" x="1260.5" y="-55.8" font-family="Times,serif" font-size="14.00">Subfield</text>
<polygon fill="none" stroke="black" points="1323.5,-49 1323.5,-70 1380.5,-70 1380.5,-49 1323.5,-49"/>
<text text-anchor="start" x="1326.5" y="-55.8" font-family="Times,serif" font-size="14.00">entries</text>
<polygon fill="none" stroke="black" points="1192.5,-28 1192.5,-49 1380.5,-49 1380.5,-28 1192.5,-28"/>
<text text-anchor="start" x="1202" y="-34.8" font-family="Times,serif" font-size="14.00">repeat to end of stream</text>
</g>
<!-- subfield__seq -->
<g id="node6" class="node"><title>subfield__seq</title>
<polygon fill="#e0ffe0" stroke="none" points="1555.5,-91 1555.5,-112 1586.5,-112 1586.5,-91 1555.5,-91"/>
<polygon fill="none" stroke="black" points="1555.5,-91 1555.5,-112 1586.5,-112 1586.5,-91 1555.5,-91"/>
<text text-anchor="start" x="1558.5" y="-97.8" font-family="Times,serif" font-size="14.00">pos</text>
<polygon fill="#e0ffe0" stroke="none" points="1586.5,-91 1586.5,-112 1653.5,-112 1653.5,-91 1586.5,-91"/>
<polygon fill="none" stroke="black" points="1586.5,-91 1586.5,-112 1653.5,-112 1653.5,-91 1586.5,-91"/>
<text text-anchor="start" x="1606" y="-97.8" font-family="Times,serif" font-size="14.00">size</text>
<polygon fill="#e0ffe0" stroke="none" points="1653.5,-91 1653.5,-112 1691.5,-112 1691.5,-91 1653.5,-91"/>
<polygon fill="none" stroke="black" points="1653.5,-91 1653.5,-112 1691.5,-112 1691.5,-91 1653.5,-91"/>
<text text-anchor="start" x="1656.5" y="-97.8" font-family="Times,serif" font-size="14.00">type</text>
<polygon fill="#e0ffe0" stroke="none" points="1691.5,-91 1691.5,-112 1758.5,-112 1758.5,-91 1691.5,-91"/>
<polygon fill="none" stroke="black" points="1691.5,-91 1691.5,-112 1758.5,-112 1758.5,-91 1691.5,-91"/>
<text text-anchor="start" x="1718" y="-97.8" font-family="Times,serif" font-size="14.00">id</text>
<polygon fill="none" stroke="black" points="1555.5,-70 1555.5,-91 1586.5,-91 1586.5,-70 1555.5,-70"/>
<text text-anchor="start" x="1566" y="-76.8" font-family="Times,serif" font-size="14.00">0</text>
<polygon fill="none" stroke="black" points="1586.5,-70 1586.5,-91 1653.5,-91 1653.5,-70 1586.5,-70"/>
<text text-anchor="start" x="1615" y="-76.8" font-family="Times,serif" font-size="14.00">2</text>
<polygon fill="none" stroke="black" points="1653.5,-70 1653.5,-91 1691.5,-91 1691.5,-70 1653.5,-70"/>
<text text-anchor="start" x="1657" y="-76.8" font-family="Times,serif" font-size="14.00">u2le</text>
<polygon fill="none" stroke="black" points="1691.5,-70 1691.5,-91 1758.5,-91 1758.5,-70 1691.5,-70"/>
<text text-anchor="start" x="1718" y="-76.8" font-family="Times,serif" font-size="14.00">id</text>
<polygon fill="none" stroke="black" points="1555.5,-49 1555.5,-70 1586.5,-70 1586.5,-49 1555.5,-49"/>
<text text-anchor="start" x="1566" y="-55.8" font-family="Times,serif" font-size="14.00">2</text>
<polygon fill="none" stroke="black" points="1586.5,-49 1586.5,-70 1653.5,-70 1653.5,-49 1586.5,-49"/>
<text text-anchor="start" x="1615" y="-55.8" font-family="Times,serif" font-size="14.00">2</text>
<polygon fill="none" stroke="black" points="1653.5,-49 1653.5,-70 1691.5,-70 1691.5,-49 1653.5,-49"/>
<text text-anchor="start" x="1657" y="-55.8" font-family="Times,serif" font-size="14.00">u2le</text>
<polygon fill="none" stroke="black" points="1691.5,-49 1691.5,-70 1758.5,-70 1758.5,-49 1691.5,-49"/>
<text text-anchor="start" x="1694.5" y="-55.8" font-family="Times,serif" font-size="14.00">len_data</text>
<polygon fill="none" stroke="black" points="1555.5,-28 1555.5,-49 1586.5,-49 1586.5,-28 1555.5,-28"/>
<text text-anchor="start" x="1566" y="-34.8" font-family="Times,serif" font-size="14.00">4</text>
<polygon fill="none" stroke="black" points="1586.5,-28 1586.5,-49 1653.5,-49 1653.5,-28 1586.5,-28"/>
<text text-anchor="start" x="1589.5" y="-34.8" font-family="Times,serif" font-size="14.00">len_data</text>
<polygon fill="none" stroke="black" points="1653.5,-28 1653.5,-49 1691.5,-49 1691.5,-28 1653.5,-28"/>
<polygon fill="none" stroke="black" points="1691.5,-28 1691.5,-49 1758.5,-49 1758.5,-28 1691.5,-28"/>
<text text-anchor="start" x="1709" y="-34.8" font-family="Times,serif" font-size="14.00">data</text>
</g>
<!-- subfields__seq&#45;&gt;subfield__seq -->
<g id="edge6" class="edge"><title>subfields__seq:entries_type&#45;&gt;subfield__seq</title>
<path fill="none" stroke="black" stroke-width="2" d="M1381.5,-59C1432.39,-59 1488.56,-60.918 1536.72,-63.1521"/>
<polygon fill="black" stroke="black" stroke-width="2" points="1536.71,-66.6558 1546.87,-63.6331 1537.05,-59.6636 1536.71,-66.6558"/>
</g>
<!-- subfield__seq&#45;&gt;subfield__seq -->
<g id="edge7" class="edge"><title>subfield__seq:len_data_type&#45;&gt;subfield__seq:data_size</title>
<path fill="none" stroke="#404040" d="M1758.5,-69.511C1815.2,-94.1854 1797.82,-134 1672.5,-134 1553.22,-134 1531.73,-83.8231 1578.81,-53.9834"/>
<polygon fill="#404040" stroke="#404040" points="1580.65,-56.9638 1587.66,-49.0224 1577.23,-50.857 1580.65,-56.9638"/>
</g>
<!-- extras__seq&#45;&gt;subfields__seq -->
<g id="edge9" class="edge"><title>extras__seq:subfields_type&#45;&gt;subfields__seq</title>
<path fill="none" stroke="black" stroke-width="2" d="M988.5,-38C1049.95,-38 1118.36,-42.742 1174.02,-47.8228"/>
<polygon fill="black" stroke="black" stroke-width="2" points="1173.98,-51.334 1184.26,-48.7744 1174.63,-44.3641 1173.98,-51.334"/>
</g>
<!-- extras__seq&#45;&gt;extras__seq -->
<g id="edge8" class="edge"><title>extras__seq:len_subfields_type&#45;&gt;extras__seq:subfields_size</title>
<path fill="none" stroke="#404040" d="M986.746,-70.1155C1043.57,-88.8265 1014.24,-113.5 851,-113.5 692.644,-113.5 660.301,-76.9834 710.385,-53.0809"/>
<polygon fill="#404040" stroke="#404040" points="712.043,-56.1803 719.896,-49.0687 709.322,-49.7306 712.043,-56.1803"/>
</g>
</g>
</svg>
