<?xml version="1.0" encoding="UTF-8" standalone="no"?>
<!DOCTYPE svg PUBLIC "-//W3C//DTD SVG 1.1//EN"
 "http://www.w3.org/Graphics/SVG/1.1/DTD/svg11.dtd">
<!-- Generated by graphviz version 2.40.1 (20161225.0304)
 -->
<!-- Title: %3 Pages: 1 -->
<svg width="1885pt" height="497pt"
 viewBox="0.00 0.00 1885.00 496.71" xmlns="http://www.w3.org/2000/svg" xmlns:xlink="http://www.w3.org/1999/xlink">
<g id="graph0" class="graph" transform="scale(1 1) rotate(0) translate(4 492.7117)">
<title>%3</title>
<polygon fill="#ffffff" stroke="transparent" points="-4,4 -4,-492.7117 1881,-492.7117 1881,4 -4,4"/>
<g id="clust1" class="cluster">
<title>cluster__luks</title>
<polygon fill="none" stroke="#000000" stroke-dasharray="1,5" points="8,-42.7117 8,-480.7117 1869,-480.7117 1869,-42.7117 8,-42.7117"/>
<text text-anchor="middle" x="938.5" y="-465.5117" font-family="Times,serif" font-size="14.00" fill="#000000">Luks</text>
</g>
<g id="clust2" class="cluster">
<title>cluster__partition_header</title>
<polygon fill="none" stroke="#000000" stroke-dasharray="1,5" points="300,-50.7117 300,-391.7117 1861,-391.7117 1861,-50.7117 300,-50.7117"/>
<text text-anchor="middle" x="1080.5" y="-376.5117" font-family="Times,serif" font-size="14.00" fill="#000000">Luks::PartitionHeader</text>
</g>
<g id="clust3" class="cluster">
<title>cluster__key_slot</title>
<polygon fill="none" stroke="#000000" stroke-dasharray="1,5" points="715,-58.7117 715,-231.7117 1853,-231.7117 1853,-58.7117 715,-58.7117"/>
<text text-anchor="middle" x="1284" y="-216.5117" font-family="Times,serif" font-size="14.00" fill="#000000">Luks::PartitionHeader::KeySlot</text>
</g>
<!-- luks__seq -->
<g id="node1" class="node">
<title>luks__seq</title>
<polygon fill="#e0ffe0" stroke="transparent" points="24,-220.7117 24,-241.7117 49,-241.7117 49,-220.7117 24,-220.7117"/>
<polygon fill="none" stroke="#000000" points="24,-220.7117 24,-241.7117 49,-241.7117 49,-220.7117 24,-220.7117"/>
<text text-anchor="start" x="27" y="-227.5117" font-family="Times,serif" font-size="14.00" fill="#000000">pos</text>
<polygon fill="#e0ffe0" stroke="transparent" points="49,-220.7117 49,-241.7117 77,-241.7117 77,-220.7117 49,-220.7117"/>
<polygon fill="none" stroke="#000000" points="49,-220.7117 49,-241.7117 77,-241.7117 77,-220.7117 49,-220.7117"/>
<text text-anchor="start" x="52" y="-227.5117" font-family="Times,serif" font-size="14.00" fill="#000000">size</text>
<polygon fill="#e0ffe0" stroke="transparent" points="77,-220.7117 77,-241.7117 169,-241.7117 169,-220.7117 77,-220.7117"/>
<polygon fill="none" stroke="#000000" points="77,-220.7117 77,-241.7117 169,-241.7117 169,-220.7117 77,-220.7117"/>
<text text-anchor="start" x="111" y="-227.5117" font-family="Times,serif" font-size="14.00" fill="#000000">type</text>
<polygon fill="#e0ffe0" stroke="transparent" points="169,-220.7117 169,-241.7117 264,-241.7117 264,-220.7117 169,-220.7117"/>
<polygon fill="none" stroke="#000000" points="169,-220.7117 169,-241.7117 264,-241.7117 264,-220.7117 169,-220.7117"/>
<text text-anchor="start" x="211" y="-227.5117" font-family="Times,serif" font-size="14.00" fill="#000000">id</text>
<polygon fill="none" stroke="#000000" points="24,-199.7117 24,-220.7117 49,-220.7117 49,-199.7117 24,-199.7117"/>
<text text-anchor="start" x="33" y="-206.5117" font-family="Times,serif" font-size="14.00" fill="#000000">0</text>
<polygon fill="none" stroke="#000000" points="49,-199.7117 49,-220.7117 77,-220.7117 77,-199.7117 49,-199.7117"/>
<text text-anchor="start" x="52.5" y="-206.5117" font-family="Times,serif" font-size="14.00" fill="#000000">592</text>
<polygon fill="none" stroke="#000000" points="77,-199.7117 77,-220.7117 169,-220.7117 169,-199.7117 77,-199.7117"/>
<text text-anchor="start" x="80" y="-206.5117" font-family="Times,serif" font-size="14.00" fill="#000000">PartitionHeader</text>
<polygon fill="none" stroke="#000000" points="169,-199.7117 169,-220.7117 264,-220.7117 264,-199.7117 169,-199.7117"/>
<text text-anchor="start" x="172" y="-206.5117" font-family="Times,serif" font-size="14.00" fill="#000000">partition_header</text>
</g>
<!-- partition_header__seq -->
<g id="node3" class="node">
<title>partition_header__seq</title>
<polygon fill="#e0ffe0" stroke="transparent" points="316.5,-335.7117 316.5,-356.7117 343.5,-356.7117 343.5,-335.7117 316.5,-335.7117"/>
<polygon fill="none" stroke="#000000" points="316.5,-335.7117 316.5,-356.7117 343.5,-356.7117 343.5,-335.7117 316.5,-335.7117"/>
<text text-anchor="start" x="320.5" y="-342.5117" font-family="Times,serif" font-size="14.00" fill="#000000">pos</text>
<polygon fill="#e0ffe0" stroke="transparent" points="343.5,-335.7117 343.5,-356.7117 371.5,-356.7117 371.5,-335.7117 343.5,-335.7117"/>
<polygon fill="none" stroke="#000000" points="343.5,-335.7117 343.5,-356.7117 371.5,-356.7117 371.5,-335.7117 343.5,-335.7117"/>
<text text-anchor="start" x="346.5" y="-342.5117" font-family="Times,serif" font-size="14.00" fill="#000000">size</text>
<polygon fill="#e0ffe0" stroke="transparent" points="371.5,-335.7117 371.5,-356.7117 491.5,-356.7117 491.5,-335.7117 371.5,-335.7117"/>
<polygon fill="none" stroke="#000000" points="371.5,-335.7117 371.5,-356.7117 491.5,-356.7117 491.5,-335.7117 371.5,-335.7117"/>
<text text-anchor="start" x="419.5" y="-342.5117" font-family="Times,serif" font-size="14.00" fill="#000000">type</text>
<polygon fill="#e0ffe0" stroke="transparent" points="491.5,-335.7117 491.5,-356.7117 679.5,-356.7117 679.5,-335.7117 491.5,-335.7117"/>
<polygon fill="none" stroke="#000000" points="491.5,-335.7117 491.5,-356.7117 679.5,-356.7117 679.5,-335.7117 491.5,-335.7117"/>
<text text-anchor="start" x="580" y="-342.5117" font-family="Times,serif" font-size="14.00" fill="#000000">id</text>
<polygon fill="none" stroke="#000000" points="316.5,-314.7117 316.5,-335.7117 343.5,-335.7117 343.5,-314.7117 316.5,-314.7117"/>
<text text-anchor="start" x="326.5" y="-321.5117" font-family="Times,serif" font-size="14.00" fill="#000000">0</text>
<polygon fill="none" stroke="#000000" points="343.5,-314.7117 343.5,-335.7117 371.5,-335.7117 371.5,-314.7117 343.5,-314.7117"/>
<text text-anchor="start" x="354" y="-321.5117" font-family="Times,serif" font-size="14.00" fill="#000000">6</text>
<polygon fill="none" stroke="#000000" points="371.5,-314.7117 371.5,-335.7117 491.5,-335.7117 491.5,-314.7117 371.5,-314.7117"/>
<text text-anchor="start" x="374.5" y="-321.5117" font-family="Times,serif" font-size="14.00" fill="#000000">4C 55 4B 53 BA BE</text>
<polygon fill="none" stroke="#000000" points="491.5,-314.7117 491.5,-335.7117 679.5,-335.7117 679.5,-314.7117 491.5,-314.7117"/>
<text text-anchor="start" x="568.5" y="-321.5117" font-family="Times,serif" font-size="14.00" fill="#000000">magic</text>
<polygon fill="none" stroke="#000000" points="316.5,-293.7117 316.5,-314.7117 343.5,-314.7117 343.5,-293.7117 316.5,-293.7117"/>
<text text-anchor="start" x="326.5" y="-300.5117" font-family="Times,serif" font-size="14.00" fill="#000000">6</text>
<polygon fill="none" stroke="#000000" points="343.5,-293.7117 343.5,-314.7117 371.5,-314.7117 371.5,-293.7117 343.5,-293.7117"/>
<text text-anchor="start" x="354" y="-300.5117" font-family="Times,serif" font-size="14.00" fill="#000000">2</text>
<polygon fill="none" stroke="#000000" points="371.5,-293.7117 371.5,-314.7117 491.5,-314.7117 491.5,-293.7117 371.5,-293.7117"/>
<text text-anchor="start" x="416" y="-300.5117" font-family="Times,serif" font-size="14.00" fill="#000000">00 01</text>
<polygon fill="none" stroke="#000000" points="491.5,-293.7117 491.5,-314.7117 679.5,-314.7117 679.5,-293.7117 491.5,-293.7117"/>
<text text-anchor="start" x="565.5" y="-300.5117" font-family="Times,serif" font-size="14.00" fill="#000000">version</text>
<polygon fill="none" stroke="#000000" points="316.5,-272.7117 316.5,-293.7117 343.5,-293.7117 343.5,-272.7117 316.5,-272.7117"/>
<text text-anchor="start" x="326.5" y="-279.5117" font-family="Times,serif" font-size="14.00" fill="#000000">8</text>
<polygon fill="none" stroke="#000000" points="343.5,-272.7117 343.5,-293.7117 371.5,-293.7117 371.5,-272.7117 343.5,-272.7117"/>
<text text-anchor="start" x="350.5" y="-279.5117" font-family="Times,serif" font-size="14.00" fill="#000000">32</text>
<polygon fill="none" stroke="#000000" points="371.5,-272.7117 371.5,-293.7117 491.5,-293.7117 491.5,-272.7117 371.5,-272.7117"/>
<text text-anchor="start" x="402.5" y="-279.5117" font-family="Times,serif" font-size="14.00" fill="#000000">str(ASCII)</text>
<polygon fill="none" stroke="#000000" points="491.5,-272.7117 491.5,-293.7117 679.5,-293.7117 679.5,-272.7117 491.5,-272.7117"/>
<text text-anchor="start" x="512" y="-279.5117" font-family="Times,serif" font-size="14.00" fill="#000000">cipher_name_specification</text>
<polygon fill="none" stroke="#000000" points="316.5,-251.7117 316.5,-272.7117 343.5,-272.7117 343.5,-251.7117 316.5,-251.7117"/>
<text text-anchor="start" x="323" y="-258.5117" font-family="Times,serif" font-size="14.00" fill="#000000">40</text>
<polygon fill="none" stroke="#000000" points="343.5,-251.7117 343.5,-272.7117 371.5,-272.7117 371.5,-251.7117 343.5,-251.7117"/>
<text text-anchor="start" x="350.5" y="-258.5117" font-family="Times,serif" font-size="14.00" fill="#000000">32</text>
<polygon fill="none" stroke="#000000" points="371.5,-251.7117 371.5,-272.7117 491.5,-272.7117 491.5,-251.7117 371.5,-251.7117"/>
<text text-anchor="start" x="402.5" y="-258.5117" font-family="Times,serif" font-size="14.00" fill="#000000">str(ASCII)</text>
<polygon fill="none" stroke="#000000" points="491.5,-251.7117 491.5,-272.7117 679.5,-272.7117 679.5,-251.7117 491.5,-251.7117"/>
<text text-anchor="start" x="511.5" y="-258.5117" font-family="Times,serif" font-size="14.00" fill="#000000">cipher_mode_specification</text>
<polygon fill="none" stroke="#000000" points="316.5,-230.7117 316.5,-251.7117 343.5,-251.7117 343.5,-230.7117 316.5,-230.7117"/>
<text text-anchor="start" x="323" y="-237.5117" font-family="Times,serif" font-size="14.00" fill="#000000">72</text>
<polygon fill="none" stroke="#000000" points="343.5,-230.7117 343.5,-251.7117 371.5,-251.7117 371.5,-230.7117 343.5,-230.7117"/>
<text text-anchor="start" x="350.5" y="-237.5117" font-family="Times,serif" font-size="14.00" fill="#000000">32</text>
<polygon fill="none" stroke="#000000" points="371.5,-230.7117 371.5,-251.7117 491.5,-251.7117 491.5,-230.7117 371.5,-230.7117"/>
<text text-anchor="start" x="402.5" y="-237.5117" font-family="Times,serif" font-size="14.00" fill="#000000">str(ASCII)</text>
<polygon fill="none" stroke="#000000" points="491.5,-230.7117 491.5,-251.7117 679.5,-251.7117 679.5,-230.7117 491.5,-230.7117"/>
<text text-anchor="start" x="535" y="-237.5117" font-family="Times,serif" font-size="14.00" fill="#000000">hash_specification</text>
<polygon fill="none" stroke="#000000" points="316.5,-209.7117 316.5,-230.7117 343.5,-230.7117 343.5,-209.7117 316.5,-209.7117"/>
<text text-anchor="start" x="319.5" y="-216.5117" font-family="Times,serif" font-size="14.00" fill="#000000">104</text>
<polygon fill="none" stroke="#000000" points="343.5,-209.7117 343.5,-230.7117 371.5,-230.7117 371.5,-209.7117 343.5,-209.7117"/>
<text text-anchor="start" x="354" y="-216.5117" font-family="Times,serif" font-size="14.00" fill="#000000">4</text>
<polygon fill="none" stroke="#000000" points="371.5,-209.7117 371.5,-230.7117 491.5,-230.7117 491.5,-209.7117 371.5,-209.7117"/>
<text text-anchor="start" x="418" y="-216.5117" font-family="Times,serif" font-size="14.00" fill="#000000">u4be</text>
<polygon fill="none" stroke="#000000" points="491.5,-209.7117 491.5,-230.7117 679.5,-230.7117 679.5,-209.7117 491.5,-209.7117"/>
<text text-anchor="start" x="545" y="-216.5117" font-family="Times,serif" font-size="14.00" fill="#000000">payload_offset</text>
<polygon fill="none" stroke="#000000" points="316.5,-188.7117 316.5,-209.7117 343.5,-209.7117 343.5,-188.7117 316.5,-188.7117"/>
<text text-anchor="start" x="319.5" y="-195.5117" font-family="Times,serif" font-size="14.00" fill="#000000">108</text>
<polygon fill="none" stroke="#000000" points="343.5,-188.7117 343.5,-209.7117 371.5,-209.7117 371.5,-188.7117 343.5,-188.7117"/>
<text text-anchor="start" x="354" y="-195.5117" font-family="Times,serif" font-size="14.00" fill="#000000">4</text>
<polygon fill="none" stroke="#000000" points="371.5,-188.7117 371.5,-209.7117 491.5,-209.7117 491.5,-188.7117 371.5,-188.7117"/>
<text text-anchor="start" x="418" y="-195.5117" font-family="Times,serif" font-size="14.00" fill="#000000">u4be</text>
<polygon fill="none" stroke="#000000" points="491.5,-188.7117 491.5,-209.7117 679.5,-209.7117 679.5,-188.7117 491.5,-188.7117"/>
<text text-anchor="start" x="524.5" y="-195.5117" font-family="Times,serif" font-size="14.00" fill="#000000">number_of_key_bytes</text>
<polygon fill="none" stroke="#000000" points="316.5,-167.7117 316.5,-188.7117 343.5,-188.7117 343.5,-167.7117 316.5,-167.7117"/>
<text text-anchor="start" x="319.5" y="-174.5117" font-family="Times,serif" font-size="14.00" fill="#000000">112</text>
<polygon fill="none" stroke="#000000" points="343.5,-167.7117 343.5,-188.7117 371.5,-188.7117 371.5,-167.7117 343.5,-167.7117"/>
<text text-anchor="start" x="350.5" y="-174.5117" font-family="Times,serif" font-size="14.00" fill="#000000">20</text>
<polygon fill="none" stroke="#000000" points="371.5,-167.7117 371.5,-188.7117 491.5,-188.7117 491.5,-167.7117 371.5,-167.7117"/>
<polygon fill="none" stroke="#000000" points="491.5,-167.7117 491.5,-188.7117 679.5,-188.7117 679.5,-167.7117 491.5,-167.7117"/>
<text text-anchor="start" x="523" y="-174.5117" font-family="Times,serif" font-size="14.00" fill="#000000">master_key_checksum</text>
<polygon fill="none" stroke="#000000" points="316.5,-146.7117 316.5,-167.7117 343.5,-167.7117 343.5,-146.7117 316.5,-146.7117"/>
<text text-anchor="start" x="319.5" y="-153.5117" font-family="Times,serif" font-size="14.00" fill="#000000">132</text>
<polygon fill="none" stroke="#000000" points="343.5,-146.7117 343.5,-167.7117 371.5,-167.7117 371.5,-146.7117 343.5,-146.7117"/>
<text text-anchor="start" x="350.5" y="-153.5117" font-family="Times,serif" font-size="14.00" fill="#000000">32</text>
<polygon fill="none" stroke="#000000" points="371.5,-146.7117 371.5,-167.7117 491.5,-167.7117 491.5,-146.7117 371.5,-146.7117"/>
<polygon fill="none" stroke="#000000" points="491.5,-146.7117 491.5,-167.7117 679.5,-167.7117 679.5,-146.7117 491.5,-146.7117"/>
<text text-anchor="start" x="510" y="-153.5117" font-family="Times,serif" font-size="14.00" fill="#000000">master_key_salt_parameter</text>
<polygon fill="none" stroke="#000000" points="316.5,-125.7117 316.5,-146.7117 343.5,-146.7117 343.5,-125.7117 316.5,-125.7117"/>
<text text-anchor="start" x="319.5" y="-132.5117" font-family="Times,serif" font-size="14.00" fill="#000000">164</text>
<polygon fill="none" stroke="#000000" points="343.5,-125.7117 343.5,-146.7117 371.5,-146.7117 371.5,-125.7117 343.5,-125.7117"/>
<text text-anchor="start" x="354" y="-132.5117" font-family="Times,serif" font-size="14.00" fill="#000000">4</text>
<polygon fill="none" stroke="#000000" points="371.5,-125.7117 371.5,-146.7117 491.5,-146.7117 491.5,-125.7117 371.5,-125.7117"/>
<text text-anchor="start" x="418" y="-132.5117" font-family="Times,serif" font-size="14.00" fill="#000000">u4be</text>
<polygon fill="none" stroke="#000000" points="491.5,-125.7117 491.5,-146.7117 679.5,-146.7117 679.5,-125.7117 491.5,-125.7117"/>
<text text-anchor="start" x="494.5" y="-132.5117" font-family="Times,serif" font-size="14.00" fill="#000000">master_key_iterations_parameter</text>
<polygon fill="none" stroke="#000000" points="316.5,-104.7117 316.5,-125.7117 343.5,-125.7117 343.5,-104.7117 316.5,-104.7117"/>
<text text-anchor="start" x="319.5" y="-111.5117" font-family="Times,serif" font-size="14.00" fill="#000000">168</text>
<polygon fill="none" stroke="#000000" points="343.5,-104.7117 343.5,-125.7117 371.5,-125.7117 371.5,-104.7117 343.5,-104.7117"/>
<text text-anchor="start" x="350.5" y="-111.5117" font-family="Times,serif" font-size="14.00" fill="#000000">40</text>
<polygon fill="none" stroke="#000000" points="371.5,-104.7117 371.5,-125.7117 491.5,-125.7117 491.5,-104.7117 371.5,-104.7117"/>
<text text-anchor="start" x="402.5" y="-111.5117" font-family="Times,serif" font-size="14.00" fill="#000000">str(ASCII)</text>
<polygon fill="none" stroke="#000000" points="491.5,-104.7117 491.5,-125.7117 679.5,-125.7117 679.5,-104.7117 491.5,-104.7117"/>
<text text-anchor="start" x="573" y="-111.5117" font-family="Times,serif" font-size="14.00" fill="#000000">uuid</text>
<polygon fill="none" stroke="#000000" points="316.5,-83.7117 316.5,-104.7117 343.5,-104.7117 343.5,-83.7117 316.5,-83.7117"/>
<text text-anchor="start" x="319.5" y="-90.5117" font-family="Times,serif" font-size="14.00" fill="#000000">208</text>
<polygon fill="none" stroke="#000000" points="343.5,-83.7117 343.5,-104.7117 371.5,-104.7117 371.5,-83.7117 343.5,-83.7117"/>
<text text-anchor="start" x="350.5" y="-90.5117" font-family="Times,serif" font-size="14.00" fill="#000000">48</text>
<polygon fill="none" stroke="#000000" points="371.5,-83.7117 371.5,-104.7117 491.5,-104.7117 491.5,-83.7117 371.5,-83.7117"/>
<text text-anchor="start" x="409" y="-90.5117" font-family="Times,serif" font-size="14.00" fill="#000000">KeySlot</text>
<polygon fill="none" stroke="#000000" points="491.5,-83.7117 491.5,-104.7117 679.5,-104.7117 679.5,-83.7117 491.5,-83.7117"/>
<text text-anchor="start" x="559.5" y="-90.5117" font-family="Times,serif" font-size="14.00" fill="#000000">key_slots</text>
<polygon fill="none" stroke="#000000" points="316.5,-62.7117 316.5,-83.7117 679.5,-83.7117 679.5,-62.7117 316.5,-62.7117"/>
<text text-anchor="start" x="459" y="-69.5117" font-family="Times,serif" font-size="14.00" fill="#000000">repeat 8 times</text>
</g>
<!-- luks__seq&#45;&gt;partition_header__seq -->
<g id="edge1" class="edge">
<title>luks__seq:partition_header_type&#45;&gt;partition_header__seq</title>
<path fill="none" stroke="#000000" stroke-width="2" d="M264,-209.7117C275.0522,-209.7117 286.3987,-209.7117 297.8514,-209.7117"/>
<polygon fill="#000000" stroke="#000000" stroke-width="2" points="297.9385,-213.2118 307.9385,-209.7117 297.9384,-206.2118 297.9385,-213.2118"/>
</g>
<!-- luks__inst__payload -->
<g id="node2" class="node">
<title>luks__inst__payload</title>
<polygon fill="#e0ffe0" stroke="transparent" points="747.5,-424.7117 747.5,-445.7117 970.5,-445.7117 970.5,-424.7117 747.5,-424.7117"/>
<polygon fill="none" stroke="#000000" points="747.5,-424.7117 747.5,-445.7117 970.5,-445.7117 970.5,-424.7117 747.5,-424.7117"/>
<text text-anchor="start" x="849.5" y="-431.5117" font-family="Times,serif" font-size="14.00" fill="#000000">pos</text>
<polygon fill="#e0ffe0" stroke="transparent" points="970.5,-424.7117 970.5,-445.7117 998.5,-445.7117 998.5,-424.7117 970.5,-424.7117"/>
<polygon fill="none" stroke="#000000" points="970.5,-424.7117 970.5,-445.7117 998.5,-445.7117 998.5,-424.7117 970.5,-424.7117"/>
<text text-anchor="start" x="973.5" y="-431.5117" font-family="Times,serif" font-size="14.00" fill="#000000">size</text>
<polygon fill="#e0ffe0" stroke="transparent" points="998.5,-424.7117 998.5,-445.7117 1028.5,-445.7117 1028.5,-424.7117 998.5,-424.7117"/>
<polygon fill="none" stroke="#000000" points="998.5,-424.7117 998.5,-445.7117 1028.5,-445.7117 1028.5,-424.7117 998.5,-424.7117"/>
<text text-anchor="start" x="1001.5" y="-431.5117" font-family="Times,serif" font-size="14.00" fill="#000000">type</text>
<polygon fill="#e0ffe0" stroke="transparent" points="1028.5,-424.7117 1028.5,-445.7117 1077.5,-445.7117 1077.5,-424.7117 1028.5,-424.7117"/>
<polygon fill="none" stroke="#000000" points="1028.5,-424.7117 1028.5,-445.7117 1077.5,-445.7117 1077.5,-424.7117 1028.5,-424.7117"/>
<text text-anchor="start" x="1047.5" y="-431.5117" font-family="Times,serif" font-size="14.00" fill="#000000">id</text>
<polygon fill="none" stroke="#000000" points="747.5,-403.7117 747.5,-424.7117 970.5,-424.7117 970.5,-403.7117 747.5,-403.7117"/>
<text text-anchor="start" x="750.5" y="-410.5117" font-family="Times,serif" font-size="14.00" fill="#000000">(partition_header.payload_offset * 512)</text>
<polygon fill="none" stroke="#000000" points="970.5,-403.7117 970.5,-424.7117 998.5,-424.7117 998.5,-403.7117 970.5,-403.7117"/>
<text text-anchor="start" x="978" y="-410.5117" font-family="Times,serif" font-size="14.00" fill="#000000">⇲</text>
<polygon fill="none" stroke="#000000" points="998.5,-403.7117 998.5,-424.7117 1028.5,-424.7117 1028.5,-403.7117 998.5,-403.7117"/>
<polygon fill="none" stroke="#000000" points="1028.5,-403.7117 1028.5,-424.7117 1077.5,-424.7117 1077.5,-403.7117 1028.5,-403.7117"/>
<text text-anchor="start" x="1031.5" y="-410.5117" font-family="Times,serif" font-size="14.00" fill="#000000">payload</text>
</g>
<!-- partition_header__seq&#45;&gt;luks__inst__payload -->
<g id="edge2" class="edge">
<title>partition_header__seq:payload_offset_type&#45;&gt;luks__inst__payload:payload_pos</title>
<path fill="none" stroke="#404040" d="M679.5,-220.7117C758.862,-220.7117 668.0795,-331.7056 715,-395.7117 722.4742,-405.9075 727.8755,-411.0422 737.4072,-412.8891"/>
<polygon fill="#404040" stroke="#404040" points="737.2487,-416.3877 747.5,-413.7117 737.8174,-409.4108 737.2487,-416.3877"/>
</g>
<!-- key_slot__seq -->
<g id="node4" class="node">
<title>key_slot__seq</title>
<polygon fill="#e0ffe0" stroke="transparent" points="731.5,-175.7117 731.5,-196.7117 756.5,-196.7117 756.5,-175.7117 731.5,-175.7117"/>
<polygon fill="none" stroke="#000000" points="731.5,-175.7117 731.5,-196.7117 756.5,-196.7117 756.5,-175.7117 731.5,-175.7117"/>
<text text-anchor="start" x="734.5" y="-182.5117" font-family="Times,serif" font-size="14.00" fill="#000000">pos</text>
<polygon fill="#e0ffe0" stroke="transparent" points="756.5,-175.7117 756.5,-196.7117 784.5,-196.7117 784.5,-175.7117 756.5,-175.7117"/>
<polygon fill="none" stroke="#000000" points="756.5,-175.7117 756.5,-196.7117 784.5,-196.7117 784.5,-175.7117 756.5,-175.7117"/>
<text text-anchor="start" x="759.5" y="-182.5117" font-family="Times,serif" font-size="14.00" fill="#000000">size</text>
<polygon fill="#e0ffe0" stroke="transparent" points="784.5,-175.7117 784.5,-196.7117 908.5,-196.7117 908.5,-175.7117 784.5,-175.7117"/>
<polygon fill="none" stroke="#000000" points="784.5,-175.7117 784.5,-196.7117 908.5,-196.7117 908.5,-175.7117 784.5,-175.7117"/>
<text text-anchor="start" x="834.5" y="-182.5117" font-family="Times,serif" font-size="14.00" fill="#000000">type</text>
<polygon fill="#e0ffe0" stroke="transparent" points="908.5,-175.7117 908.5,-196.7117 1094.5,-196.7117 1094.5,-175.7117 908.5,-175.7117"/>
<polygon fill="none" stroke="#000000" points="908.5,-175.7117 908.5,-196.7117 1094.5,-196.7117 1094.5,-175.7117 908.5,-175.7117"/>
<text text-anchor="start" x="996" y="-182.5117" font-family="Times,serif" font-size="14.00" fill="#000000">id</text>
<polygon fill="none" stroke="#000000" points="731.5,-154.7117 731.5,-175.7117 756.5,-175.7117 756.5,-154.7117 731.5,-154.7117"/>
<text text-anchor="start" x="740.5" y="-161.5117" font-family="Times,serif" font-size="14.00" fill="#000000">0</text>
<polygon fill="none" stroke="#000000" points="756.5,-154.7117 756.5,-175.7117 784.5,-175.7117 784.5,-154.7117 756.5,-154.7117"/>
<text text-anchor="start" x="767" y="-161.5117" font-family="Times,serif" font-size="14.00" fill="#000000">4</text>
<polygon fill="none" stroke="#000000" points="784.5,-154.7117 784.5,-175.7117 908.5,-175.7117 908.5,-154.7117 784.5,-154.7117"/>
<text text-anchor="start" x="787.5" y="-161.5117" font-family="Times,serif" font-size="14.00" fill="#000000">u4be→KeySlotStates</text>
<polygon fill="none" stroke="#000000" points="908.5,-154.7117 908.5,-175.7117 1094.5,-175.7117 1094.5,-154.7117 908.5,-154.7117"/>
<text text-anchor="start" x="953.5" y="-161.5117" font-family="Times,serif" font-size="14.00" fill="#000000">state_of_key_slot</text>
<polygon fill="none" stroke="#000000" points="731.5,-133.7117 731.5,-154.7117 756.5,-154.7117 756.5,-133.7117 731.5,-133.7117"/>
<text text-anchor="start" x="740.5" y="-140.5117" font-family="Times,serif" font-size="14.00" fill="#000000">4</text>
<polygon fill="none" stroke="#000000" points="756.5,-133.7117 756.5,-154.7117 784.5,-154.7117 784.5,-133.7117 756.5,-133.7117"/>
<text text-anchor="start" x="767" y="-140.5117" font-family="Times,serif" font-size="14.00" fill="#000000">4</text>
<polygon fill="none" stroke="#000000" points="784.5,-133.7117 784.5,-154.7117 908.5,-154.7117 908.5,-133.7117 784.5,-133.7117"/>
<text text-anchor="start" x="833" y="-140.5117" font-family="Times,serif" font-size="14.00" fill="#000000">u4be</text>
<polygon fill="none" stroke="#000000" points="908.5,-133.7117 908.5,-154.7117 1094.5,-154.7117 1094.5,-133.7117 908.5,-133.7117"/>
<text text-anchor="start" x="948" y="-140.5117" font-family="Times,serif" font-size="14.00" fill="#000000">iteration_parameter</text>
<polygon fill="none" stroke="#000000" points="731.5,-112.7117 731.5,-133.7117 756.5,-133.7117 756.5,-112.7117 731.5,-112.7117"/>
<text text-anchor="start" x="740.5" y="-119.5117" font-family="Times,serif" font-size="14.00" fill="#000000">8</text>
<polygon fill="none" stroke="#000000" points="756.5,-112.7117 756.5,-133.7117 784.5,-133.7117 784.5,-112.7117 756.5,-112.7117"/>
<text text-anchor="start" x="763.5" y="-119.5117" font-family="Times,serif" font-size="14.00" fill="#000000">32</text>
<polygon fill="none" stroke="#000000" points="784.5,-112.7117 784.5,-133.7117 908.5,-133.7117 908.5,-112.7117 784.5,-112.7117"/>
<polygon fill="none" stroke="#000000" points="908.5,-112.7117 908.5,-133.7117 1094.5,-133.7117 1094.5,-112.7117 908.5,-112.7117"/>
<text text-anchor="start" x="961" y="-119.5117" font-family="Times,serif" font-size="14.00" fill="#000000">salt_parameter</text>
<polygon fill="none" stroke="#000000" points="731.5,-91.7117 731.5,-112.7117 756.5,-112.7117 756.5,-91.7117 731.5,-91.7117"/>
<text text-anchor="start" x="737" y="-98.5117" font-family="Times,serif" font-size="14.00" fill="#000000">40</text>
<polygon fill="none" stroke="#000000" points="756.5,-91.7117 756.5,-112.7117 784.5,-112.7117 784.5,-91.7117 756.5,-91.7117"/>
<text text-anchor="start" x="767" y="-98.5117" font-family="Times,serif" font-size="14.00" fill="#000000">4</text>
<polygon fill="none" stroke="#000000" points="784.5,-91.7117 784.5,-112.7117 908.5,-112.7117 908.5,-91.7117 784.5,-91.7117"/>
<text text-anchor="start" x="833" y="-98.5117" font-family="Times,serif" font-size="14.00" fill="#000000">u4be</text>
<polygon fill="none" stroke="#000000" points="908.5,-91.7117 908.5,-112.7117 1094.5,-112.7117 1094.5,-91.7117 908.5,-91.7117"/>
<text text-anchor="start" x="922" y="-98.5117" font-family="Times,serif" font-size="14.00" fill="#000000">start_sector_of_key_material</text>
<polygon fill="none" stroke="#000000" points="731.5,-70.7117 731.5,-91.7117 756.5,-91.7117 756.5,-70.7117 731.5,-70.7117"/>
<text text-anchor="start" x="737" y="-77.5117" font-family="Times,serif" font-size="14.00" fill="#000000">44</text>
<polygon fill="none" stroke="#000000" points="756.5,-70.7117 756.5,-91.7117 784.5,-91.7117 784.5,-70.7117 756.5,-70.7117"/>
<text text-anchor="start" x="767" y="-77.5117" font-family="Times,serif" font-size="14.00" fill="#000000">4</text>
<polygon fill="none" stroke="#000000" points="784.5,-70.7117 784.5,-91.7117 908.5,-91.7117 908.5,-70.7117 784.5,-70.7117"/>
<text text-anchor="start" x="833" y="-77.5117" font-family="Times,serif" font-size="14.00" fill="#000000">u4be</text>
<polygon fill="none" stroke="#000000" points="908.5,-70.7117 908.5,-91.7117 1094.5,-91.7117 1094.5,-70.7117 908.5,-70.7117"/>
<text text-anchor="start" x="911.5" y="-77.5117" font-family="Times,serif" font-size="14.00" fill="#000000">number_of_anti_forensic_stripes</text>
</g>
<!-- partition_header__seq&#45;&gt;key_slot__seq -->
<g id="edge3" class="edge">
<title>partition_header__seq:key_slots_type&#45;&gt;key_slot__seq</title>
<path fill="none" stroke="#000000" stroke-width="2" d="M679.5,-93.7117C690.3412,-93.7117 701.4257,-94.1375 712.5879,-94.9013"/>
<polygon fill="#000000" stroke="#000000" stroke-width="2" points="712.616,-98.4139 722.8561,-95.6953 713.1557,-91.4347 712.616,-98.4139"/>
</g>
<!-- key_slot__inst__key_material -->
<g id="node5" class="node">
<title>key_slot__inst__key_material</title>
<polygon fill="#e0ffe0" stroke="transparent" points="1146.5,-112.7117 1146.5,-133.7117 1354.5,-133.7117 1354.5,-112.7117 1146.5,-112.7117"/>
<polygon fill="none" stroke="#000000" points="1146.5,-112.7117 1146.5,-133.7117 1354.5,-133.7117 1354.5,-112.7117 1146.5,-112.7117"/>
<text text-anchor="start" x="1241" y="-119.5117" font-family="Times,serif" font-size="14.00" fill="#000000">pos</text>
<polygon fill="#e0ffe0" stroke="transparent" points="1354.5,-112.7117 1354.5,-133.7117 1729.5,-133.7117 1729.5,-112.7117 1354.5,-112.7117"/>
<polygon fill="none" stroke="#000000" points="1354.5,-112.7117 1354.5,-133.7117 1729.5,-133.7117 1729.5,-112.7117 1354.5,-112.7117"/>
<text text-anchor="start" x="1531" y="-119.5117" font-family="Times,serif" font-size="14.00" fill="#000000">size</text>
<polygon fill="#e0ffe0" stroke="transparent" points="1729.5,-112.7117 1729.5,-133.7117 1759.5,-133.7117 1759.5,-112.7117 1729.5,-112.7117"/>
<polygon fill="none" stroke="#000000" points="1729.5,-112.7117 1729.5,-133.7117 1759.5,-133.7117 1759.5,-112.7117 1729.5,-112.7117"/>
<text text-anchor="start" x="1732.5" y="-119.5117" font-family="Times,serif" font-size="14.00" fill="#000000">type</text>
<polygon fill="#e0ffe0" stroke="transparent" points="1759.5,-112.7117 1759.5,-133.7117 1837.5,-133.7117 1837.5,-112.7117 1759.5,-112.7117"/>
<polygon fill="none" stroke="#000000" points="1759.5,-112.7117 1759.5,-133.7117 1837.5,-133.7117 1837.5,-112.7117 1759.5,-112.7117"/>
<text text-anchor="start" x="1793" y="-119.5117" font-family="Times,serif" font-size="14.00" fill="#000000">id</text>
<polygon fill="none" stroke="#000000" points="1146.5,-91.7117 1146.5,-112.7117 1354.5,-112.7117 1354.5,-91.7117 1146.5,-91.7117"/>
<text text-anchor="start" x="1149.5" y="-98.5117" font-family="Times,serif" font-size="14.00" fill="#000000">(start_sector_of_key_material * 512)</text>
<polygon fill="none" stroke="#000000" points="1354.5,-91.7117 1354.5,-112.7117 1729.5,-112.7117 1729.5,-91.7117 1354.5,-91.7117"/>
<text text-anchor="start" x="1357.5" y="-98.5117" font-family="Times,serif" font-size="14.00" fill="#000000">(_parent.number_of_key_bytes * number_of_anti_forensic_stripes)</text>
<polygon fill="none" stroke="#000000" points="1729.5,-91.7117 1729.5,-112.7117 1759.5,-112.7117 1759.5,-91.7117 1729.5,-91.7117"/>
<polygon fill="none" stroke="#000000" points="1759.5,-91.7117 1759.5,-112.7117 1837.5,-112.7117 1837.5,-91.7117 1759.5,-91.7117"/>
<text text-anchor="start" x="1762.5" y="-98.5117" font-family="Times,serif" font-size="14.00" fill="#000000">key_material</text>
</g>
<!-- partition_header__seq&#45;&gt;key_slot__inst__key_material -->
<g id="edge5" class="edge">
<title>partition_header__seq:number_of_key_bytes_type&#45;&gt;key_slot__inst__key_material:key_material_size</title>
<path fill="none" stroke="#404040" d="M679.5,-198.7117C696.0179,-198.7117 698.6682,-207.2394 715,-209.7117 757.5156,-216.1477 1067.4417,-235.2993 1102,-209.7117 1146.0665,-177.084 1093.9335,-124.3393 1138,-91.7117 1207.42,-40.3118 1516.9391,-4.6926 1541.0143,-81.7494"/>
<polygon fill="#404040" stroke="#404040" points="1537.5632,-82.3373 1542.5,-91.7117 1544.4867,-81.3048 1537.5632,-82.3373"/>
</g>
<!-- key_slot__seq&#45;&gt;key_slot__inst__key_material -->
<g id="edge4" class="edge">
<title>key_slot__seq:start_sector_of_key_material_type&#45;&gt;key_slot__inst__key_material:key_material_pos</title>
<path fill="none" stroke="#404040" d="M1094.5,-101.7117C1113.8194,-101.7117 1121.0265,-101.7117 1136.3716,-101.7117"/>
<polygon fill="#404040" stroke="#404040" points="1136.5,-105.2118 1146.5,-101.7117 1136.5,-98.2118 1136.5,-105.2118"/>
</g>
<!-- key_slot__seq&#45;&gt;key_slot__inst__key_material -->
<g id="edge6" class="edge">
<title>key_slot__seq:number_of_anti_forensic_stripes_type&#45;&gt;key_slot__inst__key_material:key_material_size</title>
<path fill="none" stroke="#404040" d="M1094.5,-80.7117C1290.1701,-80.7117 1533.7675,100.9022 1542.271,-81.5645"/>
<polygon fill="#404040" stroke="#404040" points="1538.7751,-81.7933 1542.5,-91.7117 1545.7734,-81.6352 1538.7751,-81.7933"/>
</g>
</g>
</svg>
