<?xml version="1.0" encoding="UTF-8" standalone="no"?>
<!DOCTYPE svg PUBLIC "-//W3C//DTD SVG 1.1//EN"
 "http://www.w3.org/Graphics/SVG/1.1/DTD/svg11.dtd">
<!-- Generated by graphviz version 2.40.1 (20161225.0304)
 -->
<!-- Title: %3 Pages: 1 -->
<svg width="2355pt" height="476pt"
 viewBox="0.00 0.00 2355.00 475.57" xmlns="http://www.w3.org/2000/svg" xmlns:xlink="http://www.w3.org/1999/xlink">
<g id="graph0" class="graph" transform="scale(1 1) rotate(0) translate(4 471.5709)">
<title>%3</title>
<polygon fill="#ffffff" stroke="transparent" points="-4,4 -4,-471.5709 2351,-471.5709 2351,4 -4,4"/>
<g id="clust1" class="cluster">
<title>cluster__luks</title>
<polygon fill="none" stroke="#000000" stroke-dasharray="1,5" points="8,-21.5709 8,-459.5709 2339,-459.5709 2339,-21.5709 8,-21.5709"/>
<text text-anchor="middle" x="1173.5" y="-444.3709" font-family="Times,serif" font-size="14.00" fill="#000000">Luks</text>
</g>
<g id="clust2" class="cluster">
<title>cluster__partition_header</title>
<polygon fill="none" stroke="#000000" stroke-dasharray="1,5" points="373,-29.5709 373,-370.5709 2331,-370.5709 2331,-29.5709 373,-29.5709"/>
<text text-anchor="middle" x="1352" y="-355.3709" font-family="Times,serif" font-size="14.00" fill="#000000">Luks::PartitionHeader</text>
</g>
<g id="clust3" class="cluster">
<title>cluster__key_slot</title>
<polygon fill="none" stroke="#000000" stroke-dasharray="1,5" points="889,-37.5709 889,-210.5709 2323,-210.5709 2323,-37.5709 889,-37.5709"/>
<text text-anchor="middle" x="1606" y="-195.3709" font-family="Times,serif" font-size="14.00" fill="#000000">Luks::PartitionHeader::KeySlot</text>
</g>
<!-- luks__seq -->
<g id="node1" class="node">
<title>luks__seq</title>
<polygon fill="#e0ffe0" stroke="transparent" points="24.5,-199.5709 24.5,-220.5709 55.5,-220.5709 55.5,-199.5709 24.5,-199.5709"/>
<polygon fill="none" stroke="#000000" points="24.5,-199.5709 24.5,-220.5709 55.5,-220.5709 55.5,-199.5709 24.5,-199.5709"/>
<text text-anchor="start" x="27.5" y="-206.3709" font-family="Times,serif" font-size="14.00" fill="#000000">pos</text>
<polygon fill="#e0ffe0" stroke="transparent" points="55.5,-199.5709 55.5,-220.5709 89.5,-220.5709 89.5,-199.5709 55.5,-199.5709"/>
<polygon fill="none" stroke="#000000" points="55.5,-199.5709 55.5,-220.5709 89.5,-220.5709 89.5,-199.5709 55.5,-199.5709"/>
<text text-anchor="start" x="58.5" y="-206.3709" font-family="Times,serif" font-size="14.00" fill="#000000">size</text>
<polygon fill="#e0ffe0" stroke="transparent" points="89.5,-199.5709 89.5,-220.5709 211.5,-220.5709 211.5,-199.5709 89.5,-199.5709"/>
<polygon fill="none" stroke="#000000" points="89.5,-199.5709 89.5,-220.5709 211.5,-220.5709 211.5,-199.5709 89.5,-199.5709"/>
<text text-anchor="start" x="134.5" y="-206.3709" font-family="Times,serif" font-size="14.00" fill="#000000">type</text>
<polygon fill="#e0ffe0" stroke="transparent" points="211.5,-199.5709 211.5,-220.5709 337.5,-220.5709 337.5,-199.5709 211.5,-199.5709"/>
<polygon fill="none" stroke="#000000" points="211.5,-199.5709 211.5,-220.5709 337.5,-220.5709 337.5,-199.5709 211.5,-199.5709"/>
<text text-anchor="start" x="267.5" y="-206.3709" font-family="Times,serif" font-size="14.00" fill="#000000">id</text>
<polygon fill="none" stroke="#000000" points="24.5,-178.5709 24.5,-199.5709 55.5,-199.5709 55.5,-178.5709 24.5,-178.5709"/>
<text text-anchor="start" x="35" y="-185.3709" font-family="Times,serif" font-size="14.00" fill="#000000">0</text>
<polygon fill="none" stroke="#000000" points="55.5,-178.5709 55.5,-199.5709 89.5,-199.5709 89.5,-178.5709 55.5,-178.5709"/>
<text text-anchor="start" x="58.5" y="-185.3709" font-family="Times,serif" font-size="14.00" fill="#000000">592</text>
<polygon fill="none" stroke="#000000" points="89.5,-178.5709 89.5,-199.5709 211.5,-199.5709 211.5,-178.5709 89.5,-178.5709"/>
<text text-anchor="start" x="92.5" y="-185.3709" font-family="Times,serif" font-size="14.00" fill="#000000">PartitionHeader</text>
<polygon fill="none" stroke="#000000" points="211.5,-178.5709 211.5,-199.5709 337.5,-199.5709 337.5,-178.5709 211.5,-178.5709"/>
<text text-anchor="start" x="214.5" y="-185.3709" font-family="Times,serif" font-size="14.00" fill="#000000">partition_header</text>
</g>
<!-- partition_header__seq -->
<g id="node3" class="node">
<title>partition_header__seq</title>
<polygon fill="#e0ffe0" stroke="transparent" points="389,-314.5709 389,-335.5709 423,-335.5709 423,-314.5709 389,-314.5709"/>
<polygon fill="none" stroke="#000000" points="389,-314.5709 389,-335.5709 423,-335.5709 423,-314.5709 389,-314.5709"/>
<text text-anchor="start" x="393.5" y="-321.3709" font-family="Times,serif" font-size="14.00" fill="#000000">pos</text>
<polygon fill="#e0ffe0" stroke="transparent" points="423,-314.5709 423,-335.5709 457,-335.5709 457,-314.5709 423,-314.5709"/>
<polygon fill="none" stroke="#000000" points="423,-314.5709 423,-335.5709 457,-335.5709 457,-314.5709 423,-314.5709"/>
<text text-anchor="start" x="426" y="-321.3709" font-family="Times,serif" font-size="14.00" fill="#000000">size</text>
<polygon fill="#e0ffe0" stroke="transparent" points="457,-314.5709 457,-335.5709 604,-335.5709 604,-314.5709 457,-314.5709"/>
<polygon fill="none" stroke="#000000" points="457,-314.5709 457,-335.5709 604,-335.5709 604,-314.5709 457,-314.5709"/>
<text text-anchor="start" x="514.5" y="-321.3709" font-family="Times,serif" font-size="14.00" fill="#000000">type</text>
<polygon fill="#e0ffe0" stroke="transparent" points="604,-314.5709 604,-335.5709 853,-335.5709 853,-314.5709 604,-314.5709"/>
<polygon fill="none" stroke="#000000" points="604,-314.5709 604,-335.5709 853,-335.5709 853,-314.5709 604,-314.5709"/>
<text text-anchor="start" x="721.5" y="-321.3709" font-family="Times,serif" font-size="14.00" fill="#000000">id</text>
<polygon fill="none" stroke="#000000" points="389,-293.5709 389,-314.5709 423,-314.5709 423,-293.5709 389,-293.5709"/>
<text text-anchor="start" x="401" y="-300.3709" font-family="Times,serif" font-size="14.00" fill="#000000">0</text>
<polygon fill="none" stroke="#000000" points="423,-293.5709 423,-314.5709 457,-314.5709 457,-293.5709 423,-293.5709"/>
<text text-anchor="start" x="435" y="-300.3709" font-family="Times,serif" font-size="14.00" fill="#000000">6</text>
<polygon fill="none" stroke="#000000" points="457,-293.5709 457,-314.5709 604,-314.5709 604,-293.5709 457,-293.5709"/>
<text text-anchor="start" x="460" y="-300.3709" font-family="Times,serif" font-size="14.00" fill="#000000">4C 55 4B 53 BA BE</text>
<polygon fill="none" stroke="#000000" points="604,-293.5709 604,-314.5709 853,-314.5709 853,-293.5709 604,-293.5709"/>
<text text-anchor="start" x="706.5" y="-300.3709" font-family="Times,serif" font-size="14.00" fill="#000000">magic</text>
<polygon fill="none" stroke="#000000" points="389,-272.5709 389,-293.5709 423,-293.5709 423,-272.5709 389,-272.5709"/>
<text text-anchor="start" x="401" y="-279.3709" font-family="Times,serif" font-size="14.00" fill="#000000">6</text>
<polygon fill="none" stroke="#000000" points="423,-272.5709 423,-293.5709 457,-293.5709 457,-272.5709 423,-272.5709"/>
<text text-anchor="start" x="435" y="-279.3709" font-family="Times,serif" font-size="14.00" fill="#000000">2</text>
<polygon fill="none" stroke="#000000" points="457,-272.5709 457,-293.5709 604,-293.5709 604,-272.5709 457,-272.5709"/>
<text text-anchor="start" x="510" y="-279.3709" font-family="Times,serif" font-size="14.00" fill="#000000">00 01</text>
<polygon fill="none" stroke="#000000" points="604,-272.5709 604,-293.5709 853,-293.5709 853,-272.5709 604,-272.5709"/>
<text text-anchor="start" x="702" y="-279.3709" font-family="Times,serif" font-size="14.00" fill="#000000">version</text>
<polygon fill="none" stroke="#000000" points="389,-251.5709 389,-272.5709 423,-272.5709 423,-251.5709 389,-251.5709"/>
<text text-anchor="start" x="401" y="-258.3709" font-family="Times,serif" font-size="14.00" fill="#000000">8</text>
<polygon fill="none" stroke="#000000" points="423,-251.5709 423,-272.5709 457,-272.5709 457,-251.5709 423,-251.5709"/>
<text text-anchor="start" x="430.5" y="-258.3709" font-family="Times,serif" font-size="14.00" fill="#000000">32</text>
<polygon fill="none" stroke="#000000" points="457,-251.5709 457,-272.5709 604,-272.5709 604,-251.5709 457,-251.5709"/>
<text text-anchor="start" x="493" y="-258.3709" font-family="Times,serif" font-size="14.00" fill="#000000">str(ASCII)</text>
<polygon fill="none" stroke="#000000" points="604,-251.5709 604,-272.5709 853,-272.5709 853,-251.5709 604,-251.5709"/>
<text text-anchor="start" x="632.5" y="-258.3709" font-family="Times,serif" font-size="14.00" fill="#000000">cipher_name_specification</text>
<polygon fill="none" stroke="#000000" points="389,-230.5709 389,-251.5709 423,-251.5709 423,-230.5709 389,-230.5709"/>
<text text-anchor="start" x="396.5" y="-237.3709" font-family="Times,serif" font-size="14.00" fill="#000000">40</text>
<polygon fill="none" stroke="#000000" points="423,-230.5709 423,-251.5709 457,-251.5709 457,-230.5709 423,-230.5709"/>
<text text-anchor="start" x="430.5" y="-237.3709" font-family="Times,serif" font-size="14.00" fill="#000000">32</text>
<polygon fill="none" stroke="#000000" points="457,-230.5709 457,-251.5709 604,-251.5709 604,-230.5709 457,-230.5709"/>
<text text-anchor="start" x="493" y="-237.3709" font-family="Times,serif" font-size="14.00" fill="#000000">str(ASCII)</text>
<polygon fill="none" stroke="#000000" points="604,-230.5709 604,-251.5709 853,-251.5709 853,-230.5709 604,-230.5709"/>
<text text-anchor="start" x="632.5" y="-237.3709" font-family="Times,serif" font-size="14.00" fill="#000000">cipher_mode_specification</text>
<polygon fill="none" stroke="#000000" points="389,-209.5709 389,-230.5709 423,-230.5709 423,-209.5709 389,-209.5709"/>
<text text-anchor="start" x="396.5" y="-216.3709" font-family="Times,serif" font-size="14.00" fill="#000000">72</text>
<polygon fill="none" stroke="#000000" points="423,-209.5709 423,-230.5709 457,-230.5709 457,-209.5709 423,-209.5709"/>
<text text-anchor="start" x="430.5" y="-216.3709" font-family="Times,serif" font-size="14.00" fill="#000000">32</text>
<polygon fill="none" stroke="#000000" points="457,-209.5709 457,-230.5709 604,-230.5709 604,-209.5709 457,-209.5709"/>
<text text-anchor="start" x="493" y="-216.3709" font-family="Times,serif" font-size="14.00" fill="#000000">str(ASCII)</text>
<polygon fill="none" stroke="#000000" points="604,-209.5709 604,-230.5709 853,-230.5709 853,-209.5709 604,-209.5709"/>
<text text-anchor="start" x="662" y="-216.3709" font-family="Times,serif" font-size="14.00" fill="#000000">hash_specification</text>
<polygon fill="none" stroke="#000000" points="389,-188.5709 389,-209.5709 423,-209.5709 423,-188.5709 389,-188.5709"/>
<text text-anchor="start" x="392" y="-195.3709" font-family="Times,serif" font-size="14.00" fill="#000000">104</text>
<polygon fill="none" stroke="#000000" points="423,-188.5709 423,-209.5709 457,-209.5709 457,-188.5709 423,-188.5709"/>
<text text-anchor="start" x="435" y="-195.3709" font-family="Times,serif" font-size="14.00" fill="#000000">4</text>
<polygon fill="none" stroke="#000000" points="457,-188.5709 457,-209.5709 604,-209.5709 604,-188.5709 457,-188.5709"/>
<text text-anchor="start" x="512.5" y="-195.3709" font-family="Times,serif" font-size="14.00" fill="#000000">u4be</text>
<polygon fill="none" stroke="#000000" points="604,-188.5709 604,-209.5709 853,-209.5709 853,-188.5709 604,-188.5709"/>
<text text-anchor="start" x="676.5" y="-195.3709" font-family="Times,serif" font-size="14.00" fill="#000000">payload_offset</text>
<polygon fill="none" stroke="#000000" points="389,-167.5709 389,-188.5709 423,-188.5709 423,-167.5709 389,-167.5709"/>
<text text-anchor="start" x="392" y="-174.3709" font-family="Times,serif" font-size="14.00" fill="#000000">108</text>
<polygon fill="none" stroke="#000000" points="423,-167.5709 423,-188.5709 457,-188.5709 457,-167.5709 423,-167.5709"/>
<text text-anchor="start" x="435" y="-174.3709" font-family="Times,serif" font-size="14.00" fill="#000000">4</text>
<polygon fill="none" stroke="#000000" points="457,-167.5709 457,-188.5709 604,-188.5709 604,-167.5709 457,-167.5709"/>
<text text-anchor="start" x="512.5" y="-174.3709" font-family="Times,serif" font-size="14.00" fill="#000000">u4be</text>
<polygon fill="none" stroke="#000000" points="604,-167.5709 604,-188.5709 853,-188.5709 853,-167.5709 604,-167.5709"/>
<text text-anchor="start" x="650" y="-174.3709" font-family="Times,serif" font-size="14.00" fill="#000000">number_of_key_bytes</text>
<polygon fill="none" stroke="#000000" points="389,-146.5709 389,-167.5709 423,-167.5709 423,-146.5709 389,-146.5709"/>
<text text-anchor="start" x="392" y="-153.3709" font-family="Times,serif" font-size="14.00" fill="#000000">112</text>
<polygon fill="none" stroke="#000000" points="423,-146.5709 423,-167.5709 457,-167.5709 457,-146.5709 423,-146.5709"/>
<text text-anchor="start" x="430.5" y="-153.3709" font-family="Times,serif" font-size="14.00" fill="#000000">20</text>
<polygon fill="none" stroke="#000000" points="457,-146.5709 457,-167.5709 604,-167.5709 604,-146.5709 457,-146.5709"/>
<polygon fill="none" stroke="#000000" points="604,-146.5709 604,-167.5709 853,-167.5709 853,-146.5709 604,-146.5709"/>
<text text-anchor="start" x="646.5" y="-153.3709" font-family="Times,serif" font-size="14.00" fill="#000000">master_key_checksum</text>
<polygon fill="none" stroke="#000000" points="389,-125.5709 389,-146.5709 423,-146.5709 423,-125.5709 389,-125.5709"/>
<text text-anchor="start" x="392" y="-132.3709" font-family="Times,serif" font-size="14.00" fill="#000000">132</text>
<polygon fill="none" stroke="#000000" points="423,-125.5709 423,-146.5709 457,-146.5709 457,-125.5709 423,-125.5709"/>
<text text-anchor="start" x="430.5" y="-132.3709" font-family="Times,serif" font-size="14.00" fill="#000000">32</text>
<polygon fill="none" stroke="#000000" points="457,-125.5709 457,-146.5709 604,-146.5709 604,-125.5709 457,-125.5709"/>
<polygon fill="none" stroke="#000000" points="604,-125.5709 604,-146.5709 853,-146.5709 853,-125.5709 604,-125.5709"/>
<text text-anchor="start" x="628.5" y="-132.3709" font-family="Times,serif" font-size="14.00" fill="#000000">master_key_salt_parameter</text>
<polygon fill="none" stroke="#000000" points="389,-104.5709 389,-125.5709 423,-125.5709 423,-104.5709 389,-104.5709"/>
<text text-anchor="start" x="392" y="-111.3709" font-family="Times,serif" font-size="14.00" fill="#000000">164</text>
<polygon fill="none" stroke="#000000" points="423,-104.5709 423,-125.5709 457,-125.5709 457,-104.5709 423,-104.5709"/>
<text text-anchor="start" x="435" y="-111.3709" font-family="Times,serif" font-size="14.00" fill="#000000">4</text>
<polygon fill="none" stroke="#000000" points="457,-104.5709 457,-125.5709 604,-125.5709 604,-104.5709 457,-104.5709"/>
<text text-anchor="start" x="512.5" y="-111.3709" font-family="Times,serif" font-size="14.00" fill="#000000">u4be</text>
<polygon fill="none" stroke="#000000" points="604,-104.5709 604,-125.5709 853,-125.5709 853,-104.5709 604,-104.5709"/>
<text text-anchor="start" x="607" y="-111.3709" font-family="Times,serif" font-size="14.00" fill="#000000">master_key_iterations_parameter</text>
<polygon fill="none" stroke="#000000" points="389,-83.5709 389,-104.5709 423,-104.5709 423,-83.5709 389,-83.5709"/>
<text text-anchor="start" x="392" y="-90.3709" font-family="Times,serif" font-size="14.00" fill="#000000">168</text>
<polygon fill="none" stroke="#000000" points="423,-83.5709 423,-104.5709 457,-104.5709 457,-83.5709 423,-83.5709"/>
<text text-anchor="start" x="430.5" y="-90.3709" font-family="Times,serif" font-size="14.00" fill="#000000">40</text>
<polygon fill="none" stroke="#000000" points="457,-83.5709 457,-104.5709 604,-104.5709 604,-83.5709 457,-83.5709"/>
<text text-anchor="start" x="493" y="-90.3709" font-family="Times,serif" font-size="14.00" fill="#000000">str(ASCII)</text>
<polygon fill="none" stroke="#000000" points="604,-83.5709 604,-104.5709 853,-104.5709 853,-83.5709 604,-83.5709"/>
<text text-anchor="start" x="712.5" y="-90.3709" font-family="Times,serif" font-size="14.00" fill="#000000">uuid</text>
<polygon fill="none" stroke="#000000" points="389,-62.5709 389,-83.5709 423,-83.5709 423,-62.5709 389,-62.5709"/>
<text text-anchor="start" x="392" y="-69.3709" font-family="Times,serif" font-size="14.00" fill="#000000">208</text>
<polygon fill="none" stroke="#000000" points="423,-62.5709 423,-83.5709 457,-83.5709 457,-62.5709 423,-62.5709"/>
<text text-anchor="start" x="430.5" y="-69.3709" font-family="Times,serif" font-size="14.00" fill="#000000">48</text>
<polygon fill="none" stroke="#000000" points="457,-62.5709 457,-83.5709 604,-83.5709 604,-62.5709 457,-62.5709"/>
<text text-anchor="start" x="503" y="-69.3709" font-family="Times,serif" font-size="14.00" fill="#000000">KeySlot</text>
<polygon fill="none" stroke="#000000" points="604,-62.5709 604,-83.5709 853,-83.5709 853,-62.5709 604,-62.5709"/>
<text text-anchor="start" x="695" y="-69.3709" font-family="Times,serif" font-size="14.00" fill="#000000">key_slots</text>
<polygon fill="none" stroke="#000000" points="389,-41.5709 389,-62.5709 853,-62.5709 853,-41.5709 389,-41.5709"/>
<text text-anchor="start" x="568.5" y="-48.3709" font-family="Times,serif" font-size="14.00" fill="#000000">repeat 8 times</text>
</g>
<!-- luks__seq&#45;&gt;partition_header__seq -->
<g id="edge1" class="edge">
<title>luks__seq:partition_header_type&#45;&gt;partition_header__seq</title>
<path fill="none" stroke="#000000" stroke-width="2" d="M337.5,-188.5709C348.3339,-188.5709 359.4007,-188.5709 370.5802,-188.5709"/>
<polygon fill="#000000" stroke="#000000" stroke-width="2" points="370.8754,-192.071 380.8753,-188.5709 370.8753,-185.071 370.8754,-192.071"/>
</g>
<!-- luks__inst__payload -->
<g id="node2" class="node">
<title>luks__inst__payload</title>
<polygon fill="#e0ffe0" stroke="transparent" points="925,-403.5709 925,-424.5709 1211,-424.5709 1211,-403.5709 925,-403.5709"/>
<polygon fill="none" stroke="#000000" points="925,-403.5709 925,-424.5709 1211,-424.5709 1211,-403.5709 925,-403.5709"/>
<text text-anchor="start" x="1055.5" y="-410.3709" font-family="Times,serif" font-size="14.00" fill="#000000">pos</text>
<polygon fill="#e0ffe0" stroke="transparent" points="1211,-403.5709 1211,-424.5709 1245,-424.5709 1245,-403.5709 1211,-403.5709"/>
<polygon fill="none" stroke="#000000" points="1211,-403.5709 1211,-424.5709 1245,-424.5709 1245,-403.5709 1211,-403.5709"/>
<text text-anchor="start" x="1214" y="-410.3709" font-family="Times,serif" font-size="14.00" fill="#000000">size</text>
<polygon fill="#e0ffe0" stroke="transparent" points="1245,-403.5709 1245,-424.5709 1283,-424.5709 1283,-403.5709 1245,-403.5709"/>
<polygon fill="none" stroke="#000000" points="1245,-403.5709 1245,-424.5709 1283,-424.5709 1283,-403.5709 1245,-403.5709"/>
<text text-anchor="start" x="1248" y="-410.3709" font-family="Times,serif" font-size="14.00" fill="#000000">type</text>
<polygon fill="#e0ffe0" stroke="transparent" points="1283,-403.5709 1283,-424.5709 1345,-424.5709 1345,-403.5709 1283,-403.5709"/>
<polygon fill="none" stroke="#000000" points="1283,-403.5709 1283,-424.5709 1345,-424.5709 1345,-403.5709 1283,-403.5709"/>
<text text-anchor="start" x="1307" y="-410.3709" font-family="Times,serif" font-size="14.00" fill="#000000">id</text>
<polygon fill="none" stroke="#000000" points="925,-382.5709 925,-403.5709 1211,-403.5709 1211,-382.5709 925,-382.5709"/>
<text text-anchor="start" x="928" y="-389.3709" font-family="Times,serif" font-size="14.00" fill="#000000">(partition_header.payload_offset * 512)</text>
<polygon fill="none" stroke="#000000" points="1211,-382.5709 1211,-403.5709 1245,-403.5709 1245,-382.5709 1211,-382.5709"/>
<text text-anchor="start" x="1221.5" y="-389.3709" font-family="Times,serif" font-size="14.00" fill="#000000">⇲</text>
<polygon fill="none" stroke="#000000" points="1245,-382.5709 1245,-403.5709 1283,-403.5709 1283,-382.5709 1245,-382.5709"/>
<polygon fill="none" stroke="#000000" points="1283,-382.5709 1283,-403.5709 1345,-403.5709 1345,-382.5709 1283,-382.5709"/>
<text text-anchor="start" x="1286" y="-389.3709" font-family="Times,serif" font-size="14.00" fill="#000000">payload</text>
</g>
<!-- partition_header__seq&#45;&gt;luks__inst__payload -->
<g id="edge2" class="edge">
<title>partition_header__seq:payload_offset_type&#45;&gt;luks__inst__payload:payload_pos</title>
<path fill="none" stroke="#404040" d="M853,-199.5709C932.4064,-199.5709 840.6278,-311.5986 889,-374.5709 897.5986,-385.7648 903.9041,-390.5005 914.97,-392.0003"/>
<polygon fill="#404040" stroke="#404040" points="914.8173,-395.4972 925,-392.5709 915.215,-388.5085 914.8173,-395.4972"/>
</g>
<!-- key_slot__seq -->
<g id="node4" class="node">
<title>key_slot__seq</title>
<polygon fill="#e0ffe0" stroke="transparent" points="905,-154.5709 905,-175.5709 936,-175.5709 936,-154.5709 905,-154.5709"/>
<polygon fill="none" stroke="#000000" points="905,-154.5709 905,-175.5709 936,-175.5709 936,-154.5709 905,-154.5709"/>
<text text-anchor="start" x="908" y="-161.3709" font-family="Times,serif" font-size="14.00" fill="#000000">pos</text>
<polygon fill="#e0ffe0" stroke="transparent" points="936,-154.5709 936,-175.5709 970,-175.5709 970,-154.5709 936,-154.5709"/>
<polygon fill="none" stroke="#000000" points="936,-154.5709 936,-175.5709 970,-175.5709 970,-154.5709 936,-154.5709"/>
<text text-anchor="start" x="939" y="-161.3709" font-family="Times,serif" font-size="14.00" fill="#000000">size</text>
<polygon fill="#e0ffe0" stroke="transparent" points="970,-154.5709 970,-175.5709 1124,-175.5709 1124,-154.5709 970,-154.5709"/>
<polygon fill="none" stroke="#000000" points="970,-154.5709 970,-175.5709 1124,-175.5709 1124,-154.5709 970,-154.5709"/>
<text text-anchor="start" x="1031" y="-161.3709" font-family="Times,serif" font-size="14.00" fill="#000000">type</text>
<polygon fill="#e0ffe0" stroke="transparent" points="1124,-154.5709 1124,-175.5709 1365,-175.5709 1365,-154.5709 1124,-154.5709"/>
<polygon fill="none" stroke="#000000" points="1124,-154.5709 1124,-175.5709 1365,-175.5709 1365,-154.5709 1124,-154.5709"/>
<text text-anchor="start" x="1237.5" y="-161.3709" font-family="Times,serif" font-size="14.00" fill="#000000">id</text>
<polygon fill="none" stroke="#000000" points="905,-133.5709 905,-154.5709 936,-154.5709 936,-133.5709 905,-133.5709"/>
<text text-anchor="start" x="915.5" y="-140.3709" font-family="Times,serif" font-size="14.00" fill="#000000">0</text>
<polygon fill="none" stroke="#000000" points="936,-133.5709 936,-154.5709 970,-154.5709 970,-133.5709 936,-133.5709"/>
<text text-anchor="start" x="948" y="-140.3709" font-family="Times,serif" font-size="14.00" fill="#000000">4</text>
<polygon fill="none" stroke="#000000" points="970,-133.5709 970,-154.5709 1124,-154.5709 1124,-133.5709 970,-133.5709"/>
<text text-anchor="start" x="973" y="-140.3709" font-family="Times,serif" font-size="14.00" fill="#000000">u4be→KeySlotStates</text>
<polygon fill="none" stroke="#000000" points="1124,-133.5709 1124,-154.5709 1365,-154.5709 1365,-133.5709 1124,-133.5709"/>
<text text-anchor="start" x="1182.5" y="-140.3709" font-family="Times,serif" font-size="14.00" fill="#000000">state_of_key_slot</text>
<polygon fill="none" stroke="#000000" points="905,-112.5709 905,-133.5709 936,-133.5709 936,-112.5709 905,-112.5709"/>
<text text-anchor="start" x="915.5" y="-119.3709" font-family="Times,serif" font-size="14.00" fill="#000000">4</text>
<polygon fill="none" stroke="#000000" points="936,-112.5709 936,-133.5709 970,-133.5709 970,-112.5709 936,-112.5709"/>
<text text-anchor="start" x="948" y="-119.3709" font-family="Times,serif" font-size="14.00" fill="#000000">4</text>
<polygon fill="none" stroke="#000000" points="970,-112.5709 970,-133.5709 1124,-133.5709 1124,-112.5709 970,-112.5709"/>
<text text-anchor="start" x="1029" y="-119.3709" font-family="Times,serif" font-size="14.00" fill="#000000">u4be</text>
<polygon fill="none" stroke="#000000" points="1124,-112.5709 1124,-133.5709 1365,-133.5709 1365,-112.5709 1124,-112.5709"/>
<text text-anchor="start" x="1172" y="-119.3709" font-family="Times,serif" font-size="14.00" fill="#000000">iteration_parameter</text>
<polygon fill="none" stroke="#000000" points="905,-91.5709 905,-112.5709 936,-112.5709 936,-91.5709 905,-91.5709"/>
<text text-anchor="start" x="915.5" y="-98.3709" font-family="Times,serif" font-size="14.00" fill="#000000">8</text>
<polygon fill="none" stroke="#000000" points="936,-91.5709 936,-112.5709 970,-112.5709 970,-91.5709 936,-91.5709"/>
<text text-anchor="start" x="943.5" y="-98.3709" font-family="Times,serif" font-size="14.00" fill="#000000">32</text>
<polygon fill="none" stroke="#000000" points="970,-91.5709 970,-112.5709 1124,-112.5709 1124,-91.5709 970,-91.5709"/>
<polygon fill="none" stroke="#000000" points="1124,-91.5709 1124,-112.5709 1365,-112.5709 1365,-91.5709 1124,-91.5709"/>
<text text-anchor="start" x="1190" y="-98.3709" font-family="Times,serif" font-size="14.00" fill="#000000">salt_parameter</text>
<polygon fill="none" stroke="#000000" points="905,-70.5709 905,-91.5709 936,-91.5709 936,-70.5709 905,-70.5709"/>
<text text-anchor="start" x="911" y="-77.3709" font-family="Times,serif" font-size="14.00" fill="#000000">40</text>
<polygon fill="none" stroke="#000000" points="936,-70.5709 936,-91.5709 970,-91.5709 970,-70.5709 936,-70.5709"/>
<text text-anchor="start" x="948" y="-77.3709" font-family="Times,serif" font-size="14.00" fill="#000000">4</text>
<polygon fill="none" stroke="#000000" points="970,-70.5709 970,-91.5709 1124,-91.5709 1124,-70.5709 970,-70.5709"/>
<text text-anchor="start" x="1029" y="-77.3709" font-family="Times,serif" font-size="14.00" fill="#000000">u4be</text>
<polygon fill="none" stroke="#000000" points="1124,-70.5709 1124,-91.5709 1365,-91.5709 1365,-70.5709 1124,-70.5709"/>
<text text-anchor="start" x="1140" y="-77.3709" font-family="Times,serif" font-size="14.00" fill="#000000">start_sector_of_key_material</text>
<polygon fill="none" stroke="#000000" points="905,-49.5709 905,-70.5709 936,-70.5709 936,-49.5709 905,-49.5709"/>
<text text-anchor="start" x="911" y="-56.3709" font-family="Times,serif" font-size="14.00" fill="#000000">44</text>
<polygon fill="none" stroke="#000000" points="936,-49.5709 936,-70.5709 970,-70.5709 970,-49.5709 936,-49.5709"/>
<text text-anchor="start" x="948" y="-56.3709" font-family="Times,serif" font-size="14.00" fill="#000000">4</text>
<polygon fill="none" stroke="#000000" points="970,-49.5709 970,-70.5709 1124,-70.5709 1124,-49.5709 970,-49.5709"/>
<text text-anchor="start" x="1029" y="-56.3709" font-family="Times,serif" font-size="14.00" fill="#000000">u4be</text>
<polygon fill="none" stroke="#000000" points="1124,-49.5709 1124,-70.5709 1365,-70.5709 1365,-49.5709 1124,-49.5709"/>
<text text-anchor="start" x="1127" y="-56.3709" font-family="Times,serif" font-size="14.00" fill="#000000">number_of_anti_forensic_stripes</text>
</g>
<!-- partition_header__seq&#45;&gt;key_slot__seq -->
<g id="edge3" class="edge">
<title>partition_header__seq:key_slots_type&#45;&gt;key_slot__seq</title>
<path fill="none" stroke="#000000" stroke-width="2" d="M853,-72.5709C864.0911,-72.5709 875.4035,-72.878 886.8133,-73.4383"/>
<polygon fill="#000000" stroke="#000000" stroke-width="2" points="886.6838,-76.9364 896.862,-73.9946 887.0707,-69.9471 886.6838,-76.9364"/>
</g>
<!-- key_slot__inst__key_material -->
<g id="node5" class="node">
<title>key_slot__inst__key_material</title>
<polygon fill="#e0ffe0" stroke="transparent" points="1417,-91.5709 1417,-112.5709 1686,-112.5709 1686,-91.5709 1417,-91.5709"/>
<polygon fill="none" stroke="#000000" points="1417,-91.5709 1417,-112.5709 1686,-112.5709 1686,-91.5709 1417,-91.5709"/>
<text text-anchor="start" x="1539" y="-98.3709" font-family="Times,serif" font-size="14.00" fill="#000000">pos</text>
<polygon fill="#e0ffe0" stroke="transparent" points="1686,-91.5709 1686,-112.5709 2169,-112.5709 2169,-91.5709 1686,-91.5709"/>
<polygon fill="none" stroke="#000000" points="1686,-91.5709 1686,-112.5709 2169,-112.5709 2169,-91.5709 1686,-91.5709"/>
<text text-anchor="start" x="1913.5" y="-98.3709" font-family="Times,serif" font-size="14.00" fill="#000000">size</text>
<polygon fill="#e0ffe0" stroke="transparent" points="2169,-91.5709 2169,-112.5709 2207,-112.5709 2207,-91.5709 2169,-91.5709"/>
<polygon fill="none" stroke="#000000" points="2169,-91.5709 2169,-112.5709 2207,-112.5709 2207,-91.5709 2169,-91.5709"/>
<text text-anchor="start" x="2172" y="-98.3709" font-family="Times,serif" font-size="14.00" fill="#000000">type</text>
<polygon fill="#e0ffe0" stroke="transparent" points="2207,-91.5709 2207,-112.5709 2307,-112.5709 2307,-91.5709 2207,-91.5709"/>
<polygon fill="none" stroke="#000000" points="2207,-91.5709 2207,-112.5709 2307,-112.5709 2307,-91.5709 2207,-91.5709"/>
<text text-anchor="start" x="2250" y="-98.3709" font-family="Times,serif" font-size="14.00" fill="#000000">id</text>
<polygon fill="none" stroke="#000000" points="1417,-70.5709 1417,-91.5709 1686,-91.5709 1686,-70.5709 1417,-70.5709"/>
<text text-anchor="start" x="1420" y="-77.3709" font-family="Times,serif" font-size="14.00" fill="#000000">(start_sector_of_key_material * 512)</text>
<polygon fill="none" stroke="#000000" points="1686,-70.5709 1686,-91.5709 2169,-91.5709 2169,-70.5709 1686,-70.5709"/>
<text text-anchor="start" x="1689" y="-77.3709" font-family="Times,serif" font-size="14.00" fill="#000000">(_parent.number_of_key_bytes * number_of_anti_forensic_stripes)</text>
<polygon fill="none" stroke="#000000" points="2169,-70.5709 2169,-91.5709 2207,-91.5709 2207,-70.5709 2169,-70.5709"/>
<polygon fill="none" stroke="#000000" points="2207,-70.5709 2207,-91.5709 2307,-91.5709 2307,-70.5709 2207,-70.5709"/>
<text text-anchor="start" x="2210" y="-77.3709" font-family="Times,serif" font-size="14.00" fill="#000000">key_material</text>
</g>
<!-- partition_header__seq&#45;&gt;key_slot__inst__key_material -->
<g id="edge5" class="edge">
<title>partition_header__seq:number_of_key_bytes_type&#45;&gt;key_slot__inst__key_material:key_material_size</title>
<path fill="none" stroke="#404040" d="M853,-177.5709C869.7302,-177.5709 872.4533,-186.0994 889,-188.5709 915.5939,-192.5432 1351.3899,-204.5714 1373,-188.5709 1417.0665,-155.9433 1364.9335,-103.1986 1409,-70.5709 1498.8851,-4.0183 1902.4941,41.9146 1926.849,-60.5379"/>
<polygon fill="#404040" stroke="#404040" points="1923.383,-61.035 1928,-70.5709 1930.3373,-60.2371 1923.383,-61.035"/>
</g>
<!-- key_slot__seq&#45;&gt;key_slot__inst__key_material -->
<g id="edge4" class="edge">
<title>key_slot__seq:start_sector_of_key_material_type&#45;&gt;key_slot__inst__key_material:key_material_pos</title>
<path fill="none" stroke="#404040" d="M1365,-80.5709C1384.3194,-80.5709 1391.5265,-80.5709 1406.8716,-80.5709"/>
<polygon fill="#404040" stroke="#404040" points="1407,-84.071 1417,-80.5709 1407,-77.071 1407,-84.071"/>
</g>
<!-- key_slot__seq&#45;&gt;key_slot__inst__key_material -->
<g id="edge6" class="edge">
<title>key_slot__seq:number_of_anti_forensic_stripes_type&#45;&gt;key_slot__inst__key_material:key_material_size</title>
<path fill="none" stroke="#404040" d="M1365,-59.5709C1486.5911,-59.5709 1903.4499,48.1909 1926.9635,-60.507"/>
<polygon fill="#404040" stroke="#404040" points="1923.4938,-60.9822 1928,-70.5709 1930.457,-60.2649 1923.4938,-60.9822"/>
</g>
</g>
</svg>
