<?xml version="1.0" encoding="UTF-8" standalone="no"?>
<!DOCTYPE svg PUBLIC "-//W3C//DTD SVG 1.1//EN"
 "http://www.w3.org/Graphics/SVG/1.1/DTD/svg11.dtd">
<!-- Generated by graphviz version 2.43.0 (0)
 -->
<!-- Title: %3 Pages: 1 -->
<svg width="2592pt" height="427pt"
 viewBox="0.00 0.00 2592.00 427.00" xmlns="http://www.w3.org/2000/svg" xmlns:xlink="http://www.w3.org/1999/xlink">
<g id="graph0" class="graph" transform="scale(1 1) rotate(0) translate(4 423)">
<title>%3</title>
<polygon fill="white" stroke="transparent" points="-4,4 -4,-423 2588,-423 2588,4 -4,4"/>
<g id="clust1" class="cluster">
<title>cluster__mozilla_mar</title>
<polygon fill="none" stroke="black" stroke-dasharray="1,5" points="220,-8 220,-411 2576,-411 2576,-8 220,-8"/>
<text text-anchor="middle" x="1398" y="-395.8" font-family="Times,serif" font-size="14.00">MozillaMar</text>
</g>
<g id="clust2" class="cluster">
<title>cluster__mar_index</title>
<polygon fill="none" stroke="black" stroke-dasharray="1,5" points="1213.5,-251 1213.5,-380 1552.5,-380 1552.5,-251 1213.5,-251"/>
<text text-anchor="middle" x="1383" y="-364.8" font-family="Times,serif" font-size="14.00">MozillaMar::MarIndex</text>
</g>
<g id="clust3" class="cluster">
<title>cluster__index_entries</title>
<polygon fill="none" stroke="black" stroke-dasharray="1,5" points="1675,-229 1675,-340 1950,-340 1950,-229 1675,-229"/>
<text text-anchor="middle" x="1812.5" y="-324.8" font-family="Times,serif" font-size="14.00">MozillaMar::IndexEntries</text>
</g>
<g id="clust4" class="cluster">
<title>cluster__signature</title>
<polygon fill="none" stroke="black" stroke-dasharray="1,5" points="642,-173 642,-322 1114,-322 1114,-173 642,-173"/>
<text text-anchor="middle" x="878" y="-306.8" font-family="Times,serif" font-size="14.00">MozillaMar::Signature</text>
</g>
<g id="clust5" class="cluster">
<title>cluster__product_information_block</title>
<polygon fill="none" stroke="black" stroke-dasharray="1,5" points="1652,-16 1652,-127 1973,-127 1973,-16 1652,-16"/>
<text text-anchor="middle" x="1812.5" y="-111.8" font-family="Times,serif" font-size="14.00">MozillaMar::ProductInformationBlock</text>
</g>
<g id="clust6" class="cluster">
<title>cluster__index_entry</title>
<polygon fill="none" stroke="black" stroke-dasharray="1,5" points="1993,-207 1993,-360 2568,-360 2568,-207 1993,-207"/>
<text text-anchor="middle" x="2280.5" y="-344.8" font-family="Times,serif" font-size="14.00">MozillaMar::IndexEntry</text>
</g>
<g id="clust7" class="cluster">
<title>cluster__additional_section</title>
<polygon fill="none" stroke="black" stroke-dasharray="1,5" points="682.5,-16 682.5,-165 1632,-165 1632,-16 682.5,-16"/>
<text text-anchor="middle" x="1157.25" y="-149.8" font-family="Times,serif" font-size="14.00">MozillaMar::AdditionalSection</text>
</g>
<!-- mozilla_mar__seq -->
<g id="node1" class="node">
<title>mozilla_mar__seq</title>
<polygon fill="#e0ffe0" stroke="transparent" points="236,-322 236,-343 267,-343 267,-322 236,-322"/>
<polygon fill="none" stroke="black" points="236,-322 236,-343 267,-343 267,-322 236,-322"/>
<text text-anchor="start" x="239" y="-328.8" font-family="Times,serif" font-size="14.00">pos</text>
<polygon fill="#e0ffe0" stroke="transparent" points="267,-322 267,-343 301,-343 301,-322 267,-322"/>
<polygon fill="none" stroke="black" points="267,-322 267,-343 301,-343 301,-322 267,-322"/>
<text text-anchor="start" x="270" y="-328.8" font-family="Times,serif" font-size="14.00">size</text>
<polygon fill="#e0ffe0" stroke="transparent" points="301,-322 301,-343 434,-343 434,-322 301,-322"/>
<polygon fill="none" stroke="black" points="301,-322 301,-343 434,-343 434,-322 301,-322"/>
<text text-anchor="start" x="351.5" y="-328.8" font-family="Times,serif" font-size="14.00">type</text>
<polygon fill="#e0ffe0" stroke="transparent" points="434,-322 434,-343 606,-343 606,-322 434,-322"/>
<polygon fill="none" stroke="black" points="434,-322 434,-343 606,-343 606,-322 434,-322"/>
<text text-anchor="start" x="513" y="-328.8" font-family="Times,serif" font-size="14.00">id</text>
<polygon fill="none" stroke="black" points="236,-301 236,-322 267,-322 267,-301 236,-301"/>
<text text-anchor="start" x="246.5" y="-307.8" font-family="Times,serif" font-size="14.00">0</text>
<polygon fill="none" stroke="black" points="267,-301 267,-322 301,-322 301,-301 267,-301"/>
<text text-anchor="start" x="279" y="-307.8" font-family="Times,serif" font-size="14.00">4</text>
<polygon fill="none" stroke="black" points="301,-301 301,-322 434,-322 434,-301 301,-301"/>
<polygon fill="none" stroke="black" points="434,-301 434,-322 606,-322 606,-301 434,-301"/>
<text text-anchor="start" x="498.5" y="-307.8" font-family="Times,serif" font-size="14.00">magic</text>
<polygon fill="none" stroke="black" points="236,-280 236,-301 267,-301 267,-280 236,-280"/>
<text text-anchor="start" x="246.5" y="-286.8" font-family="Times,serif" font-size="14.00">4</text>
<polygon fill="none" stroke="black" points="267,-280 267,-301 301,-301 301,-280 267,-280"/>
<text text-anchor="start" x="279" y="-286.8" font-family="Times,serif" font-size="14.00">4</text>
<polygon fill="none" stroke="black" points="301,-280 301,-301 434,-301 434,-280 301,-280"/>
<text text-anchor="start" x="349.5" y="-286.8" font-family="Times,serif" font-size="14.00">u4be</text>
<polygon fill="none" stroke="black" points="434,-280 434,-301 606,-301 606,-280 434,-280"/>
<text text-anchor="start" x="486.5" y="-286.8" font-family="Times,serif" font-size="14.00">ofs_index</text>
<polygon fill="none" stroke="black" points="236,-259 236,-280 267,-280 267,-259 236,-259"/>
<text text-anchor="start" x="246.5" y="-265.8" font-family="Times,serif" font-size="14.00">8</text>
<polygon fill="none" stroke="black" points="267,-259 267,-280 301,-280 301,-259 267,-259"/>
<text text-anchor="start" x="279" y="-265.8" font-family="Times,serif" font-size="14.00">8</text>
<polygon fill="none" stroke="black" points="301,-259 301,-280 434,-280 434,-259 301,-259"/>
<text text-anchor="start" x="349.5" y="-265.8" font-family="Times,serif" font-size="14.00">u8be</text>
<polygon fill="none" stroke="black" points="434,-259 434,-280 606,-280 606,-259 434,-259"/>
<text text-anchor="start" x="491.5" y="-265.8" font-family="Times,serif" font-size="14.00">file_size</text>
<polygon fill="none" stroke="black" points="236,-238 236,-259 267,-259 267,-238 236,-238"/>
<text text-anchor="start" x="242" y="-244.8" font-family="Times,serif" font-size="14.00">16</text>
<polygon fill="none" stroke="black" points="267,-238 267,-259 301,-259 301,-238 267,-238"/>
<text text-anchor="start" x="279" y="-244.8" font-family="Times,serif" font-size="14.00">4</text>
<polygon fill="none" stroke="black" points="301,-238 301,-259 434,-259 434,-238 301,-238"/>
<text text-anchor="start" x="349.5" y="-244.8" font-family="Times,serif" font-size="14.00">u4be</text>
<polygon fill="none" stroke="black" points="434,-238 434,-259 606,-259 606,-238 434,-238"/>
<text text-anchor="start" x="467.5" y="-244.8" font-family="Times,serif" font-size="14.00">len_signatures</text>
<polygon fill="none" stroke="black" points="236,-217 236,-238 267,-238 267,-217 236,-217"/>
<text text-anchor="start" x="242" y="-223.8" font-family="Times,serif" font-size="14.00">20</text>
<polygon fill="none" stroke="black" points="267,-217 267,-238 301,-238 301,-217 267,-217"/>
<text text-anchor="start" x="277" y="-223.8" font-family="Times,serif" font-size="14.00">...</text>
<polygon fill="none" stroke="black" points="301,-217 301,-238 434,-238 434,-217 301,-217"/>
<text text-anchor="start" x="332" y="-223.8" font-family="Times,serif" font-size="14.00">Signature</text>
<polygon fill="none" stroke="black" points="434,-217 434,-238 606,-238 606,-217 434,-217"/>
<text text-anchor="start" x="482" y="-223.8" font-family="Times,serif" font-size="14.00">signatures</text>
<polygon fill="none" stroke="black" points="236,-196 236,-217 606,-217 606,-196 236,-196"/>
<text text-anchor="start" x="321" y="-202.8" font-family="Times,serif" font-size="14.00">repeat len_signatures times</text>
<polygon fill="none" stroke="black" points="236,-175 236,-196 267,-196 267,-175 236,-175"/>
<text text-anchor="start" x="244.5" y="-181.8" font-family="Times,serif" font-size="14.00">...</text>
<polygon fill="none" stroke="black" points="267,-175 267,-196 301,-196 301,-175 267,-175"/>
<text text-anchor="start" x="279" y="-181.8" font-family="Times,serif" font-size="14.00">4</text>
<polygon fill="none" stroke="black" points="301,-175 301,-196 434,-196 434,-175 301,-175"/>
<text text-anchor="start" x="349.5" y="-181.8" font-family="Times,serif" font-size="14.00">u4be</text>
<polygon fill="none" stroke="black" points="434,-175 434,-196 606,-196 606,-175 434,-175"/>
<text text-anchor="start" x="437" y="-181.8" font-family="Times,serif" font-size="14.00">len_additional_sections</text>
<polygon fill="none" stroke="black" points="236,-154 236,-175 267,-175 267,-154 236,-154"/>
<text text-anchor="start" x="244.5" y="-160.8" font-family="Times,serif" font-size="14.00">...</text>
<polygon fill="none" stroke="black" points="267,-154 267,-175 301,-175 301,-154 267,-154"/>
<text text-anchor="start" x="277" y="-160.8" font-family="Times,serif" font-size="14.00">...</text>
<polygon fill="none" stroke="black" points="301,-154 301,-175 434,-175 434,-154 301,-154"/>
<text text-anchor="start" x="304" y="-160.8" font-family="Times,serif" font-size="14.00">AdditionalSection</text>
<polygon fill="none" stroke="black" points="434,-154 434,-175 606,-175 606,-154 434,-154"/>
<text text-anchor="start" x="451.5" y="-160.8" font-family="Times,serif" font-size="14.00">additional_sections</text>
<polygon fill="none" stroke="black" points="236,-133 236,-154 606,-154 606,-133 236,-133"/>
<text text-anchor="start" x="290.5" y="-139.8" font-family="Times,serif" font-size="14.00">repeat len_additional_sections times</text>
</g>
<!-- mozilla_mar__seq&#45;&gt;mozilla_mar__seq -->
<g id="edge2" class="edge">
<title>mozilla_mar__seq:len_signatures_type&#45;&gt;mozilla_mar__seq:signatures__repeat</title>
<path fill="none" stroke="#404040" d="M433.74,-252.62C264.69,-257.17 0,-252.97 0,-227.5 0,-208.46 109.42,-201.3 225.78,-200.81"/>
<polygon fill="#404040" stroke="#404040" points="225.97,-204.31 235.97,-200.78 225.96,-197.31 225.97,-204.31"/>
</g>
<!-- mozilla_mar__seq&#45;&gt;mozilla_mar__seq -->
<g id="edge4" class="edge">
<title>mozilla_mar__seq:len_additional_sections_type&#45;&gt;mozilla_mar__seq:additional_sections__repeat</title>
<path fill="none" stroke="#404040" d="M433.74,-188.63C264.69,-193.18 0,-189.05 0,-164 0,-145.27 109.42,-138.23 225.78,-137.78"/>
<polygon fill="#404040" stroke="#404040" points="225.97,-141.28 235.97,-137.76 225.96,-134.28 225.97,-141.28"/>
</g>
<!-- mozilla_mar__inst__index -->
<g id="node2" class="node">
<title>mozilla_mar__inst__index</title>
<polygon fill="#e0ffe0" stroke="transparent" points="764,-355 764,-376 837,-376 837,-355 764,-355"/>
<polygon fill="none" stroke="black" points="764,-355 764,-376 837,-376 837,-355 764,-355"/>
<text text-anchor="start" x="788" y="-361.8" font-family="Times,serif" font-size="14.00">pos</text>
<polygon fill="#e0ffe0" stroke="transparent" points="837,-355 837,-376 871,-376 871,-355 837,-355"/>
<polygon fill="none" stroke="black" points="837,-355 837,-376 871,-376 871,-355 837,-355"/>
<text text-anchor="start" x="840" y="-361.8" font-family="Times,serif" font-size="14.00">size</text>
<polygon fill="#e0ffe0" stroke="transparent" points="871,-355 871,-376 947,-376 947,-355 871,-355"/>
<polygon fill="none" stroke="black" points="871,-355 871,-376 947,-376 947,-355 871,-355"/>
<text text-anchor="start" x="893" y="-361.8" font-family="Times,serif" font-size="14.00">type</text>
<polygon fill="#e0ffe0" stroke="transparent" points="947,-355 947,-376 993,-376 993,-355 947,-355"/>
<polygon fill="none" stroke="black" points="947,-355 947,-376 993,-376 993,-355 947,-355"/>
<text text-anchor="start" x="963" y="-361.8" font-family="Times,serif" font-size="14.00">id</text>
<polygon fill="none" stroke="black" points="764,-334 764,-355 837,-355 837,-334 764,-334"/>
<text text-anchor="start" x="767" y="-340.8" font-family="Times,serif" font-size="14.00">ofs_index</text>
<polygon fill="none" stroke="black" points="837,-334 837,-355 871,-355 871,-334 837,-334"/>
<text text-anchor="start" x="847" y="-340.8" font-family="Times,serif" font-size="14.00">...</text>
<polygon fill="none" stroke="black" points="871,-334 871,-355 947,-355 947,-334 871,-334"/>
<text text-anchor="start" x="874" y="-340.8" font-family="Times,serif" font-size="14.00">MarIndex</text>
<polygon fill="none" stroke="black" points="947,-334 947,-355 993,-355 993,-334 947,-334"/>
<text text-anchor="start" x="950" y="-340.8" font-family="Times,serif" font-size="14.00">index</text>
</g>
<!-- mozilla_mar__seq&#45;&gt;mozilla_mar__inst__index -->
<g id="edge5" class="edge">
<title>mozilla_mar__seq:ofs_index_type&#45;&gt;mozilla_mar__inst__index:index_pos</title>
<path fill="none" stroke="#404040" d="M607,-291C629,-291 622.35,-316.1 642,-326 687.43,-348.88 706.17,-344.7 752.92,-344.07"/>
<polygon fill="#404040" stroke="#404040" points="753.02,-347.57 763,-344 752.98,-340.57 753.02,-347.57"/>
</g>
<!-- signature__seq -->
<g id="node5" class="node">
<title>signature__seq</title>
<polygon fill="#e0ffe0" stroke="transparent" points="658,-248 658,-269 689,-269 689,-248 658,-248"/>
<polygon fill="none" stroke="black" points="658,-248 658,-269 689,-269 689,-248 658,-248"/>
<text text-anchor="start" x="661" y="-254.8" font-family="Times,serif" font-size="14.00">pos</text>
<polygon fill="#e0ffe0" stroke="transparent" points="689,-248 689,-269 792,-269 792,-248 689,-248"/>
<polygon fill="none" stroke="black" points="689,-248 689,-269 792,-269 792,-248 689,-248"/>
<text text-anchor="start" x="726.5" y="-254.8" font-family="Times,serif" font-size="14.00">size</text>
<polygon fill="#e0ffe0" stroke="transparent" points="792,-248 792,-269 995,-269 995,-248 792,-248"/>
<polygon fill="none" stroke="black" points="792,-248 792,-269 995,-269 995,-248 792,-248"/>
<text text-anchor="start" x="877.5" y="-254.8" font-family="Times,serif" font-size="14.00">type</text>
<polygon fill="#e0ffe0" stroke="transparent" points="995,-248 995,-269 1098,-269 1098,-248 995,-248"/>
<polygon fill="none" stroke="black" points="995,-248 995,-269 1098,-269 1098,-248 995,-248"/>
<text text-anchor="start" x="1039.5" y="-254.8" font-family="Times,serif" font-size="14.00">id</text>
<polygon fill="none" stroke="black" points="658,-227 658,-248 689,-248 689,-227 658,-227"/>
<text text-anchor="start" x="668.5" y="-233.8" font-family="Times,serif" font-size="14.00">0</text>
<polygon fill="none" stroke="black" points="689,-227 689,-248 792,-248 792,-227 689,-227"/>
<text text-anchor="start" x="735.5" y="-233.8" font-family="Times,serif" font-size="14.00">4</text>
<polygon fill="none" stroke="black" points="792,-227 792,-248 995,-248 995,-227 792,-227"/>
<text text-anchor="start" x="795" y="-233.8" font-family="Times,serif" font-size="14.00">u4be→SignatureAlgorithms</text>
<polygon fill="none" stroke="black" points="995,-227 995,-248 1098,-248 1098,-227 995,-227"/>
<text text-anchor="start" x="1011.5" y="-233.8" font-family="Times,serif" font-size="14.00">algorithm</text>
<polygon fill="none" stroke="black" points="658,-206 658,-227 689,-227 689,-206 658,-206"/>
<text text-anchor="start" x="668.5" y="-212.8" font-family="Times,serif" font-size="14.00">4</text>
<polygon fill="none" stroke="black" points="689,-206 689,-227 792,-227 792,-206 689,-206"/>
<text text-anchor="start" x="735.5" y="-212.8" font-family="Times,serif" font-size="14.00">4</text>
<polygon fill="none" stroke="black" points="792,-206 792,-227 995,-227 995,-206 792,-206"/>
<text text-anchor="start" x="875.5" y="-212.8" font-family="Times,serif" font-size="14.00">u4be</text>
<polygon fill="none" stroke="black" points="995,-206 995,-227 1098,-227 1098,-206 995,-206"/>
<text text-anchor="start" x="998" y="-212.8" font-family="Times,serif" font-size="14.00">len_signature</text>
<polygon fill="none" stroke="black" points="658,-185 658,-206 689,-206 689,-185 658,-185"/>
<text text-anchor="start" x="668.5" y="-191.8" font-family="Times,serif" font-size="14.00">8</text>
<polygon fill="none" stroke="black" points="689,-185 689,-206 792,-206 792,-185 689,-185"/>
<text text-anchor="start" x="692" y="-191.8" font-family="Times,serif" font-size="14.00">len_signature</text>
<polygon fill="none" stroke="black" points="792,-185 792,-206 995,-206 995,-185 792,-185"/>
<polygon fill="none" stroke="black" points="995,-185 995,-206 1098,-206 1098,-185 995,-185"/>
<text text-anchor="start" x="1012" y="-191.8" font-family="Times,serif" font-size="14.00">signature</text>
</g>
<!-- mozilla_mar__seq&#45;&gt;signature__seq -->
<g id="edge1" class="edge">
<title>mozilla_mar__seq:signatures_type&#45;&gt;signature__seq</title>
<path fill="none" stroke="black" stroke-width="2" d="M607,-227C617.68,-227 628.59,-227 639.62,-227"/>
<polygon fill="black" stroke="black" stroke-width="2" points="639.77,-230.5 649.77,-227 639.77,-223.5 639.77,-230.5"/>
</g>
<!-- additional_section__seq -->
<g id="node9" class="node">
<title>additional_section__seq</title>
<polygon fill="#e0ffe0" stroke="transparent" points="699,-91 699,-112 730,-112 730,-91 699,-91"/>
<polygon fill="none" stroke="black" points="699,-91 699,-112 730,-112 730,-91 699,-91"/>
<text text-anchor="start" x="702" y="-97.8" font-family="Times,serif" font-size="14.00">pos</text>
<polygon fill="#e0ffe0" stroke="transparent" points="730,-91 730,-112 764,-112 764,-91 730,-91"/>
<polygon fill="none" stroke="black" points="730,-91 730,-112 764,-112 764,-91 730,-91"/>
<text text-anchor="start" x="733" y="-97.8" font-family="Times,serif" font-size="14.00">size</text>
<polygon fill="#e0ffe0" stroke="transparent" points="764,-91 764,-112 942,-112 942,-91 764,-91"/>
<polygon fill="none" stroke="black" points="764,-91 764,-112 942,-112 942,-91 764,-91"/>
<text text-anchor="start" x="837" y="-97.8" font-family="Times,serif" font-size="14.00">type</text>
<polygon fill="#e0ffe0" stroke="transparent" points="942,-91 942,-112 1058,-112 1058,-91 942,-91"/>
<polygon fill="none" stroke="black" points="942,-91 942,-112 1058,-112 1058,-91 942,-91"/>
<text text-anchor="start" x="993" y="-97.8" font-family="Times,serif" font-size="14.00">id</text>
<polygon fill="none" stroke="black" points="699,-70 699,-91 730,-91 730,-70 699,-70"/>
<text text-anchor="start" x="709.5" y="-76.8" font-family="Times,serif" font-size="14.00">0</text>
<polygon fill="none" stroke="black" points="730,-70 730,-91 764,-91 764,-70 730,-70"/>
<text text-anchor="start" x="742" y="-76.8" font-family="Times,serif" font-size="14.00">4</text>
<polygon fill="none" stroke="black" points="764,-70 764,-91 942,-91 942,-70 764,-70"/>
<text text-anchor="start" x="835" y="-76.8" font-family="Times,serif" font-size="14.00">u4be</text>
<polygon fill="none" stroke="black" points="942,-70 942,-91 1058,-91 1058,-70 942,-70"/>
<text text-anchor="start" x="966.5" y="-76.8" font-family="Times,serif" font-size="14.00">len_block</text>
<polygon fill="none" stroke="black" points="699,-49 699,-70 730,-70 730,-49 699,-49"/>
<text text-anchor="start" x="709.5" y="-55.8" font-family="Times,serif" font-size="14.00">4</text>
<polygon fill="none" stroke="black" points="730,-49 730,-70 764,-70 764,-49 730,-49"/>
<text text-anchor="start" x="742" y="-55.8" font-family="Times,serif" font-size="14.00">4</text>
<polygon fill="none" stroke="black" points="764,-49 764,-70 942,-70 942,-49 764,-49"/>
<text text-anchor="start" x="773" y="-55.8" font-family="Times,serif" font-size="14.00">u4be→BlockIdentifiers</text>
<polygon fill="none" stroke="black" points="942,-49 942,-70 1058,-70 1058,-49 942,-49"/>
<text text-anchor="start" x="945" y="-55.8" font-family="Times,serif" font-size="14.00">block_identifier</text>
<polygon fill="none" stroke="black" points="699,-28 699,-49 730,-49 730,-28 699,-28"/>
<text text-anchor="start" x="709.5" y="-34.8" font-family="Times,serif" font-size="14.00">8</text>
<polygon fill="none" stroke="black" points="730,-28 730,-49 764,-49 764,-28 730,-28"/>
<text text-anchor="start" x="740" y="-34.8" font-family="Times,serif" font-size="14.00">...</text>
<polygon fill="none" stroke="black" points="764,-28 764,-49 942,-49 942,-28 764,-28"/>
<text text-anchor="start" x="767" y="-34.8" font-family="Times,serif" font-size="14.00">switch (block_identifier)</text>
<polygon fill="none" stroke="black" points="942,-28 942,-49 1058,-49 1058,-28 942,-28"/>
<text text-anchor="start" x="980" y="-34.8" font-family="Times,serif" font-size="14.00">bytes</text>
</g>
<!-- mozilla_mar__seq&#45;&gt;additional_section__seq -->
<g id="edge3" class="edge">
<title>mozilla_mar__seq:additional_sections_type&#45;&gt;additional_section__seq</title>
<path fill="none" stroke="black" stroke-width="2" d="M607,-164C667.63,-164 731.87,-142.6 782.47,-120.22"/>
<polygon fill="black" stroke="black" stroke-width="2" points="784.08,-123.34 791.76,-116.04 781.2,-116.95 784.08,-123.34"/>
</g>
<!-- mar_index__seq -->
<g id="node3" class="node">
<title>mar_index__seq</title>
<polygon fill="#e0ffe0" stroke="transparent" points="1230,-305 1230,-326 1261,-326 1261,-305 1230,-305"/>
<polygon fill="none" stroke="black" points="1230,-305 1230,-326 1261,-326 1261,-305 1230,-305"/>
<text text-anchor="start" x="1233" y="-311.8" font-family="Times,serif" font-size="14.00">pos</text>
<polygon fill="#e0ffe0" stroke="transparent" points="1261,-305 1261,-326 1335,-326 1335,-305 1261,-305"/>
<polygon fill="none" stroke="black" points="1261,-305 1261,-326 1335,-326 1335,-305 1261,-305"/>
<text text-anchor="start" x="1284" y="-311.8" font-family="Times,serif" font-size="14.00">size</text>
<polygon fill="#e0ffe0" stroke="transparent" points="1335,-305 1335,-326 1434,-326 1434,-305 1335,-305"/>
<polygon fill="none" stroke="black" points="1335,-305 1335,-326 1434,-326 1434,-305 1335,-305"/>
<text text-anchor="start" x="1368.5" y="-311.8" font-family="Times,serif" font-size="14.00">type</text>
<polygon fill="#e0ffe0" stroke="transparent" points="1434,-305 1434,-326 1537,-326 1537,-305 1434,-305"/>
<polygon fill="none" stroke="black" points="1434,-305 1434,-326 1537,-326 1537,-305 1434,-305"/>
<text text-anchor="start" x="1478.5" y="-311.8" font-family="Times,serif" font-size="14.00">id</text>
<polygon fill="none" stroke="black" points="1230,-284 1230,-305 1261,-305 1261,-284 1230,-284"/>
<text text-anchor="start" x="1240.5" y="-290.8" font-family="Times,serif" font-size="14.00">0</text>
<polygon fill="none" stroke="black" points="1261,-284 1261,-305 1335,-305 1335,-284 1261,-284"/>
<text text-anchor="start" x="1293" y="-290.8" font-family="Times,serif" font-size="14.00">4</text>
<polygon fill="none" stroke="black" points="1335,-284 1335,-305 1434,-305 1434,-284 1335,-284"/>
<text text-anchor="start" x="1366.5" y="-290.8" font-family="Times,serif" font-size="14.00">u4be</text>
<polygon fill="none" stroke="black" points="1434,-284 1434,-305 1537,-305 1537,-284 1434,-284"/>
<text text-anchor="start" x="1451.5" y="-290.8" font-family="Times,serif" font-size="14.00">len_index</text>
<polygon fill="none" stroke="black" points="1230,-263 1230,-284 1261,-284 1261,-263 1230,-263"/>
<text text-anchor="start" x="1240.5" y="-269.8" font-family="Times,serif" font-size="14.00">4</text>
<polygon fill="none" stroke="black" points="1261,-263 1261,-284 1335,-284 1335,-263 1261,-263"/>
<text text-anchor="start" x="1264" y="-269.8" font-family="Times,serif" font-size="14.00">len_index</text>
<polygon fill="none" stroke="black" points="1335,-263 1335,-284 1434,-284 1434,-263 1335,-263"/>
<text text-anchor="start" x="1338" y="-269.8" font-family="Times,serif" font-size="14.00">IndexEntries</text>
<polygon fill="none" stroke="black" points="1434,-263 1434,-284 1537,-284 1537,-263 1434,-263"/>
<text text-anchor="start" x="1437" y="-269.8" font-family="Times,serif" font-size="14.00">index_entries</text>
</g>
<!-- mozilla_mar__inst__index&#45;&gt;mar_index__seq -->
<g id="edge6" class="edge">
<title>mozilla_mar__inst__index:index_type&#45;&gt;mar_index__seq</title>
<path fill="none" stroke="black" stroke-width="2" d="M994,-344C1065.36,-344 1143.53,-335.74 1210.88,-326"/>
<polygon fill="black" stroke="black" stroke-width="2" points="1211.78,-329.41 1221.17,-324.49 1210.77,-322.48 1211.78,-329.41"/>
</g>
<!-- mar_index__seq&#45;&gt;mar_index__seq -->
<g id="edge7" class="edge">
<title>mar_index__seq:len_index_type&#45;&gt;mar_index__seq:index_entries_size</title>
<path fill="none" stroke="#404040" d="M1532.77,-305.12C1586.51,-323.83 1556.88,-348.5 1392,-348.5 1226.92,-348.5 1197.42,-309.6 1251.42,-285.82"/>
<polygon fill="#404040" stroke="#404040" points="1252.77,-289.05 1260.8,-282.14 1250.21,-282.54 1252.77,-289.05"/>
</g>
<!-- index_entries__seq -->
<g id="node4" class="node">
<title>index_entries__seq</title>
<polygon fill="#e0ffe0" stroke="transparent" points="1691.5,-283 1691.5,-304 1722.5,-304 1722.5,-283 1691.5,-283"/>
<polygon fill="none" stroke="black" points="1691.5,-283 1691.5,-304 1722.5,-304 1722.5,-283 1691.5,-283"/>
<text text-anchor="start" x="1694.5" y="-289.8" font-family="Times,serif" font-size="14.00">pos</text>
<polygon fill="#e0ffe0" stroke="transparent" points="1722.5,-283 1722.5,-304 1756.5,-304 1756.5,-283 1722.5,-283"/>
<polygon fill="none" stroke="black" points="1722.5,-283 1722.5,-304 1756.5,-304 1756.5,-283 1722.5,-283"/>
<text text-anchor="start" x="1725.5" y="-289.8" font-family="Times,serif" font-size="14.00">size</text>
<polygon fill="#e0ffe0" stroke="transparent" points="1756.5,-283 1756.5,-304 1843.5,-304 1843.5,-283 1756.5,-283"/>
<polygon fill="none" stroke="black" points="1756.5,-283 1756.5,-304 1843.5,-304 1843.5,-283 1756.5,-283"/>
<text text-anchor="start" x="1784" y="-289.8" font-family="Times,serif" font-size="14.00">type</text>
<polygon fill="#e0ffe0" stroke="transparent" points="1843.5,-283 1843.5,-304 1934.5,-304 1934.5,-283 1843.5,-283"/>
<polygon fill="none" stroke="black" points="1843.5,-283 1843.5,-304 1934.5,-304 1934.5,-283 1843.5,-283"/>
<text text-anchor="start" x="1882" y="-289.8" font-family="Times,serif" font-size="14.00">id</text>
<polygon fill="none" stroke="black" points="1691.5,-262 1691.5,-283 1722.5,-283 1722.5,-262 1691.5,-262"/>
<text text-anchor="start" x="1702" y="-268.8" font-family="Times,serif" font-size="14.00">0</text>
<polygon fill="none" stroke="black" points="1722.5,-262 1722.5,-283 1756.5,-283 1756.5,-262 1722.5,-262"/>
<text text-anchor="start" x="1732.5" y="-268.8" font-family="Times,serif" font-size="14.00">...</text>
<polygon fill="none" stroke="black" points="1756.5,-262 1756.5,-283 1843.5,-283 1843.5,-262 1756.5,-262"/>
<text text-anchor="start" x="1759.5" y="-268.8" font-family="Times,serif" font-size="14.00">IndexEntry</text>
<polygon fill="none" stroke="black" points="1843.5,-262 1843.5,-283 1934.5,-283 1934.5,-262 1843.5,-262"/>
<text text-anchor="start" x="1846.5" y="-268.8" font-family="Times,serif" font-size="14.00">index_entry</text>
<polygon fill="none" stroke="black" points="1691.5,-241 1691.5,-262 1934.5,-262 1934.5,-241 1691.5,-241"/>
<text text-anchor="start" x="1728.5" y="-247.8" font-family="Times,serif" font-size="14.00">repeat to end of stream</text>
</g>
<!-- mar_index__seq&#45;&gt;index_entries__seq -->
<g id="edge8" class="edge">
<title>mar_index__seq:index_entries_type&#45;&gt;index_entries__seq</title>
<path fill="none" stroke="black" stroke-width="2" d="M1538,-273C1581.83,-273 1629.61,-273 1672.8,-273"/>
<polygon fill="black" stroke="black" stroke-width="2" points="1672.8,-276.5 1682.8,-273 1672.8,-269.5 1672.8,-276.5"/>
</g>
<!-- index_entry__seq -->
<g id="node7" class="node">
<title>index_entry__seq</title>
<polygon fill="#e0ffe0" stroke="transparent" points="2009.5,-303 2009.5,-324 2040.5,-324 2040.5,-303 2009.5,-303"/>
<polygon fill="none" stroke="black" points="2009.5,-303 2009.5,-324 2040.5,-324 2040.5,-303 2009.5,-303"/>
<text text-anchor="start" x="2012.5" y="-309.8" font-family="Times,serif" font-size="14.00">pos</text>
<polygon fill="#e0ffe0" stroke="transparent" points="2040.5,-303 2040.5,-324 2074.5,-324 2074.5,-303 2040.5,-303"/>
<polygon fill="none" stroke="black" points="2040.5,-303 2040.5,-324 2074.5,-324 2074.5,-303 2040.5,-303"/>
<text text-anchor="start" x="2043.5" y="-309.8" font-family="Times,serif" font-size="14.00">size</text>
<polygon fill="#e0ffe0" stroke="transparent" points="2074.5,-303 2074.5,-324 2155.5,-324 2155.5,-303 2074.5,-303"/>
<polygon fill="none" stroke="black" points="2074.5,-303 2074.5,-324 2155.5,-324 2155.5,-303 2074.5,-303"/>
<text text-anchor="start" x="2099" y="-309.8" font-family="Times,serif" font-size="14.00">type</text>
<polygon fill="#e0ffe0" stroke="transparent" points="2155.5,-303 2155.5,-324 2244.5,-324 2244.5,-303 2155.5,-303"/>
<polygon fill="none" stroke="black" points="2155.5,-303 2155.5,-324 2244.5,-324 2244.5,-303 2155.5,-303"/>
<text text-anchor="start" x="2193" y="-309.8" font-family="Times,serif" font-size="14.00">id</text>
<polygon fill="none" stroke="black" points="2009.5,-282 2009.5,-303 2040.5,-303 2040.5,-282 2009.5,-282"/>
<text text-anchor="start" x="2020" y="-288.8" font-family="Times,serif" font-size="14.00">0</text>
<polygon fill="none" stroke="black" points="2040.5,-282 2040.5,-303 2074.5,-303 2074.5,-282 2040.5,-282"/>
<text text-anchor="start" x="2052.5" y="-288.8" font-family="Times,serif" font-size="14.00">4</text>
<polygon fill="none" stroke="black" points="2074.5,-282 2074.5,-303 2155.5,-303 2155.5,-282 2074.5,-282"/>
<text text-anchor="start" x="2097" y="-288.8" font-family="Times,serif" font-size="14.00">u4be</text>
<polygon fill="none" stroke="black" points="2155.5,-282 2155.5,-303 2244.5,-303 2244.5,-282 2155.5,-282"/>
<text text-anchor="start" x="2159" y="-288.8" font-family="Times,serif" font-size="14.00">ofs_content</text>
<polygon fill="none" stroke="black" points="2009.5,-261 2009.5,-282 2040.5,-282 2040.5,-261 2009.5,-261"/>
<text text-anchor="start" x="2020" y="-267.8" font-family="Times,serif" font-size="14.00">4</text>
<polygon fill="none" stroke="black" points="2040.5,-261 2040.5,-282 2074.5,-282 2074.5,-261 2040.5,-261"/>
<text text-anchor="start" x="2052.5" y="-267.8" font-family="Times,serif" font-size="14.00">4</text>
<polygon fill="none" stroke="black" points="2074.5,-261 2074.5,-282 2155.5,-282 2155.5,-261 2074.5,-261"/>
<text text-anchor="start" x="2097" y="-267.8" font-family="Times,serif" font-size="14.00">u4be</text>
<polygon fill="none" stroke="black" points="2155.5,-261 2155.5,-282 2244.5,-282 2244.5,-261 2155.5,-261"/>
<text text-anchor="start" x="2158.5" y="-267.8" font-family="Times,serif" font-size="14.00">len_content</text>
<polygon fill="none" stroke="black" points="2009.5,-240 2009.5,-261 2040.5,-261 2040.5,-240 2009.5,-240"/>
<text text-anchor="start" x="2020" y="-246.8" font-family="Times,serif" font-size="14.00">8</text>
<polygon fill="none" stroke="black" points="2040.5,-240 2040.5,-261 2074.5,-261 2074.5,-240 2040.5,-240"/>
<text text-anchor="start" x="2052.5" y="-246.8" font-family="Times,serif" font-size="14.00">4</text>
<polygon fill="none" stroke="black" points="2074.5,-240 2074.5,-261 2155.5,-261 2155.5,-240 2074.5,-240"/>
<text text-anchor="start" x="2097" y="-246.8" font-family="Times,serif" font-size="14.00">u4be</text>
<polygon fill="none" stroke="black" points="2155.5,-240 2155.5,-261 2244.5,-261 2244.5,-240 2155.5,-240"/>
<text text-anchor="start" x="2183" y="-246.8" font-family="Times,serif" font-size="14.00">flags</text>
<polygon fill="none" stroke="black" points="2009.5,-219 2009.5,-240 2040.5,-240 2040.5,-219 2009.5,-219"/>
<text text-anchor="start" x="2015.5" y="-225.8" font-family="Times,serif" font-size="14.00">12</text>
<polygon fill="none" stroke="black" points="2040.5,-219 2040.5,-240 2074.5,-240 2074.5,-219 2040.5,-219"/>
<text text-anchor="start" x="2050.5" y="-225.8" font-family="Times,serif" font-size="14.00">...</text>
<polygon fill="none" stroke="black" points="2074.5,-219 2074.5,-240 2155.5,-240 2155.5,-219 2074.5,-219"/>
<text text-anchor="start" x="2077.5" y="-225.8" font-family="Times,serif" font-size="14.00">str(UTF&#45;8)</text>
<polygon fill="none" stroke="black" points="2155.5,-219 2155.5,-240 2244.5,-240 2244.5,-219 2155.5,-219"/>
<text text-anchor="start" x="2166" y="-225.8" font-family="Times,serif" font-size="14.00">file_name</text>
</g>
<!-- index_entries__seq&#45;&gt;index_entry__seq -->
<g id="edge9" class="edge">
<title>index_entries__seq:index_entry_type&#45;&gt;index_entry__seq</title>
<path fill="none" stroke="black" stroke-width="2" d="M1935.5,-272C1953.31,-272 1972.06,-272 1990.57,-272"/>
<polygon fill="black" stroke="black" stroke-width="2" points="1990.81,-275.5 2000.81,-272 1990.81,-268.5 1990.81,-275.5"/>
</g>
<!-- signature__seq&#45;&gt;signature__seq -->
<g id="edge10" class="edge">
<title>signature__seq:len_signature_type&#45;&gt;signature__seq:signature_size</title>
<path fill="none" stroke="#404040" d="M1088.82,-227.02C1155.41,-251.73 1122.34,-291 893.5,-291 672.4,-291 634.05,-239.99 691.77,-210.25"/>
<polygon fill="#404040" stroke="#404040" points="693.34,-213.38 700.97,-206.02 690.42,-207.01 693.34,-213.38"/>
</g>
<!-- product_information_block__seq -->
<g id="node6" class="node">
<title>product_information_block__seq</title>
<polygon fill="#e0ffe0" stroke="transparent" points="1668.5,-70 1668.5,-91 1699.5,-91 1699.5,-70 1668.5,-70"/>
<polygon fill="none" stroke="black" points="1668.5,-70 1668.5,-91 1699.5,-91 1699.5,-70 1668.5,-70"/>
<text text-anchor="start" x="1671.5" y="-76.8" font-family="Times,serif" font-size="14.00">pos</text>
<polygon fill="#e0ffe0" stroke="transparent" points="1699.5,-70 1699.5,-91 1733.5,-91 1733.5,-70 1699.5,-70"/>
<polygon fill="none" stroke="black" points="1699.5,-70 1699.5,-91 1733.5,-91 1733.5,-70 1699.5,-70"/>
<text text-anchor="start" x="1702.5" y="-76.8" font-family="Times,serif" font-size="14.00">size</text>
<polygon fill="#e0ffe0" stroke="transparent" points="1733.5,-70 1733.5,-91 1814.5,-91 1814.5,-70 1733.5,-70"/>
<polygon fill="none" stroke="black" points="1733.5,-70 1733.5,-91 1814.5,-91 1814.5,-70 1733.5,-70"/>
<text text-anchor="start" x="1758" y="-76.8" font-family="Times,serif" font-size="14.00">type</text>
<polygon fill="#e0ffe0" stroke="transparent" points="1814.5,-70 1814.5,-91 1957.5,-91 1957.5,-70 1814.5,-70"/>
<polygon fill="none" stroke="black" points="1814.5,-70 1814.5,-91 1957.5,-91 1957.5,-70 1814.5,-70"/>
<text text-anchor="start" x="1879" y="-76.8" font-family="Times,serif" font-size="14.00">id</text>
<polygon fill="none" stroke="black" points="1668.5,-49 1668.5,-70 1699.5,-70 1699.5,-49 1668.5,-49"/>
<text text-anchor="start" x="1679" y="-55.8" font-family="Times,serif" font-size="14.00">0</text>
<polygon fill="none" stroke="black" points="1699.5,-49 1699.5,-70 1733.5,-70 1733.5,-49 1699.5,-49"/>
<text text-anchor="start" x="1707" y="-55.8" font-family="Times,serif" font-size="14.00">64</text>
<polygon fill="none" stroke="black" points="1733.5,-49 1733.5,-70 1814.5,-70 1814.5,-49 1733.5,-49"/>
<text text-anchor="start" x="1736.5" y="-55.8" font-family="Times,serif" font-size="14.00">str(UTF&#45;8)</text>
<polygon fill="none" stroke="black" points="1814.5,-49 1814.5,-70 1957.5,-70 1957.5,-49 1814.5,-49"/>
<text text-anchor="start" x="1817.5" y="-55.8" font-family="Times,serif" font-size="14.00">mar_channel_name</text>
<polygon fill="none" stroke="black" points="1668.5,-28 1668.5,-49 1699.5,-49 1699.5,-28 1668.5,-28"/>
<text text-anchor="start" x="1674.5" y="-34.8" font-family="Times,serif" font-size="14.00">64</text>
<polygon fill="none" stroke="black" points="1699.5,-28 1699.5,-49 1733.5,-49 1733.5,-28 1699.5,-28"/>
<text text-anchor="start" x="1707" y="-34.8" font-family="Times,serif" font-size="14.00">32</text>
<polygon fill="none" stroke="black" points="1733.5,-28 1733.5,-49 1814.5,-49 1814.5,-28 1733.5,-28"/>
<text text-anchor="start" x="1736.5" y="-34.8" font-family="Times,serif" font-size="14.00">str(UTF&#45;8)</text>
<polygon fill="none" stroke="black" points="1814.5,-28 1814.5,-49 1957.5,-49 1957.5,-28 1814.5,-28"/>
<text text-anchor="start" x="1828.5" y="-34.8" font-family="Times,serif" font-size="14.00">product_version</text>
</g>
<!-- index_entry__inst__body -->
<g id="node8" class="node">
<title>index_entry__inst__body</title>
<polygon fill="#e0ffe0" stroke="transparent" points="2296,-293 2296,-314 2384,-314 2384,-293 2296,-293"/>
<polygon fill="none" stroke="black" points="2296,-293 2296,-314 2384,-314 2384,-293 2296,-293"/>
<text text-anchor="start" x="2327.5" y="-299.8" font-family="Times,serif" font-size="14.00">pos</text>
<polygon fill="#e0ffe0" stroke="transparent" points="2384,-293 2384,-314 2473,-314 2473,-293 2384,-293"/>
<polygon fill="none" stroke="black" points="2384,-293 2384,-314 2473,-314 2473,-293 2384,-293"/>
<text text-anchor="start" x="2414.5" y="-299.8" font-family="Times,serif" font-size="14.00">size</text>
<polygon fill="#e0ffe0" stroke="transparent" points="2473,-293 2473,-314 2511,-314 2511,-293 2473,-293"/>
<polygon fill="none" stroke="black" points="2473,-293 2473,-314 2511,-314 2511,-293 2473,-293"/>
<text text-anchor="start" x="2476" y="-299.8" font-family="Times,serif" font-size="14.00">type</text>
<polygon fill="#e0ffe0" stroke="transparent" points="2511,-293 2511,-314 2552,-314 2552,-293 2511,-293"/>
<polygon fill="none" stroke="black" points="2511,-293 2511,-314 2552,-314 2552,-293 2511,-293"/>
<text text-anchor="start" x="2524.5" y="-299.8" font-family="Times,serif" font-size="14.00">id</text>
<polygon fill="none" stroke="black" points="2296,-272 2296,-293 2384,-293 2384,-272 2296,-272"/>
<text text-anchor="start" x="2299" y="-278.8" font-family="Times,serif" font-size="14.00">ofs_content</text>
<polygon fill="none" stroke="black" points="2384,-272 2384,-293 2473,-293 2473,-272 2384,-272"/>
<text text-anchor="start" x="2387" y="-278.8" font-family="Times,serif" font-size="14.00">len_content</text>
<polygon fill="none" stroke="black" points="2473,-272 2473,-293 2511,-293 2511,-272 2473,-272"/>
<polygon fill="none" stroke="black" points="2511,-272 2511,-293 2552,-293 2552,-272 2511,-272"/>
<text text-anchor="start" x="2514" y="-278.8" font-family="Times,serif" font-size="14.00">body</text>
</g>
<!-- index_entry__seq&#45;&gt;index_entry__inst__body -->
<g id="edge11" class="edge">
<title>index_entry__seq:ofs_content_type&#45;&gt;index_entry__inst__body:body_pos</title>
<path fill="none" stroke="#404040" d="M2245.5,-293C2264.16,-293 2270.41,-285.46 2284.8,-282.86"/>
<polygon fill="#404040" stroke="#404040" points="2285.33,-286.33 2295,-282 2284.74,-279.36 2285.33,-286.33"/>
</g>
<!-- index_entry__seq&#45;&gt;index_entry__inst__body -->
<g id="edge12" class="edge">
<title>index_entry__seq:len_content_type&#45;&gt;index_entry__inst__body:body_size</title>
<path fill="none" stroke="#404040" d="M2245.5,-271C2323.39,-271 2419.88,-196.61 2428.39,-260.97"/>
<polygon fill="#404040" stroke="#404040" points="2424.9,-261.23 2429,-271 2431.89,-260.81 2424.9,-261.23"/>
</g>
<!-- additional_section__seq&#45;&gt;additional_section__seq -->
<g id="edge15" class="edge">
<title>additional_section__seq:block_identifier_type&#45;&gt;additional_section__seq:bytes_type</title>
<path fill="none" stroke="#404040" d="M957.71,-70.02C888.38,-94.73 902.48,-134 1000,-134 1094.42,-134 1110.64,-82.78 1048.65,-53.07"/>
<polygon fill="#404040" stroke="#404040" points="1049.95,-49.81 1039.39,-49.02 1047.15,-56.23 1049.95,-49.81"/>
</g>
<!-- additional_section__seq_bytes_switch -->
<g id="node10" class="node">
<title>additional_section__seq_bytes_switch</title>
<polygon fill="#f0f2e4" stroke="transparent" points="1150,-60 1150,-81 1430,-81 1430,-60 1150,-60"/>
<polygon fill="none" stroke="black" points="1150,-60 1150,-81 1430,-81 1430,-60 1150,-60"/>
<text text-anchor="start" x="1274" y="-66.8" font-family="Times,serif" font-size="14.00">case</text>
<polygon fill="#f0f2e4" stroke="transparent" points="1430,-60 1430,-81 1616,-81 1616,-60 1430,-60"/>
<polygon fill="none" stroke="black" points="1430,-60 1430,-81 1616,-81 1616,-60 1430,-60"/>
<text text-anchor="start" x="1507" y="-66.8" font-family="Times,serif" font-size="14.00">type</text>
<polygon fill="none" stroke="black" points="1150,-39 1150,-60 1430,-60 1430,-39 1150,-39"/>
<text text-anchor="start" x="1153" y="-45.8" font-family="Times,serif" font-size="14.00">:block_identifiers_product_information</text>
<polygon fill="none" stroke="black" points="1430,-39 1430,-60 1616,-60 1616,-39 1430,-39"/>
<text text-anchor="start" x="1433" y="-45.8" font-family="Times,serif" font-size="14.00">ProductInformationBlock</text>
</g>
<!-- additional_section__seq&#45;&gt;additional_section__seq_bytes_switch -->
<g id="edge13" class="edge">
<title>additional_section__seq:bytes_type&#45;&gt;additional_section__seq_bytes_switch</title>
<path fill="none" stroke="black" stroke-width="2" d="M1059,-38C1082.59,-38 1107.12,-38.59 1131.66,-39.58"/>
<polygon fill="black" stroke="black" stroke-width="2" points="1131.66,-43.08 1141.8,-40.01 1131.96,-36.09 1131.66,-43.08"/>
</g>
<!-- additional_section__seq_bytes_switch&#45;&gt;product_information_block__seq -->
<g id="edge14" class="edge">
<title>additional_section__seq_bytes_switch:case0&#45;&gt;product_information_block__seq</title>
<path fill="none" stroke="black" stroke-width="2" d="M1617,-49C1627.68,-49 1638.69,-49.17 1649.78,-49.46"/>
<polygon fill="black" stroke="black" stroke-width="2" points="1649.88,-52.97 1659.97,-49.76 1650.08,-45.97 1649.88,-52.97"/>
</g>
</g>
</svg>
