<?xml version="1.0" encoding="UTF-8" standalone="no"?>
<!DOCTYPE svg PUBLIC "-//W3C//DTD SVG 1.1//EN"
 "http://www.w3.org/Graphics/SVG/1.1/DTD/svg11.dtd">
<!-- Generated by graphviz version 2.38.0 (20140413.2041)
 -->
<!-- Title: %3 Pages: 1 -->
<svg width="1377pt" height="276pt"
 viewBox="0.00 0.00 1377.00 276.00" xmlns="http://www.w3.org/2000/svg" xmlns:xlink="http://www.w3.org/1999/xlink">
<g id="graph0" class="graph" transform="scale(1 1) rotate(0) translate(4 272)">
<title>%3</title>
<polygon fill="white" stroke="none" points="-4,4 -4,-272 1373,-272 1373,4 -4,4"/>
<g id="clust1" class="cluster"><title>cluster__blender_blend</title>
<polygon fill="none" stroke="black" stroke-dasharray="1,5" points="8,-8 8,-260 1361,-260 1361,-8 8,-8"/>
<text text-anchor="middle" x="684.5" y="-244.8" font-family="Times,serif" font-size="14.00">BlenderBlend</text>
</g>
<g id="clust2" class="cluster"><title>cluster__header</title>
<polygon fill="none" stroke="black" stroke-dasharray="1,5" points="252,-64 252,-217 990,-217 990,-64 252,-64"/>
<text text-anchor="middle" x="621" y="-201.8" font-family="Times,serif" font-size="14.00">BlenderBlend::Header</text>
</g>
<g id="clust3" class="cluster"><title>cluster__file_block</title>
<polygon fill="none" stroke="black" stroke-dasharray="1,5" points="1010,-16 1010,-229 1353,-229 1353,-16 1010,-16"/>
<text text-anchor="middle" x="1181.5" y="-213.8" font-family="Times,serif" font-size="14.00">BlenderBlend::FileBlock</text>
</g>
<!-- blender_blend__seq -->
<g id="node1" class="node"><title>blender_blend__seq</title>
<polygon fill="#e0ffe0" stroke="none" points="24,-112 24,-133 55,-133 55,-112 24,-112"/>
<polygon fill="none" stroke="black" points="24,-112 24,-133 55,-133 55,-112 24,-112"/>
<text text-anchor="start" x="27" y="-118.8" font-family="Times,serif" font-size="14.00">pos</text>
<polygon fill="#e0ffe0" stroke="none" points="55,-112 55,-133 89,-133 89,-112 55,-112"/>
<polygon fill="none" stroke="black" points="55,-112 55,-133 89,-133 89,-112 55,-112"/>
<text text-anchor="start" x="58" y="-118.8" font-family="Times,serif" font-size="14.00">size</text>
<polygon fill="#e0ffe0" stroke="none" points="89,-112 89,-133 163,-133 163,-112 89,-112"/>
<polygon fill="none" stroke="black" points="89,-112 89,-133 163,-133 163,-112 89,-112"/>
<text text-anchor="start" x="110" y="-118.8" font-family="Times,serif" font-size="14.00">type</text>
<polygon fill="#e0ffe0" stroke="none" points="163,-112 163,-133 216,-133 216,-112 163,-112"/>
<polygon fill="none" stroke="black" points="163,-112 163,-133 216,-133 216,-112 163,-112"/>
<text text-anchor="start" x="182.5" y="-118.8" font-family="Times,serif" font-size="14.00">id</text>
<polygon fill="none" stroke="black" points="24,-91 24,-112 55,-112 55,-91 24,-91"/>
<text text-anchor="start" x="34.5" y="-97.8" font-family="Times,serif" font-size="14.00">0</text>
<polygon fill="none" stroke="black" points="55,-91 55,-112 89,-112 89,-91 55,-91"/>
<text text-anchor="start" x="62.5" y="-97.8" font-family="Times,serif" font-size="14.00">12</text>
<polygon fill="none" stroke="black" points="89,-91 89,-112 163,-112 163,-91 89,-91"/>
<text text-anchor="start" x="99" y="-97.8" font-family="Times,serif" font-size="14.00">Header</text>
<polygon fill="none" stroke="black" points="163,-91 163,-112 216,-112 216,-91 163,-91"/>
<text text-anchor="start" x="177" y="-97.8" font-family="Times,serif" font-size="14.00">hdr</text>
<polygon fill="none" stroke="black" points="24,-70 24,-91 55,-91 55,-70 24,-70"/>
<text text-anchor="start" x="30" y="-76.8" font-family="Times,serif" font-size="14.00">12</text>
<polygon fill="none" stroke="black" points="55,-70 55,-91 89,-91 89,-70 55,-70"/>
<text text-anchor="start" x="65" y="-76.8" font-family="Times,serif" font-size="14.00">...</text>
<polygon fill="none" stroke="black" points="89,-70 89,-91 163,-91 163,-70 89,-70"/>
<text text-anchor="start" x="92" y="-76.8" font-family="Times,serif" font-size="14.00">FileBlock</text>
<polygon fill="none" stroke="black" points="163,-70 163,-91 216,-91 216,-70 163,-70"/>
<text text-anchor="start" x="166" y="-76.8" font-family="Times,serif" font-size="14.00">blocks</text>
<polygon fill="none" stroke="black" points="24,-49 24,-70 216,-70 216,-49 24,-49"/>
<text text-anchor="start" x="35.5" y="-55.8" font-family="Times,serif" font-size="14.00">repeat to end of stream</text>
</g>
<!-- header__seq -->
<g id="node2" class="node"><title>header__seq</title>
<polygon fill="#e0ffe0" stroke="none" points="268.5,-160 268.5,-181 299.5,-181 299.5,-160 268.5,-160"/>
<polygon fill="none" stroke="black" points="268.5,-160 268.5,-181 299.5,-181 299.5,-160 268.5,-160"/>
<text text-anchor="start" x="271.5" y="-166.8" font-family="Times,serif" font-size="14.00">pos</text>
<polygon fill="#e0ffe0" stroke="none" points="299.5,-160 299.5,-181 333.5,-181 333.5,-160 299.5,-160"/>
<polygon fill="none" stroke="black" points="299.5,-160 299.5,-181 333.5,-181 333.5,-160 299.5,-160"/>
<text text-anchor="start" x="302.5" y="-166.8" font-family="Times,serif" font-size="14.00">size</text>
<polygon fill="#e0ffe0" stroke="none" points="333.5,-160 333.5,-181 496.5,-181 496.5,-160 333.5,-160"/>
<polygon fill="none" stroke="black" points="333.5,-160 333.5,-181 496.5,-181 496.5,-160 333.5,-160"/>
<text text-anchor="start" x="399" y="-166.8" font-family="Times,serif" font-size="14.00">type</text>
<polygon fill="#e0ffe0" stroke="none" points="496.5,-160 496.5,-181 581.5,-181 581.5,-160 496.5,-160"/>
<polygon fill="none" stroke="black" points="496.5,-160 496.5,-181 581.5,-181 581.5,-160 496.5,-160"/>
<text text-anchor="start" x="532" y="-166.8" font-family="Times,serif" font-size="14.00">id</text>
<polygon fill="none" stroke="black" points="268.5,-139 268.5,-160 299.5,-160 299.5,-139 268.5,-139"/>
<text text-anchor="start" x="279" y="-145.8" font-family="Times,serif" font-size="14.00">0</text>
<polygon fill="none" stroke="black" points="299.5,-139 299.5,-160 333.5,-160 333.5,-139 299.5,-139"/>
<text text-anchor="start" x="311.5" y="-145.8" font-family="Times,serif" font-size="14.00">7</text>
<polygon fill="none" stroke="black" points="333.5,-139 333.5,-160 496.5,-160 496.5,-139 333.5,-139"/>
<text text-anchor="start" x="336.5" y="-145.8" font-family="Times,serif" font-size="14.00">42 4C 45 4E 44 45 52</text>
<polygon fill="none" stroke="black" points="496.5,-139 496.5,-160 581.5,-160 581.5,-139 496.5,-139"/>
<text text-anchor="start" x="517" y="-145.8" font-family="Times,serif" font-size="14.00">magic</text>
<polygon fill="none" stroke="black" points="268.5,-118 268.5,-139 299.5,-139 299.5,-118 268.5,-118"/>
<text text-anchor="start" x="279" y="-124.8" font-family="Times,serif" font-size="14.00">7</text>
<polygon fill="none" stroke="black" points="299.5,-118 299.5,-139 333.5,-139 333.5,-118 299.5,-118"/>
<text text-anchor="start" x="311.5" y="-124.8" font-family="Times,serif" font-size="14.00">1</text>
<polygon fill="none" stroke="black" points="333.5,-118 333.5,-139 496.5,-139 496.5,-118 333.5,-118"/>
<text text-anchor="start" x="375.5" y="-124.8" font-family="Times,serif" font-size="14.00">u1?PtrSize</text>
<polygon fill="none" stroke="black" points="496.5,-118 496.5,-139 581.5,-139 581.5,-118 496.5,-118"/>
<text text-anchor="start" x="499.5" y="-124.8" font-family="Times,serif" font-size="14.00">ptr_size_id</text>
<polygon fill="none" stroke="black" points="268.5,-97 268.5,-118 299.5,-118 299.5,-97 268.5,-97"/>
<text text-anchor="start" x="279" y="-103.8" font-family="Times,serif" font-size="14.00">8</text>
<polygon fill="none" stroke="black" points="299.5,-97 299.5,-118 333.5,-118 333.5,-97 299.5,-97"/>
<text text-anchor="start" x="311.5" y="-103.8" font-family="Times,serif" font-size="14.00">1</text>
<polygon fill="none" stroke="black" points="333.5,-97 333.5,-118 496.5,-118 496.5,-97 333.5,-97"/>
<text text-anchor="start" x="377" y="-103.8" font-family="Times,serif" font-size="14.00">u1?Endian</text>
<polygon fill="none" stroke="black" points="496.5,-97 496.5,-118 581.5,-118 581.5,-97 496.5,-97"/>
<text text-anchor="start" x="514.5" y="-103.8" font-family="Times,serif" font-size="14.00">endian</text>
<polygon fill="none" stroke="black" points="268.5,-76 268.5,-97 299.5,-97 299.5,-76 268.5,-76"/>
<text text-anchor="start" x="279" y="-82.8" font-family="Times,serif" font-size="14.00">9</text>
<polygon fill="none" stroke="black" points="299.5,-76 299.5,-97 333.5,-97 333.5,-76 299.5,-76"/>
<text text-anchor="start" x="311.5" y="-82.8" font-family="Times,serif" font-size="14.00">3</text>
<polygon fill="none" stroke="black" points="333.5,-76 333.5,-97 496.5,-97 496.5,-76 333.5,-76"/>
<text text-anchor="start" x="377.5" y="-82.8" font-family="Times,serif" font-size="14.00">str(ASCII)</text>
<polygon fill="none" stroke="black" points="496.5,-76 496.5,-97 581.5,-97 581.5,-76 496.5,-76"/>
<text text-anchor="start" x="512.5" y="-82.8" font-family="Times,serif" font-size="14.00">version</text>
</g>
<!-- blender_blend__seq&#45;&gt;header__seq -->
<g id="edge1" class="edge"><title>blender_blend__seq:hdr_type&#45;&gt;header__seq</title>
<path fill="none" stroke="black" stroke-width="2" d="M217,-102C227.657,-102 238.598,-102.358 249.616,-102.991"/>
<polygon fill="black" stroke="black" stroke-width="2" points="249.545,-106.494 259.751,-103.648 249.998,-99.5087 249.545,-106.494"/>
</g>
<!-- file_block__seq -->
<g id="node4" class="node"><title>file_block__seq</title>
<polygon fill="#e0ffe0" stroke="none" points="1026.5,-154 1026.5,-175 1057.5,-175 1057.5,-154 1026.5,-154"/>
<polygon fill="none" stroke="black" points="1026.5,-154 1026.5,-175 1057.5,-175 1057.5,-154 1026.5,-154"/>
<text text-anchor="start" x="1029.5" y="-160.8" font-family="Times,serif" font-size="14.00">pos</text>
<polygon fill="#e0ffe0" stroke="none" points="1057.5,-154 1057.5,-175 1169.5,-175 1169.5,-154 1057.5,-154"/>
<polygon fill="none" stroke="black" points="1057.5,-154 1057.5,-175 1169.5,-175 1169.5,-154 1057.5,-154"/>
<text text-anchor="start" x="1099.5" y="-160.8" font-family="Times,serif" font-size="14.00">size</text>
<polygon fill="#e0ffe0" stroke="none" points="1169.5,-154 1169.5,-175 1250.5,-175 1250.5,-154 1169.5,-154"/>
<polygon fill="none" stroke="black" points="1169.5,-154 1169.5,-175 1250.5,-175 1250.5,-154 1169.5,-154"/>
<text text-anchor="start" x="1194" y="-160.8" font-family="Times,serif" font-size="14.00">type</text>
<polygon fill="#e0ffe0" stroke="none" points="1250.5,-154 1250.5,-175 1337.5,-175 1337.5,-154 1250.5,-154"/>
<polygon fill="none" stroke="black" points="1250.5,-154 1250.5,-175 1337.5,-175 1337.5,-154 1250.5,-154"/>
<text text-anchor="start" x="1287" y="-160.8" font-family="Times,serif" font-size="14.00">id</text>
<polygon fill="none" stroke="black" points="1026.5,-133 1026.5,-154 1057.5,-154 1057.5,-133 1026.5,-133"/>
<text text-anchor="start" x="1037" y="-139.8" font-family="Times,serif" font-size="14.00">0</text>
<polygon fill="none" stroke="black" points="1057.5,-133 1057.5,-154 1169.5,-154 1169.5,-133 1057.5,-133"/>
<text text-anchor="start" x="1108.5" y="-139.8" font-family="Times,serif" font-size="14.00">4</text>
<polygon fill="none" stroke="black" points="1169.5,-133 1169.5,-154 1250.5,-154 1250.5,-133 1169.5,-133"/>
<text text-anchor="start" x="1172.5" y="-139.8" font-family="Times,serif" font-size="14.00">str(ASCII)</text>
<polygon fill="none" stroke="black" points="1250.5,-133 1250.5,-154 1337.5,-154 1337.5,-133 1250.5,-133"/>
<text text-anchor="start" x="1277" y="-139.8" font-family="Times,serif" font-size="14.00">code</text>
<polygon fill="none" stroke="black" points="1026.5,-112 1026.5,-133 1057.5,-133 1057.5,-112 1026.5,-112"/>
<text text-anchor="start" x="1037" y="-118.8" font-family="Times,serif" font-size="14.00">4</text>
<polygon fill="none" stroke="black" points="1057.5,-112 1057.5,-133 1169.5,-133 1169.5,-112 1057.5,-112"/>
<text text-anchor="start" x="1108.5" y="-118.8" font-family="Times,serif" font-size="14.00">4</text>
<polygon fill="none" stroke="black" points="1169.5,-112 1169.5,-133 1250.5,-133 1250.5,-112 1169.5,-112"/>
<text text-anchor="start" x="1194.5" y="-118.8" font-family="Times,serif" font-size="14.00">u4le</text>
<polygon fill="none" stroke="black" points="1250.5,-112 1250.5,-133 1337.5,-133 1337.5,-112 1250.5,-112"/>
<text text-anchor="start" x="1280" y="-118.8" font-family="Times,serif" font-size="14.00">size</text>
<polygon fill="none" stroke="black" points="1026.5,-91 1026.5,-112 1057.5,-112 1057.5,-91 1026.5,-91"/>
<text text-anchor="start" x="1037" y="-97.8" font-family="Times,serif" font-size="14.00">8</text>
<polygon fill="none" stroke="black" points="1057.5,-91 1057.5,-112 1169.5,-112 1169.5,-91 1057.5,-91"/>
<text text-anchor="start" x="1060.5" y="-97.8" font-family="Times,serif" font-size="14.00">_root.hdr.psize</text>
<polygon fill="none" stroke="black" points="1169.5,-91 1169.5,-112 1250.5,-112 1250.5,-91 1169.5,-91"/>
<polygon fill="none" stroke="black" points="1250.5,-91 1250.5,-112 1337.5,-112 1337.5,-91 1250.5,-91"/>
<text text-anchor="start" x="1256" y="-97.8" font-family="Times,serif" font-size="14.00">mem_addr</text>
<polygon fill="none" stroke="black" points="1026.5,-70 1026.5,-91 1057.5,-91 1057.5,-70 1026.5,-70"/>
<text text-anchor="start" x="1035" y="-76.8" font-family="Times,serif" font-size="14.00">...</text>
<polygon fill="none" stroke="black" points="1057.5,-70 1057.5,-91 1169.5,-91 1169.5,-70 1057.5,-70"/>
<text text-anchor="start" x="1108.5" y="-76.8" font-family="Times,serif" font-size="14.00">4</text>
<polygon fill="none" stroke="black" points="1169.5,-70 1169.5,-91 1250.5,-91 1250.5,-70 1169.5,-70"/>
<text text-anchor="start" x="1194.5" y="-76.8" font-family="Times,serif" font-size="14.00">u4le</text>
<polygon fill="none" stroke="black" points="1250.5,-70 1250.5,-91 1337.5,-91 1337.5,-70 1250.5,-70"/>
<text text-anchor="start" x="1253.5" y="-76.8" font-family="Times,serif" font-size="14.00">sdna_index</text>
<polygon fill="none" stroke="black" points="1026.5,-49 1026.5,-70 1057.5,-70 1057.5,-49 1026.5,-49"/>
<text text-anchor="start" x="1035" y="-55.8" font-family="Times,serif" font-size="14.00">...</text>
<polygon fill="none" stroke="black" points="1057.5,-49 1057.5,-70 1169.5,-70 1169.5,-49 1057.5,-49"/>
<text text-anchor="start" x="1108.5" y="-55.8" font-family="Times,serif" font-size="14.00">4</text>
<polygon fill="none" stroke="black" points="1169.5,-49 1169.5,-70 1250.5,-70 1250.5,-49 1169.5,-49"/>
<text text-anchor="start" x="1194.5" y="-55.8" font-family="Times,serif" font-size="14.00">u4le</text>
<polygon fill="none" stroke="black" points="1250.5,-49 1250.5,-70 1337.5,-70 1337.5,-49 1250.5,-49"/>
<text text-anchor="start" x="1273.5" y="-55.8" font-family="Times,serif" font-size="14.00">count</text>
<polygon fill="none" stroke="black" points="1026.5,-28 1026.5,-49 1057.5,-49 1057.5,-28 1026.5,-28"/>
<text text-anchor="start" x="1035" y="-34.8" font-family="Times,serif" font-size="14.00">...</text>
<polygon fill="none" stroke="black" points="1057.5,-28 1057.5,-49 1169.5,-49 1169.5,-28 1057.5,-28"/>
<text text-anchor="start" x="1099.5" y="-34.8" font-family="Times,serif" font-size="14.00">size</text>
<polygon fill="none" stroke="black" points="1169.5,-28 1169.5,-49 1250.5,-49 1250.5,-28 1169.5,-28"/>
<polygon fill="none" stroke="black" points="1250.5,-28 1250.5,-49 1337.5,-49 1337.5,-28 1250.5,-28"/>
<text text-anchor="start" x="1276.5" y="-34.8" font-family="Times,serif" font-size="14.00">body</text>
</g>
<!-- blender_blend__seq&#45;&gt;file_block__seq -->
<g id="edge2" class="edge"><title>blender_blend__seq:blocks_type&#45;&gt;file_block__seq</title>
<path fill="none" stroke="black" stroke-width="2" d="M217,-80C234.916,-80 234.684,-64.5985 252,-60 569.012,24.1871 663.929,-24.4816 990,-60 995.877,-60.6402 1001.84,-61.3884 1007.85,-62.2269"/>
<polygon fill="black" stroke="black" stroke-width="2" points="1007.59,-65.7266 1017.99,-63.7201 1008.61,-58.8013 1007.59,-65.7266"/>
</g>
<!-- header__inst__psize -->
<g id="node3" class="node"><title>header__inst__psize</title>
<polygon fill="#e0ffe0" stroke="none" points="633.5,-112 633.5,-133 676.5,-133 676.5,-112 633.5,-112"/>
<polygon fill="none" stroke="black" points="633.5,-112 633.5,-133 676.5,-133 676.5,-112 633.5,-112"/>
<text text-anchor="start" x="648" y="-118.8" font-family="Times,serif" font-size="14.00">id</text>
<polygon fill="#e0ffe0" stroke="none" points="676.5,-112 676.5,-133 974.5,-133 974.5,-112 676.5,-112"/>
<polygon fill="none" stroke="black" points="676.5,-112 676.5,-133 974.5,-133 974.5,-112 676.5,-112"/>
<text text-anchor="start" x="806" y="-118.8" font-family="Times,serif" font-size="14.00">value</text>
<polygon fill="none" stroke="black" points="633.5,-91 633.5,-112 676.5,-112 676.5,-91 633.5,-91"/>
<text text-anchor="start" x="636.5" y="-97.8" font-family="Times,serif" font-size="14.00">psize</text>
<polygon fill="none" stroke="black" points="676.5,-91 676.5,-112 974.5,-112 974.5,-91 676.5,-91"/>
<text text-anchor="start" x="679.5" y="-97.8" font-family="Times,serif" font-size="14.00">(ptr_size_id == :ptr_size_bits_64 ? 8 : 4)</text>
</g>
<!-- header__seq&#45;&gt;header__inst__psize -->
<g id="edge3" class="edge"><title>header__seq:ptr_size_id_type&#45;&gt;header__inst__psize</title>
<path fill="none" stroke="#404040" d="M582.5,-128C593.055,-128 603.888,-127.815 614.815,-127.484"/>
<polygon fill="#404040" stroke="#404040" points="614.998,-130.979 624.873,-127.14 614.759,-123.984 614.998,-130.979"/>
</g>
<!-- header__inst__psize&#45;&gt;file_block__seq -->
<g id="edge4" class="edge"><title>header__inst__psize:psize_type&#45;&gt;file_block__seq:mem_addr_size</title>
<path fill="none" stroke="#404040" d="M982.327,-105.649C1005.39,-104.825 1027.72,-104.028 1047.19,-103.333"/>
<polygon fill="#404040" stroke="#404040" points="1047.53,-106.823 1057.39,-102.968 1047.28,-99.8273 1047.53,-106.823"/>
</g>
<!-- file_block__seq&#45;&gt;file_block__seq -->
<g id="edge5" class="edge"><title>file_block__seq:size_type&#45;&gt;file_block__seq:body_size</title>
<path fill="none" stroke="#404040" d="M1320.71,-133.175C1387.02,-163.209 1369.85,-197.5 1204,-197.5 1043.2,-197.5 1022.17,-101.051 1081.47,-54.9134"/>
<polygon fill="#404040" stroke="#404040" points="1083.73,-57.6033 1089.93,-49.0164 1079.73,-51.859 1083.73,-57.6033"/>
</g>
</g>
</svg>
