<?xml version="1.0" encoding="UTF-8" standalone="no"?>
<!DOCTYPE svg PUBLIC "-//W3C//DTD SVG 1.1//EN"
 "http://www.w3.org/Graphics/SVG/1.1/DTD/svg11.dtd">
<!-- Generated by graphviz version 2.40.1 (20161225.0304)
 -->
<!-- Title: %3 Pages: 1 -->
<svg width="1834pt" height="373pt"
 viewBox="0.00 0.00 1834.00 373.00" xmlns="http://www.w3.org/2000/svg" xmlns:xlink="http://www.w3.org/1999/xlink">
<g id="graph0" class="graph" transform="scale(1 1) rotate(0) translate(4 369)">
<title>%3</title>
<polygon fill="#ffffff" stroke="transparent" points="-4,4 -4,-369 1830,-369 1830,4 -4,4"/>
<g id="clust1" class="cluster">
<title>cluster__fallout2_dat</title>
<polygon fill="none" stroke="#000000" stroke-dasharray="1,5" points="8,-8 8,-357 1818,-357 1818,-8 8,-8"/>
<text text-anchor="middle" x="913" y="-341.8" font-family="Times,serif" font-size="14.00" fill="#000000">Fallout2Dat</text>
</g>
<g id="clust2" class="cluster">
<title>cluster__pstr</title>
<polygon fill="none" stroke="#000000" stroke-dasharray="1,5" points="1564,-197 1564,-326 1776,-326 1776,-197 1564,-197"/>
<text text-anchor="middle" x="1670" y="-310.8" font-family="Times,serif" font-size="14.00" fill="#000000">Fallout2Dat::Pstr</text>
</g>
<g id="clust3" class="cluster">
<title>cluster__footer</title>
<polygon fill="none" stroke="#000000" stroke-dasharray="1,5" points="288,-59 288,-170 504,-170 504,-59 288,-59"/>
<text text-anchor="middle" x="396" y="-154.8" font-family="Times,serif" font-size="14.00" fill="#000000">Fallout2Dat::Footer</text>
</g>
<g id="clust4" class="cluster">
<title>cluster__index</title>
<polygon fill="none" stroke="#000000" stroke-dasharray="1,5" points="939,-48 939,-179 1151,-179 1151,-48 939,-48"/>
<text text-anchor="middle" x="1045" y="-163.8" font-family="Times,serif" font-size="14.00" fill="#000000">Fallout2Dat::Index</text>
</g>
<g id="clust5" class="cluster">
<title>cluster__file</title>
<polygon fill="none" stroke="#000000" stroke-dasharray="1,5" points="1171,-16 1171,-189 1810,-189 1810,-16 1171,-16"/>
<text text-anchor="middle" x="1490.5" y="-173.8" font-family="Times,serif" font-size="14.00" fill="#000000">Fallout2Dat::File</text>
</g>
<!-- fallout2_dat__seq -->
<g id="node1" class="node">
<title>fallout2_dat__seq</title>
<polygon fill="#e0ffe0" stroke="transparent" points="77,-230 77,-251 108,-251 108,-230 77,-230"/>
<polygon fill="none" stroke="#000000" points="77,-230 77,-251 108,-251 108,-230 77,-230"/>
<text text-anchor="start" x="80" y="-236.8" font-family="Times,serif" font-size="14.00" fill="#000000">pos</text>
<polygon fill="#e0ffe0" stroke="transparent" points="108,-230 108,-251 142,-251 142,-230 108,-230"/>
<polygon fill="none" stroke="#000000" points="108,-230 108,-251 142,-251 142,-230 108,-230"/>
<text text-anchor="start" x="111" y="-236.8" font-family="Times,serif" font-size="14.00" fill="#000000">size</text>
<polygon fill="#e0ffe0" stroke="transparent" points="142,-230 142,-251 180,-251 180,-230 142,-230"/>
<polygon fill="none" stroke="#000000" points="142,-230 142,-251 180,-251 180,-230 142,-230"/>
<text text-anchor="start" x="145" y="-236.8" font-family="Times,serif" font-size="14.00" fill="#000000">type</text>
<polygon fill="#e0ffe0" stroke="transparent" points="180,-230 180,-251 200,-251 200,-230 180,-230"/>
<polygon fill="none" stroke="#000000" points="180,-230 180,-251 200,-251 200,-230 180,-230"/>
<text text-anchor="start" x="183" y="-236.8" font-family="Times,serif" font-size="14.00" fill="#000000">id</text>
</g>
<!-- fallout2_dat__inst__footer -->
<g id="node2" class="node">
<title>fallout2_dat__inst__footer</title>
<polygon fill="#e0ffe0" stroke="transparent" points="24,-114 24,-135 116,-135 116,-114 24,-114"/>
<polygon fill="none" stroke="#000000" points="24,-114 24,-135 116,-135 116,-114 24,-114"/>
<text text-anchor="start" x="57.5" y="-120.8" font-family="Times,serif" font-size="14.00" fill="#000000">pos</text>
<polygon fill="#e0ffe0" stroke="transparent" points="116,-114 116,-135 150,-135 150,-114 116,-114"/>
<polygon fill="none" stroke="#000000" points="116,-114 116,-135 150,-135 150,-114 116,-114"/>
<text text-anchor="start" x="119" y="-120.8" font-family="Times,serif" font-size="14.00" fill="#000000">size</text>
<polygon fill="#e0ffe0" stroke="transparent" points="150,-114 150,-135 203,-135 203,-114 150,-114"/>
<polygon fill="none" stroke="#000000" points="150,-114 150,-135 203,-135 203,-114 150,-114"/>
<text text-anchor="start" x="160.5" y="-120.8" font-family="Times,serif" font-size="14.00" fill="#000000">type</text>
<polygon fill="#e0ffe0" stroke="transparent" points="203,-114 203,-135 252,-135 252,-114 203,-114"/>
<polygon fill="none" stroke="#000000" points="203,-114 203,-135 252,-135 252,-114 203,-114"/>
<text text-anchor="start" x="220.5" y="-120.8" font-family="Times,serif" font-size="14.00" fill="#000000">id</text>
<polygon fill="none" stroke="#000000" points="24,-93 24,-114 116,-114 116,-93 24,-93"/>
<text text-anchor="start" x="27" y="-99.8" font-family="Times,serif" font-size="14.00" fill="#000000">(_io.size &#45; 8)</text>
<polygon fill="none" stroke="#000000" points="116,-93 116,-114 150,-114 150,-93 116,-93"/>
<text text-anchor="start" x="128" y="-99.8" font-family="Times,serif" font-size="14.00" fill="#000000">8</text>
<polygon fill="none" stroke="#000000" points="150,-93 150,-114 203,-114 203,-93 150,-93"/>
<text text-anchor="start" x="153" y="-99.8" font-family="Times,serif" font-size="14.00" fill="#000000">Footer</text>
<polygon fill="none" stroke="#000000" points="203,-93 203,-114 252,-114 252,-93 203,-93"/>
<text text-anchor="start" x="206" y="-99.8" font-family="Times,serif" font-size="14.00" fill="#000000">footer</text>
</g>
<!-- footer__seq -->
<g id="node5" class="node">
<title>footer__seq</title>
<polygon fill="#e0ffe0" stroke="transparent" points="304,-113 304,-134 335,-134 335,-113 304,-113"/>
<polygon fill="none" stroke="#000000" points="304,-113 304,-134 335,-134 335,-113 304,-113"/>
<text text-anchor="start" x="307" y="-119.8" font-family="Times,serif" font-size="14.00" fill="#000000">pos</text>
<polygon fill="#e0ffe0" stroke="transparent" points="335,-113 335,-134 369,-134 369,-113 335,-113"/>
<polygon fill="none" stroke="#000000" points="335,-113 335,-134 369,-134 369,-113 335,-113"/>
<text text-anchor="start" x="338" y="-119.8" font-family="Times,serif" font-size="14.00" fill="#000000">size</text>
<polygon fill="#e0ffe0" stroke="transparent" points="369,-113 369,-134 407,-134 407,-113 369,-113"/>
<polygon fill="none" stroke="#000000" points="369,-113 369,-134 407,-134 407,-113 369,-113"/>
<text text-anchor="start" x="372" y="-119.8" font-family="Times,serif" font-size="14.00" fill="#000000">type</text>
<polygon fill="#e0ffe0" stroke="transparent" points="407,-113 407,-134 488,-134 488,-113 407,-113"/>
<polygon fill="none" stroke="#000000" points="407,-113 407,-134 488,-134 488,-113 407,-113"/>
<text text-anchor="start" x="440.5" y="-119.8" font-family="Times,serif" font-size="14.00" fill="#000000">id</text>
<polygon fill="none" stroke="#000000" points="304,-92 304,-113 335,-113 335,-92 304,-92"/>
<text text-anchor="start" x="314.5" y="-98.8" font-family="Times,serif" font-size="14.00" fill="#000000">0</text>
<polygon fill="none" stroke="#000000" points="335,-92 335,-113 369,-113 369,-92 335,-92"/>
<text text-anchor="start" x="347" y="-98.8" font-family="Times,serif" font-size="14.00" fill="#000000">4</text>
<polygon fill="none" stroke="#000000" points="369,-92 369,-113 407,-113 407,-92 369,-92"/>
<text text-anchor="start" x="372.5" y="-98.8" font-family="Times,serif" font-size="14.00" fill="#000000">u4le</text>
<polygon fill="none" stroke="#000000" points="407,-92 407,-113 488,-113 488,-92 407,-92"/>
<text text-anchor="start" x="410" y="-98.8" font-family="Times,serif" font-size="14.00" fill="#000000">index_size</text>
<polygon fill="none" stroke="#000000" points="304,-71 304,-92 335,-92 335,-71 304,-71"/>
<text text-anchor="start" x="314.5" y="-77.8" font-family="Times,serif" font-size="14.00" fill="#000000">4</text>
<polygon fill="none" stroke="#000000" points="335,-71 335,-92 369,-92 369,-71 335,-71"/>
<text text-anchor="start" x="347" y="-77.8" font-family="Times,serif" font-size="14.00" fill="#000000">4</text>
<polygon fill="none" stroke="#000000" points="369,-71 369,-92 407,-92 407,-71 369,-71"/>
<text text-anchor="start" x="372.5" y="-77.8" font-family="Times,serif" font-size="14.00" fill="#000000">u4le</text>
<polygon fill="none" stroke="#000000" points="407,-71 407,-92 488,-92 488,-71 407,-71"/>
<text text-anchor="start" x="418.5" y="-77.8" font-family="Times,serif" font-size="14.00" fill="#000000">file_size</text>
</g>
<!-- fallout2_dat__inst__footer&#45;&gt;footer__seq -->
<g id="edge1" class="edge">
<title>fallout2_dat__inst__footer:footer_type&#45;&gt;footer__seq</title>
<path fill="none" stroke="#000000" stroke-width="2" d="M252,-103C262.8145,-103 274.0858,-103 285.3507,-103"/>
<polygon fill="#000000" stroke="#000000" stroke-width="2" points="285.6811,-106.5001 295.681,-103 285.681,-99.5001 285.6811,-106.5001"/>
</g>
<!-- fallout2_dat__inst__index -->
<g id="node3" class="node">
<title>fallout2_dat__inst__index</title>
<polygon fill="#e0ffe0" stroke="transparent" points="540.5,-113 540.5,-134 776.5,-134 776.5,-113 540.5,-113"/>
<polygon fill="none" stroke="#000000" points="540.5,-113 540.5,-134 776.5,-134 776.5,-113 540.5,-113"/>
<text text-anchor="start" x="646" y="-119.8" font-family="Times,serif" font-size="14.00" fill="#000000">pos</text>
<polygon fill="#e0ffe0" stroke="transparent" points="776.5,-113 776.5,-134 810.5,-134 810.5,-113 776.5,-113"/>
<polygon fill="none" stroke="#000000" points="776.5,-113 776.5,-134 810.5,-134 810.5,-113 776.5,-113"/>
<text text-anchor="start" x="779.5" y="-119.8" font-family="Times,serif" font-size="14.00" fill="#000000">size</text>
<polygon fill="#e0ffe0" stroke="transparent" points="810.5,-113 810.5,-134 857.5,-134 857.5,-113 810.5,-113"/>
<polygon fill="none" stroke="#000000" points="810.5,-113 810.5,-134 857.5,-134 857.5,-113 810.5,-113"/>
<text text-anchor="start" x="818" y="-119.8" font-family="Times,serif" font-size="14.00" fill="#000000">type</text>
<polygon fill="#e0ffe0" stroke="transparent" points="857.5,-113 857.5,-134 903.5,-134 903.5,-113 857.5,-113"/>
<polygon fill="none" stroke="#000000" points="857.5,-113 857.5,-134 903.5,-134 903.5,-113 857.5,-113"/>
<text text-anchor="start" x="873.5" y="-119.8" font-family="Times,serif" font-size="14.00" fill="#000000">id</text>
<polygon fill="none" stroke="#000000" points="540.5,-92 540.5,-113 776.5,-113 776.5,-92 540.5,-92"/>
<text text-anchor="start" x="543.5" y="-98.8" font-family="Times,serif" font-size="14.00" fill="#000000">((_io.size &#45; 8) &#45; footer.index_size)</text>
<polygon fill="none" stroke="#000000" points="776.5,-92 776.5,-113 810.5,-113 810.5,-92 776.5,-92"/>
<text text-anchor="start" x="786.5" y="-98.8" font-family="Times,serif" font-size="14.00" fill="#000000">...</text>
<polygon fill="none" stroke="#000000" points="810.5,-92 810.5,-113 857.5,-113 857.5,-92 810.5,-92"/>
<text text-anchor="start" x="813.5" y="-98.8" font-family="Times,serif" font-size="14.00" fill="#000000">Index</text>
<polygon fill="none" stroke="#000000" points="857.5,-92 857.5,-113 903.5,-113 903.5,-92 857.5,-92"/>
<text text-anchor="start" x="860.5" y="-98.8" font-family="Times,serif" font-size="14.00" fill="#000000">index</text>
</g>
<!-- index__seq -->
<g id="node6" class="node">
<title>index__seq</title>
<polygon fill="#e0ffe0" stroke="transparent" points="955,-123 955,-144 986,-144 986,-123 955,-123"/>
<polygon fill="none" stroke="#000000" points="955,-123 955,-144 986,-144 986,-123 955,-123"/>
<text text-anchor="start" x="958" y="-129.8" font-family="Times,serif" font-size="14.00" fill="#000000">pos</text>
<polygon fill="#e0ffe0" stroke="transparent" points="986,-123 986,-144 1020,-144 1020,-123 986,-123"/>
<polygon fill="none" stroke="#000000" points="986,-123 986,-144 1020,-144 1020,-123 986,-123"/>
<text text-anchor="start" x="989" y="-129.8" font-family="Times,serif" font-size="14.00" fill="#000000">size</text>
<polygon fill="#e0ffe0" stroke="transparent" points="1020,-123 1020,-144 1058,-144 1058,-123 1020,-123"/>
<polygon fill="none" stroke="#000000" points="1020,-123 1020,-144 1058,-144 1058,-123 1020,-123"/>
<text text-anchor="start" x="1023" y="-129.8" font-family="Times,serif" font-size="14.00" fill="#000000">type</text>
<polygon fill="#e0ffe0" stroke="transparent" points="1058,-123 1058,-144 1135,-144 1135,-123 1058,-123"/>
<polygon fill="none" stroke="#000000" points="1058,-123 1058,-144 1135,-144 1135,-123 1058,-123"/>
<text text-anchor="start" x="1089.5" y="-129.8" font-family="Times,serif" font-size="14.00" fill="#000000">id</text>
<polygon fill="none" stroke="#000000" points="955,-102 955,-123 986,-123 986,-102 955,-102"/>
<text text-anchor="start" x="965.5" y="-108.8" font-family="Times,serif" font-size="14.00" fill="#000000">0</text>
<polygon fill="none" stroke="#000000" points="986,-102 986,-123 1020,-123 1020,-102 986,-102"/>
<text text-anchor="start" x="998" y="-108.8" font-family="Times,serif" font-size="14.00" fill="#000000">4</text>
<polygon fill="none" stroke="#000000" points="1020,-102 1020,-123 1058,-123 1058,-102 1020,-102"/>
<text text-anchor="start" x="1023.5" y="-108.8" font-family="Times,serif" font-size="14.00" fill="#000000">u4le</text>
<polygon fill="none" stroke="#000000" points="1058,-102 1058,-123 1135,-123 1135,-102 1058,-102"/>
<text text-anchor="start" x="1061" y="-108.8" font-family="Times,serif" font-size="14.00" fill="#000000">file_count</text>
<polygon fill="none" stroke="#000000" points="955,-81 955,-102 986,-102 986,-81 955,-81"/>
<text text-anchor="start" x="965.5" y="-87.8" font-family="Times,serif" font-size="14.00" fill="#000000">4</text>
<polygon fill="none" stroke="#000000" points="986,-81 986,-102 1020,-102 1020,-81 986,-81"/>
<text text-anchor="start" x="996" y="-87.8" font-family="Times,serif" font-size="14.00" fill="#000000">...</text>
<polygon fill="none" stroke="#000000" points="1020,-81 1020,-102 1058,-102 1058,-81 1020,-81"/>
<text text-anchor="start" x="1025" y="-87.8" font-family="Times,serif" font-size="14.00" fill="#000000">File</text>
<polygon fill="none" stroke="#000000" points="1058,-81 1058,-102 1135,-102 1135,-81 1058,-81"/>
<text text-anchor="start" x="1081" y="-87.8" font-family="Times,serif" font-size="14.00" fill="#000000">files</text>
<polygon fill="none" stroke="#000000" points="955,-60 955,-81 1135,-81 1135,-60 955,-60"/>
<text text-anchor="start" x="962" y="-66.8" font-family="Times,serif" font-size="14.00" fill="#000000">repeat file_count times</text>
</g>
<!-- fallout2_dat__inst__index&#45;&gt;index__seq -->
<g id="edge3" class="edge">
<title>fallout2_dat__inst__index:index_type&#45;&gt;index__seq</title>
<path fill="none" stroke="#000000" stroke-width="2" d="M903.5,-102C914.2207,-102 925.3984,-102 936.5656,-102"/>
<polygon fill="#000000" stroke="#000000" stroke-width="2" points="936.8049,-105.5001 946.8049,-102 936.8048,-98.5001 936.8049,-105.5001"/>
</g>
<!-- pstr__seq -->
<g id="node4" class="node">
<title>pstr__seq</title>
<polygon fill="#e0ffe0" stroke="transparent" points="1580,-251 1580,-272 1611,-272 1611,-251 1580,-251"/>
<polygon fill="none" stroke="#000000" points="1580,-251 1580,-272 1611,-272 1611,-251 1580,-251"/>
<text text-anchor="start" x="1583" y="-257.8" font-family="Times,serif" font-size="14.00" fill="#000000">pos</text>
<polygon fill="#e0ffe0" stroke="transparent" points="1611,-251 1611,-272 1645,-272 1645,-251 1611,-251"/>
<polygon fill="none" stroke="#000000" points="1611,-251 1611,-272 1645,-272 1645,-251 1611,-251"/>
<text text-anchor="start" x="1614" y="-257.8" font-family="Times,serif" font-size="14.00" fill="#000000">size</text>
<polygon fill="#e0ffe0" stroke="transparent" points="1645,-251 1645,-272 1726,-272 1726,-251 1645,-251"/>
<polygon fill="none" stroke="#000000" points="1645,-251 1645,-272 1726,-272 1726,-251 1645,-251"/>
<text text-anchor="start" x="1669.5" y="-257.8" font-family="Times,serif" font-size="14.00" fill="#000000">type</text>
<polygon fill="#e0ffe0" stroke="transparent" points="1726,-251 1726,-272 1760,-272 1760,-251 1726,-251"/>
<polygon fill="none" stroke="#000000" points="1726,-251 1726,-272 1760,-272 1760,-251 1726,-251"/>
<text text-anchor="start" x="1736" y="-257.8" font-family="Times,serif" font-size="14.00" fill="#000000">id</text>
<polygon fill="none" stroke="#000000" points="1580,-230 1580,-251 1611,-251 1611,-230 1580,-230"/>
<text text-anchor="start" x="1590.5" y="-236.8" font-family="Times,serif" font-size="14.00" fill="#000000">0</text>
<polygon fill="none" stroke="#000000" points="1611,-230 1611,-251 1645,-251 1645,-230 1611,-230"/>
<text text-anchor="start" x="1623" y="-236.8" font-family="Times,serif" font-size="14.00" fill="#000000">4</text>
<polygon fill="none" stroke="#000000" points="1645,-230 1645,-251 1726,-251 1726,-230 1645,-230"/>
<text text-anchor="start" x="1670" y="-236.8" font-family="Times,serif" font-size="14.00" fill="#000000">u4le</text>
<polygon fill="none" stroke="#000000" points="1726,-230 1726,-251 1760,-251 1760,-230 1726,-230"/>
<text text-anchor="start" x="1729" y="-236.8" font-family="Times,serif" font-size="14.00" fill="#000000">size</text>
<polygon fill="none" stroke="#000000" points="1580,-209 1580,-230 1611,-230 1611,-209 1580,-209"/>
<text text-anchor="start" x="1590.5" y="-215.8" font-family="Times,serif" font-size="14.00" fill="#000000">4</text>
<polygon fill="none" stroke="#000000" points="1611,-209 1611,-230 1645,-230 1645,-209 1611,-209"/>
<text text-anchor="start" x="1614" y="-215.8" font-family="Times,serif" font-size="14.00" fill="#000000">size</text>
<polygon fill="none" stroke="#000000" points="1645,-209 1645,-230 1726,-230 1726,-209 1645,-209"/>
<text text-anchor="start" x="1648" y="-215.8" font-family="Times,serif" font-size="14.00" fill="#000000">str(ASCII)</text>
<polygon fill="none" stroke="#000000" points="1726,-209 1726,-230 1760,-230 1760,-209 1726,-209"/>
<text text-anchor="start" x="1732.5" y="-215.8" font-family="Times,serif" font-size="14.00" fill="#000000">str</text>
</g>
<!-- pstr__seq&#45;&gt;pstr__seq -->
<g id="edge4" class="edge">
<title>pstr__seq:size_type&#45;&gt;pstr__seq:str_size</title>
<path fill="none" stroke="#404040" d="M1760.2855,-244.3785C1824.1906,-263.2065 1814.374,-294.5 1685.5,-294.5 1563.4221,-294.5 1548.1758,-250.3378 1601.2262,-227.3555"/>
<polygon fill="#404040" stroke="#404040" points="1602.6253,-230.5677 1610.7145,-223.7255 1600.124,-224.0299 1602.6253,-230.5677"/>
</g>
<!-- footer__seq&#45;&gt;fallout2_dat__inst__index -->
<g id="edge2" class="edge">
<title>footer__seq:index_size_type&#45;&gt;fallout2_dat__inst__index:index_pos</title>
<path fill="none" stroke="#404040" d="M488,-102C507.5052,-102 514.7816,-102 530.2742,-102"/>
<polygon fill="#404040" stroke="#404040" points="530.5,-105.5001 540.5,-102 530.5,-98.5001 530.5,-105.5001"/>
</g>
<!-- index__seq&#45;&gt;index__seq -->
<g id="edge6" class="edge">
<title>index__seq:file_count_type&#45;&gt;index__seq:files__repeat</title>
<path fill="none" stroke="#404040" d="M1057.8797,-116.0775C961.5692,-121.4541 800,-117.9194 800,-91.5 800,-71.2172 872.2324,-64.4226 944.6442,-64.7934"/>
<polygon fill="#404040" stroke="#404040" points="944.8219,-68.2952 954.8555,-64.8926 944.89,-61.2955 944.8219,-68.2952"/>
</g>
<!-- file__seq -->
<g id="node7" class="node">
<title>file__seq</title>
<polygon fill="#e0ffe0" stroke="transparent" points="1187.5,-133 1187.5,-154 1218.5,-154 1218.5,-133 1187.5,-133"/>
<polygon fill="none" stroke="#000000" points="1187.5,-133 1187.5,-154 1218.5,-154 1218.5,-133 1187.5,-133"/>
<text text-anchor="start" x="1190.5" y="-139.8" font-family="Times,serif" font-size="14.00" fill="#000000">pos</text>
<polygon fill="#e0ffe0" stroke="transparent" points="1218.5,-133 1218.5,-154 1252.5,-154 1252.5,-133 1218.5,-133"/>
<polygon fill="none" stroke="#000000" points="1218.5,-133 1218.5,-154 1252.5,-154 1252.5,-133 1218.5,-133"/>
<text text-anchor="start" x="1221.5" y="-139.8" font-family="Times,serif" font-size="14.00" fill="#000000">size</text>
<polygon fill="#e0ffe0" stroke="transparent" points="1252.5,-133 1252.5,-154 1382.5,-154 1382.5,-133 1252.5,-133"/>
<polygon fill="none" stroke="#000000" points="1252.5,-133 1252.5,-154 1382.5,-154 1382.5,-133 1252.5,-133"/>
<text text-anchor="start" x="1301.5" y="-139.8" font-family="Times,serif" font-size="14.00" fill="#000000">type</text>
<polygon fill="#e0ffe0" stroke="transparent" points="1382.5,-133 1382.5,-154 1494.5,-154 1494.5,-133 1382.5,-133"/>
<polygon fill="none" stroke="#000000" points="1382.5,-133 1382.5,-154 1494.5,-154 1494.5,-133 1382.5,-133"/>
<text text-anchor="start" x="1431.5" y="-139.8" font-family="Times,serif" font-size="14.00" fill="#000000">id</text>
<polygon fill="none" stroke="#000000" points="1187.5,-112 1187.5,-133 1218.5,-133 1218.5,-112 1187.5,-112"/>
<text text-anchor="start" x="1198" y="-118.8" font-family="Times,serif" font-size="14.00" fill="#000000">0</text>
<polygon fill="none" stroke="#000000" points="1218.5,-112 1218.5,-133 1252.5,-133 1252.5,-112 1218.5,-112"/>
<text text-anchor="start" x="1228.5" y="-118.8" font-family="Times,serif" font-size="14.00" fill="#000000">...</text>
<polygon fill="none" stroke="#000000" points="1252.5,-112 1252.5,-133 1382.5,-133 1382.5,-112 1252.5,-112"/>
<text text-anchor="start" x="1302.5" y="-118.8" font-family="Times,serif" font-size="14.00" fill="#000000">Pstr</text>
<polygon fill="none" stroke="#000000" points="1382.5,-112 1382.5,-133 1494.5,-133 1494.5,-112 1382.5,-112"/>
<text text-anchor="start" x="1418.5" y="-118.8" font-family="Times,serif" font-size="14.00" fill="#000000">name</text>
<polygon fill="none" stroke="#000000" points="1187.5,-91 1187.5,-112 1218.5,-112 1218.5,-91 1187.5,-91"/>
<text text-anchor="start" x="1196" y="-97.8" font-family="Times,serif" font-size="14.00" fill="#000000">...</text>
<polygon fill="none" stroke="#000000" points="1218.5,-91 1218.5,-112 1252.5,-112 1252.5,-91 1218.5,-91"/>
<text text-anchor="start" x="1230.5" y="-97.8" font-family="Times,serif" font-size="14.00" fill="#000000">1</text>
<polygon fill="none" stroke="#000000" points="1252.5,-91 1252.5,-112 1382.5,-112 1382.5,-91 1252.5,-91"/>
<text text-anchor="start" x="1255.5" y="-97.8" font-family="Times,serif" font-size="14.00" fill="#000000">u1→Compression</text>
<polygon fill="none" stroke="#000000" points="1382.5,-91 1382.5,-112 1494.5,-112 1494.5,-91 1382.5,-91"/>
<text text-anchor="start" x="1421" y="-97.8" font-family="Times,serif" font-size="14.00" fill="#000000">flags</text>
<polygon fill="none" stroke="#000000" points="1187.5,-70 1187.5,-91 1218.5,-91 1218.5,-70 1187.5,-70"/>
<text text-anchor="start" x="1196" y="-76.8" font-family="Times,serif" font-size="14.00" fill="#000000">...</text>
<polygon fill="none" stroke="#000000" points="1218.5,-70 1218.5,-91 1252.5,-91 1252.5,-70 1218.5,-70"/>
<text text-anchor="start" x="1230.5" y="-76.8" font-family="Times,serif" font-size="14.00" fill="#000000">4</text>
<polygon fill="none" stroke="#000000" points="1252.5,-70 1252.5,-91 1382.5,-91 1382.5,-70 1252.5,-70"/>
<text text-anchor="start" x="1302" y="-76.8" font-family="Times,serif" font-size="14.00" fill="#000000">u4le</text>
<polygon fill="none" stroke="#000000" points="1382.5,-70 1382.5,-91 1494.5,-91 1494.5,-70 1382.5,-70"/>
<text text-anchor="start" x="1385.5" y="-76.8" font-family="Times,serif" font-size="14.00" fill="#000000">size_unpacked</text>
<polygon fill="none" stroke="#000000" points="1187.5,-49 1187.5,-70 1218.5,-70 1218.5,-49 1187.5,-49"/>
<text text-anchor="start" x="1196" y="-55.8" font-family="Times,serif" font-size="14.00" fill="#000000">...</text>
<polygon fill="none" stroke="#000000" points="1218.5,-49 1218.5,-70 1252.5,-70 1252.5,-49 1218.5,-49"/>
<text text-anchor="start" x="1230.5" y="-55.8" font-family="Times,serif" font-size="14.00" fill="#000000">4</text>
<polygon fill="none" stroke="#000000" points="1252.5,-49 1252.5,-70 1382.5,-70 1382.5,-49 1252.5,-49"/>
<text text-anchor="start" x="1302" y="-55.8" font-family="Times,serif" font-size="14.00" fill="#000000">u4le</text>
<polygon fill="none" stroke="#000000" points="1382.5,-49 1382.5,-70 1494.5,-70 1494.5,-49 1382.5,-49"/>
<text text-anchor="start" x="1394.5" y="-55.8" font-family="Times,serif" font-size="14.00" fill="#000000">size_packed</text>
<polygon fill="none" stroke="#000000" points="1187.5,-28 1187.5,-49 1218.5,-49 1218.5,-28 1187.5,-28"/>
<text text-anchor="start" x="1196" y="-34.8" font-family="Times,serif" font-size="14.00" fill="#000000">...</text>
<polygon fill="none" stroke="#000000" points="1218.5,-28 1218.5,-49 1252.5,-49 1252.5,-28 1218.5,-28"/>
<text text-anchor="start" x="1230.5" y="-34.8" font-family="Times,serif" font-size="14.00" fill="#000000">4</text>
<polygon fill="none" stroke="#000000" points="1252.5,-28 1252.5,-49 1382.5,-49 1382.5,-28 1252.5,-28"/>
<text text-anchor="start" x="1302" y="-34.8" font-family="Times,serif" font-size="14.00" fill="#000000">u4le</text>
<polygon fill="none" stroke="#000000" points="1382.5,-28 1382.5,-49 1494.5,-49 1494.5,-28 1382.5,-28"/>
<text text-anchor="start" x="1418" y="-34.8" font-family="Times,serif" font-size="14.00" fill="#000000">offset</text>
</g>
<!-- index__seq&#45;&gt;file__seq -->
<g id="edge5" class="edge">
<title>index__seq:files_type&#45;&gt;file__seq</title>
<path fill="none" stroke="#000000" stroke-width="2" d="M1135,-91C1146.0376,-91 1157.4087,-91 1168.8714,-91"/>
<polygon fill="#000000" stroke="#000000" stroke-width="2" points="1168.9623,-94.5001 1178.9622,-91 1168.9622,-87.5001 1168.9623,-94.5001"/>
</g>
<!-- file__seq&#45;&gt;pstr__seq -->
<g id="edge7" class="edge">
<title>file__seq:name_type&#45;&gt;pstr__seq</title>
<path fill="none" stroke="#000000" stroke-width="2" d="M1494.5,-123C1531.1289,-123 1509.5592,-169.9176 1538,-193 1545.5972,-199.1658 1554.0556,-204.578 1562.9188,-209.3213"/>
<polygon fill="#000000" stroke="#000000" stroke-width="2" points="1561.3943,-212.4724 1571.8999,-213.8449 1564.5432,-206.2206 1561.3943,-212.4724"/>
</g>
<!-- file__inst__contents -->
<g id="node8" class="node">
<title>file__inst__contents</title>
<polygon fill="#e0ffe0" stroke="transparent" points="1546,-59 1546,-80 1593,-80 1593,-59 1546,-59"/>
<polygon fill="none" stroke="#000000" points="1546,-59 1546,-80 1593,-80 1593,-59 1546,-59"/>
<text text-anchor="start" x="1557" y="-65.8" font-family="Times,serif" font-size="14.00" fill="#000000">pos</text>
<polygon fill="#e0ffe0" stroke="transparent" points="1593,-59 1593,-80 1687,-80 1687,-59 1593,-59"/>
<polygon fill="none" stroke="#000000" points="1593,-59 1593,-80 1687,-80 1687,-59 1593,-59"/>
<text text-anchor="start" x="1626" y="-65.8" font-family="Times,serif" font-size="14.00" fill="#000000">size</text>
<polygon fill="#e0ffe0" stroke="transparent" points="1687,-59 1687,-80 1725,-80 1725,-59 1687,-59"/>
<polygon fill="none" stroke="#000000" points="1687,-59 1687,-80 1725,-80 1725,-59 1687,-59"/>
<text text-anchor="start" x="1690" y="-65.8" font-family="Times,serif" font-size="14.00" fill="#000000">type</text>
<polygon fill="#e0ffe0" stroke="transparent" points="1725,-59 1725,-80 1794,-80 1794,-59 1725,-59"/>
<polygon fill="none" stroke="#000000" points="1725,-59 1725,-80 1794,-80 1794,-59 1725,-59"/>
<text text-anchor="start" x="1752.5" y="-65.8" font-family="Times,serif" font-size="14.00" fill="#000000">id</text>
<polygon fill="none" stroke="#000000" points="1546,-38 1546,-59 1593,-59 1593,-38 1546,-38"/>
<text text-anchor="start" x="1549" y="-44.8" font-family="Times,serif" font-size="14.00" fill="#000000">offset</text>
<polygon fill="none" stroke="#000000" points="1593,-38 1593,-59 1687,-59 1687,-38 1593,-38"/>
<text text-anchor="start" x="1596" y="-44.8" font-family="Times,serif" font-size="14.00" fill="#000000">size_packed</text>
<polygon fill="none" stroke="#000000" points="1687,-38 1687,-59 1725,-59 1725,-38 1687,-38"/>
<polygon fill="none" stroke="#000000" points="1725,-38 1725,-59 1794,-59 1794,-38 1725,-38"/>
<text text-anchor="start" x="1728" y="-44.8" font-family="Times,serif" font-size="14.00" fill="#000000">contents</text>
</g>
<!-- file__seq&#45;&gt;file__inst__contents -->
<g id="edge8" class="edge">
<title>file__seq:offset_type&#45;&gt;file__inst__contents:contents_pos</title>
<path fill="none" stroke="#404040" d="M1494.5,-38C1513.991,-38 1520.59,-44.9879 1535.8508,-47.2808"/>
<polygon fill="#404040" stroke="#404040" points="1535.7776,-50.7843 1546,-48 1536.2724,-43.8018 1535.7776,-50.7843"/>
</g>
<!-- file__seq&#45;&gt;file__inst__contents -->
<g id="edge9" class="edge">
<title>file__seq:size_packed_type&#45;&gt;file__inst__contents:contents_size</title>
<path fill="none" stroke="#404040" d="M1494.5,-59C1515.9683,-59 1517.0722,-42.7872 1538,-38 1578.3941,-28.7599 1630.1648,1.4646 1638.7645,-28.0303"/>
<polygon fill="#404040" stroke="#404040" points="1635.2967,-28.5064 1640,-38 1642.2436,-27.6454 1635.2967,-28.5064"/>
</g>
</g>
</svg>
