<?xml version="1.0" encoding="UTF-8" standalone="no"?>
<!DOCTYPE svg PUBLIC "-//W3C//DTD SVG 1.1//EN"
 "http://www.w3.org/Graphics/SVG/1.1/DTD/svg11.dtd">
<!-- Generated by graphviz version 2.43.0 (0)
 -->
<!-- Title: %3 Pages: 1 -->
<svg width="2401pt" height="420pt"
 viewBox="0.00 0.00 2401.00 420.00" xmlns="http://www.w3.org/2000/svg" xmlns:xlink="http://www.w3.org/1999/xlink">
<g id="graph0" class="graph" transform="scale(1 1) rotate(0) translate(4 416)">
<title>%3</title>
<polygon fill="white" stroke="transparent" points="-4,4 -4,-416 2397,-416 2397,4 -4,4"/>
<g id="clust1" class="cluster">
<title>cluster__fallout2_dat</title>
<polygon fill="none" stroke="black" stroke-dasharray="1,5" points="8,-8 8,-404 2385,-404 2385,-8 8,-8"/>
<text text-anchor="middle" x="1196.5" y="-388.8" font-family="Times,serif" font-size="14.00">Fallout2Dat</text>
</g>
<g id="clust2" class="cluster">
<title>cluster__file</title>
<polygon fill="none" stroke="black" stroke-dasharray="1,5" points="1144,-16 1144,-236 2377,-236 2377,-16 1144,-16"/>
<text text-anchor="middle" x="1760.5" y="-220.8" font-family="Times,serif" font-size="14.00">Fallout2Dat::File</text>
</g>
<g id="clust3" class="cluster">
<title>cluster__footer</title>
<polygon fill="none" stroke="black" stroke-dasharray="1,5" points="277,-95 277,-206 492,-206 492,-95 277,-95"/>
<text text-anchor="middle" x="384.5" y="-190.8" font-family="Times,serif" font-size="14.00">Fallout2Dat::Footer</text>
</g>
<g id="clust4" class="cluster">
<title>cluster__index</title>
<polygon fill="none" stroke="black" stroke-dasharray="1,5" points="914,-84 914,-215 1124,-215 1124,-84 914,-84"/>
<text text-anchor="middle" x="1019" y="-199.8" font-family="Times,serif" font-size="14.00">Fallout2Dat::Index</text>
</g>
<g id="clust5" class="cluster">
<title>cluster__pstr</title>
<polygon fill="none" stroke="black" stroke-dasharray="1,5" points="1559,-244 1559,-373 1768,-373 1768,-244 1559,-244"/>
<text text-anchor="middle" x="1663.5" y="-357.8" font-family="Times,serif" font-size="14.00">Fallout2Dat::Pstr</text>
</g>
<!-- fallout2_dat__seq -->
<g id="node1" class="node">
<title>fallout2_dat__seq</title>
<polygon fill="#e0ffe0" stroke="transparent" points="71.5,-277 71.5,-298 102.5,-298 102.5,-277 71.5,-277"/>
<polygon fill="none" stroke="black" points="71.5,-277 71.5,-298 102.5,-298 102.5,-277 71.5,-277"/>
<text text-anchor="start" x="74.5" y="-283.8" font-family="Times,serif" font-size="14.00">pos</text>
<polygon fill="#e0ffe0" stroke="transparent" points="102.5,-277 102.5,-298 136.5,-298 136.5,-277 102.5,-277"/>
<polygon fill="none" stroke="black" points="102.5,-277 102.5,-298 136.5,-298 136.5,-277 102.5,-277"/>
<text text-anchor="start" x="105.5" y="-283.8" font-family="Times,serif" font-size="14.00">size</text>
<polygon fill="#e0ffe0" stroke="transparent" points="136.5,-277 136.5,-298 174.5,-298 174.5,-277 136.5,-277"/>
<polygon fill="none" stroke="black" points="136.5,-277 136.5,-298 174.5,-298 174.5,-277 136.5,-277"/>
<text text-anchor="start" x="139.5" y="-283.8" font-family="Times,serif" font-size="14.00">type</text>
<polygon fill="#e0ffe0" stroke="transparent" points="174.5,-277 174.5,-298 194.5,-298 194.5,-277 174.5,-277"/>
<polygon fill="none" stroke="black" points="174.5,-277 174.5,-298 194.5,-298 194.5,-277 174.5,-277"/>
<text text-anchor="start" x="177.5" y="-283.8" font-family="Times,serif" font-size="14.00">id</text>
</g>
<!-- fallout2_dat__inst__footer -->
<g id="node2" class="node">
<title>fallout2_dat__inst__footer</title>
<polygon fill="#e0ffe0" stroke="transparent" points="24.5,-150 24.5,-171 105.5,-171 105.5,-150 24.5,-150"/>
<polygon fill="none" stroke="black" points="24.5,-150 24.5,-171 105.5,-171 105.5,-150 24.5,-150"/>
<text text-anchor="start" x="52.5" y="-156.8" font-family="Times,serif" font-size="14.00">pos</text>
<polygon fill="#e0ffe0" stroke="transparent" points="105.5,-150 105.5,-171 139.5,-171 139.5,-150 105.5,-150"/>
<polygon fill="none" stroke="black" points="105.5,-150 105.5,-171 139.5,-171 139.5,-150 105.5,-150"/>
<text text-anchor="start" x="108.5" y="-156.8" font-family="Times,serif" font-size="14.00">size</text>
<polygon fill="#e0ffe0" stroke="transparent" points="139.5,-150 139.5,-171 192.5,-171 192.5,-150 139.5,-150"/>
<polygon fill="none" stroke="black" points="139.5,-150 139.5,-171 192.5,-171 192.5,-150 139.5,-150"/>
<text text-anchor="start" x="150" y="-156.8" font-family="Times,serif" font-size="14.00">type</text>
<polygon fill="#e0ffe0" stroke="transparent" points="192.5,-150 192.5,-171 241.5,-171 241.5,-150 192.5,-150"/>
<polygon fill="none" stroke="black" points="192.5,-150 192.5,-171 241.5,-171 241.5,-150 192.5,-150"/>
<text text-anchor="start" x="210" y="-156.8" font-family="Times,serif" font-size="14.00">id</text>
<polygon fill="none" stroke="black" points="24.5,-129 24.5,-150 105.5,-150 105.5,-129 24.5,-129"/>
<text text-anchor="start" x="27.5" y="-135.8" font-family="Times,serif" font-size="14.00">_io.size &#45; 8</text>
<polygon fill="none" stroke="black" points="105.5,-129 105.5,-150 139.5,-150 139.5,-129 105.5,-129"/>
<text text-anchor="start" x="117.5" y="-135.8" font-family="Times,serif" font-size="14.00">8</text>
<polygon fill="none" stroke="black" points="139.5,-129 139.5,-150 192.5,-150 192.5,-129 139.5,-129"/>
<text text-anchor="start" x="142.5" y="-135.8" font-family="Times,serif" font-size="14.00">Footer</text>
<polygon fill="none" stroke="black" points="192.5,-129 192.5,-150 241.5,-150 241.5,-129 192.5,-129"/>
<text text-anchor="start" x="195.5" y="-135.8" font-family="Times,serif" font-size="14.00">footer</text>
</g>
<!-- footer__seq -->
<g id="node8" class="node">
<title>footer__seq</title>
<polygon fill="#e0ffe0" stroke="transparent" points="293.5,-149 293.5,-170 324.5,-170 324.5,-149 293.5,-149"/>
<polygon fill="none" stroke="black" points="293.5,-149 293.5,-170 324.5,-170 324.5,-149 293.5,-149"/>
<text text-anchor="start" x="296.5" y="-155.8" font-family="Times,serif" font-size="14.00">pos</text>
<polygon fill="#e0ffe0" stroke="transparent" points="324.5,-149 324.5,-170 358.5,-170 358.5,-149 324.5,-149"/>
<polygon fill="none" stroke="black" points="324.5,-149 324.5,-170 358.5,-170 358.5,-149 324.5,-149"/>
<text text-anchor="start" x="327.5" y="-155.8" font-family="Times,serif" font-size="14.00">size</text>
<polygon fill="#e0ffe0" stroke="transparent" points="358.5,-149 358.5,-170 396.5,-170 396.5,-149 358.5,-149"/>
<polygon fill="none" stroke="black" points="358.5,-149 358.5,-170 396.5,-170 396.5,-149 358.5,-149"/>
<text text-anchor="start" x="361.5" y="-155.8" font-family="Times,serif" font-size="14.00">type</text>
<polygon fill="#e0ffe0" stroke="transparent" points="396.5,-149 396.5,-170 476.5,-170 476.5,-149 396.5,-149"/>
<polygon fill="none" stroke="black" points="396.5,-149 396.5,-170 476.5,-170 476.5,-149 396.5,-149"/>
<text text-anchor="start" x="429.5" y="-155.8" font-family="Times,serif" font-size="14.00">id</text>
<polygon fill="none" stroke="black" points="293.5,-128 293.5,-149 324.5,-149 324.5,-128 293.5,-128"/>
<text text-anchor="start" x="304" y="-134.8" font-family="Times,serif" font-size="14.00">0</text>
<polygon fill="none" stroke="black" points="324.5,-128 324.5,-149 358.5,-149 358.5,-128 324.5,-128"/>
<text text-anchor="start" x="336.5" y="-134.8" font-family="Times,serif" font-size="14.00">4</text>
<polygon fill="none" stroke="black" points="358.5,-128 358.5,-149 396.5,-149 396.5,-128 358.5,-128"/>
<text text-anchor="start" x="362" y="-134.8" font-family="Times,serif" font-size="14.00">u4le</text>
<polygon fill="none" stroke="black" points="396.5,-128 396.5,-149 476.5,-149 476.5,-128 396.5,-128"/>
<text text-anchor="start" x="399.5" y="-134.8" font-family="Times,serif" font-size="14.00">index_size</text>
<polygon fill="none" stroke="black" points="293.5,-107 293.5,-128 324.5,-128 324.5,-107 293.5,-107"/>
<text text-anchor="start" x="304" y="-113.8" font-family="Times,serif" font-size="14.00">4</text>
<polygon fill="none" stroke="black" points="324.5,-107 324.5,-128 358.5,-128 358.5,-107 324.5,-107"/>
<text text-anchor="start" x="336.5" y="-113.8" font-family="Times,serif" font-size="14.00">4</text>
<polygon fill="none" stroke="black" points="358.5,-107 358.5,-128 396.5,-128 396.5,-107 358.5,-107"/>
<text text-anchor="start" x="362" y="-113.8" font-family="Times,serif" font-size="14.00">u4le</text>
<polygon fill="none" stroke="black" points="396.5,-107 396.5,-128 476.5,-128 476.5,-107 396.5,-107"/>
<text text-anchor="start" x="408" y="-113.8" font-family="Times,serif" font-size="14.00">file_size</text>
</g>
<!-- fallout2_dat__inst__footer&#45;&gt;footer__seq -->
<g id="edge1" class="edge">
<title>fallout2_dat__inst__footer:footer_type&#45;&gt;footer__seq</title>
<path fill="none" stroke="black" stroke-width="2" d="M242.5,-139C253,-139 263.93,-139 274.86,-139"/>
<polygon fill="black" stroke="black" stroke-width="2" points="274.89,-142.5 284.89,-139 274.89,-135.5 274.89,-142.5"/>
</g>
<!-- fallout2_dat__inst__index -->
<g id="node3" class="node">
<title>fallout2_dat__inst__index</title>
<polygon fill="#e0ffe0" stroke="transparent" points="528,-149 528,-170 752,-170 752,-149 528,-149"/>
<polygon fill="none" stroke="black" points="528,-149 528,-170 752,-170 752,-149 528,-149"/>
<text text-anchor="start" x="627.5" y="-155.8" font-family="Times,serif" font-size="14.00">pos</text>
<polygon fill="#e0ffe0" stroke="transparent" points="752,-149 752,-170 786,-170 786,-149 752,-149"/>
<polygon fill="none" stroke="black" points="752,-149 752,-170 786,-170 786,-149 752,-149"/>
<text text-anchor="start" x="755" y="-155.8" font-family="Times,serif" font-size="14.00">size</text>
<polygon fill="#e0ffe0" stroke="transparent" points="786,-149 786,-170 832,-170 832,-149 786,-149"/>
<polygon fill="none" stroke="black" points="786,-149 786,-170 832,-170 832,-149 786,-149"/>
<text text-anchor="start" x="793" y="-155.8" font-family="Times,serif" font-size="14.00">type</text>
<polygon fill="#e0ffe0" stroke="transparent" points="832,-149 832,-170 878,-170 878,-149 832,-149"/>
<polygon fill="none" stroke="black" points="832,-149 832,-170 878,-170 878,-149 832,-149"/>
<text text-anchor="start" x="848" y="-155.8" font-family="Times,serif" font-size="14.00">id</text>
<polygon fill="none" stroke="black" points="528,-128 528,-149 752,-149 752,-128 528,-128"/>
<text text-anchor="start" x="531" y="-134.8" font-family="Times,serif" font-size="14.00">(_io.size &#45; 8) &#45; footer.index_size</text>
<polygon fill="none" stroke="black" points="752,-128 752,-149 786,-149 786,-128 752,-128"/>
<text text-anchor="start" x="762" y="-134.8" font-family="Times,serif" font-size="14.00">...</text>
<polygon fill="none" stroke="black" points="786,-128 786,-149 832,-149 832,-128 786,-128"/>
<text text-anchor="start" x="789" y="-134.8" font-family="Times,serif" font-size="14.00">Index</text>
<polygon fill="none" stroke="black" points="832,-128 832,-149 878,-149 878,-128 832,-128"/>
<text text-anchor="start" x="835" y="-134.8" font-family="Times,serif" font-size="14.00">index</text>
</g>
<!-- index__seq -->
<g id="node9" class="node">
<title>index__seq</title>
<polygon fill="#e0ffe0" stroke="transparent" points="930,-159 930,-180 961,-180 961,-159 930,-159"/>
<polygon fill="none" stroke="black" points="930,-159 930,-180 961,-180 961,-159 930,-159"/>
<text text-anchor="start" x="933" y="-165.8" font-family="Times,serif" font-size="14.00">pos</text>
<polygon fill="#e0ffe0" stroke="transparent" points="961,-159 961,-180 995,-180 995,-159 961,-159"/>
<polygon fill="none" stroke="black" points="961,-159 961,-180 995,-180 995,-159 961,-159"/>
<text text-anchor="start" x="964" y="-165.8" font-family="Times,serif" font-size="14.00">size</text>
<polygon fill="#e0ffe0" stroke="transparent" points="995,-159 995,-180 1033,-180 1033,-159 995,-159"/>
<polygon fill="none" stroke="black" points="995,-159 995,-180 1033,-180 1033,-159 995,-159"/>
<text text-anchor="start" x="998" y="-165.8" font-family="Times,serif" font-size="14.00">type</text>
<polygon fill="#e0ffe0" stroke="transparent" points="1033,-159 1033,-180 1108,-180 1108,-159 1033,-159"/>
<polygon fill="none" stroke="black" points="1033,-159 1033,-180 1108,-180 1108,-159 1033,-159"/>
<text text-anchor="start" x="1063.5" y="-165.8" font-family="Times,serif" font-size="14.00">id</text>
<polygon fill="none" stroke="black" points="930,-138 930,-159 961,-159 961,-138 930,-138"/>
<text text-anchor="start" x="940.5" y="-144.8" font-family="Times,serif" font-size="14.00">0</text>
<polygon fill="none" stroke="black" points="961,-138 961,-159 995,-159 995,-138 961,-138"/>
<text text-anchor="start" x="973" y="-144.8" font-family="Times,serif" font-size="14.00">4</text>
<polygon fill="none" stroke="black" points="995,-138 995,-159 1033,-159 1033,-138 995,-138"/>
<text text-anchor="start" x="998.5" y="-144.8" font-family="Times,serif" font-size="14.00">u4le</text>
<polygon fill="none" stroke="black" points="1033,-138 1033,-159 1108,-159 1108,-138 1033,-138"/>
<text text-anchor="start" x="1036" y="-144.8" font-family="Times,serif" font-size="14.00">file_count</text>
<polygon fill="none" stroke="black" points="930,-117 930,-138 961,-138 961,-117 930,-117"/>
<text text-anchor="start" x="940.5" y="-123.8" font-family="Times,serif" font-size="14.00">4</text>
<polygon fill="none" stroke="black" points="961,-117 961,-138 995,-138 995,-117 961,-117"/>
<text text-anchor="start" x="971" y="-123.8" font-family="Times,serif" font-size="14.00">...</text>
<polygon fill="none" stroke="black" points="995,-117 995,-138 1033,-138 1033,-117 995,-117"/>
<text text-anchor="start" x="1000" y="-123.8" font-family="Times,serif" font-size="14.00">File</text>
<polygon fill="none" stroke="black" points="1033,-117 1033,-138 1108,-138 1108,-117 1033,-117"/>
<text text-anchor="start" x="1055.5" y="-123.8" font-family="Times,serif" font-size="14.00">files</text>
<polygon fill="none" stroke="black" points="930,-96 930,-117 1108,-117 1108,-96 930,-96"/>
<text text-anchor="start" x="937" y="-102.8" font-family="Times,serif" font-size="14.00">repeat file_count times</text>
</g>
<!-- fallout2_dat__inst__index&#45;&gt;index__seq -->
<g id="edge3" class="edge">
<title>fallout2_dat__inst__index:index_type&#45;&gt;index__seq</title>
<path fill="none" stroke="black" stroke-width="2" d="M879,-138C889.62,-138 900.7,-138 911.77,-138"/>
<polygon fill="black" stroke="black" stroke-width="2" points="911.92,-141.5 921.92,-138 911.92,-134.5 911.92,-141.5"/>
</g>
<!-- file__seq -->
<g id="node4" class="node">
<title>file__seq</title>
<polygon fill="#e0ffe0" stroke="transparent" points="1160,-169 1160,-190 1191,-190 1191,-169 1160,-169"/>
<polygon fill="none" stroke="black" points="1160,-169 1160,-190 1191,-190 1191,-169 1160,-169"/>
<text text-anchor="start" x="1163" y="-175.8" font-family="Times,serif" font-size="14.00">pos</text>
<polygon fill="#e0ffe0" stroke="transparent" points="1191,-169 1191,-190 1225,-190 1225,-169 1191,-169"/>
<polygon fill="none" stroke="black" points="1191,-169 1191,-190 1225,-190 1225,-169 1191,-169"/>
<text text-anchor="start" x="1194" y="-175.8" font-family="Times,serif" font-size="14.00">size</text>
<polygon fill="#e0ffe0" stroke="transparent" points="1225,-169 1225,-190 1355,-190 1355,-169 1225,-169"/>
<polygon fill="none" stroke="black" points="1225,-169 1225,-190 1355,-190 1355,-169 1225,-169"/>
<text text-anchor="start" x="1274" y="-175.8" font-family="Times,serif" font-size="14.00">type</text>
<polygon fill="#e0ffe0" stroke="transparent" points="1355,-169 1355,-190 1464,-190 1464,-169 1355,-169"/>
<polygon fill="none" stroke="black" points="1355,-169 1355,-190 1464,-190 1464,-169 1355,-169"/>
<text text-anchor="start" x="1402.5" y="-175.8" font-family="Times,serif" font-size="14.00">id</text>
<polygon fill="none" stroke="black" points="1160,-148 1160,-169 1191,-169 1191,-148 1160,-148"/>
<text text-anchor="start" x="1170.5" y="-154.8" font-family="Times,serif" font-size="14.00">0</text>
<polygon fill="none" stroke="black" points="1191,-148 1191,-169 1225,-169 1225,-148 1191,-148"/>
<text text-anchor="start" x="1201" y="-154.8" font-family="Times,serif" font-size="14.00">...</text>
<polygon fill="none" stroke="black" points="1225,-148 1225,-169 1355,-169 1355,-148 1225,-148"/>
<text text-anchor="start" x="1275" y="-154.8" font-family="Times,serif" font-size="14.00">Pstr</text>
<polygon fill="none" stroke="black" points="1355,-148 1355,-169 1464,-169 1464,-148 1355,-148"/>
<text text-anchor="start" x="1389.5" y="-154.8" font-family="Times,serif" font-size="14.00">name</text>
<polygon fill="none" stroke="black" points="1160,-127 1160,-148 1191,-148 1191,-127 1160,-127"/>
<text text-anchor="start" x="1168.5" y="-133.8" font-family="Times,serif" font-size="14.00">...</text>
<polygon fill="none" stroke="black" points="1191,-127 1191,-148 1225,-148 1225,-127 1191,-127"/>
<text text-anchor="start" x="1203" y="-133.8" font-family="Times,serif" font-size="14.00">1</text>
<polygon fill="none" stroke="black" points="1225,-127 1225,-148 1355,-148 1355,-127 1225,-127"/>
<text text-anchor="start" x="1228" y="-133.8" font-family="Times,serif" font-size="14.00">u1→Compression</text>
<polygon fill="none" stroke="black" points="1355,-127 1355,-148 1464,-148 1464,-127 1355,-127"/>
<text text-anchor="start" x="1392.5" y="-133.8" font-family="Times,serif" font-size="14.00">flags</text>
<polygon fill="none" stroke="black" points="1160,-106 1160,-127 1191,-127 1191,-106 1160,-106"/>
<text text-anchor="start" x="1168.5" y="-112.8" font-family="Times,serif" font-size="14.00">...</text>
<polygon fill="none" stroke="black" points="1191,-106 1191,-127 1225,-127 1225,-106 1191,-106"/>
<text text-anchor="start" x="1203" y="-112.8" font-family="Times,serif" font-size="14.00">4</text>
<polygon fill="none" stroke="black" points="1225,-106 1225,-127 1355,-127 1355,-106 1225,-106"/>
<text text-anchor="start" x="1274.5" y="-112.8" font-family="Times,serif" font-size="14.00">u4le</text>
<polygon fill="none" stroke="black" points="1355,-106 1355,-127 1464,-127 1464,-106 1355,-106"/>
<text text-anchor="start" x="1358" y="-112.8" font-family="Times,serif" font-size="14.00">size_unpacked</text>
<polygon fill="none" stroke="black" points="1160,-85 1160,-106 1191,-106 1191,-85 1160,-85"/>
<text text-anchor="start" x="1168.5" y="-91.8" font-family="Times,serif" font-size="14.00">...</text>
<polygon fill="none" stroke="black" points="1191,-85 1191,-106 1225,-106 1225,-85 1191,-85"/>
<text text-anchor="start" x="1203" y="-91.8" font-family="Times,serif" font-size="14.00">4</text>
<polygon fill="none" stroke="black" points="1225,-85 1225,-106 1355,-106 1355,-85 1225,-85"/>
<text text-anchor="start" x="1274.5" y="-91.8" font-family="Times,serif" font-size="14.00">u4le</text>
<polygon fill="none" stroke="black" points="1355,-85 1355,-106 1464,-106 1464,-85 1355,-85"/>
<text text-anchor="start" x="1367" y="-91.8" font-family="Times,serif" font-size="14.00">size_packed</text>
<polygon fill="none" stroke="black" points="1160,-64 1160,-85 1191,-85 1191,-64 1160,-64"/>
<text text-anchor="start" x="1168.5" y="-70.8" font-family="Times,serif" font-size="14.00">...</text>
<polygon fill="none" stroke="black" points="1191,-64 1191,-85 1225,-85 1225,-64 1191,-64"/>
<text text-anchor="start" x="1203" y="-70.8" font-family="Times,serif" font-size="14.00">4</text>
<polygon fill="none" stroke="black" points="1225,-64 1225,-85 1355,-85 1355,-64 1225,-64"/>
<text text-anchor="start" x="1274.5" y="-70.8" font-family="Times,serif" font-size="14.00">u4le</text>
<polygon fill="none" stroke="black" points="1355,-64 1355,-85 1464,-85 1464,-64 1355,-64"/>
<text text-anchor="start" x="1389.5" y="-70.8" font-family="Times,serif" font-size="14.00">offset</text>
</g>
<!-- file__inst__contents -->
<g id="node5" class="node">
<title>file__inst__contents</title>
<polygon fill="#e0ffe0" stroke="transparent" points="1863,-148 1863,-169 1931,-169 1931,-148 1863,-148"/>
<polygon fill="none" stroke="black" points="1863,-148 1863,-169 1931,-169 1931,-148 1863,-148"/>
<text text-anchor="start" x="1890" y="-154.8" font-family="Times,serif" font-size="14.00">id</text>
<polygon fill="#e0ffe0" stroke="transparent" points="1931,-148 1931,-169 2361,-169 2361,-148 1931,-148"/>
<polygon fill="none" stroke="black" points="1931,-148 1931,-169 2361,-169 2361,-148 1931,-148"/>
<text text-anchor="start" x="2126.5" y="-154.8" font-family="Times,serif" font-size="14.00">value</text>
<polygon fill="none" stroke="black" points="1863,-127 1863,-148 1931,-148 1931,-127 1863,-127"/>
<text text-anchor="start" x="1866" y="-133.8" font-family="Times,serif" font-size="14.00">contents</text>
<polygon fill="none" stroke="black" points="1931,-127 1931,-148 2361,-148 2361,-127 1931,-127"/>
<text text-anchor="start" x="1934" y="-133.8" font-family="Times,serif" font-size="14.00">(flags == :compression_zlib ? contents_zlib : contents_raw)</text>
</g>
<!-- file__seq&#45;&gt;file__inst__contents -->
<g id="edge5" class="edge">
<title>file__seq:flags_type&#45;&gt;file__inst__contents</title>
<path fill="none" stroke="#404040" d="M1465,-138C1496.38,-138 1479.85,-180.13 1508,-194 1631.98,-255.11 1681.2,-204.79 1819,-194 1868.56,-190.12 1922.41,-182.59 1970.22,-174.73"/>
<polygon fill="#404040" stroke="#404040" points="1971.04,-178.14 1980.33,-173.05 1969.89,-171.24 1971.04,-178.14"/>
</g>
<!-- file__inst__contents_raw -->
<g id="node6" class="node">
<title>file__inst__contents_raw</title>
<polygon fill="#e0ffe0" stroke="transparent" points="1516.5,-159 1516.5,-180 1562.5,-180 1562.5,-159 1516.5,-159"/>
<polygon fill="none" stroke="black" points="1516.5,-159 1516.5,-180 1562.5,-180 1562.5,-159 1516.5,-159"/>
<text text-anchor="start" x="1527" y="-165.8" font-family="Times,serif" font-size="14.00">pos</text>
<polygon fill="#e0ffe0" stroke="transparent" points="1562.5,-159 1562.5,-180 1671.5,-180 1671.5,-159 1562.5,-159"/>
<polygon fill="none" stroke="black" points="1562.5,-159 1562.5,-180 1671.5,-180 1671.5,-159 1562.5,-159"/>
<text text-anchor="start" x="1603" y="-165.8" font-family="Times,serif" font-size="14.00">size</text>
<polygon fill="#e0ffe0" stroke="transparent" points="1671.5,-159 1671.5,-180 1709.5,-180 1709.5,-159 1671.5,-159"/>
<polygon fill="none" stroke="black" points="1671.5,-159 1671.5,-180 1709.5,-180 1709.5,-159 1671.5,-159"/>
<text text-anchor="start" x="1674.5" y="-165.8" font-family="Times,serif" font-size="14.00">type</text>
<polygon fill="#e0ffe0" stroke="transparent" points="1709.5,-159 1709.5,-180 1811.5,-180 1811.5,-159 1709.5,-159"/>
<polygon fill="none" stroke="black" points="1709.5,-159 1709.5,-180 1811.5,-180 1811.5,-159 1709.5,-159"/>
<text text-anchor="start" x="1753.5" y="-165.8" font-family="Times,serif" font-size="14.00">id</text>
<polygon fill="none" stroke="black" points="1516.5,-138 1516.5,-159 1562.5,-159 1562.5,-138 1516.5,-138"/>
<text text-anchor="start" x="1519.5" y="-144.8" font-family="Times,serif" font-size="14.00">offset</text>
<polygon fill="none" stroke="black" points="1562.5,-138 1562.5,-159 1671.5,-159 1671.5,-138 1562.5,-138"/>
<text text-anchor="start" x="1565.5" y="-144.8" font-family="Times,serif" font-size="14.00">size_unpacked</text>
<polygon fill="none" stroke="black" points="1671.5,-138 1671.5,-159 1709.5,-159 1709.5,-138 1671.5,-138"/>
<polygon fill="none" stroke="black" points="1709.5,-138 1709.5,-159 1811.5,-159 1811.5,-138 1709.5,-138"/>
<text text-anchor="start" x="1712.5" y="-144.8" font-family="Times,serif" font-size="14.00">contents_raw</text>
<polygon fill="none" stroke="black" points="1516.5,-117 1516.5,-138 1811.5,-138 1811.5,-117 1516.5,-117"/>
<text text-anchor="start" x="1555.5" y="-123.8" font-family="Times,serif" font-size="14.00">if flags == :compression_none</text>
</g>
<!-- file__seq&#45;&gt;file__inst__contents_raw -->
<g id="edge8" class="edge">
<title>file__seq:offset_type&#45;&gt;file__inst__contents_raw:contents_raw_pos</title>
<path fill="none" stroke="#404040" d="M1465,-74C1500.93,-74 1480.72,-134.25 1505.68,-146.02"/>
<polygon fill="#404040" stroke="#404040" points="1505.01,-149.46 1515.5,-148 1506.39,-142.59 1505.01,-149.46"/>
</g>
<!-- file__seq&#45;&gt;file__inst__contents_raw -->
<g id="edge9" class="edge">
<title>file__seq:size_unpacked_type&#45;&gt;file__inst__contents_raw:contents_raw_size</title>
<path fill="none" stroke="#404040" d="M1465,-116C1503.52,-116 1546.4,-126.15 1576.5,-135.02"/>
<polygon fill="#404040" stroke="#404040" points="1575.61,-138.41 1586.19,-137.96 1577.64,-131.71 1575.61,-138.41"/>
</g>
<!-- file__seq&#45;&gt;file__inst__contents_raw -->
<g id="edge10" class="edge">
<title>file__seq:flags_type&#45;&gt;file__inst__contents_raw:contents_raw__if</title>
<path fill="none" stroke="#404040" d="M1465,-138C1484.2,-138 1490.54,-130.31 1505.52,-127.79"/>
<polygon fill="#404040" stroke="#404040" points="1505.81,-131.28 1515.5,-127 1505.25,-124.3 1505.81,-131.28"/>
</g>
<!-- file__inst__contents_zlib -->
<g id="node7" class="node">
<title>file__inst__contents_zlib</title>
<polygon fill="#e0ffe0" stroke="transparent" points="1526.5,-70 1526.5,-91 1572.5,-91 1572.5,-70 1526.5,-70"/>
<polygon fill="none" stroke="black" points="1526.5,-70 1526.5,-91 1572.5,-91 1572.5,-70 1526.5,-70"/>
<text text-anchor="start" x="1537" y="-76.8" font-family="Times,serif" font-size="14.00">pos</text>
<polygon fill="#e0ffe0" stroke="transparent" points="1572.5,-70 1572.5,-91 1663.5,-91 1663.5,-70 1572.5,-70"/>
<polygon fill="none" stroke="black" points="1572.5,-70 1572.5,-91 1663.5,-91 1663.5,-70 1572.5,-70"/>
<text text-anchor="start" x="1604" y="-76.8" font-family="Times,serif" font-size="14.00">size</text>
<polygon fill="#e0ffe0" stroke="transparent" points="1663.5,-70 1663.5,-91 1701.5,-91 1701.5,-70 1663.5,-70"/>
<polygon fill="none" stroke="black" points="1663.5,-70 1663.5,-91 1701.5,-91 1701.5,-70 1663.5,-70"/>
<text text-anchor="start" x="1666.5" y="-76.8" font-family="Times,serif" font-size="14.00">type</text>
<polygon fill="#e0ffe0" stroke="transparent" points="1701.5,-70 1701.5,-91 1801.5,-91 1801.5,-70 1701.5,-70"/>
<polygon fill="none" stroke="black" points="1701.5,-70 1701.5,-91 1801.5,-91 1801.5,-70 1701.5,-70"/>
<text text-anchor="start" x="1744.5" y="-76.8" font-family="Times,serif" font-size="14.00">id</text>
<polygon fill="none" stroke="black" points="1526.5,-49 1526.5,-70 1572.5,-70 1572.5,-49 1526.5,-49"/>
<text text-anchor="start" x="1529.5" y="-55.8" font-family="Times,serif" font-size="14.00">offset</text>
<polygon fill="none" stroke="black" points="1572.5,-49 1572.5,-70 1663.5,-70 1663.5,-49 1572.5,-49"/>
<text text-anchor="start" x="1575.5" y="-55.8" font-family="Times,serif" font-size="14.00">size_packed</text>
<polygon fill="none" stroke="black" points="1663.5,-49 1663.5,-70 1701.5,-70 1701.5,-49 1663.5,-49"/>
<polygon fill="none" stroke="black" points="1701.5,-49 1701.5,-70 1801.5,-70 1801.5,-49 1701.5,-49"/>
<text text-anchor="start" x="1704.5" y="-55.8" font-family="Times,serif" font-size="14.00">contents_zlib</text>
<polygon fill="none" stroke="black" points="1526.5,-28 1526.5,-49 1801.5,-49 1801.5,-28 1526.5,-28"/>
<text text-anchor="start" x="1560" y="-34.8" font-family="Times,serif" font-size="14.00">if flags == :compression_zlib</text>
</g>
<!-- file__seq&#45;&gt;file__inst__contents_zlib -->
<g id="edge11" class="edge">
<title>file__seq:offset_type&#45;&gt;file__inst__contents_zlib:contents_zlib_pos</title>
<path fill="none" stroke="#404040" d="M1465,-74C1488.92,-74 1495.98,-62.82 1515.29,-59.76"/>
<polygon fill="#404040" stroke="#404040" points="1515.79,-63.24 1525.5,-59 1515.27,-56.26 1515.79,-63.24"/>
</g>
<!-- file__seq&#45;&gt;file__inst__contents_zlib -->
<g id="edge12" class="edge">
<title>file__seq:size_packed_type&#45;&gt;file__inst__contents_zlib:contents_zlib_size</title>
<path fill="none" stroke="#404040" d="M1465,-95C1504.23,-95 1547.66,-83.44 1577.92,-73.41"/>
<polygon fill="#404040" stroke="#404040" points="1579.32,-76.64 1587.66,-70.09 1577.06,-70.01 1579.32,-76.64"/>
</g>
<!-- file__seq&#45;&gt;file__inst__contents_zlib -->
<g id="edge13" class="edge">
<title>file__seq:flags_type&#45;&gt;file__inst__contents_zlib:contents_zlib__if</title>
<path fill="none" stroke="#404040" d="M1465,-138C1513.09,-138 1479.47,-52.29 1515.43,-39.57"/>
<polygon fill="#404040" stroke="#404040" points="1516.16,-43 1525.5,-38 1515.08,-36.08 1516.16,-43"/>
</g>
<!-- pstr__seq -->
<g id="node10" class="node">
<title>pstr__seq</title>
<polygon fill="#e0ffe0" stroke="transparent" points="1575.5,-298 1575.5,-319 1606.5,-319 1606.5,-298 1575.5,-298"/>
<polygon fill="none" stroke="black" points="1575.5,-298 1575.5,-319 1606.5,-319 1606.5,-298 1575.5,-298"/>
<text text-anchor="start" x="1578.5" y="-304.8" font-family="Times,serif" font-size="14.00">pos</text>
<polygon fill="#e0ffe0" stroke="transparent" points="1606.5,-298 1606.5,-319 1640.5,-319 1640.5,-298 1606.5,-298"/>
<polygon fill="none" stroke="black" points="1606.5,-298 1606.5,-319 1640.5,-319 1640.5,-298 1606.5,-298"/>
<text text-anchor="start" x="1609.5" y="-304.8" font-family="Times,serif" font-size="14.00">size</text>
<polygon fill="#e0ffe0" stroke="transparent" points="1640.5,-298 1640.5,-319 1718.5,-319 1718.5,-298 1640.5,-298"/>
<polygon fill="none" stroke="black" points="1640.5,-298 1640.5,-319 1718.5,-319 1718.5,-298 1640.5,-298"/>
<text text-anchor="start" x="1663.5" y="-304.8" font-family="Times,serif" font-size="14.00">type</text>
<polygon fill="#e0ffe0" stroke="transparent" points="1718.5,-298 1718.5,-319 1752.5,-319 1752.5,-298 1718.5,-298"/>
<polygon fill="none" stroke="black" points="1718.5,-298 1718.5,-319 1752.5,-319 1752.5,-298 1718.5,-298"/>
<text text-anchor="start" x="1728.5" y="-304.8" font-family="Times,serif" font-size="14.00">id</text>
<polygon fill="none" stroke="black" points="1575.5,-277 1575.5,-298 1606.5,-298 1606.5,-277 1575.5,-277"/>
<text text-anchor="start" x="1586" y="-283.8" font-family="Times,serif" font-size="14.00">0</text>
<polygon fill="none" stroke="black" points="1606.5,-277 1606.5,-298 1640.5,-298 1640.5,-277 1606.5,-277"/>
<text text-anchor="start" x="1618.5" y="-283.8" font-family="Times,serif" font-size="14.00">4</text>
<polygon fill="none" stroke="black" points="1640.5,-277 1640.5,-298 1718.5,-298 1718.5,-277 1640.5,-277"/>
<text text-anchor="start" x="1664" y="-283.8" font-family="Times,serif" font-size="14.00">u4le</text>
<polygon fill="none" stroke="black" points="1718.5,-277 1718.5,-298 1752.5,-298 1752.5,-277 1718.5,-277"/>
<text text-anchor="start" x="1721.5" y="-283.8" font-family="Times,serif" font-size="14.00">size</text>
<polygon fill="none" stroke="black" points="1575.5,-256 1575.5,-277 1606.5,-277 1606.5,-256 1575.5,-256"/>
<text text-anchor="start" x="1586" y="-262.8" font-family="Times,serif" font-size="14.00">4</text>
<polygon fill="none" stroke="black" points="1606.5,-256 1606.5,-277 1640.5,-277 1640.5,-256 1606.5,-256"/>
<text text-anchor="start" x="1609.5" y="-262.8" font-family="Times,serif" font-size="14.00">size</text>
<polygon fill="none" stroke="black" points="1640.5,-256 1640.5,-277 1718.5,-277 1718.5,-256 1640.5,-256"/>
<text text-anchor="start" x="1643.5" y="-262.8" font-family="Times,serif" font-size="14.00">str(ASCII)</text>
<polygon fill="none" stroke="black" points="1718.5,-256 1718.5,-277 1752.5,-277 1752.5,-256 1718.5,-256"/>
<text text-anchor="start" x="1725" y="-262.8" font-family="Times,serif" font-size="14.00">str</text>
</g>
<!-- file__seq&#45;&gt;pstr__seq -->
<g id="edge4" class="edge">
<title>file__seq:name_type&#45;&gt;pstr__seq</title>
<path fill="none" stroke="black" stroke-width="2" d="M1465,-159C1505.76,-159 1476.62,-213.99 1508,-240 1522.23,-251.79 1539.36,-260.7 1556.95,-267.42"/>
<polygon fill="black" stroke="black" stroke-width="2" points="1556.16,-270.85 1566.75,-270.93 1558.52,-264.26 1556.16,-270.85"/>
</g>
<!-- file__inst__contents_raw&#45;&gt;file__inst__contents -->
<g id="edge7" class="edge">
<title>file__inst__contents_raw:contents_raw_type&#45;&gt;file__inst__contents</title>
<path fill="none" stroke="#404040" d="M1812.5,-148C1823.11,-148 1833.94,-148 1844.88,-148"/>
<polygon fill="#404040" stroke="#404040" points="1844.95,-151.5 1854.95,-148 1844.95,-144.5 1844.95,-151.5"/>
</g>
<!-- file__inst__contents_zlib&#45;&gt;file__inst__contents -->
<g id="edge6" class="edge">
<title>file__inst__contents_zlib:contents_zlib_type&#45;&gt;file__inst__contents</title>
<path fill="none" stroke="#404040" d="M1802.5,-59C1890.6,-59 1987.5,-92.92 2048.76,-118.88"/>
<polygon fill="#404040" stroke="#404040" points="2047.71,-122.24 2058.28,-122.97 2050.47,-115.81 2047.71,-122.24"/>
</g>
<!-- footer__seq&#45;&gt;fallout2_dat__inst__index -->
<g id="edge2" class="edge">
<title>footer__seq:index_size_type&#45;&gt;fallout2_dat__inst__index:index_pos</title>
<path fill="none" stroke="#404040" d="M477.5,-138C495.72,-138 502.62,-138 516.95,-138"/>
<polygon fill="#404040" stroke="#404040" points="517,-141.5 527,-138 517,-134.5 517,-141.5"/>
</g>
<!-- index__seq&#45;&gt;file__seq -->
<g id="edge14" class="edge">
<title>index__seq:files_type&#45;&gt;file__seq</title>
<path fill="none" stroke="black" stroke-width="2" d="M1109,-127C1119.67,-127 1130.66,-127 1141.74,-127"/>
<polygon fill="black" stroke="black" stroke-width="2" points="1141.94,-130.5 1151.94,-127 1141.94,-123.5 1141.94,-130.5"/>
</g>
<!-- index__seq&#45;&gt;index__seq -->
<g id="edge15" class="edge">
<title>index__seq:file_count_type&#45;&gt;index__seq:files__repeat</title>
<path fill="none" stroke="#404040" d="M1032.82,-152.04C937.29,-157.47 776,-153.98 776,-127.5 776,-107.19 847.84,-100.4 919.77,-100.79"/>
<polygon fill="#404040" stroke="#404040" points="919.87,-104.3 929.91,-100.9 919.94,-97.3 919.87,-104.3"/>
</g>
<!-- pstr__seq&#45;&gt;pstr__seq -->
<g id="edge16" class="edge">
<title>pstr__seq:size_type&#45;&gt;pstr__seq:str_size</title>
<path fill="none" stroke="#404040" d="M1752.64,-291.02C1822.29,-309.81 1812.91,-341.5 1679.5,-341.5 1552.6,-341.5 1537.92,-296.41 1596.73,-273.64"/>
<polygon fill="#404040" stroke="#404040" points="1598.05,-276.89 1606.36,-270.32 1595.77,-270.27 1598.05,-276.89"/>
</g>
</g>
</svg>
