<?xml version="1.0" encoding="UTF-8" standalone="no"?>
<!DOCTYPE svg PUBLIC "-//W3C//DTD SVG 1.1//EN"
 "http://www.w3.org/Graphics/SVG/1.1/DTD/svg11.dtd">
<!-- Generated by graphviz version 2.40.1 (20161225.0304)
 -->
<!-- Title: %3 Pages: 1 -->
<svg width="2442pt" height="377pt"
 viewBox="0.00 0.00 2442.00 377.00" xmlns="http://www.w3.org/2000/svg" xmlns:xlink="http://www.w3.org/1999/xlink">
<g id="graph0" class="graph" transform="scale(1 1) rotate(0) translate(4 373)">
<title>%3</title>
<polygon fill="#ffffff" stroke="transparent" points="-4,4 -4,-373 2438,-373 2438,4 -4,4"/>
<g id="clust1" class="cluster">
<title>cluster__fallout2_dat</title>
<polygon fill="none" stroke="#000000" stroke-dasharray="1,5" points="8,-8 8,-361 2426,-361 2426,-8 8,-8"/>
<text text-anchor="middle" x="1217" y="-345.8" font-family="Times,serif" font-size="14.00" fill="#000000">Fallout2Dat</text>
</g>
<g id="clust2" class="cluster">
<title>cluster__pstr</title>
<polygon fill="none" stroke="#000000" stroke-dasharray="1,5" points="1590,-201 1590,-330 1802,-330 1802,-201 1590,-201"/>
<text text-anchor="middle" x="1696" y="-314.8" font-family="Times,serif" font-size="14.00" fill="#000000">Fallout2Dat::Pstr</text>
</g>
<g id="clust3" class="cluster">
<title>cluster__footer</title>
<polygon fill="none" stroke="#000000" stroke-dasharray="1,5" points="288,-63 288,-174 504,-174 504,-63 288,-63"/>
<text text-anchor="middle" x="396" y="-158.8" font-family="Times,serif" font-size="14.00" fill="#000000">Fallout2Dat::Footer</text>
</g>
<g id="clust4" class="cluster">
<title>cluster__index</title>
<polygon fill="none" stroke="#000000" stroke-dasharray="1,5" points="939,-52 939,-183 1151,-183 1151,-52 939,-52"/>
<text text-anchor="middle" x="1045" y="-167.8" font-family="Times,serif" font-size="14.00" fill="#000000">Fallout2Dat::Index</text>
</g>
<g id="clust5" class="cluster">
<title>cluster__file</title>
<polygon fill="none" stroke="#000000" stroke-dasharray="1,5" points="1171,-16 1171,-193 2418,-193 2418,-16 1171,-16"/>
<text text-anchor="middle" x="1794.5" y="-177.8" font-family="Times,serif" font-size="14.00" fill="#000000">Fallout2Dat::File</text>
</g>
<!-- fallout2_dat__seq -->
<g id="node1" class="node">
<title>fallout2_dat__seq</title>
<polygon fill="#e0ffe0" stroke="transparent" points="77,-234 77,-255 108,-255 108,-234 77,-234"/>
<polygon fill="none" stroke="#000000" points="77,-234 77,-255 108,-255 108,-234 77,-234"/>
<text text-anchor="start" x="80" y="-240.8" font-family="Times,serif" font-size="14.00" fill="#000000">pos</text>
<polygon fill="#e0ffe0" stroke="transparent" points="108,-234 108,-255 142,-255 142,-234 108,-234"/>
<polygon fill="none" stroke="#000000" points="108,-234 108,-255 142,-255 142,-234 108,-234"/>
<text text-anchor="start" x="111" y="-240.8" font-family="Times,serif" font-size="14.00" fill="#000000">size</text>
<polygon fill="#e0ffe0" stroke="transparent" points="142,-234 142,-255 180,-255 180,-234 142,-234"/>
<polygon fill="none" stroke="#000000" points="142,-234 142,-255 180,-255 180,-234 142,-234"/>
<text text-anchor="start" x="145" y="-240.8" font-family="Times,serif" font-size="14.00" fill="#000000">type</text>
<polygon fill="#e0ffe0" stroke="transparent" points="180,-234 180,-255 200,-255 200,-234 180,-234"/>
<polygon fill="none" stroke="#000000" points="180,-234 180,-255 200,-255 200,-234 180,-234"/>
<text text-anchor="start" x="183" y="-240.8" font-family="Times,serif" font-size="14.00" fill="#000000">id</text>
</g>
<!-- fallout2_dat__inst__footer -->
<g id="node2" class="node">
<title>fallout2_dat__inst__footer</title>
<polygon fill="#e0ffe0" stroke="transparent" points="24,-118 24,-139 116,-139 116,-118 24,-118"/>
<polygon fill="none" stroke="#000000" points="24,-118 24,-139 116,-139 116,-118 24,-118"/>
<text text-anchor="start" x="57.5" y="-124.8" font-family="Times,serif" font-size="14.00" fill="#000000">pos</text>
<polygon fill="#e0ffe0" stroke="transparent" points="116,-118 116,-139 150,-139 150,-118 116,-118"/>
<polygon fill="none" stroke="#000000" points="116,-118 116,-139 150,-139 150,-118 116,-118"/>
<text text-anchor="start" x="119" y="-124.8" font-family="Times,serif" font-size="14.00" fill="#000000">size</text>
<polygon fill="#e0ffe0" stroke="transparent" points="150,-118 150,-139 203,-139 203,-118 150,-118"/>
<polygon fill="none" stroke="#000000" points="150,-118 150,-139 203,-139 203,-118 150,-118"/>
<text text-anchor="start" x="160.5" y="-124.8" font-family="Times,serif" font-size="14.00" fill="#000000">type</text>
<polygon fill="#e0ffe0" stroke="transparent" points="203,-118 203,-139 252,-139 252,-118 203,-118"/>
<polygon fill="none" stroke="#000000" points="203,-118 203,-139 252,-139 252,-118 203,-118"/>
<text text-anchor="start" x="220.5" y="-124.8" font-family="Times,serif" font-size="14.00" fill="#000000">id</text>
<polygon fill="none" stroke="#000000" points="24,-97 24,-118 116,-118 116,-97 24,-97"/>
<text text-anchor="start" x="27" y="-103.8" font-family="Times,serif" font-size="14.00" fill="#000000">(_io.size &#45; 8)</text>
<polygon fill="none" stroke="#000000" points="116,-97 116,-118 150,-118 150,-97 116,-97"/>
<text text-anchor="start" x="128" y="-103.8" font-family="Times,serif" font-size="14.00" fill="#000000">8</text>
<polygon fill="none" stroke="#000000" points="150,-97 150,-118 203,-118 203,-97 150,-97"/>
<text text-anchor="start" x="153" y="-103.8" font-family="Times,serif" font-size="14.00" fill="#000000">Footer</text>
<polygon fill="none" stroke="#000000" points="203,-97 203,-118 252,-118 252,-97 203,-97"/>
<text text-anchor="start" x="206" y="-103.8" font-family="Times,serif" font-size="14.00" fill="#000000">footer</text>
</g>
<!-- footer__seq -->
<g id="node5" class="node">
<title>footer__seq</title>
<polygon fill="#e0ffe0" stroke="transparent" points="304,-117 304,-138 335,-138 335,-117 304,-117"/>
<polygon fill="none" stroke="#000000" points="304,-117 304,-138 335,-138 335,-117 304,-117"/>
<text text-anchor="start" x="307" y="-123.8" font-family="Times,serif" font-size="14.00" fill="#000000">pos</text>
<polygon fill="#e0ffe0" stroke="transparent" points="335,-117 335,-138 369,-138 369,-117 335,-117"/>
<polygon fill="none" stroke="#000000" points="335,-117 335,-138 369,-138 369,-117 335,-117"/>
<text text-anchor="start" x="338" y="-123.8" font-family="Times,serif" font-size="14.00" fill="#000000">size</text>
<polygon fill="#e0ffe0" stroke="transparent" points="369,-117 369,-138 407,-138 407,-117 369,-117"/>
<polygon fill="none" stroke="#000000" points="369,-117 369,-138 407,-138 407,-117 369,-117"/>
<text text-anchor="start" x="372" y="-123.8" font-family="Times,serif" font-size="14.00" fill="#000000">type</text>
<polygon fill="#e0ffe0" stroke="transparent" points="407,-117 407,-138 488,-138 488,-117 407,-117"/>
<polygon fill="none" stroke="#000000" points="407,-117 407,-138 488,-138 488,-117 407,-117"/>
<text text-anchor="start" x="440.5" y="-123.8" font-family="Times,serif" font-size="14.00" fill="#000000">id</text>
<polygon fill="none" stroke="#000000" points="304,-96 304,-117 335,-117 335,-96 304,-96"/>
<text text-anchor="start" x="314.5" y="-102.8" font-family="Times,serif" font-size="14.00" fill="#000000">0</text>
<polygon fill="none" stroke="#000000" points="335,-96 335,-117 369,-117 369,-96 335,-96"/>
<text text-anchor="start" x="347" y="-102.8" font-family="Times,serif" font-size="14.00" fill="#000000">4</text>
<polygon fill="none" stroke="#000000" points="369,-96 369,-117 407,-117 407,-96 369,-96"/>
<text text-anchor="start" x="372.5" y="-102.8" font-family="Times,serif" font-size="14.00" fill="#000000">u4le</text>
<polygon fill="none" stroke="#000000" points="407,-96 407,-117 488,-117 488,-96 407,-96"/>
<text text-anchor="start" x="410" y="-102.8" font-family="Times,serif" font-size="14.00" fill="#000000">index_size</text>
<polygon fill="none" stroke="#000000" points="304,-75 304,-96 335,-96 335,-75 304,-75"/>
<text text-anchor="start" x="314.5" y="-81.8" font-family="Times,serif" font-size="14.00" fill="#000000">4</text>
<polygon fill="none" stroke="#000000" points="335,-75 335,-96 369,-96 369,-75 335,-75"/>
<text text-anchor="start" x="347" y="-81.8" font-family="Times,serif" font-size="14.00" fill="#000000">4</text>
<polygon fill="none" stroke="#000000" points="369,-75 369,-96 407,-96 407,-75 369,-75"/>
<text text-anchor="start" x="372.5" y="-81.8" font-family="Times,serif" font-size="14.00" fill="#000000">u4le</text>
<polygon fill="none" stroke="#000000" points="407,-75 407,-96 488,-96 488,-75 407,-75"/>
<text text-anchor="start" x="418.5" y="-81.8" font-family="Times,serif" font-size="14.00" fill="#000000">file_size</text>
</g>
<!-- fallout2_dat__inst__footer&#45;&gt;footer__seq -->
<g id="edge1" class="edge">
<title>fallout2_dat__inst__footer:footer_type&#45;&gt;footer__seq</title>
<path fill="none" stroke="#000000" stroke-width="2" d="M252,-107C262.8145,-107 274.0858,-107 285.3507,-107"/>
<polygon fill="#000000" stroke="#000000" stroke-width="2" points="285.6811,-110.5001 295.681,-107 285.681,-103.5001 285.6811,-110.5001"/>
</g>
<!-- fallout2_dat__inst__index -->
<g id="node3" class="node">
<title>fallout2_dat__inst__index</title>
<polygon fill="#e0ffe0" stroke="transparent" points="540.5,-117 540.5,-138 776.5,-138 776.5,-117 540.5,-117"/>
<polygon fill="none" stroke="#000000" points="540.5,-117 540.5,-138 776.5,-138 776.5,-117 540.5,-117"/>
<text text-anchor="start" x="646" y="-123.8" font-family="Times,serif" font-size="14.00" fill="#000000">pos</text>
<polygon fill="#e0ffe0" stroke="transparent" points="776.5,-117 776.5,-138 810.5,-138 810.5,-117 776.5,-117"/>
<polygon fill="none" stroke="#000000" points="776.5,-117 776.5,-138 810.5,-138 810.5,-117 776.5,-117"/>
<text text-anchor="start" x="779.5" y="-123.8" font-family="Times,serif" font-size="14.00" fill="#000000">size</text>
<polygon fill="#e0ffe0" stroke="transparent" points="810.5,-117 810.5,-138 857.5,-138 857.5,-117 810.5,-117"/>
<polygon fill="none" stroke="#000000" points="810.5,-117 810.5,-138 857.5,-138 857.5,-117 810.5,-117"/>
<text text-anchor="start" x="818" y="-123.8" font-family="Times,serif" font-size="14.00" fill="#000000">type</text>
<polygon fill="#e0ffe0" stroke="transparent" points="857.5,-117 857.5,-138 903.5,-138 903.5,-117 857.5,-117"/>
<polygon fill="none" stroke="#000000" points="857.5,-117 857.5,-138 903.5,-138 903.5,-117 857.5,-117"/>
<text text-anchor="start" x="873.5" y="-123.8" font-family="Times,serif" font-size="14.00" fill="#000000">id</text>
<polygon fill="none" stroke="#000000" points="540.5,-96 540.5,-117 776.5,-117 776.5,-96 540.5,-96"/>
<text text-anchor="start" x="543.5" y="-102.8" font-family="Times,serif" font-size="14.00" fill="#000000">((_io.size &#45; 8) &#45; footer.index_size)</text>
<polygon fill="none" stroke="#000000" points="776.5,-96 776.5,-117 810.5,-117 810.5,-96 776.5,-96"/>
<text text-anchor="start" x="786.5" y="-102.8" font-family="Times,serif" font-size="14.00" fill="#000000">...</text>
<polygon fill="none" stroke="#000000" points="810.5,-96 810.5,-117 857.5,-117 857.5,-96 810.5,-96"/>
<text text-anchor="start" x="813.5" y="-102.8" font-family="Times,serif" font-size="14.00" fill="#000000">Index</text>
<polygon fill="none" stroke="#000000" points="857.5,-96 857.5,-117 903.5,-117 903.5,-96 857.5,-96"/>
<text text-anchor="start" x="860.5" y="-102.8" font-family="Times,serif" font-size="14.00" fill="#000000">index</text>
</g>
<!-- index__seq -->
<g id="node6" class="node">
<title>index__seq</title>
<polygon fill="#e0ffe0" stroke="transparent" points="955,-127 955,-148 986,-148 986,-127 955,-127"/>
<polygon fill="none" stroke="#000000" points="955,-127 955,-148 986,-148 986,-127 955,-127"/>
<text text-anchor="start" x="958" y="-133.8" font-family="Times,serif" font-size="14.00" fill="#000000">pos</text>
<polygon fill="#e0ffe0" stroke="transparent" points="986,-127 986,-148 1020,-148 1020,-127 986,-127"/>
<polygon fill="none" stroke="#000000" points="986,-127 986,-148 1020,-148 1020,-127 986,-127"/>
<text text-anchor="start" x="989" y="-133.8" font-family="Times,serif" font-size="14.00" fill="#000000">size</text>
<polygon fill="#e0ffe0" stroke="transparent" points="1020,-127 1020,-148 1058,-148 1058,-127 1020,-127"/>
<polygon fill="none" stroke="#000000" points="1020,-127 1020,-148 1058,-148 1058,-127 1020,-127"/>
<text text-anchor="start" x="1023" y="-133.8" font-family="Times,serif" font-size="14.00" fill="#000000">type</text>
<polygon fill="#e0ffe0" stroke="transparent" points="1058,-127 1058,-148 1135,-148 1135,-127 1058,-127"/>
<polygon fill="none" stroke="#000000" points="1058,-127 1058,-148 1135,-148 1135,-127 1058,-127"/>
<text text-anchor="start" x="1089.5" y="-133.8" font-family="Times,serif" font-size="14.00" fill="#000000">id</text>
<polygon fill="none" stroke="#000000" points="955,-106 955,-127 986,-127 986,-106 955,-106"/>
<text text-anchor="start" x="965.5" y="-112.8" font-family="Times,serif" font-size="14.00" fill="#000000">0</text>
<polygon fill="none" stroke="#000000" points="986,-106 986,-127 1020,-127 1020,-106 986,-106"/>
<text text-anchor="start" x="998" y="-112.8" font-family="Times,serif" font-size="14.00" fill="#000000">4</text>
<polygon fill="none" stroke="#000000" points="1020,-106 1020,-127 1058,-127 1058,-106 1020,-106"/>
<text text-anchor="start" x="1023.5" y="-112.8" font-family="Times,serif" font-size="14.00" fill="#000000">u4le</text>
<polygon fill="none" stroke="#000000" points="1058,-106 1058,-127 1135,-127 1135,-106 1058,-106"/>
<text text-anchor="start" x="1061" y="-112.8" font-family="Times,serif" font-size="14.00" fill="#000000">file_count</text>
<polygon fill="none" stroke="#000000" points="955,-85 955,-106 986,-106 986,-85 955,-85"/>
<text text-anchor="start" x="965.5" y="-91.8" font-family="Times,serif" font-size="14.00" fill="#000000">4</text>
<polygon fill="none" stroke="#000000" points="986,-85 986,-106 1020,-106 1020,-85 986,-85"/>
<text text-anchor="start" x="996" y="-91.8" font-family="Times,serif" font-size="14.00" fill="#000000">...</text>
<polygon fill="none" stroke="#000000" points="1020,-85 1020,-106 1058,-106 1058,-85 1020,-85"/>
<text text-anchor="start" x="1025" y="-91.8" font-family="Times,serif" font-size="14.00" fill="#000000">File</text>
<polygon fill="none" stroke="#000000" points="1058,-85 1058,-106 1135,-106 1135,-85 1058,-85"/>
<text text-anchor="start" x="1081" y="-91.8" font-family="Times,serif" font-size="14.00" fill="#000000">files</text>
<polygon fill="none" stroke="#000000" points="955,-64 955,-85 1135,-85 1135,-64 955,-64"/>
<text text-anchor="start" x="962" y="-70.8" font-family="Times,serif" font-size="14.00" fill="#000000">repeat file_count times</text>
</g>
<!-- fallout2_dat__inst__index&#45;&gt;index__seq -->
<g id="edge3" class="edge">
<title>fallout2_dat__inst__index:index_type&#45;&gt;index__seq</title>
<path fill="none" stroke="#000000" stroke-width="2" d="M903.5,-106C914.2207,-106 925.3984,-106 936.5656,-106"/>
<polygon fill="#000000" stroke="#000000" stroke-width="2" points="936.8049,-109.5001 946.8049,-106 936.8048,-102.5001 936.8049,-109.5001"/>
</g>
<!-- pstr__seq -->
<g id="node4" class="node">
<title>pstr__seq</title>
<polygon fill="#e0ffe0" stroke="transparent" points="1606,-255 1606,-276 1637,-276 1637,-255 1606,-255"/>
<polygon fill="none" stroke="#000000" points="1606,-255 1606,-276 1637,-276 1637,-255 1606,-255"/>
<text text-anchor="start" x="1609" y="-261.8" font-family="Times,serif" font-size="14.00" fill="#000000">pos</text>
<polygon fill="#e0ffe0" stroke="transparent" points="1637,-255 1637,-276 1671,-276 1671,-255 1637,-255"/>
<polygon fill="none" stroke="#000000" points="1637,-255 1637,-276 1671,-276 1671,-255 1637,-255"/>
<text text-anchor="start" x="1640" y="-261.8" font-family="Times,serif" font-size="14.00" fill="#000000">size</text>
<polygon fill="#e0ffe0" stroke="transparent" points="1671,-255 1671,-276 1752,-276 1752,-255 1671,-255"/>
<polygon fill="none" stroke="#000000" points="1671,-255 1671,-276 1752,-276 1752,-255 1671,-255"/>
<text text-anchor="start" x="1695.5" y="-261.8" font-family="Times,serif" font-size="14.00" fill="#000000">type</text>
<polygon fill="#e0ffe0" stroke="transparent" points="1752,-255 1752,-276 1786,-276 1786,-255 1752,-255"/>
<polygon fill="none" stroke="#000000" points="1752,-255 1752,-276 1786,-276 1786,-255 1752,-255"/>
<text text-anchor="start" x="1762" y="-261.8" font-family="Times,serif" font-size="14.00" fill="#000000">id</text>
<polygon fill="none" stroke="#000000" points="1606,-234 1606,-255 1637,-255 1637,-234 1606,-234"/>
<text text-anchor="start" x="1616.5" y="-240.8" font-family="Times,serif" font-size="14.00" fill="#000000">0</text>
<polygon fill="none" stroke="#000000" points="1637,-234 1637,-255 1671,-255 1671,-234 1637,-234"/>
<text text-anchor="start" x="1649" y="-240.8" font-family="Times,serif" font-size="14.00" fill="#000000">4</text>
<polygon fill="none" stroke="#000000" points="1671,-234 1671,-255 1752,-255 1752,-234 1671,-234"/>
<text text-anchor="start" x="1696" y="-240.8" font-family="Times,serif" font-size="14.00" fill="#000000">u4le</text>
<polygon fill="none" stroke="#000000" points="1752,-234 1752,-255 1786,-255 1786,-234 1752,-234"/>
<text text-anchor="start" x="1755" y="-240.8" font-family="Times,serif" font-size="14.00" fill="#000000">size</text>
<polygon fill="none" stroke="#000000" points="1606,-213 1606,-234 1637,-234 1637,-213 1606,-213"/>
<text text-anchor="start" x="1616.5" y="-219.8" font-family="Times,serif" font-size="14.00" fill="#000000">4</text>
<polygon fill="none" stroke="#000000" points="1637,-213 1637,-234 1671,-234 1671,-213 1637,-213"/>
<text text-anchor="start" x="1640" y="-219.8" font-family="Times,serif" font-size="14.00" fill="#000000">size</text>
<polygon fill="none" stroke="#000000" points="1671,-213 1671,-234 1752,-234 1752,-213 1671,-213"/>
<text text-anchor="start" x="1674" y="-219.8" font-family="Times,serif" font-size="14.00" fill="#000000">str(ASCII)</text>
<polygon fill="none" stroke="#000000" points="1752,-213 1752,-234 1786,-234 1786,-213 1752,-213"/>
<text text-anchor="start" x="1758.5" y="-219.8" font-family="Times,serif" font-size="14.00" fill="#000000">str</text>
</g>
<!-- pstr__seq&#45;&gt;pstr__seq -->
<g id="edge4" class="edge">
<title>pstr__seq:size_type&#45;&gt;pstr__seq:str_size</title>
<path fill="none" stroke="#404040" d="M1786.3354,-248.0218C1856.7782,-266.8083 1847.2344,-298.5 1711.5,-298.5 1582.3933,-298.5 1567.4547,-253.4062 1626.9233,-230.6392"/>
<polygon fill="#404040" stroke="#404040" points="1628.3287,-233.858 1636.6646,-227.3186 1626.0701,-227.2323 1628.3287,-233.858"/>
</g>
<!-- footer__seq&#45;&gt;fallout2_dat__inst__index -->
<g id="edge2" class="edge">
<title>footer__seq:index_size_type&#45;&gt;fallout2_dat__inst__index:index_pos</title>
<path fill="none" stroke="#404040" d="M488,-106C507.5052,-106 514.7816,-106 530.2742,-106"/>
<polygon fill="#404040" stroke="#404040" points="530.5,-109.5001 540.5,-106 530.5,-102.5001 530.5,-109.5001"/>
</g>
<!-- index__seq&#45;&gt;index__seq -->
<g id="edge6" class="edge">
<title>index__seq:file_count_type&#45;&gt;index__seq:files__repeat</title>
<path fill="none" stroke="#404040" d="M1057.8797,-120.0775C961.5692,-125.4541 800,-121.9194 800,-95.5 800,-75.2172 872.2324,-68.4226 944.6442,-68.7934"/>
<polygon fill="#404040" stroke="#404040" points="944.8219,-72.2952 954.8555,-68.8926 944.89,-65.2955 944.8219,-72.2952"/>
</g>
<!-- file__seq -->
<g id="node7" class="node">
<title>file__seq</title>
<polygon fill="#e0ffe0" stroke="transparent" points="1187.5,-137 1187.5,-158 1218.5,-158 1218.5,-137 1187.5,-137"/>
<polygon fill="none" stroke="#000000" points="1187.5,-137 1187.5,-158 1218.5,-158 1218.5,-137 1187.5,-137"/>
<text text-anchor="start" x="1190.5" y="-143.8" font-family="Times,serif" font-size="14.00" fill="#000000">pos</text>
<polygon fill="#e0ffe0" stroke="transparent" points="1218.5,-137 1218.5,-158 1252.5,-158 1252.5,-137 1218.5,-137"/>
<polygon fill="none" stroke="#000000" points="1218.5,-137 1218.5,-158 1252.5,-158 1252.5,-137 1218.5,-137"/>
<text text-anchor="start" x="1221.5" y="-143.8" font-family="Times,serif" font-size="14.00" fill="#000000">size</text>
<polygon fill="#e0ffe0" stroke="transparent" points="1252.5,-137 1252.5,-158 1382.5,-158 1382.5,-137 1252.5,-137"/>
<polygon fill="none" stroke="#000000" points="1252.5,-137 1252.5,-158 1382.5,-158 1382.5,-137 1252.5,-137"/>
<text text-anchor="start" x="1301.5" y="-143.8" font-family="Times,serif" font-size="14.00" fill="#000000">type</text>
<polygon fill="#e0ffe0" stroke="transparent" points="1382.5,-137 1382.5,-158 1494.5,-158 1494.5,-137 1382.5,-137"/>
<polygon fill="none" stroke="#000000" points="1382.5,-137 1382.5,-158 1494.5,-158 1494.5,-137 1382.5,-137"/>
<text text-anchor="start" x="1431.5" y="-143.8" font-family="Times,serif" font-size="14.00" fill="#000000">id</text>
<polygon fill="none" stroke="#000000" points="1187.5,-116 1187.5,-137 1218.5,-137 1218.5,-116 1187.5,-116"/>
<text text-anchor="start" x="1198" y="-122.8" font-family="Times,serif" font-size="14.00" fill="#000000">0</text>
<polygon fill="none" stroke="#000000" points="1218.5,-116 1218.5,-137 1252.5,-137 1252.5,-116 1218.5,-116"/>
<text text-anchor="start" x="1228.5" y="-122.8" font-family="Times,serif" font-size="14.00" fill="#000000">...</text>
<polygon fill="none" stroke="#000000" points="1252.5,-116 1252.5,-137 1382.5,-137 1382.5,-116 1252.5,-116"/>
<text text-anchor="start" x="1302.5" y="-122.8" font-family="Times,serif" font-size="14.00" fill="#000000">Pstr</text>
<polygon fill="none" stroke="#000000" points="1382.5,-116 1382.5,-137 1494.5,-137 1494.5,-116 1382.5,-116"/>
<text text-anchor="start" x="1418.5" y="-122.8" font-family="Times,serif" font-size="14.00" fill="#000000">name</text>
<polygon fill="none" stroke="#000000" points="1187.5,-95 1187.5,-116 1218.5,-116 1218.5,-95 1187.5,-95"/>
<text text-anchor="start" x="1196" y="-101.8" font-family="Times,serif" font-size="14.00" fill="#000000">...</text>
<polygon fill="none" stroke="#000000" points="1218.5,-95 1218.5,-116 1252.5,-116 1252.5,-95 1218.5,-95"/>
<text text-anchor="start" x="1230.5" y="-101.8" font-family="Times,serif" font-size="14.00" fill="#000000">1</text>
<polygon fill="none" stroke="#000000" points="1252.5,-95 1252.5,-116 1382.5,-116 1382.5,-95 1252.5,-95"/>
<text text-anchor="start" x="1255.5" y="-101.8" font-family="Times,serif" font-size="14.00" fill="#000000">u1→Compression</text>
<polygon fill="none" stroke="#000000" points="1382.5,-95 1382.5,-116 1494.5,-116 1494.5,-95 1382.5,-95"/>
<text text-anchor="start" x="1421" y="-101.8" font-family="Times,serif" font-size="14.00" fill="#000000">flags</text>
<polygon fill="none" stroke="#000000" points="1187.5,-74 1187.5,-95 1218.5,-95 1218.5,-74 1187.5,-74"/>
<text text-anchor="start" x="1196" y="-80.8" font-family="Times,serif" font-size="14.00" fill="#000000">...</text>
<polygon fill="none" stroke="#000000" points="1218.5,-74 1218.5,-95 1252.5,-95 1252.5,-74 1218.5,-74"/>
<text text-anchor="start" x="1230.5" y="-80.8" font-family="Times,serif" font-size="14.00" fill="#000000">4</text>
<polygon fill="none" stroke="#000000" points="1252.5,-74 1252.5,-95 1382.5,-95 1382.5,-74 1252.5,-74"/>
<text text-anchor="start" x="1302" y="-80.8" font-family="Times,serif" font-size="14.00" fill="#000000">u4le</text>
<polygon fill="none" stroke="#000000" points="1382.5,-74 1382.5,-95 1494.5,-95 1494.5,-74 1382.5,-74"/>
<text text-anchor="start" x="1385.5" y="-80.8" font-family="Times,serif" font-size="14.00" fill="#000000">size_unpacked</text>
<polygon fill="none" stroke="#000000" points="1187.5,-53 1187.5,-74 1218.5,-74 1218.5,-53 1187.5,-53"/>
<text text-anchor="start" x="1196" y="-59.8" font-family="Times,serif" font-size="14.00" fill="#000000">...</text>
<polygon fill="none" stroke="#000000" points="1218.5,-53 1218.5,-74 1252.5,-74 1252.5,-53 1218.5,-53"/>
<text text-anchor="start" x="1230.5" y="-59.8" font-family="Times,serif" font-size="14.00" fill="#000000">4</text>
<polygon fill="none" stroke="#000000" points="1252.5,-53 1252.5,-74 1382.5,-74 1382.5,-53 1252.5,-53"/>
<text text-anchor="start" x="1302" y="-59.8" font-family="Times,serif" font-size="14.00" fill="#000000">u4le</text>
<polygon fill="none" stroke="#000000" points="1382.5,-53 1382.5,-74 1494.5,-74 1494.5,-53 1382.5,-53"/>
<text text-anchor="start" x="1394.5" y="-59.8" font-family="Times,serif" font-size="14.00" fill="#000000">size_packed</text>
<polygon fill="none" stroke="#000000" points="1187.5,-32 1187.5,-53 1218.5,-53 1218.5,-32 1187.5,-32"/>
<text text-anchor="start" x="1196" y="-38.8" font-family="Times,serif" font-size="14.00" fill="#000000">...</text>
<polygon fill="none" stroke="#000000" points="1218.5,-32 1218.5,-53 1252.5,-53 1252.5,-32 1218.5,-32"/>
<text text-anchor="start" x="1230.5" y="-38.8" font-family="Times,serif" font-size="14.00" fill="#000000">4</text>
<polygon fill="none" stroke="#000000" points="1252.5,-32 1252.5,-53 1382.5,-53 1382.5,-32 1252.5,-32"/>
<text text-anchor="start" x="1302" y="-38.8" font-family="Times,serif" font-size="14.00" fill="#000000">u4le</text>
<polygon fill="none" stroke="#000000" points="1382.5,-32 1382.5,-53 1494.5,-53 1494.5,-32 1382.5,-32"/>
<text text-anchor="start" x="1418" y="-38.8" font-family="Times,serif" font-size="14.00" fill="#000000">offset</text>
</g>
<!-- index__seq&#45;&gt;file__seq -->
<g id="edge5" class="edge">
<title>index__seq:files_type&#45;&gt;file__seq</title>
<path fill="none" stroke="#000000" stroke-width="2" d="M1135,-95C1146.0376,-95 1157.4087,-95 1168.8714,-95"/>
<polygon fill="#000000" stroke="#000000" stroke-width="2" points="1168.9623,-98.5001 1178.9622,-95 1168.9622,-91.5001 1168.9623,-98.5001"/>
</g>
<!-- file__seq&#45;&gt;pstr__seq -->
<g id="edge7" class="edge">
<title>file__seq:name_type&#45;&gt;pstr__seq</title>
<path fill="none" stroke="#000000" stroke-width="2" d="M1494.5,-127C1531.1289,-127 1508.9482,-174.6914 1538,-197 1552.7726,-208.3437 1570.2233,-217.0213 1588.0414,-223.6553"/>
<polygon fill="#000000" stroke="#000000" stroke-width="2" points="1587.3686,-227.1282 1597.9634,-227.1345 1589.6849,-220.5226 1587.3686,-227.1282"/>
</g>
<!-- file__inst__contents_raw -->
<g id="node8" class="node">
<title>file__inst__contents_raw</title>
<polygon fill="#e0ffe0" stroke="transparent" points="1546,-117 1546,-138 1593,-138 1593,-117 1546,-117"/>
<polygon fill="none" stroke="#000000" points="1546,-117 1546,-138 1593,-138 1593,-117 1546,-117"/>
<text text-anchor="start" x="1557" y="-123.8" font-family="Times,serif" font-size="14.00" fill="#000000">pos</text>
<polygon fill="#e0ffe0" stroke="transparent" points="1593,-117 1593,-138 1705,-138 1705,-117 1593,-117"/>
<polygon fill="none" stroke="#000000" points="1593,-117 1593,-138 1705,-138 1705,-117 1593,-117"/>
<text text-anchor="start" x="1635" y="-123.8" font-family="Times,serif" font-size="14.00" fill="#000000">size</text>
<polygon fill="#e0ffe0" stroke="transparent" points="1705,-117 1705,-138 1743,-138 1743,-117 1705,-117"/>
<polygon fill="none" stroke="#000000" points="1705,-117 1705,-138 1743,-138 1743,-117 1705,-117"/>
<text text-anchor="start" x="1708" y="-123.8" font-family="Times,serif" font-size="14.00" fill="#000000">type</text>
<polygon fill="#e0ffe0" stroke="transparent" points="1743,-117 1743,-138 1846,-138 1846,-117 1743,-117"/>
<polygon fill="none" stroke="#000000" points="1743,-117 1743,-138 1846,-138 1846,-117 1743,-117"/>
<text text-anchor="start" x="1787.5" y="-123.8" font-family="Times,serif" font-size="14.00" fill="#000000">id</text>
<polygon fill="none" stroke="#000000" points="1546,-96 1546,-117 1593,-117 1593,-96 1546,-96"/>
<text text-anchor="start" x="1549" y="-102.8" font-family="Times,serif" font-size="14.00" fill="#000000">offset</text>
<polygon fill="none" stroke="#000000" points="1593,-96 1593,-117 1705,-117 1705,-96 1593,-96"/>
<text text-anchor="start" x="1596" y="-102.8" font-family="Times,serif" font-size="14.00" fill="#000000">size_unpacked</text>
<polygon fill="none" stroke="#000000" points="1705,-96 1705,-117 1743,-117 1743,-96 1705,-96"/>
<polygon fill="none" stroke="#000000" points="1743,-96 1743,-117 1846,-117 1846,-96 1743,-96"/>
<text text-anchor="start" x="1746" y="-102.8" font-family="Times,serif" font-size="14.00" fill="#000000">contents_raw</text>
</g>
<!-- file__seq&#45;&gt;file__inst__contents_raw -->
<g id="edge8" class="edge">
<title>file__seq:offset_type&#45;&gt;file__inst__contents_raw:contents_raw_pos</title>
<path fill="none" stroke="#404040" d="M1494.5,-42C1527.0168,-42 1513.5032,-92.7656 1535.9509,-103.8706"/>
<polygon fill="#404040" stroke="#404040" points="1535.4917,-107.3509 1546,-106 1536.9428,-100.503 1535.4917,-107.3509"/>
</g>
<!-- file__seq&#45;&gt;file__inst__contents_raw -->
<g id="edge9" class="edge">
<title>file__seq:size_unpacked_type&#45;&gt;file__inst__contents_raw:contents_raw_size</title>
<path fill="none" stroke="#404040" d="M1494.5,-84C1509.1625,-84 1610.89,-80.2159 1640.7672,-89.7251"/>
<polygon fill="#404040" stroke="#404040" points="1638.9251,-92.7218 1649,-96 1643.1684,-87.1545 1638.9251,-92.7218"/>
</g>
<!-- file__inst__contents_zlib -->
<g id="node9" class="node">
<title>file__inst__contents_zlib</title>
<polygon fill="#e0ffe0" stroke="transparent" points="1556,-49 1556,-70 1603,-70 1603,-49 1556,-49"/>
<polygon fill="none" stroke="#000000" points="1556,-49 1556,-70 1603,-70 1603,-49 1556,-49"/>
<text text-anchor="start" x="1567" y="-55.8" font-family="Times,serif" font-size="14.00" fill="#000000">pos</text>
<polygon fill="#e0ffe0" stroke="transparent" points="1603,-49 1603,-70 1697,-70 1697,-49 1603,-49"/>
<polygon fill="none" stroke="#000000" points="1603,-49 1603,-70 1697,-70 1697,-49 1603,-49"/>
<text text-anchor="start" x="1636" y="-55.8" font-family="Times,serif" font-size="14.00" fill="#000000">size</text>
<polygon fill="#e0ffe0" stroke="transparent" points="1697,-49 1697,-70 1735,-70 1735,-49 1697,-49"/>
<polygon fill="none" stroke="#000000" points="1697,-49 1697,-70 1735,-70 1735,-49 1697,-49"/>
<text text-anchor="start" x="1700" y="-55.8" font-family="Times,serif" font-size="14.00" fill="#000000">type</text>
<polygon fill="#e0ffe0" stroke="transparent" points="1735,-49 1735,-70 1837,-70 1837,-49 1735,-49"/>
<polygon fill="none" stroke="#000000" points="1735,-49 1735,-70 1837,-70 1837,-49 1735,-49"/>
<text text-anchor="start" x="1779" y="-55.8" font-family="Times,serif" font-size="14.00" fill="#000000">id</text>
<polygon fill="none" stroke="#000000" points="1556,-28 1556,-49 1603,-49 1603,-28 1556,-28"/>
<text text-anchor="start" x="1559" y="-34.8" font-family="Times,serif" font-size="14.00" fill="#000000">offset</text>
<polygon fill="none" stroke="#000000" points="1603,-28 1603,-49 1697,-49 1697,-28 1603,-28"/>
<text text-anchor="start" x="1606" y="-34.8" font-family="Times,serif" font-size="14.00" fill="#000000">size_packed</text>
<polygon fill="none" stroke="#000000" points="1697,-28 1697,-49 1735,-49 1735,-28 1697,-28"/>
<polygon fill="none" stroke="#000000" points="1735,-28 1735,-49 1837,-49 1837,-28 1735,-28"/>
<text text-anchor="start" x="1738" y="-34.8" font-family="Times,serif" font-size="14.00" fill="#000000">contents_zlib</text>
</g>
<!-- file__seq&#45;&gt;file__inst__contents_zlib -->
<g id="edge10" class="edge">
<title>file__seq:offset_type&#45;&gt;file__inst__contents_zlib:contents_zlib_pos</title>
<path fill="none" stroke="#404040" d="M1494.5,-42C1518.1462,-42 1526.3856,-39.019 1545.819,-38.2039"/>
<polygon fill="#404040" stroke="#404040" points="1546.0721,-41.6996 1556,-38 1545.9319,-34.701 1546.0721,-41.6996"/>
</g>
<!-- file__seq&#45;&gt;file__inst__contents_zlib -->
<g id="edge11" class="edge">
<title>file__seq:size_packed_type&#45;&gt;file__inst__contents_zlib:contents_zlib_size</title>
<path fill="none" stroke="#404040" d="M1494.5,-63C1522.7283,-63 1520.4651,-36.1211 1547.5,-28 1587.3802,-16.0203 1639.9942,12.1212 1648.7427,-17.9217"/>
<polygon fill="#404040" stroke="#404040" points="1645.2889,-18.5102 1650,-28 1652.2351,-17.6436 1645.2889,-18.5102"/>
</g>
<!-- file__inst__contents -->
<g id="node10" class="node">
<title>file__inst__contents</title>
<polygon fill="#e0ffe0" stroke="transparent" points="1898,-106 1898,-127 1967,-127 1967,-106 1898,-106"/>
<polygon fill="none" stroke="#000000" points="1898,-106 1898,-127 1967,-127 1967,-106 1898,-106"/>
<text text-anchor="start" x="1925.5" y="-112.8" font-family="Times,serif" font-size="14.00" fill="#000000">id</text>
<polygon fill="#e0ffe0" stroke="transparent" points="1967,-106 1967,-127 2402,-127 2402,-106 1967,-106"/>
<polygon fill="none" stroke="#000000" points="1967,-106 1967,-127 2402,-127 2402,-106 1967,-106"/>
<text text-anchor="start" x="2165" y="-112.8" font-family="Times,serif" font-size="14.00" fill="#000000">value</text>
<polygon fill="none" stroke="#000000" points="1898,-85 1898,-106 1967,-106 1967,-85 1898,-85"/>
<text text-anchor="start" x="1901" y="-91.8" font-family="Times,serif" font-size="14.00" fill="#000000">contents</text>
<polygon fill="none" stroke="#000000" points="1967,-85 1967,-106 2402,-106 2402,-85 1967,-85"/>
<text text-anchor="start" x="1970" y="-91.8" font-family="Times,serif" font-size="14.00" fill="#000000">(flags == :compression_zlib ? contents_zlib : contents_raw)</text>
</g>
<!-- file__seq&#45;&gt;file__inst__contents -->
<g id="edge12" class="edge">
<title>file__seq:flags_type&#45;&gt;file__inst__contents</title>
<path fill="none" stroke="#404040" d="M1494.5,-106C1522.3169,-106 1512.3917,-140.1376 1538,-151 1667.2937,-205.8433 1713.955,-161.5845 1854,-151 1903.1154,-147.2879 1956.4266,-140.1582 2004.0978,-132.6497"/>
<polygon fill="#404040" stroke="#404040" points="2004.8567,-136.073 2014.1812,-131.0428 2003.755,-129.1602 2004.8567,-136.073"/>
</g>
<!-- file__inst__contents_raw&#45;&gt;file__inst__contents -->
<g id="edge14" class="edge">
<title>file__inst__contents_raw:contents_raw_type&#45;&gt;file__inst__contents</title>
<path fill="none" stroke="#404040" d="M1846,-106C1857.0215,-106 1868.2677,-106 1879.6287,-106"/>
<polygon fill="#404040" stroke="#404040" points="1879.6395,-109.5001 1889.6394,-106 1879.6394,-102.5001 1879.6395,-109.5001"/>
</g>
<!-- file__inst__contents_zlib&#45;&gt;file__inst__contents -->
<g id="edge13" class="edge">
<title>file__inst__contents_zlib:contents_zlib_type&#45;&gt;file__inst__contents</title>
<path fill="none" stroke="#404040" d="M1837,-38C1916.572,-38 2004.9821,-59.246 2067.4885,-77.9864"/>
<polygon fill="#404040" stroke="#404040" points="2066.7069,-81.407 2077.2926,-80.969 2068.7442,-74.71 2066.7069,-81.407"/>
</g>
</g>
</svg>
