<?xml version="1.0" encoding="UTF-8" standalone="no"?>
<!DOCTYPE svg PUBLIC "-//W3C//DTD SVG 1.1//EN"
 "http://www.w3.org/Graphics/SVG/1.1/DTD/svg11.dtd">
<!-- Generated by graphviz version 2.40.1 (20161225.0304)
 -->
<!-- Title: %3 Pages: 1 -->
<svg width="2008pt" height="377pt"
 viewBox="0.00 0.00 2008.00 377.00" xmlns="http://www.w3.org/2000/svg" xmlns:xlink="http://www.w3.org/1999/xlink">
<g id="graph0" class="graph" transform="scale(1 1) rotate(0) translate(4 373)">
<title>%3</title>
<polygon fill="#ffffff" stroke="transparent" points="-4,4 -4,-373 2004,-373 2004,4 -4,4"/>
<g id="clust1" class="cluster">
<title>cluster__fallout2_dat</title>
<polygon fill="none" stroke="#000000" stroke-dasharray="1,5" points="8,-8 8,-361 1992,-361 1992,-8 8,-8"/>
<text text-anchor="middle" x="1000" y="-345.8" font-family="Times,serif" font-size="14.00" fill="#000000">Fallout2Dat</text>
</g>
<g id="clust2" class="cluster">
<title>cluster__pstr</title>
<polygon fill="none" stroke="#000000" stroke-dasharray="1,5" points="1325.5,-201 1325.5,-330 1502.5,-330 1502.5,-201 1325.5,-201"/>
<text text-anchor="middle" x="1414" y="-314.8" font-family="Times,serif" font-size="14.00" fill="#000000">Fallout2Dat::Pstr</text>
</g>
<g id="clust3" class="cluster">
<title>cluster__footer</title>
<polygon fill="none" stroke="#000000" stroke-dasharray="1,5" points="245,-63 245,-174 424,-174 424,-63 245,-63"/>
<text text-anchor="middle" x="334.5" y="-158.8" font-family="Times,serif" font-size="14.00" fill="#000000">Fallout2Dat::Footer</text>
</g>
<g id="clust4" class="cluster">
<title>cluster__index</title>
<polygon fill="none" stroke="#000000" stroke-dasharray="1,5" points="789,-52 789,-183 965,-183 965,-52 789,-52"/>
<text text-anchor="middle" x="877" y="-167.8" font-family="Times,serif" font-size="14.00" fill="#000000">Fallout2Dat::Index</text>
</g>
<g id="clust5" class="cluster">
<title>cluster__file</title>
<polygon fill="none" stroke="#000000" stroke-dasharray="1,5" points="985,-16 985,-193 1984,-193 1984,-16 985,-16"/>
<text text-anchor="middle" x="1484.5" y="-177.8" font-family="Times,serif" font-size="14.00" fill="#000000">Fallout2Dat::File</text>
</g>
<!-- fallout2_dat__seq -->
<g id="node1" class="node">
<title>fallout2_dat__seq</title>
<polygon fill="#e0ffe0" stroke="transparent" points="66.5,-234 66.5,-255 91.5,-255 91.5,-234 66.5,-234"/>
<polygon fill="none" stroke="#000000" points="66.5,-234 66.5,-255 91.5,-255 91.5,-234 66.5,-234"/>
<text text-anchor="start" x="69.5" y="-240.8" font-family="Times,serif" font-size="14.00" fill="#000000">pos</text>
<polygon fill="#e0ffe0" stroke="transparent" points="91.5,-234 91.5,-255 119.5,-255 119.5,-234 91.5,-234"/>
<polygon fill="none" stroke="#000000" points="91.5,-234 91.5,-255 119.5,-255 119.5,-234 91.5,-234"/>
<text text-anchor="start" x="94.5" y="-240.8" font-family="Times,serif" font-size="14.00" fill="#000000">size</text>
<polygon fill="#e0ffe0" stroke="transparent" points="119.5,-234 119.5,-255 149.5,-255 149.5,-234 119.5,-234"/>
<polygon fill="none" stroke="#000000" points="119.5,-234 119.5,-255 149.5,-255 149.5,-234 119.5,-234"/>
<text text-anchor="start" x="122.5" y="-240.8" font-family="Times,serif" font-size="14.00" fill="#000000">type</text>
<polygon fill="#e0ffe0" stroke="transparent" points="149.5,-234 149.5,-255 166.5,-255 166.5,-234 149.5,-234"/>
<polygon fill="none" stroke="#000000" points="149.5,-234 149.5,-255 166.5,-255 166.5,-234 149.5,-234"/>
<text text-anchor="start" x="152.5" y="-240.8" font-family="Times,serif" font-size="14.00" fill="#000000">id</text>
</g>
<!-- fallout2_dat__inst__footer -->
<g id="node2" class="node">
<title>fallout2_dat__inst__footer</title>
<polygon fill="#e0ffe0" stroke="transparent" points="24.5,-118 24.5,-139 100.5,-139 100.5,-118 24.5,-118"/>
<polygon fill="none" stroke="#000000" points="24.5,-118 24.5,-139 100.5,-139 100.5,-118 24.5,-118"/>
<text text-anchor="start" x="53" y="-124.8" font-family="Times,serif" font-size="14.00" fill="#000000">pos</text>
<polygon fill="#e0ffe0" stroke="transparent" points="100.5,-118 100.5,-139 128.5,-139 128.5,-118 100.5,-118"/>
<polygon fill="none" stroke="#000000" points="100.5,-118 100.5,-139 128.5,-139 128.5,-118 100.5,-118"/>
<text text-anchor="start" x="103.5" y="-124.8" font-family="Times,serif" font-size="14.00" fill="#000000">size</text>
<polygon fill="#e0ffe0" stroke="transparent" points="128.5,-118 128.5,-139 170.5,-139 170.5,-118 128.5,-118"/>
<polygon fill="none" stroke="#000000" points="128.5,-118 128.5,-139 170.5,-139 170.5,-118 128.5,-118"/>
<text text-anchor="start" x="137.5" y="-124.8" font-family="Times,serif" font-size="14.00" fill="#000000">type</text>
<polygon fill="#e0ffe0" stroke="transparent" points="170.5,-118 170.5,-139 209.5,-139 209.5,-118 170.5,-118"/>
<polygon fill="none" stroke="#000000" points="170.5,-118 170.5,-139 209.5,-139 209.5,-118 170.5,-118"/>
<text text-anchor="start" x="184.5" y="-124.8" font-family="Times,serif" font-size="14.00" fill="#000000">id</text>
<polygon fill="none" stroke="#000000" points="24.5,-97 24.5,-118 100.5,-118 100.5,-97 24.5,-97"/>
<text text-anchor="start" x="27.5" y="-103.8" font-family="Times,serif" font-size="14.00" fill="#000000">(_io.size &#45; 8)</text>
<polygon fill="none" stroke="#000000" points="100.5,-97 100.5,-118 128.5,-118 128.5,-97 100.5,-97"/>
<text text-anchor="start" x="111" y="-103.8" font-family="Times,serif" font-size="14.00" fill="#000000">8</text>
<polygon fill="none" stroke="#000000" points="128.5,-97 128.5,-118 170.5,-118 170.5,-97 128.5,-97"/>
<text text-anchor="start" x="131.5" y="-103.8" font-family="Times,serif" font-size="14.00" fill="#000000">Footer</text>
<polygon fill="none" stroke="#000000" points="170.5,-97 170.5,-118 209.5,-118 209.5,-97 170.5,-97"/>
<text text-anchor="start" x="173.5" y="-103.8" font-family="Times,serif" font-size="14.00" fill="#000000">footer</text>
</g>
<!-- footer__seq -->
<g id="node5" class="node">
<title>footer__seq</title>
<polygon fill="#e0ffe0" stroke="transparent" points="261.5,-117 261.5,-138 286.5,-138 286.5,-117 261.5,-117"/>
<polygon fill="none" stroke="#000000" points="261.5,-117 261.5,-138 286.5,-138 286.5,-117 261.5,-117"/>
<text text-anchor="start" x="264.5" y="-123.8" font-family="Times,serif" font-size="14.00" fill="#000000">pos</text>
<polygon fill="#e0ffe0" stroke="transparent" points="286.5,-117 286.5,-138 314.5,-138 314.5,-117 286.5,-117"/>
<polygon fill="none" stroke="#000000" points="286.5,-117 286.5,-138 314.5,-138 314.5,-117 286.5,-117"/>
<text text-anchor="start" x="289.5" y="-123.8" font-family="Times,serif" font-size="14.00" fill="#000000">size</text>
<polygon fill="#e0ffe0" stroke="transparent" points="314.5,-117 314.5,-138 344.5,-138 344.5,-117 314.5,-117"/>
<polygon fill="none" stroke="#000000" points="314.5,-117 314.5,-138 344.5,-138 344.5,-117 314.5,-117"/>
<text text-anchor="start" x="317.5" y="-123.8" font-family="Times,serif" font-size="14.00" fill="#000000">type</text>
<polygon fill="#e0ffe0" stroke="transparent" points="344.5,-117 344.5,-138 408.5,-138 408.5,-117 344.5,-117"/>
<polygon fill="none" stroke="#000000" points="344.5,-117 344.5,-138 408.5,-138 408.5,-117 344.5,-117"/>
<text text-anchor="start" x="371" y="-123.8" font-family="Times,serif" font-size="14.00" fill="#000000">id</text>
<polygon fill="none" stroke="#000000" points="261.5,-96 261.5,-117 286.5,-117 286.5,-96 261.5,-96"/>
<text text-anchor="start" x="270.5" y="-102.8" font-family="Times,serif" font-size="14.00" fill="#000000">0</text>
<polygon fill="none" stroke="#000000" points="286.5,-96 286.5,-117 314.5,-117 314.5,-96 286.5,-96"/>
<text text-anchor="start" x="297" y="-102.8" font-family="Times,serif" font-size="14.00" fill="#000000">4</text>
<polygon fill="none" stroke="#000000" points="314.5,-96 314.5,-117 344.5,-117 344.5,-96 314.5,-96"/>
<text text-anchor="start" x="317.5" y="-102.8" font-family="Times,serif" font-size="14.00" fill="#000000">u4le</text>
<polygon fill="none" stroke="#000000" points="344.5,-96 344.5,-117 408.5,-117 408.5,-96 344.5,-96"/>
<text text-anchor="start" x="347.5" y="-102.8" font-family="Times,serif" font-size="14.00" fill="#000000">index_size</text>
<polygon fill="none" stroke="#000000" points="261.5,-75 261.5,-96 286.5,-96 286.5,-75 261.5,-75"/>
<text text-anchor="start" x="270.5" y="-81.8" font-family="Times,serif" font-size="14.00" fill="#000000">4</text>
<polygon fill="none" stroke="#000000" points="286.5,-75 286.5,-96 314.5,-96 314.5,-75 286.5,-75"/>
<text text-anchor="start" x="297" y="-81.8" font-family="Times,serif" font-size="14.00" fill="#000000">4</text>
<polygon fill="none" stroke="#000000" points="314.5,-75 314.5,-96 344.5,-96 344.5,-75 314.5,-75"/>
<text text-anchor="start" x="317.5" y="-81.8" font-family="Times,serif" font-size="14.00" fill="#000000">u4le</text>
<polygon fill="none" stroke="#000000" points="344.5,-75 344.5,-96 408.5,-96 408.5,-75 344.5,-75"/>
<text text-anchor="start" x="353.5" y="-81.8" font-family="Times,serif" font-size="14.00" fill="#000000">file_size</text>
</g>
<!-- fallout2_dat__inst__footer&#45;&gt;footer__seq -->
<g id="edge1" class="edge">
<title>fallout2_dat__inst__footer:footer_type&#45;&gt;footer__seq</title>
<path fill="none" stroke="#000000" stroke-width="2" d="M209.5,-107C220.2168,-107 231.4503,-107 242.6026,-107"/>
<polygon fill="#000000" stroke="#000000" stroke-width="2" points="242.8044,-110.5001 252.8044,-107 242.8043,-103.5001 242.8044,-110.5001"/>
</g>
<!-- fallout2_dat__inst__index -->
<g id="node3" class="node">
<title>fallout2_dat__inst__index</title>
<polygon fill="#e0ffe0" stroke="transparent" points="460.5,-117 460.5,-138 651.5,-138 651.5,-117 460.5,-117"/>
<polygon fill="none" stroke="#000000" points="460.5,-117 460.5,-138 651.5,-138 651.5,-117 460.5,-117"/>
<text text-anchor="start" x="546.5" y="-123.8" font-family="Times,serif" font-size="14.00" fill="#000000">pos</text>
<polygon fill="#e0ffe0" stroke="transparent" points="651.5,-117 651.5,-138 679.5,-138 679.5,-117 651.5,-117"/>
<polygon fill="none" stroke="#000000" points="651.5,-117 651.5,-138 679.5,-138 679.5,-117 651.5,-117"/>
<text text-anchor="start" x="654.5" y="-123.8" font-family="Times,serif" font-size="14.00" fill="#000000">size</text>
<polygon fill="#e0ffe0" stroke="transparent" points="679.5,-117 679.5,-138 716.5,-138 716.5,-117 679.5,-117"/>
<polygon fill="none" stroke="#000000" points="679.5,-117 679.5,-138 716.5,-138 716.5,-117 679.5,-117"/>
<text text-anchor="start" x="686" y="-123.8" font-family="Times,serif" font-size="14.00" fill="#000000">type</text>
<polygon fill="#e0ffe0" stroke="transparent" points="716.5,-117 716.5,-138 753.5,-138 753.5,-117 716.5,-117"/>
<polygon fill="none" stroke="#000000" points="716.5,-117 716.5,-138 753.5,-138 753.5,-117 716.5,-117"/>
<text text-anchor="start" x="729.5" y="-123.8" font-family="Times,serif" font-size="14.00" fill="#000000">id</text>
<polygon fill="none" stroke="#000000" points="460.5,-96 460.5,-117 651.5,-117 651.5,-96 460.5,-96"/>
<text text-anchor="start" x="463.5" y="-102.8" font-family="Times,serif" font-size="14.00" fill="#000000">((_io.size &#45; 8) &#45; footer.index_size)</text>
<polygon fill="none" stroke="#000000" points="651.5,-96 651.5,-117 679.5,-117 679.5,-96 651.5,-96"/>
<text text-anchor="start" x="659.5" y="-102.8" font-family="Times,serif" font-size="14.00" fill="#000000">...</text>
<polygon fill="none" stroke="#000000" points="679.5,-96 679.5,-117 716.5,-117 716.5,-96 679.5,-96"/>
<text text-anchor="start" x="682.5" y="-102.8" font-family="Times,serif" font-size="14.00" fill="#000000">Index</text>
<polygon fill="none" stroke="#000000" points="716.5,-96 716.5,-117 753.5,-117 753.5,-96 716.5,-96"/>
<text text-anchor="start" x="719.5" y="-102.8" font-family="Times,serif" font-size="14.00" fill="#000000">index</text>
</g>
<!-- index__seq -->
<g id="node6" class="node">
<title>index__seq</title>
<polygon fill="#e0ffe0" stroke="transparent" points="805,-127 805,-148 830,-148 830,-127 805,-127"/>
<polygon fill="none" stroke="#000000" points="805,-127 805,-148 830,-148 830,-127 805,-127"/>
<text text-anchor="start" x="808" y="-133.8" font-family="Times,serif" font-size="14.00" fill="#000000">pos</text>
<polygon fill="#e0ffe0" stroke="transparent" points="830,-127 830,-148 858,-148 858,-127 830,-127"/>
<polygon fill="none" stroke="#000000" points="830,-127 830,-148 858,-148 858,-127 830,-127"/>
<text text-anchor="start" x="833" y="-133.8" font-family="Times,serif" font-size="14.00" fill="#000000">size</text>
<polygon fill="#e0ffe0" stroke="transparent" points="858,-127 858,-148 888,-148 888,-127 858,-127"/>
<polygon fill="none" stroke="#000000" points="858,-127 858,-148 888,-148 888,-127 858,-127"/>
<text text-anchor="start" x="861" y="-133.8" font-family="Times,serif" font-size="14.00" fill="#000000">type</text>
<polygon fill="#e0ffe0" stroke="transparent" points="888,-127 888,-148 949,-148 949,-127 888,-127"/>
<polygon fill="none" stroke="#000000" points="888,-127 888,-148 949,-148 949,-127 888,-127"/>
<text text-anchor="start" x="913" y="-133.8" font-family="Times,serif" font-size="14.00" fill="#000000">id</text>
<polygon fill="none" stroke="#000000" points="805,-106 805,-127 830,-127 830,-106 805,-106"/>
<text text-anchor="start" x="814" y="-112.8" font-family="Times,serif" font-size="14.00" fill="#000000">0</text>
<polygon fill="none" stroke="#000000" points="830,-106 830,-127 858,-127 858,-106 830,-106"/>
<text text-anchor="start" x="840.5" y="-112.8" font-family="Times,serif" font-size="14.00" fill="#000000">4</text>
<polygon fill="none" stroke="#000000" points="858,-106 858,-127 888,-127 888,-106 858,-106"/>
<text text-anchor="start" x="861" y="-112.8" font-family="Times,serif" font-size="14.00" fill="#000000">u4le</text>
<polygon fill="none" stroke="#000000" points="888,-106 888,-127 949,-127 949,-106 888,-106"/>
<text text-anchor="start" x="891" y="-112.8" font-family="Times,serif" font-size="14.00" fill="#000000">file_count</text>
<polygon fill="none" stroke="#000000" points="805,-85 805,-106 830,-106 830,-85 805,-85"/>
<text text-anchor="start" x="814" y="-91.8" font-family="Times,serif" font-size="14.00" fill="#000000">4</text>
<polygon fill="none" stroke="#000000" points="830,-85 830,-106 858,-106 858,-85 830,-85"/>
<text text-anchor="start" x="838" y="-91.8" font-family="Times,serif" font-size="14.00" fill="#000000">...</text>
<polygon fill="none" stroke="#000000" points="858,-85 858,-106 888,-106 888,-85 858,-85"/>
<text text-anchor="start" x="862" y="-91.8" font-family="Times,serif" font-size="14.00" fill="#000000">File</text>
<polygon fill="none" stroke="#000000" points="888,-85 888,-106 949,-106 949,-85 888,-85"/>
<text text-anchor="start" x="906.5" y="-91.8" font-family="Times,serif" font-size="14.00" fill="#000000">files</text>
<polygon fill="none" stroke="#000000" points="805,-64 805,-85 949,-85 949,-64 805,-64"/>
<text text-anchor="start" x="814" y="-70.8" font-family="Times,serif" font-size="14.00" fill="#000000">repeat file_count times</text>
</g>
<!-- fallout2_dat__inst__index&#45;&gt;index__seq -->
<g id="edge3" class="edge">
<title>fallout2_dat__inst__index:index_type&#45;&gt;index__seq</title>
<path fill="none" stroke="#000000" stroke-width="2" d="M753.5,-106C764.2523,-106 775.5312,-106 786.7177,-106"/>
<polygon fill="#000000" stroke="#000000" stroke-width="2" points="786.9474,-109.5001 796.9474,-106 786.9474,-102.5001 786.9474,-109.5001"/>
</g>
<!-- pstr__seq -->
<g id="node4" class="node">
<title>pstr__seq</title>
<polygon fill="#e0ffe0" stroke="transparent" points="1342,-255 1342,-276 1367,-276 1367,-255 1342,-255"/>
<polygon fill="none" stroke="#000000" points="1342,-255 1342,-276 1367,-276 1367,-255 1342,-255"/>
<text text-anchor="start" x="1345" y="-261.8" font-family="Times,serif" font-size="14.00" fill="#000000">pos</text>
<polygon fill="#e0ffe0" stroke="transparent" points="1367,-255 1367,-276 1395,-276 1395,-255 1367,-255"/>
<polygon fill="none" stroke="#000000" points="1367,-255 1367,-276 1395,-276 1395,-255 1367,-255"/>
<text text-anchor="start" x="1370" y="-261.8" font-family="Times,serif" font-size="14.00" fill="#000000">size</text>
<polygon fill="#e0ffe0" stroke="transparent" points="1395,-255 1395,-276 1459,-276 1459,-255 1395,-255"/>
<polygon fill="none" stroke="#000000" points="1395,-255 1395,-276 1459,-276 1459,-255 1395,-255"/>
<text text-anchor="start" x="1415" y="-261.8" font-family="Times,serif" font-size="14.00" fill="#000000">type</text>
<polygon fill="#e0ffe0" stroke="transparent" points="1459,-255 1459,-276 1487,-276 1487,-255 1459,-255"/>
<polygon fill="none" stroke="#000000" points="1459,-255 1459,-276 1487,-276 1487,-255 1459,-255"/>
<text text-anchor="start" x="1467.5" y="-261.8" font-family="Times,serif" font-size="14.00" fill="#000000">id</text>
<polygon fill="none" stroke="#000000" points="1342,-234 1342,-255 1367,-255 1367,-234 1342,-234"/>
<text text-anchor="start" x="1351" y="-240.8" font-family="Times,serif" font-size="14.00" fill="#000000">0</text>
<polygon fill="none" stroke="#000000" points="1367,-234 1367,-255 1395,-255 1395,-234 1367,-234"/>
<text text-anchor="start" x="1377.5" y="-240.8" font-family="Times,serif" font-size="14.00" fill="#000000">4</text>
<polygon fill="none" stroke="#000000" points="1395,-234 1395,-255 1459,-255 1459,-234 1395,-234"/>
<text text-anchor="start" x="1415" y="-240.8" font-family="Times,serif" font-size="14.00" fill="#000000">u4le</text>
<polygon fill="none" stroke="#000000" points="1459,-234 1459,-255 1487,-255 1487,-234 1459,-234"/>
<text text-anchor="start" x="1462" y="-240.8" font-family="Times,serif" font-size="14.00" fill="#000000">size</text>
<polygon fill="none" stroke="#000000" points="1342,-213 1342,-234 1367,-234 1367,-213 1342,-213"/>
<text text-anchor="start" x="1351" y="-219.8" font-family="Times,serif" font-size="14.00" fill="#000000">4</text>
<polygon fill="none" stroke="#000000" points="1367,-213 1367,-234 1395,-234 1395,-213 1367,-213"/>
<text text-anchor="start" x="1370" y="-219.8" font-family="Times,serif" font-size="14.00" fill="#000000">size</text>
<polygon fill="none" stroke="#000000" points="1395,-213 1395,-234 1459,-234 1459,-213 1395,-213"/>
<text text-anchor="start" x="1398" y="-219.8" font-family="Times,serif" font-size="14.00" fill="#000000">str(ASCII)</text>
<polygon fill="none" stroke="#000000" points="1459,-213 1459,-234 1487,-234 1487,-213 1459,-213"/>
<text text-anchor="start" x="1466" y="-219.8" font-family="Times,serif" font-size="14.00" fill="#000000">str</text>
</g>
<!-- pstr__seq&#45;&gt;pstr__seq -->
<g id="edge4" class="edge">
<title>pstr__seq:size_type&#45;&gt;pstr__seq:str_size</title>
<path fill="none" stroke="#404040" d="M1487.2017,-248.0218C1544.9142,-266.8083 1537.168,-298.5 1427,-298.5 1323.2872,-298.5 1310.3452,-254.3274 1357.3352,-231.3474"/>
<polygon fill="#404040" stroke="#404040" points="1358.9685,-234.4561 1366.7983,-227.3186 1356.2264,-228.0155 1358.9685,-234.4561"/>
</g>
<!-- footer__seq&#45;&gt;fallout2_dat__inst__index -->
<g id="edge2" class="edge">
<title>footer__seq:index_size_type&#45;&gt;fallout2_dat__inst__index:index_pos</title>
<path fill="none" stroke="#404040" d="M408.5,-106C427.8194,-106 435.0265,-106 450.3716,-106"/>
<polygon fill="#404040" stroke="#404040" points="450.5,-109.5001 460.5,-106 450.5,-102.5001 450.5,-109.5001"/>
</g>
<!-- index__seq&#45;&gt;index__seq -->
<g id="edge6" class="edge">
<title>index__seq:file_count_type&#45;&gt;index__seq:files__repeat</title>
<path fill="none" stroke="#404040" d="M887.9799,-119.9858C808.5613,-125.4932 674,-122.0684 674,-95.5 674,-75.1009 734.5376,-68.3452 794.8795,-68.8005"/>
<polygon fill="#404040" stroke="#404040" points="794.8965,-72.301 804.9449,-68.9424 794.9953,-65.3017 794.8965,-72.301"/>
</g>
<!-- file__seq -->
<g id="node7" class="node">
<title>file__seq</title>
<polygon fill="#e0ffe0" stroke="transparent" points="1001.5,-137 1001.5,-158 1026.5,-158 1026.5,-137 1001.5,-137"/>
<polygon fill="none" stroke="#000000" points="1001.5,-137 1001.5,-158 1026.5,-158 1026.5,-137 1001.5,-137"/>
<text text-anchor="start" x="1004.5" y="-143.8" font-family="Times,serif" font-size="14.00" fill="#000000">pos</text>
<polygon fill="#e0ffe0" stroke="transparent" points="1026.5,-137 1026.5,-158 1054.5,-158 1054.5,-137 1026.5,-137"/>
<polygon fill="none" stroke="#000000" points="1026.5,-137 1026.5,-158 1054.5,-158 1054.5,-137 1026.5,-137"/>
<text text-anchor="start" x="1029.5" y="-143.8" font-family="Times,serif" font-size="14.00" fill="#000000">size</text>
<polygon fill="#e0ffe0" stroke="transparent" points="1054.5,-137 1054.5,-158 1160.5,-158 1160.5,-137 1054.5,-137"/>
<polygon fill="none" stroke="#000000" points="1054.5,-137 1054.5,-158 1160.5,-158 1160.5,-137 1054.5,-137"/>
<text text-anchor="start" x="1095.5" y="-143.8" font-family="Times,serif" font-size="14.00" fill="#000000">type</text>
<polygon fill="#e0ffe0" stroke="transparent" points="1160.5,-137 1160.5,-158 1246.5,-158 1246.5,-137 1160.5,-137"/>
<polygon fill="none" stroke="#000000" points="1160.5,-137 1160.5,-158 1246.5,-158 1246.5,-137 1160.5,-137"/>
<text text-anchor="start" x="1198" y="-143.8" font-family="Times,serif" font-size="14.00" fill="#000000">id</text>
<polygon fill="none" stroke="#000000" points="1001.5,-116 1001.5,-137 1026.5,-137 1026.5,-116 1001.5,-116"/>
<text text-anchor="start" x="1010.5" y="-122.8" font-family="Times,serif" font-size="14.00" fill="#000000">0</text>
<polygon fill="none" stroke="#000000" points="1026.5,-116 1026.5,-137 1054.5,-137 1054.5,-116 1026.5,-116"/>
<text text-anchor="start" x="1034.5" y="-122.8" font-family="Times,serif" font-size="14.00" fill="#000000">...</text>
<polygon fill="none" stroke="#000000" points="1054.5,-116 1054.5,-137 1160.5,-137 1160.5,-116 1054.5,-116"/>
<text text-anchor="start" x="1096.5" y="-122.8" font-family="Times,serif" font-size="14.00" fill="#000000">Pstr</text>
<polygon fill="none" stroke="#000000" points="1160.5,-116 1160.5,-137 1246.5,-137 1246.5,-116 1160.5,-116"/>
<text text-anchor="start" x="1188" y="-122.8" font-family="Times,serif" font-size="14.00" fill="#000000">name</text>
<polygon fill="none" stroke="#000000" points="1001.5,-95 1001.5,-116 1026.5,-116 1026.5,-95 1001.5,-95"/>
<text text-anchor="start" x="1008" y="-101.8" font-family="Times,serif" font-size="14.00" fill="#000000">...</text>
<polygon fill="none" stroke="#000000" points="1026.5,-95 1026.5,-116 1054.5,-116 1054.5,-95 1026.5,-95"/>
<text text-anchor="start" x="1037" y="-101.8" font-family="Times,serif" font-size="14.00" fill="#000000">1</text>
<polygon fill="none" stroke="#000000" points="1054.5,-95 1054.5,-116 1160.5,-116 1160.5,-95 1054.5,-95"/>
<text text-anchor="start" x="1057.5" y="-101.8" font-family="Times,serif" font-size="14.00" fill="#000000">u1→Compression</text>
<polygon fill="none" stroke="#000000" points="1160.5,-95 1160.5,-116 1246.5,-116 1246.5,-95 1160.5,-95"/>
<text text-anchor="start" x="1190" y="-101.8" font-family="Times,serif" font-size="14.00" fill="#000000">flags</text>
<polygon fill="none" stroke="#000000" points="1001.5,-74 1001.5,-95 1026.5,-95 1026.5,-74 1001.5,-74"/>
<text text-anchor="start" x="1008" y="-80.8" font-family="Times,serif" font-size="14.00" fill="#000000">...</text>
<polygon fill="none" stroke="#000000" points="1026.5,-74 1026.5,-95 1054.5,-95 1054.5,-74 1026.5,-74"/>
<text text-anchor="start" x="1037" y="-80.8" font-family="Times,serif" font-size="14.00" fill="#000000">4</text>
<polygon fill="none" stroke="#000000" points="1054.5,-74 1054.5,-95 1160.5,-95 1160.5,-74 1054.5,-74"/>
<text text-anchor="start" x="1095.5" y="-80.8" font-family="Times,serif" font-size="14.00" fill="#000000">u4le</text>
<polygon fill="none" stroke="#000000" points="1160.5,-74 1160.5,-95 1246.5,-95 1246.5,-74 1160.5,-74"/>
<text text-anchor="start" x="1163.5" y="-80.8" font-family="Times,serif" font-size="14.00" fill="#000000">size_unpacked</text>
<polygon fill="none" stroke="#000000" points="1001.5,-53 1001.5,-74 1026.5,-74 1026.5,-53 1001.5,-53"/>
<text text-anchor="start" x="1008" y="-59.8" font-family="Times,serif" font-size="14.00" fill="#000000">...</text>
<polygon fill="none" stroke="#000000" points="1026.5,-53 1026.5,-74 1054.5,-74 1054.5,-53 1026.5,-53"/>
<text text-anchor="start" x="1037" y="-59.8" font-family="Times,serif" font-size="14.00" fill="#000000">4</text>
<polygon fill="none" stroke="#000000" points="1054.5,-53 1054.5,-74 1160.5,-74 1160.5,-53 1054.5,-53"/>
<text text-anchor="start" x="1095.5" y="-59.8" font-family="Times,serif" font-size="14.00" fill="#000000">u4le</text>
<polygon fill="none" stroke="#000000" points="1160.5,-53 1160.5,-74 1246.5,-74 1246.5,-53 1160.5,-53"/>
<text text-anchor="start" x="1170" y="-59.8" font-family="Times,serif" font-size="14.00" fill="#000000">size_packed</text>
<polygon fill="none" stroke="#000000" points="1001.5,-32 1001.5,-53 1026.5,-53 1026.5,-32 1001.5,-32"/>
<text text-anchor="start" x="1008" y="-38.8" font-family="Times,serif" font-size="14.00" fill="#000000">...</text>
<polygon fill="none" stroke="#000000" points="1026.5,-32 1026.5,-53 1054.5,-53 1054.5,-32 1026.5,-32"/>
<text text-anchor="start" x="1037" y="-38.8" font-family="Times,serif" font-size="14.00" fill="#000000">4</text>
<polygon fill="none" stroke="#000000" points="1054.5,-32 1054.5,-53 1160.5,-53 1160.5,-32 1054.5,-32"/>
<text text-anchor="start" x="1095.5" y="-38.8" font-family="Times,serif" font-size="14.00" fill="#000000">u4le</text>
<polygon fill="none" stroke="#000000" points="1160.5,-32 1160.5,-53 1246.5,-53 1246.5,-32 1160.5,-32"/>
<text text-anchor="start" x="1188" y="-38.8" font-family="Times,serif" font-size="14.00" fill="#000000">offset</text>
</g>
<!-- index__seq&#45;&gt;file__seq -->
<g id="edge5" class="edge">
<title>index__seq:files_type&#45;&gt;file__seq</title>
<path fill="none" stroke="#000000" stroke-width="2" d="M949,-95C960.0128,-95 971.4165,-95 982.878,-95"/>
<polygon fill="#000000" stroke="#000000" stroke-width="2" points="982.9569,-98.5001 992.9568,-95 982.9568,-91.5001 982.9569,-98.5001"/>
</g>
<!-- file__seq&#45;&gt;pstr__seq -->
<g id="edge7" class="edge">
<title>file__seq:name_type&#45;&gt;pstr__seq</title>
<path fill="none" stroke="#000000" stroke-width="2" d="M1246.5,-127C1283.1289,-127 1261.798,-173.6264 1290,-197 1300.1268,-205.393 1311.8882,-212.4277 1324.0549,-218.293"/>
<polygon fill="#000000" stroke="#000000" stroke-width="2" points="1322.866,-221.5972 1333.4176,-222.5534 1325.7653,-215.2258 1322.866,-221.5972"/>
</g>
<!-- file__inst__contents_raw -->
<g id="node8" class="node">
<title>file__inst__contents_raw</title>
<polygon fill="#e0ffe0" stroke="transparent" points="1298,-117 1298,-138 1335,-138 1335,-117 1298,-117"/>
<polygon fill="none" stroke="#000000" points="1298,-117 1298,-138 1335,-138 1335,-117 1298,-117"/>
<text text-anchor="start" x="1307" y="-123.8" font-family="Times,serif" font-size="14.00" fill="#000000">pos</text>
<polygon fill="#e0ffe0" stroke="transparent" points="1335,-117 1335,-138 1421,-138 1421,-117 1335,-117"/>
<polygon fill="none" stroke="#000000" points="1335,-117 1335,-138 1421,-138 1421,-117 1335,-117"/>
<text text-anchor="start" x="1367" y="-123.8" font-family="Times,serif" font-size="14.00" fill="#000000">size</text>
<polygon fill="#e0ffe0" stroke="transparent" points="1421,-117 1421,-138 1451,-138 1451,-117 1421,-117"/>
<polygon fill="none" stroke="#000000" points="1421,-117 1421,-138 1451,-138 1451,-117 1421,-117"/>
<text text-anchor="start" x="1424" y="-123.8" font-family="Times,serif" font-size="14.00" fill="#000000">type</text>
<polygon fill="#e0ffe0" stroke="transparent" points="1451,-117 1451,-138 1530,-138 1530,-117 1451,-117"/>
<polygon fill="none" stroke="#000000" points="1451,-117 1451,-138 1530,-138 1530,-117 1451,-117"/>
<text text-anchor="start" x="1485" y="-123.8" font-family="Times,serif" font-size="14.00" fill="#000000">id</text>
<polygon fill="none" stroke="#000000" points="1298,-96 1298,-117 1335,-117 1335,-96 1298,-96"/>
<text text-anchor="start" x="1301" y="-102.8" font-family="Times,serif" font-size="14.00" fill="#000000">offset</text>
<polygon fill="none" stroke="#000000" points="1335,-96 1335,-117 1421,-117 1421,-96 1335,-96"/>
<text text-anchor="start" x="1338" y="-102.8" font-family="Times,serif" font-size="14.00" fill="#000000">size_unpacked</text>
<polygon fill="none" stroke="#000000" points="1421,-96 1421,-117 1451,-117 1451,-96 1421,-96"/>
<polygon fill="none" stroke="#000000" points="1451,-96 1451,-117 1530,-117 1530,-96 1451,-96"/>
<text text-anchor="start" x="1454" y="-102.8" font-family="Times,serif" font-size="14.00" fill="#000000">contents_raw</text>
</g>
<!-- file__seq&#45;&gt;file__inst__contents_raw -->
<g id="edge8" class="edge">
<title>file__seq:offset_type&#45;&gt;file__inst__contents_raw:contents_raw_pos</title>
<path fill="none" stroke="#404040" d="M1246.5,-42C1279.0168,-42 1265.5032,-92.7656 1287.9509,-103.8706"/>
<polygon fill="#404040" stroke="#404040" points="1287.4917,-107.3509 1298,-106 1288.9428,-100.503 1287.4917,-107.3509"/>
</g>
<!-- file__seq&#45;&gt;file__inst__contents_raw -->
<g id="edge9" class="edge">
<title>file__seq:size_unpacked_type&#45;&gt;file__inst__contents_raw:contents_raw_size</title>
<path fill="none" stroke="#404040" d="M1246.5,-84C1258.7647,-84 1342.4154,-82.133 1369.5332,-90.0908"/>
<polygon fill="#404040" stroke="#404040" points="1367.7965,-93.1469 1378,-96 1371.8028,-87.4066 1367.7965,-93.1469"/>
</g>
<!-- file__inst__contents_zlib -->
<g id="node9" class="node">
<title>file__inst__contents_zlib</title>
<polygon fill="#e0ffe0" stroke="transparent" points="1305,-49 1305,-70 1342,-70 1342,-49 1305,-49"/>
<polygon fill="none" stroke="#000000" points="1305,-49 1305,-70 1342,-70 1342,-49 1305,-49"/>
<text text-anchor="start" x="1314" y="-55.8" font-family="Times,serif" font-size="14.00" fill="#000000">pos</text>
<polygon fill="#e0ffe0" stroke="transparent" points="1342,-49 1342,-70 1415,-70 1415,-49 1342,-49"/>
<polygon fill="none" stroke="#000000" points="1342,-49 1342,-70 1415,-70 1415,-49 1342,-49"/>
<text text-anchor="start" x="1367.5" y="-55.8" font-family="Times,serif" font-size="14.00" fill="#000000">size</text>
<polygon fill="#e0ffe0" stroke="transparent" points="1415,-49 1415,-70 1445,-70 1445,-49 1415,-49"/>
<polygon fill="none" stroke="#000000" points="1415,-49 1415,-70 1445,-70 1445,-49 1415,-49"/>
<text text-anchor="start" x="1418" y="-55.8" font-family="Times,serif" font-size="14.00" fill="#000000">type</text>
<polygon fill="#e0ffe0" stroke="transparent" points="1445,-49 1445,-70 1524,-70 1524,-49 1445,-49"/>
<polygon fill="none" stroke="#000000" points="1445,-49 1445,-70 1524,-70 1524,-49 1445,-49"/>
<text text-anchor="start" x="1479" y="-55.8" font-family="Times,serif" font-size="14.00" fill="#000000">id</text>
<polygon fill="none" stroke="#000000" points="1305,-28 1305,-49 1342,-49 1342,-28 1305,-28"/>
<text text-anchor="start" x="1308" y="-34.8" font-family="Times,serif" font-size="14.00" fill="#000000">offset</text>
<polygon fill="none" stroke="#000000" points="1342,-28 1342,-49 1415,-49 1415,-28 1342,-28"/>
<text text-anchor="start" x="1345" y="-34.8" font-family="Times,serif" font-size="14.00" fill="#000000">size_packed</text>
<polygon fill="none" stroke="#000000" points="1415,-28 1415,-49 1445,-49 1445,-28 1415,-28"/>
<polygon fill="none" stroke="#000000" points="1445,-28 1445,-49 1524,-49 1524,-28 1445,-28"/>
<text text-anchor="start" x="1448" y="-34.8" font-family="Times,serif" font-size="14.00" fill="#000000">contents_zlib</text>
</g>
<!-- file__seq&#45;&gt;file__inst__contents_zlib -->
<g id="edge10" class="edge">
<title>file__seq:offset_type&#45;&gt;file__inst__contents_zlib:contents_zlib_pos</title>
<path fill="none" stroke="#404040" d="M1246.5,-42C1268.6923,-42 1276.612,-39.0994 1294.5671,-38.2382"/>
<polygon fill="#404040" stroke="#404040" points="1295.0825,-41.7275 1305,-38 1294.9227,-34.7293 1295.0825,-41.7275"/>
</g>
<!-- file__seq&#45;&gt;file__inst__contents_zlib -->
<g id="edge11" class="edge">
<title>file__seq:size_packed_type&#45;&gt;file__inst__contents_zlib:contents_zlib_size</title>
<path fill="none" stroke="#404040" d="M1246.5,-63C1273.6257,-63 1270.6292,-36.155 1296.5,-28 1327.133,-18.3438 1367.5213,2.6682 1376.2787,-17.9494"/>
<polygon fill="#404040" stroke="#404040" points="1372.8621,-18.7344 1378,-28 1379.7616,-17.5527 1372.8621,-18.7344"/>
</g>
<!-- file__inst__contents -->
<g id="node10" class="node">
<title>file__inst__contents</title>
<polygon fill="#e0ffe0" stroke="transparent" points="1582,-106 1582,-127 1634,-127 1634,-106 1582,-106"/>
<polygon fill="none" stroke="#000000" points="1582,-106 1582,-127 1634,-127 1634,-106 1582,-106"/>
<text text-anchor="start" x="1602.5" y="-112.8" font-family="Times,serif" font-size="14.00" fill="#000000">id</text>
<polygon fill="#e0ffe0" stroke="transparent" points="1634,-106 1634,-127 1968,-127 1968,-106 1634,-106"/>
<polygon fill="none" stroke="#000000" points="1634,-106 1634,-127 1968,-127 1968,-106 1634,-106"/>
<text text-anchor="start" x="1786" y="-112.8" font-family="Times,serif" font-size="14.00" fill="#000000">value</text>
<polygon fill="none" stroke="#000000" points="1582,-85 1582,-106 1634,-106 1634,-85 1582,-85"/>
<text text-anchor="start" x="1585" y="-91.8" font-family="Times,serif" font-size="14.00" fill="#000000">contents</text>
<polygon fill="none" stroke="#000000" points="1634,-85 1634,-106 1968,-106 1968,-85 1634,-85"/>
<text text-anchor="start" x="1637" y="-91.8" font-family="Times,serif" font-size="14.00" fill="#000000">(flags == :compression_zlib ? contents_zlib : contents_raw)</text>
</g>
<!-- file__seq&#45;&gt;file__inst__contents -->
<g id="edge12" class="edge">
<title>file__seq:flags_type&#45;&gt;file__inst__contents</title>
<path fill="none" stroke="#404040" d="M1246.5,-106C1274.3169,-106 1264.3917,-140.1376 1290,-151 1391.471,-194.0416 1428.2625,-161.3259 1538,-151 1576.8505,-147.3443 1618.8156,-140.3887 1656.4817,-133.0194"/>
<polygon fill="#404040" stroke="#404040" points="1657.3443,-136.4166 1666.4712,-131.036 1655.981,-129.5506 1657.3443,-136.4166"/>
</g>
<!-- file__inst__contents_raw&#45;&gt;file__inst__contents -->
<g id="edge14" class="edge">
<title>file__inst__contents_raw:contents_raw_type&#45;&gt;file__inst__contents</title>
<path fill="none" stroke="#404040" d="M1530,-106C1541.0208,-106 1552.3205,-106 1563.7297,-106"/>
<polygon fill="#404040" stroke="#404040" points="1563.7799,-109.5001 1573.7799,-106 1563.7798,-102.5001 1563.7799,-109.5001"/>
</g>
<!-- file__inst__contents_zlib&#45;&gt;file__inst__contents -->
<g id="edge13" class="edge">
<title>file__inst__contents_zlib:contents_zlib_type&#45;&gt;file__inst__contents</title>
<path fill="none" stroke="#404040" d="M1524,-38C1587.8326,-38 1657.719,-58.7421 1707.5012,-77.3147"/>
<polygon fill="#404040" stroke="#404040" points="1706.2778,-80.5939 1716.8689,-80.8725 1708.7632,-74.05 1706.2778,-80.5939"/>
</g>
</g>
</svg>
