<?xml version="1.0" encoding="UTF-8" standalone="no"?>
<!DOCTYPE svg PUBLIC "-//W3C//DTD SVG 1.1//EN"
 "http://www.w3.org/Graphics/SVG/1.1/DTD/svg11.dtd">
<!-- Generated by graphviz version 2.40.1 (20161225.0304)
 -->
<!-- Title: %3 Pages: 1 -->
<svg width="2093pt" height="426pt"
 viewBox="0.00 0.00 2093.00 426.36" xmlns="http://www.w3.org/2000/svg" xmlns:xlink="http://www.w3.org/1999/xlink">
<g id="graph0" class="graph" transform="scale(1 1) rotate(0) translate(4 422.363)">
<title>%3</title>
<polygon fill="#ffffff" stroke="transparent" points="-4,4 -4,-422.363 2089,-422.363 2089,4 -4,4"/>
<g id="clust1" class="cluster">
<title>cluster__websocket</title>
<polygon fill="none" stroke="#000000" stroke-dasharray="1,5" points="8,-14.363 8,-410.363 2077,-410.363 2077,-14.363 8,-14.363"/>
<text text-anchor="middle" x="1042.5" y="-395.163" font-family="Times,serif" font-size="14.00" fill="#000000">Websocket</text>
</g>
<g id="clust2" class="cluster">
<title>cluster__frame_header</title>
<polygon fill="none" stroke="#000000" stroke-dasharray="1,5" points="16,-22.363 16,-259.363 1627,-259.363 1627,-22.363 16,-22.363"/>
<text text-anchor="middle" x="821.5" y="-244.163" font-family="Times,serif" font-size="14.00" fill="#000000">Websocket::FrameHeader</text>
</g>
<g id="clust3" class="cluster">
<title>cluster__initial_frame</title>
<polygon fill="none" stroke="#000000" stroke-dasharray="1,5" points="1647,-235.363 1647,-366.363 2069,-366.363 2069,-235.363 1647,-235.363"/>
<text text-anchor="middle" x="1858" y="-351.163" font-family="Times,serif" font-size="14.00" fill="#000000">Websocket::InitialFrame</text>
</g>
<g id="clust4" class="cluster">
<title>cluster__dataframe</title>
<polygon fill="none" stroke="#000000" stroke-dasharray="1,5" points="1647,-74.363 1647,-205.363 2069,-205.363 2069,-74.363 1647,-74.363"/>
<text text-anchor="middle" x="1858" y="-190.163" font-family="Times,serif" font-size="14.00" fill="#000000">Websocket::Dataframe</text>
</g>
<!-- websocket__seq -->
<g id="node1" class="node">
<title>websocket__seq</title>
<polygon fill="#e0ffe0" stroke="transparent" points="925,-334.363 925,-355.363 956,-355.363 956,-334.363 925,-334.363"/>
<polygon fill="none" stroke="#000000" points="925,-334.363 925,-355.363 956,-355.363 956,-334.363 925,-334.363"/>
<text text-anchor="start" x="928" y="-341.163" font-family="Times,serif" font-size="14.00" fill="#000000">pos</text>
<polygon fill="#e0ffe0" stroke="transparent" points="956,-334.363 956,-355.363 990,-355.363 990,-334.363 956,-334.363"/>
<polygon fill="none" stroke="#000000" points="956,-334.363 956,-355.363 990,-355.363 990,-334.363 956,-334.363"/>
<text text-anchor="start" x="959" y="-341.163" font-family="Times,serif" font-size="14.00" fill="#000000">size</text>
<polygon fill="#e0ffe0" stroke="transparent" points="990,-334.363 990,-355.363 1086,-355.363 1086,-334.363 990,-334.363"/>
<polygon fill="none" stroke="#000000" points="990,-334.363 990,-355.363 1086,-355.363 1086,-334.363 990,-334.363"/>
<text text-anchor="start" x="1022" y="-341.163" font-family="Times,serif" font-size="14.00" fill="#000000">type</text>
<polygon fill="#e0ffe0" stroke="transparent" points="1086,-334.363 1086,-355.363 1202,-355.363 1202,-334.363 1086,-334.363"/>
<polygon fill="none" stroke="#000000" points="1086,-334.363 1086,-355.363 1202,-355.363 1202,-334.363 1086,-334.363"/>
<text text-anchor="start" x="1137" y="-341.163" font-family="Times,serif" font-size="14.00" fill="#000000">id</text>
<polygon fill="none" stroke="#000000" points="925,-313.363 925,-334.363 956,-334.363 956,-313.363 925,-313.363"/>
<text text-anchor="start" x="935.5" y="-320.163" font-family="Times,serif" font-size="14.00" fill="#000000">0</text>
<polygon fill="none" stroke="#000000" points="956,-313.363 956,-334.363 990,-334.363 990,-313.363 956,-313.363"/>
<text text-anchor="start" x="966" y="-320.163" font-family="Times,serif" font-size="14.00" fill="#000000">...</text>
<polygon fill="none" stroke="#000000" points="990,-313.363 990,-334.363 1086,-334.363 1086,-313.363 990,-313.363"/>
<text text-anchor="start" x="993" y="-320.163" font-family="Times,serif" font-size="14.00" fill="#000000">InitialFrame</text>
<polygon fill="none" stroke="#000000" points="1086,-313.363 1086,-334.363 1202,-334.363 1202,-313.363 1086,-313.363"/>
<text text-anchor="start" x="1098.5" y="-320.163" font-family="Times,serif" font-size="14.00" fill="#000000">initial_frame</text>
<polygon fill="none" stroke="#000000" points="925,-292.363 925,-313.363 956,-313.363 956,-292.363 925,-292.363"/>
<text text-anchor="start" x="933.5" y="-299.163" font-family="Times,serif" font-size="14.00" fill="#000000">...</text>
<polygon fill="none" stroke="#000000" points="956,-292.363 956,-313.363 990,-313.363 990,-292.363 956,-292.363"/>
<text text-anchor="start" x="966" y="-299.163" font-family="Times,serif" font-size="14.00" fill="#000000">...</text>
<polygon fill="none" stroke="#000000" points="990,-292.363 990,-313.363 1086,-313.363 1086,-292.363 990,-292.363"/>
<text text-anchor="start" x="1000" y="-299.163" font-family="Times,serif" font-size="14.00" fill="#000000">Dataframe</text>
<polygon fill="none" stroke="#000000" points="1086,-292.363 1086,-313.363 1202,-313.363 1202,-292.363 1086,-292.363"/>
<text text-anchor="start" x="1089" y="-299.163" font-family="Times,serif" font-size="14.00" fill="#000000">trailing_frames</text>
<polygon fill="none" stroke="#000000" points="925,-271.363 925,-292.363 1202,-292.363 1202,-271.363 925,-271.363"/>
<text text-anchor="start" x="958" y="-278.163" font-family="Times,serif" font-size="14.00" fill="#000000">repeat until _.header.finished</text>
</g>
<!-- initial_frame__seq -->
<g id="node4" class="node">
<title>initial_frame__seq</title>
<polygon fill="#e0ffe0" stroke="transparent" points="1663,-310.363 1663,-331.363 1694,-331.363 1694,-310.363 1663,-310.363"/>
<polygon fill="none" stroke="#000000" points="1663,-310.363 1663,-331.363 1694,-331.363 1694,-310.363 1663,-310.363"/>
<text text-anchor="start" x="1666" y="-317.163" font-family="Times,serif" font-size="14.00" fill="#000000">pos</text>
<polygon fill="#e0ffe0" stroke="transparent" points="1694,-310.363 1694,-331.363 1838,-331.363 1838,-310.363 1694,-310.363"/>
<polygon fill="none" stroke="#000000" points="1694,-310.363 1694,-331.363 1838,-331.363 1838,-310.363 1694,-310.363"/>
<text text-anchor="start" x="1752" y="-317.163" font-family="Times,serif" font-size="14.00" fill="#000000">size</text>
<polygon fill="#e0ffe0" stroke="transparent" points="1838,-310.363 1838,-331.363 1944,-331.363 1944,-310.363 1838,-310.363"/>
<polygon fill="none" stroke="#000000" points="1838,-310.363 1838,-331.363 1944,-331.363 1944,-310.363 1838,-310.363"/>
<text text-anchor="start" x="1875" y="-317.163" font-family="Times,serif" font-size="14.00" fill="#000000">type</text>
<polygon fill="#e0ffe0" stroke="transparent" points="1944,-310.363 1944,-331.363 2053,-331.363 2053,-310.363 1944,-310.363"/>
<polygon fill="none" stroke="#000000" points="1944,-310.363 1944,-331.363 2053,-331.363 2053,-310.363 1944,-310.363"/>
<text text-anchor="start" x="1991.5" y="-317.163" font-family="Times,serif" font-size="14.00" fill="#000000">id</text>
<polygon fill="none" stroke="#000000" points="1663,-289.363 1663,-310.363 1694,-310.363 1694,-289.363 1663,-289.363"/>
<text text-anchor="start" x="1673.5" y="-296.163" font-family="Times,serif" font-size="14.00" fill="#000000">0</text>
<polygon fill="none" stroke="#000000" points="1694,-289.363 1694,-310.363 1838,-310.363 1838,-289.363 1694,-289.363"/>
<text text-anchor="start" x="1756.5" y="-296.163" font-family="Times,serif" font-size="14.00" fill="#000000">12</text>
<polygon fill="none" stroke="#000000" points="1838,-289.363 1838,-310.363 1944,-310.363 1944,-289.363 1838,-289.363"/>
<text text-anchor="start" x="1841" y="-296.163" font-family="Times,serif" font-size="14.00" fill="#000000">FrameHeader</text>
<polygon fill="none" stroke="#000000" points="1944,-289.363 1944,-310.363 2053,-310.363 2053,-289.363 1944,-289.363"/>
<text text-anchor="start" x="1973.5" y="-296.163" font-family="Times,serif" font-size="14.00" fill="#000000">header</text>
<polygon fill="none" stroke="#000000" points="1663,-268.363 1663,-289.363 1694,-289.363 1694,-268.363 1663,-268.363"/>
<text text-anchor="start" x="1669" y="-275.163" font-family="Times,serif" font-size="14.00" fill="#000000">12</text>
<polygon fill="none" stroke="#000000" points="1694,-268.363 1694,-289.363 1838,-289.363 1838,-268.363 1694,-268.363"/>
<text text-anchor="start" x="1697" y="-275.163" font-family="Times,serif" font-size="14.00" fill="#000000">header.len_payload</text>
<polygon fill="none" stroke="#000000" points="1838,-268.363 1838,-289.363 1944,-289.363 1944,-268.363 1838,-268.363"/>
<polygon fill="none" stroke="#000000" points="1944,-268.363 1944,-289.363 2053,-289.363 2053,-268.363 1944,-268.363"/>
<text text-anchor="start" x="1947" y="-275.163" font-family="Times,serif" font-size="14.00" fill="#000000">payload_bytes</text>
<polygon fill="none" stroke="#000000" points="1663,-247.363 1663,-268.363 1694,-268.363 1694,-247.363 1663,-247.363"/>
<text text-anchor="start" x="1671.5" y="-254.163" font-family="Times,serif" font-size="14.00" fill="#000000">...</text>
<polygon fill="none" stroke="#000000" points="1694,-247.363 1694,-268.363 1838,-268.363 1838,-247.363 1694,-247.363"/>
<text text-anchor="start" x="1697" y="-254.163" font-family="Times,serif" font-size="14.00" fill="#000000">header.len_payload</text>
<polygon fill="none" stroke="#000000" points="1838,-247.363 1838,-268.363 1944,-268.363 1944,-247.363 1838,-247.363"/>
<text text-anchor="start" x="1853" y="-254.163" font-family="Times,serif" font-size="14.00" fill="#000000">str(UTF&#45;8)</text>
<polygon fill="none" stroke="#000000" points="1944,-247.363 1944,-268.363 2053,-268.363 2053,-247.363 1944,-247.363"/>
<text text-anchor="start" x="1952.5" y="-254.163" font-family="Times,serif" font-size="14.00" fill="#000000">payload_text</text>
</g>
<!-- websocket__seq&#45;&gt;initial_frame__seq -->
<g id="edge1" class="edge">
<title>websocket__seq:initial_frame_type&#45;&gt;initial_frame__seq</title>
<path fill="none" stroke="#000000" stroke-width="2" d="M1202,-324.363C1349.9657,-324.363 1516.4384,-315.374 1644.6581,-306.5069"/>
<polygon fill="#000000" stroke="#000000" stroke-width="2" points="1645.2573,-309.9738 1654.9898,-305.787 1644.7707,-302.9907 1645.2573,-309.9738"/>
</g>
<!-- dataframe__seq -->
<g id="node5" class="node">
<title>dataframe__seq</title>
<polygon fill="#e0ffe0" stroke="transparent" points="1663,-149.363 1663,-170.363 1694,-170.363 1694,-149.363 1663,-149.363"/>
<polygon fill="none" stroke="#000000" points="1663,-149.363 1663,-170.363 1694,-170.363 1694,-149.363 1663,-149.363"/>
<text text-anchor="start" x="1666" y="-156.163" font-family="Times,serif" font-size="14.00" fill="#000000">pos</text>
<polygon fill="#e0ffe0" stroke="transparent" points="1694,-149.363 1694,-170.363 1838,-170.363 1838,-149.363 1694,-149.363"/>
<polygon fill="none" stroke="#000000" points="1694,-149.363 1694,-170.363 1838,-170.363 1838,-149.363 1694,-149.363"/>
<text text-anchor="start" x="1752" y="-156.163" font-family="Times,serif" font-size="14.00" fill="#000000">size</text>
<polygon fill="#e0ffe0" stroke="transparent" points="1838,-149.363 1838,-170.363 1944,-170.363 1944,-149.363 1838,-149.363"/>
<polygon fill="none" stroke="#000000" points="1838,-149.363 1838,-170.363 1944,-170.363 1944,-149.363 1838,-149.363"/>
<text text-anchor="start" x="1875" y="-156.163" font-family="Times,serif" font-size="14.00" fill="#000000">type</text>
<polygon fill="#e0ffe0" stroke="transparent" points="1944,-149.363 1944,-170.363 2053,-170.363 2053,-149.363 1944,-149.363"/>
<polygon fill="none" stroke="#000000" points="1944,-149.363 1944,-170.363 2053,-170.363 2053,-149.363 1944,-149.363"/>
<text text-anchor="start" x="1991.5" y="-156.163" font-family="Times,serif" font-size="14.00" fill="#000000">id</text>
<polygon fill="none" stroke="#000000" points="1663,-128.363 1663,-149.363 1694,-149.363 1694,-128.363 1663,-128.363"/>
<text text-anchor="start" x="1673.5" y="-135.163" font-family="Times,serif" font-size="14.00" fill="#000000">0</text>
<polygon fill="none" stroke="#000000" points="1694,-128.363 1694,-149.363 1838,-149.363 1838,-128.363 1694,-128.363"/>
<text text-anchor="start" x="1756.5" y="-135.163" font-family="Times,serif" font-size="14.00" fill="#000000">12</text>
<polygon fill="none" stroke="#000000" points="1838,-128.363 1838,-149.363 1944,-149.363 1944,-128.363 1838,-128.363"/>
<text text-anchor="start" x="1841" y="-135.163" font-family="Times,serif" font-size="14.00" fill="#000000">FrameHeader</text>
<polygon fill="none" stroke="#000000" points="1944,-128.363 1944,-149.363 2053,-149.363 2053,-128.363 1944,-128.363"/>
<text text-anchor="start" x="1973.5" y="-135.163" font-family="Times,serif" font-size="14.00" fill="#000000">header</text>
<polygon fill="none" stroke="#000000" points="1663,-107.363 1663,-128.363 1694,-128.363 1694,-107.363 1663,-107.363"/>
<text text-anchor="start" x="1669" y="-114.163" font-family="Times,serif" font-size="14.00" fill="#000000">12</text>
<polygon fill="none" stroke="#000000" points="1694,-107.363 1694,-128.363 1838,-128.363 1838,-107.363 1694,-107.363"/>
<text text-anchor="start" x="1697" y="-114.163" font-family="Times,serif" font-size="14.00" fill="#000000">header.len_payload</text>
<polygon fill="none" stroke="#000000" points="1838,-107.363 1838,-128.363 1944,-128.363 1944,-107.363 1838,-107.363"/>
<polygon fill="none" stroke="#000000" points="1944,-107.363 1944,-128.363 2053,-128.363 2053,-107.363 1944,-107.363"/>
<text text-anchor="start" x="1947" y="-114.163" font-family="Times,serif" font-size="14.00" fill="#000000">payload_bytes</text>
<polygon fill="none" stroke="#000000" points="1663,-86.363 1663,-107.363 1694,-107.363 1694,-86.363 1663,-86.363"/>
<text text-anchor="start" x="1671.5" y="-93.163" font-family="Times,serif" font-size="14.00" fill="#000000">...</text>
<polygon fill="none" stroke="#000000" points="1694,-86.363 1694,-107.363 1838,-107.363 1838,-86.363 1694,-86.363"/>
<text text-anchor="start" x="1697" y="-93.163" font-family="Times,serif" font-size="14.00" fill="#000000">header.len_payload</text>
<polygon fill="none" stroke="#000000" points="1838,-86.363 1838,-107.363 1944,-107.363 1944,-86.363 1838,-86.363"/>
<text text-anchor="start" x="1853" y="-93.163" font-family="Times,serif" font-size="14.00" fill="#000000">str(UTF&#45;8)</text>
<polygon fill="none" stroke="#000000" points="1944,-86.363 1944,-107.363 2053,-107.363 2053,-86.363 1944,-86.363"/>
<text text-anchor="start" x="1952.5" y="-93.163" font-family="Times,serif" font-size="14.00" fill="#000000">payload_text</text>
</g>
<!-- websocket__seq&#45;&gt;dataframe__seq -->
<g id="edge2" class="edge">
<title>websocket__seq:trailing_frames_type&#45;&gt;dataframe__seq</title>
<path fill="none" stroke="#000000" stroke-width="2" d="M1202,-302.363C1391.6825,-302.363 1465.475,-362.8071 1627,-263.363 1641.2819,-254.5703 1634.5377,-242.5869 1647,-231.363 1669.8904,-210.7473 1697.6536,-193.3274 1725.4178,-179.013"/>
<polygon fill="#000000" stroke="#000000" stroke-width="2" points="1727.0702,-182.0996 1734.426,-174.4744 1723.9206,-175.8482 1727.0702,-182.0996"/>
</g>
<!-- frame_header__seq -->
<g id="node2" class="node">
<title>frame_header__seq</title>
<polygon fill="#e0ffe0" stroke="transparent" points="32.5,-202.363 32.5,-223.363 63.5,-223.363 63.5,-202.363 32.5,-202.363"/>
<polygon fill="none" stroke="#000000" points="32.5,-202.363 32.5,-223.363 63.5,-223.363 63.5,-202.363 32.5,-202.363"/>
<text text-anchor="start" x="35.5" y="-209.163" font-family="Times,serif" font-size="14.00" fill="#000000">pos</text>
<polygon fill="#e0ffe0" stroke="transparent" points="63.5,-202.363 63.5,-223.363 97.5,-223.363 97.5,-202.363 63.5,-202.363"/>
<polygon fill="none" stroke="#000000" points="63.5,-202.363 63.5,-223.363 97.5,-223.363 97.5,-202.363 63.5,-202.363"/>
<text text-anchor="start" x="66.5" y="-209.163" font-family="Times,serif" font-size="14.00" fill="#000000">size</text>
<polygon fill="#e0ffe0" stroke="transparent" points="97.5,-202.363 97.5,-223.363 282.5,-223.363 282.5,-202.363 97.5,-202.363"/>
<polygon fill="none" stroke="#000000" points="97.5,-202.363 97.5,-223.363 282.5,-223.363 282.5,-202.363 97.5,-202.363"/>
<text text-anchor="start" x="174" y="-209.163" font-family="Times,serif" font-size="14.00" fill="#000000">type</text>
<polygon fill="#e0ffe0" stroke="transparent" points="282.5,-202.363 282.5,-223.363 463.5,-223.363 463.5,-202.363 282.5,-202.363"/>
<polygon fill="none" stroke="#000000" points="282.5,-202.363 282.5,-223.363 463.5,-223.363 463.5,-202.363 282.5,-202.363"/>
<text text-anchor="start" x="366" y="-209.163" font-family="Times,serif" font-size="14.00" fill="#000000">id</text>
<polygon fill="none" stroke="#000000" points="32.5,-181.363 32.5,-202.363 63.5,-202.363 63.5,-181.363 32.5,-181.363"/>
<text text-anchor="start" x="43" y="-188.163" font-family="Times,serif" font-size="14.00" fill="#000000">0</text>
<polygon fill="none" stroke="#000000" points="63.5,-181.363 63.5,-202.363 97.5,-202.363 97.5,-181.363 63.5,-181.363"/>
<text text-anchor="start" x="71" y="-188.163" font-family="Times,serif" font-size="14.00" fill="#000000">1b</text>
<polygon fill="none" stroke="#000000" points="97.5,-181.363 97.5,-202.363 282.5,-202.363 282.5,-181.363 97.5,-181.363"/>
<text text-anchor="start" x="100.5" y="-188.163" font-family="Times,serif" font-size="14.00" fill="#000000">BitsType1(BigBitEndian)</text>
<polygon fill="none" stroke="#000000" points="282.5,-181.363 282.5,-202.363 463.5,-202.363 463.5,-181.363 282.5,-181.363"/>
<text text-anchor="start" x="344" y="-188.163" font-family="Times,serif" font-size="14.00" fill="#000000">finished</text>
<polygon fill="none" stroke="#000000" points="32.5,-160.363 32.5,-181.363 63.5,-181.363 63.5,-160.363 32.5,-160.363"/>
<text text-anchor="start" x="36.5" y="-167.163" font-family="Times,serif" font-size="14.00" fill="#000000">0:1</text>
<polygon fill="none" stroke="#000000" points="63.5,-160.363 63.5,-181.363 97.5,-181.363 97.5,-160.363 63.5,-160.363"/>
<text text-anchor="start" x="71" y="-167.163" font-family="Times,serif" font-size="14.00" fill="#000000">3b</text>
<polygon fill="none" stroke="#000000" points="97.5,-160.363 97.5,-181.363 282.5,-181.363 282.5,-160.363 97.5,-160.363"/>
<text text-anchor="start" x="180.5" y="-167.163" font-family="Times,serif" font-size="14.00" fill="#000000">b3</text>
<polygon fill="none" stroke="#000000" points="282.5,-160.363 282.5,-181.363 463.5,-181.363 463.5,-160.363 282.5,-160.363"/>
<text text-anchor="start" x="341" y="-167.163" font-family="Times,serif" font-size="14.00" fill="#000000">reserved</text>
<polygon fill="none" stroke="#000000" points="32.5,-139.363 32.5,-160.363 63.5,-160.363 63.5,-139.363 32.5,-139.363"/>
<text text-anchor="start" x="36.5" y="-146.163" font-family="Times,serif" font-size="14.00" fill="#000000">0:4</text>
<polygon fill="none" stroke="#000000" points="63.5,-139.363 63.5,-160.363 97.5,-160.363 97.5,-139.363 63.5,-139.363"/>
<text text-anchor="start" x="71" y="-146.163" font-family="Times,serif" font-size="14.00" fill="#000000">4b</text>
<polygon fill="none" stroke="#000000" points="97.5,-139.363 97.5,-160.363 282.5,-160.363 282.5,-139.363 97.5,-139.363"/>
<text text-anchor="start" x="147.5" y="-146.163" font-family="Times,serif" font-size="14.00" fill="#000000">b4→Opcode</text>
<polygon fill="none" stroke="#000000" points="282.5,-139.363 282.5,-160.363 463.5,-160.363 463.5,-139.363 282.5,-139.363"/>
<text text-anchor="start" x="347" y="-146.163" font-family="Times,serif" font-size="14.00" fill="#000000">opcode</text>
<polygon fill="none" stroke="#000000" points="32.5,-118.363 32.5,-139.363 63.5,-139.363 63.5,-118.363 32.5,-118.363"/>
<text text-anchor="start" x="43" y="-125.163" font-family="Times,serif" font-size="14.00" fill="#000000">1</text>
<polygon fill="none" stroke="#000000" points="63.5,-118.363 63.5,-139.363 97.5,-139.363 97.5,-118.363 63.5,-118.363"/>
<text text-anchor="start" x="71" y="-125.163" font-family="Times,serif" font-size="14.00" fill="#000000">1b</text>
<polygon fill="none" stroke="#000000" points="97.5,-118.363 97.5,-139.363 282.5,-139.363 282.5,-118.363 97.5,-118.363"/>
<text text-anchor="start" x="100.5" y="-125.163" font-family="Times,serif" font-size="14.00" fill="#000000">BitsType1(BigBitEndian)</text>
<polygon fill="none" stroke="#000000" points="282.5,-118.363 282.5,-139.363 463.5,-139.363 463.5,-118.363 282.5,-118.363"/>
<text text-anchor="start" x="335" y="-125.163" font-family="Times,serif" font-size="14.00" fill="#000000">is_masked</text>
<polygon fill="none" stroke="#000000" points="32.5,-97.363 32.5,-118.363 63.5,-118.363 63.5,-97.363 32.5,-97.363"/>
<text text-anchor="start" x="36.5" y="-104.163" font-family="Times,serif" font-size="14.00" fill="#000000">1:1</text>
<polygon fill="none" stroke="#000000" points="63.5,-97.363 63.5,-118.363 97.5,-118.363 97.5,-97.363 63.5,-97.363"/>
<text text-anchor="start" x="71" y="-104.163" font-family="Times,serif" font-size="14.00" fill="#000000">7b</text>
<polygon fill="none" stroke="#000000" points="97.5,-97.363 97.5,-118.363 282.5,-118.363 282.5,-97.363 97.5,-97.363"/>
<text text-anchor="start" x="180.5" y="-104.163" font-family="Times,serif" font-size="14.00" fill="#000000">b7</text>
<polygon fill="none" stroke="#000000" points="282.5,-97.363 282.5,-118.363 463.5,-118.363 463.5,-97.363 282.5,-97.363"/>
<text text-anchor="start" x="298" y="-104.163" font-family="Times,serif" font-size="14.00" fill="#000000">len_payload_primary</text>
<polygon fill="none" stroke="#000000" points="32.5,-76.363 32.5,-97.363 63.5,-97.363 63.5,-76.363 32.5,-76.363"/>
<text text-anchor="start" x="43" y="-83.163" font-family="Times,serif" font-size="14.00" fill="#000000">2</text>
<polygon fill="none" stroke="#000000" points="63.5,-76.363 63.5,-97.363 97.5,-97.363 97.5,-76.363 63.5,-76.363"/>
<text text-anchor="start" x="75.5" y="-83.163" font-family="Times,serif" font-size="14.00" fill="#000000">2</text>
<polygon fill="none" stroke="#000000" points="97.5,-76.363 97.5,-97.363 282.5,-97.363 282.5,-76.363 97.5,-76.363"/>
<text text-anchor="start" x="172" y="-83.163" font-family="Times,serif" font-size="14.00" fill="#000000">u2be</text>
<polygon fill="none" stroke="#000000" points="282.5,-76.363 282.5,-97.363 463.5,-97.363 463.5,-76.363 282.5,-76.363"/>
<text text-anchor="start" x="285.5" y="-83.163" font-family="Times,serif" font-size="14.00" fill="#000000">len_payload_extended_1</text>
<polygon fill="none" stroke="#000000" points="32.5,-55.363 32.5,-76.363 63.5,-76.363 63.5,-55.363 32.5,-55.363"/>
<text text-anchor="start" x="43" y="-62.163" font-family="Times,serif" font-size="14.00" fill="#000000">4</text>
<polygon fill="none" stroke="#000000" points="63.5,-55.363 63.5,-76.363 97.5,-76.363 97.5,-55.363 63.5,-55.363"/>
<text text-anchor="start" x="75.5" y="-62.163" font-family="Times,serif" font-size="14.00" fill="#000000">4</text>
<polygon fill="none" stroke="#000000" points="97.5,-55.363 97.5,-76.363 282.5,-76.363 282.5,-55.363 97.5,-55.363"/>
<text text-anchor="start" x="172" y="-62.163" font-family="Times,serif" font-size="14.00" fill="#000000">u4be</text>
<polygon fill="none" stroke="#000000" points="282.5,-55.363 282.5,-76.363 463.5,-76.363 463.5,-55.363 282.5,-55.363"/>
<text text-anchor="start" x="285.5" y="-62.163" font-family="Times,serif" font-size="14.00" fill="#000000">len_payload_extended_2</text>
<polygon fill="none" stroke="#000000" points="32.5,-34.363 32.5,-55.363 63.5,-55.363 63.5,-34.363 32.5,-34.363"/>
<text text-anchor="start" x="43" y="-41.163" font-family="Times,serif" font-size="14.00" fill="#000000">8</text>
<polygon fill="none" stroke="#000000" points="63.5,-34.363 63.5,-55.363 97.5,-55.363 97.5,-34.363 63.5,-34.363"/>
<text text-anchor="start" x="75.5" y="-41.163" font-family="Times,serif" font-size="14.00" fill="#000000">4</text>
<polygon fill="none" stroke="#000000" points="97.5,-34.363 97.5,-55.363 282.5,-55.363 282.5,-34.363 97.5,-34.363"/>
<text text-anchor="start" x="172" y="-41.163" font-family="Times,serif" font-size="14.00" fill="#000000">u4be</text>
<polygon fill="none" stroke="#000000" points="282.5,-34.363 282.5,-55.363 463.5,-55.363 463.5,-34.363 282.5,-34.363"/>
<text text-anchor="start" x="337" y="-41.163" font-family="Times,serif" font-size="14.00" fill="#000000">mask_key</text>
</g>
<!-- frame_header__seq&#45;&gt;websocket__seq -->
<g id="edge3" class="edge">
<title>frame_header__seq:finished_type&#45;&gt;websocket__seq:trailing_frames__repeat</title>
<path fill="none" stroke="#404040" d="M463.5,-192.363C500.5072,-192.363 475.1088,-244.5886 507,-263.363 664.2705,-355.9488 736.3549,-284.1371 914.7659,-281.4403"/>
<polygon fill="#404040" stroke="#404040" points="915.0267,-284.9385 925,-281.363 914.9738,-277.9387 915.0267,-284.9385"/>
</g>
<!-- frame_header__inst__len_payload -->
<g id="node3" class="node">
<title>frame_header__inst__len_payload</title>
<polygon fill="#e0ffe0" stroke="transparent" points="515,-107.363 515,-128.363 606,-128.363 606,-107.363 515,-107.363"/>
<polygon fill="none" stroke="#000000" points="515,-107.363 515,-128.363 606,-128.363 606,-107.363 515,-107.363"/>
<text text-anchor="start" x="553.5" y="-114.163" font-family="Times,serif" font-size="14.00" fill="#000000">id</text>
<polygon fill="#e0ffe0" stroke="transparent" points="606,-107.363 606,-128.363 1611,-128.363 1611,-107.363 606,-107.363"/>
<polygon fill="none" stroke="#000000" points="606,-107.363 606,-128.363 1611,-128.363 1611,-107.363 606,-107.363"/>
<text text-anchor="start" x="1089" y="-114.163" font-family="Times,serif" font-size="14.00" fill="#000000">value</text>
<polygon fill="none" stroke="#000000" points="515,-86.363 515,-107.363 606,-107.363 606,-86.363 515,-86.363"/>
<text text-anchor="start" x="518" y="-93.163" font-family="Times,serif" font-size="14.00" fill="#000000">len_payload</text>
<polygon fill="none" stroke="#000000" points="606,-86.363 606,-107.363 1611,-107.363 1611,-86.363 606,-86.363"/>
<text text-anchor="start" x="609" y="-93.163" font-family="Times,serif" font-size="14.00" fill="#000000">(len_payload_primary &lt;= 125 ? len_payload_primary : (len_payload_primary == 126 ? len_payload_extended_1 : len_payload_extended_2))</text>
</g>
<!-- frame_header__seq&#45;&gt;frame_header__inst__len_payload -->
<g id="edge4" class="edge">
<title>frame_header__seq:len_payload_primary_type&#45;&gt;frame_header__inst__len_payload</title>
<path fill="none" stroke="#404040" d="M463.5,-107.363C474.4568,-106.6228 485.5263,-105.9131 496.6807,-105.2338"/>
<polygon fill="#404040" stroke="#404040" points="497.1748,-108.7105 506.9475,-104.6184 496.756,-101.723 497.1748,-108.7105"/>
</g>
<!-- frame_header__seq&#45;&gt;frame_header__inst__len_payload -->
<g id="edge5" class="edge">
<title>frame_header__seq:len_payload_primary_type&#45;&gt;frame_header__inst__len_payload</title>
<path fill="none" stroke="#404040" d="M463.8903,-107.363C474.7449,-107.363 485.7097,-107.363 496.7576,-107.363"/>
<polygon fill="#404040" stroke="#404040" points="496.9263,-110.8631 506.9263,-107.363 496.9262,-103.8631 496.9263,-110.8631"/>
</g>
<!-- frame_header__seq&#45;&gt;frame_header__inst__len_payload -->
<g id="edge6" class="edge">
<title>frame_header__seq:len_payload_primary_type&#45;&gt;frame_header__inst__len_payload</title>
<path fill="none" stroke="#404040" d="M463.8903,-107.3894C474.7449,-108.1218 485.7097,-108.8243 496.7576,-109.497"/>
<polygon fill="#404040" stroke="#404040" points="496.7348,-113.0018 506.9263,-110.1064 497.1536,-106.0144 496.7348,-113.0018"/>
</g>
<!-- frame_header__seq&#45;&gt;frame_header__inst__len_payload -->
<g id="edge7" class="edge">
<title>frame_header__seq:len_payload_extended_1_type&#45;&gt;frame_header__inst__len_payload</title>
<path fill="none" stroke="#404040" d="M463.5,-86.363C474.4636,-86.363 485.5392,-86.3986 496.6992,-86.4667"/>
<polygon fill="#404040" stroke="#404040" points="496.9469,-89.9684 506.9711,-86.5383 496.9958,-82.9685 496.9469,-89.9684"/>
</g>
<!-- frame_header__seq&#45;&gt;frame_header__inst__len_payload -->
<g id="edge8" class="edge">
<title>frame_header__seq:len_payload_extended_2_type&#45;&gt;frame_header__inst__len_payload</title>
<path fill="none" stroke="#404040" d="M463.5,-65.363C463.9429,-65.363 572.0593,-72.9328 696.3462,-81.645"/>
<polygon fill="#404040" stroke="#404040" points="696.2572,-85.1473 706.4775,-82.3552 696.7468,-78.1644 696.2572,-85.1473"/>
</g>
<!-- frame_header__inst__len_payload&#45;&gt;initial_frame__seq -->
<g id="edge10" class="edge">
<title>frame_header__inst__len_payload:len_payload_type&#45;&gt;initial_frame__seq:payload_bytes_size</title>
<path fill="none" stroke="#404040" d="M1619.1909,-130.8289C1622.0055,-132.5989 1624.6125,-134.4427 1627,-136.363 1653.2129,-157.4471 1626.4712,-182.7131 1647,-209.363 1667.1184,-235.4803 1700.1428,-253.4946 1726.3041,-264.5503"/>
<polygon fill="#404040" stroke="#404040" points="1725.0126,-267.8033 1735.5953,-268.3107 1727.6388,-261.3146 1725.0126,-267.8033"/>
</g>
<!-- frame_header__inst__len_payload&#45;&gt;initial_frame__seq -->
<g id="edge11" class="edge">
<title>frame_header__inst__len_payload:len_payload_type&#45;&gt;initial_frame__seq:payload_text_size</title>
<path fill="none" stroke="#404040" d="M1619.1909,-130.8289C1622.0055,-132.5989 1624.6125,-134.4427 1627,-136.363 1653.2129,-157.4471 1623.7138,-185.0854 1647,-209.363 1682.7297,-246.6139 1754.8784,-199.4586 1764.8477,-237.2561"/>
<polygon fill="#404040" stroke="#404040" points="1761.3897,-237.8239 1766,-247.363 1768.3446,-237.0309 1761.3897,-237.8239"/>
</g>
<!-- frame_header__inst__len_payload&#45;&gt;dataframe__seq -->
<g id="edge13" class="edge">
<title>frame_header__inst__len_payload:len_payload_type&#45;&gt;dataframe__seq:payload_bytes_size</title>
<path fill="none" stroke="#404040" d="M1619.0562,-115.2728C1642.8336,-115.611 1664.6957,-115.922 1683.8839,-116.195"/>
<polygon fill="#404040" stroke="#404040" points="1683.9173,-119.6957 1693.9661,-116.3384 1684.017,-112.6964 1683.9173,-119.6957"/>
</g>
<!-- frame_header__inst__len_payload&#45;&gt;dataframe__seq -->
<g id="edge14" class="edge">
<title>frame_header__inst__len_payload:len_payload_type&#45;&gt;dataframe__seq:payload_text_size</title>
<path fill="none" stroke="#404040" d="M1411.9256,-82.3595C1566.454,-73.4073 1721.6459,-68.156 1758.0294,-80.1349"/>
<polygon fill="#404040" stroke="#404040" points="1755.9653,-82.9638 1766,-86.363 1760.2753,-77.448 1755.9653,-82.9638"/>
</g>
<!-- initial_frame__seq&#45;&gt;frame_header__seq -->
<g id="edge9" class="edge">
<title>initial_frame__seq:header_type&#45;&gt;frame_header__seq</title>
<path fill="none" stroke="#000000" stroke-width="2" d="M2053,-300.363C2068.5556,-300.363 2063.4994,-323.8854 2053,-335.363 1924.6995,-475.6176 1816.8971,-364.9102 1627,-373.363 1502.6787,-378.8969 622.6908,-419.2112 507,-373.363 436.1775,-345.2962 373.4246,-287.7389 327.3753,-235.5731"/>
<polygon fill="#000000" stroke="#000000" stroke-width="2" points="329.9129,-233.1577 320.7034,-227.9198 324.6364,-237.7576 329.9129,-233.1577"/>
</g>
<!-- dataframe__seq&#45;&gt;frame_header__seq -->
<g id="edge12" class="edge">
<title>dataframe__seq:header_type&#45;&gt;frame_header__seq</title>
<path fill="none" stroke="#000000" stroke-width="2" d="M2053,-139.363C2053,-139.363 1655,-174.363 1655,-174.363 1617.922,-146.1656 1664.078,-101.5605 1627,-73.363 1428.8907,77.2968 754.4848,-46.9633 507,-73.363 498.4258,-74.2777 489.7189,-75.3577 480.9444,-76.5741"/>
<polygon fill="#000000" stroke="#000000" stroke-width="2" points="480.4118,-73.1146 471.0126,-78.0038 481.4092,-80.0432 480.4118,-73.1146"/>
</g>
</g>
</svg>
