<?xml version="1.0" encoding="UTF-8" standalone="no"?>
<!DOCTYPE svg PUBLIC "-//W3C//DTD SVG 1.1//EN"
 "http://www.w3.org/Graphics/SVG/1.1/DTD/svg11.dtd">
<!-- Generated by graphviz version 2.38.0 (20140413.2041)
 -->
<!-- Title: %3 Pages: 1 -->
<svg width="1999pt" height="428pt"
 viewBox="0.00 0.00 1999.00 427.75" xmlns="http://www.w3.org/2000/svg" xmlns:xlink="http://www.w3.org/1999/xlink">
<g id="graph0" class="graph" transform="scale(1 1) rotate(0) translate(4 423.754)">
<title>%3</title>
<polygon fill="white" stroke="none" points="-4,4 -4,-423.754 1995,-423.754 1995,4 -4,4"/>
<g id="clust1" class="cluster"><title>cluster__websocket</title>
<polygon fill="none" stroke="black" stroke-dasharray="1,5" points="8,-15.7542 8,-411.754 1983,-411.754 1983,-15.7542 8,-15.7542"/>
<text text-anchor="middle" x="995.5" y="-396.554" font-family="Times,serif" font-size="14.00">Websocket</text>
</g>
<g id="clust2" class="cluster"><title>cluster__frame_header</title>
<polygon fill="none" stroke="black" stroke-dasharray="1,5" points="16,-23.7542 16,-260.754 1533,-260.754 1533,-23.7542 16,-23.7542"/>
<text text-anchor="middle" x="774.5" y="-245.554" font-family="Times,serif" font-size="14.00">Websocket::FrameHeader</text>
</g>
<g id="clust3" class="cluster"><title>cluster__initial_frame</title>
<polygon fill="none" stroke="black" stroke-dasharray="1,5" points="1553,-236.754 1553,-367.754 1975,-367.754 1975,-236.754 1553,-236.754"/>
<text text-anchor="middle" x="1764" y="-352.554" font-family="Times,serif" font-size="14.00">Websocket::InitialFrame</text>
</g>
<g id="clust4" class="cluster"><title>cluster__dataframe</title>
<polygon fill="none" stroke="black" stroke-dasharray="1,5" points="1553,-75.7542 1553,-206.754 1975,-206.754 1975,-75.7542 1553,-75.7542"/>
<text text-anchor="middle" x="1764" y="-191.554" font-family="Times,serif" font-size="14.00">Websocket::Dataframe</text>
</g>
<!-- websocket__seq -->
<g id="node1" class="node"><title>websocket__seq</title>
<polygon fill="#e0ffe0" stroke="none" points="831,-335.754 831,-356.754 862,-356.754 862,-335.754 831,-335.754"/>
<polygon fill="none" stroke="black" points="831,-335.754 831,-356.754 862,-356.754 862,-335.754 831,-335.754"/>
<text text-anchor="start" x="834" y="-342.554" font-family="Times,serif" font-size="14.00">pos</text>
<polygon fill="#e0ffe0" stroke="none" points="862,-335.754 862,-356.754 896,-356.754 896,-335.754 862,-335.754"/>
<polygon fill="none" stroke="black" points="862,-335.754 862,-356.754 896,-356.754 896,-335.754 862,-335.754"/>
<text text-anchor="start" x="865" y="-342.554" font-family="Times,serif" font-size="14.00">size</text>
<polygon fill="#e0ffe0" stroke="none" points="896,-335.754 896,-356.754 992,-356.754 992,-335.754 896,-335.754"/>
<polygon fill="none" stroke="black" points="896,-335.754 896,-356.754 992,-356.754 992,-335.754 896,-335.754"/>
<text text-anchor="start" x="928" y="-342.554" font-family="Times,serif" font-size="14.00">type</text>
<polygon fill="#e0ffe0" stroke="none" points="992,-335.754 992,-356.754 1108,-356.754 1108,-335.754 992,-335.754"/>
<polygon fill="none" stroke="black" points="992,-335.754 992,-356.754 1108,-356.754 1108,-335.754 992,-335.754"/>
<text text-anchor="start" x="1043" y="-342.554" font-family="Times,serif" font-size="14.00">id</text>
<polygon fill="none" stroke="black" points="831,-314.754 831,-335.754 862,-335.754 862,-314.754 831,-314.754"/>
<text text-anchor="start" x="841.5" y="-321.554" font-family="Times,serif" font-size="14.00">0</text>
<polygon fill="none" stroke="black" points="862,-314.754 862,-335.754 896,-335.754 896,-314.754 862,-314.754"/>
<text text-anchor="start" x="872" y="-321.554" font-family="Times,serif" font-size="14.00">...</text>
<polygon fill="none" stroke="black" points="896,-314.754 896,-335.754 992,-335.754 992,-314.754 896,-314.754"/>
<text text-anchor="start" x="899" y="-321.554" font-family="Times,serif" font-size="14.00">InitialFrame</text>
<polygon fill="none" stroke="black" points="992,-314.754 992,-335.754 1108,-335.754 1108,-314.754 992,-314.754"/>
<text text-anchor="start" x="1004.5" y="-321.554" font-family="Times,serif" font-size="14.00">initial_frame</text>
<polygon fill="none" stroke="black" points="831,-293.754 831,-314.754 862,-314.754 862,-293.754 831,-293.754"/>
<text text-anchor="start" x="839.5" y="-300.554" font-family="Times,serif" font-size="14.00">...</text>
<polygon fill="none" stroke="black" points="862,-293.754 862,-314.754 896,-314.754 896,-293.754 862,-293.754"/>
<text text-anchor="start" x="872" y="-300.554" font-family="Times,serif" font-size="14.00">...</text>
<polygon fill="none" stroke="black" points="896,-293.754 896,-314.754 992,-314.754 992,-293.754 896,-293.754"/>
<text text-anchor="start" x="906" y="-300.554" font-family="Times,serif" font-size="14.00">Dataframe</text>
<polygon fill="none" stroke="black" points="992,-293.754 992,-314.754 1108,-314.754 1108,-293.754 992,-293.754"/>
<text text-anchor="start" x="995" y="-300.554" font-family="Times,serif" font-size="14.00">trailing_frames</text>
<polygon fill="none" stroke="black" points="831,-272.754 831,-293.754 1108,-293.754 1108,-272.754 831,-272.754"/>
<text text-anchor="start" x="864.5" y="-279.554" font-family="Times,serif" font-size="14.00">repeat until _.header.finished</text>
</g>
<!-- initial_frame__seq -->
<g id="node4" class="node"><title>initial_frame__seq</title>
<polygon fill="#e0ffe0" stroke="none" points="1569,-311.754 1569,-332.754 1600,-332.754 1600,-311.754 1569,-311.754"/>
<polygon fill="none" stroke="black" points="1569,-311.754 1569,-332.754 1600,-332.754 1600,-311.754 1569,-311.754"/>
<text text-anchor="start" x="1572" y="-318.554" font-family="Times,serif" font-size="14.00">pos</text>
<polygon fill="#e0ffe0" stroke="none" points="1600,-311.754 1600,-332.754 1744,-332.754 1744,-311.754 1600,-311.754"/>
<polygon fill="none" stroke="black" points="1600,-311.754 1600,-332.754 1744,-332.754 1744,-311.754 1600,-311.754"/>
<text text-anchor="start" x="1658" y="-318.554" font-family="Times,serif" font-size="14.00">size</text>
<polygon fill="#e0ffe0" stroke="none" points="1744,-311.754 1744,-332.754 1850,-332.754 1850,-311.754 1744,-311.754"/>
<polygon fill="none" stroke="black" points="1744,-311.754 1744,-332.754 1850,-332.754 1850,-311.754 1744,-311.754"/>
<text text-anchor="start" x="1781" y="-318.554" font-family="Times,serif" font-size="14.00">type</text>
<polygon fill="#e0ffe0" stroke="none" points="1850,-311.754 1850,-332.754 1959,-332.754 1959,-311.754 1850,-311.754"/>
<polygon fill="none" stroke="black" points="1850,-311.754 1850,-332.754 1959,-332.754 1959,-311.754 1850,-311.754"/>
<text text-anchor="start" x="1897.5" y="-318.554" font-family="Times,serif" font-size="14.00">id</text>
<polygon fill="none" stroke="black" points="1569,-290.754 1569,-311.754 1600,-311.754 1600,-290.754 1569,-290.754"/>
<text text-anchor="start" x="1579.5" y="-297.554" font-family="Times,serif" font-size="14.00">0</text>
<polygon fill="none" stroke="black" points="1600,-290.754 1600,-311.754 1744,-311.754 1744,-290.754 1600,-290.754"/>
<text text-anchor="start" x="1662.5" y="-297.554" font-family="Times,serif" font-size="14.00">12</text>
<polygon fill="none" stroke="black" points="1744,-290.754 1744,-311.754 1850,-311.754 1850,-290.754 1744,-290.754"/>
<text text-anchor="start" x="1747" y="-297.554" font-family="Times,serif" font-size="14.00">FrameHeader</text>
<polygon fill="none" stroke="black" points="1850,-290.754 1850,-311.754 1959,-311.754 1959,-290.754 1850,-290.754"/>
<text text-anchor="start" x="1879.5" y="-297.554" font-family="Times,serif" font-size="14.00">header</text>
<polygon fill="none" stroke="black" points="1569,-269.754 1569,-290.754 1600,-290.754 1600,-269.754 1569,-269.754"/>
<text text-anchor="start" x="1575" y="-276.554" font-family="Times,serif" font-size="14.00">12</text>
<polygon fill="none" stroke="black" points="1600,-269.754 1600,-290.754 1744,-290.754 1744,-269.754 1600,-269.754"/>
<text text-anchor="start" x="1603" y="-276.554" font-family="Times,serif" font-size="14.00">header.len_payload</text>
<polygon fill="none" stroke="black" points="1744,-269.754 1744,-290.754 1850,-290.754 1850,-269.754 1744,-269.754"/>
<polygon fill="none" stroke="black" points="1850,-269.754 1850,-290.754 1959,-290.754 1959,-269.754 1850,-269.754"/>
<text text-anchor="start" x="1853" y="-276.554" font-family="Times,serif" font-size="14.00">payload_bytes</text>
<polygon fill="none" stroke="black" points="1569,-248.754 1569,-269.754 1600,-269.754 1600,-248.754 1569,-248.754"/>
<text text-anchor="start" x="1577.5" y="-255.554" font-family="Times,serif" font-size="14.00">...</text>
<polygon fill="none" stroke="black" points="1600,-248.754 1600,-269.754 1744,-269.754 1744,-248.754 1600,-248.754"/>
<text text-anchor="start" x="1603" y="-255.554" font-family="Times,serif" font-size="14.00">header.len_payload</text>
<polygon fill="none" stroke="black" points="1744,-248.754 1744,-269.754 1850,-269.754 1850,-248.754 1744,-248.754"/>
<text text-anchor="start" x="1760" y="-255.554" font-family="Times,serif" font-size="14.00">str(UTF&#45;8)</text>
<polygon fill="none" stroke="black" points="1850,-248.754 1850,-269.754 1959,-269.754 1959,-248.754 1850,-248.754"/>
<text text-anchor="start" x="1858.5" y="-255.554" font-family="Times,serif" font-size="14.00">payload_text</text>
</g>
<!-- websocket__seq&#45;&gt;initial_frame__seq -->
<g id="edge1" class="edge"><title>websocket__seq:initial_frame_type&#45;&gt;initial_frame__seq</title>
<path fill="none" stroke="black" stroke-width="2" d="M1109,-325.754C1256.65,-325.754 1422.79,-316.748 1550.67,-307.873"/>
<polygon fill="black" stroke="black" stroke-width="2" points="1551.24,-311.342 1560.97,-307.153 1550.75,-304.359 1551.24,-311.342"/>
</g>
<!-- dataframe__seq -->
<g id="node5" class="node"><title>dataframe__seq</title>
<polygon fill="#e0ffe0" stroke="none" points="1569,-150.754 1569,-171.754 1600,-171.754 1600,-150.754 1569,-150.754"/>
<polygon fill="none" stroke="black" points="1569,-150.754 1569,-171.754 1600,-171.754 1600,-150.754 1569,-150.754"/>
<text text-anchor="start" x="1572" y="-157.554" font-family="Times,serif" font-size="14.00">pos</text>
<polygon fill="#e0ffe0" stroke="none" points="1600,-150.754 1600,-171.754 1744,-171.754 1744,-150.754 1600,-150.754"/>
<polygon fill="none" stroke="black" points="1600,-150.754 1600,-171.754 1744,-171.754 1744,-150.754 1600,-150.754"/>
<text text-anchor="start" x="1658" y="-157.554" font-family="Times,serif" font-size="14.00">size</text>
<polygon fill="#e0ffe0" stroke="none" points="1744,-150.754 1744,-171.754 1850,-171.754 1850,-150.754 1744,-150.754"/>
<polygon fill="none" stroke="black" points="1744,-150.754 1744,-171.754 1850,-171.754 1850,-150.754 1744,-150.754"/>
<text text-anchor="start" x="1781" y="-157.554" font-family="Times,serif" font-size="14.00">type</text>
<polygon fill="#e0ffe0" stroke="none" points="1850,-150.754 1850,-171.754 1959,-171.754 1959,-150.754 1850,-150.754"/>
<polygon fill="none" stroke="black" points="1850,-150.754 1850,-171.754 1959,-171.754 1959,-150.754 1850,-150.754"/>
<text text-anchor="start" x="1897.5" y="-157.554" font-family="Times,serif" font-size="14.00">id</text>
<polygon fill="none" stroke="black" points="1569,-129.754 1569,-150.754 1600,-150.754 1600,-129.754 1569,-129.754"/>
<text text-anchor="start" x="1579.5" y="-136.554" font-family="Times,serif" font-size="14.00">0</text>
<polygon fill="none" stroke="black" points="1600,-129.754 1600,-150.754 1744,-150.754 1744,-129.754 1600,-129.754"/>
<text text-anchor="start" x="1662.5" y="-136.554" font-family="Times,serif" font-size="14.00">12</text>
<polygon fill="none" stroke="black" points="1744,-129.754 1744,-150.754 1850,-150.754 1850,-129.754 1744,-129.754"/>
<text text-anchor="start" x="1747" y="-136.554" font-family="Times,serif" font-size="14.00">FrameHeader</text>
<polygon fill="none" stroke="black" points="1850,-129.754 1850,-150.754 1959,-150.754 1959,-129.754 1850,-129.754"/>
<text text-anchor="start" x="1879.5" y="-136.554" font-family="Times,serif" font-size="14.00">header</text>
<polygon fill="none" stroke="black" points="1569,-108.754 1569,-129.754 1600,-129.754 1600,-108.754 1569,-108.754"/>
<text text-anchor="start" x="1575" y="-115.554" font-family="Times,serif" font-size="14.00">12</text>
<polygon fill="none" stroke="black" points="1600,-108.754 1600,-129.754 1744,-129.754 1744,-108.754 1600,-108.754"/>
<text text-anchor="start" x="1603" y="-115.554" font-family="Times,serif" font-size="14.00">header.len_payload</text>
<polygon fill="none" stroke="black" points="1744,-108.754 1744,-129.754 1850,-129.754 1850,-108.754 1744,-108.754"/>
<polygon fill="none" stroke="black" points="1850,-108.754 1850,-129.754 1959,-129.754 1959,-108.754 1850,-108.754"/>
<text text-anchor="start" x="1853" y="-115.554" font-family="Times,serif" font-size="14.00">payload_bytes</text>
<polygon fill="none" stroke="black" points="1569,-87.7542 1569,-108.754 1600,-108.754 1600,-87.7542 1569,-87.7542"/>
<text text-anchor="start" x="1577.5" y="-94.5542" font-family="Times,serif" font-size="14.00">...</text>
<polygon fill="none" stroke="black" points="1600,-87.7542 1600,-108.754 1744,-108.754 1744,-87.7542 1600,-87.7542"/>
<text text-anchor="start" x="1603" y="-94.5542" font-family="Times,serif" font-size="14.00">header.len_payload</text>
<polygon fill="none" stroke="black" points="1744,-87.7542 1744,-108.754 1850,-108.754 1850,-87.7542 1744,-87.7542"/>
<text text-anchor="start" x="1760" y="-94.5542" font-family="Times,serif" font-size="14.00">str(UTF&#45;8)</text>
<polygon fill="none" stroke="black" points="1850,-87.7542 1850,-108.754 1959,-108.754 1959,-87.7542 1850,-87.7542"/>
<text text-anchor="start" x="1858.5" y="-94.5542" font-family="Times,serif" font-size="14.00">payload_text</text>
</g>
<!-- websocket__seq&#45;&gt;dataframe__seq -->
<g id="edge2" class="edge"><title>websocket__seq:trailing_frames_type&#45;&gt;dataframe__seq</title>
<path fill="none" stroke="black" stroke-width="2" d="M1109,-303.754C1298.24,-303.754 1371.86,-363.984 1533,-264.754 1547.28,-255.96 1540.55,-243.99 1553,-232.754 1575.85,-212.135 1603.58,-194.696 1631.3,-180.362"/>
<polygon fill="black" stroke="black" stroke-width="2" points="1632.94,-183.452 1640.29,-175.817 1629.78,-177.204 1632.94,-183.452"/>
</g>
<!-- frame_header__seq -->
<g id="node2" class="node"><title>frame_header__seq</title>
<polygon fill="#e0ffe0" stroke="none" points="32.5,-203.754 32.5,-224.754 63.5,-224.754 63.5,-203.754 32.5,-203.754"/>
<polygon fill="none" stroke="black" points="32.5,-203.754 32.5,-224.754 63.5,-224.754 63.5,-203.754 32.5,-203.754"/>
<text text-anchor="start" x="35.5" y="-210.554" font-family="Times,serif" font-size="14.00">pos</text>
<polygon fill="#e0ffe0" stroke="none" points="63.5,-203.754 63.5,-224.754 97.5,-224.754 97.5,-203.754 63.5,-203.754"/>
<polygon fill="none" stroke="black" points="63.5,-203.754 63.5,-224.754 97.5,-224.754 97.5,-203.754 63.5,-203.754"/>
<text text-anchor="start" x="66.5" y="-210.554" font-family="Times,serif" font-size="14.00">size</text>
<polygon fill="#e0ffe0" stroke="none" points="97.5,-203.754 97.5,-224.754 188.5,-224.754 188.5,-203.754 97.5,-203.754"/>
<polygon fill="none" stroke="black" points="97.5,-203.754 97.5,-224.754 188.5,-224.754 188.5,-203.754 97.5,-203.754"/>
<text text-anchor="start" x="127" y="-210.554" font-family="Times,serif" font-size="14.00">type</text>
<polygon fill="#e0ffe0" stroke="none" points="188.5,-203.754 188.5,-224.754 369.5,-224.754 369.5,-203.754 188.5,-203.754"/>
<polygon fill="none" stroke="black" points="188.5,-203.754 188.5,-224.754 369.5,-224.754 369.5,-203.754 188.5,-203.754"/>
<text text-anchor="start" x="272" y="-210.554" font-family="Times,serif" font-size="14.00">id</text>
<polygon fill="none" stroke="black" points="32.5,-182.754 32.5,-203.754 63.5,-203.754 63.5,-182.754 32.5,-182.754"/>
<text text-anchor="start" x="43" y="-189.554" font-family="Times,serif" font-size="14.00">0</text>
<polygon fill="none" stroke="black" points="63.5,-182.754 63.5,-203.754 97.5,-203.754 97.5,-182.754 63.5,-182.754"/>
<text text-anchor="start" x="71" y="-189.554" font-family="Times,serif" font-size="14.00">1b</text>
<polygon fill="none" stroke="black" points="97.5,-182.754 97.5,-203.754 188.5,-203.754 188.5,-182.754 97.5,-182.754"/>
<text text-anchor="start" x="106.5" y="-189.554" font-family="Times,serif" font-size="14.00">BitsType1</text>
<polygon fill="none" stroke="black" points="188.5,-182.754 188.5,-203.754 369.5,-203.754 369.5,-182.754 188.5,-182.754"/>
<text text-anchor="start" x="250.5" y="-189.554" font-family="Times,serif" font-size="14.00">finished</text>
<polygon fill="none" stroke="black" points="32.5,-161.754 32.5,-182.754 63.5,-182.754 63.5,-161.754 32.5,-161.754"/>
<text text-anchor="start" x="36.5" y="-168.554" font-family="Times,serif" font-size="14.00">0:1</text>
<polygon fill="none" stroke="black" points="63.5,-161.754 63.5,-182.754 97.5,-182.754 97.5,-161.754 63.5,-161.754"/>
<text text-anchor="start" x="71" y="-168.554" font-family="Times,serif" font-size="14.00">3b</text>
<polygon fill="none" stroke="black" points="97.5,-161.754 97.5,-182.754 188.5,-182.754 188.5,-161.754 97.5,-161.754"/>
<text text-anchor="start" x="133.5" y="-168.554" font-family="Times,serif" font-size="14.00">b3</text>
<polygon fill="none" stroke="black" points="188.5,-161.754 188.5,-182.754 369.5,-182.754 369.5,-161.754 188.5,-161.754"/>
<text text-anchor="start" x="247" y="-168.554" font-family="Times,serif" font-size="14.00">reserved</text>
<polygon fill="none" stroke="black" points="32.5,-140.754 32.5,-161.754 63.5,-161.754 63.5,-140.754 32.5,-140.754"/>
<text text-anchor="start" x="36.5" y="-147.554" font-family="Times,serif" font-size="14.00">0:4</text>
<polygon fill="none" stroke="black" points="63.5,-140.754 63.5,-161.754 97.5,-161.754 97.5,-140.754 63.5,-140.754"/>
<text text-anchor="start" x="71" y="-147.554" font-family="Times,serif" font-size="14.00">4b</text>
<polygon fill="none" stroke="black" points="97.5,-140.754 97.5,-161.754 188.5,-161.754 188.5,-140.754 97.5,-140.754"/>
<text text-anchor="start" x="100.5" y="-147.554" font-family="Times,serif" font-size="14.00">b4→Opcode</text>
<polygon fill="none" stroke="black" points="188.5,-140.754 188.5,-161.754 369.5,-161.754 369.5,-140.754 188.5,-140.754"/>
<text text-anchor="start" x="253" y="-147.554" font-family="Times,serif" font-size="14.00">opcode</text>
<polygon fill="none" stroke="black" points="32.5,-119.754 32.5,-140.754 63.5,-140.754 63.5,-119.754 32.5,-119.754"/>
<text text-anchor="start" x="43" y="-126.554" font-family="Times,serif" font-size="14.00">1</text>
<polygon fill="none" stroke="black" points="63.5,-119.754 63.5,-140.754 97.5,-140.754 97.5,-119.754 63.5,-119.754"/>
<text text-anchor="start" x="71" y="-126.554" font-family="Times,serif" font-size="14.00">1b</text>
<polygon fill="none" stroke="black" points="97.5,-119.754 97.5,-140.754 188.5,-140.754 188.5,-119.754 97.5,-119.754"/>
<text text-anchor="start" x="106.5" y="-126.554" font-family="Times,serif" font-size="14.00">BitsType1</text>
<polygon fill="none" stroke="black" points="188.5,-119.754 188.5,-140.754 369.5,-140.754 369.5,-119.754 188.5,-119.754"/>
<text text-anchor="start" x="241" y="-126.554" font-family="Times,serif" font-size="14.00">is_masked</text>
<polygon fill="none" stroke="black" points="32.5,-98.7542 32.5,-119.754 63.5,-119.754 63.5,-98.7542 32.5,-98.7542"/>
<text text-anchor="start" x="36.5" y="-105.554" font-family="Times,serif" font-size="14.00">1:1</text>
<polygon fill="none" stroke="black" points="63.5,-98.7542 63.5,-119.754 97.5,-119.754 97.5,-98.7542 63.5,-98.7542"/>
<text text-anchor="start" x="71" y="-105.554" font-family="Times,serif" font-size="14.00">7b</text>
<polygon fill="none" stroke="black" points="97.5,-98.7542 97.5,-119.754 188.5,-119.754 188.5,-98.7542 97.5,-98.7542"/>
<text text-anchor="start" x="133.5" y="-105.554" font-family="Times,serif" font-size="14.00">b7</text>
<polygon fill="none" stroke="black" points="188.5,-98.7542 188.5,-119.754 369.5,-119.754 369.5,-98.7542 188.5,-98.7542"/>
<text text-anchor="start" x="204" y="-105.554" font-family="Times,serif" font-size="14.00">len_payload_primary</text>
<polygon fill="none" stroke="black" points="32.5,-77.7542 32.5,-98.7542 63.5,-98.7542 63.5,-77.7542 32.5,-77.7542"/>
<text text-anchor="start" x="43" y="-84.5542" font-family="Times,serif" font-size="14.00">2</text>
<polygon fill="none" stroke="black" points="63.5,-77.7542 63.5,-98.7542 97.5,-98.7542 97.5,-77.7542 63.5,-77.7542"/>
<text text-anchor="start" x="75.5" y="-84.5542" font-family="Times,serif" font-size="14.00">2</text>
<polygon fill="none" stroke="black" points="97.5,-77.7542 97.5,-98.7542 188.5,-98.7542 188.5,-77.7542 97.5,-77.7542"/>
<text text-anchor="start" x="125" y="-84.5542" font-family="Times,serif" font-size="14.00">u2be</text>
<polygon fill="none" stroke="black" points="188.5,-77.7542 188.5,-98.7542 369.5,-98.7542 369.5,-77.7542 188.5,-77.7542"/>
<text text-anchor="start" x="191.5" y="-84.5542" font-family="Times,serif" font-size="14.00">len_payload_extended_1</text>
<polygon fill="none" stroke="black" points="32.5,-56.7542 32.5,-77.7542 63.5,-77.7542 63.5,-56.7542 32.5,-56.7542"/>
<text text-anchor="start" x="43" y="-63.5542" font-family="Times,serif" font-size="14.00">4</text>
<polygon fill="none" stroke="black" points="63.5,-56.7542 63.5,-77.7542 97.5,-77.7542 97.5,-56.7542 63.5,-56.7542"/>
<text text-anchor="start" x="75.5" y="-63.5542" font-family="Times,serif" font-size="14.00">4</text>
<polygon fill="none" stroke="black" points="97.5,-56.7542 97.5,-77.7542 188.5,-77.7542 188.5,-56.7542 97.5,-56.7542"/>
<text text-anchor="start" x="125" y="-63.5542" font-family="Times,serif" font-size="14.00">u4be</text>
<polygon fill="none" stroke="black" points="188.5,-56.7542 188.5,-77.7542 369.5,-77.7542 369.5,-56.7542 188.5,-56.7542"/>
<text text-anchor="start" x="191.5" y="-63.5542" font-family="Times,serif" font-size="14.00">len_payload_extended_2</text>
<polygon fill="none" stroke="black" points="32.5,-35.7542 32.5,-56.7542 63.5,-56.7542 63.5,-35.7542 32.5,-35.7542"/>
<text text-anchor="start" x="43" y="-42.5542" font-family="Times,serif" font-size="14.00">8</text>
<polygon fill="none" stroke="black" points="63.5,-35.7542 63.5,-56.7542 97.5,-56.7542 97.5,-35.7542 63.5,-35.7542"/>
<text text-anchor="start" x="75.5" y="-42.5542" font-family="Times,serif" font-size="14.00">4</text>
<polygon fill="none" stroke="black" points="97.5,-35.7542 97.5,-56.7542 188.5,-56.7542 188.5,-35.7542 97.5,-35.7542"/>
<text text-anchor="start" x="125" y="-42.5542" font-family="Times,serif" font-size="14.00">u4be</text>
<polygon fill="none" stroke="black" points="188.5,-35.7542 188.5,-56.7542 369.5,-56.7542 369.5,-35.7542 188.5,-35.7542"/>
<text text-anchor="start" x="243" y="-42.5542" font-family="Times,serif" font-size="14.00">mask_key</text>
</g>
<!-- frame_header__seq&#45;&gt;websocket__seq -->
<g id="edge3" class="edge"><title>frame_header__seq:finished_type&#45;&gt;websocket__seq:trailing_frames__repeat</title>
<path fill="none" stroke="#404040" d="M370.5,-193.754C407.277,-193.754 381.405,-245.932 413,-264.754 569.412,-357.934 641.788,-285.55 819.79,-282.832"/>
<polygon fill="#404040" stroke="#404040" points="820.027,-286.33 830,-282.754 819.974,-279.331 820.027,-286.33"/>
</g>
<!-- frame_header__inst__len_payload -->
<g id="node3" class="node"><title>frame_header__inst__len_payload</title>
<polygon fill="#e0ffe0" stroke="none" points="421,-108.754 421,-129.754 512,-129.754 512,-108.754 421,-108.754"/>
<polygon fill="none" stroke="black" points="421,-108.754 421,-129.754 512,-129.754 512,-108.754 421,-108.754"/>
<text text-anchor="start" x="459.5" y="-115.554" font-family="Times,serif" font-size="14.00">id</text>
<polygon fill="#e0ffe0" stroke="none" points="512,-108.754 512,-129.754 1517,-129.754 1517,-108.754 512,-108.754"/>
<polygon fill="none" stroke="black" points="512,-108.754 512,-129.754 1517,-129.754 1517,-108.754 512,-108.754"/>
<text text-anchor="start" x="995" y="-115.554" font-family="Times,serif" font-size="14.00">value</text>
<polygon fill="none" stroke="black" points="421,-87.7542 421,-108.754 512,-108.754 512,-87.7542 421,-87.7542"/>
<text text-anchor="start" x="424" y="-94.5542" font-family="Times,serif" font-size="14.00">len_payload</text>
<polygon fill="none" stroke="black" points="512,-87.7542 512,-108.754 1517,-108.754 1517,-87.7542 512,-87.7542"/>
<text text-anchor="start" x="515" y="-94.5542" font-family="Times,serif" font-size="14.00">(len_payload_primary &lt;= 125 ? len_payload_primary : (len_payload_primary == 126 ? len_payload_extended_1 : len_payload_extended_2))</text>
</g>
<!-- frame_header__seq&#45;&gt;frame_header__inst__len_payload -->
<g id="edge4" class="edge"><title>frame_header__seq:len_payload_primary_type&#45;&gt;frame_header__inst__len_payload</title>
<path fill="none" stroke="#404040" d="M370.5,-108.754C381.014,-108.042 391.632,-107.357 402.33,-106.701"/>
<polygon fill="#404040" stroke="#404040" points="402.839,-110.177 412.61,-106.08 402.417,-103.189 402.839,-110.177"/>
</g>
<!-- frame_header__seq&#45;&gt;frame_header__inst__len_payload -->
<g id="edge5" class="edge"><title>frame_header__seq:len_payload_primary_type&#45;&gt;frame_header__inst__len_payload</title>
<path fill="none" stroke="#404040" d="M370.889,-108.754C381.401,-108.754 392.016,-108.754 402.71,-108.754"/>
<polygon fill="#404040" stroke="#404040" points="402.986,-112.254 412.986,-108.754 402.986,-105.254 402.986,-112.254"/>
</g>
<!-- frame_header__seq&#45;&gt;frame_header__inst__len_payload -->
<g id="edge6" class="edge"><title>frame_header__seq:len_payload_primary_type&#45;&gt;frame_header__inst__len_payload</title>
<path fill="none" stroke="#404040" d="M370.889,-108.781C381.401,-109.492 392.016,-110.176 402.71,-110.831"/>
<polygon fill="#404040" stroke="#404040" points="402.794,-114.342 412.986,-111.45 403.215,-107.355 402.794,-114.342"/>
</g>
<!-- frame_header__seq&#45;&gt;frame_header__inst__len_payload -->
<g id="edge7" class="edge"><title>frame_header__seq:len_payload_extended_1_type&#45;&gt;frame_header__inst__len_payload</title>
<path fill="none" stroke="#404040" d="M370.5,-87.7542C381.021,-87.7542 391.645,-87.7871 402.348,-87.8504"/>
<polygon fill="#404040" stroke="#404040" points="402.609,-91.3521 412.633,-87.9202 402.657,-84.3523 402.609,-91.3521"/>
</g>
<!-- frame_header__seq&#45;&gt;frame_header__inst__len_payload -->
<g id="edge8" class="edge"><title>frame_header__seq:len_payload_extended_2_type&#45;&gt;frame_header__inst__len_payload</title>
<path fill="none" stroke="#404040" d="M370.5,-66.7542C389.436,-66.7542 394.111,-68.4239 413,-69.7542 474.05,-74.0539 538.877,-78.6143 601.873,-83.0429"/>
<polygon fill="#404040" stroke="#404040" points="601.746,-86.5425 611.967,-83.7524 602.237,-79.5597 601.746,-86.5425"/>
</g>
<!-- frame_header__inst__len_payload&#45;&gt;initial_frame__seq -->
<g id="edge10" class="edge"><title>frame_header__inst__len_payload:len_payload_type&#45;&gt;initial_frame__seq:payload_bytes_size</title>
<path fill="none" stroke="#404040" d="M1525.2,-132.229C1528.01,-133.996 1530.62,-135.837 1533,-137.754 1559.21,-158.839 1532.52,-184.067 1553,-210.754 1572.92,-236.714 1605.61,-254.726 1631.54,-265.821"/>
<polygon fill="#404040" stroke="#404040" points="1630.53,-269.187 1641.11,-269.737 1633.18,-262.709 1630.53,-269.187"/>
</g>
<!-- frame_header__inst__len_payload&#45;&gt;initial_frame__seq -->
<g id="edge11" class="edge"><title>frame_header__inst__len_payload:len_payload_type&#45;&gt;initial_frame__seq:payload_text_size</title>
<path fill="none" stroke="#404040" d="M1525.2,-132.229C1528.01,-133.996 1530.62,-135.837 1533,-137.754 1559.21,-158.839 1529.62,-186.566 1553,-210.754 1588.79,-247.779 1660.89,-200.069 1670.85,-237.682"/>
<polygon fill="#404040" stroke="#404040" points="1667.39,-238.217 1672,-247.754 1674.34,-237.421 1667.39,-238.217"/>
</g>
<!-- frame_header__inst__len_payload&#45;&gt;dataframe__seq -->
<g id="edge13" class="edge"><title>frame_header__inst__len_payload:len_payload_type&#45;&gt;dataframe__seq:payload_bytes_size</title>
<path fill="none" stroke="#404040" d="M1525.33,-116.676C1549.05,-117.015 1570.85,-117.326 1589.96,-117.598"/>
<polygon fill="#404040" stroke="#404040" points="1589.94,-121.098 1599.99,-117.741 1590.04,-114.099 1589.94,-121.098"/>
</g>
<!-- frame_header__inst__len_payload&#45;&gt;dataframe__seq -->
<g id="edge14" class="edge"><title>frame_header__inst__len_payload:len_payload_type&#45;&gt;dataframe__seq:payload_text_size</title>
<path fill="none" stroke="#404040" d="M1310.46,-83.751C1467.04,-74.3219 1626.41,-68.457 1663.8,-80.4697"/>
<polygon fill="#404040" stroke="#404040" points="1661.93,-83.4464 1672,-86.7542 1666.19,-77.8916 1661.93,-83.4464"/>
</g>
<!-- initial_frame__seq&#45;&gt;frame_header__seq -->
<g id="edge9" class="edge"><title>initial_frame__seq:header_type&#45;&gt;frame_header__seq</title>
<path fill="none" stroke="black" stroke-width="2" d="M1960,-301.754C1975.56,-301.754 1969.67,-325.423 1959,-336.754 1828.71,-475.162 1722.9,-366.301 1533,-374.754 1408.68,-380.288 526.203,-426.441 413,-374.754 350.677,-346.299 299.657,-289.404 263.353,-237.708"/>
<polygon fill="black" stroke="black" stroke-width="2" points="266.218,-235.698 257.653,-229.461 260.459,-239.678 266.218,-235.698"/>
</g>
<!-- dataframe__seq&#45;&gt;frame_header__seq -->
<g id="edge12" class="edge"><title>dataframe__seq:header_type&#45;&gt;frame_header__seq</title>
<path fill="none" stroke="black" stroke-width="2" d="M1960,-140.754C1975.56,-140.754 1970.16,-164.909 1959,-175.754 1895.57,-237.394 1631.4,-229.292 1561,-175.754 1523.92,-147.557 1570.08,-102.952 1533,-74.7542 1334.89,75.9056 659.807,-42.6334 413,-74.7542 404.448,-75.8672 395.749,-77.2234 386.997,-78.7707"/>
<polygon fill="black" stroke="black" stroke-width="2" points="386.297,-75.3406 377.097,-80.5961 387.566,-82.2246 386.297,-75.3406"/>
</g>
</g>
</svg>
