<?xml version="1.0" encoding="UTF-8" standalone="no"?>
<!DOCTYPE svg PUBLIC "-//W3C//DTD SVG 1.1//EN"
 "http://www.w3.org/Graphics/SVG/1.1/DTD/svg11.dtd">
<!-- Generated by graphviz version 2.43.0 (0)
 -->
<!-- Title: %3 Pages: 1 -->
<svg width="1334pt" height="194pt"
 viewBox="0.00 0.00 1334.00 194.00" xmlns="http://www.w3.org/2000/svg" xmlns:xlink="http://www.w3.org/1999/xlink">
<g id="graph0" class="graph" transform="scale(1 1) rotate(0) translate(4 190)">
<title>%3</title>
<polygon fill="white" stroke="transparent" points="-4,4 -4,-190 1330,-190 1330,4 -4,4"/>
<g id="clust1" class="cluster">
<title>cluster__quake_pak</title>
<polygon fill="none" stroke="black" stroke-dasharray="1,5" points="8,-8 8,-178 1318,-178 1318,-8 8,-8"/>
<text text-anchor="middle" x="663" y="-162.8" font-family="Times,serif" font-size="14.00">QuakePak</text>
</g>
<g id="clust2" class="cluster">
<title>cluster__index_entry</title>
<polygon fill="none" stroke="black" stroke-dasharray="1,5" points="890,-16 890,-147 1310,-147 1310,-16 890,-16"/>
<text text-anchor="middle" x="1100" y="-131.8" font-family="Times,serif" font-size="14.00">QuakePak::IndexEntry</text>
</g>
<g id="clust3" class="cluster">
<title>cluster__index_struct</title>
<polygon fill="none" stroke="black" stroke-dasharray="1,5" points="629,-27 629,-138 870,-138 870,-27 629,-27"/>
<text text-anchor="middle" x="749.5" y="-122.8" font-family="Times,serif" font-size="14.00">QuakePak::IndexStruct</text>
</g>
<!-- quake_pak__seq -->
<g id="node1" class="node">
<title>quake_pak__seq</title>
<polygon fill="#e0ffe0" stroke="transparent" points="24.5,-113 24.5,-134 55.5,-134 55.5,-113 24.5,-113"/>
<polygon fill="none" stroke="black" points="24.5,-113 24.5,-134 55.5,-134 55.5,-113 24.5,-113"/>
<text text-anchor="start" x="27.5" y="-119.8" font-family="Times,serif" font-size="14.00">pos</text>
<polygon fill="#e0ffe0" stroke="transparent" points="55.5,-113 55.5,-134 89.5,-134 89.5,-113 55.5,-113"/>
<polygon fill="none" stroke="black" points="55.5,-113 55.5,-134 89.5,-134 89.5,-113 55.5,-113"/>
<text text-anchor="start" x="58.5" y="-119.8" font-family="Times,serif" font-size="14.00">size</text>
<polygon fill="#e0ffe0" stroke="transparent" points="89.5,-113 89.5,-134 183.5,-134 183.5,-113 89.5,-113"/>
<polygon fill="none" stroke="black" points="89.5,-113 89.5,-134 183.5,-134 183.5,-113 89.5,-113"/>
<text text-anchor="start" x="120.5" y="-119.8" font-family="Times,serif" font-size="14.00">type</text>
<polygon fill="#e0ffe0" stroke="transparent" points="183.5,-113 183.5,-134 257.5,-134 257.5,-113 183.5,-113"/>
<polygon fill="none" stroke="black" points="183.5,-113 183.5,-134 257.5,-134 257.5,-113 183.5,-113"/>
<text text-anchor="start" x="213.5" y="-119.8" font-family="Times,serif" font-size="14.00">id</text>
<polygon fill="none" stroke="black" points="24.5,-92 24.5,-113 55.5,-113 55.5,-92 24.5,-92"/>
<text text-anchor="start" x="35" y="-98.8" font-family="Times,serif" font-size="14.00">0</text>
<polygon fill="none" stroke="black" points="55.5,-92 55.5,-113 89.5,-113 89.5,-92 55.5,-92"/>
<text text-anchor="start" x="67.5" y="-98.8" font-family="Times,serif" font-size="14.00">4</text>
<polygon fill="none" stroke="black" points="89.5,-92 89.5,-113 183.5,-113 183.5,-92 89.5,-92"/>
<text text-anchor="start" x="92.5" y="-98.8" font-family="Times,serif" font-size="14.00">50 41 43 4B</text>
<polygon fill="none" stroke="black" points="183.5,-92 183.5,-113 257.5,-113 257.5,-92 183.5,-92"/>
<text text-anchor="start" x="199" y="-98.8" font-family="Times,serif" font-size="14.00">magic</text>
<polygon fill="none" stroke="black" points="24.5,-71 24.5,-92 55.5,-92 55.5,-71 24.5,-71"/>
<text text-anchor="start" x="35" y="-77.8" font-family="Times,serif" font-size="14.00">4</text>
<polygon fill="none" stroke="black" points="55.5,-71 55.5,-92 89.5,-92 89.5,-71 55.5,-71"/>
<text text-anchor="start" x="67.5" y="-77.8" font-family="Times,serif" font-size="14.00">4</text>
<polygon fill="none" stroke="black" points="89.5,-71 89.5,-92 183.5,-92 183.5,-71 89.5,-71"/>
<text text-anchor="start" x="121" y="-77.8" font-family="Times,serif" font-size="14.00">u4le</text>
<polygon fill="none" stroke="black" points="183.5,-71 183.5,-92 257.5,-92 257.5,-71 183.5,-71"/>
<text text-anchor="start" x="187" y="-77.8" font-family="Times,serif" font-size="14.00">ofs_index</text>
<polygon fill="none" stroke="black" points="24.5,-50 24.5,-71 55.5,-71 55.5,-50 24.5,-50"/>
<text text-anchor="start" x="35" y="-56.8" font-family="Times,serif" font-size="14.00">8</text>
<polygon fill="none" stroke="black" points="55.5,-50 55.5,-71 89.5,-71 89.5,-50 55.5,-50"/>
<text text-anchor="start" x="67.5" y="-56.8" font-family="Times,serif" font-size="14.00">4</text>
<polygon fill="none" stroke="black" points="89.5,-50 89.5,-71 183.5,-71 183.5,-50 89.5,-50"/>
<text text-anchor="start" x="121" y="-56.8" font-family="Times,serif" font-size="14.00">u4le</text>
<polygon fill="none" stroke="black" points="183.5,-50 183.5,-71 257.5,-71 257.5,-50 183.5,-50"/>
<text text-anchor="start" x="186.5" y="-56.8" font-family="Times,serif" font-size="14.00">len_index</text>
</g>
<!-- quake_pak__inst__index -->
<g id="node2" class="node">
<title>quake_pak__inst__index</title>
<polygon fill="#e0ffe0" stroke="transparent" points="309,-82 309,-103 382,-103 382,-82 309,-82"/>
<polygon fill="none" stroke="black" points="309,-82 309,-103 382,-103 382,-82 309,-82"/>
<text text-anchor="start" x="333" y="-88.8" font-family="Times,serif" font-size="14.00">pos</text>
<polygon fill="#e0ffe0" stroke="transparent" points="382,-82 382,-103 456,-103 456,-82 382,-82"/>
<polygon fill="none" stroke="black" points="382,-82 382,-103 456,-103 456,-82 382,-82"/>
<text text-anchor="start" x="405" y="-88.8" font-family="Times,serif" font-size="14.00">size</text>
<polygon fill="#e0ffe0" stroke="transparent" points="456,-82 456,-103 547,-103 547,-82 456,-82"/>
<polygon fill="none" stroke="black" points="456,-82 456,-103 547,-103 547,-82 456,-82"/>
<text text-anchor="start" x="485.5" y="-88.8" font-family="Times,serif" font-size="14.00">type</text>
<polygon fill="#e0ffe0" stroke="transparent" points="547,-82 547,-103 593,-103 593,-82 547,-82"/>
<polygon fill="none" stroke="black" points="547,-82 547,-103 593,-103 593,-82 547,-82"/>
<text text-anchor="start" x="563" y="-88.8" font-family="Times,serif" font-size="14.00">id</text>
<polygon fill="none" stroke="black" points="309,-61 309,-82 382,-82 382,-61 309,-61"/>
<text text-anchor="start" x="312" y="-67.8" font-family="Times,serif" font-size="14.00">ofs_index</text>
<polygon fill="none" stroke="black" points="382,-61 382,-82 456,-82 456,-61 382,-61"/>
<text text-anchor="start" x="385" y="-67.8" font-family="Times,serif" font-size="14.00">len_index</text>
<polygon fill="none" stroke="black" points="456,-61 456,-82 547,-82 547,-61 456,-61"/>
<text text-anchor="start" x="459" y="-67.8" font-family="Times,serif" font-size="14.00">IndexStruct</text>
<polygon fill="none" stroke="black" points="547,-61 547,-82 593,-82 593,-61 547,-61"/>
<text text-anchor="start" x="550" y="-67.8" font-family="Times,serif" font-size="14.00">index</text>
</g>
<!-- quake_pak__seq&#45;&gt;quake_pak__inst__index -->
<g id="edge1" class="edge">
<title>quake_pak__seq:ofs_index_type&#45;&gt;quake_pak__inst__index:index_pos</title>
<path fill="none" stroke="#404040" d="M258.5,-81C277.09,-81 283.44,-74.14 297.83,-71.78"/>
<polygon fill="#404040" stroke="#404040" points="298.3,-75.26 308,-71 297.76,-68.28 298.3,-75.26"/>
</g>
<!-- quake_pak__seq&#45;&gt;quake_pak__inst__index -->
<g id="edge2" class="edge">
<title>quake_pak__seq:len_index_type&#45;&gt;quake_pak__inst__index:index_size</title>
<path fill="none" stroke="#404040" d="M258.5,-60C326.07,-60 409.65,4.01 418.27,-49.87"/>
<polygon fill="#404040" stroke="#404040" points="414.79,-50.28 419,-60 421.77,-49.77 414.79,-50.28"/>
</g>
<!-- index_struct__seq -->
<g id="node5" class="node">
<title>index_struct__seq</title>
<polygon fill="#e0ffe0" stroke="transparent" points="645.5,-81 645.5,-102 676.5,-102 676.5,-81 645.5,-81"/>
<polygon fill="none" stroke="black" points="645.5,-81 645.5,-102 676.5,-102 676.5,-81 645.5,-81"/>
<text text-anchor="start" x="648.5" y="-87.8" font-family="Times,serif" font-size="14.00">pos</text>
<polygon fill="#e0ffe0" stroke="transparent" points="676.5,-81 676.5,-102 710.5,-102 710.5,-81 676.5,-81"/>
<polygon fill="none" stroke="black" points="676.5,-81 676.5,-102 710.5,-102 710.5,-81 676.5,-81"/>
<text text-anchor="start" x="679.5" y="-87.8" font-family="Times,serif" font-size="14.00">size</text>
<polygon fill="#e0ffe0" stroke="transparent" points="710.5,-81 710.5,-102 797.5,-102 797.5,-81 710.5,-81"/>
<polygon fill="none" stroke="black" points="710.5,-81 710.5,-102 797.5,-102 797.5,-81 710.5,-81"/>
<text text-anchor="start" x="738" y="-87.8" font-family="Times,serif" font-size="14.00">type</text>
<polygon fill="#e0ffe0" stroke="transparent" points="797.5,-81 797.5,-102 854.5,-102 854.5,-81 797.5,-81"/>
<polygon fill="none" stroke="black" points="797.5,-81 797.5,-102 854.5,-102 854.5,-81 797.5,-81"/>
<text text-anchor="start" x="819" y="-87.8" font-family="Times,serif" font-size="14.00">id</text>
<polygon fill="none" stroke="black" points="645.5,-60 645.5,-81 676.5,-81 676.5,-60 645.5,-60"/>
<text text-anchor="start" x="656" y="-66.8" font-family="Times,serif" font-size="14.00">0</text>
<polygon fill="none" stroke="black" points="676.5,-60 676.5,-81 710.5,-81 710.5,-60 676.5,-60"/>
<text text-anchor="start" x="684" y="-66.8" font-family="Times,serif" font-size="14.00">64</text>
<polygon fill="none" stroke="black" points="710.5,-60 710.5,-81 797.5,-81 797.5,-60 710.5,-60"/>
<text text-anchor="start" x="713.5" y="-66.8" font-family="Times,serif" font-size="14.00">IndexEntry</text>
<polygon fill="none" stroke="black" points="797.5,-60 797.5,-81 854.5,-81 854.5,-60 797.5,-60"/>
<text text-anchor="start" x="800.5" y="-66.8" font-family="Times,serif" font-size="14.00">entries</text>
<polygon fill="none" stroke="black" points="645.5,-39 645.5,-60 854.5,-60 854.5,-39 645.5,-39"/>
<text text-anchor="start" x="665.5" y="-45.8" font-family="Times,serif" font-size="14.00">repeat to end of stream</text>
</g>
<!-- quake_pak__inst__index&#45;&gt;index_struct__seq -->
<g id="edge3" class="edge">
<title>quake_pak__inst__index:index_type&#45;&gt;index_struct__seq</title>
<path fill="none" stroke="black" stroke-width="2" d="M594,-71C604.58,-71 615.56,-71 626.57,-71"/>
<polygon fill="black" stroke="black" stroke-width="2" points="626.69,-74.5 636.69,-71 626.69,-67.5 626.69,-74.5"/>
</g>
<!-- index_entry__seq -->
<g id="node3" class="node">
<title>index_entry__seq</title>
<polygon fill="#e0ffe0" stroke="transparent" points="906,-91 906,-112 937,-112 937,-91 906,-91"/>
<polygon fill="none" stroke="black" points="906,-91 906,-112 937,-112 937,-91 906,-91"/>
<text text-anchor="start" x="909" y="-97.8" font-family="Times,serif" font-size="14.00">pos</text>
<polygon fill="#e0ffe0" stroke="transparent" points="937,-91 937,-112 971,-112 971,-91 937,-91"/>
<polygon fill="none" stroke="black" points="937,-91 937,-112 971,-112 971,-91 937,-91"/>
<text text-anchor="start" x="940" y="-97.8" font-family="Times,serif" font-size="14.00">size</text>
<polygon fill="#e0ffe0" stroke="transparent" points="971,-91 971,-112 1052,-112 1052,-91 971,-91"/>
<polygon fill="none" stroke="black" points="971,-91 971,-112 1052,-112 1052,-91 971,-91"/>
<text text-anchor="start" x="995.5" y="-97.8" font-family="Times,serif" font-size="14.00">type</text>
<polygon fill="#e0ffe0" stroke="transparent" points="1052,-91 1052,-112 1098,-112 1098,-91 1052,-91"/>
<polygon fill="none" stroke="black" points="1052,-91 1052,-112 1098,-112 1098,-91 1052,-91"/>
<text text-anchor="start" x="1068" y="-97.8" font-family="Times,serif" font-size="14.00">id</text>
<polygon fill="none" stroke="black" points="906,-70 906,-91 937,-91 937,-70 906,-70"/>
<text text-anchor="start" x="916.5" y="-76.8" font-family="Times,serif" font-size="14.00">0</text>
<polygon fill="none" stroke="black" points="937,-70 937,-91 971,-91 971,-70 937,-70"/>
<text text-anchor="start" x="944.5" y="-76.8" font-family="Times,serif" font-size="14.00">56</text>
<polygon fill="none" stroke="black" points="971,-70 971,-91 1052,-91 1052,-70 971,-70"/>
<text text-anchor="start" x="974" y="-76.8" font-family="Times,serif" font-size="14.00">str(UTF&#45;8)</text>
<polygon fill="none" stroke="black" points="1052,-70 1052,-91 1098,-91 1098,-70 1052,-70"/>
<text text-anchor="start" x="1055" y="-76.8" font-family="Times,serif" font-size="14.00">name</text>
<polygon fill="none" stroke="black" points="906,-49 906,-70 937,-70 937,-49 906,-49"/>
<text text-anchor="start" x="912" y="-55.8" font-family="Times,serif" font-size="14.00">56</text>
<polygon fill="none" stroke="black" points="937,-49 937,-70 971,-70 971,-49 937,-49"/>
<text text-anchor="start" x="949" y="-55.8" font-family="Times,serif" font-size="14.00">4</text>
<polygon fill="none" stroke="black" points="971,-49 971,-70 1052,-70 1052,-49 971,-49"/>
<text text-anchor="start" x="996" y="-55.8" font-family="Times,serif" font-size="14.00">u4le</text>
<polygon fill="none" stroke="black" points="1052,-49 1052,-70 1098,-70 1098,-49 1052,-49"/>
<text text-anchor="start" x="1064" y="-55.8" font-family="Times,serif" font-size="14.00">ofs</text>
<polygon fill="none" stroke="black" points="906,-28 906,-49 937,-49 937,-28 906,-28"/>
<text text-anchor="start" x="912" y="-34.8" font-family="Times,serif" font-size="14.00">60</text>
<polygon fill="none" stroke="black" points="937,-28 937,-49 971,-49 971,-28 937,-28"/>
<text text-anchor="start" x="949" y="-34.8" font-family="Times,serif" font-size="14.00">4</text>
<polygon fill="none" stroke="black" points="971,-28 971,-49 1052,-49 1052,-28 971,-28"/>
<text text-anchor="start" x="996" y="-34.8" font-family="Times,serif" font-size="14.00">u4le</text>
<polygon fill="none" stroke="black" points="1052,-28 1052,-49 1098,-49 1098,-28 1052,-28"/>
<text text-anchor="start" x="1061" y="-34.8" font-family="Times,serif" font-size="14.00">size</text>
</g>
<!-- index_entry__inst__body -->
<g id="node4" class="node">
<title>index_entry__inst__body</title>
<polygon fill="#e0ffe0" stroke="transparent" points="1150,-59 1150,-80 1181,-80 1181,-59 1150,-59"/>
<polygon fill="none" stroke="black" points="1150,-59 1150,-80 1181,-80 1181,-59 1150,-59"/>
<text text-anchor="start" x="1153" y="-65.8" font-family="Times,serif" font-size="14.00">pos</text>
<polygon fill="#e0ffe0" stroke="transparent" points="1181,-59 1181,-80 1215,-80 1215,-59 1181,-59"/>
<polygon fill="none" stroke="black" points="1181,-59 1181,-80 1215,-80 1215,-59 1181,-59"/>
<text text-anchor="start" x="1184" y="-65.8" font-family="Times,serif" font-size="14.00">size</text>
<polygon fill="#e0ffe0" stroke="transparent" points="1215,-59 1215,-80 1253,-80 1253,-59 1215,-59"/>
<polygon fill="none" stroke="black" points="1215,-59 1215,-80 1253,-80 1253,-59 1215,-59"/>
<text text-anchor="start" x="1218" y="-65.8" font-family="Times,serif" font-size="14.00">type</text>
<polygon fill="#e0ffe0" stroke="transparent" points="1253,-59 1253,-80 1294,-80 1294,-59 1253,-59"/>
<polygon fill="none" stroke="black" points="1253,-59 1253,-80 1294,-80 1294,-59 1253,-59"/>
<text text-anchor="start" x="1266.5" y="-65.8" font-family="Times,serif" font-size="14.00">id</text>
<polygon fill="none" stroke="black" points="1150,-38 1150,-59 1181,-59 1181,-38 1150,-38"/>
<text text-anchor="start" x="1154.5" y="-44.8" font-family="Times,serif" font-size="14.00">ofs</text>
<polygon fill="none" stroke="black" points="1181,-38 1181,-59 1215,-59 1215,-38 1181,-38"/>
<text text-anchor="start" x="1184" y="-44.8" font-family="Times,serif" font-size="14.00">size</text>
<polygon fill="none" stroke="black" points="1215,-38 1215,-59 1253,-59 1253,-38 1215,-38"/>
<polygon fill="none" stroke="black" points="1253,-38 1253,-59 1294,-59 1294,-38 1253,-38"/>
<text text-anchor="start" x="1256" y="-44.8" font-family="Times,serif" font-size="14.00">body</text>
</g>
<!-- index_entry__seq&#45;&gt;index_entry__inst__body -->
<g id="edge4" class="edge">
<title>index_entry__seq:ofs_type&#45;&gt;index_entry__inst__body:body_pos</title>
<path fill="none" stroke="#404040" d="M1099,-59C1117.84,-59 1124.16,-51.46 1138.7,-48.86"/>
<polygon fill="#404040" stroke="#404040" points="1139.33,-52.32 1149,-48 1138.74,-45.35 1139.33,-52.32"/>
</g>
<!-- index_entry__seq&#45;&gt;index_entry__inst__body -->
<g id="edge5" class="edge">
<title>index_entry__seq:size_type&#45;&gt;index_entry__inst__body:body_size</title>
<path fill="none" stroke="#404040" d="M1099,-38C1138.88,-38 1187.78,-1.04 1196.6,-26.86"/>
<polygon fill="#404040" stroke="#404040" points="1193.17,-27.57 1198,-37 1200.1,-26.62 1193.17,-27.57"/>
</g>
<!-- index_struct__seq&#45;&gt;index_entry__seq -->
<g id="edge6" class="edge">
<title>index_struct__seq:entries_type&#45;&gt;index_entry__seq</title>
<path fill="none" stroke="black" stroke-width="2" d="M855.5,-70C865.84,-70 876.59,-70 887.35,-70"/>
<polygon fill="black" stroke="black" stroke-width="2" points="887.67,-73.5 897.67,-70 887.67,-66.5 887.67,-73.5"/>
</g>
</g>
</svg>
