<?xml version="1.0" encoding="UTF-8" standalone="no"?>
<!DOCTYPE svg PUBLIC "-//W3C//DTD SVG 1.1//EN"
 "http://www.w3.org/Graphics/SVG/1.1/DTD/svg11.dtd">
<!-- Generated by graphviz version 2.38.0 (20140413.2041)
 -->
<!-- Title: %3 Pages: 1 -->
<svg width="1720pt" height="586pt"
 viewBox="0.00 0.00 1720.00 586.23" xmlns="http://www.w3.org/2000/svg" xmlns:xlink="http://www.w3.org/1999/xlink">
<g id="graph0" class="graph" transform="scale(1 1) rotate(0) translate(4 582.235)">
<title>%3</title>
<polygon fill="white" stroke="none" points="-4,4 -4,-582.235 1716,-582.235 1716,4 -4,4"/>
<g id="clust1" class="cluster"><title>cluster__apm_partition_table</title>
<polygon fill="none" stroke="black" stroke-dasharray="1,5" points="8,-8 8,-563 1704,-563 1704,-8 8,-8"/>
<text text-anchor="middle" x="856" y="-547.8" font-family="Times,serif" font-size="14.00">ApmPartitionTable</text>
</g>
<g id="clust2" class="cluster"><title>cluster__partition_entry</title>
<polygon fill="none" stroke="black" stroke-dasharray="1,5" points="695,-16 695,-463 1696,-463 1696,-16 695,-16"/>
<text text-anchor="middle" x="1195.5" y="-447.8" font-family="Times,serif" font-size="14.00">ApmPartitionTable::PartitionEntry</text>
</g>
<!-- apm_partition_table__seq -->
<g id="node1" class="node"><title>apm_partition_table__seq</title>
<polygon fill="#e0ffe0" stroke="none" points="29,-503 29,-524 60,-524 60,-503 29,-503"/>
<polygon fill="none" stroke="black" points="29,-503 29,-524 60,-524 60,-503 29,-503"/>
<text text-anchor="start" x="32" y="-509.8" font-family="Times,serif" font-size="14.00">pos</text>
<polygon fill="#e0ffe0" stroke="none" points="60,-503 60,-524 94,-524 94,-503 60,-503"/>
<polygon fill="none" stroke="black" points="60,-503 60,-524 94,-524 94,-503 60,-503"/>
<text text-anchor="start" x="63" y="-509.8" font-family="Times,serif" font-size="14.00">size</text>
<polygon fill="#e0ffe0" stroke="none" points="94,-503 94,-524 132,-524 132,-503 94,-503"/>
<polygon fill="none" stroke="black" points="94,-503 94,-524 132,-524 132,-503 94,-503"/>
<text text-anchor="start" x="97" y="-509.8" font-family="Times,serif" font-size="14.00">type</text>
<polygon fill="#e0ffe0" stroke="none" points="132,-503 132,-524 152,-524 152,-503 132,-503"/>
<polygon fill="none" stroke="black" points="132,-503 132,-524 152,-524 152,-503 132,-503"/>
<text text-anchor="start" x="135" y="-509.8" font-family="Times,serif" font-size="14.00">id</text>
</g>
<!-- apm_partition_table__inst__sector_size -->
<g id="node2" class="node"><title>apm_partition_table__inst__sector_size</title>
<polygon fill="#e0ffe0" stroke="none" points="24,-453 24,-474 111,-474 111,-453 24,-453"/>
<polygon fill="none" stroke="black" points="24,-453 24,-474 111,-474 111,-453 24,-453"/>
<text text-anchor="start" x="60.5" y="-459.8" font-family="Times,serif" font-size="14.00">id</text>
<polygon fill="#e0ffe0" stroke="none" points="111,-453 111,-474 156,-474 156,-453 111,-453"/>
<polygon fill="none" stroke="black" points="111,-453 111,-474 156,-474 156,-453 111,-453"/>
<text text-anchor="start" x="114" y="-459.8" font-family="Times,serif" font-size="14.00">value</text>
<polygon fill="none" stroke="black" points="24,-432 24,-453 111,-453 111,-432 24,-432"/>
<text text-anchor="start" x="27" y="-438.8" font-family="Times,serif" font-size="14.00">sector_size</text>
<polygon fill="none" stroke="black" points="111,-432 111,-453 156,-453 156,-432 111,-432"/>
<text text-anchor="start" x="119.5" y="-438.8" font-family="Times,serif" font-size="14.00">512</text>
</g>
<!-- apm_partition_table__inst__partition_lookup -->
<g id="node3" class="node"><title>apm_partition_table__inst__partition_lookup</title>
<polygon fill="#e0ffe0" stroke="none" points="209.5,-317 209.5,-338 337.5,-338 337.5,-317 209.5,-317"/>
<polygon fill="none" stroke="black" points="209.5,-317 209.5,-338 337.5,-338 337.5,-317 209.5,-317"/>
<text text-anchor="start" x="261" y="-323.8" font-family="Times,serif" font-size="14.00">pos</text>
<polygon fill="#e0ffe0" stroke="none" points="337.5,-317 337.5,-338 424.5,-338 424.5,-317 337.5,-317"/>
<polygon fill="none" stroke="black" points="337.5,-317 337.5,-338 424.5,-338 424.5,-317 337.5,-317"/>
<text text-anchor="start" x="367" y="-323.8" font-family="Times,serif" font-size="14.00">size</text>
<polygon fill="#e0ffe0" stroke="none" points="424.5,-317 424.5,-338 533.5,-338 533.5,-317 424.5,-317"/>
<polygon fill="none" stroke="black" points="424.5,-317 424.5,-338 533.5,-338 533.5,-317 424.5,-317"/>
<text text-anchor="start" x="463" y="-323.8" font-family="Times,serif" font-size="14.00">type</text>
<polygon fill="#e0ffe0" stroke="none" points="533.5,-317 533.5,-338 657.5,-338 657.5,-317 533.5,-317"/>
<polygon fill="none" stroke="black" points="533.5,-317 533.5,-338 657.5,-338 657.5,-317 533.5,-317"/>
<text text-anchor="start" x="588.5" y="-323.8" font-family="Times,serif" font-size="14.00">id</text>
<polygon fill="none" stroke="black" points="209.5,-296 209.5,-317 337.5,-317 337.5,-296 209.5,-296"/>
<text text-anchor="start" x="212.5" y="-302.8" font-family="Times,serif" font-size="14.00">_root.sector_size</text>
<polygon fill="none" stroke="black" points="337.5,-296 337.5,-317 424.5,-317 424.5,-296 337.5,-296"/>
<text text-anchor="start" x="340.5" y="-302.8" font-family="Times,serif" font-size="14.00">sector_size</text>
<polygon fill="none" stroke="black" points="424.5,-296 424.5,-317 533.5,-317 533.5,-296 424.5,-296"/>
<text text-anchor="start" x="427.5" y="-302.8" font-family="Times,serif" font-size="14.00">PartitionEntry</text>
<polygon fill="none" stroke="black" points="533.5,-296 533.5,-317 657.5,-317 657.5,-296 533.5,-296"/>
<text text-anchor="start" x="536.5" y="-302.8" font-family="Times,serif" font-size="14.00">partition_lookup</text>
</g>
<!-- apm_partition_table__inst__sector_size&#45;&gt;apm_partition_table__inst__partition_lookup -->
<g id="edge1" class="edge"><title>apm_partition_table__inst__sector_size:sector_size_type&#45;&gt;apm_partition_table__inst__partition_lookup:partition_lookup_pos</title>
<path fill="none" stroke="#404040" d="M116,-428C161.578,-382.422 142.75,-313.721 198.476,-306.602"/>
<polygon fill="#404040" stroke="#404040" points="198.728,-310.093 208.5,-306 198.308,-303.106 198.728,-310.093"/>
</g>
<!-- apm_partition_table__inst__sector_size&#45;&gt;apm_partition_table__inst__partition_lookup -->
<g id="edge2" class="edge"><title>apm_partition_table__inst__sector_size:sector_size_type&#45;&gt;apm_partition_table__inst__partition_lookup:partition_lookup_size</title>
<path fill="none" stroke="#404040" d="M116,-428C165.426,-378.574 140.185,-329.56 201.5,-296 268.152,-259.518 370.767,-219.241 379.852,-285.005"/>
<polygon fill="#404040" stroke="#404040" points="376.361,-285.247 380.5,-295 383.346,-284.795 376.361,-285.247"/>
</g>
<!-- apm_partition_table__inst__partition_entries -->
<g id="node4" class="node"><title>apm_partition_table__inst__partition_entries</title>
<polygon fill="#e0ffe0" stroke="none" points="208.5,-406 208.5,-427 336.5,-427 336.5,-406 208.5,-406"/>
<polygon fill="none" stroke="black" points="208.5,-406 208.5,-427 336.5,-427 336.5,-406 208.5,-406"/>
<text text-anchor="start" x="260" y="-412.8" font-family="Times,serif" font-size="14.00">pos</text>
<polygon fill="#e0ffe0" stroke="none" points="336.5,-406 336.5,-427 423.5,-427 423.5,-406 336.5,-406"/>
<polygon fill="none" stroke="black" points="336.5,-406 336.5,-427 423.5,-427 423.5,-406 336.5,-406"/>
<text text-anchor="start" x="366" y="-412.8" font-family="Times,serif" font-size="14.00">size</text>
<polygon fill="#e0ffe0" stroke="none" points="423.5,-406 423.5,-427 532.5,-427 532.5,-406 423.5,-406"/>
<polygon fill="none" stroke="black" points="423.5,-406 423.5,-427 532.5,-427 532.5,-406 423.5,-406"/>
<text text-anchor="start" x="462" y="-412.8" font-family="Times,serif" font-size="14.00">type</text>
<polygon fill="#e0ffe0" stroke="none" points="532.5,-406 532.5,-427 659.5,-427 659.5,-406 532.5,-406"/>
<polygon fill="none" stroke="black" points="532.5,-406 532.5,-427 659.5,-427 659.5,-406 532.5,-406"/>
<text text-anchor="start" x="589" y="-412.8" font-family="Times,serif" font-size="14.00">id</text>
<polygon fill="none" stroke="black" points="208.5,-385 208.5,-406 336.5,-406 336.5,-385 208.5,-385"/>
<text text-anchor="start" x="211.5" y="-391.8" font-family="Times,serif" font-size="14.00">_root.sector_size</text>
<polygon fill="none" stroke="black" points="336.5,-385 336.5,-406 423.5,-406 423.5,-385 336.5,-385"/>
<text text-anchor="start" x="339.5" y="-391.8" font-family="Times,serif" font-size="14.00">sector_size</text>
<polygon fill="none" stroke="black" points="423.5,-385 423.5,-406 532.5,-406 532.5,-385 423.5,-385"/>
<text text-anchor="start" x="426.5" y="-391.8" font-family="Times,serif" font-size="14.00">PartitionEntry</text>
<polygon fill="none" stroke="black" points="532.5,-385 532.5,-406 659.5,-406 659.5,-385 532.5,-385"/>
<text text-anchor="start" x="535.5" y="-391.8" font-family="Times,serif" font-size="14.00">partition_entries</text>
<polygon fill="none" stroke="black" points="208.5,-364 208.5,-385 659.5,-385 659.5,-364 208.5,-364"/>
<text text-anchor="start" x="227.5" y="-370.8" font-family="Times,serif" font-size="14.00">repeat _root.partition_lookup.number_of_partitions times</text>
</g>
<!-- apm_partition_table__inst__sector_size&#45;&gt;apm_partition_table__inst__partition_entries -->
<g id="edge4" class="edge"><title>apm_partition_table__inst__sector_size:sector_size_type&#45;&gt;apm_partition_table__inst__partition_entries:partition_entries_pos</title>
<path fill="none" stroke="#404040" d="M116,-428C144.061,-399.939 161.279,-395.588 197.355,-395.063"/>
<polygon fill="#404040" stroke="#404040" points="197.522,-398.562 207.5,-395 197.478,-391.563 197.522,-398.562"/>
</g>
<!-- apm_partition_table__inst__sector_size&#45;&gt;apm_partition_table__inst__partition_entries -->
<g id="edge5" class="edge"><title>apm_partition_table__inst__sector_size:sector_size_type&#45;&gt;apm_partition_table__inst__partition_entries:partition_entries_size</title>
<path fill="none" stroke="#404040" d="M116,-428C170.65,-373.35 266.866,-376.284 326.395,-384.715"/>
<polygon fill="#404040" stroke="#404040" points="325.932,-388.184 336.344,-386.223 326.981,-381.263 325.932,-388.184"/>
</g>
<!-- partition_entry__inst__partition -->
<g id="node6" class="node"><title>partition_entry__inst__partition</title>
<polygon fill="#e0ffe0" stroke="none" points="1061.5,-375 1061.5,-396 1320.5,-396 1320.5,-375 1061.5,-375"/>
<polygon fill="none" stroke="black" points="1061.5,-375 1061.5,-396 1320.5,-396 1320.5,-375 1061.5,-375"/>
<text text-anchor="start" x="1178.5" y="-381.8" font-family="Times,serif" font-size="14.00">pos</text>
<polygon fill="#e0ffe0" stroke="none" points="1320.5,-375 1320.5,-396 1573.5,-396 1573.5,-375 1320.5,-375"/>
<polygon fill="none" stroke="black" points="1320.5,-375 1320.5,-396 1573.5,-396 1573.5,-375 1320.5,-375"/>
<text text-anchor="start" x="1433" y="-381.8" font-family="Times,serif" font-size="14.00">size</text>
<polygon fill="#e0ffe0" stroke="none" points="1573.5,-375 1573.5,-396 1611.5,-396 1611.5,-375 1573.5,-375"/>
<polygon fill="none" stroke="black" points="1573.5,-375 1573.5,-396 1611.5,-396 1611.5,-375 1573.5,-375"/>
<text text-anchor="start" x="1576.5" y="-381.8" font-family="Times,serif" font-size="14.00">type</text>
<polygon fill="#e0ffe0" stroke="none" points="1611.5,-375 1611.5,-396 1680.5,-396 1680.5,-375 1611.5,-375"/>
<polygon fill="none" stroke="black" points="1611.5,-375 1611.5,-396 1680.5,-396 1680.5,-375 1611.5,-375"/>
<text text-anchor="start" x="1639" y="-381.8" font-family="Times,serif" font-size="14.00">id</text>
<polygon fill="none" stroke="black" points="1061.5,-354 1061.5,-375 1320.5,-375 1320.5,-354 1061.5,-354"/>
<text text-anchor="start" x="1064.5" y="-360.8" font-family="Times,serif" font-size="14.00">(partition_start * _root.sector_size)</text>
<polygon fill="none" stroke="black" points="1320.5,-354 1320.5,-375 1573.5,-375 1573.5,-354 1320.5,-354"/>
<text text-anchor="start" x="1323.5" y="-360.8" font-family="Times,serif" font-size="14.00">(partition_size * _root.sector_size)</text>
<polygon fill="none" stroke="black" points="1573.5,-354 1573.5,-375 1611.5,-375 1611.5,-354 1573.5,-354"/>
<polygon fill="none" stroke="black" points="1611.5,-354 1611.5,-375 1680.5,-375 1680.5,-354 1611.5,-354"/>
<text text-anchor="start" x="1614.5" y="-360.8" font-family="Times,serif" font-size="14.00">partition</text>
</g>
<!-- apm_partition_table__inst__sector_size&#45;&gt;partition_entry__inst__partition -->
<g id="edge9" class="edge"><title>apm_partition_table__inst__sector_size:sector_size_type&#45;&gt;partition_entry__inst__partition:partition_pos</title>
<path fill="none" stroke="#404040" d="M116,-428C149.964,-394.036 154.721,-479.97 200,-496 242.787,-511.148 980.224,-522.602 1017,-496 1063.92,-462.06 1006.81,-375.742 1050.38,-365.085"/>
<polygon fill="#404040" stroke="#404040" points="1050.93,-368.546 1060.5,-364 1050.18,-361.586 1050.93,-368.546"/>
</g>
<!-- apm_partition_table__inst__sector_size&#45;&gt;partition_entry__inst__partition -->
<g id="edge11" class="edge"><title>apm_partition_table__inst__sector_size:sector_size_type&#45;&gt;partition_entry__inst__partition:partition_size</title>
<path fill="none" stroke="#404040" d="M116,-428C152.673,-391.327 151.906,-489.589 200,-509 368.36,-576.951 874.839,-621.927 1017,-509 1072.38,-465.011 997.679,-398.059 1053,-354 1068.6,-341.573 1382.6,-332.783 1438.9,-347.828"/>
<polygon fill="#404040" stroke="#404040" points="1437.13,-350.848 1447.5,-353 1440.73,-344.848 1437.13,-350.848"/>
</g>
<!-- partition_entry__inst__data -->
<g id="node7" class="node"><title>partition_entry__inst__data</title>
<polygon fill="#e0ffe0" stroke="none" points="1107.5,-301 1107.5,-322 1336.5,-322 1336.5,-301 1107.5,-301"/>
<polygon fill="none" stroke="black" points="1107.5,-301 1107.5,-322 1336.5,-322 1336.5,-301 1107.5,-301"/>
<text text-anchor="start" x="1209.5" y="-307.8" font-family="Times,serif" font-size="14.00">pos</text>
<polygon fill="#e0ffe0" stroke="none" points="1336.5,-301 1336.5,-322 1558.5,-322 1558.5,-301 1336.5,-301"/>
<polygon fill="none" stroke="black" points="1336.5,-301 1336.5,-322 1558.5,-322 1558.5,-301 1336.5,-301"/>
<text text-anchor="start" x="1433.5" y="-307.8" font-family="Times,serif" font-size="14.00">size</text>
<polygon fill="#e0ffe0" stroke="none" points="1558.5,-301 1558.5,-322 1596.5,-322 1596.5,-301 1558.5,-301"/>
<polygon fill="none" stroke="black" points="1558.5,-301 1558.5,-322 1596.5,-322 1596.5,-301 1558.5,-301"/>
<text text-anchor="start" x="1561.5" y="-307.8" font-family="Times,serif" font-size="14.00">type</text>
<polygon fill="#e0ffe0" stroke="none" points="1596.5,-301 1596.5,-322 1634.5,-322 1634.5,-301 1596.5,-301"/>
<polygon fill="none" stroke="black" points="1596.5,-301 1596.5,-322 1634.5,-322 1634.5,-301 1596.5,-301"/>
<text text-anchor="start" x="1608.5" y="-307.8" font-family="Times,serif" font-size="14.00">id</text>
<polygon fill="none" stroke="black" points="1107.5,-280 1107.5,-301 1336.5,-301 1336.5,-280 1107.5,-280"/>
<text text-anchor="start" x="1110.5" y="-286.8" font-family="Times,serif" font-size="14.00">(data_start * _root.sector_size)</text>
<polygon fill="none" stroke="black" points="1336.5,-280 1336.5,-301 1558.5,-301 1558.5,-280 1336.5,-280"/>
<text text-anchor="start" x="1339.5" y="-286.8" font-family="Times,serif" font-size="14.00">(data_size * _root.sector_size)</text>
<polygon fill="none" stroke="black" points="1558.5,-280 1558.5,-301 1596.5,-301 1596.5,-280 1558.5,-280"/>
<polygon fill="none" stroke="black" points="1596.5,-280 1596.5,-301 1634.5,-301 1634.5,-280 1596.5,-280"/>
<text text-anchor="start" x="1599.5" y="-286.8" font-family="Times,serif" font-size="14.00">data</text>
</g>
<!-- apm_partition_table__inst__sector_size&#45;&gt;partition_entry__inst__data -->
<g id="edge13" class="edge"><title>apm_partition_table__inst__sector_size:sector_size_type&#45;&gt;partition_entry__inst__data:data_pos</title>
<path fill="none" stroke="#404040" d="M116,-428C143.827,-400.173 161.155,-449.696 200,-456 289.606,-470.541 943.848,-509.753 1017,-456 1060.16,-424.287 1024.72,-386.48 1053,-341 1068.38,-316.264 1072.72,-295.296 1096.41,-290.863"/>
<polygon fill="#404040" stroke="#404040" points="1096.83,-294.339 1106.5,-290 1096.24,-287.365 1096.83,-294.339"/>
</g>
<!-- apm_partition_table__inst__sector_size&#45;&gt;partition_entry__inst__data -->
<g id="edge15" class="edge"><title>apm_partition_table__inst__sector_size:sector_size_type&#45;&gt;partition_entry__inst__data:data_size</title>
<path fill="none" stroke="#404040" d="M116,-428C146.25,-397.75 158.604,-464.206 200,-475 243.92,-486.452 980.981,-502.619 1017,-475 1065.94,-437.475 1025.94,-396.413 1053,-341 1067.9,-310.488 1068.63,-295.189 1099,-280 1165.02,-246.981 1421.78,-205.642 1445.71,-268.895"/>
<polygon fill="#404040" stroke="#404040" points="1442.31,-269.764 1447.5,-279 1449.2,-268.543 1442.31,-269.764"/>
</g>
<!-- partition_entry__inst__boot_code -->
<g id="node8" class="node"><title>partition_entry__inst__boot_code</title>
<polygon fill="#e0ffe0" stroke="none" points="1119.5,-196 1119.5,-217 1389.5,-217 1389.5,-196 1119.5,-196"/>
<polygon fill="none" stroke="black" points="1119.5,-196 1119.5,-217 1389.5,-217 1389.5,-196 1119.5,-196"/>
<text text-anchor="start" x="1242" y="-202.8" font-family="Times,serif" font-size="14.00">pos</text>
<polygon fill="#e0ffe0" stroke="none" points="1389.5,-196 1389.5,-217 1504.5,-217 1504.5,-196 1389.5,-196"/>
<polygon fill="none" stroke="black" points="1389.5,-196 1389.5,-217 1504.5,-217 1504.5,-196 1389.5,-196"/>
<text text-anchor="start" x="1433" y="-202.8" font-family="Times,serif" font-size="14.00">size</text>
<polygon fill="#e0ffe0" stroke="none" points="1504.5,-196 1504.5,-217 1542.5,-217 1542.5,-196 1504.5,-196"/>
<polygon fill="none" stroke="black" points="1504.5,-196 1504.5,-217 1542.5,-217 1542.5,-196 1504.5,-196"/>
<text text-anchor="start" x="1507.5" y="-202.8" font-family="Times,serif" font-size="14.00">type</text>
<polygon fill="#e0ffe0" stroke="none" points="1542.5,-196 1542.5,-217 1621.5,-217 1621.5,-196 1542.5,-196"/>
<polygon fill="none" stroke="black" points="1542.5,-196 1542.5,-217 1621.5,-217 1621.5,-196 1542.5,-196"/>
<text text-anchor="start" x="1575" y="-202.8" font-family="Times,serif" font-size="14.00">id</text>
<polygon fill="none" stroke="black" points="1119.5,-175 1119.5,-196 1389.5,-196 1389.5,-175 1119.5,-175"/>
<text text-anchor="start" x="1122.5" y="-181.8" font-family="Times,serif" font-size="14.00">(boot_code_start * _root.sector_size)</text>
<polygon fill="none" stroke="black" points="1389.5,-175 1389.5,-196 1504.5,-196 1504.5,-175 1389.5,-175"/>
<text text-anchor="start" x="1392.5" y="-181.8" font-family="Times,serif" font-size="14.00">boot_code_size</text>
<polygon fill="none" stroke="black" points="1504.5,-175 1504.5,-196 1542.5,-196 1542.5,-175 1504.5,-175"/>
<polygon fill="none" stroke="black" points="1542.5,-175 1542.5,-196 1621.5,-196 1621.5,-175 1542.5,-175"/>
<text text-anchor="start" x="1545.5" y="-181.8" font-family="Times,serif" font-size="14.00">boot_code</text>
</g>
<!-- apm_partition_table__inst__sector_size&#45;&gt;partition_entry__inst__boot_code -->
<g id="edge17" class="edge"><title>apm_partition_table__inst__sector_size:sector_size_type&#45;&gt;partition_entry__inst__boot_code:boot_code_pos</title>
<path fill="none" stroke="#404040" d="M116,-428C142.667,-401.333 162.383,-437.327 200,-440 245.275,-443.218 981.787,-468.639 1017,-440 1077.93,-390.445 1019.58,-338.07 1053,-267 1071.3,-228.088 1071.88,-191.232 1108.41,-185.711"/>
<polygon fill="#404040" stroke="#404040" points="1108.77,-189.194 1118.5,-185 1108.28,-182.211 1108.77,-189.194"/>
</g>
<!-- partition_entry__seq -->
<g id="node5" class="node"><title>partition_entry__seq</title>
<polygon fill="#e0ffe0" stroke="none" points="711,-406 711,-427 745,-427 745,-406 711,-406"/>
<polygon fill="none" stroke="black" points="711,-406 711,-427 745,-427 745,-406 711,-406"/>
<text text-anchor="start" x="715.5" y="-412.8" font-family="Times,serif" font-size="14.00">pos</text>
<polygon fill="#e0ffe0" stroke="none" points="745,-406 745,-427 779,-427 779,-406 745,-406"/>
<polygon fill="none" stroke="black" points="745,-406 745,-427 779,-427 779,-406 745,-406"/>
<text text-anchor="start" x="748" y="-412.8" font-family="Times,serif" font-size="14.00">size</text>
<polygon fill="#e0ffe0" stroke="none" points="779,-406 779,-427 849,-427 849,-406 779,-406"/>
<polygon fill="none" stroke="black" points="779,-406 779,-427 849,-427 849,-406 779,-406"/>
<text text-anchor="start" x="798" y="-412.8" font-family="Times,serif" font-size="14.00">type</text>
<polygon fill="#e0ffe0" stroke="none" points="849,-406 849,-427 1009,-427 1009,-406 849,-406"/>
<polygon fill="none" stroke="black" points="849,-406 849,-427 1009,-427 1009,-406 849,-406"/>
<text text-anchor="start" x="922" y="-412.8" font-family="Times,serif" font-size="14.00">id</text>
<polygon fill="none" stroke="black" points="711,-385 711,-406 745,-406 745,-385 711,-385"/>
<text text-anchor="start" x="723" y="-391.8" font-family="Times,serif" font-size="14.00">0</text>
<polygon fill="none" stroke="black" points="745,-385 745,-406 779,-406 779,-385 745,-385"/>
<text text-anchor="start" x="757" y="-391.8" font-family="Times,serif" font-size="14.00">2</text>
<polygon fill="none" stroke="black" points="779,-385 779,-406 849,-406 849,-385 779,-385"/>
<text text-anchor="start" x="792.5" y="-391.8" font-family="Times,serif" font-size="14.00">50 4D</text>
<polygon fill="none" stroke="black" points="849,-385 849,-406 1009,-406 1009,-385 849,-385"/>
<text text-anchor="start" x="907" y="-391.8" font-family="Times,serif" font-size="14.00">magic</text>
<polygon fill="none" stroke="black" points="711,-364 711,-385 745,-385 745,-364 711,-364"/>
<text text-anchor="start" x="723" y="-370.8" font-family="Times,serif" font-size="14.00">2</text>
<polygon fill="none" stroke="black" points="745,-364 745,-385 779,-385 779,-364 745,-364"/>
<text text-anchor="start" x="757" y="-370.8" font-family="Times,serif" font-size="14.00">2</text>
<polygon fill="none" stroke="black" points="779,-364 779,-385 849,-385 849,-364 779,-364"/>
<polygon fill="none" stroke="black" points="849,-364 849,-385 1009,-385 1009,-364 849,-364"/>
<text text-anchor="start" x="889" y="-370.8" font-family="Times,serif" font-size="14.00">reserved_1</text>
<polygon fill="none" stroke="black" points="711,-343 711,-364 745,-364 745,-343 711,-343"/>
<text text-anchor="start" x="723" y="-349.8" font-family="Times,serif" font-size="14.00">4</text>
<polygon fill="none" stroke="black" points="745,-343 745,-364 779,-364 779,-343 745,-343"/>
<text text-anchor="start" x="757" y="-349.8" font-family="Times,serif" font-size="14.00">4</text>
<polygon fill="none" stroke="black" points="779,-343 779,-364 849,-364 849,-343 779,-343"/>
<text text-anchor="start" x="796" y="-349.8" font-family="Times,serif" font-size="14.00">u4be</text>
<polygon fill="none" stroke="black" points="849,-343 849,-364 1009,-364 1009,-343 849,-343"/>
<text text-anchor="start" x="852" y="-349.8" font-family="Times,serif" font-size="14.00">number_of_partitions</text>
<polygon fill="none" stroke="black" points="711,-322 711,-343 745,-343 745,-322 711,-322"/>
<text text-anchor="start" x="723" y="-328.8" font-family="Times,serif" font-size="14.00">8</text>
<polygon fill="none" stroke="black" points="745,-322 745,-343 779,-343 779,-322 745,-322"/>
<text text-anchor="start" x="757" y="-328.8" font-family="Times,serif" font-size="14.00">4</text>
<polygon fill="none" stroke="black" points="779,-322 779,-343 849,-343 849,-322 779,-322"/>
<text text-anchor="start" x="796" y="-328.8" font-family="Times,serif" font-size="14.00">u4be</text>
<polygon fill="none" stroke="black" points="849,-322 849,-343 1009,-343 1009,-322 849,-322"/>
<text text-anchor="start" x="876.5" y="-328.8" font-family="Times,serif" font-size="14.00">partition_start</text>
<polygon fill="none" stroke="black" points="711,-301 711,-322 745,-322 745,-301 711,-301"/>
<text text-anchor="start" x="718.5" y="-307.8" font-family="Times,serif" font-size="14.00">12</text>
<polygon fill="none" stroke="black" points="745,-301 745,-322 779,-322 779,-301 745,-301"/>
<text text-anchor="start" x="757" y="-307.8" font-family="Times,serif" font-size="14.00">4</text>
<polygon fill="none" stroke="black" points="779,-301 779,-322 849,-322 849,-301 779,-301"/>
<text text-anchor="start" x="796" y="-307.8" font-family="Times,serif" font-size="14.00">u4be</text>
<polygon fill="none" stroke="black" points="849,-301 849,-322 1009,-322 1009,-301 849,-301"/>
<text text-anchor="start" x="880" y="-307.8" font-family="Times,serif" font-size="14.00">partition_size</text>
<polygon fill="none" stroke="black" points="711,-280 711,-301 745,-301 745,-280 711,-280"/>
<text text-anchor="start" x="718.5" y="-286.8" font-family="Times,serif" font-size="14.00">16</text>
<polygon fill="none" stroke="black" points="745,-280 745,-301 779,-301 779,-280 745,-280"/>
<text text-anchor="start" x="752.5" y="-286.8" font-family="Times,serif" font-size="14.00">32</text>
<polygon fill="none" stroke="black" points="779,-280 779,-301 849,-301 849,-280 779,-280"/>
<text text-anchor="start" x="782" y="-286.8" font-family="Times,serif" font-size="14.00">str(ascii)</text>
<polygon fill="none" stroke="black" points="849,-280 849,-301 1009,-301 1009,-280 849,-280"/>
<text text-anchor="start" x="874.5" y="-286.8" font-family="Times,serif" font-size="14.00">partition_name</text>
<polygon fill="none" stroke="black" points="711,-259 711,-280 745,-280 745,-259 711,-259"/>
<text text-anchor="start" x="718.5" y="-265.8" font-family="Times,serif" font-size="14.00">48</text>
<polygon fill="none" stroke="black" points="745,-259 745,-280 779,-280 779,-259 745,-259"/>
<text text-anchor="start" x="752.5" y="-265.8" font-family="Times,serif" font-size="14.00">32</text>
<polygon fill="none" stroke="black" points="779,-259 779,-280 849,-280 849,-259 779,-259"/>
<text text-anchor="start" x="782" y="-265.8" font-family="Times,serif" font-size="14.00">str(ascii)</text>
<polygon fill="none" stroke="black" points="849,-259 849,-280 1009,-280 1009,-259 849,-259"/>
<text text-anchor="start" x="878" y="-265.8" font-family="Times,serif" font-size="14.00">partition_type</text>
<polygon fill="none" stroke="black" points="711,-238 711,-259 745,-259 745,-238 711,-238"/>
<text text-anchor="start" x="718.5" y="-244.8" font-family="Times,serif" font-size="14.00">80</text>
<polygon fill="none" stroke="black" points="745,-238 745,-259 779,-259 779,-238 745,-238"/>
<text text-anchor="start" x="757" y="-244.8" font-family="Times,serif" font-size="14.00">4</text>
<polygon fill="none" stroke="black" points="779,-238 779,-259 849,-259 849,-238 779,-238"/>
<text text-anchor="start" x="796" y="-244.8" font-family="Times,serif" font-size="14.00">u4be</text>
<polygon fill="none" stroke="black" points="849,-238 849,-259 1009,-259 1009,-238 849,-238"/>
<text text-anchor="start" x="892" y="-244.8" font-family="Times,serif" font-size="14.00">data_start</text>
<polygon fill="none" stroke="black" points="711,-217 711,-238 745,-238 745,-217 711,-217"/>
<text text-anchor="start" x="718.5" y="-223.8" font-family="Times,serif" font-size="14.00">84</text>
<polygon fill="none" stroke="black" points="745,-217 745,-238 779,-238 779,-217 745,-217"/>
<text text-anchor="start" x="757" y="-223.8" font-family="Times,serif" font-size="14.00">4</text>
<polygon fill="none" stroke="black" points="779,-217 779,-238 849,-238 849,-217 779,-217"/>
<text text-anchor="start" x="796" y="-223.8" font-family="Times,serif" font-size="14.00">u4be</text>
<polygon fill="none" stroke="black" points="849,-217 849,-238 1009,-238 1009,-217 849,-217"/>
<text text-anchor="start" x="895.5" y="-223.8" font-family="Times,serif" font-size="14.00">data_size</text>
<polygon fill="none" stroke="black" points="711,-196 711,-217 745,-217 745,-196 711,-196"/>
<text text-anchor="start" x="718.5" y="-202.8" font-family="Times,serif" font-size="14.00">88</text>
<polygon fill="none" stroke="black" points="745,-196 745,-217 779,-217 779,-196 745,-196"/>
<text text-anchor="start" x="757" y="-202.8" font-family="Times,serif" font-size="14.00">4</text>
<polygon fill="none" stroke="black" points="779,-196 779,-217 849,-217 849,-196 779,-196"/>
<text text-anchor="start" x="796" y="-202.8" font-family="Times,serif" font-size="14.00">u4be</text>
<polygon fill="none" stroke="black" points="849,-196 849,-217 1009,-217 1009,-196 849,-196"/>
<text text-anchor="start" x="871.5" y="-202.8" font-family="Times,serif" font-size="14.00">partition_status</text>
<polygon fill="none" stroke="black" points="711,-175 711,-196 745,-196 745,-175 711,-175"/>
<text text-anchor="start" x="718.5" y="-181.8" font-family="Times,serif" font-size="14.00">92</text>
<polygon fill="none" stroke="black" points="745,-175 745,-196 779,-196 779,-175 745,-175"/>
<text text-anchor="start" x="757" y="-181.8" font-family="Times,serif" font-size="14.00">4</text>
<polygon fill="none" stroke="black" points="779,-175 779,-196 849,-196 849,-175 779,-175"/>
<text text-anchor="start" x="796" y="-181.8" font-family="Times,serif" font-size="14.00">u4be</text>
<polygon fill="none" stroke="black" points="849,-175 849,-196 1009,-196 1009,-175 849,-175"/>
<text text-anchor="start" x="871.5" y="-181.8" font-family="Times,serif" font-size="14.00">boot_code_start</text>
<polygon fill="none" stroke="black" points="711,-154 711,-175 745,-175 745,-154 711,-154"/>
<text text-anchor="start" x="718.5" y="-160.8" font-family="Times,serif" font-size="14.00">96</text>
<polygon fill="none" stroke="black" points="745,-154 745,-175 779,-175 779,-154 745,-154"/>
<text text-anchor="start" x="757" y="-160.8" font-family="Times,serif" font-size="14.00">4</text>
<polygon fill="none" stroke="black" points="779,-154 779,-175 849,-175 849,-154 779,-154"/>
<text text-anchor="start" x="796" y="-160.8" font-family="Times,serif" font-size="14.00">u4be</text>
<polygon fill="none" stroke="black" points="849,-154 849,-175 1009,-175 1009,-154 849,-154"/>
<text text-anchor="start" x="874.5" y="-160.8" font-family="Times,serif" font-size="14.00">boot_code_size</text>
<polygon fill="none" stroke="black" points="711,-133 711,-154 745,-154 745,-133 711,-133"/>
<text text-anchor="start" x="714" y="-139.8" font-family="Times,serif" font-size="14.00">100</text>
<polygon fill="none" stroke="black" points="745,-133 745,-154 779,-154 779,-133 745,-133"/>
<text text-anchor="start" x="757" y="-139.8" font-family="Times,serif" font-size="14.00">4</text>
<polygon fill="none" stroke="black" points="779,-133 779,-154 849,-154 849,-133 779,-133"/>
<text text-anchor="start" x="796" y="-139.8" font-family="Times,serif" font-size="14.00">u4be</text>
<polygon fill="none" stroke="black" points="849,-133 849,-154 1009,-154 1009,-133 849,-133"/>
<text text-anchor="start" x="855" y="-139.8" font-family="Times,serif" font-size="14.00">boot_loader_address</text>
<polygon fill="none" stroke="black" points="711,-112 711,-133 745,-133 745,-112 711,-112"/>
<text text-anchor="start" x="714" y="-118.8" font-family="Times,serif" font-size="14.00">104</text>
<polygon fill="none" stroke="black" points="745,-112 745,-133 779,-133 779,-112 745,-112"/>
<text text-anchor="start" x="757" y="-118.8" font-family="Times,serif" font-size="14.00">4</text>
<polygon fill="none" stroke="black" points="779,-112 779,-133 849,-133 849,-112 779,-112"/>
<polygon fill="none" stroke="black" points="849,-112 849,-133 1009,-133 1009,-112 849,-112"/>
<text text-anchor="start" x="889" y="-118.8" font-family="Times,serif" font-size="14.00">reserved_2</text>
<polygon fill="none" stroke="black" points="711,-91 711,-112 745,-112 745,-91 711,-91"/>
<text text-anchor="start" x="714" y="-97.8" font-family="Times,serif" font-size="14.00">108</text>
<polygon fill="none" stroke="black" points="745,-91 745,-112 779,-112 779,-91 745,-91"/>
<text text-anchor="start" x="757" y="-97.8" font-family="Times,serif" font-size="14.00">4</text>
<polygon fill="none" stroke="black" points="779,-91 779,-112 849,-112 849,-91 779,-91"/>
<text text-anchor="start" x="796" y="-97.8" font-family="Times,serif" font-size="14.00">u4be</text>
<polygon fill="none" stroke="black" points="849,-91 849,-112 1009,-112 1009,-91 849,-91"/>
<text text-anchor="start" x="869.5" y="-97.8" font-family="Times,serif" font-size="14.00">boot_code_entry</text>
<polygon fill="none" stroke="black" points="711,-70 711,-91 745,-91 745,-70 711,-70"/>
<text text-anchor="start" x="714" y="-76.8" font-family="Times,serif" font-size="14.00">112</text>
<polygon fill="none" stroke="black" points="745,-70 745,-91 779,-91 779,-70 745,-70"/>
<text text-anchor="start" x="757" y="-76.8" font-family="Times,serif" font-size="14.00">4</text>
<polygon fill="none" stroke="black" points="779,-70 779,-91 849,-91 849,-70 779,-70"/>
<polygon fill="none" stroke="black" points="849,-70 849,-91 1009,-91 1009,-70 849,-70"/>
<text text-anchor="start" x="889" y="-76.8" font-family="Times,serif" font-size="14.00">reserved_3</text>
<polygon fill="none" stroke="black" points="711,-49 711,-70 745,-70 745,-49 711,-49"/>
<text text-anchor="start" x="714" y="-55.8" font-family="Times,serif" font-size="14.00">116</text>
<polygon fill="none" stroke="black" points="745,-49 745,-70 779,-70 779,-49 745,-49"/>
<text text-anchor="start" x="757" y="-55.8" font-family="Times,serif" font-size="14.00">4</text>
<polygon fill="none" stroke="black" points="779,-49 779,-70 849,-70 849,-49 779,-49"/>
<text text-anchor="start" x="796" y="-55.8" font-family="Times,serif" font-size="14.00">u4be</text>
<polygon fill="none" stroke="black" points="849,-49 849,-70 1009,-70 1009,-49 849,-49"/>
<text text-anchor="start" x="865" y="-55.8" font-family="Times,serif" font-size="14.00">boot_code_cksum</text>
<polygon fill="none" stroke="black" points="711,-28 711,-49 745,-49 745,-28 711,-28"/>
<text text-anchor="start" x="714" y="-34.8" font-family="Times,serif" font-size="14.00">120</text>
<polygon fill="none" stroke="black" points="745,-28 745,-49 779,-49 779,-28 745,-28"/>
<text text-anchor="start" x="752.5" y="-34.8" font-family="Times,serif" font-size="14.00">16</text>
<polygon fill="none" stroke="black" points="779,-28 779,-49 849,-49 849,-28 779,-28"/>
<text text-anchor="start" x="782" y="-34.8" font-family="Times,serif" font-size="14.00">str(ascii)</text>
<polygon fill="none" stroke="black" points="849,-28 849,-49 1009,-49 1009,-28 849,-28"/>
<text text-anchor="start" x="874" y="-34.8" font-family="Times,serif" font-size="14.00">processor_type</text>
</g>
<!-- apm_partition_table__inst__partition_lookup&#45;&gt;partition_entry__seq -->
<g id="edge3" class="edge"><title>apm_partition_table__inst__partition_lookup:partition_lookup_type&#45;&gt;partition_entry__seq</title>
<path fill="none" stroke="black" stroke-width="2" d="M658.5,-306C669.839,-306 681.307,-304.903 692.716,-302.97"/>
<polygon fill="black" stroke="black" stroke-width="2" points="693.555,-306.373 702.722,-301.062 692.243,-299.497 693.555,-306.373"/>
</g>
<!-- apm_partition_table__inst__partition_entries&#45;&gt;partition_entry__seq -->
<g id="edge6" class="edge"><title>apm_partition_table__inst__partition_entries:partition_entries_type&#45;&gt;partition_entry__seq</title>
<path fill="none" stroke="black" stroke-width="2" d="M660.5,-395C671.706,-395 682.609,-393.422 693.162,-390.573"/>
<polygon fill="black" stroke="black" stroke-width="2" points="694.234,-393.906 702.754,-387.609 692.166,-387.218 694.234,-393.906"/>
</g>
<!-- partition_entry__seq&#45;&gt;apm_partition_table__inst__partition_entries -->
<g id="edge7" class="edge"><title>partition_entry__seq:number_of_partitions_type&#45;&gt;apm_partition_table__inst__partition_entries:partition_entries__repeat</title>
<path fill="none" stroke="#404040" d="M1010,-354C1044.45,-354 1033.51,-407.3 1009,-431.5 1002.95,-437.472 710.589,-435.328 703,-431.5 678.395,-419.09 688.402,-384.963 670.77,-376.117"/>
<polygon fill="#404040" stroke="#404040" points="671.001,-372.591 660.5,-374 669.588,-379.447 671.001,-372.591"/>
</g>
<!-- partition_entry__seq&#45;&gt;partition_entry__inst__partition -->
<g id="edge8" class="edge"><title>partition_entry__seq:partition_start_type&#45;&gt;partition_entry__inst__partition:partition_pos</title>
<path fill="none" stroke="#404040" d="M1010,-333C1032.43,-333 1034.18,-355.48 1050.47,-362.154"/>
<polygon fill="#404040" stroke="#404040" points="1050.03,-365.632 1060.5,-364 1051.3,-358.747 1050.03,-365.632"/>
</g>
<!-- partition_entry__seq&#45;&gt;partition_entry__inst__partition -->
<g id="edge10" class="edge"><title>partition_entry__seq:partition_size_type&#45;&gt;partition_entry__inst__partition:partition_size</title>
<path fill="none" stroke="#404040" d="M1010,-312C1031.67,-312 1032.1,-329.253 1053,-335 1072.21,-340.284 1381.92,-332.721 1438.62,-347.723"/>
<polygon fill="#404040" stroke="#404040" points="1437.12,-350.898 1447.5,-353 1440.69,-344.881 1437.12,-350.898"/>
</g>
<!-- partition_entry__seq&#45;&gt;partition_entry__inst__data -->
<g id="edge12" class="edge"><title>partition_entry__seq:data_start_type&#45;&gt;partition_entry__inst__data:data_pos</title>
<path fill="none" stroke="#404040" d="M1010,-249C1052.96,-249 1059.12,-283.844 1096.33,-289.288"/>
<polygon fill="#404040" stroke="#404040" points="1096.28,-292.793 1106.5,-290 1096.77,-285.81 1096.28,-292.793"/>
</g>
<!-- partition_entry__seq&#45;&gt;partition_entry__inst__data -->
<g id="edge14" class="edge"><title>partition_entry__seq:data_size_type&#45;&gt;partition_entry__inst__data:data_size</title>
<path fill="none" stroke="#404040" d="M1010,-227C1021.16,-227 1375.94,-260.079 1438.21,-275.181"/>
<polygon fill="#404040" stroke="#404040" points="1436.92,-278.433 1447.5,-279 1439.58,-271.959 1436.92,-278.433"/>
</g>
<!-- partition_entry__seq&#45;&gt;partition_entry__inst__boot_code -->
<g id="edge16" class="edge"><title>partition_entry__seq:boot_code_start_type&#45;&gt;partition_entry__inst__boot_code:boot_code_pos</title>
<path fill="none" stroke="#404040" d="M1010,-185C1054.64,-185 1068.29,-185 1108.33,-185"/>
<polygon fill="#404040" stroke="#404040" points="1108.5,-188.5 1118.5,-185 1108.5,-181.5 1108.5,-188.5"/>
</g>
<!-- partition_entry__seq&#45;&gt;partition_entry__inst__boot_code -->
<g id="edge18" class="edge"><title>partition_entry__seq:boot_code_size_type&#45;&gt;partition_entry__inst__boot_code:boot_code_size</title>
<path fill="none" stroke="#404040" d="M1010,-164C1200.98,-164 1438.74,13.8891 1447.26,-163.826"/>
<polygon fill="#404040" stroke="#404040" points="1443.77,-164.084 1447.5,-174 1450.77,-163.921 1443.77,-164.084"/>
</g>
</g>
</svg>
