<?xml version="1.0" encoding="UTF-8" standalone="no"?>
<!DOCTYPE svg PUBLIC "-//W3C//DTD SVG 1.1//EN"
 "http://www.w3.org/Graphics/SVG/1.1/DTD/svg11.dtd">
<!-- Generated by graphviz version 2.40.1 (20161225.0304)
 -->
<!-- Title: %3 Pages: 1 -->
<svg width="1255pt" height="433pt"
 viewBox="0.00 0.00 1255.00 433.00" xmlns="http://www.w3.org/2000/svg" xmlns:xlink="http://www.w3.org/1999/xlink">
<g id="graph0" class="graph" transform="scale(1 1) rotate(0) translate(4 429)">
<title>%3</title>
<polygon fill="#ffffff" stroke="transparent" points="-4,4 -4,-429 1251,-429 1251,4 -4,4"/>
<g id="clust1" class="cluster">
<title>cluster__lzh</title>
<polygon fill="none" stroke="#000000" stroke-dasharray="1,5" points="8,-44 8,-417 1239,-417 1239,-44 8,-44"/>
<text text-anchor="middle" x="623.5" y="-401.8" font-family="Times,serif" font-size="14.00" fill="#000000">Lzh</text>
</g>
<g id="clust2" class="cluster">
<title>cluster__record</title>
<polygon fill="none" stroke="#000000" stroke-dasharray="1,5" points="229,-275 229,-386 447,-386 447,-275 229,-275"/>
<text text-anchor="middle" x="338" y="-370.8" font-family="Times,serif" font-size="14.00" fill="#000000">Lzh::Record</text>
</g>
<g id="clust3" class="cluster">
<title>cluster__file_record</title>
<polygon fill="none" stroke="#000000" stroke-dasharray="1,5" points="494,-185 494,-316 895,-316 895,-185 494,-185"/>
<text text-anchor="middle" x="694.5" y="-300.8" font-family="Times,serif" font-size="14.00" fill="#000000">Lzh::FileRecord</text>
</g>
<g id="clust4" class="cluster">
<title>cluster__header</title>
<polygon fill="none" stroke="#000000" stroke-dasharray="1,5" points="915,-108 915,-321 1231,-321 1231,-108 915,-108"/>
<text text-anchor="middle" x="1073" y="-305.8" font-family="Times,serif" font-size="14.00" fill="#000000">Lzh::Header</text>
</g>
<g id="clust5" class="cluster">
<title>cluster__header1</title>
<polygon fill="none" stroke="#000000" stroke-dasharray="1,5" points="202,-52 202,-267 474,-267 474,-52 202,-52"/>
<text text-anchor="middle" x="338" y="-251.8" font-family="Times,serif" font-size="14.00" fill="#000000">Lzh::Header1</text>
</g>
<!-- lzh__seq -->
<g id="node1" class="node">
<title>lzh__seq</title>
<polygon fill="#e0ffe0" stroke="transparent" points="24,-330 24,-351 49,-351 49,-330 24,-330"/>
<polygon fill="none" stroke="#000000" points="24,-330 24,-351 49,-351 49,-330 24,-330"/>
<text text-anchor="start" x="27" y="-336.8" font-family="Times,serif" font-size="14.00" fill="#000000">pos</text>
<polygon fill="#e0ffe0" stroke="transparent" points="49,-330 49,-351 77,-351 77,-330 49,-330"/>
<polygon fill="none" stroke="#000000" points="49,-330 49,-351 77,-351 77,-330 49,-330"/>
<text text-anchor="start" x="52" y="-336.8" font-family="Times,serif" font-size="14.00" fill="#000000">size</text>
<polygon fill="#e0ffe0" stroke="transparent" points="77,-330 77,-351 123,-351 123,-330 77,-330"/>
<polygon fill="none" stroke="#000000" points="77,-330 77,-351 123,-351 123,-330 77,-330"/>
<text text-anchor="start" x="88" y="-336.8" font-family="Times,serif" font-size="14.00" fill="#000000">type</text>
<polygon fill="#e0ffe0" stroke="transparent" points="123,-330 123,-351 166,-351 166,-330 123,-330"/>
<polygon fill="none" stroke="#000000" points="123,-330 123,-351 166,-351 166,-330 123,-330"/>
<text text-anchor="start" x="139" y="-336.8" font-family="Times,serif" font-size="14.00" fill="#000000">id</text>
<polygon fill="none" stroke="#000000" points="24,-309 24,-330 49,-330 49,-309 24,-309"/>
<text text-anchor="start" x="33" y="-315.8" font-family="Times,serif" font-size="14.00" fill="#000000">0</text>
<polygon fill="none" stroke="#000000" points="49,-309 49,-330 77,-330 77,-309 49,-309"/>
<text text-anchor="start" x="57" y="-315.8" font-family="Times,serif" font-size="14.00" fill="#000000">...</text>
<polygon fill="none" stroke="#000000" points="77,-309 77,-330 123,-330 123,-309 77,-309"/>
<text text-anchor="start" x="80" y="-315.8" font-family="Times,serif" font-size="14.00" fill="#000000">Record</text>
<polygon fill="none" stroke="#000000" points="123,-309 123,-330 166,-330 166,-309 123,-309"/>
<text text-anchor="start" x="126" y="-315.8" font-family="Times,serif" font-size="14.00" fill="#000000">entries</text>
<polygon fill="none" stroke="#000000" points="24,-288 24,-309 166,-309 166,-288 24,-288"/>
<text text-anchor="start" x="31.5" y="-294.8" font-family="Times,serif" font-size="14.00" fill="#000000">repeat to end of stream</text>
</g>
<!-- record__seq -->
<g id="node2" class="node">
<title>record__seq</title>
<polygon fill="#e0ffe0" stroke="transparent" points="245,-329 245,-350 270,-350 270,-329 245,-329"/>
<polygon fill="none" stroke="#000000" points="245,-329 245,-350 270,-350 270,-329 245,-329"/>
<text text-anchor="start" x="248" y="-335.8" font-family="Times,serif" font-size="14.00" fill="#000000">pos</text>
<polygon fill="#e0ffe0" stroke="transparent" points="270,-329 270,-350 298,-350 298,-329 270,-329"/>
<polygon fill="none" stroke="#000000" points="270,-329 270,-350 298,-350 298,-329 270,-329"/>
<text text-anchor="start" x="273" y="-335.8" font-family="Times,serif" font-size="14.00" fill="#000000">size</text>
<polygon fill="#e0ffe0" stroke="transparent" points="298,-329 298,-350 365,-350 365,-329 298,-329"/>
<polygon fill="none" stroke="#000000" points="298,-329 298,-350 365,-350 365,-329 298,-329"/>
<text text-anchor="start" x="319.5" y="-335.8" font-family="Times,serif" font-size="14.00" fill="#000000">type</text>
<polygon fill="#e0ffe0" stroke="transparent" points="365,-329 365,-350 431,-350 431,-329 365,-329"/>
<polygon fill="none" stroke="#000000" points="365,-329 365,-350 431,-350 431,-329 365,-329"/>
<text text-anchor="start" x="392.5" y="-335.8" font-family="Times,serif" font-size="14.00" fill="#000000">id</text>
<polygon fill="none" stroke="#000000" points="245,-308 245,-329 270,-329 270,-308 245,-308"/>
<text text-anchor="start" x="254" y="-314.8" font-family="Times,serif" font-size="14.00" fill="#000000">0</text>
<polygon fill="none" stroke="#000000" points="270,-308 270,-329 298,-329 298,-308 270,-308"/>
<text text-anchor="start" x="280.5" y="-314.8" font-family="Times,serif" font-size="14.00" fill="#000000">1</text>
<polygon fill="none" stroke="#000000" points="298,-308 298,-329 365,-329 365,-308 298,-308"/>
<text text-anchor="start" x="324.5" y="-314.8" font-family="Times,serif" font-size="14.00" fill="#000000">u1</text>
<polygon fill="none" stroke="#000000" points="365,-308 365,-329 431,-329 431,-308 365,-308"/>
<text text-anchor="start" x="368" y="-314.8" font-family="Times,serif" font-size="14.00" fill="#000000">header_len</text>
<polygon fill="none" stroke="#000000" points="245,-287 245,-308 270,-308 270,-287 245,-287"/>
<text text-anchor="start" x="254" y="-293.8" font-family="Times,serif" font-size="14.00" fill="#000000">1</text>
<polygon fill="none" stroke="#000000" points="270,-287 270,-308 298,-308 298,-287 270,-287"/>
<text text-anchor="start" x="278" y="-293.8" font-family="Times,serif" font-size="14.00" fill="#000000">...</text>
<polygon fill="none" stroke="#000000" points="298,-287 298,-308 365,-308 365,-287 298,-287"/>
<text text-anchor="start" x="301" y="-293.8" font-family="Times,serif" font-size="14.00" fill="#000000">FileRecord</text>
<polygon fill="none" stroke="#000000" points="365,-287 365,-308 431,-308 431,-287 365,-287"/>
<text text-anchor="start" x="368" y="-293.8" font-family="Times,serif" font-size="14.00" fill="#000000">file_record</text>
</g>
<!-- lzh__seq&#45;&gt;record__seq -->
<g id="edge1" class="edge">
<title>lzh__seq:entries_type&#45;&gt;record__seq</title>
<path fill="none" stroke="#000000" stroke-width="2" d="M166,-319C185.5421,-319 206.3332,-319 226.4575,-319"/>
<polygon fill="#000000" stroke="#000000" stroke-width="2" points="226.5912,-322.5001 236.5912,-319 226.5911,-315.5001 226.5912,-322.5001"/>
</g>
<!-- file_record__seq -->
<g id="node3" class="node">
<title>file_record__seq</title>
<polygon fill="#e0ffe0" stroke="transparent" points="510.5,-260 510.5,-281 535.5,-281 535.5,-260 510.5,-260"/>
<polygon fill="none" stroke="#000000" points="510.5,-260 510.5,-281 535.5,-281 535.5,-260 510.5,-260"/>
<text text-anchor="start" x="513.5" y="-266.8" font-family="Times,serif" font-size="14.00" fill="#000000">pos</text>
<polygon fill="#e0ffe0" stroke="transparent" points="535.5,-260 535.5,-281 716.5,-281 716.5,-260 535.5,-260"/>
<polygon fill="none" stroke="#000000" points="535.5,-260 535.5,-281 716.5,-281 716.5,-260 535.5,-260"/>
<text text-anchor="start" x="615" y="-266.8" font-family="Times,serif" font-size="14.00" fill="#000000">size</text>
<polygon fill="#e0ffe0" stroke="transparent" points="716.5,-260 716.5,-281 762.5,-281 762.5,-260 716.5,-260"/>
<polygon fill="none" stroke="#000000" points="716.5,-260 716.5,-281 762.5,-281 762.5,-260 716.5,-260"/>
<text text-anchor="start" x="727.5" y="-266.8" font-family="Times,serif" font-size="14.00" fill="#000000">type</text>
<polygon fill="#e0ffe0" stroke="transparent" points="762.5,-260 762.5,-281 879.5,-281 879.5,-260 762.5,-260"/>
<polygon fill="none" stroke="#000000" points="762.5,-260 762.5,-281 879.5,-281 879.5,-260 762.5,-260"/>
<text text-anchor="start" x="815.5" y="-266.8" font-family="Times,serif" font-size="14.00" fill="#000000">id</text>
<polygon fill="none" stroke="#000000" points="510.5,-239 510.5,-260 535.5,-260 535.5,-239 510.5,-239"/>
<text text-anchor="start" x="519.5" y="-245.8" font-family="Times,serif" font-size="14.00" fill="#000000">0</text>
<polygon fill="none" stroke="#000000" points="535.5,-239 535.5,-260 716.5,-260 716.5,-239 535.5,-239"/>
<text text-anchor="start" x="560" y="-245.8" font-family="Times,serif" font-size="14.00" fill="#000000">(_parent.header_len &#45; 1)</text>
<polygon fill="none" stroke="#000000" points="716.5,-239 716.5,-260 762.5,-260 762.5,-239 716.5,-239"/>
<text text-anchor="start" x="719.5" y="-245.8" font-family="Times,serif" font-size="14.00" fill="#000000">Header</text>
<polygon fill="none" stroke="#000000" points="762.5,-239 762.5,-260 879.5,-260 879.5,-239 762.5,-239"/>
<text text-anchor="start" x="802.5" y="-245.8" font-family="Times,serif" font-size="14.00" fill="#000000">header</text>
<polygon fill="none" stroke="#000000" points="510.5,-218 510.5,-239 535.5,-239 535.5,-218 510.5,-218"/>
<text text-anchor="start" x="517" y="-224.8" font-family="Times,serif" font-size="14.00" fill="#000000">...</text>
<polygon fill="none" stroke="#000000" points="535.5,-218 535.5,-239 716.5,-239 716.5,-218 535.5,-218"/>
<text text-anchor="start" x="622.5" y="-224.8" font-family="Times,serif" font-size="14.00" fill="#000000">2</text>
<polygon fill="none" stroke="#000000" points="716.5,-218 716.5,-239 762.5,-239 762.5,-218 716.5,-218"/>
<text text-anchor="start" x="727.5" y="-224.8" font-family="Times,serif" font-size="14.00" fill="#000000">u2le</text>
<polygon fill="none" stroke="#000000" points="762.5,-218 762.5,-239 879.5,-239 879.5,-218 762.5,-218"/>
<text text-anchor="start" x="765.5" y="-224.8" font-family="Times,serif" font-size="14.00" fill="#000000">file_uncompr_crc16</text>
<polygon fill="none" stroke="#000000" points="510.5,-197 510.5,-218 535.5,-218 535.5,-197 510.5,-197"/>
<text text-anchor="start" x="517" y="-203.8" font-family="Times,serif" font-size="14.00" fill="#000000">...</text>
<polygon fill="none" stroke="#000000" points="535.5,-197 535.5,-218 716.5,-218 716.5,-197 535.5,-197"/>
<text text-anchor="start" x="538.5" y="-203.8" font-family="Times,serif" font-size="14.00" fill="#000000">header.header1.file_size_compr</text>
<polygon fill="none" stroke="#000000" points="716.5,-197 716.5,-218 762.5,-218 762.5,-197 716.5,-197"/>
<polygon fill="none" stroke="#000000" points="762.5,-197 762.5,-218 879.5,-218 879.5,-197 762.5,-197"/>
<text text-anchor="start" x="807" y="-203.8" font-family="Times,serif" font-size="14.00" fill="#000000">body</text>
</g>
<!-- record__seq&#45;&gt;file_record__seq -->
<g id="edge2" class="edge">
<title>record__seq:file_record_type&#45;&gt;file_record__seq</title>
<path fill="none" stroke="#000000" stroke-width="2" d="M431,-297C462.7315,-297 496.1206,-292.9387 528.068,-286.9655"/>
<polygon fill="#000000" stroke="#000000" stroke-width="2" points="528.7821,-290.3923 537.933,-285.0527 527.4496,-283.5203 528.7821,-290.3923"/>
</g>
<!-- record__seq&#45;&gt;file_record__seq -->
<g id="edge3" class="edge">
<title>record__seq:header_len_type&#45;&gt;file_record__seq:header_size</title>
<path fill="none" stroke="#404040" d="M431,-318C494.7042,-318 563.9006,-285.093 600.1199,-265.0624"/>
<polygon fill="#404040" stroke="#404040" points="602.0306,-268.0028 609.0122,-260.0336 598.5848,-261.9096 602.0306,-268.0028"/>
</g>
<!-- header__seq -->
<g id="node4" class="node">
<title>header__seq</title>
<polygon fill="#e0ffe0" stroke="transparent" points="931,-246 931,-267 956,-267 956,-246 931,-246"/>
<polygon fill="none" stroke="#000000" points="931,-246 931,-267 956,-267 956,-246 931,-246"/>
<text text-anchor="start" x="934" y="-252.8" font-family="Times,serif" font-size="14.00" fill="#000000">pos</text>
<polygon fill="#e0ffe0" stroke="transparent" points="956,-246 956,-267 1034,-267 1034,-246 956,-246"/>
<polygon fill="none" stroke="#000000" points="956,-246 956,-267 1034,-267 1034,-246 956,-246"/>
<text text-anchor="start" x="984" y="-252.8" font-family="Times,serif" font-size="14.00" fill="#000000">size</text>
<polygon fill="#e0ffe0" stroke="transparent" points="1034,-246 1034,-267 1098,-267 1098,-246 1034,-246"/>
<polygon fill="none" stroke="#000000" points="1034,-246 1034,-267 1098,-267 1098,-246 1034,-246"/>
<text text-anchor="start" x="1054" y="-252.8" font-family="Times,serif" font-size="14.00" fill="#000000">type</text>
<polygon fill="#e0ffe0" stroke="transparent" points="1098,-246 1098,-267 1215,-267 1215,-246 1098,-246"/>
<polygon fill="none" stroke="#000000" points="1098,-246 1098,-267 1215,-267 1215,-246 1098,-246"/>
<text text-anchor="start" x="1151" y="-252.8" font-family="Times,serif" font-size="14.00" fill="#000000">id</text>
<polygon fill="none" stroke="#000000" points="931,-225 931,-246 956,-246 956,-225 931,-225"/>
<text text-anchor="start" x="940" y="-231.8" font-family="Times,serif" font-size="14.00" fill="#000000">0</text>
<polygon fill="none" stroke="#000000" points="956,-225 956,-246 1034,-246 1034,-225 956,-225"/>
<text text-anchor="start" x="988" y="-231.8" font-family="Times,serif" font-size="14.00" fill="#000000">20</text>
<polygon fill="none" stroke="#000000" points="1034,-225 1034,-246 1098,-246 1098,-225 1034,-225"/>
<text text-anchor="start" x="1043" y="-231.8" font-family="Times,serif" font-size="14.00" fill="#000000">Header1</text>
<polygon fill="none" stroke="#000000" points="1098,-225 1098,-246 1215,-246 1215,-225 1098,-225"/>
<text text-anchor="start" x="1135" y="-231.8" font-family="Times,serif" font-size="14.00" fill="#000000">header1</text>
<polygon fill="none" stroke="#000000" points="931,-204 931,-225 956,-225 956,-204 931,-204"/>
<text text-anchor="start" x="936.5" y="-210.8" font-family="Times,serif" font-size="14.00" fill="#000000">20</text>
<polygon fill="none" stroke="#000000" points="956,-204 956,-225 1034,-225 1034,-204 956,-204"/>
<text text-anchor="start" x="991.5" y="-210.8" font-family="Times,serif" font-size="14.00" fill="#000000">1</text>
<polygon fill="none" stroke="#000000" points="1034,-204 1034,-225 1098,-225 1098,-204 1034,-204"/>
<text text-anchor="start" x="1059" y="-210.8" font-family="Times,serif" font-size="14.00" fill="#000000">u1</text>
<polygon fill="none" stroke="#000000" points="1098,-204 1098,-225 1215,-225 1215,-204 1098,-204"/>
<text text-anchor="start" x="1120.5" y="-210.8" font-family="Times,serif" font-size="14.00" fill="#000000">filename_len</text>
<polygon fill="none" stroke="#000000" points="931,-183 931,-204 956,-204 956,-183 931,-183"/>
<text text-anchor="start" x="936.5" y="-189.8" font-family="Times,serif" font-size="14.00" fill="#000000">21</text>
<polygon fill="none" stroke="#000000" points="956,-183 956,-204 1034,-204 1034,-183 956,-183"/>
<text text-anchor="start" x="959" y="-189.8" font-family="Times,serif" font-size="14.00" fill="#000000">filename_len</text>
<polygon fill="none" stroke="#000000" points="1034,-183 1034,-204 1098,-204 1098,-183 1034,-183"/>
<text text-anchor="start" x="1037" y="-189.8" font-family="Times,serif" font-size="14.00" fill="#000000">str(ASCII)</text>
<polygon fill="none" stroke="#000000" points="1098,-183 1098,-204 1215,-204 1215,-183 1098,-183"/>
<text text-anchor="start" x="1132" y="-189.8" font-family="Times,serif" font-size="14.00" fill="#000000">filename</text>
<polygon fill="none" stroke="#000000" points="931,-162 931,-183 956,-183 956,-162 931,-162"/>
<text text-anchor="start" x="937.5" y="-168.8" font-family="Times,serif" font-size="14.00" fill="#000000">...</text>
<polygon fill="none" stroke="#000000" points="956,-162 956,-183 1034,-183 1034,-162 956,-162"/>
<text text-anchor="start" x="991.5" y="-168.8" font-family="Times,serif" font-size="14.00" fill="#000000">2</text>
<polygon fill="none" stroke="#000000" points="1034,-162 1034,-183 1098,-183 1098,-162 1034,-162"/>
<text text-anchor="start" x="1054" y="-168.8" font-family="Times,serif" font-size="14.00" fill="#000000">u2le</text>
<polygon fill="none" stroke="#000000" points="1098,-162 1098,-183 1215,-183 1215,-162 1098,-162"/>
<text text-anchor="start" x="1101" y="-168.8" font-family="Times,serif" font-size="14.00" fill="#000000">file_uncompr_crc16</text>
<polygon fill="none" stroke="#000000" points="931,-141 931,-162 956,-162 956,-141 931,-141"/>
<text text-anchor="start" x="937.5" y="-147.8" font-family="Times,serif" font-size="14.00" fill="#000000">...</text>
<polygon fill="none" stroke="#000000" points="956,-141 956,-162 1034,-162 1034,-141 956,-141"/>
<text text-anchor="start" x="991.5" y="-147.8" font-family="Times,serif" font-size="14.00" fill="#000000">1</text>
<polygon fill="none" stroke="#000000" points="1034,-141 1034,-162 1098,-162 1098,-141 1034,-141"/>
<text text-anchor="start" x="1059" y="-147.8" font-family="Times,serif" font-size="14.00" fill="#000000">u1</text>
<polygon fill="none" stroke="#000000" points="1098,-141 1098,-162 1215,-162 1215,-141 1098,-141"/>
<text text-anchor="start" x="1150" y="-147.8" font-family="Times,serif" font-size="14.00" fill="#000000">os</text>
<polygon fill="none" stroke="#000000" points="931,-120 931,-141 956,-141 956,-120 931,-120"/>
<text text-anchor="start" x="937.5" y="-126.8" font-family="Times,serif" font-size="14.00" fill="#000000">...</text>
<polygon fill="none" stroke="#000000" points="956,-120 956,-141 1034,-141 1034,-120 956,-120"/>
<text text-anchor="start" x="991.5" y="-126.8" font-family="Times,serif" font-size="14.00" fill="#000000">2</text>
<polygon fill="none" stroke="#000000" points="1034,-120 1034,-141 1098,-141 1098,-120 1034,-120"/>
<text text-anchor="start" x="1054" y="-126.8" font-family="Times,serif" font-size="14.00" fill="#000000">u2le</text>
<polygon fill="none" stroke="#000000" points="1098,-120 1098,-141 1215,-141 1215,-120 1098,-120"/>
<text text-anchor="start" x="1112.5" y="-126.8" font-family="Times,serif" font-size="14.00" fill="#000000">ext_header_size</text>
</g>
<!-- file_record__seq&#45;&gt;header__seq -->
<g id="edge4" class="edge">
<title>file_record__seq:header_type&#45;&gt;header__seq</title>
<path fill="none" stroke="#000000" stroke-width="2" d="M879.5,-250C890.4111,-250 901.5367,-249.1682 912.6624,-247.7075"/>
<polygon fill="#000000" stroke="#000000" stroke-width="2" points="913.4946,-251.1225 922.8738,-246.1949 912.4689,-244.198 913.4946,-251.1225"/>
</g>
<!-- header__seq&#45;&gt;header__seq -->
<g id="edge7" class="edge">
<title>header__seq:filename_len_type&#45;&gt;header__seq:filename_size</title>
<path fill="none" stroke="#404040" d="M1183.219,-225.1747C1249.6194,-255.2095 1233.333,-289.5 1076,-289.5 926.6753,-289.5 904.404,-242.6845 959.292,-209.1112"/>
<polygon fill="#404040" stroke="#404040" points="961.324,-211.9852 968.3482,-204.0536 957.9109,-205.8737 961.324,-211.9852"/>
</g>
<!-- header1__seq -->
<g id="node5" class="node">
<title>header1__seq</title>
<polygon fill="#e0ffe0" stroke="transparent" points="218,-211 218,-232 243,-232 243,-211 218,-211"/>
<polygon fill="none" stroke="#000000" points="218,-211 218,-232 243,-232 243,-211 218,-211"/>
<text text-anchor="start" x="221" y="-217.8" font-family="Times,serif" font-size="14.00" fill="#000000">pos</text>
<polygon fill="#e0ffe0" stroke="transparent" points="243,-211 243,-232 271,-232 271,-211 243,-211"/>
<polygon fill="none" stroke="#000000" points="243,-211 243,-232 271,-232 271,-211 243,-211"/>
<text text-anchor="start" x="246" y="-217.8" font-family="Times,serif" font-size="14.00" fill="#000000">size</text>
<polygon fill="#e0ffe0" stroke="transparent" points="271,-211 271,-232 350,-232 350,-211 271,-211"/>
<polygon fill="none" stroke="#000000" points="271,-211 271,-232 350,-232 350,-211 271,-211"/>
<text text-anchor="start" x="298.5" y="-217.8" font-family="Times,serif" font-size="14.00" fill="#000000">type</text>
<polygon fill="#e0ffe0" stroke="transparent" points="350,-211 350,-232 458,-232 458,-211 350,-211"/>
<polygon fill="none" stroke="#000000" points="350,-211 350,-232 458,-232 458,-211 350,-211"/>
<text text-anchor="start" x="398.5" y="-217.8" font-family="Times,serif" font-size="14.00" fill="#000000">id</text>
<polygon fill="none" stroke="#000000" points="218,-190 218,-211 243,-211 243,-190 218,-190"/>
<text text-anchor="start" x="227" y="-196.8" font-family="Times,serif" font-size="14.00" fill="#000000">0</text>
<polygon fill="none" stroke="#000000" points="243,-190 243,-211 271,-211 271,-190 243,-190"/>
<text text-anchor="start" x="253.5" y="-196.8" font-family="Times,serif" font-size="14.00" fill="#000000">1</text>
<polygon fill="none" stroke="#000000" points="271,-190 271,-211 350,-211 350,-190 271,-190"/>
<text text-anchor="start" x="303.5" y="-196.8" font-family="Times,serif" font-size="14.00" fill="#000000">u1</text>
<polygon fill="none" stroke="#000000" points="350,-190 350,-211 458,-211 458,-190 350,-190"/>
<text text-anchor="start" x="355" y="-196.8" font-family="Times,serif" font-size="14.00" fill="#000000">header_checksum</text>
<polygon fill="none" stroke="#000000" points="218,-169 218,-190 243,-190 243,-169 218,-169"/>
<text text-anchor="start" x="227" y="-175.8" font-family="Times,serif" font-size="14.00" fill="#000000">1</text>
<polygon fill="none" stroke="#000000" points="243,-169 243,-190 271,-190 271,-169 243,-169"/>
<text text-anchor="start" x="253.5" y="-175.8" font-family="Times,serif" font-size="14.00" fill="#000000">5</text>
<polygon fill="none" stroke="#000000" points="271,-169 271,-190 350,-190 350,-169 271,-169"/>
<text text-anchor="start" x="281.5" y="-175.8" font-family="Times,serif" font-size="14.00" fill="#000000">str(ASCII)</text>
<polygon fill="none" stroke="#000000" points="350,-169 350,-190 458,-190 458,-169 350,-169"/>
<text text-anchor="start" x="374.5" y="-175.8" font-family="Times,serif" font-size="14.00" fill="#000000">method_id</text>
<polygon fill="none" stroke="#000000" points="218,-148 218,-169 243,-169 243,-148 218,-148"/>
<text text-anchor="start" x="227" y="-154.8" font-family="Times,serif" font-size="14.00" fill="#000000">6</text>
<polygon fill="none" stroke="#000000" points="243,-148 243,-169 271,-169 271,-148 243,-148"/>
<text text-anchor="start" x="253.5" y="-154.8" font-family="Times,serif" font-size="14.00" fill="#000000">4</text>
<polygon fill="none" stroke="#000000" points="271,-148 271,-169 350,-169 350,-148 271,-148"/>
<text text-anchor="start" x="298.5" y="-154.8" font-family="Times,serif" font-size="14.00" fill="#000000">u4le</text>
<polygon fill="none" stroke="#000000" points="350,-148 350,-169 458,-169 458,-148 350,-148"/>
<text text-anchor="start" x="360" y="-154.8" font-family="Times,serif" font-size="14.00" fill="#000000">file_size_compr</text>
<polygon fill="none" stroke="#000000" points="218,-127 218,-148 243,-148 243,-127 218,-127"/>
<text text-anchor="start" x="223.5" y="-133.8" font-family="Times,serif" font-size="14.00" fill="#000000">10</text>
<polygon fill="none" stroke="#000000" points="243,-127 243,-148 271,-148 271,-127 243,-127"/>
<text text-anchor="start" x="253.5" y="-133.8" font-family="Times,serif" font-size="14.00" fill="#000000">4</text>
<polygon fill="none" stroke="#000000" points="271,-127 271,-148 350,-148 350,-127 271,-127"/>
<text text-anchor="start" x="298.5" y="-133.8" font-family="Times,serif" font-size="14.00" fill="#000000">u4le</text>
<polygon fill="none" stroke="#000000" points="350,-127 350,-148 458,-148 458,-127 350,-127"/>
<text text-anchor="start" x="353" y="-133.8" font-family="Times,serif" font-size="14.00" fill="#000000">file_size_uncompr</text>
<polygon fill="none" stroke="#000000" points="218,-106 218,-127 243,-127 243,-106 218,-106"/>
<text text-anchor="start" x="223.5" y="-112.8" font-family="Times,serif" font-size="14.00" fill="#000000">14</text>
<polygon fill="none" stroke="#000000" points="243,-106 243,-127 271,-127 271,-106 243,-106"/>
<text text-anchor="start" x="253.5" y="-112.8" font-family="Times,serif" font-size="14.00" fill="#000000">4</text>
<polygon fill="none" stroke="#000000" points="271,-106 271,-127 350,-127 350,-106 271,-106"/>
<text text-anchor="start" x="274" y="-112.8" font-family="Times,serif" font-size="14.00" fill="#000000">DosDatetime</text>
<polygon fill="none" stroke="#000000" points="350,-106 350,-127 458,-127 458,-106 350,-106"/>
<text text-anchor="start" x="362.5" y="-112.8" font-family="Times,serif" font-size="14.00" fill="#000000">file_timestamp</text>
<polygon fill="none" stroke="#000000" points="218,-85 218,-106 243,-106 243,-85 218,-85"/>
<text text-anchor="start" x="223.5" y="-91.8" font-family="Times,serif" font-size="14.00" fill="#000000">18</text>
<polygon fill="none" stroke="#000000" points="243,-85 243,-106 271,-106 271,-85 243,-85"/>
<text text-anchor="start" x="253.5" y="-91.8" font-family="Times,serif" font-size="14.00" fill="#000000">1</text>
<polygon fill="none" stroke="#000000" points="271,-85 271,-106 350,-106 350,-85 271,-85"/>
<text text-anchor="start" x="303.5" y="-91.8" font-family="Times,serif" font-size="14.00" fill="#000000">u1</text>
<polygon fill="none" stroke="#000000" points="350,-85 350,-106 458,-106 458,-85 350,-85"/>
<text text-anchor="start" x="394.5" y="-91.8" font-family="Times,serif" font-size="14.00" fill="#000000">attr</text>
<polygon fill="none" stroke="#000000" points="218,-64 218,-85 243,-85 243,-64 218,-64"/>
<text text-anchor="start" x="223.5" y="-70.8" font-family="Times,serif" font-size="14.00" fill="#000000">19</text>
<polygon fill="none" stroke="#000000" points="243,-64 243,-85 271,-85 271,-64 243,-64"/>
<text text-anchor="start" x="253.5" y="-70.8" font-family="Times,serif" font-size="14.00" fill="#000000">1</text>
<polygon fill="none" stroke="#000000" points="271,-64 271,-85 350,-85 350,-64 271,-64"/>
<text text-anchor="start" x="303.5" y="-70.8" font-family="Times,serif" font-size="14.00" fill="#000000">u1</text>
<polygon fill="none" stroke="#000000" points="350,-64 350,-85 458,-85 458,-64 350,-64"/>
<text text-anchor="start" x="379" y="-70.8" font-family="Times,serif" font-size="14.00" fill="#000000">lha_level</text>
</g>
<!-- header__seq&#45;&gt;header1__seq -->
<g id="edge6" class="edge">
<title>header__seq:header1_type&#45;&gt;header1__seq</title>
<path fill="none" stroke="#000000" stroke-width="2" d="M1215,-236C1215,-236 923,-271.5 923,-271.5 889.1131,-246.5126 928.1328,-206.979 895,-181 777.3586,-88.7592 599.143,-95.735 476.1326,-115.8279"/>
<polygon fill="#000000" stroke="#000000" stroke-width="2" points="475.5437,-112.3777 466.2626,-117.4875 476.7045,-119.2808 475.5437,-112.3777"/>
</g>
<!-- header1__seq&#45;&gt;file_record__seq -->
<g id="edge5" class="edge">
<title>header1__seq:file_size_compr_type&#45;&gt;file_record__seq:body_size</title>
<path fill="none" stroke="#404040" d="M458,-159C474.624,-159 589.3856,-173.3535 618.6963,-189.6684"/>
<polygon fill="#404040" stroke="#404040" points="616.1322,-192.0507 625.5,-197 621.2633,-187.2891 616.1322,-192.0507"/>
</g>
<!-- dos_datetime__seq -->
<g id="node6" class="node">
<title>dos_datetime__seq</title>
<text text-anchor="middle" x="694.5" y="-14.3" font-family="Times,serif" font-size="14.00" fill="#000000">dos_datetime__seq</text>
</g>
<!-- header1__seq&#45;&gt;dos_datetime__seq -->
<g id="edge8" class="edge">
<title>header1__seq:file_timestamp_type&#45;&gt;dos_datetime__seq</title>
<path fill="none" stroke="#000000" stroke-width="2" d="M458,-116C535.2918,-116 616.7111,-70.7752 660.9817,-41.77"/>
<polygon fill="#000000" stroke="#000000" stroke-width="2" points="662.9507,-44.6638 669.3282,-36.2034 659.0667,-38.8401 662.9507,-44.6638"/>
</g>
</g>
</svg>
