<?xml version="1.0" encoding="UTF-8" standalone="no"?>
<!DOCTYPE svg PUBLIC "-//W3C//DTD SVG 1.1//EN"
 "http://www.w3.org/Graphics/SVG/1.1/DTD/svg11.dtd">
<!-- Generated by graphviz version 2.43.0 (0)
 -->
<!-- Title: %3 Pages: 1 -->
<svg width="1512pt" height="433pt"
 viewBox="0.00 0.00 1512.00 433.00" xmlns="http://www.w3.org/2000/svg" xmlns:xlink="http://www.w3.org/1999/xlink">
<g id="graph0" class="graph" transform="scale(1 1) rotate(0) translate(4 429)">
<title>%3</title>
<polygon fill="white" stroke="transparent" points="-4,4 -4,-429 1508,-429 1508,4 -4,4"/>
<g id="clust1" class="cluster">
<title>cluster__lzh</title>
<polygon fill="none" stroke="black" stroke-dasharray="1,5" points="8,-44 8,-417 1496,-417 1496,-44 8,-44"/>
<text text-anchor="middle" x="752" y="-401.8" font-family="Times,serif" font-size="14.00">Lzh</text>
</g>
<g id="clust2" class="cluster">
<title>cluster__record</title>
<polygon fill="none" stroke="black" stroke-dasharray="1,5" points="271,-275 271,-386 537,-386 537,-275 271,-275"/>
<text text-anchor="middle" x="404" y="-370.8" font-family="Times,serif" font-size="14.00">Lzh::Record</text>
</g>
<g id="clust3" class="cluster">
<title>cluster__file_record</title>
<polygon fill="none" stroke="black" stroke-dasharray="1,5" points="589,-185 589,-316 1086,-316 1086,-185 589,-185"/>
<text text-anchor="middle" x="837.5" y="-300.8" font-family="Times,serif" font-size="14.00">Lzh::FileRecord</text>
</g>
<g id="clust4" class="cluster">
<title>cluster__header</title>
<polygon fill="none" stroke="black" stroke-dasharray="1,5" points="1106,-108 1106,-321 1488,-321 1488,-108 1106,-108"/>
<text text-anchor="middle" x="1297" y="-305.8" font-family="Times,serif" font-size="14.00">Lzh::Header</text>
</g>
<g id="clust5" class="cluster">
<title>cluster__header1</title>
<polygon fill="none" stroke="black" stroke-dasharray="1,5" points="239,-52 239,-267 569,-267 569,-52 239,-52"/>
<text text-anchor="middle" x="404" y="-251.8" font-family="Times,serif" font-size="14.00">Lzh::Header1</text>
</g>
<!-- lzh__seq -->
<g id="node1" class="node">
<title>lzh__seq</title>
<polygon fill="#e0ffe0" stroke="transparent" points="24.5,-330 24.5,-351 55.5,-351 55.5,-330 24.5,-330"/>
<polygon fill="none" stroke="black" points="24.5,-330 24.5,-351 55.5,-351 55.5,-330 24.5,-330"/>
<text text-anchor="start" x="27.5" y="-336.8" font-family="Times,serif" font-size="14.00">pos</text>
<polygon fill="#e0ffe0" stroke="transparent" points="55.5,-330 55.5,-351 89.5,-351 89.5,-330 55.5,-330"/>
<polygon fill="none" stroke="black" points="55.5,-330 55.5,-351 89.5,-351 89.5,-330 55.5,-330"/>
<text text-anchor="start" x="58.5" y="-336.8" font-family="Times,serif" font-size="14.00">size</text>
<polygon fill="#e0ffe0" stroke="transparent" points="89.5,-330 89.5,-351 146.5,-351 146.5,-330 89.5,-330"/>
<polygon fill="none" stroke="black" points="89.5,-330 89.5,-351 146.5,-351 146.5,-330 89.5,-330"/>
<text text-anchor="start" x="102" y="-336.8" font-family="Times,serif" font-size="14.00">type</text>
<polygon fill="#e0ffe0" stroke="transparent" points="146.5,-330 146.5,-351 203.5,-351 203.5,-330 146.5,-330"/>
<polygon fill="none" stroke="black" points="146.5,-330 146.5,-351 203.5,-351 203.5,-330 146.5,-330"/>
<text text-anchor="start" x="168" y="-336.8" font-family="Times,serif" font-size="14.00">id</text>
<polygon fill="none" stroke="black" points="24.5,-309 24.5,-330 55.5,-330 55.5,-309 24.5,-309"/>
<text text-anchor="start" x="35" y="-315.8" font-family="Times,serif" font-size="14.00">0</text>
<polygon fill="none" stroke="black" points="55.5,-309 55.5,-330 89.5,-330 89.5,-309 55.5,-309"/>
<text text-anchor="start" x="65.5" y="-315.8" font-family="Times,serif" font-size="14.00">...</text>
<polygon fill="none" stroke="black" points="89.5,-309 89.5,-330 146.5,-330 146.5,-309 89.5,-309"/>
<text text-anchor="start" x="92.5" y="-315.8" font-family="Times,serif" font-size="14.00">Record</text>
<polygon fill="none" stroke="black" points="146.5,-309 146.5,-330 203.5,-330 203.5,-309 146.5,-309"/>
<text text-anchor="start" x="149.5" y="-315.8" font-family="Times,serif" font-size="14.00">entries</text>
<polygon fill="none" stroke="black" points="24.5,-288 24.5,-309 203.5,-309 203.5,-288 24.5,-288"/>
<text text-anchor="start" x="29.5" y="-294.8" font-family="Times,serif" font-size="14.00">repeat to end of stream</text>
</g>
<!-- record__seq -->
<g id="node2" class="node">
<title>record__seq</title>
<polygon fill="#e0ffe0" stroke="transparent" points="287,-329 287,-350 318,-350 318,-329 287,-329"/>
<polygon fill="none" stroke="black" points="287,-329 287,-350 318,-350 318,-329 287,-329"/>
<text text-anchor="start" x="290" y="-335.8" font-family="Times,serif" font-size="14.00">pos</text>
<polygon fill="#e0ffe0" stroke="transparent" points="318,-329 318,-350 352,-350 352,-329 318,-329"/>
<polygon fill="none" stroke="black" points="318,-329 318,-350 352,-350 352,-329 318,-329"/>
<text text-anchor="start" x="321" y="-335.8" font-family="Times,serif" font-size="14.00">size</text>
<polygon fill="#e0ffe0" stroke="transparent" points="352,-329 352,-350 436,-350 436,-329 352,-329"/>
<polygon fill="none" stroke="black" points="352,-329 352,-350 436,-350 436,-329 352,-329"/>
<text text-anchor="start" x="378" y="-335.8" font-family="Times,serif" font-size="14.00">type</text>
<polygon fill="#e0ffe0" stroke="transparent" points="436,-329 436,-350 521,-350 521,-329 436,-329"/>
<polygon fill="none" stroke="black" points="436,-329 436,-350 521,-350 521,-329 436,-329"/>
<text text-anchor="start" x="471.5" y="-335.8" font-family="Times,serif" font-size="14.00">id</text>
<polygon fill="none" stroke="black" points="287,-308 287,-329 318,-329 318,-308 287,-308"/>
<text text-anchor="start" x="297.5" y="-314.8" font-family="Times,serif" font-size="14.00">0</text>
<polygon fill="none" stroke="black" points="318,-308 318,-329 352,-329 352,-308 318,-308"/>
<text text-anchor="start" x="330" y="-314.8" font-family="Times,serif" font-size="14.00">1</text>
<polygon fill="none" stroke="black" points="352,-308 352,-329 436,-329 436,-308 352,-308"/>
<text text-anchor="start" x="384.5" y="-314.8" font-family="Times,serif" font-size="14.00">u1</text>
<polygon fill="none" stroke="black" points="436,-308 436,-329 521,-329 521,-308 436,-308"/>
<text text-anchor="start" x="439" y="-314.8" font-family="Times,serif" font-size="14.00">header_len</text>
<polygon fill="none" stroke="black" points="287,-287 287,-308 318,-308 318,-287 287,-287"/>
<text text-anchor="start" x="297.5" y="-293.8" font-family="Times,serif" font-size="14.00">1</text>
<polygon fill="none" stroke="black" points="318,-287 318,-308 352,-308 352,-287 318,-287"/>
<text text-anchor="start" x="328" y="-293.8" font-family="Times,serif" font-size="14.00">...</text>
<polygon fill="none" stroke="black" points="352,-287 352,-308 436,-308 436,-287 352,-287"/>
<text text-anchor="start" x="355" y="-293.8" font-family="Times,serif" font-size="14.00">FileRecord</text>
<polygon fill="none" stroke="black" points="436,-287 436,-308 521,-308 521,-287 436,-287"/>
<text text-anchor="start" x="440.5" y="-293.8" font-family="Times,serif" font-size="14.00">file_record</text>
</g>
<!-- lzh__seq&#45;&gt;record__seq -->
<g id="edge1" class="edge">
<title>lzh__seq:entries_type&#45;&gt;record__seq</title>
<path fill="none" stroke="black" stroke-width="2" d="M204.5,-319C225.25,-319 247.22,-319 268.69,-319"/>
<polygon fill="black" stroke="black" stroke-width="2" points="268.85,-322.5 278.85,-319 268.85,-315.5 268.85,-322.5"/>
</g>
<!-- file_record__seq -->
<g id="node3" class="node">
<title>file_record__seq</title>
<polygon fill="#e0ffe0" stroke="transparent" points="605.5,-260 605.5,-281 636.5,-281 636.5,-260 605.5,-260"/>
<polygon fill="none" stroke="black" points="605.5,-260 605.5,-281 636.5,-281 636.5,-260 605.5,-260"/>
<text text-anchor="start" x="608.5" y="-266.8" font-family="Times,serif" font-size="14.00">pos</text>
<polygon fill="#e0ffe0" stroke="transparent" points="636.5,-260 636.5,-281 866.5,-281 866.5,-260 636.5,-260"/>
<polygon fill="none" stroke="black" points="636.5,-260 636.5,-281 866.5,-281 866.5,-260 636.5,-260"/>
<text text-anchor="start" x="737.5" y="-266.8" font-family="Times,serif" font-size="14.00">size</text>
<polygon fill="#e0ffe0" stroke="transparent" points="866.5,-260 866.5,-281 925.5,-281 925.5,-260 866.5,-260"/>
<polygon fill="none" stroke="black" points="866.5,-260 866.5,-281 925.5,-281 925.5,-260 866.5,-260"/>
<text text-anchor="start" x="880" y="-266.8" font-family="Times,serif" font-size="14.00">type</text>
<polygon fill="#e0ffe0" stroke="transparent" points="925.5,-260 925.5,-281 1070.5,-281 1070.5,-260 925.5,-260"/>
<polygon fill="none" stroke="black" points="925.5,-260 925.5,-281 1070.5,-281 1070.5,-260 925.5,-260"/>
<text text-anchor="start" x="991" y="-266.8" font-family="Times,serif" font-size="14.00">id</text>
<polygon fill="none" stroke="black" points="605.5,-239 605.5,-260 636.5,-260 636.5,-239 605.5,-239"/>
<text text-anchor="start" x="616" y="-245.8" font-family="Times,serif" font-size="14.00">0</text>
<polygon fill="none" stroke="black" points="636.5,-239 636.5,-260 866.5,-260 866.5,-239 636.5,-239"/>
<text text-anchor="start" x="666.5" y="-245.8" font-family="Times,serif" font-size="14.00">(_parent.header_len &#45; 1)</text>
<polygon fill="none" stroke="black" points="866.5,-239 866.5,-260 925.5,-260 925.5,-239 866.5,-239"/>
<text text-anchor="start" x="869.5" y="-245.8" font-family="Times,serif" font-size="14.00">Header</text>
<polygon fill="none" stroke="black" points="925.5,-239 925.5,-260 1070.5,-260 1070.5,-239 925.5,-239"/>
<text text-anchor="start" x="973" y="-245.8" font-family="Times,serif" font-size="14.00">header</text>
<polygon fill="none" stroke="black" points="605.5,-218 605.5,-239 636.5,-239 636.5,-218 605.5,-218"/>
<text text-anchor="start" x="614" y="-224.8" font-family="Times,serif" font-size="14.00">...</text>
<polygon fill="none" stroke="black" points="636.5,-218 636.5,-239 866.5,-239 866.5,-218 636.5,-218"/>
<text text-anchor="start" x="746.5" y="-224.8" font-family="Times,serif" font-size="14.00">2</text>
<polygon fill="none" stroke="black" points="866.5,-218 866.5,-239 925.5,-239 925.5,-218 866.5,-218"/>
<text text-anchor="start" x="880.5" y="-224.8" font-family="Times,serif" font-size="14.00">u2le</text>
<polygon fill="none" stroke="black" points="925.5,-218 925.5,-239 1070.5,-239 1070.5,-218 925.5,-218"/>
<text text-anchor="start" x="928.5" y="-224.8" font-family="Times,serif" font-size="14.00">file_uncompr_crc16</text>
<polygon fill="none" stroke="black" points="605.5,-197 605.5,-218 636.5,-218 636.5,-197 605.5,-197"/>
<text text-anchor="start" x="614" y="-203.8" font-family="Times,serif" font-size="14.00">...</text>
<polygon fill="none" stroke="black" points="636.5,-197 636.5,-218 866.5,-218 866.5,-197 636.5,-197"/>
<text text-anchor="start" x="639.5" y="-203.8" font-family="Times,serif" font-size="14.00">header.header1.file_size_compr</text>
<polygon fill="none" stroke="black" points="866.5,-197 866.5,-218 925.5,-218 925.5,-197 866.5,-197"/>
<polygon fill="none" stroke="black" points="925.5,-197 925.5,-218 1070.5,-218 1070.5,-197 925.5,-197"/>
<text text-anchor="start" x="980.5" y="-203.8" font-family="Times,serif" font-size="14.00">body</text>
</g>
<!-- record__seq&#45;&gt;file_record__seq -->
<g id="edge2" class="edge">
<title>record__seq:file_record_type&#45;&gt;file_record__seq</title>
<path fill="none" stroke="black" stroke-width="2" d="M522,-297C560.1,-297 600.37,-292.83 638.91,-286.73"/>
<polygon fill="black" stroke="black" stroke-width="2" points="639.89,-290.12 649.2,-285.05 638.76,-283.21 639.89,-290.12"/>
</g>
<!-- record__seq&#45;&gt;file_record__seq -->
<g id="edge3" class="edge">
<title>record__seq:header_len_type&#45;&gt;file_record__seq:header_size</title>
<path fill="none" stroke="#404040" d="M522,-318C596.49,-318 679.18,-284.39 721.73,-264.43"/>
<polygon fill="#404040" stroke="#404040" points="723.4,-267.51 730.91,-260.03 720.38,-261.19 723.4,-267.51"/>
</g>
<!-- header__seq -->
<g id="node4" class="node">
<title>header__seq</title>
<polygon fill="#e0ffe0" stroke="transparent" points="1122,-246 1122,-267 1153,-267 1153,-246 1122,-246"/>
<polygon fill="none" stroke="black" points="1122,-246 1122,-267 1153,-267 1153,-246 1122,-246"/>
<text text-anchor="start" x="1125" y="-252.8" font-family="Times,serif" font-size="14.00">pos</text>
<polygon fill="#e0ffe0" stroke="transparent" points="1153,-246 1153,-267 1249,-267 1249,-246 1153,-246"/>
<polygon fill="none" stroke="black" points="1153,-246 1153,-267 1249,-267 1249,-246 1153,-246"/>
<text text-anchor="start" x="1187" y="-252.8" font-family="Times,serif" font-size="14.00">size</text>
<polygon fill="#e0ffe0" stroke="transparent" points="1249,-246 1249,-267 1327,-267 1327,-246 1249,-246"/>
<polygon fill="none" stroke="black" points="1249,-246 1249,-267 1327,-267 1327,-246 1249,-246"/>
<text text-anchor="start" x="1272" y="-252.8" font-family="Times,serif" font-size="14.00">type</text>
<polygon fill="#e0ffe0" stroke="transparent" points="1327,-246 1327,-267 1472,-267 1472,-246 1327,-246"/>
<polygon fill="none" stroke="black" points="1327,-246 1327,-267 1472,-267 1472,-246 1327,-246"/>
<text text-anchor="start" x="1392.5" y="-252.8" font-family="Times,serif" font-size="14.00">id</text>
<polygon fill="none" stroke="black" points="1122,-225 1122,-246 1153,-246 1153,-225 1122,-225"/>
<text text-anchor="start" x="1132.5" y="-231.8" font-family="Times,serif" font-size="14.00">0</text>
<polygon fill="none" stroke="black" points="1153,-225 1153,-246 1249,-246 1249,-225 1153,-225"/>
<text text-anchor="start" x="1191.5" y="-231.8" font-family="Times,serif" font-size="14.00">20</text>
<polygon fill="none" stroke="black" points="1249,-225 1249,-246 1327,-246 1327,-225 1249,-225"/>
<text text-anchor="start" x="1257" y="-231.8" font-family="Times,serif" font-size="14.00">Header1</text>
<polygon fill="none" stroke="black" points="1327,-225 1327,-246 1472,-246 1472,-225 1327,-225"/>
<text text-anchor="start" x="1370" y="-231.8" font-family="Times,serif" font-size="14.00">header1</text>
<polygon fill="none" stroke="black" points="1122,-204 1122,-225 1153,-225 1153,-204 1122,-204"/>
<text text-anchor="start" x="1128" y="-210.8" font-family="Times,serif" font-size="14.00">20</text>
<polygon fill="none" stroke="black" points="1153,-204 1153,-225 1249,-225 1249,-204 1153,-204"/>
<text text-anchor="start" x="1196" y="-210.8" font-family="Times,serif" font-size="14.00">1</text>
<polygon fill="none" stroke="black" points="1249,-204 1249,-225 1327,-225 1327,-204 1249,-204"/>
<text text-anchor="start" x="1278.5" y="-210.8" font-family="Times,serif" font-size="14.00">u1</text>
<polygon fill="none" stroke="black" points="1327,-204 1327,-225 1472,-225 1472,-204 1327,-204"/>
<text text-anchor="start" x="1354.5" y="-210.8" font-family="Times,serif" font-size="14.00">filename_len</text>
<polygon fill="none" stroke="black" points="1122,-183 1122,-204 1153,-204 1153,-183 1122,-183"/>
<text text-anchor="start" x="1128" y="-189.8" font-family="Times,serif" font-size="14.00">21</text>
<polygon fill="none" stroke="black" points="1153,-183 1153,-204 1249,-204 1249,-183 1153,-183"/>
<text text-anchor="start" x="1156" y="-189.8" font-family="Times,serif" font-size="14.00">filename_len</text>
<polygon fill="none" stroke="black" points="1249,-183 1249,-204 1327,-204 1327,-183 1249,-183"/>
<text text-anchor="start" x="1252" y="-189.8" font-family="Times,serif" font-size="14.00">str(ASCII)</text>
<polygon fill="none" stroke="black" points="1327,-183 1327,-204 1472,-204 1472,-183 1327,-183"/>
<text text-anchor="start" x="1369" y="-189.8" font-family="Times,serif" font-size="14.00">filename</text>
<polygon fill="none" stroke="black" points="1122,-162 1122,-183 1153,-183 1153,-162 1122,-162"/>
<text text-anchor="start" x="1130.5" y="-168.8" font-family="Times,serif" font-size="14.00">...</text>
<polygon fill="none" stroke="black" points="1153,-162 1153,-183 1249,-183 1249,-162 1153,-162"/>
<text text-anchor="start" x="1196" y="-168.8" font-family="Times,serif" font-size="14.00">2</text>
<polygon fill="none" stroke="black" points="1249,-162 1249,-183 1327,-183 1327,-162 1249,-162"/>
<text text-anchor="start" x="1272.5" y="-168.8" font-family="Times,serif" font-size="14.00">u2le</text>
<polygon fill="none" stroke="black" points="1327,-162 1327,-183 1472,-183 1472,-162 1327,-162"/>
<text text-anchor="start" x="1330" y="-168.8" font-family="Times,serif" font-size="14.00">file_uncompr_crc16</text>
<polygon fill="none" stroke="black" points="1122,-141 1122,-162 1153,-162 1153,-141 1122,-141"/>
<text text-anchor="start" x="1130.5" y="-147.8" font-family="Times,serif" font-size="14.00">...</text>
<polygon fill="none" stroke="black" points="1153,-141 1153,-162 1249,-162 1249,-141 1153,-141"/>
<text text-anchor="start" x="1196" y="-147.8" font-family="Times,serif" font-size="14.00">1</text>
<polygon fill="none" stroke="black" points="1249,-141 1249,-162 1327,-162 1327,-141 1249,-141"/>
<text text-anchor="start" x="1278.5" y="-147.8" font-family="Times,serif" font-size="14.00">u1</text>
<polygon fill="none" stroke="black" points="1327,-141 1327,-162 1472,-162 1472,-141 1327,-141"/>
<text text-anchor="start" x="1391.5" y="-147.8" font-family="Times,serif" font-size="14.00">os</text>
<polygon fill="none" stroke="black" points="1122,-120 1122,-141 1153,-141 1153,-120 1122,-120"/>
<text text-anchor="start" x="1130.5" y="-126.8" font-family="Times,serif" font-size="14.00">...</text>
<polygon fill="none" stroke="black" points="1153,-120 1153,-141 1249,-141 1249,-120 1153,-120"/>
<text text-anchor="start" x="1196" y="-126.8" font-family="Times,serif" font-size="14.00">2</text>
<polygon fill="none" stroke="black" points="1249,-120 1249,-141 1327,-141 1327,-120 1249,-120"/>
<text text-anchor="start" x="1272.5" y="-126.8" font-family="Times,serif" font-size="14.00">u2le</text>
<polygon fill="none" stroke="black" points="1327,-120 1327,-141 1472,-141 1472,-120 1327,-120"/>
<text text-anchor="start" x="1342.5" y="-126.8" font-family="Times,serif" font-size="14.00">ext_header_size</text>
</g>
<!-- file_record__seq&#45;&gt;header__seq -->
<g id="edge4" class="edge">
<title>file_record__seq:header_type&#45;&gt;header__seq</title>
<path fill="none" stroke="black" stroke-width="2" d="M1071.5,-250C1082.11,-250 1092.92,-249.4 1103.78,-248.33"/>
<polygon fill="black" stroke="black" stroke-width="2" points="1104.21,-251.81 1113.76,-247.22 1103.43,-244.85 1104.21,-251.81"/>
</g>
<!-- header__seq&#45;&gt;header__seq -->
<g id="edge7" class="edge">
<title>header__seq:filename_len_type&#45;&gt;header__seq:filename_size</title>
<path fill="none" stroke="#404040" d="M1431.5,-225.08C1512.25,-255.13 1492.56,-289.5 1300.5,-289.5 1116.92,-289.5 1090.82,-241.91 1159.4,-208.29"/>
<polygon fill="#404040" stroke="#404040" points="1161.05,-211.38 1168.71,-204.05 1158.16,-205.01 1161.05,-211.38"/>
</g>
<!-- header1__seq -->
<g id="node5" class="node">
<title>header1__seq</title>
<polygon fill="#e0ffe0" stroke="transparent" points="255,-211 255,-232 286,-232 286,-211 255,-211"/>
<polygon fill="none" stroke="black" points="255,-211 255,-232 286,-232 286,-211 255,-211"/>
<text text-anchor="start" x="258" y="-217.8" font-family="Times,serif" font-size="14.00">pos</text>
<polygon fill="#e0ffe0" stroke="transparent" points="286,-211 286,-232 320,-232 320,-211 286,-211"/>
<polygon fill="none" stroke="black" points="286,-211 286,-232 320,-232 320,-211 286,-211"/>
<text text-anchor="start" x="289" y="-217.8" font-family="Times,serif" font-size="14.00">size</text>
<polygon fill="#e0ffe0" stroke="transparent" points="320,-211 320,-232 420,-232 420,-211 320,-211"/>
<polygon fill="none" stroke="black" points="320,-211 320,-232 420,-232 420,-211 320,-211"/>
<text text-anchor="start" x="354" y="-217.8" font-family="Times,serif" font-size="14.00">type</text>
<polygon fill="#e0ffe0" stroke="transparent" points="420,-211 420,-232 553,-232 553,-211 420,-211"/>
<polygon fill="none" stroke="black" points="420,-211 420,-232 553,-232 553,-211 420,-211"/>
<text text-anchor="start" x="479.5" y="-217.8" font-family="Times,serif" font-size="14.00">id</text>
<polygon fill="none" stroke="black" points="255,-190 255,-211 286,-211 286,-190 255,-190"/>
<text text-anchor="start" x="265.5" y="-196.8" font-family="Times,serif" font-size="14.00">0</text>
<polygon fill="none" stroke="black" points="286,-190 286,-211 320,-211 320,-190 286,-190"/>
<text text-anchor="start" x="298" y="-196.8" font-family="Times,serif" font-size="14.00">1</text>
<polygon fill="none" stroke="black" points="320,-190 320,-211 420,-211 420,-190 320,-190"/>
<text text-anchor="start" x="360.5" y="-196.8" font-family="Times,serif" font-size="14.00">u1</text>
<polygon fill="none" stroke="black" points="420,-190 420,-211 553,-211 553,-190 420,-190"/>
<text text-anchor="start" x="423" y="-196.8" font-family="Times,serif" font-size="14.00">header_checksum</text>
<polygon fill="none" stroke="black" points="255,-169 255,-190 286,-190 286,-169 255,-169"/>
<text text-anchor="start" x="265.5" y="-175.8" font-family="Times,serif" font-size="14.00">1</text>
<polygon fill="none" stroke="black" points="286,-169 286,-190 320,-190 320,-169 286,-169"/>
<text text-anchor="start" x="298" y="-175.8" font-family="Times,serif" font-size="14.00">5</text>
<polygon fill="none" stroke="black" points="320,-169 320,-190 420,-190 420,-169 320,-169"/>
<text text-anchor="start" x="334" y="-175.8" font-family="Times,serif" font-size="14.00">str(ASCII)</text>
<polygon fill="none" stroke="black" points="420,-169 420,-190 553,-190 553,-169 420,-169"/>
<text text-anchor="start" x="449" y="-175.8" font-family="Times,serif" font-size="14.00">method_id</text>
<polygon fill="none" stroke="black" points="255,-148 255,-169 286,-169 286,-148 255,-148"/>
<text text-anchor="start" x="265.5" y="-154.8" font-family="Times,serif" font-size="14.00">6</text>
<polygon fill="none" stroke="black" points="286,-148 286,-169 320,-169 320,-148 286,-148"/>
<text text-anchor="start" x="298" y="-154.8" font-family="Times,serif" font-size="14.00">4</text>
<polygon fill="none" stroke="black" points="320,-148 320,-169 420,-169 420,-148 320,-148"/>
<text text-anchor="start" x="354.5" y="-154.8" font-family="Times,serif" font-size="14.00">u4le</text>
<polygon fill="none" stroke="black" points="420,-148 420,-169 553,-169 553,-148 420,-148"/>
<text text-anchor="start" x="432" y="-154.8" font-family="Times,serif" font-size="14.00">file_size_compr</text>
<polygon fill="none" stroke="black" points="255,-127 255,-148 286,-148 286,-127 255,-127"/>
<text text-anchor="start" x="261" y="-133.8" font-family="Times,serif" font-size="14.00">10</text>
<polygon fill="none" stroke="black" points="286,-127 286,-148 320,-148 320,-127 286,-127"/>
<text text-anchor="start" x="298" y="-133.8" font-family="Times,serif" font-size="14.00">4</text>
<polygon fill="none" stroke="black" points="320,-127 320,-148 420,-148 420,-127 320,-127"/>
<text text-anchor="start" x="354.5" y="-133.8" font-family="Times,serif" font-size="14.00">u4le</text>
<polygon fill="none" stroke="black" points="420,-127 420,-148 553,-148 553,-127 420,-127"/>
<text text-anchor="start" x="423" y="-133.8" font-family="Times,serif" font-size="14.00">file_size_uncompr</text>
<polygon fill="none" stroke="black" points="255,-106 255,-127 286,-127 286,-106 255,-106"/>
<text text-anchor="start" x="261" y="-112.8" font-family="Times,serif" font-size="14.00">14</text>
<polygon fill="none" stroke="black" points="286,-106 286,-127 320,-127 320,-106 286,-106"/>
<text text-anchor="start" x="298" y="-112.8" font-family="Times,serif" font-size="14.00">4</text>
<polygon fill="none" stroke="black" points="320,-106 320,-127 420,-127 420,-106 320,-106"/>
<text text-anchor="start" x="323" y="-112.8" font-family="Times,serif" font-size="14.00">DosDatetime</text>
<polygon fill="none" stroke="black" points="420,-106 420,-127 553,-127 553,-106 420,-106"/>
<text text-anchor="start" x="433.5" y="-112.8" font-family="Times,serif" font-size="14.00">file_timestamp</text>
<polygon fill="none" stroke="black" points="255,-85 255,-106 286,-106 286,-85 255,-85"/>
<text text-anchor="start" x="261" y="-91.8" font-family="Times,serif" font-size="14.00">18</text>
<polygon fill="none" stroke="black" points="286,-85 286,-106 320,-106 320,-85 286,-85"/>
<text text-anchor="start" x="298" y="-91.8" font-family="Times,serif" font-size="14.00">1</text>
<polygon fill="none" stroke="black" points="320,-85 320,-106 420,-106 420,-85 320,-85"/>
<text text-anchor="start" x="360.5" y="-91.8" font-family="Times,serif" font-size="14.00">u1</text>
<polygon fill="none" stroke="black" points="420,-85 420,-106 553,-106 553,-85 420,-85"/>
<text text-anchor="start" x="472.5" y="-91.8" font-family="Times,serif" font-size="14.00">attr</text>
<polygon fill="none" stroke="black" points="255,-64 255,-85 286,-85 286,-64 255,-64"/>
<text text-anchor="start" x="261" y="-70.8" font-family="Times,serif" font-size="14.00">19</text>
<polygon fill="none" stroke="black" points="286,-64 286,-85 320,-85 320,-64 286,-64"/>
<text text-anchor="start" x="298" y="-70.8" font-family="Times,serif" font-size="14.00">1</text>
<polygon fill="none" stroke="black" points="320,-64 320,-85 420,-85 420,-64 320,-64"/>
<text text-anchor="start" x="360.5" y="-70.8" font-family="Times,serif" font-size="14.00">u1</text>
<polygon fill="none" stroke="black" points="420,-64 420,-85 553,-85 553,-64 420,-64"/>
<text text-anchor="start" x="455" y="-70.8" font-family="Times,serif" font-size="14.00">lha_level</text>
</g>
<!-- header__seq&#45;&gt;header1__seq -->
<g id="edge6" class="edge">
<title>header__seq:header1_type&#45;&gt;header1__seq</title>
<path fill="none" stroke="black" stroke-width="2" d="M1473,-236C1502.6,-236 1466.67,-531.55 1114,-271.5 1080.11,-246.51 1119.27,-206.8 1086,-181 940.95,-68.53 721.77,-80.2 571.48,-106.89"/>
<polygon fill="black" stroke="black" stroke-width="2" points="570.44,-103.52 561.23,-108.75 571.69,-110.41 570.44,-103.52"/>
</g>
<!-- header1__seq&#45;&gt;file_record__seq -->
<g id="edge5" class="edge">
<title>header1__seq:file_size_compr_type&#45;&gt;file_record__seq:body_size</title>
<path fill="none" stroke="#404040" d="M554,-159C563.68,-159 705.09,-178.43 742.49,-190.87"/>
<polygon fill="#404040" stroke="#404040" points="741.08,-194.1 751.5,-196 744.54,-188.01 741.08,-194.1"/>
</g>
<!-- dos_datetime__seq -->
<g id="node6" class="node">
<title>dos_datetime__seq</title>
<text text-anchor="middle" x="837.5" y="-14.3" font-family="Times,serif" font-size="14.00">dos_datetime__seq</text>
</g>
<!-- header1__seq&#45;&gt;dos_datetime__seq -->
<g id="edge8" class="edge">
<title>header1__seq:file_timestamp_type&#45;&gt;dos_datetime__seq</title>
<path fill="none" stroke="black" stroke-width="2" d="M554,-116C645.03,-116 743.9,-70.02 797.16,-41.05"/>
<polygon fill="black" stroke="black" stroke-width="2" points="798.87,-44.1 805.94,-36.2 795.49,-37.97 798.87,-44.1"/>
</g>
</g>
</svg>
