<?xml version="1.0" encoding="UTF-8" standalone="no"?>
<!DOCTYPE svg PUBLIC "-//W3C//DTD SVG 1.1//EN"
 "http://www.w3.org/Graphics/SVG/1.1/DTD/svg11.dtd">
<!-- Generated by graphviz version 2.40.1 (20161225.0304)
 -->
<!-- Title: %3 Pages: 1 -->
<svg width="1453pt" height="540pt"
 viewBox="0.00 0.00 1453.00 540.00" xmlns="http://www.w3.org/2000/svg" xmlns:xlink="http://www.w3.org/1999/xlink">
<g id="graph0" class="graph" transform="scale(1 1) rotate(0) translate(4 536)">
<title>%3</title>
<polygon fill="#ffffff" stroke="transparent" points="-4,4 -4,-536 1449,-536 1449,4 -4,4"/>
<g id="clust1" class="cluster">
<title>cluster__ssh_public_key</title>
<polygon fill="none" stroke="#000000" stroke-dasharray="1,5" points="8,-8 8,-524 1437,-524 1437,-8 8,-8"/>
<text text-anchor="middle" x="722.5" y="-508.8" font-family="Times,serif" font-size="14.00" fill="#000000">SshPublicKey</text>
</g>
<g id="clust2" class="cluster">
<title>cluster__key_rsa</title>
<polygon fill="none" stroke="#000000" stroke-dasharray="1,5" points="704,-314 704,-493 972,-493 972,-314 704,-314"/>
<text text-anchor="middle" x="838" y="-477.8" font-family="Times,serif" font-size="14.00" fill="#000000">SshPublicKey::KeyRsa</text>
</g>
<g id="clust3" class="cluster">
<title>cluster__key_ed25519</title>
<polygon fill="none" stroke="#000000" stroke-dasharray="1,5" points="731.5,-177 731.5,-306 945.5,-306 945.5,-177 731.5,-177"/>
<text text-anchor="middle" x="838.5" y="-290.8" font-family="Times,serif" font-size="14.00" fill="#000000">SshPublicKey::KeyEd25519</text>
</g>
<g id="clust4" class="cluster">
<title>cluster__key_ecdsa</title>
<polygon fill="none" stroke="#000000" stroke-dasharray="1,5" points="41.5,-272 41.5,-383 334.5,-383 334.5,-272 41.5,-272"/>
<text text-anchor="middle" x="188" y="-367.8" font-family="Times,serif" font-size="14.00" fill="#000000">SshPublicKey::KeyEcdsa</text>
</g>
<g id="clust5" class="cluster">
<title>cluster__cstring</title>
<polygon fill="none" stroke="#000000" stroke-dasharray="1,5" points="424.5,-227 424.5,-356 647.5,-356 647.5,-227 424.5,-227"/>
<text text-anchor="middle" x="536" y="-340.8" font-family="Times,serif" font-size="14.00" fill="#000000">SshPublicKey::Cstring</text>
</g>
<g id="clust6" class="cluster">
<title>cluster__key_dsa</title>
<polygon fill="none" stroke="#000000" stroke-dasharray="1,5" points="704.5,-16 704.5,-169 971.5,-169 971.5,-16 704.5,-16"/>
<text text-anchor="middle" x="838" y="-153.8" font-family="Times,serif" font-size="14.00" fill="#000000">SshPublicKey::KeyDsa</text>
</g>
<g id="clust7" class="cluster">
<title>cluster__elliptic_curve</title>
<polygon fill="none" stroke="#000000" stroke-dasharray="1,5" points="427,-364 427,-493 645,-493 645,-364 427,-364"/>
<text text-anchor="middle" x="536" y="-477.8" font-family="Times,serif" font-size="14.00" fill="#000000">SshPublicKey::EllipticCurve</text>
</g>
<g id="clust8" class="cluster">
<title>cluster__bignum2</title>
<polygon fill="none" stroke="#000000" stroke-dasharray="1,5" points="992,-58 992,-187 1429,-187 1429,-58 992,-58"/>
<text text-anchor="middle" x="1210.5" y="-171.8" font-family="Times,serif" font-size="14.00" fill="#000000">SshPublicKey::Bignum2</text>
</g>
<!-- ssh_public_key__seq -->
<g id="node1" class="node">
<title>ssh_public_key__seq</title>
<polygon fill="#e0ffe0" stroke="transparent" points="24,-237 24,-258 55,-258 55,-237 24,-237"/>
<polygon fill="none" stroke="#000000" points="24,-237 24,-258 55,-258 55,-237 24,-237"/>
<text text-anchor="start" x="27" y="-243.8" font-family="Times,serif" font-size="14.00" fill="#000000">pos</text>
<polygon fill="#e0ffe0" stroke="transparent" points="55,-237 55,-258 89,-258 89,-237 55,-237"/>
<polygon fill="none" stroke="#000000" points="55,-237 55,-258 89,-258 89,-237 55,-237"/>
<text text-anchor="start" x="58" y="-243.8" font-family="Times,serif" font-size="14.00" fill="#000000">size</text>
<polygon fill="#e0ffe0" stroke="transparent" points="89,-237 89,-258 273,-258 273,-237 89,-237"/>
<polygon fill="none" stroke="#000000" points="89,-237 89,-258 273,-258 273,-237 89,-237"/>
<text text-anchor="start" x="165" y="-243.8" font-family="Times,serif" font-size="14.00" fill="#000000">type</text>
<polygon fill="#e0ffe0" stroke="transparent" points="273,-237 273,-258 352,-258 352,-237 273,-237"/>
<polygon fill="none" stroke="#000000" points="273,-237 273,-258 352,-258 352,-237 273,-237"/>
<text text-anchor="start" x="305.5" y="-243.8" font-family="Times,serif" font-size="14.00" fill="#000000">id</text>
<polygon fill="none" stroke="#000000" points="24,-216 24,-237 55,-237 55,-216 24,-216"/>
<text text-anchor="start" x="34.5" y="-222.8" font-family="Times,serif" font-size="14.00" fill="#000000">0</text>
<polygon fill="none" stroke="#000000" points="55,-216 55,-237 89,-237 89,-216 55,-216"/>
<text text-anchor="start" x="65" y="-222.8" font-family="Times,serif" font-size="14.00" fill="#000000">...</text>
<polygon fill="none" stroke="#000000" points="89,-216 89,-237 273,-237 273,-216 89,-216"/>
<text text-anchor="start" x="153.5" y="-222.8" font-family="Times,serif" font-size="14.00" fill="#000000">Cstring</text>
<polygon fill="none" stroke="#000000" points="273,-216 273,-237 352,-237 352,-216 273,-216"/>
<text text-anchor="start" x="276" y="-222.8" font-family="Times,serif" font-size="14.00" fill="#000000">key_name</text>
<polygon fill="none" stroke="#000000" points="24,-195 24,-216 55,-216 55,-195 24,-195"/>
<text text-anchor="start" x="32.5" y="-201.8" font-family="Times,serif" font-size="14.00" fill="#000000">...</text>
<polygon fill="none" stroke="#000000" points="55,-195 55,-216 89,-216 89,-195 55,-195"/>
<text text-anchor="start" x="65" y="-201.8" font-family="Times,serif" font-size="14.00" fill="#000000">...</text>
<polygon fill="none" stroke="#000000" points="89,-195 89,-216 273,-216 273,-195 89,-195"/>
<text text-anchor="start" x="92" y="-201.8" font-family="Times,serif" font-size="14.00" fill="#000000">switch (key_name.value)</text>
<polygon fill="none" stroke="#000000" points="273,-195 273,-216 352,-216 352,-195 273,-195"/>
<text text-anchor="start" x="295" y="-201.8" font-family="Times,serif" font-size="14.00" fill="#000000">body</text>
</g>
<!-- ssh_public_key__seq_body_switch -->
<g id="node2" class="node">
<title>ssh_public_key__seq_body_switch</title>
<polygon fill="#f0f2e4" stroke="transparent" points="404,-192 404,-213 571,-213 571,-192 404,-192"/>
<polygon fill="none" stroke="#000000" points="404,-192 404,-213 571,-213 571,-192 404,-192"/>
<text text-anchor="start" x="471" y="-198.8" font-family="Times,serif" font-size="14.00" fill="#000000">case</text>
<polygon fill="#f0f2e4" stroke="transparent" points="571,-192 571,-213 668,-213 668,-192 571,-192"/>
<polygon fill="none" stroke="#000000" points="571,-192 571,-213 668,-213 668,-192 571,-192"/>
<text text-anchor="start" x="603.5" y="-198.8" font-family="Times,serif" font-size="14.00" fill="#000000">type</text>
<polygon fill="none" stroke="#000000" points="404,-171 404,-192 571,-192 571,-171 404,-171"/>
<text text-anchor="start" x="455" y="-177.8" font-family="Times,serif" font-size="14.00" fill="#000000">&quot;ssh&#45;rsa&quot;</text>
<polygon fill="none" stroke="#000000" points="571,-171 571,-192 668,-192 668,-171 571,-171"/>
<text text-anchor="start" x="593" y="-177.8" font-family="Times,serif" font-size="14.00" fill="#000000">KeyRsa</text>
<polygon fill="none" stroke="#000000" points="404,-150 404,-171 571,-171 571,-150 404,-150"/>
<text text-anchor="start" x="407" y="-156.8" font-family="Times,serif" font-size="14.00" fill="#000000">&quot;ecdsa&#45;sha2&#45;nistp256&quot;</text>
<polygon fill="none" stroke="#000000" points="571,-150 571,-171 668,-171 668,-150 571,-150"/>
<text text-anchor="start" x="584.5" y="-156.8" font-family="Times,serif" font-size="14.00" fill="#000000">KeyEcdsa</text>
<polygon fill="none" stroke="#000000" points="404,-129 404,-150 571,-150 571,-129 404,-129"/>
<text text-anchor="start" x="435" y="-135.8" font-family="Times,serif" font-size="14.00" fill="#000000">&quot;ssh&#45;ed25519&quot;</text>
<polygon fill="none" stroke="#000000" points="571,-129 571,-150 668,-150 668,-129 571,-129"/>
<text text-anchor="start" x="574" y="-135.8" font-family="Times,serif" font-size="14.00" fill="#000000">KeyEd25519</text>
<polygon fill="none" stroke="#000000" points="404,-108 404,-129 571,-129 571,-108 404,-108"/>
<text text-anchor="start" x="454" y="-114.8" font-family="Times,serif" font-size="14.00" fill="#000000">&quot;ssh&#45;dss&quot;</text>
<polygon fill="none" stroke="#000000" points="571,-108 571,-129 668,-129 668,-108 571,-108"/>
<text text-anchor="start" x="592.5" y="-114.8" font-family="Times,serif" font-size="14.00" fill="#000000">KeyDsa</text>
</g>
<!-- ssh_public_key__seq&#45;&gt;ssh_public_key__seq_body_switch -->
<g id="edge2" class="edge">
<title>ssh_public_key__seq:body_type&#45;&gt;ssh_public_key__seq_body_switch</title>
<path fill="none" stroke="#000000" stroke-width="2" d="M352,-205C363.1141,-205 374.5048,-204.2313 385.9048,-202.897"/>
<polygon fill="#000000" stroke="#000000" stroke-width="2" points="386.4586,-206.3544 395.9187,-201.584 385.5485,-199.4138 386.4586,-206.3544"/>
</g>
<!-- cstring__seq -->
<g id="node7" class="node">
<title>cstring__seq</title>
<polygon fill="#e0ffe0" stroke="transparent" points="441,-281 441,-302 472,-302 472,-281 441,-281"/>
<polygon fill="none" stroke="#000000" points="441,-281 441,-302 472,-302 472,-281 441,-281"/>
<text text-anchor="start" x="444" y="-287.8" font-family="Times,serif" font-size="14.00" fill="#000000">pos</text>
<polygon fill="#e0ffe0" stroke="transparent" points="472,-281 472,-302 506,-302 506,-281 472,-281"/>
<polygon fill="none" stroke="#000000" points="472,-281 472,-302 506,-302 506,-281 472,-281"/>
<text text-anchor="start" x="475" y="-287.8" font-family="Times,serif" font-size="14.00" fill="#000000">size</text>
<polygon fill="#e0ffe0" stroke="transparent" points="506,-281 506,-302 587,-302 587,-281 506,-281"/>
<polygon fill="none" stroke="#000000" points="506,-281 506,-302 587,-302 587,-281 506,-281"/>
<text text-anchor="start" x="530.5" y="-287.8" font-family="Times,serif" font-size="14.00" fill="#000000">type</text>
<polygon fill="#e0ffe0" stroke="transparent" points="587,-281 587,-302 632,-302 632,-281 587,-281"/>
<polygon fill="none" stroke="#000000" points="587,-281 587,-302 632,-302 632,-281 587,-281"/>
<text text-anchor="start" x="602.5" y="-287.8" font-family="Times,serif" font-size="14.00" fill="#000000">id</text>
<polygon fill="none" stroke="#000000" points="441,-260 441,-281 472,-281 472,-260 441,-260"/>
<text text-anchor="start" x="451.5" y="-266.8" font-family="Times,serif" font-size="14.00" fill="#000000">0</text>
<polygon fill="none" stroke="#000000" points="472,-260 472,-281 506,-281 506,-260 472,-260"/>
<text text-anchor="start" x="484" y="-266.8" font-family="Times,serif" font-size="14.00" fill="#000000">4</text>
<polygon fill="none" stroke="#000000" points="506,-260 506,-281 587,-281 587,-260 506,-260"/>
<text text-anchor="start" x="528.5" y="-266.8" font-family="Times,serif" font-size="14.00" fill="#000000">u4be</text>
<polygon fill="none" stroke="#000000" points="587,-260 587,-281 632,-281 632,-260 587,-260"/>
<text text-anchor="start" x="598.5" y="-266.8" font-family="Times,serif" font-size="14.00" fill="#000000">len</text>
<polygon fill="none" stroke="#000000" points="441,-239 441,-260 472,-260 472,-239 441,-239"/>
<text text-anchor="start" x="451.5" y="-245.8" font-family="Times,serif" font-size="14.00" fill="#000000">4</text>
<polygon fill="none" stroke="#000000" points="472,-239 472,-260 506,-260 506,-239 472,-239"/>
<text text-anchor="start" x="478" y="-245.8" font-family="Times,serif" font-size="14.00" fill="#000000">len</text>
<polygon fill="none" stroke="#000000" points="506,-239 506,-260 587,-260 587,-239 506,-239"/>
<text text-anchor="start" x="509" y="-245.8" font-family="Times,serif" font-size="14.00" fill="#000000">str(ASCII)</text>
<polygon fill="none" stroke="#000000" points="587,-239 587,-260 632,-260 632,-239 587,-239"/>
<text text-anchor="start" x="590" y="-245.8" font-family="Times,serif" font-size="14.00" fill="#000000">value</text>
</g>
<!-- ssh_public_key__seq&#45;&gt;cstring__seq -->
<g id="edge1" class="edge">
<title>ssh_public_key__seq:key_name_type&#45;&gt;cstring__seq</title>
<path fill="none" stroke="#000000" stroke-width="2" d="M352,-226C366.6991,-226 393.5692,-231.4872 422.3177,-238.6295"/>
<polygon fill="#000000" stroke="#000000" stroke-width="2" points="421.5714,-242.0509 432.1243,-241.1095 423.2877,-235.2645 421.5714,-242.0509"/>
</g>
<!-- key_rsa__seq -->
<g id="node3" class="node">
<title>key_rsa__seq</title>
<polygon fill="#e0ffe0" stroke="transparent" points="747,-368 747,-389 778,-389 778,-368 747,-368"/>
<polygon fill="none" stroke="#000000" points="747,-368 747,-389 778,-389 778,-368 747,-368"/>
<text text-anchor="start" x="750" y="-374.8" font-family="Times,serif" font-size="14.00" fill="#000000">pos</text>
<polygon fill="#e0ffe0" stroke="transparent" points="778,-368 778,-389 812,-389 812,-368 778,-368"/>
<polygon fill="none" stroke="#000000" points="778,-368 778,-389 812,-389 812,-368 778,-368"/>
<text text-anchor="start" x="781" y="-374.8" font-family="Times,serif" font-size="14.00" fill="#000000">size</text>
<polygon fill="#e0ffe0" stroke="transparent" points="812,-368 812,-389 883,-389 883,-368 812,-368"/>
<polygon fill="none" stroke="#000000" points="812,-368 812,-389 883,-389 883,-368 812,-368"/>
<text text-anchor="start" x="831.5" y="-374.8" font-family="Times,serif" font-size="14.00" fill="#000000">type</text>
<polygon fill="#e0ffe0" stroke="transparent" points="883,-368 883,-389 929,-389 929,-368 883,-368"/>
<polygon fill="none" stroke="#000000" points="883,-368 883,-389 929,-389 929,-368 883,-368"/>
<text text-anchor="start" x="899" y="-374.8" font-family="Times,serif" font-size="14.00" fill="#000000">id</text>
<polygon fill="none" stroke="#000000" points="747,-347 747,-368 778,-368 778,-347 747,-347"/>
<text text-anchor="start" x="757.5" y="-353.8" font-family="Times,serif" font-size="14.00" fill="#000000">0</text>
<polygon fill="none" stroke="#000000" points="778,-347 778,-368 812,-368 812,-347 778,-347"/>
<text text-anchor="start" x="788" y="-353.8" font-family="Times,serif" font-size="14.00" fill="#000000">...</text>
<polygon fill="none" stroke="#000000" points="812,-347 812,-368 883,-368 883,-347 812,-347"/>
<text text-anchor="start" x="815" y="-353.8" font-family="Times,serif" font-size="14.00" fill="#000000">Bignum2</text>
<polygon fill="none" stroke="#000000" points="883,-347 883,-368 929,-368 929,-347 883,-347"/>
<text text-anchor="start" x="886.5" y="-353.8" font-family="Times,serif" font-size="14.00" fill="#000000">rsa_e</text>
<polygon fill="none" stroke="#000000" points="747,-326 747,-347 778,-347 778,-326 747,-326"/>
<text text-anchor="start" x="755.5" y="-332.8" font-family="Times,serif" font-size="14.00" fill="#000000">...</text>
<polygon fill="none" stroke="#000000" points="778,-326 778,-347 812,-347 812,-326 778,-326"/>
<text text-anchor="start" x="788" y="-332.8" font-family="Times,serif" font-size="14.00" fill="#000000">...</text>
<polygon fill="none" stroke="#000000" points="812,-326 812,-347 883,-347 883,-326 812,-326"/>
<text text-anchor="start" x="815" y="-332.8" font-family="Times,serif" font-size="14.00" fill="#000000">Bignum2</text>
<polygon fill="none" stroke="#000000" points="883,-326 883,-347 929,-347 929,-326 883,-326"/>
<text text-anchor="start" x="886" y="-332.8" font-family="Times,serif" font-size="14.00" fill="#000000">rsa_n</text>
</g>
<!-- ssh_public_key__seq_body_switch&#45;&gt;key_rsa__seq -->
<g id="edge3" class="edge">
<title>ssh_public_key__seq_body_switch:case0&#45;&gt;key_rsa__seq</title>
<path fill="none" stroke="#000000" stroke-width="2" d="M668,-182C727.0961,-182 663.6963,-266.7801 704,-310 711.4194,-317.9562 720.2497,-324.5955 729.7863,-330.1355"/>
<polygon fill="#000000" stroke="#000000" stroke-width="2" points="728.2548,-333.2856 738.7227,-334.9205 731.5591,-327.1145 728.2548,-333.2856"/>
</g>
<!-- key_ed25519__seq -->
<g id="node5" class="node">
<title>key_ed25519__seq</title>
<polygon fill="#e0ffe0" stroke="transparent" points="748,-231 748,-252 779,-252 779,-231 748,-231"/>
<polygon fill="none" stroke="#000000" points="748,-231 748,-252 779,-252 779,-231 748,-231"/>
<text text-anchor="start" x="751" y="-237.8" font-family="Times,serif" font-size="14.00" fill="#000000">pos</text>
<polygon fill="#e0ffe0" stroke="transparent" points="779,-231 779,-252 833,-252 833,-231 779,-231"/>
<polygon fill="none" stroke="#000000" points="779,-231 779,-252 833,-252 833,-231 779,-231"/>
<text text-anchor="start" x="792" y="-237.8" font-family="Times,serif" font-size="14.00" fill="#000000">size</text>
<polygon fill="#e0ffe0" stroke="transparent" points="833,-231 833,-252 875,-252 875,-231 833,-231"/>
<polygon fill="none" stroke="#000000" points="833,-231 833,-252 875,-252 875,-231 833,-231"/>
<text text-anchor="start" x="838" y="-237.8" font-family="Times,serif" font-size="14.00" fill="#000000">type</text>
<polygon fill="#e0ffe0" stroke="transparent" points="875,-231 875,-252 929,-252 929,-231 875,-231"/>
<polygon fill="none" stroke="#000000" points="875,-231 875,-252 929,-252 929,-231 875,-231"/>
<text text-anchor="start" x="895" y="-237.8" font-family="Times,serif" font-size="14.00" fill="#000000">id</text>
<polygon fill="none" stroke="#000000" points="748,-210 748,-231 779,-231 779,-210 748,-210"/>
<text text-anchor="start" x="758.5" y="-216.8" font-family="Times,serif" font-size="14.00" fill="#000000">0</text>
<polygon fill="none" stroke="#000000" points="779,-210 779,-231 833,-231 833,-210 779,-210"/>
<text text-anchor="start" x="801" y="-216.8" font-family="Times,serif" font-size="14.00" fill="#000000">4</text>
<polygon fill="none" stroke="#000000" points="833,-210 833,-231 875,-231 875,-210 833,-210"/>
<text text-anchor="start" x="836" y="-216.8" font-family="Times,serif" font-size="14.00" fill="#000000">u4be</text>
<polygon fill="none" stroke="#000000" points="875,-210 875,-231 929,-231 929,-210 875,-210"/>
<text text-anchor="start" x="878" y="-216.8" font-family="Times,serif" font-size="14.00" fill="#000000">len_pk</text>
<polygon fill="none" stroke="#000000" points="748,-189 748,-210 779,-210 779,-189 748,-189"/>
<text text-anchor="start" x="758.5" y="-195.8" font-family="Times,serif" font-size="14.00" fill="#000000">4</text>
<polygon fill="none" stroke="#000000" points="779,-189 779,-210 833,-210 833,-189 779,-189"/>
<text text-anchor="start" x="782" y="-195.8" font-family="Times,serif" font-size="14.00" fill="#000000">len_pk</text>
<polygon fill="none" stroke="#000000" points="833,-189 833,-210 875,-210 875,-189 833,-189"/>
<polygon fill="none" stroke="#000000" points="875,-189 875,-210 929,-210 929,-189 875,-189"/>
<text text-anchor="start" x="892.5" y="-195.8" font-family="Times,serif" font-size="14.00" fill="#000000">pk</text>
</g>
<!-- ssh_public_key__seq_body_switch&#45;&gt;key_ed25519__seq -->
<g id="edge5" class="edge">
<title>ssh_public_key__seq_body_switch:case2&#45;&gt;key_ed25519__seq</title>
<path fill="none" stroke="#000000" stroke-width="2" d="M668,-139C690.0079,-139 685.2424,-161.4892 704,-173 712.1286,-177.9882 720.8518,-182.5633 729.8056,-186.7364"/>
<polygon fill="#000000" stroke="#000000" stroke-width="2" points="728.647,-190.0524 739.2046,-190.9403 731.5051,-183.6624 728.647,-190.0524"/>
</g>
<!-- key_ecdsa__seq -->
<g id="node6" class="node">
<title>key_ecdsa__seq</title>
<polygon fill="#e0ffe0" stroke="transparent" points="58,-326 58,-347 89,-347 89,-326 58,-326"/>
<polygon fill="none" stroke="#000000" points="58,-326 58,-347 89,-347 89,-326 58,-326"/>
<text text-anchor="start" x="61" y="-332.8" font-family="Times,serif" font-size="14.00" fill="#000000">pos</text>
<polygon fill="#e0ffe0" stroke="transparent" points="89,-326 89,-347 123,-347 123,-326 89,-326"/>
<polygon fill="none" stroke="#000000" points="89,-326 89,-347 123,-347 123,-326 89,-326"/>
<text text-anchor="start" x="92" y="-332.8" font-family="Times,serif" font-size="14.00" fill="#000000">size</text>
<polygon fill="#e0ffe0" stroke="transparent" points="123,-326 123,-347 225,-347 225,-326 123,-326"/>
<polygon fill="none" stroke="#000000" points="123,-326 123,-347 225,-347 225,-326 123,-326"/>
<text text-anchor="start" x="158" y="-332.8" font-family="Times,serif" font-size="14.00" fill="#000000">type</text>
<polygon fill="#e0ffe0" stroke="transparent" points="225,-326 225,-347 319,-347 319,-326 225,-326"/>
<polygon fill="none" stroke="#000000" points="225,-326 225,-347 319,-347 319,-326 225,-326"/>
<text text-anchor="start" x="265" y="-332.8" font-family="Times,serif" font-size="14.00" fill="#000000">id</text>
<polygon fill="none" stroke="#000000" points="58,-305 58,-326 89,-326 89,-305 58,-305"/>
<text text-anchor="start" x="68.5" y="-311.8" font-family="Times,serif" font-size="14.00" fill="#000000">0</text>
<polygon fill="none" stroke="#000000" points="89,-305 89,-326 123,-326 123,-305 89,-305"/>
<text text-anchor="start" x="99" y="-311.8" font-family="Times,serif" font-size="14.00" fill="#000000">...</text>
<polygon fill="none" stroke="#000000" points="123,-305 123,-326 225,-326 225,-305 123,-305"/>
<text text-anchor="start" x="146.5" y="-311.8" font-family="Times,serif" font-size="14.00" fill="#000000">Cstring</text>
<polygon fill="none" stroke="#000000" points="225,-305 225,-326 319,-326 319,-305 225,-305"/>
<text text-anchor="start" x="228" y="-311.8" font-family="Times,serif" font-size="14.00" fill="#000000">curve_name</text>
<polygon fill="none" stroke="#000000" points="58,-284 58,-305 89,-305 89,-284 58,-284"/>
<text text-anchor="start" x="66.5" y="-290.8" font-family="Times,serif" font-size="14.00" fill="#000000">...</text>
<polygon fill="none" stroke="#000000" points="89,-284 89,-305 123,-305 123,-284 89,-284"/>
<text text-anchor="start" x="99" y="-290.8" font-family="Times,serif" font-size="14.00" fill="#000000">...</text>
<polygon fill="none" stroke="#000000" points="123,-284 123,-305 225,-305 225,-284 123,-284"/>
<text text-anchor="start" x="126" y="-290.8" font-family="Times,serif" font-size="14.00" fill="#000000">EllipticCurve</text>
<polygon fill="none" stroke="#000000" points="225,-284 225,-305 319,-305 319,-284 225,-284"/>
<text text-anchor="start" x="263.5" y="-290.8" font-family="Times,serif" font-size="14.00" fill="#000000">ec</text>
</g>
<!-- ssh_public_key__seq_body_switch&#45;&gt;key_ecdsa__seq -->
<g id="edge4" class="edge">
<title>ssh_public_key__seq_body_switch:case1&#45;&gt;key_ecdsa__seq</title>
<path fill="none" stroke="#000000" stroke-width="2" d="M668,-160C708.1818,-160 689.7602,134.2828 396,-104.5 335.2264,-153.8998 414.9003,-221.1454 360,-277 352.8365,-284.288 344.6174,-290.3386 335.7397,-295.3505"/>
<polygon fill="#000000" stroke="#000000" stroke-width="2" points="333.948,-292.3362 326.6572,-300.0236 337.1506,-298.5607 333.948,-292.3362"/>
</g>
<!-- key_dsa__seq -->
<g id="node8" class="node">
<title>key_dsa__seq</title>
<polygon fill="#e0ffe0" stroke="transparent" points="721,-112 721,-133 752,-133 752,-112 721,-112"/>
<polygon fill="none" stroke="#000000" points="721,-112 721,-133 752,-133 752,-112 721,-112"/>
<text text-anchor="start" x="724" y="-118.8" font-family="Times,serif" font-size="14.00" fill="#000000">pos</text>
<polygon fill="#e0ffe0" stroke="transparent" points="752,-112 752,-133 786,-133 786,-112 752,-112"/>
<polygon fill="none" stroke="#000000" points="752,-112 752,-133 786,-133 786,-112 752,-112"/>
<text text-anchor="start" x="755" y="-118.8" font-family="Times,serif" font-size="14.00" fill="#000000">size</text>
<polygon fill="#e0ffe0" stroke="transparent" points="786,-112 786,-133 857,-133 857,-112 786,-112"/>
<polygon fill="none" stroke="#000000" points="786,-112 786,-133 857,-133 857,-112 786,-112"/>
<text text-anchor="start" x="805.5" y="-118.8" font-family="Times,serif" font-size="14.00" fill="#000000">type</text>
<polygon fill="#e0ffe0" stroke="transparent" points="857,-112 857,-133 956,-133 956,-112 857,-112"/>
<polygon fill="none" stroke="#000000" points="857,-112 857,-133 956,-133 956,-112 857,-112"/>
<text text-anchor="start" x="899.5" y="-118.8" font-family="Times,serif" font-size="14.00" fill="#000000">id</text>
<polygon fill="none" stroke="#000000" points="721,-91 721,-112 752,-112 752,-91 721,-91"/>
<text text-anchor="start" x="731.5" y="-97.8" font-family="Times,serif" font-size="14.00" fill="#000000">0</text>
<polygon fill="none" stroke="#000000" points="752,-91 752,-112 786,-112 786,-91 752,-91"/>
<text text-anchor="start" x="762" y="-97.8" font-family="Times,serif" font-size="14.00" fill="#000000">...</text>
<polygon fill="none" stroke="#000000" points="786,-91 786,-112 857,-112 857,-91 786,-91"/>
<text text-anchor="start" x="789" y="-97.8" font-family="Times,serif" font-size="14.00" fill="#000000">Bignum2</text>
<polygon fill="none" stroke="#000000" points="857,-91 857,-112 956,-112 956,-91 857,-91"/>
<text text-anchor="start" x="885.5" y="-97.8" font-family="Times,serif" font-size="14.00" fill="#000000">dsa_p</text>
<polygon fill="none" stroke="#000000" points="721,-70 721,-91 752,-91 752,-70 721,-70"/>
<text text-anchor="start" x="729.5" y="-76.8" font-family="Times,serif" font-size="14.00" fill="#000000">...</text>
<polygon fill="none" stroke="#000000" points="752,-70 752,-91 786,-91 786,-70 752,-70"/>
<text text-anchor="start" x="762" y="-76.8" font-family="Times,serif" font-size="14.00" fill="#000000">...</text>
<polygon fill="none" stroke="#000000" points="786,-70 786,-91 857,-91 857,-70 786,-70"/>
<text text-anchor="start" x="789" y="-76.8" font-family="Times,serif" font-size="14.00" fill="#000000">Bignum2</text>
<polygon fill="none" stroke="#000000" points="857,-70 857,-91 956,-91 956,-70 857,-70"/>
<text text-anchor="start" x="885.5" y="-76.8" font-family="Times,serif" font-size="14.00" fill="#000000">dsa_q</text>
<polygon fill="none" stroke="#000000" points="721,-49 721,-70 752,-70 752,-49 721,-49"/>
<text text-anchor="start" x="729.5" y="-55.8" font-family="Times,serif" font-size="14.00" fill="#000000">...</text>
<polygon fill="none" stroke="#000000" points="752,-49 752,-70 786,-70 786,-49 752,-49"/>
<text text-anchor="start" x="762" y="-55.8" font-family="Times,serif" font-size="14.00" fill="#000000">...</text>
<polygon fill="none" stroke="#000000" points="786,-49 786,-70 857,-70 857,-49 786,-49"/>
<text text-anchor="start" x="789" y="-55.8" font-family="Times,serif" font-size="14.00" fill="#000000">Bignum2</text>
<polygon fill="none" stroke="#000000" points="857,-49 857,-70 956,-70 956,-49 857,-49"/>
<text text-anchor="start" x="885.5" y="-55.8" font-family="Times,serif" font-size="14.00" fill="#000000">dsa_g</text>
<polygon fill="none" stroke="#000000" points="721,-28 721,-49 752,-49 752,-28 721,-28"/>
<text text-anchor="start" x="729.5" y="-34.8" font-family="Times,serif" font-size="14.00" fill="#000000">...</text>
<polygon fill="none" stroke="#000000" points="752,-28 752,-49 786,-49 786,-28 752,-28"/>
<text text-anchor="start" x="762" y="-34.8" font-family="Times,serif" font-size="14.00" fill="#000000">...</text>
<polygon fill="none" stroke="#000000" points="786,-28 786,-49 857,-49 857,-28 786,-28"/>
<text text-anchor="start" x="789" y="-34.8" font-family="Times,serif" font-size="14.00" fill="#000000">Bignum2</text>
<polygon fill="none" stroke="#000000" points="857,-28 857,-49 956,-49 956,-28 857,-28"/>
<text text-anchor="start" x="860" y="-34.8" font-family="Times,serif" font-size="14.00" fill="#000000">dsa_pub_key</text>
</g>
<!-- ssh_public_key__seq_body_switch&#45;&gt;key_dsa__seq -->
<g id="edge6" class="edge">
<title>ssh_public_key__seq_body_switch:case3&#45;&gt;key_dsa__seq</title>
<path fill="none" stroke="#000000" stroke-width="2" d="M668,-118C679.2135,-118 690.7499,-117.2219 702.2797,-115.8913"/>
<polygon fill="#000000" stroke="#000000" stroke-width="2" points="702.932,-119.3362 712.402,-114.5854 702.0363,-112.3938 702.932,-119.3362"/>
</g>
<!-- bignum2__seq -->
<g id="node10" class="node">
<title>bignum2__seq</title>
<polygon fill="#e0ffe0" stroke="transparent" points="1008,-112 1008,-133 1039,-133 1039,-112 1008,-112"/>
<polygon fill="none" stroke="#000000" points="1008,-112 1008,-133 1039,-133 1039,-112 1008,-112"/>
<text text-anchor="start" x="1011" y="-118.8" font-family="Times,serif" font-size="14.00" fill="#000000">pos</text>
<polygon fill="#e0ffe0" stroke="transparent" points="1039,-112 1039,-133 1073,-133 1073,-112 1039,-112"/>
<polygon fill="none" stroke="#000000" points="1039,-112 1039,-133 1073,-133 1073,-112 1039,-112"/>
<text text-anchor="start" x="1042" y="-118.8" font-family="Times,serif" font-size="14.00" fill="#000000">size</text>
<polygon fill="#e0ffe0" stroke="transparent" points="1073,-112 1073,-133 1115,-133 1115,-112 1073,-112"/>
<polygon fill="none" stroke="#000000" points="1073,-112 1073,-133 1115,-133 1115,-112 1073,-112"/>
<text text-anchor="start" x="1078" y="-118.8" font-family="Times,serif" font-size="14.00" fill="#000000">type</text>
<polygon fill="#e0ffe0" stroke="transparent" points="1115,-112 1115,-133 1156,-133 1156,-112 1115,-112"/>
<polygon fill="none" stroke="#000000" points="1115,-112 1115,-133 1156,-133 1156,-112 1115,-112"/>
<text text-anchor="start" x="1128.5" y="-118.8" font-family="Times,serif" font-size="14.00" fill="#000000">id</text>
<polygon fill="none" stroke="#000000" points="1008,-91 1008,-112 1039,-112 1039,-91 1008,-91"/>
<text text-anchor="start" x="1018.5" y="-97.8" font-family="Times,serif" font-size="14.00" fill="#000000">0</text>
<polygon fill="none" stroke="#000000" points="1039,-91 1039,-112 1073,-112 1073,-91 1039,-91"/>
<text text-anchor="start" x="1051" y="-97.8" font-family="Times,serif" font-size="14.00" fill="#000000">4</text>
<polygon fill="none" stroke="#000000" points="1073,-91 1073,-112 1115,-112 1115,-91 1073,-91"/>
<text text-anchor="start" x="1076" y="-97.8" font-family="Times,serif" font-size="14.00" fill="#000000">u4be</text>
<polygon fill="none" stroke="#000000" points="1115,-91 1115,-112 1156,-112 1156,-91 1115,-91"/>
<text text-anchor="start" x="1124.5" y="-97.8" font-family="Times,serif" font-size="14.00" fill="#000000">len</text>
<polygon fill="none" stroke="#000000" points="1008,-70 1008,-91 1039,-91 1039,-70 1008,-70"/>
<text text-anchor="start" x="1018.5" y="-76.8" font-family="Times,serif" font-size="14.00" fill="#000000">4</text>
<polygon fill="none" stroke="#000000" points="1039,-70 1039,-91 1073,-91 1073,-70 1039,-70"/>
<text text-anchor="start" x="1045" y="-76.8" font-family="Times,serif" font-size="14.00" fill="#000000">len</text>
<polygon fill="none" stroke="#000000" points="1073,-70 1073,-91 1115,-91 1115,-70 1073,-70"/>
<polygon fill="none" stroke="#000000" points="1115,-70 1115,-91 1156,-91 1156,-70 1115,-70"/>
<text text-anchor="start" x="1118" y="-76.8" font-family="Times,serif" font-size="14.00" fill="#000000">body</text>
</g>
<!-- key_rsa__seq&#45;&gt;bignum2__seq -->
<g id="edge8" class="edge">
<title>key_rsa__seq:rsa_e_type&#45;&gt;bignum2__seq</title>
<path fill="none" stroke="#000000" stroke-width="2" d="M929,-357C977.3599,-357 1036.8755,-220.4424 1065.3219,-147.1908"/>
<polygon fill="#000000" stroke="#000000" stroke-width="2" points="1068.6393,-148.3151 1068.9617,-137.7252 1062.1057,-145.8027 1068.6393,-148.3151"/>
</g>
<!-- key_rsa__seq&#45;&gt;bignum2__seq -->
<g id="edge9" class="edge">
<title>key_rsa__seq:rsa_n_type&#45;&gt;bignum2__seq</title>
<path fill="none" stroke="#000000" stroke-width="2" d="M929,-336C951.3331,-336 956.6676,-326.2383 972,-310 1017.0703,-262.2667 1048.9033,-192.4934 1066.3571,-147.1632"/>
<polygon fill="#000000" stroke="#000000" stroke-width="2" points="1069.7106,-148.1898 1069.9664,-137.598 1063.1613,-145.7184 1069.7106,-148.1898"/>
</g>
<!-- key_rsa__inst__key_length -->
<g id="node4" class="node">
<title>key_rsa__inst__key_length</title>
<polygon fill="#e0ffe0" stroke="transparent" points="720,-437 720,-458 805,-458 805,-437 720,-437"/>
<polygon fill="none" stroke="#000000" points="720,-437 720,-458 805,-458 805,-437 720,-437"/>
<text text-anchor="start" x="755.5" y="-443.8" font-family="Times,serif" font-size="14.00" fill="#000000">id</text>
<polygon fill="#e0ffe0" stroke="transparent" points="805,-437 805,-458 956,-458 956,-437 805,-437"/>
<polygon fill="none" stroke="#000000" points="805,-437 805,-458 956,-458 956,-437 805,-437"/>
<text text-anchor="start" x="861" y="-443.8" font-family="Times,serif" font-size="14.00" fill="#000000">value</text>
<polygon fill="none" stroke="#000000" points="720,-416 720,-437 805,-437 805,-416 720,-416"/>
<text text-anchor="start" x="723" y="-422.8" font-family="Times,serif" font-size="14.00" fill="#000000">key_length</text>
<polygon fill="none" stroke="#000000" points="805,-416 805,-437 956,-437 956,-416 805,-416"/>
<text text-anchor="start" x="808" y="-422.8" font-family="Times,serif" font-size="14.00" fill="#000000">rsa_n.length_in_bits</text>
</g>
<!-- key_ed25519__seq&#45;&gt;key_ed25519__seq -->
<g id="edge11" class="edge">
<title>key_ed25519__seq:len_pk_type&#45;&gt;key_ed25519__seq:pk_size</title>
<path fill="none" stroke="#404040" d="M928.6957,-231.1155C959.4807,-249.8265 943.4141,-274.5 854,-274.5 770.6816,-274.5 751.0509,-240.8059 773.6698,-216.9637"/>
<polygon fill="#404040" stroke="#404040" points="776.2332,-219.3782 781.5825,-210.233 771.6977,-214.0462 776.2332,-219.3782"/>
</g>
<!-- key_ecdsa__seq&#45;&gt;cstring__seq -->
<g id="edge12" class="edge">
<title>key_ecdsa__seq:curve_name_type&#45;&gt;cstring__seq</title>
<path fill="none" stroke="#000000" stroke-width="2" d="M319,-315C352.8785,-315 389.1494,-309.7851 422.1502,-302.9459"/>
<polygon fill="#000000" stroke="#000000" stroke-width="2" points="423.2358,-306.2928 432.2806,-300.7752 421.7692,-299.4482 423.2358,-306.2928"/>
</g>
<!-- elliptic_curve__seq -->
<g id="node9" class="node">
<title>elliptic_curve__seq</title>
<polygon fill="#e0ffe0" stroke="transparent" points="462,-418 462,-439 493,-439 493,-418 462,-418"/>
<polygon fill="none" stroke="#000000" points="462,-418 462,-439 493,-439 493,-418 462,-418"/>
<text text-anchor="start" x="465" y="-424.8" font-family="Times,serif" font-size="14.00" fill="#000000">pos</text>
<polygon fill="#e0ffe0" stroke="transparent" points="493,-418 493,-439 527,-439 527,-418 493,-418"/>
<polygon fill="none" stroke="#000000" points="493,-418 493,-439 527,-439 527,-418 493,-418"/>
<text text-anchor="start" x="496" y="-424.8" font-family="Times,serif" font-size="14.00" fill="#000000">size</text>
<polygon fill="#e0ffe0" stroke="transparent" points="527,-418 527,-439 569,-439 569,-418 527,-418"/>
<polygon fill="none" stroke="#000000" points="527,-418 527,-439 569,-439 569,-418 527,-418"/>
<text text-anchor="start" x="532" y="-424.8" font-family="Times,serif" font-size="14.00" fill="#000000">type</text>
<polygon fill="#e0ffe0" stroke="transparent" points="569,-418 569,-439 610,-439 610,-418 569,-418"/>
<polygon fill="none" stroke="#000000" points="569,-418 569,-439 610,-439 610,-418 569,-418"/>
<text text-anchor="start" x="582.5" y="-424.8" font-family="Times,serif" font-size="14.00" fill="#000000">id</text>
<polygon fill="none" stroke="#000000" points="462,-397 462,-418 493,-418 493,-397 462,-397"/>
<text text-anchor="start" x="472.5" y="-403.8" font-family="Times,serif" font-size="14.00" fill="#000000">0</text>
<polygon fill="none" stroke="#000000" points="493,-397 493,-418 527,-418 527,-397 493,-397"/>
<text text-anchor="start" x="505" y="-403.8" font-family="Times,serif" font-size="14.00" fill="#000000">4</text>
<polygon fill="none" stroke="#000000" points="527,-397 527,-418 569,-418 569,-397 527,-397"/>
<text text-anchor="start" x="530" y="-403.8" font-family="Times,serif" font-size="14.00" fill="#000000">u4be</text>
<polygon fill="none" stroke="#000000" points="569,-397 569,-418 610,-418 610,-397 569,-397"/>
<text text-anchor="start" x="578.5" y="-403.8" font-family="Times,serif" font-size="14.00" fill="#000000">len</text>
<polygon fill="none" stroke="#000000" points="462,-376 462,-397 493,-397 493,-376 462,-376"/>
<text text-anchor="start" x="472.5" y="-382.8" font-family="Times,serif" font-size="14.00" fill="#000000">4</text>
<polygon fill="none" stroke="#000000" points="493,-376 493,-397 527,-397 527,-376 493,-376"/>
<text text-anchor="start" x="499" y="-382.8" font-family="Times,serif" font-size="14.00" fill="#000000">len</text>
<polygon fill="none" stroke="#000000" points="527,-376 527,-397 569,-397 569,-376 527,-376"/>
<polygon fill="none" stroke="#000000" points="569,-376 569,-397 610,-397 610,-376 569,-376"/>
<text text-anchor="start" x="572" y="-382.8" font-family="Times,serif" font-size="14.00" fill="#000000">body</text>
</g>
<!-- key_ecdsa__seq&#45;&gt;elliptic_curve__seq -->
<g id="edge13" class="edge">
<title>key_ecdsa__seq:ec_type&#45;&gt;elliptic_curve__seq</title>
<path fill="none" stroke="#000000" stroke-width="2" d="M319,-294C364.0733,-294 356.8725,-337.625 396,-360 410.9165,-368.5299 427.5935,-375.8789 444.0932,-382.0818"/>
<polygon fill="#000000" stroke="#000000" stroke-width="2" points="443.1789,-385.4735 453.7729,-385.6018 445.5712,-378.895 443.1789,-385.4735"/>
</g>
<!-- cstring__seq&#45;&gt;ssh_public_key__seq -->
<g id="edge7" class="edge">
<title>cstring__seq:value_type&#45;&gt;ssh_public_key__seq:body_type</title>
<path fill="none" stroke="#404040" d="M610,-239C610,-227.1048 407.3933,-235.419 396,-232 377.8014,-226.5387 375.3041,-211.6063 361.953,-206.6347"/>
<polygon fill="#404040" stroke="#404040" points="362.4351,-203.167 352,-205 361.3005,-210.0745 362.4351,-203.167"/>
</g>
<!-- cstring__seq&#45;&gt;cstring__seq -->
<g id="edge14" class="edge">
<title>cstring__seq:len_type&#45;&gt;cstring__seq:value_size</title>
<path fill="none" stroke="#404040" d="M632.3251,-276.5797C683.8144,-295.543 670.3594,-324.5 549.5,-324.5 431.9713,-324.5 416.0087,-281.434 462.5669,-258.2264"/>
<polygon fill="#404040" stroke="#404040" points="464.1996,-261.3332 471.9775,-254.139 461.4109,-254.9126 464.1996,-261.3332"/>
</g>
<!-- key_dsa__seq&#45;&gt;bignum2__seq -->
<g id="edge15" class="edge">
<title>key_dsa__seq:dsa_p_type&#45;&gt;bignum2__seq</title>
<path fill="none" stroke="#000000" stroke-width="2" d="M956,-102C966.9973,-102 978.5345,-102 989.9755,-102"/>
<polygon fill="#000000" stroke="#000000" stroke-width="2" points="989.989,-105.5001 999.9889,-102 989.9889,-98.5001 989.989,-105.5001"/>
</g>
<!-- key_dsa__seq&#45;&gt;bignum2__seq -->
<g id="edge16" class="edge">
<title>key_dsa__seq:dsa_q_type&#45;&gt;bignum2__seq</title>
<path fill="none" stroke="#000000" stroke-width="2" d="M956,-80C966.8809,-80 978.2127,-80.806 989.424,-82.1095"/>
<polygon fill="#000000" stroke="#000000" stroke-width="2" points="989.3029,-85.623 999.6699,-83.4375 990.2028,-78.681 989.3029,-85.623"/>
</g>
<!-- key_dsa__seq&#45;&gt;bignum2__seq -->
<g id="edge17" class="edge">
<title>key_dsa__seq:dsa_g_type&#45;&gt;bignum2__seq</title>
<path fill="none" stroke="#000000" stroke-width="2" d="M956,-59C968.402,-59 981.1404,-60.889 993.5293,-63.8751"/>
<polygon fill="#000000" stroke="#000000" stroke-width="2" points="992.8136,-67.3063 1003.377,-66.49 994.6102,-60.5408 992.8136,-67.3063"/>
</g>
<!-- key_dsa__seq&#45;&gt;bignum2__seq -->
<g id="edge18" class="edge">
<title>key_dsa__seq:dsa_pub_key_type&#45;&gt;bignum2__seq</title>
<path fill="none" stroke="#000000" stroke-width="2" d="M956,-38C981.5534,-38 1007.1698,-48.5931 1028.5683,-61.1599"/>
<polygon fill="#000000" stroke="#000000" stroke-width="2" points="1026.81,-64.1874 1037.1617,-66.444 1030.4766,-58.2245 1026.81,-64.1874"/>
</g>
<!-- elliptic_curve__seq&#45;&gt;elliptic_curve__seq -->
<g id="edge19" class="edge">
<title>elliptic_curve__seq:len_type&#45;&gt;elliptic_curve__seq:body_size</title>
<path fill="none" stroke="#404040" d="M610.2747,-412.8348C664.354,-431.7742 653.9951,-461.5 550,-461.5 450.187,-461.5 436.6306,-418.434 483.5155,-395.2264"/>
<polygon fill="#404040" stroke="#404040" points="485.1772,-398.3211 492.9661,-391.139 482.3984,-391.8963 485.1772,-398.3211"/>
</g>
<!-- bignum2__seq&#45;&gt;bignum2__seq -->
<g id="edge20" class="edge">
<title>bignum2__seq:len_type&#45;&gt;bignum2__seq:body_size</title>
<path fill="none" stroke="#404040" d="M1156.0803,-109.2287C1191.1869,-128.174 1179.7383,-155.5 1096,-155.5 1017.0439,-155.5 1002.3565,-117.2922 1030.3653,-93.4596"/>
<polygon fill="#404040" stroke="#404040" points="1032.7273,-96.0766 1038.8814,-87.4523 1028.6924,-90.3565 1032.7273,-96.0766"/>
</g>
<!-- bignum2__inst__length_in_bits -->
<g id="node11" class="node">
<title>bignum2__inst__length_in_bits</title>
<polygon fill="#e0ffe0" stroke="transparent" points="1208.5,-116 1208.5,-137 1316.5,-137 1316.5,-116 1208.5,-116"/>
<polygon fill="none" stroke="#000000" points="1208.5,-116 1208.5,-137 1316.5,-137 1316.5,-116 1208.5,-116"/>
<text text-anchor="start" x="1255.5" y="-122.8" font-family="Times,serif" font-size="14.00" fill="#000000">id</text>
<polygon fill="#e0ffe0" stroke="transparent" points="1316.5,-116 1316.5,-137 1413.5,-137 1413.5,-116 1316.5,-116"/>
<polygon fill="none" stroke="#000000" points="1316.5,-116 1316.5,-137 1413.5,-137 1413.5,-116 1316.5,-116"/>
<text text-anchor="start" x="1345.5" y="-122.8" font-family="Times,serif" font-size="14.00" fill="#000000">value</text>
<polygon fill="none" stroke="#000000" points="1208.5,-95 1208.5,-116 1316.5,-116 1316.5,-95 1208.5,-95"/>
<text text-anchor="start" x="1211.5" y="-101.8" font-family="Times,serif" font-size="14.00" fill="#000000">length_in_bits</text>
<polygon fill="none" stroke="#000000" points="1316.5,-95 1316.5,-116 1413.5,-116 1413.5,-95 1316.5,-95"/>
<text text-anchor="start" x="1319.5" y="-101.8" font-family="Times,serif" font-size="14.00" fill="#000000">((len &#45; 1) * 8)</text>
</g>
<!-- bignum2__seq&#45;&gt;bignum2__inst__length_in_bits -->
<g id="edge21" class="edge">
<title>bignum2__seq:len_type&#45;&gt;bignum2__inst__length_in_bits</title>
<path fill="none" stroke="#404040" d="M1156,-101C1166.9428,-101 1178.3012,-101.3774 1189.6681,-102.0124"/>
<polygon fill="#404040" stroke="#404040" points="1189.451,-105.5056 1199.6492,-102.6338 1189.886,-98.5191 1189.451,-105.5056"/>
</g>
<!-- bignum2__inst__length_in_bits&#45;&gt;key_rsa__inst__key_length -->
<g id="edge10" class="edge">
<title>bignum2__inst__length_in_bits:length_in_bits_type&#45;&gt;key_rsa__inst__key_length</title>
<path fill="none" stroke="#404040" d="M1288.6565,-141.058C1238.53,-196.945 1108.9738,-332.4077 972,-403 968.6565,-404.7231 965.2202,-406.3627 961.7149,-407.9225"/>
<polygon fill="#404040" stroke="#404040" points="960.1643,-404.7773 952.2917,-411.8677 962.8676,-411.2343 960.1643,-404.7773"/>
</g>
</g>
</svg>
