<?xml version="1.0" encoding="UTF-8" standalone="no"?>
<!DOCTYPE svg PUBLIC "-//W3C//DTD SVG 1.1//EN"
 "http://www.w3.org/Graphics/SVG/1.1/DTD/svg11.dtd">
<!-- Generated by graphviz version 2.43.0 (0)
 -->
<!-- Title: %3 Pages: 1 -->
<svg width="1442pt" height="540pt"
 viewBox="0.00 0.00 1442.00 540.00" xmlns="http://www.w3.org/2000/svg" xmlns:xlink="http://www.w3.org/1999/xlink">
<g id="graph0" class="graph" transform="scale(1 1) rotate(0) translate(4 536)">
<title>%3</title>
<polygon fill="white" stroke="transparent" points="-4,4 -4,-536 1438,-536 1438,4 -4,4"/>
<g id="clust1" class="cluster">
<title>cluster__ssh_public_key</title>
<polygon fill="none" stroke="black" stroke-dasharray="1,5" points="8,-8 8,-524 1426,-524 1426,-8 8,-8"/>
<text text-anchor="middle" x="717" y="-508.8" font-family="Times,serif" font-size="14.00">SshPublicKey</text>
</g>
<g id="clust2" class="cluster">
<title>cluster__key_rsa</title>
<polygon fill="none" stroke="black" stroke-dasharray="1,5" points="698,-314 698,-493 963,-493 963,-314 698,-314"/>
<text text-anchor="middle" x="830.5" y="-477.8" font-family="Times,serif" font-size="14.00">SshPublicKey::KeyRsa</text>
</g>
<g id="clust3" class="cluster">
<title>cluster__key_ed25519</title>
<polygon fill="none" stroke="black" stroke-dasharray="1,5" points="724,-177 724,-306 937,-306 937,-177 724,-177"/>
<text text-anchor="middle" x="830.5" y="-290.8" font-family="Times,serif" font-size="14.00">SshPublicKey::KeyEd25519</text>
</g>
<g id="clust4" class="cluster">
<title>cluster__key_ecdsa</title>
<polygon fill="none" stroke="black" stroke-dasharray="1,5" points="41,-272 41,-383 330,-383 330,-272 41,-272"/>
<text text-anchor="middle" x="185.5" y="-367.8" font-family="Times,serif" font-size="14.00">SshPublicKey::KeyEcdsa</text>
</g>
<g id="clust5" class="cluster">
<title>cluster__cstring</title>
<polygon fill="none" stroke="black" stroke-dasharray="1,5" points="420.5,-227 420.5,-356 640.5,-356 640.5,-227 420.5,-227"/>
<text text-anchor="middle" x="530.5" y="-340.8" font-family="Times,serif" font-size="14.00">SshPublicKey::Cstring</text>
</g>
<g id="clust6" class="cluster">
<title>cluster__key_dsa</title>
<polygon fill="none" stroke="black" stroke-dasharray="1,5" points="698,-16 698,-169 963,-169 963,-16 698,-16"/>
<text text-anchor="middle" x="830.5" y="-153.8" font-family="Times,serif" font-size="14.00">SshPublicKey::KeyDsa</text>
</g>
<g id="clust7" class="cluster">
<title>cluster__elliptic_curve</title>
<polygon fill="none" stroke="black" stroke-dasharray="1,5" points="422.5,-364 422.5,-493 638.5,-493 638.5,-364 422.5,-364"/>
<text text-anchor="middle" x="530.5" y="-477.8" font-family="Times,serif" font-size="14.00">SshPublicKey::EllipticCurve</text>
</g>
<g id="clust8" class="cluster">
<title>cluster__bignum2</title>
<polygon fill="none" stroke="black" stroke-dasharray="1,5" points="983,-58 983,-187 1418,-187 1418,-58 983,-58"/>
<text text-anchor="middle" x="1200.5" y="-171.8" font-family="Times,serif" font-size="14.00">SshPublicKey::Bignum2</text>
</g>
<!-- ssh_public_key__seq -->
<g id="node1" class="node">
<title>ssh_public_key__seq</title>
<polygon fill="#e0ffe0" stroke="transparent" points="24.5,-237 24.5,-258 55.5,-258 55.5,-237 24.5,-237"/>
<polygon fill="none" stroke="black" points="24.5,-237 24.5,-258 55.5,-258 55.5,-237 24.5,-237"/>
<text text-anchor="start" x="27.5" y="-243.8" font-family="Times,serif" font-size="14.00">pos</text>
<polygon fill="#e0ffe0" stroke="transparent" points="55.5,-237 55.5,-258 89.5,-258 89.5,-237 55.5,-237"/>
<polygon fill="none" stroke="black" points="55.5,-237 55.5,-258 89.5,-258 89.5,-237 55.5,-237"/>
<text text-anchor="start" x="58.5" y="-243.8" font-family="Times,serif" font-size="14.00">size</text>
<polygon fill="#e0ffe0" stroke="transparent" points="89.5,-237 89.5,-258 270.5,-258 270.5,-237 89.5,-237"/>
<polygon fill="none" stroke="black" points="89.5,-237 89.5,-258 270.5,-258 270.5,-237 89.5,-237"/>
<text text-anchor="start" x="164" y="-243.8" font-family="Times,serif" font-size="14.00">type</text>
<polygon fill="#e0ffe0" stroke="transparent" points="270.5,-237 270.5,-258 347.5,-258 347.5,-237 270.5,-237"/>
<polygon fill="none" stroke="black" points="270.5,-237 270.5,-258 347.5,-258 347.5,-237 270.5,-237"/>
<text text-anchor="start" x="302" y="-243.8" font-family="Times,serif" font-size="14.00">id</text>
<polygon fill="none" stroke="black" points="24.5,-216 24.5,-237 55.5,-237 55.5,-216 24.5,-216"/>
<text text-anchor="start" x="35" y="-222.8" font-family="Times,serif" font-size="14.00">0</text>
<polygon fill="none" stroke="black" points="55.5,-216 55.5,-237 89.5,-237 89.5,-216 55.5,-216"/>
<text text-anchor="start" x="65.5" y="-222.8" font-family="Times,serif" font-size="14.00">...</text>
<polygon fill="none" stroke="black" points="89.5,-216 89.5,-237 270.5,-237 270.5,-216 89.5,-216"/>
<text text-anchor="start" x="153" y="-222.8" font-family="Times,serif" font-size="14.00">Cstring</text>
<polygon fill="none" stroke="black" points="270.5,-216 270.5,-237 347.5,-237 347.5,-216 270.5,-216"/>
<text text-anchor="start" x="273.5" y="-222.8" font-family="Times,serif" font-size="14.00">key_name</text>
<polygon fill="none" stroke="black" points="24.5,-195 24.5,-216 55.5,-216 55.5,-195 24.5,-195"/>
<text text-anchor="start" x="33" y="-201.8" font-family="Times,serif" font-size="14.00">...</text>
<polygon fill="none" stroke="black" points="55.5,-195 55.5,-216 89.5,-216 89.5,-195 55.5,-195"/>
<text text-anchor="start" x="65.5" y="-201.8" font-family="Times,serif" font-size="14.00">...</text>
<polygon fill="none" stroke="black" points="89.5,-195 89.5,-216 270.5,-216 270.5,-195 89.5,-195"/>
<text text-anchor="start" x="92.5" y="-201.8" font-family="Times,serif" font-size="14.00">switch (key_name.value)</text>
<polygon fill="none" stroke="black" points="270.5,-195 270.5,-216 347.5,-216 347.5,-195 270.5,-195"/>
<text text-anchor="start" x="291.5" y="-201.8" font-family="Times,serif" font-size="14.00">body</text>
</g>
<!-- ssh_public_key__seq_body_switch -->
<g id="node2" class="node">
<title>ssh_public_key__seq_body_switch</title>
<polygon fill="#f0f2e4" stroke="transparent" points="399.5,-192 399.5,-213 565.5,-213 565.5,-192 399.5,-192"/>
<polygon fill="none" stroke="black" points="399.5,-192 399.5,-213 565.5,-213 565.5,-192 399.5,-192"/>
<text text-anchor="start" x="466.5" y="-198.8" font-family="Times,serif" font-size="14.00">case</text>
<polygon fill="#f0f2e4" stroke="transparent" points="565.5,-192 565.5,-213 662.5,-213 662.5,-192 565.5,-192"/>
<polygon fill="none" stroke="black" points="565.5,-192 565.5,-213 662.5,-213 662.5,-192 565.5,-192"/>
<text text-anchor="start" x="598" y="-198.8" font-family="Times,serif" font-size="14.00">type</text>
<polygon fill="none" stroke="black" points="399.5,-171 399.5,-192 565.5,-192 565.5,-171 399.5,-171"/>
<text text-anchor="start" x="450" y="-177.8" font-family="Times,serif" font-size="14.00">&quot;ssh&#45;rsa&quot;</text>
<polygon fill="none" stroke="black" points="565.5,-171 565.5,-192 662.5,-192 662.5,-171 565.5,-171"/>
<text text-anchor="start" x="587.5" y="-177.8" font-family="Times,serif" font-size="14.00">KeyRsa</text>
<polygon fill="none" stroke="black" points="399.5,-150 399.5,-171 565.5,-171 565.5,-150 399.5,-150"/>
<text text-anchor="start" x="402.5" y="-156.8" font-family="Times,serif" font-size="14.00">&quot;ecdsa&#45;sha2&#45;nistp256&quot;</text>
<polygon fill="none" stroke="black" points="565.5,-150 565.5,-171 662.5,-171 662.5,-150 565.5,-150"/>
<text text-anchor="start" x="579" y="-156.8" font-family="Times,serif" font-size="14.00">KeyEcdsa</text>
<polygon fill="none" stroke="black" points="399.5,-129 399.5,-150 565.5,-150 565.5,-129 399.5,-129"/>
<text text-anchor="start" x="430" y="-135.8" font-family="Times,serif" font-size="14.00">&quot;ssh&#45;ed25519&quot;</text>
<polygon fill="none" stroke="black" points="565.5,-129 565.5,-150 662.5,-150 662.5,-129 565.5,-129"/>
<text text-anchor="start" x="568.5" y="-135.8" font-family="Times,serif" font-size="14.00">KeyEd25519</text>
<polygon fill="none" stroke="black" points="399.5,-108 399.5,-129 565.5,-129 565.5,-108 399.5,-108"/>
<text text-anchor="start" x="449" y="-114.8" font-family="Times,serif" font-size="14.00">&quot;ssh&#45;dss&quot;</text>
<polygon fill="none" stroke="black" points="565.5,-108 565.5,-129 662.5,-129 662.5,-108 565.5,-108"/>
<text text-anchor="start" x="587" y="-114.8" font-family="Times,serif" font-size="14.00">KeyDsa</text>
</g>
<!-- ssh_public_key__seq&#45;&gt;ssh_public_key__seq_body_switch -->
<g id="edge2" class="edge">
<title>ssh_public_key__seq:body_type&#45;&gt;ssh_public_key__seq_body_switch</title>
<path fill="none" stroke="black" stroke-width="2" d="M348.5,-205C359.15,-205 370.05,-204.27 380.96,-203"/>
<polygon fill="black" stroke="black" stroke-width="2" points="381.52,-206.46 390.98,-201.69 380.61,-199.52 381.52,-206.46"/>
</g>
<!-- cstring__seq -->
<g id="node7" class="node">
<title>cstring__seq</title>
<polygon fill="#e0ffe0" stroke="transparent" points="436.5,-281 436.5,-302 467.5,-302 467.5,-281 436.5,-281"/>
<polygon fill="none" stroke="black" points="436.5,-281 436.5,-302 467.5,-302 467.5,-281 436.5,-281"/>
<text text-anchor="start" x="439.5" y="-287.8" font-family="Times,serif" font-size="14.00">pos</text>
<polygon fill="#e0ffe0" stroke="transparent" points="467.5,-281 467.5,-302 501.5,-302 501.5,-281 467.5,-281"/>
<polygon fill="none" stroke="black" points="467.5,-281 467.5,-302 501.5,-302 501.5,-281 467.5,-281"/>
<text text-anchor="start" x="470.5" y="-287.8" font-family="Times,serif" font-size="14.00">size</text>
<polygon fill="#e0ffe0" stroke="transparent" points="501.5,-281 501.5,-302 579.5,-302 579.5,-281 501.5,-281"/>
<polygon fill="none" stroke="black" points="501.5,-281 501.5,-302 579.5,-302 579.5,-281 501.5,-281"/>
<text text-anchor="start" x="524.5" y="-287.8" font-family="Times,serif" font-size="14.00">type</text>
<polygon fill="#e0ffe0" stroke="transparent" points="579.5,-281 579.5,-302 624.5,-302 624.5,-281 579.5,-281"/>
<polygon fill="none" stroke="black" points="579.5,-281 579.5,-302 624.5,-302 624.5,-281 579.5,-281"/>
<text text-anchor="start" x="595" y="-287.8" font-family="Times,serif" font-size="14.00">id</text>
<polygon fill="none" stroke="black" points="436.5,-260 436.5,-281 467.5,-281 467.5,-260 436.5,-260"/>
<text text-anchor="start" x="447" y="-266.8" font-family="Times,serif" font-size="14.00">0</text>
<polygon fill="none" stroke="black" points="467.5,-260 467.5,-281 501.5,-281 501.5,-260 467.5,-260"/>
<text text-anchor="start" x="479.5" y="-266.8" font-family="Times,serif" font-size="14.00">4</text>
<polygon fill="none" stroke="black" points="501.5,-260 501.5,-281 579.5,-281 579.5,-260 501.5,-260"/>
<text text-anchor="start" x="522.5" y="-266.8" font-family="Times,serif" font-size="14.00">u4be</text>
<polygon fill="none" stroke="black" points="579.5,-260 579.5,-281 624.5,-281 624.5,-260 579.5,-260"/>
<text text-anchor="start" x="591" y="-266.8" font-family="Times,serif" font-size="14.00">len</text>
<polygon fill="none" stroke="black" points="436.5,-239 436.5,-260 467.5,-260 467.5,-239 436.5,-239"/>
<text text-anchor="start" x="447" y="-245.8" font-family="Times,serif" font-size="14.00">4</text>
<polygon fill="none" stroke="black" points="467.5,-239 467.5,-260 501.5,-260 501.5,-239 467.5,-239"/>
<text text-anchor="start" x="473.5" y="-245.8" font-family="Times,serif" font-size="14.00">len</text>
<polygon fill="none" stroke="black" points="501.5,-239 501.5,-260 579.5,-260 579.5,-239 501.5,-239"/>
<text text-anchor="start" x="504.5" y="-245.8" font-family="Times,serif" font-size="14.00">str(ASCII)</text>
<polygon fill="none" stroke="black" points="579.5,-239 579.5,-260 624.5,-260 624.5,-239 579.5,-239"/>
<text text-anchor="start" x="582.5" y="-245.8" font-family="Times,serif" font-size="14.00">value</text>
</g>
<!-- ssh_public_key__seq&#45;&gt;cstring__seq -->
<g id="edge1" class="edge">
<title>ssh_public_key__seq:key_name_type&#45;&gt;cstring__seq</title>
<path fill="none" stroke="black" stroke-width="2" d="M348.5,-226C363.12,-226 389.94,-231.6 418.54,-238.85"/>
<polygon fill="black" stroke="black" stroke-width="2" points="417.74,-242.25 428.29,-241.36 419.48,-235.47 417.74,-242.25"/>
</g>
<!-- key_rsa__seq -->
<g id="node3" class="node">
<title>key_rsa__seq</title>
<polygon fill="#e0ffe0" stroke="transparent" points="740.5,-368 740.5,-389 771.5,-389 771.5,-368 740.5,-368"/>
<polygon fill="none" stroke="black" points="740.5,-368 740.5,-389 771.5,-389 771.5,-368 740.5,-368"/>
<text text-anchor="start" x="743.5" y="-374.8" font-family="Times,serif" font-size="14.00">pos</text>
<polygon fill="#e0ffe0" stroke="transparent" points="771.5,-368 771.5,-389 805.5,-389 805.5,-368 771.5,-368"/>
<polygon fill="none" stroke="black" points="771.5,-368 771.5,-389 805.5,-389 805.5,-368 771.5,-368"/>
<text text-anchor="start" x="774.5" y="-374.8" font-family="Times,serif" font-size="14.00">size</text>
<polygon fill="#e0ffe0" stroke="transparent" points="805.5,-368 805.5,-389 876.5,-389 876.5,-368 805.5,-368"/>
<polygon fill="none" stroke="black" points="805.5,-368 805.5,-389 876.5,-389 876.5,-368 805.5,-368"/>
<text text-anchor="start" x="825" y="-374.8" font-family="Times,serif" font-size="14.00">type</text>
<polygon fill="#e0ffe0" stroke="transparent" points="876.5,-368 876.5,-389 921.5,-389 921.5,-368 876.5,-368"/>
<polygon fill="none" stroke="black" points="876.5,-368 876.5,-389 921.5,-389 921.5,-368 876.5,-368"/>
<text text-anchor="start" x="892" y="-374.8" font-family="Times,serif" font-size="14.00">id</text>
<polygon fill="none" stroke="black" points="740.5,-347 740.5,-368 771.5,-368 771.5,-347 740.5,-347"/>
<text text-anchor="start" x="751" y="-353.8" font-family="Times,serif" font-size="14.00">0</text>
<polygon fill="none" stroke="black" points="771.5,-347 771.5,-368 805.5,-368 805.5,-347 771.5,-347"/>
<text text-anchor="start" x="781.5" y="-353.8" font-family="Times,serif" font-size="14.00">...</text>
<polygon fill="none" stroke="black" points="805.5,-347 805.5,-368 876.5,-368 876.5,-347 805.5,-347"/>
<text text-anchor="start" x="808.5" y="-353.8" font-family="Times,serif" font-size="14.00">Bignum2</text>
<polygon fill="none" stroke="black" points="876.5,-347 876.5,-368 921.5,-368 921.5,-347 876.5,-347"/>
<text text-anchor="start" x="880" y="-353.8" font-family="Times,serif" font-size="14.00">rsa_e</text>
<polygon fill="none" stroke="black" points="740.5,-326 740.5,-347 771.5,-347 771.5,-326 740.5,-326"/>
<text text-anchor="start" x="749" y="-332.8" font-family="Times,serif" font-size="14.00">...</text>
<polygon fill="none" stroke="black" points="771.5,-326 771.5,-347 805.5,-347 805.5,-326 771.5,-326"/>
<text text-anchor="start" x="781.5" y="-332.8" font-family="Times,serif" font-size="14.00">...</text>
<polygon fill="none" stroke="black" points="805.5,-326 805.5,-347 876.5,-347 876.5,-326 805.5,-326"/>
<text text-anchor="start" x="808.5" y="-332.8" font-family="Times,serif" font-size="14.00">Bignum2</text>
<polygon fill="none" stroke="black" points="876.5,-326 876.5,-347 921.5,-347 921.5,-326 876.5,-326"/>
<text text-anchor="start" x="879.5" y="-332.8" font-family="Times,serif" font-size="14.00">rsa_n</text>
</g>
<!-- ssh_public_key__seq_body_switch&#45;&gt;key_rsa__seq -->
<g id="edge3" class="edge">
<title>ssh_public_key__seq_body_switch:case0&#45;&gt;key_rsa__seq</title>
<path fill="none" stroke="black" stroke-width="2" d="M663.5,-182C722.42,-182 658.18,-266.57 698,-310 705.16,-317.81 713.69,-324.34 722.92,-329.82"/>
<polygon fill="black" stroke="black" stroke-width="2" points="721.5,-333.04 731.96,-334.76 724.85,-326.89 721.5,-333.04"/>
</g>
<!-- key_ed25519__seq -->
<g id="node5" class="node">
<title>key_ed25519__seq</title>
<polygon fill="#e0ffe0" stroke="transparent" points="742.5,-231 742.5,-252 773.5,-252 773.5,-231 742.5,-231"/>
<polygon fill="none" stroke="black" points="742.5,-231 742.5,-252 773.5,-252 773.5,-231 742.5,-231"/>
<text text-anchor="start" x="745.5" y="-237.8" font-family="Times,serif" font-size="14.00">pos</text>
<polygon fill="#e0ffe0" stroke="transparent" points="773.5,-231 773.5,-252 825.5,-252 825.5,-231 773.5,-231"/>
<polygon fill="none" stroke="black" points="773.5,-231 773.5,-252 825.5,-252 825.5,-231 773.5,-231"/>
<text text-anchor="start" x="785.5" y="-237.8" font-family="Times,serif" font-size="14.00">size</text>
<polygon fill="#e0ffe0" stroke="transparent" points="825.5,-231 825.5,-252 867.5,-252 867.5,-231 825.5,-231"/>
<polygon fill="none" stroke="black" points="825.5,-231 825.5,-252 867.5,-252 867.5,-231 825.5,-231"/>
<text text-anchor="start" x="830.5" y="-237.8" font-family="Times,serif" font-size="14.00">type</text>
<polygon fill="#e0ffe0" stroke="transparent" points="867.5,-231 867.5,-252 919.5,-252 919.5,-231 867.5,-231"/>
<polygon fill="none" stroke="black" points="867.5,-231 867.5,-252 919.5,-252 919.5,-231 867.5,-231"/>
<text text-anchor="start" x="886.5" y="-237.8" font-family="Times,serif" font-size="14.00">id</text>
<polygon fill="none" stroke="black" points="742.5,-210 742.5,-231 773.5,-231 773.5,-210 742.5,-210"/>
<text text-anchor="start" x="753" y="-216.8" font-family="Times,serif" font-size="14.00">0</text>
<polygon fill="none" stroke="black" points="773.5,-210 773.5,-231 825.5,-231 825.5,-210 773.5,-210"/>
<text text-anchor="start" x="794.5" y="-216.8" font-family="Times,serif" font-size="14.00">4</text>
<polygon fill="none" stroke="black" points="825.5,-210 825.5,-231 867.5,-231 867.5,-210 825.5,-210"/>
<text text-anchor="start" x="828.5" y="-216.8" font-family="Times,serif" font-size="14.00">u4be</text>
<polygon fill="none" stroke="black" points="867.5,-210 867.5,-231 919.5,-231 919.5,-210 867.5,-210"/>
<text text-anchor="start" x="870.5" y="-216.8" font-family="Times,serif" font-size="14.00">len_pk</text>
<polygon fill="none" stroke="black" points="742.5,-189 742.5,-210 773.5,-210 773.5,-189 742.5,-189"/>
<text text-anchor="start" x="753" y="-195.8" font-family="Times,serif" font-size="14.00">4</text>
<polygon fill="none" stroke="black" points="773.5,-189 773.5,-210 825.5,-210 825.5,-189 773.5,-189"/>
<text text-anchor="start" x="776.5" y="-195.8" font-family="Times,serif" font-size="14.00">len_pk</text>
<polygon fill="none" stroke="black" points="825.5,-189 825.5,-210 867.5,-210 867.5,-189 825.5,-189"/>
<polygon fill="none" stroke="black" points="867.5,-189 867.5,-210 919.5,-210 919.5,-189 867.5,-189"/>
<text text-anchor="start" x="884.5" y="-195.8" font-family="Times,serif" font-size="14.00">pk</text>
</g>
<!-- ssh_public_key__seq_body_switch&#45;&gt;key_ed25519__seq -->
<g id="edge5" class="edge">
<title>ssh_public_key__seq_body_switch:case2&#45;&gt;key_ed25519__seq</title>
<path fill="none" stroke="black" stroke-width="2" d="M663.5,-139C685.03,-139 679.81,-161.49 698,-173 706.32,-178.26 715.3,-183.06 724.52,-187.41"/>
<polygon fill="black" stroke="black" stroke-width="2" points="723.25,-190.68 733.8,-191.61 726.13,-184.3 723.25,-190.68"/>
</g>
<!-- key_ecdsa__seq -->
<g id="node6" class="node">
<title>key_ecdsa__seq</title>
<polygon fill="#e0ffe0" stroke="transparent" points="57.5,-326 57.5,-347 88.5,-347 88.5,-326 57.5,-326"/>
<polygon fill="none" stroke="black" points="57.5,-326 57.5,-347 88.5,-347 88.5,-326 57.5,-326"/>
<text text-anchor="start" x="60.5" y="-332.8" font-family="Times,serif" font-size="14.00">pos</text>
<polygon fill="#e0ffe0" stroke="transparent" points="88.5,-326 88.5,-347 122.5,-347 122.5,-326 88.5,-326"/>
<polygon fill="none" stroke="black" points="88.5,-326 88.5,-347 122.5,-347 122.5,-326 88.5,-326"/>
<text text-anchor="start" x="91.5" y="-332.8" font-family="Times,serif" font-size="14.00">size</text>
<polygon fill="#e0ffe0" stroke="transparent" points="122.5,-326 122.5,-347 222.5,-347 222.5,-326 122.5,-326"/>
<polygon fill="none" stroke="black" points="122.5,-326 122.5,-347 222.5,-347 222.5,-326 122.5,-326"/>
<text text-anchor="start" x="156.5" y="-332.8" font-family="Times,serif" font-size="14.00">type</text>
<polygon fill="#e0ffe0" stroke="transparent" points="222.5,-326 222.5,-347 314.5,-347 314.5,-326 222.5,-326"/>
<polygon fill="none" stroke="black" points="222.5,-326 222.5,-347 314.5,-347 314.5,-326 222.5,-326"/>
<text text-anchor="start" x="261.5" y="-332.8" font-family="Times,serif" font-size="14.00">id</text>
<polygon fill="none" stroke="black" points="57.5,-305 57.5,-326 88.5,-326 88.5,-305 57.5,-305"/>
<text text-anchor="start" x="68" y="-311.8" font-family="Times,serif" font-size="14.00">0</text>
<polygon fill="none" stroke="black" points="88.5,-305 88.5,-326 122.5,-326 122.5,-305 88.5,-305"/>
<text text-anchor="start" x="98.5" y="-311.8" font-family="Times,serif" font-size="14.00">...</text>
<polygon fill="none" stroke="black" points="122.5,-305 122.5,-326 222.5,-326 222.5,-305 122.5,-305"/>
<text text-anchor="start" x="145.5" y="-311.8" font-family="Times,serif" font-size="14.00">Cstring</text>
<polygon fill="none" stroke="black" points="222.5,-305 222.5,-326 314.5,-326 314.5,-305 222.5,-305"/>
<text text-anchor="start" x="225.5" y="-311.8" font-family="Times,serif" font-size="14.00">curve_name</text>
<polygon fill="none" stroke="black" points="57.5,-284 57.5,-305 88.5,-305 88.5,-284 57.5,-284"/>
<text text-anchor="start" x="66" y="-290.8" font-family="Times,serif" font-size="14.00">...</text>
<polygon fill="none" stroke="black" points="88.5,-284 88.5,-305 122.5,-305 122.5,-284 88.5,-284"/>
<text text-anchor="start" x="98.5" y="-290.8" font-family="Times,serif" font-size="14.00">...</text>
<polygon fill="none" stroke="black" points="122.5,-284 122.5,-305 222.5,-305 222.5,-284 122.5,-284"/>
<text text-anchor="start" x="125.5" y="-290.8" font-family="Times,serif" font-size="14.00">EllipticCurve</text>
<polygon fill="none" stroke="black" points="222.5,-284 222.5,-305 314.5,-305 314.5,-284 222.5,-284"/>
<text text-anchor="start" x="260.5" y="-290.8" font-family="Times,serif" font-size="14.00">ec</text>
</g>
<!-- ssh_public_key__seq_body_switch&#45;&gt;key_ecdsa__seq -->
<g id="edge4" class="edge">
<title>ssh_public_key__seq_body_switch:case1&#45;&gt;key_ecdsa__seq</title>
<path fill="none" stroke="black" stroke-width="2" d="M663.5,-160C704.48,-160 683.81,133.51 391,-104.5 330.23,-153.9 409.78,-221.02 355,-277 347.99,-284.16 339.95,-290.12 331.25,-295.07"/>
<polygon fill="black" stroke="black" stroke-width="2" points="329.62,-291.97 322.36,-299.68 332.85,-298.18 329.62,-291.97"/>
</g>
<!-- key_dsa__seq -->
<g id="node8" class="node">
<title>key_dsa__seq</title>
<polygon fill="#e0ffe0" stroke="transparent" points="714.5,-112 714.5,-133 745.5,-133 745.5,-112 714.5,-112"/>
<polygon fill="none" stroke="black" points="714.5,-112 714.5,-133 745.5,-133 745.5,-112 714.5,-112"/>
<text text-anchor="start" x="717.5" y="-118.8" font-family="Times,serif" font-size="14.00">pos</text>
<polygon fill="#e0ffe0" stroke="transparent" points="745.5,-112 745.5,-133 779.5,-133 779.5,-112 745.5,-112"/>
<polygon fill="none" stroke="black" points="745.5,-112 745.5,-133 779.5,-133 779.5,-112 745.5,-112"/>
<text text-anchor="start" x="748.5" y="-118.8" font-family="Times,serif" font-size="14.00">size</text>
<polygon fill="#e0ffe0" stroke="transparent" points="779.5,-112 779.5,-133 850.5,-133 850.5,-112 779.5,-112"/>
<polygon fill="none" stroke="black" points="779.5,-112 779.5,-133 850.5,-133 850.5,-112 779.5,-112"/>
<text text-anchor="start" x="799" y="-118.8" font-family="Times,serif" font-size="14.00">type</text>
<polygon fill="#e0ffe0" stroke="transparent" points="850.5,-112 850.5,-133 947.5,-133 947.5,-112 850.5,-112"/>
<polygon fill="none" stroke="black" points="850.5,-112 850.5,-133 947.5,-133 947.5,-112 850.5,-112"/>
<text text-anchor="start" x="892" y="-118.8" font-family="Times,serif" font-size="14.00">id</text>
<polygon fill="none" stroke="black" points="714.5,-91 714.5,-112 745.5,-112 745.5,-91 714.5,-91"/>
<text text-anchor="start" x="725" y="-97.8" font-family="Times,serif" font-size="14.00">0</text>
<polygon fill="none" stroke="black" points="745.5,-91 745.5,-112 779.5,-112 779.5,-91 745.5,-91"/>
<text text-anchor="start" x="755.5" y="-97.8" font-family="Times,serif" font-size="14.00">...</text>
<polygon fill="none" stroke="black" points="779.5,-91 779.5,-112 850.5,-112 850.5,-91 779.5,-91"/>
<text text-anchor="start" x="782.5" y="-97.8" font-family="Times,serif" font-size="14.00">Bignum2</text>
<polygon fill="none" stroke="black" points="850.5,-91 850.5,-112 947.5,-112 947.5,-91 850.5,-91"/>
<text text-anchor="start" x="878.5" y="-97.8" font-family="Times,serif" font-size="14.00">dsa_p</text>
<polygon fill="none" stroke="black" points="714.5,-70 714.5,-91 745.5,-91 745.5,-70 714.5,-70"/>
<text text-anchor="start" x="723" y="-76.8" font-family="Times,serif" font-size="14.00">...</text>
<polygon fill="none" stroke="black" points="745.5,-70 745.5,-91 779.5,-91 779.5,-70 745.5,-70"/>
<text text-anchor="start" x="755.5" y="-76.8" font-family="Times,serif" font-size="14.00">...</text>
<polygon fill="none" stroke="black" points="779.5,-70 779.5,-91 850.5,-91 850.5,-70 779.5,-70"/>
<text text-anchor="start" x="782.5" y="-76.8" font-family="Times,serif" font-size="14.00">Bignum2</text>
<polygon fill="none" stroke="black" points="850.5,-70 850.5,-91 947.5,-91 947.5,-70 850.5,-70"/>
<text text-anchor="start" x="878.5" y="-76.8" font-family="Times,serif" font-size="14.00">dsa_q</text>
<polygon fill="none" stroke="black" points="714.5,-49 714.5,-70 745.5,-70 745.5,-49 714.5,-49"/>
<text text-anchor="start" x="723" y="-55.8" font-family="Times,serif" font-size="14.00">...</text>
<polygon fill="none" stroke="black" points="745.5,-49 745.5,-70 779.5,-70 779.5,-49 745.5,-49"/>
<text text-anchor="start" x="755.5" y="-55.8" font-family="Times,serif" font-size="14.00">...</text>
<polygon fill="none" stroke="black" points="779.5,-49 779.5,-70 850.5,-70 850.5,-49 779.5,-49"/>
<text text-anchor="start" x="782.5" y="-55.8" font-family="Times,serif" font-size="14.00">Bignum2</text>
<polygon fill="none" stroke="black" points="850.5,-49 850.5,-70 947.5,-70 947.5,-49 850.5,-49"/>
<text text-anchor="start" x="878.5" y="-55.8" font-family="Times,serif" font-size="14.00">dsa_g</text>
<polygon fill="none" stroke="black" points="714.5,-28 714.5,-49 745.5,-49 745.5,-28 714.5,-28"/>
<text text-anchor="start" x="723" y="-34.8" font-family="Times,serif" font-size="14.00">...</text>
<polygon fill="none" stroke="black" points="745.5,-28 745.5,-49 779.5,-49 779.5,-28 745.5,-28"/>
<text text-anchor="start" x="755.5" y="-34.8" font-family="Times,serif" font-size="14.00">...</text>
<polygon fill="none" stroke="black" points="779.5,-28 779.5,-49 850.5,-49 850.5,-28 779.5,-28"/>
<text text-anchor="start" x="782.5" y="-34.8" font-family="Times,serif" font-size="14.00">Bignum2</text>
<polygon fill="none" stroke="black" points="850.5,-28 850.5,-49 947.5,-49 947.5,-28 850.5,-28"/>
<text text-anchor="start" x="853.5" y="-34.8" font-family="Times,serif" font-size="14.00">dsa_pub_key</text>
</g>
<!-- ssh_public_key__seq_body_switch&#45;&gt;key_dsa__seq -->
<g id="edge6" class="edge">
<title>ssh_public_key__seq_body_switch:case3&#45;&gt;key_dsa__seq</title>
<path fill="none" stroke="black" stroke-width="2" d="M663.5,-118C674.12,-118 685.04,-117.27 695.96,-116.01"/>
<polygon fill="black" stroke="black" stroke-width="2" points="696.51,-119.47 705.98,-114.72 695.61,-112.53 696.51,-119.47"/>
</g>
<!-- bignum2__seq -->
<g id="node10" class="node">
<title>bignum2__seq</title>
<polygon fill="#e0ffe0" stroke="transparent" points="999,-112 999,-133 1030,-133 1030,-112 999,-112"/>
<polygon fill="none" stroke="black" points="999,-112 999,-133 1030,-133 1030,-112 999,-112"/>
<text text-anchor="start" x="1002" y="-118.8" font-family="Times,serif" font-size="14.00">pos</text>
<polygon fill="#e0ffe0" stroke="transparent" points="1030,-112 1030,-133 1064,-133 1064,-112 1030,-112"/>
<polygon fill="none" stroke="black" points="1030,-112 1030,-133 1064,-133 1064,-112 1030,-112"/>
<text text-anchor="start" x="1033" y="-118.8" font-family="Times,serif" font-size="14.00">size</text>
<polygon fill="#e0ffe0" stroke="transparent" points="1064,-112 1064,-133 1106,-133 1106,-112 1064,-112"/>
<polygon fill="none" stroke="black" points="1064,-112 1064,-133 1106,-133 1106,-112 1064,-112"/>
<text text-anchor="start" x="1069" y="-118.8" font-family="Times,serif" font-size="14.00">type</text>
<polygon fill="#e0ffe0" stroke="transparent" points="1106,-112 1106,-133 1147,-133 1147,-112 1106,-112"/>
<polygon fill="none" stroke="black" points="1106,-112 1106,-133 1147,-133 1147,-112 1106,-112"/>
<text text-anchor="start" x="1119.5" y="-118.8" font-family="Times,serif" font-size="14.00">id</text>
<polygon fill="none" stroke="black" points="999,-91 999,-112 1030,-112 1030,-91 999,-91"/>
<text text-anchor="start" x="1009.5" y="-97.8" font-family="Times,serif" font-size="14.00">0</text>
<polygon fill="none" stroke="black" points="1030,-91 1030,-112 1064,-112 1064,-91 1030,-91"/>
<text text-anchor="start" x="1042" y="-97.8" font-family="Times,serif" font-size="14.00">4</text>
<polygon fill="none" stroke="black" points="1064,-91 1064,-112 1106,-112 1106,-91 1064,-91"/>
<text text-anchor="start" x="1067" y="-97.8" font-family="Times,serif" font-size="14.00">u4be</text>
<polygon fill="none" stroke="black" points="1106,-91 1106,-112 1147,-112 1147,-91 1106,-91"/>
<text text-anchor="start" x="1115.5" y="-97.8" font-family="Times,serif" font-size="14.00">len</text>
<polygon fill="none" stroke="black" points="999,-70 999,-91 1030,-91 1030,-70 999,-70"/>
<text text-anchor="start" x="1009.5" y="-76.8" font-family="Times,serif" font-size="14.00">4</text>
<polygon fill="none" stroke="black" points="1030,-70 1030,-91 1064,-91 1064,-70 1030,-70"/>
<text text-anchor="start" x="1036" y="-76.8" font-family="Times,serif" font-size="14.00">len</text>
<polygon fill="none" stroke="black" points="1064,-70 1064,-91 1106,-91 1106,-70 1064,-70"/>
<polygon fill="none" stroke="black" points="1106,-70 1106,-91 1147,-91 1147,-70 1106,-70"/>
<text text-anchor="start" x="1109" y="-76.8" font-family="Times,serif" font-size="14.00">body</text>
</g>
<!-- key_rsa__seq&#45;&gt;bignum2__seq -->
<g id="edge8" class="edge">
<title>key_rsa__seq:rsa_e_type&#45;&gt;bignum2__seq</title>
<path fill="none" stroke="black" stroke-width="2" d="M922.5,-357C946.53,-357 1015.45,-220.44 1050.69,-147.19"/>
<polygon fill="black" stroke="black" stroke-width="2" points="1054.06,-148.26 1055.23,-137.73 1047.75,-145.23 1054.06,-148.26"/>
</g>
<!-- key_rsa__seq&#45;&gt;bignum2__seq -->
<g id="edge9" class="edge">
<title>key_rsa__seq:rsa_n_type&#45;&gt;bignum2__seq</title>
<path fill="none" stroke="black" stroke-width="2" d="M922.5,-336C966.93,-336 1024.89,-214.68 1053.86,-146.75"/>
<polygon fill="black" stroke="black" stroke-width="2" points="1057.08,-148.11 1057.75,-137.54 1050.63,-145.39 1057.08,-148.11"/>
</g>
<!-- key_rsa__inst__key_length -->
<g id="node4" class="node">
<title>key_rsa__inst__key_length</title>
<polygon fill="#e0ffe0" stroke="transparent" points="714.5,-437 714.5,-458 798.5,-458 798.5,-437 714.5,-437"/>
<polygon fill="none" stroke="black" points="714.5,-437 714.5,-458 798.5,-458 798.5,-437 714.5,-437"/>
<text text-anchor="start" x="749.5" y="-443.8" font-family="Times,serif" font-size="14.00">id</text>
<polygon fill="#e0ffe0" stroke="transparent" points="798.5,-437 798.5,-458 947.5,-458 947.5,-437 798.5,-437"/>
<polygon fill="none" stroke="black" points="798.5,-437 798.5,-458 947.5,-458 947.5,-437 798.5,-437"/>
<text text-anchor="start" x="853.5" y="-443.8" font-family="Times,serif" font-size="14.00">value</text>
<polygon fill="none" stroke="black" points="714.5,-416 714.5,-437 798.5,-437 798.5,-416 714.5,-416"/>
<text text-anchor="start" x="717.5" y="-422.8" font-family="Times,serif" font-size="14.00">key_length</text>
<polygon fill="none" stroke="black" points="798.5,-416 798.5,-437 947.5,-437 947.5,-416 798.5,-416"/>
<text text-anchor="start" x="801.5" y="-422.8" font-family="Times,serif" font-size="14.00">rsa_n.length_in_bits</text>
</g>
<!-- key_ed25519__seq&#45;&gt;key_ed25519__seq -->
<g id="edge11" class="edge">
<title>key_ed25519__seq:len_pk_type&#45;&gt;key_ed25519__seq:pk_size</title>
<path fill="none" stroke="#404040" d="M919.54,-230.85C950.68,-249.59 935.1,-274.5 846.5,-274.5 764.33,-274.5 744.97,-240.81 767.43,-216.96"/>
<polygon fill="#404040" stroke="#404040" points="769.96,-219.4 775.28,-210.23 765.41,-214.08 769.96,-219.4"/>
</g>
<!-- key_ecdsa__seq&#45;&gt;cstring__seq -->
<g id="edge12" class="edge">
<title>key_ecdsa__seq:curve_name_type&#45;&gt;cstring__seq</title>
<path fill="none" stroke="black" stroke-width="2" d="M315.5,-315C349.27,-315 385.44,-309.68 418.25,-302.73"/>
<polygon fill="black" stroke="black" stroke-width="2" points="419.3,-306.09 428.32,-300.53 417.8,-299.25 419.3,-306.09"/>
</g>
<!-- elliptic_curve__seq -->
<g id="node9" class="node">
<title>elliptic_curve__seq</title>
<polygon fill="#e0ffe0" stroke="transparent" points="456.5,-418 456.5,-439 487.5,-439 487.5,-418 456.5,-418"/>
<polygon fill="none" stroke="black" points="456.5,-418 456.5,-439 487.5,-439 487.5,-418 456.5,-418"/>
<text text-anchor="start" x="459.5" y="-424.8" font-family="Times,serif" font-size="14.00">pos</text>
<polygon fill="#e0ffe0" stroke="transparent" points="487.5,-418 487.5,-439 521.5,-439 521.5,-418 487.5,-418"/>
<polygon fill="none" stroke="black" points="487.5,-418 487.5,-439 521.5,-439 521.5,-418 487.5,-418"/>
<text text-anchor="start" x="490.5" y="-424.8" font-family="Times,serif" font-size="14.00">size</text>
<polygon fill="#e0ffe0" stroke="transparent" points="521.5,-418 521.5,-439 563.5,-439 563.5,-418 521.5,-418"/>
<polygon fill="none" stroke="black" points="521.5,-418 521.5,-439 563.5,-439 563.5,-418 521.5,-418"/>
<text text-anchor="start" x="526.5" y="-424.8" font-family="Times,serif" font-size="14.00">type</text>
<polygon fill="#e0ffe0" stroke="transparent" points="563.5,-418 563.5,-439 604.5,-439 604.5,-418 563.5,-418"/>
<polygon fill="none" stroke="black" points="563.5,-418 563.5,-439 604.5,-439 604.5,-418 563.5,-418"/>
<text text-anchor="start" x="577" y="-424.8" font-family="Times,serif" font-size="14.00">id</text>
<polygon fill="none" stroke="black" points="456.5,-397 456.5,-418 487.5,-418 487.5,-397 456.5,-397"/>
<text text-anchor="start" x="467" y="-403.8" font-family="Times,serif" font-size="14.00">0</text>
<polygon fill="none" stroke="black" points="487.5,-397 487.5,-418 521.5,-418 521.5,-397 487.5,-397"/>
<text text-anchor="start" x="499.5" y="-403.8" font-family="Times,serif" font-size="14.00">4</text>
<polygon fill="none" stroke="black" points="521.5,-397 521.5,-418 563.5,-418 563.5,-397 521.5,-397"/>
<text text-anchor="start" x="524.5" y="-403.8" font-family="Times,serif" font-size="14.00">u4be</text>
<polygon fill="none" stroke="black" points="563.5,-397 563.5,-418 604.5,-418 604.5,-397 563.5,-397"/>
<text text-anchor="start" x="573" y="-403.8" font-family="Times,serif" font-size="14.00">len</text>
<polygon fill="none" stroke="black" points="456.5,-376 456.5,-397 487.5,-397 487.5,-376 456.5,-376"/>
<text text-anchor="start" x="467" y="-382.8" font-family="Times,serif" font-size="14.00">4</text>
<polygon fill="none" stroke="black" points="487.5,-376 487.5,-397 521.5,-397 521.5,-376 487.5,-376"/>
<text text-anchor="start" x="493.5" y="-382.8" font-family="Times,serif" font-size="14.00">len</text>
<polygon fill="none" stroke="black" points="521.5,-376 521.5,-397 563.5,-397 563.5,-376 521.5,-376"/>
<polygon fill="none" stroke="black" points="563.5,-376 563.5,-397 604.5,-397 604.5,-376 563.5,-376"/>
<text text-anchor="start" x="566.5" y="-382.8" font-family="Times,serif" font-size="14.00">body</text>
</g>
<!-- key_ecdsa__seq&#45;&gt;elliptic_curve__seq -->
<g id="edge13" class="edge">
<title>key_ecdsa__seq:ec_type&#45;&gt;elliptic_curve__seq</title>
<path fill="none" stroke="black" stroke-width="2" d="M315.5,-294C360.07,-294 352.46,-337.62 391,-360 405.81,-368.6 422.4,-375.99 438.82,-382.22"/>
<polygon fill="black" stroke="black" stroke-width="2" points="437.86,-385.6 448.45,-385.76 440.27,-379.02 437.86,-385.6"/>
</g>
<!-- cstring__seq&#45;&gt;ssh_public_key__seq -->
<g id="edge7" class="edge">
<title>cstring__seq:value_type&#45;&gt;ssh_public_key__seq:body_type</title>
<path fill="none" stroke="#404040" d="M602.5,-238C602.5,-232.12 396.62,-233.72 391,-232 373.45,-226.62 371.15,-211.9 358.54,-206.78"/>
<polygon fill="#404040" stroke="#404040" points="358.96,-203.3 348.5,-205 357.73,-210.19 358.96,-203.3"/>
</g>
<!-- cstring__seq&#45;&gt;cstring__seq -->
<g id="edge14" class="edge">
<title>cstring__seq:len_type&#45;&gt;cstring__seq:value_size</title>
<path fill="none" stroke="#404040" d="M624.68,-276.58C675.84,-295.54 662.58,-324.5 543.5,-324.5 427.95,-324.5 412.04,-281.62 457.94,-258.37"/>
<polygon fill="#404040" stroke="#404040" points="459.49,-261.52 467.23,-254.28 456.66,-255.11 459.49,-261.52"/>
</g>
<!-- key_dsa__seq&#45;&gt;bignum2__seq -->
<g id="edge15" class="edge">
<title>key_dsa__seq:dsa_p_type&#45;&gt;bignum2__seq</title>
<path fill="none" stroke="black" stroke-width="2" d="M948.5,-102C959.01,-102 970.01,-102 980.95,-102"/>
<polygon fill="black" stroke="black" stroke-width="2" points="980.95,-105.5 990.95,-102 980.95,-98.5 980.95,-105.5"/>
</g>
<!-- key_dsa__seq&#45;&gt;bignum2__seq -->
<g id="edge16" class="edge">
<title>key_dsa__seq:dsa_q_type&#45;&gt;bignum2__seq</title>
<path fill="none" stroke="black" stroke-width="2" d="M948.5,-80C959.09,-80 970.11,-80.79 981.02,-82.08"/>
<polygon fill="black" stroke="black" stroke-width="2" points="980.61,-85.56 990.98,-83.39 981.53,-78.62 980.61,-85.56"/>
</g>
<!-- key_dsa__seq&#45;&gt;bignum2__seq -->
<g id="edge17" class="edge">
<title>key_dsa__seq:dsa_g_type&#45;&gt;bignum2__seq</title>
<path fill="none" stroke="black" stroke-width="2" d="M948.5,-59C960.68,-59 973.18,-60.89 985.33,-63.88"/>
<polygon fill="black" stroke="black" stroke-width="2" points="984.42,-67.25 994.99,-66.49 986.25,-60.5 984.42,-67.25"/>
</g>
<!-- key_dsa__seq&#45;&gt;bignum2__seq -->
<g id="edge18" class="edge">
<title>key_dsa__seq:dsa_pub_key_type&#45;&gt;bignum2__seq</title>
<path fill="none" stroke="black" stroke-width="2" d="M948.5,-38C973.54,-38 998.56,-48.5 1019.46,-60.99"/>
<polygon fill="black" stroke="black" stroke-width="2" points="1017.82,-64.1 1028.15,-66.44 1021.54,-58.17 1017.82,-64.1"/>
</g>
<!-- elliptic_curve__seq&#45;&gt;elliptic_curve__seq -->
<g id="edge19" class="edge">
<title>elliptic_curve__seq:len_type&#45;&gt;elliptic_curve__seq:body_size</title>
<path fill="none" stroke="#404040" d="M604.64,-412.83C658.36,-431.77 648.04,-461.5 544.5,-461.5 445.33,-461.5 431.68,-418.62 477.9,-395.37"/>
<polygon fill="#404040" stroke="#404040" points="479.47,-398.51 487.21,-391.28 476.65,-392.1 479.47,-398.51"/>
</g>
<!-- bignum2__seq&#45;&gt;bignum2__seq -->
<g id="edge20" class="edge">
<title>bignum2__seq:len_type&#45;&gt;bignum2__seq:body_size</title>
<path fill="none" stroke="#404040" d="M1147.37,-109.49C1181.59,-128.42 1169.93,-155.5 1087,-155.5 1008.62,-155.5 993.9,-117.46 1021.41,-93.62"/>
<polygon fill="#404040" stroke="#404040" points="1023.7,-96.28 1029.78,-87.6 1019.62,-90.6 1023.7,-96.28"/>
</g>
<!-- bignum2__inst__length_in_bits -->
<g id="node11" class="node">
<title>bignum2__inst__length_in_bits</title>
<polygon fill="#e0ffe0" stroke="transparent" points="1199.5,-116 1199.5,-137 1305.5,-137 1305.5,-116 1199.5,-116"/>
<polygon fill="none" stroke="black" points="1199.5,-116 1199.5,-137 1305.5,-137 1305.5,-116 1199.5,-116"/>
<text text-anchor="start" x="1245.5" y="-122.8" font-family="Times,serif" font-size="14.00">id</text>
<polygon fill="#e0ffe0" stroke="transparent" points="1305.5,-116 1305.5,-137 1402.5,-137 1402.5,-116 1305.5,-116"/>
<polygon fill="none" stroke="black" points="1305.5,-116 1305.5,-137 1402.5,-137 1402.5,-116 1305.5,-116"/>
<text text-anchor="start" x="1334.5" y="-122.8" font-family="Times,serif" font-size="14.00">value</text>
<polygon fill="none" stroke="black" points="1199.5,-95 1199.5,-116 1305.5,-116 1305.5,-95 1199.5,-95"/>
<text text-anchor="start" x="1202.5" y="-101.8" font-family="Times,serif" font-size="14.00">length_in_bits</text>
<polygon fill="none" stroke="black" points="1305.5,-95 1305.5,-116 1402.5,-116 1402.5,-95 1305.5,-95"/>
<text text-anchor="start" x="1308.5" y="-101.8" font-family="Times,serif" font-size="14.00">((len &#45; 1) * 8)</text>
</g>
<!-- bignum2__seq&#45;&gt;bignum2__inst__length_in_bits -->
<g id="edge21" class="edge">
<title>bignum2__seq:len_type&#45;&gt;bignum2__inst__length_in_bits</title>
<path fill="none" stroke="#404040" d="M1148,-101C1158.62,-101 1169.65,-101.37 1180.68,-101.99"/>
<polygon fill="#404040" stroke="#404040" points="1180.61,-105.5 1190.81,-102.63 1181.05,-98.51 1180.61,-105.5"/>
</g>
<!-- bignum2__inst__length_in_bits&#45;&gt;key_rsa__inst__key_length -->
<g id="edge10" class="edge">
<title>bignum2__inst__length_in_bits:length_in_bits_type&#45;&gt;key_rsa__inst__key_length</title>
<path fill="none" stroke="#404040" d="M1277.8,-141.02C1227.99,-196.83 1099.24,-332.14 963,-403 959.67,-404.73 956.24,-406.38 952.74,-407.95"/>
<polygon fill="#404040" stroke="#404040" points="951.18,-404.81 943.33,-411.92 953.91,-411.26 951.18,-404.81"/>
</g>
</g>
</svg>
