<?xml version="1.0" encoding="UTF-8" standalone="no"?>
<!DOCTYPE svg PUBLIC "-//W3C//DTD SVG 1.1//EN"
 "http://www.w3.org/Graphics/SVG/1.1/DTD/svg11.dtd">
<!-- Generated by graphviz version 2.38.0 (20140413.2041)
 -->
<!-- Title: %3 Pages: 1 -->
<svg width="2535pt" height="485pt"
 viewBox="0.00 0.00 2535.00 485.00" xmlns="http://www.w3.org/2000/svg" xmlns:xlink="http://www.w3.org/1999/xlink">
<g id="graph0" class="graph" transform="scale(1 1) rotate(0) translate(4 481)">
<title>%3</title>
<polygon fill="white" stroke="none" points="-4,4 -4,-481 2531,-481 2531,4 -4,4"/>
<g id="clust1" class="cluster"><title>cluster__microsoft_network_monitor_v2</title>
<polygon fill="none" stroke="black" stroke-dasharray="1,5" points="8,-44 8,-469 2340,-469 2340,-44 8,-44"/>
<text text-anchor="middle" x="1174" y="-453.8" font-family="Times,serif" font-size="14.00">MicrosoftNetworkMonitorV2</text>
</g>
<g id="clust2" class="cluster"><title>cluster__frame_index</title>
<polygon fill="none" stroke="black" stroke-dasharray="1,5" points="941,-226 941,-337 1262,-337 1262,-226 941,-226"/>
<text text-anchor="middle" x="1101.5" y="-321.8" font-family="Times,serif" font-size="14.00">MicrosoftNetworkMonitorV2::FrameIndex</text>
</g>
<g id="clust3" class="cluster"><title>cluster__frame_index_entry</title>
<polygon fill="none" stroke="black" stroke-dasharray="1,5" points="1290,-242 1290,-331 1664,-331 1664,-242 1290,-242"/>
<text text-anchor="middle" x="1477" y="-315.8" font-family="Times,serif" font-size="14.00">MicrosoftNetworkMonitorV2::FrameIndexEntry</text>
</g>
<g id="clust4" class="cluster"><title>cluster__frame</title>
<polygon fill="none" stroke="black" stroke-dasharray="1,5" points="1684,-248 1684,-401 2332,-401 2332,-248 1684,-248"/>
<text text-anchor="middle" x="2008" y="-385.8" font-family="Times,serif" font-size="14.00">MicrosoftNetworkMonitorV2::Frame</text>
</g>
<!-- microsoft_network_monitor_v2__seq -->
<g id="node1" class="node"><title>microsoft_network_monitor_v2__seq</title>
<polygon fill="#e0ffe0" stroke="none" points="24.5,-413 24.5,-434 55.5,-434 55.5,-413 24.5,-413"/>
<polygon fill="none" stroke="black" points="24.5,-413 24.5,-434 55.5,-434 55.5,-413 24.5,-413"/>
<text text-anchor="start" x="27.5" y="-419.8" font-family="Times,serif" font-size="14.00">pos</text>
<polygon fill="#e0ffe0" stroke="none" points="55.5,-413 55.5,-434 89.5,-434 89.5,-413 55.5,-413"/>
<polygon fill="none" stroke="black" points="55.5,-413 55.5,-434 89.5,-434 89.5,-413 55.5,-413"/>
<text text-anchor="start" x="58.5" y="-419.8" font-family="Times,serif" font-size="14.00">size</text>
<polygon fill="#e0ffe0" stroke="none" points="89.5,-413 89.5,-434 246.5,-434 246.5,-413 89.5,-413"/>
<polygon fill="none" stroke="black" points="89.5,-413 89.5,-434 246.5,-434 246.5,-413 89.5,-413"/>
<text text-anchor="start" x="152" y="-419.8" font-family="Times,serif" font-size="14.00">type</text>
<polygon fill="#e0ffe0" stroke="none" points="246.5,-413 246.5,-434 417.5,-434 417.5,-413 246.5,-413"/>
<polygon fill="none" stroke="black" points="246.5,-413 246.5,-434 417.5,-434 417.5,-413 246.5,-413"/>
<text text-anchor="start" x="325" y="-419.8" font-family="Times,serif" font-size="14.00">id</text>
<polygon fill="none" stroke="black" points="24.5,-392 24.5,-413 55.5,-413 55.5,-392 24.5,-392"/>
<text text-anchor="start" x="35" y="-398.8" font-family="Times,serif" font-size="14.00">0</text>
<polygon fill="none" stroke="black" points="55.5,-392 55.5,-413 89.5,-413 89.5,-392 55.5,-392"/>
<text text-anchor="start" x="67.5" y="-398.8" font-family="Times,serif" font-size="14.00">4</text>
<polygon fill="none" stroke="black" points="89.5,-392 89.5,-413 246.5,-413 246.5,-392 89.5,-392"/>
<text text-anchor="start" x="124" y="-398.8" font-family="Times,serif" font-size="14.00">47 4D 42 55</text>
<polygon fill="none" stroke="black" points="246.5,-392 246.5,-413 417.5,-413 417.5,-392 246.5,-392"/>
<text text-anchor="start" x="297.5" y="-398.8" font-family="Times,serif" font-size="14.00">signature</text>
<polygon fill="none" stroke="black" points="24.5,-371 24.5,-392 55.5,-392 55.5,-371 24.5,-371"/>
<text text-anchor="start" x="35" y="-377.8" font-family="Times,serif" font-size="14.00">4</text>
<polygon fill="none" stroke="black" points="55.5,-371 55.5,-392 89.5,-392 89.5,-371 55.5,-371"/>
<text text-anchor="start" x="67.5" y="-377.8" font-family="Times,serif" font-size="14.00">1</text>
<polygon fill="none" stroke="black" points="89.5,-371 89.5,-392 246.5,-392 246.5,-371 89.5,-371"/>
<text text-anchor="start" x="158.5" y="-377.8" font-family="Times,serif" font-size="14.00">u1</text>
<polygon fill="none" stroke="black" points="246.5,-371 246.5,-392 417.5,-392 417.5,-371 246.5,-371"/>
<text text-anchor="start" x="280.5" y="-377.8" font-family="Times,serif" font-size="14.00">version_minor</text>
<polygon fill="none" stroke="black" points="24.5,-350 24.5,-371 55.5,-371 55.5,-350 24.5,-350"/>
<text text-anchor="start" x="35" y="-356.8" font-family="Times,serif" font-size="14.00">5</text>
<polygon fill="none" stroke="black" points="55.5,-350 55.5,-371 89.5,-371 89.5,-350 55.5,-350"/>
<text text-anchor="start" x="67.5" y="-356.8" font-family="Times,serif" font-size="14.00">1</text>
<polygon fill="none" stroke="black" points="89.5,-350 89.5,-371 246.5,-371 246.5,-350 89.5,-350"/>
<text text-anchor="start" x="158.5" y="-356.8" font-family="Times,serif" font-size="14.00">u1</text>
<polygon fill="none" stroke="black" points="246.5,-350 246.5,-371 417.5,-371 417.5,-350 246.5,-350"/>
<text text-anchor="start" x="281" y="-356.8" font-family="Times,serif" font-size="14.00">version_major</text>
<polygon fill="none" stroke="black" points="24.5,-329 24.5,-350 55.5,-350 55.5,-329 24.5,-329"/>
<text text-anchor="start" x="35" y="-335.8" font-family="Times,serif" font-size="14.00">6</text>
<polygon fill="none" stroke="black" points="55.5,-329 55.5,-350 89.5,-350 89.5,-329 55.5,-329"/>
<text text-anchor="start" x="67.5" y="-335.8" font-family="Times,serif" font-size="14.00">2</text>
<polygon fill="none" stroke="black" points="89.5,-329 89.5,-350 246.5,-350 246.5,-329 89.5,-329"/>
<text text-anchor="start" x="116.5" y="-335.8" font-family="Times,serif" font-size="14.00">u2le?Linktype</text>
<polygon fill="none" stroke="black" points="246.5,-329 246.5,-350 417.5,-350 417.5,-329 246.5,-329"/>
<text text-anchor="start" x="297" y="-335.8" font-family="Times,serif" font-size="14.00">mac_type</text>
<polygon fill="none" stroke="black" points="24.5,-308 24.5,-329 55.5,-329 55.5,-308 24.5,-308"/>
<text text-anchor="start" x="35" y="-314.8" font-family="Times,serif" font-size="14.00">8</text>
<polygon fill="none" stroke="black" points="55.5,-308 55.5,-329 89.5,-329 89.5,-308 55.5,-308"/>
<text text-anchor="start" x="63" y="-314.8" font-family="Times,serif" font-size="14.00">16</text>
<polygon fill="none" stroke="black" points="89.5,-308 89.5,-329 246.5,-329 246.5,-308 89.5,-308"/>
<text text-anchor="start" x="92.5" y="-314.8" font-family="Times,serif" font-size="14.00">WindowsSystemtime</text>
<polygon fill="none" stroke="black" points="246.5,-308 246.5,-329 417.5,-329 417.5,-308 246.5,-308"/>
<text text-anchor="start" x="263" y="-314.8" font-family="Times,serif" font-size="14.00">time_capture_start</text>
<polygon fill="none" stroke="black" points="24.5,-287 24.5,-308 55.5,-308 55.5,-287 24.5,-287"/>
<text text-anchor="start" x="30.5" y="-293.8" font-family="Times,serif" font-size="14.00">24</text>
<polygon fill="none" stroke="black" points="55.5,-287 55.5,-308 89.5,-308 89.5,-287 55.5,-287"/>
<text text-anchor="start" x="67.5" y="-293.8" font-family="Times,serif" font-size="14.00">4</text>
<polygon fill="none" stroke="black" points="89.5,-287 89.5,-308 246.5,-308 246.5,-287 89.5,-287"/>
<text text-anchor="start" x="152.5" y="-293.8" font-family="Times,serif" font-size="14.00">u4le</text>
<polygon fill="none" stroke="black" points="246.5,-287 246.5,-308 417.5,-308 417.5,-287 246.5,-287"/>
<text text-anchor="start" x="274.5" y="-293.8" font-family="Times,serif" font-size="14.00">frame_table_ofs</text>
<polygon fill="none" stroke="black" points="24.5,-266 24.5,-287 55.5,-287 55.5,-266 24.5,-266"/>
<text text-anchor="start" x="30.5" y="-272.8" font-family="Times,serif" font-size="14.00">28</text>
<polygon fill="none" stroke="black" points="55.5,-266 55.5,-287 89.5,-287 89.5,-266 55.5,-266"/>
<text text-anchor="start" x="67.5" y="-272.8" font-family="Times,serif" font-size="14.00">4</text>
<polygon fill="none" stroke="black" points="89.5,-266 89.5,-287 246.5,-287 246.5,-266 89.5,-266"/>
<text text-anchor="start" x="152.5" y="-272.8" font-family="Times,serif" font-size="14.00">u4le</text>
<polygon fill="none" stroke="black" points="246.5,-266 246.5,-287 417.5,-287 417.5,-266 246.5,-266"/>
<text text-anchor="start" x="274.5" y="-272.8" font-family="Times,serif" font-size="14.00">frame_table_len</text>
<polygon fill="none" stroke="black" points="24.5,-245 24.5,-266 55.5,-266 55.5,-245 24.5,-245"/>
<text text-anchor="start" x="30.5" y="-251.8" font-family="Times,serif" font-size="14.00">32</text>
<polygon fill="none" stroke="black" points="55.5,-245 55.5,-266 89.5,-266 89.5,-245 55.5,-245"/>
<text text-anchor="start" x="67.5" y="-251.8" font-family="Times,serif" font-size="14.00">4</text>
<polygon fill="none" stroke="black" points="89.5,-245 89.5,-266 246.5,-266 246.5,-245 89.5,-245"/>
<text text-anchor="start" x="152.5" y="-251.8" font-family="Times,serif" font-size="14.00">u4le</text>
<polygon fill="none" stroke="black" points="246.5,-245 246.5,-266 417.5,-266 417.5,-245 246.5,-245"/>
<text text-anchor="start" x="282" y="-251.8" font-family="Times,serif" font-size="14.00">user_data_ofs</text>
<polygon fill="none" stroke="black" points="24.5,-224 24.5,-245 55.5,-245 55.5,-224 24.5,-224"/>
<text text-anchor="start" x="30.5" y="-230.8" font-family="Times,serif" font-size="14.00">36</text>
<polygon fill="none" stroke="black" points="55.5,-224 55.5,-245 89.5,-245 89.5,-224 55.5,-224"/>
<text text-anchor="start" x="67.5" y="-230.8" font-family="Times,serif" font-size="14.00">4</text>
<polygon fill="none" stroke="black" points="89.5,-224 89.5,-245 246.5,-245 246.5,-224 89.5,-224"/>
<text text-anchor="start" x="152.5" y="-230.8" font-family="Times,serif" font-size="14.00">u4le</text>
<polygon fill="none" stroke="black" points="246.5,-224 246.5,-245 417.5,-245 417.5,-224 246.5,-224"/>
<text text-anchor="start" x="282" y="-230.8" font-family="Times,serif" font-size="14.00">user_data_len</text>
<polygon fill="none" stroke="black" points="24.5,-203 24.5,-224 55.5,-224 55.5,-203 24.5,-203"/>
<text text-anchor="start" x="30.5" y="-209.8" font-family="Times,serif" font-size="14.00">40</text>
<polygon fill="none" stroke="black" points="55.5,-203 55.5,-224 89.5,-224 89.5,-203 55.5,-203"/>
<text text-anchor="start" x="67.5" y="-209.8" font-family="Times,serif" font-size="14.00">4</text>
<polygon fill="none" stroke="black" points="89.5,-203 89.5,-224 246.5,-224 246.5,-203 89.5,-203"/>
<text text-anchor="start" x="152.5" y="-209.8" font-family="Times,serif" font-size="14.00">u4le</text>
<polygon fill="none" stroke="black" points="246.5,-203 246.5,-224 417.5,-224 417.5,-203 246.5,-203"/>
<text text-anchor="start" x="284" y="-209.8" font-family="Times,serif" font-size="14.00">comment_ofs</text>
<polygon fill="none" stroke="black" points="24.5,-182 24.5,-203 55.5,-203 55.5,-182 24.5,-182"/>
<text text-anchor="start" x="30.5" y="-188.8" font-family="Times,serif" font-size="14.00">44</text>
<polygon fill="none" stroke="black" points="55.5,-182 55.5,-203 89.5,-203 89.5,-182 55.5,-182"/>
<text text-anchor="start" x="67.5" y="-188.8" font-family="Times,serif" font-size="14.00">4</text>
<polygon fill="none" stroke="black" points="89.5,-182 89.5,-203 246.5,-203 246.5,-182 89.5,-182"/>
<text text-anchor="start" x="152.5" y="-188.8" font-family="Times,serif" font-size="14.00">u4le</text>
<polygon fill="none" stroke="black" points="246.5,-182 246.5,-203 417.5,-203 417.5,-182 246.5,-182"/>
<text text-anchor="start" x="283.5" y="-188.8" font-family="Times,serif" font-size="14.00">comment_len</text>
<polygon fill="none" stroke="black" points="24.5,-161 24.5,-182 55.5,-182 55.5,-161 24.5,-161"/>
<text text-anchor="start" x="30.5" y="-167.8" font-family="Times,serif" font-size="14.00">48</text>
<polygon fill="none" stroke="black" points="55.5,-161 55.5,-182 89.5,-182 89.5,-161 55.5,-161"/>
<text text-anchor="start" x="67.5" y="-167.8" font-family="Times,serif" font-size="14.00">4</text>
<polygon fill="none" stroke="black" points="89.5,-161 89.5,-182 246.5,-182 246.5,-161 89.5,-161"/>
<text text-anchor="start" x="152.5" y="-167.8" font-family="Times,serif" font-size="14.00">u4le</text>
<polygon fill="none" stroke="black" points="246.5,-161 246.5,-182 417.5,-182 417.5,-161 246.5,-161"/>
<text text-anchor="start" x="284.5" y="-167.8" font-family="Times,serif" font-size="14.00">statistics_ofs</text>
<polygon fill="none" stroke="black" points="24.5,-140 24.5,-161 55.5,-161 55.5,-140 24.5,-140"/>
<text text-anchor="start" x="30.5" y="-146.8" font-family="Times,serif" font-size="14.00">52</text>
<polygon fill="none" stroke="black" points="55.5,-140 55.5,-161 89.5,-161 89.5,-140 55.5,-140"/>
<text text-anchor="start" x="67.5" y="-146.8" font-family="Times,serif" font-size="14.00">4</text>
<polygon fill="none" stroke="black" points="89.5,-140 89.5,-161 246.5,-161 246.5,-140 89.5,-140"/>
<text text-anchor="start" x="152.5" y="-146.8" font-family="Times,serif" font-size="14.00">u4le</text>
<polygon fill="none" stroke="black" points="246.5,-140 246.5,-161 417.5,-161 417.5,-140 246.5,-140"/>
<text text-anchor="start" x="284" y="-146.8" font-family="Times,serif" font-size="14.00">statistics_len</text>
<polygon fill="none" stroke="black" points="24.5,-119 24.5,-140 55.5,-140 55.5,-119 24.5,-119"/>
<text text-anchor="start" x="30.5" y="-125.8" font-family="Times,serif" font-size="14.00">56</text>
<polygon fill="none" stroke="black" points="55.5,-119 55.5,-140 89.5,-140 89.5,-119 55.5,-119"/>
<text text-anchor="start" x="67.5" y="-125.8" font-family="Times,serif" font-size="14.00">4</text>
<polygon fill="none" stroke="black" points="89.5,-119 89.5,-140 246.5,-140 246.5,-119 89.5,-119"/>
<text text-anchor="start" x="152.5" y="-125.8" font-family="Times,serif" font-size="14.00">u4le</text>
<polygon fill="none" stroke="black" points="246.5,-119 246.5,-140 417.5,-140 417.5,-119 246.5,-119"/>
<text text-anchor="start" x="270.5" y="-125.8" font-family="Times,serif" font-size="14.00">network_info_ofs</text>
<polygon fill="none" stroke="black" points="24.5,-98 24.5,-119 55.5,-119 55.5,-98 24.5,-98"/>
<text text-anchor="start" x="30.5" y="-104.8" font-family="Times,serif" font-size="14.00">60</text>
<polygon fill="none" stroke="black" points="55.5,-98 55.5,-119 89.5,-119 89.5,-98 55.5,-98"/>
<text text-anchor="start" x="67.5" y="-104.8" font-family="Times,serif" font-size="14.00">4</text>
<polygon fill="none" stroke="black" points="89.5,-98 89.5,-119 246.5,-119 246.5,-98 89.5,-98"/>
<text text-anchor="start" x="152.5" y="-104.8" font-family="Times,serif" font-size="14.00">u4le</text>
<polygon fill="none" stroke="black" points="246.5,-98 246.5,-119 417.5,-119 417.5,-98 246.5,-98"/>
<text text-anchor="start" x="270" y="-104.8" font-family="Times,serif" font-size="14.00">network_info_len</text>
<polygon fill="none" stroke="black" points="24.5,-77 24.5,-98 55.5,-98 55.5,-77 24.5,-77"/>
<text text-anchor="start" x="30.5" y="-83.8" font-family="Times,serif" font-size="14.00">64</text>
<polygon fill="none" stroke="black" points="55.5,-77 55.5,-98 89.5,-98 89.5,-77 55.5,-77"/>
<text text-anchor="start" x="67.5" y="-83.8" font-family="Times,serif" font-size="14.00">4</text>
<polygon fill="none" stroke="black" points="89.5,-77 89.5,-98 246.5,-98 246.5,-77 89.5,-77"/>
<text text-anchor="start" x="152.5" y="-83.8" font-family="Times,serif" font-size="14.00">u4le</text>
<polygon fill="none" stroke="black" points="246.5,-77 246.5,-98 417.5,-98 417.5,-77 246.5,-77"/>
<text text-anchor="start" x="250" y="-83.8" font-family="Times,serif" font-size="14.00">conversation_stats_ofs</text>
<polygon fill="none" stroke="black" points="24.5,-56 24.5,-77 55.5,-77 55.5,-56 24.5,-56"/>
<text text-anchor="start" x="30.5" y="-62.8" font-family="Times,serif" font-size="14.00">68</text>
<polygon fill="none" stroke="black" points="55.5,-56 55.5,-77 89.5,-77 89.5,-56 55.5,-56"/>
<text text-anchor="start" x="67.5" y="-62.8" font-family="Times,serif" font-size="14.00">4</text>
<polygon fill="none" stroke="black" points="89.5,-56 89.5,-77 246.5,-77 246.5,-56 89.5,-56"/>
<text text-anchor="start" x="152.5" y="-62.8" font-family="Times,serif" font-size="14.00">u4le</text>
<polygon fill="none" stroke="black" points="246.5,-56 246.5,-77 417.5,-77 417.5,-56 246.5,-56"/>
<text text-anchor="start" x="249.5" y="-62.8" font-family="Times,serif" font-size="14.00">conversation_stats_len</text>
</g>
<!-- microsoft_network_monitor_v2__inst__frame_table -->
<g id="node2" class="node"><title>microsoft_network_monitor_v2__inst__frame_table</title>
<polygon fill="#e0ffe0" stroke="none" points="469,-288 469,-309 590,-309 590,-288 469,-288"/>
<polygon fill="none" stroke="black" points="469,-288 469,-309 590,-309 590,-288 469,-288"/>
<text text-anchor="start" x="517" y="-294.8" font-family="Times,serif" font-size="14.00">pos</text>
<polygon fill="#e0ffe0" stroke="none" points="590,-288 590,-309 711,-309 711,-288 590,-288"/>
<polygon fill="none" stroke="black" points="590,-288 590,-309 711,-309 711,-288 590,-288"/>
<text text-anchor="start" x="636.5" y="-294.8" font-family="Times,serif" font-size="14.00">size</text>
<polygon fill="#e0ffe0" stroke="none" points="711,-288 711,-309 805,-309 805,-288 711,-288"/>
<polygon fill="none" stroke="black" points="711,-288 711,-309 805,-309 805,-288 711,-288"/>
<text text-anchor="start" x="742" y="-294.8" font-family="Times,serif" font-size="14.00">type</text>
<polygon fill="#e0ffe0" stroke="none" points="805,-288 805,-309 897,-309 897,-288 805,-288"/>
<polygon fill="none" stroke="black" points="805,-288 805,-309 897,-309 897,-288 805,-288"/>
<text text-anchor="start" x="844" y="-294.8" font-family="Times,serif" font-size="14.00">id</text>
<polygon fill="none" stroke="black" points="469,-267 469,-288 590,-288 590,-267 469,-267"/>
<text text-anchor="start" x="472" y="-273.8" font-family="Times,serif" font-size="14.00">frame_table_ofs</text>
<polygon fill="none" stroke="black" points="590,-267 590,-288 711,-288 711,-267 590,-267"/>
<text text-anchor="start" x="593" y="-273.8" font-family="Times,serif" font-size="14.00">frame_table_len</text>
<polygon fill="none" stroke="black" points="711,-267 711,-288 805,-288 805,-267 711,-267"/>
<text text-anchor="start" x="714" y="-273.8" font-family="Times,serif" font-size="14.00">FrameIndex</text>
<polygon fill="none" stroke="black" points="805,-267 805,-288 897,-288 897,-267 805,-267"/>
<text text-anchor="start" x="808" y="-273.8" font-family="Times,serif" font-size="14.00">frame_table</text>
</g>
<!-- microsoft_network_monitor_v2__seq&#45;&gt;microsoft_network_monitor_v2__inst__frame_table -->
<g id="edge2" class="edge"><title>microsoft_network_monitor_v2__seq:frame_table_ofs_type&#45;&gt;microsoft_network_monitor_v2__inst__frame_table:frame_table_pos</title>
<path fill="none" stroke="#404040" d="M418.5,-298C438.477,-298 442.946,-283.325 457.834,-278.51"/>
<polygon fill="#404040" stroke="#404040" points="458.623,-281.932 468,-277 457.594,-275.008 458.623,-281.932"/>
</g>
<!-- microsoft_network_monitor_v2__seq&#45;&gt;microsoft_network_monitor_v2__inst__frame_table -->
<g id="edge3" class="edge"><title>microsoft_network_monitor_v2__seq:frame_table_len_type&#45;&gt;microsoft_network_monitor_v2__inst__frame_table:frame_table_size</title>
<path fill="none" stroke="#404040" d="M418.5,-277C437.905,-277 441.731,-269.288 461,-267 540.668,-257.54 640.559,-188.614 649.372,-255.622"/>
<polygon fill="#404040" stroke="#404040" points="645.903,-256.23 650,-266 652.89,-255.807 645.903,-256.23"/>
</g>
<!-- frame__seq -->
<g id="node6" class="node"><title>frame__seq</title>
<polygon fill="#e0ffe0" stroke="none" points="1700,-344 1700,-365 1731,-365 1731,-344 1700,-344"/>
<polygon fill="none" stroke="black" points="1700,-344 1700,-365 1731,-365 1731,-344 1700,-344"/>
<text text-anchor="start" x="1703" y="-350.8" font-family="Times,serif" font-size="14.00">pos</text>
<polygon fill="#e0ffe0" stroke="none" points="1731,-344 1731,-365 1765,-365 1765,-344 1731,-344"/>
<polygon fill="none" stroke="black" points="1731,-344 1731,-365 1765,-365 1765,-344 1731,-344"/>
<text text-anchor="start" x="1734" y="-350.8" font-family="Times,serif" font-size="14.00">size</text>
<polygon fill="#e0ffe0" stroke="none" points="1765,-344 1765,-365 1944,-365 1944,-344 1765,-344"/>
<polygon fill="none" stroke="black" points="1765,-344 1765,-365 1944,-365 1944,-344 1765,-344"/>
<text text-anchor="start" x="1838.5" y="-350.8" font-family="Times,serif" font-size="14.00">type</text>
<polygon fill="#e0ffe0" stroke="none" points="1944,-344 1944,-365 2008,-365 2008,-344 1944,-344"/>
<polygon fill="none" stroke="black" points="1944,-344 1944,-365 2008,-365 2008,-344 1944,-344"/>
<text text-anchor="start" x="1969" y="-350.8" font-family="Times,serif" font-size="14.00">id</text>
<polygon fill="none" stroke="black" points="1700,-323 1700,-344 1731,-344 1731,-323 1700,-323"/>
<text text-anchor="start" x="1710.5" y="-329.8" font-family="Times,serif" font-size="14.00">0</text>
<polygon fill="none" stroke="black" points="1731,-323 1731,-344 1765,-344 1765,-323 1731,-323"/>
<text text-anchor="start" x="1743" y="-329.8" font-family="Times,serif" font-size="14.00">8</text>
<polygon fill="none" stroke="black" points="1765,-323 1765,-344 1944,-344 1944,-323 1765,-323"/>
<text text-anchor="start" x="1839" y="-329.8" font-family="Times,serif" font-size="14.00">u8le</text>
<polygon fill="none" stroke="black" points="1944,-323 1944,-344 2008,-344 2008,-323 1944,-323"/>
<text text-anchor="start" x="1947" y="-329.8" font-family="Times,serif" font-size="14.00">ts_delta</text>
<polygon fill="none" stroke="black" points="1700,-302 1700,-323 1731,-323 1731,-302 1700,-302"/>
<text text-anchor="start" x="1710.5" y="-308.8" font-family="Times,serif" font-size="14.00">8</text>
<polygon fill="none" stroke="black" points="1731,-302 1731,-323 1765,-323 1765,-302 1731,-302"/>
<text text-anchor="start" x="1743" y="-308.8" font-family="Times,serif" font-size="14.00">4</text>
<polygon fill="none" stroke="black" points="1765,-302 1765,-323 1944,-323 1944,-302 1765,-302"/>
<text text-anchor="start" x="1839" y="-308.8" font-family="Times,serif" font-size="14.00">u4le</text>
<polygon fill="none" stroke="black" points="1944,-302 1944,-323 2008,-323 2008,-302 1944,-302"/>
<text text-anchor="start" x="1947" y="-308.8" font-family="Times,serif" font-size="14.00">orig_len</text>
<polygon fill="none" stroke="black" points="1700,-281 1700,-302 1731,-302 1731,-281 1700,-281"/>
<text text-anchor="start" x="1706" y="-287.8" font-family="Times,serif" font-size="14.00">12</text>
<polygon fill="none" stroke="black" points="1731,-281 1731,-302 1765,-302 1765,-281 1731,-281"/>
<text text-anchor="start" x="1743" y="-287.8" font-family="Times,serif" font-size="14.00">4</text>
<polygon fill="none" stroke="black" points="1765,-281 1765,-302 1944,-302 1944,-281 1765,-281"/>
<text text-anchor="start" x="1839" y="-287.8" font-family="Times,serif" font-size="14.00">u4le</text>
<polygon fill="none" stroke="black" points="1944,-281 1944,-302 2008,-302 2008,-281 1944,-281"/>
<text text-anchor="start" x="1950" y="-287.8" font-family="Times,serif" font-size="14.00">inc_len</text>
<polygon fill="none" stroke="black" points="1700,-260 1700,-281 1731,-281 1731,-260 1700,-260"/>
<text text-anchor="start" x="1706" y="-266.8" font-family="Times,serif" font-size="14.00">16</text>
<polygon fill="none" stroke="black" points="1731,-260 1731,-281 1765,-281 1765,-260 1731,-260"/>
<text text-anchor="start" x="1741" y="-266.8" font-family="Times,serif" font-size="14.00">...</text>
<polygon fill="none" stroke="black" points="1765,-260 1765,-281 1944,-281 1944,-260 1765,-260"/>
<text text-anchor="start" x="1768" y="-266.8" font-family="Times,serif" font-size="14.00">switch (_root.mac_type)</text>
<polygon fill="none" stroke="black" points="1944,-260 1944,-281 2008,-281 2008,-260 1944,-260"/>
<text text-anchor="start" x="1958.5" y="-266.8" font-family="Times,serif" font-size="14.00">body</text>
</g>
<!-- microsoft_network_monitor_v2__seq&#45;&gt;frame__seq -->
<g id="edge10" class="edge"><title>microsoft_network_monitor_v2__seq:mac_type_type&#45;&gt;frame__seq:body_type</title>
<path fill="none" stroke="#404040" d="M418.5,-340C721.401,-340 797.099,-346 1100,-346 1100,-346 1100,-346 1372.5,-346 1502.15,-346 1558.91,-410.92 1664,-335 1692.84,-314.165 1662.81,-280.339 1692,-260 1792.63,-189.889 1965.84,-135.91 1975.57,-248.708"/>
<polygon fill="#404040" stroke="#404040" points="1972.09,-249.154 1976,-259 1979.08,-248.863 1972.09,-249.154"/>
</g>
<!-- windows_systemtime__seq -->
<g id="node8" class="node"><title>windows_systemtime__seq</title>
<text text-anchor="middle" x="683" y="-14.3" font-family="Times,serif" font-size="14.00">windows_systemtime__seq</text>
</g>
<!-- microsoft_network_monitor_v2__seq&#45;&gt;windows_systemtime__seq -->
<g id="edge1" class="edge"><title>microsoft_network_monitor_v2__seq:time_capture_start_type&#45;&gt;windows_systemtime__seq</title>
<path fill="none" stroke="black" stroke-width="2" d="M418.5,-319C481.215,-319 415.517,-83.1797 461,-40 489.236,-13.1936 529.581,-4.11141 568.09,-2.94176"/>
<polygon fill="black" stroke="black" stroke-width="2" points="568.405,-6.43813 578.359,-2.81075 568.315,0.561305 568.405,-6.43813"/>
</g>
<!-- frame_index__seq -->
<g id="node3" class="node"><title>frame_index__seq</title>
<polygon fill="#e0ffe0" stroke="none" points="973,-280 973,-301 1004,-301 1004,-280 973,-280"/>
<polygon fill="none" stroke="black" points="973,-280 973,-301 1004,-301 1004,-280 973,-280"/>
<text text-anchor="start" x="976" y="-286.8" font-family="Times,serif" font-size="14.00">pos</text>
<polygon fill="#e0ffe0" stroke="none" points="1004,-280 1004,-301 1038,-301 1038,-280 1004,-280"/>
<polygon fill="none" stroke="black" points="1004,-280 1004,-301 1038,-301 1038,-280 1004,-280"/>
<text text-anchor="start" x="1007" y="-286.8" font-family="Times,serif" font-size="14.00">size</text>
<polygon fill="#e0ffe0" stroke="none" points="1038,-280 1038,-301 1172,-301 1172,-280 1038,-280"/>
<polygon fill="none" stroke="black" points="1038,-280 1038,-301 1172,-301 1172,-280 1038,-280"/>
<text text-anchor="start" x="1089" y="-286.8" font-family="Times,serif" font-size="14.00">type</text>
<polygon fill="#e0ffe0" stroke="none" points="1172,-280 1172,-301 1229,-301 1229,-280 1172,-280"/>
<polygon fill="none" stroke="black" points="1172,-280 1172,-301 1229,-301 1229,-280 1172,-280"/>
<text text-anchor="start" x="1193.5" y="-286.8" font-family="Times,serif" font-size="14.00">id</text>
<polygon fill="none" stroke="black" points="973,-259 973,-280 1004,-280 1004,-259 973,-259"/>
<text text-anchor="start" x="983.5" y="-265.8" font-family="Times,serif" font-size="14.00">0</text>
<polygon fill="none" stroke="black" points="1004,-259 1004,-280 1038,-280 1038,-259 1004,-259"/>
<text text-anchor="start" x="1016" y="-265.8" font-family="Times,serif" font-size="14.00">4</text>
<polygon fill="none" stroke="black" points="1038,-259 1038,-280 1172,-280 1172,-259 1038,-259"/>
<text text-anchor="start" x="1041" y="-265.8" font-family="Times,serif" font-size="14.00">FrameIndexEntry</text>
<polygon fill="none" stroke="black" points="1172,-259 1172,-280 1229,-280 1229,-259 1172,-259"/>
<text text-anchor="start" x="1175" y="-265.8" font-family="Times,serif" font-size="14.00">entries</text>
<polygon fill="none" stroke="black" points="973,-238 973,-259 1229,-259 1229,-238 973,-238"/>
<text text-anchor="start" x="1016.5" y="-244.8" font-family="Times,serif" font-size="14.00">repeat to end of stream</text>
</g>
<!-- microsoft_network_monitor_v2__inst__frame_table&#45;&gt;frame_index__seq -->
<g id="edge4" class="edge"><title>microsoft_network_monitor_v2__inst__frame_table:frame_table_type&#45;&gt;frame_index__seq</title>
<path fill="none" stroke="black" stroke-width="2" d="M898,-277C916.293,-277 935.512,-276.71 954.522,-276.247"/>
<polygon fill="black" stroke="black" stroke-width="2" points="954.839,-279.74 964.744,-275.982 954.657,-272.743 954.839,-279.74"/>
</g>
<!-- frame_index_entry__seq -->
<g id="node4" class="node"><title>frame_index_entry__seq</title>
<polygon fill="#e0ffe0" stroke="none" points="1306.5,-275 1306.5,-296 1337.5,-296 1337.5,-275 1306.5,-275"/>
<polygon fill="none" stroke="black" points="1306.5,-275 1306.5,-296 1337.5,-296 1337.5,-275 1306.5,-275"/>
<text text-anchor="start" x="1309.5" y="-281.8" font-family="Times,serif" font-size="14.00">pos</text>
<polygon fill="#e0ffe0" stroke="none" points="1337.5,-275 1337.5,-296 1371.5,-296 1371.5,-275 1337.5,-275"/>
<polygon fill="none" stroke="black" points="1337.5,-275 1337.5,-296 1371.5,-296 1371.5,-275 1337.5,-275"/>
<text text-anchor="start" x="1340.5" y="-281.8" font-family="Times,serif" font-size="14.00">size</text>
<polygon fill="#e0ffe0" stroke="none" points="1371.5,-275 1371.5,-296 1409.5,-296 1409.5,-275 1371.5,-275"/>
<polygon fill="none" stroke="black" points="1371.5,-275 1371.5,-296 1409.5,-296 1409.5,-275 1371.5,-275"/>
<text text-anchor="start" x="1374.5" y="-281.8" font-family="Times,serif" font-size="14.00">type</text>
<polygon fill="#e0ffe0" stroke="none" points="1409.5,-275 1409.5,-296 1437.5,-296 1437.5,-275 1409.5,-275"/>
<polygon fill="none" stroke="black" points="1409.5,-275 1409.5,-296 1437.5,-296 1437.5,-275 1409.5,-275"/>
<text text-anchor="start" x="1416.5" y="-281.8" font-family="Times,serif" font-size="14.00">id</text>
<polygon fill="none" stroke="black" points="1306.5,-254 1306.5,-275 1337.5,-275 1337.5,-254 1306.5,-254"/>
<text text-anchor="start" x="1317" y="-260.8" font-family="Times,serif" font-size="14.00">0</text>
<polygon fill="none" stroke="black" points="1337.5,-254 1337.5,-275 1371.5,-275 1371.5,-254 1337.5,-254"/>
<text text-anchor="start" x="1349.5" y="-260.8" font-family="Times,serif" font-size="14.00">4</text>
<polygon fill="none" stroke="black" points="1371.5,-254 1371.5,-275 1409.5,-275 1409.5,-254 1371.5,-254"/>
<text text-anchor="start" x="1375" y="-260.8" font-family="Times,serif" font-size="14.00">u4le</text>
<polygon fill="none" stroke="black" points="1409.5,-254 1409.5,-275 1437.5,-275 1437.5,-254 1409.5,-254"/>
<text text-anchor="start" x="1412.5" y="-260.8" font-family="Times,serif" font-size="14.00">ofs</text>
</g>
<!-- frame_index__seq&#45;&gt;frame_index_entry__seq -->
<g id="edge5" class="edge"><title>frame_index__seq:entries_type&#45;&gt;frame_index_entry__seq</title>
<path fill="none" stroke="black" stroke-width="2" d="M1230,-269C1248.73,-269 1268.85,-269.539 1287.85,-270.293"/>
<polygon fill="black" stroke="black" stroke-width="2" points="1287.83,-273.796 1297.97,-270.719 1288.12,-266.802 1287.83,-273.796"/>
</g>
<!-- frame_index_entry__inst__body -->
<g id="node5" class="node"><title>frame_index_entry__inst__body</title>
<polygon fill="#e0ffe0" stroke="none" points="1489.5,-275 1489.5,-296 1520.5,-296 1520.5,-275 1489.5,-275"/>
<polygon fill="none" stroke="black" points="1489.5,-275 1489.5,-296 1520.5,-296 1520.5,-275 1489.5,-275"/>
<text text-anchor="start" x="1492.5" y="-281.8" font-family="Times,serif" font-size="14.00">pos</text>
<polygon fill="#e0ffe0" stroke="none" points="1520.5,-275 1520.5,-296 1554.5,-296 1554.5,-275 1520.5,-275"/>
<polygon fill="none" stroke="black" points="1520.5,-275 1520.5,-296 1554.5,-296 1554.5,-275 1520.5,-275"/>
<text text-anchor="start" x="1523.5" y="-281.8" font-family="Times,serif" font-size="14.00">size</text>
<polygon fill="#e0ffe0" stroke="none" points="1554.5,-275 1554.5,-296 1607.5,-296 1607.5,-275 1554.5,-275"/>
<polygon fill="none" stroke="black" points="1554.5,-275 1554.5,-296 1607.5,-296 1607.5,-275 1554.5,-275"/>
<text text-anchor="start" x="1565" y="-281.8" font-family="Times,serif" font-size="14.00">type</text>
<polygon fill="#e0ffe0" stroke="none" points="1607.5,-275 1607.5,-296 1648.5,-296 1648.5,-275 1607.5,-275"/>
<polygon fill="none" stroke="black" points="1607.5,-275 1607.5,-296 1648.5,-296 1648.5,-275 1607.5,-275"/>
<text text-anchor="start" x="1621" y="-281.8" font-family="Times,serif" font-size="14.00">id</text>
<polygon fill="none" stroke="black" points="1489.5,-254 1489.5,-275 1520.5,-275 1520.5,-254 1489.5,-254"/>
<text text-anchor="start" x="1494" y="-260.8" font-family="Times,serif" font-size="14.00">ofs</text>
<polygon fill="none" stroke="black" points="1520.5,-254 1520.5,-275 1554.5,-275 1554.5,-254 1520.5,-254"/>
<text text-anchor="start" x="1530.5" y="-260.8" font-family="Times,serif" font-size="14.00">...</text>
<polygon fill="none" stroke="black" points="1554.5,-254 1554.5,-275 1607.5,-275 1607.5,-254 1554.5,-254"/>
<text text-anchor="start" x="1557.5" y="-260.8" font-family="Times,serif" font-size="14.00">Frame</text>
<polygon fill="none" stroke="black" points="1607.5,-254 1607.5,-275 1648.5,-275 1648.5,-254 1607.5,-254"/>
<text text-anchor="start" x="1610.5" y="-260.8" font-family="Times,serif" font-size="14.00">body</text>
</g>
<!-- frame_index_entry__seq&#45;&gt;frame_index_entry__inst__body -->
<g id="edge6" class="edge"><title>frame_index_entry__seq:ofs_type&#45;&gt;frame_index_entry__inst__body:body_pos</title>
<path fill="none" stroke="#404040" d="M1438.5,-264C1456.9,-264 1463.88,-264 1478.35,-264"/>
<polygon fill="#404040" stroke="#404040" points="1478.5,-267.5 1488.5,-264 1478.5,-260.5 1478.5,-267.5"/>
</g>
<!-- frame_index_entry__inst__body&#45;&gt;frame__seq -->
<g id="edge7" class="edge"><title>frame_index_entry__inst__body:body_type&#45;&gt;frame__seq</title>
<path fill="none" stroke="black" stroke-width="2" d="M1649.5,-264C1660.14,-264 1671.01,-264.641 1681.92,-265.777"/>
<polygon fill="black" stroke="black" stroke-width="2" points="1681.6,-269.264 1691.94,-266.955 1682.42,-262.311 1681.6,-269.264"/>
</g>
<!-- frame__seq_body_switch -->
<g id="node7" class="node"><title>frame__seq_body_switch</title>
<polygon fill="#f0f2e4" stroke="none" points="2060,-281 2060,-302 2199,-302 2199,-281 2060,-281"/>
<polygon fill="none" stroke="black" points="2060,-281 2060,-302 2199,-302 2199,-281 2060,-281"/>
<text text-anchor="start" x="2113" y="-287.8" font-family="Times,serif" font-size="14.00">case</text>
<polygon fill="#f0f2e4" stroke="none" points="2199,-281 2199,-302 2316,-302 2316,-281 2199,-281"/>
<polygon fill="none" stroke="black" points="2199,-281 2199,-302 2316,-302 2316,-281 2199,-281"/>
<text text-anchor="start" x="2241.5" y="-287.8" font-family="Times,serif" font-size="14.00">type</text>
<polygon fill="none" stroke="black" points="2060,-260 2060,-281 2199,-281 2199,-260 2060,-260"/>
<text text-anchor="start" x="2063" y="-266.8" font-family="Times,serif" font-size="14.00">:linktype_ethernet</text>
<polygon fill="none" stroke="black" points="2199,-260 2199,-281 2316,-281 2316,-260 2199,-260"/>
<text text-anchor="start" x="2202" y="-266.8" font-family="Times,serif" font-size="14.00">EthernetFrame</text>
</g>
<!-- frame__seq&#45;&gt;frame__seq_body_switch -->
<g id="edge8" class="edge"><title>frame__seq:body_type&#45;&gt;frame__seq_body_switch</title>
<path fill="none" stroke="black" stroke-width="2" d="M2009,-270C2019.67,-270 2030.69,-270.199 2041.77,-270.544"/>
<polygon fill="black" stroke="black" stroke-width="2" points="2041.85,-274.049 2051.96,-270.9 2042.09,-267.053 2041.85,-274.049"/>
</g>
<!-- ethernet_frame__seq -->
<g id="node9" class="node"><title>ethernet_frame__seq</title>
<text text-anchor="middle" x="2443.5" y="-266.3" font-family="Times,serif" font-size="14.00">ethernet_frame__seq</text>
</g>
<!-- frame__seq_body_switch&#45;&gt;ethernet_frame__seq -->
<g id="edge9" class="edge"><title>frame__seq_body_switch:case0&#45;&gt;ethernet_frame__seq</title>
<path fill="none" stroke="black" stroke-width="2" d="M2317,-270C2327.59,-270 2338.69,-270 2349.71,-270"/>
<polygon fill="black" stroke="black" stroke-width="2" points="2349.8,-273.5 2359.8,-270 2349.8,-266.5 2349.8,-273.5"/>
</g>
</g>
</svg>
